<?xml version="1.0" standalone="no"?>
<!DOCTYPE svg PUBLIC "-//W3C//DTD SVG 1.1//EN" "http://www.w3.org/Graphics/SVG/1.1/DTD/svg11.dtd" >
<svg xmlns="http://www.w3.org/2000/svg" xmlns:xlink="http://www.w3.org/1999/xlink" version="1.1">
<metadata>
Created by FontForge 20170731 at Thu Dec  3 19:56:19 2009
 By Aleksey,,,
Copyright (c) 2009 by Jackson Cavanaugh / Okay Type &#38; Design, LLC. All rights reserved.
</metadata>
<defs>
<font id="AlrightSans-UltraItalic" horiz-adv-x="638" >
  <font-face 
    font-family="Alright Sans Ultra Italic"
    font-weight="450"
    font-style="italic"
    font-stretch="normal"
    units-per-em="1000"
    panose-1="0 0 5 0 0 0 0 0 0 0"
    ascent="760"
    descent="-240"
    x-height="554"
    cap-height="700"
    bbox="-181 -365 1498 1079"
    underline-thickness="50"
    underline-position="-200"
    slope="-10"
    unicode-range="U+0020-FB06"
  />
<missing-glyph horiz-adv-x="874" 
d="M87 -237l180 992h487l-180 -992h-487zM399 115l-156 -270h219zM596 674h-219l64 -270zM304 517l-94 -515l153 266zM477 251l58 -247l93 510z" />
    <glyph glyph-name="f_f_j" unicode="ffj" horiz-adv-x="1086" 
d="M412 0l70 404h-159l-71 -404h-218l71 404h-73l24 138h73l2 13q18 109 83.5 155t185.5 46q103 0 190 -47q74 58 220 58q151 0 273 -72l-86 -124q-89 43 -169 43q-51 0 -74 -16t-29 -55v-3h119l-25 -136h-119l-69 -404h-219zM794 33l89 507h219l-92 -519
q-23 -127 -82.5 -179t-172.5 -52q-83 0 -149 46l71 140q33 -19 64 -19q24 0 35.5 18t17.5 58zM347 543v-3h159l3 14q2 17 8 41q-45 15 -90 15q-40 0 -58 -14.5t-22 -52.5z" />
    <glyph glyph-name="f_f_f" unicode="fff" horiz-adv-x="1186" 
d="M412 0l70 404h-159l-71 -404h-218l71 404h-73l24 138h73l2 13q18 109 83.5 155t185.5 46q104 0 190 -48q65 51 188 51q99 0 188 -46q60 54 174 54q91 0 172 -43l-68 -126q-35 16 -74 16q-53 0 -65 -54l-3 -19h119l-24 -137h-120l-70 -404h-218l70 404h-159l-70 -404h-218
zM725 543l-1 -3h160l3 15q4 18 11 42q-47 16 -93 16q-39 0 -58 -16t-22 -54zM347 543v-3h159l3 13q3 23 9 42q-46 15 -91 15q-40 0 -58 -14.5t-22 -52.5z" />
    <glyph glyph-name="f_k" unicode="fk" horiz-adv-x="1048" 
d="M34 0l71 404h-73l24 138h73l2 13q17 105 91 158.5t223 53.5q135 0 209 -54.5t74 -148.5q0 -43 -9 -95l-20 -110l190 195h232l-216 -211l91 -343h-215l-43 180l-84 -81l-18 -99h-218l90 509q5 32 5 46q0 59 -79 59q-76 0 -87 -70v-3h119l-24 -137h-119l-71 -404h-218z" />
    <glyph glyph-name="f_j" unicode="fj" horiz-adv-x="709" 
d="M34 0l71 404h-73l24 138h73l2 14q18 110 92 160.5t210 50.5q151 0 273 -72l-86 -124q-89 43 -169 43q-52 0 -75 -15.5t-29 -55.5v-3h119l-24 -136h-119l-70 -404h-219zM417 33l89 507h219l-92 -519q-23 -127 -82.5 -179t-172.5 -52q-83 0 -149 46l70 140q35 -19 64 -19
q25 0 36 17.5t18 58.5z" />
    <glyph glyph-name="f_b" unicode="fb" horiz-adv-x="1049" 
d="M615 0h-198l91 510q5 30 5 45q0 59 -79 59q-76 0 -87 -70v-3h119l-24 -137h-119l-71 -404h-218l71 404h-73l24 138h73l2 13q18 105 92 158.5t222 53.5q135 0 209 -54.5t74 -148.5q0 -31 -3 -55l-1 -3q53 58 140 58q76 0 123 -58t47 -162q0 -160 -71.5 -257t-182.5 -97
q-87 0 -149 64zM663 163q25 -17 55 -17q42 0 70.5 52.5t28.5 123.5q0 42 -14.5 63.5t-37.5 21.5q-41 0 -68 -55z" />
    <glyph glyph-name="f_f_b" unicode="ffb" horiz-adv-x="1426" 
d="M992 0h-197l90 510q5 30 5 45q0 59 -78 59q-77 0 -87 -70l-1 -3h120l-25 -137h-119l-70 -404h-218l70 404h-159l-71 -404h-218l71 404h-73l24 138h73l2 13q18 109 83.5 155t185.5 46q102 0 192 -49q78 60 231 60q135 0 208.5 -54.5t73.5 -148.5q0 -31 -3 -55l-1 -4
q54 59 141 59q75 0 122.5 -58t47.5 -162q0 -159 -72 -256.5t-182 -97.5q-87 0 -149 64zM1041 163q24 -17 54 -17q42 0 70.5 52.5t28.5 123.5q0 42 -14.5 63.5t-37.5 21.5q-41 0 -67 -55zM347 543v-3h159l2 15q3 20 9 40q-45 15 -90 15q-40 0 -58 -14.5t-22 -52.5z" />
    <glyph glyph-name="f_f_h" unicode="ffh" horiz-adv-x="1414" 
d="M412 0l70 404h-159l-71 -404h-218l71 404h-73l24 138h73l2 13q14 108 81 154.5t188 46.5q102 0 192 -49q78 60 231 60q136 0 211 -55t75 -152q0 -21 -4 -43l-3 -16q74 66 156 66q71 0 109.5 -38.5t38.5 -105.5q0 -38 -10 -96l-58 -327h-218l59 335q5 23 5 43q0 29 -29 29
q-43 0 -81 -64l-61 -343h-218l90 510q1 7 2 17.5t2 17.5t1 11q0 58 -78 58q-77 0 -87 -70l-1 -3h120l-25 -137h-119l-70 -404h-218zM347 540h159l2 15q3 20 9 40q-45 15 -90 15q-40 0 -58 -14.5t-22 -52.5v-3z" />
    <glyph glyph-name="f_f_k" unicode="ffk" horiz-adv-x="1425" 
d="M412 0l70 404h-159l-71 -404h-218l71 404h-73l24 138h73l2 13q14 108 81 154.5t188 46.5q103 0 191 -48q76 59 232 59q135 0 208.5 -54.5t73.5 -148.5q0 -43 -9 -95l-20 -110l191 195h231l-216 -210l92 -344h-216l-43 181l-84 -82l-17 -99h-218l89 509q5 32 5 46
q0 59 -78 59q-77 0 -87 -70l-1 -3h120l-25 -137h-119l-70 -404h-218zM347 543v-3h159l2 15q2 14 8 40q-45 15 -89 15q-40 0 -58 -14.5t-22 -52.5z" />
    <glyph glyph-name="f_h" unicode="fh" horiz-adv-x="1036" 
d="M34 0l71 404h-73l24 138h73l2 13q18 105 92 158.5t222 53.5q136 0 211.5 -55t75.5 -152q0 -16 -5 -43l-2 -16q72 66 155 66q71 0 110 -38.5t39 -105.5q0 -38 -10 -96l-58 -327h-218l59 335q4 28 4 43q0 29 -29 29q-42 0 -81 -64l-60 -343h-219l91 510q1 7 2 17.5t2 17.5
t1 11q0 58 -79 58q-76 0 -87 -70v-3h119l-24 -137h-119l-71 -404h-218z" />
    <glyph glyph-name="f_f" unicode="ff" horiz-adv-x="809" 
d="M412 0l70 404h-159l-71 -404h-218l71 404h-73l24 138h73l2 13q18 109 83.5 155t185.5 46q98 0 184 -44q61 55 178 55q93 0 172 -43l-67 -126q-37 16 -75 16q-53 0 -65 -54l-3 -19h120l-25 -137h-119l-70 -404h-218zM347 540h159l4 15q3 20 9 40q-47 15 -92 15
q-40 0 -58 -14.5t-22 -52.5v-3z" />
    <glyph glyph-name="f_i" unicode="fi" horiz-adv-x="709" 
d="M34 0l71 404h-73l24 138h73l2 14q18 110 92 160.5t210 50.5q151 0 273 -72l-86 -124q-89 43 -169 43q-52 0 -75 -15.5t-29 -55.5v-3h119l-24 -136h-119l-70 -404h-219zM411 0l96 540h218l-96 -540h-218z" />
    <glyph glyph-name="f_l" unicode="fl" horiz-adv-x="716" 
d="M34 0l71 404h-73l24 138h73l2 13q18 105 91.5 158.5t222.5 53.5q135 0 208.5 -55t73.5 -153q0 -44 -6 -74l-86 -485h-218l91 510q5 30 5 45q0 59 -79 59q-41 0 -61 -16.5t-26 -53.5v-3h119l-24 -137h-119l-71 -404h-218z" />
    <glyph glyph-name="f_f_i" unicode="ffi" horiz-adv-x="1086" 
d="M412 0l70 404h-159l-71 -404h-218l71 404h-73l24 138h73l2 13q18 109 83.5 155t185.5 46q103 0 190 -47q74 58 220 58q151 0 273 -72l-86 -124q-89 43 -169 43q-51 0 -74 -16t-29 -55v-3h119l-25 -136h-119l-69 -404h-219zM788 0l96 540h218l-96 -540h-218zM347 540h159
l3 14q2 17 8 41q-45 15 -90 15q-40 0 -58 -14.5t-22 -52.5v-3z" />
    <glyph glyph-name="f_f_l" unicode="ffl" horiz-adv-x="1093" 
d="M412 0l70 404h-159l-71 -404h-218l71 404h-73l24 138h73l2 13q18 109 83.5 155t185.5 46q104 0 190 -48q77 59 233 59q135 0 208 -55t73 -153q0 -44 -6 -74l-85 -485h-218l90 510q5 30 5 45q0 59 -78 59q-77 0 -87 -70l-1 -3h120l-25 -137h-119l-70 -404h-218zM347 543
v-3h159l2 15q3 20 9 40q-47 15 -90 15q-40 0 -58 -14.5t-22 -52.5z" />
    <glyph glyph-name=".notdef" horiz-adv-x="874" 
d="M87 -237l180 992h487l-180 -992h-487zM399 115l-156 -270h219zM596 674h-219l64 -270zM304 517l-94 -515l153 266zM477 251l58 -247l93 510z" />
    <glyph glyph-name=".null" horiz-adv-x="0" 
 />
    <glyph glyph-name="nonmarkingreturn" horiz-adv-x="333" 
 />
    <glyph glyph-name="space" unicode=" " horiz-adv-x="223" 
 />
    <glyph glyph-name="exclam" unicode="!" horiz-adv-x="290" 
d="M86 232l4 315l28 153h214l-28 -153l-110 -315h-108zM0 0l29 165h196l-29 -165h-196z" />
    <glyph glyph-name="quotedbl" unicode="&#x22;" horiz-adv-x="524" 
d="M76 486l39 214h208l-110 -239zM338 486l39 214h208l-110 -239z" />
    <glyph glyph-name="numbersign" unicode="#" horiz-adv-x="671" 
d="M63 332l25 137h114l38 115h161l-39 -115h82l39 115h158l-38 -115h88l-25 -137h-109l-27 -82h96l-25 -136h-116l-37 -114h-161l38 114h-82l-38 -114h-159l38 114h-87l25 136h107l27 82h-93zM316 332l-27 -82h82l27 82h-82z" />
    <glyph glyph-name="dollar" unicode="$" horiz-adv-x="579" 
d="M-10 68l108 130q78 -44 154 -53l13 73q-99 24 -136 46q-76 44 -76 133q0 88 72 141.5t191 57.5l14 77h80l-14 -82q93 -14 172 -59l-104 -134q-58 30 -111 41l-12 -70q32 -7 46.5 -11t44.5 -14t46 -22t35 -30t27.5 -43.5t8.5 -57.5q0 -91 -68.5 -146t-191.5 -58l-21 -120
h-79l21 124q-134 15 -220 77zM257 415q0 -22 37 -33l11 62q-48 -2 -48 -29zM347 172q0 20 -35 33l-11 -62q46 1 46 29z" />
    <glyph glyph-name="percent" unicode="%" horiz-adv-x="903" 
d="M645 583h135l-500 -583h-136zM35 405q0 82 60.5 134.5t153.5 52.5q76 0 119.5 -40.5t43.5 -108.5q0 -81 -62 -134t-156 -53q-76 0 -117.5 40t-41.5 109zM166 412q0 -58 45 -58q32 0 51 23.5t19 58.5q0 58 -44 58q-33 0 -52 -24t-19 -58zM514 139q0 82 60.5 134.5
t153.5 52.5q76 0 119.5 -40.5t43.5 -108.5q0 -81 -62 -134t-156 -53q-76 0 -117.5 40t-41.5 109zM645 146q0 -58 45 -58q32 0 51 23.5t19 58.5q0 58 -44 58q-33 0 -52 -24t-19 -58z" />
    <glyph glyph-name="ampersand" unicode="&#x26;" horiz-adv-x="734" 
d="M20 186q0 71 44 128t117 87q-37 64 -37 126q0 84 65.5 135t153.5 51q138 0 229 -109l-133 -101q-51 53 -86 53q-17 0 -26.5 -10t-9.5 -25q0 -27 40 -76q56 -65 123 -132q21 46 29 93h190q-20 -125 -84 -221q54 -48 81 -70l-131 -127q-52 44 -79 68q-107 -69 -242 -69
q-109 0 -176.5 56t-67.5 143zM379 176q-61 60 -109 113q-56 -30 -56 -75q0 -30 21 -46t57 -16q45 0 87 24z" />
    <glyph glyph-name="quotesingle" unicode="'" horiz-adv-x="262" 
d="M76 486l39 214h208l-110 -239z" />
    <glyph glyph-name="parenleft" unicode="(" horiz-adv-x="425" 
d="M55 197q0 161 63.5 309t180.5 248h231q-123 -113 -196.5 -262t-73.5 -312q0 -183 110 -380h-208q-107 186 -107 397z" />
    <glyph glyph-name="parenright" unicode=")" horiz-adv-x="425" 
d="M390 360q0 -161 -65 -310t-184 -250h-231q124 115 199 264t75 312q0 183 -109 378h208q107 -186 107 -394z" />
    <glyph glyph-name="asterisk" unicode="*" horiz-adv-x="408" 
d="M140 412l44 90l-2 3l-96 -12l1 124l99 -13l2 2l-38 91l111 31l20 -96l4 -1l76 58l67 -96l-80 -41v-4l76 -52l-73 -91l-70 68l-5 -1l-31 -98z" />
    <glyph glyph-name="plus" unicode="+" horiz-adv-x="599" 
d="M22 194l31 170h177l35 192h192l-35 -192h177l-30 -170h-177l-35 -194h-193l35 194h-177z" />
    <glyph glyph-name="comma" unicode="," horiz-adv-x="279" 
d="M0 0l36 199h200l-28 -150q-33 -181 -208 -220l-21 76q44 10 71.5 36.5t33.5 58.5h-84z" />
    <glyph glyph-name="hyphen" unicode="-" horiz-adv-x="372" 
d="M22 191l32 177h314l-30 -177h-316z" />
    <glyph glyph-name="period" unicode="." horiz-adv-x="279" 
d="M0 0l36 199h200l-36 -199h-200z" />
    <glyph glyph-name="slash" unicode="/" horiz-adv-x="594" 
d="M-91 -200l596 955h199l-597 -955h-198z" />
    <glyph glyph-name="zero" unicode="0" horiz-adv-x="678" 
d="M310 -13q-121 0 -199.5 72t-78.5 198q0 154 101.5 246.5t253.5 92.5q121 0 199.5 -72t78.5 -198q0 -154 -101.5 -246.5t-253.5 -92.5zM371 425q-49 0 -79.5 -51t-30.5 -118q0 -98 66 -98q49 0 79 51t30 118q0 98 -65 98z" />
    <glyph glyph-name="one" unicode="1" horiz-adv-x="467" 
d="M357 0h-227l66 372l-95 -31l-63 157l259 86h164z" />
    <glyph glyph-name="two" unicode="2" horiz-adv-x="604" 
d="M7 0l4 46q8 74 41 130.5t76 85.5t91.5 51.5t89.5 33t67.5 24.5t26.5 32q0 36 -63 36q-91 0 -200 -63l-76 143q139 75 295 75q122 0 189 -48t67 -137q0 -48 -23.5 -84t-59.5 -55.5t-80 -35.5t-82.5 -25t-70 -21.5t-40.5 -28.5h298l-29 -159h-521z" />
    <glyph glyph-name="three" unicode="3" horiz-adv-x="613" 
d="M-36 -53l93 136q93 -54 180 -54q51 0 80 20.5t29 53.5q0 31 -24.5 43.5t-74.5 12.5h-106l26 150h92q113 0 113 68q0 26 -17.5 39.5t-47.5 13.5q-74 0 -162 -41l-66 151q124 54 268 54q116 0 186 -53t70 -140q0 -107 -119 -163q40 -25 62 -63.5t22 -81.5
q0 -112 -92 -168.5t-235 -56.5q-159 0 -277 79z" />
    <glyph glyph-name="four" unicode="4" horiz-adv-x="686" 
d="M57 0l-46 154l437 430h207l-76 -431h65l-28 -153h-64l-20 -119h-212l21 119h-284zM207 153h162l34 190z" />
    <glyph glyph-name="five" unicode="5" horiz-adv-x="612" 
d="M-28 -48l102 141q85 -53 165 -53q46 0 74.5 23t28.5 60q0 29 -16.5 44.5t-44.5 15.5q-46 0 -99 -25l-115 75l70 351h449l-24 -151h-252l-23 -117q46 17 94 17q78 0 133 -50.5t55 -139.5q0 -86 -45.5 -150t-116 -94t-155.5 -30q-156 0 -280 83z" />
    <glyph glyph-name="six" unicode="6" horiz-adv-x="631" 
d="M37 289q0 198 108 311t271 113q128 0 223 -70l-99 -126q-56 38 -119 38q-61 0 -96.5 -39.5t-47.5 -96.5q24 18 64 30t77 12q92 0 144.5 -51t52.5 -143q0 -120 -84.5 -200t-220.5 -80q-131 0 -202 83t-71 219zM260 288q-3 -12 -3 -38q0 -42 14.5 -74t48.5 -32
q38 0 58.5 34t20.5 80q0 29 -13 48t-39 19q-50 0 -87 -37z" />
    <glyph glyph-name="seven" unicode="7" horiz-adv-x="562" 
d="M24 -118l327 533h-287l30 169h505l-28 -156l-304 -546h-243z" />
    <glyph glyph-name="eight" unicode="8" horiz-adv-x="681" 
d="M20 173q0 67 45 118.5t128 81.5q-92 49 -92 137q0 95 83 149t223 54q115 0 193.5 -49.5t78.5 -131.5q0 -61 -39.5 -105t-103.5 -68q57 -28 83.5 -64.5t26.5 -92.5q0 -102 -92 -158.5t-235 -56.5q-139 0 -219 49t-80 137zM252 192q0 -24 20 -41t54 -17q39 0 67 20.5
t28 52.5q0 25 -20 47.5t-51 32.5q-40 -10 -69 -38t-29 -57zM376 439q34 7 56 29t22 48q0 20 -17 34t-42 14q-32 0 -52.5 -18.5t-20.5 -45.5q0 -22 15 -38t39 -23z" />
    <glyph glyph-name="nine" unicode="9" horiz-adv-x="635" 
d="M227 118q-92 0 -144.5 51t-52.5 143q0 120 83.5 200t219.5 80q131 0 203 -83t72 -219q0 -199 -104 -311.5t-266 -112.5q-60 0 -123 18t-109 53l99 126q55 -39 119 -39q61 0 96.5 39.5t47.5 96.5q-24 -17 -64.5 -29.5t-76.5 -12.5zM298 255q49 0 87 36q3 13 3 39
q0 41 -15 73.5t-48 32.5q-38 0 -58.5 -34t-20.5 -80q0 -67 52 -67z" />
    <glyph glyph-name="colon" unicode=":" horiz-adv-x="279" 
d="M0 0l36 199h200l-36 -199h-200zM64 360l36 199h200l-36 -199h-200z" />
    <glyph glyph-name="semicolon" unicode=";" horiz-adv-x="279" 
d="M0 0l36 199h200l-28 -150q-33 -181 -208 -220l-21 76q44 10 71.5 36.5t33.5 58.5h-84zM65 360l36 199h200l-36 -199h-200z" />
    <glyph glyph-name="less" unicode="&#x3c;" horiz-adv-x="542" 
d="M470 0l-442 184l34 193l506 179l-39 -220l-228 -65l205 -64z" />
    <glyph glyph-name="equal" unicode="=" horiz-adv-x="599" 
d="M-1 66l31 170h546l-30 -170h-547zM44 321l31 170h546l-30 -170h-547z" />
    <glyph glyph-name="greater" unicode="&#x3e;" horiz-adv-x="542" 
d="M95 556l442 -184l-34 -193l-506 -179l39 220l228 65l-205 64z" />
    <glyph glyph-name="question" unicode="?" horiz-adv-x="584" 
d="M194 232q-3 31 2 63q7 37 30 66.5t51.5 48t55.5 34.5t45.5 33.5t18.5 35.5q0 33 -52 33q-74 0 -156 -67l-112 118q128 116 295 116q44 0 85 -10t78 -31t59.5 -58.5t22.5 -87.5q0 -41 -18 -75.5t-45 -55.5t-59.5 -40.5t-61.5 -33t-51 -30.5t-27 -34l-7 -25h-154zM133 0
l29 165h196l-29 -165h-196z" />
    <glyph glyph-name="at" unicode="@" horiz-adv-x="782" 
d="M55 288q0 150 106 256.5t256 106.5q142 0 242.5 -98t100.5 -235q0 -112 -66.5 -172.5t-142.5 -60.5q-90 0 -125 63q-49 -49 -105 -49q-46 0 -79 38.5t-33 100.5q0 55 18 107.5t59.5 91.5t98.5 39q60 0 89 -52l21 42h122l-66 -236q-21 -73 35 -73q39 0 76.5 43t37.5 118
q0 112 -83 192t-199 80q-124 0 -212.5 -88.5t-88.5 -213.5q0 -124 88.5 -212.5t212.5 -88.5q92 0 171 53l34 -50q-92 -64 -206 -64q-150 0 -256 106t-106 256zM346 246q0 -44 31 -44q16 0 28.5 12t17.5 34l27 103q-13 19 -35 19q-30 0 -49.5 -41t-19.5 -83z" />
    <glyph glyph-name="A" unicode="A" horiz-adv-x="705" 
d="M-45 0l354 700h249l107 -700h-230l-8 85h-182l-36 -85h-254zM394 435l-80 -188h99l-17 188h-2z" />
    <glyph glyph-name="B" unicode="B" horiz-adv-x="667" 
d="M6 0l123 700h319q107 0 168.5 -48.5t61.5 -128.5q0 -62 -32.5 -102t-99.5 -66q101 -37 101 -143q0 -104 -79 -158t-227 -54h-335zM257 170h95q36 0 59.5 18t23.5 52q0 48 -62 48h-95zM301 419h73q34 0 55 17t21 51q0 43 -56 43h-73z" />
    <glyph glyph-name="C" unicode="C" horiz-adv-x="691" 
d="M40 317q0 164 113.5 280t288.5 116q173 0 280 -112l-130 -131q-64 57 -146 57q-72 0 -124 -58.5t-52 -142.5q0 -73 36 -113t94 -40q81 0 149 64l117 -143q-117 -107 -282 -107q-151 0 -247.5 86.5t-96.5 243.5z" />
    <glyph glyph-name="D" unicode="D" horiz-adv-x="725" 
d="M5 0l124 700h249q162 0 253 -76.5t91 -230.5q0 -178 -116.5 -285.5t-342.5 -107.5h-258zM262 174h56q77 0 125 65t48 154q0 133 -113 133h-53z" />
    <glyph glyph-name="E" unicode="E" horiz-adv-x="618" 
d="M5 0l124 700h530l-34 -191h-303l-14 -73h266l-30 -163h-265l-15 -82h308l-34 -191h-533z" />
    <glyph glyph-name="F" unicode="F" horiz-adv-x="606" 
d="M5 0l124 700h523l-34 -191h-296l-17 -88h256l-33 -177h-253l-44 -244h-226z" />
    <glyph glyph-name="G" unicode="G" horiz-adv-x="726" 
d="M40 308q0 172 112 288.5t302 116.5q162 0 278 -112l-133 -130q-64 56 -147 56q-79 0 -130.5 -58.5t-51.5 -147.5q0 -67 35.5 -107.5t91.5 -40.5q47 0 78 15l14 84h-114l25 137h313l-61 -341q-113 -81 -271 -81q-155 0 -248 91t-93 230z" />
    <glyph glyph-name="H" unicode="H" horiz-adv-x="710" 
d="M5 0l124 700h227l-44 -252h163l44 252h227l-123 -700h-228l47 260h-163l-47 -260h-227z" />
    <glyph glyph-name="I" unicode="I" horiz-adv-x="320" 
d="M5 0l124 700h227l-124 -700h-227z" />
    <glyph glyph-name="J" unicode="J" horiz-adv-x="544" 
d="M-16 132l165 101q38 -53 72 -53q41 0 49 49l83 471h227l-84 -473q-44 -240 -278 -240q-73 0 -136 39t-98 106z" />
    <glyph glyph-name="K" unicode="K" horiz-adv-x="704" 
d="M5 0l124 700h227l-43 -245l221 245h258l-248 -255l126 -445h-228l-70 267l-113 -117l-27 -150h-227z" />
    <glyph glyph-name="L" unicode="L" horiz-adv-x="577" 
d="M5 0l124 700h227l-90 -510h281l-34 -190h-508z" />
    <glyph glyph-name="M" unicode="M" horiz-adv-x="854" 
d="M5 0l124 700h208l120 -231l192 231h241l-123 -700h-212l70 393l-211 -235l-127 235l-69 -393h-213z" />
    <glyph glyph-name="N" unicode="N" horiz-adv-x="728" 
d="M5 0l124 700h181l180 -358l62 358h212l-124 -700h-186l-176 359l-61 -359h-212z" />
    <glyph glyph-name="O" unicode="O" horiz-adv-x="798" 
d="M46 323q0 75 26.5 144t75.5 124.5t128.5 88.5t176.5 33q147 0 243.5 -91t96.5 -245q0 -75 -26.5 -144t-75.5 -124.5t-128.5 -88.5t-176.5 -33q-147 0 -243.5 91t-96.5 245zM277 319q0 -148 120 -148q72 0 118 64.5t46 145.5q0 148 -120 148q-72 0 -118 -64.5t-46 -145.5z
" />
    <glyph glyph-name="P" unicode="P" horiz-adv-x="680" 
d="M5 0l124 700h293q132 0 203 -60t71 -158q0 -52 -16.5 -95.5t-53.5 -81t-104.5 -58.5t-161.5 -21h-87l-41 -226h-227zM302 392h77q38 0 62 19.5t24 58.5q0 30 -17.5 45t-45.5 15h-76z" />
    <glyph glyph-name="Q" unicode="Q" horiz-adv-x="798" 
d="M46 323q0 75 26.5 144t75.5 124.5t128.5 88.5t176.5 33q147 0 243.5 -91t96.5 -245q0 -169 -113 -280l46 -50l-111 -86l-50 60q-83 -34 -179 -34q-147 0 -243.5 91t-96.5 245zM363 267l95 81l73 -87q30 57 30 120q0 148 -120 148q-72 0 -118 -64.5t-46 -145.5
q0 -148 120 -148q24 0 44 7z" />
    <glyph glyph-name="R" unicode="R" horiz-adv-x="693" 
d="M5 0l124 700h300q128 0 201 -59t73 -161q0 -156 -148 -212l58 -268h-214l-39 239h-7h-78l-43 -239h-227zM302 392h83q37 0 61 20t24 59q0 30 -17.5 44.5t-44.5 14.5h-82z" />
    <glyph glyph-name="S" unicode="S" horiz-adv-x="624" 
d="M-4 87l121 155q92 -62 182 -62q25 0 41 8.5t16 23.5q0 8 -5 14.5t-16.5 12.5t-21.5 9.5t-29.5 10l-31.5 10.5q-32 11 -52 20t-46.5 26t-42 37t-27 52t-11.5 71q0 103 78 170.5t212 67.5q146 0 271 -77l-100 -162q-86 47 -169 47q-52 0 -52 -32q0 -5 2.5 -10t8 -9
t11.5 -7.5t16 -7t17.5 -6t20.5 -7t21 -7.5q36 -13 52.5 -19.5t47 -24t45.5 -36.5t27.5 -51.5t12.5 -73.5q0 -108 -78 -175.5t-226 -67.5q-79 0 -161 29.5t-134 70.5z" />
    <glyph glyph-name="T" unicode="T" horiz-adv-x="660" 
d="M182 0l89 504h-206l34 196h624l-34 -196h-192l-89 -504h-226z" />
    <glyph glyph-name="U" unicode="U" horiz-adv-x="714" 
d="M58 320l69 380h228l-74 -405q-5 -28 -5 -50q0 -33 19 -52t53 -19q43 0 67.5 29.5t36.5 95.5l71 401h227l-75 -426q-26 -149 -115 -218t-245 -69q-122 0 -194.5 62.5t-72.5 169.5q0 39 10 101z" />
    <glyph glyph-name="V" unicode="V" horiz-adv-x="702" 
d="M186 0l-108 700h233l36 -431h2l185 431h252l-354 -700h-246z" />
    <glyph glyph-name="W" unicode="W" horiz-adv-x="1097" 
d="M175 0l-91 700h224l39 -370h2l167 370h201l39 -370h2l169 370h244l-338 -700h-223l-41 383h-2l-175 -383h-217z" />
    <glyph glyph-name="X" unicode="X" horiz-adv-x="723" 
d="M-37 0l276 357l-151 343h256l63 -167l116 167h282l-271 -345l149 -355h-251l-64 180l-125 -180h-280z" />
    <glyph glyph-name="Y" unicode="Y" horiz-adv-x="714" 
d="M200 0l49 278l-176 422h242l75 -195h2l144 195h269l-326 -422l-49 -278h-230z" />
    <glyph glyph-name="Z" unicode="Z" horiz-adv-x="637" 
d="M-9 0l29 162l317 339h-260l35 199h573l-28 -164l-315 -338h268l-34 -198h-585z" />
    <glyph glyph-name="bracketleft" unicode="[" horiz-adv-x="469" 
d="M378 -55l-27 -145h-374l168 955h376l-25 -143h-157l-118 -667h157z" />
    <glyph glyph-name="backslash" unicode="\" horiz-adv-x="594" 
d="M541 -200h-188l-271 955h186z" />
    <glyph glyph-name="bracketright" unicode="]" horiz-adv-x="469" 
d="M-18 -55h156l118 667h-156l24 143h375l-168 -955h-375z" />
    <glyph glyph-name="asciicircum" unicode="^" horiz-adv-x="637" 
d="M128 562l181 193h216l113 -193h-189l-40 68l-67 -68h-214z" />
    <glyph glyph-name="underscore" unicode="_" horiz-adv-x="541" 
d="M-44 -13h541l-31 -178h-542z" />
    <glyph glyph-name="grave" unicode="`" horiz-adv-x="507" 
d="M315 611l-90 108l150 82l61 -190h-121z" />
    <glyph glyph-name="a" unicode="a" 
d="M213 -10q-80 0 -131.5 57t-51.5 162q0 148 73.5 251.5t183.5 103.5q93 0 145 -59l21 49h196l-67 -377q-2 -14 -2 -19q0 -21 30 -21l-24 -141q-166 -27 -208 65q-63 -71 -165 -71zM369 202l33 190q-28 17 -54 17q-43 0 -71.5 -52.5t-28.5 -123.5q0 -83 53 -83q43 0 68 52z
" />
    <glyph glyph-name="b" unicode="b" horiz-adv-x="630" 
d="M-2 0l134 755h218l-45 -250q54 59 141 59q76 0 123 -58t47 -162q0 -160 -71.5 -257t-182.5 -97q-87 0 -149 64l-17 -54h-198zM245 163q24 -17 54 -17q43 0 71.5 52.5t28.5 123.5q0 42 -14.5 63.5t-37.5 21.5q-19 0 -37.5 -15t-30.5 -40z" />
    <glyph glyph-name="c" unicode="c" horiz-adv-x="532" 
d="M23 247q0 136 92.5 228t226.5 92q65 0 122.5 -22t92.5 -56l-118 -125q-37 34 -85 34q-47 0 -78 -43t-31 -108q0 -41 22 -65.5t54 -24.5q46 0 87 33l102 -131q-88 -72 -221 -72q-112 0 -189 66t-77 194z" />
    <glyph glyph-name="d" unicode="d" horiz-adv-x="630" 
d="M208 -10q-75 0 -126.5 59.5t-51.5 161.5q0 147 74 250t179 103q92 0 139 -51l43 242h218l-133 -755h-183l-3 62q-60 -72 -156 -72zM299 147q19 0 38 15t31 40l33 190q-26 17 -54 17q-43 0 -71.5 -52.5t-28.5 -123.5q0 -43 14.5 -64.5t37.5 -21.5z" />
    <glyph glyph-name="e" unicode="e" horiz-adv-x="603" 
d="M33 234q0 150 101 241.5t242 91.5q102 0 165 -46.5t63 -125.5q0 -81 -80.5 -126t-210.5 -45h-60q3 -36 21 -50.5t55 -14.5q68 0 139 42l71 -142q-117 -72 -238 -72q-120 0 -194 67t-74 180zM358 421q-34 0 -58.5 -26t-36.5 -71h28q111 0 111 57q0 18 -11.5 29t-32.5 11z
" />
    <glyph glyph-name="f" unicode="f" horiz-adv-x="432" 
d="M34 0l71 404h-73l24 138h73l2 13q19 111 80.5 161.5t173.5 50.5q91 0 172 -43l-68 -126q-35 16 -74 16q-53 0 -65 -54l-3 -19h119l-24 -137h-119l-71 -404h-218z" />
    <glyph glyph-name="g" unicode="g" horiz-adv-x="633" 
d="M338 24l7 40q-55 -43 -135 -43q-71 0 -124 51.5t-53 155.5q0 137 73.5 236.5t184.5 99.5q90 0 143 -53l16 43h198l-90 -513q-24 -136 -101 -193.5t-226 -57.5q-59 0 -119 16.5t-101 40.5l77 151q84 -40 145 -40q95 0 105 66zM371 219l32 180q-24 16 -54 16
q-42 0 -70.5 -50t-28.5 -118q0 -41 14.5 -61t37.5 -20q19 0 38 14.5t31 38.5z" />
    <glyph glyph-name="h" unicode="h" horiz-adv-x="619" 
d="M-1 0l134 755h218l-45 -254q74 66 156 66q71 0 110 -38.5t39 -105.5q0 -38 -10 -96l-58 -327h-218l59 335q4 28 4 43q0 29 -29 29q-43 0 -81 -64l-61 -343h-218z" />
    <glyph glyph-name="i" unicode="i" horiz-adv-x="297" 
d="M-1 0l96 541h218l-96 -541h-218zM105 596l27 159h218l-26 -159h-219z" />
    <glyph glyph-name="j" unicode="j" horiz-adv-x="299" 
d="M7 33l89 508h219l-92 -520q-23 -127 -80.5 -179t-170.5 -52q-87 0 -153 46l71 140q33 -19 64 -19q24 0 35 17.5t18 58.5zM106 596l27 159h219l-27 -159h-219z" />
    <glyph glyph-name="k" unicode="k" horiz-adv-x="629" 
d="M-1 0l133 755h218l-70 -396l190 195h231l-215 -210l91 -344h-215l-43 181l-84 -82l-18 -99h-218z" />
    <glyph glyph-name="l" unicode="l" horiz-adv-x="297" 
d="M-1 0l133 755h218l-133 -755h-218z" />
    <glyph glyph-name="m" unicode="m" horiz-adv-x="913" 
d="M274 351l-62 -351h-213l98 554h183l4 -65q80 78 173 78q107 0 130 -87q86 87 181 87q60 0 97.5 -35.5t37.5 -96.5q0 -38 -14 -118l-56 -317h-208l59 335q5 25 5 40q0 31 -29 31q-38 0 -76 -54l-64 -352h-206l60 335q5 25 5 40q0 31 -29 31q-39 0 -76 -55z" />
    <glyph glyph-name="n" unicode="n" horiz-adv-x="619" 
d="M324 0l59 335q5 23 5 43q0 29 -29 29q-43 0 -81 -64l-61 -343h-218l99 554h184l6 -63q76 76 174 76q71 0 109.5 -38.5t38.5 -105.5q0 -38 -10 -96l-58 -327h-218z" />
    <glyph glyph-name="o" unicode="o" horiz-adv-x="631" 
d="M292 -13q-113 0 -186.5 69.5t-73.5 188.5q0 145 89.5 233.5t236.5 88.5q113 0 186.5 -69t73.5 -189q0 -144 -89.5 -233t-236.5 -89zM305 140q40 0 66.5 54.5t26.5 122.5q0 97 -54 97q-39 0 -65.5 -54.5t-26.5 -122.5q0 -97 53 -97z" />
    <glyph glyph-name="p" unicode="p" horiz-adv-x="630" 
d="M224 48l-44 -248h-218l135 754h192l5 -57q65 67 154 67q71 0 119.5 -56.5t48.5 -168.5q0 -155 -72.5 -252t-181.5 -97q-83 0 -138 58zM245 163q24 -17 54 -17q43 0 71.5 52.5t28.5 123.5q0 42 -14.5 63.5t-37.5 21.5q-41 0 -68 -55z" />
    <glyph glyph-name="q" unicode="q" horiz-adv-x="628" 
d="M205 -10q-76 0 -125.5 59.5t-49.5 167.5q0 148 73 247.5t184 99.5q93 0 145 -59l21 49h195l-132 -754h-218l43 243q-49 -53 -136 -53zM300 147q19 0 38 15t31 40l33 190q-28 17 -54 17q-43 0 -71.5 -52.5t-28.5 -123.5q0 -43 14.5 -64.5t37.5 -21.5z" />
    <glyph glyph-name="r" unicode="r" horiz-adv-x="466" 
d="M-2 0l100 554h183l8 -76q62 94 163 94q43 0 67 -8l-56 -192q-31 11 -69 11q-70 0 -129 -107l-49 -276h-218z" />
    <glyph glyph-name="s" unicode="s" horiz-adv-x="519" 
d="M-13 60l89 133q90 -49 156 -49q45 0 45 24q0 21 -64 39q-9 3 -13 4q-153 44 -153 165q0 90 71 140.5t173 50.5q127 0 234 -66l-88 -126q-72 38 -132 38q-41 0 -41 -24q0 -21 49 -34q3 0 34 -8q71 -18 107.5 -52.5t36.5 -100.5q0 -97 -75 -152t-184 -55q-143 0 -245 73z
" />
    <glyph glyph-name="t" unicode="t" horiz-adv-x="471" 
d="M78 222l34 191h-74l26 141h74l21 117h218l-21 -117h143l-26 -141h-143l-36 -202q-3 -9 -3 -23q0 -30 30 -30q32 0 63 23l60 -134q-91 -60 -205 -60q-74 0 -122 41.5t-48 111.5q0 21 9 82z" />
    <glyph glyph-name="u" unicode="u" horiz-adv-x="616" 
d="M632 554l-99 -554h-177l-7 65q-78 -78 -175 -78q-74 0 -113.5 40.5t-39.5 104.5q0 44 9 95l58 327h218l-63 -344q-4 -22 -4 -38q0 -31 30 -31q42 0 85 77l59 336h219z" />
    <glyph glyph-name="v" unicode="v" horiz-adv-x="558" 
d="M126 0l-67 554h196l19 -320h2l134 320h205l-267 -554h-222z" />
    <glyph glyph-name="w" unicode="w" horiz-adv-x="842" 
d="M122 0l-64 554h197l21 -273h2l114 273h156l20 -273h2l116 273h209l-262 -554h-179l-27 252h-2l-112 -252h-191z" />
    <glyph glyph-name="x" unicode="x" horiz-adv-x="560" 
d="M-41 0l209 283l-109 271h201l43 -125l89 125h228l-209 -273l109 -281h-194l-51 136l-97 -136h-219z" />
    <glyph glyph-name="y" unicode="y" horiz-adv-x="592" 
d="M10 -24q38 -19 67 -19t45.5 10.5t27.5 38.5l3 6l-98 542h203l34 -293h2l137 293h214l-259 -506q-79 -154 -141.5 -206t-163.5 -52q-86 0 -146 37z" />
    <glyph glyph-name="z" unicode="z" horiz-adv-x="532" 
d="M-12 0l25 137l253 263h-200l29 154h454l-25 -142l-244 -257h208l-26 -155h-474z" />
    <glyph glyph-name="braceleft" unicode="{" horiz-adv-x="509" 
d="M417 -52l-27 -148h-86q-117 0 -167.5 37.5t-50.5 112.5q0 27 6 60l22 115q2 14 2 23q0 21 -12 28.5t-40 7.5h-49l33 189h49q36 0 50 15t23 64l21 111q20 107 75.5 149.5t177.5 42.5h116l-26 -148h-73q-25 0 -36.5 -9.5t-15.5 -35.5l-23 -131q-12 -66 -42.5 -103.5
t-105.5 -51.5v-1q97 -31 97 -114q0 -23 -6 -54l-21 -115q-1 -3 -1 -15q0 -29 38 -29h72z" />
    <glyph glyph-name="bar" unicode="|" horiz-adv-x="339" 
d="M-4 -200l168 955h196l-169 -955h-195z" />
    <glyph glyph-name="braceright" unicode="}" horiz-adv-x="509" 
d="M110 607l27 148h86q117 0 167.5 -37.5t50.5 -112.5q0 -27 -6 -60l-22 -113q-2 -14 -2 -23q0 -21 12 -28.5t40 -7.5h49l-33 -189h-49q-36 0 -50 -15t-23 -64l-21 -113q-20 -107 -75.5 -149.5t-177.5 -42.5h-116l26 148h73q25 0 36.5 9.5t15.5 35.5l23 133
q12 66 42.5 103.5t105.5 51.5v1q-97 31 -97 114q0 22 6 54l21 113q1 3 1 15q0 29 -38 29h-72z" />
    <glyph glyph-name="asciitilde" unicode="~" horiz-adv-x="579" 
d="M43 173q-2 103 38 161.5t122 58.5q47 0 105 -28t81 -28q33 0 39 42h127q5 -219 -161 -219q-44 0 -103.5 28.5t-79.5 28.5q-36 0 -41 -44h-127z" />
    <glyph glyph-name="nbspace" unicode="&#xa0;" horiz-adv-x="223" 
 />
    <glyph glyph-name="exclamdown" unicode="&#xa1;" horiz-adv-x="275" 
d="M212 324l-4 -315l-28 -153h-214l28 153l110 315h108zM298 556l-29 -165h-196l29 165h196z" />
    <glyph glyph-name="cent" unicode="&#xa2;" horiz-adv-x="633" 
d="M38 261q0 141 98 238t266 97q14 0 38 -2l35 83h89l-41 -103q65 -25 117 -78l-115 -118q-35 34 -75 48l-117 -277q5 -1 16 -1q70 0 140 59l108 -118q-105 -102 -262 -102q-25 0 -49 3l-52 -123h-83l58 141q-81 31 -126 98.5t-45 154.5zM249 263q0 -66 38 -96l106 268
q-62 -4 -103 -54t-41 -118z" />
    <glyph glyph-name="sterling" unicode="&#xa3;" horiz-adv-x="657" 
d="M56 247l18 101h74q-16 40 -16 81q0 74 61.5 120.5t171.5 46.5q78 0 133.5 -33t83.5 -83l-144 -65q-11 18 -28.5 29.5t-33.5 11.5q-19 0 -31.5 -10.5t-12.5 -29.5q0 -24 20 -69h127l-19 -100h-73q2 -18 2 -28q0 -55 -29 -102q24 -2 36 -2q34 0 47.5 22t5.5 52h164
q17 -90 -28 -146t-138 -56q-91 0 -176 47q-82 -47 -173 -47q-57 0 -87.5 29t-30.5 77q0 44 33.5 74.5t85.5 30.5q46 0 105 -26q1 4 1 12q0 32 -11 63h-138zM102 57q42 0 74 39q-48 31 -75 31q-18 0 -29.5 -9.5t-11.5 -25.5q0 -35 42 -35z" />
    <glyph glyph-name="currency" unicode="&#xa4;" horiz-adv-x="703" 
d="M69 260q0 113 64 197l-58 71l81 64l52 -64q90 61 204 61q89 0 157 -56l69 62l70 -76l-73 -66q33 -60 33 -133q0 -111 -65 -198l56 -67l-80 -65l-51 61q-85 -59 -202 -59q-89 0 -160 57l-70 -63l-69 76l74 67q-32 61 -32 131zM276 275q0 -35 21 -57t54 -22q44 0 76.5 32.5
t32.5 77.5q0 35 -20.5 56.5t-53.5 21.5q-44 0 -77 -32.5t-33 -76.5z" />
    <glyph glyph-name="yen" unicode="&#xa5;" horiz-adv-x="625" 
d="M67 202l16 94h127l-153 288h242l42 -109h2l83 109h262l-256 -288h125l-17 -94h-125l-6 -37h125l-17 -93h-125l-12 -72h-222l12 72h-126l16 93h127l6 37h-126z" />
    <glyph glyph-name="brokenbar" unicode="&#xa6;" horiz-adv-x="339" 
d="M65 191h195l-69 -391h-195zM96 367l68 388h196l-69 -388h-195z" />
    <glyph glyph-name="section" unicode="&#xa7;" horiz-adv-x="559" 
d="M521 262q0 -75 -87 -125q45 -40 45 -105q0 -69 -67 -115t-192 -46q-52 0 -112 18t-103 46l110 106q54 -27 110 -27q51 0 51 22q0 13 -25 21.5t-61 16.5t-72 20.5t-61 40.5t-25 70q0 76 86 125q-44 39 -44 105q0 69 67 115t192 46q52 0 112 -18t103 -46l-110 -106
q-54 27 -110 27q-51 0 -51 -22q0 -13 25 -21.5t61 -16.5t72 -20.5t61 -40.5t25 -70zM340 224q0 6 -2.5 11.5t-9 10t-12 7.5t-17.5 6.5t-19 5.5t-22.5 6t-23.5 6q-21 -15 -21 -34q0 -6 2.5 -11.5t9 -10t12 -7.5t17.5 -6.5t19 -5.5t22.5 -6t23.5 -6q21 13 21 34z" />
    <glyph glyph-name="dieresis" unicode="&#xa8;" horiz-adv-x="560" 
d="M402 619l26 145h150l-25 -145h-151zM157 619l25 145h155l-26 -145h-154z" />
    <glyph glyph-name="copyright" unicode="&#xa9;" horiz-adv-x="785" 
d="M203 286q0 82 57 141t150 59q99 0 166 -67l-80 -88q-37 35 -75 35q-28 0 -47.5 -22t-19.5 -58t18 -56t47 -20q42 0 76 34l84 -85q-30 -31 -75.5 -50.5t-94.5 -19.5q-95 0 -150.5 57t-55.5 140zM41 288q0 150 106 256.5t256 106.5t256.5 -106.5t106.5 -256.5t-106.5 -256
t-256.5 -106t-256 106t-106 256zM103 288q0 -124 88.5 -212.5t212.5 -88.5q125 0 213.5 88.5t88.5 212.5t-89 213t-213 89t-212.5 -88.5t-88.5 -213.5z" />
    <glyph glyph-name="ordfeminine" unicode="&#xaa;" horiz-adv-x="403" 
d="M51 421q0 49 37 81t87 44.5t116 15.5l3 14q3 15 -5.5 21.5t-29.5 6.5q-51 0 -126 -34l-36 91q100 49 177 49q90 0 125 -38t22 -102l-25 -129q-2 -10 3.5 -14.5t18.5 -4.5l-16 -90q-58 0 -85 10.5t-38 37.5q-52 -55 -121 -55q-48 0 -77.5 27t-29.5 69zM184 444
q0 -26 30 -26q34 0 56 22l10 54q-44 -2 -70 -15.5t-26 -34.5z" />
    <glyph glyph-name="guillemotleft" unicode="&#xab;" horiz-adv-x="685" 
d="M332 93l-137 -93l-164 282l231 275l124 -100l-162 -183zM630 93l-137 -93l-164 282l231 275l124 -100l-162 -183z" />
    <glyph glyph-name="logicalnot" unicode="&#xac;" horiz-adv-x="676" 
d="M74 421l29 163h592l-58 -336h-216l30 173h-377z" />
    <glyph glyph-name="registered" unicode="&#xae;" horiz-adv-x="785" 
d="M237 105v376h212q74 0 114.5 -39t40.5 -91q0 -72 -57 -101l53 -145h-152l-33 126h-27v-126h-151zM388 313h31q18 0 27 9.5t9 24.5q0 14 -9.5 25t-26.5 11h-31v-70zM41 288q0 150 106 256.5t256 106.5t256.5 -106.5t106.5 -256.5t-106.5 -256t-256.5 -106t-256 106
t-106 256zM103 288q0 -124 88.5 -212.5t212.5 -88.5q125 0 213.5 88.5t88.5 212.5t-89 213t-213 89t-212.5 -88.5t-88.5 -213.5z" />
    <glyph glyph-name="macron" unicode="&#xaf;" horiz-adv-x="547" 
d="M183 631l21 121h365l-21 -121h-365z" />
    <glyph glyph-name="degree" unicode="&#xb0;" horiz-adv-x="378" 
d="M245 370q-76 0 -127.5 47.5t-51.5 124.5q0 76 52 124t127 48t127 -48t52 -124q0 -77 -51.5 -124.5t-127.5 -47.5zM245 482q24 0 42 17t18 43t-18 43t-42 17q-25 0 -43 -17t-18 -43t18 -43t43 -17z" />
    <glyph glyph-name="plusminus" unicode="&#xb1;" horiz-adv-x="599" 
d="M-13 0l20 111h177l22 124h-177l31 170h176l29 151h192l-28 -151h177l-31 -170h-176l-22 -124h176l-20 -111h-546z" />
    <glyph glyph-name="two.sups" unicode="&#xb2;" horiz-adv-x="326" 
d="M86 500l7 51q6 42 23.5 74t40 49t47 30.5t45 20t34 15t13.5 18.5q0 9 -9 15t-22 6q-45 0 -91 -33l-55 75q30 25 72 41t78 16q64 0 101 -32t37 -84q0 -36 -18.5 -61.5t-46 -39.5t-55 -24t-48 -20.5t-23.5 -24.5h145l-13 -92h-262z" />
    <glyph glyph-name="three.sups" unicode="&#xb3;" horiz-adv-x="343" 
d="M74 537l49 77q48 -28 89 -28q25 0 39.5 9.5t14.5 23.5q0 24 -47 24h-58l14 87h51q54 0 54 28q0 11 -9 18.5t-23 7.5q-30 0 -81 -20l-32 84q78 30 139 30q58 0 93.5 -28t35.5 -75q0 -27 -17.5 -51t-46.5 -37q47 -28 47 -78q0 -56 -47 -86t-117 -30q-88 0 -148 44z" />
    <glyph glyph-name="acute" unicode="&#xb4;" horiz-adv-x="507" 
d="M204 611l128 190l137 -82l-127 -108h-138z" />
    <glyph glyph-name="mu" unicode="&#xb5;" horiz-adv-x="630" 
d="M-33 -200l139 784h224l-68 -389q-9 -49 28 -49q17 0 37 18t37 51l65 369h225l-103 -584h-190l-8 54q-15 -25 -42 -41.5t-56 -16.5q-32 0 -46 7l-37 -203h-205z" />
    <glyph glyph-name="paragraph" unicode="&#xb6;" horiz-adv-x="793" 
d="M241 0l46 262h-4q-110 0 -165.5 56t-55.5 133q0 96 77.5 172.5t218.5 76.5h452l-124 -700h-184l100 566h-76l-100 -566h-185z" />
    <glyph glyph-name="periodcentered" unicode="&#xb7;" horiz-adv-x="269" 
d="M28 179l35 196h197l-35 -196h-197z" />
    <glyph glyph-name="cedilla" unicode="&#xb8;" horiz-adv-x="507" 
d="M71 -160q125 94 152 174h127q-32 -148 -146 -242z" />
    <glyph glyph-name="one.sups" unicode="&#xb9;" horiz-adv-x="332" 
d="M94 500l13 87h77l30 160l-59 -27l-41 85l160 67h87l-51 -285h66l-13 -87h-269z" />
    <glyph glyph-name="ordmasculine" unicode="&#xba;" horiz-adv-x="422" 
d="M234 325q-74 0 -122 44.5t-48 123.5q0 96 62 156.5t164 60.5q74 0 122 -44.5t48 -123.5q0 -96 -62 -156.5t-164 -60.5zM280 612q-38 0 -62 -36t-24 -81q0 -33 13 -52.5t37 -19.5q38 0 62 36t24 81q0 33 -13 52.5t-37 19.5z" />
    <glyph glyph-name="guillemotright" unicode="&#xbb;" horiz-adv-x="686" 
d="M69 464l137 93l164 -275l-231 -282l-124 100l166 186zM368 464l137 93l164 -275l-231 -282l-124 100l166 186z" />
    <glyph glyph-name="onequarter" unicode="&#xbc;" horiz-adv-x="848" 
d="M534 59l-28 89l207 223h117l-40 -223h30l-14 -89h-32l-10 -59h-117l11 59h-124zM610 148h64l17 87zM80 0l678 700h140l-677 -700h-141zM65 328l13 87h77l30 160l-59 -27l-41 85l160 67h87l-51 -285h66l-13 -87h-269z" />
    <glyph glyph-name="onehalf" unicode="&#xbd;" horiz-adv-x="905" 
d="M572 0l7 51q6 42 23.5 74t40 49t47 30.5t45 20t34 15t13.5 18.5q0 9 -9 15t-22 6q-45 0 -91 -33l-55 75q30 25 72 41t78 16q64 0 101 -32t37 -84q0 -36 -18.5 -61.5t-46 -39.5t-55 -24t-48 -20.5t-23.5 -24.5h145l-13 -92h-262zM80 0l678 700h140l-677 -700h-141zM65 328
l13 87h77l30 160l-59 -27l-41 85l160 67h87l-51 -285h66l-13 -87h-269z" />
    <glyph glyph-name="threequarters" unicode="&#xbe;" horiz-adv-x="875" 
d="M85 365l49 77q48 -28 89 -28q25 0 39.5 9.5t14.5 23.5q0 24 -47 24h-58l14 87h51q54 0 54 28q0 11 -9 18.5t-23 7.5q-30 0 -81 -20l-32 84q78 30 139 30q58 0 93.5 -28t35.5 -75q0 -27 -17.5 -51t-46.5 -37q47 -28 47 -78q0 -56 -47 -86t-117 -30q-88 0 -148 44zM561 59
l-28 89l207 223h117l-40 -223h30l-14 -89h-32l-10 -59h-117l11 59h-124zM637 148h64l17 87zM104 0l678 700h140l-677 -700h-141z" />
    <glyph glyph-name="questiondown" unicode="&#xbf;" horiz-adv-x="579" 
d="M406 324q3 -31 -2 -63q-7 -37 -30 -66.5t-51.5 -48t-55.5 -34.5t-45.5 -33.5t-18.5 -35.5q0 -33 52 -33q74 0 156 67l112 -118q-128 -116 -295 -116q-44 0 -85 10t-78 31t-59.5 58.5t-22.5 87.5q0 41 18 75.5t45 55.5t59.5 40.5t61.5 33t51 30.5t27 34l7 25h154zM467 556
l-29 -165h-196l29 165h196z" />
    <glyph glyph-name="Agrave" unicode="&#xc0;" horiz-adv-x="705" 
d="M-45 0l354 700h249l107 -700h-230l-8 85h-182l-36 -85h-254zM409 755l-115 81l166 81l64 -162h-115zM394 435l-80 -188h99l-17 188h-2z" />
    <glyph glyph-name="Aacute" unicode="&#xc1;" horiz-adv-x="705" 
d="M-45 0l354 700h249l107 -700h-230l-8 85h-182l-36 -85h-254zM394 435l-80 -188h99l-17 188h-2zM355 755l122 162l160 -81l-144 -81h-138z" />
    <glyph glyph-name="Acircumflex" unicode="&#xc2;" horiz-adv-x="705" 
d="M-45 0l354 700h249l107 -700h-230l-8 85h-182l-36 -85h-254zM394 435l-80 -188h99l-17 188h-2zM224 755l127 156h220l72 -156h-144l-46 71h-3l-73 -71h-153z" />
    <glyph glyph-name="Atilde" unicode="&#xc3;" horiz-adv-x="705" 
d="M-45 0l354 700h249l107 -700h-230l-8 85h-182l-36 -85h-254zM394 435l-80 -188h99l-17 188h-2zM233 757q2 83 41.5 125t108.5 42q37 0 81 -24t60 -24q38 0 40 34h112q-2 -84 -41.5 -126.5t-107.5 -42.5q-37 0 -81 24t-62 24q-35 0 -38 -32h-113z" />
    <glyph glyph-name="Adieresis" unicode="&#xc4;" horiz-adv-x="705" 
d="M-45 0l354 700h249l107 -700h-230l-8 85h-182l-36 -85h-254zM394 435l-80 -188h99l-17 188h-2zM502 761l25 144h151l-26 -144h-150zM231 761l24 144h155l-26 -144h-153z" />
    <glyph glyph-name="Aring" unicode="&#xc5;" horiz-adv-x="705" 
d="M306 753q0 59 43.5 100.5t108.5 41.5q51 0 83.5 -33.5t32.5 -81.5q0 -45 -26 -80h10l107 -700h-230l-8 85h-182l-36 -85h-254l354 700h9q-12 24 -12 53zM373 754q0 -24 15 -39t40 -15q33 0 56 24t23 54q0 24 -15 39t-40 15q-33 0 -56 -24t-23 -54zM394 435l-80 -188h99
l-17 188h-2z" />
    <glyph glyph-name="AE" unicode="&#xc6;" horiz-adv-x="1039" 
d="M-47 0l417 700h710l-33 -191h-377l4 -69h322l-30 -171h-280l5 -78h302l-33 -191h-487l-3 85h-205l-46 -85h-266zM456 440l-99 -183h107l-6 183h-2z" />
    <glyph glyph-name="Ccedilla" unicode="&#xc7;" horiz-adv-x="691" 
d="M143 -160q114 88 145 157q-113 25 -180.5 107t-67.5 213q0 164 113.5 280t288.5 116q173 0 280 -112l-130 -131q-64 57 -146 57q-72 0 -124 -58.5t-52 -142.5q0 -73 36 -113t94 -40q81 0 149 64l117 -143q-106 -96 -251 -106q-35 -129 -139 -216z" />
    <glyph glyph-name="Egrave" unicode="&#xc8;" horiz-adv-x="618" 
d="M348 755l-115 81l166 81l64 -162h-115zM5 0l124 700h530l-34 -191h-303l-14 -73h266l-30 -163h-265l-15 -82h308l-34 -191h-533z" />
    <glyph glyph-name="Eacute" unicode="&#xc9;" horiz-adv-x="618" 
d="M313 755l122 162l160 -81l-144 -81h-138zM5 0l124 700h530l-34 -191h-303l-14 -73h266l-30 -163h-265l-15 -82h308l-34 -191h-533z" />
    <glyph glyph-name="Ecircumflex" unicode="&#xca;" horiz-adv-x="618" 
d="M5 0l124 700h530l-34 -191h-303l-14 -73h266l-30 -163h-265l-15 -82h308l-34 -191h-533zM195 755l127 156h220l72 -156h-144l-46 71h-3l-73 -71h-153z" />
    <glyph glyph-name="Edieresis" unicode="&#xcb;" horiz-adv-x="618" 
d="M467 761l25 144h151l-26 -144h-150zM196 761l24 144h155l-26 -144h-153zM5 0l124 700h530l-34 -191h-303l-14 -73h266l-30 -163h-265l-15 -82h308l-34 -191h-533z" />
    <glyph glyph-name="Igrave" unicode="&#xcc;" horiz-adv-x="320" 
d="M5 0l124 700h227l-124 -700h-227zM216 755l-115 81l166 81l64 -162h-115z" />
    <glyph glyph-name="Iacute" unicode="&#xcd;" horiz-adv-x="320" 
d="M5 0l124 700h227l-124 -700h-227zM168 755l122 162l160 -81l-144 -81h-138z" />
    <glyph glyph-name="Icircumflex" unicode="&#xce;" horiz-adv-x="320" 
d="M5 0l124 700h227l-124 -700h-227zM31 755l127 156h220l72 -156h-144l-46 71h-3l-73 -71h-153z" />
    <glyph glyph-name="Idieresis" unicode="&#xcf;" horiz-adv-x="320" 
d="M5 0l124 700h227l-124 -700h-227zM314 761l25 144h151l-26 -144h-150zM43 761l24 144h155l-26 -144h-153z" />
    <glyph glyph-name="Eth" unicode="&#xd0;" horiz-adv-x="771" 
d="M27 300l19 107h77l52 293h249q162 0 253 -76.5t91 -230.5q0 -178 -116.5 -285.5t-342.5 -107.5h-258l53 300h-77zM308 174h56q77 0 125 65t48 154q0 133 -113 133h-53l-21 -118h94l-18 -109h-96z" />
    <glyph glyph-name="Ntilde" unicode="&#xd1;" horiz-adv-x="728" 
d="M246 757q2 83 41.5 125t108.5 42q38 0 81 -24t60 -24q38 0 40 34h112q-2 -84 -41.5 -126.5t-107.5 -42.5q-37 0 -81 24t-62 24q-35 0 -38 -32h-113zM5 0l124 700h181l180 -358l62 358h212l-124 -700h-186l-176 359l-61 -359h-212z" />
    <glyph glyph-name="Ograve" unicode="&#xd2;" horiz-adv-x="798" 
d="M414 755l-115 81l166 81l64 -162h-115zM46 323q0 75 26.5 144t75.5 124.5t128.5 88.5t176.5 33q147 0 243.5 -91t96.5 -245q0 -75 -26.5 -144t-75.5 -124.5t-128.5 -88.5t-176.5 -33q-147 0 -243.5 91t-96.5 245zM277 319q0 -148 120 -148q72 0 118 64.5t46 145.5
q0 148 -120 148q-72 0 -118 -64.5t-46 -145.5z" />
    <glyph glyph-name="Oacute" unicode="&#xd3;" horiz-adv-x="798" 
d="M369 755l122 162l160 -81l-144 -81h-138zM46 323q0 75 26.5 144t75.5 124.5t128.5 88.5t176.5 33q147 0 243.5 -91t96.5 -245q0 -75 -26.5 -144t-75.5 -124.5t-128.5 -88.5t-176.5 -33q-147 0 -243.5 91t-96.5 245zM277 319q0 -148 120 -148q72 0 118 64.5t46 145.5
q0 148 -120 148q-72 0 -118 -64.5t-46 -145.5z" />
    <glyph glyph-name="Ocircumflex" unicode="&#xd4;" horiz-adv-x="798" 
d="M46 323q0 75 26.5 144t75.5 124.5t128.5 88.5t176.5 33q147 0 243.5 -91t96.5 -245q0 -75 -26.5 -144t-75.5 -124.5t-128.5 -88.5t-176.5 -33q-147 0 -243.5 91t-96.5 245zM277 319q0 -148 120 -148q72 0 118 64.5t46 145.5q0 148 -120 148q-72 0 -118 -64.5t-46 -145.5z
M247 755l127 156h220l72 -156h-144l-46 71h-3l-73 -71h-153z" />
    <glyph glyph-name="Otilde" unicode="&#xd5;" horiz-adv-x="798" 
d="M261 757q2 83 41.5 125t108.5 42q37 0 81 -24t60 -24q38 0 40 34h112q-2 -84 -41.5 -126.5t-107.5 -42.5q-37 0 -81 24t-62 24q-35 0 -38 -32h-113zM46 323q0 75 26.5 144t75.5 124.5t128.5 88.5t176.5 33q147 0 243.5 -91t96.5 -245q0 -75 -26.5 -144t-75.5 -124.5
t-128.5 -88.5t-176.5 -33q-147 0 -243.5 91t-96.5 245zM277 319q0 -148 120 -148q72 0 118 64.5t46 145.5q0 148 -120 148q-72 0 -118 -64.5t-46 -145.5z" />
    <glyph glyph-name="Odieresis" unicode="&#xd6;" horiz-adv-x="798" 
d="M531 761l25 144h151l-26 -144h-150zM260 761l24 144h155l-26 -144h-153zM46 323q0 75 26.5 144t75.5 124.5t128.5 88.5t176.5 33q147 0 243.5 -91t96.5 -245q0 -75 -26.5 -144t-75.5 -124.5t-128.5 -88.5t-176.5 -33q-147 0 -243.5 91t-96.5 245zM277 319
q0 -148 120 -148q72 0 118 64.5t46 145.5q0 148 -120 148q-72 0 -118 -64.5t-46 -145.5z" />
    <glyph glyph-name="multiply" unicode="&#xd7;" horiz-adv-x="575" 
d="M32 164l147 124l-98 122l136 115l98 -125l143 127l111 -132l-143 -123l96 -120l-135 -114l-96 123l-146 -128z" />
    <glyph glyph-name="Oslash" unicode="&#xd8;" horiz-adv-x="798" 
d="M46 323q0 75 26.5 144t75.5 124.5t128.5 88.5t176.5 33q115 0 202 -59l86 88l69 -65l-86 -86q69 -86 69 -214q0 -75 -26.5 -144t-75.5 -124.5t-128.5 -88.5t-176.5 -33q-121 0 -208 61l-89 -88l-66 64l89 88q-66 85 -66 211zM561 381q0 30 -6 54l-237 -237q28 -27 79 -27
q72 0 118 64.5t46 145.5zM277 319q0 -29 4 -48l235 235q-29 23 -75 23q-72 0 -118 -64.5t-46 -145.5z" />
    <glyph glyph-name="Ugrave" unicode="&#xd9;" horiz-adv-x="714" 
d="M407 755l-115 81l166 81l64 -162h-115zM58 320l69 380h228l-74 -405q-5 -28 -5 -50q0 -33 19 -52t53 -19q43 0 67.5 29.5t36.5 95.5l71 401h227l-75 -426q-26 -149 -115 -218t-245 -69q-122 0 -194.5 62.5t-72.5 169.5q0 39 10 101z" />
    <glyph glyph-name="Uacute" unicode="&#xda;" horiz-adv-x="714" 
d="M367 755l122 162l160 -81l-144 -81h-138zM58 320l69 380h228l-74 -405q-5 -28 -5 -50q0 -33 19 -52t53 -19q43 0 67.5 29.5t36.5 95.5l71 401h227l-75 -426q-26 -149 -115 -218t-245 -69q-122 0 -194.5 62.5t-72.5 169.5q0 39 10 101z" />
    <glyph glyph-name="Ucircumflex" unicode="&#xdb;" horiz-adv-x="714" 
d="M58 320l69 380h228l-74 -405q-5 -28 -5 -50q0 -33 19 -52t53 -19q43 0 67.5 29.5t36.5 95.5l71 401h227l-75 -426q-26 -149 -115 -218t-245 -69q-122 0 -194.5 62.5t-72.5 169.5q0 39 10 101zM229 755l127 156h220l72 -156h-144l-46 71h-3l-73 -71h-153z" />
    <glyph glyph-name="Udieresis" unicode="&#xdc;" horiz-adv-x="714" 
d="M508 761l25 144h151l-26 -144h-150zM237 761l24 144h155l-26 -144h-153zM58 320l69 380h228l-74 -405q-5 -28 -5 -50q0 -33 19 -52t53 -19q43 0 67.5 29.5t36.5 95.5l71 401h227l-75 -426q-26 -149 -115 -218t-245 -69q-122 0 -194.5 62.5t-72.5 169.5q0 39 10 101z" />
    <glyph glyph-name="Yacute" unicode="&#xdd;" horiz-adv-x="714" 
d="M200 0l49 278l-176 422h242l75 -195h2l144 195h269l-326 -422l-49 -278h-230zM347 755l122 162l160 -81l-144 -81h-138z" />
    <glyph glyph-name="Thorn" unicode="&#xde;" horiz-adv-x="682" 
d="M5 0l124 700h227l-20 -111h86q123 0 190.5 -51.5t67.5 -154.5q0 -50 -17 -94.5t-53.5 -83.5t-103 -62t-155.5 -23h-98l-21 -120h-227zM284 287h82q35 0 59 20t24 57q0 29 -17.5 43.5t-43.5 14.5h-80z" />
    <glyph glyph-name="germandbls" unicode="&#xdf;" horiz-adv-x="687" 
d="M-3 0l92 521q44 245 326 245q121 0 197.5 -60t76.5 -153q0 -63 -38.5 -111t-104.5 -69v-1q122 -47 122 -164q0 -104 -72 -160.5t-177 -56.5q-90 0 -153 25l56 155q32 -10 59 -10q29 0 49 20.5t20 56.5q0 60 -72 60h-29l31 166h10q34 0 55 22.5t21 60.5q0 68 -67 68
q-75 0 -92 -92l-92 -523h-218z" />
    <glyph glyph-name="agrave" unicode="&#xe0;" 
d="M213 -10q-80 0 -131.5 57t-51.5 162q0 148 73.5 251.5t183.5 103.5q93 0 145 -59l21 49h196l-67 -377q-2 -14 -2 -19q0 -21 30 -21l-24 -141q-166 -27 -208 65q-63 -71 -165 -71zM369 202l33 190q-28 17 -54 17q-43 0 -71.5 -52.5t-28.5 -123.5q0 -83 53 -83q43 0 68 52z
M330 611l-90 108l150 82l61 -190h-121z" />
    <glyph glyph-name="aacute" unicode="&#xe1;" 
d="M213 -10q-80 0 -131.5 57t-51.5 162q0 148 73.5 251.5t183.5 103.5q93 0 145 -59l21 49h196l-67 -377q-2 -14 -2 -19q0 -21 30 -21l-24 -141q-166 -27 -208 65q-63 -71 -165 -71zM369 202l33 190q-28 17 -54 17q-43 0 -71.5 -52.5t-28.5 -123.5q0 -83 53 -83q43 0 68 52z
M272 611l128 190l137 -82l-127 -108h-138z" />
    <glyph glyph-name="acircumflex" unicode="&#xe2;" 
d="M213 -10q-80 0 -131.5 57t-51.5 162q0 148 73.5 251.5t183.5 103.5q93 0 145 -59l21 49h196l-67 -377q-2 -14 -2 -19q0 -21 30 -21l-24 -141q-166 -27 -208 65q-63 -71 -165 -71zM155 611l140 160h243l84 -160h-157l-56 66h-5l-83 -66h-166zM369 202l33 190
q-28 17 -54 17q-43 0 -71.5 -52.5t-28.5 -123.5q0 -83 53 -83q43 0 68 52z" />
    <glyph glyph-name="atilde" unicode="&#xe3;" 
d="M213 -10q-80 0 -131.5 57t-51.5 162q0 148 73.5 251.5t183.5 103.5q93 0 145 -59l21 49h196l-67 -377q-2 -14 -2 -19q0 -21 30 -21l-24 -141q-166 -27 -208 65q-63 -71 -165 -71zM369 202l33 190q-28 17 -54 17q-43 0 -71.5 -52.5t-28.5 -123.5q0 -83 53 -83q43 0 68 52z
M188 610q4 86 43 129.5t107 43.5q36 0 77.5 -24.5t60.5 -24.5q34 0 37 39h112q-4 -86 -42.5 -129.5t-106.5 -43.5q-35 0 -76.5 24t-60.5 24q-34 0 -39 -38h-112z" />
    <glyph glyph-name="adieresis" unicode="&#xe4;" 
d="M213 -10q-80 0 -131.5 57t-51.5 162q0 148 73.5 251.5t183.5 103.5q93 0 145 -59l21 49h196l-67 -377q-2 -14 -2 -19q0 -21 30 -21l-24 -141q-166 -27 -208 65q-63 -71 -165 -71zM369 202l33 190q-28 17 -54 17q-43 0 -71.5 -52.5t-28.5 -123.5q0 -83 53 -83q43 0 68 52z
M439 619l26 145h150l-25 -145h-151zM194 619l25 145h155l-26 -145h-154z" />
    <glyph glyph-name="aring" unicode="&#xe5;" 
d="M213 -10q-80 0 -131.5 57t-51.5 162q0 148 73.5 251.5t183.5 103.5q93 0 145 -59l21 49h196l-67 -377q-2 -14 -2 -19q0 -21 30 -21l-24 -141q-166 -27 -208 65q-63 -71 -165 -71zM264 720q0 59 43.5 100.5t108.5 41.5q51 0 83.5 -33.5t32.5 -81.5q0 -59 -43.5 -100.5
t-108.5 -41.5q-51 0 -83.5 33.5t-32.5 81.5zM369 202l33 190q-28 17 -54 17q-43 0 -71.5 -52.5t-28.5 -123.5q0 -83 53 -83q43 0 68 52zM331 721q0 -24 15 -39t40 -15q33 0 56 24t23 54q0 24 -15 39t-40 15q-33 0 -56 -24t-23 -54z" />
    <glyph glyph-name="ae" unicode="&#xe6;" horiz-adv-x="957" 
d="M233 -13q-96 0 -149.5 58.5t-53.5 163.5q0 151 76.5 254t200.5 103q107 0 206 -75q87 76 217 76q102 0 165 -46.5t63 -125.5q0 -81 -80.5 -126t-210.5 -45h-58v-1q1 -36 19 -50t55 -14q68 0 139 42l71 -142q-115 -72 -238 -72q-143 0 -207 107q-90 -107 -215 -107z
M299 150q20 0 39.5 14t30.5 38l4 23l3 17l26 151q-30 16 -54 16q-43 0 -71.5 -52.5t-28.5 -123.5q0 -83 51 -83zM712 421q-29 0 -55.5 -24.5t-38.5 -72.5h27q111 0 111 57q0 18 -11.5 29t-32.5 11z" />
    <glyph glyph-name="ccedilla" unicode="&#xe7;" horiz-adv-x="532" 
d="M66 -160q114 87 146 159q-80 22 -129 84.5t-49 163.5q0 136 92.5 228t226.5 92q65 0 122.5 -22t92.5 -56l-118 -125q-37 34 -85 34q-47 0 -78 -43t-31 -108q0 -41 22 -65.5t54 -24.5q46 0 87 33l102 -131q-74 -61 -183 -70q-35 -132 -139 -217z" />
    <glyph glyph-name="egrave" unicode="&#xe8;" horiz-adv-x="603" 
d="M33 234q0 150 101 241.5t242 91.5q102 0 165 -46.5t63 -125.5q0 -81 -80.5 -126t-210.5 -45h-60q3 -36 21 -50.5t55 -14.5q68 0 139 42l71 -142q-117 -72 -238 -72q-120 0 -194 67t-74 180zM320 611l-90 108l150 82l61 -190h-121zM358 421q-34 0 -58.5 -26t-36.5 -71h28
q111 0 111 57q0 18 -11.5 29t-32.5 11z" />
    <glyph glyph-name="eacute" unicode="&#xe9;" horiz-adv-x="603" 
d="M33 234q0 150 101 241.5t242 91.5q102 0 165 -46.5t63 -125.5q0 -81 -80.5 -126t-210.5 -45h-60q3 -36 21 -50.5t55 -14.5q68 0 139 42l71 -142q-117 -72 -238 -72q-120 0 -194 67t-74 180zM269 611l128 190l137 -82l-127 -108h-138zM358 421q-34 0 -58.5 -26t-36.5 -71
h28q111 0 111 57q0 18 -11.5 29t-32.5 11z" />
    <glyph glyph-name="ecircumflex" unicode="&#xea;" horiz-adv-x="603" 
d="M33 234q0 150 101 241.5t242 91.5q102 0 165 -46.5t63 -125.5q0 -81 -80.5 -126t-210.5 -45h-60q3 -36 21 -50.5t55 -14.5q68 0 139 42l71 -142q-117 -72 -238 -72q-120 0 -194 67t-74 180zM139 611l140 160h243l84 -160h-157l-56 66h-5l-83 -66h-166zM358 421
q-34 0 -58.5 -26t-36.5 -71h28q111 0 111 57q0 18 -11.5 29t-32.5 11z" />
    <glyph glyph-name="edieresis" unicode="&#xeb;" horiz-adv-x="603" 
d="M33 234q0 150 101 241.5t242 91.5q102 0 165 -46.5t63 -125.5q0 -81 -80.5 -126t-210.5 -45h-60q3 -36 21 -50.5t55 -14.5q68 0 139 42l71 -142q-117 -72 -238 -72q-120 0 -194 67t-74 180zM175 619l25 145h155l-26 -145h-154zM420 619l26 145h150l-25 -145h-151z
M358 421q-34 0 -58.5 -26t-36.5 -71h28q111 0 111 57q0 18 -11.5 29t-32.5 11z" />
    <glyph glyph-name="igrave" unicode="&#xec;" horiz-adv-x="297" 
d="M-1 0l96 541h218l-96 -541h-218zM176 611l-90 108l150 82l61 -190h-121z" />
    <glyph glyph-name="iacute" unicode="&#xed;" horiz-adv-x="297" 
d="M120 611l128 190l137 -82l-127 -108h-138zM-1 0l96 541h218l-96 -541h-218z" />
    <glyph glyph-name="icircumflex" unicode="&#xee;" horiz-adv-x="297" 
d="M-21 611l140 160h243l84 -160h-157l-56 66h-5l-83 -66h-166zM-1 0l96 541h218l-96 -541h-218z" />
    <glyph glyph-name="idieresis" unicode="&#xef;" horiz-adv-x="297" 
d="M261 619l26 145h150l-25 -145h-151zM16 619l25 145h155l-26 -145h-154zM-1 0l96 541h218l-96 -541h-218z" />
    <glyph glyph-name="eth" unicode="&#xf0;" horiz-adv-x="620" 
d="M188 501l-39 92l138 49q-37 49 -101 113h218q41 -46 48 -55l113 44l41 -94l-93 -33q98 -154 98 -308q0 -152 -87.5 -236.5t-225.5 -84.5q-133 0 -205 67.5t-72 173.5q0 111 71 180.5t178 69.5q61 0 116 -31q-14 52 -45 110zM301 137q43 0 71 48t28 133q-35 29 -74 29
q-38 0 -63 -34t-25 -88q0 -43 17 -65.5t46 -22.5z" />
    <glyph glyph-name="ntilde" unicode="&#xf1;" horiz-adv-x="619" 
d="M324 0l59 335q5 23 5 43q0 29 -29 29q-43 0 -81 -64l-61 -343h-218l99 554h184l6 -63q76 76 174 76q71 0 109.5 -38.5t38.5 -105.5q0 -38 -10 -96l-58 -327h-218zM175 610q4 86 43 129.5t107 43.5q36 0 77.5 -24.5t60.5 -24.5q34 0 37 39h112q-4 -86 -42.5 -129.5
t-106.5 -43.5q-35 0 -76.5 24t-60.5 24q-34 0 -39 -38h-112z" />
    <glyph glyph-name="ograve" unicode="&#xf2;" horiz-adv-x="631" 
d="M292 -13q-113 0 -186.5 69.5t-73.5 188.5q0 145 89.5 233.5t236.5 88.5q113 0 186.5 -69t73.5 -189q0 -144 -89.5 -233t-236.5 -89zM305 140q40 0 66.5 54.5t26.5 122.5q0 97 -54 97q-39 0 -65.5 -54.5t-26.5 -122.5q0 -97 53 -97zM311 611l-90 108l150 82l61 -190h-121z
" />
    <glyph glyph-name="oacute" unicode="&#xf3;" horiz-adv-x="631" 
d="M251 611l128 190l137 -82l-127 -108h-138zM292 -13q-113 0 -186.5 69.5t-73.5 188.5q0 145 89.5 233.5t236.5 88.5q113 0 186.5 -69t73.5 -189q0 -144 -89.5 -233t-236.5 -89zM305 140q40 0 66.5 54.5t26.5 122.5q0 97 -54 97q-39 0 -65.5 -54.5t-26.5 -122.5
q0 -97 53 -97z" />
    <glyph glyph-name="ocircumflex" unicode="&#xf4;" horiz-adv-x="631" 
d="M131 611l140 160h243l84 -160h-157l-56 66h-5l-83 -66h-166zM292 -13q-113 0 -186.5 69.5t-73.5 188.5q0 145 89.5 233.5t236.5 88.5q113 0 186.5 -69t73.5 -189q0 -144 -89.5 -233t-236.5 -89zM305 140q40 0 66.5 54.5t26.5 122.5q0 97 -54 97q-39 0 -65.5 -54.5
t-26.5 -122.5q0 -97 53 -97z" />
    <glyph glyph-name="otilde" unicode="&#xf5;" horiz-adv-x="631" 
d="M292 -13q-113 0 -186.5 69.5t-73.5 188.5q0 145 89.5 233.5t236.5 88.5q113 0 186.5 -69t73.5 -189q0 -144 -89.5 -233t-236.5 -89zM305 140q40 0 66.5 54.5t26.5 122.5q0 97 -54 97q-39 0 -65.5 -54.5t-26.5 -122.5q0 -97 53 -97zM159 610q4 86 43 129.5t107 43.5
q36 0 77.5 -24.5t60.5 -24.5q34 0 37 39h112q-4 -86 -42.5 -129.5t-106.5 -43.5q-35 0 -76.5 24t-60.5 24q-34 0 -39 -38h-112z" />
    <glyph glyph-name="odieresis" unicode="&#xf6;" horiz-adv-x="631" 
d="M408 619l26 145h150l-25 -145h-151zM163 619l25 145h155l-26 -145h-154zM292 -13q-113 0 -186.5 69.5t-73.5 188.5q0 145 89.5 233.5t236.5 88.5q113 0 186.5 -69t73.5 -189q0 -144 -89.5 -233t-236.5 -89zM305 140q40 0 66.5 54.5t26.5 122.5q0 97 -54 97
q-39 0 -65.5 -54.5t-26.5 -122.5q0 -97 53 -97z" />
    <glyph glyph-name="divide" unicode="&#xf7;" horiz-adv-x="599" 
d="M252 423l25 133h159l-25 -133h-159zM178 1l23 134h160l-24 -134h-159zM22 194l31 170h546l-30 -170h-547z" />
    <glyph glyph-name="oslash" unicode="&#xf8;" horiz-adv-x="631" 
d="M292 -13q-81 0 -144 37l-71 -79l-67 59l74 77q-52 66 -52 164q0 145 89.5 233.5t236.5 88.5q83 0 145 -38l72 79l67 -61l-74 -77q50 -66 50 -161q0 -144 -89.5 -233t-236.5 -89zM344 414q-38 0 -64 -51.5t-28 -116.5l134 141q-14 27 -42 27zM305 140q37 0 63.5 50
t29.5 115l-133 -142q13 -23 40 -23z" />
    <glyph glyph-name="ugrave" unicode="&#xf9;" horiz-adv-x="616" 
d="M632 554l-99 -554h-177l-7 65q-78 -78 -175 -78q-74 0 -113.5 40.5t-39.5 104.5q0 44 9 95l58 327h218l-63 -344q-4 -22 -4 -38q0 -31 30 -31q42 0 85 77l59 336h219zM303 611l-90 108l150 82l61 -190h-121z" />
    <glyph glyph-name="uacute" unicode="&#xfa;" horiz-adv-x="616" 
d="M282 611l128 190l137 -82l-127 -108h-138zM632 554l-99 -554h-177l-7 65q-78 -78 -175 -78q-74 0 -113.5 40.5t-39.5 104.5q0 44 9 95l58 327h218l-63 -344q-4 -22 -4 -38q0 -31 30 -31q42 0 85 77l59 336h219z" />
    <glyph glyph-name="ucircumflex" unicode="&#xfb;" horiz-adv-x="616" 
d="M138 611l140 160h243l84 -160h-157l-56 66h-5l-83 -66h-166zM632 554l-99 -554h-177l-7 65q-78 -78 -175 -78q-74 0 -113.5 40.5t-39.5 104.5q0 44 9 95l58 327h218l-63 -344q-4 -22 -4 -38q0 -31 30 -31q42 0 85 77l59 336h219z" />
    <glyph glyph-name="udieresis" unicode="&#xfc;" horiz-adv-x="616" 
d="M412 619l26 145h150l-25 -145h-151zM167 619l25 145h155l-26 -145h-154zM632 554l-99 -554h-177l-7 65q-78 -78 -175 -78q-74 0 -113.5 40.5t-39.5 104.5q0 44 9 95l58 327h218l-63 -344q-4 -22 -4 -38q0 -31 30 -31q42 0 85 77l59 336h219z" />
    <glyph glyph-name="yacute" unicode="&#xfd;" horiz-adv-x="592" 
d="M10 -24q38 -19 67 -19t45.5 10.5t27.5 38.5l3 6l-98 542h203l34 -293h2l137 293h214l-259 -506q-79 -154 -141.5 -206t-163.5 -52q-86 0 -146 37zM260 611l128 190l137 -82l-127 -108h-138z" />
    <glyph glyph-name="thorn" unicode="&#xfe;" horiz-adv-x="629" 
d="M245 163q24 -17 54 -17q43 0 71.5 52.5t28.5 123.5q0 42 -14.5 63.5t-37.5 21.5q-41 0 -68 -55zM448 564q71 0 119.5 -56.5t48.5 -168.5q0 -155 -72.5 -252t-181.5 -97q-83 0 -138 58l-44 -248h-218l171 955h218l-44 -246q60 55 141 55z" />
    <glyph glyph-name="ydieresis" unicode="&#xff;" horiz-adv-x="592" 
d="M10 -24q38 -19 67 -19t45.5 10.5t27.5 38.5l3 6l-98 542h203l34 -293h2l137 293h214l-259 -506q-79 -154 -141.5 -206t-163.5 -52q-86 0 -146 37zM399 619l26 145h150l-25 -145h-151zM154 619l25 145h155l-26 -145h-154z" />
    <glyph glyph-name="Amacron" unicode="&#x100;" horiz-adv-x="705" 
d="M-45 0l354 700h249l107 -700h-230l-8 85h-182l-36 -85h-254zM394 435l-80 -188h99l-17 188h-2zM258 772l22 122h371l-21 -122h-372z" />
    <glyph glyph-name="amacron" unicode="&#x101;" 
d="M213 -10q-80 0 -131.5 57t-51.5 162q0 148 73.5 251.5t183.5 103.5q93 0 145 -59l21 49h196l-67 -377q-2 -14 -2 -19q0 -21 30 -21l-24 -141q-166 -27 -208 65q-63 -71 -165 -71zM201 631l21 121h365l-21 -121h-365zM369 202l33 190q-28 17 -54 17q-43 0 -71.5 -52.5
t-28.5 -123.5q0 -83 53 -83q43 0 68 52z" />
    <glyph glyph-name="Abreve" unicode="&#x102;" horiz-adv-x="705" 
d="M-45 0l354 700h249l107 -700h-230l-8 85h-182l-36 -85h-254zM433 751q-79 0 -121 44t-35 116h122q-2 -52 47 -52q52 0 67 52h130q-18 -74 -71.5 -117t-138.5 -43zM394 435l-80 -188h99l-17 188h-2z" />
    <glyph glyph-name="abreve" unicode="&#x103;" 
d="M213 -10q-80 0 -131.5 57t-51.5 162q0 148 73.5 251.5t183.5 103.5q93 0 145 -59l21 49h196l-67 -377q-2 -14 -2 -19q0 -21 30 -21l-24 -141q-166 -27 -208 65q-63 -71 -165 -71zM369 202l33 190q-28 17 -54 17q-43 0 -71.5 -52.5t-28.5 -123.5q0 -83 53 -83q43 0 68 52z
M373 598q-75 0 -116.5 48.5t-35.5 124.5h120q4 -51 43 -51t58 51h132q-18 -80 -69 -126.5t-132 -46.5z" />
    <glyph glyph-name="Aogonek" unicode="&#x104;" horiz-adv-x="705" 
d="M652 -70l-23 -126q-42 -12 -89 -12q-55 0 -86.5 27t-31.5 67q0 69 72 114h-59l-8 85h-182l-36 -85h-254l354 700h249l107 -700q-90 -10 -90 -51q0 -22 32 -22q21 0 42 7zM394 435l-80 -188h99l-17 188h-2z" />
    <glyph glyph-name="aogonek" unicode="&#x105;" 
d="M213 -10q-80 0 -131.5 57t-51.5 162q0 148 73.5 251.5t183.5 103.5q93 0 145 -59l21 49h196l-67 -377q-2 -14 -2 -19q0 -21 30 -21l-24 -138q-1 0 -12 -2t-15.5 -3t-15 -3.5t-16 -5t-14 -6.5t-12.5 -9t-7.5 -11.5t-3.5 -14.5q0 -20 30 -20q23 0 44 7l3 -4l-36 -123
q-41 -12 -89 -12q-50 0 -78.5 24t-28.5 59q0 86 102 132q-41 17 -58 55q-64 -72 -166 -72zM369 202l33 190q-28 17 -54 17q-43 0 -71.5 -52.5t-28.5 -123.5q0 -83 53 -83q43 0 68 52z" />
    <glyph glyph-name="Cacute" unicode="&#x106;" horiz-adv-x="691" 
d="M40 317q0 164 113.5 280t288.5 116q173 0 280 -112l-130 -131q-64 57 -146 57q-72 0 -124 -58.5t-52 -142.5q0 -73 36 -113t94 -40q81 0 149 64l117 -143q-117 -107 -282 -107q-151 0 -247.5 86.5t-96.5 243.5zM362 755l122 162l160 -81l-144 -81h-138z" />
    <glyph glyph-name="cacute" unicode="&#x107;" horiz-adv-x="532" 
d="M245 611l128 190l137 -82l-127 -108h-138zM23 247q0 136 92.5 228t226.5 92q65 0 122.5 -22t92.5 -56l-118 -125q-37 34 -85 34q-47 0 -78 -43t-31 -108q0 -41 22 -65.5t54 -24.5q46 0 87 33l102 -131q-88 -72 -221 -72q-112 0 -189 66t-77 194z" />
    <glyph glyph-name="Ccircumflex" unicode="&#x108;" horiz-adv-x="691" 
d="M40 317q0 164 113.5 280t288.5 116q173 0 280 -112l-130 -131q-64 57 -146 57q-72 0 -124 -58.5t-52 -142.5q0 -73 36 -113t94 -40q81 0 149 64l117 -143q-117 -107 -282 -107q-151 0 -247.5 86.5t-96.5 243.5zM243 755l127 156h220l72 -156h-144l-46 71h-3l-73 -71h-153
z" />
    <glyph glyph-name="ccircumflex" unicode="&#x109;" horiz-adv-x="532" 
d="M136 611l140 160h243l84 -160h-157l-56 66h-5l-83 -66h-166zM23 247q0 136 92.5 228t226.5 92q65 0 122.5 -22t92.5 -56l-118 -125q-37 34 -85 34q-47 0 -78 -43t-31 -108q0 -41 22 -65.5t54 -24.5q46 0 87 33l102 -131q-88 -72 -221 -72q-112 0 -189 66t-77 194z" />
    <glyph glyph-name="Cdotaccent" unicode="&#x10a;" horiz-adv-x="691" 
d="M367 761l24 144h153l-26 -144h-151zM40 317q0 164 113.5 280t288.5 116q173 0 280 -112l-130 -131q-64 57 -146 57q-72 0 -124 -58.5t-52 -142.5q0 -73 36 -113t94 -40q81 0 149 64l117 -143q-117 -107 -282 -107q-151 0 -247.5 86.5t-96.5 243.5z" />
    <glyph glyph-name="cdotaccent" unicode="&#x10b;" horiz-adv-x="532" 
d="M23 247q0 136 92.5 228t226.5 92q65 0 122.5 -22t92.5 -56l-118 -125q-37 34 -85 34q-47 0 -78 -43t-31 -108q0 -41 22 -65.5t54 -24.5q46 0 87 33l102 -131q-88 -72 -221 -72q-112 0 -189 66t-77 194zM265 619l25 145h151l-26 -145h-150z" />
    <glyph glyph-name="Ccaron" unicode="&#x10c;" horiz-adv-x="691" 
d="M40 317q0 164 113.5 280t288.5 116q173 0 280 -112l-130 -131q-64 57 -146 57q-72 0 -124 -58.5t-52 -142.5q0 -73 36 -113t94 -40q81 0 149 64l117 -143q-117 -107 -282 -107q-151 0 -247.5 86.5t-96.5 243.5zM350 755l-71 156h145l46 -71h2l73 71h153l-127 -156h-221z
" />
    <glyph glyph-name="ccaron" unicode="&#x10d;" horiz-adv-x="532" 
d="M250 611l-85 160h146l67 -75h5l92 75h157l-139 -160h-243zM23 247q0 136 92.5 228t226.5 92q65 0 122.5 -22t92.5 -56l-118 -125q-37 34 -85 34q-47 0 -78 -43t-31 -108q0 -41 22 -65.5t54 -24.5q46 0 87 33l102 -131q-88 -72 -221 -72q-112 0 -189 66t-77 194z" />
    <glyph glyph-name="Dcaron" unicode="&#x10e;" horiz-adv-x="725" 
d="M319 755l-71 156h145l46 -71h2l73 71h153l-127 -156h-221zM5 0l124 700h249q162 0 253 -76.5t91 -230.5q0 -178 -116.5 -285.5t-342.5 -107.5h-258zM262 174h56q77 0 125 65t48 154q0 133 -113 133h-53z" />
    <glyph glyph-name="dcaron" unicode="&#x10f;" horiz-adv-x="630" 
d="M208 -10q-75 0 -126.5 59.5t-51.5 161.5q0 147 74 250t179 103q92 0 139 -51l43 242h218l-133 -755h-183l-3 62q-60 -72 -156 -72zM726 653l16 93q41 12 86 12q53 0 77.5 -21t24.5 -53q0 -51 -60 -117h-139q34 52 34 70q0 20 -19 20q-12 0 -20 -4zM299 147q19 0 38 15
t31 40l33 190q-26 17 -54 17q-43 0 -71.5 -52.5t-28.5 -123.5q0 -43 14.5 -64.5t37.5 -21.5z" />
    <glyph glyph-name="Dcroat" unicode="&#x110;" horiz-adv-x="771" 
d="M27 300l19 107h77l52 293h249q162 0 253 -76.5t91 -230.5q0 -178 -116.5 -285.5t-342.5 -107.5h-258l53 300h-77zM308 174h56q77 0 125 65t48 154q0 133 -113 133h-53l-21 -118h94l-18 -109h-96z" />
    <glyph glyph-name="dcroat" unicode="&#x111;" horiz-adv-x="630" 
d="M208 -10q-75 0 -126.5 59.5t-51.5 161.5q0 147 74 250t179 103q92 0 139 -51l15 85h-123l18 103h123l10 54h218l-10 -54h67l-18 -105h-67l-105 -596h-183l-3 62q-60 -72 -156 -72zM299 147q19 0 38 15t31 40l33 190q-26 17 -54 17q-43 0 -71.5 -52.5t-28.5 -123.5
q0 -43 14.5 -64.5t37.5 -21.5z" />
    <glyph glyph-name="Emacron" unicode="&#x112;" horiz-adv-x="618" 
d="M220 772l22 122h371l-21 -122h-372zM5 0l124 700h530l-34 -191h-303l-14 -73h266l-30 -163h-265l-15 -82h308l-34 -191h-533z" />
    <glyph glyph-name="emacron" unicode="&#x113;" horiz-adv-x="603" 
d="M33 234q0 150 101 241.5t242 91.5q102 0 165 -46.5t63 -125.5q0 -81 -80.5 -126t-210.5 -45h-60q3 -36 21 -50.5t55 -14.5q68 0 139 42l71 -142q-117 -72 -238 -72q-120 0 -194 67t-74 180zM190 631l21 121h365l-21 -121h-365zM358 421q-34 0 -58.5 -26t-36.5 -71h28
q111 0 111 57q0 18 -11.5 29t-32.5 11z" />
    <glyph glyph-name="Ebreve" unicode="&#x114;" horiz-adv-x="618" 
d="M396 751q-79 0 -121 44t-35 116h122q-2 -52 47 -52q52 0 67 52h130q-18 -74 -71.5 -117t-138.5 -43zM5 0l124 700h530l-34 -191h-303l-14 -73h266l-30 -163h-265l-15 -82h308l-34 -191h-533z" />
    <glyph glyph-name="ebreve" unicode="&#x115;" horiz-adv-x="603" 
d="M33 234q0 150 101 241.5t242 91.5q102 0 165 -46.5t63 -125.5q0 -81 -80.5 -126t-210.5 -45h-60q3 -36 21 -50.5t55 -14.5q68 0 139 42l71 -142q-117 -72 -238 -72q-120 0 -194 67t-74 180zM373 598q-75 0 -116.5 48.5t-35.5 124.5h120q4 -51 43 -51t58 51h132
q-18 -80 -69 -126.5t-132 -46.5zM358 421q-34 0 -58.5 -26t-36.5 -71h28q111 0 111 57q0 18 -11.5 29t-32.5 11z" />
    <glyph glyph-name="Edotaccent" unicode="&#x116;" horiz-adv-x="618" 
d="M316 761l24 144h153l-26 -144h-151zM5 0l124 700h530l-34 -191h-303l-14 -73h266l-30 -163h-265l-15 -82h308l-34 -191h-533z" />
    <glyph glyph-name="edotaccent" unicode="&#x117;" horiz-adv-x="603" 
d="M33 234q0 150 101 241.5t242 91.5q102 0 165 -46.5t63 -125.5q0 -81 -80.5 -126t-210.5 -45h-60q3 -36 21 -50.5t55 -14.5q68 0 139 42l71 -142q-117 -72 -238 -72q-120 0 -194 67t-74 180zM282 619l25 145h151l-26 -145h-150zM358 421q-34 0 -58.5 -26t-36.5 -71h28
q111 0 111 57q0 18 -11.5 29t-32.5 11z" />
    <glyph glyph-name="Eogonek" unicode="&#x118;" horiz-adv-x="618" 
d="M5 0l124 700h530l-34 -191h-303l-14 -73h266l-30 -163h-265l-15 -82h308l-34 -191q-90 -10 -90 -51q0 -22 32 -22q21 0 42 7l3 -4l-23 -126q-42 -12 -89 -12q-55 0 -86.5 27t-31.5 67q0 69 72 114h-362z" />
    <glyph glyph-name="eogonek" unicode="&#x119;" horiz-adv-x="603" 
d="M33 234q0 150 101 241.5t242 91.5q102 0 165 -46.5t63 -125.5q0 -81 -80.5 -126t-210.5 -45h-58v-1q1 -36 19 -50t55 -14q67 0 138 42l72 -142q-16 -10 -66 -36q-72 -36 -72 -76q0 -23 32 -23q21 0 42 7l3 -4l-21 -123q-43 -12 -89 -12q-54 0 -85.5 26.5t-31.5 67.5
q0 56 48 101h-1q-118 1 -191.5 67.5t-73.5 179.5zM358 421q-30 0 -56.5 -24.5t-38.5 -72.5h28q111 0 111 57q0 18 -11.5 29t-32.5 11z" />
    <glyph glyph-name="Ecaron" unicode="&#x11a;" horiz-adv-x="618" 
d="M296 755l-71 156h145l46 -71h2l73 71h153l-127 -156h-221zM5 0l124 700h530l-34 -191h-303l-14 -73h266l-30 -163h-265l-15 -82h308l-34 -191h-533z" />
    <glyph glyph-name="ecaron" unicode="&#x11b;" horiz-adv-x="603" 
d="M33 234q0 150 101 241.5t242 91.5q102 0 165 -46.5t63 -125.5q0 -81 -80.5 -126t-210.5 -45h-60q3 -36 21 -50.5t55 -14.5q68 0 139 42l71 -142q-117 -72 -238 -72q-120 0 -194 67t-74 180zM262 611l-85 160h146l67 -75h5l92 75h157l-139 -160h-243zM358 421
q-34 0 -58.5 -26t-36.5 -71h28q111 0 111 57q0 18 -11.5 29t-32.5 11z" />
    <glyph glyph-name="Gcircumflex" unicode="&#x11c;" horiz-adv-x="726" 
d="M40 308q0 172 112 288.5t302 116.5q162 0 278 -112l-133 -130q-64 56 -147 56q-79 0 -130.5 -58.5t-51.5 -147.5q0 -67 35.5 -107.5t91.5 -40.5q47 0 78 15l14 84h-114l25 137h313l-61 -341q-113 -81 -271 -81q-155 0 -248 91t-93 230zM275 755l127 156h220l72 -156h-144
l-46 71h-3l-73 -71h-153z" />
    <glyph glyph-name="gcircumflex" unicode="&#x11d;" horiz-adv-x="633" 
d="M338 24l7 40q-55 -43 -135 -43q-71 0 -124 51.5t-53 155.5q0 137 73.5 236.5t184.5 99.5q90 0 143 -53l16 43h198l-90 -513q-24 -136 -101 -193.5t-226 -57.5q-59 0 -119 16.5t-101 40.5l77 151q84 -40 145 -40q95 0 105 66zM166 611l140 160h243l84 -160h-157l-56 66h-5
l-83 -66h-166zM371 219l32 180q-24 16 -54 16q-42 0 -70.5 -50t-28.5 -118q0 -41 14.5 -61t37.5 -20q19 0 38 14.5t31 38.5z" />
    <glyph glyph-name="Gbreve" unicode="&#x11e;" horiz-adv-x="726" 
d="M484 751q-79 0 -121 44t-35 116h122q-2 -52 47 -52q52 0 67 52h130q-18 -74 -71.5 -117t-138.5 -43zM40 308q0 172 112 288.5t302 116.5q162 0 278 -112l-133 -130q-64 56 -147 56q-79 0 -130.5 -58.5t-51.5 -147.5q0 -67 35.5 -107.5t91.5 -40.5q47 0 78 15l14 84h-114
l25 137h313l-61 -341q-113 -81 -271 -81q-155 0 -248 91t-93 230z" />
    <glyph glyph-name="gbreve" unicode="&#x11f;" horiz-adv-x="633" 
d="M338 24l7 40q-55 -43 -135 -43q-71 0 -124 51.5t-53 155.5q0 137 73.5 236.5t184.5 99.5q90 0 143 -53l16 43h198l-90 -513q-24 -136 -101 -193.5t-226 -57.5q-59 0 -119 16.5t-101 40.5l77 151q84 -40 145 -40q95 0 105 66zM371 219l32 180q-24 16 -54 16
q-42 0 -70.5 -50t-28.5 -118q0 -41 14.5 -61t37.5 -20q19 0 38 14.5t31 38.5zM393 598q-75 0 -116.5 48.5t-35.5 124.5h120q4 -51 43 -51t58 51h132q-18 -80 -69 -126.5t-132 -46.5z" />
    <glyph glyph-name="Gdotaccent" unicode="&#x120;" horiz-adv-x="726" 
d="M387 761l24 144h153l-26 -144h-151zM40 308q0 172 112 288.5t302 116.5q162 0 278 -112l-133 -130q-64 56 -147 56q-79 0 -130.5 -58.5t-51.5 -147.5q0 -67 35.5 -107.5t91.5 -40.5q47 0 78 15l14 84h-114l25 137h313l-61 -341q-113 -81 -271 -81q-155 0 -248 91t-93 230
z" />
    <glyph glyph-name="gdotaccent" unicode="&#x121;" horiz-adv-x="633" 
d="M338 24l7 40q-55 -43 -135 -43q-71 0 -124 51.5t-53 155.5q0 137 73.5 236.5t184.5 99.5q90 0 143 -53l16 43h198l-90 -513q-24 -136 -101 -193.5t-226 -57.5q-59 0 -119 16.5t-101 40.5l77 151q84 -40 145 -40q95 0 105 66zM371 219l32 180q-24 16 -54 16
q-42 0 -70.5 -50t-28.5 -118q0 -41 14.5 -61t37.5 -20q19 0 38 14.5t31 38.5zM293 619l25 145h151l-26 -145h-150z" />
    <glyph glyph-name="Gcommaaccent" unicode="&#x122;" horiz-adv-x="726" 
d="M40 308q0 172 112 288.5t302 116.5q162 0 278 -112l-133 -130q-64 56 -147 56q-79 0 -130.5 -58.5t-51.5 -147.5q0 -67 35.5 -107.5t91.5 -40.5q47 0 78 15l14 84h-114l25 137h313l-61 -341q-113 -81 -271 -81q-155 0 -248 91t-93 230zM253 -55q41 12 87 12
q52 0 76.5 -21t24.5 -53q0 -49 -60 -115h-139q34 50 34 69t-19 19q-12 0 -20 -4z" />
    <glyph glyph-name="gcommaaccent" unicode="&#x123;" horiz-adv-x="633" 
d="M470 709l-16 -93q-41 -12 -86 -12q-53 0 -77.5 21t-24.5 53q0 51 60 117h139q-34 -52 -34 -70q0 -20 19 -20q12 0 20 4zM338 24l7 40q-55 -43 -135 -43q-71 0 -124 51.5t-53 155.5q0 137 73.5 236.5t184.5 99.5q90 0 143 -53l16 43h198l-90 -513q-24 -136 -101 -193.5
t-226 -57.5q-59 0 -119 16.5t-101 40.5l77 151q84 -40 145 -40q95 0 105 66zM371 219l32 180q-24 16 -54 16q-42 0 -70.5 -50t-28.5 -118q0 -41 14.5 -61t37.5 -20q19 0 38 14.5t31 38.5z" />
    <glyph glyph-name="Hcircumflex" unicode="&#x124;" horiz-adv-x="710" 
d="M5 0l124 700h227l-44 -252h163l44 252h227l-123 -700h-228l47 260h-163l-47 -260h-227zM226 755l127 156h220l72 -156h-144l-46 71h-3l-73 -71h-153z" />
    <glyph glyph-name="hcircumflex" unicode="&#x125;" horiz-adv-x="619" 
d="M-1 0l134 755h218l-45 -254q74 66 156 66q71 0 110 -38.5t39 -105.5q0 -38 -10 -96l-58 -327h-218l59 335q4 28 4 43q0 29 -29 29q-43 0 -81 -64l-61 -343h-218zM27 797l127 156h220l72 -156h-144l-46 71h-3l-73 -71h-153z" />
    <glyph glyph-name="Hbar" unicode="&#x126;" horiz-adv-x="710" 
d="M5 0l124 700h227l-12 -65h163l12 65h227l-123 -700h-228l47 260h-163l-47 -260h-227zM312 448h163l13 77h-163z" />
    <glyph glyph-name="hbar" unicode="&#x127;" horiz-adv-x="619" 
d="M37 596l18 105h68l10 54h218l-10 -54h126l-17 -103h-127l-17 -97q74 66 156 66q71 0 110 -38.5t39 -105.5q0 -38 -10 -96l-58 -327h-218l59 335q4 28 4 43q0 29 -29 29q-43 0 -81 -64l-61 -343h-218l106 596h-68z" />
    <glyph glyph-name="Itilde" unicode="&#x128;" horiz-adv-x="320" 
d="M5 0l124 700h227l-124 -700h-227zM41 757q2 83 41.5 125t108.5 42q37 0 81 -24t60 -24q38 0 40 34h112q-2 -84 -41.5 -126.5t-107.5 -42.5q-37 0 -81 24t-62 24q-35 0 -38 -32h-113z" />
    <glyph glyph-name="itilde" unicode="&#x129;" horiz-adv-x="297" 
d="M-1 0l96 541h218l-96 -541h-218zM14 610q4 86 43 129.5t107 43.5q36 0 77.5 -24.5t60.5 -24.5q34 0 37 39h112q-4 -86 -42.5 -129.5t-106.5 -43.5q-35 0 -76.5 24t-60.5 24q-34 0 -39 -38h-112z" />
    <glyph glyph-name="Imacron" unicode="&#x12a;" horiz-adv-x="320" 
d="M5 0l124 700h227l-124 -700h-227zM68 772l22 122h371l-21 -122h-372z" />
    <glyph glyph-name="imacron" unicode="&#x12b;" horiz-adv-x="297" 
d="M-1 0l96 541h218l-96 -541h-218zM32 631l21 121h365l-21 -121h-365z" />
    <glyph glyph-name="Ibreve" unicode="&#x12c;" horiz-adv-x="320" 
d="M5 0l124 700h227l-124 -700h-227zM249 751q-79 0 -121 44t-35 116h122q-2 -52 47 -52q52 0 67 52h130q-18 -74 -71.5 -117t-138.5 -43z" />
    <glyph glyph-name="ibreve" unicode="&#x12d;" horiz-adv-x="297" 
d="M-1 0l96 541h218l-96 -541h-218zM216 598q-75 0 -116.5 48.5t-35.5 124.5h120q4 -51 43 -51t58 51h132q-18 -80 -69 -126.5t-132 -46.5z" />
    <glyph glyph-name="Iogonek" unicode="&#x12e;" horiz-adv-x="320" 
d="M5 0l124 700h227l-124 -700q-90 -10 -90 -51q0 -22 32 -22q21 0 42 7l3 -4l-23 -126q-42 -12 -89 -12q-55 0 -86.5 27t-31.5 67q0 69 72 114h-56z" />
    <glyph glyph-name="iogonek" unicode="&#x12f;" horiz-adv-x="297" 
d="M-1 0l96 541h218l-96 -541q-90 -10 -90 -51q0 -22 32 -22q21 0 42 7l3 -4l-23 -126q-42 -12 -89 -12q-55 0 -86.5 27t-31.5 67q0 69 72 114h-47zM105 596l27 159h218l-26 -159h-219z" />
    <glyph glyph-name="Idotaccent" unicode="&#x130;" horiz-adv-x="320" 
d="M5 0l124 700h227l-124 -700h-227zM174 761l24 144h153l-26 -144h-151z" />
    <glyph glyph-name="dotlessi" unicode="&#x131;" horiz-adv-x="297" 
d="M-1 0l96 541h218l-96 -541h-218z" />
    <glyph glyph-name="Jcircumflex" unicode="&#x134;" horiz-adv-x="544" 
d="M-16 132l165 101q38 -53 72 -53q41 0 49 49l83 471h227l-84 -473q-44 -240 -278 -240q-73 0 -136 39t-98 106zM259 755l127 156h220l72 -156h-144l-46 71h-3l-73 -71h-153z" />
    <glyph glyph-name="jcircumflex" unicode="&#x135;" horiz-adv-x="307" 
d="M13 33l90 508h219l-93 -520q-22 -127 -81.5 -179t-173.5 -52q-82 0 -148 46l70 140q35 -19 64 -19q25 0 35.5 17.5t17.5 58.5zM-22 611l140 160h243l84 -160h-157l-56 66h-5l-83 -66h-166z" />
    <glyph glyph-name="Kcommaaccent" unicode="&#x136;" horiz-adv-x="704" 
d="M5 0l124 700h227l-43 -245l221 245h258l-248 -255l126 -445h-228l-70 267l-113 -117l-27 -150h-227zM236 -55q41 12 87 12q52 0 76.5 -21t24.5 -53q0 -49 -60 -115h-139q34 50 34 69t-19 19q-12 0 -20 -4z" />
    <glyph glyph-name="kcommaaccent" unicode="&#x137;" horiz-adv-x="629" 
d="M-1 0l133 755h218l-70 -396l190 195h231l-215 -210l91 -344h-215l-43 181l-84 -82l-18 -99h-218zM186 -55q41 12 87 12q52 0 76.5 -21t24.5 -53q0 -49 -60 -115h-139q34 50 34 69t-19 19q-12 0 -20 -4z" />
    <glyph glyph-name="kgreenlandic" unicode="&#x138;" horiz-adv-x="629" 
d="M-1 0l98 554h217l-34 -195l190 195h231l-215 -210l91 -344h-215l-43 181l-84 -82l-18 -99h-218z" />
    <glyph glyph-name="Lacute" unicode="&#x139;" horiz-adv-x="577" 
d="M164 755l122 162l160 -81l-144 -81h-138zM5 0l124 700h227l-90 -510h281l-34 -190h-508z" />
    <glyph glyph-name="lacute" unicode="&#x13a;" horiz-adv-x="297" 
d="M157 797l122 162l160 -81l-144 -81h-138zM-1 0l133 755h218l-133 -755h-218z" />
    <glyph glyph-name="Lcommaaccent" unicode="&#x13b;" horiz-adv-x="577" 
d="M5 0l124 700h227l-90 -510h281l-34 -190h-508zM147 -55q41 12 87 12q52 0 76.5 -21t24.5 -53q0 -49 -60 -115h-139q34 50 34 69t-19 19q-12 0 -20 -4z" />
    <glyph glyph-name="lcommaaccent" unicode="&#x13c;" horiz-adv-x="297" 
d="M-15 -55q41 12 87 12q52 0 76.5 -21t24.5 -53q0 -49 -60 -115h-139q34 50 34 69t-19 19q-12 0 -20 -4zM-1 0l133 755h218l-133 -755h-218z" />
    <glyph glyph-name="Lcaron" unicode="&#x13d;" horiz-adv-x="577" 
d="M5 0l124 700h227l-90 -510h281l-34 -190h-508zM448 697q41 12 87 12q52 0 76.5 -21t24.5 -53q0 -49 -60 -115h-139q34 50 34 69t-19 19q-12 0 -20 -4z" />
    <glyph glyph-name="lcaron" unicode="&#x13e;" horiz-adv-x="297" 
d="M393 653l16 93q41 12 86 12q53 0 77.5 -21t24.5 -53q0 -51 -60 -117h-139q34 52 34 70q0 20 -19 20q-12 0 -20 -4zM-1 0l133 755h218l-133 -755h-218z" />
    <glyph glyph-name="Ldot" unicode="&#x13f;" horiz-adv-x="577" 
d="M5 0l124 700h227l-90 -510h281l-34 -190h-508zM422 334l25 144h151l-25 -144h-151z" />
    <glyph glyph-name="ldot" unicode="&#x140;" horiz-adv-x="297" 
d="M-1 0l133 755h218l-133 -755h-218zM310 283l25 145h151l-26 -145h-150z" />
    <glyph glyph-name="Lslash" unicode="&#x141;" horiz-adv-x="603" 
d="M-21 189l24 132l93 46l59 333h227l-37 -208l134 67l-24 -133l-133 -67l-30 -169h281l-34 -190h-508l41 235z" />
    <glyph glyph-name="lslash" unicode="&#x142;" horiz-adv-x="298" 
d="M-11 226l24 135l62 29l64 365h218l-43 -245l62 31l-24 -136l-62 -31l-66 -374h-218l45 256z" />
    <glyph glyph-name="Nacute" unicode="&#x143;" horiz-adv-x="728" 
d="M355 755l122 162l160 -81l-144 -81h-138zM5 0l124 700h181l180 -358l62 358h212l-124 -700h-186l-176 359l-61 -359h-212z" />
    <glyph glyph-name="nacute" unicode="&#x144;" horiz-adv-x="619" 
d="M281 611l128 190l137 -82l-127 -108h-138zM324 0l59 335q5 23 5 43q0 29 -29 29q-43 0 -81 -64l-61 -343h-218l99 554h184l6 -63q76 76 174 76q71 0 109.5 -38.5t38.5 -105.5q0 -38 -10 -96l-58 -327h-218z" />
    <glyph glyph-name="Ncommaaccent" unicode="&#x145;" horiz-adv-x="728" 
d="M238 -55q41 12 87 12q52 0 76.5 -21t24.5 -53q0 -49 -60 -115h-139q34 50 34 69t-19 19q-12 0 -20 -4zM5 0l124 700h181l180 -358l62 358h212l-124 -700h-186l-176 359l-61 -359h-212z" />
    <glyph glyph-name="ncommaaccent" unicode="&#x146;" horiz-adv-x="619" 
d="M168 -55q41 12 87 12q52 0 76.5 -21t24.5 -53q0 -49 -60 -115h-139q34 50 34 69t-19 19q-12 0 -20 -4zM324 0l59 335q5 23 5 43q0 29 -29 29q-43 0 -81 -64l-61 -343h-218l99 554h184l6 -63q76 76 174 76q71 0 109.5 -38.5t38.5 -105.5q0 -38 -10 -96l-58 -327h-218z" />
    <glyph glyph-name="Ncaron" unicode="&#x147;" horiz-adv-x="728" 
d="M336 755l-71 156h145l46 -71h2l73 71h153l-127 -156h-221zM5 0l124 700h181l180 -358l62 358h212l-124 -700h-186l-176 359l-61 -359h-212z" />
    <glyph glyph-name="ncaron" unicode="&#x148;" horiz-adv-x="619" 
d="M253 611l-85 160h146l67 -75h5l92 75h157l-139 -160h-243zM324 0l59 335q5 23 5 43q0 29 -29 29q-43 0 -81 -64l-61 -343h-218l99 554h184l6 -63q76 76 174 76q71 0 109.5 -38.5t38.5 -105.5q0 -38 -10 -96l-58 -327h-218z" />
    <glyph glyph-name="Eng" unicode="&#x14a;" horiz-adv-x="728" 
d="M5 0l124 700h181l180 -358l62 358h212l-120 -676q-23 -129 -83 -181.5t-175 -52.5q-90 0 -155 43l76 151q42 -22 70 -22q25 0 38.5 15t20.5 47l2 8l-160 327l-61 -359h-212z" />
    <glyph glyph-name="eng" unicode="&#x14b;" horiz-adv-x="619" 
d="M330 32l53 303q5 23 5 43q0 29 -29 29q-43 0 -81 -64l-61 -343h-218l99 554h184l6 -63q76 76 174 76q71 0 109.5 -38.5t38.5 -105.5q0 -38 -10 -96l-54 -306q-23 -127 -80.5 -179t-170.5 -52q-85 0 -153 46l71 140q33 -19 64 -19q24 0 35.5 17.5t17.5 57.5z" />
    <glyph glyph-name="Omacron" unicode="&#x14c;" horiz-adv-x="798" 
d="M275 772l22 122h371l-21 -122h-372zM46 323q0 75 26.5 144t75.5 124.5t128.5 88.5t176.5 33q147 0 243.5 -91t96.5 -245q0 -75 -26.5 -144t-75.5 -124.5t-128.5 -88.5t-176.5 -33q-147 0 -243.5 91t-96.5 245zM277 319q0 -148 120 -148q72 0 118 64.5t46 145.5
q0 148 -120 148q-72 0 -118 -64.5t-46 -145.5z" />
    <glyph glyph-name="omacron" unicode="&#x14d;" horiz-adv-x="631" 
d="M185 631l21 121h365l-21 -121h-365zM292 -13q-113 0 -186.5 69.5t-73.5 188.5q0 145 89.5 233.5t236.5 88.5q113 0 186.5 -69t73.5 -189q0 -144 -89.5 -233t-236.5 -89zM305 140q40 0 66.5 54.5t26.5 122.5q0 97 -54 97q-39 0 -65.5 -54.5t-26.5 -122.5q0 -97 53 -97z
" />
    <glyph glyph-name="Obreve" unicode="&#x14e;" horiz-adv-x="798" 
d="M451 751q-79 0 -121 44t-35 116h122q-2 -52 47 -52q52 0 67 52h130q-18 -74 -71.5 -117t-138.5 -43zM46 323q0 75 26.5 144t75.5 124.5t128.5 88.5t176.5 33q147 0 243.5 -91t96.5 -245q0 -75 -26.5 -144t-75.5 -124.5t-128.5 -88.5t-176.5 -33q-147 0 -243.5 91
t-96.5 245zM277 319q0 -148 120 -148q72 0 118 64.5t46 145.5q0 148 -120 148q-72 0 -118 -64.5t-46 -145.5z" />
    <glyph glyph-name="obreve" unicode="&#x14f;" horiz-adv-x="631" 
d="M292 -13q-113 0 -186.5 69.5t-73.5 188.5q0 145 89.5 233.5t236.5 88.5q113 0 186.5 -69t73.5 -189q0 -144 -89.5 -233t-236.5 -89zM305 140q40 0 66.5 54.5t26.5 122.5q0 97 -54 97q-39 0 -65.5 -54.5t-26.5 -122.5q0 -97 53 -97zM372 598q-75 0 -116.5 48.5
t-35.5 124.5h120q4 -51 43 -51t58 51h132q-18 -80 -69 -126.5t-132 -46.5z" />
    <glyph glyph-name="Ohungarumlaut" unicode="&#x150;" horiz-adv-x="798" 
d="M46 323q0 75 26.5 144t75.5 124.5t128.5 88.5t176.5 33q147 0 243.5 -91t96.5 -245q0 -75 -26.5 -144t-75.5 -124.5t-128.5 -88.5t-176.5 -33q-147 0 -243.5 91t-96.5 245zM277 319q0 -148 120 -148q72 0 118 64.5t46 145.5q0 148 -120 148q-72 0 -118 -64.5t-46 -145.5z
M263 755l123 162l160 -81l-145 -81h-138zM506 755l123 162l160 -81l-145 -81h-138z" />
    <glyph glyph-name="ohungarumlaut" unicode="&#x151;" horiz-adv-x="631" 
d="M197 611l127 190l123 -82l-129 -108h-121zM392 611l128 190l123 -82l-129 -108h-122zM292 -13q-113 0 -186.5 69.5t-73.5 188.5q0 145 89.5 233.5t236.5 88.5q113 0 186.5 -69t73.5 -189q0 -144 -89.5 -233t-236.5 -89zM305 140q40 0 66.5 54.5t26.5 122.5q0 97 -54 97
q-39 0 -65.5 -54.5t-26.5 -122.5q0 -97 53 -97z" />
    <glyph glyph-name="OE" unicode="&#x152;" horiz-adv-x="1112" 
d="M46 323q0 75 26 144.5t74.5 124.5t124.5 88t168 33q107 0 178 -47l6 34h530l-34 -191h-303l-14 -73h266l-30 -163h-265l-15 -82h308l-34 -191h-532l7 38q-65 -51 -152 -51q-75 0 -144.5 39.5t-117 118t-47.5 178.5zM277 319q0 -148 120 -148q72 0 118 64.5t46 145.5
q0 148 -120 148q-72 0 -118 -64.5t-46 -145.5z" />
    <glyph glyph-name="oe" unicode="&#x153;" horiz-adv-x="964" 
d="M32 245q0 145 89.5 233.5t236.5 88.5q105 0 167 -67q85 67 212 67q102 0 165 -46.5t63 -125.5q0 -81 -80.5 -126t-210.5 -45h-58v-1q1 -36 19 -50t55 -14q68 0 139 42l71 -142q-115 -72 -238 -72q-107 0 -173 66q-75 -66 -197 -66q-113 0 -186.5 69.5t-73.5 188.5z
M719 421q-29 0 -55.5 -24.5t-38.5 -72.5h27q111 0 111 57q0 18 -11.5 29t-32.5 11zM305 140q40 0 66.5 54.5t26.5 122.5q0 97 -54 97q-39 0 -65.5 -54.5t-26.5 -122.5q0 -97 53 -97z" />
    <glyph glyph-name="Racute" unicode="&#x154;" horiz-adv-x="693" 
d="M5 0l124 700h300q128 0 201 -59t73 -161q0 -156 -148 -212l58 -268h-214l-39 239h-85l-43 -239h-227zM320 755l122 162l160 -81l-144 -81h-138zM302 392h83q37 0 61 20t24 59q0 30 -17.5 44.5t-44.5 14.5h-82z" />
    <glyph glyph-name="racute" unicode="&#x155;" horiz-adv-x="466" 
d="M210 611l128 190l137 -82l-127 -108h-138zM-2 0l100 554h183l8 -76q62 94 163 94q43 0 67 -8l-56 -192q-31 11 -69 11q-70 0 -129 -107l-49 -276h-218z" />
    <glyph glyph-name="Rcommaaccent" unicode="&#x156;" horiz-adv-x="693" 
d="M5 0l124 700h300q128 0 201 -59t73 -161q0 -156 -148 -212l58 -268h-214l-39 239h-7h-78l-43 -239h-227zM218 -55q41 12 87 12q52 0 76.5 -21t24.5 -53q0 -49 -60 -115h-139q34 50 34 69t-19 19q-12 0 -20 -4zM302 392h83q37 0 61 20t24 59q0 30 -17.5 44.5t-44.5 14.5
h-82z" />
    <glyph glyph-name="rcommaaccent" unicode="&#x157;" horiz-adv-x="466" 
d="M-17 -55q41 12 87 12q52 0 76.5 -21t24.5 -53q0 -49 -60 -115h-139q34 50 34 69t-19 19q-12 0 -20 -4zM-2 0l100 554h183l8 -76q62 94 163 94q43 0 67 -8l-56 -192q-31 11 -69 11q-70 0 -129 -107l-49 -276h-218z" />
    <glyph glyph-name="Rcaron" unicode="&#x158;" horiz-adv-x="693" 
d="M5 0l124 700h300q128 0 201 -59t73 -161q0 -156 -148 -212l58 -268h-214l-39 239h-7h-78l-43 -239h-227zM304 755l-71 156h145l46 -71h2l73 71h153l-127 -156h-221zM302 392h83q37 0 61 20t24 59q0 30 -17.5 44.5t-44.5 14.5h-82z" />
    <glyph glyph-name="rcaron" unicode="&#x159;" horiz-adv-x="466" 
d="M203 611l-85 160h146l67 -75h5l92 75h157l-139 -160h-243zM-2 0l100 554h183l8 -76q62 94 163 94q43 0 67 -8l-56 -192q-31 11 -69 11q-70 0 -129 -107l-49 -276h-218z" />
    <glyph glyph-name="Sacute" unicode="&#x15a;" horiz-adv-x="624" 
d="M-4 87l121 155q92 -62 182 -62q25 0 41 8.5t16 23.5q0 8 -5 14.5t-16.5 12.5t-21.5 9.5t-29.5 10l-31.5 10.5q-32 11 -52 20t-46.5 26t-42 37t-27 52t-11.5 71q0 103 78 170.5t212 67.5q146 0 271 -77l-100 -162q-86 47 -169 47q-52 0 -52 -32q0 -5 2.5 -10t8 -9
t11.5 -7.5t16 -7t17.5 -6t20.5 -7t21 -7.5q36 -13 52.5 -19.5t47 -24t45.5 -36.5t27.5 -51.5t12.5 -73.5q0 -108 -78 -175.5t-226 -67.5q-79 0 -161 29.5t-134 70.5zM273 755l122 162l160 -81l-144 -81h-138z" />
    <glyph glyph-name="sacute" unicode="&#x15b;" horiz-adv-x="519" 
d="M198 611l128 190l137 -82l-127 -108h-138zM-13 60l89 133q90 -49 156 -49q45 0 45 24q0 21 -64 39q-9 3 -13 4q-153 44 -153 165q0 90 71 140.5t173 50.5q127 0 234 -66l-88 -126q-72 38 -132 38q-41 0 -41 -24q0 -21 49 -34q3 0 34 -8q71 -18 107.5 -52.5t36.5 -100.5
q0 -97 -75 -152t-184 -55q-143 0 -245 73z" />
    <glyph glyph-name="Scircumflex" unicode="&#x15c;" horiz-adv-x="624" 
d="M-4 87l121 155q92 -62 182 -62q25 0 41 8.5t16 23.5q0 8 -5 14.5t-16.5 12.5t-21.5 9.5t-29.5 10l-31.5 10.5q-32 11 -52 20t-46.5 26t-42 37t-27 52t-11.5 71q0 103 78 170.5t212 67.5q146 0 271 -77l-100 -162q-86 47 -169 47q-52 0 -52 -32q0 -5 2.5 -10t8 -9
t11.5 -7.5t16 -7t17.5 -6t20.5 -7t21 -7.5q36 -13 52.5 -19.5t47 -24t45.5 -36.5t27.5 -51.5t12.5 -73.5q0 -108 -78 -175.5t-226 -67.5q-79 0 -161 29.5t-134 70.5zM163 755l127 156h220l72 -156h-144l-46 71h-3l-73 -71h-153z" />
    <glyph glyph-name="scircumflex" unicode="&#x15d;" horiz-adv-x="519" 
d="M84 611l140 160h243l84 -160h-157l-56 66h-5l-83 -66h-166zM-13 60l89 133q90 -49 156 -49q45 0 45 24q0 21 -64 39q-9 3 -13 4q-153 44 -153 165q0 90 71 140.5t173 50.5q127 0 234 -66l-88 -126q-72 38 -132 38q-41 0 -41 -24q0 -21 49 -34q3 0 34 -8
q71 -18 107.5 -52.5t36.5 -100.5q0 -97 -75 -152t-184 -55q-143 0 -245 73z" />
    <glyph glyph-name="Scedilla" unicode="&#x15e;" horiz-adv-x="624" 
d="M67 -160q111 85 144 155q-131 23 -215 92l121 155q92 -62 182 -62q25 0 41 8.5t16 23.5q0 8 -5 14.5t-16.5 12.5t-21.5 9.5t-29.5 10l-31.5 10.5q-32 11 -52 20t-46.5 26t-42 37t-27 52t-11.5 71q0 103 78 170.5t212 67.5q146 0 271 -77l-100 -162q-86 47 -169 47
q-52 0 -52 -32q0 -5 2.5 -10t8 -9t11.5 -7.5t16 -7t17.5 -6t20.5 -7t21 -7.5q36 -13 52.5 -19.5t47 -24t45.5 -36.5t27.5 -51.5t12.5 -73.5q0 -99 -65 -164.5t-190 -76.5q-37 -132 -140 -217z" />
    <glyph glyph-name="scedilla" unicode="&#x15f;" horiz-adv-x="519" 
d="M5 -160q109 84 144 154q-94 17 -162 66l89 133q90 -49 156 -49q45 0 45 24q0 21 -64 39q-9 3 -13 4q-153 44 -153 165q0 90 71 140.5t173 50.5q127 0 234 -66l-88 -126q-72 38 -132 38q-41 0 -41 -24q0 -21 49 -34q3 0 34 -8q71 -18 107.5 -52.5t36.5 -100.5
q0 -86 -60 -139.5t-153 -64.5q-37 -134 -140 -218z" />
    <glyph glyph-name="Scaron" unicode="&#x160;" horiz-adv-x="643" 
d="M-4 87l121 155q92 -62 182 -62q25 0 41 8.5t16 23.5q0 8 -5 14.5t-16.5 12.5t-21.5 9.5t-29.5 10l-31.5 10.5q-32 11 -52 20t-46.5 26t-42 37t-27 52t-11.5 71q0 103 78 170.5t212 67.5q146 0 271 -77l-100 -162q-86 47 -169 47q-52 0 -52 -32q0 -5 2.5 -10t8 -9
t11.5 -7.5t16 -7t17.5 -6t20.5 -7t21 -7.5q36 -13 52.5 -19.5t47 -24t45.5 -36.5t27.5 -51.5t12.5 -73.5q0 -108 -78 -175.5t-226 -67.5q-79 0 -161 29.5t-134 70.5zM261 755l-71 156h145l46 -71h2l73 71h153l-127 -156h-221z" />
    <glyph glyph-name="scaron" unicode="&#x161;" horiz-adv-x="519" 
d="M188 611l-85 160h146l67 -75h5l92 75h157l-139 -160h-243zM-13 60l89 133q90 -49 156 -49q45 0 45 24q0 21 -64 39q-9 3 -13 4q-153 44 -153 165q0 90 71 140.5t173 50.5q127 0 234 -66l-88 -126q-72 38 -132 38q-41 0 -41 -24q0 -21 49 -34q3 0 34 -8
q71 -18 107.5 -52.5t36.5 -100.5q0 -97 -75 -152t-184 -55q-143 0 -245 73z" />
    <glyph glyph-name="Tcedilla" unicode="&#x162;" horiz-adv-x="660" 
d="M218 -38h138q-39 -112 -132 -190l-132 68q31 24 46.5 36.5t40 37.5t39.5 48zM182 0l89 504h-206l34 196h624l-34 -196h-192l-89 -504h-226z" />
    <glyph glyph-name="tcedilla" unicode="&#x163;" horiz-adv-x="471" 
d="M146 -38h138q-39 -112 -132 -190l-132 68q31 24 46.5 36.5t40 37.5t39.5 48zM78 222l34 191h-74l26 141h74l21 117h218l-21 -117h143l-26 -141h-143l-36 -202q-3 -9 -3 -23q0 -30 30 -30q32 0 63 23l60 -134q-91 -60 -205 -60q-74 0 -122 41.5t-48 111.5q0 21 9 82z" />
    <glyph glyph-name="Tcaron" unicode="&#x164;" horiz-adv-x="660" 
d="M304 755l-71 156h145l46 -71h2l73 71h153l-127 -156h-221zM182 0l89 504h-206l34 196h624l-34 -196h-192l-89 -504h-226z" />
    <glyph glyph-name="tcaron" unicode="&#x165;" horiz-adv-x="471" 
d="M404 663l16 93q41 12 86 12q53 0 77.5 -21t24.5 -53q0 -51 -60 -117h-139q34 52 34 70q0 20 -19 20q-12 0 -20 -4zM78 222l34 191h-74l26 141h74l21 117h218l-21 -117h143l-26 -141h-143l-36 -202q-3 -9 -3 -23q0 -30 30 -30q32 0 63 23l60 -134q-91 -60 -205 -60
q-74 0 -122 41.5t-48 111.5q0 21 9 82z" />
    <glyph glyph-name="Tbar" unicode="&#x166;" horiz-adv-x="660" 
d="M141 298l19 107h93l18 99h-206l34 196h624l-34 -196h-192l-18 -99h98l-19 -107h-98l-52 -298h-226l52 298h-93z" />
    <glyph glyph-name="tbar" unicode="&#x167;" horiz-adv-x="471" 
d="M19 247l19 107h63l11 59h-74l26 141h74l21 117h218l-21 -117h143l-26 -141h-143l-11 -61h124l-19 -105h-124l-6 -36q-3 -9 -3 -23q0 -30 30 -30q32 0 63 23l60 -134q-91 -60 -205 -60q-74 0 -122 41.5t-48 111.5q0 21 9 82l4 25h-63z" />
    <glyph glyph-name="Utilde" unicode="&#x168;" horiz-adv-x="714" 
d="M238 757q2 83 41.5 125t108.5 42q38 0 81 -24t60 -24q38 0 40 34h112q-2 -84 -41.5 -126.5t-107.5 -42.5q-37 0 -81 24t-62 24q-35 0 -38 -32h-113zM58 320l69 380h228l-74 -405q-5 -28 -5 -50q0 -33 19 -52t53 -19q43 0 67.5 29.5t36.5 95.5l71 401h227l-75 -426
q-26 -149 -115 -218t-245 -69q-122 0 -194.5 62.5t-72.5 169.5q0 39 10 101z" />
    <glyph glyph-name="utilde" unicode="&#x169;" horiz-adv-x="616" 
d="M632 554l-99 -554h-177l-7 65q-78 -78 -175 -78q-74 0 -113.5 40.5t-39.5 104.5q0 44 9 95l58 327h218l-63 -344q-4 -22 -4 -38q0 -31 30 -31q42 0 85 77l59 336h219zM166 610q4 86 43 129.5t107 43.5q36 0 77.5 -24.5t60.5 -24.5q34 0 37 39h112q-4 -86 -42.5 -129.5
t-106.5 -43.5q-35 0 -76.5 24t-60.5 24q-34 0 -39 -38h-112z" />
    <glyph glyph-name="Umacron" unicode="&#x16a;" horiz-adv-x="714" 
d="M263 772l22 122h371l-21 -122h-372zM58 320l69 380h228l-74 -405q-5 -28 -5 -50q0 -33 19 -52t53 -19q43 0 67.5 29.5t36.5 95.5l71 401h227l-75 -426q-26 -149 -115 -218t-245 -69q-122 0 -194.5 62.5t-72.5 169.5q0 39 10 101z" />
    <glyph glyph-name="umacron" unicode="&#x16b;" horiz-adv-x="616" 
d="M632 554l-99 -554h-177l-7 65q-78 -78 -175 -78q-74 0 -113.5 40.5t-39.5 104.5q0 44 9 95l58 327h218l-63 -344q-4 -22 -4 -38q0 -31 30 -31q42 0 85 77l59 336h219zM189 631l21 121h365l-21 -121h-365z" />
    <glyph glyph-name="Ubreve" unicode="&#x16c;" horiz-adv-x="714" 
d="M446 751q-79 0 -121 44t-35 116h122q-2 -52 47 -52q52 0 67 52h130q-18 -74 -71.5 -117t-138.5 -43zM58 320l69 380h228l-74 -405q-5 -28 -5 -50q0 -33 19 -52t53 -19q43 0 67.5 29.5t36.5 95.5l71 401h227l-75 -426q-26 -149 -115 -218t-245 -69q-122 0 -194.5 62.5
t-72.5 169.5q0 39 10 101z" />
    <glyph glyph-name="ubreve" unicode="&#x16d;" horiz-adv-x="616" 
d="M632 554l-99 -554h-177l-7 65q-78 -78 -175 -78q-74 0 -113.5 40.5t-39.5 104.5q0 44 9 95l58 327h218l-63 -344q-4 -22 -4 -38q0 -31 30 -31q42 0 85 77l59 336h219zM368 598q-75 0 -116.5 48.5t-35.5 124.5h120q4 -51 43 -51t58 51h132q-18 -80 -69 -126.5t-132 -46.5z
" />
    <glyph glyph-name="Uring" unicode="&#x16e;" horiz-adv-x="714" 
d="M58 320l69 380h228l-74 -405q-5 -28 -5 -50q0 -33 19 -52t53 -19q43 0 67.5 29.5t36.5 95.5l71 401h227l-75 -426q-26 -149 -115 -218t-245 -69q-122 0 -194.5 62.5t-72.5 169.5q0 39 10 101zM334 860q0 59 43.5 100.5t108.5 41.5q51 0 83.5 -33.5t32.5 -81.5
q0 -59 -43.5 -100.5t-108.5 -41.5q-51 0 -83.5 33.5t-32.5 81.5zM401 861q0 -24 15 -39t40 -15q33 0 56 24t23 54q0 24 -15 39t-40 15q-33 0 -56 -24t-23 -54z" />
    <glyph glyph-name="uring" unicode="&#x16f;" horiz-adv-x="616" 
d="M241 720q0 59 43.5 100.5t108.5 41.5q51 0 83.5 -33.5t32.5 -81.5q0 -59 -43.5 -100.5t-108.5 -41.5q-51 0 -83.5 33.5t-32.5 81.5zM308 721q0 -24 15 -39t40 -15q33 0 56 24t23 54q0 24 -15 39t-40 15q-33 0 -56 -24t-23 -54zM632 554l-99 -554h-177l-7 65
q-78 -78 -175 -78q-74 0 -113.5 40.5t-39.5 104.5q0 44 9 95l58 327h218l-63 -344q-4 -22 -4 -38q0 -31 30 -31q42 0 85 77l59 336h219z" />
    <glyph glyph-name="Uhungarumlaut" unicode="&#x170;" horiz-adv-x="714" 
d="M58 320l69 380h228l-74 -405q-5 -28 -5 -50q0 -33 19 -52t53 -19q43 0 67.5 29.5t36.5 95.5l71 401h227l-75 -426q-26 -149 -115 -218t-245 -69q-122 0 -194.5 62.5t-72.5 169.5q0 39 10 101zM249 755l123 162l160 -81l-145 -81h-138zM492 755l123 162l160 -81l-145 -81
h-138z" />
    <glyph glyph-name="uhungarumlaut" unicode="&#x171;" horiz-adv-x="616" 
d="M632 554l-99 -554h-177l-7 65q-78 -78 -175 -78q-74 0 -113.5 40.5t-39.5 104.5q0 44 9 95l58 327h218l-63 -344q-4 -22 -4 -38q0 -31 30 -31q42 0 85 77l59 336h219zM194 611l127 190l123 -82l-129 -108h-121zM389 611l128 190l123 -82l-129 -108h-122z" />
    <glyph glyph-name="Uogonek" unicode="&#x172;" horiz-adv-x="714" 
d="M58 320l69 380h228l-74 -405q-5 -28 -5 -50q0 -33 19 -52t53 -19q43 0 67.5 29.5t36.5 95.5l71 401h227l-75 -426q-35 -192 -183 -255q-66 -28 -66 -68q0 -24 31 -24q21 0 42 7l3 -4l-22 -126q-44 -12 -90 -12q-55 0 -86.5 27t-31.5 67q0 56 49 101h-16q-117 0 -187 62.5
t-70 169.5q0 39 10 101z" />
    <glyph glyph-name="uogonek" unicode="&#x173;" horiz-adv-x="616" 
d="M632 554l-99 -554q-90 -10 -90 -51q0 -22 32 -22q21 0 42 7l3 -4l-23 -126q-42 -12 -89 -12q-55 0 -86.5 27t-31.5 67q0 69 72 114h-6l-7 65q-78 -78 -175 -78q-74 0 -113.5 40.5t-39.5 104.5q0 44 9 95l58 327h218l-63 -344q-4 -22 -4 -38q0 -31 30 -31q42 0 85 77
l59 336h219z" />
    <glyph glyph-name="Wcircumflex" unicode="&#x174;" horiz-adv-x="1097" 
d="M175 0l-91 700h224l39 -370h2l167 370h201l39 -370h2l169 370h244l-338 -700h-223l-41 383h-2l-175 -383h-217zM411 755l127 156h220l72 -156h-144l-46 71h-3l-73 -71h-153z" />
    <glyph glyph-name="wcircumflex" unicode="&#x175;" horiz-adv-x="842" 
d="M244 611l140 160h243l84 -160h-157l-56 66h-5l-83 -66h-166zM122 0l-64 554h197l21 -273h2l114 273h156l20 -273h2l116 273h209l-262 -554h-179l-27 252h-2l-112 -252h-191z" />
    <glyph glyph-name="Ycircumflex" unicode="&#x176;" horiz-adv-x="714" 
d="M200 0l49 278l-176 422h242l75 -195h2l144 195h269l-326 -422l-49 -278h-230zM217 755l127 156h220l72 -156h-144l-46 71h-3l-73 -71h-153z" />
    <glyph glyph-name="ycircumflex" unicode="&#x177;" horiz-adv-x="592" 
d="M10 -24q38 -19 67 -19t45.5 10.5t27.5 38.5l3 6l-98 542h203l34 -293h2l137 293h214l-259 -506q-79 -154 -141.5 -206t-163.5 -52q-86 0 -146 37zM123 611l140 160h243l84 -160h-157l-56 66h-5l-83 -66h-166z" />
    <glyph glyph-name="Ydieresis" unicode="&#x178;" horiz-adv-x="714" 
d="M200 0l49 278l-176 422h242l75 -195h2l144 195h269l-326 -422l-49 -278h-230zM496 761l25 144h151l-26 -144h-150zM225 761l24 144h155l-26 -144h-153z" />
    <glyph glyph-name="Zacute" unicode="&#x179;" horiz-adv-x="637" 
d="M-9 0l29 162l317 339h-260l35 199h573l-28 -164l-315 -338h268l-34 -198h-585zM306 755l122 162l160 -81l-144 -81h-138z" />
    <glyph glyph-name="zacute" unicode="&#x17a;" horiz-adv-x="532" 
d="M227 611l128 190l137 -82l-127 -108h-138zM-12 0l25 137l253 263h-200l29 154h454l-25 -142l-244 -257h208l-26 -155h-474z" />
    <glyph glyph-name="Zdotaccent" unicode="&#x17b;" horiz-adv-x="637" 
d="M319 761l24 144h153l-26 -144h-151zM-9 0l29 162l317 339h-260l35 199h573l-28 -164l-315 -338h268l-34 -198h-585z" />
    <glyph glyph-name="zdotaccent" unicode="&#x17c;" horiz-adv-x="532" 
d="M-12 0l25 137l253 263h-200l29 154h454l-25 -142l-244 -257h208l-26 -155h-474zM243 619l25 145h151l-26 -145h-150z" />
    <glyph glyph-name="Zcaron" unicode="&#x17d;" horiz-adv-x="637" 
d="M289 755l-71 156h145l46 -71h2l73 71h153l-127 -156h-221zM-9 0l29 162l317 339h-260l35 199h573l-28 -164l-315 -338h268l-34 -198h-585z" />
    <glyph glyph-name="zcaron" unicode="&#x17e;" horiz-adv-x="532" 
d="M204 611l-85 160h146l67 -75h5l92 75h157l-139 -160h-243zM-12 0l25 137l253 263h-200l29 154h454l-25 -142l-244 -257h208l-26 -155h-474z" />
    <glyph glyph-name="Schwa" unicode="&#x18f;" horiz-adv-x="679" 
d="M192 471l-93 155q124 87 262 87q143 0 229 -86.5t86 -237.5q0 -182 -109 -292t-283 -110q-130 0 -202.5 59t-72.5 146q0 194 365 194h70v5q0 132 -96 132q-69 0 -156 -52zM288 168q45 0 81 29.5t56 80.5h-59q-137 0 -137 -64q0 -21 16.5 -33.5t42.5 -12.5z" />
    <glyph glyph-name="florin" unicode="&#x192;" horiz-adv-x="456" 
d="M35 16l39 215h-73l26 142h71l2 11q19 112 79.5 162t173.5 50q97 0 178 -43l-69 -129q-38 16 -75 16q-52 0 -61 -50l-3 -18h118l-25 -141h-117l-41 -232q-20 -114 -77.5 -161.5t-172.5 -47.5q-87 0 -156 36l68 137q31 -14 61 -14q24 0 36 14.5t18 52.5z" />
    <glyph glyph-name="Khook" unicode="&#x198;" horiz-adv-x="704" 
d="M5 0l124 700h227l-53 -300q49 16 90 95q29 58 56 93t68 63.5t98.5 41t140.5 13.5l-32 -183q-62 -6 -96 -37t-66 -99l108 -387h-228l-59 227q-56 -22 -117 -33l-34 -194h-227z" />
    <glyph glyph-name="khook" unicode="&#x199;" horiz-adv-x="629" 
d="M-1 0l98 551q20 117 84 165.5t214 48.5l-29 -169q-23 0 -35 -8.5t-17 -33.5l-34 -195l190 195h231l-216 -211l92 -343h-215l-43 181l-84 -82l-18 -99h-218z" />
    <glyph glyph-name="barredO" unicode="&#x19f;" horiz-adv-x="798" 
d="M46 323q0 75 26.5 144t75.5 124.5t128.5 88.5t176.5 33q147 0 243.5 -91t96.5 -245q0 -75 -26.5 -144t-75.5 -124.5t-128.5 -88.5t-176.5 -33q-147 0 -243.5 91t-96.5 245zM397 171q52 0 91 35t58 91h-269q9 -126 120 -126zM441 529q-51 0 -90 -34.5t-59 -88.5h268
q-11 123 -119 123z" />
    <glyph glyph-name="Ezh" unicode="&#x1b7;" horiz-adv-x="622" 
d="M72 295l238 206h-238l36 199h566l-29 -162l-320 -252q32 7 73 7q36 0 68.5 -10t63 -32t48.5 -64t18 -100q0 -135 -102 -216t-253 -81q-171 0 -309 94l94 152q108 -71 199 -71q64 0 97.5 29t33.5 73q0 90 -123 90q-43 0 -91 -12z" />
    <glyph glyph-name="Acaron" unicode="&#x1cd;" horiz-adv-x="705" 
d="M-45 0l354 700h249l107 -700h-230l-8 85h-182l-36 -85h-254zM394 435l-80 -188h99l-17 188h-2zM333 755l-71 156h145l46 -71h2l73 71h153l-127 -156h-221z" />
    <glyph glyph-name="acaron" unicode="&#x1ce;" 
d="M213 -10q-80 0 -131.5 57t-51.5 162q0 148 73.5 251.5t183.5 103.5q93 0 145 -59l21 49h196l-67 -377q-2 -14 -2 -19q0 -21 30 -21l-24 -141q-166 -27 -208 65q-63 -71 -165 -71zM369 202l33 190q-28 17 -54 17q-43 0 -71.5 -52.5t-28.5 -123.5q0 -83 53 -83q43 0 68 52z
M269 611l-85 160h146l67 -75h5l92 75h157l-139 -160h-243z" />
    <glyph glyph-name="Icaron" unicode="&#x1cf;" horiz-adv-x="320" 
d="M5 0l124 700h227l-124 -700h-227zM142 755l-71 156h145l46 -71h2l73 71h153l-127 -156h-221z" />
    <glyph glyph-name="icaron" unicode="&#x1d0;" horiz-adv-x="297" 
d="M96 611l-85 160h146l67 -75h5l92 75h157l-139 -160h-243zM-1 0l96 541h218l-96 -541h-218z" />
    <glyph glyph-name="Ocaron" unicode="&#x1d1;" horiz-adv-x="798" 
d="M356 755l-71 156h145l46 -71h2l73 71h153l-127 -156h-221zM46 323q0 75 26.5 144t75.5 124.5t128.5 88.5t176.5 33q147 0 243.5 -91t96.5 -245q0 -75 -26.5 -144t-75.5 -124.5t-128.5 -88.5t-176.5 -33q-147 0 -243.5 91t-96.5 245zM277 319q0 -148 120 -148
q72 0 118 64.5t46 145.5q0 148 -120 148q-72 0 -118 -64.5t-46 -145.5z" />
    <glyph glyph-name="ocaron" unicode="&#x1d2;" horiz-adv-x="631" 
d="M240 611l-85 160h146l67 -75h5l92 75h157l-139 -160h-243zM292 -13q-113 0 -186.5 69.5t-73.5 188.5q0 145 89.5 233.5t236.5 88.5q113 0 186.5 -69t73.5 -189q0 -144 -89.5 -233t-236.5 -89zM305 140q40 0 66.5 54.5t26.5 122.5q0 97 -54 97q-39 0 -65.5 -54.5
t-26.5 -122.5q0 -97 53 -97z" />
    <glyph glyph-name="Ucaron" unicode="&#x1d3;" horiz-adv-x="714" 
d="M340 755l-71 156h145l46 -71h2l73 71h153l-127 -156h-221zM58 320l69 380h228l-74 -405q-5 -28 -5 -50q0 -33 19 -52t53 -19q43 0 67.5 29.5t36.5 95.5l71 401h227l-75 -426q-26 -149 -115 -218t-245 -69q-122 0 -194.5 62.5t-72.5 169.5q0 39 10 101z" />
    <glyph glyph-name="ucaron" unicode="&#x1d4;" horiz-adv-x="616" 
d="M240 611l-85 160h146l67 -75h5l92 75h157l-139 -160h-243zM632 554l-99 -554h-177l-7 65q-78 -78 -175 -78q-74 0 -113.5 40.5t-39.5 104.5q0 44 9 95l58 327h218l-63 -344q-4 -22 -4 -38q0 -31 30 -31q42 0 85 77l59 336h219z" />
    <glyph glyph-name="Adieresismacron" unicode="&#x1de;" horiz-adv-x="705" 
d="M-45 0l354 700h249l107 -700h-230l-8 85h-182l-36 -85h-254zM394 435l-80 -188h99l-17 188h-2zM513 758l25 144h151l-26 -144h-150zM242 758l24 144h155l-26 -144h-153zM298 955l22 122h371l-21 -122h-372z" />
    <glyph glyph-name="adieresismacron" unicode="&#x1df;" 
d="M213 -10q-80 0 -131.5 57t-51.5 162q0 148 73.5 251.5t183.5 103.5q93 0 145 -59l21 49h196l-67 -377q-2 -14 -2 -19q0 -21 30 -21l-24 -141q-166 -27 -208 65q-63 -71 -165 -71zM247 848l21 121h365l-21 -121h-365zM369 202l33 190q-28 17 -54 17q-43 0 -71.5 -52.5
t-28.5 -123.5q0 -83 53 -83q43 0 68 52zM193 632l25 145h155l-26 -145h-154zM438 632l26 145h150l-25 -145h-151z" />
    <glyph glyph-name="AEmacron" unicode="&#x1e2;" horiz-adv-x="1039" 
d="M-47 0l417 700h710l-33 -191h-377l4 -69h322l-30 -171h-280l5 -78h302l-33 -191h-487l-3 85h-205l-46 -85h-266zM379 773l22 122h371l-21 -122h-372zM456 440l-99 -183h107l-6 183h-2z" />
    <glyph glyph-name="aemacron" unicode="&#x1e3;" horiz-adv-x="957" 
d="M233 -13q-96 0 -149.5 58.5t-53.5 163.5q0 151 76.5 254t200.5 103q107 0 206 -75q87 76 217 76q102 0 165 -46.5t63 -125.5q0 -81 -80.5 -126t-210.5 -45h-58v-1q1 -36 19 -50t55 -14q68 0 139 42l71 -142q-115 -72 -238 -72q-143 0 -207 107q-90 -107 -215 -107z
M357 631l21 121h365l-21 -121h-365zM299 150q20 0 39.5 14t30.5 38l4 23l3 17l26 151q-30 16 -54 16q-43 0 -71.5 -52.5t-28.5 -123.5q0 -83 51 -83zM712 421q-29 0 -55.5 -24.5t-38.5 -72.5h27q111 0 111 57q0 18 -11.5 29t-32.5 11z" />
    <glyph glyph-name="Gstroke" unicode="&#x1e4;" horiz-adv-x="740" 
d="M40 308q0 172 112 288.5t302 116.5q162 0 278 -112l-133 -130q-64 56 -147 56q-79 0 -130.5 -58.5t-51.5 -147.5q0 -67 35.5 -107.5t91.5 -40.5q47 0 78 15l14 84h-114l25 137h313l-19 -106h74l-21 -122h-75l-20 -113q-113 -81 -271 -81q-155 0 -248 91t-93 230z" />
    <glyph glyph-name="gstroke" unicode="&#x1e5;" horiz-adv-x="633" 
d="M338 24l7 40q-55 -43 -135 -43q-71 0 -124 51.5t-53 155.5q0 137 73.5 236.5t184.5 99.5q90 0 143 -53l16 43h198l-86 -486h68l-20 -119h-78q-35 -85 -107.5 -122t-193.5 -37q-59 0 -119 16.5t-101 40.5l77 151q84 -40 145 -40q95 0 105 66zM371 219l32 180
q-24 16 -54 16q-42 0 -70.5 -50t-28.5 -118q0 -41 14.5 -61t37.5 -20q19 0 38 14.5t31 38.5z" />
    <glyph glyph-name="Gcaron" unicode="&#x1e6;" horiz-adv-x="726" 
d="M373 755l-71 156h145l46 -71h2l73 71h153l-127 -156h-221zM40 308q0 172 112 288.5t302 116.5q162 0 278 -112l-133 -130q-64 56 -147 56q-79 0 -130.5 -58.5t-51.5 -147.5q0 -67 35.5 -107.5t91.5 -40.5q47 0 78 15l14 84h-114l25 137h313l-61 -341q-113 -81 -271 -81
q-155 0 -248 91t-93 230z" />
    <glyph glyph-name="gcaron" unicode="&#x1e7;" horiz-adv-x="633" 
d="M282 611l-85 160h146l67 -75h5l92 75h157l-139 -160h-243zM338 24l7 40q-55 -43 -135 -43q-71 0 -124 51.5t-53 155.5q0 137 73.5 236.5t184.5 99.5q90 0 143 -53l16 43h198l-90 -513q-24 -136 -101 -193.5t-226 -57.5q-59 0 -119 16.5t-101 40.5l77 151q84 -40 145 -40
q95 0 105 66zM371 219l32 180q-24 16 -54 16q-42 0 -70.5 -50t-28.5 -118q0 -41 14.5 -61t37.5 -20q19 0 38 14.5t31 38.5z" />
    <glyph glyph-name="Kcaron" unicode="&#x1e8;" horiz-adv-x="704" 
d="M5 0l124 700h227l-43 -245l221 245h258l-248 -255l126 -445h-228l-70 267l-113 -117l-27 -150h-227zM348 755l-71 156h145l46 -71h2l73 71h153l-127 -156h-221z" />
    <glyph glyph-name="kcaron" unicode="&#x1e9;" horiz-adv-x="629" 
d="M-1 0l133 755h218l-70 -396l190 195h231l-215 -210l91 -344h-215l-43 181l-84 -82l-18 -99h-218zM136 797l-71 156h145l46 -71h2l73 71h153l-127 -156h-221z" />
    <glyph glyph-name="Oogonek" unicode="&#x1ea;" horiz-adv-x="798" 
d="M46 323q0 75 26.5 144t75.5 124.5t128.5 88.5t176.5 33q147 0 243.5 -91t96.5 -245q0 -115 -56.5 -207t-149.5 -138q-46 -22 -66.5 -41t-20.5 -40q0 -24 32 -24q20 0 41 7l3 -4l-22 -126q-44 -12 -90 -12q-55 0 -86.5 27t-31.5 67q0 56 48 101h-8q-147 0 -243.5 91
t-96.5 245zM277 319q0 -148 120 -148q72 0 118 64.5t46 145.5q0 148 -120 148q-72 0 -118 -64.5t-46 -145.5z" />
    <glyph glyph-name="oogonek" unicode="&#x1eb;" horiz-adv-x="631" 
d="M345 -208q-54 0 -85.5 26.5t-31.5 67.5q0 55 49 102h-2q-107 5 -175 73.5t-68 183.5q0 145 89.5 233.5t236.5 88.5q113 0 186.5 -69t73.5 -189q0 -103 -46.5 -179t-128.5 -113q-28 -12 -47 -31t-19 -39q0 -23 32 -23q22 0 43 7l3 -4l-21 -123q-44 -12 -89 -12zM305 140
q40 0 66.5 54.5t26.5 122.5q0 97 -54 97q-39 0 -65.5 -54.5t-26.5 -122.5q0 -97 53 -97z" />
    <glyph glyph-name="Oogonekmacron" unicode="&#x1ec;" horiz-adv-x="798" 
d="M275 772l22 122h371l-21 -122h-372zM46 323q0 75 26.5 144t75.5 124.5t128.5 88.5t176.5 33q147 0 243.5 -91t96.5 -245q0 -115 -56.5 -207t-149.5 -138q-46 -22 -66.5 -41t-20.5 -40q0 -24 32 -24q20 0 41 7l3 -4l-22 -126q-44 -12 -90 -12q-55 0 -86.5 27t-31.5 67
q0 56 48 101h-8q-147 0 -243.5 91t-96.5 245zM277 319q0 -148 120 -148q72 0 118 64.5t46 145.5q0 148 -120 148q-72 0 -118 -64.5t-46 -145.5z" />
    <glyph glyph-name="oogonekmacron" unicode="&#x1ed;" horiz-adv-x="631" 
d="M185 631l21 121h365l-21 -121h-365zM345 -208q-54 0 -85.5 26.5t-31.5 67.5q0 55 49 102h-2q-107 5 -175 73.5t-68 183.5q0 145 89.5 233.5t236.5 88.5q113 0 186.5 -69t73.5 -189q0 -103 -46.5 -179t-128.5 -113q-28 -12 -47 -31t-19 -39q0 -23 32 -23q22 0 43 7l3 -4
l-21 -123q-44 -12 -89 -12zM305 140q40 0 66.5 54.5t26.5 122.5q0 97 -54 97q-39 0 -65.5 -54.5t-26.5 -122.5q0 -97 53 -97z" />
    <glyph glyph-name="Ezhcaron" unicode="&#x1ee;" horiz-adv-x="621" 
d="M283 755l-71 156h145l46 -71h2l73 71h153l-127 -156h-221zM72 295l238 206h-238l36 199h566l-29 -162l-320 -252q32 7 73 7q36 0 68.5 -10t63 -32t48.5 -64t18 -100q0 -135 -102 -216t-253 -81q-171 0 -309 94l94 152q108 -71 199 -71q64 0 97.5 29t33.5 73q0 90 -123 90
q-43 0 -91 -12z" />
    <glyph glyph-name="ezhcaron" unicode="&#x1ef;" horiz-adv-x="550" 
d="M156 614l-85 160h146l67 -75h5l92 75h157l-139 -160h-243zM78 224l193 176h-215l28 154h465l-24 -132l-234 -196q20 4 47 4q68 0 114.5 -47t46.5 -132q0 -127 -90 -194t-228 -67q-69 0 -140 21t-123 57l88 137q94 -51 169 -51q50 0 79.5 25.5t29.5 62.5q0 70 -93 70
q-28 0 -61 -7z" />
    <glyph glyph-name="jcaron" unicode="&#x1f0;" horiz-adv-x="307" 
d="M13 33l90 508h219l-93 -520q-22 -127 -81.5 -179t-173.5 -52q-82 0 -148 46l70 140q35 -19 64 -19q25 0 35.5 17.5t17.5 58.5zM99 611l-85 160h146l67 -75h5l92 75h157l-139 -160h-243z" />
    <glyph glyph-name="Gacute" unicode="&#x1f4;" horiz-adv-x="726" 
d="M386 755l122 162l160 -81l-144 -81h-138zM40 308q0 172 112 288.5t302 116.5q162 0 278 -112l-133 -130q-64 56 -147 56q-79 0 -130.5 -58.5t-51.5 -147.5q0 -67 35.5 -107.5t91.5 -40.5q47 0 78 15l14 84h-114l25 137h313l-61 -341q-113 -81 -271 -81q-155 0 -248 91
t-93 230z" />
    <glyph glyph-name="gacute" unicode="&#x1f5;" horiz-adv-x="633" 
d="M262 611l128 190l137 -82l-127 -108h-138zM338 24l7 40q-55 -43 -135 -43q-71 0 -124 51.5t-53 155.5q0 137 73.5 236.5t184.5 99.5q90 0 143 -53l16 43h198l-90 -513q-24 -136 -101 -193.5t-226 -57.5q-59 0 -119 16.5t-101 40.5l77 151q84 -40 145 -40q95 0 105 66z
M371 219l32 180q-24 16 -54 16q-42 0 -70.5 -50t-28.5 -118q0 -41 14.5 -61t37.5 -20q19 0 38 14.5t31 38.5z" />
    <glyph glyph-name="Aringacute" unicode="&#x1fa;" horiz-adv-x="705" 
d="M305 753q0 59 43.5 100.5t108.5 41.5q51 0 83.5 -33.5t32.5 -81.5q0 -45 -26 -80h11l107 -700h-230l-8 85h-182l-36 -85h-254l354 700h8q-12 24 -12 53zM357 915l122 162l160 -81l-144 -81h-138zM372 754q0 -24 15 -39t40 -15h3q32 1 54 25t22 53q0 24 -15 39t-40 15
q-33 0 -56 -24t-23 -54zM394 435l-80 -188h99l-17 188h-2z" />
    <glyph glyph-name="aringacute" unicode="&#x1fb;" 
d="M213 -10q-80 0 -131.5 57t-51.5 162q0 148 73.5 251.5t183.5 103.5q93 0 145 -59l21 49h196l-67 -377q-2 -14 -2 -19q0 -21 30 -21l-24 -141q-166 -27 -208 65q-63 -71 -165 -71zM369 202l33 190q-28 17 -54 17q-43 0 -71.5 -52.5t-28.5 -123.5q0 -83 53 -83q43 0 68 52z
M330 889l128 190l137 -82l-127 -108h-138zM258 715q0 59 43.5 100.5t108.5 41.5q51 0 83.5 -33.5t32.5 -81.5q0 -59 -43.5 -100.5t-108.5 -41.5q-51 0 -83.5 33.5t-32.5 81.5zM325 716q0 -24 15 -39t40 -15q33 0 56 24t23 54q0 24 -15 39t-40 15q-33 0 -56 -24t-23 -54z" />
    <glyph glyph-name="AEacute" unicode="&#x1fc;" horiz-adv-x="1039" 
d="M473 0l-3 85h-205l-46 -85h-266l417 700h710l-33 -191h-377l4 -69h322l-30 -171h-280l5 -78h302l-33 -191h-487zM441 755l122 162l160 -81l-144 -81h-138zM456 440l-99 -183h107l-6 183h-2z" />
    <glyph glyph-name="aeacute" unicode="&#x1fd;" horiz-adv-x="957" 
d="M233 -13q-96 0 -149.5 58.5t-53.5 163.5q0 151 76.5 254t200.5 103q107 0 206 -75q87 76 217 76q102 0 165 -46.5t63 -125.5q0 -81 -80.5 -126t-210.5 -45h-58v-1q1 -36 19 -50t55 -14q68 0 139 42l71 -142q-115 -72 -238 -72q-143 0 -207 107q-90 -107 -215 -107z
M299 150q20 0 39.5 14t30.5 38l4 23l3 17l26 151q-30 16 -54 16q-43 0 -71.5 -52.5t-28.5 -123.5q0 -83 51 -83zM433 611l128 190l137 -82l-127 -108h-138zM712 421q-29 0 -55.5 -24.5t-38.5 -72.5h27q111 0 111 57q0 18 -11.5 29t-32.5 11z" />
    <glyph glyph-name="Oslashacute" unicode="&#x1fe;" horiz-adv-x="798" 
d="M46 323q0 75 26.5 144t75.5 124.5t128.5 88.5t176.5 33q115 0 202 -59l87 89l68 -66l-86 -86q69 -86 69 -214q0 -75 -26.5 -144t-75.5 -124.5t-128.5 -88.5t-176.5 -33q-121 0 -208 61l-89 -88l-66 64l89 88q-66 85 -66 211zM561 381q0 30 -6 54l-237 -237q28 -27 79 -27
q72 0 118 64.5t46 145.5zM277 319q0 -29 4 -48l235 235q-29 23 -75 23q-72 0 -118 -64.5t-46 -145.5zM382 755l122 162l160 -81l-144 -81h-138z" />
    <glyph glyph-name="oslashacute" unicode="&#x1ff;" horiz-adv-x="631" 
d="M292 -13q-81 0 -144 37l-71 -79l-67 59l74 77q-52 66 -52 164q0 145 89.5 233.5t236.5 88.5q83 0 145 -38l74 81l65 -63l-74 -77q50 -66 50 -161q0 -144 -89.5 -233t-236.5 -89zM244 611l128 190l137 -82l-127 -108h-138zM344 414q-37 0 -63.5 -50.5t-28.5 -115.5
l133 141q-13 25 -41 25zM305 140q37 0 63 49t29 114l-131 -141q13 -22 39 -22z" />
    <glyph glyph-name="Adoublegrave" unicode="&#x200;" horiz-adv-x="705" 
d="M-45 0l354 700h249l107 -700h-230l-8 85h-182l-36 -85h-254zM394 435l-80 -188h99l-17 188h-2zM396 755h-150l-106 81l182 81zM636 755h-150l-106 81l180 81z" />
    <glyph glyph-name="adoublegrave" unicode="&#x201;" 
d="M213 -10q-80 0 -131.5 57t-51.5 162q0 148 73.5 251.5t183.5 103.5q93 0 145 -59l21 49h196l-67 -377q-2 -14 -2 -19q0 -21 30 -21l-24 -141q-166 -27 -208 65q-63 -71 -165 -71zM369 202l33 190q-28 17 -54 17q-43 0 -71.5 -52.5t-28.5 -123.5q0 -83 53 -83q43 0 68 52z
M485 801l60 -190h-119l-89 108zM298 801l60 -190h-118l-90 108z" />
    <glyph glyph-name="Ainvertedbreve" unicode="&#x202;" horiz-adv-x="705" 
d="M-45 0l354 700h249l107 -700h-230l-8 85h-182l-36 -85h-254zM455 915q79 0 120.5 -43.5t35.5 -116.5h-122q2 24 -10.5 38t-36.5 14q-52 0 -67 -52h-131q18 75 71.5 117.5t139.5 42.5zM394 435l-80 -188h99l-17 188h-2z" />
    <glyph glyph-name="ainvertedbreve" unicode="&#x203;" 
d="M213 -10q-80 0 -131.5 57t-51.5 162q0 148 73.5 251.5t183.5 103.5q93 0 145 -59l21 49h196l-67 -377q-2 -14 -2 -19q0 -21 30 -21l-24 -141q-166 -27 -208 65q-63 -71 -165 -71zM369 202l33 190q-28 17 -54 17q-43 0 -71.5 -52.5t-28.5 -123.5q0 -83 53 -83q43 0 68 52z
M412 784q75 0 116 -48.5t35 -124.5h-120q-4 51 -43 51t-58 -51h-132q18 80 69.5 126.5t132.5 46.5z" />
    <glyph glyph-name="Edoublegrave" unicode="&#x204;" horiz-adv-x="618" 
d="M376 755h-150l-106 81l182 81zM616 755h-150l-106 81l180 81zM8 0l124 700h530l-34 -191h-303l-14 -73h266l-30 -163h-265l-15 -82h308l-34 -191h-533z" />
    <glyph glyph-name="edoublegrave" unicode="&#x205;" horiz-adv-x="603" 
d="M33 234q0 150 101 241.5t242 91.5q102 0 165 -46.5t63 -125.5q0 -81 -80.5 -126t-210.5 -45h-60q3 -36 21 -50.5t55 -14.5q68 0 139 42l71 -142q-117 -72 -238 -72q-120 0 -194 67t-74 180zM482 801l60 -190h-119l-89 108zM295 801l60 -190h-118l-90 108zM358 421
q-34 0 -58.5 -26t-36.5 -71h28q111 0 111 57q0 18 -11.5 29t-32.5 11z" />
    <glyph glyph-name="Einvertedbreve" unicode="&#x206;" horiz-adv-x="618" 
d="M5 0l124 700h530l-34 -191h-303l-14 -73h266l-30 -163h-265l-15 -82h308l-34 -191h-533zM432 915q79 0 120.5 -43.5t35.5 -116.5h-122q2 24 -10.5 38t-36.5 14q-52 0 -67 -52h-131q18 75 71.5 117.5t139.5 42.5z" />
    <glyph glyph-name="einvertedbreve" unicode="&#x207;" horiz-adv-x="603" 
d="M33 234q0 150 101 241.5t242 91.5q102 0 165 -46.5t63 -125.5q0 -81 -80.5 -126t-210.5 -45h-60q3 -36 21 -50.5t55 -14.5q68 0 139 42l71 -142q-117 -72 -238 -72q-120 0 -194 67t-74 180zM397 784q75 0 116 -48.5t35 -124.5h-120q-4 51 -43 51t-58 -51h-132
q18 80 69.5 126.5t132.5 46.5zM358 421q-34 0 -58.5 -26t-36.5 -71h28q111 0 111 57q0 18 -11.5 29t-32.5 11z" />
    <glyph glyph-name="Idoublegrave" unicode="&#x208;" horiz-adv-x="320" 
d="M5 0l124 700h227l-124 -700h-227zM216 755h-150l-106 81l182 81zM456 755h-150l-106 81l180 81z" />
    <glyph glyph-name="idoublegrave" unicode="&#x209;" horiz-adv-x="297" 
d="M-1 0l96 541h218l-96 -541h-218zM129 801l60 -190h-118l-90 108zM316 801l60 -190h-119l-89 108z" />
    <glyph glyph-name="Iinvertedbreve" unicode="&#x20a;" horiz-adv-x="320" 
d="M5 0l124 700h227l-124 -700h-227zM276 915q79 0 120.5 -43.5t35.5 -116.5h-122q2 24 -10.5 38t-36.5 14q-52 0 -67 -52h-131q18 75 71.5 117.5t139.5 42.5z" />
    <glyph glyph-name="iinvertedbreve" unicode="&#x20b;" horiz-adv-x="297" 
d="M239 784q75 0 116 -48.5t35 -124.5h-120q-4 51 -43 51t-58 -51h-132q18 80 69.5 126.5t132.5 46.5zM-1 0l96 541h218l-96 -541h-218z" />
    <glyph glyph-name="Odoublegrave" unicode="&#x20c;" horiz-adv-x="798" 
d="M424 755h-150l-106 81l182 81zM664 755h-150l-106 81l180 81zM46 323q0 75 26.5 144t75.5 124.5t128.5 88.5t176.5 33q147 0 243.5 -91t96.5 -245q0 -75 -26.5 -144t-75.5 -124.5t-128.5 -88.5t-176.5 -33q-147 0 -243.5 91t-96.5 245zM277 319q0 -148 120 -148
q72 0 118 64.5t46 145.5q0 148 -120 148q-72 0 -118 -64.5t-46 -145.5z" />
    <glyph glyph-name="odoublegrave" unicode="&#x20d;" horiz-adv-x="631" 
d="M285 801l60 -190h-118l-90 108zM472 801l60 -190h-119l-89 108zM292 -13q-113 0 -186.5 69.5t-73.5 188.5q0 145 89.5 233.5t236.5 88.5q113 0 186.5 -69t73.5 -189q0 -144 -89.5 -233t-236.5 -89zM305 140q40 0 66.5 54.5t26.5 122.5q0 97 -54 97q-39 0 -65.5 -54.5
t-26.5 -122.5q0 -97 53 -97z" />
    <glyph glyph-name="Oinvertedbreve" unicode="&#x20e;" horiz-adv-x="798" 
d="M484 915q79 0 120.5 -43.5t35.5 -116.5h-122q2 24 -10.5 38t-36.5 14q-52 0 -67 -52h-131q18 75 71.5 117.5t139.5 42.5zM46 323q0 75 26.5 144t75.5 124.5t128.5 88.5t176.5 33q147 0 243.5 -91t96.5 -245q0 -75 -26.5 -144t-75.5 -124.5t-128.5 -88.5t-176.5 -33
q-147 0 -243.5 91t-96.5 245zM277 319q0 -148 120 -148q72 0 118 64.5t46 145.5q0 148 -120 148q-72 0 -118 -64.5t-46 -145.5z" />
    <glyph glyph-name="oinvertedbreve" unicode="&#x20f;" horiz-adv-x="631" 
d="M385 784q75 0 116 -48.5t35 -124.5h-120q-4 51 -43 51t-58 -51h-132q18 80 69.5 126.5t132.5 46.5zM292 -13q-113 0 -186.5 69.5t-73.5 188.5q0 145 89.5 233.5t236.5 88.5q113 0 186.5 -69t73.5 -189q0 -144 -89.5 -233t-236.5 -89zM305 140q40 0 66.5 54.5t26.5 122.5
q0 97 -54 97q-39 0 -65.5 -54.5t-26.5 -122.5q0 -97 53 -97z" />
    <glyph glyph-name="Rdoublegrave" unicode="&#x210;" horiz-adv-x="693" 
d="M5 0l124 700h300q128 0 201 -59t73 -161q0 -156 -148 -212l58 -268h-214l-39 239h-85l-43 -239h-227zM402 755h-150l-106 81l182 81zM642 755h-150l-106 81l180 81zM302 392h83q37 0 61 20t24 59q0 30 -17.5 44.5t-44.5 14.5h-82z" />
    <glyph glyph-name="rdoublegrave" unicode="&#x211;" horiz-adv-x="466" 
d="M-2 0l100 554h183l8 -76q62 94 163 94q43 0 67 -8l-56 -192q-31 11 -69 11q-70 0 -129 -107l-49 -276h-218zM240 801l60 -190h-118l-90 108zM427 801l60 -190h-119l-89 108z" />
    <glyph glyph-name="Rinvertedbreve" unicode="&#x212;" horiz-adv-x="693" 
d="M5 0l124 700h300q128 0 201 -59t73 -161q0 -156 -148 -212l58 -268h-214l-39 239h-85l-43 -239h-227zM446 915q79 0 120.5 -43.5t35.5 -116.5h-122q2 24 -10.5 38t-36.5 14q-52 0 -67 -52h-131q18 75 71.5 117.5t139.5 42.5zM302 392h83q37 0 61 20t24 59
q0 30 -17.5 44.5t-44.5 14.5h-82z" />
    <glyph glyph-name="rinvertedbreve" unicode="&#x213;" horiz-adv-x="466" 
d="M336 784q75 0 116 -48.5t35 -124.5h-120q-4 51 -43 51t-58 -51h-132q18 80 69.5 126.5t132.5 46.5zM-2 0l100 554h183l8 -76q62 94 163 94q43 0 67 -8l-56 -192q-31 11 -69 11q-70 0 -129 -107l-49 -276h-218z" />
    <glyph glyph-name="Udoublegrave" unicode="&#x214;" horiz-adv-x="714" 
d="M424 755h-150l-106 81l182 81zM664 755h-150l-106 81l180 81zM58 320l69 380h228l-74 -405q-5 -28 -5 -50q0 -33 19 -52t53 -19q43 0 67.5 29.5t36.5 95.5l71 401h227l-75 -426q-26 -149 -115 -218t-245 -69q-122 0 -194.5 62.5t-72.5 169.5q0 39 10 101z" />
    <glyph glyph-name="udoublegrave" unicode="&#x215;" horiz-adv-x="616" 
d="M632 554l-99 -554h-177l-7 65q-78 -78 -175 -78q-74 0 -113.5 40.5t-39.5 104.5q0 44 9 95l58 327h218l-63 -344q-4 -22 -4 -38q0 -31 30 -31q42 0 85 77l59 336h219zM283 801l60 -190h-118l-90 108zM470 801l60 -190h-119l-89 108z" />
    <glyph glyph-name="Uinvertedbreve" unicode="&#x216;" horiz-adv-x="714" 
d="M58 320l69 380h228l-74 -405q-5 -28 -5 -50q0 -33 19 -52t53 -19q43 0 67.5 29.5t36.5 95.5l71 401h227l-75 -426q-26 -149 -115 -218t-245 -69q-122 0 -194.5 62.5t-72.5 169.5q0 39 10 101zM475 915q79 0 120.5 -43.5t35.5 -116.5h-122q2 24 -10.5 38t-36.5 14
q-52 0 -67 -52h-131q18 75 71.5 117.5t139.5 42.5z" />
    <glyph glyph-name="uinvertedbreve" unicode="&#x217;" horiz-adv-x="616" 
d="M388 784q75 0 116 -48.5t35 -124.5h-120q-4 51 -43 51t-58 -51h-132q18 80 69.5 126.5t132.5 46.5zM632 554l-99 -554h-177l-7 65q-78 -78 -175 -78q-74 0 -113.5 40.5t-39.5 104.5q0 44 9 95l58 327h218l-63 -344q-4 -22 -4 -38q0 -31 30 -31q42 0 85 77l59 336h219z
" />
    <glyph glyph-name="Scommaaccent" unicode="&#x218;" horiz-adv-x="624" 
d="M-4 87l121 155q92 -62 182 -62q25 0 41 8.5t16 23.5q0 8 -5 14.5t-16.5 12.5t-21.5 9.5t-29.5 10l-31.5 10.5q-32 11 -52 20t-46.5 26t-42 37t-27 52t-11.5 71q0 103 78 170.5t212 67.5q146 0 271 -77l-100 -162q-86 47 -169 47q-52 0 -52 -32q0 -5 2.5 -10t8 -9
t11.5 -7.5t16 -7t17.5 -6t20.5 -7t21 -7.5q36 -13 52.5 -19.5t47 -24t45.5 -36.5t27.5 -51.5t12.5 -73.5q0 -108 -78 -175.5t-226 -67.5q-79 0 -161 29.5t-134 70.5zM169 -55q41 12 87 12q52 0 76.5 -21t24.5 -53q0 -49 -60 -115h-139q34 50 34 69t-19 19q-12 0 -20 -4z" />
    <glyph glyph-name="scommaaccent" unicode="&#x219;" horiz-adv-x="519" 
d="M91 -55q41 12 87 12q52 0 76.5 -21t24.5 -53q0 -49 -60 -115h-139q34 50 34 69t-19 19q-12 0 -20 -4zM-13 60l89 133q90 -49 156 -49q45 0 45 24q0 21 -64 39q-9 3 -13 4q-153 44 -153 165q0 90 71 140.5t173 50.5q127 0 234 -66l-88 -126q-72 38 -132 38q-41 0 -41 -24
q0 -21 49 -34q3 0 34 -8q71 -18 107.5 -52.5t36.5 -100.5q0 -97 -75 -152t-184 -55q-143 0 -245 73z" />
    <glyph glyph-name="Tcommaaccent" unicode="&#x21a;" horiz-adv-x="660" 
d="M182 0l89 504h-206l34 196h624l-34 -196h-192l-89 -504h-226zM173 -55q41 12 87 12q52 0 76.5 -21t24.5 -53q0 -49 -60 -115h-139q34 50 34 69t-19 19q-12 0 -20 -4z" />
    <glyph glyph-name="tcommaaccent" unicode="&#x21b;" horiz-adv-x="471" 
d="M122 -55q41 12 87 12q52 0 76.5 -21t24.5 -53q0 -49 -60 -115h-139q34 50 34 69t-19 19q-12 0 -20 -4zM78 222l34 191h-74l26 141h74l21 117h218l-21 -117h143l-26 -141h-143l-36 -202q-3 -9 -3 -23q0 -30 30 -30q32 0 63 23l60 -134q-91 -60 -205 -60q-74 0 -122 41.5
t-48 111.5q0 21 9 82z" />
    <glyph glyph-name="Hcaron" unicode="&#x21e;" horiz-adv-x="710" 
d="M5 0l124 700h227l-44 -252h163l44 252h227l-123 -700h-228l47 260h-163l-47 -260h-227zM336 755l-71 156h145l46 -71h2l73 71h153l-127 -156h-221z" />
    <glyph glyph-name="hcaron" unicode="&#x21f;" horiz-adv-x="619" 
d="M-1 0l134 755h218l-45 -254q74 66 156 66q71 0 110 -38.5t39 -105.5q0 -38 -10 -96l-58 -327h-218l59 335q4 28 4 43q0 29 -29 29q-43 0 -81 -64l-61 -343h-218zM143 797l-71 156h145l46 -71h2l73 71h153l-127 -156h-221z" />
    <glyph glyph-name="Adotabove" unicode="&#x226;" horiz-adv-x="705" 
d="M-45 0l354 700h249l107 -700h-230l-8 85h-182l-36 -85h-254zM394 435l-80 -188h99l-17 188h-2zM363 761l24 144h153l-26 -144h-151z" />
    <glyph glyph-name="adotabove" unicode="&#x227;" 
d="M213 -10q-80 0 -131.5 57t-51.5 162q0 148 73.5 251.5t183.5 103.5q93 0 145 -59l21 49h196l-67 -377q-2 -14 -2 -19q0 -21 30 -21l-24 -141q-166 -27 -208 65q-63 -71 -165 -71zM369 202l33 190q-28 17 -54 17q-43 0 -71.5 -52.5t-28.5 -123.5q0 -83 53 -83q43 0 68 52z
M290 619l25 145h151l-26 -145h-150z" />
    <glyph glyph-name="Otildemacron" unicode="&#x22c;" horiz-adv-x="798" 
d="M270 756q2 83 41.5 125t108.5 42q37 0 80.5 -24t60.5 -24q38 0 40 34h112q-2 -84 -41.5 -126.5t-107.5 -42.5q-37 0 -81 24t-62 24q-35 0 -38 -32h-113zM323 956l22 122h371l-21 -122h-372zM46 323q0 75 26.5 144t75.5 124.5t128.5 88.5t176.5 33q147 0 243.5 -91
t96.5 -245q0 -75 -26.5 -144t-75.5 -124.5t-128.5 -88.5t-176.5 -33q-147 0 -243.5 91t-96.5 245zM277 319q0 -148 120 -148q72 0 118 64.5t46 145.5q0 148 -120 148q-72 0 -118 -64.5t-46 -145.5z" />
    <glyph glyph-name="otildemacron" unicode="&#x22d;" horiz-adv-x="631" 
d="M227 811l21 121h365l-21 -121h-365zM292 -13q-113 0 -186.5 69.5t-73.5 188.5q0 145 89.5 233.5t236.5 88.5q113 0 186.5 -69t73.5 -189q0 -144 -89.5 -233t-236.5 -89zM305 140q40 0 66.5 54.5t26.5 122.5q0 97 -54 97q-39 0 -65.5 -54.5t-26.5 -122.5q0 -97 53 -97z
M169 607q4 86 43 129.5t107 43.5q36 0 77.5 -24.5t60.5 -24.5q34 0 37 39h112q-4 -86 -42.5 -129.5t-106.5 -43.5q-35 0 -76.5 24t-60.5 24q-34 0 -39 -38h-112z" />
    <glyph glyph-name="Odotabove" unicode="&#x22e;" horiz-adv-x="798" 
d="M393 761l24 144h153l-26 -144h-151zM46 323q0 75 26.5 144t75.5 124.5t128.5 88.5t176.5 33q147 0 243.5 -91t96.5 -245q0 -75 -26.5 -144t-75.5 -124.5t-128.5 -88.5t-176.5 -33q-147 0 -243.5 91t-96.5 245zM277 319q0 -148 120 -148q72 0 118 64.5t46 145.5
q0 148 -120 148q-72 0 -118 -64.5t-46 -145.5z" />
    <glyph glyph-name="odotabove" unicode="&#x22f;" horiz-adv-x="631" 
d="M292 -13q-113 0 -186.5 69.5t-73.5 188.5q0 145 89.5 233.5t236.5 88.5q113 0 186.5 -69t73.5 -189q0 -144 -89.5 -233t-236.5 -89zM305 140q40 0 66.5 54.5t26.5 122.5q0 97 -54 97q-39 0 -65.5 -54.5t-26.5 -122.5q0 -97 53 -97zM298 619l25 145h151l-26 -145h-150z
" />
    <glyph glyph-name="Odotabovemacron" unicode="&#x230;" horiz-adv-x="798" 
d="M397 761l24 144h153l-26 -144h-151zM323 956l22 122h371l-21 -122h-372zM46 323q0 75 26.5 144t75.5 124.5t128.5 88.5t176.5 33q147 0 243.5 -91t96.5 -245q0 -75 -26.5 -144t-75.5 -124.5t-128.5 -88.5t-176.5 -33q-147 0 -243.5 91t-96.5 245zM277 319
q0 -148 120 -148q72 0 118 64.5t46 145.5q0 148 -120 148q-72 0 -118 -64.5t-46 -145.5z" />
    <glyph glyph-name="odotabovemacron" unicode="&#x231;" horiz-adv-x="631" 
d="M227 811l21 121h365l-21 -121h-365zM292 -13q-113 0 -186.5 69.5t-73.5 188.5q0 145 89.5 233.5t236.5 88.5q113 0 186.5 -69t73.5 -189q0 -144 -89.5 -233t-236.5 -89zM305 140q40 0 66.5 54.5t26.5 122.5q0 97 -54 97q-39 0 -65.5 -54.5t-26.5 -122.5q0 -97 53 -97z
M298 618l25 145h151l-26 -145h-150z" />
    <glyph glyph-name="dotlessj" unicode="&#x237;" horiz-adv-x="307" 
d="M13 33l90 508h219l-93 -520q-22 -127 -81.5 -179t-173.5 -52q-82 0 -148 46l70 140q35 -19 64 -19q25 0 35.5 17.5t17.5 58.5z" />
    <glyph glyph-name="schwa" unicode="&#x259;" horiz-adv-x="603" 
d="M592 320q0 -100 -49 -177.5t-126.5 -116.5t-168.5 -39q-101 0 -164.5 46.5t-63.5 125.5q0 81 80.5 126t210.5 45h60q-3 36 -21.5 51t-54.5 15q-65 0 -138 -43l-71 142q112 72 238 72q120 0 194 -67t74 -180zM267 133q33 0 57.5 26t36.5 71h-28q-110 0 -110 -57
q0 -17 12 -28.5t32 -11.5z" />
    <glyph glyph-name="barredo" unicode="&#x275;" horiz-adv-x="631" 
d="M292 -13q-113 0 -186.5 69.5t-73.5 188.5q0 145 89.5 233.5t236.5 88.5q113 0 186.5 -69t73.5 -189q0 -144 -89.5 -233t-236.5 -89zM305 140q27 0 48.5 27t33.5 71h-135v-1q0 -97 53 -97zM344 414q-27 0 -48 -26.5t-33 -68.5h135q-1 95 -54 95z" />
    <glyph glyph-name="ezh" unicode="&#x292;" horiz-adv-x="550" 
d="M78 224l193 176h-215l28 154h465l-24 -132l-234 -196q20 4 47 4q68 0 114.5 -47t46.5 -132q0 -127 -90 -194t-228 -67q-69 0 -140 21t-123 57l88 137q94 -51 169 -51q50 0 79.5 25.5t29.5 62.5q0 70 -93 70q-28 0 -61 -7z" />
    <glyph glyph-name="circumflex" unicode="&#x2c6;" horiz-adv-x="576" 
d="M147 611l140 160h243l84 -160h-157l-56 66h-5l-83 -66h-166z" />
    <glyph glyph-name="caron" unicode="&#x2c7;" horiz-adv-x="576" 
d="M261 611l-85 160h146l67 -75h5l92 75h157l-139 -160h-243z" />
    <glyph glyph-name="breve" unicode="&#x2d8;" horiz-adv-x="543" 
d="M363 598q-75 0 -116.5 48.5t-35.5 124.5h120q4 -51 43 -51t58 51h132q-18 -80 -69 -126.5t-132 -46.5z" />
    <glyph glyph-name="dotaccent" unicode="&#x2d9;" horiz-adv-x="482" 
d="M239 619l25 145h151l-26 -145h-150z" />
    <glyph glyph-name="ring" unicode="&#x2da;" horiz-adv-x="514" 
d="M227 720q0 59 43.5 100.5t108.5 41.5q51 0 83.5 -33.5t32.5 -81.5q0 -59 -43.5 -100.5t-108.5 -41.5q-51 0 -83.5 33.5t-32.5 81.5zM294 721q0 -24 15 -39t40 -15q33 0 56 24t23 54q0 24 -15 39t-40 15q-33 0 -56 -24t-23 -54z" />
    <glyph glyph-name="ogonek" unicode="&#x2db;" horiz-adv-x="516" 
d="M288 -70l-22 -126q-44 -12 -90 -12q-55 0 -86.5 27t-31.5 67q0 36 20 67.5t54.5 53.5t69 37t73.5 26l24 -42q-87 -44 -87 -79q0 -22 31 -22q21 0 42 7z" />
    <glyph glyph-name="tilde" unicode="&#x2dc;" horiz-adv-x="561" 
d="M157 610q4 86 43 129.5t107 43.5q36 0 77.5 -24.5t60.5 -24.5q34 0 37 39h112q-4 -86 -42.5 -129.5t-106.5 -43.5q-35 0 -76.5 24t-60.5 24q-34 0 -39 -38h-112z" />
    <glyph glyph-name="hungarumlaut" unicode="&#x2dd;" horiz-adv-x="578" 
d="M165 611l127 190l123 -82l-129 -108h-121zM360 611l128 190l123 -82l-129 -108h-122z" />
    <glyph glyph-name="doublegrave" unicode="&#x30f;" horiz-adv-x="578" 
d="M333 801l60 -190h-118l-90 108zM520 801l60 -190h-119l-89 108z" />
    <glyph glyph-name="invertedbreve" unicode="&#x311;" horiz-adv-x="544" 
d="M385 784q75 0 116 -48.5t35 -124.5h-120q-4 51 -43 51t-58 -51h-132q18 80 69.5 126.5t132.5 46.5z" />
    <glyph glyph-name="commaabovecmb" unicode="&#x313;" horiz-adv-x="496" 
d="M426 709l-16 -93q-41 -12 -86 -12q-53 0 -77.5 21t-24.5 53q0 51 60 117h139q-34 -52 -34 -70q0 -20 19 -20q12 0 20 4z" />
    <glyph glyph-name="uni0323" unicode="&#x323;" horiz-adv-x="482" 
d="M90 -200l26 144h149l-25 -144h-150z" />
    <glyph glyph-name="uni0329" unicode="&#x329;" horiz-adv-x="482" 
d="M88 -212l31 175h149l-31 -175h-149z" />
    <glyph glyph-name="pi" unicode="&#x3c0;" horiz-adv-x="858" 
d="M849 421h-128l-31 -175q-8 -44 8 -62t65 -18l-32 -171q-86 0 -144.5 20t-84.5 54.5t-35 80t3 97.5l30 174h-84l-73 -421h-223l74 421h-125l29 163h780z" />
    <glyph glyph-name="Ddotbelow" unicode="&#x1e0c;" horiz-adv-x="725" 
d="M5 0l124 700h249q162 0 253 -76.5t91 -230.5q0 -178 -116.5 -285.5t-342.5 -107.5h-258zM262 174h56q77 0 125 65t48 154q0 133 -113 133h-53zM196 -200l25 144h151l-25 -144h-151z" />
    <glyph glyph-name="ddotbelow" unicode="&#x1e0d;" horiz-adv-x="630" 
d="M208 -10q-75 0 -126.5 59.5t-51.5 161.5q0 147 74 250t179 103q92 0 139 -51l43 242h218l-133 -755h-183l-3 62q-60 -72 -156 -72zM299 147q19 0 38 15t31 40l33 190q-26 17 -54 17q-43 0 -71.5 -52.5t-28.5 -123.5q0 -43 14.5 -64.5t37.5 -21.5zM170 -200l26 144h149
l-25 -144h-150z" />
    <glyph glyph-name="Dcedilla" unicode="&#x1e10;" horiz-adv-x="725" 
d="M238 -38h138q-39 -112 -132 -190l-132 68q31 24 46.5 36.5t40 37.5t39.5 48zM5 0l124 700h249q162 0 253 -76.5t91 -230.5q0 -178 -116.5 -285.5t-342.5 -107.5h-258zM262 174h56q77 0 125 65t48 154q0 133 -113 133h-53z" />
    <glyph glyph-name="dcedilla" unicode="&#x1e11;" horiz-adv-x="630" 
d="M208 -10q-75 0 -126.5 59.5t-51.5 161.5q0 147 74 250t179 103q92 0 139 -51l43 242h218l-133 -755h-183l-3 62q-60 -72 -156 -72zM299 147q19 0 38 15t31 40l33 190q-26 17 -54 17q-43 0 -71.5 -52.5t-28.5 -123.5q0 -43 14.5 -64.5t37.5 -21.5zM210 -38h138
q-39 -112 -132 -190l-132 68q31 24 46.5 36.5t40 37.5t39.5 48z" />
    <glyph glyph-name="Hdotbelow" unicode="&#x1e24;" horiz-adv-x="710" 
d="M5 0l124 700h227l-44 -252h163l44 252h227l-123 -700h-228l47 260h-163l-47 -260h-227zM204 -200l25 144h151l-25 -144h-151z" />
    <glyph glyph-name="hdotbelow" unicode="&#x1e25;" horiz-adv-x="619" 
d="M-1 0l134 755h218l-45 -254q74 66 156 66q71 0 110 -38.5t39 -105.5q0 -38 -10 -96l-58 -327h-218l59 335q4 28 4 43q0 29 -29 29q-43 0 -81 -64l-61 -343h-218zM159 -200l26 144h149l-25 -144h-150z" />
    <glyph glyph-name="Ldotbelow" unicode="&#x1e36;" horiz-adv-x="577" 
d="M5 0l124 700h227l-90 -510h281l-34 -190h-508zM153 -200l25 144h151l-25 -144h-151z" />
    <glyph glyph-name="ldotbelow" unicode="&#x1e37;" horiz-adv-x="297" 
d="M-7 -200l26 144h149l-25 -144h-150zM-1 0l133 755h218l-133 -755h-218z" />
    <glyph glyph-name="Ldotbelowmacron" unicode="&#x1e38;" horiz-adv-x="577" 
d="M70 772l22 122h371l-21 -122h-372zM5 0l124 700h227l-90 -510h281l-34 -190h-508zM153 -200l25 144h151l-25 -144h-151z" />
    <glyph glyph-name="ldotbelowmacron" unicode="&#x1e39;" horiz-adv-x="297" 
d="M63 814l22 122h371l-21 -122h-372zM-7 -200l26 144h149l-25 -144h-150zM-1 0l133 755h218l-133 -755h-218z" />
    <glyph glyph-name="Mdotbelow" unicode="&#x1e42;" horiz-adv-x="854" 
d="M5 0l124 700h208l120 -231l192 231h241l-123 -700h-212l70 393l-211 -235l-127 235l-69 -393h-213zM284 -200l25 144h151l-25 -144h-151z" />
    <glyph glyph-name="mdotbelow" unicode="&#x1e43;" horiz-adv-x="912" 
d="M274 351l-62 -351h-213l98 554h183l4 -65q80 78 173 78q107 0 130 -87q86 87 181 87q60 0 97.5 -35.5t37.5 -96.5q0 -38 -14 -118l-56 -317h-208l59 335q5 25 5 40q0 31 -29 31q-38 0 -76 -54l-64 -352h-206l60 335q5 25 5 40q0 31 -29 31q-39 0 -76 -55zM302 -200
l26 144h149l-25 -144h-150z" />
    <glyph glyph-name="Ndotaccent" unicode="&#x1e44;" horiz-adv-x="728" 
d="M367 761l24 144h153l-26 -144h-151zM5 0l124 700h181l180 -358l62 358h212l-124 -700h-186l-176 359l-61 -359h-212z" />
    <glyph glyph-name="ndotaccent" unicode="&#x1e45;" horiz-adv-x="619" 
d="M294 619l25 145h151l-26 -145h-150zM324 0l59 335q5 23 5 43q0 29 -29 29q-43 0 -81 -64l-61 -343h-218l99 554h184l6 -63q76 76 174 76q71 0 109.5 -38.5t38.5 -105.5q0 -38 -10 -96l-58 -327h-218z" />
    <glyph glyph-name="Ndotbelow" unicode="&#x1e46;" horiz-adv-x="728" 
d="M221 -200l25 144h151l-25 -144h-151zM5 0l124 700h181l180 -358l62 358h212l-124 -700h-186l-176 359l-61 -359h-212z" />
    <glyph glyph-name="ndotbelow" unicode="&#x1e47;" horiz-adv-x="619" 
d="M154 -200l26 144h149l-25 -144h-150zM324 0l59 335q5 23 5 43q0 29 -29 29q-43 0 -81 -64l-61 -343h-218l99 554h184l6 -63q76 76 174 76q71 0 109.5 -38.5t38.5 -105.5q0 -38 -10 -96l-58 -327h-218z" />
    <glyph glyph-name="Rdotbelow" unicode="&#x1e5a;" horiz-adv-x="693" 
d="M5 0l124 700h300q128 0 201 -59t73 -161q0 -156 -148 -212l58 -268h-214l-39 239h-85l-43 -239h-227zM201 -200l25 144h151l-25 -144h-151zM302 392h83q37 0 61 20t24 59q0 30 -17.5 44.5t-44.5 14.5h-82z" />
    <glyph glyph-name="rdotbelow" unicode="&#x1e5b;" horiz-adv-x="466" 
d="M-2 0l100 554h183l8 -76q62 94 163 94q43 0 67 -8l-56 -192q-31 11 -69 11q-70 0 -129 -107l-49 -276h-218zM-2 -200l26 144h149l-25 -144h-150z" />
    <glyph glyph-name="Rdotbelowmacron" unicode="&#x1e5c;" horiz-adv-x="693" 
d="M5 0l124 700h300q128 0 201 -59t73 -161q0 -156 -148 -212l58 -268h-214l-39 239h-7h-78l-43 -239h-227zM232 772l22 122h371l-21 -122h-372zM201 -200l25 144h151l-25 -144h-151zM302 392h83q37 0 61 20t24 59q0 30 -17.5 44.5t-44.5 14.5h-82z" />
    <glyph glyph-name="rdotbelowmacron" unicode="&#x1e5d;" horiz-adv-x="466" 
d="M139 631l21 121h365l-21 -121h-365zM-2 0l100 554h183l8 -76q62 94 163 94q43 0 67 -8l-56 -192q-31 11 -69 11q-70 0 -129 -107l-49 -276h-218zM-2 -200l26 144h149l-25 -144h-150z" />
    <glyph glyph-name="Sdotbelow" unicode="&#x1e62;" horiz-adv-x="624" 
d="M-4 87l121 155q92 -62 182 -62q25 0 41 8.5t16 23.5q0 8 -5 14.5t-16.5 12.5t-21.5 9.5t-29.5 10l-31.5 10.5q-32 11 -52 20t-46.5 26t-42 37t-27 52t-11.5 71q0 103 78 170.5t212 67.5q146 0 271 -77l-100 -162q-86 47 -169 47q-52 0 -52 -32q0 -5 2.5 -10t8 -9
t11.5 -7.5t16 -7t17.5 -6t20.5 -7t21 -7.5q36 -13 52.5 -19.5t47 -24t45.5 -36.5t27.5 -51.5t12.5 -73.5q0 -108 -78 -175.5t-226 -67.5q-79 0 -161 29.5t-134 70.5zM151 -200l25 144h151l-25 -144h-151z" />
    <glyph glyph-name="sdotbelow" unicode="&#x1e63;" horiz-adv-x="519" 
d="M-13 60l89 133q90 -49 156 -49q45 0 45 24q0 21 -64 39q-9 3 -13 4q-153 44 -153 165q0 90 71 140.5t173 50.5q127 0 234 -66l-88 -126q-72 38 -132 38q-41 0 -41 -24q0 -21 49 -34q3 0 34 -8q71 -18 107.5 -52.5t36.5 -100.5q0 -97 -75 -152t-184 -55q-143 0 -245 73z
M94 -200l26 144h149l-25 -144h-150z" />
    <glyph glyph-name="Tdotbelow" unicode="&#x1e6c;" horiz-adv-x="660" 
d="M182 0l89 504h-206l34 196h624l-34 -196h-192l-89 -504h-226zM182 -200l25 144h151l-25 -144h-151z" />
    <glyph glyph-name="tdotbelow" unicode="&#x1e6d;" horiz-adv-x="471" 
d="M114 -200l26 144h149l-25 -144h-150zM78 222l34 191h-74l26 141h74l21 117h218l-21 -117h143l-26 -141h-143l-36 -202q-3 -9 -3 -23q0 -30 30 -30q32 0 63 23l60 -134q-91 -60 -205 -60q-74 0 -122 41.5t-48 111.5q0 21 9 82z" />
    <glyph glyph-name="Wgrave" unicode="&#x1e80;" horiz-adv-x="1097" 
d="M582 755l-115 81l166 81l64 -162h-115zM175 0l-91 700h224l39 -370h2l167 370h201l39 -370h2l169 370h244l-338 -700h-223l-41 383h-2l-175 -383h-217z" />
    <glyph glyph-name="wgrave" unicode="&#x1e81;" horiz-adv-x="842" 
d="M122 0l-64 554h197l21 -273h2l114 273h156l20 -273h2l116 273h209l-262 -554h-179l-27 252h-2l-112 -252h-191zM431 611l-90 108l150 82l61 -190h-121z" />
    <glyph glyph-name="Wacute" unicode="&#x1e82;" horiz-adv-x="1097" 
d="M548 755l122 162l160 -81l-144 -81h-138zM175 0l-91 700h224l39 -370h2l167 370h201l39 -370h2l169 370h244l-338 -700h-223l-41 383h-2l-175 -383h-217z" />
    <glyph glyph-name="wacute" unicode="&#x1e83;" horiz-adv-x="842" 
d="M382 611l128 190l137 -82l-127 -108h-138zM122 0l-64 554h197l21 -273h2l114 273h156l20 -273h2l116 273h209l-262 -554h-179l-27 252h-2l-112 -252h-191z" />
    <glyph glyph-name="Wdieresis" unicode="&#x1e84;" horiz-adv-x="1097" 
d="M685 761l25 144h151l-26 -144h-150zM414 761l24 144h155l-26 -144h-153zM175 0l-91 700h224l39 -370h2l167 370h201l39 -370h2l169 370h244l-338 -700h-223l-41 383h-2l-175 -383h-217z" />
    <glyph glyph-name="wdieresis" unicode="&#x1e85;" horiz-adv-x="842" 
d="M526 619l26 145h150l-25 -145h-151zM281 619l25 145h155l-26 -145h-154zM122 0l-64 554h197l21 -273h2l114 273h156l20 -273h2l116 273h209l-262 -554h-179l-27 252h-2l-112 -252h-191z" />
    <glyph glyph-name="hmacronbelow" unicode="&#x1e96;" horiz-adv-x="619" 
d="M-1 0l134 755h218l-45 -254q74 66 156 66q71 0 110 -38.5t39 -105.5q0 -38 -10 -96l-58 -327h-218l59 335q4 28 4 43q0 29 -29 29q-43 0 -81 -64l-61 -343h-218zM55 -199l21 121h365l-21 -121h-365z" />
    <glyph glyph-name="germandbls.cap" unicode="&#x1e9e;" horiz-adv-x="720" 
d="M11 0l83 470q42 243 343 243q128 0 208.5 -55.5t80.5 -148.5q0 -122 -140 -163v-1q121 -44 121 -161q0 -91 -74 -144t-178 -53q-101 0 -166 27l64 153q36 -16 66 -16t47.5 18t17.5 50q0 54 -66 54h-46l28 158h26q36 0 55.5 17t19.5 46q0 26 -22 42t-59 16q-86 0 -99 -77
l-84 -475h-226z" />
    <glyph glyph-name="Idotbelow" unicode="&#x1eca;" horiz-adv-x="320" 
d="M5 0l124 700h227l-124 -700h-227zM7 -200l25 144h151l-25 -144h-151z" />
    <glyph glyph-name="idotbelow" unicode="&#x1ecb;" horiz-adv-x="297" 
d="M-1 0l96 541h218l-96 -541h-218zM105 596l27 159h218l-26 -159h-219zM-3 -200l26 144h149l-25 -144h-150z" />
    <glyph glyph-name="Odotbelow" unicode="&#x1ecc;" horiz-adv-x="798" 
d="M46 323q0 75 26.5 144t75.5 124.5t128.5 88.5t176.5 33q147 0 243.5 -91t96.5 -245q0 -75 -26.5 -144t-75.5 -124.5t-128.5 -88.5t-176.5 -33q-147 0 -243.5 91t-96.5 245zM277 319q0 -148 120 -148q72 0 118 64.5t46 145.5q0 148 -120 148q-72 0 -118 -64.5t-46 -145.5z
M271 -200l25 144h151l-25 -144h-151z" />
    <glyph glyph-name="odotbelow" unicode="&#x1ecd;" horiz-adv-x="631" 
d="M173 -200l26 144h149l-25 -144h-150zM292 -13q-113 0 -186.5 69.5t-73.5 188.5q0 145 89.5 233.5t236.5 88.5q113 0 186.5 -69t73.5 -189q0 -144 -89.5 -233t-236.5 -89zM305 140q40 0 66.5 54.5t26.5 122.5q0 97 -54 97q-39 0 -65.5 -54.5t-26.5 -122.5q0 -97 53 -97z
" />
    <glyph glyph-name="Udotbelow" unicode="&#x1ee4;" horiz-adv-x="714" 
d="M58 320l69 380h228l-74 -405q-5 -28 -5 -50q0 -33 19 -52t53 -19q43 0 67.5 29.5t36.5 95.5l71 401h227l-75 -426q-26 -149 -115 -218t-245 -69q-122 0 -194.5 62.5t-72.5 169.5q0 39 10 101zM201 -200l25 144h151l-25 -144h-151z" />
    <glyph glyph-name="udotbelow" unicode="&#x1ee5;" horiz-adv-x="616" 
d="M632 554l-99 -554h-177l-7 65q-78 -78 -175 -78q-74 0 -113.5 40.5t-39.5 104.5q0 44 9 95l58 327h218l-63 -344q-4 -22 -4 -38q0 -31 30 -31q42 0 85 77l59 336h219zM149 -200l26 144h149l-25 -144h-150z" />
    <glyph glyph-name="Ygrave" unicode="&#x1ef2;" horiz-adv-x="714" 
d="M200 0l49 278l-176 422h242l75 -195h2l144 195h269l-326 -422l-49 -278h-230zM396 755l-115 81l166 81l64 -162h-115z" />
    <glyph glyph-name="ygrave" unicode="&#x1ef3;" horiz-adv-x="592" 
d="M10 -24q38 -19 67 -19t45.5 10.5t27.5 38.5l3 6l-98 542h203l34 -293h2l137 293h214l-259 -506q-79 -154 -141.5 -206t-163.5 -52q-86 0 -146 37zM306 611l-90 108l150 82l61 -190h-121z" />
    <glyph glyph-name="Ytilde" unicode="&#x1ef8;" horiz-adv-x="714" 
d="M200 0l49 278l-176 422h242l75 -195h2l144 195h269l-326 -422l-49 -278h-230zM225 757q2 83 41.5 125t108.5 42q37 0 81 -24t60 -24q38 0 40 34h112q-2 -84 -41.5 -126.5t-107.5 -42.5q-37 0 -81 24t-62 24q-35 0 -38 -32h-113z" />
    <glyph glyph-name="ytilde" unicode="&#x1ef9;" horiz-adv-x="592" 
d="M10 -24q38 -19 67 -19t45.5 10.5t27.5 38.5l3 6l-98 542h203l34 -293h2l137 293h214l-259 -506q-79 -154 -141.5 -206t-163.5 -52q-86 0 -146 37zM149 610q4 86 43 129.5t107 43.5q36 0 77.5 -24.5t60.5 -24.5q34 0 37 39h112q-4 -86 -42.5 -129.5t-106.5 -43.5
q-35 0 -76.5 24t-60.5 24q-34 0 -39 -38h-112z" />
    <glyph glyph-name="enspace" unicode="&#x2002;" horiz-adv-x="487" 
 />
    <glyph glyph-name="emspace" unicode="&#x2003;" horiz-adv-x="975" 
 />
    <glyph glyph-name="threeperemspace" unicode="&#x2004;" horiz-adv-x="325" 
 />
    <glyph glyph-name="fourperemspace" unicode="&#x2005;" horiz-adv-x="244" 
 />
    <glyph glyph-name="sixperemspace" unicode="&#x2006;" horiz-adv-x="163" 
 />
    <glyph glyph-name="figurespace" unicode="&#x2007;" horiz-adv-x="620" 
 />
    <glyph glyph-name="punctuationspace" unicode="&#x2008;" horiz-adv-x="234" 
 />
    <glyph glyph-name="thinspace" unicode="&#x2009;" horiz-adv-x="97" 
 />
    <glyph glyph-name="hairspace" unicode="&#x200a;" horiz-adv-x="49" 
 />
    <glyph glyph-name="zerowidthspace" unicode="&#x200b;" horiz-adv-x="0" 
 />
    <glyph glyph-name="endash" unicode="&#x2013;" horiz-adv-x="642" 
d="M19 191l32 177h592l-32 -177h-592z" />
    <glyph glyph-name="emdash" unicode="&#x2014;" horiz-adv-x="869" 
d="M27 191l31 177h799l-31 -177h-799z" />
    <glyph glyph-name="quoteleft" unicode="&#x2018;" horiz-adv-x="279" 
d="M291 510l-36 -199h-200l28 150q33 181 208 220l21 -76q-44 -10 -71.5 -36.5t-33.5 -58.5h84z" />
    <glyph glyph-name="quoteright" unicode="&#x2019;" horiz-adv-x="279" 
d="M89 504l36 199h200l-28 -150q-33 -181 -208 -220l-21 76q44 10 71.5 36.5t33.5 58.5h-84z" />
    <glyph glyph-name="quotesinglbase" unicode="&#x201a;" horiz-adv-x="279" 
d="M0 0l36 199h200l-28 -150q-33 -181 -208 -220l-21 76q44 10 71.5 36.5t33.5 58.5h-84z" />
    <glyph glyph-name="quotedblleft" unicode="&#x201c;" horiz-adv-x="562" 
d="M290 510l-36 -199h-200l28 150q33 181 208 220l21 -76q-44 -10 -71.5 -36.5t-33.5 -58.5h84zM574 510l-36 -199h-200l28 150q33 181 208 220l21 -76q-44 -10 -71.5 -36.5t-33.5 -58.5h84z" />
    <glyph glyph-name="quotedblright" unicode="&#x201d;" horiz-adv-x="564" 
d="M89 504l36 199h200l-28 -150q-33 -181 -208 -220l-21 76q44 10 71.5 36.5t33.5 58.5h-84zM374 504l36 199h200l-28 -150q-33 -181 -208 -220l-21 76q44 10 71.5 36.5t33.5 58.5h-84z" />
    <glyph glyph-name="quotedblbase" unicode="&#x201e;" horiz-adv-x="563" 
d="M0 0l36 199h200l-28 -150q-33 -181 -208 -220l-21 76q44 10 71.5 36.5t33.5 58.5h-84zM284 0l36 199h200l-28 -150q-33 -181 -208 -220l-21 76q44 10 71.5 36.5t33.5 58.5h-84z" />
    <glyph glyph-name="dagger" unicode="&#x2020;" horiz-adv-x="507" 
d="M159 272l20 107l40 92l-75 -9h-72l33 180h73l68 -13l-5 107l4 19h204l-3 -19l-45 -107l75 13h75l-35 -180h-74l-70 9l11 -92l-19 -107h-205z" />
    <glyph glyph-name="daggerdbl" unicode="&#x2021;" horiz-adv-x="507" 
d="M126 84l5 28l44 102l-76 -14h-72l31 181h72l73 -9v51l19 52l-76 -9h-72l31 181h72l71 -14l-7 102l4 20h204l-3 -20l-45 -102l75 14h74l-31 -181h-75l-71 9l-1 -52l-18 -51l75 9h74l-31 -181h-74l-71 14l7 -102l-3 -28h-205z" />
    <glyph glyph-name="bullet" unicode="&#x2022;" horiz-adv-x="546" 
d="M102 258q0 84 59.5 141t137.5 57q67 0 111 -44t44 -110q0 -84 -59.5 -141t-137.5 -57q-68 0 -111.5 44t-43.5 110z" />
    <glyph glyph-name="ellipsis" unicode="&#x2026;" horiz-adv-x="908" 
d="M0 0l36 199h200l-36 -199h-200zM314 0l36 199h200l-36 -199h-200zM629 0l36 199h200l-36 -199h-200z" />
    <glyph glyph-name="perthousand" unicode="&#x2030;" horiz-adv-x="1298" 
d="M908 139q0 82 60.5 134.5t153.5 52.5q76 0 119.5 -40.5t43.5 -108.5q0 -81 -62 -134t-156 -53q-76 0 -117.5 40t-41.5 109zM1039 146q0 -58 45 -58q32 0 51 23.5t19 58.5q0 58 -44 58q-33 0 -52 -24t-19 -58zM645 583h135l-500 -583h-136zM35 405q0 82 60.5 134.5
t153.5 52.5q76 0 119.5 -40.5t43.5 -108.5q0 -81 -62 -134t-156 -53q-76 0 -117.5 40t-41.5 109zM166 412q0 -58 45 -58q32 0 51 23.5t19 58.5q0 58 -44 58q-33 0 -52 -24t-19 -58zM514 139q0 82 60.5 134.5t153.5 52.5q76 0 119.5 -40.5t43.5 -108.5q0 -81 -62 -134
t-156 -53q-76 0 -117.5 40t-41.5 109zM645 146q0 -58 45 -58q32 0 51 23.5t19 58.5q0 58 -44 58q-33 0 -52 -24t-19 -58z" />
    <glyph glyph-name="guilsinglleft" unicode="&#x2039;" horiz-adv-x="387" 
d="M332 93l-137 -93l-164 282l231 275l124 -100l-162 -183z" />
    <glyph glyph-name="guilsinglright" unicode="&#x203a;" horiz-adv-x="387" 
d="M69 464l137 93l164 -275l-231 -282l-124 100l166 186z" />
    <glyph glyph-name="interrobang" unicode="&#x203d;" horiz-adv-x="599" 
d="M224 232l33 295q-34 -16 -65 -41l-86 113q124 114 285 114q68 0 124 -18.5t93 -60.5t37 -103q0 -49 -24.5 -87.5t-61 -62.5t-74 -43.5t-67 -39.5t-35.5 -41l-7 -25h-152zM161 0l29 165h196l-29 -165h-196zM465 518q0 30 -40 38l-67 -157q15 15 46.5 40t46 42.5t14.5 36.5
z" />
    <glyph glyph-name="fraction" unicode="&#x2044;" horiz-adv-x="649" 
d="M-61 0l678 700h140l-677 -700h-141z" />
    <glyph glyph-name="zero.sups" unicode="&#x2070;" horiz-adv-x="381" 
d="M244 493q-69 0 -110 43.5t-41 120.5q0 98 58 159.5t150 61.5q69 0 110 -43.5t41 -119.5q0 -98 -58 -160t-150 -62zM288 771q-34 0 -53 -34t-19 -76q0 -27 11 -44t29 -17q34 0 53.5 34t19.5 76q0 27 -11 44t-30 17z" />
    <glyph glyph-name="four.sups" unicode="&#x2074;" horiz-adv-x="340" 
d="M114 559l-28 89l207 223h117l-40 -223h30l-14 -89h-32l-10 -59h-117l11 59h-124zM190 648h64l17 87z" />
    <glyph glyph-name="five.sups" unicode="&#x2075;" horiz-adv-x="335" 
d="M72 540l55 81q44 -29 84 -29q21 0 35.5 10t14.5 25q0 12 -8.5 19t-19.5 7q-19 0 -50 -12l-64 43l37 187h235l-13 -88h-130l-9 -51q22 10 45 10q44 0 73 -26t29 -76q0 -68 -50 -107t-118 -39q-85 0 -146 46z" />
    <glyph glyph-name="six.sups" unicode="&#x2076;" horiz-adv-x="337" 
d="M89 662q0 100 60.5 158t145.5 58q71 0 119 -41l-58 -72q-26 19 -64 19q-28 0 -45 -16.5t-21 -39.5q34 18 68 18q47 0 74.5 -27t27.5 -79q0 -62 -46.5 -104.5t-115.5 -42.5q-72 0 -108.5 45t-36.5 124zM217 655q-2 -9 -2 -26q0 -45 25 -45q14 0 25 14.5t11 37.5
q0 30 -24 30q-19 0 -35 -11z" />
    <glyph glyph-name="seven.sups" unicode="&#x2077;" horiz-adv-x="297" 
d="M94 500l157 273h-138l17 98h260l-15 -90l-150 -281h-131z" />
    <glyph glyph-name="eight.sups" unicode="&#x2078;" horiz-adv-x="364" 
d="M83 597q0 67 91 98q-51 30 -51 78t45 76.5t113 28.5q66 0 108 -27t42 -73q0 -53 -75 -85q60 -33 60 -89q0 -51 -49.5 -81t-125.5 -30q-72 0 -115 26t-43 78zM211 607q0 -13 10 -21.5t24 -8.5q17 0 29.5 10t12.5 24q0 11 -8.5 22t-22.5 15q-18 -6 -31.5 -17.5t-13.5 -23.5
zM271 736q14 4 23.5 14t9.5 21q0 20 -26 20q-14 0 -23 -7.5t-9 -18.5q0 -19 25 -29z" />
    <glyph glyph-name="nine.sups" unicode="&#x2079;" horiz-adv-x="344" 
d="M411 709q0 -101 -57 -158.5t-141 -57.5q-79 0 -127 41l58 72q26 -19 64 -19q28 0 45 16.5t21 39.5q-34 -18 -68 -18q-47 0 -74.5 27t-27.5 79q0 63 45 105t114 42q72 0 110 -45.5t38 -123.5zM283 716q2 9 2 26q0 45 -25 45q-14 0 -25 -14.5t-11 -37.5q0 -30 24 -30
q19 0 35 11z" />
    <glyph glyph-name="plus.sups" unicode="&#x207a;" horiz-adv-x="314" 
d="M78 637l17 98h97l19 100h103l-19 -100h98l-17 -98h-98l-19 -100h-103l19 100h-97z" />
    <glyph glyph-name="minus.sups" unicode="&#x207b;" horiz-adv-x="314" 
d="M78 637l17 98h298l-17 -98h-298z" />
    <glyph glyph-name="equal.sups" unicode="&#x207c;" horiz-adv-x="314" 
d="M71 570l15 86h288l-15 -86h-288zM97 716l15 85h288l-15 -85h-288z" />
    <glyph glyph-name="parenleft.sups" unicode="&#x207d;" horiz-adv-x="257" 
d="M270 1021h126q-86 -83 -134 -198t-48 -240q0 -131 57 -248h-109q-64 125 -64 263q0 119 44.5 229t127.5 194z" />
    <glyph glyph-name="parenright.sups" unicode="&#x207e;" horiz-adv-x="257" 
d="M150 335h-126q86 83 134 197.5t48 240.5q0 134 -57 248h109q65 -127 65 -263q0 -119 -44.5 -229t-128.5 -194z" />
    <glyph glyph-name="n.sups" unicode="&#x207f;" horiz-adv-x="412" 
d="M79 500l64 368h118l-1 -39q50 48 109 48q62 0 86.5 -36.5t14.5 -98.5l-40 -242h-128l42 246q5 32 -30 32q-36 0 -66 -32l-42 -246h-127z" />
    <glyph glyph-name="zero.subs" unicode="&#x2080;" horiz-adv-x="381" 
d="M156 -7q-69 0 -110 43.5t-41 120.5q0 98 58 159.5t150 61.5q69 0 110 -43.5t41 -119.5q0 -98 -58 -160t-150 -62zM200 271q-34 0 -53 -34t-19 -76q0 -27 11 -44t29 -17q34 0 53.5 34t19.5 76q0 27 -11 44t-30 17z" />
    <glyph glyph-name="one.subs" unicode="&#x2081;" horiz-adv-x="332" 
d="M6 0l13 87h77l30 160l-59 -27l-41 85l160 67h87l-51 -285h66l-13 -87h-269z" />
    <glyph glyph-name="two.subs" unicode="&#x2082;" horiz-adv-x="331" 
d="M-2 0l7 51q6 42 23.5 74t40 49t47 30.5t45 20t34 15t13.5 18.5q0 9 -9 15t-22 6q-45 0 -91 -33l-55 75q30 25 72 41t78 16q64 0 101 -32t37 -84q0 -36 -18.5 -61.5t-46 -39.5t-55 -24t-48 -20.5t-23.5 -24.5h145l-13 -92h-262z" />
    <glyph glyph-name="three.subs" unicode="&#x2083;" horiz-adv-x="343" 
d="M-14 37l49 77q48 -28 89 -28q25 0 39.5 9.5t14.5 23.5q0 24 -47 24h-58l14 87h51q54 0 54 28q0 11 -9 18.5t-23 7.5q-30 0 -81 -20l-32 84q78 30 139 30q58 0 93.5 -28t35.5 -75q0 -27 -17.5 -51t-46.5 -37q47 -28 47 -78q0 -56 -47 -86t-117 -30q-88 0 -148 44z" />
    <glyph glyph-name="four.subs" unicode="&#x2084;" horiz-adv-x="340" 
d="M26 59l-28 89l207 223h117l-40 -223h30l-14 -89h-32l-10 -59h-117l11 59h-124zM102 148h64l17 87z" />
    <glyph glyph-name="five.subs" unicode="&#x2085;" horiz-adv-x="335" 
d="M-16 40l55 81q44 -29 84 -29q21 0 35.5 10t14.5 25q0 12 -8.5 19t-19.5 7q-19 0 -50 -12l-64 43l37 187h235l-13 -88h-130l-9 -51q22 10 45 10q44 0 73 -26t29 -76q0 -68 -50 -107t-118 -39q-85 0 -146 46z" />
    <glyph glyph-name="six.subs" unicode="&#x2086;" horiz-adv-x="337" 
d="M1 162q0 100 60.5 158t145.5 58q71 0 119 -41l-58 -72q-26 19 -64 19q-28 0 -45 -16.5t-21 -39.5q34 18 68 18q47 0 74.5 -27t27.5 -79q0 -62 -46.5 -104.5t-115.5 -42.5q-72 0 -108.5 45t-36.5 124zM129 155q-2 -9 -2 -26q0 -45 25 -45q14 0 25 14.5t11 37.5
q0 30 -24 30q-19 0 -35 -11z" />
    <glyph glyph-name="seven.subs" unicode="&#x2087;" horiz-adv-x="297" 
d="M6 0l157 273h-138l17 98h260l-15 -90l-150 -281h-131z" />
    <glyph glyph-name="eight.subs" unicode="&#x2088;" horiz-adv-x="364" 
d="M-5 97q0 67 91 98q-51 30 -51 78t45 76.5t113 28.5q66 0 108 -27t42 -73q0 -53 -75 -85q60 -33 60 -89q0 -51 -49.5 -81t-125.5 -30q-72 0 -115 26t-43 78zM123 107q0 -13 10 -21.5t24 -8.5q17 0 29.5 10t12.5 24q0 11 -8.5 22t-22.5 15q-18 -6 -31.5 -17.5t-13.5 -23.5z
M183 236q14 4 23.5 14t9.5 21q0 20 -26 20q-14 0 -23 -7.5t-9 -18.5q0 -19 25 -29z" />
    <glyph glyph-name="nine.subs" unicode="&#x2089;" horiz-adv-x="344" 
d="M323 209q0 -101 -57 -158.5t-141 -57.5q-79 0 -127 41l58 72q26 -19 64 -19q28 0 45 16.5t21 39.5q-34 -18 -68 -18q-47 0 -74.5 27t-27.5 79q0 63 45 105t114 42q72 0 110 -45.5t38 -123.5zM195 216q2 9 2 26q0 45 -25 45q-14 0 -25 -14.5t-11 -37.5q0 -30 24 -30
q19 0 35 11z" />
    <glyph glyph-name="parenleft.subs" unicode="&#x208d;" horiz-adv-x="257" 
d="M182 521h126q-86 -83 -134 -198t-48 -240q0 -131 57 -248h-109q-64 125 -64 263q0 119 44.5 229t127.5 194z" />
    <glyph glyph-name="parenright.subs" unicode="&#x208e;" horiz-adv-x="257" 
d="M62 -165h-126q86 83 134 197.5t48 240.5q0 134 -57 248h109q65 -127 65 -263q0 -119 -44.5 -229t-128.5 -194z" />
    <glyph glyph-name="colonmonitary" unicode="&#x20a1;" horiz-adv-x="633" 
d="M219 -133l52 125q-15 2 -35 8l-56 -133h-70l65 157q-66 35 -101.5 97.5t-35.5 139.5q0 141 98 238t266 97h5l33 80h76l-38 -89q11 -2 31 -8l40 97h76l-53 -126q39 -23 68 -54l-115 -118q-11 10 -24 21l-102 -244q44 13 90 52l108 -118q-104 -101 -258 -102l-50 -120h-70z
M293 163q23 -15 52 -15l112 276q-24 10 -50 11zM249 263q0 -34 10 -58l90 220q-45 -19 -72.5 -63.5t-27.5 -98.5z" />
    <glyph glyph-name="Euro" unicode="&#x20ac;" horiz-adv-x="625" 
d="M33 311l17 94h73q38 88 117.5 139.5t187.5 51.5q68 0 125.5 -26.5t91.5 -75.5l-128 -110q-33 43 -84 43q-60 0 -94 -36h96l-15 -80h-117q-3 -18 -3 -37h113l-13 -79h-81q25 -39 78 -39q46 0 82 33l102 -121q-85 -81 -209 -81q-99 0 -171 53.5t-96 140.5h-95l17 93h68
q0 1 3 37h-65z" />
    <glyph glyph-name="litre" unicode="&#x2113;" horiz-adv-x="639" 
d="M43 119l-16 118q77 21 130 40l40 230q19 107 83 157t160 50q89 0 146.5 -46t57.5 -137q0 -169 -270 -295l-6 -38q-5 -39 27 -39q30 0 49 23l110 -108q-83 -87 -219 -87q-90 0 -140.5 42t-54.5 119q-51 -16 -97 -29zM420 500l-19 -112q89 59 89 115q0 16 -8.5 25t-21.5 9
q-15 0 -26 -10t-14 -27z" />
    <glyph glyph-name="numero" unicode="&#x2116;" horiz-adv-x="1002" 
d="M3 0l103 584h161l113 -219l38 219h225l-103 -584h-168l-106 217l-38 -217h-225zM663 391q0 82 55 139t150 57q68 0 111.5 -41t43.5 -106q0 -82 -55 -139t-150 -57q-68 0 -111.5 41t-43.5 106zM804 404q0 -16 8.5 -25.5t21.5 -9.5q20 0 34 17.5t14 40.5q0 16 -8.5 25.5
t-22.5 9.5q-20 0 -33.5 -17.5t-13.5 -40.5z" />
    <glyph glyph-name="servicemark" unicode="&#x2120;" horiz-adv-x="861" 
d="M50 391l65 72q53 -44 103 -44q41 0 41 19q0 11 -18 18.5t-43.5 14t-50.5 17.5t-43 35.5t-18 60.5q0 57 45.5 90.5t114.5 33.5q95 0 170 -53l-56 -76q-62 34 -106 34q-34 0 -34 -20q0 -12 27 -21.5t59 -18t59 -36t27 -72.5q0 -58 -46 -91t-118 -33q-95 0 -178 70zM412 330
l66 370h111l67 -103l103 103h128l-66 -370h-128l32 184l-88 -87l-62 89l-33 -186h-130z" />
    <glyph glyph-name="trademark" unicode="&#x2122;" horiz-adv-x="873" 
d="M442 330l66 370h111l67 -103l103 103h128l-66 -370h-129l33 184l-89 -87l-61 89l-33 -186h-130zM161 330l47 270h-117l18 100h362l-18 -100h-115l-47 -270h-130z" />
    <glyph glyph-name="ohm" unicode="&#x2126;" horiz-adv-x="758" 
d="M686 0h-321l23 132q68 53 116.5 128t48.5 148q0 55 -33.5 87t-91.5 32q-75 0 -125 -48.5t-50 -135.5q0 -56 21.5 -115.5t55.5 -95.5l-23 -132h-297l26 151h105q-77 119 -77 233q0 152 106 240.5t278 88.5q132 0 214.5 -70.5t82.5 -206.5q0 -153 -139 -285h106z" />
    <glyph glyph-name="estimated" unicode="&#x212e;" horiz-adv-x="713" 
d="M42 252q0 146 105 245.5t276 99.5q109 0 181.5 -56t80.5 -144q7 -63 -23 -136h-390l-25 -135q38 -26 104 -26q94 0 199 54l50 -104q-119 -63 -261 -63q-136 0 -216.5 74.5t-80.5 190.5zM419 497q-60 0 -108 -22l-24 -129h182l24 137q-31 14 -74 14z" />
    <glyph glyph-name="uni2190" unicode="&#x2190;" horiz-adv-x="900" 
d="M51 363l312 301l102 -120l-123 -116l151 10h351v-152h-351l-151 10l129 -115l-108 -120z" />
    <glyph glyph-name="uni2191" unicode="&#x2191;" horiz-adv-x="900" 
d="M274 331l-120 101l302 313l302 -313l-120 -101l-115 123l9 -151v-351h-152v351l11 151z" />
    <glyph glyph-name="uni2192" unicode="&#x2192;" horiz-adv-x="900" 
d="M588 664l312 -301l-312 -302l-108 120l129 115l-151 -10h-351v152h351l151 -10l-123 116z" />
    <glyph glyph-name="uni2193" unicode="&#x2193;" horiz-adv-x="900" 
d="M169 262l120 101l117 -123l-11 151v351h152v-351l-9 -151l115 123l120 -101l-302 -313z" />
    <glyph glyph-name="uni2196" unicode="&#x2196;" horiz-adv-x="900" 
d="M178 208l-9 434l435 -8l-11 -158l-171 8l113 -100l249 -249l-107 -108l-248 250l-100 114l7 -172z" />
    <glyph glyph-name="uni2197" unicode="&#x2197;" horiz-adv-x="900" 
d="M772 642l-9 -434l-158 11l7 172l-100 -114l-248 -250l-107 108l249 249l113 100l-171 -8l-11 158z" />
    <glyph glyph-name="uni2198" unicode="&#x2198;" horiz-adv-x="900" 
d="M753 493l9 -434l-435 8l11 158l171 -8l-113 100l-249 249l107 108l248 -250l100 -114l-7 172z" />
    <glyph glyph-name="uni2199" unicode="&#x2199;" horiz-adv-x="900" 
d="M158 59l9 434l158 -11l-7 -172l100 114l248 250l107 -108l-249 -249l-113 -100l171 8l11 -158z" />
    <glyph glyph-name="partialdiff" unicode="&#x2202;" horiz-adv-x="672" 
d="M662 366q0 -190 -97.5 -283.5t-252.5 -93.5q-130 0 -201 70.5t-71 177.5q0 115 72.5 179.5t187.5 64.5q84 0 149 -44q-6 67 -31.5 93t-82.5 26q-69 0 -165 -38l-44 148q45 19 110 33t122 14q146 0 225 -86t79 -261zM328 143q41 0 74.5 40.5t44.5 125.5q-47 35 -90 35
q-36 0 -63 -23.5t-27 -85.5q0 -42 16.5 -67t44.5 -25z" />
    <glyph glyph-name="increment" unicode="&#x2206;" horiz-adv-x="874" 
d="M2 0l518 709l266 -709h-784zM468 359l-126 -189h188z" />
    <glyph glyph-name="product" unicode="&#x220f;" horiz-adv-x="831" 
d="M837 538h-109l-95 -538h-221l95 538h-83l-95 -538h-220l95 538h-111l30 162h744z" />
    <glyph glyph-name="summation" unicode="&#x2211;" 
d="M548 0h-549l22 121l236 237l-142 230l20 112h526l-30 -162h-264l119 -201l-168 -175h258z" />
    <glyph glyph-name="minus" unicode="&#x2212;" horiz-adv-x="599" 
d="M22 194l31 170h546l-30 -170h-547z" />
    <glyph glyph-name="radical" unicode="&#x221a;" horiz-adv-x="818" 
d="M82 275l-45 170l317 109l46 -248l289 394h224l-526 -712h-109l-64 334z" />
    <glyph glyph-name="infinity" unicode="&#x221e;" horiz-adv-x="797" 
d="M27 261q0 99 62.5 163t158.5 64q62 0 102 -25t70 -75q87 100 195 100q79 0 127 -55t48 -136q0 -99 -62 -163.5t-157 -64.5q-62 0 -102.5 24.5t-71.5 75.5q-84 -100 -193 -100q-80 0 -128.5 55.5t-48.5 136.5zM217 272q0 -16 9.5 -26t24.5 -10q19 0 39.5 12.5t33.5 29.5
q-8 17 -26 30t-35 13q-18 0 -32 -13.5t-14 -35.5zM495 280q8 -17 25 -30.5t35 -13.5q19 0 33 13.5t14 35.5q0 16 -10 26t-25 10q-20 0 -40 -12t-32 -29z" />
    <glyph glyph-name="integral" unicode="&#x222b;" horiz-adv-x="547" 
d="M99 16l95 539q19 110 81 161t174 51q95 0 176 -44l-69 -129q-37 16 -75 16q-53 0 -61 -49l-98 -562q-20 -114 -78 -161.5t-173 -47.5q-75 0 -155 36l68 137q31 -14 61 -14q25 0 36.5 14.5t17.5 52.5z" />
    <glyph glyph-name="approxequal" unicode="&#x2248;" horiz-adv-x="599" 
d="M42 317q18 218 186 218q53 0 115.5 -27.5t86.5 -27.5q35 0 41 44h153q-16 -218 -187 -218q-52 0 -114 27t-86 27q-36 0 -42 -43h-153zM-9 31q18 217 186 217q53 0 115.5 -27t86.5 -27q20 0 29 10t12 33h153q-16 -218 -187 -218q-52 0 -114.5 27t-86.5 27q-19 0 -28 -10
t-12 -32h-154z" />
    <glyph glyph-name="notequal" unicode="&#x2260;" horiz-adv-x="599" 
d="M44 321l31 170h339l54 65h110l-53 -65h96l-30 -170h-207l-68 -85h260l-30 -170h-363l-55 -66h-110l54 66h-73l31 170h183l69 85h-238z" />
    <glyph glyph-name="lessequal" unicode="&#x2264;" horiz-adv-x="603" 
d="M547 111l-513 142l35 202l556 101l-33 -187l-214 -27l199 -55zM-10 0l20 111h537l-20 -111h-537z" />
    <glyph glyph-name="greaterequal" unicode="&#x2265;" horiz-adv-x="603" 
d="M529 0h-538l20 111h538zM573 253l-562 -142l34 183l218 52l-204 29l31 181l518 -101z" />
    <glyph glyph-name="uni25A0" unicode="&#x25a0;" horiz-adv-x="900" 
d="M120 0v700h699v-700h-699z" />
    <glyph glyph-name="uni25A1" unicode="&#x25a1;" horiz-adv-x="900" 
d="M120 0v700h699v-700h-699zM181 61h577v578h-577v-578z" />
    <glyph glyph-name="uni25A3" unicode="&#x25a3;" horiz-adv-x="900" 
d="M120 0v700h699v-700h-699zM181 61h577v578h-577v-578zM252 254l95 95l-95 95l121 120l97 -98l97 98l121 -120l-95 -95l95 -95l-121 -120l-97 98l-97 -98z" />
    <glyph glyph-name="uni25B2" unicode="&#x25b2;" horiz-adv-x="900" 
d="M74 83l330 554l329 -554h-659z" />
    <glyph glyph-name="uni25B6" unicode="&#x25b6;" horiz-adv-x="900" 
d="M827 350l-554 -330v659z" />
    <glyph glyph-name="uni25BC" unicode="&#x25bc;" horiz-adv-x="900" 
d="M858 627l-330 -554l-329 554h659z" />
    <glyph glyph-name="uni25C0" unicode="&#x25c0;" horiz-adv-x="900" 
d="M660 20l-554 330l554 329v-659z" />
    <glyph glyph-name="uni25C9" unicode="&#x25c9;" horiz-adv-x="900" 
d="M356 349q0 -43 31 -74.5t75 -31.5t75.5 31t31.5 75t-31.5 75.5t-75.5 31.5t-75 -31.5t-31 -75.5zM228 349q0 98 68 166.5t166 68.5t166.5 -68.5t68.5 -166.5t-68.5 -166t-166.5 -68t-166 68.5t-68 165.5zM100 349q0 150 106 256.5t256 106.5t256.5 -106.5t106.5 -256.5
t-106.5 -256t-256.5 -106t-256 106t-106 256zM162 349q0 -125 88 -213t213 -88t213.5 88.5t88.5 212.5q0 125 -88.5 213.5t-213.5 88.5q-124 0 -212.5 -88.5t-88.5 -213.5z" />
    <glyph glyph-name="lozenge" unicode="&#x25ca;" horiz-adv-x="631" 
d="M254 352l73 -106l76 106l-76 105zM76 351l250 364l251 -364l-251 -364z" />
    <glyph glyph-name="uni25CB" unicode="&#x25cb;" horiz-adv-x="900" 
d="M100 349q0 150 106 256.5t256 106.5t256.5 -106.5t106.5 -256.5t-106.5 -256t-256.5 -106t-256 106t-106 256zM160 348q0 -125 89 -214t214 -89t214.5 89t89.5 214t-89.5 214.5t-214.5 89.5t-214 -89.5t-89 -214.5z" />
    <glyph glyph-name="uni25CD" unicode="&#x25cd;" horiz-adv-x="900" 
d="M100 349q0 150 106 256.5t256 106.5t256.5 -106.5t106.5 -256.5t-106.5 -256t-256.5 -106t-256 106t-106 256zM160 348q0 -125 89 -214t214 -89t214.5 89t89.5 214t-89.5 214.5t-214.5 89.5t-214 -89.5t-89 -214.5zM245 254l95 95l-95 95l121 120l97 -98l97 98l121 -120
l-95 -95l95 -95l-121 -120l-97 98l-97 -98z" />
    <glyph glyph-name="uni25CE" unicode="&#x25ce;" horiz-adv-x="900" 
d="M418 349q0 -18 12.5 -30.5t31.5 -12.5q18 0 31 12.5t13 30.5q0 19 -13 32t-31 13q-19 0 -31.5 -13t-12.5 -32zM356 349q0 44 31 75.5t75 31.5t75.5 -31.5t31.5 -75.5t-31.5 -75t-75.5 -31t-75 31.5t-31 74.5zM228 349q0 98 68 166.5t166 68.5t166.5 -68.5t68.5 -166.5
t-68.5 -166t-166.5 -68t-166 68.5t-68 165.5zM290 349q0 -71 50.5 -121.5t121.5 -50.5q72 0 122.5 50.5t50.5 121.5q0 72 -50.5 122.5t-122.5 50.5q-71 0 -121.5 -50.5t-50.5 -122.5zM100 349q0 150 106 256.5t256 106.5t256.5 -106.5t106.5 -256.5t-106.5 -256t-256.5 -106
t-256 106t-106 256zM162 349q0 -125 88 -213t213 -88t213.5 88.5t88.5 212.5q0 125 -88.5 213.5t-213.5 88.5q-124 0 -212.5 -88.5t-88.5 -213.5z" />
    <glyph glyph-name="uni25CF" unicode="&#x25cf;" horiz-adv-x="900" 
d="M100 349q0 150 106 256.5t256 106.5t256.5 -106.5t106.5 -256.5t-106.5 -256t-256.5 -106t-256 106t-106 256z" />
    <glyph glyph-name="uni25E2" unicode="&#x25e2;" horiz-adv-x="900" 
d="M682 0h-645l645 645v-645z" />
    <glyph glyph-name="uni25E3" unicode="&#x25e3;" horiz-adv-x="900" 
d="M809 0h-645v645z" />
    <glyph glyph-name="uni25E4" unicode="&#x25e4;" horiz-adv-x="900" 
d="M229 700h645l-645 -645v645z" />
    <glyph glyph-name="uni25E5" unicode="&#x25e5;" horiz-adv-x="900" 
d="M131 700h645v-645z" />
    <glyph glyph-name="uni2605" unicode="&#x2605;" horiz-adv-x="900" 
d="M280 101l182 96l181 -96l-35 201l147 144l-203 29l-90 184l-90 -184l-203 -29l147 -144zM100 349q0 150 106 256.5t256 106.5t256.5 -106.5t106.5 -256.5t-106.5 -256t-256.5 -106t-256 106t-106 256z" />
    <glyph glyph-name="uni2620" unicode="&#x2620;" horiz-adv-x="877" 
d="M492 296q0 20 13 31.5t34 11.5q22 0 41.5 -20.5t19.5 -36.5q0 -14 -14.5 -27t-29.5 -13q-11 0 -18.5 4.5t-13.5 13t-7 9.5q-25 22 -25 27zM463 172q-28 0 -28 27q7 49 28 51q21 -2 28 -51q0 -27 -28 -27zM328 282q0 16 19.5 36.5t41.5 20.5q21 0 34 -11.5t13 -31.5
q0 -7 -25 -27q-1 -1 -7 -9.5t-13.5 -13t-18.5 -4.5q-14 0 -29 13.5t-15 26.5zM467 604q-104 0 -163.5 -53t-59.5 -144q0 -37 29 -75q7 -19 7 -42q0 -6 -7 -41q0 -37 30 -43q36 -7 48.5 -23.5t12.5 -55.5q0 -24 26 -36h147q26 12 26 36q0 39 12.5 55.5t47.5 23.5q31 6 31 43
q-7 35 -7 41q0 23 7 42q29 38 29 85q0 86 -59 136.5t-157 50.5zM100 349q0 150 106 256.5t256 106.5t256.5 -106.5t106.5 -256.5t-106.5 -256t-256.5 -106t-256 106t-106 256z" />
    <glyph glyph-name="interrobangdown" unicode="&#x2e18;" horiz-adv-x="593" 
d="M391 324l-33 -295q34 16 65 41l86 -113q-124 -114 -285 -114q-68 0 -124 18.5t-93 60.5t-37 103q0 49 24.5 87.5t61 62.5t74 43.5t67 39.5t35.5 41l7 25h152zM454 556l-29 -165h-196l29 165h196zM150 38q0 -30 40 -38l67 157q-15 -15 -46.5 -40t-46 -42.5t-14.5 -36.5z
" />
    <glyph glyph-name="anglebracketleft" unicode="&#x3008;" horiz-adv-x="460" 
d="M45 277l236 478h230l-258 -499l101 -456h-208z" />
    <glyph glyph-name="anglebracketright" unicode="&#x3009;" horiz-adv-x="460" 
d="M430 277l-237 -477h-229l258 498l-102 457h208z" />
    <glyph glyph-name="Eacutedotbelow" unicode="&#xe004;" horiz-adv-x="618" 
d="M313 755l122 162l160 -81l-144 -81h-138zM5 0l124 700h530l-34 -191h-303l-14 -73h266l-30 -163h-265l-15 -82h308l-34 -191h-533zM166 -200l25 144h151l-25 -144h-151z" />
    <glyph glyph-name="Egravedotbelow" unicode="&#xe005;" horiz-adv-x="618" 
d="M348 755l-115 81l166 81l64 -162h-115zM5 0l124 700h530l-34 -191h-303l-14 -73h266l-30 -163h-265l-15 -82h308l-34 -191h-533zM166 -200l25 144h151l-25 -144h-151z" />
    <glyph glyph-name="Hmacronbelow" unicode="&#xe009;" horiz-adv-x="710" 
d="M5 0l124 700h227l-44 -252h163l44 252h227l-123 -700h-228l47 260h-163l-47 -260h-227zM92 -201l22 122h371l-21 -122h-372z" />
    <glyph glyph-name="Jcaron" unicode="&#xe00c;" horiz-adv-x="544" 
d="M364 755l-71 156h145l46 -71h2l73 71h153l-127 -156h-221zM-16 132l165 101q38 -53 72 -53q41 0 49 49l83 471h227l-84 -473q-44 -240 -278 -240q-73 0 -136 39t-98 106z" />
    <glyph glyph-name="Kcedilla" unicode="&#xe00d;" horiz-adv-x="704" 
d="M5 0l124 700h227l-43 -245l221 245h258l-248 -255l126 -445h-228l-70 267l-113 -117l-27 -150h-227zM259 -38h138q-39 -112 -132 -190l-132 68q31 24 46.5 36.5t40 37.5t39.5 48z" />
    <glyph glyph-name="Lcedilla" unicode="&#xe00e;" horiz-adv-x="577" 
d="M192 -38h138q-39 -112 -132 -190l-132 68q31 24 46.5 36.5t40 37.5t39.5 48zM5 0l124 700h227l-90 -510h281l-34 -190h-508z" />
    <glyph glyph-name="Mmacron" unicode="&#xe00f;" horiz-adv-x="854" 
d="M323 772l22 122h371l-21 -122h-372zM5 0l124 700h208l120 -231l192 231h241l-123 -700h-212l70 393l-211 -235l-127 235l-69 -393h-213z" />
    <glyph glyph-name="Mcedilla" unicode="&#xe010;" horiz-adv-x="854" 
d="M314 -38h138q-39 -112 -132 -190l-132 68q31 24 46.5 36.5t40 37.5t39.5 48zM5 0l124 700h208l120 -231l192 231h241l-123 -700h-212l70 393l-211 -235l-127 235l-69 -393h-213z" />
    <glyph glyph-name="Ngrave" unicode="&#xe011;" horiz-adv-x="728" 
d="M390 755l-115 81l166 81l64 -162h-115zM5 0l124 700h181l180 -358l62 358h212l-124 -700h-186l-176 359l-61 -359h-212z" />
    <glyph glyph-name="Ndieresis" unicode="&#xe012;" horiz-adv-x="728" 
d="M512 761l25 144h151l-26 -144h-150zM241 761l24 144h155l-26 -144h-153zM5 0l124 700h181l180 -358l62 358h212l-124 -700h-186l-176 359l-61 -359h-212z" />
    <glyph glyph-name="Nmacron" unicode="&#xe013;" horiz-adv-x="728" 
d="M268 772l22 122h371l-21 -122h-372zM5 0l124 700h181l180 -358l62 358h212l-124 -700h-186l-176 359l-61 -359h-212z" />
    <glyph glyph-name="Ncedilla" unicode="&#xe014;" horiz-adv-x="728" 
d="M269 -38h138q-39 -112 -132 -190l-132 68q31 24 46.5 36.5t40 37.5t39.5 48zM5 0l124 700h181l180 -358l62 358h212l-124 -700h-186l-176 359l-61 -359h-212z" />
    <glyph glyph-name="Ndescender" unicode="&#xe015;" horiz-adv-x="728" 
d="M5 0l124 700h181l180 -358l62 358h212l-160 -900h-210l42 237l-158 322l-61 -359h-212z" />
    <glyph glyph-name="Ocommaturnedabove" unicode="&#xe017;" horiz-adv-x="798" 
d="M568 850l-17 -94q-46 -12 -87 -12q-52 0 -76.5 18.5t-24.5 48.5q0 51 56 100h139q-30 -33 -30 -49t19 -16q13 0 21 4zM46 323q0 75 26.5 144t75.5 124.5t128.5 88.5t176.5 33q147 0 243.5 -91t96.5 -245q0 -75 -26.5 -144t-75.5 -124.5t-128.5 -88.5t-176.5 -33
q-147 0 -243.5 91t-96.5 245zM277 319q0 -148 120 -148q72 0 118 64.5t46 145.5q0 148 -120 148q-72 0 -118 -64.5t-46 -145.5z" />
    <glyph glyph-name="Ocedilla" unicode="&#xe01b;" horiz-adv-x="798" 
d="M311 -38h138q-39 -112 -132 -190l-132 68q31 24 46.5 36.5t40 37.5t39.5 48zM46 323q0 75 26.5 144t75.5 124.5t128.5 88.5t176.5 33q147 0 243.5 -91t96.5 -245q0 -75 -26.5 -144t-75.5 -124.5t-128.5 -88.5t-176.5 -33q-147 0 -243.5 91t-96.5 245zM277 319
q0 -148 120 -148q72 0 118 64.5t46 145.5q0 148 -120 148q-72 0 -118 -64.5t-46 -145.5z" />
    <glyph glyph-name="Ounderlineaccent" unicode="&#xe01c;" horiz-adv-x="798" 
d="M46 323q0 75 26.5 144t75.5 124.5t128.5 88.5t176.5 33q147 0 243.5 -91t96.5 -245q0 -75 -26.5 -144t-75.5 -124.5t-128.5 -88.5t-176.5 -33q-147 0 -243.5 91t-96.5 245zM277 319q0 -148 120 -148q72 0 118 64.5t46 145.5q0 148 -120 148q-72 0 -118 -64.5t-46 -145.5z
M270 -212l31 175h151l-31 -175h-151z" />
    <glyph glyph-name="Pmacron" unicode="&#xe01e;" horiz-adv-x="680" 
d="M5 0l124 700h293q132 0 203 -60t71 -158q0 -52 -16.5 -95.5t-53.5 -81t-104.5 -58.5t-161.5 -21h-87l-41 -226h-227zM302 392h77q38 0 62 19.5t24 58.5q0 30 -17.5 45t-45.5 15h-76zM229 772l22 122h371l-21 -122h-372z" />
    <glyph glyph-name="Rcedilla" unicode="&#xe020;" horiz-adv-x="693" 
d="M5 0l124 700h300q128 0 201 -59t73 -161q0 -156 -148 -212l58 -268h-214l-39 239h-7h-78l-43 -239h-227zM247 -38h138q-39 -112 -132 -190l-132 68q31 24 46.5 36.5t40 37.5t39.5 48zM302 392h83q37 0 61 20t24 59q0 30 -17.5 44.5t-44.5 14.5h-82z" />
    <glyph glyph-name="Euro.LP" unicode="&#xe022;" horiz-adv-x="699" 
d="M41 371l17 100h81q41 114 135 178t212 64q160 0 260 -107l-124 -136q-62 53 -139 53q-71 0 -109 -55h118l-17 -97h-134q-3 -19 -3 -41h129l-17 -97h-102q19 -57 77 -57q61 0 124 50l120 -137q-114 -102 -269 -102q-110 0 -185 63.5t-95 179.5h-103l17 100h79l3 41h-75z
" />
    <glyph glyph-name="Umacronbelow" unicode="&#xe023;" horiz-adv-x="724" 
d="M93 -201l22 122h371l-21 -122h-372zM58 320l69 380h228l-74 -405q-5 -28 -5 -50q0 -33 19 -52t53 -19q43 0 67.5 29.5t36.5 95.5l71 401h227l-75 -426q-26 -149 -115 -218t-245 -69q-122 0 -194.5 62.5t-72.5 169.5q0 39 10 101z" />
    <glyph glyph-name="eacutedotbelow" unicode="&#xe028;" horiz-adv-x="603" 
d="M33 234q0 150 101 241.5t242 91.5q102 0 165 -46.5t63 -125.5q0 -81 -80.5 -126t-210.5 -45h-60q3 -36 21 -50.5t55 -14.5q68 0 139 42l71 -142q-117 -72 -238 -72q-120 0 -194 67t-74 180zM269 611l128 190l137 -82l-127 -108h-138zM158 -200l26 144h149l-25 -144h-150z
M358 421q-34 0 -58.5 -26t-36.5 -71h28q111 0 111 57q0 18 -11.5 29t-32.5 11z" />
    <glyph glyph-name="egravedotbelow" unicode="&#xe029;" horiz-adv-x="603" 
d="M33 234q0 150 101 241.5t242 91.5q102 0 165 -46.5t63 -125.5q0 -81 -80.5 -126t-210.5 -45h-60q3 -36 21 -50.5t55 -14.5q68 0 139 42l71 -142q-117 -72 -238 -72q-120 0 -194 67t-74 180zM320 611l-90 108l150 82l61 -190h-121zM159 -200l26 144h149l-25 -144h-150z
M358 421q-34 0 -58.5 -26t-36.5 -71h28q111 0 111 57q0 18 -11.5 29t-32.5 11z" />
    <glyph glyph-name="idotaccent" unicode="&#xe030;" horiz-adv-x="297" 
d="M-1 0l96 541h218l-96 -541h-218zM105 596l27 159h218l-26 -159h-219z" />
    <glyph glyph-name="kcedilla" unicode="&#xe031;" horiz-adv-x="629" 
d="M-1 0l133 755h218l-70 -396l190 195h231l-215 -210l91 -344h-215l-43 181l-84 -82l-18 -99h-218zM210 -38h138q-39 -112 -132 -190l-132 68q31 24 46.5 36.5t40 37.5t39.5 48z" />
    <glyph glyph-name="lcedilla" unicode="&#xe032;" horiz-adv-x="297" 
d="M30 -38h138q-39 -112 -132 -190l-132 68q31 24 46.5 36.5t40 37.5t39.5 48zM-1 0l133 755h218l-133 -755h-218z" />
    <glyph glyph-name="mmacron" unicode="&#xe033;" horiz-adv-x="912" 
d="M274 351l-62 -351h-213l98 554h183l4 -65q80 78 173 78q107 0 130 -87q86 87 181 87q60 0 97.5 -35.5t37.5 -96.5q0 -38 -14 -118l-56 -317h-208l59 335q5 25 5 40q0 31 -29 31q-38 0 -76 -54l-64 -352h-206l60 335q5 25 5 40q0 31 -29 31q-39 0 -76 -55zM335 631l21 121
h365l-21 -121h-365z" />
    <glyph glyph-name="mcedilla" unicode="&#xe034;" horiz-adv-x="912" 
d="M340 -38h138q-39 -112 -132 -190l-132 68q31 24 46.5 36.5t40 37.5t39.5 48zM274 351l-62 -351h-213l98 554h183l4 -65q80 78 173 78q107 0 130 -87q86 87 181 87q60 0 97.5 -35.5t37.5 -96.5q0 -38 -14 -118l-56 -317h-208l59 335q5 25 5 40q0 31 -29 31q-38 0 -76 -54
l-64 -352h-206l60 335q5 25 5 40q0 31 -29 31q-39 0 -76 -55z" />
    <glyph glyph-name="ngrave" unicode="&#xe035;" horiz-adv-x="619" 
d="M324 611l-90 108l150 82l61 -190h-121zM324 0l59 335q5 23 5 43q0 29 -29 29q-43 0 -81 -64l-61 -343h-218l99 554h184l6 -63q76 76 174 76q71 0 109.5 -38.5t38.5 -105.5q0 -38 -10 -96l-58 -327h-218z" />
    <glyph glyph-name="ndieresis" unicode="&#xe036;" horiz-adv-x="619" 
d="M425 619l26 145h150l-25 -145h-151zM180 619l25 145h155l-26 -145h-154zM324 0l59 335q5 23 5 43q0 29 -29 29q-43 0 -81 -64l-61 -343h-218l99 554h184l6 -63q76 76 174 76q71 0 109.5 -38.5t38.5 -105.5q0 -38 -10 -96l-58 -327h-218z" />
    <glyph glyph-name="nmacron" unicode="&#xe037;" horiz-adv-x="619" 
d="M194 631l21 121h365l-21 -121h-365zM324 0l59 335q5 23 5 43q0 29 -29 29q-43 0 -81 -64l-61 -343h-218l99 554h184l6 -63q76 76 174 76q71 0 109.5 -38.5t38.5 -105.5q0 -38 -10 -96l-58 -327h-218z" />
    <glyph glyph-name="ncedilla" unicode="&#xe038;" horiz-adv-x="619" 
d="M195 -38h138q-39 -112 -132 -190l-132 68q31 24 46.5 36.5t40 37.5t39.5 48zM324 0l59 335q5 23 5 43q0 29 -29 29q-43 0 -81 -64l-61 -343h-218l99 554h184l6 -63q76 76 174 76q71 0 109.5 -38.5t38.5 -105.5q0 -38 -10 -96l-58 -327h-218z" />
    <glyph glyph-name="ndescender" unicode="&#xe039;" horiz-adv-x="619" 
d="M-1 0l99 554h184l6 -63q76 76 174 76q71 0 109.5 -38.5t38.5 -105.5q0 -38 -10 -96l-93 -527h-218l94 535q5 23 5 43q0 29 -29 29q-43 0 -81 -64l-61 -343h-218z" />
    <glyph glyph-name="ocommaturnedabove" unicode="&#xe03b;" horiz-adv-x="631" 
d="M468 709l-16 -93q-41 -12 -86 -12q-53 0 -77.5 21t-24.5 53q0 51 60 117h139q-34 -52 -34 -70q0 -20 19 -20q12 0 20 4zM292 -13q-113 0 -186.5 69.5t-73.5 188.5q0 145 89.5 233.5t236.5 88.5q113 0 186.5 -69t73.5 -189q0 -144 -89.5 -233t-236.5 -89zM305 140
q40 0 66.5 54.5t26.5 122.5q0 97 -54 97q-39 0 -65.5 -54.5t-26.5 -122.5q0 -97 53 -97z" />
    <glyph glyph-name="ocedilla" unicode="&#xe03f;" horiz-adv-x="631" 
d="M216 -38h138q-39 -112 -132 -190l-132 68q31 24 46.5 36.5t40 37.5t39.5 48zM292 -13q-113 0 -186.5 69.5t-73.5 188.5q0 145 89.5 233.5t236.5 88.5q113 0 186.5 -69t73.5 -189q0 -144 -89.5 -233t-236.5 -89zM305 140q40 0 66.5 54.5t26.5 122.5q0 97 -54 97
q-39 0 -65.5 -54.5t-26.5 -122.5q0 -97 53 -97z" />
    <glyph glyph-name="ounderlineaccent" unicode="&#xe040;" horiz-adv-x="631" 
d="M171 -212l31 175h149l-31 -175h-149zM292 -13q-113 0 -186.5 69.5t-73.5 188.5q0 145 89.5 233.5t236.5 88.5q113 0 186.5 -69t73.5 -189q0 -144 -89.5 -233t-236.5 -89zM305 140q40 0 66.5 54.5t26.5 122.5q0 97 -54 97q-39 0 -65.5 -54.5t-26.5 -122.5q0 -97 53 -97z
" />
    <glyph glyph-name="pmacron" unicode="&#xe042;" horiz-adv-x="629" 
d="M224 48l-44 -248h-218l135 754h192l5 -57q65 67 154 67q71 0 119.5 -56.5t48.5 -168.5q0 -155 -72.5 -252t-181.5 -97q-83 0 -138 58zM245 163q24 -17 54 -17q43 0 71.5 52.5t28.5 123.5q0 42 -14.5 63.5t-37.5 21.5q-41 0 -68 -55zM197 631l21 121h365l-21 -121h-365z
" />
    <glyph glyph-name="rcedilla" unicode="&#xe044;" horiz-adv-x="466" 
d="M-2 0l100 554h183l8 -76q62 94 163 94q43 0 67 -8l-56 -192q-31 11 -69 11q-70 0 -129 -107l-49 -276h-218zM29 -38h138q-39 -112 -132 -190l-132 68q31 24 46.5 36.5t40 37.5t39.5 48z" />
    <glyph glyph-name="umacronbelow" unicode="&#xe047;" horiz-adv-x="616" 
d="M632 554l-99 -554h-177l-7 65q-78 -78 -175 -78q-74 0 -113.5 40.5t-39.5 104.5q0 44 9 95l58 327h218l-63 -344q-4 -22 -4 -38q0 -31 30 -31q42 0 85 77l59 336h219zM47 -199l21 121h365l-21 -121h-365z" />
    <glyph glyph-name="Atilde.small" unicode="&#xe060;" 
d="M-43 0l311 584h229l105 -584h-214l-7 60h-165l-27 -60h-232zM186 636q4 86 43 129.5t107 43.5q36 0 77.5 -24.5t60.5 -24.5q34 0 37 39h112q-4 -86 -42.5 -129.5t-106.5 -43.5q-35 0 -76.5 24t-60.5 24q-34 0 -39 -38h-112zM348 353l-68 -150h86l-15 150h-3z" />
    <glyph glyph-name="A.small" unicode="&#xe06c;" 
d="M-43 0l311 584h229l105 -584h-214l-7 60h-165l-27 -60h-232zM348 353l-68 -150h86l-15 150h-3z" />
    <glyph glyph-name="B.small" unicode="&#xe06d;" horiz-adv-x="608" 
d="M2 0l103 584h270q103 0 162.5 -39t59.5 -111q0 -100 -110 -137q88 -36 88 -127q0 -83 -75 -126.5t-206 -43.5h-292zM284 354h45q21 0 34.5 12t13.5 33q0 17 -9 27t-25 10h-44zM249 148h56q22 0 35.5 14.5t13.5 35.5q0 36 -35 36h-55z" />
    <glyph glyph-name="C.small" unicode="&#xe06e;" horiz-adv-x="616" 
d="M31 257q0 65 23.5 125.5t67.5 108.5t112.5 76.5t152.5 28.5q147 0 239 -94l-119 -126q-55 57 -117 57q-59 0 -99 -50t-40 -117q0 -53 27 -84t70 -31q71 0 134 65l112 -127q-114 -102 -273 -102q-131 0 -210.5 71.5t-79.5 198.5z" />
    <glyph glyph-name="D.small" unicode="&#xe06f;" horiz-adv-x="640" 
d="M2 0l103 584h212q142 0 227 -64.5t85 -190.5q0 -145 -94 -237t-278 -92h-255zM250 157h36q53 0 86.5 50.5t33.5 127.5q0 48 -16.5 71t-57.5 23h-34z" />
    <glyph glyph-name="E.small" unicode="&#xe070;" horiz-adv-x="543" 
d="M2 0l103 584h458l-29 -161h-237l-11 -61h205l-25 -139h-205l-10 -62h239l-27 -161h-461z" />
    <glyph glyph-name="F.small" unicode="&#xe071;" horiz-adv-x="555" 
d="M3 0l102 584h475l-29 -161h-255l-11 -63h215l-25 -142h-216l-38 -218h-218z" />
    <glyph glyph-name="G.small" unicode="&#xe072;" horiz-adv-x="643" 
d="M31 253q0 66 23 126.5t66.5 109.5t116.5 78t164 29q134 0 233 -86l-117 -125q-58 48 -122 48q-69 0 -106.5 -52.5t-37.5 -117.5q0 -47 25.5 -79.5t69.5 -32.5t78 20l10 52h-93l22 118h269l-48 -270q-108 -84 -267 -84q-130 0 -208 73.5t-78 192.5z" />
    <glyph glyph-name="H.small" unicode="&#xe073;" horiz-adv-x="659" 
d="M2 0l103 584h220l-35 -198h132l35 198h218l-103 -584h-218l38 213h-132l-38 -213h-220z" />
    <glyph glyph-name="I.small" unicode="&#xe074;" horiz-adv-x="308" 
d="M2 0l103 584h220l-104 -584h-219z" />
    <glyph glyph-name="J.small" unicode="&#xe075;" horiz-adv-x="494" 
d="M-10 99l141 98q29 -40 60 -40q19 0 29 10.5t15 38.5l66 378h220l-68 -383q-36 -214 -254 -214q-136 0 -209 112z" />
    <glyph glyph-name="K.small" unicode="&#xe076;" horiz-adv-x="652" 
d="M2 0l103 584h220l-34 -188l173 188h256l-220 -219l117 -365h-224l-56 202l-96 -95l-20 -107h-219z" />
    <glyph glyph-name="L.small" unicode="&#xe077;" horiz-adv-x="549" 
d="M2 0l103 584h220l-73 -413h265l-30 -171h-485z" />
    <glyph glyph-name="M.small" unicode="&#xe078;" horiz-adv-x="777" 
d="M2 0l103 584h186l111 -184l174 184h217l-103 -584h-206l52 294l-168 -170l-107 171l-50 -295h-209z" />
    <glyph glyph-name="N.small" unicode="&#xe079;" horiz-adv-x="674" 
d="M2 0l103 584h175l158 -281l49 281h203l-102 -584h-172l-158 282l-50 -282h-206z" />
    <glyph glyph-name="O.small" unicode="&#xe07a;" horiz-adv-x="707" 
d="M34 265q0 146 101 238.5t258 92.5q135 0 218.5 -73.5t83.5 -204.5q0 -146 -101 -238.5t-258 -92.5q-135 0 -218.5 73.5t-83.5 204.5zM257 270q0 -120 96 -120q49 0 84 49.5t35 114.5q0 119 -96 119q-49 0 -84 -49t-35 -114z" />
    <glyph glyph-name="P.small" unicode="&#xe07b;" horiz-adv-x="623" 
d="M275 301h50q37 0 58 18.5t21 50.5q0 56 -57 56h-49zM2 0l103 584h270q120 0 183.5 -57t63.5 -147q0 -103 -72 -168t-227 -65h-75l-26 -147h-220z" />
    <glyph glyph-name="Q.small" unicode="&#xe07c;" horiz-adv-x="704" 
d="M34 265q0 146 101 238.5t258 92.5q135 0 218.5 -73.5t83.5 -204.5q0 -140 -92 -230l55 -58l-87 -75l-63 67q-80 -35 -172 -35q-135 0 -218.5 73.5t-83.5 204.5zM330 219l71 67l54 -56q17 39 17 84q0 119 -96 119q-49 0 -84 -49t-35 -114q0 -120 96 -120q17 0 36 8z" />
    <glyph glyph-name="R.small" unicode="&#xe07d;" 
d="M2 0l103 584h283q121 0 185 -55.5t64 -142.5q0 -136 -122 -190l49 -196h-202l-30 164h-80l-30 -164h-220zM276 304h64q37 0 58 17t21 50q0 26 -15.5 40.5t-42.5 14.5h-63z" />
    <glyph glyph-name="S.small" unicode="&#xe07e;" horiz-adv-x="567" 
d="M-4 72l103 129q83 -54 168 -54q46 0 46 25q0 17 -19 27t-59 20q-34 9 -61 20t-56.5 30.5t-46 52t-16.5 75.5q0 94 75 146.5t208 52.5q59 0 124.5 -19.5t108.5 -46.5l-99 -136q-81 42 -143 42q-45 0 -45 -25q0 -5 2 -9t7.5 -7.5t11 -6t15.5 -5.5t16.5 -4.5t19.5 -5
t20 -5.5q157 -41 157 -173q0 -97 -68 -152.5t-202 -55.5q-79 0 -151 24t-116 61z" />
    <glyph glyph-name="T.small" unicode="&#xe07f;" horiz-adv-x="594" 
d="M152 0l73 415h-174l31 169h556l-30 -169h-165l-72 -415h-219z" />
    <glyph glyph-name="U.small" unicode="&#xe080;" horiz-adv-x="636" 
d="M50 259l58 325h219l-64 -356q-3 -14 -3 -27q0 -47 44 -47q29 0 43.5 19.5t23.5 70.5l60 340h218l-64 -358q-42 -239 -307 -239q-107 0 -171.5 52t-64.5 142q0 38 8 78z" />
    <glyph glyph-name="V.small" unicode="&#xe081;" horiz-adv-x="634" 
d="M159 0l-103 584h215l38 -350h2l158 350h229l-303 -584h-236z" />
    <glyph glyph-name="W.small" unicode="&#xe082;" horiz-adv-x="959" 
d="M144 0l-78 584h207l25 -293h2l132 293h212l21 -297h2l131 297h219l-283 -584h-206l-32 317h-2l-150 -317h-200z" />
    <glyph glyph-name="X.small" unicode="&#xe083;" horiz-adv-x="654" 
d="M-38 0l245 297l-138 287h233l53 -135l101 135h258l-237 -287l140 -297h-228l-63 147l-113 -147h-251z" />
    <glyph glyph-name="Y.small" unicode="&#xe084;" horiz-adv-x="662" 
d="M179 0l37 214l-161 370h237l53 -165h2l114 165h267l-294 -370l-38 -214h-217z" />
    <glyph glyph-name="Z.small" unicode="&#xe085;" horiz-adv-x="567" 
d="M-10 0l25 143l269 273h-224l31 168h508l-25 -141l-265 -274h228l-30 -169h-517z" />
    <glyph glyph-name="Aacute.small" unicode="&#xe086;" 
d="M295 637l128 190l137 -82l-127 -108h-138zM-43 0l311 584h229l105 -584h-214l-7 60h-165l-27 -60h-232zM348 353l-68 -150h86l-15 150h-3z" />
    <glyph glyph-name="Agrave.small" unicode="&#xe087;" 
d="M-43 0l311 584h229l105 -584h-214l-7 60h-165l-27 -60h-232zM352 637l-90 108l150 82l61 -190h-121zM348 353l-68 -150h86l-15 150h-3z" />
    <glyph glyph-name="Acircumflex.small" unicode="&#xe088;" 
d="M-43 0l311 584h229l105 -584h-214l-7 60h-165l-27 -60h-232zM149 637l140 160h243l84 -160h-157l-56 66h-5l-83 -66h-166zM348 353l-68 -150h86l-15 150h-3z" />
    <glyph glyph-name="Adieresis.small" unicode="&#xe089;" 
d="M437 645l26 145h150l-25 -145h-151zM192 645l25 145h155l-26 -145h-154zM-43 0l311 584h229l105 -584h-214l-7 60h-165l-27 -60h-232zM348 353l-68 -150h86l-15 150h-3z" />
    <glyph glyph-name="colonmonitary.LP" unicode="&#xe08a;" horiz-adv-x="637" 
d="M264 0l21 50q-24 4 -35 7l-24 -57h-70l33 81q-68 35 -104.5 98t-36.5 141q0 141 98 238t266 97h9l19 46h77l-24 -56q7 -1 29 -8l26 64h77l-40 -93q36 -23 65 -53l-112 -115q-4 4 -13 11.5t-10 8.5l-105 -251q46 15 91 53l106 -114q-103 -99 -254 -102l-19 -46h-70z
M304 212q22 -11 51 -11h1l116 285q-23 9 -49 12zM251 320q0 -43 16 -72l99 244q-51 -16 -83 -64t-32 -108z" />
    <glyph glyph-name="Aring.small" unicode="&#xe08b;" 
d="M-43 0l309 580q-13 25 -13 55q0 59 43.5 100.5t108.5 41.5q51 0 83.5 -33.5t32.5 -81.5q0 -44 -25 -78h1l105 -584h-214l-7 60h-165l-27 -60h-232zM320 636q0 -42 38 -52h35q27 6 44 28t17 48q0 24 -15 39t-40 15q-33 0 -56 -24t-23 -54zM348 353l-68 -150h86l-15 150h-3
z" />
    <glyph glyph-name="Acaron.small" unicode="&#xe08c;" 
d="M266 637l-85 160h146l67 -75h5l92 75h157l-139 -160h-243zM-43 0l311 584h229l105 -584h-214l-7 60h-165l-27 -60h-232zM348 353l-68 -150h86l-15 150h-3z" />
    <glyph glyph-name="Amacron.small" unicode="&#xe08d;" 
d="M211 657l21 121h365l-21 -121h-365zM-43 0l311 584h229l105 -584h-214l-7 60h-165l-27 -60h-232zM348 353l-68 -150h86l-15 150h-3z" />
    <glyph glyph-name="Abreve.small" unicode="&#xe08e;" 
d="M-43 0l311 584h229l105 -584h-214l-7 60h-165l-27 -60h-232zM348 353l-68 -150h86l-15 150h-3zM388 624q-75 0 -116.5 48.5t-35.5 124.5h120q4 -51 43 -51t58 51h132q-18 -80 -69 -126.5t-132 -46.5z" />
    <glyph glyph-name="Ainvertedbreve.small" unicode="&#xe08f;" 
d="M-43 0l311 584h229l105 -584h-214l-7 60h-165l-27 -60h-232zM409 810q75 0 116 -48.5t35 -124.5h-120q-4 51 -43 51t-58 -51h-132q18 80 69.5 126.5t132.5 46.5zM348 353l-68 -150h86l-15 150h-3z" />
    <glyph glyph-name="Adoublegrave.small" unicode="&#xe090;" 
d="M-43 0l311 584h229l105 -584h-214l-7 60h-165l-27 -60h-232zM348 353l-68 -150h86l-15 150h-3zM305 827l60 -190h-118l-90 108zM492 827l60 -190h-119l-89 108z" />
    <glyph glyph-name="Adotabove.small" unicode="&#xe091;" 
d="M-43 0l311 584h229l105 -584h-214l-7 60h-165l-27 -60h-232zM306 645l25 145h151l-26 -145h-150zM348 353l-68 -150h86l-15 150h-3z" />
    <glyph glyph-name="Aringacute.small" unicode="&#xe092;" 
d="M-43 0l309 580q-13 25 -13 55q0 59 43.5 100.5t108.5 41.5q51 0 83.5 -33.5t32.5 -81.5q0 -44 -25 -78h1l105 -584h-214l-7 60h-165l-27 -60h-232zM314 812l128 190l137 -82l-127 -108h-138zM320 636q0 -42 38 -52h35q27 6 44 28t17 48q0 24 -15 39t-40 15q-33 0 -56 -24
t-23 -54zM348 353l-68 -150h86l-15 150h-3z" />
    <glyph glyph-name="Adieresismacron.small" unicode="&#xe093;" 
d="M439 637l26 145h150l-25 -145h-151zM194 637l25 145h155l-26 -145h-154zM242 834l21 121h365l-21 -121h-365zM-43 0l311 584h229l105 -584h-214l-7 60h-165l-27 -60h-232zM348 353l-68 -150h86l-15 150h-3z" />
    <glyph glyph-name="Aogonek.small" unicode="&#xe094;" 
d="M-43 0l311 584h229l105 -584q-90 -10 -90 -51q0 -22 32 -22q21 0 42 7l3 -4l-23 -126q-42 -12 -89 -12q-55 0 -86.5 27t-31.5 67q0 69 72 114h-43l-7 60h-165l-27 -60h-232zM348 353l-68 -150h86l-15 150h-3z" />
    <glyph glyph-name="AE.small" unicode="&#xe096;" horiz-adv-x="935" 
d="M412 0l-3 61h-187l-34 -61h-239l348 584h659l-28 -162h-340l5 -59h291l-24 -141h-255l6 -60h273l-27 -162h-445zM392 368l-82 -147h92l-7 147h-3z" />
    <glyph glyph-name="AEacute.small" unicode="&#xe097;" horiz-adv-x="935" 
d="M412 0l-3 61h-187l-34 -61h-239l348 584h659l-28 -162h-340l5 -59h291l-24 -141h-255l6 -60h273l-27 -162h-445zM350 637l128 190l137 -82l-127 -108h-138zM392 368l-82 -147h92l-7 147h-3z" />
    <glyph glyph-name="AEmacron.small" unicode="&#xe098;" horiz-adv-x="935" 
d="M412 0l-3 61h-187l-34 -61h-239l348 584h659l-28 -162h-340l5 -59h291l-24 -141h-255l6 -60h273l-27 -162h-445zM392 368l-82 -147h92l-7 147h-3zM305 657l21 121h365l-21 -121h-365z" />
    <glyph glyph-name="Cacute.small" unicode="&#xe099;" horiz-adv-x="616" 
d="M292 637l128 190l137 -82l-127 -108h-138zM31 257q0 65 23.5 125.5t67.5 108.5t112.5 76.5t152.5 28.5q147 0 239 -94l-119 -126q-55 57 -117 57q-59 0 -99 -50t-40 -117q0 -53 27 -84t70 -31q71 0 134 65l112 -127q-114 -102 -273 -102q-131 0 -210.5 71.5t-79.5 198.5z
" />
    <glyph glyph-name="Ccircumflex.small" unicode="&#xe09a;" horiz-adv-x="616" 
d="M173 637l140 160h243l84 -160h-157l-56 66h-5l-83 -66h-166zM31 257q0 65 23.5 125.5t67.5 108.5t112.5 76.5t152.5 28.5q147 0 239 -94l-119 -126q-55 57 -117 57q-59 0 -99 -50t-40 -117q0 -53 27 -84t70 -31q71 0 134 65l112 -127q-114 -102 -273 -102
q-131 0 -210.5 71.5t-79.5 198.5z" />
    <glyph glyph-name="Ccaron.small" unicode="&#xe09b;" horiz-adv-x="616" 
d="M287 637l-85 160h146l67 -75h5l92 75h157l-139 -160h-243zM31 257q0 65 23.5 125.5t67.5 108.5t112.5 76.5t152.5 28.5q147 0 239 -94l-119 -126q-55 57 -117 57q-59 0 -99 -50t-40 -117q0 -53 27 -84t70 -31q71 0 134 65l112 -127q-114 -102 -273 -102
q-131 0 -210.5 71.5t-79.5 198.5z" />
    <glyph glyph-name="Cdotaccent.small" unicode="&#xe09c;" horiz-adv-x="616" 
d="M31 257q0 65 23.5 125.5t67.5 108.5t112.5 76.5t152.5 28.5q147 0 239 -94l-119 -126q-55 57 -117 57q-59 0 -99 -50t-40 -117q0 -53 27 -84t70 -31q71 0 134 65l112 -127q-114 -102 -273 -102q-131 0 -210.5 71.5t-79.5 198.5zM312 645l25 145h151l-26 -145h-150z" />
    <glyph glyph-name="Ccedilla.small" unicode="&#xe09d;" horiz-adv-x="616" 
d="M97 -160q110 83 144 155q-97 20 -153.5 87.5t-56.5 174.5q0 65 23.5 125.5t67.5 108.5t112.5 76.5t152.5 28.5q147 0 239 -94l-119 -126q-55 57 -117 57q-59 0 -99 -50t-40 -117q0 -53 27 -84t70 -31q71 0 134 65l112 -127q-96 -86 -224 -99q-37 -133 -140 -218z" />
    <glyph glyph-name="Dcaron.small" unicode="&#xe09e;" horiz-adv-x="640" 
d="M2 0l103 584h212q142 0 227 -64.5t85 -190.5q0 -145 -94 -237t-278 -92h-255zM250 157h36q53 0 86.5 50.5t33.5 127.5q0 48 -16.5 71t-57.5 23h-34zM253 637l-85 160h146l67 -75h5l92 75h157l-139 -160h-243z" />
    <glyph glyph-name="Dcedilla.small" unicode="&#xe09f;" horiz-adv-x="640" 
d="M2 0l103 584h212q142 0 227 -64.5t85 -190.5q0 -145 -94 -237t-278 -92h-255zM250 157h36q53 0 86.5 50.5t33.5 127.5q0 48 -16.5 71t-57.5 23h-34zM200 -38h138q-39 -112 -132 -190l-132 68q31 24 46.5 36.5t40 37.5t39.5 48z" />
    <glyph glyph-name="Ddotbelow.small" unicode="&#xe0a0;" horiz-adv-x="640" 
d="M2 0l103 584h212q142 0 227 -64.5t85 -190.5q0 -145 -94 -237t-278 -92h-255zM250 157h36q53 0 86.5 50.5t33.5 127.5q0 48 -16.5 71t-57.5 23h-34zM149 -200l26 144h149l-25 -144h-150z" />
    <glyph glyph-name="Dcroat.small" unicode="&#xe0a1;" horiz-adv-x="684" 
d="M8 239l19 106h79l43 239h212q142 0 227 -64.5t85 -190.5q0 -145 -94 -237t-278 -92h-255l42 239h-80zM294 157h36q53 0 86.5 50.5t33.5 127.5q0 48 -16.5 71t-57.5 23h-34l-16 -87h76l-19 -102h-75z" />
    <glyph glyph-name="Eacute.small" unicode="&#xe0a2;" horiz-adv-x="543" 
d="M2 0l103 584h458l-29 -161h-237l-11 -61h205l-25 -139h-205l-10 -62h239l-27 -161h-461zM244 637l128 190l137 -82l-127 -108h-138z" />
    <glyph glyph-name="Egrave.small" unicode="&#xe0a3;" horiz-adv-x="543" 
d="M2 0l103 584h458l-29 -161h-237l-11 -61h205l-25 -139h-205l-10 -62h239l-27 -161h-461zM298 637l-90 108l150 82l61 -190h-121z" />
    <glyph glyph-name="Ecircumflex.small" unicode="&#xe0a4;" horiz-adv-x="543" 
d="M112 637l140 160h243l84 -160h-157l-56 66h-5l-83 -66h-166zM2 0l103 584h458l-29 -161h-237l-11 -61h205l-25 -139h-205l-10 -62h239l-27 -161h-461z" />
    <glyph glyph-name="Edieresis.small" unicode="&#xe0a5;" horiz-adv-x="543" 
d="M390 645l26 145h150l-25 -145h-151zM145 645l25 145h155l-26 -145h-154zM2 0l103 584h458l-29 -161h-237l-11 -61h205l-25 -139h-205l-10 -62h239l-27 -161h-461z" />
    <glyph glyph-name="Ecaron.small" unicode="&#xe0a6;" horiz-adv-x="543" 
d="M219 637l-85 160h146l67 -75h5l92 75h157l-139 -160h-243zM2 0l103 584h458l-29 -161h-237l-11 -61h205l-25 -139h-205l-10 -62h239l-27 -161h-461z" />
    <glyph glyph-name="Emacron.small" unicode="&#xe0a7;" horiz-adv-x="543" 
d="M2 0l103 584h458l-29 -161h-237l-11 -61h205l-25 -139h-205l-10 -62h239l-27 -161h-461zM162 657l21 121h365l-21 -121h-365z" />
    <glyph glyph-name="Ebreve.small" unicode="&#xe0a8;" horiz-adv-x="543" 
d="M2 0l103 584h458l-29 -161h-237l-11 -61h205l-25 -139h-205l-10 -62h239l-27 -161h-461zM345 624q-75 0 -116.5 48.5t-35.5 124.5h120q4 -51 43 -51t58 51h132q-18 -80 -69 -126.5t-132 -46.5z" />
    <glyph glyph-name="Einvertedbreve.small" unicode="&#xe0a9;" horiz-adv-x="543" 
d="M2 0l103 584h458l-29 -161h-237l-11 -61h205l-25 -139h-205l-10 -62h239l-27 -161h-461zM371 810q75 0 116 -48.5t35 -124.5h-120q-4 51 -43 51t-58 -51h-132q18 80 69.5 126.5t132.5 46.5z" />
    <glyph glyph-name="Edoublegrave.small" unicode="&#xe0aa;" horiz-adv-x="543" 
d="M10 0l103 584h458l-29 -161h-237l-11 -61h205l-25 -139h-205l-10 -62h239l-27 -161h-461zM253 827l60 -190h-118l-90 108zM440 827l60 -190h-119l-89 108z" />
    <glyph glyph-name="Edotaccent.small" unicode="&#xe0ab;" horiz-adv-x="543" 
d="M2 0l103 584h458l-29 -161h-237l-11 -61h205l-25 -139h-205l-10 -62h239l-27 -161h-461zM268 645l25 145h151l-26 -145h-150z" />
    <glyph glyph-name="Eacutedotbelow.small" unicode="&#xe0ac;" horiz-adv-x="543" 
d="M2 0l103 584h458l-29 -161h-237l-11 -61h205l-25 -139h-205l-10 -62h239l-27 -161h-461zM129 -200l26 144h149l-25 -144h-150zM243 637l128 190l137 -82l-127 -108h-138z" />
    <glyph glyph-name="Egravedotbelow.small" unicode="&#xe0ad;" horiz-adv-x="543" 
d="M2 0l103 584h458l-29 -161h-237l-11 -61h205l-25 -139h-205l-10 -62h239l-27 -161h-461zM129 -200l26 144h149l-25 -144h-150zM299 637l-90 108l150 82l61 -190h-121z" />
    <glyph glyph-name="Eogonek.small" unicode="&#xe0ae;" horiz-adv-x="543" 
d="M2 0l103 584h458l-29 -161h-237l-11 -61h205l-25 -139h-205l-10 -62h239l-27 -161h-4q-88 -10 -88 -51q0 -22 32 -22q21 0 42 7l3 -4l-23 -126q-42 -12 -89 -12q-55 0 -86.5 27t-31.5 67q0 69 72 114h-288z" />
    <glyph glyph-name="Gacute.small" unicode="&#xe0af;" horiz-adv-x="643" 
d="M286 637l128 190l137 -82l-127 -108h-138zM31 253q0 66 23 126.5t66.5 109.5t116.5 78t164 29q134 0 233 -86l-117 -125q-58 48 -122 48q-69 0 -106.5 -52.5t-37.5 -117.5q0 -47 25.5 -79.5t69.5 -32.5t78 20l10 52h-93l22 118h269l-48 -270q-108 -84 -267 -84
q-130 0 -208 73.5t-78 192.5z" />
    <glyph glyph-name="Gcircumflex.small" unicode="&#xe0b0;" horiz-adv-x="643" 
d="M172 637l140 160h243l84 -160h-157l-56 66h-5l-83 -66h-166zM31 253q0 66 23 126.5t66.5 109.5t116.5 78t164 29q134 0 233 -86l-117 -125q-58 48 -122 48q-69 0 -106.5 -52.5t-37.5 -117.5q0 -47 25.5 -79.5t69.5 -32.5t78 20l10 52h-93l22 118h269l-48 -270
q-108 -84 -267 -84q-130 0 -208 73.5t-78 192.5z" />
    <glyph glyph-name="Gcaron.small" unicode="&#xe0b2;" horiz-adv-x="643" 
d="M289 637l-85 160h146l67 -75h5l92 75h157l-139 -160h-243zM31 253q0 66 23 126.5t66.5 109.5t116.5 78t164 29q134 0 233 -86l-117 -125q-58 48 -122 48q-69 0 -106.5 -52.5t-37.5 -117.5q0 -47 25.5 -79.5t69.5 -32.5t78 20l10 52h-93l22 118h269l-48 -270
q-108 -84 -267 -84q-130 0 -208 73.5t-78 192.5z" />
    <glyph glyph-name="Gbreve.small" unicode="&#xe0b3;" horiz-adv-x="643" 
d="M31 253q0 66 23 126.5t66.5 109.5t116.5 78t164 29q134 0 233 -86l-117 -125q-58 48 -122 48q-69 0 -106.5 -52.5t-37.5 -117.5q0 -47 25.5 -79.5t69.5 -32.5t78 20l10 52h-93l22 118h269l-48 -270q-108 -84 -267 -84q-130 0 -208 73.5t-78 192.5zM395 624
q-75 0 -116.5 48.5t-35.5 124.5h120q4 -51 43 -51t58 51h132q-18 -80 -69 -126.5t-132 -46.5z" />
    <glyph glyph-name="Gdotaccent.small" unicode="&#xe0b4;" horiz-adv-x="643" 
d="M322 645l25 145h151l-26 -145h-150zM31 253q0 66 23 126.5t66.5 109.5t116.5 78t164 29q134 0 233 -86l-117 -125q-58 48 -122 48q-69 0 -106.5 -52.5t-37.5 -117.5q0 -47 25.5 -79.5t69.5 -32.5t78 20l10 52h-93l22 118h269l-48 -270q-108 -84 -267 -84
q-130 0 -208 73.5t-78 192.5z" />
    <glyph glyph-name="Gcommaaccent.small" unicode="&#xe0b6;" horiz-adv-x="643" 
d="M211 -55q41 12 87 12q52 0 76.5 -21t24.5 -53q0 -49 -60 -115h-139q34 50 34 69t-19 19q-12 0 -20 -4zM31 253q0 66 23 126.5t66.5 109.5t116.5 78t164 29q134 0 233 -86l-117 -125q-58 48 -122 48q-69 0 -106.5 -52.5t-37.5 -117.5q0 -47 25.5 -79.5t69.5 -32.5t78 20
l10 52h-93l22 118h269l-48 -270q-108 -84 -267 -84q-130 0 -208 73.5t-78 192.5z" />
    <glyph glyph-name="Gstroke.small" unicode="&#xe0b7;" horiz-adv-x="643" 
d="M31 253q0 66 23 126.5t66.5 109.5t116.5 78t164 29q134 0 233 -86l-117 -125q-58 48 -122 48q-69 0 -106.5 -52.5t-37.5 -117.5q0 -47 25.5 -79.5t69.5 -32.5t78 20l10 52h-93l22 118h269l-14 -77h48l-20 -119h-49l-13 -74q-108 -84 -267 -84q-130 0 -208 73.5t-78 192.5
z" />
    <glyph glyph-name="Hcircumflex.small" unicode="&#xe0b8;" horiz-adv-x="659" 
d="M166 637l140 160h243l84 -160h-157l-56 66h-5l-83 -66h-166zM2 0l103 584h220l-35 -198h132l35 198h218l-103 -584h-218l38 213h-132l-38 -213h-220z" />
    <glyph glyph-name="Hcaron.small" unicode="&#xe0b9;" horiz-adv-x="659" 
d="M279 637l-85 160h146l67 -75h5l92 75h157l-139 -160h-243zM2 0l103 584h220l-35 -198h132l35 198h218l-103 -584h-218l38 213h-132l-38 -213h-220z" />
    <glyph glyph-name="Hdotbelow.small" unicode="&#xe0ba;" horiz-adv-x="659" 
d="M2 0l103 584h220l-35 -198h132l35 198h218l-103 -584h-218l38 213h-132l-38 -213h-220zM172 -200l26 144h149l-25 -144h-150z" />
    <glyph glyph-name="Hmacronbelow.small" unicode="&#xe0bb;" horiz-adv-x="659" 
d="M2 0l103 584h220l-35 -198h132l35 198h218l-103 -584h-218l38 213h-132l-38 -213h-220zM68 -200l21 121h365l-21 -121h-365z" />
    <glyph glyph-name="Hbar.small" unicode="&#xe0bc;" horiz-adv-x="659" 
d="M2 0l103 584h220l-9 -52h132l9 52h218l-103 -584h-218l38 213h-132l-38 -213h-220zM290 386h132l8 48h-132z" />
    <glyph glyph-name="Iacute.small" unicode="&#xe0bd;" horiz-adv-x="308" 
d="M127 637l128 190l137 -82l-127 -108h-138zM2 0l103 584h220l-104 -584h-219z" />
    <glyph glyph-name="Igrave.small" unicode="&#xe0be;" horiz-adv-x="308" 
d="M2 0l103 584h220l-104 -584h-219zM184 637l-90 108l150 82l61 -190h-121z" />
    <glyph glyph-name="Icircumflex.small" unicode="&#xe0bf;" horiz-adv-x="308" 
d="M-21 637l140 160h243l84 -160h-157l-56 66h-5l-83 -66h-166zM2 0l103 584h220l-104 -584h-219z" />
    <glyph glyph-name="Idieresis.small" unicode="&#xe0c0;" horiz-adv-x="308" 
d="M265 645l26 145h150l-25 -145h-151zM20 645l25 145h155l-26 -145h-154zM2 0l103 584h220l-104 -584h-219z" />
    <glyph glyph-name="Itilde.small" unicode="&#xe0c1;" horiz-adv-x="308" 
d="M2 0l103 584h220l-104 -584h-219zM19 636q4 86 43 129.5t107 43.5q36 0 77.5 -24.5t60.5 -24.5q34 0 37 39h112q-4 -86 -42.5 -129.5t-106.5 -43.5q-35 0 -76.5 24t-60.5 24q-34 0 -39 -38h-112z" />
    <glyph glyph-name="Icaron.small" unicode="&#xe0c2;" horiz-adv-x="308" 
d="M102 637l-85 160h146l67 -75h5l92 75h157l-139 -160h-243zM2 0l103 584h220l-104 -584h-219z" />
    <glyph glyph-name="Imacron.small" unicode="&#xe0c3;" horiz-adv-x="308" 
d="M40 657l21 121h365l-21 -121h-365zM2 0l103 584h220l-104 -584h-219z" />
    <glyph glyph-name="Ibreve.small" unicode="&#xe0c4;" horiz-adv-x="308" 
d="M2 0l103 584h220l-104 -584h-219zM221 624q-75 0 -116.5 48.5t-35.5 124.5h120q4 -51 43 -51t58 51h132q-18 -80 -69 -126.5t-132 -46.5z" />
    <glyph glyph-name="Iinvertedbreve.small" unicode="&#xe0c5;" horiz-adv-x="308" 
d="M247 810q75 0 116 -48.5t35 -124.5h-120q-4 51 -43 51t-58 -51h-132q18 80 69.5 126.5t132.5 46.5zM2 0l103 584h220l-104 -584h-219z" />
    <glyph glyph-name="Idoublegrave.small" unicode="&#xe0c6;" horiz-adv-x="308" 
d="M2 0l103 584h220l-104 -584h-219zM134 827l60 -190h-118l-90 108zM321 827l60 -190h-119l-89 108z" />
    <glyph glyph-name="Idotaccent.small" unicode="&#xe0c7;" horiz-adv-x="308" 
d="M2 0l103 584h220l-104 -584h-219zM148 645l25 145h151l-26 -145h-150z" />
    <glyph glyph-name="Idotbelow.small" unicode="&#xe0c8;" horiz-adv-x="308" 
d="M-2 -200l26 144h149l-25 -144h-150zM2 0l103 584h220l-104 -584h-219z" />
    <glyph glyph-name="Iogonek.small" unicode="&#xe0c9;" horiz-adv-x="308" 
d="M2 0l103 584h220l-104 -584h-7q-88 -10 -88 -51q0 -22 32 -22q21 0 42 7l3 -4l-23 -126q-42 -12 -89 -12q-55 0 -86.5 27t-31.5 67q0 69 72 114h-43z" />
    <glyph glyph-name="Jcircumflex.small" unicode="&#xe0ca;" horiz-adv-x="494" 
d="M173 637l140 160h243l84 -160h-157l-56 66h-5l-83 -66h-166zM-10 99l141 98q29 -40 60 -40q19 0 29 10.5t15 38.5l66 378h220l-68 -383q-36 -214 -254 -214q-136 0 -209 112z" />
    <glyph glyph-name="Jcaron.small" unicode="&#xe0cb;" horiz-adv-x="494" 
d="M295 637l-85 160h146l67 -75h5l92 75h157l-139 -160h-243zM-10 99l141 98q29 -40 60 -40q19 0 29 10.5t15 38.5l66 378h220l-68 -383q-36 -214 -254 -214q-136 0 -209 112z" />
    <glyph glyph-name="Kcaron.small" unicode="&#xe0cc;" horiz-adv-x="652" 
d="M281 637l-85 160h146l67 -75h5l92 75h157l-139 -160h-243zM2 0l103 584h220l-34 -188l173 188h256l-220 -219l117 -365h-224l-56 202l-96 -95l-20 -107h-219z" />
    <glyph glyph-name="Kcommaaccent.small" unicode="&#xe0cd;" horiz-adv-x="652" 
d="M206 -55q41 12 87 12q52 0 76.5 -21t24.5 -53q0 -49 -60 -115h-139q34 50 34 69t-19 19q-12 0 -20 -4zM2 0l103 584h220l-34 -188l173 188h256l-220 -219l117 -365h-224l-56 202l-96 -95l-20 -107h-219z" />
    <glyph glyph-name="Kcedilla.small" unicode="&#xe0ce;" horiz-adv-x="652" 
d="M2 0l103 584h220l-34 -188l173 188h256l-220 -219l117 -365h-224l-56 202l-96 -95l-20 -107h-219zM228 -38h138q-39 -112 -132 -190l-132 68q31 24 46.5 36.5t40 37.5t39.5 48z" />
    <glyph glyph-name="Khook.small" unicode="&#xe0cf;" horiz-adv-x="652" 
d="M2 0l103 584h220l-40 -225q41 7 91 84q56 85 121 117t181 32l-29 -170q-47 -5 -76.5 -24.5t-60.5 -69.5l105 -328h-224l-52 187q-39 -12 -90 -17l-30 -170h-219z" />
    <glyph glyph-name="Lacute.small" unicode="&#xe0d0;" horiz-adv-x="549" 
d="M2 0l103 584h220l-73 -413h265l-30 -171h-485zM132 637l128 190l137 -82l-127 -108h-138z" />
    <glyph glyph-name="Lcaron.small" unicode="&#xe0d1;" horiz-adv-x="549" 
d="M2 0l103 584h220l-73 -413h265l-30 -171h-485zM396 575q41 12 87 12q52 0 76.5 -21t24.5 -53q0 -49 -60 -115h-139q34 50 34 69t-19 19q-12 0 -20 -4z" />
    <glyph glyph-name="Lcommaaccent.small" unicode="&#xe0d2;" horiz-adv-x="549" 
d="M2 0l103 584h220l-73 -413h265l-30 -171h-485zM138 -55q41 12 87 12q52 0 76.5 -21t24.5 -53q0 -49 -60 -115h-139q34 50 34 69t-19 19q-12 0 -20 -4z" />
    <glyph glyph-name="Lcedilla.small" unicode="&#xe0d3;" horiz-adv-x="549" 
d="M2 0l103 584h220l-73 -413h265l-30 -171h-485zM185 -38h138q-39 -112 -132 -190l-132 68q31 24 46.5 36.5t40 37.5t39.5 48z" />
    <glyph glyph-name="Ldotbelow.small" unicode="&#xe0d4;" horiz-adv-x="549" 
d="M2 0l103 584h220l-73 -413h265l-30 -171h-485zM138 -200l26 144h149l-25 -144h-150z" />
    <glyph glyph-name="Ldotbelowmacron.small" unicode="&#xe0d5;" horiz-adv-x="549" 
d="M2 0l103 584h220l-73 -413h265l-30 -171h-485zM45 657l21 121h365l-21 -121h-365zM138 -200l26 144h149l-25 -144h-150z" />
    <glyph glyph-name="Ldot.small" unicode="&#xe0d6;" horiz-adv-x="549" 
d="M2 0l103 584h220l-73 -413h265l-30 -171h-485zM383 285l26 144h149l-25 -144h-150z" />
    <glyph glyph-name="Lslash.small" unicode="&#xe0d7;" horiz-adv-x="586" 
d="M-2 146l22 131l74 37l48 270h220l-26 -148l106 54l-23 -134l-107 -53l-23 -132h265l-30 -171h-485l32 182z" />
    <glyph glyph-name="Mmacron.small" unicode="&#xe0d8;" horiz-adv-x="777" 
d="M2 0l103 584h186l111 -184l174 184h217l-103 -584h-206l52 294l-168 -170l-107 171l-50 -295h-209zM256 657l21 121h365l-21 -121h-365z" />
    <glyph glyph-name="Mcedilla.small" unicode="&#xe0d9;" horiz-adv-x="777" 
d="M2 0l103 584h186l111 -184l174 184h217l-103 -584h-206l52 294l-168 -170l-107 171l-50 -295h-209zM278 -38h138q-39 -112 -132 -190l-132 68q31 24 46.5 36.5t40 37.5t39.5 48z" />
    <glyph glyph-name="Mdotbelow.small" unicode="&#xe0da;" horiz-adv-x="777" 
d="M2 0l103 584h186l111 -184l174 184h217l-103 -584h-206l52 294l-168 -170l-107 171l-50 -295h-209zM238 -200l26 144h149l-25 -144h-150z" />
    <glyph glyph-name="Nacute.small" unicode="&#xe0db;" horiz-adv-x="674" 
d="M295 637l128 190l137 -82l-127 -108h-138zM2 0l103 584h175l158 -281l49 281h203l-102 -584h-172l-158 282l-50 -282h-206z" />
    <glyph glyph-name="Ngrave.small" unicode="&#xe0dc;" horiz-adv-x="674" 
d="M2 0l103 584h175l158 -281l49 281h203l-102 -584h-172l-158 282l-50 -282h-206zM350 637l-90 108l150 82l61 -190h-121z" />
    <glyph glyph-name="Ndieresis.small" unicode="&#xe0dd;" horiz-adv-x="674" 
d="M451 645l26 145h150l-25 -145h-151zM206 645l25 145h155l-26 -145h-154zM2 0l103 584h175l158 -281l49 281h203l-102 -584h-172l-158 282l-50 -282h-206z" />
    <glyph glyph-name="Ntilde.small" unicode="&#xe0de;" horiz-adv-x="674" 
d="M2 0l103 584h175l158 -281l49 281h203l-102 -584h-172l-158 282l-50 -282h-206zM193 636q4 86 43 129.5t107 43.5q36 0 77.5 -24.5t60.5 -24.5q34 0 37 39h112q-4 -86 -42.5 -129.5t-106.5 -43.5q-35 0 -76.5 24t-60.5 24q-34 0 -39 -38h-112z" />
    <glyph glyph-name="Ncaron.small" unicode="&#xe0df;" horiz-adv-x="674" 
d="M277 637l-85 160h146l67 -75h5l92 75h157l-139 -160h-243zM2 0l103 584h175l158 -281l49 281h203l-102 -584h-172l-158 282l-50 -282h-206z" />
    <glyph glyph-name="Nmacron.small" unicode="&#xe0e0;" horiz-adv-x="674" 
d="M221 657l21 121h365l-21 -121h-365zM2 0l103 584h175l158 -281l49 281h203l-102 -584h-172l-158 282l-50 -282h-206z" />
    <glyph glyph-name="Ndotaccent.small" unicode="&#xe0e1;" horiz-adv-x="674" 
d="M2 0l103 584h175l158 -281l49 281h203l-102 -584h-172l-158 282l-50 -282h-206zM309 645l25 145h151l-26 -145h-150z" />
    <glyph glyph-name="Ncommaaccent.small" unicode="&#xe0e2;" horiz-adv-x="674" 
d="M204 -55q41 12 87 12q52 0 76.5 -21t24.5 -53q0 -49 -60 -115h-139q34 50 34 69t-19 19q-12 0 -20 -4zM2 0l103 584h175l158 -281l49 281h203l-102 -584h-172l-158 282l-50 -282h-206z" />
    <glyph glyph-name="Ncedilla.small" unicode="&#xe0e3;" horiz-adv-x="674" 
d="M236 -38h138q-39 -112 -132 -190l-132 68q31 24 46.5 36.5t40 37.5t39.5 48zM2 0l103 584h175l158 -281l49 281h203l-102 -584h-172l-158 282l-50 -282h-206z" />
    <glyph glyph-name="Ndotbelow.small" unicode="&#xe0e4;" horiz-adv-x="674" 
d="M190 -200l26 144h149l-25 -144h-150zM2 0l103 584h175l158 -281l49 281h203l-102 -584h-172l-158 282l-50 -282h-206z" />
    <glyph glyph-name="Ndescender.small" unicode="&#xe0e5;" horiz-adv-x="674" 
d="M2 0l103 584h175l158 -281l49 281h203l-137 -784h-204l43 242l-134 240l-50 -282h-206z" />
    <glyph glyph-name="Oacute.small" unicode="&#xe0e6;" horiz-adv-x="707" 
d="M295 637l128 190l137 -82l-127 -108h-138zM34 265q0 146 101 238.5t258 92.5q135 0 218.5 -73.5t83.5 -204.5q0 -146 -101 -238.5t-258 -92.5q-135 0 -218.5 73.5t-83.5 204.5zM257 270q0 -120 96 -120q49 0 84 49.5t35 114.5q0 119 -96 119q-49 0 -84 -49t-35 -114z" />
    <glyph glyph-name="Ograve.small" unicode="&#xe0e7;" horiz-adv-x="707" 
d="M349 637l-90 108l150 82l61 -190h-121zM34 265q0 146 101 238.5t258 92.5q135 0 218.5 -73.5t83.5 -204.5q0 -146 -101 -238.5t-258 -92.5q-135 0 -218.5 73.5t-83.5 204.5zM257 270q0 -120 96 -120q49 0 84 49.5t35 114.5q0 119 -96 119q-49 0 -84 -49t-35 -114z" />
    <glyph glyph-name="Ocircumflex.small" unicode="&#xe0e8;" horiz-adv-x="707" 
d="M173 637l140 160h243l84 -160h-157l-56 66h-5l-83 -66h-166zM34 265q0 146 101 238.5t258 92.5q135 0 218.5 -73.5t83.5 -204.5q0 -146 -101 -238.5t-258 -92.5q-135 0 -218.5 73.5t-83.5 204.5zM257 270q0 -120 96 -120q49 0 84 49.5t35 114.5q0 119 -96 119
q-49 0 -84 -49t-35 -114z" />
    <glyph glyph-name="Odieresis.small" unicode="&#xe0e9;" horiz-adv-x="707" 
d="M458 645l26 145h150l-25 -145h-151zM213 645l25 145h155l-26 -145h-154zM34 265q0 146 101 238.5t258 92.5q135 0 218.5 -73.5t83.5 -204.5q0 -146 -101 -238.5t-258 -92.5q-135 0 -218.5 73.5t-83.5 204.5zM257 270q0 -120 96 -120q49 0 84 49.5t35 114.5q0 119 -96 119
q-49 0 -84 -49t-35 -114z" />
    <glyph glyph-name="Otilde.small" unicode="&#xe0ea;" horiz-adv-x="707" 
d="M34 265q0 146 101 238.5t258 92.5q135 0 218.5 -73.5t83.5 -204.5q0 -146 -101 -238.5t-258 -92.5q-135 0 -218.5 73.5t-83.5 204.5zM257 270q0 -120 96 -120q49 0 84 49.5t35 114.5q0 119 -96 119q-49 0 -84 -49t-35 -114zM202 636q4 86 43 129.5t107 43.5
q36 0 77.5 -24.5t60.5 -24.5q34 0 37 39h112q-4 -86 -42.5 -129.5t-106.5 -43.5q-35 0 -76.5 24t-60.5 24q-34 0 -39 -38h-112z" />
    <glyph glyph-name="Ocaron.small" unicode="&#xe0eb;" horiz-adv-x="707" 
d="M286 637l-85 160h146l67 -75h5l92 75h157l-139 -160h-243zM34 265q0 146 101 238.5t258 92.5q135 0 218.5 -73.5t83.5 -204.5q0 -146 -101 -238.5t-258 -92.5q-135 0 -218.5 73.5t-83.5 204.5zM257 270q0 -120 96 -120q49 0 84 49.5t35 114.5q0 119 -96 119
q-49 0 -84 -49t-35 -114z" />
    <glyph glyph-name="Omacron.small" unicode="&#xe0ec;" horiz-adv-x="707" 
d="M219 657l21 121h365l-21 -121h-365zM34 265q0 146 101 238.5t258 92.5q135 0 218.5 -73.5t83.5 -204.5q0 -146 -101 -238.5t-258 -92.5q-135 0 -218.5 73.5t-83.5 204.5zM257 270q0 -120 96 -120q49 0 84 49.5t35 114.5q0 119 -96 119q-49 0 -84 -49t-35 -114z" />
    <glyph glyph-name="Obreve.small" unicode="&#xe0ed;" horiz-adv-x="707" 
d="M34 265q0 146 101 238.5t258 92.5q135 0 218.5 -73.5t83.5 -204.5q0 -146 -101 -238.5t-258 -92.5q-135 0 -218.5 73.5t-83.5 204.5zM257 270q0 -120 96 -120q49 0 84 49.5t35 114.5q0 119 -96 119q-49 0 -84 -49t-35 -114zM407 624q-75 0 -116.5 48.5t-35.5 124.5h120
q4 -51 43 -51t58 51h132q-18 -80 -69 -126.5t-132 -46.5z" />
    <glyph glyph-name="Oinvertedbreve.small" unicode="&#xe0ee;" horiz-adv-x="707" 
d="M418 810q75 0 116 -48.5t35 -124.5h-120q-4 51 -43 51t-58 -51h-132q18 80 69.5 126.5t132.5 46.5zM34 265q0 146 101 238.5t258 92.5q135 0 218.5 -73.5t83.5 -204.5q0 -146 -101 -238.5t-258 -92.5q-135 0 -218.5 73.5t-83.5 204.5zM257 270q0 -120 96 -120
q49 0 84 49.5t35 114.5q0 119 -96 119q-49 0 -84 -49t-35 -114z" />
    <glyph glyph-name="Ohungarumlaut.small" unicode="&#xe0ef;" horiz-adv-x="707" 
d="M226 637l127 190l123 -82l-129 -108h-121zM421 637l128 190l123 -82l-129 -108h-122zM34 265q0 146 101 238.5t258 92.5q135 0 218.5 -73.5t83.5 -204.5q0 -146 -101 -238.5t-258 -92.5q-135 0 -218.5 73.5t-83.5 204.5zM257 270q0 -120 96 -120q49 0 84 49.5t35 114.5
q0 119 -96 119q-49 0 -84 -49t-35 -114z" />
    <glyph glyph-name="Odoublegrave.small" unicode="&#xe0f0;" horiz-adv-x="707" 
d="M305 827l60 -190h-118l-90 108zM492 827l60 -190h-119l-89 108zM34 265q0 146 101 238.5t258 92.5q135 0 218.5 -73.5t83.5 -204.5q0 -146 -101 -238.5t-258 -92.5q-135 0 -218.5 73.5t-83.5 204.5zM257 270q0 -120 96 -120q49 0 84 49.5t35 114.5q0 119 -96 119
q-49 0 -84 -49t-35 -114z" />
    <glyph glyph-name="Ocommaturnedabove.small" unicode="&#xe0f1;" horiz-adv-x="707" 
d="M496 735l-16 -93q-41 -12 -86 -12q-53 0 -77.5 21t-24.5 53q0 51 60 117h139q-34 -52 -34 -70q0 -20 19 -20q12 0 20 4zM34 265q0 146 101 238.5t258 92.5q135 0 218.5 -73.5t83.5 -204.5q0 -146 -101 -238.5t-258 -92.5q-135 0 -218.5 73.5t-83.5 204.5zM257 270
q0 -120 96 -120q49 0 84 49.5t35 114.5q0 119 -96 119q-49 0 -84 -49t-35 -114z" />
    <glyph glyph-name="Otildemacron.small" unicode="&#xe0f2;" horiz-adv-x="707" 
d="M34 265q0 146 101 238.5t258 92.5q135 0 218.5 -73.5t83.5 -204.5q0 -146 -101 -238.5t-258 -92.5q-135 0 -218.5 73.5t-83.5 204.5zM257 270q0 -120 96 -120q49 0 84 49.5t35 114.5q0 119 -96 119q-49 0 -84 -49t-35 -114zM248 834l21 121h365l-21 -121h-365zM199 632
q4 86 43 129.5t107 43.5q36 0 77.5 -24.5t60.5 -24.5q34 0 37 39h112q-4 -86 -42.5 -129.5t-106.5 -43.5q-35 0 -76.5 24t-60.5 24q-34 0 -39 -38h-112z" />
    <glyph glyph-name="Odotabove.small" unicode="&#xe0f3;" horiz-adv-x="707" 
d="M320 645l25 145h151l-26 -145h-150zM34 265q0 146 101 238.5t258 92.5q135 0 218.5 -73.5t83.5 -204.5q0 -146 -101 -238.5t-258 -92.5q-135 0 -218.5 73.5t-83.5 204.5zM257 270q0 -120 96 -120q49 0 84 49.5t35 114.5q0 119 -96 119q-49 0 -84 -49t-35 -114z" />
    <glyph glyph-name="Odotabovemacron.small" unicode="&#xe0f4;" horiz-adv-x="707" 
d="M248 834l21 121h365l-21 -121h-365zM323 646l25 145h151l-26 -145h-150zM34 265q0 146 101 238.5t258 92.5q135 0 218.5 -73.5t83.5 -204.5q0 -146 -101 -238.5t-258 -92.5q-135 0 -218.5 73.5t-83.5 204.5zM257 270q0 -120 96 -120q49 0 84 49.5t35 114.5q0 119 -96 119
q-49 0 -84 -49t-35 -114z" />
    <glyph glyph-name="Ocedilla.small" unicode="&#xe0f5;" horiz-adv-x="707" 
d="M252 -38h138q-39 -112 -132 -190l-132 68q31 24 46.5 36.5t40 37.5t39.5 48zM34 265q0 146 101 238.5t258 92.5q135 0 218.5 -73.5t83.5 -204.5q0 -146 -101 -238.5t-258 -92.5q-135 0 -218.5 73.5t-83.5 204.5zM257 270q0 -120 96 -120q49 0 84 49.5t35 114.5
q0 119 -96 119q-49 0 -84 -49t-35 -114z" />
    <glyph glyph-name="Odotbelow.small" unicode="&#xe0f6;" horiz-adv-x="707" 
d="M222 -200l26 144h149l-25 -144h-150zM34 265q0 146 101 238.5t258 92.5q135 0 218.5 -73.5t83.5 -204.5q0 -146 -101 -238.5t-258 -92.5q-135 0 -218.5 73.5t-83.5 204.5zM257 270q0 -120 96 -120q49 0 84 49.5t35 114.5q0 119 -96 119q-49 0 -84 -49t-35 -114z" />
    <glyph glyph-name="Oogonek.small" unicode="&#xe0f7;" horiz-adv-x="707" 
d="M34 265q0 146 101 238.5t258 92.5q135 0 218.5 -73.5t83.5 -204.5q0 -94 -44 -168t-124 -117q-87 -47 -87 -83q0 -23 31 -23q21 0 42 7l3 -4l-22 -126q-44 -12 -90 -12q-55 0 -86.5 27t-31.5 67q0 54 51 101h-1q-135 0 -218.5 73.5t-83.5 204.5zM257 270q0 -120 96 -120
q49 0 84 49.5t35 114.5q0 119 -96 119q-49 0 -84 -49t-35 -114z" />
    </font>
</defs>
</svg>
