<?xml version="1.0" standalone="no"?>
<!DOCTYPE svg PUBLIC "-//W3C//DTD SVG 1.1//EN" "http://www.w3.org/Graphics/SVG/1.1/DTD/svg11.dtd" >
<svg xmlns="http://www.w3.org/2000/svg" xmlns:xlink="http://www.w3.org/1999/xlink" version="1.1">
<metadata>
Created by FontForge 20170731 at Wed Dec  2 20:29:21 2009
 By Aleksey,,,
Copyright (c) 2009 by Jackson Cavanaugh / Okay Type &#38; Design, LLC. All rights reserved.
</metadata>
<defs>
<font id="AlrightSans-Thin" horiz-adv-x="223" >
  <font-face 
    font-family="Alright Sans Thin"
    font-weight="275"
    font-stretch="normal"
    units-per-em="1000"
    panose-1="0 0 3 0 0 0 0 0 0 0"
    ascent="760"
    descent="-240"
    x-height="505"
    cap-height="700"
    bbox="-99 -360 1169 1025"
    underline-thickness="50"
    underline-position="-200"
    unicode-range="U+0020-FB06"
  />
<missing-glyph horiz-adv-x="900" 
d="M200 -237v992h500v-992h-500zM234 -206h432l-216 429zM666 724h-432l216 -430zM431 258l-200 399v-796zM469 258l200 -397v796z" />
    <glyph glyph-name="f_f_j" unicode="ffj" horiz-adv-x="843" 
d="M406 0v472h-245v-472h-39v472h-96v33h96v57q0 193 185 193q76 0 145 -44q46 49 141 49q92 0 168 -55l-19 -27q-69 49 -148 49q-72 0 -110.5 -37t-38.5 -124v-61h148v-33h-148v-472h-39zM161 562v-57h245v61q0 75 28 122q-57 34 -125 34q-72 0 -110 -37t-38 -123zM712 -38
v543h39v-542q0 -90 -37 -131.5t-100 -41.5q-20 0 -40 5l7 33q12 -4 31 -4q46 0 73 33.5t27 104.5z" />
    <glyph glyph-name="f_f_f" unicode="fff" horiz-adv-x="915" 
d="M406 0v472h-245v-472h-39v472h-96v33h96v57q0 193 185 193q78 0 146 -45q46 47 138 47q77 0 146 -44q47 47 137 47q27 0 55 -7l-9 -32q-16 6 -45 6q-70 0 -108 -37t-38 -123v-62h148v-33h-148v-472h-39v472h-245v-472h-39zM445 564v-59h245v61q0 77 29 123
q-58 35 -127 35q-71 0 -109 -37t-38 -123zM161 562v-57h245v59q0 77 29 123q-58 35 -126 35q-72 0 -110 -37t-38 -123z" />
    <glyph glyph-name="f_k" unicode="fk" horiz-adv-x="860" 
d="M122 0v472h-96v33h96v65q0 96 49 143t133 47t133 -47t49 -143v-356l266 291h47l-149 -161l182 -344h-44l-163 317l-139 -150v-167h-39v570q0 80 -38 118.5t-105 38.5t-105 -38.5t-38 -118.5v-65h149v-33h-149v-472h-39z" />
    <glyph glyph-name="f_j" unicode="fj" horiz-adv-x="559" 
d="M122 0v472h-96v33h96v61q0 194 187 194q92 0 168 -55l-19 -27q-69 49 -148 49q-72 0 -110.5 -37t-38.5 -124v-61h149v-33h-149v-472h-39zM428 -38v543h39v-542q0 -90 -37 -131.5t-100 -41.5q-20 0 -40 5l7 33q12 -4 31 -4q100 0 100 138z" />
    <glyph glyph-name="f_b" unicode="fb" horiz-adv-x="933" 
d="M122 0v472h-96v33h96v65q0 96 49 143t133 47t133 -47t49 -143v-137q81 85 171 85q96 0 153 -70t57 -188q0 -125 -55 -198.5t-154 -73.5q-96 0 -174 88l-5 -76h-32v570q0 80 -38 118.5t-105 38.5t-105 -38.5t-38 -118.5v-65h149v-33h-149v-472h-39zM486 113
q77 -92 167 -92q83 0 129 65t46 174q0 103 -47.5 163.5t-128.5 60.5q-87 0 -166 -90v-281z" />
    <glyph glyph-name="f_f_b" unicode="ffb" horiz-adv-x="1216" 
d="M406 0v472h-245v-472h-39v472h-96v33h96v57q0 193 185 193q77 0 146 -44q49 49 135 49q84 0 133 -47t49 -143v-137q81 85 171 85q95 0 152.5 -70t57.5 -188q0 -125 -55.5 -198.5t-154.5 -73.5q-95 0 -173 88l-5 -76h-32v570q0 80 -38 118.5t-105 38.5t-105 -38.5
t-38 -118.5v-65h149v-33h-149v-472h-39zM770 113q77 -92 167 -92q83 0 129 65t46 174q0 103 -47.5 163.5t-128.5 60.5q-87 0 -166 -90v-281zM161 562v-57h245v65q0 71 29 117q-58 35 -126 35q-72 0 -110 -37t-38 -123z" />
    <glyph glyph-name="f_f_h" unicode="ffh" horiz-adv-x="1209" 
d="M406 0v472h-245v-472h-39v472h-96v33h96v57q0 193 185 193q77 0 146 -44q49 49 135 49q84 0 133 -47t49 -143v-144q82 92 192 92q155 0 155 -166v-352h-38v352q0 133 -122 133q-106 0 -187 -98v-387h-39v570q0 80 -38 118.5t-105 38.5t-105 -38.5t-38 -118.5v-65h149v-33
h-149v-472h-39zM161 562v-57h245v65q0 71 29 117q-58 35 -126 35q-72 0 -110 -37t-38 -123z" />
    <glyph glyph-name="f_f_k" unicode="ffk" horiz-adv-x="1144" 
d="M406 0v472h-245v-472h-39v472h-96v33h96v57q0 193 185 193q77 0 146 -44q49 49 135 49q84 0 133 -47t49 -143v-356l266 291h47l-149 -161l182 -344h-44l-164 316l-138 -149v-167h-39v570q0 80 -38 118.5t-105 38.5t-105 -38.5t-38 -118.5v-65h149v-33h-149v-472h-39z
M161 562v-57h245v65q0 71 29 117q-58 35 -126 35q-72 0 -110 -37t-38 -123z" />
    <glyph glyph-name="f_h" unicode="fh" horiz-adv-x="925" 
d="M122 0v472h-96v33h96v65q0 96 49 143t133 47t133 -47t49 -143v-144q83 92 192 92q156 0 156 -166v-352h-39v352q0 133 -122 133q-104 0 -187 -98v-387h-39v570q0 80 -38 118.5t-105 38.5t-105 -38.5t-38 -118.5v-65h149v-33h-149v-472h-39z" />
    <glyph glyph-name="f_f" unicode="ff" horiz-adv-x="631" 
d="M406 0v472h-245v-472h-39v472h-96v33h96v57q0 193 185 193q76 0 145 -44q46 49 138 49q29 0 55 -7l-9 -32q-16 6 -45 6q-70 0 -108 -37t-38 -123v-62h149v-33h-149v-472h-39zM161 562v-57h245v61q0 76 28 121q-57 35 -125 35q-72 0 -110 -37t-38 -123z" />
    <glyph glyph-name="f_i" unicode="fi" horiz-adv-x="559" 
d="M122 0v472h-96v33h96v61q0 194 187 194q92 0 168 -55l-19 -27q-69 49 -148 49q-72 0 -110.5 -37t-38.5 -124v-61h149v-33h-149v-472h-39zM428 0v505h39v-505h-39z" />
    <glyph glyph-name="f_l" unicode="fl" horiz-adv-x="578" 
d="M122 0v472h-96v33h96v65q0 96 49 143t133 47t133 -47t49 -143v-570h-39v570q0 80 -38 118.5t-105 38.5t-105 -38.5t-38 -118.5v-65h149v-33h-149v-472h-39z" />
    <glyph glyph-name="f_f_i" unicode="ffi" horiz-adv-x="843" 
d="M406 0v472h-245v-472h-39v472h-96v33h96v57q0 193 185 193q76 0 145 -44q46 49 141 49q92 0 168 -55l-19 -27q-69 49 -148 49q-72 0 -110.5 -37t-38.5 -124v-61h148v-33h-148v-472h-39zM161 505h245v61q0 75 28 122q-57 34 -125 34q-72 0 -110 -37t-38 -123v-57zM712 0
v505h39v-505h-39z" />
    <glyph glyph-name="f_f_l" unicode="ffl" horiz-adv-x="862" 
d="M406 0v472h-245v-472h-39v472h-96v33h96v57q0 193 185 193q77 0 146 -44q49 49 135 49q84 0 133 -47t49 -143v-570h-39v570q0 80 -38 118.5t-105 38.5t-105 -38.5t-38 -118.5v-65h149v-33h-149v-472h-39zM161 562v-57h245v65q0 71 29 117q-58 35 -126 35q-72 0 -110 -37
t-38 -123z" />
    <glyph glyph-name=".notdef" horiz-adv-x="900" 
d="M200 -237v992h500v-992h-500zM234 -206h432l-216 429zM666 724h-432l216 -430zM431 258l-200 399v-796zM469 258l200 -397v796z" />
    <glyph glyph-name=".null" horiz-adv-x="0" 
 />
    <glyph glyph-name="nonmarkingreturn" horiz-adv-x="333" 
 />
    <glyph glyph-name="space" unicode=" " horiz-adv-x="257" 
 />
    <glyph glyph-name="exclam" unicode="!" horiz-adv-x="233" 
d="M104 199l-10 251v250h44v-250l-11 -251h-23zM96 0v93h41v-93h-41z" />
    <glyph glyph-name="quotedbl" unicode="&#x22;" horiz-adv-x="382" 
d="M79 472v228h46l-21 -230zM258 472v228h46l-21 -230z" />
    <glyph glyph-name="numbersign" unicode="#" horiz-adv-x="638" 
d="M72 360v32h143l23 139h36l-23 -139h169l23 139h35l-23 -139h144v-32h-150l-30 -181h145v-32h-151l-24 -147h-35l24 147h-168l-24 -147h-34l24 147h-137v32h142l29 181h-138zM246 360l-30 -181h168l30 181h-168z" />
    <glyph glyph-name="dollar" unicode="$" horiz-adv-x="516" 
d="M56 39l19 30q71 -45 174 -48v233q-35 7 -55.5 12.5t-48 17t-43 25.5t-26.5 38t-11 55q0 60 48.5 99t134.5 42v107h30v-108q84 -2 161 -35l-15 -31q-65 29 -147 33v-226q35 -7 55.5 -12.5t48.5 -17.5t43.5 -26.5t27 -39t11.5 -55.5q0 -62 -47.5 -100.5t-137.5 -42.5v-122
h-30v121q-112 3 -192 51zM425 132q0 28 -11 48t-34.5 33t-45.5 20t-57 15v-227q74 4 111 33.5t37 77.5zM103 403q0 -52 37.5 -75.5t108.5 -38.5v220q-69 -2 -107.5 -31t-38.5 -75z" />
    <glyph glyph-name="percent" unicode="%" horiz-adv-x="711" 
d="M530 531h37l-394 -531h-37zM58 411q0 55 38.5 93t93.5 38t93.5 -38t38.5 -93t-38 -93t-94 -38t-94 38t-38 93zM89 411q0 -43 29.5 -72.5t72.5 -29.5t72 29.5t29 72.5t-29 72t-72 29t-72.5 -29t-29.5 -72zM389 120q0 55 38 92.5t94 37.5q55 0 93.5 -37.5t38.5 -92.5
t-38.5 -93.5t-93.5 -38.5t-93.5 38t-38.5 94zM419 120q0 -43 29.5 -72.5t73.5 -29.5q42 0 71.5 29.5t29.5 72.5q0 42 -29.5 71.5t-71.5 29.5q-43 0 -73 -29.5t-30 -71.5z" />
    <glyph glyph-name="ampersand" unicode="&#x26;" horiz-adv-x="740" 
d="M49 191q0 68 42.5 124.5t110.5 94.5q-55 73 -55 144q0 65 47 111.5t122 46.5q101 0 160 -68l-26 -23q-49 58 -135 58q-58 0 -94 -37t-36 -88q0 -68 67 -145q100 -116 285 -255q60 84 60 181h36q0 -110 -68 -202q47 -35 145 -105l-23 -29q-86 61 -146 105
q-49 -54 -116 -85t-142 -31q-111 0 -172.5 59.5t-61.5 143.5zM513 125q-182 138 -291 260q-61 -32 -98.5 -82t-37.5 -111q0 -70 52.5 -120t145.5 -50q134 0 229 103z" />
    <glyph glyph-name="quotesingle" unicode="'" horiz-adv-x="203" 
d="M79 472v228h46l-21 -230z" />
    <glyph glyph-name="parenleft" unicode="(" horiz-adv-x="356" 
d="M64 277q0 265 196 478h46q-204 -206 -204 -478q0 -265 204 -477h-46q-196 217 -196 477z" />
    <glyph glyph-name="parenright" unicode=")" horiz-adv-x="356" 
d="M292 277q0 -260 -196 -477h-46q204 212 204 477q0 272 -204 478h46q196 -213 196 -478z" />
    <glyph glyph-name="asterisk" unicode="*" horiz-adv-x="417" 
d="M149 402l49 139l-1 2l-147 -15v41l147 -5v2l-58 134l38 12l41 -139l3 -1l109 96l24 -31l-120 -81v-3l127 -74l-24 -34l-114 88l-2 -1l-35 -142z" />
    <glyph glyph-name="plus" unicode="+" horiz-adv-x="612" 
d="M53 235v36h235v235h37v-235h234v-36h-234v-235h-37v235h-235z" />
    <glyph glyph-name="comma" unicode="," horiz-adv-x="200" 
d="M79 0v96h42v-91q0 -55 -18 -87.5t-58 -50.5l-12 21q32 18 44 44t12 68h-10z" />
    <glyph glyph-name="hyphen" unicode="-" horiz-adv-x="369" 
d="M48 239v37h273v-37h-273z" />
    <glyph glyph-name="period" unicode="." horiz-adv-x="200" 
d="M79 0v96h42v-96h-42z" />
    <glyph glyph-name="slash" unicode="/" horiz-adv-x="468" 
d="M-10 -200l447 955h41l-447 -955h-41z" />
    <glyph glyph-name="zero" unicode="0" horiz-adv-x="642" 
d="M57 265q0 121 76.5 199t187.5 78t187.5 -78t76.5 -199t-76.5 -199t-187.5 -78t-187.5 78t-76.5 199zM97 265q0 -104 64 -173.5t160 -69.5q97 0 160.5 69.5t63.5 173.5q0 105 -63.5 174t-160.5 69q-96 0 -160 -69t-64 -174z" />
    <glyph glyph-name="one" unicode="1" horiz-adv-x="416" 
d="M266 0h-39v492l-133 -59l-15 31l152 68h35v-532z" />
    <glyph glyph-name="two" unicode="2" horiz-adv-x="585" 
d="M523 0h-450v22q0 58 29.5 101t75 66t98 44.5t98 38.5t75.5 46.5t30 69.5q0 59 -50 89.5t-122 30.5q-58 0 -114 -23.5t-92 -60.5l-25 26q41 40 105 66t125 26q90 0 151.5 -40t61.5 -112q0 -56 -41.5 -94t-101 -60.5l-119 -45t-102 -61.5t-43.5 -95h411v-34z" />
    <glyph glyph-name="three" unicode="3" horiz-adv-x="566" 
d="M46 -141l15 33q86 -39 177 -39q107 0 177 48.5t70 131.5q0 73 -60.5 110.5t-145.5 37.5h-88v33h86q72 0 125.5 40t53.5 113q0 61 -53.5 102t-141.5 41q-55 0 -107 -23t-88 -60l-25 25q42 41 101.5 66.5t119.5 25.5q104 0 168.5 -50t64.5 -126q0 -67 -39.5 -109.5
t-106.5 -57.5q74 -10 125 -53t51 -116q0 -99 -81 -156t-206 -57q-106 0 -192 40z" />
    <glyph glyph-name="four" unicode="4" horiz-adv-x="616" 
d="M46 0l-12 38l379 494h49v-498h124v-34h-124v-169h-38v169h-378zM77 34h347v457z" />
    <glyph glyph-name="five" unicode="5" horiz-adv-x="559" 
d="M53 -140l16 33q80 -40 167 -40q104 0 170.5 53.5t66.5 142.5q0 81 -59.5 130.5t-157.5 49.5q-54 0 -144 -30l-27 19l10 313h373l1 -34h-339l-9 -265q79 31 141 31q112 0 181 -58.5t69 -155.5q0 -106 -77.5 -168t-198.5 -62q-106 0 -183 41z" />
    <glyph glyph-name="six" unicode="6" horiz-adv-x="619" 
d="M65 326q0 102 25 179t68 120.5t94 65t109 21.5q89 0 156 -31l-16 -32q-68 29 -140 29q-50 0 -95 -19.5t-82.5 -59.5t-59 -111.5t-20.5 -166.5q38 46 101.5 76.5t129.5 30.5q99 0 163 -59t64 -156q0 -93 -64 -159t-172 -66q-133 0 -197 94t-64 244zM105 284
q8 -119 63 -190.5t158 -71.5q90 0 143.5 56t53.5 134q0 82 -54 133t-137 51q-66 0 -131 -32.5t-96 -79.5z" />
    <glyph glyph-name="seven" unicode="7" horiz-adv-x="569" 
d="M168 -169l309 665h-430v35h471v-28l-307 -672h-43z" />
    <glyph glyph-name="eight" unicode="8" horiz-adv-x="644" 
d="M59 177q0 75 56 122t145 64q-75 14 -121 57.5t-46 109.5q0 82 65 132t164 50q100 0 165 -50t65 -132q0 -66 -46.5 -109.5t-121.5 -57.5q89 -17 145.5 -64t56.5 -122q0 -88 -73.5 -138.5t-190.5 -50.5q-116 0 -189.5 50.5t-73.5 138.5zM98 177q0 -71 63 -113.5t161 -42.5
t161.5 42.5t63.5 113.5q0 72 -64.5 115t-160.5 53q-95 -10 -159.5 -53t-64.5 -115zM322 378q85 9 137.5 48.5t52.5 103.5q0 66 -54 107.5t-136 41.5t-136 -41.5t-54 -107.5q0 -64 52.5 -103.5t137.5 -48.5z" />
    <glyph glyph-name="nine" unicode="9" horiz-adv-x="615" 
d="M88 -138l19 30q64 -40 149 -40q51 0 96 19.5t82.5 59.5t59 111t21.5 166q-39 -46 -102.5 -76.5t-129.5 -30.5q-100 0 -164.5 59.5t-64.5 156.5q0 93 64 159t173 66q133 0 198 -94.5t65 -244.5q0 -102 -25 -178.5t-68 -120.5t-94.5 -65t-110.5 -21q-96 1 -168 44zM286 134
q67 0 131.5 32.5t95.5 78.5q-8 119 -63.5 191t-159.5 72q-91 0 -145 -56t-54 -135q0 -81 55.5 -132t139.5 -51z" />
    <glyph glyph-name="colon" unicode=":" horiz-adv-x="200" 
d="M79 0v96h42v-96h-42zM79 410v96h42v-96h-42z" />
    <glyph glyph-name="semicolon" unicode=";" horiz-adv-x="200" 
d="M79 0v96h42v-91q0 -55 -18 -87.5t-58 -50.5l-12 21q32 18 44 44t12 68h-10zM79 410v96h42v-96h-42z" />
    <glyph glyph-name="less" unicode="&#x3c;" horiz-adv-x="642" 
d="M574 42v-42l-530 233v39l530 234v-43l-486 -210z" />
    <glyph glyph-name="equal" unicode="=" horiz-adv-x="612" 
d="M53 355v36h506v-36h-506zM53 116v36h506v-36h-506z" />
    <glyph glyph-name="greater" unicode="&#x3e;" horiz-adv-x="642" 
d="M68 0v42l486 211l-486 210v43l530 -234v-39z" />
    <glyph glyph-name="question" unicode="?" horiz-adv-x="500" 
d="M191 199v12q0 43 16 77.5t39.5 55t51.5 42t51.5 39.5t39.5 47.5t16 66.5q0 60 -47.5 99.5t-123.5 39.5q-92 0 -164 -74l-26 24q79 84 191 84q94 0 151.5 -48.5t57.5 -123.5q0 -43 -16 -76.5t-40.5 -54t-53 -42.5t-53 -41t-41 -49t-16.5 -68v-10h-33zM187 0v93h41v-93h-41
z" />
    <glyph glyph-name="at" unicode="@" horiz-adv-x="839" 
d="M69 278q0 151 106.5 257t258.5 106q149 0 242.5 -91.5t93.5 -233.5q0 -110 -57 -176t-131 -66q-44 0 -68 25.5t-22 64.5q-52 -76 -135 -76q-52 0 -83 36t-31 96q0 93 58 173t150 80q62 0 103 -53l12 43h31l-70 -250q-16 -48 -1 -80t59 -32q61 0 108.5 59.5t47.5 155.5
q0 131 -85 213.5t-222 82.5q-139 0 -237.5 -98t-98.5 -236q0 -137 98.5 -235t237.5 -98q91 0 170 46l16 -25q-86 -50 -186 -50q-152 0 -258.5 106t-106.5 256zM277 222q0 -48 22 -76.5t63 -28.5q44 0 82.5 30.5t55.5 86.5l46 160q-38 50 -95 50q-75 0 -124.5 -72t-49.5 -150
z" />
    <glyph glyph-name="A" unicode="A" horiz-adv-x="670" 
d="M37 0l273 700h51l272 -700h-45l-75 199h-356l-75 -199h-45zM334 666l-164 -433h330l-164 433h-2z" />
    <glyph glyph-name="B" unicode="B" horiz-adv-x="672" 
d="M93 0v700h265q107 0 162.5 -49.5t55.5 -125.5q0 -64 -34.5 -106.5t-91.5 -58.5q71 -14 113 -57t42 -111q0 -92 -58 -142t-163 -50h-291zM132 34h252q87 0 134.5 41.5t47.5 117.5q0 69 -51.5 108t-131.5 39h-251v-306zM132 374h225q89 0 134.5 42.5t45.5 106.5
q0 62 -45.5 102.5t-134.5 40.5h-225v-292z" />
    <glyph glyph-name="C" unicode="C" horiz-adv-x="713" 
d="M63 359q0 158 96 255.5t250 97.5q127 0 217 -67l-22 -31q-83 63 -195 63q-137 0 -221.5 -88t-84.5 -230q0 -151 84 -243.5t222 -92.5q127 0 208 75l25 -27q-91 -83 -234 -83q-156 0 -250.5 102t-94.5 269z" />
    <glyph glyph-name="D" unicode="D" horiz-adv-x="705" 
d="M93 0v700h184q177 0 271 -90t94 -251q0 -172 -91.5 -265.5t-273.5 -93.5h-184zM132 35h146q161 0 242.5 84.5t81.5 239.5q0 144 -83.5 225t-240.5 81h-146v-630z" />
    <glyph glyph-name="E" unicode="E" horiz-adv-x="633" 
d="M93 0v700h460v-35h-421v-291h380v-34h-380v-305h428v-35h-467z" />
    <glyph glyph-name="F" unicode="F" horiz-adv-x="613" 
d="M93 0v700h451v-35h-412v-293h370v-35h-370v-337h-39z" />
    <glyph glyph-name="G" unicode="G" horiz-adv-x="723" 
d="M63 359q0 158 95.5 255.5t250.5 97.5q126 0 218 -56l-20 -31q-83 52 -198 52q-137 0 -221.5 -88t-84.5 -230q0 -154 82 -245t224 -91q119 0 194 50v244h-221v33h258v-297q-95 -65 -231 -65q-159 0 -252.5 100.5t-93.5 270.5z" />
    <glyph glyph-name="H" unicode="H" horiz-adv-x="694" 
d="M93 0v700h39v-326h430v326h39v-700h-39v339h-430v-339h-39z" />
    <glyph glyph-name="I" unicode="I" horiz-adv-x="225" 
d="M93 0v700h39v-700h-39z" />
    <glyph glyph-name="J" unicode="J" horiz-adv-x="564" 
d="M57 136l35 14q18 -53 59 -90t109 -37q87 0 131 55.5t44 148.5v473h39v-474q0 -110 -53.5 -174t-159.5 -64q-82 0 -132.5 43t-71.5 105z" />
    <glyph glyph-name="K" unicode="K" horiz-adv-x="658" 
d="M93 0v700h39v-442l394 442h50l-231 -258l260 -442h-48l-237 413l-188 -210v-203h-39z" />
    <glyph glyph-name="L" unicode="L" horiz-adv-x="603" 
d="M93 0v700h39v-665h421v-35h-460z" />
    <glyph glyph-name="M" unicode="M" horiz-adv-x="843" 
d="M93 0v700h53l275 -409l276 409h53v-700h-39v655l-290 -428l-290 429v-656h-38z" />
    <glyph glyph-name="N" unicode="N" horiz-adv-x="714" 
d="M93 0v700h48l441 -650v650h39v-700h-49l-441 649v-649h-38z" />
    <glyph glyph-name="O" unicode="O" horiz-adv-x="807" 
d="M63 356q0 159 98 257.5t242 98.5t242.5 -98.5t98.5 -257.5q0 -168 -96.5 -268t-244.5 -100q-147 0 -243.5 100t-96.5 268zM103 356q0 -152 85 -242.5t215 -90.5t215.5 90.5t85.5 242.5q0 142 -87 231.5t-214 89.5q-126 0 -213 -89.5t-87 -231.5z" />
    <glyph glyph-name="P" unicode="P" horiz-adv-x="652" 
d="M93 0v700h268q60 0 105 -17t70 -46.5t37 -63.5t12 -73q0 -81 -55.5 -141.5t-170.5 -60.5h-227v-298h-39zM132 332h227q96 0 141.5 50t45.5 118q0 69 -44.5 117.5t-140.5 48.5h-229v-334z" />
    <glyph glyph-name="Q" unicode="Q" horiz-adv-x="816" 
d="M63 356q0 159 98 257.5t242 98.5t242.5 -98.5t98.5 -257.5q0 -157 -88 -258l98 -85l-24 -26l-98 86q-93 -85 -229 -85q-147 0 -243.5 100t-96.5 268zM465 220l24 27l138 -124q77 90 77 233q0 142 -87 231.5t-214 89.5q-126 0 -213 -89.5t-87 -231.5q0 -152 85 -242.5
t215 -90.5q119 0 201 76z" />
    <glyph glyph-name="R" unicode="R" horiz-adv-x="667" 
d="M93 0v700h279q115 0 169.5 -58.5t54.5 -141.5q0 -69 -41 -125t-124 -71l161 -304h-45l-155 299h-20h-240v-299h-39zM132 332h238q95 0 141 50.5t46 117.5q0 69 -45 117.5t-140 48.5h-240v-334z" />
    <glyph glyph-name="S" unicode="S" horiz-adv-x="602" 
d="M59 56l21 32q93 -65 223 -65q98 0 148.5 41.5t50.5 108.5q0 47 -24 78.5t-62 47t-84 27t-91.5 24t-83.5 31.5t-62 57t-24 93q0 79 61 130t166 51q122 0 216 -49l-17 -33q-92 47 -198 47q-87 0 -137.5 -41t-50.5 -105q0 -47 24 -78.5t62 -47t84 -26.5t91.5 -23.5
t83.5 -31.5t62 -57t24 -94q0 -83 -61 -134t-178 -51q-72 0 -137 19.5t-107 48.5z" />
    <glyph glyph-name="T" unicode="T" horiz-adv-x="640" 
d="M300 0v664h-268v36h576v-36h-269v-664h-39z" />
    <glyph glyph-name="U" unicode="U" horiz-adv-x="710" 
d="M90 254v446h39v-446q0 -109 64.5 -170t161.5 -61t161.5 61t64.5 170v446h39v-446q0 -127 -74.5 -196.5t-190.5 -69.5t-190.5 69.5t-74.5 196.5z" />
    <glyph glyph-name="V" unicode="V" horiz-adv-x="652" 
d="M302 0l-265 700h44l244 -660h2l244 660h43l-265 -700h-47z" />
    <glyph glyph-name="W" unicode="W" horiz-adv-x="1016" 
d="M263 0l-225 700h43l205 -654h2l197 654h46l197 -654h2l206 654h42l-225 -700h-48l-196 650h-2l-196 -650h-48z" />
    <glyph glyph-name="X" unicode="X" horiz-adv-x="663" 
d="M46 0l261 358l-250 342h50l225 -313l225 313h49l-250 -342l262 -358h-51l-236 328l-235 -328h-50z" />
    <glyph glyph-name="Y" unicode="Y" horiz-adv-x="640" 
d="M300 0v288l-263 412h48l234 -376h2l234 376h48l-263 -412v-288h-40z" />
    <glyph glyph-name="Z" unicode="Z" horiz-adv-x="642" 
d="M63 0v41l463 623h-463v36h507v-41l-462 -623h472v-36h-517z" />
    <glyph glyph-name="bracketleft" unicode="[" horiz-adv-x="352" 
d="M127 -168h156v-32h-194v955h194v-32h-156v-891z" />
    <glyph glyph-name="backslash" unicode="\" horiz-adv-x="468" 
d="M31 755l447 -955h-41l-447 955h41z" />
    <glyph glyph-name="bracketright" unicode="]" horiz-adv-x="352" 
d="M69 -168h156v891h-156v32h194v-955h-194v32z" />
    <glyph glyph-name="asciicircum" unicode="^" horiz-adv-x="513" 
d="M99 562l139 170h36l140 -170h-39l-119 125l-119 -125h-38z" />
    <glyph glyph-name="underscore" unicode="_" horiz-adv-x="542" 
d="M0 -12h542v-36h-542v36z" />
    <glyph glyph-name="grave" unicode="`" horiz-adv-x="653" 
d="M382 561l-140 141l31 24l138 -165h-29z" />
    <glyph glyph-name="a" unicode="a" horiz-adv-x="504" 
d="M53 109q0 153 318 167v99q0 49 -30.5 79t-91.5 30q-78 0 -160 -45l-17 33q84 45 177 45q81 0 120.5 -38.5t39.5 -103.5v-284q0 -30 15 -45.5t42 -15.5v-30q-80 0 -92 70q-29 -36 -76 -59t-102 -23q-64 0 -103.5 33t-39.5 88zM92 110q0 -41 29.5 -65t79.5 -24
q55 0 100.5 24t69.5 59v143q-279 -12 -279 -137z" />
    <glyph glyph-name="b" unicode="b" horiz-adv-x="573" 
d="M92 0v755h39v-322q80 84 171 84q96 0 153 -69.5t57 -187.5q0 -125 -55 -198.5t-154 -73.5q-96 0 -174 88l-5 -76h-32zM131 113q77 -92 167 -92q83 0 129 65t46 174q0 103 -47.5 163.5t-128.5 60.5q-87 0 -166 -90v-281z" />
    <glyph glyph-name="c" unicode="c" horiz-adv-x="503" 
d="M61 260q0 117 63.5 187t165.5 70q91 0 150 -46l-22 -29q-57 42 -128 42q-85 0 -137.5 -61.5t-52.5 -162.5q0 -109 51.5 -173.5t138.5 -64.5q76 0 138 50l24 -26q-68 -58 -162 -58q-104 0 -166.5 73.5t-62.5 198.5z" />
    <glyph glyph-name="d" unicode="d" horiz-adv-x="573" 
d="M271 -12q-99 0 -154.5 73.5t-55.5 198.5q0 118 57.5 187.5t153.5 69.5q91 0 171 -84v322h38v-755h-30l-7 76q-78 -88 -173 -88zM275 21q90 0 168 92v281q-81 90 -167 90q-81 0 -128.5 -60.5t-47.5 -163.5q0 -109 46 -174t129 -65z" />
    <glyph glyph-name="e" unicode="e" horiz-adv-x="555" 
d="M61 260q0 117 65.5 187.5t167.5 70.5q98 0 147 -60t49 -158q0 -16 -2 -32h-388v-8q0 -113 49.5 -176t146.5 -63q83 0 155 51l20 -29q-76 -55 -176 -55q-115 0 -174.5 71.5t-59.5 200.5zM295 485q-78 0 -130.5 -50.5t-62.5 -136.5h350q2 83 -36.5 135t-120.5 52z" />
    <glyph glyph-name="f" unicode="f" horiz-adv-x="348" 
d="M122 0v472h-96v33h96v62q0 193 185 193q28 0 54 -7l-9 -32q-16 6 -45 6q-70 0 -108 -37t-38 -123v-62h149v-33h-149v-472h-39z" />
    <glyph glyph-name="g" unicode="g" horiz-adv-x="557" 
d="M42 -78q0 77 100 114q-48 25 -48 73q0 44 45 72q-85 52 -85 153q0 79 58.5 131t143.5 52q73 0 129 -40q61 44 142 41v-33q-79 3 -123 -23q55 -53 55 -128q0 -80 -59 -133t-144 -53q-52 0 -95 20q-34 -20 -34 -53q0 -15 5.5 -26.5t19 -18.5t25 -11.5t35 -7.5t37.5 -4
t43 -3q224 -12 224 -123q0 -64 -62.5 -97.5t-180.5 -33.5q-110 0 -170.5 35t-60.5 97zM256 180q70 0 118 44t48 110q0 64 -48 108t-118 44q-69 0 -116.5 -44t-47.5 -108q0 -66 47.5 -110t116.5 -44zM283 11q-57 1 -105 13q-44 -13 -71 -39t-27 -62q0 -48 50.5 -75t142.5 -27
q98 0 152 25t54 73q0 83 -196 92z" />
    <glyph glyph-name="h" unicode="h" horiz-adv-x="565" 
d="M92 0v755h39v-329q83 92 192 92q156 0 156 -166v-352h-39v352q0 133 -122 133q-104 0 -187 -98v-387h-39z" />
    <glyph glyph-name="i" unicode="i" 
d="M92 0v505h39v-505h-39zM92 665v72h39v-72h-39z" />
    <glyph glyph-name="j" unicode="j" horiz-adv-x="231" 
d="M100 -38v543h39v-542q0 -173 -138 -173q-21 0 -39 5l7 33q12 -4 31 -4q46 0 73 33.5t27 104.5zM100 664v73h39v-73h-39z" />
    <glyph glyph-name="k" unicode="k" horiz-adv-x="503" 
d="M92 0v755h39v-541l266 291h47l-151 -163l182 -342h-44l-163 315l-137 -148v-167h-39z" />
    <glyph glyph-name="l" unicode="l" 
d="M92 0v755h39v-755h-39z" />
    <glyph glyph-name="m" unicode="m" horiz-adv-x="874" 
d="M88 0v505h35l4 -73q84 86 183 86q109 0 138 -91q87 91 191 91q149 0 149 -166v-352h-38v353q0 131 -116 131q-99 0 -178 -89q3 -21 3 -44v-351h-39v353q0 131 -115 131q-102 0 -178 -92v-392h-39z" />
    <glyph glyph-name="n" unicode="n" horiz-adv-x="561" 
d="M88 0v505h35l4 -78q86 91 192 91q156 0 156 -166v-352h-39v352q0 133 -122 133q-106 0 -187 -99v-386h-39z" />
    <glyph glyph-name="o" unicode="o" horiz-adv-x="591" 
d="M61 260q0 116 66 186.5t169 70.5q102 0 167.5 -70.5t65.5 -186.5q0 -124 -64 -198t-169 -74q-106 0 -170.5 74t-64.5 198zM100 260q0 -109 53.5 -174t142.5 -65q87 0 140.5 65.5t53.5 173.5q0 100 -54.5 162t-139.5 62q-86 0 -141 -62t-55 -162z" />
    <glyph glyph-name="p" unicode="p" horiz-adv-x="573" 
d="M131 74v-274h-39v705h32l5 -74q80 86 172 86q96 0 153.5 -69.5t57.5 -187.5q0 -125 -55.5 -198.5t-154.5 -73.5q-95 0 -171 86zM131 113q77 -92 167 -92q83 0 129 65t46 174q0 103 -47.5 163.5t-128.5 60.5q-88 0 -166 -90v-281z" />
    <glyph glyph-name="q" unicode="q" horiz-adv-x="573" 
d="M275 21q90 0 168 92v281q-81 90 -167 90q-80 0 -128 -60.5t-48 -163.5q0 -109 46 -174t129 -65zM271 -12q-99 0 -154.5 73.5t-55.5 198.5q0 118 57.5 187.5t153.5 69.5q91 0 171 -86l6 74h32v-705h-38v274q-79 -86 -172 -86z" />
    <glyph glyph-name="r" unicode="r" horiz-adv-x="373" 
d="M88 0v505h34l5 -89q60 102 162 102q34 0 60 -7l-8 -38q-30 8 -55 8q-96 0 -159 -107v-374h-39z" />
    <glyph glyph-name="s" unicode="s" horiz-adv-x="443" 
d="M44 34l19 30q68 -43 158 -43q68 0 103.5 27.5t35.5 74.5q0 44 -32 69t-77.5 36t-91 23.5t-77.5 44t-32 85.5q0 60 46 98t122 38q90 0 158 -35l-16 -32q-66 34 -142 34q-60 0 -95 -28.5t-35 -73.5q0 -44 32 -69t77.5 -35.5t91 -22.5t77.5 -44t32 -87q0 -63 -45.5 -99.5
t-130.5 -36.5q-105 0 -178 46z" />
    <glyph glyph-name="t" unicode="t" horiz-adv-x="357" 
d="M122 125v348h-96v32h96v166h39v-166h150v-32h-150v-348q0 -52 19.5 -78t66.5 -26q37 0 73 22l16 -27q-42 -28 -91 -28q-65 0 -94 34.5t-29 102.5z" />
    <glyph glyph-name="u" unicode="u" horiz-adv-x="561" 
d="M86 154v351h39v-352q0 -132 122 -132q107 0 187 98v386h39v-505h-32l-6 78q-88 -90 -193 -90q-156 0 -156 166z" />
    <glyph glyph-name="v" unicode="v" horiz-adv-x="474" 
d="M216 0l-188 505h43l165 -461h2l167 461h41l-188 -505h-42z" />
    <glyph glyph-name="w" unicode="w" horiz-adv-x="787" 
d="M202 0l-174 505h41l156 -462h1l147 462h40l148 -462h1l154 462h42l-174 -505h-46l-144 454h-2l-144 -454h-46z" />
    <glyph glyph-name="x" unicode="x" horiz-adv-x="484" 
d="M34 0l185 256l-174 249h45l152 -221l152 221h45l-173 -249l183 -256h-45l-162 229l-162 -229h-46z" />
    <glyph glyph-name="y" unicode="y" horiz-adv-x="475" 
d="M34 -165q24 -11 51 -11q34 0 55.5 15.5t37.5 56.5l41 108l-191 501h43l167 -449h2l165 449h42l-232 -617q-37 -98 -129 -98q-33 0 -64 12z" />
    <glyph glyph-name="z" unicode="z" horiz-adv-x="483" 
d="M56 0v33l321 439h-313v33h361v-31l-321 -441h332v-33h-380z" />
    <glyph glyph-name="braceleft" unicode="{" horiz-adv-x="419" 
d="M304 -169h51v-31h-52q-136 0 -136 130v218q0 56 -21.5 80t-76.5 24h-35v37h35q55 0 76.5 24t21.5 80v232q0 130 136 130h52v-31h-51q-51 0 -74.5 -24t-23.5 -76v-228q0 -107 -78 -124v-1q78 -19 78 -125v-215q0 -52 23.5 -76t74.5 -24z" />
    <glyph glyph-name="bar" unicode="|" horiz-adv-x="255" 
d="M108 -200v955h38v-955h-38z" />
    <glyph glyph-name="braceright" unicode="}" horiz-adv-x="419" 
d="M64 -169h51q51 0 74.5 24t23.5 76v215q0 106 78 125v1q-78 17 -78 124v228q0 52 -23.5 76t-74.5 24h-51v31h52q136 0 136 -130v-232q0 -56 21.5 -80t76.5 -24h35v-37h-35q-55 0 -76.5 -24t-21.5 -80v-218q0 -130 -136 -130h-52v31z" />
    <glyph glyph-name="asciitilde" unicode="~" horiz-adv-x="568" 
d="M79 200q-1 7 -1 17q0 57 27 88.5t73 31.5q35 0 73.5 -30t74.5 -60t63 -30q32 0 51.5 25t15.5 76h33q1 -8 1 -17q0 -57 -27 -89t-73 -32q-27 0 -57.5 19t-53 41t-50.5 41t-50 19q-32 0 -51.5 -24.5t-15.5 -75.5h-33z" />
    <glyph glyph-name="nbspace" unicode="&#xa0;" horiz-adv-x="257" 
 />
    <glyph glyph-name="exclamdown" unicode="&#xa1;" horiz-adv-x="233" 
d="M94 56l10 251h23l11 -251v-250h-44v250zM96 413v93h41v-93h-41z" />
    <glyph glyph-name="cent" unicode="&#xa2;" horiz-adv-x="573" 
d="M50 273q0 120 78.5 195t204.5 75q4 0 12 -0.5t12 -0.5l25 108h31l-25 -112q67 -10 123 -47l-20 -28q-50 33 -112 42l-107 -478q28 -6 61 -6q106 0 169 57l23 -26q-73 -64 -192 -64q-35 0 -67 6l-29 -127h-32l32 134q-87 26 -137 98t-50 174zM88 273q0 -89 41.5 -152
t115.5 -87l106 474q-6 1 -18 1q-110 0 -177.5 -65t-67.5 -171z" />
    <glyph glyph-name="sterling" unicode="&#xa3;" horiz-adv-x="553" 
d="M102 264v30h89q-44 68 -44 125q0 54 37 88.5t103 34.5q100 0 142 -77l-33 -15q-34 59 -108 59q-49 0 -76 -25t-27 -65q0 -51 49 -126h131v-29h-112q44 -68 44 -129q0 -22 -7 -45q26 -22 44 -34.5t44.5 -23t50.5 -10.5q76 0 76 89h36q1 -60 -27 -91.5t-81 -31.5
q-42 0 -77.5 19t-79.5 54q-21 -35 -59 -54t-75 -19q-46 0 -72.5 25.5t-26.5 62.5q0 38 27.5 63t70.5 25q51 0 118 -50q2 12 2 19q0 54 -44 122l-6 9h-109zM140 17q30 0 61.5 17.5t47.5 48.5q-67 52 -109 52q-29 0 -47.5 -17.5t-18.5 -41.5t17.5 -41.5t48.5 -17.5z" />
    <glyph glyph-name="currency" unicode="&#xa4;" horiz-adv-x="648" 
d="M65 265q0 103 70 176l-58 61l26 24l57 -62q70 59 164 59q92 0 164 -59l59 62l25 -24l-59 -62q70 -75 70 -175q0 -101 -69 -175l58 -62l-25 -23l-59 61q-70 -59 -164 -59t-164 59l-57 -61l-26 23l58 61q-70 73 -70 176zM102 265q0 -91 65 -156.5t157 -65.5t157 65.5
t65 156.5t-65 156t-157 65t-157 -65t-65 -156z" />
    <glyph glyph-name="yen" unicode="&#xa5;" horiz-adv-x="551" 
d="M64 196v29h191l-219 306h47l191 -270l194 270h47l-221 -306h189v-29h-189v-72h189v-30h-189v-94h-39v94h-191v30h191v72h-191z" />
    <glyph glyph-name="brokenbar" unicode="&#xa6;" horiz-adv-x="255" 
d="M108 165h38v-365h-38v365zM108 341v414h38v-414h-38z" />
    <glyph glyph-name="section" unicode="&#xa7;" horiz-adv-x="523" 
d="M450 134q0 -66 -67 -108q44 -34 44 -89q0 -59 -46 -91.5t-125 -32.5q-100 0 -172 75l29 24q58 -67 144 -67q61 0 96.5 23.5t35.5 68.5q0 39 -32.5 64.5t-79 40.5t-93 32.5t-79 52.5t-32.5 88q0 33 18.5 62t47.5 47q-43 35 -43 88q0 59 46 92t125 33q103 0 172 -76
l-28 -24q-61 68 -145 68q-60 0 -96 -23.5t-36 -68.5q0 -39 32.5 -65t79 -41t93 -32t79 -52.5t32.5 -88.5zM414 132q0 52 -38 81.5t-112 54t-101 39.5q-22 -14 -37.5 -38t-15.5 -51q0 -53 38 -82.5t111.5 -54t99.5 -39.5q23 14 39 38t16 52z" />
    <glyph glyph-name="dieresis" unicode="&#xa8;" horiz-adv-x="656" 
d="M392 611v56h44v-56h-44zM219 611v56h44v-56h-44z" />
    <glyph glyph-name="copyright" unicode="&#xa9;" horiz-adv-x="875" 
d="M238 277q0 88 59 146t148 58q73 0 128 -38l-19 -26q-46 34 -108 34q-75 0 -124.5 -49.5t-49.5 -124.5q0 -80 48.5 -128t125.5 -48q72 0 115 40l20 -22q-51 -49 -136 -49q-91 0 -149 57t-58 150zM73 278q0 151 106.5 257t257.5 106q152 0 258.5 -106t106.5 -257
q0 -150 -107 -256t-258 -106t-257.5 106t-106.5 256zM102 278q0 -137 98 -235t237 -98t237.5 98t98.5 235q0 138 -98.5 236t-237.5 98t-237 -98t-98 -236z" />
    <glyph glyph-name="ordfeminine" unicode="&#xaa;" horiz-adv-x="364" 
d="M41 423q0 108 220 117v65q0 32 -20.5 51.5t-61.5 19.5q-54 0 -112 -31l-13 28q60 32 125 32q57 0 85.5 -27.5t28.5 -72.5v-193q0 -42 39 -42v-25q-55 0 -68 46q-47 -54 -121 -54q-46 0 -74 23.5t-28 62.5zM73 424q0 -28 20 -44t54 -16q36 0 66.5 15.5t47.5 39.5v95
q-188 -5 -188 -90z" />
    <glyph glyph-name="guillemotleft" unicode="&#xab;" horiz-adv-x="581" 
d="M98 253l185 -231l-28 -22l-202 253l202 253l28 -23zM333 253l185 -231l-28 -22l-202 253l202 253l28 -23z" />
    <glyph glyph-name="logicalnot" unicode="&#xac;" horiz-adv-x="592" 
d="M64 495v36h464v-237h-40v201h-424z" />
    <glyph glyph-name="registered" unicode="&#xae;" horiz-adv-x="875" 
d="M291 81v393h178q73 0 107 -33.5t34 -83.5q0 -38 -25 -69.5t-76 -41.5l11 -18q11 -18 24.5 -41t27.5 -47t24.5 -41t11.5 -18h-41l-92 161h-150v-161h-34zM325 271h141q57 0 84 26t27 60q0 37 -26 62t-83 25h-143v-173zM73 278q0 151 106.5 257t257.5 106q152 0 258.5 -106
t106.5 -257q0 -150 -107 -256t-258 -106t-257.5 106t-106.5 256zM102 278q0 -137 98 -234.5t237 -97.5t237 97.5t98 234.5q0 138 -98 236t-237 98t-237 -98t-98 -236z" />
    <glyph glyph-name="macron" unicode="&#xaf;" horiz-adv-x="655" 
d="M192 622v33h273v-33h-273z" />
    <glyph glyph-name="degree" unicode="&#xb0;" horiz-adv-x="413" 
d="M206 408q-63 0 -108 44t-45 108q0 63 45 107.5t108 44.5t108 -44.5t45 -107.5q0 -64 -45 -108t-108 -44zM206 438q50 0 86 35.5t36 86.5t-36 86.5t-86 35.5t-85.5 -35.5t-35.5 -86.5t35.5 -86.5t85.5 -35.5z" />
    <glyph glyph-name="plusminus" unicode="&#xb1;" horiz-adv-x="612" 
d="M53 0v33h235v212h-235v36h235v225h37v-225h234v-36h-234v-212h234v-33h-506z" />
    <glyph glyph-name="two.sups" unicode="&#xb2;" horiz-adv-x="323" 
d="M40 500v17q-1 49 21 82t53.5 49t63 29.5t54 33.5t22.5 50t-24.5 49.5t-67.5 19.5q-56 0 -97 -43l-22 19q49 51 120 51q58 0 90.5 -27t32.5 -69q0 -36 -22 -60.5t-53.5 -38.5t-62.5 -28.5t-53.5 -40.5t-22.5 -65h214v-28h-246z" />
    <glyph glyph-name="three.sups" unicode="&#xb3;" horiz-adv-x="323" 
d="M41 517l13 26q40 -22 91 -22q50 0 82 22t32 60q0 33 -26.5 50t-67.5 17h-48v27h46q36 0 59.5 18t23.5 51q0 28 -25 46t-66 18q-60 0 -97 -42l-21 20q21 22 53.5 35.5t64.5 13.5q54 0 88 -25.5t34 -64.5q0 -63 -66 -81q35 -7 57.5 -28.5t22.5 -55.5q0 -50 -41 -79
t-104 -29t-105 23z" />
    <glyph glyph-name="acute" unicode="&#xb4;" horiz-adv-x="653" 
d="M242 561l139 165l30 -24l-140 -141h-29z" />
    <glyph glyph-name="mu" unicode="&#xb5;" horiz-adv-x="516" 
d="M102 62l-4 -262h-34v731h39v-389q5 -121 122 -121q106 0 188 98v412h39v-531h-34l-5 78q-85 -90 -187 -90q-100 0 -124 74z" />
    <glyph glyph-name="paragraph" unicode="&#xb6;" horiz-adv-x="649" 
d="M343 0v297h-46q-114 0 -171.5 60.5t-57.5 138.5q0 83 56.5 143.5t170.5 60.5h257v-700h-37v668h-135v-668h-37z" />
    <glyph glyph-name="periodcentered" unicode="&#xb7;" horiz-adv-x="200" 
d="M79 206v96h42v-96h-42z" />
    <glyph glyph-name="cedilla" unicode="&#xb8;" horiz-adv-x="653" 
d="M258 -195q106 87 124 197h28q-14 -120 -117 -214z" />
    <glyph glyph-name="one.sups" unicode="&#xb9;" horiz-adv-x="264" 
d="M143 500v319l-82 -44l-14 24l101 52h26v-351h-31z" />
    <glyph glyph-name="ordmasculine" unicode="&#xba;" horiz-adv-x="422" 
d="M45 525q0 81 46.5 130.5t118.5 49.5t118.5 -49.5t46.5 -130.5q0 -86 -45.5 -137t-119.5 -51q-75 0 -120 51t-45 137zM77 525q0 -73 36 -116.5t97 -43.5q59 0 95.5 43.5t36.5 116.5q0 68 -37 110t-95 42t-95.5 -42t-37.5 -110z" />
    <glyph glyph-name="guillemotright" unicode="&#xbb;" horiz-adv-x="581" 
d="M63 22l185 231l-185 230l28 23l202 -253l-202 -253zM298 22l185 231l-185 230l28 23l202 -253l-202 -253z" />
    <glyph glyph-name="onequarter" unicode="&#xbc;" horiz-adv-x="700" 
d="M412 79l-9 26l190 246h37v-245h60v-27h-60v-79h-30v79h-188zM437 106h163v212zM62 0l579 700h40l-578 -700h-41zM145 350v319l-82 -44l-14 24l101 52h26v-351h-31z" />
    <glyph glyph-name="onehalf" unicode="&#xbd;" horiz-adv-x="746" 
d="M490 0v17q-1 49 21 82t53.5 49t63 29.5t54 33.5t22.5 50t-24.5 49.5t-67.5 19.5q-56 0 -97 -43l-22 19q49 51 120 51q58 0 90.5 -27t32.5 -69q0 -36 -22 -60.5t-53.5 -38.5t-62.5 -28.5t-53.5 -40.5t-22.5 -65h214v-28h-246zM62 0l579 700h40l-578 -700h-41zM145 350v319
l-82 -44l-14 24l101 52h26v-351h-31z" />
    <glyph glyph-name="threequarters" unicode="&#xbe;" horiz-adv-x="713" 
d="M16 367l13 26q40 -22 91 -22q50 0 82 22t32 60q0 33 -26.5 50t-67.5 17h-48v27h46q36 0 59.5 18t23.5 51q0 28 -25 46t-66 18q-60 0 -97 -42l-21 20q21 22 53.5 35.5t64.5 13.5q54 0 88 -25.5t34 -64.5q0 -63 -66 -81q35 -7 57.5 -28.5t22.5 -55.5q0 -50 -41 -79
t-104 -29t-105 23zM427 79l-9 26l190 246h37v-245h60v-27h-60v-79h-30v79h-188zM452 106h163v212zM76 0l579 700h40l-578 -700h-41z" />
    <glyph glyph-name="questiondown" unicode="&#xbf;" horiz-adv-x="479" 
d="M308 307v-12q0 -43 -16 -77.5t-39.5 -55t-51.5 -42t-51.5 -39.5t-39.5 -47.5t-16 -66.5q0 -60 47.5 -99.5t123.5 -39.5q92 0 164 74l26 -24q-79 -84 -191 -84q-94 0 -151.5 48.5t-57.5 123.5q0 43 16 76.5t40.5 54t53 42.5t53 41t41 49t16.5 68v10h33zM312 506v-93h-41
v93h41z" />
    <glyph glyph-name="Agrave" unicode="&#xc0;" horiz-adv-x="670" 
d="M37 0l273 700h51l272 -700h-45l-75 199h-356l-75 -199h-45zM334 666l-164 -433h330l-164 433h-2zM326 755l-109 92l32 27l110 -119h-33z" />
    <glyph glyph-name="Aacute" unicode="&#xc1;" horiz-adv-x="670" 
d="M37 0l273 700h51l272 -700h-45l-75 199h-356l-75 -199h-45zM334 666l-164 -433h330l-164 433h-2zM310 755l109 119l33 -27l-110 -92h-32z" />
    <glyph glyph-name="Acircumflex" unicode="&#xc2;" horiz-adv-x="670" 
d="M37 0l273 700h51l272 -700h-45l-75 199h-356l-75 -199h-45zM334 666l-164 -433h330l-164 433h-2zM182 755l129 104h46l130 -104h-31l-121 75h-1l-121 -75h-31z" />
    <glyph glyph-name="Atilde" unicode="&#xc3;" horiz-adv-x="670" 
d="M37 0l273 700h51l272 -700h-45l-75 199h-356l-75 -199h-45zM334 666l-164 -433h330l-164 433h-2zM203 766q-5 44 14 69t52 25q25 0 48.5 -18.5t44 -37t38.5 -18.5q19 0 30.5 17t7.5 45h29q5 -44 -14.5 -69t-52.5 -25q-24 0 -47.5 18.5t-44 37t-38.5 18.5q-19 0 -30.5 -17
t-8.5 -45h-28z" />
    <glyph glyph-name="Adieresis" unicode="&#xc4;" horiz-adv-x="670" 
d="M37 0l273 700h51l272 -700h-45l-75 199h-356l-75 -199h-45zM334 666l-164 -433h330l-164 433h-2zM404 779v56h44v-56h-44zM222 779v56h44v-56h-44z" />
    <glyph glyph-name="Aring" unicode="&#xc5;" horiz-adv-x="670" 
d="M37 0l266 684q-27 9 -44.5 33t-17.5 54q0 38 27.5 65t65.5 27q39 0 66 -27t27 -65q0 -30 -16.5 -53.5t-43.5 -33.5l266 -684h-45l-75 199h-356l-75 -199h-45zM334 666l-164 -433h330l-164 433h-2zM264 771q0 -28 18.5 -48.5t45.5 -22.5h12q27 2 45.5 22.5t18.5 48.5
q0 29 -20.5 49.5t-49.5 20.5t-49.5 -20.5t-20.5 -49.5z" />
    <glyph glyph-name="AE" unicode="&#xc6;" horiz-adv-x="1003" 
d="M582 0l-58 199h-352l-89 -199h-46l322 700h564v-37h-496l86 -288h369v-36h-358l90 -302h315v-37h-347zM381 663l-193 -430h326l-125 430h-8z" />
    <glyph glyph-name="Ccedilla" unicode="&#xc7;" horiz-adv-x="713" 
d="M243 -195q99 83 122 186q-138 14 -220 113.5t-82 254.5q0 158 96 255.5t250 97.5q127 0 217 -67l-22 -31q-83 63 -195 63q-137 0 -221.5 -88t-84.5 -230q0 -151 84 -243.5t222 -92.5q127 0 208 75l25 -27q-91 -83 -234 -83q-2 0 -7 0.5t-8 0.5q-18 -112 -115 -201z" />
    <glyph glyph-name="Egrave" unicode="&#xc8;" horiz-adv-x="633" 
d="M318 755l-109 92l32 27l110 -119h-33zM93 0v700h460v-35h-421v-291h380v-34h-380v-305h428v-35h-467z" />
    <glyph glyph-name="Eacute" unicode="&#xc9;" horiz-adv-x="633" 
d="M302 755l109 119l33 -27l-110 -92h-32zM93 0v700h460v-35h-421v-291h380v-34h-380v-305h428v-35h-467z" />
    <glyph glyph-name="Ecircumflex" unicode="&#xca;" horiz-adv-x="633" 
d="M93 0v700h460v-35h-421v-291h380v-34h-380v-305h428v-35h-467zM174 755l129 104h46l130 -104h-31l-121 75h-1l-121 -75h-31z" />
    <glyph glyph-name="Edieresis" unicode="&#xcb;" horiz-adv-x="633" 
d="M396 779v56h44v-56h-44zM214 779v56h44v-56h-44zM93 0v700h460v-35h-421v-291h380v-34h-380v-305h428v-35h-467z" />
    <glyph glyph-name="Igrave" unicode="&#xcc;" horiz-adv-x="225" 
d="M93 0v700h39v-700h-39zM104 755l-109 92l32 27l110 -119h-33z" />
    <glyph glyph-name="Iacute" unicode="&#xcd;" horiz-adv-x="225" 
d="M93 0v700h39v-700h-39zM88 755l109 119l33 -27l-110 -92h-32z" />
    <glyph glyph-name="Icircumflex" unicode="&#xce;" horiz-adv-x="225" 
d="M93 0v700h39v-700h-39zM-40 755l129 104h46l130 -104h-31l-121 75h-1l-121 -75h-31z" />
    <glyph glyph-name="Idieresis" unicode="&#xcf;" horiz-adv-x="225" 
d="M93 0v700h39v-700h-39zM182 779v56h44v-56h-44zM0 779v56h44v-56h-44z" />
    <glyph glyph-name="Eth" unicode="&#xd0;" horiz-adv-x="739" 
d="M127 0v336h-112v31h112v333h184q177 0 271 -90t94 -251q0 -172 -91.5 -265.5t-273.5 -93.5h-184zM166 35h146q161 0 242.5 84.5t81.5 239.5q0 144 -83.5 225t-240.5 81h-146v-298h242v-31h-242v-301z" />
    <glyph glyph-name="Ntilde" unicode="&#xd1;" horiz-adv-x="714" 
d="M225 766q-5 44 14 69t52 25q25 0 48.5 -18.5t44 -37t38.5 -18.5q19 0 30.5 17t7.5 45h29q5 -44 -14.5 -69t-52.5 -25q-24 0 -47.5 18.5t-44 37t-38.5 18.5q-19 0 -30.5 -17t-8.5 -45h-28zM93 0v700h48l441 -650v650h39v-700h-49l-441 649v-649h-38z" />
    <glyph glyph-name="Ograve" unicode="&#xd2;" horiz-adv-x="807" 
d="M395 755l-109 92l32 27l110 -119h-33zM63 356q0 159 98 257.5t242 98.5t242.5 -98.5t98.5 -257.5q0 -168 -96.5 -268t-244.5 -100q-147 0 -243.5 100t-96.5 268zM103 356q0 -152 85 -242.5t215 -90.5t215.5 90.5t85.5 242.5q0 142 -87 231.5t-214 89.5q-126 0 -213 -89.5
t-87 -231.5z" />
    <glyph glyph-name="Oacute" unicode="&#xd3;" horiz-adv-x="807" 
d="M379 755l109 119l33 -27l-110 -92h-32zM63 356q0 159 98 257.5t242 98.5t242.5 -98.5t98.5 -257.5q0 -168 -96.5 -268t-244.5 -100q-147 0 -243.5 100t-96.5 268zM103 356q0 -152 85 -242.5t215 -90.5t215.5 90.5t85.5 242.5q0 142 -87 231.5t-214 89.5
q-126 0 -213 -89.5t-87 -231.5z" />
    <glyph glyph-name="Ocircumflex" unicode="&#xd4;" horiz-adv-x="807" 
d="M63 356q0 159 98 257.5t242 98.5t242.5 -98.5t98.5 -257.5q0 -168 -96.5 -268t-244.5 -100q-147 0 -243.5 100t-96.5 268zM103 356q0 -152 85 -242.5t215 -90.5t215.5 90.5t85.5 242.5q0 142 -87 231.5t-214 89.5q-126 0 -213 -89.5t-87 -231.5zM251 755l129 104h46
l130 -104h-31l-121 75h-1l-121 -75h-31z" />
    <glyph glyph-name="Otilde" unicode="&#xd5;" horiz-adv-x="807" 
d="M272 766q-5 44 14 69t52 25q25 0 48.5 -18.5t44 -37t38.5 -18.5q19 0 30.5 17t7.5 45h29q5 -44 -14.5 -69t-52.5 -25q-24 0 -47.5 18.5t-44 37t-38.5 18.5q-19 0 -30.5 -17t-8.5 -45h-28zM63 356q0 159 98 257.5t242 98.5t242.5 -98.5t98.5 -257.5q0 -168 -96.5 -268
t-244.5 -100q-147 0 -243.5 100t-96.5 268zM103 356q0 -152 85 -242.5t215 -90.5t215.5 90.5t85.5 242.5q0 142 -87 231.5t-214 89.5q-126 0 -213 -89.5t-87 -231.5z" />
    <glyph glyph-name="Odieresis" unicode="&#xd6;" horiz-adv-x="807" 
d="M473 779v56h44v-56h-44zM291 779v56h44v-56h-44zM63 356q0 159 98 257.5t242 98.5t242.5 -98.5t98.5 -257.5q0 -168 -96.5 -268t-244.5 -100q-147 0 -243.5 100t-96.5 268zM103 356q0 -152 85 -242.5t215 -90.5t215.5 90.5t85.5 242.5q0 142 -87 231.5t-214 89.5
q-126 0 -213 -89.5t-87 -231.5z" />
    <glyph glyph-name="multiply" unicode="&#xd7;" horiz-adv-x="573" 
d="M73 53l188 200l-188 202l27 24l186 -199l188 199l26 -24l-188 -202l188 -200l-26 -25l-188 200l-186 -200z" />
    <glyph glyph-name="Oslash" unicode="&#xd8;" horiz-adv-x="807" 
d="M63 356q0 159 98 257.5t242 98.5q115 0 203 -65l66 89l24 -18l-67 -90q115 -102 115 -272q0 -168 -96.5 -268t-244.5 -100q-116 0 -202 63l-64 -87l-26 18l66 89q-114 103 -114 285zM103 356q0 -162 98 -255l382 516q-77 60 -180 60q-126 0 -213 -89.5t-87 -231.5z
M704 356q0 151 -98 242l-383 -516q76 -59 180 -59q130 0 215.5 90.5t85.5 242.5z" />
    <glyph glyph-name="Ugrave" unicode="&#xd9;" horiz-adv-x="710" 
d="M347 755l-109 92l32 27l110 -119h-33zM90 254v446h39v-446q0 -109 64.5 -170t161.5 -61t161.5 61t64.5 170v446h39v-446q0 -127 -74.5 -196.5t-190.5 -69.5t-190.5 69.5t-74.5 196.5z" />
    <glyph glyph-name="Uacute" unicode="&#xda;" horiz-adv-x="710" 
d="M331 755l109 119l33 -27l-110 -92h-32zM90 254v446h39v-446q0 -109 64.5 -170t161.5 -61t161.5 61t64.5 170v446h39v-446q0 -127 -74.5 -196.5t-190.5 -69.5t-190.5 69.5t-74.5 196.5z" />
    <glyph glyph-name="Ucircumflex" unicode="&#xdb;" horiz-adv-x="710" 
d="M90 254v446h39v-446q0 -109 64.5 -170t161.5 -61t161.5 61t64.5 170v446h39v-446q0 -127 -74.5 -196.5t-190.5 -69.5t-190.5 69.5t-74.5 196.5zM203 755l129 104h46l130 -104h-31l-121 75h-1l-121 -75h-31z" />
    <glyph glyph-name="Udieresis" unicode="&#xdc;" horiz-adv-x="710" 
d="M425 779v56h44v-56h-44zM243 779v56h44v-56h-44zM90 254v446h39v-446q0 -109 64.5 -170t161.5 -61t161.5 61t64.5 170v446h39v-446q0 -127 -74.5 -196.5t-190.5 -69.5t-190.5 69.5t-74.5 196.5z" />
    <glyph glyph-name="Yacute" unicode="&#xdd;" horiz-adv-x="640" 
d="M300 0v288l-263 412h48l234 -376h2l234 376h48l-263 -412v-288h-40zM296 755l109 119l33 -27l-110 -92h-32z" />
    <glyph glyph-name="Thorn" unicode="&#xde;" horiz-adv-x="651" 
d="M93 0v700h39v-144h232q117 0 172.5 -58t55.5 -144q0 -84 -56.5 -144.5t-173.5 -60.5h-230v-149h-39zM132 183h230q96 0 143.5 50.5t47.5 120.5q0 71 -46.5 119.5t-142.5 48.5h-232v-339z" />
    <glyph glyph-name="germandbls" unicode="&#xdf;" horiz-adv-x="620" 
d="M92 0v555q0 96 58 151t151 55q94 0 153.5 -52.5t59.5 -142.5q0 -63 -39 -111t-112 -63q96 -10 148.5 -65t52.5 -132q0 -94 -64 -150t-164 -56q-57 0 -102 13l9 35q40 -12 90 -12q83 0 137.5 46.5t54.5 124.5q0 77 -59 126.5t-161 49.5h-43v35h37q89 0 133 47t44 112
q0 77 -48.5 119.5t-126.5 42.5q-77 0 -124 -45.5t-47 -126.5v-556h-38z" />
    <glyph glyph-name="agrave" unicode="&#xe0;" horiz-adv-x="504" 
d="M53 109q0 153 318 167v99q0 49 -30.5 79t-91.5 30q-78 0 -160 -45l-17 33q84 45 177 45q81 0 120.5 -38.5t39.5 -103.5v-284q0 -30 15 -45.5t42 -15.5v-30q-80 0 -92 70q-29 -36 -76 -59t-102 -23q-64 0 -103.5 33t-39.5 88zM92 110q0 -41 29.5 -65t79.5 -24
q55 0 100.5 24t69.5 59v143q-279 -12 -279 -137zM256 561l-140 141l31 24l138 -165h-29z" />
    <glyph glyph-name="aacute" unicode="&#xe1;" horiz-adv-x="504" 
d="M53 109q0 153 318 167v99q0 49 -30.5 79t-91.5 30q-78 0 -160 -45l-17 33q84 45 177 45q81 0 120.5 -38.5t39.5 -103.5v-284q0 -30 15 -45.5t42 -15.5v-30q-80 0 -92 70q-29 -36 -76 -59t-102 -23q-64 0 -103.5 33t-39.5 88zM92 110q0 -41 29.5 -65t79.5 -24
q55 0 100.5 24t69.5 59v143q-279 -12 -279 -137zM233 561l139 165l30 -24l-140 -141h-29z" />
    <glyph glyph-name="acircumflex" unicode="&#xe2;" horiz-adv-x="504" 
d="M53 109q0 153 318 167v99q0 49 -30.5 79t-91.5 30q-78 0 -160 -45l-17 33q84 45 177 45q81 0 120.5 -38.5t39.5 -103.5v-284q0 -30 15 -45.5t42 -15.5v-30q-80 0 -92 70q-29 -36 -76 -59t-102 -23q-64 0 -103.5 33t-39.5 88zM92 110q0 -41 29.5 -65t79.5 -24
q55 0 100.5 24t69.5 59v143q-279 -12 -279 -137zM109 561l128 156h46l127 -156h-30l-120 127h-1l-119 -127h-31z" />
    <glyph glyph-name="atilde" unicode="&#xe3;" horiz-adv-x="504" 
d="M53 109q0 153 318 167v99q0 49 -30.5 79t-91.5 30q-78 0 -160 -45l-17 33q84 45 177 45q81 0 120.5 -38.5t39.5 -103.5v-284q0 -30 15 -45.5t42 -15.5v-30q-80 0 -92 70q-29 -36 -76 -59t-102 -23q-64 0 -103.5 33t-39.5 88zM92 110q0 -41 29.5 -65t79.5 -24
q55 0 100.5 24t69.5 59v143q-279 -12 -279 -137zM127 598q-4 44 15 69t52 25q24 0 47.5 -18.5t44 -37t38.5 -18.5q20 0 31 16.5t7 45.5h29q4 -44 -15 -69t-52 -25q-19 0 -38 11.5t-32 25t-29 25t-31 11.5q-20 0 -31 -16.5t-7 -44.5h-29z" />
    <glyph glyph-name="adieresis" unicode="&#xe4;" horiz-adv-x="504" 
d="M53 109q0 153 318 167v99q0 49 -30.5 79t-91.5 30q-78 0 -160 -45l-17 33q84 45 177 45q81 0 120.5 -38.5t39.5 -103.5v-284q0 -30 15 -45.5t42 -15.5v-30q-80 0 -92 70q-29 -36 -76 -59t-102 -23q-64 0 -103.5 33t-39.5 88zM92 110q0 -41 29.5 -65t79.5 -24
q55 0 100.5 24t69.5 59v143q-279 -12 -279 -137zM324 611v56h44v-56h-44zM151 611v56h44v-56h-44z" />
    <glyph glyph-name="aring" unicode="&#xe5;" horiz-adv-x="504" 
d="M53 109q0 153 318 167v99q0 49 -30.5 79t-91.5 30q-78 0 -160 -45l-17 33q84 45 177 45q81 0 120.5 -38.5t39.5 -103.5v-284q0 -30 15 -45.5t42 -15.5v-30q-80 0 -92 70q-29 -36 -76 -59t-102 -23q-64 0 -103.5 33t-39.5 88zM92 110q0 -41 29.5 -65t79.5 -24
q55 0 100.5 24t69.5 59v143q-279 -12 -279 -137zM259 560q-39 0 -66 26.5t-27 65.5q0 38 27.5 65t65.5 27q39 0 66 -27t27 -65q0 -39 -27 -65.5t-66 -26.5zM259 581q29 0 50 21t21 50t-21 49.5t-50 20.5t-49.5 -20.5t-20.5 -49.5t20.5 -50t49.5 -21z" />
    <glyph glyph-name="ae" unicode="&#xe6;" horiz-adv-x="864" 
d="M402 104q-28 -49 -82 -82.5t-123 -33.5q-65 0 -104.5 33t-39.5 88q0 155 318 166v101q0 48 -30.5 78t-91.5 30q-76 0 -160 -45l-17 33q86 46 177 46q73 0 111 -34t43 -93q28 60 80.5 93.5t120.5 33.5q98 0 147 -60t49 -158q0 -8 -3 -32h-387q-1 -125 50 -186t145 -61
q83 0 155 51l20 -29q-76 -55 -175 -55q-147 0 -203 116zM412 298h349q2 83 -36.5 135t-120.5 52q-77 0 -129.5 -50.5t-62.5 -136.5zM92 110q0 -40 30 -65t79 -25q60 0 112.5 32t73.5 86q-16 51 -16 109q-279 -12 -279 -137z" />
    <glyph glyph-name="ccedilla" unicode="&#xe7;" horiz-adv-x="503" 
d="M135 -195q100 85 122 185q-90 11 -143 83t-53 187q0 117 63.5 187t165.5 70q91 0 150 -46l-22 -29q-57 42 -128 42q-85 0 -137.5 -61.5t-52.5 -162.5q0 -109 51.5 -173.5t138.5 -64.5q76 0 138 50l24 -26q-68 -58 -162 -58h-5q-19 -112 -115 -200z" />
    <glyph glyph-name="egrave" unicode="&#xe8;" horiz-adv-x="555" 
d="M61 260q0 117 65.5 187.5t167.5 70.5q98 0 147 -60t49 -158q0 -16 -2 -32h-388v-8q0 -113 49.5 -176t146.5 -63q83 0 155 51l20 -29q-76 -55 -176 -55q-115 0 -174.5 71.5t-59.5 200.5zM295 485q-78 0 -130.5 -50.5t-62.5 -136.5h350q2 83 -36.5 135t-120.5 52zM287 561
l-140 141l31 24l138 -165h-29z" />
    <glyph glyph-name="eacute" unicode="&#xe9;" horiz-adv-x="555" 
d="M61 260q0 117 65.5 187.5t167.5 70.5q98 0 147 -60t49 -158q0 -16 -2 -32h-388v-8q0 -113 49.5 -176t146.5 -63q83 0 155 51l20 -29q-76 -55 -176 -55q-115 0 -174.5 71.5t-59.5 200.5zM295 485q-78 0 -130.5 -50.5t-62.5 -136.5h350q2 83 -36.5 135t-120.5 52zM265 561
l139 165l30 -24l-140 -141h-29z" />
    <glyph glyph-name="ecircumflex" unicode="&#xea;" horiz-adv-x="555" 
d="M61 260q0 117 65.5 187.5t167.5 70.5q98 0 147 -60t49 -158q0 -16 -2 -32h-388v-8q0 -113 49.5 -176t146.5 -63q83 0 155 51l20 -29q-76 -55 -176 -55q-115 0 -174.5 71.5t-59.5 200.5zM295 485q-78 0 -130.5 -50.5t-62.5 -136.5h350q2 83 -36.5 135t-120.5 52zM141 561
l128 156h46l127 -156h-30l-120 127h-1l-119 -127h-31z" />
    <glyph glyph-name="edieresis" unicode="&#xeb;" horiz-adv-x="555" 
d="M61 260q0 117 65.5 187.5t167.5 70.5q98 0 147 -60t49 -158q0 -16 -2 -32h-388v-8q0 -113 49.5 -176t146.5 -63q83 0 155 51l20 -29q-76 -55 -176 -55q-115 0 -174.5 71.5t-59.5 200.5zM295 485q-78 0 -130.5 -50.5t-62.5 -136.5h350q2 83 -36.5 135t-120.5 52zM183 611
v56h44v-56h-44zM356 611v56h44v-56h-44z" />
    <glyph glyph-name="igrave" unicode="&#xec;" 
d="M92 0v505h39v-505h-39zM108 561l-140 141l31 24l138 -165h-29z" />
    <glyph glyph-name="iacute" unicode="&#xed;" 
d="M85 561l139 165l30 -24l-140 -141h-29zM92 0v505h39v-505h-39z" />
    <glyph glyph-name="icircumflex" unicode="&#xee;" 
d="M-39 561l128 156h46l127 -156h-30l-120 127h-1l-119 -127h-31zM92 0v505h39v-505h-39z" />
    <glyph glyph-name="idieresis" unicode="&#xef;" 
d="M176 611v56h44v-56h-44zM3 611v56h44v-56h-44zM92 0v505h39v-505h-39z" />
    <glyph glyph-name="eth" unicode="&#xf0;" horiz-adv-x="571" 
d="M201 559l-14 27q54 29 97 53q-48 49 -121 116h50q54 -48 101 -98l95 53l15 -26q-49 -26 -89 -49q175 -192 175 -386q0 -121 -61 -191t-164 -70t-164 65t-61 175q0 102 57.5 163.5t154.5 61.5q108 0 181 -75q-40 123 -148 240zM472 248q0 33 -9 85q-77 87 -187 87
q-82 0 -129.5 -52t-47.5 -140q0 -94 51 -150t135 -56q85 0 136 61t51 165z" />
    <glyph glyph-name="ntilde" unicode="&#xf1;" horiz-adv-x="561" 
d="M88 0v505h35l4 -78q86 91 192 91q156 0 156 -166v-352h-39v352q0 133 -122 133q-106 0 -187 -99v-386h-39zM150 598q-4 44 15 69t52 25q24 0 47.5 -18.5t44 -37t38.5 -18.5q20 0 31 16.5t7 45.5h29q4 -44 -15 -69t-52 -25q-19 0 -38 11.5t-32 25t-29 25t-31 11.5
q-20 0 -31 -16.5t-7 -44.5h-29z" />
    <glyph glyph-name="ograve" unicode="&#xf2;" horiz-adv-x="591" 
d="M291 561l-140 141l31 24l138 -165h-29zM61 260q0 116 66 186.5t169 70.5q102 0 167.5 -70.5t65.5 -186.5q0 -124 -64 -198t-169 -74q-106 0 -170.5 74t-64.5 198zM100 260q0 -109 53.5 -174t142.5 -65q87 0 140.5 65.5t53.5 173.5q0 100 -54.5 162t-139.5 62
q-86 0 -141 -62t-55 -162z" />
    <glyph glyph-name="oacute" unicode="&#xf3;" horiz-adv-x="591" 
d="M269 561l139 165l30 -24l-140 -141h-29zM61 260q0 116 66 186.5t169 70.5q102 0 167.5 -70.5t65.5 -186.5q0 -124 -64 -198t-169 -74q-106 0 -170.5 74t-64.5 198zM100 260q0 -109 53.5 -174t142.5 -65q87 0 140.5 65.5t53.5 173.5q0 100 -54.5 162t-139.5 62
q-86 0 -141 -62t-55 -162z" />
    <glyph glyph-name="ocircumflex" unicode="&#xf4;" horiz-adv-x="591" 
d="M144 561l128 156h46l127 -156h-30l-120 127h-1l-119 -127h-31zM61 260q0 116 66 186.5t169 70.5q102 0 167.5 -70.5t65.5 -186.5q0 -124 -64 -198t-169 -74q-106 0 -170.5 74t-64.5 198zM100 260q0 -109 53.5 -174t142.5 -65q87 0 140.5 65.5t53.5 173.5q0 100 -54.5 162
t-139.5 62q-86 0 -141 -62t-55 -162z" />
    <glyph glyph-name="otilde" unicode="&#xf5;" horiz-adv-x="591" 
d="M61 260q0 116 66 186.5t169 70.5q102 0 167.5 -70.5t65.5 -186.5q0 -124 -64 -198t-169 -74q-106 0 -170.5 74t-64.5 198zM100 260q0 -109 53.5 -174t142.5 -65q87 0 140.5 65.5t53.5 173.5q0 100 -54.5 162t-139.5 62q-86 0 -141 -62t-55 -162zM163 598q-4 44 15 69
t52 25q24 0 47.5 -18.5t44 -37t38.5 -18.5q20 0 31 16.5t7 45.5h29q4 -44 -15 -69t-52 -25q-19 0 -38 11.5t-32 25t-29 25t-31 11.5q-20 0 -31 -16.5t-7 -44.5h-29z" />
    <glyph glyph-name="odieresis" unicode="&#xf6;" horiz-adv-x="591" 
d="M360 611v56h44v-56h-44zM187 611v56h44v-56h-44zM61 260q0 116 66 186.5t169 70.5q102 0 167.5 -70.5t65.5 -186.5q0 -124 -64 -198t-169 -74q-106 0 -170.5 74t-64.5 198zM100 260q0 -109 53.5 -174t142.5 -65q87 0 140.5 65.5t53.5 173.5q0 100 -54.5 162t-139.5 62
q-86 0 -141 -62t-55 -162z" />
    <glyph glyph-name="divide" unicode="&#xf7;" horiz-adv-x="612" 
d="M287 393v87h37v-87h-37zM287 27v87h37v-87h-37zM53 235v36h506v-36h-506z" />
    <glyph glyph-name="oslash" unicode="&#xf8;" horiz-adv-x="591" 
d="M61 260q0 116 66 186.5t169 70.5q82 0 140 -46l66 89l25 -19l-68 -90q70 -72 70 -191q0 -124 -64 -198t-169 -74q-85 0 -145 49l-67 -91l-26 19l70 94q-67 73 -67 201zM490 260q0 99 -54 161l-264 -355q51 -45 124 -45q87 0 140.5 65.5t53.5 173.5zM100 260
q0 -106 52 -172l263 354q-51 42 -119 42q-86 0 -141 -62t-55 -162z" />
    <glyph glyph-name="ugrave" unicode="&#xf9;" horiz-adv-x="561" 
d="M86 154v351h39v-352q0 -132 122 -132q107 0 187 98v386h39v-505h-32l-6 78q-88 -90 -193 -90q-156 0 -156 166zM275 561l-140 141l31 24l138 -165h-29z" />
    <glyph glyph-name="uacute" unicode="&#xfa;" horiz-adv-x="561" 
d="M254 561l139 165l30 -24l-140 -141h-29zM86 154v351h39v-352q0 -132 122 -132q107 0 187 98v386h39v-505h-32l-6 78q-88 -90 -193 -90q-156 0 -156 166z" />
    <glyph glyph-name="ucircumflex" unicode="&#xfb;" horiz-adv-x="561" 
d="M129 561l128 156h46l127 -156h-30l-120 127h-1l-119 -127h-31zM86 154v351h39v-352q0 -132 122 -132q107 0 187 98v386h39v-505h-32l-6 78q-88 -90 -193 -90q-156 0 -156 166z" />
    <glyph glyph-name="udieresis" unicode="&#xfc;" horiz-adv-x="561" 
d="M344 611v56h44v-56h-44zM171 611v56h44v-56h-44zM86 154v351h39v-352q0 -132 122 -132q107 0 187 98v386h39v-505h-32l-6 78q-88 -90 -193 -90q-156 0 -156 166z" />
    <glyph glyph-name="yacute" unicode="&#xfd;" horiz-adv-x="475" 
d="M34 -165q24 -11 51 -11q34 0 55.5 15.5t37.5 56.5l41 108l-191 501h43l167 -449h2l165 449h42l-232 -617q-37 -98 -129 -98q-33 0 -64 12zM213 561l139 165l30 -24l-140 -141h-29z" />
    <glyph glyph-name="thorn" unicode="&#xfe;" horiz-adv-x="574" 
d="M131 74v-274h-39v955h39v-323q82 86 171 86q96 0 153 -70t57 -188q0 -125 -55 -198.5t-154 -73.5q-94 0 -172 86zM131 113q77 -92 167 -92q83 0 129 65t46 174q0 103 -47.5 163.5t-128.5 60.5q-87 0 -166 -90v-281z" />
    <glyph glyph-name="ydieresis" unicode="&#xff;" horiz-adv-x="475" 
d="M34 -165q24 -11 51 -11q34 0 55.5 15.5t37.5 56.5l41 108l-191 501h43l167 -449h2l165 449h42l-232 -617q-37 -98 -129 -98q-33 0 -64 12zM303 611v56h44v-56h-44zM130 611v56h44v-56h-44z" />
    <glyph glyph-name="Amacron" unicode="&#x100;" horiz-adv-x="670" 
d="M37 0l273 700h51l272 -700h-45l-75 199h-356l-75 -199h-45zM334 666l-164 -433h330l-164 433h-2zM198 791v32h274v-32h-274z" />
    <glyph glyph-name="amacron" unicode="&#x101;" horiz-adv-x="504" 
d="M53 109q0 153 318 167v99q0 49 -30.5 79t-91.5 30q-78 0 -160 -45l-17 33q84 45 177 45q81 0 120.5 -38.5t39.5 -103.5v-284q0 -30 15 -45.5t42 -15.5v-30q-80 0 -92 70q-29 -36 -76 -59t-102 -23q-64 0 -103.5 33t-39.5 88zM92 110q0 -41 29.5 -65t79.5 -24
q55 0 100.5 24t69.5 59v143q-279 -12 -279 -137zM122 622v33h273v-33h-273z" />
    <glyph glyph-name="Abreve" unicode="&#x102;" horiz-adv-x="670" 
d="M37 0l273 700h51l272 -700h-45l-75 199h-356l-75 -199h-45zM334 666l-164 -433h330l-164 433h-2zM335 750q-63 0 -104.5 29t-55.5 80h33q12 -35 45 -56t82 -21t82 21t45 56h33q-14 -51 -55.5 -80t-104.5 -29z" />
    <glyph glyph-name="abreve" unicode="&#x103;" horiz-adv-x="504" 
d="M53 109q0 153 318 167v99q0 49 -30.5 79t-91.5 30q-78 0 -160 -45l-17 33q84 45 177 45q81 0 120.5 -38.5t39.5 -103.5v-284q0 -30 15 -45.5t42 -15.5v-30q-80 0 -92 70q-29 -36 -76 -59t-102 -23q-64 0 -103.5 33t-39.5 88zM92 110q0 -41 29.5 -65t79.5 -24
q55 0 100.5 24t69.5 59v143q-279 -12 -279 -137zM259 560q-63 0 -104 42.5t-47 114.5h31q6 -57 38 -91t82 -34q49 0 81.5 34t38.5 91h30q-6 -72 -47 -114.5t-103 -42.5z" />
    <glyph glyph-name="Aogonek" unicode="&#x104;" horiz-adv-x="670" 
d="M657 -160v-32q-28 -14 -60 -14q-38 0 -64 21t-26 60q0 72 83 125h-2l-75 199h-356l-75 -199h-45l273 700h51l272 -700q-92 -52 -92 -120q0 -25 17 -39t40 -14q31 0 57 14zM334 666l-164 -433h330l-164 433h-2z" />
    <glyph glyph-name="aogonek" unicode="&#x105;" horiz-adv-x="504" 
d="M490 -160v-32q-28 -14 -60 -14q-38 0 -64 21t-26 60q0 73 90 129q-47 14 -56 66q-29 -36 -76 -59t-102 -23q-64 0 -103.5 33t-39.5 88q0 153 318 167v99q0 49 -30.5 79t-91.5 30q-78 0 -160 -45l-17 33q84 45 177 45q81 0 120.5 -38.5t39.5 -103.5v-284q0 -30 15 -45.5
t42 -15.5v-30q-92 -52 -92 -120q0 -25 17 -39t40 -14q31 0 57 14zM92 110q0 -41 29.5 -65t79.5 -24q55 0 100.5 24t69.5 59v143q-279 -12 -279 -137z" />
    <glyph glyph-name="Cacute" unicode="&#x106;" horiz-adv-x="713" 
d="M63 359q0 158 96 255.5t250 97.5q127 0 217 -67l-22 -31q-83 63 -195 63q-137 0 -221.5 -88t-84.5 -230q0 -151 84 -243.5t222 -92.5q127 0 208 75l25 -27q-91 -83 -234 -83q-156 0 -250.5 102t-94.5 269zM358 755l109 119l33 -27l-110 -92h-32z" />
    <glyph glyph-name="cacute" unicode="&#x107;" horiz-adv-x="503" 
d="M248 561l139 165l30 -24l-140 -141h-29zM61 260q0 117 63.5 187t165.5 70q91 0 150 -46l-22 -29q-57 42 -128 42q-85 0 -137.5 -61.5t-52.5 -162.5q0 -109 51.5 -173.5t138.5 -64.5q76 0 138 50l24 -26q-68 -58 -162 -58q-104 0 -166.5 73.5t-62.5 198.5z" />
    <glyph glyph-name="Ccircumflex" unicode="&#x108;" horiz-adv-x="713" 
d="M63 359q0 158 96 255.5t250 97.5q127 0 217 -67l-22 -31q-83 63 -195 63q-137 0 -221.5 -88t-84.5 -230q0 -151 84 -243.5t222 -92.5q127 0 208 75l25 -27q-91 -83 -234 -83q-156 0 -250.5 102t-94.5 269zM230 755l129 104h46l130 -104h-31l-121 75h-1l-121 -75h-31z" />
    <glyph glyph-name="ccircumflex" unicode="&#x109;" horiz-adv-x="503" 
d="M124 561l128 156h46l127 -156h-30l-120 127h-1l-119 -127h-31zM61 260q0 117 63.5 187t165.5 70q91 0 150 -46l-22 -29q-57 42 -128 42q-85 0 -137.5 -61.5t-52.5 -162.5q0 -109 51.5 -173.5t138.5 -64.5q76 0 138 50l24 -26q-68 -58 -162 -58q-104 0 -166.5 73.5
t-62.5 198.5z" />
    <glyph glyph-name="Cdotaccent" unicode="&#x10a;" horiz-adv-x="713" 
d="M358 779v56h47v-56h-47zM63 359q0 158 96 255.5t250 97.5q127 0 217 -67l-22 -31q-83 63 -195 63q-137 0 -221.5 -88t-84.5 -230q0 -151 84 -243.5t222 -92.5q127 0 208 75l25 -27q-91 -83 -234 -83q-156 0 -250.5 102t-94.5 269z" />
    <glyph glyph-name="cdotaccent" unicode="&#x10b;" horiz-adv-x="503" 
d="M61 260q0 117 63.5 187t165.5 70q91 0 150 -46l-22 -29q-57 42 -128 42q-85 0 -137.5 -61.5t-52.5 -162.5q0 -109 51.5 -173.5t138.5 -64.5q76 0 138 50l24 -26q-68 -58 -162 -58q-104 0 -166.5 73.5t-62.5 198.5zM251 611v56h47v-56h-47z" />
    <glyph glyph-name="Ccaron" unicode="&#x10c;" horiz-adv-x="713" 
d="M63 359q0 158 96 255.5t250 97.5q127 0 217 -67l-22 -31q-83 63 -195 63q-137 0 -221.5 -88t-84.5 -230q0 -151 84 -243.5t222 -92.5q127 0 208 75l25 -27q-91 -83 -234 -83q-156 0 -250.5 102t-94.5 269zM359 755l-129 104h31l121 -76h1l121 76h31l-130 -104h-46z" />
    <glyph glyph-name="ccaron" unicode="&#x10d;" horiz-adv-x="503" 
d="M252 561l-128 156h31l119 -126h1l120 126h30l-127 -156h-46zM61 260q0 117 63.5 187t165.5 70q91 0 150 -46l-22 -29q-57 42 -128 42q-85 0 -137.5 -61.5t-52.5 -162.5q0 -109 51.5 -173.5t138.5 -64.5q76 0 138 50l24 -26q-68 -58 -162 -58q-104 0 -166.5 73.5
t-62.5 198.5z" />
    <glyph glyph-name="Dcaron" unicode="&#x10e;" horiz-adv-x="705" 
d="M344 755l-129 104h31l121 -76h1l121 76h31l-130 -104h-46zM93 0v700h184q177 0 271 -90t94 -251q0 -172 -91.5 -265.5t-273.5 -93.5h-184zM132 35h146q161 0 242.5 84.5t81.5 239.5q0 144 -83.5 225t-240.5 81h-146v-630z" />
    <glyph glyph-name="dcaron" unicode="&#x10f;" horiz-adv-x="573" 
d="M556 685v28q14 4 30 4q68 0 70 -64q0 -45 -57 -95h-30q53 53 53 91q0 39 -42 39q-10 0 -24 -3zM271 -12q-99 0 -154.5 73.5t-55.5 198.5q0 118 57.5 187.5t153.5 69.5q91 0 171 -84v322h38v-755h-30l-7 76q-78 -88 -173 -88zM275 21q90 0 168 92v281q-81 90 -167 90
q-81 0 -128.5 -60.5t-47.5 -163.5q0 -109 46 -174t129 -65z" />
    <glyph glyph-name="Dcroat" unicode="&#x110;" horiz-adv-x="739" 
d="M127 0v336h-112v31h112v333h184q177 0 271 -90t94 -251q0 -172 -91.5 -265.5t-273.5 -93.5h-184zM166 35h146q161 0 242.5 84.5t81.5 239.5q0 144 -83.5 225t-240.5 81h-146v-298h242v-31h-242v-301z" />
    <glyph glyph-name="dcroat" unicode="&#x111;" horiz-adv-x="573" 
d="M271 -12q-99 0 -154.5 73.5t-55.5 198.5q0 118 57.5 187.5t153.5 69.5q91 0 171 -84v191h-106v31h106v100h38v-100h45v-31h-45v-624h-30l-7 76q-78 -88 -173 -88zM275 21q90 0 168 92v281q-81 90 -167 90q-81 0 -128.5 -60.5t-47.5 -163.5q0 -109 46 -174t129 -65z" />
    <glyph glyph-name="Emacron" unicode="&#x112;" horiz-adv-x="633" 
d="M189 791v32h274v-32h-274zM93 0v700h460v-35h-421v-291h380v-34h-380v-305h428v-35h-467z" />
    <glyph glyph-name="emacron" unicode="&#x113;" horiz-adv-x="555" 
d="M61 260q0 117 65.5 187.5t167.5 70.5q98 0 147 -60t49 -158q0 -16 -2 -32h-388v-8q0 -113 49.5 -176t146.5 -63q83 0 155 51l20 -29q-76 -55 -176 -55q-115 0 -174.5 71.5t-59.5 200.5zM295 485q-78 0 -130.5 -50.5t-62.5 -136.5h350q2 83 -36.5 135t-120.5 52zM155 622
v33h273v-33h-273z" />
    <glyph glyph-name="Ebreve" unicode="&#x114;" horiz-adv-x="633" 
d="M326 750q-63 0 -104.5 29t-55.5 80h33q12 -35 45 -56t82 -21t82 21t45 56h33q-14 -51 -55.5 -80t-104.5 -29zM93 0v700h460v-35h-421v-291h380v-34h-380v-305h428v-35h-467z" />
    <glyph glyph-name="ebreve" unicode="&#x115;" horiz-adv-x="555" 
d="M61 260q0 117 65.5 187.5t167.5 70.5q98 0 147 -60t49 -158q0 -16 -2 -32h-388v-8q0 -113 49.5 -176t146.5 -63q83 0 155 51l20 -29q-76 -55 -176 -55q-115 0 -174.5 71.5t-59.5 200.5zM295 485q-78 0 -130.5 -50.5t-62.5 -136.5h350q2 83 -36.5 135t-120.5 52zM292 560
q-63 0 -104 42.5t-47 114.5h31q6 -57 38 -91t82 -34q49 0 81.5 34t38.5 91h30q-6 -72 -47 -114.5t-103 -42.5z" />
    <glyph glyph-name="Edotaccent" unicode="&#x116;" horiz-adv-x="633" 
d="M302 779v56h47v-56h-47zM93 0v700h460v-35h-421v-291h380v-34h-380v-305h428v-35h-467z" />
    <glyph glyph-name="edotaccent" unicode="&#x117;" horiz-adv-x="555" 
d="M61 260q0 117 65.5 187.5t167.5 70.5q98 0 147 -60t49 -158q0 -16 -2 -32h-388v-8q0 -113 49.5 -176t146.5 -63q83 0 155 51l20 -29q-76 -55 -176 -55q-115 0 -174.5 71.5t-59.5 200.5zM295 485q-78 0 -130.5 -50.5t-62.5 -136.5h350q2 83 -36.5 135t-120.5 52zM268 611
v56h47v-56h-47z" />
    <glyph glyph-name="Eogonek" unicode="&#x118;" horiz-adv-x="633" 
d="M93 0v700h460v-35h-421v-291h380v-34h-380v-305h428v-35h-1q-92 -52 -92 -120q0 -25 17 -39t40 -14q31 0 57 14l2 -1v-32q-28 -14 -60 -14q-38 0 -64 21t-26 60q0 72 83 125h-423z" />
    <glyph glyph-name="eogonek" unicode="&#x119;" horiz-adv-x="555" 
d="M61 260q0 117 65.5 187.5t167.5 70.5q98 0 147 -60t49 -158q0 -16 -2 -32h-387v-12q0 -111 49.5 -173t145.5 -62q83 0 155 51l20 -29q-21 -14 -31 -19q-28 -15 -45.5 -26.5t-39 -29.5t-32 -39.5t-10.5 -46.5q0 -26 16.5 -40.5t43.5 -14.5q31 0 57 14l2 -1v-32
q-28 -14 -60 -14q-41 0 -67 21.5t-26 61.5q0 61 71 118q-25 -7 -55 -7q-115 0 -174.5 71.5t-59.5 200.5zM295 485q-77 0 -129.5 -50.5t-62.5 -136.5h349q2 83 -36.5 135t-120.5 52z" />
    <glyph glyph-name="Ecaron" unicode="&#x11a;" horiz-adv-x="633" 
d="M303 755l-129 104h31l121 -76h1l121 76h31l-130 -104h-46zM93 0v700h460v-35h-421v-291h380v-34h-380v-305h428v-35h-467z" />
    <glyph glyph-name="ecaron" unicode="&#x11b;" horiz-adv-x="555" 
d="M61 260q0 117 65.5 187.5t167.5 70.5q98 0 147 -60t49 -158q0 -16 -2 -32h-388v-8q0 -113 49.5 -176t146.5 -63q83 0 155 51l20 -29q-76 -55 -176 -55q-115 0 -174.5 71.5t-59.5 200.5zM295 485q-78 0 -130.5 -50.5t-62.5 -136.5h350q2 83 -36.5 135t-120.5 52zM269 561
l-128 156h31l119 -126h1l120 126h30l-127 -156h-46z" />
    <glyph glyph-name="Gcircumflex" unicode="&#x11c;" horiz-adv-x="723" 
d="M63 359q0 158 95.5 255.5t250.5 97.5q126 0 218 -56l-20 -31q-83 52 -198 52q-137 0 -221.5 -88t-84.5 -230q0 -154 82 -245t224 -91q119 0 194 50v244h-221v33h258v-297q-95 -65 -231 -65q-159 0 -252.5 100.5t-93.5 270.5zM229 755l129 104h46l130 -104h-31l-121 75h-1
l-121 -75h-31z" />
    <glyph glyph-name="gcircumflex" unicode="&#x11d;" horiz-adv-x="557" 
d="M42 -78q0 77 100 114q-48 25 -48 73q0 44 45 72q-85 52 -85 153q0 79 58.5 131t143.5 52q73 0 129 -40q61 44 142 41v-33q-79 3 -123 -23q55 -53 55 -128q0 -80 -59 -133t-144 -53q-52 0 -95 20q-34 -20 -34 -53q0 -15 5.5 -26.5t19 -18.5t25 -11.5t35 -7.5t37.5 -4
t43 -3q224 -12 224 -123q0 -64 -62.5 -97.5t-180.5 -33.5q-110 0 -170.5 35t-60.5 97zM256 180q70 0 118 44t48 110q0 64 -48 108t-118 44q-69 0 -116.5 -44t-47.5 -108q0 -66 47.5 -110t116.5 -44zM283 11q-57 1 -105 13q-44 -13 -71 -39t-27 -62q0 -48 50.5 -75t142.5 -27
q98 0 152 25t54 73q0 83 -196 92zM135 561l128 156h46l127 -156h-30l-120 127h-1l-119 -127h-31z" />
    <glyph glyph-name="Gbreve" unicode="&#x11e;" horiz-adv-x="723" 
d="M382 750q-63 0 -104.5 29t-55.5 80h33q12 -35 45 -56t82 -21t82 21t45 56h33q-14 -51 -55.5 -80t-104.5 -29zM63 359q0 158 95.5 255.5t250.5 97.5q126 0 218 -56l-20 -31q-83 52 -198 52q-137 0 -221.5 -88t-84.5 -230q0 -154 82 -245t224 -91q119 0 194 50v244h-221v33
h258v-297q-95 -65 -231 -65q-159 0 -252.5 100.5t-93.5 270.5z" />
    <glyph glyph-name="gbreve" unicode="&#x11f;" horiz-adv-x="557" 
d="M42 -78q0 77 100 114q-48 25 -48 73q0 44 45 72q-85 52 -85 153q0 79 58.5 131t143.5 52q73 0 129 -40q61 44 142 41v-33q-79 3 -123 -23q55 -53 55 -128q0 -80 -59 -133t-144 -53q-52 0 -95 20q-34 -20 -34 -53q0 -15 5.5 -26.5t19 -18.5t25 -11.5t35 -7.5t37.5 -4
t43 -3q224 -12 224 -123q0 -64 -62.5 -97.5t-180.5 -33.5q-110 0 -170.5 35t-60.5 97zM256 180q70 0 118 44t48 110q0 64 -48 108t-118 44q-69 0 -116.5 -44t-47.5 -108q0 -66 47.5 -110t116.5 -44zM283 11q-57 1 -105 13q-44 -13 -71 -39t-27 -62q0 -48 50.5 -75t142.5 -27
q98 0 152 25t54 73q0 83 -196 92zM286 560q-63 0 -104 42.5t-47 114.5h31q6 -57 38 -91t82 -34q49 0 81.5 34t38.5 91h30q-6 -72 -47 -114.5t-103 -42.5z" />
    <glyph glyph-name="Gdotaccent" unicode="&#x120;" horiz-adv-x="723" 
d="M357 779v56h47v-56h-47zM63 359q0 158 95.5 255.5t250.5 97.5q126 0 218 -56l-20 -31q-83 52 -198 52q-137 0 -221.5 -88t-84.5 -230q0 -154 82 -245t224 -91q119 0 194 50v244h-221v33h258v-297q-95 -65 -231 -65q-159 0 -252.5 100.5t-93.5 270.5z" />
    <glyph glyph-name="gdotaccent" unicode="&#x121;" horiz-adv-x="557" 
d="M42 -78q0 77 100 114q-48 25 -48 73q0 44 45 72q-85 52 -85 153q0 79 58.5 131t143.5 52q73 0 129 -40q61 44 142 41v-33q-79 3 -123 -23q55 -53 55 -128q0 -80 -59 -133t-144 -53q-52 0 -95 20q-34 -20 -34 -53q0 -15 5.5 -26.5t19 -18.5t25 -11.5t35 -7.5t37.5 -4
t43 -3q224 -12 224 -123q0 -64 -62.5 -97.5t-180.5 -33.5q-110 0 -170.5 35t-60.5 97zM256 180q70 0 118 44t48 110q0 64 -48 108t-118 44q-69 0 -116.5 -44t-47.5 -108q0 -66 47.5 -110t116.5 -44zM283 11q-57 1 -105 13q-44 -13 -71 -39t-27 -62q0 -48 50.5 -75t142.5 -27
q98 0 152 25t54 73q0 83 -196 92zM261 611v56h47v-56h-47z" />
    <glyph glyph-name="Gcommaaccent" unicode="&#x122;" horiz-adv-x="723" 
d="M63 359q0 158 95.5 255.5t250.5 97.5q126 0 218 -56l-20 -31q-83 52 -198 52q-137 0 -221.5 -88t-84.5 -230q0 -154 82 -245t224 -91q119 0 194 50v244h-221v33h258v-297q-95 -65 -231 -65q-159 0 -252.5 100.5t-93.5 270.5zM331 -56q14 4 29 4q69 0 71 -64
q0 -45 -57 -95h-30q53 53 53 92q0 38 -42 38q-11 0 -24 -3v28z" />
    <glyph glyph-name="gcommaaccent" unicode="&#x123;" horiz-adv-x="557" 
d="M320 591v-28q-14 -4 -30 -4q-68 0 -70 64q0 45 57 95h30q-53 -53 -53 -91q0 -39 42 -39q10 0 24 3zM42 -78q0 77 100 114q-48 25 -48 73q0 44 45 72q-85 52 -85 153q0 79 58.5 131t143.5 52q73 0 129 -40q61 44 142 41v-33q-79 3 -123 -23q55 -53 55 -128q0 -80 -59 -133
t-144 -53q-52 0 -95 20q-34 -20 -34 -53q0 -15 5.5 -26.5t19 -18.5t25 -11.5t35 -7.5t37.5 -4t43 -3q224 -12 224 -123q0 -64 -62.5 -97.5t-180.5 -33.5q-110 0 -170.5 35t-60.5 97zM256 180q70 0 118 44t48 110q0 64 -48 108t-118 44q-69 0 -116.5 -44t-47.5 -108
q0 -66 47.5 -110t116.5 -44zM283 11q-57 1 -105 13q-44 -13 -71 -39t-27 -62q0 -48 50.5 -75t142.5 -27q98 0 152 25t54 73q0 83 -196 92z" />
    <glyph glyph-name="Hcircumflex" unicode="&#x124;" horiz-adv-x="694" 
d="M93 0v700h39v-326h430v326h39v-700h-39v339h-430v-339h-39zM195 755l129 104h46l130 -104h-31l-121 75h-1l-121 -75h-31z" />
    <glyph glyph-name="hcircumflex" unicode="&#x125;" horiz-adv-x="565" 
d="M92 0v755h39v-329q83 92 192 92q156 0 156 -166v-352h-39v352q0 133 -122 133q-104 0 -187 -98v-387h-39zM-41 797l129 104h46l130 -104h-31l-121 75h-1l-121 -75h-31z" />
    <glyph glyph-name="Hbar" unicode="&#x126;" horiz-adv-x="694" 
d="M93 0v700h39v-145h430v145h39v-700h-39v339h-430v-339h-39zM132 374h430v151h-430v-151z" />
    <glyph glyph-name="hbar" unicode="&#x127;" horiz-adv-x="566" 
d="M20 624v31h73v100h39v-100h139v-31h-139v-198q83 92 192 92q156 0 156 -166v-352h-39v352q0 133 -122 133q-104 0 -187 -98v-387h-39v624h-73z" />
    <glyph glyph-name="Itilde" unicode="&#x128;" horiz-adv-x="225" 
d="M93 0v700h39v-700h-39zM-19 766q-5 44 14 69t52 25q25 0 48.5 -18.5t44 -37t38.5 -18.5q19 0 30.5 17t7.5 45h29q5 -44 -14.5 -69t-52.5 -25q-24 0 -47.5 18.5t-44 37t-38.5 18.5q-19 0 -30.5 -17t-8.5 -45h-28z" />
    <glyph glyph-name="itilde" unicode="&#x129;" 
d="M92 0v505h39v-505h-39zM-20 598q-4 44 15 69t52 25q24 0 47.5 -18.5t44 -37t38.5 -18.5q20 0 31 16.5t7 45.5h29q4 -44 -15 -69t-52 -25q-19 0 -38 11.5t-32 25t-29 25t-31 11.5q-20 0 -31 -16.5t-7 -44.5h-29z" />
    <glyph glyph-name="Imacron" unicode="&#x12a;" horiz-adv-x="225" 
d="M93 0v700h39v-700h-39zM-24 791v32h274v-32h-274z" />
    <glyph glyph-name="imacron" unicode="&#x12b;" 
d="M92 0v505h39v-505h-39zM-25 622v33h273v-33h-273z" />
    <glyph glyph-name="Ibreve" unicode="&#x12c;" horiz-adv-x="225" 
d="M93 0v700h39v-700h-39zM113 750q-63 0 -104.5 29t-55.5 80h33q12 -35 45 -56t82 -21t82 21t45 56h33q-14 -51 -55.5 -80t-104.5 -29z" />
    <glyph glyph-name="ibreve" unicode="&#x12d;" 
d="M92 0v505h39v-505h-39zM112 560q-63 0 -104 42.5t-47 114.5h31q6 -57 38 -91t82 -34q49 0 81.5 34t38.5 91h30q-6 -72 -47 -114.5t-103 -42.5z" />
    <glyph glyph-name="Iogonek" unicode="&#x12e;" horiz-adv-x="225" 
d="M156 -160v-32q-28 -14 -60 -14q-38 0 -64 21t-26 60q0 73 87 127v698h39v-700q-92 -52 -92 -120q0 -25 17 -39t40 -14q31 0 57 14z" />
    <glyph glyph-name="iogonek" unicode="&#x12f;" 
d="M155 -160v-32q-28 -14 -60 -14q-38 0 -64 21t-26 60q0 73 87 127v503h39v-505q-92 -52 -92 -120q0 -25 17 -39t40 -14q31 0 57 14zM92 665v72h39v-72h-39z" />
    <glyph glyph-name="Idotaccent" unicode="&#x130;" horiz-adv-x="225" 
d="M93 0v700h39v-700h-39zM88 779v56h47v-56h-47z" />
    <glyph glyph-name="dotlessi" unicode="&#x131;" 
d="M92 0v505h39v-505h-39z" />
    <glyph glyph-name="Jcircumflex" unicode="&#x134;" horiz-adv-x="564" 
d="M57 136l35 14q18 -53 59 -90t109 -37q87 0 131 55.5t44 148.5v473h39v-474q0 -110 -53.5 -174t-159.5 -64q-82 0 -132.5 43t-71.5 105zM302 755l129 104h46l130 -104h-31l-121 75h-1l-121 -75h-31z" />
    <glyph glyph-name="jcircumflex" unicode="&#x135;" horiz-adv-x="231" 
d="M100 -38v543h39v-542q0 -173 -138 -173q-21 0 -39 5l7 33q12 -4 31 -4q46 0 73 33.5t27 104.5zM-31 561l128 156h46l127 -156h-30l-120 127h-1l-119 -127h-31z" />
    <glyph glyph-name="Kcommaaccent" unicode="&#x136;" horiz-adv-x="658" 
d="M93 0v700h39v-442l394 442h50l-231 -258l260 -442h-48l-237 413l-188 -210v-203h-39zM268 -56q14 4 29 4q69 0 71 -64q0 -45 -57 -95h-30q53 53 53 92q0 38 -42 38q-10 0 -24 -3v28z" />
    <glyph glyph-name="kcommaaccent" unicode="&#x137;" horiz-adv-x="503" 
d="M92 0v755h39v-541l266 291h47l-151 -163l182 -342h-44l-163 315l-137 -148v-167h-39zM232 -56q16 4 30 4q35 0 52.5 -17.5t17.5 -46.5q1 -45 -56 -95h-31q54 52 54 92q0 38 -42 38q-10 0 -25 -3v28z" />
    <glyph glyph-name="kgreenlandic" unicode="&#x138;" horiz-adv-x="503" 
d="M92 0v505h39v-291l266 291h47l-151 -163l182 -342h-44l-163 315l-137 -148v-167h-39z" />
    <glyph glyph-name="Lacute" unicode="&#x139;" horiz-adv-x="603" 
d="M88 755l109 119l33 -27l-110 -92h-32zM93 0v700h39v-665h421v-35h-460z" />
    <glyph glyph-name="lacute" unicode="&#x13a;" 
d="M87 797l109 119l33 -27l-110 -92h-32zM92 0v755h39v-755h-39z" />
    <glyph glyph-name="Lcommaaccent" unicode="&#x13b;" horiz-adv-x="603" 
d="M93 0v700h39v-665h421v-35h-460zM272 -56q14 4 29 4q69 0 71 -64q0 -45 -57 -95h-30q53 53 53 92q0 38 -42 38q-10 0 -24 -3v28z" />
    <glyph glyph-name="lcommaaccent" unicode="&#x13c;" 
d="M92 -56q16 4 30 4q35 0 52.5 -17.5t17.5 -46.5q1 -45 -56 -95h-31q54 52 54 92q0 38 -42 38q-10 0 -25 -3v28zM92 0v755h39v-755h-39z" />
    <glyph glyph-name="Lcaron" unicode="&#x13d;" horiz-adv-x="603" 
d="M93 0v700h39v-665h421v-35h-460zM221 699q14 4 29 4q69 0 71 -64q0 -45 -57 -95h-30q53 53 53 92q0 38 -42 38q-11 0 -24 -3v28z" />
    <glyph glyph-name="lcaron" unicode="&#x13e;" 
d="M206 685v28q14 4 30 4q68 0 70 -64q0 -45 -57 -95h-30q53 53 53 91q0 39 -42 39q-10 0 -24 -3zM92 0v755h39v-755h-39z" />
    <glyph glyph-name="Ldot" unicode="&#x13f;" horiz-adv-x="603" 
d="M93 0v700h39v-665h421v-35h-460zM507 324v56h47v-56h-47z" />
    <glyph glyph-name="ldot" unicode="&#x140;" 
d="M92 0v755h39v-755h-39zM201 321v56h47v-56h-47z" />
    <glyph glyph-name="Lslash" unicode="&#x141;" horiz-adv-x="633" 
d="M14 228v36l109 69v367h39v-342l202 128v-37l-202 -128v-286h421v-35h-460v297z" />
    <glyph glyph-name="lslash" unicode="&#x142;" horiz-adv-x="241" 
d="M9 291v36l92 57v371h39v-348l92 59v-37l-92 -57v-372h-39v348z" />
    <glyph glyph-name="Nacute" unicode="&#x143;" horiz-adv-x="714" 
d="M333 755l109 119l33 -27l-110 -92h-32zM93 0v700h48l441 -650v650h39v-700h-49l-441 649v-649h-38z" />
    <glyph glyph-name="nacute" unicode="&#x144;" horiz-adv-x="561" 
d="M256 561l139 165l30 -24l-140 -141h-29zM88 0v505h35l4 -78q86 91 192 91q156 0 156 -166v-352h-39v352q0 133 -122 133q-106 0 -187 -99v-386h-39z" />
    <glyph glyph-name="Ncommaaccent" unicode="&#x145;" horiz-adv-x="714" 
d="M306 -56q14 4 29 4q69 0 71 -64q0 -45 -57 -95h-30q53 53 53 92q0 38 -42 38q-10 0 -24 -3v28zM93 0v700h48l441 -650v650h39v-700h-49l-441 649v-649h-38z" />
    <glyph glyph-name="ncommaaccent" unicode="&#x146;" horiz-adv-x="561" 
d="M231 -56q16 4 30 4q35 0 52.5 -17.5t17.5 -46.5q1 -45 -56 -95h-31q54 52 54 92q0 38 -42 38q-10 0 -25 -3v28zM88 0v505h35l4 -78q86 91 192 91q156 0 156 -166v-352h-39v352q0 133 -122 133q-106 0 -187 -99v-386h-39z" />
    <glyph glyph-name="Ncaron" unicode="&#x147;" horiz-adv-x="714" 
d="M334 755l-129 104h31l121 -76h1l121 76h31l-130 -104h-46zM93 0v700h48l441 -650v650h39v-700h-49l-441 649v-649h-38z" />
    <glyph glyph-name="ncaron" unicode="&#x148;" horiz-adv-x="561" 
d="M259 561l-128 156h31l119 -126h1l120 126h30l-127 -156h-46zM88 0v505h35l4 -78q86 91 192 91q156 0 156 -166v-352h-39v352q0 133 -122 133q-106 0 -187 -99v-386h-39z" />
    <glyph glyph-name="Eng" unicode="&#x14a;" horiz-adv-x="714" 
d="M93 0v700h49l440 -634v634h39v-737q0 -90 -37 -131.5t-100 -41.5q-25 0 -40 5l7 33q16 -4 31 -4q100 0 100 138v38l-451 649v-649h-38z" />
    <glyph glyph-name="eng" unicode="&#x14b;" horiz-adv-x="561" 
d="M88 0v505h35l4 -78q86 91 192 91q156 0 156 -166v-389q0 -90 -37 -131.5t-100 -41.5q-20 0 -40 5l7 33q13 -4 31 -4q46 0 73 33.5t27 104.5v391q0 132 -122 132q-106 0 -187 -99v-386h-39z" />
    <glyph glyph-name="Omacron" unicode="&#x14c;" horiz-adv-x="807" 
d="M266 791v32h274v-32h-274zM63 356q0 159 98 257.5t242 98.5t242.5 -98.5t98.5 -257.5q0 -168 -96.5 -268t-244.5 -100q-147 0 -243.5 100t-96.5 268zM103 356q0 -152 85 -242.5t215 -90.5t215.5 90.5t85.5 242.5q0 142 -87 231.5t-214 89.5q-126 0 -213 -89.5t-87 -231.5
z" />
    <glyph glyph-name="omacron" unicode="&#x14d;" horiz-adv-x="591" 
d="M158 622v33h273v-33h-273zM61 260q0 116 66 186.5t169 70.5q102 0 167.5 -70.5t65.5 -186.5q0 -124 -64 -198t-169 -74q-106 0 -170.5 74t-64.5 198zM100 260q0 -109 53.5 -174t142.5 -65q87 0 140.5 65.5t53.5 173.5q0 100 -54.5 162t-139.5 62q-86 0 -141 -62t-55 -162
z" />
    <glyph glyph-name="Obreve" unicode="&#x14e;" horiz-adv-x="807" 
d="M403 750q-63 0 -104.5 29t-55.5 80h33q12 -35 45 -56t82 -21t82 21t45 56h33q-14 -51 -55.5 -80t-104.5 -29zM63 356q0 159 98 257.5t242 98.5t242.5 -98.5t98.5 -257.5q0 -168 -96.5 -268t-244.5 -100q-147 0 -243.5 100t-96.5 268zM103 356q0 -152 85 -242.5t215 -90.5
t215.5 90.5t85.5 242.5q0 142 -87 231.5t-214 89.5q-126 0 -213 -89.5t-87 -231.5z" />
    <glyph glyph-name="obreve" unicode="&#x14f;" horiz-adv-x="591" 
d="M61 260q0 116 66 186.5t169 70.5q102 0 167.5 -70.5t65.5 -186.5q0 -124 -64 -198t-169 -74q-106 0 -170.5 74t-64.5 198zM100 260q0 -109 53.5 -174t142.5 -65q87 0 140.5 65.5t53.5 173.5q0 100 -54.5 162t-139.5 62q-86 0 -141 -62t-55 -162zM295 560q-63 0 -104 42.5
t-47 114.5h31q6 -57 38 -91t82 -34q49 0 81.5 34t38.5 91h30q-6 -72 -47 -114.5t-103 -42.5z" />
    <glyph glyph-name="Ohungarumlaut" unicode="&#x150;" horiz-adv-x="807" 
d="M63 356q0 159 98 257.5t242 98.5t242.5 -98.5t98.5 -257.5q0 -168 -96.5 -268t-244.5 -100q-147 0 -243.5 100t-96.5 268zM103 356q0 -152 85 -242.5t215 -90.5t215.5 90.5t85.5 242.5q0 142 -87 231.5t-214 89.5q-126 0 -213 -89.5t-87 -231.5zM314 755l107 119l32 -27
l-107 -92h-32zM444 755l107 119l32 -27l-107 -92h-32z" />
    <glyph glyph-name="ohungarumlaut" unicode="&#x151;" horiz-adv-x="591" 
d="M207 561l137 165l31 -24l-139 -141h-29zM338 561l137 165l31 -24l-140 -141h-28zM61 260q0 116 66 186.5t169 70.5q102 0 167.5 -70.5t65.5 -186.5q0 -124 -64 -198t-169 -74q-106 0 -170.5 74t-64.5 198zM100 260q0 -109 53.5 -174t142.5 -65q87 0 140.5 65.5
t53.5 173.5q0 100 -54.5 162t-139.5 62q-86 0 -141 -62t-55 -162z" />
    <glyph glyph-name="OE" unicode="&#x152;" horiz-adv-x="1243" 
d="M63 357q0 154 98.5 254.5t240.5 100.5q102 0 183.5 -58t116.5 -155v201h460v-35h-421v-291h380v-34h-380v-305h428v-35h-467v203q-34 -100 -114.5 -157.5t-185.5 -57.5q-146 0 -242.5 102t-96.5 267zM103 357q0 -149 85.5 -241.5t214.5 -92.5q128 0 213.5 93t85.5 241
q0 139 -87.5 229.5t-211.5 90.5q-126 0 -213 -90.5t-87 -229.5z" />
    <glyph glyph-name="oe" unicode="&#x153;" horiz-adv-x="983" 
d="M61 260q0 116 66 187t169 71q79 0 136 -46t77 -126q20 80 77 126t137 46q98 0 147 -60t49 -158q0 -8 -3 -32h-387q-1 -120 48.5 -183.5t146.5 -63.5q83 0 155 51l20 -29q-75 -55 -175 -55q-178 0 -216 175q-20 -82 -75.5 -128.5t-136.5 -46.5q-106 0 -170.5 74t-64.5 198
zM101 260q0 -109 53 -174t142 -65q87 0 140.5 65.5t53.5 173.5q0 101 -54.5 162.5t-139.5 61.5q-86 0 -140.5 -61.5t-54.5 -162.5zM531 298h350q2 83 -37 135t-121 52q-77 0 -129.5 -50.5t-62.5 -136.5z" />
    <glyph glyph-name="Racute" unicode="&#x154;" horiz-adv-x="667" 
d="M93 0v700h279q115 0 169.5 -58.5t54.5 -141.5q0 -69 -41 -125t-124 -71l161 -304h-45l-155 299h-260v-299h-39zM132 332h238q95 0 141 50.5t46 117.5q0 69 -45 117.5t-140 48.5h-240v-334zM300 755l109 119l33 -27l-110 -92h-32z" />
    <glyph glyph-name="racute" unicode="&#x155;" horiz-adv-x="373" 
d="M192 561l139 165l30 -24l-140 -141h-29zM88 0v505h34l5 -89q60 102 162 102q34 0 60 -7l-8 -38q-30 8 -55 8q-96 0 -159 -107v-374h-39z" />
    <glyph glyph-name="Rcommaaccent" unicode="&#x156;" horiz-adv-x="667" 
d="M93 0v700h279q115 0 169.5 -58.5t54.5 -141.5q0 -69 -41 -125t-124 -71l161 -304h-45l-155 299h-20h-240v-299h-39zM132 332h238q95 0 141 50.5t46 117.5q0 69 -45 117.5t-140 48.5h-240v-334zM274 -56q14 4 29 4q69 0 71 -64q0 -45 -57 -95h-30q53 53 53 92q0 38 -42 38
q-10 0 -24 -3v28z" />
    <glyph glyph-name="rcommaaccent" unicode="&#x157;" horiz-adv-x="373" 
d="M88 -56q16 4 30 4q35 0 52.5 -17.5t17.5 -46.5q1 -45 -56 -95h-31q54 52 54 92q0 38 -42 38q-10 0 -25 -3v28zM88 0v505h34l5 -89q60 102 162 102q34 0 60 -7l-8 -38q-30 8 -55 8q-96 0 -159 -107v-374h-39z" />
    <glyph glyph-name="Rcaron" unicode="&#x158;" horiz-adv-x="667" 
d="M93 0v700h279q115 0 169.5 -58.5t54.5 -141.5q0 -69 -41 -125t-124 -71l161 -304h-45l-155 299h-20h-240v-299h-39zM132 332h238q95 0 141 50.5t46 117.5q0 69 -45 117.5t-140 48.5h-240v-334zM301 755l-129 104h31l121 -76h1l121 76h31l-130 -104h-46z" />
    <glyph glyph-name="rcaron" unicode="&#x159;" horiz-adv-x="373" 
d="M196 561l-128 156h31l119 -126h1l120 126h30l-127 -156h-46zM88 0v505h34l5 -89q60 102 162 102q34 0 60 -7l-8 -38q-30 8 -55 8q-96 0 -159 -107v-374h-39z" />
    <glyph glyph-name="Sacute" unicode="&#x15a;" horiz-adv-x="602" 
d="M59 56l21 32q93 -65 223 -65q98 0 148.5 41.5t50.5 108.5q0 47 -24 78.5t-62 47t-84 27t-91.5 24t-83.5 31.5t-62 57t-24 93q0 79 61 130t166 51q122 0 216 -49l-17 -33q-92 47 -198 47q-87 0 -137.5 -41t-50.5 -105q0 -47 24 -78.5t62 -47t84 -26.5t91.5 -23.5
t83.5 -31.5t62 -57t24 -94q0 -83 -61 -134t-178 -51q-72 0 -137 19.5t-107 48.5zM276 755l109 119l33 -27l-110 -92h-32z" />
    <glyph glyph-name="sacute" unicode="&#x15b;" horiz-adv-x="443" 
d="M195 561l139 165l30 -24l-140 -141h-29zM44 34l19 30q68 -43 158 -43q68 0 103.5 27.5t35.5 74.5q0 44 -32 69t-77.5 36t-91 23.5t-77.5 44t-32 85.5q0 60 46 98t122 38q90 0 158 -35l-16 -32q-66 34 -142 34q-60 0 -95 -28.5t-35 -73.5q0 -44 32 -69t77.5 -35.5
t91 -22.5t77.5 -44t32 -87q0 -63 -45.5 -99.5t-130.5 -36.5q-105 0 -178 46z" />
    <glyph glyph-name="Scircumflex" unicode="&#x15c;" horiz-adv-x="602" 
d="M59 56l21 32q93 -65 223 -65q98 0 148.5 41.5t50.5 108.5q0 47 -24 78.5t-62 47t-84 27t-91.5 24t-83.5 31.5t-62 57t-24 93q0 79 61 130t166 51q122 0 216 -49l-17 -33q-92 47 -198 47q-87 0 -137.5 -41t-50.5 -105q0 -47 24 -78.5t62 -47t84 -26.5t91.5 -23.5
t83.5 -31.5t62 -57t24 -94q0 -83 -61 -134t-178 -51q-72 0 -137 19.5t-107 48.5zM148 755l129 104h46l130 -104h-31l-121 75h-1l-121 -75h-31z" />
    <glyph glyph-name="scircumflex" unicode="&#x15d;" horiz-adv-x="443" 
d="M72 561l128 156h46l127 -156h-30l-120 127h-1l-119 -127h-31zM44 34l19 30q68 -43 158 -43q68 0 103.5 27.5t35.5 74.5q0 44 -32 69t-77.5 36t-91 23.5t-77.5 44t-32 85.5q0 60 46 98t122 38q90 0 158 -35l-16 -32q-66 34 -142 34q-60 0 -95 -28.5t-35 -73.5
q0 -44 32 -69t77.5 -35.5t91 -22.5t77.5 -44t32 -87q0 -63 -45.5 -99.5t-130.5 -36.5q-105 0 -178 46z" />
    <glyph glyph-name="Scedilla" unicode="&#x15e;" horiz-adv-x="602" 
d="M162 -195q98 82 121 184q-137 6 -224 67l21 32q93 -65 223 -65q98 0 148.5 41.5t50.5 108.5q0 47 -24 78.5t-62 47t-84 27t-91.5 24t-83.5 31.5t-62 57t-24 93q0 79 61 130t166 51q122 0 216 -49l-17 -33q-92 47 -198 47q-87 0 -137.5 -41t-50.5 -105q0 -47 24 -78.5
t62 -47t84 -26.5t91.5 -23.5t83.5 -31.5t62 -57t24 -94q0 -81 -58.5 -132t-171.5 -53q-19 -112 -115 -200z" />
    <glyph glyph-name="scedilla" unicode="&#x15f;" horiz-adv-x="443" 
d="M82 -195q98 82 121 184q-94 4 -159 45l19 30q68 -43 158 -43q68 0 103.5 27.5t35.5 74.5q0 44 -32 69t-77.5 36t-91 23.5t-77.5 44t-32 85.5q0 60 46 98t122 38q90 0 158 -35l-16 -32q-66 34 -142 34q-60 0 -95 -28.5t-35 -73.5q0 -44 32 -69t77.5 -35.5t91 -22.5
t77.5 -44t32 -87q0 -61 -43 -97.5t-123 -38.5q-19 -112 -115 -200z" />
    <glyph glyph-name="Scaron" unicode="&#x160;" horiz-adv-x="602" 
d="M59 56l21 32q93 -65 223 -65q98 0 148.5 41.5t50.5 108.5q0 47 -24 78.5t-62 47t-84 27t-91.5 24t-83.5 31.5t-62 57t-24 93q0 79 61 130t166 51q122 0 216 -49l-17 -33q-92 47 -198 47q-87 0 -137.5 -41t-50.5 -105q0 -47 24 -78.5t62 -47t84 -26.5t91.5 -23.5
t83.5 -31.5t62 -57t24 -94q0 -83 -61 -134t-178 -51q-72 0 -137 19.5t-107 48.5zM277 755l-129 104h31l121 -76h1l121 76h31l-130 -104h-46z" />
    <glyph glyph-name="scaron" unicode="&#x161;" horiz-adv-x="443" 
d="M200 561l-128 156h31l119 -126h1l120 126h30l-127 -156h-46zM44 34l19 30q68 -43 158 -43q68 0 103.5 27.5t35.5 74.5q0 44 -32 69t-77.5 36t-91 23.5t-77.5 44t-32 85.5q0 60 46 98t122 38q90 0 158 -35l-16 -32q-66 34 -142 34q-60 0 -95 -28.5t-35 -73.5q0 -44 32 -69
t77.5 -35.5t91 -22.5t77.5 -44t32 -87q0 -63 -45.5 -99.5t-130.5 -36.5q-105 0 -178 46z" />
    <glyph glyph-name="Tcedilla" unicode="&#x162;" horiz-adv-x="640" 
d="M305 -50h32q-27 -93 -106 -162l-35 17q80 69 109 145zM300 0v664h-268v36h576v-36h-269v-664h-39z" />
    <glyph glyph-name="tcedilla" unicode="&#x163;" horiz-adv-x="357" 
d="M164 -50h32q-27 -93 -106 -162l-35 17q80 69 109 145zM122 125v348h-96v32h96v166h39v-166h150v-32h-150v-348q0 -52 19.5 -78t66.5 -26q37 0 73 22l16 -27q-42 -28 -91 -28q-65 0 -94 34.5t-29 102.5z" />
    <glyph glyph-name="Tcaron" unicode="&#x164;" horiz-adv-x="640" 
d="M297 755l-129 104h31l121 -76h1l121 76h31l-130 -104h-46zM300 0v664h-268v36h576v-36h-269v-664h-39z" />
    <glyph glyph-name="tcaron" unicode="&#x165;" horiz-adv-x="357" 
d="M251 685v28q14 4 30 4q68 0 70 -64q0 -45 -57 -95h-30q53 53 53 91q0 39 -42 39q-11 0 -24 -3zM122 125v348h-96v32h96v166h39v-166h150v-32h-150v-348q0 -52 19.5 -78t66.5 -26q37 0 73 22l16 -27q-42 -28 -91 -28q-65 0 -94 34.5t-29 102.5z" />
    <glyph glyph-name="Tbar" unicode="&#x166;" horiz-adv-x="640" 
d="M300 0v336h-181v30h181v298h-268v36h576v-36h-269v-664h-39zM340 336v30h181v-30h-181z" />
    <glyph glyph-name="tbar" unicode="&#x167;" horiz-adv-x="357" 
d="M36 287v31h86v155h-96v32h96v166h39v-166h150v-32h-150v-155h139v-31h-139v-162q0 -52 19.5 -78t66.5 -26q37 0 73 22l16 -27q-42 -28 -91 -28q-65 0 -94 34.5t-29 102.5v162h-86z" />
    <glyph glyph-name="Utilde" unicode="&#x168;" horiz-adv-x="710" 
d="M224 766q-5 44 14 69t52 25q25 0 48.5 -18.5t44 -37t38.5 -18.5q19 0 30.5 17t7.5 45h29q5 -44 -14.5 -69t-52.5 -25q-24 0 -47.5 18.5t-44 37t-38.5 18.5q-19 0 -30.5 -17t-8.5 -45h-28zM90 254v446h39v-446q0 -109 64.5 -170t161.5 -61t161.5 61t64.5 170v446h39v-446
q0 -127 -74.5 -196.5t-190.5 -69.5t-190.5 69.5t-74.5 196.5z" />
    <glyph glyph-name="utilde" unicode="&#x169;" horiz-adv-x="561" 
d="M86 154v351h39v-352q0 -132 122 -132q107 0 187 98v386h39v-505h-32l-6 78q-88 -90 -193 -90q-156 0 -156 166zM148 598q-4 44 15 69t52 25q24 0 47.5 -18.5t44 -37t38.5 -18.5q20 0 31 16.5t7 45.5h29q4 -44 -15 -69t-52 -25q-19 0 -38 11.5t-32 25t-29 25t-31 11.5
q-20 0 -31 -16.5t-7 -44.5h-29z" />
    <glyph glyph-name="Umacron" unicode="&#x16a;" horiz-adv-x="710" 
d="M218 791v32h274v-32h-274zM90 254v446h39v-446q0 -109 64.5 -170t161.5 -61t161.5 61t64.5 170v446h39v-446q0 -127 -74.5 -196.5t-190.5 -69.5t-190.5 69.5t-74.5 196.5z" />
    <glyph glyph-name="umacron" unicode="&#x16b;" horiz-adv-x="561" 
d="M86 154v351h39v-352q0 -132 122 -132q107 0 187 98v386h39v-505h-32l-6 78q-88 -90 -193 -90q-156 0 -156 166zM143 622v33h273v-33h-273z" />
    <glyph glyph-name="Ubreve" unicode="&#x16c;" horiz-adv-x="710" 
d="M355 750q-63 0 -104.5 29t-55.5 80h33q12 -35 45 -56t82 -21t82 21t45 56h33q-14 -51 -55.5 -80t-104.5 -29zM90 254v446h39v-446q0 -109 64.5 -170t161.5 -61t161.5 61t64.5 170v446h39v-446q0 -127 -74.5 -196.5t-190.5 -69.5t-190.5 69.5t-74.5 196.5z" />
    <glyph glyph-name="ubreve" unicode="&#x16d;" horiz-adv-x="561" 
d="M86 154v351h39v-352q0 -132 122 -132q107 0 187 98v386h39v-505h-32l-6 78q-88 -90 -193 -90q-156 0 -156 166zM280 560q-63 0 -104 42.5t-47 114.5h31q6 -57 38 -91t82 -34q49 0 81.5 34t38.5 91h30q-6 -72 -47 -114.5t-103 -42.5z" />
    <glyph glyph-name="Uring" unicode="&#x16e;" horiz-adv-x="710" 
d="M90 254v446h39v-446q0 -109 64.5 -170t161.5 -61t161.5 61t64.5 170v446h39v-446q0 -127 -74.5 -196.5t-190.5 -69.5t-190.5 69.5t-74.5 196.5zM355 754q-39 0 -66 26.5t-27 65.5q0 38 27.5 65t65.5 27q39 0 66 -27t27 -65q0 -39 -27 -65.5t-66 -26.5zM355 775
q29 0 49.5 21t20.5 50t-20.5 49.5t-49.5 20.5t-49.5 -20.5t-20.5 -49.5t20.5 -50t49.5 -21z" />
    <glyph glyph-name="uring" unicode="&#x16f;" horiz-adv-x="561" 
d="M279 560q-39 0 -66 26.5t-27 65.5q0 38 27.5 65t65.5 27q39 0 66 -27t27 -65q0 -39 -27 -65.5t-66 -26.5zM279 581q29 0 50 21t21 50t-21 49.5t-50 20.5t-49.5 -20.5t-20.5 -49.5t20.5 -50t49.5 -21zM86 154v351h39v-352q0 -132 122 -132q107 0 187 98v386h39v-505h-32
l-6 78q-88 -90 -193 -90q-156 0 -156 166z" />
    <glyph glyph-name="Uhungarumlaut" unicode="&#x170;" horiz-adv-x="710" 
d="M90 254v446h39v-446q0 -109 64.5 -170t161.5 -61t161.5 61t64.5 170v446h39v-446q0 -127 -74.5 -196.5t-190.5 -69.5t-190.5 69.5t-74.5 196.5zM266 755l107 119l32 -27l-107 -92h-32zM396 755l107 119l32 -27l-107 -92h-32z" />
    <glyph glyph-name="uhungarumlaut" unicode="&#x171;" horiz-adv-x="561" 
d="M86 154v351h39v-352q0 -132 122 -132q107 0 187 98v386h39v-505h-32l-6 78q-88 -90 -193 -90q-156 0 -156 166zM191 561l137 165l31 -24l-139 -141h-29zM322 561l137 165l31 -24l-140 -141h-28z" />
    <glyph glyph-name="Uogonek" unicode="&#x172;" horiz-adv-x="710" 
d="M90 254v446h39v-446q0 -109 64.5 -170t161.5 -61t161.5 61t64.5 170v446h39v-446q0 -159 -116 -228q-32 -19 -46 -28t-38.5 -29t-35.5 -41.5t-11 -45.5q0 -26 16.5 -40.5t43.5 -14.5q31 0 57 14l2 -1v-32q-28 -14 -60 -14q-41 0 -67 21.5t-26 61.5q0 61 71 116
q-28 -5 -55 -5q-116 0 -190.5 69.5t-74.5 196.5z" />
    <glyph glyph-name="uogonek" unicode="&#x173;" horiz-adv-x="561" 
d="M86 154v351h39v-352q0 -132 122 -132q107 0 187 98v386h39v-505q-92 -52 -92 -120q0 -25 17 -39t40 -14q31 0 57 14l2 -1v-32q-28 -14 -60 -14q-38 0 -64 21t-26 60q0 75 93 131l-5 72q-88 -90 -193 -90q-156 0 -156 166z" />
    <glyph glyph-name="Wcircumflex" unicode="&#x174;" horiz-adv-x="1016" 
d="M263 0l-225 700h43l205 -654h2l197 654h46l197 -654h2l206 654h42l-225 -700h-48l-196 650h-2l-196 -650h-48zM356 755l129 104h46l130 -104h-31l-121 75h-1l-121 -75h-31z" />
    <glyph glyph-name="wcircumflex" unicode="&#x175;" horiz-adv-x="787" 
d="M242 561l128 156h46l127 -156h-30l-120 127h-1l-119 -127h-31zM202 0l-174 505h41l156 -462h1l147 462h40l148 -462h1l154 462h42l-174 -505h-46l-144 454h-2l-144 -454h-46z" />
    <glyph glyph-name="Ycircumflex" unicode="&#x176;" horiz-adv-x="640" 
d="M300 0v288l-263 412h48l234 -376h2l234 376h48l-263 -412v-288h-40zM168 755l129 104h46l130 -104h-31l-121 75h-1l-121 -75h-31z" />
    <glyph glyph-name="ycircumflex" unicode="&#x177;" horiz-adv-x="475" 
d="M34 -165q24 -11 51 -11q34 0 55.5 15.5t37.5 56.5l41 108l-191 501h43l167 -449h2l165 449h42l-232 -617q-37 -98 -129 -98q-33 0 -64 12zM88 561l128 156h46l127 -156h-30l-120 127h-1l-119 -127h-31z" />
    <glyph glyph-name="Ydieresis" unicode="&#x178;" horiz-adv-x="640" 
d="M300 0v288l-263 412h48l234 -376h2l234 376h48l-263 -412v-288h-40zM389 779v56h44v-56h-44zM207 779v56h44v-56h-44z" />
    <glyph glyph-name="Zacute" unicode="&#x179;" horiz-adv-x="642" 
d="M63 0v41l463 623h-463v36h507v-41l-462 -623h472v-36h-517zM287 755l109 119l33 -27l-110 -92h-32z" />
    <glyph glyph-name="zacute" unicode="&#x17a;" horiz-adv-x="483" 
d="M211 561l139 165l30 -24l-140 -141h-29zM56 0v33l321 439h-313v33h361v-31l-321 -441h332v-33h-380z" />
    <glyph glyph-name="Zdotaccent" unicode="&#x17b;" horiz-adv-x="642" 
d="M286 779v56h47v-56h-47zM63 0v41l463 623h-463v36h507v-41l-462 -623h472v-36h-517z" />
    <glyph glyph-name="zdotaccent" unicode="&#x17c;" horiz-adv-x="483" 
d="M56 0v33l321 439h-313v33h361v-31l-321 -441h332v-33h-380zM215 611v56h47v-56h-47z" />
    <glyph glyph-name="Zcaron" unicode="&#x17d;" horiz-adv-x="642" 
d="M289 755l-129 104h31l121 -76h1l121 76h31l-130 -104h-46zM63 0v41l463 623h-463v36h507v-41l-462 -623h472v-36h-517z" />
    <glyph glyph-name="zcaron" unicode="&#x17e;" horiz-adv-x="483" 
d="M219 561l-128 156h31l119 -126h1l120 126h30l-127 -156h-46zM56 0v33l321 439h-313v33h361v-31l-321 -441h332v-33h-380z" />
    <glyph glyph-name="Schwa" unicode="&#x18f;" horiz-adv-x="731" 
d="M72 356h561v3q0 144 -80.5 231t-214.5 87q-110 0 -197 -64l-22 31q94 68 219 68q152 0 243 -96t91 -256q0 -170 -87 -271t-236 -101q-133 0 -206.5 83t-73.5 224q0 29 3 61zM349 23q124 0 199 81t83 220h-523q-9 -138 54.5 -219.5t186.5 -81.5z" />
    <glyph glyph-name="florin" unicode="&#x192;" horiz-adv-x="349" 
d="M-22 -170q24 -6 43 -6q54 0 77.5 39.5t23.5 116.5v274h-97v33h97v66q0 97 49.5 143.5t134.5 46.5q28 0 54 -7l-8 -33q-18 6 -46 6q-68 0 -106.5 -38.5t-38.5 -116.5v-67h148v-33h-148v-274q0 -99 -32.5 -144t-105.5 -45q-27 0 -55 8z" />
    <glyph glyph-name="Khook" unicode="&#x198;" horiz-adv-x="658" 
d="M93 0v700h39v-446q42 15 84.5 61t90.5 147q60 127 127.5 179.5t144.5 59.5l1 -32q-145 -18 -239 -220l264 -449h-48l-235 410q-48 -95 -91 -134.5t-99 -58.5v-217h-39z" />
    <glyph glyph-name="khook" unicode="&#x199;" horiz-adv-x="503" 
d="M92 0v586q0 172 139 172v-34q-46 0 -73 -33.5t-27 -104.5v-372l266 291h47l-151 -163l182 -342h-44l-163 315l-137 -148v-167h-39z" />
    <glyph glyph-name="barredO" unicode="&#x19f;" horiz-adv-x="807" 
d="M63 356q0 159 98 257.5t242 98.5t242.5 -98.5t98.5 -257.5q0 -168 -96.5 -268t-244.5 -100q-147 0 -243.5 100t-96.5 268zM403 677q-124 0 -210.5 -86.5t-89.5 -225.5h600q-3 139 -89.5 225.5t-210.5 86.5zM403 23q125 0 209.5 84t90.5 228h-600q7 -144 91 -228t209 -84z
" />
    <glyph glyph-name="Ezh" unicode="&#x1b7;" horiz-adv-x="625" 
d="M145 294l359 369h-465v37h516v-40l-356 -363q50 9 88 9q142 0 220.5 -67t78.5 -189q0 -121 -91.5 -190.5t-229.5 -69.5q-118 0 -209 40l14 33q92 -39 195 -39q121 0 201 61t80 166q0 109 -70 166t-199 57q-50 0 -114 -11z" />
    <glyph glyph-name="Acaron" unicode="&#x1cd;" horiz-adv-x="670" 
d="M37 0l273 700h51l272 -700h-45l-75 199h-356l-75 -199h-45zM334 666l-164 -433h330l-164 433h-2zM311 755l-129 104h31l121 -76h1l121 76h31l-130 -104h-46z" />
    <glyph glyph-name="acaron" unicode="&#x1ce;" horiz-adv-x="504" 
d="M53 109q0 153 318 167v99q0 49 -30.5 79t-91.5 30q-78 0 -160 -45l-17 33q84 45 177 45q81 0 120.5 -38.5t39.5 -103.5v-284q0 -30 15 -45.5t42 -15.5v-30q-80 0 -92 70q-29 -36 -76 -59t-102 -23q-64 0 -103.5 33t-39.5 88zM92 110q0 -41 29.5 -65t79.5 -24
q55 0 100.5 24t69.5 59v143q-279 -12 -279 -137zM237 561l-128 156h31l119 -126h1l120 126h30l-127 -156h-46z" />
    <glyph glyph-name="Icaron" unicode="&#x1cf;" horiz-adv-x="225" 
d="M93 0v700h39v-700h-39zM89 755l-129 104h31l121 -76h1l121 76h31l-130 -104h-46z" />
    <glyph glyph-name="icaron" unicode="&#x1d0;" 
d="M89 561l-128 156h31l119 -126h1l120 126h30l-127 -156h-46zM92 0v505h39v-505h-39z" />
    <glyph glyph-name="Ocaron" unicode="&#x1d1;" horiz-adv-x="807" 
d="M380 755l-129 104h31l121 -76h1l121 76h31l-130 -104h-46zM63 356q0 159 98 257.5t242 98.5t242.5 -98.5t98.5 -257.5q0 -168 -96.5 -268t-244.5 -100q-147 0 -243.5 100t-96.5 268zM103 356q0 -152 85 -242.5t215 -90.5t215.5 90.5t85.5 242.5q0 142 -87 231.5
t-214 89.5q-126 0 -213 -89.5t-87 -231.5z" />
    <glyph glyph-name="ocaron" unicode="&#x1d2;" horiz-adv-x="591" 
d="M272 561l-128 156h31l119 -126h1l120 126h30l-127 -156h-46zM61 260q0 116 66 186.5t169 70.5q102 0 167.5 -70.5t65.5 -186.5q0 -124 -64 -198t-169 -74q-106 0 -170.5 74t-64.5 198zM100 260q0 -109 53.5 -174t142.5 -65q87 0 140.5 65.5t53.5 173.5q0 100 -54.5 162
t-139.5 62q-86 0 -141 -62t-55 -162z" />
    <glyph glyph-name="Ucaron" unicode="&#x1d3;" horiz-adv-x="710" 
d="M332 755l-129 104h31l121 -76h1l121 76h31l-130 -104h-46zM90 254v446h39v-446q0 -109 64.5 -170t161.5 -61t161.5 61t64.5 170v446h39v-446q0 -127 -74.5 -196.5t-190.5 -69.5t-190.5 69.5t-74.5 196.5z" />
    <glyph glyph-name="ucaron" unicode="&#x1d4;" horiz-adv-x="561" 
d="M257 561l-128 156h31l119 -126h1l120 126h30l-127 -156h-46zM86 154v351h39v-352q0 -132 122 -132q107 0 187 98v386h39v-505h-32l-6 78q-88 -90 -193 -90q-156 0 -156 166z" />
    <glyph glyph-name="Adieresismacron" unicode="&#x1de;" horiz-adv-x="670" 
d="M37 0l273 700h51l272 -700h-45l-75 199h-356l-75 -199h-45zM334 666l-164 -433h330l-164 433h-2zM404 765v56h44v-56h-44zM222 765v56h44v-56h-44zM198 878v32h274v-32h-274z" />
    <glyph glyph-name="adieresismacron" unicode="&#x1df;" horiz-adv-x="504" 
d="M53 109q0 153 318 167v99q0 49 -30.5 79t-91.5 30q-78 0 -160 -45l-17 33q84 45 177 45q81 0 120.5 -38.5t39.5 -103.5v-284q0 -30 15 -45.5t42 -15.5v-30q-80 0 -92 70q-29 -36 -76 -59t-102 -23q-64 0 -103.5 33t-39.5 88zM92 110q0 -41 29.5 -65t79.5 -24
q55 0 100.5 24t69.5 59v143q-279 -12 -279 -137zM324 598v56h44v-56h-44zM151 598v56h44v-56h-44zM122 730v33h273v-33h-273z" />
    <glyph glyph-name="AEmacron" unicode="&#x1e2;" horiz-adv-x="1003" 
d="M37 0l322 700h564v-37h-496l86 -288h369v-36h-358l90 -302h315v-37h-347l-58 199h-352l-89 -199h-46zM381 663l-193 -430h326l-125 430h-8zM340 791v32h274v-32h-274z" />
    <glyph glyph-name="aemacron" unicode="&#x1e3;" horiz-adv-x="864" 
d="M402 104q-28 -49 -82 -82.5t-123 -33.5q-65 0 -104.5 33t-39.5 88q0 155 318 166v101q0 48 -30.5 78t-91.5 30q-76 0 -160 -45l-17 33q86 46 177 46q73 0 111 -34t43 -93q28 60 80.5 93.5t120.5 33.5q98 0 147 -60t49 -158q0 -8 -3 -32h-387q-1 -125 50 -186t145 -61
q83 0 155 51l20 -29q-76 -55 -175 -55q-147 0 -203 116zM412 298h349q2 83 -36.5 135t-120.5 52q-77 0 -129.5 -50.5t-62.5 -136.5zM92 110q0 -40 30 -65t79 -25q60 0 112.5 32t73.5 86q-16 51 -16 109q-279 -12 -279 -137zM289 622v33h273v-33h-273z" />
    <glyph glyph-name="Gstroke" unicode="&#x1e4;" horiz-adv-x="723" 
d="M473 180v30h130v107h-221v33h258v-140h93v-30h-93v-127q-95 -65 -231 -65q-159 0 -252.5 100.5t-93.5 270.5q0 158 95.5 255.5t250.5 97.5q126 0 218 -56l-20 -31q-83 52 -198 52q-137 0 -221.5 -88t-84.5 -230q0 -154 82 -245t224 -91q119 0 194 50v107h-130z" />
    <glyph glyph-name="gstroke" unicode="&#x1e5;" horiz-adv-x="550" 
d="M-12 -84v31h51q14 57 97 89q-48 25 -48 73q0 44 45 72q-85 52 -85 153q0 79 58.5 131t143.5 52q73 0 129 -40q61 44 142 41v-33q-79 3 -123 -23q55 -53 55 -128q0 -80 -59 -133t-144 -53q-52 0 -95 20q-34 -20 -34 -53q0 -15 5.5 -26.5t19 -18.5t25 -11.5t35 -7.5
t37.5 -4t43 -3q196 -11 220 -97h45v-31h-41q-2 -61 -64.5 -93.5t-178.5 -32.5q-107 0 -167.5 33t-63.5 93h-48zM250 180q70 0 118 44t48 110q0 64 -48 108t-118 44q-69 0 -116.5 -44t-47.5 -108q0 -66 47.5 -110t116.5 -44zM473 -84h-399q4 -45 54 -70t139 -25
q97 0 150.5 24.5t55.5 70.5zM277 11q-57 1 -105 13q-80 -24 -95 -77h389q-28 57 -189 64z" />
    <glyph glyph-name="Gcaron" unicode="&#x1e6;" horiz-adv-x="723" 
d="M358 755l-129 104h31l121 -76h1l121 76h31l-130 -104h-46zM63 359q0 158 95.5 255.5t250.5 97.5q126 0 218 -56l-20 -31q-83 52 -198 52q-137 0 -221.5 -88t-84.5 -230q0 -154 82 -245t224 -91q119 0 194 50v244h-221v33h258v-297q-95 -65 -231 -65q-159 0 -252.5 100.5
t-93.5 270.5z" />
    <glyph glyph-name="gcaron" unicode="&#x1e7;" horiz-adv-x="557" 
d="M263 561l-128 156h31l119 -126h1l120 126h30l-127 -156h-46zM42 -78q0 77 100 114q-48 25 -48 73q0 44 45 72q-85 52 -85 153q0 79 58.5 131t143.5 52q73 0 129 -40q61 44 142 41v-33q-79 3 -123 -23q55 -53 55 -128q0 -80 -59 -133t-144 -53q-52 0 -95 20
q-34 -20 -34 -53q0 -15 5.5 -26.5t19 -18.5t25 -11.5t35 -7.5t37.5 -4t43 -3q224 -12 224 -123q0 -64 -62.5 -97.5t-180.5 -33.5q-110 0 -170.5 35t-60.5 97zM256 180q70 0 118 44t48 110q0 64 -48 108t-118 44q-69 0 -116.5 -44t-47.5 -108q0 -66 47.5 -110t116.5 -44z
M283 11q-57 1 -105 13q-44 -13 -71 -39t-27 -62q0 -48 50.5 -75t142.5 -27q98 0 152 25t54 73q0 83 -196 92z" />
    <glyph glyph-name="Kcaron" unicode="&#x1e8;" horiz-adv-x="658" 
d="M93 0v700h39v-442l394 442h50l-231 -258l260 -442h-48l-237 413l-188 -210v-203h-39zM295 755l-129 104h31l121 -76h1l121 76h31l-130 -104h-46z" />
    <glyph glyph-name="kcaron" unicode="&#x1e9;" horiz-adv-x="503" 
d="M92 0v755h39v-541l266 291h47l-151 -163l182 -342h-44l-163 315l-137 -148v-167h-39zM89 797l-129 104h31l121 -76h1l121 76h31l-130 -104h-46z" />
    <glyph glyph-name="Oogonek" unicode="&#x1ea;" horiz-adv-x="807" 
d="M63 356q0 159 98 257.5t242 98.5t242.5 -98.5t98.5 -257.5q0 -114 -47 -199t-127 -128q-67 -38 -102 -70.5t-35 -76.5q0 -26 17 -40.5t43 -14.5q32 0 58 14l2 -1v-32q-28 -14 -61 -14q-41 0 -67 21.5t-26 61.5q0 61 74 119q-35 -8 -70 -8q-147 0 -243.5 100t-96.5 268z
M103 356q0 -152 85 -242.5t215 -90.5t215.5 90.5t85.5 242.5q0 142 -87 231.5t-214 89.5q-126 0 -213 -89.5t-87 -231.5z" />
    <glyph glyph-name="oogonek" unicode="&#x1eb;" horiz-adv-x="591" 
d="M61 260q0 116 66 186.5t169 70.5q102 0 167.5 -70.5t65.5 -186.5q0 -81 -29 -143t-83 -96q-40 -25 -62 -41.5t-40.5 -43t-18.5 -54.5q0 -26 16.5 -40.5t43.5 -14.5q31 0 57 14l2 -1v-32q-28 -14 -60 -14q-41 0 -67 21.5t-26 61.5q0 59 67 114q-17 -3 -35 -3
q-105 1 -169 74.5t-64 197.5zM100 260q0 -109 53.5 -174t142.5 -65q87 0 140.5 65.5t53.5 173.5q0 100 -54.5 162t-139.5 62q-86 0 -141 -62t-55 -162z" />
    <glyph glyph-name="Oogonekmacron" unicode="&#x1ec;" horiz-adv-x="807" 
d="M267 791v32h274v-32h-274zM63 356q0 159 98 257.5t242 98.5t242.5 -98.5t98.5 -257.5q0 -114 -47 -199t-127 -128q-67 -38 -102 -70.5t-35 -76.5q0 -26 17 -40.5t43 -14.5q32 0 58 14l2 -1v-32q-28 -14 -61 -14q-41 0 -67 21.5t-26 61.5q0 61 74 119q-35 -8 -70 -8
q-147 0 -243.5 100t-96.5 268zM103 356q0 -152 85 -242.5t215 -90.5t215.5 90.5t85.5 242.5q0 142 -87 231.5t-214 89.5q-126 0 -213 -89.5t-87 -231.5z" />
    <glyph glyph-name="oogonekmacron" unicode="&#x1ed;" horiz-adv-x="591" 
d="M158 622v33h273v-33h-273zM61 260q0 116 66 186.5t169 70.5q102 0 167.5 -70.5t65.5 -186.5q0 -81 -29 -143t-83 -96q-40 -25 -62 -41.5t-40.5 -43t-18.5 -54.5q0 -26 16.5 -40.5t43.5 -14.5q31 0 57 14l2 -1v-32q-28 -14 -60 -14q-41 0 -67 21.5t-26 61.5q0 59 67 114
q-17 -3 -35 -3q-105 1 -169 74.5t-64 197.5zM100 260q0 -109 53.5 -174t142.5 -65q87 0 140.5 65.5t53.5 173.5q0 100 -54.5 162t-139.5 62q-86 0 -141 -62t-55 -162z" />
    <glyph glyph-name="Ezhcaron" unicode="&#x1ee;" horiz-adv-x="625" 
d="M284 755l-129 104h31l121 -76h1l121 76h31l-130 -104h-46zM145 294l359 369h-465v37h516v-40l-356 -363q50 9 88 9q142 0 220.5 -67t78.5 -189q0 -121 -91.5 -190.5t-229.5 -69.5q-118 0 -209 40l14 33q92 -39 195 -39q121 0 201 61t80 166q0 109 -70 166t-199 57
q-50 0 -114 -11z" />
    <glyph glyph-name="ezhcaron" unicode="&#x1ef;" horiz-adv-x="484" 
d="M218 561l-128 156h31l119 -126h1l120 126h30l-127 -156h-46zM106 181l269 290h-340v34h387v-34l-263 -283q45 9 76 9q104 0 160 -52t56 -148t-69 -151.5t-177 -55.5q-87 0 -159 33l13 30q68 -29 145 -29q92 0 150.5 46.5t58.5 127.5q0 84 -48.5 126t-139.5 42
q-52 0 -105 -10z" />
    <glyph glyph-name="jcaron" unicode="&#x1f0;" horiz-adv-x="231" 
d="M100 -38v543h39v-542q0 -173 -138 -173q-21 0 -39 5l7 33q12 -4 31 -4q46 0 73 33.5t27 104.5zM97 561l-128 156h31l119 -126h1l120 126h30l-127 -156h-46z" />
    <glyph glyph-name="Gacute" unicode="&#x1f4;" horiz-adv-x="723" 
d="M357 755l109 119l33 -27l-110 -92h-32zM63 359q0 158 95.5 255.5t250.5 97.5q126 0 218 -56l-20 -31q-83 52 -198 52q-137 0 -221.5 -88t-84.5 -230q0 -154 82 -245t224 -91q119 0 194 50v244h-221v33h258v-297q-95 -65 -231 -65q-159 0 -252.5 100.5t-93.5 270.5z" />
    <glyph glyph-name="gacute" unicode="&#x1f5;" horiz-adv-x="557" 
d="M258 561l139 165l30 -24l-140 -141h-29zM42 -78q0 77 100 114q-48 25 -48 73q0 44 45 72q-85 52 -85 153q0 79 58.5 131t143.5 52q73 0 129 -40q61 44 142 41v-33q-79 3 -123 -23q55 -53 55 -128q0 -80 -59 -133t-144 -53q-52 0 -95 20q-34 -20 -34 -53q0 -15 5.5 -26.5
t19 -18.5t25 -11.5t35 -7.5t37.5 -4t43 -3q224 -12 224 -123q0 -64 -62.5 -97.5t-180.5 -33.5q-110 0 -170.5 35t-60.5 97zM256 180q70 0 118 44t48 110q0 64 -48 108t-118 44q-69 0 -116.5 -44t-47.5 -108q0 -66 47.5 -110t116.5 -44zM283 11q-57 1 -105 13
q-44 -13 -71 -39t-27 -62q0 -48 50.5 -75t142.5 -27q98 0 152 25t54 73q0 83 -196 92z" />
    <glyph glyph-name="Aringacute" unicode="&#x1fa;" horiz-adv-x="670" 
d="M37 0l266 684q-27 9 -44.5 33t-17.5 54q0 38 27.5 65t65.5 27q39 0 66 -27t27 -65q0 -30 -16.5 -53.5t-43.5 -33.5l266 -684h-45l-75 199h-356l-75 -199h-45zM334 666l-164 -433h330l-164 433h-2zM334 700h6q27 2 45.5 22.5t18.5 48.5q0 29 -20.5 49.5t-49.5 20.5
t-49.5 -20.5t-20.5 -49.5t20.5 -50t49.5 -21zM310 887l109 119l33 -27l-110 -92h-32z" />
    <glyph glyph-name="aringacute" unicode="&#x1fb;" horiz-adv-x="504" 
d="M53 109q0 153 318 167v99q0 49 -30.5 79t-91.5 30q-78 0 -160 -45l-17 33q84 45 177 45q81 0 120.5 -38.5t39.5 -103.5v-284q0 -30 15 -45.5t42 -15.5v-30q-80 0 -92 70q-29 -36 -76 -59t-102 -23q-64 0 -103.5 33t-39.5 88zM92 110q0 -41 29.5 -65t79.5 -24
q55 0 100.5 24t69.5 59v143q-279 -12 -279 -137zM233 767l139 165l30 -24l-140 -141h-29zM259 554q-39 0 -66 26.5t-27 65.5q0 38 27.5 65t65.5 27q39 0 66 -27t27 -65q0 -39 -27 -65.5t-66 -26.5zM259 575q29 0 50 21t21 50t-21 49.5t-50 20.5t-49.5 -20.5t-20.5 -49.5
t20.5 -50t49.5 -21z" />
    <glyph glyph-name="AEacute" unicode="&#x1fc;" horiz-adv-x="1003" 
d="M37 0l322 700h564v-37h-496l86 -288h369v-36h-358l90 -302h315v-37h-347l-58 199h-352l-89 -199h-46zM381 663l-193 -430h326l-125 430h-8zM452 755l109 119l33 -27l-110 -92h-32z" />
    <glyph glyph-name="aeacute" unicode="&#x1fd;" horiz-adv-x="864" 
d="M402 104q-28 -49 -82 -82.5t-123 -33.5q-65 0 -104.5 33t-39.5 88q0 155 318 166v101q0 48 -30.5 78t-91.5 30q-76 0 -160 -45l-17 33q86 46 177 46q73 0 111 -34t43 -93q28 60 80.5 93.5t120.5 33.5q98 0 147 -60t49 -158q0 -8 -3 -32h-387q-1 -125 50 -186t145 -61
q83 0 155 51l20 -29q-76 -55 -175 -55q-147 0 -203 116zM412 298h349q2 83 -36.5 135t-120.5 52q-77 0 -129.5 -50.5t-62.5 -136.5zM92 110q0 -40 30 -65t79 -25q60 0 112.5 32t73.5 86q-16 51 -16 109q-279 -12 -279 -137zM400 561l139 165l30 -24l-140 -141h-29z" />
    <glyph glyph-name="Oslashacute" unicode="&#x1fe;" horiz-adv-x="807" 
d="M63 356q0 159 98 257.5t242 98.5q115 0 203 -65l66 89l24 -18l-67 -90q115 -102 115 -272q0 -168 -96.5 -268t-244.5 -100q-116 0 -202 63l-64 -87l-26 18l66 89q-114 103 -114 285zM103 356q0 -162 98 -255l382 516q-77 60 -180 60q-126 0 -213 -89.5t-87 -231.5z
M704 356q0 151 -98 242l-383 -516q76 -59 180 -59q130 0 215.5 90.5t85.5 242.5zM379 755l109 119l33 -27l-110 -92h-32z" />
    <glyph glyph-name="oslashacute" unicode="&#x1ff;" horiz-adv-x="591" 
d="M61 260q0 116 66 186.5t169 70.5q83 0 141 -46l67 89l25 -19l-69 -91q69 -72 69 -190q0 -124 -64 -198t-169 -74q-84 0 -144 48l-66 -90l-26 19l69 93q-68 74 -68 202zM490 260q0 97 -53 160l-263 -355q50 -44 122 -44q87 0 140.5 65.5t53.5 173.5zM100 260
q0 -109 53 -173l263 354q-53 43 -120 43q-86 0 -141 -62t-55 -162zM268 561l139 165l30 -24l-140 -141h-29z" />
    <glyph glyph-name="Adoublegrave" unicode="&#x200;" horiz-adv-x="670" 
d="M37 0l273 700h51l272 -700h-45l-75 199h-356l-75 -199h-45zM334 666l-164 -433h330l-164 433h-2zM294 755h-32l-107 92l32 27zM425 755h-32l-108 92l32 27z" />
    <glyph glyph-name="adoublegrave" unicode="&#x201;" horiz-adv-x="504" 
d="M53 109q0 153 318 167v99q0 49 -30.5 79t-91.5 30q-78 0 -160 -45l-17 33q84 45 177 45q81 0 120.5 -38.5t39.5 -103.5v-284q0 -30 15 -45.5t42 -15.5v-30q-80 0 -92 70q-29 -36 -76 -59t-102 -23q-64 0 -103.5 33t-39.5 88zM92 110q0 -41 29.5 -65t79.5 -24
q55 0 100.5 24t69.5 59v143q-279 -12 -279 -137zM81 726l137 -165h-29l-139 141zM212 726l137 -165h-29l-139 141z" />
    <glyph glyph-name="Ainvertedbreve" unicode="&#x202;" horiz-adv-x="670" 
d="M37 0l273 700h51l272 -700h-45l-75 199h-356l-75 -199h-45zM334 666l-164 -433h330l-164 433h-2zM335 864q63 0 104.5 -29t55.5 -80h-33q-12 35 -45 56t-82 21t-82 -21t-45 -56h-33q14 51 55.5 80t104.5 29z" />
    <glyph glyph-name="ainvertedbreve" unicode="&#x203;" horiz-adv-x="504" 
d="M53 109q0 153 318 167v99q0 49 -30.5 79t-91.5 30q-78 0 -160 -45l-17 33q84 45 177 45q81 0 120.5 -38.5t39.5 -103.5v-284q0 -30 15 -45.5t42 -15.5v-30q-80 0 -92 70q-29 -36 -76 -59t-102 -23q-64 0 -103.5 33t-39.5 88zM92 110q0 -41 29.5 -65t79.5 -24
q55 0 100.5 24t69.5 59v143q-279 -12 -279 -137zM258 718q63 0 104 -42.5t47 -114.5h-31q-6 57 -38 91t-82 34q-49 0 -81.5 -34t-38.5 -91h-30q6 73 46.5 115t103.5 42z" />
    <glyph glyph-name="Edoublegrave" unicode="&#x204;" horiz-adv-x="634" 
d="M286 755h-32l-107 92l32 27zM417 755h-32l-108 92l32 27zM93 0v700h460v-35h-421v-291h380v-34h-380v-305h428v-35h-467z" />
    <glyph glyph-name="edoublegrave" unicode="&#x205;" horiz-adv-x="555" 
d="M61 260q0 117 65.5 187.5t167.5 70.5q98 0 147 -60t49 -158q0 -16 -2 -32h-388v-8q0 -113 49.5 -176t146.5 -63q83 0 155 51l20 -29q-76 -55 -176 -55q-115 0 -174.5 71.5t-59.5 200.5zM295 485q-78 0 -130.5 -50.5t-62.5 -136.5h350q2 83 -36.5 135t-120.5 52zM113 726
l137 -165h-29l-139 141zM244 726l137 -165h-29l-139 141z" />
    <glyph glyph-name="Einvertedbreve" unicode="&#x206;" horiz-adv-x="633" 
d="M93 0v700h460v-35h-421v-291h380v-34h-380v-305h428v-35h-467zM326 864q63 0 104.5 -29t55.5 -80h-33q-12 35 -45 56t-82 21t-82 -21t-45 -56h-33q14 51 55.5 80t104.5 29z" />
    <glyph glyph-name="einvertedbreve" unicode="&#x207;" horiz-adv-x="555" 
d="M61 260q0 117 65.5 187.5t167.5 70.5q98 0 147 -60t49 -158q0 -16 -2 -32h-388v-8q0 -113 49.5 -176t146.5 -63q83 0 155 51l20 -29q-76 -55 -176 -55q-115 0 -174.5 71.5t-59.5 200.5zM295 485q-78 0 -130.5 -50.5t-62.5 -136.5h350q2 83 -36.5 135t-120.5 52zM291 718
q63 0 104 -42.5t47 -114.5h-31q-6 57 -38 91t-82 34q-49 0 -81.5 -34t-38.5 -91h-30q6 73 46.5 115t103.5 42z" />
    <glyph glyph-name="Idoublegrave" unicode="&#x208;" horiz-adv-x="225" 
d="M93 0v700h39v-700h-39zM72 755h-32l-107 92l32 27zM203 755h-32l-108 92l32 27z" />
    <glyph glyph-name="idoublegrave" unicode="&#x209;" 
d="M92 0v505h39v-505h-39zM-68 726l137 -165h-29l-139 141zM63 726l137 -165h-29l-139 141z" />
    <glyph glyph-name="Iinvertedbreve" unicode="&#x20a;" horiz-adv-x="225" 
d="M93 0v700h39v-700h-39zM113 864q63 0 104.5 -29t55.5 -80h-33q-12 35 -45 56t-82 21t-82 -21t-45 -56h-33q14 51 55.5 80t104.5 29z" />
    <glyph glyph-name="iinvertedbreve" unicode="&#x20b;" 
d="M111 718q63 0 104 -42.5t47 -114.5h-31q-6 57 -38 91t-82 34q-49 0 -81.5 -34t-38.5 -91h-30q6 73 46.5 115t103.5 42zM92 0v505h39v-505h-39z" />
    <glyph glyph-name="Odoublegrave" unicode="&#x20c;" horiz-adv-x="807" 
d="M363 755h-32l-107 92l32 27zM494 755h-32l-108 92l32 27zM63 356q0 159 98 257.5t242 98.5t242.5 -98.5t98.5 -257.5q0 -168 -96.5 -268t-244.5 -100q-147 0 -243.5 100t-96.5 268zM103 356q0 -152 85 -242.5t215 -90.5t215.5 90.5t85.5 242.5q0 142 -87 231.5t-214 89.5
q-126 0 -213 -89.5t-87 -231.5z" />
    <glyph glyph-name="odoublegrave" unicode="&#x20d;" horiz-adv-x="591" 
d="M116 726l137 -165h-29l-139 141zM247 726l137 -165h-29l-139 141zM61 260q0 116 66 186.5t169 70.5q102 0 167.5 -70.5t65.5 -186.5q0 -124 -64 -198t-169 -74q-106 0 -170.5 74t-64.5 198zM100 260q0 -109 53.5 -174t142.5 -65q87 0 140.5 65.5t53.5 173.5
q0 100 -54.5 162t-139.5 62q-86 0 -141 -62t-55 -162z" />
    <glyph glyph-name="Oinvertedbreve" unicode="&#x20e;" horiz-adv-x="807" 
d="M403 864q63 0 104.5 -29t55.5 -80h-33q-12 35 -45 56t-82 21t-82 -21t-45 -56h-33q14 51 55.5 80t104.5 29zM63 356q0 159 98 257.5t242 98.5t242.5 -98.5t98.5 -257.5q0 -168 -96.5 -268t-244.5 -100q-147 0 -243.5 100t-96.5 268zM103 356q0 -152 85 -242.5t215 -90.5
t215.5 90.5t85.5 242.5q0 142 -87 231.5t-214 89.5q-126 0 -213 -89.5t-87 -231.5z" />
    <glyph glyph-name="oinvertedbreve" unicode="&#x20f;" horiz-adv-x="591" 
d="M294 718q63 0 104 -42.5t47 -114.5h-31q-6 57 -38 91t-82 34q-49 0 -81.5 -34t-38.5 -91h-30q6 73 46.5 115t103.5 42zM61 260q0 116 66 186.5t169 70.5q102 0 167.5 -70.5t65.5 -186.5q0 -124 -64 -198t-169 -74q-106 0 -170.5 74t-64.5 198zM100 260q0 -109 53.5 -174
t142.5 -65q87 0 140.5 65.5t53.5 173.5q0 100 -54.5 162t-139.5 62q-86 0 -141 -62t-55 -162z" />
    <glyph glyph-name="Rdoublegrave" unicode="&#x210;" horiz-adv-x="667" 
d="M93 0v700h279q115 0 169.5 -58.5t54.5 -141.5q0 -69 -41 -125t-124 -71l161 -304h-45l-155 299h-260v-299h-39zM132 332h238q95 0 141 50.5t46 117.5q0 69 -45 117.5t-140 48.5h-240v-334zM415 755h-32l-108 92l32 27zM284 755h-32l-107 92l32 27z" />
    <glyph glyph-name="rdoublegrave" unicode="&#x211;" horiz-adv-x="373" 
d="M88 0v505h34l5 -89q60 102 162 102q34 0 60 -7l-8 -38q-30 8 -55 8q-96 0 -159 -107v-374h-39zM40 726l137 -165h-29l-139 141zM171 726l137 -165h-29l-139 141z" />
    <glyph glyph-name="Rinvertedbreve" unicode="&#x212;" horiz-adv-x="667" 
d="M93 0v700h279q115 0 169.5 -58.5t54.5 -141.5q0 -69 -41 -125t-124 -71l161 -304h-45l-155 299h-260v-299h-39zM132 332h238q95 0 141 50.5t46 117.5q0 69 -45 117.5t-140 48.5h-240v-334zM325 864q63 0 104.5 -29t55.5 -80h-33q-12 35 -45 56t-82 21t-82 -21t-45 -56
h-33q14 51 55.5 80t104.5 29z" />
    <glyph glyph-name="rinvertedbreve" unicode="&#x213;" horiz-adv-x="373" 
d="M218 718q63 0 104 -42.5t47 -114.5h-31q-6 57 -38 91t-82 34q-49 0 -81.5 -34t-38.5 -91h-30q6 73 46.5 115t103.5 42zM88 0v505h34l5 -89q60 102 162 102q34 0 60 -7l-8 -38q-30 8 -55 8q-96 0 -159 -107v-374h-39z" />
    <glyph glyph-name="Udoublegrave" unicode="&#x214;" horiz-adv-x="710" 
d="M314 755h-32l-107 92l32 27zM445 755h-32l-108 92l32 27zM90 254v446h39v-446q0 -109 64.5 -170t161.5 -61t161.5 61t64.5 170v446h39v-446q0 -127 -74.5 -196.5t-190.5 -69.5t-190.5 69.5t-74.5 196.5z" />
    <glyph glyph-name="udoublegrave" unicode="&#x215;" horiz-adv-x="561" 
d="M86 154v351h39v-352q0 -132 122 -132q107 0 187 98v386h39v-505h-32l-6 78q-88 -90 -193 -90q-156 0 -156 166zM101 726l137 -165h-29l-139 141zM232 726l137 -165h-29l-139 141z" />
    <glyph glyph-name="Uinvertedbreve" unicode="&#x216;" horiz-adv-x="710" 
d="M90 254v446h39v-446q0 -109 64.5 -170t161.5 -61t161.5 61t64.5 170v446h39v-446q0 -127 -74.5 -196.5t-190.5 -69.5t-190.5 69.5t-74.5 196.5zM355 864q63 0 104.5 -29t55.5 -80h-33q-12 35 -45 56t-82 21t-82 -21t-45 -56h-33q14 51 55.5 80t104.5 29z" />
    <glyph glyph-name="uinvertedbreve" unicode="&#x217;" horiz-adv-x="561" 
d="M279 718q63 0 104 -42.5t47 -114.5h-31q-6 57 -38 91t-82 34q-49 0 -81.5 -34t-38.5 -91h-30q6 73 46.5 115t103.5 42zM86 154v351h39v-352q0 -132 122 -132q107 0 187 98v386h39v-505h-32l-6 78q-88 -90 -193 -90q-156 0 -156 166z" />
    <glyph glyph-name="Scommaaccent" unicode="&#x218;" horiz-adv-x="602" 
d="M59 56l21 32q93 -65 223 -65q98 0 148.5 41.5t50.5 108.5q0 47 -24 78.5t-62 47t-84 27t-91.5 24t-83.5 31.5t-62 57t-24 93q0 79 61 130t166 51q122 0 216 -49l-17 -33q-92 47 -198 47q-87 0 -137.5 -41t-50.5 -105q0 -47 24 -78.5t62 -47t84 -26.5t91.5 -23.5
t83.5 -31.5t62 -57t24 -94q0 -83 -61 -134t-178 -51q-72 0 -137 19.5t-107 48.5zM250 -56q14 4 29 4q69 0 71 -64q0 -45 -57 -95h-30q53 53 53 92q0 38 -42 38q-10 0 -24 -3v28z" />
    <glyph glyph-name="scommaaccent" unicode="&#x219;" horiz-adv-x="443" 
d="M170 -56q16 4 30 4q35 0 52.5 -17.5t17.5 -46.5q1 -45 -56 -95h-31q54 52 54 92q0 38 -42 38q-10 0 -25 -3v28zM44 34l19 30q68 -43 158 -43q68 0 103.5 27.5t35.5 74.5q0 44 -32 69t-77.5 36t-91 23.5t-77.5 44t-32 85.5q0 60 46 98t122 38q90 0 158 -35l-16 -32
q-66 34 -142 34q-60 0 -95 -28.5t-35 -73.5q0 -44 32 -69t77.5 -35.5t91 -22.5t77.5 -44t32 -87q0 -63 -45.5 -99.5t-130.5 -36.5q-105 0 -178 46z" />
    <glyph glyph-name="Tcommaaccent" unicode="&#x21a;" horiz-adv-x="640" 
d="M300 0v664h-268v36h576v-36h-269v-664h-39zM301 -56q14 4 29 4q69 0 71 -64q0 -45 -57 -95h-30q53 53 53 92q0 38 -42 38q-11 0 -24 -3v28z" />
    <glyph glyph-name="tcommaaccent" unicode="&#x21b;" horiz-adv-x="357" 
d="M130 -56q16 4 30 4q35 0 52.5 -17.5t17.5 -46.5q1 -45 -56 -95h-31q54 52 54 92q0 38 -42 38q-10 0 -25 -3v28zM122 125v348h-96v32h96v166h39v-166h150v-32h-150v-348q0 -52 19.5 -78t66.5 -26q37 0 73 22l16 -27q-42 -28 -91 -28q-65 0 -94 34.5t-29 102.5z" />
    <glyph glyph-name="Hcaron" unicode="&#x21e;" horiz-adv-x="694" 
d="M93 0v700h39v-326h430v326h39v-700h-39v339h-430v-339h-39zM324 755l-129 104h31l121 -76h1l121 76h31l-130 -104h-46z" />
    <glyph glyph-name="hcaron" unicode="&#x21f;" horiz-adv-x="565" 
d="M92 0v755h39v-329q83 92 192 92q156 0 156 -166v-352h-39v352q0 133 -122 133q-104 0 -187 -98v-387h-39zM88 797l-129 104h31l121 -76h1l121 76h31l-130 -104h-46z" />
    <glyph glyph-name="Adotabove" unicode="&#x226;" horiz-adv-x="670" 
d="M37 0l273 700h51l272 -700h-45l-75 199h-356l-75 -199h-45zM334 666l-164 -433h330l-164 433h-2zM310 779v56h47v-56h-47z" />
    <glyph glyph-name="adotabove" unicode="&#x227;" horiz-adv-x="504" 
d="M53 109q0 153 318 167v99q0 49 -30.5 79t-91.5 30q-78 0 -160 -45l-17 33q84 45 177 45q81 0 120.5 -38.5t39.5 -103.5v-284q0 -30 15 -45.5t42 -15.5v-30q-80 0 -92 70q-29 -36 -76 -59t-102 -23q-64 0 -103.5 33t-39.5 88zM92 110q0 -41 29.5 -65t79.5 -24
q55 0 100.5 24t69.5 59v143q-279 -12 -279 -137zM227 611v56h47v-56h-47z" />
    <glyph glyph-name="Otildemacron" unicode="&#x22c;" horiz-adv-x="807" 
d="M272 755q-5 44 14 69t52 25q25 0 48.5 -18.5t44 -37t38.5 -18.5q19 0 30.5 17t7.5 45h29q5 -44 -14.5 -69t-52.5 -25q-24 0 -47.5 18.5t-44 37t-38.5 18.5q-19 0 -30.5 -17t-8.5 -45h-28zM266 880v32h274v-32h-274zM63 356q0 159 98 257.5t242 98.5t242.5 -98.5
t98.5 -257.5q0 -168 -96.5 -268t-244.5 -100q-147 0 -243.5 100t-96.5 268zM103 356q0 -152 85 -242.5t215 -90.5t215.5 90.5t85.5 242.5q0 142 -87 231.5t-214 89.5q-126 0 -213 -89.5t-87 -231.5z" />
    <glyph glyph-name="otildemacron" unicode="&#x22d;" horiz-adv-x="591" 
d="M158 728v33h273v-33h-273zM61 260q0 116 66 186.5t169 70.5q102 0 167.5 -70.5t65.5 -186.5q0 -124 -64 -198t-169 -74q-106 0 -170.5 74t-64.5 198zM100 260q0 -109 53.5 -174t142.5 -65q87 0 140.5 65.5t53.5 173.5q0 100 -54.5 162t-139.5 62q-86 0 -141 -62t-55 -162
zM163 584q-4 44 15 69t52 25q24 0 47.5 -18.5t44 -37t38.5 -18.5q20 0 31 16.5t7 45.5h29q4 -44 -15 -69t-52 -25q-19 0 -38 11.5t-32 25t-29 25t-31 11.5q-20 0 -31 -16.5t-7 -44.5h-29z" />
    <glyph glyph-name="Odotabove" unicode="&#x22e;" horiz-adv-x="807" 
d="M379 779v56h47v-56h-47zM63 356q0 159 98 257.5t242 98.5t242.5 -98.5t98.5 -257.5q0 -168 -96.5 -268t-244.5 -100q-147 0 -243.5 100t-96.5 268zM103 356q0 -152 85 -242.5t215 -90.5t215.5 90.5t85.5 242.5q0 142 -87 231.5t-214 89.5q-126 0 -213 -89.5t-87 -231.5z
" />
    <glyph glyph-name="odotabove" unicode="&#x22f;" horiz-adv-x="591" 
d="M61 260q0 116 66 186.5t169 70.5q102 0 167.5 -70.5t65.5 -186.5q0 -124 -64 -198t-169 -74q-106 0 -170.5 74t-64.5 198zM100 260q0 -109 53.5 -174t142.5 -65q87 0 140.5 65.5t53.5 173.5q0 100 -54.5 162t-139.5 62q-86 0 -141 -62t-55 -162zM272 611v56h47v-56h-47z
" />
    <glyph glyph-name="Odotabovemacron" unicode="&#x230;" horiz-adv-x="807" 
d="M379 768v56h47v-56h-47zM266 880v32h274v-32h-274zM63 356q0 159 98 257.5t242 98.5t242.5 -98.5t98.5 -257.5q0 -168 -96.5 -268t-244.5 -100q-147 0 -243.5 100t-96.5 268zM103 356q0 -152 85 -242.5t215 -90.5t215.5 90.5t85.5 242.5q0 142 -87 231.5t-214 89.5
q-126 0 -213 -89.5t-87 -231.5z" />
    <glyph glyph-name="odotabovemacron" unicode="&#x231;" horiz-adv-x="591" 
d="M158 728v33h273v-33h-273zM61 260q0 116 66 186.5t169 70.5q102 0 167.5 -70.5t65.5 -186.5q0 -124 -64 -198t-169 -74q-106 0 -170.5 74t-64.5 198zM100 260q0 -109 53.5 -174t142.5 -65q87 0 140.5 65.5t53.5 173.5q0 100 -54.5 162t-139.5 62q-86 0 -141 -62t-55 -162
zM272 597v56h47v-56h-47z" />
    <glyph glyph-name="dotlessj" unicode="&#x237;" horiz-adv-x="231" 
d="M100 -38v543h39v-542q0 -173 -138 -173q-21 0 -39 5l7 33q12 -4 31 -4q46 0 73 33.5t27 104.5z" />
    <glyph glyph-name="schwa" unicode="&#x259;" horiz-adv-x="546" 
d="M65 238h387v8q0 113 -49 175.5t-146 62.5q-86 0 -155 -51l-20 30q75 54 176 54q114 0 173.5 -71.5t59.5 -199.5q0 -117 -65 -187.5t-167 -70.5q-94 0 -145 59t-51 151q0 26 2 40zM258 21q77 0 129 50t62 136h-348q-2 -82 36.5 -134t120.5 -52z" />
    <glyph glyph-name="barredo" unicode="&#x275;" horiz-adv-x="591" 
d="M61 260q0 116 66 186.5t169 70.5q102 0 167.5 -70.5t65.5 -186.5q0 -124 -64 -198t-169 -74q-106 0 -170.5 74t-64.5 198zM296 21q83 0 135.5 59t57.5 159h-389q5 -100 58.5 -159t137.5 -59zM296 484q-84 0 -139 -59t-57 -156h390q-3 97 -57 156t-137 59z" />
    <glyph glyph-name="ezh" unicode="&#x292;" horiz-adv-x="484" 
d="M106 181l269 290h-340v34h387v-34l-263 -283q45 9 76 9q104 0 160 -52t56 -148t-69 -151.5t-177 -55.5q-87 0 -159 33l13 30q68 -29 145 -29q92 0 150.5 46.5t58.5 127.5q0 84 -48.5 126t-139.5 42q-52 0 -105 -10z" />
    <glyph glyph-name="circumflex" unicode="&#x2c6;" horiz-adv-x="657" 
d="M178 561l128 156h46l127 -156h-30l-120 127h-1l-119 -127h-31z" />
    <glyph glyph-name="caron" unicode="&#x2c7;" horiz-adv-x="657" 
d="M306 561l-128 156h31l119 -126h1l120 126h30l-127 -156h-46z" />
    <glyph glyph-name="breve" unicode="&#x2d8;" horiz-adv-x="655" 
d="M329 560q-63 0 -104 42.5t-47 114.5h31q6 -57 38 -91t82 -34q49 0 81.5 34t38.5 91h30q-6 -72 -47 -114.5t-103 -42.5z" />
    <glyph glyph-name="dotaccent" unicode="&#x2d9;" horiz-adv-x="652" 
d="M302 611v56h47v-56h-47z" />
    <glyph glyph-name="ring" unicode="&#x2da;" horiz-adv-x="654" 
d="M327 560q-39 0 -66 26.5t-27 65.5q0 38 27.5 65t65.5 27q39 0 66 -27t27 -65q0 -39 -27 -65.5t-66 -26.5zM327 581q29 0 50 21t21 50t-21 49.5t-50 20.5t-49.5 -20.5t-20.5 -49.5t20.5 -50t49.5 -21z" />
    <glyph glyph-name="ogonek" unicode="&#x2db;" horiz-adv-x="654" 
d="M392 -160v-32q-28 -14 -61 -14q-41 0 -67 21.5t-26 61.5q0 90 150 165l10 -19q-28 -16 -46 -28.5t-39 -30.5t-31 -38.5t-10 -43.5q0 -26 17 -40.5t43 -14.5q32 0 57 14z" />
    <glyph glyph-name="tilde" unicode="&#x2dc;" horiz-adv-x="656" 
d="M196 598q-4 44 15 69t52 25q24 0 47.5 -18.5t44 -37t38.5 -18.5q20 0 31 16.5t7 45.5h29q4 -44 -15 -69t-52 -25q-19 0 -38 11.5t-32 25t-29 25t-31 11.5q-20 0 -31 -16.5t-7 -44.5h-29z" />
    <glyph glyph-name="hungarumlaut" unicode="&#x2dd;" horiz-adv-x="657" 
d="M180 561l137 165l31 -24l-139 -141h-29zM311 561l137 165l31 -24l-140 -141h-28z" />
    <glyph glyph-name="doublegrave" unicode="&#x30f;" horiz-adv-x="657" 
d="M211 726l137 -165h-29l-139 141zM342 726l137 -165h-29l-139 141z" />
    <glyph glyph-name="invertedbreve" unicode="&#x311;" horiz-adv-x="655" 
d="M328 718q63 0 104 -42.5t47 -114.5h-31q-6 57 -38 91t-82 34q-49 0 -81.5 -34t-38.5 -91h-30q6 73 46.5 115t103.5 42z" />
    <glyph glyph-name="commaabovecmb" unicode="&#x313;" horiz-adv-x="653" 
d="M376 591v-28q-14 -4 -30 -4q-68 0 -70 64q0 45 57 95h30q-53 -53 -53 -91q0 -39 42 -39q10 0 24 3z" />
    <glyph glyph-name="uni0323" unicode="&#x323;" horiz-adv-x="652" 
d="M302 -172v56h47v-56h-47z" />
    <glyph glyph-name="uni0329" unicode="&#x329;" horiz-adv-x="652" 
d="M307 -201v147h37v-147h-37z" />
    <glyph glyph-name="pi" unicode="&#x3c0;" horiz-adv-x="722" 
d="M658 497h-166v-334q0 -72 34 -102t98 -30v-32q-84 0 -127.5 37t-43.5 127v334h-194v-497h-39v497h-156v34h594v-34z" />
    <glyph glyph-name="Ddotbelow" unicode="&#x1e0c;" horiz-adv-x="705" 
d="M93 0v700h184q177 0 271 -90t94 -251q0 -172 -91.5 -265.5t-273.5 -93.5h-184zM132 35h146q161 0 242.5 84.5t81.5 239.5q0 144 -83.5 225t-240.5 81h-146v-630zM344 -172v56h47v-56h-47z" />
    <glyph glyph-name="ddotbelow" unicode="&#x1e0d;" horiz-adv-x="573" 
d="M248 -172v56h47v-56h-47zM271 -12q-99 0 -154.5 73.5t-55.5 198.5q0 118 57.5 187.5t153.5 69.5q91 0 171 -84v322h38v-755h-30l-7 76q-78 -88 -173 -88zM275 21q90 0 168 92v281q-81 90 -167 90q-81 0 -128.5 -60.5t-47.5 -163.5q0 -109 46 -174t129 -65z" />
    <glyph glyph-name="Dcedilla" unicode="&#x1e10;" horiz-adv-x="705" 
d="M352 -50h32q-27 -93 -106 -162l-35 17q80 69 109 145zM93 0v700h184q177 0 271 -90t94 -251q0 -172 -91.5 -265.5t-273.5 -93.5h-184zM132 35h146q161 0 242.5 84.5t81.5 239.5q0 144 -83.5 225t-240.5 81h-146v-630z" />
    <glyph glyph-name="dcedilla" unicode="&#x1e11;" horiz-adv-x="573" 
d="M254 -50h32q-27 -93 -106 -162l-35 17q80 69 109 145zM271 -12q-99 0 -154.5 73.5t-55.5 198.5q0 118 57.5 187.5t153.5 69.5q91 0 171 -84v322h38v-755h-30l-7 76q-78 -88 -173 -88zM275 21q90 0 168 92v281q-81 90 -167 90q-81 0 -128.5 -60.5t-47.5 -163.5
q0 -109 46 -174t129 -65z" />
    <glyph glyph-name="Hdotbelow" unicode="&#x1e24;" horiz-adv-x="694" 
d="M93 0v700h39v-326h430v326h39v-700h-39v339h-430v-339h-39zM324 -172v56h47v-56h-47z" />
    <glyph glyph-name="hdotbelow" unicode="&#x1e25;" horiz-adv-x="565" 
d="M92 0v755h39v-329q83 92 192 92q156 0 156 -166v-352h-39v352q0 133 -122 133q-104 0 -187 -98v-387h-39zM262 -172v56h47v-56h-47z" />
    <glyph glyph-name="Ldotbelow" unicode="&#x1e36;" horiz-adv-x="603" 
d="M93 0v700h39v-665h421v-35h-460zM299 -172v56h47v-56h-47z" />
    <glyph glyph-name="ldotbelow" unicode="&#x1e37;" 
d="M88 -172v56h47v-56h-47zM92 0v755h39v-755h-39z" />
    <glyph glyph-name="Ldotbelowmacron" unicode="&#x1e38;" horiz-adv-x="603" 
d="M-24 791v32h274v-32h-274zM93 0v700h39v-665h421v-35h-460zM299 -172v56h47v-56h-47z" />
    <glyph glyph-name="ldotbelowmacron" unicode="&#x1e39;" 
d="M-26 833v32h274v-32h-274zM88 -172v56h47v-56h-47zM92 0v755h39v-755h-39z" />
    <glyph glyph-name="Mdotbelow" unicode="&#x1e42;" horiz-adv-x="843" 
d="M93 0v700h53l275 -409l276 409h53v-700h-39v655l-290 -428l-290 429v-656h-38zM398 -172v56h47v-56h-47z" />
    <glyph glyph-name="mdotbelow" unicode="&#x1e43;" horiz-adv-x="874" 
d="M88 0v505h35l4 -73q84 86 183 86q109 0 138 -91q87 91 191 91q149 0 149 -166v-352h-38v353q0 131 -116 131q-99 0 -178 -89q3 -21 3 -44v-351h-39v353q0 131 -115 131q-102 0 -178 -92v-392h-39zM416 -172v56h47v-56h-47z" />
    <glyph glyph-name="Ndotaccent" unicode="&#x1e44;" horiz-adv-x="714" 
d="M333 779v56h47v-56h-47zM93 0v700h48l441 -650v650h39v-700h-49l-441 649v-649h-38z" />
    <glyph glyph-name="ndotaccent" unicode="&#x1e45;" horiz-adv-x="561" 
d="M258 611v56h47v-56h-47zM88 0v505h35l4 -78q86 91 192 91q156 0 156 -166v-352h-39v352q0 133 -122 133q-106 0 -187 -99v-386h-39z" />
    <glyph glyph-name="Ndotbelow" unicode="&#x1e46;" horiz-adv-x="714" 
d="M333 -172v56h47v-56h-47zM93 0v700h48l441 -650v650h39v-700h-49l-441 649v-649h-38z" />
    <glyph glyph-name="ndotbelow" unicode="&#x1e47;" horiz-adv-x="561" 
d="M258 -172v56h47v-56h-47zM88 0v505h35l4 -78q86 91 192 91q156 0 156 -166v-352h-39v352q0 133 -122 133q-106 0 -187 -99v-386h-39z" />
    <glyph glyph-name="Rdotbelow" unicode="&#x1e5a;" horiz-adv-x="667" 
d="M93 0v700h279q115 0 169.5 -58.5t54.5 -141.5q0 -69 -41 -125t-124 -71l161 -304h-45l-155 299h-260v-299h-39zM132 332h238q95 0 141 50.5t46 117.5q0 69 -45 117.5t-140 48.5h-240v-334zM301 -172v56h47v-56h-47z" />
    <glyph glyph-name="rdotbelow" unicode="&#x1e5b;" horiz-adv-x="373" 
d="M88 0v505h34l5 -89q60 102 162 102q34 0 60 -7l-8 -38q-30 8 -55 8q-96 0 -159 -107v-374h-39zM84 -172v56h47v-56h-47z" />
    <glyph glyph-name="Rdotbelowmacron" unicode="&#x1e5c;" horiz-adv-x="667" 
d="M93 0v700h279q115 0 169.5 -58.5t54.5 -141.5q0 -69 -41 -125t-124 -71l161 -304h-45l-155 299h-20h-240v-299h-39zM132 332h238q95 0 141 50.5t46 117.5q0 69 -45 117.5t-140 48.5h-240v-334zM188 791v32h274v-32h-274zM301 -172v56h47v-56h-47z" />
    <glyph glyph-name="rdotbelowmacron" unicode="&#x1e5d;" horiz-adv-x="373" 
d="M82 622v33h273v-33h-273zM88 0v505h34l5 -89q60 102 162 102q34 0 60 -7l-8 -38q-30 8 -55 8q-96 0 -159 -107v-374h-39zM84 -172v56h47v-56h-47z" />
    <glyph glyph-name="Sdotbelow" unicode="&#x1e62;" horiz-adv-x="602" 
d="M59 56l21 32q93 -65 223 -65q98 0 148.5 41.5t50.5 108.5q0 47 -24 78.5t-62 47t-84 27t-91.5 24t-83.5 31.5t-62 57t-24 93q0 79 61 130t166 51q122 0 216 -49l-17 -33q-92 47 -198 47q-87 0 -137.5 -41t-50.5 -105q0 -47 24 -78.5t62 -47t84 -26.5t91.5 -23.5
t83.5 -31.5t62 -57t24 -94q0 -83 -61 -134t-178 -51q-72 0 -137 19.5t-107 48.5zM277 -172v56h47v-56h-47z" />
    <glyph glyph-name="sdotbelow" unicode="&#x1e63;" horiz-adv-x="443" 
d="M44 34l19 30q68 -43 158 -43q68 0 103.5 27.5t35.5 74.5q0 44 -32 69t-77.5 36t-91 23.5t-77.5 44t-32 85.5q0 60 46 98t122 38q90 0 158 -35l-16 -32q-66 34 -142 34q-60 0 -95 -28.5t-35 -73.5q0 -44 32 -69t77.5 -35.5t91 -22.5t77.5 -44t32 -87q0 -63 -45.5 -99.5
t-130.5 -36.5q-105 0 -178 46zM198 -172v56h47v-56h-47z" />
    <glyph glyph-name="Tdotbelow" unicode="&#x1e6c;" horiz-adv-x="640" 
d="M300 0v664h-268v36h576v-36h-269v-664h-39zM297 -172v56h47v-56h-47z" />
    <glyph glyph-name="tdotbelow" unicode="&#x1e6d;" horiz-adv-x="357" 
d="M158 -172v56h47v-56h-47zM122 125v348h-96v32h96v166h39v-166h150v-32h-150v-348q0 -52 19.5 -78t66.5 -26q37 0 73 22l16 -27q-42 -28 -91 -28q-65 0 -94 34.5t-29 102.5z" />
    <glyph glyph-name="Wgrave" unicode="&#x1e80;" horiz-adv-x="1016" 
d="M500 755l-109 92l32 27l110 -119h-33zM263 0l-225 700h43l205 -654h2l197 654h46l197 -654h2l206 654h42l-225 -700h-48l-196 650h-2l-196 -650h-48z" />
    <glyph glyph-name="wgrave" unicode="&#x1e81;" horiz-adv-x="787" 
d="M202 0l-174 505h41l156 -462h1l147 462h40l148 -462h1l154 462h42l-174 -505h-46l-144 454h-2l-144 -454h-46zM390 561l-140 141l31 24l138 -165h-29z" />
    <glyph glyph-name="Wacute" unicode="&#x1e82;" horiz-adv-x="1016" 
d="M484 755l109 119l33 -27l-110 -92h-32zM263 0l-225 700h43l205 -654h2l197 654h46l197 -654h2l206 654h42l-225 -700h-48l-196 650h-2l-196 -650h-48z" />
    <glyph glyph-name="wacute" unicode="&#x1e83;" horiz-adv-x="787" 
d="M367 561l139 165l30 -24l-140 -141h-29zM202 0l-174 505h41l156 -462h1l147 462h40l148 -462h1l154 462h42l-174 -505h-46l-144 454h-2l-144 -454h-46z" />
    <glyph glyph-name="Wdieresis" unicode="&#x1e84;" horiz-adv-x="1016" 
d="M578 779v56h44v-56h-44zM396 779v56h44v-56h-44zM263 0l-225 700h43l205 -654h2l197 654h46l197 -654h2l206 654h42l-225 -700h-48l-196 650h-2l-196 -650h-48z" />
    <glyph glyph-name="wdieresis" unicode="&#x1e85;" horiz-adv-x="787" 
d="M458 611v56h44v-56h-44zM285 611v56h44v-56h-44zM202 0l-174 505h41l156 -462h1l147 462h40l148 -462h1l154 462h42l-174 -505h-46l-144 454h-2l-144 -454h-46z" />
    <glyph glyph-name="hmacronbelow" unicode="&#x1e96;" horiz-adv-x="565" 
d="M92 0v755h39v-329q83 92 192 92q156 0 156 -166v-352h-39v352q0 133 -122 133q-104 0 -187 -98v-387h-39zM149 -154v33h273v-33h-273z" />
    <glyph glyph-name="germandbls.cap" unicode="&#x1e9e;" horiz-adv-x="672" 
d="M90 0v491q0 104 66 162.5t173 58.5t175 -49.5t68 -135.5q0 -60 -42 -107t-121 -60q95 -8 146.5 -58t51.5 -122q0 -90 -67 -140.5t-176 -50.5q-57 0 -111 13l9 35q46 -13 101 -13q91 0 148 42t57 115q0 72 -59 115.5t-167 43.5h-54v36h48q99 0 147.5 44.5t48.5 106.5
q0 72 -56 112t-147 40q-90 0 -145 -49t-55 -139v-491h-39z" />
    <glyph glyph-name="Idotbelow" unicode="&#x1eca;" horiz-adv-x="225" 
d="M93 0v700h39v-700h-39zM89 -172v56h47v-56h-47z" />
    <glyph glyph-name="idotbelow" unicode="&#x1ecb;" 
d="M92 0v505h39v-505h-39zM92 665v72h39v-72h-39zM88 -172v56h47v-56h-47z" />
    <glyph glyph-name="Odotbelow" unicode="&#x1ecc;" horiz-adv-x="807" 
d="M63 356q0 159 98 257.5t242 98.5t242.5 -98.5t98.5 -257.5q0 -168 -96.5 -268t-244.5 -100q-147 0 -243.5 100t-96.5 268zM103 356q0 -152 85 -242.5t215 -90.5t215.5 90.5t85.5 242.5q0 142 -87 231.5t-214 89.5q-126 0 -213 -89.5t-87 -231.5zM380 -172v56h47v-56h-47z
" />
    <glyph glyph-name="odotbelow" unicode="&#x1ecd;" horiz-adv-x="591" 
d="M272 -172v56h47v-56h-47zM61 260q0 116 66 186.5t169 70.5q102 0 167.5 -70.5t65.5 -186.5q0 -124 -64 -198t-169 -74q-106 0 -170.5 74t-64.5 198zM100 260q0 -109 53.5 -174t142.5 -65q87 0 140.5 65.5t53.5 173.5q0 100 -54.5 162t-139.5 62q-86 0 -141 -62t-55 -162z
" />
    <glyph glyph-name="Udotbelow" unicode="&#x1ee4;" horiz-adv-x="710" 
d="M90 254v446h39v-446q0 -109 64.5 -170t161.5 -61t161.5 61t64.5 170v446h39v-446q0 -127 -74.5 -196.5t-190.5 -69.5t-190.5 69.5t-74.5 196.5zM332 -172v56h47v-56h-47z" />
    <glyph glyph-name="udotbelow" unicode="&#x1ee5;" horiz-adv-x="561" 
d="M86 154v351h39v-352q0 -132 122 -132q107 0 187 98v386h39v-505h-32l-6 78q-88 -90 -193 -90q-156 0 -156 166zM256 -172v56h47v-56h-47z" />
    <glyph glyph-name="Ygrave" unicode="&#x1ef2;" horiz-adv-x="640" 
d="M300 0v288l-263 412h48l234 -376h2l234 376h48l-263 -412v-288h-40zM311 755l-109 92l32 27l110 -119h-33z" />
    <glyph glyph-name="ygrave" unicode="&#x1ef3;" horiz-adv-x="475" 
d="M34 -165q24 -11 51 -11q34 0 55.5 15.5t37.5 56.5l41 108l-191 501h43l167 -449h2l165 449h42l-232 -617q-37 -98 -129 -98q-33 0 -64 12zM235 561l-140 141l31 24l138 -165h-29z" />
    <glyph glyph-name="Ytilde" unicode="&#x1ef8;" horiz-adv-x="640" 
d="M300 0v288l-263 412h48l234 -376h2l234 376h48l-263 -412v-288h-40zM188 766q-5 44 14 69t52 25q25 0 48.5 -18.5t44 -37t38.5 -18.5q19 0 30.5 17t7.5 45h29q5 -44 -14.5 -69t-52.5 -25q-24 0 -47.5 18.5t-44 37t-38.5 18.5q-19 0 -30.5 -17t-8.5 -45h-28z" />
    <glyph glyph-name="ytilde" unicode="&#x1ef9;" horiz-adv-x="475" 
d="M34 -165q24 -11 51 -11q34 0 55.5 15.5t37.5 56.5l41 108l-191 501h43l167 -449h2l165 449h42l-232 -617q-37 -98 -129 -98q-33 0 -64 12zM107 598q-4 44 15 69t52 25q24 0 47.5 -18.5t44 -37t38.5 -18.5q20 0 31 16.5t7 45.5h29q4 -44 -15 -69t-52 -25q-19 0 -38 11.5
t-32 25t-29 25t-31 11.5q-20 0 -31 -16.5t-7 -44.5h-29z" />
    <glyph glyph-name="enspace" unicode="&#x2002;" horiz-adv-x="500" 
 />
    <glyph glyph-name="emspace" unicode="&#x2003;" horiz-adv-x="1000" 
 />
    <glyph glyph-name="threeperemspace" unicode="&#x2004;" horiz-adv-x="333" 
 />
    <glyph glyph-name="fourperemspace" unicode="&#x2005;" horiz-adv-x="250" 
 />
    <glyph glyph-name="sixperemspace" unicode="&#x2006;" horiz-adv-x="167" 
 />
    <glyph glyph-name="figurespace" unicode="&#x2007;" horiz-adv-x="620" 
 />
    <glyph glyph-name="punctuationspace" unicode="&#x2008;" horiz-adv-x="240" 
 />
    <glyph glyph-name="thinspace" unicode="&#x2009;" horiz-adv-x="100" 
 />
    <glyph glyph-name="hairspace" unicode="&#x200a;" horiz-adv-x="50" 
 />
    <glyph glyph-name="zerowidthspace" unicode="&#x200b;" horiz-adv-x="0" 
 />
    <glyph glyph-name="endash" unicode="&#x2013;" horiz-adv-x="562" 
d="M49 239v37h465v-37h-465z" />
    <glyph glyph-name="emdash" unicode="&#x2014;" horiz-adv-x="918" 
d="M49 239v37h819v-37h-819z" />
    <glyph glyph-name="quoteleft" unicode="&#x2018;" horiz-adv-x="200" 
d="M121 568v-96h-42v91q0 55 18 87.5t58 50.5l12 -21q-32 -18 -44 -44t-12 -68h10z" />
    <glyph glyph-name="quoteright" unicode="&#x2019;" horiz-adv-x="200" 
d="M79 604v96h42v-91q0 -55 -18 -87.5t-58 -50.5l-12 21q32 18 44 44t12 68h-10z" />
    <glyph glyph-name="quotesinglbase" unicode="&#x201a;" horiz-adv-x="200" 
d="M79 0v96h42v-91q0 -55 -18 -87.5t-58 -50.5l-12 21q32 18 44 44t12 68h-10z" />
    <glyph glyph-name="quotedblleft" unicode="&#x201c;" horiz-adv-x="384" 
d="M121 568v-96h-42v91q0 55 18 87.5t58 50.5l12 -21q-32 -18 -44 -44t-12 -68h10zM305 568v-96h-42v91q0 55 18 87.5t58 50.5l12 -21q-32 -18 -44 -44t-12 -68h10z" />
    <glyph glyph-name="quotedblright" unicode="&#x201d;" horiz-adv-x="384" 
d="M263 604v96h42v-91q0 -55 -18 -87.5t-58 -50.5l-12 21q32 18 44 44t12 68h-10zM79 604v96h42v-91q0 -55 -18 -87.5t-58 -50.5l-12 21q32 18 44 44t12 68h-10z" />
    <glyph glyph-name="quotedblbase" unicode="&#x201e;" horiz-adv-x="384" 
d="M263 0v96h42v-91q0 -55 -18 -87.5t-58 -50.5l-12 21q32 18 44 44t12 68h-10zM79 0v96h42v-91q0 -55 -18 -87.5t-58 -50.5l-12 21q32 18 44 44t12 68h-10z" />
    <glyph glyph-name="dagger" unicode="&#x2020;" horiz-adv-x="443" 
d="M201 272v192l7 111l-92 -5h-53v36h53l92 -6l-7 114v41h38v-41l-7 -113l95 5h53v-36h-54l-94 5l7 -111v-192h-38z" />
    <glyph glyph-name="daggerdbl" unicode="&#x2021;" horiz-adv-x="434" 
d="M201 84v181l7 102l-92 -6h-53v36h53l92 -4l-6 95l6 101l-92 -4h-53v35h53l92 -5l-7 102v38h38v-38l-7 -102l95 5h44v-35h-45l-94 4l7 -101l-7 -96l94 5h45v-36h-44l-95 6l7 -102v-181h-38z" />
    <glyph glyph-name="bullet" unicode="&#x2022;" horiz-adv-x="542" 
d="M148 253q0 52 36 87.5t87 35.5q52 0 87.5 -35.5t35.5 -87.5q0 -51 -35.5 -86.5t-87.5 -35.5q-51 0 -87 35.5t-36 86.5z" />
    <glyph glyph-name="ellipsis" unicode="&#x2026;" horiz-adv-x="638" 
d="M79 0v96h42v-96h-42zM298 0v96h42v-96h-42zM517 0v96h42v-96h-42z" />
    <glyph glyph-name="perthousand" unicode="&#x2030;" horiz-adv-x="1029" 
d="M707 120q0 55 38 92.5t94 37.5q55 0 93.5 -37.5t38.5 -92.5q0 -56 -38.5 -94t-93.5 -38t-93.5 38t-38.5 94zM738 120q0 -44 29 -73t73 -29q43 0 72 29.5t29 72.5q0 42 -29 71.5t-72 29.5t-72.5 -29.5t-29.5 -71.5zM530 531h37l-394 -531h-37zM58 411q0 55 38.5 93
t93.5 38t93.5 -38t38.5 -93t-38 -93t-94 -38t-94 38t-38 93zM89 411q0 -43 29.5 -72.5t72.5 -29.5t72 29.5t29 72.5t-29 72t-72 29t-72.5 -29t-29.5 -72zM389 120q0 55 38 92.5t94 37.5q55 0 93.5 -37.5t38.5 -92.5t-38.5 -93.5t-93.5 -38.5t-93.5 38t-38.5 94zM419 120
q0 -43 29.5 -72.5t73.5 -29.5q42 0 71.5 29.5t29.5 72.5q0 42 -29.5 71.5t-71.5 29.5q-43 0 -73 -29.5t-30 -71.5z" />
    <glyph glyph-name="guilsinglleft" unicode="&#x2039;" horiz-adv-x="346" 
d="M98 253l185 -231l-28 -22l-202 253l202 253l28 -23z" />
    <glyph glyph-name="guilsinglright" unicode="&#x203a;" horiz-adv-x="346" 
d="M63 22l185 231l-185 230l28 23l202 -253l-202 -253z" />
    <glyph glyph-name="interrobang" unicode="&#x203d;" horiz-adv-x="502" 
d="M219 199l-2 458v20q-86 -8 -149 -73l-26 24q81 84 194 84q94 0 151.5 -48.5t57.5 -123.5q0 -50 -20 -88t-48.5 -62t-57 -46.5t-48.5 -56.5t-20 -78l-1 -10h-31zM260 659l-18 -376q12 36 41.5 68t55.5 52t47 55.5t21 80.5q0 54 -40.5 92.5t-106.5 45.5v-18zM214 0v93h41
v-93h-41z" />
    <glyph glyph-name="fraction" unicode="&#x2044;" horiz-adv-x="617" 
d="M-1 0l579 700h40l-578 -700h-41z" />
    <glyph glyph-name="zero.sups" unicode="&#x2070;" horiz-adv-x="389" 
d="M36 675q0 83 45.5 132.5t113.5 49.5t113 -49.5t45 -132.5q0 -82 -45 -131.5t-113 -49.5t-113.5 49.5t-45.5 131.5zM68 675q0 -69 35.5 -111t91.5 -42q55 0 91 42t36 111q0 70 -36 113t-91 43t-91 -43t-36 -113z" />
    <glyph glyph-name="four.sups" unicode="&#x2074;" horiz-adv-x="333" 
d="M38 579l-9 26l190 246h37v-245h60v-27h-60v-79h-30v79h-188zM63 606h163v212z" />
    <glyph glyph-name="five.sups" unicode="&#x2075;" horiz-adv-x="310" 
d="M35 517l12 26q40 -22 89 -22q48 0 79 25t31 66q0 37 -26.5 59.5t-71.5 22.5q-32 0 -75 -16l-20 12l9 161h198v-27h-171l-6 -119q35 15 70 15q56 0 90.5 -29.5t34.5 -77.5q0 -55 -40 -87t-102 -32q-60 0 -101 23z" />
    <glyph glyph-name="six.sups" unicode="&#x2076;" horiz-adv-x="331" 
d="M36 663q0 99 45 146.5t110 47.5q49 0 87 -16l-12 -26q-38 15 -75 15q-51 0 -87 -38.5t-37 -118.5q47 47 112 47q52 0 85.5 -30.5t33.5 -80.5q0 -48 -33.5 -81.5t-90.5 -33.5q-70 0 -104 47t-34 122zM67 644q3 -55 29.5 -88.5t77.5 -33.5q43 0 68.5 25.5t25.5 61.5
q0 37 -25.5 61t-65.5 24q-32 0 -62.5 -14.5t-47.5 -35.5z" />
    <glyph glyph-name="seven.sups" unicode="&#x2077;" horiz-adv-x="295" 
d="M83 500l153 324h-210v27h244v-22l-152 -329h-35z" />
    <glyph glyph-name="eight.sups" unicode="&#x2078;" horiz-adv-x="339" 
d="M33 591q0 35 26.5 59t65.5 33q-33 7 -53.5 29t-20.5 53q0 42 33.5 67t85.5 25t85.5 -25t33.5 -67q0 -31 -21 -53t-54 -29q40 -9 66 -33t26 -59q0 -46 -37.5 -71.5t-98.5 -25.5t-99 25.5t-38 71.5zM64 591q0 -32 29.5 -51.5t76.5 -19.5t76.5 19.5t29.5 51.5
q0 33 -30.5 53.5t-75.5 23.5q-45 -3 -75.5 -23.5t-30.5 -53.5zM170 695q41 3 65 21.5t24 48.5t-25 48t-64 18t-64.5 -18t-25.5 -48t24.5 -48.5t65.5 -21.5z" />
    <glyph glyph-name="nine.sups" unicode="&#x2079;" horiz-adv-x="332" 
d="M48 518l15 24q35 -20 78 -20q51 0 87 38t37 118q-45 -47 -111 -47q-52 0 -86 31t-34 81q0 47 33.5 80.5t90.5 33.5q71 0 104.5 -46.5t33.5 -122.5q0 -99 -45 -146.5t-110 -47.5q-53 1 -93 24zM156 658q33 0 63 14t46 35q-3 55 -29.5 89t-77.5 34q-43 0 -68.5 -25.5
t-25.5 -61.5q0 -38 26 -61.5t66 -23.5z" />
    <glyph glyph-name="plus.sups" unicode="&#x207a;" horiz-adv-x="323" 
d="M31 662v28h116v114h29v-114h117v-28h-117v-115h-29v115h-116z" />
    <glyph glyph-name="minus.sups" unicode="&#x207b;" horiz-adv-x="323" 
d="M31 662v28h262v-28h-262z" />
    <glyph glyph-name="equal.sups" unicode="&#x207c;" horiz-adv-x="323" 
d="M31 598v28h261v-28h-261zM31 725v28h261v-28h-261z" />
    <glyph glyph-name="parenleft.sups" unicode="&#x207d;" horiz-adv-x="212" 
d="M142 991h35q-43 -47 -76.5 -135.5t-33.5 -185.5q0 -95 34 -188t76 -142h-35q-44 59 -75.5 147.5t-31.5 182.5q0 93 31 178.5t76 142.5z" />
    <glyph glyph-name="parenright.sups" unicode="&#x207e;" horiz-adv-x="212" 
d="M34 991h36q45 -57 76 -142.5t31 -178.5q0 -94 -31.5 -182.5t-75.5 -147.5h-35q42 49 75.5 141.5t33.5 188.5q0 98 -33 186t-77 135z" />
    <glyph glyph-name="n.sups" unicode="&#x207f;" horiz-adv-x="401" 
d="M65 500v351h29l3 -52q57 61 130 61q111 0 111 -117v-243h-32v243q0 89 -81 89q-73 0 -128 -66v-266h-32z" />
    <glyph glyph-name="zero.subs" unicode="&#x2080;" horiz-adv-x="389" 
d="M36 175q0 83 45.5 132.5t113.5 49.5t113 -49.5t45 -132.5q0 -82 -45 -131.5t-113 -49.5t-113.5 49.5t-45.5 131.5zM68 175q0 -69 35.5 -111t91.5 -42q55 0 91 42t36 111q0 70 -36 113t-91 43t-91 -43t-36 -113z" />
    <glyph glyph-name="one.subs" unicode="&#x2081;" horiz-adv-x="264" 
d="M143 0v319l-82 -44l-14 24l101 52h26v-351h-31z" />
    <glyph glyph-name="two.subs" unicode="&#x2082;" horiz-adv-x="323" 
d="M40 0v17q-1 49 21 82t53.5 49t63 29.5t54 33.5t22.5 50t-24.5 49.5t-67.5 19.5q-56 0 -97 -43l-22 19q49 51 120 51q58 0 90.5 -27t32.5 -69q0 -36 -22 -60.5t-53.5 -38.5t-62.5 -28.5t-53.5 -40.5t-22.5 -65h214v-28h-246z" />
    <glyph glyph-name="three.subs" unicode="&#x2083;" horiz-adv-x="323" 
d="M41 17l13 26q40 -22 91 -22q50 0 82 22t32 60q0 33 -26.5 50t-67.5 17h-48v27h46q36 0 59.5 18t23.5 51q0 28 -25 46t-66 18q-60 0 -97 -42l-21 20q21 22 53.5 35.5t64.5 13.5q54 0 88 -25.5t34 -64.5q0 -63 -66 -81q35 -7 57.5 -28.5t22.5 -55.5q0 -50 -41 -79t-104 -29
t-105 23z" />
    <glyph glyph-name="four.subs" unicode="&#x2084;" horiz-adv-x="333" 
d="M38 79l-9 26l190 246h37v-245h60v-27h-60v-79h-30v79h-188zM63 106h163v212z" />
    <glyph glyph-name="five.subs" unicode="&#x2085;" horiz-adv-x="310" 
d="M35 17l12 26q40 -22 89 -22q48 0 79 25t31 66q0 37 -26.5 59.5t-71.5 22.5q-32 0 -75 -16l-20 12l9 161h198v-27h-171l-6 -119q35 15 70 15q56 0 90.5 -29.5t34.5 -77.5q0 -55 -40 -87t-102 -32q-60 0 -101 23z" />
    <glyph glyph-name="six.subs" unicode="&#x2086;" horiz-adv-x="331" 
d="M36 163q0 99 45 146.5t110 47.5q49 0 87 -16l-12 -26q-38 15 -75 15q-51 0 -87 -38.5t-37 -118.5q47 47 112 47q52 0 85.5 -30.5t33.5 -80.5q0 -48 -33.5 -81.5t-90.5 -33.5q-70 0 -104 47t-34 122zM67 144q3 -55 29.5 -88.5t77.5 -33.5q43 0 68.5 25.5t25.5 61.5
q0 37 -25.5 61t-65.5 24q-32 0 -62.5 -14.5t-47.5 -35.5z" />
    <glyph glyph-name="seven.subs" unicode="&#x2087;" horiz-adv-x="295" 
d="M83 0l153 324h-210v27h244v-22l-152 -329h-35z" />
    <glyph glyph-name="eight.subs" unicode="&#x2088;" horiz-adv-x="339" 
d="M33 91q0 35 26.5 59t65.5 33q-33 7 -53.5 29t-20.5 53q0 42 33.5 67t85.5 25t85.5 -25t33.5 -67q0 -31 -21 -53t-54 -29q40 -9 66 -33t26 -59q0 -46 -37.5 -71.5t-98.5 -25.5t-99 25.5t-38 71.5zM64 91q0 -32 29.5 -51.5t76.5 -19.5t76.5 19.5t29.5 51.5q0 33 -30.5 53.5
t-75.5 23.5q-45 -3 -75.5 -23.5t-30.5 -53.5zM170 195q41 3 65 21.5t24 48.5t-25 48t-64 18t-64.5 -18t-25.5 -48t24.5 -48.5t65.5 -21.5z" />
    <glyph glyph-name="nine.subs" unicode="&#x2089;" horiz-adv-x="332" 
d="M48 18l15 24q35 -20 78 -20q51 0 87 38t37 118q-45 -47 -111 -47q-52 0 -86 31t-34 81q0 47 33.5 80.5t90.5 33.5q71 0 104.5 -46.5t33.5 -122.5q0 -99 -45 -146.5t-110 -47.5q-53 1 -93 24zM156 158q33 0 63 14t46 35q-3 55 -29.5 89t-77.5 34q-43 0 -68.5 -25.5
t-25.5 -61.5q0 -38 26 -61.5t66 -23.5z" />
    <glyph glyph-name="parenleft.subs" unicode="&#x208d;" horiz-adv-x="212" 
d="M142 491h35q-43 -47 -76.5 -135.5t-33.5 -185.5q0 -95 34 -188t76 -142h-35q-44 59 -75.5 147.5t-31.5 182.5q0 93 31 178.5t76 142.5z" />
    <glyph glyph-name="parenright.subs" unicode="&#x208e;" horiz-adv-x="212" 
d="M34 491h36q45 -57 76 -142.5t31 -178.5q0 -94 -31.5 -182.5t-75.5 -147.5h-35q42 49 75.5 141.5t33.5 188.5q0 98 -33 186t-77 135z" />
    <glyph glyph-name="colonmonitary" unicode="&#x20a1;" horiz-adv-x="573" 
d="M249 -133l29 125q-23 4 -55 13l-32 -138h-30l34 145l2 4q-69 33 -108 100.5t-39 156.5q0 115 72 189t190 80l25 108h31l-24 -107q31 -2 55 -7l26 114h31l-27 -121q45 -14 82 -38l-20 -28q-31 21 -71 33l-106 -475h19q105 0 170 56l22 -25q-73 -64 -192 -64q-5 0 -13 0.5
t-12 0.5l-28 -122h-31zM87 273q0 -76 30.5 -133.5t86.5 -88.5l102 457q-99 -8 -159 -72t-60 -163zM230 39q25 -10 56 -15l107 479q-29 6 -58 6z" />
    <glyph glyph-name="Euro" unicode="&#x20ac;" horiz-adv-x="617" 
d="M34 172v30h92q-6 32 -6 68q0 25 5 55h-91v30h98q25 85 95.5 136.5t163.5 51.5q101 0 178 -61l-23 -27q-65 54 -155 54q-78 0 -137.5 -42t-82.5 -113h222v-29h-230q-5 -30 -5 -55q0 -39 7 -68h228v-30h-219q25 -70 82.5 -109.5t135.5 -39.5q94 0 159 57l27 -23
q-74 -68 -187 -68q-93 0 -162 49t-95 134h-100z" />
    <glyph glyph-name="litre" unicode="&#x2113;" horiz-adv-x="437" 
d="M76 201l-12 27q54 28 96 57v285q0 142 105 142q108 0 108 -141q0 -95 -40.5 -165t-133.5 -133v-149q0 -51 17 -77t58 -26q43 0 71 32l23 -23q-39 -42 -96 -42q-60 0 -86 34t-26 102v124q-37 -23 -84 -47zM199 569v-257q75 56 106.5 115.5t31.5 141.5q0 110 -69 110
t-69 -110z" />
    <glyph glyph-name="numero" unicode="&#x2116;" horiz-adv-x="918" 
d="M64 0v531h45l305 -470v470h39v-531h-45l-305 470v-470h-39zM546 384q0 66 46 108.5t108 42.5q63 0 108.5 -42.5t45.5 -108.5q0 -67 -44.5 -110t-107.5 -43q-64 0 -110 43t-46 110zM581 384q0 -54 36 -87.5t85 -33.5t83.5 33.5t34.5 87.5q0 52 -36 86t-84 34t-83.5 -34
t-35.5 -86z" />
    <glyph glyph-name="servicemark" unicode="&#x2120;" horiz-adv-x="856" 
d="M432 330v370h42l137 -184l137 184h42v-370h-34v325l-145 -193l-145 193v-325h-34zM45 357l19 24q58 -32 129 -32q56 0 84 19t28 52q0 32 -26 50t-63 25t-74.5 16t-63.5 32t-26 64q0 44 37.5 71.5t101.5 27.5q68 0 132 -26l-15 -27q-54 27 -117 27q-48 0 -76.5 -21
t-28.5 -52q0 -32 26 -49.5t63 -24.5t74.5 -15.5t63.5 -32.5t26 -65q0 -45 -37.5 -72.5t-108.5 -27.5q-84 0 -148 37z" />
    <glyph glyph-name="trademark" unicode="&#x2122;" horiz-adv-x="873" 
d="M449 330v370h42l137 -184l137 184h42v-370h-34v325l-145 -193l-145 193v-325h-34zM189 330v339h-152v31h344v-31h-158v-339h-34z" />
    <glyph glyph-name="ohm" unicode="&#x2126;" horiz-adv-x="767" 
d="M693 0h-241v33q87 70 150.5 164t63.5 191q0 132 -81.5 210.5t-201.5 78.5t-201 -78.5t-81 -210.5q0 -97 63 -191.5t150 -163.5v-33h-240v33h196q-87 70 -146.5 163.5t-59.5 192.5q0 149 91.5 236t227.5 87t228 -87t92 -236q0 -99 -59.5 -192.5t-146.5 -163.5h196v-33z
" />
    <glyph glyph-name="estimated" unicode="&#x212e;" horiz-adv-x="654" 
d="M64 258q0 129 77 207t205 78q110 0 177 -66t67 -174q0 -2 -3 -38l-419 1v-180q68 -65 180 -65q94 0 161 46l19 -28q-74 -51 -180 -51q-126 0 -205 74.5t-79 195.5zM346 511q-111 0 -178 -67v-149h329l1 159q-59 57 -152 57z" />
    <glyph glyph-name="uni2190" unicode="&#x2190;" horiz-adv-x="900" 
d="M102 341l295 255l23 -26l-252 -214l284 3h346v-36h-346l-284 4l252 -214l-23 -26z" />
    <glyph glyph-name="uni2191" unicode="&#x2191;" horiz-adv-x="900" 
d="M221 367l-26 23l255 295l255 -295l-26 -23l-214 252l3 -283v-348h-36v348l3 283z" />
    <glyph glyph-name="uni2192" unicode="&#x2192;" horiz-adv-x="900" 
d="M503 600l295 -255l-295 -254l-23 26l252 214l-284 -4h-346v36h346l284 -3l-252 214z" />
    <glyph glyph-name="uni2193" unicode="&#x2193;" horiz-adv-x="900" 
d="M195 291l26 23l214 -252l-3 283v348h36v-348l-3 -283l214 252l26 -23l-255 -295z" />
    <glyph glyph-name="uni2196" unicode="&#x2196;" horiz-adv-x="900" 
d="M226 212l-29 389l388 -28l-2 -35l-329 26l203 -197l245 -246l-26 -25l-244 245l-199 203l27 -330z" />
    <glyph glyph-name="uni2197" unicode="&#x2197;" horiz-adv-x="900" 
d="M702 601l-29 -389l-34 2l27 330l-199 -203l-244 -245l-26 25l245 246l203 197l-329 -26l-2 35z" />
    <glyph glyph-name="uni2198" unicode="&#x2198;" horiz-adv-x="900" 
d="M673 470l29 -389l-388 28l2 35l329 -26l-203 197l-245 246l26 25l244 -245l199 -203l-27 330z" />
    <glyph glyph-name="uni2199" unicode="&#x2199;" horiz-adv-x="900" 
d="M197 81l29 389l34 -2l-27 -330l199 203l244 245l26 -25l-245 -246l-203 -197l329 26l2 -35z" />
    <glyph glyph-name="partialdiff" unicode="&#x2202;" horiz-adv-x="579" 
d="M515 249q0 -121 -61.5 -191t-163.5 -70q-103 0 -164.5 65t-61.5 175q0 102 57.5 163.5t155.5 61.5q121 0 196 -89q-19 315 -193 315q-77 0 -170 -36l-15 29q94 40 184 40q51 0 90.5 -19t64.5 -54.5t41.5 -77t25 -98t11.5 -105.5t3 -109zM476 248q0 50 -1 76
q-76 95 -195 95q-81 0 -129 -52t-48 -139q0 -94 51 -149.5t136 -55.5t135.5 60.5t50.5 164.5z" />
    <glyph glyph-name="increment" unicode="&#x2206;" horiz-adv-x="932" 
d="M64 0l403 709l401 -709h-804zM467 640l-342 -605h679z" />
    <glyph glyph-name="product" unicode="&#x220f;" horiz-adv-x="833" 
d="M769 666h-156v-666h-38v666h-317v-666h-38v666h-156v34h705v-34z" />
    <glyph glyph-name="summation" unicode="&#x2211;" horiz-adv-x="667" 
d="M603 0h-539v28l332 328l-315 316v28h510v-34h-454l309 -310l-327 -322h484v-34z" />
    <glyph glyph-name="minus" unicode="&#x2212;" horiz-adv-x="612" 
d="M53 235v36h506v-36h-506z" />
    <glyph glyph-name="radical" unicode="&#x221a;" horiz-adv-x="715" 
d="M12 424l-12 36l182 70l120 -476l369 646h44l-408 -712h-23l-128 494z" />
    <glyph glyph-name="infinity" unicode="&#x221e;" horiz-adv-x="823" 
d="M218 102q51 0 98 42.5t78 108.5q-31 67 -78 109.5t-98 42.5q-57 0 -92.5 -42t-35.5 -110t35.5 -109.5t92.5 -41.5zM221 68q-77 0 -122 49.5t-45 135.5t45 136t122 50q54 0 105 -42.5t85 -111.5q35 69 86 111.5t105 42.5q77 0 122 -50t45 -136t-45 -135.5t-122 -49.5
q-54 0 -105 42.5t-86 110.5q-34 -68 -85 -110.5t-105 -42.5zM429 253q31 -66 78 -108.5t98 -42.5q57 0 92.5 41.5t35.5 109.5t-35.5 110t-92.5 42q-51 0 -98 -42.5t-78 -109.5z" />
    <glyph glyph-name="integral" unicode="&#x222b;" horiz-adv-x="394" 
d="M194 571v-587q0 -193 -194 -193v33q155 0 155 160v587q0 96 50 142.5t135 46.5q28 0 54 -7l-9 -32q-16 6 -45 6q-69 0 -107.5 -38.5t-38.5 -117.5z" />
    <glyph glyph-name="approxequal" unicode="&#x2248;" horiz-adv-x="612" 
d="M54 320q0 3 -0.5 9t-0.5 8q0 57 30.5 89t81.5 32q46 0 98 -30t99.5 -60t83.5 -30q38 0 60 24.5t18 75.5h34q0 -3 0.5 -9t0.5 -8q0 -57 -31 -89t-81 -32q-46 0 -98 30t-100 60t-84 30q-37 0 -59 -24.5t-18 -75.5h-34zM54 68q0 4 -0.5 9.5t-0.5 7.5q0 57 30.5 89t81.5 32
q46 0 98 -30t99.5 -60t83.5 -30q38 0 60 24.5t18 76.5h34q0 -4 0.5 -9.5t0.5 -8.5q0 -57 -30.5 -88.5t-81.5 -31.5q-46 0 -98 30t-100 60t-84 30q-37 0 -59 -25t-18 -76h-34z" />
    <glyph glyph-name="notequal" unicode="&#x2260;" horiz-adv-x="612" 
d="M53 355v36h333l81 115h37l-80 -115h135v-36h-160l-141 -203h301v-36h-326l-81 -116h-38l81 116h-142v36h168l141 203h-309z" />
    <glyph glyph-name="lessequal" unicode="&#x2264;" horiz-adv-x="645" 
d="M577 33l-533 218v41l533 214v-40l-484 -194l484 -199v-40zM44 0v33h533v-33h-533z" />
    <glyph glyph-name="greaterequal" unicode="&#x2265;" horiz-adv-x="645" 
d="M602 251l-533 -218v40l484 199l-484 194v40l533 -214v-41zM602 33v-33h-533v33h533z" />
    <glyph glyph-name="uni25A0" unicode="&#x25a0;" horiz-adv-x="900" 
d="M100 0v700h699v-700h-699z" />
    <glyph glyph-name="uni25A1" unicode="&#x25a1;" horiz-adv-x="900" 
d="M100 0v700h699v-700h-699zM130 30h639v640h-639v-640z" />
    <glyph glyph-name="uni25A3" unicode="&#x25a3;" horiz-adv-x="900" 
d="M100 0v700h699v-700h-699zM130 30h639v640h-639v-640zM271 183l156 166l-156 166l26 24l154 -164l154 163l24 -24l-154 -165l155 -164l-25 -25l-154 164l-155 -165z" />
    <glyph glyph-name="uni25B2" unicode="&#x25b2;" horiz-adv-x="900" 
d="M120 74l330 554l329 -554h-659z" />
    <glyph glyph-name="uni25B6" unicode="&#x25b6;" horiz-adv-x="900" 
d="M727 341l-554 -330v659z" />
    <glyph glyph-name="uni25BC" unicode="&#x25bc;" horiz-adv-x="900" 
d="M779 618l-330 -554l-329 554h659z" />
    <glyph glyph-name="uni25C0" unicode="&#x25c0;" horiz-adv-x="900" 
d="M727 11l-554 330l554 329v-659z" />
    <glyph glyph-name="uni25C9" unicode="&#x25c9;" horiz-adv-x="900" 
d="M343 349q0 -43 31.5 -74.5t74.5 -31.5q44 0 75.5 31t31.5 75t-31.5 75.5t-75.5 31.5t-75 -31.5t-31 -75.5zM215 349q0 98 68 166.5t166 68.5t166.5 -68.5t68.5 -166.5t-68.5 -166t-166.5 -68q-97 0 -165.5 68.5t-68.5 165.5zM87 349q0 150 106 256.5t256 106.5
t256.5 -106.5t106.5 -256.5t-106.5 -256t-256.5 -106t-256 106t-106 256zM149 349q0 -125 88.5 -213t212.5 -88q125 0 213.5 88.5t88.5 212.5q0 125 -89 213.5t-213 88.5t-212.5 -88.5t-88.5 -213.5z" />
    <glyph glyph-name="lozenge" unicode="&#x25ca;" horiz-adv-x="631" 
d="M108 351l208 -306l209 306l-209 307zM65 351l250 364l251 -364l-251 -364z" />
    <glyph glyph-name="uni25CB" unicode="&#x25cb;" horiz-adv-x="900" 
d="M87 349q0 150 106 256.5t256 106.5t256.5 -106.5t106.5 -256.5t-106.5 -256t-256.5 -106t-256 106t-106 256zM118 349q0 -137 97.5 -234.5t234.5 -97.5t235 97.5t98 234.5t-98 234.5t-235 97.5t-234.5 -97.5t-97.5 -234.5z" />
    <glyph glyph-name="uni25CD" unicode="&#x25cd;" horiz-adv-x="900" 
d="M87 349q0 150 106 256.5t256 106.5t256.5 -106.5t106.5 -256.5t-106.5 -256t-256.5 -106t-256 106t-106 256zM118 349q0 -137 97.5 -234.5t234.5 -97.5t235 97.5t98 234.5t-98 234.5t-235 97.5t-234.5 -97.5t-97.5 -234.5zM271 183l156 166l-156 166l26 24l154 -164
l154 163l24 -24l-154 -165l155 -164l-25 -25l-154 164l-155 -165z" />
    <glyph glyph-name="uni25CE" unicode="&#x25ce;" horiz-adv-x="900" 
d="M405 349q0 -18 12.5 -30.5t31.5 -12.5q18 0 31 12.5t13 30.5q0 19 -13 32t-31 13q-19 0 -31.5 -13t-12.5 -32zM343 349q0 44 31 75.5t75 31.5t75.5 -31.5t31.5 -75.5t-31.5 -75t-75.5 -31q-43 0 -74.5 31.5t-31.5 74.5zM215 349q0 98 68 166.5t166 68.5t166.5 -68.5
t68.5 -166.5t-68.5 -166t-166.5 -68q-97 0 -165.5 68.5t-68.5 165.5zM277 349q0 -71 50.5 -121.5t121.5 -50.5q72 0 122.5 50.5t50.5 121.5q0 72 -50.5 122.5t-122.5 50.5q-71 0 -121.5 -50.5t-50.5 -122.5zM87 349q0 150 106 256.5t256 106.5t256.5 -106.5t106.5 -256.5
t-106.5 -256t-256.5 -106t-256 106t-106 256zM149 349q0 -125 88.5 -213t212.5 -88q125 0 213.5 88.5t88.5 212.5q0 125 -89 213.5t-213 88.5t-212.5 -88.5t-88.5 -213.5z" />
    <glyph glyph-name="uni25CF" unicode="&#x25cf;" horiz-adv-x="900" 
d="M87 349q0 150 106 256.5t256 106.5t256.5 -106.5t106.5 -256.5t-106.5 -256t-256.5 -106t-256 106t-106 256z" />
    <glyph glyph-name="uni25E2" unicode="&#x25e2;" horiz-adv-x="900" 
d="M765 0h-645l645 645v-645z" />
    <glyph glyph-name="uni25E3" unicode="&#x25e3;" horiz-adv-x="900" 
d="M780 0h-645v645z" />
    <glyph glyph-name="uni25E4" unicode="&#x25e4;" horiz-adv-x="900" 
d="M135 700h645l-645 -645v645z" />
    <glyph glyph-name="uni25E5" unicode="&#x25e5;" horiz-adv-x="900" 
d="M120 700h645v-645z" />
    <glyph glyph-name="uni2605" unicode="&#x2605;" horiz-adv-x="900" 
d="M267 101l182 96l181 -96l-35 201l147 144l-203 29l-90 184l-90 -184l-203 -29l147 -144zM87 349q0 150 106 256.5t256 106.5t256.5 -106.5t106.5 -256.5t-106.5 -256t-256.5 -106t-256 106t-106 256z" />
    <glyph glyph-name="uni2620" unicode="&#x2620;" horiz-adv-x="900" 
d="M479 296q0 20 13 31.5t34 11.5q22 0 41.5 -20.5t19.5 -36.5q0 -14 -14.5 -27t-29.5 -13q-11 0 -18.5 4.5t-13.5 13t-7 9.5q-25 22 -25 27zM450 172q-28 0 -28 27q7 49 28 51q21 -2 28 -51q0 -27 -28 -27zM315 282q0 16 19.5 36.5t41.5 20.5q21 0 34 -11.5t13 -31.5
q0 -7 -25 -27q-1 -1 -7 -9.5t-13.5 -13t-18.5 -4.5q-14 0 -29 13.5t-15 26.5zM454 604q-104 0 -163.5 -53t-59.5 -144q0 -37 29 -75q7 -19 7 -42q0 -6 -7 -41q0 -37 30 -43q36 -7 48.5 -23.5t12.5 -55.5q0 -24 26 -36h147q26 12 26 36q0 39 12.5 55.5t47.5 23.5q31 6 31 43
q-7 35 -7 41q0 23 7 42q29 38 29 85q0 86 -59 136.5t-157 50.5zM87 349q0 150 106 256.5t256 106.5t256.5 -106.5t106.5 -256.5t-106.5 -256t-256.5 -106t-256 106t-106 256z" />
    <glyph glyph-name="interrobangdown" unicode="&#x2e18;" horiz-adv-x="480" 
d="M277 307l2 -458v-20q86 8 149 73l26 -24q-81 -84 -194 -84q-94 0 -151.5 48.5t-57.5 123.5q0 50 20 88t48.5 62t57 46.5t48.5 56.5t20 78l1 10h31zM236 -153l18 376q-12 -36 -41.5 -68t-55.5 -52t-47 -55.5t-21 -80.5q0 -54 40.5 -92.5t106.5 -45.5v18zM282 506v-93h-41
v93h41z" />
    <glyph glyph-name="anglebracketleft" unicode="&#x3008;" horiz-adv-x="385" 
d="M63 272l216 483h43l-217 -483l216 -472h-42z" />
    <glyph glyph-name="anglebracketright" unicode="&#x3009;" horiz-adv-x="385" 
d="M106 755l216 -483l-216 -472h-42l216 472l-217 483h43z" />
    <glyph glyph-name="Eacutedotbelow" unicode="&#xe004;" horiz-adv-x="633" 
d="M302 755l109 119l33 -27l-110 -92h-32zM93 0v700h460v-35h-421v-291h380v-34h-380v-305h428v-35h-467zM303 -172v56h47v-56h-47z" />
    <glyph glyph-name="Egravedotbelow" unicode="&#xe005;" horiz-adv-x="633" 
d="M318 755l-109 92l32 27l110 -119h-33zM93 0v700h460v-35h-421v-291h380v-34h-380v-305h428v-35h-467zM303 -172v56h47v-56h-47z" />
    <glyph glyph-name="Hmacronbelow" unicode="&#xe009;" horiz-adv-x="694" 
d="M93 0v700h39v-326h430v326h39v-700h-39v339h-430v-339h-39zM210 -154v32h274v-32h-274z" />
    <glyph glyph-name="Jcaron" unicode="&#xe00c;" horiz-adv-x="564" 
d="M431 755l-129 104h31l121 -76h1l121 76h31l-130 -104h-46zM57 136l35 14q18 -53 59 -90t109 -37q87 0 131 55.5t44 148.5v473h39v-474q0 -110 -53.5 -174t-159.5 -64q-82 0 -132.5 43t-71.5 105z" />
    <glyph glyph-name="Kcedilla" unicode="&#xe00d;" horiz-adv-x="658" 
d="M93 0v700h39v-442l394 442h50l-231 -258l260 -442h-48l-237 413l-188 -210v-203h-39zM303 -50h32q-27 -93 -106 -162l-35 17q80 69 109 145z" />
    <glyph glyph-name="Lcedilla" unicode="&#xe00e;" horiz-adv-x="603" 
d="M306 -50h32q-27 -93 -106 -162l-35 17q80 69 109 145zM93 0v700h39v-665h421v-35h-460z" />
    <glyph glyph-name="Mmacron" unicode="&#xe00f;" horiz-adv-x="843" 
d="M284 791v32h274v-32h-274zM93 0v700h53l275 -409l276 409h53v-700h-39v655l-290 -428l-290 429v-656h-38z" />
    <glyph glyph-name="Mcedilla" unicode="&#xe010;" horiz-adv-x="843" 
d="M405 -50h32q-27 -93 -106 -162l-35 17q80 69 109 145zM93 0v700h53l275 -409l276 409h53v-700h-39v655l-290 -428l-290 429v-656h-38z" />
    <glyph glyph-name="Ngrave" unicode="&#xe011;" horiz-adv-x="714" 
d="M348 755l-109 92l32 27l110 -119h-33zM93 0v700h48l441 -650v650h39v-700h-49l-441 649v-649h-38z" />
    <glyph glyph-name="Ndieresis" unicode="&#xe012;" horiz-adv-x="714" 
d="M426 779v56h44v-56h-44zM244 779v56h44v-56h-44zM93 0v700h48l441 -650v650h39v-700h-49l-441 649v-649h-38z" />
    <glyph glyph-name="Nmacron" unicode="&#xe013;" horiz-adv-x="714" 
d="M220 791v32h274v-32h-274zM93 0v700h48l441 -650v650h39v-700h-49l-441 649v-649h-38z" />
    <glyph glyph-name="Ncedilla" unicode="&#xe014;" horiz-adv-x="714" 
d="M341 -50h32q-27 -93 -106 -162l-35 17q80 69 109 145zM93 0v700h48l441 -650v650h39v-700h-49l-441 649v-649h-38z" />
    <glyph glyph-name="Ndescender" unicode="&#xe015;" horiz-adv-x="714" 
d="M93 0v700h48l441 -650v650h39v-900h-39v200h-10l-441 649v-649h-38z" />
    <glyph glyph-name="Ocommaturnedabove" unicode="&#xe017;" horiz-adv-x="807" 
d="M440 786v-28q-12 -4 -27 -4q-52 0 -52 46q-1 33 41 66h30q-38 -35 -38 -62q0 -21 24 -21q12 0 22 3zM63 356q0 159 98 257.5t242 98.5t242.5 -98.5t98.5 -257.5q0 -168 -96.5 -268t-244.5 -100q-147 0 -243.5 100t-96.5 268zM103 356q0 -152 85 -242.5t215 -90.5
t215.5 90.5t85.5 242.5q0 142 -87 231.5t-214 89.5q-126 0 -213 -89.5t-87 -231.5z" />
    <glyph glyph-name="Ocedilla" unicode="&#xe01b;" horiz-adv-x="807" 
d="M388 -50h32q-27 -93 -106 -162l-35 17q80 69 109 145zM63 356q0 159 98 257.5t242 98.5t242.5 -98.5t98.5 -257.5q0 -168 -96.5 -268t-244.5 -100q-147 0 -243.5 100t-96.5 268zM103 356q0 -152 85 -242.5t215 -90.5t215.5 90.5t85.5 242.5q0 142 -87 231.5t-214 89.5
q-126 0 -213 -89.5t-87 -231.5z" />
    <glyph glyph-name="Ounderlineaccent" unicode="&#xe01c;" horiz-adv-x="807" 
d="M63 356q0 159 98 257.5t242 98.5t242.5 -98.5t98.5 -257.5q0 -168 -96.5 -268t-244.5 -100q-147 0 -243.5 100t-96.5 268zM103 356q0 -152 85 -242.5t215 -90.5t215.5 90.5t85.5 242.5q0 142 -87 231.5t-214 89.5q-126 0 -213 -89.5t-87 -231.5zM386 -201v147h36v-147
h-36z" />
    <glyph glyph-name="Pmacron" unicode="&#xe01e;" horiz-adv-x="652" 
d="M93 0v700h268q60 0 105 -17t70 -46.5t37 -63.5t12 -73q0 -81 -55.5 -141.5t-170.5 -60.5h-227v-298h-39zM132 332h227q96 0 141.5 50t45.5 118q0 69 -44.5 117.5t-140.5 48.5h-229v-334zM187 791v32h274v-32h-274z" />
    <glyph glyph-name="Rcedilla" unicode="&#xe020;" horiz-adv-x="667" 
d="M93 0v700h279q115 0 169.5 -58.5t54.5 -141.5q0 -69 -41 -125t-124 -71l161 -304h-45l-155 299h-20h-240v-299h-39zM132 332h238q95 0 141 50.5t46 117.5q0 69 -45 117.5t-140 48.5h-240v-334zM309 -50h32q-27 -93 -106 -162l-35 17q80 69 109 145z" />
    <glyph glyph-name="Euro.LP" unicode="&#xe022;" horiz-adv-x="672" 
d="M34 229v30h103q-8 50 -8 100q0 37 5 80h-100v30h106q24 114 97 178.5t183 64.5q116 0 200 -70l-23 -28q-74 63 -176 63q-93 0 -155.5 -55.5t-84.5 -152.5h250v-30h-256q-6 -38 -6 -80q0 -59 8 -100h254v-30h-248q24 -97 85.5 -151.5t152.5 -54.5q116 0 185 74l27 -25
q-78 -84 -213 -84q-108 0 -179.5 63.5t-97.5 177.5h-109z" />
    <glyph glyph-name="Umacronbelow" unicode="&#xe023;" horiz-adv-x="710" 
d="M218 -153v32h274v-32h-274zM90 254v446h39v-446q0 -109 64.5 -170t161.5 -61t161.5 61t64.5 170v446h39v-446q0 -127 -74.5 -196.5t-190.5 -69.5t-190.5 69.5t-74.5 196.5z" />
    <glyph glyph-name="eacutedotbelow" unicode="&#xe028;" horiz-adv-x="555" 
d="M61 260q0 117 65.5 187.5t167.5 70.5q98 0 147 -60t49 -158q0 -16 -2 -32h-388v-8q0 -113 49.5 -176t146.5 -63q83 0 155 51l20 -29q-76 -55 -176 -55q-115 0 -174.5 71.5t-59.5 200.5zM295 485q-78 0 -130.5 -50.5t-62.5 -136.5h350q2 83 -36.5 135t-120.5 52zM265 561
l139 165l30 -24l-140 -141h-29zM268 -172v56h47v-56h-47z" />
    <glyph glyph-name="egravedotbelow" unicode="&#xe029;" horiz-adv-x="555" 
d="M61 260q0 117 65.5 187.5t167.5 70.5q98 0 147 -60t49 -158q0 -16 -2 -32h-388v-8q0 -113 49.5 -176t146.5 -63q83 0 155 51l20 -29q-76 -55 -176 -55q-115 0 -174.5 71.5t-59.5 200.5zM295 485q-78 0 -130.5 -50.5t-62.5 -136.5h350q2 83 -36.5 135t-120.5 52zM287 561
l-140 141l31 24l138 -165h-29zM268 -172v56h47v-56h-47z" />
    <glyph glyph-name="idotaccent" unicode="&#xe030;" 
d="M92 0v505h39v-505h-39zM92 665v72h39v-72h-39z" />
    <glyph glyph-name="kcedilla" unicode="&#xe031;" horiz-adv-x="503" 
d="M92 0v755h39v-541l266 291h47l-151 -163l182 -342h-44l-163 315l-137 -148v-167h-39zM266 -50h32q-27 -93 -106 -162l-35 17q80 69 109 145z" />
    <glyph glyph-name="lcedilla" unicode="&#xe032;" horiz-adv-x="224" 
d="M96 -50h32q-27 -93 -106 -162l-35 17q80 69 109 145zM94 0v755h39v-755h-39z" />
    <glyph glyph-name="mmacron" unicode="&#xe033;" horiz-adv-x="874" 
d="M88 0v505h35l4 -73q84 86 183 86q109 0 138 -91q87 91 191 91q149 0 149 -166v-352h-38v353q0 131 -116 131q-99 0 -178 -89q3 -21 3 -44v-351h-39v353q0 131 -115 131q-102 0 -178 -92v-392h-39zM301 622v33h273v-33h-273z" />
    <glyph glyph-name="mcedilla" unicode="&#xe034;" horiz-adv-x="874" 
d="M421 -50h32q-27 -93 -106 -162l-35 17q80 69 109 145zM88 0v505h35l4 -73q84 86 183 86q109 0 138 -91q87 91 191 91q149 0 149 -166v-352h-38v353q0 131 -116 131q-99 0 -178 -89q3 -21 3 -44v-351h-39v353q0 131 -115 131q-102 0 -178 -92v-392h-39z" />
    <glyph glyph-name="ngrave" unicode="&#xe035;" horiz-adv-x="561" 
d="M278 561l-140 141l31 24l138 -165h-29zM88 0v505h35l4 -78q86 91 192 91q156 0 156 -166v-352h-39v352q0 133 -122 133q-106 0 -187 -99v-386h-39z" />
    <glyph glyph-name="ndieresis" unicode="&#xe036;" horiz-adv-x="561" 
d="M346 611v56h44v-56h-44zM173 611v56h44v-56h-44zM88 0v505h35l4 -78q86 91 192 91q156 0 156 -166v-352h-39v352q0 133 -122 133q-106 0 -187 -99v-386h-39z" />
    <glyph glyph-name="nmacron" unicode="&#xe037;" horiz-adv-x="561" 
d="M145 622v33h273v-33h-273zM88 0v505h35l4 -78q86 91 192 91q156 0 156 -166v-352h-39v352q0 133 -122 133q-106 0 -187 -99v-386h-39z" />
    <glyph glyph-name="ncedilla" unicode="&#xe038;" horiz-adv-x="561" 
d="M265 -50h32q-27 -93 -106 -162l-35 17q80 69 109 145zM88 0v505h35l4 -78q86 91 192 91q156 0 156 -166v-352h-39v352q0 133 -122 133q-106 0 -187 -99v-386h-39z" />
    <glyph glyph-name="ndescender" unicode="&#xe039;" horiz-adv-x="561" 
d="M88 0v505h35l4 -78q86 91 192 91q156 0 156 -166v-552h-39v552q0 133 -122 133q-106 0 -187 -99v-386h-39z" />
    <glyph glyph-name="ocommaturnedabove" unicode="&#xe03b;" horiz-adv-x="591" 
d="M328 591v-28q-14 -4 -30 -4q-68 0 -70 64q0 45 57 95h30q-53 -53 -53 -91q0 -39 42 -39q10 0 24 3zM61 260q0 116 66 186.5t169 70.5q102 0 167.5 -70.5t65.5 -186.5q0 -124 -64 -198t-169 -74q-106 0 -170.5 74t-64.5 198zM100 260q0 -109 53.5 -174t142.5 -65
q87 0 140.5 65.5t53.5 173.5q0 100 -54.5 162t-139.5 62q-86 0 -141 -62t-55 -162z" />
    <glyph glyph-name="ocedilla" unicode="&#xe03f;" horiz-adv-x="591" 
d="M278 -50h32q-27 -93 -106 -162l-35 17q80 69 109 145zM61 260q0 116 66 186.5t169 70.5q102 0 167.5 -70.5t65.5 -186.5q0 -124 -64 -198t-169 -74q-106 0 -170.5 74t-64.5 198zM100 260q0 -109 53.5 -174t142.5 -65q87 0 140.5 65.5t53.5 173.5q0 100 -54.5 162
t-139.5 62q-86 0 -141 -62t-55 -162z" />
    <glyph glyph-name="ounderlineaccent" unicode="&#xe040;" horiz-adv-x="591" 
d="M277 -201v147h37v-147h-37zM61 260q0 116 66 186.5t169 70.5q102 0 167.5 -70.5t65.5 -186.5q0 -124 -64 -198t-169 -74q-106 0 -170.5 74t-64.5 198zM100 260q0 -109 53.5 -174t142.5 -65q87 0 140.5 65.5t53.5 173.5q0 100 -54.5 162t-139.5 62q-86 0 -141 -62
t-55 -162z" />
    <glyph glyph-name="pmacron" unicode="&#xe042;" horiz-adv-x="573" 
d="M131 74v-274h-39v705h32l5 -74q80 86 172 86q96 0 153.5 -69.5t57.5 -187.5q0 -125 -55.5 -198.5t-154.5 -73.5q-95 0 -171 86zM131 113q77 -92 167 -92q83 0 129 65t46 174q0 103 -47.5 163.5t-128.5 60.5q-88 0 -166 -90v-281zM165 622v33h273v-33h-273z" />
    <glyph glyph-name="rcedilla" unicode="&#xe044;" horiz-adv-x="373" 
d="M88 0v505h34l5 -89q60 102 162 102q34 0 60 -7l-8 -38q-30 8 -55 8q-96 0 -159 -107v-374h-39zM91 -50h32q-27 -93 -106 -162l-35 17q80 69 109 145z" />
    <glyph glyph-name="umacronbelow" unicode="&#xe047;" horiz-adv-x="561" 
d="M86 154v351h39v-352q0 -132 122 -132q107 0 187 98v386h39v-505h-32l-6 78q-88 -90 -193 -90q-156 0 -156 166zM143 -154v33h273v-33h-273z" />
    <glyph glyph-name="Atilde.small" unicode="&#xe060;" horiz-adv-x="588" 
d="M34 0l237 531h47l236 -531h-43l-73 165h-290l-72 -165h-42zM293 493l-131 -296h262l-129 296h-2zM162 623q-4 44 15 69t52 25q24 0 47.5 -18.5t44 -37t38.5 -18.5q20 0 31 16.5t7 45.5h29q4 -44 -15 -69t-52 -25q-24 0 -47.5 18.5t-44 36.5t-38.5 18q-20 0 -31 -16.5
t-7 -44.5h-29z" />
    <glyph glyph-name="A.small" unicode="&#xe06c;" horiz-adv-x="588" 
d="M34 0l237 531h47l236 -531h-43l-73 165h-290l-72 -165h-42zM293 493l-131 -296h262l-129 296h-2z" />
    <glyph glyph-name="B.small" unicode="&#xe06d;" horiz-adv-x="578" 
d="M92 0v531h229q90 0 134.5 -37.5t44.5 -96.5q0 -43 -25 -77t-69 -46q55 -11 86.5 -43.5t31.5 -82.5q0 -69 -52 -108.5t-134 -39.5h-246zM131 286h189q72 0 106.5 30t34.5 79q0 47 -34 75t-107 28h-189v-212zM131 33h207q65 0 106 30.5t41 84.5t-40.5 80.5t-106.5 26.5
h-207v-222z" />
    <glyph glyph-name="C.small" unicode="&#xe06e;" horiz-adv-x="587" 
d="M61 273q0 121 78.5 195.5t203.5 74.5q103 0 179 -52l-20 -28q-68 46 -158 46q-110 0 -177.5 -65t-67.5 -171q0 -114 67 -182.5t178 -68.5q105 0 169 56l23 -26q-75 -64 -193 -64q-128 0 -205 78t-77 207z" />
    <glyph glyph-name="D.small" unicode="&#xe06f;" horiz-adv-x="620" 
d="M92 0v531h163q148 0 226 -68t78 -190q0 -131 -76.5 -202t-227.5 -71h-163zM131 33h125q133 0 198.5 62t65.5 178q0 107 -67 165.5t-197 58.5h-125v-464z" />
    <glyph glyph-name="E.small" unicode="&#xe070;" horiz-adv-x="553" 
d="M92 0v531h392v-34h-353v-210h320v-33h-320v-220h359v-34h-398z" />
    <glyph glyph-name="F.small" unicode="&#xe071;" horiz-adv-x="539" 
d="M92 0v531h384v-34h-345v-211h310v-32h-310v-254h-39z" />
    <glyph glyph-name="G.small" unicode="&#xe072;" horiz-adv-x="616" 
d="M60 273q0 120 79 195t205 75q106 0 179 -44l-19 -28q-67 38 -160 38q-109 0 -177 -65.5t-68 -170.5q0 -116 65.5 -183.5t179.5 -67.5q89 0 154 37v180h-164v31h201v-229q-81 -53 -191 -53q-130 0 -207 77t-77 208z" />
    <glyph glyph-name="H.small" unicode="&#xe073;" horiz-adv-x="604" 
d="M92 0v531h39v-244h342v244h39v-531h-39v252h-342v-252h-39z" />
    <glyph glyph-name="I.small" unicode="&#xe074;" 
d="M92 0v531h39v-531h-39z" />
    <glyph glyph-name="J.small" unicode="&#xe075;" horiz-adv-x="485" 
d="M45 108l32 15q35 -101 138 -101q74 0 109.5 43.5t35.5 118.5v347h39v-347q0 -89 -46.5 -142.5t-136.5 -53.5q-69 0 -111 34.5t-60 85.5z" />
    <glyph glyph-name="K.small" unicode="&#xe076;" horiz-adv-x="570" 
d="M92 0v531h39v-328l333 328h49l-199 -196l212 -335h-45l-194 309l-156 -154v-155h-39z" />
    <glyph glyph-name="L.small" unicode="&#xe077;" horiz-adv-x="524" 
d="M92 0v531h39v-497h349v-34h-388z" />
    <glyph glyph-name="M.small" unicode="&#xe078;" horiz-adv-x="725" 
d="M92 0v531h49l222 -301l222 301h48v-531h-38v487l-232 -316l-233 315v-486h-38z" />
    <glyph glyph-name="N.small" unicode="&#xe079;" horiz-adv-x="625" 
d="M92 0v531h44l359 -479v479h38v-531h-44l-359 479v-479h-38z" />
    <glyph glyph-name="O.small" unicode="&#xe07a;" horiz-adv-x="678" 
d="M61 269q0 118 81.5 196t196.5 78q116 0 197 -78t81 -196q0 -126 -80.5 -203t-197.5 -77t-197.5 77t-80.5 203zM100 269q0 -111 69 -178.5t170 -67.5t170 67.5t69 178.5q0 104 -69.5 172t-169.5 68q-99 0 -169 -68t-70 -172z" />
    <glyph glyph-name="P.small" unicode="&#xe07b;" horiz-adv-x="578" 
d="M131 251h189q77 0 114.5 37t37.5 87q0 51 -36.5 86.5t-114.5 35.5h-190v-246zM92 0v531h230q97 0 143 -46t46 -110q0 -63 -47 -110t-144 -47h-189v-218h-39z" />
    <glyph glyph-name="Q.small" unicode="&#xe07c;" horiz-adv-x="678" 
d="M61 269q0 118 81.5 196t196.5 78q116 0 197 -78t81 -196q0 -111 -67 -188l81 -67l-21 -25l-82 69q-77 -69 -189 -69q-117 0 -197.5 77t-80.5 203zM389 173l21 24l111 -93q57 67 57 165q0 104 -69.5 172t-169.5 68q-99 0 -169 -68t-70 -172q0 -111 69 -178.5t170 -67.5
q95 0 160 59z" />
    <glyph glyph-name="R.small" unicode="&#xe07d;" horiz-adv-x="585" 
d="M92 0v531h236q97 0 143 -46t46 -110q0 -52 -34 -95t-102 -56l132 -224h-43l-128 219h-16h-195v-219h-39zM131 252h194q78 0 115.5 36.5t37.5 86.5q0 51 -36.5 86.5t-114.5 35.5h-196v-245z" />
    <glyph glyph-name="S.small" unicode="&#xe07e;" horiz-adv-x="512" 
d="M52 40l19 29q75 -47 186 -47q81 0 122 30t41 80q0 49 -37 75.5t-89.5 36.5t-105 22t-89.5 45t-37 91q0 62 51.5 101.5t140.5 39.5q101 0 182 -36l-16 -31q-72 33 -166 33q-72 0 -113 -29.5t-41 -76.5q0 -36 19.5 -59t51.5 -34.5t70 -19.5t76 -17.5t70 -24t51.5 -44
t19.5 -72.5q0 -65 -51.5 -104.5t-149.5 -39.5q-121 0 -205 52z" />
    <glyph glyph-name="T.small" unicode="&#xe07f;" horiz-adv-x="546" 
d="M254 0v497h-222v34h482v-34h-221v-497h-39z" />
    <glyph glyph-name="U.small" unicode="&#xe080;" horiz-adv-x="622" 
d="M86 209v322h39v-322q0 -88 52.5 -137.5t132.5 -49.5q81 0 134 49.5t53 137.5v322h39v-322q0 -104 -64 -162.5t-162 -58.5q-97 0 -160.5 58.5t-63.5 162.5z" />
    <glyph glyph-name="V.small" unicode="&#xe081;" horiz-adv-x="553" 
d="M251 0l-220 531h42l203 -495h2l203 495h42l-221 -531h-51z" />
    <glyph glyph-name="W.small" unicode="&#xe082;" horiz-adv-x="851" 
d="M219 0l-187 531h40l169 -484h2l162 484h43l160 -484h2l169 484h40l-187 -531h-45l-160 481h-2l-161 -481h-45z" />
    <glyph glyph-name="X.small" unicode="&#xe083;" horiz-adv-x="576" 
d="M40 0l222 270l-213 261h49l189 -231l190 231h49l-214 -261l224 -270h-49l-200 241l-198 -241h-49z" />
    <glyph glyph-name="Y.small" unicode="&#xe084;" horiz-adv-x="544" 
d="M251 0v214l-220 317h47l192 -278h2l194 278h47l-223 -317v-214h-39z" />
    <glyph glyph-name="Z.small" unicode="&#xe085;" horiz-adv-x="564" 
d="M61 0v35l386 462h-384v34h432v-34l-387 -463h398v-34h-445z" />
    <glyph glyph-name="Aacute.small" unicode="&#xe086;" horiz-adv-x="588" 
d="M268 586l139 165l30 -24l-140 -141h-29zM34 0l237 531h47l236 -531h-43l-73 165h-290l-72 -165h-42zM293 493l-131 -296h262l-129 296h-2z" />
    <glyph glyph-name="Agrave.small" unicode="&#xe087;" horiz-adv-x="588" 
d="M34 0l237 531h47l236 -531h-43l-73 165h-290l-72 -165h-42zM293 493l-131 -296h262l-129 296h-2zM290 586l-140 141l31 24l138 -165h-29z" />
    <glyph glyph-name="Acircumflex.small" unicode="&#xe088;" horiz-adv-x="588" 
d="M34 0l237 531h47l236 -531h-43l-73 165h-290l-72 -165h-42zM293 493l-131 -296h262l-129 296h-2zM143 586l128 156h46l127 -156h-30l-120 127h-1l-119 -127h-31z" />
    <glyph glyph-name="Adieresis.small" unicode="&#xe089;" horiz-adv-x="588" 
d="M359 636v56h44v-56h-44zM186 636v56h44v-56h-44zM34 0l237 531h47l236 -531h-43l-73 165h-290l-72 -165h-42zM293 493l-131 -296h262l-129 296h-2z" />
    <glyph glyph-name="colonmonitary.LP" unicode="&#xe08a;" horiz-adv-x="589" 
d="M272 0l18 77q-32 5 -55 13l-22 -90h-30l24 102q-69 33 -108 100.5t-39 156.5q0 115 72.5 189t191.5 79l16 73h30l-16 -72q33 -2 58 -7l17 79h30l-19 -86q45 -12 82 -38l-20 -27q-33 21 -69 32l-106 -474h16q106 0 170 56l23 -25q-74 -65 -193 -65q-16 0 -23 1l-18 -74
h-30zM98 359q0 -77 30.5 -134.5t87.5 -87.5l102 457q-99 -8 -159.5 -72t-60.5 -163zM242 125q26 -11 57 -15l107 478q-25 5 -59 7z" />
    <glyph glyph-name="Aring.small" unicode="&#xe08b;" horiz-adv-x="588" 
d="M34 0l229 514q-28 9 -45.5 33t-17.5 55q0 38 27.5 65t65.5 27q39 0 66 -27t27 -65q0 -30 -17 -53.5t-44 -33.5l229 -515h-43l-73 165h-290l-72 -165h-42zM293 493l-131 -296h262l-129 296h-2zM223 602q0 -28 18.5 -48.5t45.5 -22.5h12q27 2 46 22.5t19 48.5
q0 29 -21 49.5t-50 20.5t-49.5 -20.5t-20.5 -49.5z" />
    <glyph glyph-name="Acaron.small" unicode="&#xe08c;" horiz-adv-x="588" 
d="M271 586l-128 156h31l119 -126h1l120 126h30l-127 -156h-46zM34 0l237 531h47l236 -531h-43l-73 165h-290l-72 -165h-42zM293 493l-131 -296h262l-129 296h-2z" />
    <glyph glyph-name="Amacron.small" unicode="&#xe08d;" horiz-adv-x="588" 
d="M157 647v33h273v-33h-273zM34 0l237 531h47l236 -531h-43l-73 165h-290l-72 -165h-42zM293 493l-131 -296h262l-129 296h-2z" />
    <glyph glyph-name="Abreve.small" unicode="&#xe08e;" horiz-adv-x="588" 
d="M34 0l237 531h47l236 -531h-43l-73 165h-290l-72 -165h-42zM293 493l-131 -296h262l-129 296h-2zM294 585q-63 0 -104 42.5t-47 114.5h31q6 -57 38 -91t82 -34q49 0 81.5 34t38.5 91h30q-6 -72 -47 -114.5t-103 -42.5z" />
    <glyph glyph-name="Ainvertedbreve.small" unicode="&#xe08f;" horiz-adv-x="588" 
d="M34 0l237 531h47l236 -531h-43l-73 165h-290l-72 -165h-42zM293 493l-131 -296h262l-129 296h-2zM293 743q63 0 104 -42.5t47 -114.5h-31q-6 57 -38 91t-82 34q-49 0 -81.5 -34t-38.5 -91h-30q6 73 46.5 115t103.5 42z" />
    <glyph glyph-name="Adoublegrave.small" unicode="&#xe090;" horiz-adv-x="588" 
d="M34 0l237 531h47l236 -531h-43l-73 165h-290l-72 -165h-42zM293 493l-131 -296h262l-129 296h-2zM115 751l137 -165h-29l-139 141zM246 751l137 -165h-29l-139 141z" />
    <glyph glyph-name="Adotabove.small" unicode="&#xe091;" horiz-adv-x="588" 
d="M34 0l237 531h47l236 -531h-43l-73 165h-290l-72 -165h-42zM293 493l-131 -296h262l-129 296h-2zM270 636v56h47v-56h-47z" />
    <glyph glyph-name="Aringacute.small" unicode="&#xe092;" horiz-adv-x="588" 
d="M34 0l229 514q-28 9 -45.5 33t-17.5 55q0 38 27.5 65t65.5 27q39 0 66 -27t27 -65q0 -30 -17 -53.5t-44 -33.5l229 -515h-43l-73 165h-290l-72 -165h-42zM293 493l-131 -296h262l-129 296h-2zM293 531q29 0 50 21t21 50t-21 49.5t-50 20.5t-49.5 -20.5t-20.5 -49.5
t20.5 -50t49.5 -21zM268 714l139 165l30 -24l-140 -141h-29z" />
    <glyph glyph-name="Adieresismacron.small" unicode="&#xe093;" horiz-adv-x="588" 
d="M359 622v56h44v-56h-44zM186 622v56h44v-56h-44zM157 753v33h273v-33h-273zM34 0l237 531h47l236 -531h-43l-73 165h-290l-72 -165h-42zM293 493l-131 -296h262l-129 296h-2z" />
    <glyph glyph-name="Aogonek.small" unicode="&#xe094;" horiz-adv-x="588" 
d="M34 0l237 531h47l236 -531q-92 -52 -92 -120q0 -25 17 -39t40 -14q31 0 57 14l2 -1v-32q-28 -14 -60 -14q-38 0 -64 21t-26 60q0 72 83 125l-73 165h-290l-72 -165h-42zM293 493l-131 -296h262l-129 296h-2z" />
    <glyph glyph-name="AE.small" unicode="&#xe096;" horiz-adv-x="863" 
d="M497 0l-54 165h-275l-80 -165h-43l263 531h487v-34h-421l69 -211h317v-33h-306l73 -219h273v-34h-303zM331 497l-147 -299h249l-97 299h-5z" />
    <glyph glyph-name="AEacute.small" unicode="&#xe097;" horiz-adv-x="852" 
d="M486 0l-54 165h-275l-80 -165h-43l263 531h487v-34h-421l69 -211h317v-33h-306l73 -219h273v-34h-303zM320 497l-147 -299h249l-97 299h-5zM380 586l139 165l30 -24l-140 -141h-29z" />
    <glyph glyph-name="AEmacron.small" unicode="&#xe098;" horiz-adv-x="852" 
d="M486 0l-54 165h-275l-80 -165h-43l263 531h487v-34h-421l69 -211h317v-33h-306l73 -219h273v-34h-303zM320 497l-147 -299h249l-97 299h-5zM270 647v33h273v-33h-273z" />
    <glyph glyph-name="Cacute.small" unicode="&#xe099;" horiz-adv-x="587" 
d="M296 586l139 165l30 -24l-140 -141h-29zM61 273q0 121 78.5 195.5t203.5 74.5q103 0 179 -52l-20 -28q-68 46 -158 46q-110 0 -177.5 -65t-67.5 -171q0 -114 67 -182.5t178 -68.5q105 0 169 56l23 -26q-75 -64 -193 -64q-128 0 -205 78t-77 207z" />
    <glyph glyph-name="Ccircumflex.small" unicode="&#xe09a;" horiz-adv-x="587" 
d="M173 586l128 156h46l127 -156h-30l-120 127h-1l-119 -127h-31zM61 273q0 121 78.5 195.5t203.5 74.5q103 0 179 -52l-20 -28q-68 46 -158 46q-110 0 -177.5 -65t-67.5 -171q0 -114 67 -182.5t178 -68.5q105 0 169 56l23 -26q-75 -64 -193 -64q-128 0 -205 78t-77 207z
" />
    <glyph glyph-name="Ccaron.small" unicode="&#xe09b;" horiz-adv-x="587" 
d="M301 586l-128 156h31l119 -126h1l120 126h30l-127 -156h-46zM61 273q0 121 78.5 195.5t203.5 74.5q103 0 179 -52l-20 -28q-68 46 -158 46q-110 0 -177.5 -65t-67.5 -171q0 -114 67 -182.5t178 -68.5q105 0 169 56l23 -26q-75 -64 -193 -64q-128 0 -205 78t-77 207z" />
    <glyph glyph-name="Cdotaccent.small" unicode="&#xe09c;" horiz-adv-x="587" 
d="M61 273q0 121 78.5 195.5t203.5 74.5q103 0 179 -52l-20 -28q-68 46 -158 46q-110 0 -177.5 -65t-67.5 -171q0 -114 67 -182.5t178 -68.5q105 0 169 56l23 -26q-75 -64 -193 -64q-128 0 -205 78t-77 207zM299 636v56h47v-56h-47z" />
    <glyph glyph-name="Ccedilla.small" unicode="&#xe09d;" horiz-adv-x="587" 
d="M186 -195q100 85 122 185q-113 10 -180 87t-67 196q0 121 78.5 195.5t203.5 74.5q103 0 179 -52l-20 -28q-68 46 -158 46q-110 0 -177.5 -65t-67.5 -171q0 -114 67 -182.5t178 -68.5q105 0 169 56l23 -26q-75 -64 -193 -64h-7q-19 -112 -115 -200z" />
    <glyph glyph-name="Dcaron.small" unicode="&#xe09e;" horiz-adv-x="620" 
d="M92 0v531h163q148 0 226 -68t78 -190q0 -131 -76.5 -202t-227.5 -71h-163zM131 33h125q133 0 198.5 62t65.5 178q0 107 -67 165.5t-197 58.5h-125v-464zM303 586l-128 156h31l119 -126h1l120 126h30l-127 -156h-46z" />
    <glyph glyph-name="Dcedilla.small" unicode="&#xe09f;" horiz-adv-x="620" 
d="M92 0v531h163q148 0 226 -68t78 -190q0 -131 -76.5 -202t-227.5 -71h-163zM131 33h125q133 0 198.5 62t65.5 178q0 107 -67 165.5t-197 58.5h-125v-464zM308 -50h32q-27 -93 -106 -162l-35 17q80 69 109 145z" />
    <glyph glyph-name="Ddotbelow.small" unicode="&#xe0a0;" horiz-adv-x="620" 
d="M92 0v531h163q148 0 226 -68t78 -190q0 -131 -76.5 -202t-227.5 -71h-163zM131 33h125q133 0 198.5 62t65.5 178q0 107 -67 165.5t-197 58.5h-125v-464zM301 -172v56h47v-56h-47z" />
    <glyph glyph-name="Dcroat.small" unicode="&#xe0a1;" horiz-adv-x="644" 
d="M10 253v30h107v248h163q148 0 226 -68t78 -190q0 -131 -76.5 -202t-227.5 -71h-163v253h-107zM156 33h125q133 0 198.5 62t65.5 178q0 107 -67 165.5t-197 58.5h-125v-214h183v-30h-183v-220z" />
    <glyph glyph-name="Eacute.small" unicode="&#xe0a2;" horiz-adv-x="553" 
d="M92 0v531h392v-34h-353v-210h320v-33h-320v-220h359v-34h-398zM266 586l139 165l30 -24l-140 -141h-29z" />
    <glyph glyph-name="Egrave.small" unicode="&#xe0a3;" horiz-adv-x="553" 
d="M92 0v531h392v-34h-353v-210h320v-33h-320v-220h359v-34h-398zM288 586l-140 141l31 24l138 -165h-29z" />
    <glyph glyph-name="Ecircumflex.small" unicode="&#xe0a4;" horiz-adv-x="553" 
d="M141 586l128 156h46l127 -156h-30l-120 127h-1l-119 -127h-31zM92 0v531h392v-34h-353v-210h320v-33h-320v-220h359v-34h-398z" />
    <glyph glyph-name="Edieresis.small" unicode="&#xe0a5;" horiz-adv-x="553" 
d="M356 636v56h44v-56h-44zM183 636v56h44v-56h-44zM92 0v531h392v-34h-353v-210h320v-33h-320v-220h359v-34h-398z" />
    <glyph glyph-name="Ecaron.small" unicode="&#xe0a6;" horiz-adv-x="553" 
d="M269 586l-128 156h31l119 -126h1l120 126h30l-127 -156h-46zM92 0v531h392v-34h-353v-210h320v-33h-320v-220h359v-34h-398z" />
    <glyph glyph-name="Emacron.small" unicode="&#xe0a7;" horiz-adv-x="553" 
d="M92 0v531h392v-34h-353v-210h320v-33h-320v-220h359v-34h-398zM154 647v33h273v-33h-273z" />
    <glyph glyph-name="Ebreve.small" unicode="&#xe0a8;" horiz-adv-x="553" 
d="M92 0v531h392v-34h-353v-210h320v-33h-320v-220h359v-34h-398zM291 585q-63 0 -104 42.5t-47 114.5h31q6 -57 38 -91t82 -34q49 0 81.5 34t38.5 91h30q-6 -72 -47 -114.5t-103 -42.5z" />
    <glyph glyph-name="Einvertedbreve.small" unicode="&#xe0a9;" horiz-adv-x="553" 
d="M92 0v531h392v-34h-353v-210h320v-33h-320v-220h359v-34h-398zM290 743q63 0 104 -42.5t47 -114.5h-31q-6 57 -38 91t-82 34q-49 0 -81.5 -34t-38.5 -91h-30q6 73 46.5 115t103.5 42z" />
    <glyph glyph-name="Edoublegrave.small" unicode="&#xe0aa;" horiz-adv-x="554" 
d="M92 0v531h392v-34h-353v-210h320v-33h-320v-220h359v-34h-398zM113 751l137 -165h-29l-139 141zM244 751l137 -165h-29l-139 141z" />
    <glyph glyph-name="Edotaccent.small" unicode="&#xe0ab;" horiz-adv-x="553" 
d="M92 0v531h392v-34h-353v-210h320v-33h-320v-220h359v-34h-398zM268 636v56h47v-56h-47z" />
    <glyph glyph-name="Eacutedotbelow.small" unicode="&#xe0ac;" horiz-adv-x="553" 
d="M92 0v531h392v-34h-353v-210h320v-33h-320v-220h359v-34h-398zM269 -172v56h47v-56h-47zM266 586l139 165l30 -24l-140 -141h-29z" />
    <glyph glyph-name="Egravedotbelow.small" unicode="&#xe0ad;" horiz-adv-x="553" 
d="M92 0v531h392v-34h-353v-210h320v-33h-320v-220h359v-34h-398zM269 -172v56h47v-56h-47zM288 586l-140 141l31 24l138 -165h-29z" />
    <glyph glyph-name="Eogonek.small" unicode="&#xe0ae;" horiz-adv-x="553" 
d="M92 0v531h392v-34h-353v-210h320v-33h-320v-220h359v-34q-92 -52 -92 -120q0 -25 17 -39t40 -14q31 0 57 14l2 -1v-32q-28 -14 -60 -14q-38 0 -64 21t-26 60q0 72 83 125h-355z" />
    <glyph glyph-name="Gacute.small" unicode="&#xe0af;" horiz-adv-x="616" 
d="M296 586l139 165l30 -24l-140 -141h-29zM60 273q0 120 79 195t205 75q106 0 179 -44l-19 -28q-67 38 -160 38q-109 0 -177 -65.5t-68 -170.5q0 -116 65.5 -183.5t179.5 -67.5q89 0 154 37v180h-164v31h201v-229q-81 -53 -191 -53q-130 0 -207 77t-77 208z" />
    <glyph glyph-name="Gcircumflex.small" unicode="&#xe0b0;" horiz-adv-x="616" 
d="M172 586l128 156h46l127 -156h-30l-120 127h-1l-119 -127h-31zM60 273q0 120 79 195t205 75q106 0 179 -44l-19 -28q-67 38 -160 38q-109 0 -177 -65.5t-68 -170.5q0 -116 65.5 -183.5t179.5 -67.5q89 0 154 37v180h-164v31h201v-229q-81 -53 -191 -53q-130 0 -207 77
t-77 208z" />
    <glyph glyph-name="Gcaron.small" unicode="&#xe0b2;" horiz-adv-x="616" 
d="M300 586l-128 156h31l119 -126h1l120 126h30l-127 -156h-46zM60 273q0 120 79 195t205 75q106 0 179 -44l-19 -28q-67 38 -160 38q-109 0 -177 -65.5t-68 -170.5q0 -116 65.5 -183.5t179.5 -67.5q89 0 154 37v180h-164v31h201v-229q-81 -53 -191 -53q-130 0 -207 77
t-77 208z" />
    <glyph glyph-name="Gbreve.small" unicode="&#xe0b3;" horiz-adv-x="616" 
d="M60 273q0 120 79 195t205 75q106 0 179 -44l-19 -28q-67 38 -160 38q-109 0 -177 -65.5t-68 -170.5q0 -116 65.5 -183.5t179.5 -67.5q89 0 154 37v180h-164v31h201v-229q-81 -53 -191 -53q-130 0 -207 77t-77 208zM323 585q-63 0 -104 42.5t-47 114.5h31q6 -57 38 -91
t82 -34q49 0 81.5 34t38.5 91h30q-6 -72 -47 -114.5t-103 -42.5z" />
    <glyph glyph-name="Gdotaccent.small" unicode="&#xe0b4;" horiz-adv-x="616" 
d="M298 636v56h47v-56h-47zM60 273q0 120 79 195t205 75q106 0 179 -44l-19 -28q-67 38 -160 38q-109 0 -177 -65.5t-68 -170.5q0 -116 65.5 -183.5t179.5 -67.5q89 0 154 37v180h-164v31h201v-229q-81 -53 -191 -53q-130 0 -207 77t-77 208z" />
    <glyph glyph-name="Gcommaaccent.small" unicode="&#xe0b6;" horiz-adv-x="616" 
d="M271 -56q16 4 30 4q35 0 52.5 -17.5t17.5 -46.5q1 -45 -56 -95h-31q54 52 54 92q0 38 -42 38q-10 0 -25 -3v28zM60 273q0 120 79 195t205 75q106 0 179 -44l-19 -28q-67 38 -160 38q-109 0 -177 -65.5t-68 -170.5q0 -116 65.5 -183.5t179.5 -67.5q89 0 154 37v180h-164
v31h201v-229q-81 -53 -191 -53q-130 0 -207 77t-77 208z" />
    <glyph glyph-name="Gstroke.small" unicode="&#xe0b7;" horiz-adv-x="617" 
d="M376 129v31h122v79h-164v31h201v-110h88v-31h-88v-88q-81 -53 -191 -53q-130 0 -207 77t-77 208q0 120 79 195t205 75q106 0 179 -44l-19 -28q-67 38 -160 38q-109 0 -177 -65.5t-68 -170.5q0 -116 65.5 -183.5t179.5 -67.5q89 0 154 37v70h-122z" />
    <glyph glyph-name="Hcircumflex.small" unicode="&#xe0b8;" horiz-adv-x="604" 
d="M152 586l128 156h46l127 -156h-30l-120 127h-1l-119 -127h-31zM92 0v531h39v-244h342v244h39v-531h-39v252h-342v-252h-39z" />
    <glyph glyph-name="Hcaron.small" unicode="&#xe0b9;" horiz-adv-x="604" 
d="M280 586l-128 156h31l119 -126h1l120 126h30l-127 -156h-46zM92 0v531h39v-244h342v244h39v-531h-39v252h-342v-252h-39z" />
    <glyph glyph-name="Hdotbelow.small" unicode="&#xe0ba;" horiz-adv-x="604" 
d="M92 0v531h39v-244h342v244h39v-531h-39v252h-342v-252h-39zM279 -172v56h47v-56h-47z" />
    <glyph glyph-name="Hmacronbelow.small" unicode="&#xe0bb;" horiz-adv-x="604" 
d="M92 0v531h39v-244h342v244h39v-531h-39v252h-342v-252h-39zM166 -154v33h273v-33h-273z" />
    <glyph glyph-name="Hbar.small" unicode="&#xe0bc;" horiz-adv-x="604" 
d="M92 0v531h39v-105h342v105h39v-531h-39v252h-342v-252h-39zM131 287h342v109h-342v-109z" />
    <glyph glyph-name="Iacute.small" unicode="&#xe0bd;" 
d="M86 586l139 165l30 -24l-140 -141h-29zM92 0v531h39v-531h-39z" />
    <glyph glyph-name="Igrave.small" unicode="&#xe0be;" 
d="M92 0v531h39v-531h-39zM108 586l-140 141l31 24l138 -165h-29z" />
    <glyph glyph-name="Icircumflex.small" unicode="&#xe0bf;" 
d="M-39 586l128 156h46l127 -156h-30l-120 127h-1l-119 -127h-31zM92 0v531h39v-531h-39z" />
    <glyph glyph-name="Idieresis.small" unicode="&#xe0c0;" 
d="M176 636v56h44v-56h-44zM3 636v56h44v-56h-44zM92 0v531h39v-531h-39z" />
    <glyph glyph-name="Itilde.small" unicode="&#xe0c1;" 
d="M92 0v531h39v-531h-39zM-20 623q-4 44 15 69t52 25q24 0 47.5 -18.5t44 -37t38.5 -18.5q20 0 31 16.5t7 45.5h29q4 -44 -15 -69t-52 -25q-24 0 -47.5 18.5t-44 36.5t-38.5 18q-20 0 -31 -16.5t-7 -44.5h-29z" />
    <glyph glyph-name="Icaron.small" unicode="&#xe0c2;" 
d="M89 586l-128 156h31l119 -126h1l120 126h30l-127 -156h-46zM92 0v531h39v-531h-39z" />
    <glyph glyph-name="Imacron.small" unicode="&#xe0c3;" 
d="M-25 647v33h273v-33h-273zM92 0v531h39v-531h-39z" />
    <glyph glyph-name="Ibreve.small" unicode="&#xe0c4;" 
d="M92 0v531h39v-531h-39zM112 585q-63 0 -104 42.5t-47 114.5h31q6 -57 38 -91t82 -34q49 0 81.5 34t38.5 91h30q-6 -72 -47 -114.5t-103 -42.5z" />
    <glyph glyph-name="Iinvertedbreve.small" unicode="&#xe0c5;" 
d="M111 743q63 0 104 -42.5t47 -114.5h-31q-6 57 -38 91t-82 34q-49 0 -81.5 -34t-38.5 -91h-30q6 73 46.5 115t103.5 42zM92 0v531h39v-531h-39z" />
    <glyph glyph-name="Idoublegrave.small" unicode="&#xe0c6;" 
d="M92 0v531h39v-531h-39zM-67 751l137 -165h-29l-139 141zM64 751l137 -165h-29l-139 141z" />
    <glyph glyph-name="Idotaccent.small" unicode="&#xe0c7;" 
d="M92 0v531h39v-531h-39zM88 636v56h47v-56h-47z" />
    <glyph glyph-name="Idotbelow.small" unicode="&#xe0c8;" 
d="M88 -172v56h47v-56h-47zM92 0v531h39v-531h-39z" />
    <glyph glyph-name="Iogonek.small" unicode="&#xe0c9;" 
d="M155 -160v-32q-28 -14 -60 -14q-38 0 -64 21t-26 60q0 73 87 127v529h39v-531q-92 -52 -92 -120q0 -25 17 -39t40 -14q31 0 57 14z" />
    <glyph glyph-name="Jcircumflex.small" unicode="&#xe0ca;" horiz-adv-x="485" 
d="M229 586l128 156h46l127 -156h-30l-120 127h-1l-119 -127h-31zM45 108l32 15q35 -101 138 -101q74 0 109.5 43.5t35.5 118.5v347h39v-347q0 -89 -46.5 -142.5t-136.5 -53.5q-69 0 -111 34.5t-60 85.5z" />
    <glyph glyph-name="Jcaron.small" unicode="&#xe0cb;" horiz-adv-x="485" 
d="M357 586l-128 156h31l119 -126h1l120 126h30l-127 -156h-46zM45 108l32 15q35 -101 138 -101q74 0 109.5 43.5t35.5 118.5v347h39v-347q0 -89 -46.5 -142.5t-136.5 -53.5q-69 0 -111 34.5t-60 85.5z" />
    <glyph glyph-name="Kcaron.small" unicode="&#xe0cc;" horiz-adv-x="570" 
d="M266 586l-128 156h31l119 -126h1l120 126h30l-127 -156h-46zM92 0v531h39v-328l333 328h49l-199 -196l212 -335h-45l-194 309l-156 -154v-155h-39z" />
    <glyph glyph-name="Kcommaaccent.small" unicode="&#xe0cd;" horiz-adv-x="570" 
d="M238 -56q16 4 30 4q35 0 52.5 -17.5t17.5 -46.5q1 -45 -56 -95h-31q54 52 54 92q0 38 -42 38q-10 0 -25 -3v28zM92 0v531h39v-328l333 328h49l-199 -196l212 -335h-45l-194 309l-156 -154v-155h-39z" />
    <glyph glyph-name="Kcedilla.small" unicode="&#xe0ce;" horiz-adv-x="570" 
d="M92 0v531h39v-328l333 328h49l-199 -196l212 -335h-45l-194 309l-156 -154v-155h-39zM273 -50h32q-27 -93 -106 -162l-35 17q80 69 109 145z" />
    <glyph glyph-name="Khook.small" unicode="&#xe0cf;" horiz-adv-x="570" 
d="M92 0v531h39v-344q38 13 70 47.5t74 114.5q50 101 107 140t124 44l1 -30q-55 -6 -103.5 -40.5t-93.5 -121.5l216 -341h-45l-191 304q-41 -74 -76.5 -105t-82.5 -46v-153h-39z" />
    <glyph glyph-name="Lacute.small" unicode="&#xe0d0;" horiz-adv-x="524" 
d="M92 0v531h39v-497h349v-34h-388zM86 586l139 165l30 -24l-140 -141h-29z" />
    <glyph glyph-name="Lcaron.small" unicode="&#xe0d1;" horiz-adv-x="524" 
d="M92 0v531h39v-497h349v-34h-388zM210 529q16 4 30 4q35 0 52.5 -17.5t17.5 -46.5q1 -45 -56 -95h-31q54 52 54 92q0 38 -42 38q-10 0 -25 -3v28z" />
    <glyph glyph-name="Lcommaaccent.small" unicode="&#xe0d2;" horiz-adv-x="524" 
d="M92 0v531h39v-497h349v-34h-388zM234 -56q16 4 30 4q35 0 52.5 -17.5t17.5 -46.5q1 -45 -56 -95h-31q54 52 54 92q0 38 -42 38q-10 0 -25 -3v28z" />
    <glyph glyph-name="Lcedilla.small" unicode="&#xe0d3;" horiz-adv-x="524" 
d="M92 0v531h39v-497h349v-34h-388zM269 -50h32q-27 -93 -106 -162l-35 17q80 69 109 145z" />
    <glyph glyph-name="Ldotbelow.small" unicode="&#xe0d4;" horiz-adv-x="524" 
d="M92 0v531h39v-497h349v-34h-388zM263 -172v56h47v-56h-47z" />
    <glyph glyph-name="Ldotbelowmacron.small" unicode="&#xe0d5;" horiz-adv-x="524" 
d="M92 0v531h39v-497h349v-34h-388zM263 -172v56h47v-56h-47zM-25 647v33h273v-33h-273z" />
    <glyph glyph-name="Ldot.small" unicode="&#xe0d6;" horiz-adv-x="524" 
d="M92 0v531h39v-497h349v-34h-388zM433 251v56h47v-56h-47z" />
    <glyph glyph-name="Lslash.small" unicode="&#xe0d7;" horiz-adv-x="543" 
d="M12 155v36l99 63v277h39v-252l202 130v-37l-202 -129v-209h349v-34h-388v218z" />
    <glyph glyph-name="Mmacron.small" unicode="&#xe0d8;" horiz-adv-x="725" 
d="M92 0v531h49l222 -301l222 301h48v-531h-38v487l-232 -316l-233 315v-486h-38zM226 647v33h273v-33h-273z" />
    <glyph glyph-name="Mcedilla.small" unicode="&#xe0d9;" horiz-adv-x="725" 
d="M92 0v531h49l222 -301l222 301h48v-531h-38v487l-232 -316l-233 315v-486h-38zM347 -50h32q-27 -93 -106 -162l-35 17q80 69 109 145z" />
    <glyph glyph-name="Mdotbelow.small" unicode="&#xe0da;" horiz-adv-x="725" 
d="M92 0v531h49l222 -301l222 301h48v-531h-38v487l-232 -316l-233 315v-486h-38zM339 -172v56h47v-56h-47z" />
    <glyph glyph-name="Nacute.small" unicode="&#xe0db;" horiz-adv-x="625" 
d="M287 586l139 165l30 -24l-140 -141h-29zM92 0v531h44l359 -479v479h38v-531h-44l-359 479v-479h-38z" />
    <glyph glyph-name="Ngrave.small" unicode="&#xe0dc;" horiz-adv-x="625" 
d="M92 0v531h44l359 -479v479h38v-531h-44l-359 479v-479h-38zM309 586l-140 141l31 24l138 -165h-29z" />
    <glyph glyph-name="Ndieresis.small" unicode="&#xe0dd;" horiz-adv-x="625" 
d="M378 636v56h44v-56h-44zM205 636v56h44v-56h-44zM92 0v531h44l359 -479v479h38v-531h-44l-359 479v-479h-38z" />
    <glyph glyph-name="Ntilde.small" unicode="&#xe0de;" horiz-adv-x="625" 
d="M92 0v531h44l359 -479v479h38v-531h-44l-359 479v-479h-38zM181 623q-4 44 15 69t52 25q24 0 47.5 -18.5t44 -37t38.5 -18.5q20 0 31 16.5t7 45.5h29q4 -44 -15 -69t-52 -25q-24 0 -47.5 18.5t-44 36.5t-38.5 18q-20 0 -31 -16.5t-7 -44.5h-29z" />
    <glyph glyph-name="Ncaron.small" unicode="&#xe0df;" horiz-adv-x="625" 
d="M290 586l-128 156h31l119 -126h1l120 126h30l-127 -156h-46zM92 0v531h44l359 -479v479h38v-531h-44l-359 479v-479h-38z" />
    <glyph glyph-name="Nmacron.small" unicode="&#xe0e0;" horiz-adv-x="625" 
d="M176 647v33h273v-33h-273zM92 0v531h44l359 -479v479h38v-531h-44l-359 479v-479h-38z" />
    <glyph glyph-name="Ndotaccent.small" unicode="&#xe0e1;" horiz-adv-x="625" 
d="M92 0v531h44l359 -479v479h38v-531h-44l-359 479v-479h-38zM290 636v56h47v-56h-47z" />
    <glyph glyph-name="Ncommaaccent.small" unicode="&#xe0e2;" horiz-adv-x="625" 
d="M263 -56q16 4 30 4q35 0 52.5 -17.5t17.5 -46.5q1 -45 -56 -95h-31q54 52 54 92q0 38 -42 38q-10 0 -25 -3v28zM92 0v531h44l359 -479v479h38v-531h-44l-359 479v-479h-38z" />
    <glyph glyph-name="Ncedilla.small" unicode="&#xe0e3;" horiz-adv-x="625" 
d="M297 -50h32q-27 -93 -106 -162l-35 17q80 69 109 145zM92 0v531h44l359 -479v479h38v-531h-44l-359 479v-479h-38z" />
    <glyph glyph-name="Ndotbelow.small" unicode="&#xe0e4;" horiz-adv-x="625" 
d="M290 -172v56h47v-56h-47zM92 0v531h44l359 -479v479h38v-531h-44l-359 479v-479h-38z" />
    <glyph glyph-name="Ndescender.small" unicode="&#xe0e5;" horiz-adv-x="625" 
d="M92 0v531h44l359 -479v479h38v-731h-38v200h-6l-359 479v-479h-38z" />
    <glyph glyph-name="Oacute.small" unicode="&#xe0e6;" horiz-adv-x="678" 
d="M312 586l139 165l30 -24l-140 -141h-29zM61 269q0 118 81.5 196t196.5 78q116 0 197 -78t81 -196q0 -126 -80.5 -203t-197.5 -77t-197.5 77t-80.5 203zM100 269q0 -111 69 -178.5t170 -67.5t170 67.5t69 178.5q0 104 -69.5 172t-169.5 68q-99 0 -169 -68t-70 -172z" />
    <glyph glyph-name="Ograve.small" unicode="&#xe0e7;" horiz-adv-x="678" 
d="M335 586l-140 141l31 24l138 -165h-29zM61 269q0 118 81.5 196t196.5 78q116 0 197 -78t81 -196q0 -126 -80.5 -203t-197.5 -77t-197.5 77t-80.5 203zM100 269q0 -111 69 -178.5t170 -67.5t170 67.5t69 178.5q0 104 -69.5 172t-169.5 68q-99 0 -169 -68t-70 -172z" />
    <glyph glyph-name="Ocircumflex.small" unicode="&#xe0e8;" horiz-adv-x="678" 
d="M188 586l128 156h46l127 -156h-30l-120 127h-1l-119 -127h-31zM61 269q0 118 81.5 196t196.5 78q116 0 197 -78t81 -196q0 -126 -80.5 -203t-197.5 -77t-197.5 77t-80.5 203zM100 269q0 -111 69 -178.5t170 -67.5t170 67.5t69 178.5q0 104 -69.5 172t-169.5 68
q-99 0 -169 -68t-70 -172z" />
    <glyph glyph-name="Odieresis.small" unicode="&#xe0e9;" horiz-adv-x="678" 
d="M404 636v56h44v-56h-44zM231 636v56h44v-56h-44zM61 269q0 118 81.5 196t196.5 78q116 0 197 -78t81 -196q0 -126 -80.5 -203t-197.5 -77t-197.5 77t-80.5 203zM100 269q0 -111 69 -178.5t170 -67.5t170 67.5t69 178.5q0 104 -69.5 172t-169.5 68q-99 0 -169 -68
t-70 -172z" />
    <glyph glyph-name="Otilde.small" unicode="&#xe0ea;" horiz-adv-x="678" 
d="M61 269q0 118 81.5 196t196.5 78q116 0 197 -78t81 -196q0 -126 -80.5 -203t-197.5 -77t-197.5 77t-80.5 203zM100 269q0 -111 69 -178.5t170 -67.5t170 67.5t69 178.5q0 104 -69.5 172t-169.5 68q-99 0 -169 -68t-70 -172zM207 623q-4 44 15 69t52 25q24 0 47.5 -18.5
t44 -37t38.5 -18.5q20 0 31 16.5t7 45.5h29q4 -44 -15 -69t-52 -25q-24 0 -47.5 18.5t-44 36.5t-38.5 18q-20 0 -31 -16.5t-7 -44.5h-29z" />
    <glyph glyph-name="Ocaron.small" unicode="&#xe0eb;" horiz-adv-x="678" 
d="M316 586l-128 156h31l119 -126h1l120 126h30l-127 -156h-46zM61 269q0 118 81.5 196t196.5 78q116 0 197 -78t81 -196q0 -126 -80.5 -203t-197.5 -77t-197.5 77t-80.5 203zM100 269q0 -111 69 -178.5t170 -67.5t170 67.5t69 178.5q0 104 -69.5 172t-169.5 68
q-99 0 -169 -68t-70 -172z" />
    <glyph glyph-name="Omacron.small" unicode="&#xe0ec;" horiz-adv-x="678" 
d="M202 647v33h273v-33h-273zM61 269q0 118 81.5 196t196.5 78q116 0 197 -78t81 -196q0 -126 -80.5 -203t-197.5 -77t-197.5 77t-80.5 203zM100 269q0 -111 69 -178.5t170 -67.5t170 67.5t69 178.5q0 104 -69.5 172t-169.5 68q-99 0 -169 -68t-70 -172z" />
    <glyph glyph-name="Obreve.small" unicode="&#xe0ed;" horiz-adv-x="678" 
d="M61 269q0 118 81.5 196t196.5 78q116 0 197 -78t81 -196q0 -126 -80.5 -203t-197.5 -77t-197.5 77t-80.5 203zM100 269q0 -111 69 -178.5t170 -67.5t170 67.5t69 178.5q0 104 -69.5 172t-169.5 68q-99 0 -169 -68t-70 -172zM339 585q-63 0 -104 42.5t-47 114.5h31
q6 -57 38 -91t82 -34q49 0 81.5 34t38.5 91h30q-6 -72 -47 -114.5t-103 -42.5z" />
    <glyph glyph-name="Oinvertedbreve.small" unicode="&#xe0ee;" horiz-adv-x="678" 
d="M338 743q63 0 104 -42.5t47 -114.5h-31q-6 57 -38 91t-82 34q-49 0 -81.5 -34t-38.5 -91h-30q6 73 46.5 115t103.5 42zM61 269q0 118 81.5 196t196.5 78q116 0 197 -78t81 -196q0 -126 -80.5 -203t-197.5 -77t-197.5 77t-80.5 203zM100 269q0 -111 69 -178.5t170 -67.5
t170 67.5t69 178.5q0 104 -69.5 172t-169.5 68q-99 0 -169 -68t-70 -172z" />
    <glyph glyph-name="Ohungarumlaut.small" unicode="&#xe0ef;" horiz-adv-x="678" 
d="M250 586l137 165l31 -24l-139 -141h-29zM381 586l137 165l31 -24l-140 -141h-28zM61 269q0 118 81.5 196t196.5 78q116 0 197 -78t81 -196q0 -126 -80.5 -203t-197.5 -77t-197.5 77t-80.5 203zM100 269q0 -111 69 -178.5t170 -67.5t170 67.5t69 178.5q0 104 -69.5 172
t-169.5 68q-99 0 -169 -68t-70 -172z" />
    <glyph glyph-name="Odoublegrave.small" unicode="&#xe0f0;" horiz-adv-x="678" 
d="M160 751l137 -165h-29l-139 141zM291 751l137 -165h-29l-139 141zM61 269q0 118 81.5 196t196.5 78q116 0 197 -78t81 -196q0 -126 -80.5 -203t-197.5 -77t-197.5 77t-80.5 203zM100 269q0 -111 69 -178.5t170 -67.5t170 67.5t69 178.5q0 104 -69.5 172t-169.5 68
q-99 0 -169 -68t-70 -172z" />
    <glyph glyph-name="Ocommaturnedabove.small" unicode="&#xe0f1;" horiz-adv-x="678" 
d="M374 616v-28q-14 -4 -30 -4q-68 0 -70 64q0 45 57 95h30q-53 -53 -53 -91q0 -39 42 -39q10 0 24 3zM61 269q0 118 81.5 196t196.5 78q116 0 197 -78t81 -196q0 -126 -80.5 -203t-197.5 -77t-197.5 77t-80.5 203zM100 269q0 -111 69 -178.5t170 -67.5t170 67.5t69 178.5
q0 104 -69.5 172t-169.5 68q-99 0 -169 -68t-70 -172z" />
    <glyph glyph-name="Otildemacron.small" unicode="&#xe0f2;" horiz-adv-x="678" 
d="M61 269q0 118 81.5 196t196.5 78q116 0 197 -78t81 -196q0 -126 -80.5 -203t-197.5 -77t-197.5 77t-80.5 203zM100 269q0 -111 69 -178.5t170 -67.5t170 67.5t69 178.5q0 104 -69.5 172t-169.5 68q-99 0 -169 -68t-70 -172zM202 753v33h273v-33h-273zM207 610
q-4 44 15 69t52 25q24 0 47.5 -18.5t44 -37t38.5 -18.5q20 0 31 16.5t7 45.5h29q4 -44 -15 -69t-52 -25q-19 0 -38 11.5t-32 25t-29 25t-31 11.5q-20 0 -31 -16.5t-7 -44.5h-29z" />
    <glyph glyph-name="Odotabove.small" unicode="&#xe0f3;" horiz-adv-x="678" 
d="M315 636v56h47v-56h-47zM61 269q0 118 81.5 196t196.5 78q116 0 197 -78t81 -196q0 -126 -80.5 -203t-197.5 -77t-197.5 77t-80.5 203zM100 269q0 -111 69 -178.5t170 -67.5t170 67.5t69 178.5q0 104 -69.5 172t-169.5 68q-99 0 -169 -68t-70 -172z" />
    <glyph glyph-name="Odotabovemacron.small" unicode="&#xe0f4;" horiz-adv-x="678" 
d="M202 753v33h273v-33h-273zM315 624v56h47v-56h-47zM61 269q0 118 81.5 196t196.5 78q116 0 197 -78t81 -196q0 -126 -80.5 -203t-197.5 -77t-197.5 77t-80.5 203zM100 269q0 -111 69 -178.5t170 -67.5t170 67.5t69 178.5q0 104 -69.5 172t-169.5 68q-99 0 -169 -68
t-70 -172z" />
    <glyph glyph-name="Ocedilla.small" unicode="&#xe0f5;" horiz-adv-x="678" 
d="M323 -50h32q-27 -93 -106 -162l-35 17q80 69 109 145zM61 269q0 118 81.5 196t196.5 78q116 0 197 -78t81 -196q0 -126 -80.5 -203t-197.5 -77t-197.5 77t-80.5 203zM100 269q0 -111 69 -178.5t170 -67.5t170 67.5t69 178.5q0 104 -69.5 172t-169.5 68q-99 0 -169 -68
t-70 -172z" />
    <glyph glyph-name="Odotbelow.small" unicode="&#xe0f6;" horiz-adv-x="678" 
d="M315 -172v56h47v-56h-47zM61 269q0 118 81.5 196t196.5 78q116 0 197 -78t81 -196q0 -126 -80.5 -203t-197.5 -77t-197.5 77t-80.5 203zM100 269q0 -111 69 -178.5t170 -67.5t170 67.5t69 178.5q0 104 -69.5 172t-169.5 68q-99 0 -169 -68t-70 -172z" />
    <glyph glyph-name="Oogonek.small" unicode="&#xe0f7;" horiz-adv-x="678" 
d="M61 269q0 118 81.5 196t196.5 78q116 0 197 -78t81 -196q0 -83 -37 -147t-102 -99q-27 -15 -44.5 -26.5t-39 -30t-32.5 -39.5t-11 -45q0 -26 16.5 -41t43.5 -15q31 0 57 14l2 -1v-32q-28 -14 -60 -14q-41 0 -67 21.5t-26 61.5q0 64 72 118q-27 -5 -51 -5q-117 0 -197 77
t-80 203zM100 269q0 -111 69 -178.5t170 -67.5t170 67.5t69 178.5q0 104 -69.5 172t-169.5 68q-99 0 -169 -68t-70 -172z" />
    <glyph glyph-name="Oogonekmacron.small" unicode="&#xe0f8;" horiz-adv-x="678" 
d="M61 269q0 118 81.5 196t196.5 78q116 0 197 -78t81 -196q0 -83 -37 -147t-102 -99q-27 -15 -44.5 -26.5t-39 -30t-32.5 -39.5t-11 -45q0 -26 16.5 -41t43.5 -15q31 0 57 14l2 -1v-32q-28 -14 -60 -14q-41 0 -67 21.5t-26 61.5q0 64 72 118q-27 -5 -51 -5q-117 0 -197 77
t-80 203zM100 269q0 -111 69 -178.5t170 -67.5t170 67.5t69 178.5q0 104 -69.5 172t-169.5 68q-99 0 -169 -68t-70 -172zM202 647v33h273v-33h-273z" />
    <glyph glyph-name="Ounderlineaccent.small" unicode="&#xe0f9;" horiz-adv-x="678" 
d="M320 -201v147h37v-147h-37zM61 269q0 118 81.5 196t196.5 78q116 0 197 -78t81 -196q0 -126 -80.5 -203t-197.5 -77t-197.5 77t-80.5 203zM100 269q0 -111 69 -178.5t170 -67.5t170 67.5t69 178.5q0 104 -69.5 172t-169.5 68q-99 0 -169 -68t-70 -172z" />
    <glyph glyph-name="Oslash.small" unicode="&#xe0fa;" horiz-adv-x="682" 
d="M61 269q0 118 81.5 196t196.5 78q85 0 154 -44l60 80l25 -19l-60 -80q99 -81 99 -211q0 -126 -80.5 -203t-197.5 -77q-87 0 -155 43l-64 -86l-25 19l64 85q-98 80 -98 219zM578 269q0 114 -82 183l-291 -390q59 -39 134 -39q101 0 170 67.5t69 178.5zM100 269
q0 -121 82 -190l290 391q-59 39 -133 39q-99 0 -169 -68t-70 -172z" />
    <glyph glyph-name="Oslashacute.small" unicode="&#xe0fb;" horiz-adv-x="682" 
d="M61 269q0 118 81.5 196t196.5 78q84 0 155 -45l61 81l24 -19l-59 -81q97 -81 97 -210q0 -126 -80.5 -203t-197.5 -77q-88 0 -154 42l-64 -85l-24 19l63 84q-99 81 -99 220zM100 269q0 -121 83 -191l290 391q-61 40 -134 40q-99 0 -169 -68t-70 -172zM578 269
q0 111 -81 182l-291 -390q58 -38 133 -38q101 0 170 67.5t69 178.5zM312 586l139 165l30 -24l-140 -141h-29z" />
    <glyph glyph-name="barredO.small" unicode="&#xe0fc;" horiz-adv-x="678" 
d="M61 269q0 118 81.5 196t196.5 78q116 0 197 -78t81 -196q0 -126 -80.5 -203t-197.5 -77t-197.5 77t-80.5 203zM339 509q-97 0 -166 -64.5t-73 -164.5h478q-4 100 -73 164.5t-166 64.5zM339 23q97 0 164.5 62t73.5 166h-477q6 -104 74 -166t165 -62z" />
    <glyph glyph-name="OE.small" unicode="&#xe0fd;" horiz-adv-x="1040" 
d="M60 271q0 118 81.5 195t198.5 77q80 0 145 -40.5t96 -108.5v137h391v-36h-352v-208h317v-35h-317v-217h357v-35h-396v140q-31 -71 -95 -111.5t-146 -40.5q-121 0 -200.5 78.5t-79.5 204.5zM99 271q0 -110 68.5 -179t172.5 -69q103 0 172 68t69 180q0 105 -69.5 170.5
t-171.5 65.5q-101 0 -171 -66.5t-70 -169.5z" />
    <glyph glyph-name="Pmacron.small" unicode="&#xe0fe;" horiz-adv-x="578" 
d="M131 251h189q77 0 114.5 37t37.5 87q0 51 -36.5 86.5t-114.5 35.5h-190v-246zM92 0v531h230q97 0 143 -46t46 -110q0 -63 -47 -110t-144 -47h-189v-218h-39zM151 647v33h273v-33h-273z" />
    <glyph glyph-name="Racute.small" unicode="&#xe0ff;" horiz-adv-x="585" 
d="M92 0v531h236q97 0 143 -46t46 -110q0 -52 -34 -95t-102 -56l132 -224h-43l-128 219h-16h-195v-219h-39zM131 252h194q78 0 115.5 36.5t37.5 86.5q0 51 -36.5 86.5t-114.5 35.5h-196v-245zM263 586l139 165l30 -24l-140 -141h-29z" />
    <glyph glyph-name="Rcaron.small" unicode="&#xe100;" horiz-adv-x="585" 
d="M92 0v531h236q97 0 143 -46t46 -110q0 -52 -34 -95t-102 -56l132 -224h-43l-128 219h-16h-195v-219h-39zM131 252h194q78 0 115.5 36.5t37.5 86.5q0 51 -36.5 86.5t-114.5 35.5h-196v-245zM267 586l-128 156h31l119 -126h1l120 126h30l-127 -156h-46z" />
    <glyph glyph-name="Rinvertedbreve.small" unicode="&#xe101;" horiz-adv-x="585" 
d="M92 0v531h236q97 0 143 -46t46 -110q0 -52 -34 -95t-102 -56l132 -224h-43l-128 219h-211v-219h-39zM131 252h194q78 0 115.5 36.5t37.5 86.5q0 51 -36.5 86.5t-114.5 35.5h-196v-245zM288 743q63 0 104 -42.5t47 -114.5h-31q-6 57 -38 91t-82 34q-49 0 -81.5 -34
t-38.5 -91h-30q6 73 46.5 115t103.5 42z" />
    <glyph glyph-name="Rdoublegrave.small" unicode="&#xe102;" horiz-adv-x="585" 
d="M92 0v531h236q97 0 143 -46t46 -110q0 -52 -34 -95t-102 -56l132 -224h-43l-128 219h-16h-195v-219h-39zM131 252h194q78 0 115.5 36.5t37.5 86.5q0 51 -36.5 86.5t-114.5 35.5h-196v-245zM110 751l137 -165h-29l-139 141zM241 751l137 -165h-29l-139 141z" />
    <glyph glyph-name="Rcommaaccent.small" unicode="&#xe103;" horiz-adv-x="585" 
d="M92 0v531h236q97 0 143 -46t46 -110q0 -52 -34 -95t-102 -56l132 -224h-43l-128 219h-16h-195v-219h-39zM131 252h194q78 0 115.5 36.5t37.5 86.5q0 51 -36.5 86.5t-114.5 35.5h-196v-245zM238 -56q16 4 30 4q35 0 52.5 -17.5t17.5 -46.5q1 -45 -56 -95h-31q54 52 54 92
q0 38 -42 38q-10 0 -25 -3v28z" />
    <glyph glyph-name="Rcedilla.small" unicode="&#xe104;" horiz-adv-x="585" 
d="M92 0v531h236q97 0 143 -46t46 -110q0 -52 -34 -95t-102 -56l132 -224h-43l-128 219h-16h-195v-219h-39zM131 252h194q78 0 115.5 36.5t37.5 86.5q0 51 -36.5 86.5t-114.5 35.5h-196v-245zM274 -50h32q-27 -93 -106 -162l-35 17q80 69 109 145z" />
    <glyph glyph-name="Rdotbelow.small" unicode="&#xe105;" horiz-adv-x="585" 
d="M92 0v531h236q97 0 143 -46t46 -110q0 -52 -34 -95t-102 -56l132 -224h-43l-128 219h-16h-195v-219h-39zM131 252h194q78 0 115.5 36.5t37.5 86.5q0 51 -36.5 86.5t-114.5 35.5h-196v-245zM266 -172v56h47v-56h-47z" />
    <glyph glyph-name="Rdotbelowmacron.small" unicode="&#xe106;" horiz-adv-x="585" 
d="M92 0v531h236q97 0 143 -46t46 -110q0 -52 -34 -95t-102 -56l132 -224h-43l-128 219h-16h-195v-219h-39zM131 252h194q78 0 115.5 36.5t37.5 86.5q0 51 -36.5 86.5t-114.5 35.5h-196v-245zM152 647v33h273v-33h-273zM266 -172v56h47v-56h-47z" />
    <glyph glyph-name="Sacute.small" unicode="&#xe107;" horiz-adv-x="512" 
d="M229 586l139 165l30 -24l-140 -141h-29zM52 40l19 29q75 -47 186 -47q81 0 122 30t41 80q0 49 -37 75.5t-89.5 36.5t-105 22t-89.5 45t-37 91q0 62 51.5 101.5t140.5 39.5q101 0 182 -36l-16 -31q-72 33 -166 33q-72 0 -113 -29.5t-41 -76.5q0 -36 19.5 -59t51.5 -34.5
t70 -19.5t76 -17.5t70 -24t51.5 -44t19.5 -72.5q0 -65 -51.5 -104.5t-149.5 -39.5q-121 0 -205 52z" />
    <glyph glyph-name="Scircumflex.small" unicode="&#xe108;" horiz-adv-x="512" 
d="M105 586l128 156h46l127 -156h-30l-120 127h-1l-119 -127h-31zM52 40l19 29q75 -47 186 -47q81 0 122 30t41 80q0 49 -37 75.5t-89.5 36.5t-105 22t-89.5 45t-37 91q0 62 51.5 101.5t140.5 39.5q101 0 182 -36l-16 -31q-72 33 -166 33q-72 0 -113 -29.5t-41 -76.5
q0 -36 19.5 -59t51.5 -34.5t70 -19.5t76 -17.5t70 -24t51.5 -44t19.5 -72.5q0 -65 -51.5 -104.5t-149.5 -39.5q-121 0 -205 52z" />
    <glyph glyph-name="Scaron.small" unicode="&#xe109;" horiz-adv-x="512" 
d="M234 586l-128 156h31l119 -126h1l120 126h30l-127 -156h-46zM52 40l19 29q75 -47 186 -47q81 0 122 30t41 80q0 49 -37 75.5t-89.5 36.5t-105 22t-89.5 45t-37 91q0 62 51.5 101.5t140.5 39.5q101 0 182 -36l-16 -31q-72 33 -166 33q-72 0 -113 -29.5t-41 -76.5
q0 -36 19.5 -59t51.5 -34.5t70 -19.5t76 -17.5t70 -24t51.5 -44t19.5 -72.5q0 -65 -51.5 -104.5t-149.5 -39.5q-121 0 -205 52z" />
    <glyph glyph-name="Scommaaccent.small" unicode="&#xe10a;" horiz-adv-x="512" 
d="M204 -56q16 4 30 4q35 0 52.5 -17.5t17.5 -46.5q1 -45 -56 -95h-31q54 52 54 92q0 38 -42 38q-10 0 -25 -3v28zM52 40l19 29q75 -47 186 -47q81 0 122 30t41 80q0 49 -37 75.5t-89.5 36.5t-105 22t-89.5 45t-37 91q0 62 51.5 101.5t140.5 39.5q101 0 182 -36l-16 -31
q-72 33 -166 33q-72 0 -113 -29.5t-41 -76.5q0 -36 19.5 -59t51.5 -34.5t70 -19.5t76 -17.5t70 -24t51.5 -44t19.5 -72.5q0 -65 -51.5 -104.5t-149.5 -39.5q-121 0 -205 52z" />
    <glyph glyph-name="Scedilla.small" unicode="&#xe10b;" horiz-adv-x="512" 
d="M116 -195q98 82 121 184q-111 4 -185 51l19 29q75 -47 186 -47q81 0 122 30t41 80q0 49 -37 75.5t-89.5 36.5t-105 22t-89.5 45t-37 91q0 62 51.5 101.5t140.5 39.5q101 0 182 -36l-16 -31q-72 33 -166 33q-72 0 -113 -29.5t-41 -76.5q0 -36 19.5 -59t51.5 -34.5
t70 -19.5t76 -17.5t70 -24t51.5 -44t19.5 -72.5q0 -63 -49 -102.5t-143 -41.5q-19 -112 -115 -200z" />
    </font>
</defs>
</svg>
