<?xml version="1.0" standalone="no"?>
<!DOCTYPE svg PUBLIC "-//W3C//DTD SVG 1.1//EN" "http://www.w3.org/Graphics/SVG/1.1/DTD/svg11.dtd" >
<svg xmlns="http://www.w3.org/2000/svg" xmlns:xlink="http://www.w3.org/1999/xlink" version="1.1">
<metadata>
Created by FontForge 20170731 at Wed Dec  2 20:28:09 2009
 By Aleksey,,,
Copyright (c) 2009 by Jackson Cavanaugh / Okay Type &#38; Design, LLC. All rights reserved.
</metadata>
<defs>
<font id="AlrightSans-Bold" horiz-adv-x="900" >
  <font-face 
    font-family="Alright Sans Bold"
    font-weight="400"
    font-stretch="normal"
    units-per-em="1000"
    panose-1="0 0 5 0 0 0 0 0 0 0"
    ascent="760"
    descent="-240"
    x-height="537"
    cap-height="700"
    bbox="-125 -364 1340 1051"
    underline-thickness="50"
    underline-position="-200"
    unicode-range="U+0020-FB06"
  />
<missing-glyph 
d="M200 -237v992h500v-992h-500zM301 -164h298l-149 330zM599 683h-298l149 -335zM399 259l-126 284v-567zM501 259l126 -282v565z" />
    <glyph glyph-name="f_f_j" unicode="ffj" horiz-adv-x="1010" 
d="M449 0v426h-201v-426h-147v426h-85v102h85v22q0 206 225 206q98 0 181 -47q60 54 185 54q130 0 239 -63l-53 -95q-88 48 -173 48q-59 0 -84 -25t-25 -80v-20h134v-102h-134v-426h-147zM800 -13v542h147v-534q0 -205 -187 -205q-52 0 -108 20l31 108q30 -10 56 -10
q31 0 46 18t15 61zM248 553v-25h201v23q0 43 8 72q-50 26 -114 26q-95 0 -95 -96z" />
    <glyph glyph-name="f_f_f" unicode="fff" horiz-adv-x="1110" 
d="M449 0v426h-201v-426h-147v426h-85v102h85v22q0 206 225 206q96 0 182 -47q58 51 164 51q98 0 184 -48q56 52 160 52q58 0 123 -24l-36 -100q-41 13 -78 13q-82 0 -82 -95v-30h135v-102h-135v-426h-146v426h-201v-426h-147zM596 528h201v22q0 43 9 76q-52 26 -116 26
q-94 0 -94 -99v-25zM248 553v-25h201v22q0 38 8 72q-49 27 -114 27q-95 0 -95 -96z" />
    <glyph glyph-name="f_k" unicode="fk" horiz-adv-x="1004" 
d="M101 0v426h-85v102h85v23q0 106 66.5 159.5t190.5 53.5q252 0 252 -217v-245l195 235h154l-154 -177l187 -360h-167l-116 251l-99 -114v-137h-147v549q0 53 -25 78.5t-82 25.5t-82.5 -25.5t-25.5 -78.5v-21h137v-102h-137v-426h-147z" />
    <glyph glyph-name="f_j" unicode="fj" horiz-adv-x="662" 
d="M101 0v426h-85v102h85v23q0 109 60.5 160.5t182.5 51.5q131 0 240 -63l-53 -95q-90 48 -174 48q-59 0 -84 -25t-25 -80v-20h135v-102h-135v-426h-147zM453 -13v542h147v-534q0 -205 -188 -205q-50 0 -108 20l31 108q32 -10 56 -10q31 0 46.5 18t15.5 61z" />
    <glyph glyph-name="f_b" unicode="fb" horiz-adv-x="1010" 
d="M101 0v426h-85v102h85v23q0 106 66.5 159.5t190.5 53.5q252 0 252 -217v-70q63 72 154 72q96 0 152 -70.5t56 -203.5q0 -137 -56.5 -212t-149.5 -75q-94 0 -164 75l-10 -63h-129v549q0 53 -25 78.5t-82 25.5t-82.5 -25.5t-25.5 -78.5v-21h137v-102h-137v-426h-147z
M610 153q47 -53 111 -53q51 0 77.5 46.5t26.5 127.5q0 163 -104 163q-63 0 -111 -56v-228z" />
    <glyph glyph-name="f_f_b" unicode="ffb" horiz-adv-x="1356" 
d="M449 0v426h-201v-426h-147v426h-85v102h85v22q0 206 225 206q100 0 185 -49q66 57 194 57q252 0 252 -217v-70q64 72 154 72q96 0 152 -70.5t56 -203.5q0 -137 -56 -212t-149 -75t-165 75l-9 -63h-130v549q0 53 -25 78.5t-82 25.5t-82 -25.5t-25 -78.5v-21h136v-102h-136
v-426h-147zM957 153q49 -53 111 -53q51 0 78 46.5t27 127.5q0 163 -105 163q-61 0 -111 -56v-228zM248 553v-25h201v23q0 38 9 71q-50 27 -115 27q-95 0 -95 -96z" />
    <glyph glyph-name="f_f_h" unicode="ffh" horiz-adv-x="1347" 
d="M449 0v426h-201v-426h-147v426h-85v102h85v22q0 206 225 206q100 0 185 -49q66 57 194 57q252 0 252 -217v-72q71 75 161 75q171 0 171 -195v-355h-146v359q0 81 -71 81q-66 0 -115 -63v-377h-147v549q0 53 -25 78.5t-82 25.5t-82 -25.5t-25 -78.5v-21h136v-102h-136
v-426h-147zM248 553v-25h201v23q0 38 9 71q-50 27 -115 27q-95 0 -95 -96z" />
    <glyph glyph-name="f_f_k" unicode="ffk" horiz-adv-x="1351" 
d="M449 0v426h-201v-426h-147v426h-85v102h85v22q0 206 225 206q100 0 185 -49q66 57 194 57q252 0 252 -217v-245l196 235h154l-154 -176l187 -361h-167l-117 250l-99 -113v-137h-147v549q0 53 -25 78.5t-82 25.5t-82 -25.5t-25 -78.5v-21h136v-102h-136v-426h-147z
M248 553v-25h201v23q0 38 9 71q-50 27 -115 27q-95 0 -95 -96z" />
    <glyph glyph-name="f_h" unicode="fh" horiz-adv-x="1000" 
d="M101 0v426h-85v102h85v23q0 106 66.5 159.5t190.5 53.5q252 0 252 -217v-72q73 75 160 75q171 0 171 -195v-355h-146v359q0 81 -70 81q-66 0 -115 -63v-377h-147v549q0 53 -25 78.5t-82 25.5t-82.5 -25.5t-25.5 -78.5v-21h137v-102h-137v-426h-147z" />
    <glyph glyph-name="f_f" unicode="ff" horiz-adv-x="763" 
d="M449 0v426h-201v-426h-147v426h-85v102h85v22q0 206 225 206q96 0 180 -46q55 54 163 54q58 0 123 -24l-36 -100q-43 13 -79 13q-81 0 -81 -95v-30h135v-102h-135v-426h-147zM248 528h201v22q0 44 8 73q-50 26 -114 26q-95 0 -95 -96v-25z" />
    <glyph glyph-name="f_i" unicode="fi" horiz-adv-x="662" 
d="M101 0v426h-85v102h85v23q0 109 60.5 160.5t182.5 51.5q131 0 240 -63l-53 -95q-90 48 -174 48q-59 0 -84 -25t-25 -80v-20h135v-102h-135v-426h-147zM453 0v529h147v-529h-147z" />
    <glyph glyph-name="f_l" unicode="fl" horiz-adv-x="672" 
d="M101 0v426h-85v102h85v23q0 106 66.5 159.5t190.5 53.5q252 0 252 -217v-547h-147v549q0 53 -25 78.5t-82 25.5t-82.5 -25.5t-25.5 -78.5v-21h137v-102h-137v-426h-147z" />
    <glyph glyph-name="f_f_i" unicode="ffi" horiz-adv-x="1010" 
d="M449 0v426h-201v-426h-147v426h-85v102h85v22q0 206 225 206q98 0 181 -47q60 54 185 54q130 0 239 -63l-53 -95q-88 48 -173 48q-59 0 -84 -25t-25 -80v-20h134v-102h-134v-426h-147zM800 0v529h147v-529h-147zM248 528h201v23q0 43 8 72q-50 26 -114 26q-95 0 -95 -96
v-25z" />
    <glyph glyph-name="f_f_l" unicode="ffl" horiz-adv-x="1020" 
d="M449 0v426h-201v-426h-147v426h-85v102h85v22q0 206 225 206q100 0 185 -49q66 57 194 57q252 0 252 -217v-547h-147v549q0 53 -25 78.5t-82 25.5t-82 -25.5t-25 -78.5v-21h136v-102h-136v-426h-147zM248 553v-25h201v23q0 38 9 71q-50 27 -115 27q-95 0 -95 -96z" />
    <glyph glyph-name=".notdef" 
d="M200 -237v992h500v-992h-500zM301 -164h298l-149 330zM599 683h-298l149 -335zM399 259l-126 284v-567zM501 259l126 -282v565z" />
    <glyph glyph-name=".null" horiz-adv-x="0" 
 />
    <glyph glyph-name="nonmarkingreturn" horiz-adv-x="333" 
 />
    <glyph glyph-name="space" unicode=" " horiz-adv-x="239" 
 />
    <glyph glyph-name="exclam" unicode="!" horiz-adv-x="278" 
d="M101 217l-37 348v135h149v-135l-37 -348h-75zM64 0v131h150v-131h-150z" />
    <glyph glyph-name="quotedbl" unicode="&#x22;" horiz-adv-x="454" 
d="M43 403v297h152l-69 -297h-83zM262 403v297h152l-69 -297h-83z" />
    <glyph glyph-name="numbersign" unicode="#" horiz-adv-x="679" 
d="M61 341v101h130l20 122h114l-21 -122h121l20 122h112l-20 -122h112v-101h-128l-19 -118h116v-100h-132l-20 -123h-114l20 123h-121l-20 -123h-112l20 123h-110v100h126l19 118h-113zM287 341l-19 -118h121l19 118h-121z" />
    <glyph glyph-name="dollar" unicode="$" horiz-adv-x="570" 
d="M41 53l65 102q79 -48 160 -54v130l-43.5 10.5t-41.5 12t-41.5 16.5t-34.5 21.5t-30 28.5t-17.5 36.5t-7.5 46.5q0 71 55 118t153 54v86h69v-87q96 -6 180 -46l-55 -103q-67 31 -134 39v-125q37 -9 59.5 -15t55 -20.5t51 -31.5t32 -45.5t13.5 -65.5q0 -70 -51.5 -117
t-150.5 -55v-122h-69v121q-123 8 -217 65zM395 157q0 38 -77 61v-117q77 8 77 56zM187 411q0 -39 79 -60v114q-79 -6 -79 -54z" />
    <glyph glyph-name="percent" unicode="%" horiz-adv-x="810" 
d="M574 564h94l-433 -564h-94zM41 422q0 66 47 109t117 43t116.5 -43t46.5 -109q0 -69 -46 -112t-117 -43t-117.5 43t-46.5 112zM134 422q0 -35 19.5 -57t51.5 -22q33 0 52 22t19 57q0 33 -19.5 54t-51.5 21q-31 0 -51 -21.5t-20 -53.5zM442 146q0 66 47 109t117 43
t116.5 -43t46.5 -109q0 -69 -46 -112t-117 -43q-72 0 -118 43t-46 112zM534 146q0 -35 19.5 -57t52.5 -22q32 0 51.5 22t19.5 57q0 33 -20 54.5t-51 21.5q-32 0 -52 -21.5t-20 -54.5z" />
    <glyph glyph-name="ampersand" unicode="&#x26;" horiz-adv-x="750" 
d="M36 198q0 125 137 203q-47 64 -47 132q0 76 59 127.5t149 51.5q117 0 204 -94l-91 -78q-56 58 -111 58q-33 0 -52.5 -19.5t-19.5 -47.5q0 -47 60 -109q83 -82 193 -169q25 59 25 127h129q0 -109 -53 -203q78 -56 119 -84l-79 -100q-87 60 -120 85q-103 -90 -246 -90
q-116 0 -186 61.5t-70 148.5zM440 152q-115 91 -199 173q-70 -43 -70 -114q0 -47 35.5 -76t95.5 -29q78 0 138 46z" />
    <glyph glyph-name="quotesingle" unicode="'" horiz-adv-x="233" 
d="M43 403v297h152l-69 -297h-83z" />
    <glyph glyph-name="parenleft" unicode="(" horiz-adv-x="411" 
d="M53 277q0 269 170 478h158q-187 -205 -187 -478q0 -272 187 -477h-157q-171 208 -171 477z" />
    <glyph glyph-name="parenright" unicode=")" horiz-adv-x="411" 
d="M358 277q0 -269 -171 -477h-157q187 205 187 477q0 273 -187 478h158q170 -209 170 -478z" />
    <glyph glyph-name="asterisk" unicode="*" horiz-adv-x="423" 
d="M107 411l54 108l-2 1l-117 -15l2 100l118 -17l2 2l-47 108l87 24l24 -114l3 -1l89 72l55 -78l-103 -48v-4l99 -61l-60 -73l-84 83l-3 -1l-33 -117z" />
    <glyph glyph-name="plus" unicode="+" horiz-adv-x="615" 
d="M38 209v121h203v208h134v-208h202v-121h-202v-209h-134v209h-203z" />
    <glyph glyph-name="comma" unicode="," horiz-adv-x="246" 
d="M47 0v153h152v-117q0 -77 -31 -120.5t-98 -65.5l-30 56q73 27 73 94h-66z" />
    <glyph glyph-name="hyphen" unicode="-" horiz-adv-x="385" 
d="M37 208v123h311v-123h-311z" />
    <glyph glyph-name="period" unicode="." horiz-adv-x="245" 
d="M47 0v153h152v-153h-152z" />
    <glyph glyph-name="slash" unicode="/" horiz-adv-x="556" 
d="M-12 -200l440 955h140l-440 -955h-140z" />
    <glyph glyph-name="zero" unicode="0" horiz-adv-x="680" 
d="M46 283q0 132 85 212.5t209 80.5t209 -80.5t85 -212.5q0 -134 -84.5 -214.5t-209.5 -80.5t-209.5 80.5t-84.5 214.5zM199 283q0 -77 38.5 -125t102.5 -48q63 0 102 48t39 125q0 76 -39 123.5t-102 47.5t-102 -47.5t-39 -123.5z" />
    <glyph glyph-name="one" unicode="1" horiz-adv-x="399" 
d="M316 0h-152v424l-105 -39l-48 107l196 79h109v-571z" />
    <glyph glyph-name="two" unicode="2" horiz-adv-x="614" 
d="M561 0h-500l-1 27q-2 57 16.5 102.5t50 74t70.5 50.5t78 37.5t71.5 29.5t53 32t20.5 40q0 29 -26 47.5t-73 18.5q-99 0 -197 -73l-69 101q123 89 267 89q117 0 182.5 -48.5t65.5 -128.5q0 -45 -23 -80t-58.5 -56t-78 -40.5t-80.5 -33t-68.5 -32.5t-39.5 -40h339v-117z
" />
    <glyph glyph-name="three" unicode="3" horiz-adv-x="614" 
d="M36 -90l55 108q95 -49 183 -49q73 0 117 29t44 78q0 91 -140 91h-102v111h97q122 0 122 93q0 38 -32.5 63t-90.5 25q-82 0 -172 -63l-69 99q125 82 253 82q118 0 190 -52.5t72 -138.5q0 -102 -101 -151q125 -51 125 -167q0 -103 -89 -160t-220 -57q-122 0 -242 59z" />
    <glyph glyph-name="four" unicode="4" horiz-adv-x="665" 
d="M84 1l-47 110l363 453h146v-450h90v-113h-90v-137h-144v137h-318zM181 114h221v289z" />
    <glyph glyph-name="five" unicode="5" horiz-adv-x="602" 
d="M37 -89l58 112q84 -49 179 -49q64 0 103.5 32.5t39.5 86.5q0 48 -33 78t-87 30q-55 0 -126 -28l-87 52l15 339h425v-112h-290l-7 -163q58 24 124 24q90 0 153.5 -58.5t63.5 -157.5q0 -114 -86.5 -180t-211.5 -66q-121 0 -233 60z" />
    <glyph glyph-name="six" unicode="6" horiz-adv-x="639" 
d="M46 331q0 98 27.5 173.5t74 119.5t104 66t122.5 22q99 0 194 -50l-58 -101q-68 34 -137 34q-74 0 -120.5 -52t-53.5 -148q74 60 173 60q101 0 162.5 -59.5t61.5 -165.5q0 -101 -74 -171.5t-195 -70.5q-140 0 -210.5 95.5t-70.5 247.5zM200 291q7 -188 131 -188
q52 0 84.5 36t32.5 90q0 56 -28.5 89t-80.5 33q-77 0 -139 -60z" />
    <glyph glyph-name="seven" unicode="7" horiz-adv-x="577" 
d="M117 -136l268 578h-347v122h502v-107l-263 -593h-160z" />
    <glyph glyph-name="eight" unicode="8" horiz-adv-x="676" 
d="M46 187q0 62 42 108.5t108 69.5q-52 20 -87 61t-35 92q0 90 74 142t191 52q116 0 189.5 -52t73.5 -142q0 -51 -35 -92t-87 -61q66 -23 108.5 -69.5t42.5 -108.5q0 -94 -81 -146.5t-211 -52.5q-131 0 -212 52.5t-81 146.5zM196 194q0 -44 40 -70.5t103 -26.5
q62 0 101.5 26.5t39.5 70.5t-40 74.5t-101 38.5q-62 -8 -102.5 -38.5t-40.5 -74.5zM339 417q52 5 82 32t30 68q0 38 -32 62t-80 24q-50 0 -82 -24t-32 -62q0 -41 30.5 -68t83.5 -32z" />
    <glyph glyph-name="nine" unicode="9" horiz-adv-x="640" 
d="M65 -92l63 100q60 -40 140 -40q74 0 119.5 51.5t52.5 147.5q-76 -60 -169 -60q-103 0 -166.5 60.5t-63.5 165.5q0 102 73.5 172t194.5 70q142 0 213.5 -96t71.5 -247q0 -98 -27 -173.5t-74 -120t-104 -66.5t-122 -22q-105 0 -202 58zM304 213q77 0 135 58
q-3 89 -36.5 139t-96.5 50q-53 0 -85 -36t-32 -90t31 -87.5t84 -33.5z" />
    <glyph glyph-name="colon" unicode=":" horiz-adv-x="245" 
d="M47 0v153h152v-153h-152zM47 385v153h152v-153h-152z" />
    <glyph glyph-name="semicolon" unicode=";" horiz-adv-x="246" 
d="M47 0v153h152v-117q0 -77 -31 -120.5t-98 -65.5l-30 56q73 27 73 94h-66zM47 385v153h152v-153h-152z" />
    <glyph glyph-name="less" unicode="&#x3c;" horiz-adv-x="602" 
d="M552 145v-145l-516 205v130l516 203v-147l-343 -122z" />
    <glyph glyph-name="equal" unicode="=" horiz-adv-x="615" 
d="M38 332v121h539v-121h-539zM38 85v121h539v-121h-539z" />
    <glyph glyph-name="greater" unicode="&#x3e;" horiz-adv-x="602" 
d="M50 0v145l343 124l-343 122v147l516 -203v-130z" />
    <glyph glyph-name="question" unicode="?" horiz-adv-x="561" 
d="M196 217q-4 18 -4 40q0 46 18.5 79.5t45 53t53 36t45 38.5t18.5 51q0 35 -28 56.5t-71 21.5q-80 0 -152 -69l-87 81q104 107 242 107q109 0 175 -50t66 -137q0 -42 -15.5 -75.5t-38.5 -53.5t-49.5 -40t-50 -35t-39.5 -37t-17 -48l-2 -19h-109zM176 0v131h150v-131h-150z
" />
    <glyph glyph-name="at" unicode="@" horiz-adv-x="825" 
d="M61 284q0 150 106 256.5t256 106.5q146 0 244 -94.5t98 -234.5q0 -110 -63 -172.5t-139 -62.5q-89 0 -113 67q-46 -53 -108 -53q-50 0 -84.5 37t-34.5 100q0 56 21 109.5t66 92t105 38.5q58 0 90 -47l18 37h87l-67 -237q-11 -41 -0.5 -61.5t40.5 -20.5q47 0 85 47t38 126
q0 115 -81 192t-201 77q-125 0 -214 -89t-89 -214t89 -213.5t214 -88.5q92 0 169 52l34 -49q-93 -63 -204 -63q-150 0 -256 106t-106 256zM325 240q0 -65 49 -65q25 0 46 18.5t30 53.5l34 122q-20 24 -55 24q-45 0 -74.5 -49.5t-29.5 -103.5z" />
    <glyph glyph-name="A" unicode="A" horiz-adv-x="713" 
d="M17 0l253 700h172l253 -700h-162l-44 131h-266l-43 -131h-163zM354 532l-93 -284h189l-94 284h-2z" />
    <glyph glyph-name="B" unicode="B" horiz-adv-x="677" 
d="M68 0v700h294q122 0 184.5 -51.5t62.5 -136.5q0 -104 -105 -149q131 -43 131 -163q0 -95 -69.5 -147.5t-189.5 -52.5h-308zM218 121h155q52 0 81.5 23.5t29.5 68.5q0 43 -30 66t-81 23h-155v-181zM218 408h132q52 0 79.5 23.5t27.5 63.5q0 38 -27.5 61t-79.5 23h-132
v-171z" />
    <glyph glyph-name="C" unicode="C" horiz-adv-x="705" 
d="M41 354q0 156 102.5 257t262.5 101q142 0 254 -89l-82 -104q-82 65 -169 65q-97 0 -156 -63t-59 -167q0 -108 58 -173t157 -65q98 0 173 73l90 -96q-112 -105 -271 -105q-160 0 -260 102.5t-100 263.5z" />
    <glyph glyph-name="D" unicode="D" horiz-adv-x="723" 
d="M68 0v700h230q186 0 285.5 -91t99.5 -256q0 -170 -97 -261.5t-288 -91.5h-230zM219 123h90q108 0 164.5 60.5t56.5 168.5q0 104 -58 164.5t-163 60.5h-90v-454z" />
    <glyph glyph-name="E" unicode="E" horiz-adv-x="634" 
d="M68 0v700h510v-132h-359v-154h320v-117h-320v-165h363v-132h-514z" />
    <glyph glyph-name="F" unicode="F" horiz-adv-x="620" 
d="M68 0v700h502v-132h-350v-164h302v-124h-302v-280h-152z" />
    <glyph glyph-name="G" unicode="G" horiz-adv-x="732" 
d="M41 354q0 155 100.5 256.5t264.5 101.5q141 0 258 -86l-79 -102q-85 60 -175 60q-97 0 -156 -64.5t-59 -165.5q0 -110 57 -174t158 -64q71 0 122 30v140h-158v103h296v-320q-111 -81 -265 -81q-165 0 -264.5 101.5t-99.5 264.5z" />
    <glyph glyph-name="H" unicode="H" horiz-adv-x="712" 
d="M68 0v700h152v-280h273v280h151v-700h-151v290h-273v-290h-152z" />
    <glyph glyph-name="I" unicode="I" horiz-adv-x="287" 
d="M68 0v700h152v-700h-152z" />
    <glyph glyph-name="J" unicode="J" horiz-adv-x="572" 
d="M32 126l114 74q44 -79 114 -79q46 0 71 29.5t25 83.5v466h151v-469q0 -118 -63.5 -180.5t-175.5 -62.5q-154 0 -236 138z" />
    <glyph glyph-name="K" unicode="K" horiz-adv-x="692" 
d="M68 0v700h152v-327l266 327h167l-219 -261l241 -439h-171l-167 323l-117 -140v-183h-152z" />
    <glyph glyph-name="L" unicode="L" horiz-adv-x="602" 
d="M68 0v700h152v-569h348v-131h-500z" />
    <glyph glyph-name="M" unicode="M" horiz-adv-x="861" 
d="M68 0v700h152l211 -299l212 299h150v-700h-144v484l-219 -302l-218 302v-484h-144z" />
    <glyph glyph-name="N" unicode="N" horiz-adv-x="736" 
d="M68 0v700h144l312 -461v461h143v-700h-143l-312 459v-459h-144z" />
    <glyph glyph-name="O" unicode="O" horiz-adv-x="808" 
d="M41 352q0 158 102 259t261 101q160 0 261.5 -101t101.5 -259q0 -159 -102 -261.5t-261 -102.5t-261 102.5t-102 261.5zM195 352q0 -106 58.5 -171t150.5 -65q93 0 151.5 65t58.5 171q0 105 -58.5 169t-151.5 64t-151 -64.5t-58 -168.5z" />
    <glyph glyph-name="P" unicode="P" horiz-adv-x="677" 
d="M68 0v700h293q72 0 126.5 -18.5t84.5 -51t44.5 -70.5t14.5 -82q0 -94 -65.5 -159t-203.5 -65h-142v-254h-152zM220 372h140q59 0 89.5 28.5t30.5 75.5t-30.5 75t-88.5 28h-141v-207z" />
    <glyph glyph-name="Q" unicode="Q" horiz-adv-x="813" 
d="M41 352q0 158 102 259t261 101q160 0 261.5 -101t101.5 -259q0 -133 -73 -228l79 -67l-76 -81l-82 73q-91 -61 -211 -61q-159 0 -261 102.5t-102 261.5zM402 239l70 78l110 -99q32 58 32 134q0 105 -58.5 169t-151.5 64t-151 -64.5t-58 -168.5q0 -106 58.5 -171
t150.5 -65q61 0 108 29z" />
    <glyph glyph-name="R" unicode="R" horiz-adv-x="700" 
d="M68 0v700h308q139 0 204 -63.5t65 -158.5q0 -64 -32.5 -115t-95.5 -78l134 -285h-163l-108 261h-160v-261h-152zM220 372h154q58 0 88.5 29t30.5 75q0 47 -30.5 75t-87.5 28h-155v-207z" />
    <glyph glyph-name="S" unicode="S" horiz-adv-x="631" 
d="M38 65l72 118q106 -63 206 -63q55 0 84.5 20.5t29.5 55.5q0 26 -21 44t-54 28.5t-73.5 20t-81 24.5t-73.5 36.5t-54 61t-21 93.5q0 89 69.5 148.5t187.5 59.5q128 0 252 -59l-56 -119q-92 46 -189 46q-49 0 -78 -21t-29 -53q0 -26 21 -43.5t54 -27.5t73.5 -19t81 -24
t73.5 -37t54 -62t21 -95q0 -93 -70 -151.5t-200 -58.5q-75 0 -150.5 22t-128.5 55z" />
    <glyph glyph-name="T" unicode="T" horiz-adv-x="665" 
d="M257 0v566h-231v134h614v-134h-232v-566h-151z" />
    <glyph glyph-name="U" unicode="U" horiz-adv-x="721" 
d="M65 266v434h153v-434q0 -70 39 -109.5t104 -39.5q64 0 103.5 39.5t39.5 109.5v434h152v-434q0 -136 -80.5 -207t-214.5 -71t-215 71t-81 207z" />
    <glyph glyph-name="V" unicode="V" horiz-adv-x="708" 
d="M268 0l-251 700h164l172 -524h2l173 524h164l-253 -700h-171z" />
    <glyph glyph-name="W" unicode="W" horiz-adv-x="1071" 
d="M242 0l-220 700h158l146 -484h2l139 484h138l139 -484h2l146 484h158l-221 -700h-155l-137 475h-2l-138 -475h-155z" />
    <glyph glyph-name="X" unicode="X" horiz-adv-x="721" 
d="M25 0l239 357l-231 343h183l147 -225l147 225h179l-232 -343l240 -357h-182l-156 239l-155 -239h-179z" />
    <glyph glyph-name="Y" unicode="Y" horiz-adv-x="703" 
d="M275 0v281l-262 419h175l163 -270h2l164 270h173l-262 -419v-281h-153z" />
    <glyph glyph-name="Z" unicode="Z" horiz-adv-x="651" 
d="M46 0v113l354 452h-354v135h553v-113l-353 -451h366v-136h-566z" />
    <glyph glyph-name="bracketleft" unicode="[" horiz-adv-x="435" 
d="M223 -96h156v-104h-303v955h303v-103h-156v-748z" />
    <glyph glyph-name="backslash" unicode="\" horiz-adv-x="556" 
d="M128 755l440 -955h-140l-440 955h140z" />
    <glyph glyph-name="bracketright" unicode="]" horiz-adv-x="435" 
d="M56 -96h156v748h-156v103h303v-955h-303v104z" />
    <glyph glyph-name="asciicircum" unicode="^" horiz-adv-x="594" 
d="M85 562l142 186h140l142 -186h-120l-91 87l-94 -87h-119z" />
    <glyph glyph-name="underscore" unicode="_" horiz-adv-x="555" 
d="M0 -13h555v-124h-555v124z" />
    <glyph glyph-name="grave" unicode="`" horiz-adv-x="588" 
d="M316 592l-134 121l99 65l127 -186h-92z" />
    <glyph glyph-name="a" unicode="a" horiz-adv-x="566" 
d="M39 130q0 170 310 192v47q0 64 -74 64q-62 0 -171 -53l-52 108q122 61 229 61q214 0 214 -185v-224q0 -42 44 -42v-101q-76 0 -113.5 14t-59.5 52q-70 -75 -167 -75q-71 0 -115.5 39.5t-44.5 102.5zM185 147q0 -24 17 -39t45 -15q62 0 102 45v103q-164 -10 -164 -94z" />
    <glyph glyph-name="b" unicode="b" horiz-adv-x="609" 
d="M63 0v755h147v-278q65 72 154 72q96 0 152 -70.5t56 -203.5q0 -138 -56.5 -212.5t-149.5 -74.5q-92 0 -164 75l-9 -63h-130zM210 153q49 -53 110 -53q52 0 78.5 46.5t26.5 127.5q0 163 -105 163q-60 0 -110 -56v-228z" />
    <glyph glyph-name="c" unicode="c" horiz-adv-x="527" 
d="M36 272q0 127 76.5 202t196.5 75q105 0 190 -66l-74 -95q-54 42 -112 42q-56 0 -92.5 -42t-36.5 -116q0 -78 36.5 -122t92.5 -44q59 0 113 44l80 -85q-87 -77 -197 -77q-120 0 -196.5 76.5t-76.5 207.5z" />
    <glyph glyph-name="d" unicode="d" horiz-adv-x="608" 
d="M243 -12q-93 0 -149.5 74.5t-56.5 212.5q0 133 56.5 203.5t152.5 70.5q89 0 154 -72v278h147v-755h-130l-9 63q-72 -75 -165 -75zM289 100q64 0 111 53v228q-50 56 -111 56q-105 0 -105 -163q0 -81 26.5 -127.5t78.5 -46.5z" />
    <glyph glyph-name="e" unicode="e" horiz-adv-x="584" 
d="M37 272q0 126 77 202t192 76q113 0 176 -67t63 -178q0 -38 -5 -65h-354q12 -136 132 -136q75 0 149 46l61 -93q-100 -70 -221 -70t-195.5 76t-74.5 209zM310 444q-46 0 -78.5 -31.5t-42.5 -88.5h217q0 120 -96 120z" />
    <glyph glyph-name="f" unicode="f" horiz-adv-x="416" 
d="M101 0v426h-85v103h85v27q0 208 221 208q59 0 122 -24l-35 -100q-45 13 -79 13q-82 0 -82 -95v-30h135v-102h-135v-426h-147z" />
    <glyph glyph-name="g" unicode="g" horiz-adv-x="595" 
d="M16 -69q0 70 78 111q-33 30 -33 72q0 55 57 89q-78 55 -78 150q0 87 66 141.5t166 54.5q90 0 153 -46q59 46 151 46v-97q-61 0 -96 -10q22 -41 22 -89q0 -90 -68.5 -143t-161.5 -53q-41 0 -82 11q-21 -9 -21 -30q0 -20 31 -28.5t115 -11.5q122 -5 184 -41t62 -110
q0 -75 -68.5 -116t-205.5 -41q-129 0 -200 36t-71 105zM272 254q41 0 66.5 27t25.5 72t-25.5 72.5t-66.5 27.5t-66.5 -27.5t-25.5 -72.5t25.5 -72t66.5 -27zM297 -18q-60 1 -107 14q-37 -22 -37 -59q0 -29 30.5 -42.5t99.5 -13.5q143 0 143 50q0 27 -27 37.5t-102 13.5z" />
    <glyph glyph-name="h" unicode="h" horiz-adv-x="599" 
d="M63 0v755h147v-280q72 74 161 74q171 0 171 -194v-355h-147v359q0 81 -70 81q-65 0 -115 -63v-377h-147z" />
    <glyph glyph-name="i" unicode="i" horiz-adv-x="272" 
d="M63 0v529h147v-529h-147zM63 624v126h147v-126h-147z" />
    <glyph glyph-name="j" unicode="j" horiz-adv-x="284" 
d="M74 -13v542h147v-534q0 -205 -187 -205q-52 0 -108 20l31 108q30 -10 56 -10q31 0 46 18t15 61zM74 623v127h147v-127h-147z" />
    <glyph glyph-name="k" unicode="k" horiz-adv-x="585" 
d="M63 0v755h147v-453l196 235h154l-166 -190l179 -347h-166l-110 236l-87 -99v-137h-147z" />
    <glyph glyph-name="l" unicode="l" horiz-adv-x="274" 
d="M64 0v755h147v-755h-147z" />
    <glyph glyph-name="m" unicode="m" horiz-adv-x="906" 
d="M61 0v537h139l6 -58q75 71 158 71q103 0 142 -79q82 79 176 79q82 0 124 -50.5t42 -141.5v-358h-146v361q0 78 -65 78q-58 0 -110 -57q2 -24 2 -35v-347h-147v361q0 78 -65 78t-110 -61v-378h-146z" />
    <glyph glyph-name="n" unicode="n" horiz-adv-x="597" 
d="M61 0v537h138l7 -62q71 75 163 75q171 0 171 -195v-355h-147v359q0 81 -70 81q-66 0 -116 -63v-377h-146z" />
    <glyph glyph-name="o" unicode="o" horiz-adv-x="614" 
d="M37 274q0 123 76.5 199t194.5 76q116 0 192 -76t76 -199q0 -132 -73.5 -209t-194.5 -77q-123 0 -197 77t-74 209zM185 273q0 -81 32.5 -128t90.5 -47q56 0 88 47.5t32 127.5q0 74 -33 119.5t-87 45.5q-55 0 -89 -45.5t-34 -119.5z" />
    <glyph glyph-name="p" unicode="p" horiz-adv-x="607" 
d="M207 57v-257h-145v737h132l11 -65q67 77 157 77q96 0 152 -70.5t56 -203.5q0 -138 -56 -212.5t-149 -74.5q-89 0 -158 69zM207 153q49 -53 111 -53q52 0 79 46.5t27 127.5q0 163 -106 163q-61 0 -111 -56v-228z" />
    <glyph glyph-name="q" unicode="q" horiz-adv-x="608" 
d="M289 100q63 0 112 53v228q-51 56 -112 56q-105 0 -105 -163q0 -81 27 -127.5t78 -46.5zM243 -12q-93 0 -149.5 74.5t-56.5 212.5q0 133 56.5 203.5t152.5 70.5q90 0 157 -77l11 65h133v-737h-146v257q-69 -69 -158 -69z" />
    <glyph glyph-name="r" unicode="r" horiz-adv-x="443" 
d="M61 0v537h135l10 -83q56 98 153 98q38 0 66 -11l-21 -134q-33 12 -72 12q-74 0 -125 -96v-323h-146z" />
    <glyph glyph-name="s" unicode="s" horiz-adv-x="509" 
d="M31 46l56 102q88 -49 166 -49q80 0 80 51q0 24 -30 39t-72.5 25t-85 25t-72.5 51t-30 92q0 78 61.5 122.5t151.5 44.5q98 0 200 -47l-52 -102q-78 38 -146 38q-72 0 -72 -50q0 -20 21.5 -33.5t53.5 -20t69 -18.5t69 -27t53.5 -48.5t21.5 -81.5q0 -81 -60.5 -126
t-158.5 -45q-117 0 -224 58z" />
    <glyph glyph-name="t" unicode="t" horiz-adv-x="437" 
d="M101 163v270h-85v104h85v134h147v-134h147v-104h-147v-267q0 -60 49 -60q39 0 73 24l54 -88q-69 -54 -157 -54q-84 0 -125 42.5t-41 132.5z" />
    <glyph glyph-name="u" unicode="u" horiz-adv-x="598" 
d="M58 182v355h147v-358q0 -81 69 -81q64 0 117 61v378h147v-537h-136l-9 62q-72 -74 -164 -74q-171 0 -171 194z" />
    <glyph glyph-name="v" unicode="v" horiz-adv-x="542" 
d="M192 0l-178 537h145l114 -378h2l114 378h139l-179 -537h-157z" />
    <glyph glyph-name="w" unicode="w" horiz-adv-x="845" 
d="M189 0l-175 537h143l108 -348h2l97 348h118l98 -348h2l107 348h141l-175 -537h-133l-99 330h-2l-99 -330h-133z" />
    <glyph glyph-name="x" unicode="x" horiz-adv-x="547" 
d="M18 0l170 272l-166 265h153l99 -167l98 167h153l-165 -265l168 -272h-149l-106 173l-106 -173h-149z" />
    <glyph glyph-name="y" unicode="y" horiz-adv-x="556" 
d="M49 -76q47 -17 73 -17q28 0 44.5 12t26.5 42l17 45l-195 531h147l118 -354h2l117 354h142l-200 -567q-37 -103 -85.5 -141.5t-124.5 -38.5q-60 0 -122 20z" />
    <glyph glyph-name="z" unicode="z" horiz-adv-x="522" 
d="M42 0v96l255 329h-248v112h427v-98l-252 -328h262v-111h-444z" />
    <glyph glyph-name="braceleft" unicode="{" horiz-adv-x="495" 
d="M376 -96h64v-104h-74q-209 0 -209 172v165q0 40 -16 57t-57 17h-54v129h54q41 0 57 16t16 57v170q0 172 209 172h74v-104h-64q-40 0 -56 -16t-16 -54v-163q0 -112 -103 -142v-1q103 -34 103 -143v-159q0 -38 16 -53.5t56 -15.5z" />
    <glyph glyph-name="bar" unicode="|" horiz-adv-x="321" 
d="M93 -200v955h135v-955h-135z" />
    <glyph glyph-name="braceright" unicode="}" horiz-adv-x="495" 
d="M55 -96h64q40 0 56 15.5t16 53.5v159q0 109 103 143v1q-103 30 -103 142v163q0 38 -16 54t-56 16h-64v104h74q209 0 209 -172v-170q0 -41 16 -57t57 -16h54v-129h-54q-41 0 -57 -17t-16 -57v-165q0 -172 -209 -172h-74v104z" />
    <glyph glyph-name="asciitilde" unicode="~" horiz-adv-x="576" 
d="M65 190q-1 9 -1 25q0 71 34 115t96 44q36 0 69 -19t61.5 -37.5t52.5 -18.5q42 0 40 59h94q1 -8 1 -24q0 -72 -33.5 -115.5t-96.5 -43.5q-36 0 -69 18.5t-61 37.5t-51 19q-44 0 -41 -60h-95z" />
    <glyph glyph-name="nbspace" unicode="&#xa0;" horiz-adv-x="239" 
 />
    <glyph glyph-name="exclamdown" unicode="&#xa1;" horiz-adv-x="277" 
d="M64 -27l37 348h75l37 -348v-135h-149v135zM64 407v131h150v-131h-150z" />
    <glyph glyph-name="cent" unicode="&#xa2;" horiz-adv-x="627" 
d="M44 286q0 124 86 207t226 83h14l21 87h76l-24 -97q73 -18 131 -64l-72 -96q-47 36 -94 49l-85 -350q16 -3 35 -3q81 0 146 63l84 -84q-99 -94 -232 -94q-25 0 -49 3l-30 -123h-74l34 139q-91 31 -142 106.5t-51 173.5zM184 286q0 -55 23.5 -97.5t64.5 -65.5l80 338
q-73 -2 -120.5 -50.5t-47.5 -124.5z" />
    <glyph glyph-name="sterling" unicode="&#xa3;" horiz-adv-x="634" 
d="M73 255v80h84q-28 49 -28 96q0 63 52.5 104.5t143.5 41.5q140 0 204 -104l-105 -49q-35 50 -90 50q-31 0 -48.5 -13.5t-17.5 -37.5q0 -32 37 -90h139v-77h-93q17 -39 17 -77q0 -40 -15 -71q45 -21 86 -21q35 0 49 23t6 63h121q19 -85 -18.5 -135t-119.5 -50
q-85 0 -173 56q-65 -56 -155 -56q-52 0 -85 29t-33 74q0 44 32 72.5t80 28.5q42 0 100 -27q-3 46 -31 90h-139zM147 51q49 0 79 47q-48 31 -79 31q-20 0 -32.5 -10t-12.5 -28t12 -29t33 -11z" />
    <glyph glyph-name="currency" unicode="&#xa4;" horiz-adv-x="683" 
d="M65 275q0 90 53 164l-57 60l61 57l54 -59q74 56 166 56q91 0 165 -55l55 58l61 -57l-58 -59q55 -74 55 -165t-54 -164l57 -60l-61 -55l-54 57q-74 -55 -166 -55q-94 0 -166 55l-54 -57l-61 55l57 61q-53 72 -53 163zM197 275q0 -60 42.5 -102t103.5 -42q60 0 102.5 42
t42.5 102q0 61 -42.5 103.5t-102.5 42.5q-61 0 -103.5 -42.5t-42.5 -103.5z" />
    <glyph glyph-name="yen" unicode="&#xa5;" horiz-adv-x="616" 
d="M67 209v76h166l-216 279h172l118 -159h1l118 159h172l-216 -279h165v-76h-165v-52h165v-75h-165v-82h-149v82h-166v75h166v52h-166z" />
    <glyph glyph-name="brokenbar" unicode="&#xa6;" horiz-adv-x="321" 
d="M93 181h135v-381h-135v381zM93 357v398h135v-398h-135z" />
    <glyph glyph-name="section" unicode="&#xa7;" horiz-adv-x="551" 
d="M494 206q0 -57 -58 -101q46 -36 46 -99q0 -73 -58.5 -114t-163.5 -41q-52 0 -105 19t-92 51l83 79q53 -45 120 -45q79 0 79 48q0 23 -29.5 38.5t-72 27t-85 26.5t-72 47t-29.5 80q0 57 57 101q-45 37 -45 99q0 73 58.5 114t163.5 41q52 0 105 -18.5t91 -51.5l-83 -79
q-51 45 -120 45q-78 0 -78 -48q0 -23 29.5 -38.5t72 -26.5t85 -26.5t72 -47.5t29.5 -80zM369 186q0 17 -9 30.5t-29 23t-37 15t-48.5 14t-47.5 13.5q-17 -21 -17 -40q0 -15 7.5 -27t18 -19.5t29.5 -15t34 -12t40.5 -11t40.5 -11.5q18 20 18 40z" />
    <glyph glyph-name="dieresis" unicode="&#xa8;" horiz-adv-x="616" 
d="M365 615v114h115v-114h-115zM136 615v114h117v-114h-117z" />
    <glyph glyph-name="copyright" unicode="&#xa9;" horiz-adv-x="834" 
d="M219 283q0 83 57.5 140t148.5 57q86 0 152 -54l-60 -72q-47 37 -88 37q-44 0 -73.5 -30.5t-29.5 -77.5q0 -49 28.5 -78t73.5 -29q52 0 91 38l64 -65q-66 -63 -159 -63t-149 55t-56 142zM55 284q0 150 106 256.5t256 106.5t256.5 -106.5t106.5 -256.5t-106.5 -256
t-256.5 -106t-256 106t-106 256zM116 284q0 -125 88.5 -213.5t213.5 -88.5q124 0 213 89t89 213q0 125 -88.5 214t-213.5 89t-213.5 -89t-88.5 -214z" />
    <glyph glyph-name="ordfeminine" unicode="&#xaa;" horiz-adv-x="392" 
d="M30 426q0 116 213 131v30q0 41 -52 41q-46 0 -118 -36l-34 75q79 41 155 41q73 0 108.5 -33t35.5 -91v-150q0 -28 31 -28v-69q-51 0 -75.5 8.5t-39.5 32.5q-46 -48 -112 -48q-49 0 -80.5 26.5t-31.5 69.5zM126 438q0 -16 12 -26t31 -10q43 0 74 29v68q-117 -4 -117 -61z
" />
    <glyph glyph-name="guillemotleft" unicode="&#xab;" horiz-adv-x="653" 
d="M179 271l156 -200l-96 -71l-200 271l200 267l96 -72zM449 271l156 -200l-96 -71l-200 271l200 267l96 -72z" />
    <glyph glyph-name="logicalnot" unicode="&#xac;" horiz-adv-x="655" 
d="M55 448v116h545v-302h-152v186h-393z" />
    <glyph glyph-name="registered" unicode="&#xae;" horiz-adv-x="834" 
d="M262 98v376h190q73 0 110 -37t37 -89q0 -76 -67 -107q6 -10 35 -71t36 -72h-111l-57 131h-68v-131h-105zM367 301h70q30 0 43.5 14t13.5 33q0 20 -13.5 34.5t-43.5 14.5h-70v-96zM55 284q0 150 106 256.5t256 106.5t256.5 -106.5t106.5 -256.5t-106.5 -256t-256.5 -106
t-256 106t-106 256zM116 284q0 -125 88.5 -213.5t213.5 -88.5q124 0 213 89t89 213q0 125 -88.5 214t-213.5 89t-213.5 -89t-88.5 -214z" />
    <glyph glyph-name="macron" unicode="&#xaf;" horiz-adv-x="609" 
d="M150 627v90h328v-90h-328z" />
    <glyph glyph-name="degree" unicode="&#xb0;" horiz-adv-x="408" 
d="M204 380q-72 0 -122 45.5t-50 120.5q0 73 50.5 120t121.5 47q70 0 120.5 -47t50.5 -120q0 -75 -49.5 -120.5t-121.5 -45.5zM204 462q35 0 59.5 23.5t24.5 60.5t-24.5 60.5t-59.5 23.5q-33 0 -58.5 -24t-25.5 -60q0 -37 25 -60.5t59 -23.5z" />
    <glyph glyph-name="plusminus" unicode="&#xb1;" horiz-adv-x="615" 
d="M38 0v91h203v152h-203v121h203v174h134v-174h202v-121h-202v-152h202v-91h-539z" />
    <glyph glyph-name="two.sups" unicode="&#xb2;" horiz-adv-x="348" 
d="M42 500l-1 41q-1 43 18 75t46 49.5t54.5 31t47 28.5t19.5 33q0 16 -14 25.5t-39 9.5q-48 0 -92 -42l-53 56q71 61 153 61q65 0 101.5 -31t36.5 -78q0 -40 -28 -69t-61.5 -42.5t-62.5 -33t-31 -42.5h178v-72h-272z" />
    <glyph glyph-name="three.sups" unicode="&#xb3;" horiz-adv-x="339" 
d="M25 526l33 68q49 -28 95 -28q31 0 50.5 13t19.5 31q0 42 -62 42h-55v67h51q55 0 55 39q0 16 -13 26.5t-36 10.5q-43 0 -89 -33l-41 59q66 47 136 47q59 0 96.5 -27t37.5 -70q0 -52 -44 -80q56 -26 56 -82t-46 -86t-112 -30t-132 33z" />
    <glyph glyph-name="acute" unicode="&#xb4;" horiz-adv-x="588" 
d="M181 592l128 186l98 -65l-134 -121h-92z" />
    <glyph glyph-name="mu" unicode="&#xb5;" horiz-adv-x="598" 
d="M196 18l-9 -218h-132v764h149v-390q3 -74 70 -74t119 60v404h150v-564h-140l-6 52q-53 -60 -118 -60q-54 0 -83 26z" />
    <glyph glyph-name="paragraph" unicode="&#xb6;" horiz-adv-x="748" 
d="M327 0v272h-26q-122 0 -185 65t-63 149q0 89 61 151.5t185 62.5h375v-700h-129v600h-89v-600h-129z" />
    <glyph glyph-name="periodcentered" unicode="&#xb7;" horiz-adv-x="245" 
d="M47 193v153h152v-153h-152z" />
    <glyph glyph-name="cedilla" unicode="&#xb8;" horiz-adv-x="588" 
d="M193 -172q113 88 126 186h84q-7 -143 -110 -236z" />
    <glyph glyph-name="one.sups" unicode="&#xb9;" horiz-adv-x="306" 
d="M135 500v274l-68 -34l-33 64l125 58h67v-362h-91z" />
    <glyph glyph-name="ordmasculine" unicode="&#xba;" horiz-adv-x="426" 
d="M25 523q0 82 52.5 133.5t132.5 51.5t132 -51.5t52 -133.5q0 -89 -50.5 -141t-133.5 -52q-84 0 -134.5 52t-50.5 141zM121 522q0 -54 23.5 -85t65.5 -31q40 0 63 31t23 85q0 49 -23.5 79.5t-62.5 30.5q-40 0 -64.5 -30.5t-24.5 -79.5z" />
    <glyph glyph-name="guillemotright" unicode="&#xbb;" horiz-adv-x="653" 
d="M48 71l156 200l-156 195l96 72l200 -267l-200 -271zM319 71l156 200l-156 195l96 72l200 -267l-200 -271z" />
    <glyph glyph-name="onequarter" unicode="&#xbc;" horiz-adv-x="793" 
d="M510 67l-28 67l176 227h91v-227h42v-67h-42v-67h-87v67h-152zM567 134h95v131zM98 0l593 700h94l-592 -700h-95zM157 350v274l-68 -34l-33 64l125 58h67v-362h-91z" />
    <glyph glyph-name="onehalf" unicode="&#xbd;" horiz-adv-x="857" 
d="M578 0l-1 41q-1 43 18 75t46 49.5t54.5 31t47 28.5t19.5 33q0 16 -14 25.5t-39 9.5q-48 0 -92 -42l-53 56q71 61 153 61q65 0 101.5 -31t36.5 -78q0 -40 -28 -69t-61.5 -42.5t-62.5 -33t-31 -42.5h178v-72h-272zM97 0l593 700h94l-592 -700h-95zM157 350v274l-68 -34
l-33 64l125 58h67v-362h-91z" />
    <glyph glyph-name="threequarters" unicode="&#xbe;" horiz-adv-x="769" 
d="M27 376l33 68q49 -28 95 -28q31 0 50.5 13t19.5 31q0 42 -62 42h-55v67h51q55 0 55 39q0 16 -13 26.5t-36 10.5q-43 0 -89 -33l-41 59q66 47 136 47q59 0 96.5 -27t37.5 -70q0 -52 -44 -80q56 -26 56 -82t-46 -86t-112 -30t-132 33zM491 67l-28 67l176 227h91v-227h42
v-67h-42v-67h-87v67h-152zM548 134h95v131zM76 0l593 700h94l-592 -700h-95z" />
    <glyph glyph-name="questiondown" unicode="&#xbf;" horiz-adv-x="551" 
d="M374 321q4 -18 4 -40q0 -46 -18.5 -79.5t-45 -53t-53 -36t-45 -38.5t-18.5 -51q0 -35 28 -56.5t71 -21.5q80 0 152 69l87 -81q-104 -107 -242 -107q-109 0 -175 50t-66 137q0 42 15.5 75.5t38.5 53.5t49.5 40t50 35t39.5 37t17 48l2 19h109zM394 538v-131h-150v131h150z
" />
    <glyph glyph-name="Agrave" unicode="&#xc0;" horiz-adv-x="713" 
d="M17 0l253 700h172l253 -700h-162l-44 131h-266l-43 -131h-163zM354 532l-93 -284h189l-94 284h-2zM317 755l-119 83l114 67l112 -150h-107z" />
    <glyph glyph-name="Aacute" unicode="&#xc1;" horiz-adv-x="713" 
d="M17 0l253 700h172l253 -700h-162l-44 131h-266l-43 -131h-163zM354 532l-93 -284h189l-94 284h-2zM289 755l111 150l115 -67l-120 -83h-106z" />
    <glyph glyph-name="Acircumflex" unicode="&#xc2;" horiz-adv-x="713" 
d="M17 0l253 700h172l253 -700h-162l-44 131h-266l-43 -131h-163zM354 532l-93 -284h189l-94 284h-2zM168 755l117 133h142l117 -133h-99l-88 65h-1l-89 -65h-99z" />
    <glyph glyph-name="Atilde" unicode="&#xc3;" horiz-adv-x="713" 
d="M17 0l253 700h172l253 -700h-162l-44 131h-266l-43 -131h-163zM354 532l-93 -284h189l-94 284h-2zM180 756q-7 65 22.5 102.5t84.5 37.5q36 0 75.5 -26t55.5 -26q37 0 32 43h82q7 -65 -23 -103t-85 -38q-36 0 -75 26t-56 26q-37 0 -31 -42h-82z" />
    <glyph glyph-name="Adieresis" unicode="&#xc4;" horiz-adv-x="713" 
d="M17 0l253 700h172l253 -700h-162l-44 131h-266l-43 -131h-163zM354 532l-93 -284h189l-94 284h-2zM416 764v115h116v-115h-116zM181 764v115h116v-115h-116z" />
    <glyph glyph-name="Aring" unicode="&#xc5;" horiz-adv-x="713" 
d="M17 0l248 686q-29 32 -29 76q0 50 35 83t85 33q51 0 85.5 -33t34.5 -83q0 -45 -29 -77l248 -685h-162l-44 131h-266l-43 -131h-163zM354 532l-93 -284h189l-94 284h-2zM294 762q0 -25 16.5 -42.5t40.5 -19.5h10q24 2 40.5 19.5t16.5 42.5q0 27 -18 45t-44 18t-44 -18
t-18 -45z" />
    <glyph glyph-name="AE" unicode="&#xc6;" horiz-adv-x="1059" 
d="M12 0l315 700h676v-132h-436l42 -152h355v-121h-321l45 -163h320v-132h-446l-34 131h-289l-55 -131h-172zM419 557l-128 -304h206z" />
    <glyph glyph-name="Ccedilla" unicode="&#xc7;" horiz-adv-x="705" 
d="M212 -172q99 79 122 166q-133 21 -213 119.5t-80 240.5q0 156 102.5 257t262.5 101q142 0 254 -89l-82 -104q-82 65 -169 65q-97 0 -156 -63t-59 -167q0 -108 58 -173t157 -65q98 0 173 73l90 -96q-106 -98 -252 -104q-15 -126 -108 -211z" />
    <glyph glyph-name="Egrave" unicode="&#xc8;" horiz-adv-x="634" 
d="M286 755l-119 83l114 67l112 -150h-107zM68 0v700h510v-132h-359v-154h320v-117h-320v-165h363v-132h-514z" />
    <glyph glyph-name="Eacute" unicode="&#xc9;" horiz-adv-x="634" 
d="M258 755l111 150l115 -67l-120 -83h-106zM68 0v700h510v-132h-359v-154h320v-117h-320v-165h363v-132h-514z" />
    <glyph glyph-name="Ecircumflex" unicode="&#xca;" horiz-adv-x="634" 
d="M68 0v700h510v-132h-359v-154h320v-117h-320v-165h363v-132h-514zM138 755l117 133h142l117 -133h-99l-88 65h-1l-89 -65h-99z" />
    <glyph glyph-name="Edieresis" unicode="&#xcb;" horiz-adv-x="634" 
d="M386 764v115h116v-115h-116zM151 764v115h116v-115h-116zM68 0v700h510v-132h-359v-154h320v-117h-320v-165h363v-132h-514z" />
    <glyph glyph-name="Igrave" unicode="&#xcc;" horiz-adv-x="287" 
d="M68 0v700h152v-700h-152zM105 755l-119 83l114 67l112 -150h-107z" />
    <glyph glyph-name="Iacute" unicode="&#xcd;" horiz-adv-x="287" 
d="M68 0v700h152v-700h-152zM77 755l111 150l115 -67l-120 -83h-106z" />
    <glyph glyph-name="Icircumflex" unicode="&#xce;" horiz-adv-x="287" 
d="M68 0v700h152v-700h-152zM-44 755l117 133h142l117 -133h-99l-88 65h-1l-89 -65h-99z" />
    <glyph glyph-name="Idieresis" unicode="&#xcf;" horiz-adv-x="287" 
d="M68 0v700h152v-700h-152zM204 764v115h116v-115h-116zM-31 764v115h116v-115h-116z" />
    <glyph glyph-name="Eth" unicode="&#xd0;" horiz-adv-x="763" 
d="M14 309v87h94v304h230q186 0 285.5 -91t99.5 -256q0 -170 -97 -261.5t-288 -91.5h-230v309h-94zM259 123h90q108 0 164.5 60.5t56.5 168.5q0 104 -58 164.5t-163 60.5h-90v-181h157v-87h-157v-186z" />
    <glyph glyph-name="Ntilde" unicode="&#xd1;" horiz-adv-x="736" 
d="M192 756q-7 65 22.5 102.5t84.5 37.5q36 0 75.5 -26t55.5 -26q37 0 32 43h82q7 -65 -23 -103t-85 -38q-36 0 -75 26t-56 26q-37 0 -31 -42h-82zM68 0v700h144l312 -461v461h143v-700h-143l-312 459v-459h-144z" />
    <glyph glyph-name="Ograve" unicode="&#xd2;" horiz-adv-x="808" 
d="M366 755l-119 83l114 67l112 -150h-107zM41 352q0 158 102 259t261 101q160 0 261.5 -101t101.5 -259q0 -159 -102 -261.5t-261 -102.5t-261 102.5t-102 261.5zM195 352q0 -106 58.5 -171t150.5 -65q93 0 151.5 65t58.5 171q0 105 -58.5 169t-151.5 64t-151 -64.5
t-58 -168.5z" />
    <glyph glyph-name="Oacute" unicode="&#xd3;" horiz-adv-x="808" 
d="M337 755l111 150l115 -67l-120 -83h-106zM41 352q0 158 102 259t261 101q160 0 261.5 -101t101.5 -259q0 -159 -102 -261.5t-261 -102.5t-261 102.5t-102 261.5zM195 352q0 -106 58.5 -171t150.5 -65q93 0 151.5 65t58.5 171q0 105 -58.5 169t-151.5 64t-151 -64.5
t-58 -168.5z" />
    <glyph glyph-name="Ocircumflex" unicode="&#xd4;" horiz-adv-x="808" 
d="M41 352q0 158 102 259t261 101q160 0 261.5 -101t101.5 -259q0 -159 -102 -261.5t-261 -102.5t-261 102.5t-102 261.5zM195 352q0 -106 58.5 -171t150.5 -65q93 0 151.5 65t58.5 171q0 105 -58.5 169t-151.5 64t-151 -64.5t-58 -168.5zM216 755l117 133h142l117 -133h-99
l-88 65h-1l-89 -65h-99z" />
    <glyph glyph-name="Otilde" unicode="&#xd5;" horiz-adv-x="808" 
d="M228 756q-7 65 22.5 102.5t84.5 37.5q36 0 75.5 -26t55.5 -26q37 0 32 43h82q7 -65 -23 -103t-85 -38q-36 0 -75 26t-56 26q-37 0 -31 -42h-82zM41 352q0 158 102 259t261 101q160 0 261.5 -101t101.5 -259q0 -159 -102 -261.5t-261 -102.5t-261 102.5t-102 261.5z
M195 352q0 -106 58.5 -171t150.5 -65q93 0 151.5 65t58.5 171q0 105 -58.5 169t-151.5 64t-151 -64.5t-58 -168.5z" />
    <glyph glyph-name="Odieresis" unicode="&#xd6;" horiz-adv-x="808" 
d="M464 764v115h116v-115h-116zM229 764v115h116v-115h-116zM41 352q0 158 102 259t261 101q160 0 261.5 -101t101.5 -259q0 -159 -102 -261.5t-261 -102.5t-261 102.5t-102 261.5zM195 352q0 -106 58.5 -171t150.5 -65q93 0 151.5 65t58.5 171q0 105 -58.5 169t-151.5 64
t-151 -64.5t-58 -168.5z" />
    <glyph glyph-name="multiply" unicode="&#xd7;" horiz-adv-x="593" 
d="M58 111l152 159l-152 157l87 86l152 -159l152 159l87 -86l-152 -157l152 -159l-87 -85l-152 159l-152 -159z" />
    <glyph glyph-name="Oslash" unicode="&#xd8;" horiz-adv-x="808" 
d="M41 352q0 158 102 259t261 101q112 0 198 -53l61 77l62 -50l-61 -74q103 -101 103 -260t-102 -261.5t-261 -102.5q-110 0 -198 52l-62 -76l-61 48l62 76q-104 101 -104 264zM614 352q0 89 -45 152l-282 -353q50 -35 117 -35q93 0 151.5 65t58.5 171zM195 352
q0 -93 44 -154l282 353q-51 34 -117 34q-93 0 -151 -64.5t-58 -168.5z" />
    <glyph glyph-name="Ugrave" unicode="&#xd9;" horiz-adv-x="721" 
d="M321 755l-119 83l114 67l112 -150h-107zM65 266v434h153v-434q0 -70 39 -109.5t104 -39.5q64 0 103.5 39.5t39.5 109.5v434h152v-434q0 -136 -80.5 -207t-214.5 -71t-215 71t-81 207z" />
    <glyph glyph-name="Uacute" unicode="&#xda;" horiz-adv-x="721" 
d="M293 755l111 150l115 -67l-120 -83h-106zM65 266v434h153v-434q0 -70 39 -109.5t104 -39.5q64 0 103.5 39.5t39.5 109.5v434h152v-434q0 -136 -80.5 -207t-214.5 -71t-215 71t-81 207z" />
    <glyph glyph-name="Ucircumflex" unicode="&#xdb;" horiz-adv-x="721" 
d="M65 266v434h153v-434q0 -70 39 -109.5t104 -39.5q64 0 103.5 39.5t39.5 109.5v434h152v-434q0 -136 -80.5 -207t-214.5 -71t-215 71t-81 207zM173 755l117 133h142l117 -133h-99l-88 65h-1l-89 -65h-99z" />
    <glyph glyph-name="Udieresis" unicode="&#xdc;" horiz-adv-x="721" 
d="M421 764v115h116v-115h-116zM186 764v115h116v-115h-116zM65 266v434h153v-434q0 -70 39 -109.5t104 -39.5q64 0 103.5 39.5t39.5 109.5v434h152v-434q0 -136 -80.5 -207t-214.5 -71t-215 71t-81 207z" />
    <glyph glyph-name="Yacute" unicode="&#xdd;" horiz-adv-x="703" 
d="M275 0v281l-262 419h175l163 -270h2l164 270h173l-262 -419v-281h-153zM285 755l111 150l115 -67l-120 -83h-106z" />
    <glyph glyph-name="Thorn" unicode="&#xde;" horiz-adv-x="673" 
d="M68 0v700h152v-114h116q146 0 218 -63t72 -168q0 -108 -71 -172t-218 -64h-117v-119h-152zM220 238h116q67 0 103 30t36 87q0 54 -37 83t-102 29h-116v-229z" />
    <glyph glyph-name="germandbls" unicode="&#xdf;" horiz-adv-x="666" 
d="M60 0v532q0 110 73 171t188 61q114 0 187.5 -59t73.5 -154q0 -111 -113 -160v-1q72 -17 115.5 -64.5t43.5 -120.5q0 -100 -68 -157.5t-167 -57.5q-65 0 -121 18l22 113q43 -13 75 -13q49 0 80.5 27.5t31.5 78.5q0 54 -36 81.5t-97 27.5h-41v117h20q49 0 79 28.5t30 75.5
q0 50 -31 80t-85 30q-53 0 -83 -31t-30 -89v-534h-147z" />
    <glyph glyph-name="agrave" unicode="&#xe0;" horiz-adv-x="566" 
d="M39 130q0 170 310 192v47q0 64 -74 64q-62 0 -171 -53l-52 108q122 61 229 61q214 0 214 -185v-224q0 -42 44 -42v-101q-76 0 -113.5 14t-59.5 52q-70 -75 -167 -75q-71 0 -115.5 39.5t-44.5 102.5zM185 147q0 -24 17 -39t45 -15q62 0 102 45v103q-164 -10 -164 -94z
M265 592l-134 121l99 65l127 -186h-92z" />
    <glyph glyph-name="aacute" unicode="&#xe1;" horiz-adv-x="566" 
d="M39 130q0 170 310 192v47q0 64 -74 64q-62 0 -171 -53l-52 108q122 61 229 61q214 0 214 -185v-224q0 -42 44 -42v-101q-76 0 -113.5 14t-59.5 52q-70 -75 -167 -75q-71 0 -115.5 39.5t-44.5 102.5zM185 147q0 -24 17 -39t45 -15q62 0 102 45v103q-164 -10 -164 -94z
M215 592l128 186l98 -65l-134 -121h-92z" />
    <glyph glyph-name="acircumflex" unicode="&#xe2;" horiz-adv-x="566" 
d="M39 130q0 170 310 192v47q0 64 -74 64q-62 0 -171 -53l-52 108q122 61 229 61q214 0 214 -185v-224q0 -42 44 -42v-101q-76 0 -113.5 14t-59.5 52q-70 -75 -167 -75q-71 0 -115.5 39.5t-44.5 102.5zM185 147q0 -24 17 -39t45 -15q62 0 102 45v103q-164 -10 -164 -94z
M89 592l117 160h161l117 -160h-108l-88 90h-3l-89 -90h-107z" />
    <glyph glyph-name="atilde" unicode="&#xe3;" horiz-adv-x="566" 
d="M39 130q0 170 310 192v47q0 64 -74 64q-62 0 -171 -53l-52 108q122 61 229 61q214 0 214 -185v-224q0 -42 44 -42v-101q-76 0 -113.5 14t-59.5 52q-70 -75 -167 -75q-71 0 -115.5 39.5t-44.5 102.5zM185 147q0 -24 17 -39t45 -15q62 0 102 45v103q-164 -10 -164 -94z
M112 604q-7 67 23 105t85 38q35 0 73.5 -26.5t54.5 -26.5q37 0 31 46h82q7 -67 -22.5 -105t-84.5 -38q-34 0 -73 26t-55 26q-36 0 -32 -45h-82z" />
    <glyph glyph-name="adieresis" unicode="&#xe4;" horiz-adv-x="566" 
d="M39 130q0 170 310 192v47q0 64 -74 64q-62 0 -171 -53l-52 108q122 61 229 61q214 0 214 -185v-224q0 -42 44 -42v-101q-76 0 -113.5 14t-59.5 52q-70 -75 -167 -75q-71 0 -115.5 39.5t-44.5 102.5zM185 147q0 -24 17 -39t45 -15q62 0 102 45v103q-164 -10 -164 -94z
M343 615v114h115v-114h-115zM114 615v114h117v-114h-117z" />
    <glyph glyph-name="aring" unicode="&#xe5;" horiz-adv-x="566" 
d="M39 130q0 170 310 192v47q0 64 -74 64q-62 0 -171 -53l-52 108q122 61 229 61q214 0 214 -185v-224q0 -42 44 -42v-101q-76 0 -113.5 14t-59.5 52q-70 -75 -167 -75q-71 0 -115.5 39.5t-44.5 102.5zM185 147q0 -24 17 -39t45 -15q62 0 102 45v103q-164 -10 -164 -94z
M286 586q-50 0 -85 32.5t-35 81.5q0 50 35 83t85 33t85 -33t35 -83q0 -49 -35 -81.5t-85 -32.5zM286 638q26 0 44 18t18 44q0 27 -18 45t-44 18t-44 -18t-18 -45q0 -26 18 -44t44 -18z" />
    <glyph glyph-name="ae" unicode="&#xe6;" horiz-adv-x="894" 
d="M407 82q-81 -95 -203 -95q-75 0 -119.5 39t-45.5 103q-1 87 78.5 133.5t232.5 56.5v51q0 63 -72 63q-63 0 -174 -53l-52 108q131 62 228 62q122 0 165 -73q68 73 175 73q112 0 174.5 -67.5t62.5 -177.5q0 -28 -7 -65h-352q9 -136 132 -136q73 0 147 46l62 -93
q-95 -70 -217 -70q-141 0 -215 95zM500 324h217q0 120 -96 120q-46 0 -78.5 -31t-42.5 -89zM186 147q0 -24 17.5 -39.5t44.5 -15.5q73 0 117 66q-12 38 -15 82q-164 -8 -164 -93z" />
    <glyph glyph-name="ccedilla" unicode="&#xe7;" horiz-adv-x="527" 
d="M119 -172q100 78 122 167q-93 20 -149 93t-56 184q0 127 76.5 202t196.5 75q105 0 190 -66l-74 -95q-54 42 -112 42q-56 0 -92.5 -42t-36.5 -116q0 -78 36.5 -122t92.5 -44q59 0 113 44l80 -85q-82 -72 -179 -76q-15 -126 -108 -211z" />
    <glyph glyph-name="egrave" unicode="&#xe8;" horiz-adv-x="584" 
d="M37 272q0 126 77 202t192 76q113 0 176 -67t63 -178q0 -38 -5 -65h-354q12 -136 132 -136q75 0 149 46l61 -93q-100 -70 -221 -70t-195.5 76t-74.5 209zM310 444q-46 0 -78.5 -31.5t-42.5 -88.5h217q0 120 -96 120zM283 592l-134 121l99 65l127 -186h-92z" />
    <glyph glyph-name="eacute" unicode="&#xe9;" horiz-adv-x="584" 
d="M37 272q0 126 77 202t192 76q113 0 176 -67t63 -178q0 -38 -5 -65h-354q12 -136 132 -136q75 0 149 46l61 -93q-100 -70 -221 -70t-195.5 76t-74.5 209zM310 444q-46 0 -78.5 -31.5t-42.5 -88.5h217q0 120 -96 120zM233 592l128 186l98 -65l-134 -121h-92z" />
    <glyph glyph-name="ecircumflex" unicode="&#xea;" horiz-adv-x="584" 
d="M37 272q0 126 77 202t192 76q113 0 176 -67t63 -178q0 -38 -5 -65h-354q12 -136 132 -136q75 0 149 46l61 -93q-100 -70 -221 -70t-195.5 76t-74.5 209zM110 592l117 160h161l117 -160h-108l-88 90h-3l-89 -90h-107zM310 444q-46 0 -78.5 -31.5t-42.5 -88.5h217
q0 120 -96 120z" />
    <glyph glyph-name="edieresis" unicode="&#xeb;" horiz-adv-x="584" 
d="M37 272q0 126 77 202t192 76q113 0 176 -67t63 -178q0 -38 -5 -65h-354q12 -136 132 -136q75 0 149 46l61 -93q-100 -70 -221 -70t-195.5 76t-74.5 209zM310 444q-46 0 -78.5 -31.5t-42.5 -88.5h217q0 120 -96 120zM135 615v114h117v-114h-117zM364 615v114h115v-114
h-115z" />
    <glyph glyph-name="igrave" unicode="&#xec;" horiz-adv-x="272" 
d="M63 0v529h147v-529h-147zM114 592l-134 121l99 65l127 -186h-92z" />
    <glyph glyph-name="iacute" unicode="&#xed;" horiz-adv-x="272" 
d="M64 592l128 186l98 -65l-134 -121h-92zM63 0v529h147v-529h-147z" />
    <glyph glyph-name="icircumflex" unicode="&#xee;" horiz-adv-x="272" 
d="M-62 592l117 160h161l117 -160h-108l-88 90h-3l-89 -90h-107zM63 0v529h147v-529h-147z" />
    <glyph glyph-name="idieresis" unicode="&#xef;" horiz-adv-x="272" 
d="M193 615v114h115v-114h-115zM-36 615v114h117v-114h-117zM63 0v529h147v-529h-147z" />
    <glyph glyph-name="eth" unicode="&#xf0;" horiz-adv-x="614" 
d="M164 525l-35 74q64 25 111 43q-34 35 -123 113h174q32 -28 68 -64l97 42l34 -76q-37 -15 -73 -30q153 -186 153 -365q0 -133 -71.5 -203.5t-191.5 -70.5q-124 0 -194.5 69.5t-70.5 178.5q0 102 63 166t159 64q72 0 131 -40q-31 73 -98 154zM426 256q0 37 -4 66
q-58 46 -124 46q-47 0 -78 -33.5t-31 -98.5q0 -62 32 -101.5t86 -39.5t86.5 42.5t32.5 118.5z" />
    <glyph glyph-name="ntilde" unicode="&#xf1;" horiz-adv-x="597" 
d="M61 0v537h138l7 -62q71 75 163 75q171 0 171 -195v-355h-147v359q0 81 -70 81q-66 0 -116 -63v-377h-146zM124 604q-7 67 23 105t85 38q35 0 73.5 -26.5t54.5 -26.5q37 0 31 46h82q7 -67 -22.5 -105t-84.5 -38q-34 0 -73 26t-55 26q-36 0 -32 -45h-82z" />
    <glyph glyph-name="ograve" unicode="&#xf2;" horiz-adv-x="614" 
d="M284 592l-134 121l99 65l127 -186h-92zM37 274q0 123 76.5 199t194.5 76q116 0 192 -76t76 -199q0 -132 -73.5 -209t-194.5 -77q-123 0 -197 77t-74 209zM185 273q0 -81 32.5 -128t90.5 -47q56 0 88 47.5t32 127.5q0 74 -33 119.5t-87 45.5q-55 0 -89 -45.5t-34 -119.5z
" />
    <glyph glyph-name="oacute" unicode="&#xf3;" horiz-adv-x="614" 
d="M234 592l128 186l98 -65l-134 -121h-92zM37 274q0 123 76.5 199t194.5 76q116 0 192 -76t76 -199q0 -132 -73.5 -209t-194.5 -77q-123 0 -197 77t-74 209zM185 273q0 -81 32.5 -128t90.5 -47q56 0 88 47.5t32 127.5q0 74 -33 119.5t-87 45.5q-55 0 -89 -45.5t-34 -119.5z
" />
    <glyph glyph-name="ocircumflex" unicode="&#xf4;" horiz-adv-x="614" 
d="M109 592l117 160h161l117 -160h-108l-88 90h-3l-89 -90h-107zM37 274q0 123 76.5 199t194.5 76q116 0 192 -76t76 -199q0 -132 -73.5 -209t-194.5 -77q-123 0 -197 77t-74 209zM185 273q0 -81 32.5 -128t90.5 -47q56 0 88 47.5t32 127.5q0 74 -33 119.5t-87 45.5
q-55 0 -89 -45.5t-34 -119.5z" />
    <glyph glyph-name="otilde" unicode="&#xf5;" horiz-adv-x="614" 
d="M37 274q0 123 76.5 199t194.5 76q116 0 192 -76t76 -199q0 -132 -73.5 -209t-194.5 -77q-123 0 -197 77t-74 209zM185 273q0 -81 32.5 -128t90.5 -47q56 0 88 47.5t32 127.5q0 74 -33 119.5t-87 45.5q-55 0 -89 -45.5t-34 -119.5zM131 604q-7 67 23 105t85 38
q35 0 73.5 -26.5t54.5 -26.5q37 0 31 46h82q7 -67 -22.5 -105t-84.5 -38q-35 0 -73 26t-55 26q-36 0 -32 -45h-82z" />
    <glyph glyph-name="odieresis" unicode="&#xf6;" horiz-adv-x="614" 
d="M363 615v114h115v-114h-115zM134 615v114h117v-114h-117zM37 274q0 123 76.5 199t194.5 76q116 0 192 -76t76 -199q0 -132 -73.5 -209t-194.5 -77q-123 0 -197 77t-74 209zM185 273q0 -81 32.5 -128t90.5 -47q56 0 88 47.5t32 127.5q0 74 -33 119.5t-87 45.5
q-55 0 -89 -45.5t-34 -119.5z" />
    <glyph glyph-name="divide" unicode="&#xf7;" horiz-adv-x="615" 
d="M245 413v112h125v-112h-125zM245 14v112h125v-112h-125zM38 209v121h539v-121h-539z" />
    <glyph glyph-name="oslash" unicode="&#xf8;" horiz-adv-x="614" 
d="M37 274q0 123 76.5 199t194.5 76q75 0 138 -36l55 71l62 -49l-56 -69q69 -77 69 -192q0 -132 -73.5 -209t-194.5 -77q-85 0 -147 38l-60 -78l-64 47l65 80q-65 76 -65 199zM428 273q0 44 -15 84l-180 -231q30 -28 75 -28q56 0 88 47.5t32 127.5zM185 273q0 -49 12 -87
l178 228q-30 24 -67 24q-55 0 -89 -45.5t-34 -119.5z" />
    <glyph glyph-name="ugrave" unicode="&#xf9;" horiz-adv-x="598" 
d="M58 182v355h147v-358q0 -81 69 -81q64 0 117 61v378h147v-537h-136l-9 62q-72 -74 -164 -74q-171 0 -171 194zM264 592l-134 121l99 65l127 -186h-92z" />
    <glyph glyph-name="uacute" unicode="&#xfa;" horiz-adv-x="598" 
d="M232 592l128 186l98 -65l-134 -121h-92zM58 182v355h147v-358q0 -81 69 -81q64 0 117 61v378h147v-537h-136l-9 62q-72 -74 -164 -74q-171 0 -171 194z" />
    <glyph glyph-name="ucircumflex" unicode="&#xfb;" horiz-adv-x="598" 
d="M101 592l117 160h161l117 -160h-108l-88 90h-3l-89 -90h-107zM58 182v355h147v-358q0 -81 69 -81q64 0 117 61v378h147v-537h-136l-9 62q-72 -74 -164 -74q-171 0 -171 194z" />
    <glyph glyph-name="udieresis" unicode="&#xfc;" horiz-adv-x="598" 
d="M355 615v114h115v-114h-115zM126 615v114h117v-114h-117zM58 182v355h147v-358q0 -81 69 -81q64 0 117 61v378h147v-537h-136l-9 62q-72 -74 -164 -74q-171 0 -171 194z" />
    <glyph glyph-name="yacute" unicode="&#xfd;" horiz-adv-x="556" 
d="M49 -76q47 -17 73 -17q28 0 44.5 12t26.5 42l17 45l-195 531h147l118 -354h2l117 354h142l-200 -567q-37 -103 -85.5 -141.5t-124.5 -38.5q-60 0 -122 20zM209 592l128 186l98 -65l-134 -121h-92z" />
    <glyph glyph-name="thorn" unicode="&#xfe;" horiz-adv-x="610" 
d="M210 57v-257h-146v955h146v-282q65 76 155 76q95 0 151.5 -71t56.5 -203q0 -138 -56.5 -212.5t-148.5 -74.5q-91 0 -158 69zM210 153q49 -53 111 -53q51 0 78.5 46.5t27.5 127.5q0 163 -106 163q-61 0 -111 -56v-228z" />
    <glyph glyph-name="ydieresis" unicode="&#xff;" horiz-adv-x="556" 
d="M49 -76q47 -17 73 -17q28 0 44.5 12t26.5 42l17 45l-195 531h147l118 -354h2l117 354h142l-200 -567q-37 -103 -85.5 -141.5t-124.5 -38.5q-60 0 -122 20zM336 615v114h115v-114h-115zM107 615v114h117v-114h-117z" />
    <glyph glyph-name="Amacron" unicode="&#x100;" horiz-adv-x="713" 
d="M17 0l253 700h172l253 -700h-162l-44 131h-266l-43 -131h-163zM354 532l-93 -284h189l-94 284h-2zM190 776v90h332v-90h-332z" />
    <glyph glyph-name="amacron" unicode="&#x101;" horiz-adv-x="566" 
d="M39 130q0 170 310 192v47q0 64 -74 64q-62 0 -171 -53l-52 108q122 61 229 61q214 0 214 -185v-224q0 -42 44 -42v-101q-76 0 -113.5 14t-59.5 52q-70 -75 -167 -75q-71 0 -115.5 39.5t-44.5 102.5zM185 147q0 -24 17 -39t45 -15q62 0 102 45v103q-164 -10 -164 -94z
M122 627v90h328v-90h-328z" />
    <glyph glyph-name="Abreve" unicode="&#x102;" horiz-adv-x="713" 
d="M17 0l253 700h172l253 -700h-162l-44 131h-266l-43 -131h-163zM356 750q-75 0 -120.5 36.5t-57.5 101.5h94q20 -53 84 -53q65 0 85 53h92q-11 -64 -57.5 -101t-119.5 -37zM354 532l-93 -284h189l-94 284h-2z" />
    <glyph glyph-name="abreve" unicode="&#x103;" horiz-adv-x="566" 
d="M39 130q0 170 310 192v47q0 64 -74 64q-62 0 -171 -53l-52 108q122 61 229 61q214 0 214 -185v-224q0 -42 44 -42v-101q-76 0 -113.5 14t-59.5 52q-70 -75 -167 -75q-71 0 -115.5 39.5t-44.5 102.5zM185 147q0 -24 17 -39t45 -15q62 0 102 45v103q-164 -10 -164 -94z
M287 582q-77 0 -122 45.5t-53 124.5h92q5 -38 27 -58.5t56 -20.5t55.5 20.5t26.5 58.5h90q-5 -79 -51.5 -124.5t-120.5 -45.5z" />
    <glyph glyph-name="Aogonek" unicode="&#x104;" horiz-adv-x="713" 
d="M708 -97v-98q-34 -12 -78 -12q-55 0 -87.5 27.5t-32.5 73.5q0 64 61 106h-38l-44 131h-266l-43 -131h-163l253 700h172l253 -700q-82 -24 -82 -70q0 -36 43 -36q25 0 49 11zM354 532l-93 -284h189l-94 284h-2z" />
    <glyph glyph-name="aogonek" unicode="&#x105;" horiz-adv-x="566" 
d="M553 -99v-96q-35 -12 -78 -12q-55 0 -87 27.5t-32 73.5q0 73 77 116q-44 13 -67 53q-70 -75 -167 -75q-71 0 -115.5 39.5t-44.5 102.5q0 170 310 192v47q0 64 -74 64q-62 0 -171 -53l-52 108q122 61 229 61q214 0 214 -185v-224q0 -42 44 -42v-98q-82 -26 -82 -72
q0 -16 12 -25.5t31 -9.5q28 0 50 11zM185 147q0 -24 17 -39t45 -15q62 0 102 45v103q-164 -10 -164 -94z" />
    <glyph glyph-name="Cacute" unicode="&#x106;" horiz-adv-x="705" 
d="M41 354q0 156 102.5 257t262.5 101q142 0 254 -89l-82 -104q-82 65 -169 65q-97 0 -156 -63t-59 -167q0 -108 58 -173t157 -65q98 0 173 73l90 -96q-112 -105 -271 -105q-160 0 -260 102.5t-100 263.5zM313 755l111 150l115 -67l-120 -83h-106z" />
    <glyph glyph-name="cacute" unicode="&#x107;" horiz-adv-x="527" 
d="M219 592l128 186l98 -65l-134 -121h-92zM36 272q0 127 76.5 202t196.5 75q105 0 190 -66l-74 -95q-54 42 -112 42q-56 0 -92.5 -42t-36.5 -116q0 -78 36.5 -122t92.5 -44q59 0 113 44l80 -85q-87 -77 -197 -77q-120 0 -196.5 76.5t-76.5 207.5z" />
    <glyph glyph-name="Ccircumflex" unicode="&#x108;" horiz-adv-x="705" 
d="M41 354q0 156 102.5 257t262.5 101q142 0 254 -89l-82 -104q-82 65 -169 65q-97 0 -156 -63t-59 -167q0 -108 58 -173t157 -65q98 0 173 73l90 -96q-112 -105 -271 -105q-160 0 -260 102.5t-100 263.5zM192 755l117 133h142l117 -133h-99l-88 65h-1l-89 -65h-99z" />
    <glyph glyph-name="ccircumflex" unicode="&#x109;" horiz-adv-x="527" 
d="M93 592l117 160h161l117 -160h-108l-88 90h-3l-89 -90h-107zM36 272q0 127 76.5 202t196.5 75q105 0 190 -66l-74 -95q-54 42 -112 42q-56 0 -92.5 -42t-36.5 -116q0 -78 36.5 -122t92.5 -44q59 0 113 44l80 -85q-87 -77 -197 -77q-120 0 -196.5 76.5t-76.5 207.5z" />
    <glyph glyph-name="Cdotaccent" unicode="&#x10a;" horiz-adv-x="705" 
d="M321 764v115h117v-115h-117zM41 354q0 156 102.5 257t262.5 101q142 0 254 -89l-82 -104q-82 65 -169 65q-97 0 -156 -63t-59 -167q0 -108 58 -173t157 -65q98 0 173 73l90 -96q-112 -105 -271 -105q-160 0 -260 102.5t-100 263.5z" />
    <glyph glyph-name="cdotaccent" unicode="&#x10b;" horiz-adv-x="527" 
d="M36 272q0 127 76.5 202t196.5 75q105 0 190 -66l-74 -95q-54 42 -112 42q-56 0 -92.5 -42t-36.5 -116q0 -78 36.5 -122t92.5 -44q59 0 113 44l80 -85q-87 -77 -197 -77q-120 0 -196.5 76.5t-76.5 207.5zM232 615v114h115v-114h-115z" />
    <glyph glyph-name="Ccaron" unicode="&#x10c;" horiz-adv-x="705" 
d="M41 354q0 156 102.5 257t262.5 101q142 0 254 -89l-82 -104q-82 65 -169 65q-97 0 -156 -63t-59 -167q0 -108 58 -173t157 -65q98 0 173 73l90 -96q-112 -105 -271 -105q-160 0 -260 102.5t-100 263.5zM308 755l-116 133h99l87 -64h2l88 64h100l-117 -133h-143z" />
    <glyph glyph-name="ccaron" unicode="&#x10d;" horiz-adv-x="527" 
d="M210 592l-117 160h107l89 -90h3l88 90h108l-117 -160h-161zM36 272q0 127 76.5 202t196.5 75q105 0 190 -66l-74 -95q-54 42 -112 42q-56 0 -92.5 -42t-36.5 -116q0 -78 36.5 -122t92.5 -44q59 0 113 44l80 -85q-87 -77 -197 -77q-120 0 -196.5 76.5t-76.5 207.5z" />
    <glyph glyph-name="Dcaron" unicode="&#x10e;" horiz-adv-x="723" 
d="M305 755l-116 133h99l87 -64h2l88 64h100l-117 -133h-143zM68 0v700h230q186 0 285.5 -91t99.5 -256q0 -170 -97 -261.5t-288 -91.5h-230zM219 123h90q108 0 164.5 60.5t56.5 168.5q0 104 -58 164.5t-163 60.5h-90v-454z" />
    <glyph glyph-name="dcaron" unicode="&#x10f;" horiz-adv-x="608" 
d="M608 666v72q32 8 61 8q48 0 73 -21.5t25 -55.5q2 -51 -46 -99h-98q37 44 37 72q0 27 -30 27q-5 0 -12.5 -1.5t-9.5 -1.5zM243 -12q-93 0 -149.5 74.5t-56.5 212.5q0 133 56.5 203.5t152.5 70.5q89 0 154 -72v278h147v-755h-130l-9 63q-72 -75 -165 -75zM289 100
q64 0 111 53v228q-50 56 -111 56q-105 0 -105 -163q0 -81 26.5 -127.5t78.5 -46.5z" />
    <glyph glyph-name="Dcroat" unicode="&#x110;" horiz-adv-x="763" 
d="M14 309v87h94v304h230q186 0 285.5 -91t99.5 -256q0 -170 -97 -261.5t-288 -91.5h-230v309h-94zM259 123h90q108 0 164.5 60.5t56.5 168.5q0 104 -58 164.5t-163 60.5h-90v-181h157v-87h-157v-186z" />
    <glyph glyph-name="dcroat" unicode="&#x111;" horiz-adv-x="608" 
d="M243 -12q-93 0 -149.5 74.5t-56.5 212.5q0 133 56.5 203.5t152.5 70.5q89 0 154 -72v126h-128v83h128v69h147v-69h75v-85h-75v-601h-130l-9 63q-72 -75 -165 -75zM289 100q64 0 111 53v228q-50 56 -111 56q-105 0 -105 -163q0 -81 26.5 -127.5t78.5 -46.5z" />
    <glyph glyph-name="Emacron" unicode="&#x112;" horiz-adv-x="634" 
d="M160 776v90h332v-90h-332zM68 0v700h510v-132h-359v-154h320v-117h-320v-165h363v-132h-514z" />
    <glyph glyph-name="emacron" unicode="&#x113;" horiz-adv-x="584" 
d="M37 272q0 126 77 202t192 76q113 0 176 -67t63 -178q0 -38 -5 -65h-354q12 -136 132 -136q75 0 149 46l61 -93q-100 -70 -221 -70t-195.5 76t-74.5 209zM143 627v90h328v-90h-328zM310 444q-46 0 -78.5 -31.5t-42.5 -88.5h217q0 120 -96 120z" />
    <glyph glyph-name="Ebreve" unicode="&#x114;" horiz-adv-x="634" 
d="M325 750q-75 0 -120.5 36.5t-57.5 101.5h94q20 -53 84 -53q65 0 85 53h92q-11 -64 -57.5 -101t-119.5 -37zM68 0v700h510v-132h-359v-154h320v-117h-320v-165h363v-132h-514z" />
    <glyph glyph-name="ebreve" unicode="&#x115;" horiz-adv-x="584" 
d="M37 272q0 126 77 202t192 76q113 0 176 -67t63 -178q0 -38 -5 -65h-354q12 -136 132 -136q75 0 149 46l61 -93q-100 -70 -221 -70t-195.5 76t-74.5 209zM308 582q-77 0 -122 45.5t-53 124.5h92q5 -38 27 -58.5t56 -20.5t55.5 20.5t26.5 58.5h90q-5 -79 -51.5 -124.5
t-120.5 -45.5zM310 444q-46 0 -78.5 -31.5t-42.5 -88.5h217q0 120 -96 120z" />
    <glyph glyph-name="Edotaccent" unicode="&#x116;" horiz-adv-x="634" 
d="M268 764v115h117v-115h-117zM68 0v700h510v-132h-359v-154h320v-117h-320v-165h363v-132h-514z" />
    <glyph glyph-name="edotaccent" unicode="&#x117;" horiz-adv-x="584" 
d="M37 272q0 126 77 202t192 76q113 0 176 -67t63 -178q0 -38 -5 -65h-354q12 -136 132 -136q75 0 149 46l61 -93q-100 -70 -221 -70t-195.5 76t-74.5 209zM310 444q-46 0 -78.5 -31.5t-42.5 -88.5h217q0 120 -96 120zM249 615v114h115v-114h-115z" />
    <glyph glyph-name="Eogonek" unicode="&#x118;" horiz-adv-x="634" 
d="M68 0v700h510v-132h-359v-154h320v-117h-320v-165h363v-132q-82 -24 -82 -70q0 -36 43 -36q25 0 49 11l3 -2v-98q-35 -12 -78 -12q-55 0 -87.5 27.5t-32.5 73.5q0 64 61 106h-390z" />
    <glyph glyph-name="eogonek" unicode="&#x119;" horiz-adv-x="584" 
d="M37 272q0 126 77 202t192 76q113 0 176 -67t63 -178q0 -38 -5 -65h-353q9 -136 131 -136q75 0 149 46l61 -93q-33 -21 -56 -33q-93 -49 -93 -95q0 -36 45 -36q29 0 49 11l4 -3v-96q-36 -12 -78 -12q-57 0 -89.5 27.5t-32.5 74.5q0 49 40 92h-10q-121 0 -195.5 76
t-74.5 209zM310 444q-46 0 -78 -31t-43 -89h217q0 120 -96 120z" />
    <glyph glyph-name="Ecaron" unicode="&#x11a;" horiz-adv-x="634" 
d="M254 755l-116 133h99l87 -64h2l88 64h100l-117 -133h-143zM68 0v700h510v-132h-359v-154h320v-117h-320v-165h363v-132h-514z" />
    <glyph glyph-name="ecaron" unicode="&#x11b;" horiz-adv-x="584" 
d="M37 272q0 126 77 202t192 76q113 0 176 -67t63 -178q0 -38 -5 -65h-354q12 -136 132 -136q75 0 149 46l61 -93q-100 -70 -221 -70t-195.5 76t-74.5 209zM227 592l-117 160h107l89 -90h3l88 90h108l-117 -160h-161zM310 444q-46 0 -78.5 -31.5t-42.5 -88.5h217
q0 120 -96 120z" />
    <glyph glyph-name="Gcircumflex" unicode="&#x11c;" horiz-adv-x="732" 
d="M41 354q0 155 100.5 256.5t264.5 101.5q141 0 258 -86l-79 -102q-85 60 -175 60q-97 0 -156 -64.5t-59 -165.5q0 -110 57 -174t158 -64q71 0 122 30v140h-158v103h296v-320q-111 -81 -265 -81q-165 0 -264.5 101.5t-99.5 264.5zM193 755l117 133h142l117 -133h-99l-88 65
h-1l-89 -65h-99z" />
    <glyph glyph-name="gcircumflex" unicode="&#x11d;" horiz-adv-x="595" 
d="M16 -69q0 70 78 111q-33 30 -33 72q0 55 57 89q-78 55 -78 150q0 87 66 141.5t166 54.5q90 0 153 -46q59 46 151 46v-97q-61 0 -96 -10q22 -41 22 -89q0 -90 -68.5 -143t-161.5 -53q-41 0 -82 11q-21 -9 -21 -30q0 -20 31 -28.5t115 -11.5q122 -5 184 -41t62 -110
q0 -75 -68.5 -116t-205.5 -41q-129 0 -200 36t-71 105zM103 592l117 160h161l117 -160h-108l-88 90h-3l-89 -90h-107zM272 254q41 0 66.5 27t25.5 72t-25.5 72.5t-66.5 27.5t-66.5 -27.5t-25.5 -72.5t25.5 -72t66.5 -27zM297 -18q-60 1 -107 14q-37 -22 -37 -59
q0 -29 30.5 -42.5t99.5 -13.5q143 0 143 50q0 27 -27 37.5t-102 13.5z" />
    <glyph glyph-name="Gbreve" unicode="&#x11e;" horiz-adv-x="732" 
d="M380 750q-75 0 -120.5 36.5t-57.5 101.5h94q20 -53 84 -53q65 0 85 53h92q-11 -64 -57.5 -101t-119.5 -37zM41 354q0 155 100.5 256.5t264.5 101.5q141 0 258 -86l-79 -102q-85 60 -175 60q-97 0 -156 -64.5t-59 -165.5q0 -110 57 -174t158 -64q71 0 122 30v140h-158v103
h296v-320q-111 -81 -265 -81q-165 0 -264.5 101.5t-99.5 264.5z" />
    <glyph glyph-name="gbreve" unicode="&#x11f;" horiz-adv-x="595" 
d="M16 -69q0 70 78 111q-33 30 -33 72q0 55 57 89q-78 55 -78 150q0 87 66 141.5t166 54.5q90 0 153 -46q59 46 151 46v-97q-61 0 -96 -10q22 -41 22 -89q0 -90 -68.5 -143t-161.5 -53q-41 0 -82 11q-21 -9 -21 -30q0 -20 31 -28.5t115 -11.5q122 -5 184 -41t62 -110
q0 -75 -68.5 -116t-205.5 -41q-129 0 -200 36t-71 105zM272 254q41 0 66.5 27t25.5 72t-25.5 72.5t-66.5 27.5t-66.5 -27.5t-25.5 -72.5t25.5 -72t66.5 -27zM297 -18q-60 1 -107 14q-37 -22 -37 -59q0 -29 30.5 -42.5t99.5 -13.5q143 0 143 50q0 27 -27 37.5t-102 13.5z
M301 582q-77 0 -122 45.5t-53 124.5h92q5 -38 27 -58.5t56 -20.5t55.5 20.5t26.5 58.5h90q-5 -79 -51.5 -124.5t-120.5 -45.5z" />
    <glyph glyph-name="Gdotaccent" unicode="&#x120;" horiz-adv-x="732" 
d="M322 764v115h117v-115h-117zM41 354q0 155 100.5 256.5t264.5 101.5q141 0 258 -86l-79 -102q-85 60 -175 60q-97 0 -156 -64.5t-59 -165.5q0 -110 57 -174t158 -64q71 0 122 30v140h-158v103h296v-320q-111 -81 -265 -81q-165 0 -264.5 101.5t-99.5 264.5z" />
    <glyph glyph-name="gdotaccent" unicode="&#x121;" horiz-adv-x="595" 
d="M16 -69q0 70 78 111q-33 30 -33 72q0 55 57 89q-78 55 -78 150q0 87 66 141.5t166 54.5q90 0 153 -46q59 46 151 46v-97q-61 0 -96 -10q22 -41 22 -89q0 -90 -68.5 -143t-161.5 -53q-41 0 -82 11q-21 -9 -21 -30q0 -20 31 -28.5t115 -11.5q122 -5 184 -41t62 -110
q0 -75 -68.5 -116t-205.5 -41q-129 0 -200 36t-71 105zM272 254q41 0 66.5 27t25.5 72t-25.5 72.5t-66.5 27.5t-66.5 -27.5t-25.5 -72.5t25.5 -72t66.5 -27zM297 -18q-60 1 -107 14q-37 -22 -37 -59q0 -29 30.5 -42.5t99.5 -13.5q143 0 143 50q0 27 -27 37.5t-102 13.5z
M231 615v114h115v-114h-115z" />
    <glyph glyph-name="Gcommaaccent" unicode="&#x122;" horiz-adv-x="732" 
d="M41 354q0 155 100.5 256.5t264.5 101.5q141 0 258 -86l-79 -102q-85 60 -175 60q-97 0 -156 -64.5t-59 -165.5q0 -110 57 -174t158 -64q71 0 122 30v140h-158v103h296v-320q-111 -81 -265 -81q-165 0 -264.5 101.5t-99.5 264.5zM300 -54q30 8 61 8q48 0 73 -21.5
t26 -55.5q2 -52 -47 -99h-98q37 42 37 72q0 13 -8 20t-21 6q-9 0 -23 -2v72z" />
    <glyph glyph-name="gcommaaccent" unicode="&#x123;" horiz-adv-x="595" 
d="M375 668v-72q-32 -8 -61 -8q-48 0 -73 21.5t-25 55.5q-2 51 46 99h98q-37 -44 -37 -72q0 -27 30 -27q5 0 12.5 1.5t9.5 1.5zM16 -69q0 70 78 111q-33 30 -33 72q0 55 57 89q-78 55 -78 150q0 87 66 141.5t166 54.5q90 0 153 -46q59 46 151 46v-97q-61 0 -96 -10
q22 -41 22 -89q0 -90 -68.5 -143t-161.5 -53q-41 0 -82 11q-21 -9 -21 -30q0 -20 31 -28.5t115 -11.5q122 -5 184 -41t62 -110q0 -75 -68.5 -116t-205.5 -41q-129 0 -200 36t-71 105zM272 254q41 0 66.5 27t25.5 72t-25.5 72.5t-66.5 27.5t-66.5 -27.5t-25.5 -72.5t25.5 -72
t66.5 -27zM297 -18q-60 1 -107 14q-37 -22 -37 -59q0 -29 30.5 -42.5t99.5 -13.5q143 0 143 50q0 27 -27 37.5t-102 13.5z" />
    <glyph glyph-name="Hcircumflex" unicode="&#x124;" horiz-adv-x="712" 
d="M68 0v700h152v-280h273v280h151v-700h-151v290h-273v-290h-152zM168 755l117 133h142l117 -133h-99l-88 65h-1l-89 -65h-99z" />
    <glyph glyph-name="hcircumflex" unicode="&#x125;" horiz-adv-x="599" 
d="M63 0v755h147v-280q72 74 161 74q171 0 171 -194v-355h-147v359q0 81 -70 81q-65 0 -115 -63v-377h-147zM-51 797l117 133h142l117 -133h-99l-88 65h-1l-89 -65h-99z" />
    <glyph glyph-name="Hbar" unicode="&#x126;" horiz-adv-x="712" 
d="M68 0v700h152v-95h273v95h151v-700h-151v290h-273v-290h-152zM220 420h273v100h-273v-100z" />
    <glyph glyph-name="hbar" unicode="&#x127;" horiz-adv-x="604" 
d="M-9 601v85h76v69h147v-69h132v-83h-132v-128q72 74 161 74q171 0 171 -194v-355h-147v359q0 81 -70 81q-65 0 -115 -63v-377h-147v601h-76z" />
    <glyph glyph-name="Itilde" unicode="&#x128;" horiz-adv-x="287" 
d="M68 0v700h152v-700h-152zM-32 756q-7 65 22.5 102.5t84.5 37.5q36 0 75.5 -26t55.5 -26q37 0 32 43h82q7 -65 -23 -103t-85 -38q-36 0 -75 26t-56 26q-37 0 -31 -42h-82z" />
    <glyph glyph-name="itilde" unicode="&#x129;" horiz-adv-x="272" 
d="M63 0v529h147v-529h-147zM-40 604q-7 67 23 105t85 38q35 0 73.5 -26.5t54.5 -26.5q37 0 31 46h82q7 -67 -22.5 -105t-84.5 -38q-34 0 -73 26t-55 26q-36 0 -32 -45h-82z" />
    <glyph glyph-name="Imacron" unicode="&#x12a;" horiz-adv-x="287" 
d="M68 0v700h152v-700h-152zM-22 776v90h332v-90h-332z" />
    <glyph glyph-name="imacron" unicode="&#x12b;" horiz-adv-x="272" 
d="M63 0v529h147v-529h-147zM-28 627v90h328v-90h-328z" />
    <glyph glyph-name="Ibreve" unicode="&#x12c;" horiz-adv-x="287" 
d="M68 0v700h152v-700h-152zM144 750q-75 0 -120.5 36.5t-57.5 101.5h94q20 -53 84 -53q65 0 85 53h92q-11 -64 -57.5 -101t-119.5 -37z" />
    <glyph glyph-name="ibreve" unicode="&#x12d;" horiz-adv-x="272" 
d="M63 0v529h147v-529h-147zM137 582q-77 0 -122 45.5t-53 124.5h92q5 -38 27 -58.5t56 -20.5t55.5 20.5t26.5 58.5h90q-5 -79 -51.5 -124.5t-120.5 -45.5z" />
    <glyph glyph-name="Iogonek" unicode="&#x12e;" horiz-adv-x="287" 
d="M68 0v700h152v-700q-82 -24 -82 -70q0 -36 43 -36q25 0 49 11l3 -2v-98q-35 -12 -78 -12q-55 0 -87.5 27.5t-32.5 73.5q0 64 61 106h-28z" />
    <glyph glyph-name="iogonek" unicode="&#x12f;" horiz-adv-x="272" 
d="M63 0v529h147v-529q-82 -24 -82 -70q0 -36 43 -36q25 0 49 11l3 -2v-98q-35 -12 -78 -12q-55 0 -87.5 27.5t-32.5 73.5q0 64 61 106h-23zM63 624v126h147v-126h-147z" />
    <glyph glyph-name="Idotaccent" unicode="&#x130;" horiz-adv-x="287" 
d="M68 0v700h152v-700h-152zM85 764v115h117v-115h-117z" />
    <glyph glyph-name="dotlessi" unicode="&#x131;" horiz-adv-x="272" 
d="M63 0v529h147v-529h-147z" />
    <glyph glyph-name="Jcircumflex" unicode="&#x134;" horiz-adv-x="572" 
d="M32 126l114 74q44 -79 114 -79q46 0 71 29.5t25 83.5v466h151v-469q0 -118 -63.5 -180.5t-175.5 -62.5q-154 0 -236 138zM244 755l117 133h142l117 -133h-99l-88 65h-1l-89 -65h-99z" />
    <glyph glyph-name="jcircumflex" unicode="&#x135;" horiz-adv-x="284" 
d="M74 -13v542h147v-534q0 -205 -187 -205q-52 0 -108 20l31 108q30 -10 56 -10q31 0 46 18t15 61zM-51 592l117 160h161l117 -160h-108l-88 90h-3l-89 -90h-107z" />
    <glyph glyph-name="Kcommaaccent" unicode="&#x136;" horiz-adv-x="692" 
d="M68 0v700h152v-327l266 327h167l-219 -261l241 -439h-171l-167 323l-117 -140v-183h-152zM265 -54q30 8 61 8q48 0 73 -21.5t26 -55.5q2 -52 -47 -99h-98q37 42 37 72q0 13 -8 20t-21 6q-9 0 -23 -2v72z" />
    <glyph glyph-name="kcommaaccent" unicode="&#x137;" horiz-adv-x="585" 
d="M63 0v755h147v-453l196 235h154l-166 -190l179 -347h-166l-110 236l-87 -99v-137h-147zM233 -54q32 8 60 8q49 0 74 -21.5t25 -55.5q3 -49 -47 -99h-96q35 43 35 72q0 13 -8 20t-21 6q-10 0 -22 -2v72z" />
    <glyph glyph-name="kgreenlandic" unicode="&#x138;" horiz-adv-x="585" 
d="M63 0v537h147v-235l196 235h154l-166 -190l179 -347h-166l-110 236l-87 -99v-137h-147z" />
    <glyph glyph-name="Lacute" unicode="&#x139;" horiz-adv-x="602" 
d="M77 755l111 150l115 -67l-120 -83h-106zM68 0v700h152v-569h348v-131h-500z" />
    <glyph glyph-name="lacute" unicode="&#x13a;" horiz-adv-x="274" 
d="M69 797l111 150l115 -67l-120 -83h-106zM64 0v755h147v-755h-147z" />
    <glyph glyph-name="Lcommaaccent" unicode="&#x13b;" horiz-adv-x="602" 
d="M68 0v700h152v-569h348v-131h-500zM236 -54q30 8 61 8q48 0 73 -21.5t26 -55.5q2 -52 -47 -99h-98q37 42 37 72q0 13 -8 20t-21 6q-9 0 -23 -2v72z" />
    <glyph glyph-name="lcommaaccent" unicode="&#x13c;" horiz-adv-x="274" 
d="M61 -54q32 8 60 8q49 0 74 -21.5t25 -55.5q3 -49 -47 -99h-96q35 43 35 72q0 13 -8 20t-21 6q-10 0 -22 -2v72zM64 0v755h147v-755h-147z" />
    <glyph glyph-name="Lcaron" unicode="&#x13d;" horiz-adv-x="602" 
d="M68 0v700h152v-569h348v-131h-500zM300 699q30 8 61 8q48 0 73 -21.5t26 -55.5q2 -52 -47 -99h-98q37 42 37 72q0 13 -8 20t-21 6q-9 0 -23 -2v72z" />
    <glyph glyph-name="lcaron" unicode="&#x13e;" horiz-adv-x="274" 
d="M274 666v72q32 8 61 8q48 0 73 -21.5t25 -55.5q2 -51 -46 -99h-98q37 44 37 72q0 27 -30 27q-5 0 -12.5 -1.5t-9.5 -1.5zM64 0v755h147v-755h-147z" />
    <glyph glyph-name="Ldot" unicode="&#x13f;" horiz-adv-x="602" 
d="M68 0v700h152v-569h348v-131h-500zM451 346v114h116v-114h-116z" />
    <glyph glyph-name="ldot" unicode="&#x140;" horiz-adv-x="274" 
d="M64 0v755h147v-755h-147zM253 294v114h115v-114h-115z" />
    <glyph glyph-name="Lslash" unicode="&#x141;" horiz-adv-x="631" 
d="M9 209v102l87 46v343h152v-261l180 96v-103l-180 -96v-205h348v-131h-500v255z" />
    <glyph glyph-name="lslash" unicode="&#x142;" horiz-adv-x="286" 
d="M-3 252v103l74 40v360h147v-281l71 38v-104l-71 -38v-370h-147v290z" />
    <glyph glyph-name="Nacute" unicode="&#x143;" horiz-adv-x="736" 
d="M301 755l111 150l115 -67l-120 -83h-106zM68 0v700h144l312 -461v461h143v-700h-143l-312 459v-459h-144z" />
    <glyph glyph-name="nacute" unicode="&#x144;" horiz-adv-x="597" 
d="M228 592l128 186l98 -65l-134 -121h-92zM61 0v537h138l7 -62q71 75 163 75q171 0 171 -195v-355h-147v359q0 81 -70 81q-66 0 -116 -63v-377h-146z" />
    <glyph glyph-name="Ncommaaccent" unicode="&#x145;" horiz-adv-x="736" 
d="M286 -54q30 8 61 8q48 0 73 -21.5t26 -55.5q2 -52 -47 -99h-98q37 42 37 72q0 13 -8 20t-21 6q-9 0 -23 -2v72zM68 0v700h144l312 -461v461h143v-700h-143l-312 459v-459h-144z" />
    <glyph glyph-name="ncommaaccent" unicode="&#x146;" horiz-adv-x="597" 
d="M223 -54q32 8 60 8q49 0 74 -21.5t25 -55.5q3 -49 -47 -99h-96q35 43 35 72q0 13 -8 20t-21 6q-10 0 -22 -2v72zM61 0v537h138l7 -62q71 75 163 75q171 0 171 -195v-355h-147v359q0 81 -70 81q-66 0 -116 -63v-377h-146z" />
    <glyph glyph-name="Ncaron" unicode="&#x147;" horiz-adv-x="736" 
d="M295 755l-116 133h99l87 -64h2l88 64h100l-117 -133h-143zM68 0v700h144l312 -461v461h143v-700h-143l-312 459v-459h-144z" />
    <glyph glyph-name="ncaron" unicode="&#x148;" horiz-adv-x="597" 
d="M219 592l-117 160h107l89 -90h3l88 90h108l-117 -160h-161zM61 0v537h138l7 -62q71 75 163 75q171 0 171 -195v-355h-147v359q0 81 -70 81q-66 0 -116 -63v-377h-146z" />
    <glyph glyph-name="Eng" unicode="&#x14a;" horiz-adv-x="736" 
d="M68 0v700h144l312 -457v457h143v-704q0 -206 -183 -206q-51 0 -111 20l33 110q38 -10 56 -10q63 0 63 77v17l-313 455v-459h-144z" />
    <glyph glyph-name="eng" unicode="&#x14b;" horiz-adv-x="597" 
d="M61 0v537h138l7 -62q71 75 163 75q171 0 171 -195v-360q0 -205 -186 -205q-52 0 -110 20l32 108q30 -10 55 -10q31 0 46.5 18t15.5 61v375q0 78 -70 78q-66 0 -116 -63v-377h-146z" />
    <glyph glyph-name="Omacron" unicode="&#x14c;" horiz-adv-x="808" 
d="M238 776v90h332v-90h-332zM41 352q0 158 102 259t261 101q160 0 261.5 -101t101.5 -259q0 -159 -102 -261.5t-261 -102.5t-261 102.5t-102 261.5zM195 352q0 -106 58.5 -171t150.5 -65q93 0 151.5 65t58.5 171q0 105 -58.5 169t-151.5 64t-151 -64.5t-58 -168.5z" />
    <glyph glyph-name="omacron" unicode="&#x14d;" horiz-adv-x="614" 
d="M143 627v90h328v-90h-328zM37 274q0 123 76.5 199t194.5 76q116 0 192 -76t76 -199q0 -132 -73.5 -209t-194.5 -77q-123 0 -197 77t-74 209zM185 273q0 -81 32.5 -128t90.5 -47q56 0 88 47.5t32 127.5q0 74 -33 119.5t-87 45.5q-55 0 -89 -45.5t-34 -119.5z" />
    <glyph glyph-name="Obreve" unicode="&#x14e;" horiz-adv-x="808" 
d="M404 750q-75 0 -120.5 36.5t-57.5 101.5h94q20 -53 84 -53q65 0 85 53h92q-11 -64 -57.5 -101t-119.5 -37zM41 352q0 158 102 259t261 101q160 0 261.5 -101t101.5 -259q0 -159 -102 -261.5t-261 -102.5t-261 102.5t-102 261.5zM195 352q0 -106 58.5 -171t150.5 -65
q93 0 151.5 65t58.5 171q0 105 -58.5 169t-151.5 64t-151 -64.5t-58 -168.5z" />
    <glyph glyph-name="obreve" unicode="&#x14f;" horiz-adv-x="614" 
d="M37 274q0 123 76.5 199t194.5 76q116 0 192 -76t76 -199q0 -132 -73.5 -209t-194.5 -77q-123 0 -197 77t-74 209zM185 273q0 -81 32.5 -128t90.5 -47q56 0 88 47.5t32 127.5q0 74 -33 119.5t-87 45.5q-55 0 -89 -45.5t-34 -119.5zM308 582q-77 0 -122 45.5t-53 124.5h92
q5 -38 27 -58.5t56 -20.5t55.5 20.5t26.5 58.5h90q-5 -79 -51.5 -124.5t-120.5 -45.5z" />
    <glyph glyph-name="Ohungarumlaut" unicode="&#x150;" horiz-adv-x="808" 
d="M41 352q0 158 102 259t261 101q160 0 261.5 -101t101.5 -259q0 -159 -102 -261.5t-261 -102.5t-261 102.5t-102 261.5zM195 352q0 -106 58.5 -171t150.5 -65q93 0 151.5 65t58.5 171q0 105 -58.5 169t-151.5 64t-151 -64.5t-58 -168.5zM230 755l113 150l114 -67l-120 -83
h-107zM425 755l113 150l114 -67l-120 -83h-107z" />
    <glyph glyph-name="ohungarumlaut" unicode="&#x151;" horiz-adv-x="614" 
d="M161 592l118 186l100 -62l-129 -124h-89zM356 592l118 186l99 -62l-128 -124h-89zM37 274q0 123 76.5 199t194.5 76q116 0 192 -76t76 -199q0 -132 -73.5 -209t-194.5 -77q-123 0 -197 77t-74 209zM185 273q0 -81 32.5 -128t90.5 -47q56 0 88 47.5t32 127.5
q0 74 -33 119.5t-87 45.5q-55 0 -89 -45.5t-34 -119.5z" />
    <glyph glyph-name="OE" unicode="&#x152;" horiz-adv-x="1175" 
d="M42 356q0 149 99.5 252.5t252.5 103.5q135 0 216 -94v82h509v-132h-358v-152h319v-121h-319v-163h363v-132h-514v80q-78 -92 -216 -92q-157 0 -254.5 104t-97.5 264zM195 356q0 -106 56 -173t151 -67t151.5 67.5t56.5 172.5q0 97 -58 162.5t-150 65.5t-149.5 -65.5
t-57.5 -162.5z" />
    <glyph glyph-name="oe" unicode="&#x153;" horiz-adv-x="973" 
d="M37 274q0 123 77 199.5t195 76.5q130 0 191 -99q68 99 196 99q114 0 177 -67t63 -178q0 -33 -6 -65h-352q8 -136 130 -136q76 0 148 46l63 -93q-99 -70 -217 -70q-138 0 -201 97q-64 -97 -192 -97q-122 0 -197 78t-75 209zM186 274q0 -82 32 -129t90 -47q56 0 88 47.5
t32 128.5q0 74 -32.5 119.5t-87.5 45.5t-88.5 -45.5t-33.5 -119.5zM579 324h217q0 120 -97 120q-45 0 -77 -31t-43 -89z" />
    <glyph glyph-name="Racute" unicode="&#x154;" horiz-adv-x="700" 
d="M68 0v700h308q139 0 204 -63.5t65 -158.5q0 -64 -32.5 -115t-95.5 -78l134 -285h-163l-108 261h-160v-261h-152zM220 372h154q58 0 88.5 29t30.5 75q0 47 -30.5 75t-87.5 28h-155v-207zM272 755l111 150l115 -67l-120 -83h-106z" />
    <glyph glyph-name="racute" unicode="&#x155;" horiz-adv-x="443" 
d="M169 592l128 186l98 -65l-134 -121h-92zM61 0v537h135l10 -83q56 98 153 98q38 0 66 -11l-21 -134q-33 12 -72 12q-74 0 -125 -96v-323h-146z" />
    <glyph glyph-name="Rcommaaccent" unicode="&#x156;" horiz-adv-x="700" 
d="M68 0v700h308q139 0 204 -63.5t65 -158.5q0 -64 -32.5 -115t-95.5 -78l134 -285h-163l-108 261h-160v-261h-152zM220 372h154q58 0 88.5 29t30.5 75q0 47 -30.5 75t-87.5 28h-155v-207zM258 -54q30 8 61 8q48 0 73 -21.5t26 -55.5q2 -52 -47 -99h-98q37 42 37 72
q0 13 -8 20t-21 6q-9 0 -23 -2v72z" />
    <glyph glyph-name="rcommaaccent" unicode="&#x157;" horiz-adv-x="443" 
d="M58 -54q32 8 60 8q49 0 74 -21.5t25 -55.5q3 -49 -47 -99h-96q35 43 35 72q0 13 -8 20t-21 6q-10 0 -22 -2v72zM61 0v537h135l10 -83q56 98 153 98q38 0 66 -11l-21 -134q-33 12 -72 12q-74 0 -125 -96v-323h-146z" />
    <glyph glyph-name="Rcaron" unicode="&#x158;" horiz-adv-x="700" 
d="M68 0v700h308q139 0 204 -63.5t65 -158.5q0 -64 -32.5 -115t-95.5 -78l134 -285h-163l-108 261h-160v-261h-152zM220 372h154q58 0 88.5 29t30.5 75q0 47 -30.5 75t-87.5 28h-155v-207zM268 755l-116 133h99l87 -64h2l88 64h100l-117 -133h-143z" />
    <glyph glyph-name="rcaron" unicode="&#x159;" horiz-adv-x="443" 
d="M161 592l-117 160h107l89 -90h3l88 90h108l-117 -160h-161zM61 0v537h135l10 -83q56 98 153 98q38 0 66 -11l-21 -134q-33 12 -72 12q-74 0 -125 -96v-323h-146z" />
    <glyph glyph-name="Sacute" unicode="&#x15a;" horiz-adv-x="631" 
d="M38 65l72 118q106 -63 206 -63q55 0 84.5 20.5t29.5 55.5q0 26 -21 44t-54 28.5t-73.5 20t-81 24.5t-73.5 36.5t-54 61t-21 93.5q0 89 69.5 148.5t187.5 59.5q128 0 252 -59l-56 -119q-92 46 -189 46q-49 0 -78 -21t-29 -53q0 -26 21 -43.5t54 -27.5t73.5 -19t81 -24
t73.5 -37t54 -62t21 -95q0 -93 -70 -151.5t-200 -58.5q-75 0 -150.5 22t-128.5 55zM250 755l111 150l115 -67l-120 -83h-106z" />
    <glyph glyph-name="sacute" unicode="&#x15b;" horiz-adv-x="509" 
d="M182 592l128 186l98 -65l-134 -121h-92zM31 46l56 102q88 -49 166 -49q80 0 80 51q0 24 -30 39t-72.5 25t-85 25t-72.5 51t-30 92q0 78 61.5 122.5t151.5 44.5q98 0 200 -47l-52 -102q-78 38 -146 38q-72 0 -72 -50q0 -20 21.5 -33.5t53.5 -20t69 -18.5t69 -27
t53.5 -48.5t21.5 -81.5q0 -81 -60.5 -126t-158.5 -45q-117 0 -224 58z" />
    <glyph glyph-name="Scircumflex" unicode="&#x15c;" horiz-adv-x="631" 
d="M38 65l72 118q106 -63 206 -63q55 0 84.5 20.5t29.5 55.5q0 26 -21 44t-54 28.5t-73.5 20t-81 24.5t-73.5 36.5t-54 61t-21 93.5q0 89 69.5 148.5t187.5 59.5q128 0 252 -59l-56 -119q-92 46 -189 46q-49 0 -78 -21t-29 -53q0 -26 21 -43.5t54 -27.5t73.5 -19t81 -24
t73.5 -37t54 -62t21 -95q0 -93 -70 -151.5t-200 -58.5q-75 0 -150.5 22t-128.5 55zM130 755l117 133h142l117 -133h-99l-88 65h-1l-89 -65h-99z" />
    <glyph glyph-name="scircumflex" unicode="&#x15d;" horiz-adv-x="509" 
d="M64 592l117 160h161l117 -160h-108l-88 90h-3l-89 -90h-107zM31 46l56 102q88 -49 166 -49q80 0 80 51q0 24 -30 39t-72.5 25t-85 25t-72.5 51t-30 92q0 78 61.5 122.5t151.5 44.5q98 0 200 -47l-52 -102q-78 38 -146 38q-72 0 -72 -50q0 -20 21.5 -33.5t53.5 -20
t69 -18.5t69 -27t53.5 -48.5t21.5 -81.5q0 -81 -60.5 -126t-158.5 -45q-117 0 -224 58z" />
    <glyph glyph-name="Scedilla" unicode="&#x15e;" horiz-adv-x="631" 
d="M151 -172q96 76 121 162q-134 12 -234 75l72 118q106 -63 206 -63q55 0 84.5 20.5t29.5 55.5q0 26 -21 44t-54 28.5t-73.5 20t-81 24.5t-73.5 36.5t-54 61t-21 93.5q0 89 69.5 148.5t187.5 59.5q128 0 252 -59l-56 -119q-92 46 -189 46q-49 0 -78 -21t-29 -53
q0 -26 21 -43.5t54 -27.5t73.5 -19t81 -24t73.5 -37t54 -62t21 -95q0 -85 -59 -142t-169 -66q-15 -127 -108 -212z" />
    <glyph glyph-name="scedilla" unicode="&#x15f;" horiz-adv-x="509" 
d="M84 -172q97 76 121 163q-91 9 -174 55l56 102q88 -49 166 -49q80 0 80 51q0 24 -30 39t-72.5 25t-85 25t-72.5 51t-30 92q0 78 61.5 122.5t151.5 44.5q98 0 200 -47l-52 -102q-78 38 -146 38q-72 0 -72 -50q0 -20 21.5 -33.5t53.5 -20t69 -18.5t69 -27t53.5 -48.5
t21.5 -81.5q0 -73 -49.5 -117t-132.5 -52q-15 -127 -108 -212z" />
    <glyph glyph-name="Scaron" unicode="&#x160;" horiz-adv-x="631" 
d="M38 65l72 118q106 -63 206 -63q55 0 84.5 20.5t29.5 55.5q0 26 -21 44t-54 28.5t-73.5 20t-81 24.5t-73.5 36.5t-54 61t-21 93.5q0 89 69.5 148.5t187.5 59.5q128 0 252 -59l-56 -119q-92 46 -189 46q-49 0 -78 -21t-29 -53q0 -26 21 -43.5t54 -27.5t73.5 -19t81 -24
t73.5 -37t54 -62t21 -95q0 -93 -70 -151.5t-200 -58.5q-75 0 -150.5 22t-128.5 55zM246 755l-116 133h99l87 -64h2l88 64h100l-117 -133h-143z" />
    <glyph glyph-name="scaron" unicode="&#x161;" horiz-adv-x="509" 
d="M181 592l-117 160h107l89 -90h3l88 90h108l-117 -160h-161zM31 46l56 102q88 -49 166 -49q80 0 80 51q0 24 -30 39t-72.5 25t-85 25t-72.5 51t-30 92q0 78 61.5 122.5t151.5 44.5q98 0 200 -47l-52 -102q-78 38 -146 38q-72 0 -72 -50q0 -20 21.5 -33.5t53.5 -20
t69 -18.5t69 -27t53.5 -48.5t21.5 -81.5q0 -81 -60.5 -126t-158.5 -45q-117 0 -224 58z" />
    <glyph glyph-name="Tcedilla" unicode="&#x162;" horiz-adv-x="665" 
d="M283 -41h93q-22 -107 -102 -181l-100 50q80 65 109 131zM257 0v566h-231v134h614v-134h-232v-566h-151z" />
    <glyph glyph-name="tcedilla" unicode="&#x163;" horiz-adv-x="437" 
d="M170 -41h93q-22 -107 -102 -181l-100 50q80 65 109 131zM101 163v270h-85v104h85v134h147v-134h147v-104h-147v-267q0 -60 49 -60q39 0 73 24l54 -88q-69 -54 -157 -54q-84 0 -125 42.5t-41 132.5z" />
    <glyph glyph-name="Tcaron" unicode="&#x164;" horiz-adv-x="665" 
d="M261 755l-116 133h99l87 -64h2l88 64h100l-117 -133h-143zM257 0v566h-231v134h614v-134h-232v-566h-151z" />
    <glyph glyph-name="tcaron" unicode="&#x165;" horiz-adv-x="437" 
d="M308 671v72q32 8 61 8q48 0 73 -21.5t25 -55.5q2 -51 -46 -99h-98q37 44 37 72q0 27 -30 27q-5 0 -12.5 -1.5t-9.5 -1.5zM101 163v270h-85v104h85v134h147v-134h147v-104h-147v-267q0 -60 49 -60q39 0 73 24l54 -88q-69 -54 -157 -54q-84 0 -125 42.5t-41 132.5z" />
    <glyph glyph-name="Tbar" unicode="&#x166;" horiz-adv-x="665" 
d="M128 308v87h129v171h-231v134h614v-134h-232v-171h129v-87h-129v-308h-151v308h-129z" />
    <glyph glyph-name="tbar" unicode="&#x167;" horiz-adv-x="437" 
d="M24 251v86h77v96h-85v104h85v134h147v-134h147v-104h-147v-98h131v-84h-131v-85q0 -60 49 -60q39 0 73 24l54 -88q-69 -54 -157 -54q-84 0 -125 42.5t-41 132.5v88h-77z" />
    <glyph glyph-name="Utilde" unicode="&#x168;" horiz-adv-x="721" 
d="M185 756q-7 65 22.5 102.5t84.5 37.5q36 0 75.5 -26t55.5 -26q37 0 32 43h82q7 -65 -23 -103t-85 -38q-36 0 -75 26t-56 26q-37 0 -31 -42h-82zM65 266v434h153v-434q0 -70 39 -109.5t104 -39.5q64 0 103.5 39.5t39.5 109.5v434h152v-434q0 -136 -80.5 -207t-214.5 -71
t-215 71t-81 207z" />
    <glyph glyph-name="utilde" unicode="&#x169;" horiz-adv-x="598" 
d="M58 182v355h147v-358q0 -81 69 -81q64 0 117 61v378h147v-537h-136l-9 62q-72 -74 -164 -74q-171 0 -171 194zM123 604q-7 67 23 105t85 38q35 0 73.5 -26.5t54.5 -26.5q37 0 31 46h82q7 -67 -22.5 -105t-84.5 -38q-35 0 -73.5 26t-54.5 26q-36 0 -32 -45h-82z" />
    <glyph glyph-name="Umacron" unicode="&#x16a;" horiz-adv-x="721" 
d="M195 776v90h332v-90h-332zM65 266v434h153v-434q0 -70 39 -109.5t104 -39.5q64 0 103.5 39.5t39.5 109.5v434h152v-434q0 -136 -80.5 -207t-214.5 -71t-215 71t-81 207z" />
    <glyph glyph-name="umacron" unicode="&#x16b;" horiz-adv-x="598" 
d="M58 182v355h147v-358q0 -81 69 -81q64 0 117 61v378h147v-537h-136l-9 62q-72 -74 -164 -74q-171 0 -171 194zM134 627v90h328v-90h-328z" />
    <glyph glyph-name="Ubreve" unicode="&#x16c;" horiz-adv-x="721" 
d="M360 750q-75 0 -120.5 36.5t-57.5 101.5h94q20 -53 84 -53q65 0 85 53h92q-11 -64 -57.5 -101t-119.5 -37zM65 266v434h153v-434q0 -70 39 -109.5t104 -39.5q64 0 103.5 39.5t39.5 109.5v434h152v-434q0 -136 -80.5 -207t-214.5 -71t-215 71t-81 207z" />
    <glyph glyph-name="ubreve" unicode="&#x16d;" horiz-adv-x="598" 
d="M58 182v355h147v-358q0 -81 69 -81q64 0 117 61v378h147v-537h-136l-9 62q-72 -74 -164 -74q-171 0 -171 194zM299 582q-77 0 -122 45.5t-53 124.5h92q5 -38 27 -58.5t56 -20.5t55.5 20.5t26.5 58.5h90q-5 -79 -51.5 -124.5t-120.5 -45.5z" />
    <glyph glyph-name="Uring" unicode="&#x16e;" horiz-adv-x="721" 
d="M65 266v434h153v-434q0 -70 39 -109.5t104 -39.5q64 0 103.5 39.5t39.5 109.5v434h152v-434q0 -136 -80.5 -207t-214.5 -71t-215 71t-81 207zM361 748q-50 0 -85 33t-35 82q0 50 35 83t85 33q51 0 85.5 -33t34.5 -83q0 -49 -34.5 -82t-85.5 -33zM361 801q26 0 44 18
t18 44q0 27 -18 45t-44 18t-44 -18t-18 -45q0 -25 18.5 -43.5t43.5 -18.5z" />
    <glyph glyph-name="uring" unicode="&#x16f;" horiz-adv-x="598" 
d="M298 586q-50 0 -85 32.5t-35 81.5q0 50 35 83t85 33t85 -33t35 -83q0 -49 -35 -81.5t-85 -32.5zM298 638q26 0 44 18t18 44q0 27 -18 45t-44 18t-44 -18t-18 -45q0 -26 18 -44t44 -18zM58 182v355h147v-358q0 -81 69 -81q64 0 117 61v378h147v-537h-136l-9 62
q-72 -74 -164 -74q-171 0 -171 194z" />
    <glyph glyph-name="Uhungarumlaut" unicode="&#x170;" horiz-adv-x="721" 
d="M65 266v434h153v-434q0 -70 39 -109.5t104 -39.5q64 0 103.5 39.5t39.5 109.5v434h152v-434q0 -136 -80.5 -207t-214.5 -71t-215 71t-81 207zM185 755l113 150l114 -67l-120 -83h-107zM380 755l113 150l114 -67l-120 -83h-107z" />
    <glyph glyph-name="uhungarumlaut" unicode="&#x171;" horiz-adv-x="598" 
d="M58 182v355h147v-358q0 -81 69 -81q64 0 117 61v378h147v-537h-136l-9 62q-72 -74 -164 -74q-171 0 -171 194zM146 592l118 186l100 -62l-129 -124h-89zM341 592l118 186l99 -62l-128 -124h-89z" />
    <glyph glyph-name="Uogonek" unicode="&#x172;" horiz-adv-x="721" 
d="M65 266v434h153v-434q0 -70 39 -109.5t104 -39.5q64 0 103.5 39.5t39.5 109.5v434h152v-434q0 -175 -134 -244q-89 -47 -89 -92q0 -17 12 -26.5t33 -9.5q27 0 49 11l4 -2v-98q-35 -12 -78 -12q-57 0 -90 27.5t-33 74.5q0 49 41 93h-10q-134 0 -215 71t-81 207z" />
    <glyph glyph-name="uogonek" unicode="&#x173;" horiz-adv-x="598" 
d="M58 182v355h147v-358q0 -81 69 -81q64 0 117 61v378h147v-537q-82 -24 -82 -70q0 -36 43 -36q25 0 49 11l3 -2v-98q-35 -12 -78 -12q-55 0 -87.5 27.5t-32.5 73.5q0 64 61 106h-12l-9 62q-72 -74 -164 -74q-171 0 -171 194z" />
    <glyph glyph-name="Wcircumflex" unicode="&#x174;" horiz-adv-x="1071" 
d="M242 0l-220 700h158l146 -484h2l139 484h138l139 -484h2l146 484h158l-221 -700h-155l-137 475h-2l-138 -475h-155zM348 755l117 133h142l117 -133h-99l-88 65h-1l-89 -65h-99z" />
    <glyph glyph-name="wcircumflex" unicode="&#x175;" horiz-adv-x="845" 
d="M225 592l117 160h161l117 -160h-108l-88 90h-3l-89 -90h-107zM189 0l-175 537h143l108 -348h2l97 348h118l98 -348h2l107 348h141l-175 -537h-133l-99 330h-2l-99 -330h-133z" />
    <glyph glyph-name="Ycircumflex" unicode="&#x176;" horiz-adv-x="703" 
d="M275 0v281l-262 419h175l163 -270h2l164 270h173l-262 -419v-281h-153zM164 755l117 133h142l117 -133h-99l-88 65h-1l-89 -65h-99z" />
    <glyph glyph-name="ycircumflex" unicode="&#x177;" horiz-adv-x="556" 
d="M49 -76q47 -17 73 -17q28 0 44.5 12t26.5 42l17 45l-195 531h147l118 -354h2l117 354h142l-200 -567q-37 -103 -85.5 -141.5t-124.5 -38.5q-60 0 -122 20zM81 592l117 160h161l117 -160h-108l-88 90h-3l-89 -90h-107z" />
    <glyph glyph-name="Ydieresis" unicode="&#x178;" horiz-adv-x="703" 
d="M275 0v281l-262 419h175l163 -270h2l164 270h173l-262 -419v-281h-153zM412 764v115h116v-115h-116zM177 764v115h116v-115h-116z" />
    <glyph glyph-name="Zacute" unicode="&#x179;" horiz-adv-x="651" 
d="M46 0v113l354 452h-354v135h553v-113l-353 -451h366v-136h-566zM254 755l111 150l115 -67l-120 -83h-106z" />
    <glyph glyph-name="zacute" unicode="&#x17a;" horiz-adv-x="522" 
d="M192 592l128 186l98 -65l-134 -121h-92zM42 0v96l255 329h-248v112h427v-98l-252 -328h262v-111h-444z" />
    <glyph glyph-name="Zdotaccent" unicode="&#x17b;" horiz-adv-x="651" 
d="M259 764v115h117v-115h-117zM46 0v113l354 452h-354v135h553v-113l-353 -451h366v-136h-566z" />
    <glyph glyph-name="zdotaccent" unicode="&#x17c;" horiz-adv-x="522" 
d="M42 0v96l255 329h-248v112h427v-98l-252 -328h262v-111h-444zM203 615v114h115v-114h-115z" />
    <glyph glyph-name="Zcaron" unicode="&#x17d;" horiz-adv-x="651" 
d="M253 755l-116 133h99l87 -64h2l88 64h100l-117 -133h-143zM46 0v113l354 452h-354v135h553v-113l-353 -451h366v-136h-566z" />
    <glyph glyph-name="zcaron" unicode="&#x17e;" horiz-adv-x="522" 
d="M181 592l-117 160h107l89 -90h3l88 90h108l-117 -160h-161zM42 0v96l255 329h-248v112h427v-98l-252 -328h262v-111h-444z" />
    <glyph glyph-name="Schwa" unicode="&#x18f;" horiz-adv-x="716" 
d="M52 371h468q-4 100 -57 155.5t-136 55.5q-88 0 -167 -57l-79 105q116 82 249 82q156 0 250.5 -95.5t94.5 -258.5q0 -170 -94 -270t-245 -100q-140 0 -214.5 85t-74.5 226q0 30 5 72zM337 112q70 0 116 45t60 124h-322q1 -83 41 -126t105 -43z" />
    <glyph glyph-name="florin" unicode="&#x192;" horiz-adv-x="429" 
d="M-32 -84q33 -12 65 -12q59 0 59 78v257h-85v105h85v25q0 208 221 208q62 0 124 -23l-36 -103q-46 14 -79 14q-80 0 -80 -93v-29h134v-104h-134v-257q0 -103 -46.5 -147t-140.5 -44q-63 0 -120 22z" />
    <glyph glyph-name="Khook" unicode="&#x198;" horiz-adv-x="692" 
d="M68 0v700h152v-352q37 15 62 48.5t50 85.5q34 75 67 117.5t90.5 70t145.5 34.5v-120q-73 -10 -110.5 -46.5t-72.5 -117.5l-2 -4l225 -416h-171l-146 287q-50 -43 -138 -69v-218h-152z" />
    <glyph glyph-name="khook" unicode="&#x199;" horiz-adv-x="585" 
d="M63 0v568q0 194 208 194v-118q-31 0 -46 -17t-15 -59v-266l195 235h155l-166 -190l179 -347h-166l-111 236l-86 -99v-137h-147z" />
    <glyph glyph-name="barredO" unicode="&#x19f;" horiz-adv-x="808" 
d="M41 352q0 158 102 259t261 101q160 0 261.5 -101t101.5 -259q0 -159 -102 -261.5t-261 -102.5t-261 102.5t-102 261.5zM404 116q83 0 139.5 52t67.5 141h-414q12 -89 68 -141t139 -52zM404 585q-83 0 -139.5 -52t-67.5 -140h414q-11 88 -67.5 140t-139.5 52z" />
    <glyph glyph-name="Ezh" unicode="&#x1b7;" horiz-adv-x="636" 
d="M100 295l268 270h-333v135h553v-108l-306 -292q52 12 92 12q99 0 172 -70.5t73 -178.5q0 -90 -47.5 -153t-122 -91.5t-168.5 -28.5q-144 0 -264 61l53 110q102 -51 206 -51q86 0 136 39.5t50 115.5q0 70 -49 108t-130 38q-64 0 -121 -15z" />
    <glyph glyph-name="Acaron" unicode="&#x1cd;" horiz-adv-x="713" 
d="M17 0l253 700h172l253 -700h-162l-44 131h-266l-43 -131h-163zM354 532l-93 -284h189l-94 284h-2zM284 755l-116 133h99l87 -64h2l88 64h100l-117 -133h-143z" />
    <glyph glyph-name="acaron" unicode="&#x1ce;" horiz-adv-x="566" 
d="M39 130q0 170 310 192v47q0 64 -74 64q-62 0 -171 -53l-52 108q122 61 229 61q214 0 214 -185v-224q0 -42 44 -42v-101q-76 0 -113.5 14t-59.5 52q-70 -75 -167 -75q-71 0 -115.5 39.5t-44.5 102.5zM185 147q0 -24 17 -39t45 -15q62 0 102 45v103q-164 -10 -164 -94z
M206 592l-117 160h107l89 -90h3l88 90h108l-117 -160h-161z" />
    <glyph glyph-name="Icaron" unicode="&#x1cf;" horiz-adv-x="287" 
d="M68 0v700h152v-700h-152zM72 755l-116 133h99l87 -64h2l88 64h100l-117 -133h-143z" />
    <glyph glyph-name="icaron" unicode="&#x1d0;" horiz-adv-x="272" 
d="M55 592l-117 160h107l89 -90h3l88 90h108l-117 -160h-161zM63 0v529h147v-529h-147z" />
    <glyph glyph-name="Ocaron" unicode="&#x1d1;" horiz-adv-x="808" 
d="M332 755l-116 133h99l87 -64h2l88 64h100l-117 -133h-143zM41 352q0 158 102 259t261 101q160 0 261.5 -101t101.5 -259q0 -159 -102 -261.5t-261 -102.5t-261 102.5t-102 261.5zM195 352q0 -106 58.5 -171t150.5 -65q93 0 151.5 65t58.5 171q0 105 -58.5 169t-151.5 64
t-151 -64.5t-58 -168.5z" />
    <glyph glyph-name="ocaron" unicode="&#x1d2;" horiz-adv-x="614" 
d="M226 592l-117 160h107l89 -90h3l88 90h108l-117 -160h-161zM37 274q0 123 76.5 199t194.5 76q116 0 192 -76t76 -199q0 -132 -73.5 -209t-194.5 -77q-123 0 -197 77t-74 209zM185 273q0 -81 32.5 -128t90.5 -47q56 0 88 47.5t32 127.5q0 74 -33 119.5t-87 45.5
q-55 0 -89 -45.5t-34 -119.5z" />
    <glyph glyph-name="Ucaron" unicode="&#x1d3;" horiz-adv-x="721" 
d="M289 755l-116 133h99l87 -64h2l88 64h100l-117 -133h-143zM65 266v434h153v-434q0 -70 39 -109.5t104 -39.5q64 0 103.5 39.5t39.5 109.5v434h152v-434q0 -136 -80.5 -207t-214.5 -71t-215 71t-81 207z" />
    <glyph glyph-name="ucaron" unicode="&#x1d4;" horiz-adv-x="598" 
d="M218 592l-117 160h107l89 -90h3l88 90h108l-117 -160h-161zM58 182v355h147v-358q0 -81 69 -81q64 0 117 61v378h147v-537h-136l-9 62q-72 -74 -164 -74q-171 0 -171 194z" />
    <glyph glyph-name="Adieresismacron" unicode="&#x1de;" horiz-adv-x="713" 
d="M17 0l253 700h172l253 -700h-162l-44 131h-266l-43 -131h-163zM354 532l-93 -284h189l-94 284h-2zM416 755v115h116v-115h-116zM181 755v115h116v-115h-116zM190 919v90h332v-90h-332z" />
    <glyph glyph-name="adieresismacron" unicode="&#x1df;" horiz-adv-x="566" 
d="M39 130q0 170 310 192v47q0 64 -74 64q-62 0 -171 -53l-52 108q122 61 229 61q214 0 214 -185v-224q0 -42 44 -42v-101q-76 0 -113.5 14t-59.5 52q-70 -75 -167 -75q-71 0 -115.5 39.5t-44.5 102.5zM185 147q0 -24 17 -39t45 -15q62 0 102 45v103q-164 -10 -164 -94z
M343 615v114h115v-114h-115zM114 615v114h117v-114h-117zM122 798v90h328v-90h-328z" />
    <glyph glyph-name="AEmacron" unicode="&#x1e2;" horiz-adv-x="1059" 
d="M562 0l-34 131h-289l-55 -131h-172l315 700h676v-132h-436l42 -152h355v-121h-321l45 -163h320v-132h-446zM419 557l-128 -304h206zM335 776v90h332v-90h-332z" />
    <glyph glyph-name="aemacron" unicode="&#x1e3;" horiz-adv-x="894" 
d="M407 82q-81 -95 -203 -95q-75 0 -119.5 39t-45.5 103q-1 87 78.5 133.5t232.5 56.5v51q0 63 -72 63q-63 0 -174 -53l-52 108q131 62 228 62q122 0 165 -73q68 73 175 73q112 0 174.5 -67.5t62.5 -177.5q0 -28 -7 -65h-352q9 -136 132 -136q73 0 147 46l62 -93
q-95 -70 -217 -70q-141 0 -215 95zM282 627v90h328v-90h-328zM500 324h217q0 120 -96 120q-46 0 -78.5 -31t-42.5 -89zM186 147q0 -24 17.5 -39.5t44.5 -15.5q73 0 117 66q-12 38 -15 82q-164 -8 -164 -93z" />
    <glyph glyph-name="Gstroke" unicode="&#x1e4;" horiz-adv-x="739" 
d="M41 354q0 155 100.5 256.5t264.5 101.5q141 0 258 -86l-79 -102q-85 60 -175 60q-97 0 -156 -64.5t-59 -165.5q0 -110 57 -174t158 -64q71 0 122 30v140h-158v103h296v-120h81v-90h-81v-110q-111 -81 -265 -81q-165 0 -264.5 101.5t-99.5 264.5z" />
    <glyph glyph-name="gstroke" unicode="&#x1e5;" horiz-adv-x="595" 
d="M-28 -64v87h92q11 9 30 19q-33 30 -33 72q0 55 57 89q-78 55 -78 150q0 87 66 141.5t166 54.5q90 0 153 -46q59 46 151 46v-97q-61 0 -96 -10q22 -41 22 -89q0 -90 -68.5 -143t-161.5 -53q-41 0 -82 11q-21 -9 -21 -30q0 -20 31 -28.5t115 -11.5q171 -6 223 -75h68v-87
h-46q-10 -146 -273 -146q-129 0 -200 36t-71 105v5h-44zM272 254q41 0 66.5 27t25.5 72t-25.5 72.5t-66.5 27.5t-66.5 -27.5t-25.5 -72.5t25.5 -72t66.5 -27zM297 -18q-60 1 -107 14q-37 -22 -37 -59q0 -29 30.5 -42.5t99.5 -13.5q143 0 143 50q0 27 -27 37.5t-102 13.5z
" />
    <glyph glyph-name="Gcaron" unicode="&#x1e6;" horiz-adv-x="732" 
d="M309 755l-116 133h99l87 -64h2l88 64h100l-117 -133h-143zM41 354q0 155 100.5 256.5t264.5 101.5q141 0 258 -86l-79 -102q-85 60 -175 60q-97 0 -156 -64.5t-59 -165.5q0 -110 57 -174t158 -64q71 0 122 30v140h-158v103h296v-320q-111 -81 -265 -81
q-165 0 -264.5 101.5t-99.5 264.5z" />
    <glyph glyph-name="gcaron" unicode="&#x1e7;" horiz-adv-x="595" 
d="M220 592l-117 160h107l89 -90h3l88 90h108l-117 -160h-161zM16 -69q0 70 78 111q-33 30 -33 72q0 55 57 89q-78 55 -78 150q0 87 66 141.5t166 54.5q90 0 153 -46q59 46 151 46v-97q-61 0 -96 -10q22 -41 22 -89q0 -90 -68.5 -143t-161.5 -53q-41 0 -82 11
q-21 -9 -21 -30q0 -20 31 -28.5t115 -11.5q122 -5 184 -41t62 -110q0 -75 -68.5 -116t-205.5 -41q-129 0 -200 36t-71 105zM272 254q41 0 66.5 27t25.5 72t-25.5 72.5t-66.5 27.5t-66.5 -27.5t-25.5 -72.5t25.5 -72t66.5 -27zM297 -18q-60 1 -107 14q-37 -22 -37 -59
q0 -29 30.5 -42.5t99.5 -13.5q143 0 143 50q0 27 -27 37.5t-102 13.5z" />
    <glyph glyph-name="Kcaron" unicode="&#x1e8;" horiz-adv-x="692" 
d="M68 0v700h152v-327l266 327h167l-219 -261l241 -439h-171l-167 323l-117 -140v-183h-152zM274 755l-116 133h99l87 -64h2l88 64h100l-117 -133h-143z" />
    <glyph glyph-name="kcaron" unicode="&#x1e9;" horiz-adv-x="585" 
d="M63 0v755h147v-453l196 235h154l-166 -190l179 -347h-166l-110 236l-87 -99v-137h-147zM67 797l-116 133h99l87 -64h2l88 64h100l-117 -133h-143z" />
    <glyph glyph-name="Oogonek" unicode="&#x1ea;" horiz-adv-x="808" 
d="M41 352q0 158 102 259t261 101q160 0 261.5 -101t101.5 -259q0 -110 -50 -194.5t-137 -129.5q-47 -23 -73 -45.5t-26 -52.5q0 -36 45 -36q27 0 49 11l3 -2v-98q-33 -12 -77 -12q-57 0 -90 27.5t-33 74.5q0 48 40 93h-14q-159 0 -261 102.5t-102 261.5zM195 352
q0 -106 58.5 -171t150.5 -65q93 0 151.5 65t58.5 171q0 105 -58.5 169t-151.5 64t-151 -64.5t-58 -168.5z" />
    <glyph glyph-name="oogonek" unicode="&#x1eb;" horiz-adv-x="614" 
d="M37 274q0 123 76.5 199t194.5 76q116 0 192 -76t76 -199q0 -85 -32.5 -149.5t-89.5 -98.5q-52 -32 -73.5 -52.5t-21.5 -44.5q0 -36 45 -36q29 0 49 11l3 -3v-96q-35 -12 -76 -12q-57 0 -90 27.5t-33 74.5t41 93h-1q-118 4 -189 81t-71 205zM185 273q0 -81 32.5 -128
t90.5 -47q56 0 88 47.5t32 127.5q0 74 -33 119.5t-87 45.5q-55 0 -89 -45.5t-34 -119.5z" />
    <glyph glyph-name="Oogonekmacron" unicode="&#x1ec;" horiz-adv-x="808" 
d="M41 352q0 158 102 259t261 101q160 0 261.5 -101t101.5 -259q0 -110 -50 -194.5t-137 -129.5q-47 -23 -73 -45.5t-26 -52.5q0 -36 45 -36q27 0 49 11l3 -2v-98q-33 -12 -77 -12q-57 0 -90 27.5t-33 74.5q0 48 40 93h-14q-159 0 -261 102.5t-102 261.5zM195 352
q0 -106 58.5 -171t150.5 -65q93 0 151.5 65t58.5 171q0 105 -58.5 169t-151.5 64t-151 -64.5t-58 -168.5zM239 776v90h332v-90h-332z" />
    <glyph glyph-name="oogonekmacron" unicode="&#x1ed;" horiz-adv-x="614" 
d="M143 627v90h328v-90h-328zM37 274q0 123 76.5 199t194.5 76q116 0 192 -76t76 -199q0 -85 -32.5 -149.5t-89.5 -98.5q-52 -32 -73.5 -52.5t-21.5 -44.5q0 -36 45 -36q29 0 49 11l3 -3v-96q-35 -12 -76 -12q-57 0 -90 27.5t-33 74.5t41 93h-1q-118 4 -189 81t-71 205z
M185 273q0 -81 32.5 -128t90.5 -47q56 0 88 47.5t32 127.5q0 74 -33 119.5t-87 45.5q-55 0 -89 -45.5t-34 -119.5z" />
    <glyph glyph-name="Ezhcaron" unicode="&#x1ee;" horiz-adv-x="636" 
d="M242 755l-116 133h99l87 -64h2l88 64h100l-117 -133h-143zM100 295l268 270h-333v135h553v-108l-306 -292q52 12 92 12q99 0 172 -70.5t73 -178.5q0 -90 -47.5 -153t-122 -91.5t-168.5 -28.5q-144 0 -264 61l53 110q102 -51 206 -51q86 0 136 39.5t50 115.5q0 70 -49 108
t-130 38q-64 0 -121 -15z" />
    <glyph glyph-name="ezhcaron" unicode="&#x1ef;" horiz-adv-x="536" 
d="M183 594l-117 160h107l89 -90h3l88 90h108l-117 -160h-161zM104 215l206 210h-268v112h441v-93l-226 -224q33 5 67 5q80 0 136.5 -55.5t56.5 -142.5q0 -112 -80 -174t-201 -62t-226 56l48 108q91 -48 174 -48q66 0 104 33t38 90q0 55 -38 80.5t-99 25.5q-47 0 -84 -6z
" />
    <glyph glyph-name="jcaron" unicode="&#x1f0;" horiz-adv-x="284" 
d="M74 -13v542h147v-534q0 -205 -187 -205q-52 0 -108 20l31 108q30 -10 56 -10q31 0 46 18t15 61zM66 592l-117 160h107l89 -90h3l88 90h108l-117 -160h-161z" />
    <glyph glyph-name="Gacute" unicode="&#x1f4;" horiz-adv-x="732" 
d="M313 755l111 150l115 -67l-120 -83h-106zM41 354q0 155 100.5 256.5t264.5 101.5q141 0 258 -86l-79 -102q-85 60 -175 60q-97 0 -156 -64.5t-59 -165.5q0 -110 57 -174t158 -64q71 0 122 30v140h-158v103h296v-320q-111 -81 -265 -81q-165 0 -264.5 101.5t-99.5 264.5z
" />
    <glyph glyph-name="gacute" unicode="&#x1f5;" horiz-adv-x="595" 
d="M219 592l128 186l98 -65l-134 -121h-92zM16 -69q0 70 78 111q-33 30 -33 72q0 55 57 89q-78 55 -78 150q0 87 66 141.5t166 54.5q90 0 153 -46q59 46 151 46v-97q-61 0 -96 -10q22 -41 22 -89q0 -90 -68.5 -143t-161.5 -53q-41 0 -82 11q-21 -9 -21 -30q0 -20 31 -28.5
t115 -11.5q122 -5 184 -41t62 -110q0 -75 -68.5 -116t-205.5 -41q-129 0 -200 36t-71 105zM272 254q41 0 66.5 27t25.5 72t-25.5 72.5t-66.5 27.5t-66.5 -27.5t-25.5 -72.5t25.5 -72t66.5 -27zM297 -18q-60 1 -107 14q-37 -22 -37 -59q0 -29 30.5 -42.5t99.5 -13.5
q143 0 143 50q0 27 -27 37.5t-102 13.5z" />
    <glyph glyph-name="Aringacute" unicode="&#x1fa;" horiz-adv-x="713" 
d="M17 0l248 686q-29 32 -29 76q0 50 35 83t85 33q51 0 85.5 -33t34.5 -83q0 -45 -29 -77l248 -685h-162l-44 131h-266l-43 -131h-163zM354 532l-93 -284h189l-94 284h-2zM289 901l111 150l115 -67l-120 -83h-106zM356 700q26 0 44 18t18 44q0 27 -18 45t-44 18t-44 -18
t-18 -45q0 -25 16.5 -42.5t40.5 -19.5h5z" />
    <glyph glyph-name="aringacute" unicode="&#x1fb;" horiz-adv-x="566" 
d="M39 130q0 170 310 192v47q0 64 -74 64q-62 0 -171 -53l-52 108q122 61 229 61q214 0 214 -185v-224q0 -42 44 -42v-101q-76 0 -113.5 14t-59.5 52q-70 -75 -167 -75q-71 0 -115.5 39.5t-44.5 102.5zM185 147q0 -24 17 -39t45 -15q62 0 102 45v103q-164 -10 -164 -94z
M215 845l128 186l98 -65l-134 -121h-92zM286 586q-50 0 -85 32.5t-35 81.5q0 50 35 83t85 33t85 -33t35 -83q0 -49 -35 -81.5t-85 -32.5zM286 638q26 0 44 18t18 44q0 27 -18 45t-44 18t-44 -18t-18 -45q0 -26 18 -44t44 -18z" />
    <glyph glyph-name="AEacute" unicode="&#x1fc;" horiz-adv-x="1059" 
d="M562 0l-34 131h-289l-55 -131h-172l315 700h676v-132h-436l42 -152h355v-121h-321l45 -163h320v-132h-446zM419 557l-128 -304h206zM434 755l111 150l115 -67l-120 -83h-106z" />
    <glyph glyph-name="aeacute" unicode="&#x1fd;" horiz-adv-x="894" 
d="M407 82q-81 -95 -203 -95q-75 0 -119.5 39t-45.5 103q-1 87 78.5 133.5t232.5 56.5v51q0 63 -72 63q-63 0 -174 -53l-52 108q131 62 228 62q122 0 165 -73q68 73 175 73q112 0 174.5 -67.5t62.5 -177.5q0 -28 -7 -65h-352q9 -136 132 -136q73 0 147 46l62 -93
q-95 -70 -217 -70q-141 0 -215 95zM500 324h217q0 120 -96 120q-46 0 -78.5 -31t-42.5 -89zM186 147q0 -24 17.5 -39.5t44.5 -15.5q73 0 117 66q-12 38 -15 82q-164 -8 -164 -93zM380 592l128 186l98 -65l-134 -121h-92z" />
    <glyph glyph-name="Oslashacute" unicode="&#x1fe;" horiz-adv-x="808" 
d="M41 352q0 158 102 259t261 101q112 0 198 -53l61 77l62 -50l-61 -74q103 -101 103 -260t-102 -261.5t-261 -102.5q-110 0 -198 52l-62 -76l-61 48l62 76q-104 101 -104 264zM614 352q0 89 -45 152l-282 -353q50 -35 117 -35q93 0 151.5 65t58.5 171zM195 352
q0 -93 44 -154l282 353q-51 34 -117 34q-93 0 -151 -64.5t-58 -168.5zM337 755l111 150l115 -67l-120 -83h-106z" />
    <glyph glyph-name="oslashacute" unicode="&#x1ff;" horiz-adv-x="614" 
d="M37 274q0 123 76.5 199t194.5 76q75 0 138 -36l55 71l62 -49l-56 -69q69 -77 69 -192q0 -132 -73.5 -209t-194.5 -77q-85 0 -147 38l-60 -78l-63 47l64 80q-65 78 -65 199zM428 273q0 44 -15 84l-180 -231q30 -28 75 -28q56 0 88 47.5t32 127.5zM185 273q0 -49 12 -87
l178 228q-29 24 -67 24q-55 0 -89 -45.5t-34 -119.5zM230 592l128 186l98 -65l-134 -121h-92z" />
    <glyph glyph-name="Adoublegrave" unicode="&#x200;" horiz-adv-x="713" 
d="M17 0l253 700h172l253 -700h-162l-44 131h-266l-43 -131h-163zM354 532l-93 -284h189l-94 284h-2zM335 755h-107l-120 83l115 67zM535 755h-107l-121 83l115 67z" />
    <glyph glyph-name="adoublegrave" unicode="&#x201;" horiz-adv-x="566" 
d="M39 130q0 170 310 192v47q0 64 -74 64q-62 0 -171 -53l-52 108q122 61 229 61q214 0 214 -185v-224q0 -42 44 -42v-101q-76 0 -113.5 14t-59.5 52q-70 -75 -167 -75q-71 0 -115.5 39.5t-44.5 102.5zM185 147q0 -24 17 -39t45 -15q62 0 102 45v103q-164 -10 -164 -94z
M131 778l119 -186h-90l-128 124zM326 778l118 -186h-90l-127 124z" />
    <glyph glyph-name="Ainvertedbreve" unicode="&#x202;" horiz-adv-x="713" 
d="M17 0l253 700h172l253 -700h-162l-44 131h-266l-43 -131h-163zM355 892q75 0 120.5 -36t57.5 -101h-94q-19 53 -84 53t-84 -53h-93q11 64 57.5 100.5t119.5 36.5zM354 532l-93 -284h189l-94 284h-2z" />
    <glyph glyph-name="ainvertedbreve" unicode="&#x203;" horiz-adv-x="566" 
d="M39 130q0 170 310 192v47q0 64 -74 64q-62 0 -171 -53l-52 108q122 61 229 61q214 0 214 -185v-224q0 -42 44 -42v-101q-76 0 -113.5 14t-59.5 52q-70 -75 -167 -75q-71 0 -115.5 39.5t-44.5 102.5zM185 147q0 -24 17 -39t45 -15q62 0 102 45v103q-164 -10 -164 -94z
M285 761q76 0 121.5 -45.5t52.5 -123.5h-92q-5 37 -26.5 57.5t-55.5 20.5t-56 -20.5t-27 -57.5h-90q5 78 51.5 123.5t121.5 45.5z" />
    <glyph glyph-name="Edoublegrave" unicode="&#x204;" horiz-adv-x="635" 
d="M306 755h-107l-120 83l115 67zM506 755h-107l-121 83l115 67zM70 0v700h510v-132h-359v-154h320v-117h-320v-165h363v-132h-514z" />
    <glyph glyph-name="edoublegrave" unicode="&#x205;" horiz-adv-x="584" 
d="M37 272q0 126 77 202t192 76q113 0 176 -67t63 -178q0 -38 -5 -65h-354q12 -136 132 -136q75 0 149 46l61 -93q-100 -70 -221 -70t-195.5 76t-74.5 209zM310 444q-46 0 -78.5 -31.5t-42.5 -88.5h217q0 120 -96 120zM149 778l119 -186h-90l-128 124zM344 778l118 -186h-90
l-127 124z" />
    <glyph glyph-name="Einvertedbreve" unicode="&#x206;" horiz-adv-x="634" 
d="M68 0v700h510v-132h-359v-154h320v-117h-320v-165h363v-132h-514zM326 892q75 0 120.5 -36t57.5 -101h-94q-19 53 -84 53t-84 -53h-93q11 64 57.5 100.5t119.5 36.5z" />
    <glyph glyph-name="einvertedbreve" unicode="&#x207;" horiz-adv-x="584" 
d="M37 272q0 126 77 202t192 76q113 0 176 -67t63 -178q0 -38 -5 -65h-354q12 -136 132 -136q75 0 149 46l61 -93q-100 -70 -221 -70t-195.5 76t-74.5 209zM305 761q76 0 121.5 -45.5t52.5 -123.5h-92q-5 37 -26.5 57.5t-55.5 20.5t-56 -20.5t-27 -57.5h-90q5 78 51.5 123.5
t121.5 45.5zM310 444q-46 0 -78.5 -31.5t-42.5 -88.5h217q0 120 -96 120z" />
    <glyph glyph-name="Idoublegrave" unicode="&#x208;" horiz-adv-x="287" 
d="M68 0v700h152v-700h-152zM123 755h-107l-120 83l115 67zM323 755h-107l-121 83l115 67z" />
    <glyph glyph-name="idoublegrave" unicode="&#x209;" horiz-adv-x="272" 
d="M63 0v529h147v-529h-147zM-26 778l119 -186h-90l-128 124zM169 778l118 -186h-90l-127 124z" />
    <glyph glyph-name="Iinvertedbreve" unicode="&#x20a;" horiz-adv-x="287" 
d="M68 0v700h152v-700h-152zM143 892q75 0 120.5 -36t57.5 -101h-94q-19 53 -84 53t-84 -53h-93q11 64 57.5 100.5t119.5 36.5z" />
    <glyph glyph-name="iinvertedbreve" unicode="&#x20b;" horiz-adv-x="272" 
d="M135 761q76 0 121.5 -45.5t52.5 -123.5h-92q-5 37 -26.5 57.5t-55.5 20.5t-56 -20.5t-27 -57.5h-90q5 78 51.5 123.5t121.5 45.5zM63 0v529h147v-529h-147z" />
    <glyph glyph-name="Odoublegrave" unicode="&#x20c;" horiz-adv-x="808" 
d="M383 755h-107l-120 83l115 67zM583 755h-107l-121 83l115 67zM41 352q0 158 102 259t261 101q160 0 261.5 -101t101.5 -259q0 -159 -102 -261.5t-261 -102.5t-261 102.5t-102 261.5zM195 352q0 -106 58.5 -171t150.5 -65q93 0 151.5 65t58.5 171q0 105 -58.5 169
t-151.5 64t-151 -64.5t-58 -168.5z" />
    <glyph glyph-name="odoublegrave" unicode="&#x20d;" horiz-adv-x="614" 
d="M147 778l119 -186h-90l-128 124zM342 778l118 -186h-90l-127 124zM37 274q0 123 76.5 199t194.5 76q116 0 192 -76t76 -199q0 -132 -73.5 -209t-194.5 -77q-123 0 -197 77t-74 209zM185 273q0 -81 32.5 -128t90.5 -47q56 0 88 47.5t32 127.5q0 74 -33 119.5t-87 45.5
q-55 0 -89 -45.5t-34 -119.5z" />
    <glyph glyph-name="Oinvertedbreve" unicode="&#x20e;" horiz-adv-x="808" 
d="M403 892q75 0 120.5 -36t57.5 -101h-94q-19 53 -84 53t-84 -53h-93q11 64 57.5 100.5t119.5 36.5zM41 352q0 158 102 259t261 101q160 0 261.5 -101t101.5 -259q0 -159 -102 -261.5t-261 -102.5t-261 102.5t-102 261.5zM195 352q0 -106 58.5 -171t150.5 -65
q93 0 151.5 65t58.5 171q0 105 -58.5 169t-151.5 64t-151 -64.5t-58 -168.5z" />
    <glyph glyph-name="oinvertedbreve" unicode="&#x20f;" horiz-adv-x="614" 
d="M306 761q76 0 121.5 -45.5t52.5 -123.5h-92q-5 37 -26.5 57.5t-55.5 20.5t-56 -20.5t-27 -57.5h-90q5 78 51.5 123.5t121.5 45.5zM37 274q0 123 76.5 199t194.5 76q116 0 192 -76t76 -199q0 -132 -73.5 -209t-194.5 -77q-123 0 -197 77t-74 209zM185 273q0 -81 32.5 -128
t90.5 -47q56 0 88 47.5t32 127.5q0 74 -33 119.5t-87 45.5q-55 0 -89 -45.5t-34 -119.5z" />
    <glyph glyph-name="Rdoublegrave" unicode="&#x210;" horiz-adv-x="700" 
d="M68 0v700h308q139 0 204 -63.5t65 -158.5q0 -64 -32.5 -115t-95.5 -78l134 -285h-163l-108 261h-160v-261h-152zM220 372h154q58 0 88.5 29t30.5 75q0 47 -30.5 75t-87.5 28h-155v-207zM319 755h-107l-120 83l115 67zM519 755h-107l-121 83l115 67z" />
    <glyph glyph-name="rdoublegrave" unicode="&#x211;" horiz-adv-x="443" 
d="M61 0v537h135l10 -83q56 98 153 98q38 0 66 -11l-21 -134q-33 12 -72 12q-74 0 -125 -96v-323h-146zM84 778l119 -186h-90l-128 124zM279 778l118 -186h-90l-127 124z" />
    <glyph glyph-name="Rinvertedbreve" unicode="&#x212;" horiz-adv-x="700" 
d="M68 0v700h308q139 0 204 -63.5t65 -158.5q0 -64 -32.5 -115t-95.5 -78l134 -285h-163l-108 261h-160v-261h-152zM220 372h154q58 0 88.5 29t30.5 75q0 47 -30.5 75t-87.5 28h-155v-207zM339 892q75 0 120.5 -36t57.5 -101h-94q-19 53 -84 53t-84 -53h-93
q11 64 57.5 100.5t119.5 36.5z" />
    <glyph glyph-name="rinvertedbreve" unicode="&#x213;" horiz-adv-x="443" 
d="M242 761q76 0 121.5 -45.5t52.5 -123.5h-92q-5 37 -26.5 57.5t-55.5 20.5t-56 -20.5t-27 -57.5h-90q5 78 51.5 123.5t121.5 45.5zM61 0v537h135l10 -83q56 98 153 98q38 0 66 -11l-21 -134q-33 12 -72 12q-74 0 -125 -96v-323h-146z" />
    <glyph glyph-name="Udoublegrave" unicode="&#x214;" horiz-adv-x="721" 
d="M339 755h-107l-120 83l115 67zM539 755h-107l-121 83l115 67zM65 266v434h153v-434q0 -70 39 -109.5t104 -39.5q64 0 103.5 39.5t39.5 109.5v434h152v-434q0 -136 -80.5 -207t-214.5 -71t-215 71t-81 207z" />
    <glyph glyph-name="udoublegrave" unicode="&#x215;" horiz-adv-x="598" 
d="M58 182v355h147v-358q0 -81 69 -81q64 0 117 61v378h147v-537h-136l-9 62q-72 -74 -164 -74q-171 0 -171 194zM138 778l119 -186h-90l-128 124zM333 778l118 -186h-90l-127 124z" />
    <glyph glyph-name="Uinvertedbreve" unicode="&#x216;" horiz-adv-x="721" 
d="M65 266v434h153v-434q0 -70 39 -109.5t104 -39.5q64 0 103.5 39.5t39.5 109.5v434h152v-434q0 -136 -80.5 -207t-214.5 -71t-215 71t-81 207zM361 892q75 0 120.5 -36t57.5 -101h-94q-19 53 -84 53t-84 -53h-93q11 64 57.5 100.5t119.5 36.5z" />
    <glyph glyph-name="uinvertedbreve" unicode="&#x217;" horiz-adv-x="598" 
d="M297 761q76 0 121.5 -45.5t52.5 -123.5h-92q-5 37 -26.5 57.5t-55.5 20.5t-56 -20.5t-27 -57.5h-90q5 78 51.5 123.5t121.5 45.5zM58 182v355h147v-358q0 -81 69 -81q64 0 117 61v378h147v-537h-136l-9 62q-72 -74 -164 -74q-171 0 -171 194z" />
    <glyph glyph-name="Scommaaccent" unicode="&#x218;" horiz-adv-x="631" 
d="M38 65l72 118q106 -63 206 -63q55 0 84.5 20.5t29.5 55.5q0 26 -21 44t-54 28.5t-73.5 20t-81 24.5t-73.5 36.5t-54 61t-21 93.5q0 89 69.5 148.5t187.5 59.5q128 0 252 -59l-56 -119q-92 46 -189 46q-49 0 -78 -21t-29 -53q0 -26 21 -43.5t54 -27.5t73.5 -19t81 -24
t73.5 -37t54 -62t21 -95q0 -93 -70 -151.5t-200 -58.5q-75 0 -150.5 22t-128.5 55zM236 -54q30 8 61 8q48 0 73 -21.5t26 -55.5q2 -52 -47 -99h-98q37 42 37 72q0 13 -8 20t-21 6q-9 0 -23 -2v72z" />
    <glyph glyph-name="scommaaccent" unicode="&#x219;" horiz-adv-x="509" 
d="M168 -54q32 8 60 8q49 0 74 -21.5t25 -55.5q3 -49 -47 -99h-96q35 43 35 72q0 13 -8 20t-21 6q-10 0 -22 -2v72zM31 46l56 102q88 -49 166 -49q80 0 80 51q0 24 -30 39t-72.5 25t-85 25t-72.5 51t-30 92q0 78 61.5 122.5t151.5 44.5q98 0 200 -47l-52 -102
q-78 38 -146 38q-72 0 -72 -50q0 -20 21.5 -33.5t53.5 -20t69 -18.5t69 -27t53.5 -48.5t21.5 -81.5q0 -81 -60.5 -126t-158.5 -45q-117 0 -224 58z" />
    <glyph glyph-name="Tcommaaccent" unicode="&#x21a;" horiz-adv-x="665" 
d="M257 0v566h-231v134h614v-134h-232v-566h-151zM258 -54q30 8 61 8q48 0 73 -21.5t26 -55.5q2 -52 -47 -99h-98q37 42 37 72q0 13 -8 20t-21 6q-9 0 -23 -2v72z" />
    <glyph glyph-name="tcommaaccent" unicode="&#x21b;" horiz-adv-x="437" 
d="M140 -54q32 8 60 8q49 0 74 -21.5t25 -55.5q3 -49 -47 -99h-96q35 43 35 72q0 13 -8 20t-21 6q-10 0 -22 -2v72zM101 163v270h-85v104h85v134h147v-134h147v-104h-147v-267q0 -60 49 -60q39 0 73 24l54 -88q-69 -54 -157 -54q-84 0 -125 42.5t-41 132.5z" />
    <glyph glyph-name="Hcaron" unicode="&#x21e;" horiz-adv-x="712" 
d="M68 0v700h152v-280h273v280h151v-700h-151v290h-273v-290h-152zM284 755l-116 133h99l87 -64h2l88 64h100l-117 -133h-143z" />
    <glyph glyph-name="hcaron" unicode="&#x21f;" horiz-adv-x="599" 
d="M63 0v755h147v-280q72 74 161 74q171 0 171 -194v-355h-147v359q0 81 -70 81q-65 0 -115 -63v-377h-147zM65 797l-116 133h99l87 -64h2l88 64h100l-117 -133h-143z" />
    <glyph glyph-name="Adotabove" unicode="&#x226;" horiz-adv-x="713" 
d="M17 0l253 700h172l253 -700h-162l-44 131h-266l-43 -131h-163zM354 532l-93 -284h189l-94 284h-2zM297 764v115h117v-115h-117z" />
    <glyph glyph-name="adotabove" unicode="&#x227;" horiz-adv-x="566" 
d="M39 130q0 170 310 192v47q0 64 -74 64q-62 0 -171 -53l-52 108q122 61 229 61q214 0 214 -185v-224q0 -42 44 -42v-101q-76 0 -113.5 14t-59.5 52q-70 -75 -167 -75q-71 0 -115.5 39.5t-44.5 102.5zM185 147q0 -24 17 -39t45 -15q62 0 102 45v103q-164 -10 -164 -94z
M225 615v114h115v-114h-115z" />
    <glyph glyph-name="Otildemacron" unicode="&#x22c;" horiz-adv-x="808" 
d="M228 754q-7 65 22.5 102.5t84.5 37.5q36 0 75.5 -26t55.5 -26q37 0 32 43h82q7 -65 -23 -103t-85 -38q-36 0 -75 26t-56 26q-37 0 -31 -42h-82zM238 929v90h332v-90h-332zM41 352q0 158 102 259t261 101q160 0 261.5 -101t101.5 -259q0 -159 -102 -261.5t-261 -102.5
t-261 102.5t-102 261.5zM195 352q0 -106 58.5 -171t150.5 -65q93 0 151.5 65t58.5 171q0 105 -58.5 169t-151.5 64t-151 -64.5t-58 -168.5z" />
    <glyph glyph-name="otildemacron" unicode="&#x22d;" horiz-adv-x="614" 
d="M143 778v90h328v-90h-328zM37 274q0 123 76.5 199t194.5 76q116 0 192 -76t76 -199q0 -132 -73.5 -209t-194.5 -77q-123 0 -197 77t-74 209zM185 273q0 -81 32.5 -128t90.5 -47q56 0 88 47.5t32 127.5q0 74 -33 119.5t-87 45.5q-55 0 -89 -45.5t-34 -119.5zM131 595
q-7 67 23 105t85 38q35 0 73.5 -26.5t54.5 -26.5q37 0 31 46h82q7 -67 -22.5 -105t-84.5 -38q-35 0 -73 26t-55 26q-36 0 -32 -45h-82z" />
    <glyph glyph-name="Odotabove" unicode="&#x22e;" horiz-adv-x="808" 
d="M346 764v115h117v-115h-117zM41 352q0 158 102 259t261 101q160 0 261.5 -101t101.5 -259q0 -159 -102 -261.5t-261 -102.5t-261 102.5t-102 261.5zM195 352q0 -106 58.5 -171t150.5 -65q93 0 151.5 65t58.5 171q0 105 -58.5 169t-151.5 64t-151 -64.5t-58 -168.5z" />
    <glyph glyph-name="odotabove" unicode="&#x22f;" horiz-adv-x="614" 
d="M37 274q0 123 76.5 199t194.5 76q116 0 192 -76t76 -199q0 -132 -73.5 -209t-194.5 -77q-123 0 -197 77t-74 209zM185 273q0 -81 32.5 -128t90.5 -47q56 0 88 47.5t32 127.5q0 74 -33 119.5t-87 45.5q-55 0 -89 -45.5t-34 -119.5zM248 615v114h115v-114h-115z" />
    <glyph glyph-name="Odotabovemacron" unicode="&#x230;" horiz-adv-x="808" 
d="M346 763v115h117v-115h-117zM238 929v90h332v-90h-332zM41 352q0 158 102 259t261 101q160 0 261.5 -101t101.5 -259q0 -159 -102 -261.5t-261 -102.5t-261 102.5t-102 261.5zM195 352q0 -106 58.5 -171t150.5 -65q93 0 151.5 65t58.5 171q0 105 -58.5 169t-151.5 64
t-151 -64.5t-58 -168.5z" />
    <glyph glyph-name="odotabovemacron" unicode="&#x231;" horiz-adv-x="614" 
d="M143 778v90h328v-90h-328zM37 274q0 123 76.5 199t194.5 76q116 0 192 -76t76 -199q0 -132 -73.5 -209t-194.5 -77q-123 0 -197 77t-74 209zM185 273q0 -81 32.5 -128t90.5 -47q56 0 88 47.5t32 127.5q0 74 -33 119.5t-87 45.5q-55 0 -89 -45.5t-34 -119.5zM248 609v114
h115v-114h-115z" />
    <glyph glyph-name="dotlessj" unicode="&#x237;" horiz-adv-x="284" 
d="M74 -13v542h147v-534q0 -205 -187 -205q-52 0 -108 20l31 108q30 -10 56 -10q31 0 46 18t15 61z" />
    <glyph glyph-name="schwa" unicode="&#x259;" horiz-adv-x="591" 
d="M46 298h354q-12 134 -131 134q-77 0 -148 -46l-63 94q100 69 218 69q122 0 197.5 -75.5t75.5 -207.5q0 -126 -76.5 -202t-191.5 -76q-118 0 -178.5 68t-60.5 180q0 18 4 62zM277 94q45 0 77 30t43 88h-216q0 -54 23.5 -86t72.5 -32z" />
    <glyph glyph-name="barredo" unicode="&#x275;" horiz-adv-x="614" 
d="M37 274q0 123 76.5 199t194.5 76q116 0 192 -76t76 -199q0 -132 -73.5 -209t-194.5 -77q-123 0 -197 77t-74 209zM308 98q49 0 79 36t38 99h-238q8 -63 39 -99t82 -36zM308 438q-49 0 -81.5 -36t-39.5 -97h239q-7 61 -38.5 97t-79.5 36z" />
    <glyph glyph-name="ezh" unicode="&#x292;" horiz-adv-x="536" 
d="M104 215l206 210h-268v112h441v-93l-226 -224q33 5 67 5q80 0 136.5 -55.5t56.5 -142.5q0 -112 -80 -174t-201 -62t-226 56l48 108q91 -48 174 -48q66 0 104 33t38 90q0 55 -38 80.5t-99 25.5q-47 0 -84 -6z" />
    <glyph glyph-name="circumflex" unicode="&#x2c6;" horiz-adv-x="625" 
d="M125 592l117 160h161l117 -160h-108l-88 90h-3l-89 -90h-107z" />
    <glyph glyph-name="caron" unicode="&#x2c7;" horiz-adv-x="625" 
d="M242 592l-117 160h107l89 -90h3l88 90h108l-117 -160h-161z" />
    <glyph glyph-name="breve" unicode="&#x2d8;" horiz-adv-x="607" 
d="M315 582q-77 0 -122 45.5t-53 124.5h92q5 -38 27 -58.5t56 -20.5t55.5 20.5t26.5 58.5h90q-5 -79 -51.5 -124.5t-120.5 -45.5z" />
    <glyph glyph-name="dotaccent" unicode="&#x2d9;" horiz-adv-x="575" 
d="M230 615v114h115v-114h-115z" />
    <glyph glyph-name="ring" unicode="&#x2da;" horiz-adv-x="592" 
d="M303 586q-50 0 -85 32.5t-35 81.5q0 50 35 83t85 33t85 -33t35 -83q0 -49 -35 -81.5t-85 -32.5zM303 638q25 0 43.5 18t18.5 44q0 27 -18 45t-44 18t-44 -18t-18 -45q0 -26 18 -44t44 -18z" />
    <glyph glyph-name="ogonek" unicode="&#x2db;" horiz-adv-x="593" 
d="M381 -97v-98q-35 -12 -78 -12q-57 0 -90 27.5t-33 74.5q0 54 46 98t127 72l26 -39q-49 -26 -72.5 -48.5t-23.5 -47.5q0 -36 46 -36q25 0 49 11z" />
    <glyph glyph-name="tilde" unicode="&#x2dc;" horiz-adv-x="616" 
d="M138 604q-7 67 23 105t85 38q35 0 73.5 -26.5t54.5 -26.5q37 0 31 46h82q7 -67 -22.5 -105t-84.5 -38q-34 0 -73 26t-55 26q-36 0 -32 -45h-82z" />
    <glyph glyph-name="hungarumlaut" unicode="&#x2dd;" horiz-adv-x="626" 
d="M117 592l118 186l100 -62l-129 -124h-89zM312 592l118 186l99 -62l-128 -124h-89z" />
    <glyph glyph-name="doublegrave" unicode="&#x30f;" horiz-adv-x="626" 
d="M216 778l119 -186h-90l-128 124zM411 778l118 -186h-90l-127 124z" />
    <glyph glyph-name="invertedbreve" unicode="&#x311;" horiz-adv-x="607" 
d="M313 761q76 0 121.5 -45.5t52.5 -123.5h-92q-5 37 -26.5 57.5t-55.5 20.5t-56 -20.5t-27 -57.5h-90q5 78 51.5 123.5t121.5 45.5z" />
    <glyph glyph-name="commaabovecmb" unicode="&#x313;" horiz-adv-x="582" 
d="M371 668v-72q-32 -8 -61 -8q-48 0 -73 21.5t-25 55.5q-2 51 46 99h98q-37 -44 -37 -72q0 -27 30 -27q5 0 12.5 1.5t9.5 1.5z" />
    <glyph glyph-name="uni0323" unicode="&#x323;" horiz-adv-x="575" 
d="M230 -188v114h115v-114h-115z" />
    <glyph glyph-name="uni0329" unicode="&#x329;" horiz-adv-x="575" 
d="M232 -206v160h112v-160h-112z" />
    <glyph glyph-name="pi" unicode="&#x3c0;" horiz-adv-x="806" 
d="M751 448h-140v-240q0 -53 22.5 -74t81.5 -21v-117q-143 0 -197 48t-54 164v240h-128v-448h-148v448h-133v116h696v-116z" />
    <glyph glyph-name="Ddotbelow" unicode="&#x1e0c;" horiz-adv-x="723" 
d="M68 0v700h230q186 0 285.5 -91t99.5 -256q0 -170 -97 -261.5t-288 -91.5h-230zM219 123h90q108 0 164.5 60.5t56.5 168.5q0 104 -58 164.5t-163 60.5h-90v-454zM318 -188v114h116v-114h-116z" />
    <glyph glyph-name="ddotbelow" unicode="&#x1e0d;" horiz-adv-x="608" 
d="M232 -188v114h115v-114h-115zM243 -12q-93 0 -149.5 74.5t-56.5 212.5q0 133 56.5 203.5t152.5 70.5q89 0 154 -72v278h147v-755h-130l-9 63q-72 -75 -165 -75zM289 100q64 0 111 53v228q-50 56 -111 56q-105 0 -105 -163q0 -81 26.5 -127.5t78.5 -46.5z" />
    <glyph glyph-name="Dcedilla" unicode="&#x1e10;" horiz-adv-x="723" 
d="M325 -41h93q-22 -107 -102 -181l-100 50q80 65 109 131zM68 0v700h230q186 0 285.5 -91t99.5 -256q0 -170 -97 -261.5t-288 -91.5h-230zM219 123h90q108 0 164.5 60.5t56.5 168.5q0 104 -58 164.5t-163 60.5h-90v-454z" />
    <glyph glyph-name="dcedilla" unicode="&#x1e11;" horiz-adv-x="608" 
d="M238 -41h93q-22 -107 -102 -181l-100 50q80 65 109 131zM243 -12q-93 0 -149.5 74.5t-56.5 212.5q0 133 56.5 203.5t152.5 70.5q89 0 154 -72v278h147v-755h-130l-9 63q-72 -75 -165 -75zM289 100q64 0 111 53v228q-50 56 -111 56q-105 0 -105 -163q0 -81 26.5 -127.5
t78.5 -46.5z" />
    <glyph glyph-name="Hdotbelow" unicode="&#x1e24;" horiz-adv-x="712" 
d="M68 0v700h152v-280h273v280h151v-700h-151v290h-273v-290h-152zM298 -188v114h116v-114h-116z" />
    <glyph glyph-name="hdotbelow" unicode="&#x1e25;" horiz-adv-x="599" 
d="M63 0v755h147v-280q72 74 161 74q171 0 171 -194v-355h-147v359q0 81 -70 81q-65 0 -115 -63v-377h-147zM244 -188v114h115v-114h-115z" />
    <glyph glyph-name="Ldotbelow" unicode="&#x1e36;" horiz-adv-x="602" 
d="M68 0v700h152v-569h348v-131h-500zM259 -188v114h116v-114h-116z" />
    <glyph glyph-name="ldotbelow" unicode="&#x1e37;" horiz-adv-x="274" 
d="M78 -188v114h115v-114h-115zM64 0v755h147v-755h-147z" />
    <glyph glyph-name="Ldotbelowmacron" unicode="&#x1e38;" horiz-adv-x="602" 
d="M-21 776v90h332v-90h-332zM68 0v700h152v-569h348v-131h-500zM259 -188v114h116v-114h-116z" />
    <glyph glyph-name="ldotbelowmacron" unicode="&#x1e39;" horiz-adv-x="274" 
d="M-30 818v90h332v-90h-332zM78 -188v114h115v-114h-115zM64 0v755h147v-755h-147z" />
    <glyph glyph-name="Mdotbelow" unicode="&#x1e42;" horiz-adv-x="861" 
d="M68 0v700h152l211 -299l212 299h150v-700h-144v484l-219 -302l-218 302v-484h-144zM373 -188v114h116v-114h-116z" />
    <glyph glyph-name="mdotbelow" unicode="&#x1e43;" horiz-adv-x="906" 
d="M61 0v537h139l6 -58q75 71 158 71q103 0 142 -79q82 79 176 79q82 0 124 -50.5t42 -141.5v-358h-146v361q0 78 -65 78q-58 0 -110 -57q2 -24 2 -35v-347h-147v361q0 78 -65 78t-110 -61v-378h-146zM395 -188v114h115v-114h-115z" />
    <glyph glyph-name="Ndotaccent" unicode="&#x1e44;" horiz-adv-x="736" 
d="M309 764v115h117v-115h-117zM68 0v700h144l312 -461v461h143v-700h-143l-312 459v-459h-144z" />
    <glyph glyph-name="ndotaccent" unicode="&#x1e45;" horiz-adv-x="597" 
d="M241 615v114h115v-114h-115zM61 0v537h138l7 -62q71 75 163 75q171 0 171 -195v-355h-147v359q0 81 -70 81q-66 0 -116 -63v-377h-146z" />
    <glyph glyph-name="Ndotbelow" unicode="&#x1e46;" horiz-adv-x="736" 
d="M310 -188v114h116v-114h-116zM68 0v700h144l312 -461v461h143v-700h-143l-312 459v-459h-144z" />
    <glyph glyph-name="ndotbelow" unicode="&#x1e47;" horiz-adv-x="597" 
d="M241 -188v114h115v-114h-115zM61 0v537h138l7 -62q71 75 163 75q171 0 171 -195v-355h-147v359q0 81 -70 81q-66 0 -116 -63v-377h-146z" />
    <glyph glyph-name="Rdotbelow" unicode="&#x1e5a;" horiz-adv-x="700" 
d="M68 0v700h308q139 0 204 -63.5t65 -158.5q0 -64 -32.5 -115t-95.5 -78l134 -285h-163l-108 261h-160v-261h-152zM220 372h154q58 0 88.5 29t30.5 75q0 47 -30.5 75t-87.5 28h-155v-207zM282 -188v114h116v-114h-116z" />
    <glyph glyph-name="rdotbelow" unicode="&#x1e5b;" horiz-adv-x="443" 
d="M61 0v537h135l10 -83q56 98 153 98q38 0 66 -11l-21 -134q-33 12 -72 12q-74 0 -125 -96v-323h-146zM75 -188v114h115v-114h-115z" />
    <glyph glyph-name="Rdotbelowmacron" unicode="&#x1e5c;" horiz-adv-x="700" 
d="M68 0v700h308q139 0 204 -63.5t65 -158.5q0 -64 -32.5 -115t-95.5 -78l134 -285h-163l-108 261h-160v-261h-152zM220 372h154q58 0 88.5 29t30.5 75q0 47 -30.5 75t-87.5 28h-155v-207zM174 776v90h332v-90h-332zM282 -188v114h116v-114h-116z" />
    <glyph glyph-name="rdotbelowmacron" unicode="&#x1e5d;" horiz-adv-x="443" 
d="M81 627v90h328v-90h-328zM61 0v537h135l10 -83q56 98 153 98q38 0 66 -11l-21 -134q-33 12 -72 12q-74 0 -125 -96v-323h-146zM75 -188v114h115v-114h-115z" />
    <glyph glyph-name="Sdotbelow" unicode="&#x1e62;" horiz-adv-x="631" 
d="M38 65l72 118q106 -63 206 -63q55 0 84.5 20.5t29.5 55.5q0 26 -21 44t-54 28.5t-73.5 20t-81 24.5t-73.5 36.5t-54 61t-21 93.5q0 89 69.5 148.5t187.5 59.5q128 0 252 -59l-56 -119q-92 46 -189 46q-49 0 -78 -21t-29 -53q0 -26 21 -43.5t54 -27.5t73.5 -19t81 -24
t73.5 -37t54 -62t21 -95q0 -93 -70 -151.5t-200 -58.5q-75 0 -150.5 22t-128.5 55zM259 -188v114h116v-114h-116z" />
    <glyph glyph-name="sdotbelow" unicode="&#x1e63;" horiz-adv-x="509" 
d="M31 46l56 102q88 -49 166 -49q80 0 80 51q0 24 -30 39t-72.5 25t-85 25t-72.5 51t-30 92q0 78 61.5 122.5t151.5 44.5q98 0 200 -47l-52 -102q-78 38 -146 38q-72 0 -72 -50q0 -20 21.5 -33.5t53.5 -20t69 -18.5t69 -27t53.5 -48.5t21.5 -81.5q0 -81 -60.5 -126
t-158.5 -45q-117 0 -224 58zM191 -188v114h115v-114h-115z" />
    <glyph glyph-name="Tdotbelow" unicode="&#x1e6c;" horiz-adv-x="665" 
d="M257 0v566h-231v134h614v-134h-232v-566h-151zM275 -188v114h116v-114h-116z" />
    <glyph glyph-name="tdotbelow" unicode="&#x1e6d;" horiz-adv-x="437" 
d="M164 -188v114h115v-114h-115zM101 163v270h-85v104h85v134h147v-134h147v-104h-147v-267q0 -60 49 -60q39 0 73 24l54 -88q-69 -54 -157 -54q-84 0 -125 42.5t-41 132.5z" />
    <glyph glyph-name="Wgrave" unicode="&#x1e80;" horiz-adv-x="1071" 
d="M496 755l-119 83l114 67l112 -150h-107zM242 0l-220 700h158l146 -484h2l139 484h138l139 -484h2l146 484h158l-221 -700h-155l-137 475h-2l-138 -475h-155z" />
    <glyph glyph-name="wgrave" unicode="&#x1e81;" horiz-adv-x="845" 
d="M189 0l-175 537h143l108 -348h2l97 348h118l98 -348h2l107 348h141l-175 -537h-133l-99 330h-2l-99 -330h-133zM402 592l-134 121l99 65l127 -186h-92z" />
    <glyph glyph-name="Wacute" unicode="&#x1e82;" horiz-adv-x="1071" 
d="M469 755l111 150l115 -67l-120 -83h-106zM242 0l-220 700h158l146 -484h2l139 484h138l139 -484h2l146 484h158l-221 -700h-155l-137 475h-2l-138 -475h-155z" />
    <glyph glyph-name="wacute" unicode="&#x1e83;" horiz-adv-x="845" 
d="M351 592l128 186l98 -65l-134 -121h-92zM189 0l-175 537h143l108 -348h2l97 348h118l98 -348h2l107 348h141l-175 -537h-133l-99 330h-2l-99 -330h-133z" />
    <glyph glyph-name="Wdieresis" unicode="&#x1e84;" horiz-adv-x="1071" 
d="M596 764v115h116v-115h-116zM361 764v115h116v-115h-116zM242 0l-220 700h158l146 -484h2l139 484h138l139 -484h2l146 484h158l-221 -700h-155l-137 475h-2l-138 -475h-155z" />
    <glyph glyph-name="wdieresis" unicode="&#x1e85;" horiz-adv-x="845" 
d="M479 615v114h115v-114h-115zM250 615v114h117v-114h-117zM189 0l-175 537h143l108 -348h2l97 348h118l98 -348h2l107 348h141l-175 -537h-133l-99 330h-2l-99 -330h-133z" />
    <glyph glyph-name="hmacronbelow" unicode="&#x1e96;" horiz-adv-x="599" 
d="M63 0v755h147v-280q72 74 161 74q171 0 171 -194v-355h-147v359q0 81 -70 81q-65 0 -115 -63v-377h-147zM137 -190v90h328v-90h-328z" />
    <glyph glyph-name="germandbls.cap" unicode="&#x1e9e;" horiz-adv-x="714" 
d="M65 0v476q0 111 79.5 173.5t205.5 62.5q122 0 204 -56.5t82 -145.5q0 -105 -120 -150v-1q72 -16 115 -61t43 -115q0 -94 -69 -144.5t-175 -50.5q-63 0 -135 18l25 112q50 -13 87 -13q51 0 83.5 24t32.5 69q0 49 -37 73t-102 24h-53v115h29q60 0 93 25t33 68t-37.5 69.5
t-99.5 26.5t-97 -31.5t-35 -88.5v-479h-152z" />
    <glyph glyph-name="Idotbelow" unicode="&#x1eca;" horiz-adv-x="287" 
d="M68 0v700h152v-700h-152zM86 -188v114h116v-114h-116z" />
    <glyph glyph-name="idotbelow" unicode="&#x1ecb;" horiz-adv-x="272" 
d="M63 0v529h147v-529h-147zM63 624v126h147v-126h-147zM78 -188v114h115v-114h-115z" />
    <glyph glyph-name="Odotbelow" unicode="&#x1ecc;" horiz-adv-x="808" 
d="M41 352q0 158 102 259t261 101q160 0 261.5 -101t101.5 -259q0 -159 -102 -261.5t-261 -102.5t-261 102.5t-102 261.5zM195 352q0 -106 58.5 -171t150.5 -65q93 0 151.5 65t58.5 171q0 105 -58.5 169t-151.5 64t-151 -64.5t-58 -168.5zM346 -188v114h116v-114h-116z" />
    <glyph glyph-name="odotbelow" unicode="&#x1ecd;" horiz-adv-x="614" 
d="M248 -188v114h115v-114h-115zM37 274q0 123 76.5 199t194.5 76q116 0 192 -76t76 -199q0 -132 -73.5 -209t-194.5 -77q-123 0 -197 77t-74 209zM185 273q0 -81 32.5 -128t90.5 -47q56 0 88 47.5t32 127.5q0 74 -33 119.5t-87 45.5q-55 0 -89 -45.5t-34 -119.5z" />
    <glyph glyph-name="Udotbelow" unicode="&#x1ee4;" horiz-adv-x="721" 
d="M65 266v434h153v-434q0 -70 39 -109.5t104 -39.5q64 0 103.5 39.5t39.5 109.5v434h152v-434q0 -136 -80.5 -207t-214.5 -71t-215 71t-81 207zM303 -188v114h116v-114h-116z" />
    <glyph glyph-name="udotbelow" unicode="&#x1ee5;" horiz-adv-x="598" 
d="M58 182v355h147v-358q0 -81 69 -81q64 0 117 61v378h147v-537h-136l-9 62q-72 -74 -164 -74q-171 0 -171 194zM240 -188v114h115v-114h-115z" />
    <glyph glyph-name="Ygrave" unicode="&#x1ef2;" horiz-adv-x="703" 
d="M275 0v281l-262 419h175l163 -270h2l164 270h173l-262 -419v-281h-153zM312 755l-119 83l114 67l112 -150h-107z" />
    <glyph glyph-name="ygrave" unicode="&#x1ef3;" horiz-adv-x="556" 
d="M49 -76q47 -17 73 -17q28 0 44.5 12t26.5 42l17 45l-195 531h147l118 -354h2l117 354h142l-200 -567q-37 -103 -85.5 -141.5t-124.5 -38.5q-60 0 -122 20zM258 592l-134 121l99 65l127 -186h-92z" />
    <glyph glyph-name="Ytilde" unicode="&#x1ef8;" horiz-adv-x="703" 
d="M275 0v281l-262 419h175l163 -270h2l164 270h173l-262 -419v-281h-153zM176 756q-7 65 22.5 102.5t84.5 37.5q36 0 75.5 -26t55.5 -26q37 0 32 43h82q7 -65 -23 -103t-85 -38q-36 0 -75 26t-56 26q-37 0 -31 -42h-82z" />
    <glyph glyph-name="ytilde" unicode="&#x1ef9;" horiz-adv-x="556" 
d="M49 -76q47 -17 73 -17q28 0 44.5 12t26.5 42l17 45l-195 531h147l118 -354h2l117 354h142l-200 -567q-37 -103 -85.5 -141.5t-124.5 -38.5q-60 0 -122 20zM104 604q-7 67 23 105t85 38q35 0 73.5 -26.5t54.5 -26.5q37 0 31 46h82q7 -67 -22.5 -105t-84.5 -38
q-34 0 -72.5 26t-55.5 26q-36 0 -32 -45h-82z" />
    <glyph glyph-name="enspace" unicode="&#x2002;" horiz-adv-x="500" 
 />
    <glyph glyph-name="emspace" unicode="&#x2003;" horiz-adv-x="1000" 
 />
    <glyph glyph-name="threeperemspace" unicode="&#x2004;" horiz-adv-x="333" 
 />
    <glyph glyph-name="fourperemspace" unicode="&#x2005;" horiz-adv-x="250" 
 />
    <glyph glyph-name="sixperemspace" unicode="&#x2006;" horiz-adv-x="167" 
 />
    <glyph glyph-name="figurespace" unicode="&#x2007;" horiz-adv-x="620" 
 />
    <glyph glyph-name="punctuationspace" unicode="&#x2008;" horiz-adv-x="240" 
 />
    <glyph glyph-name="thinspace" unicode="&#x2009;" horiz-adv-x="100" 
 />
    <glyph glyph-name="hairspace" unicode="&#x200a;" horiz-adv-x="50" 
 />
    <glyph glyph-name="zerowidthspace" unicode="&#x200b;" horiz-adv-x="0" 
 />
    <glyph glyph-name="endash" unicode="&#x2013;" horiz-adv-x="625" 
d="M38 208v123h549v-123h-549z" />
    <glyph glyph-name="emdash" unicode="&#x2014;" horiz-adv-x="904" 
d="M42 208v123h819v-123h-819z" />
    <glyph glyph-name="quoteleft" unicode="&#x2018;" horiz-adv-x="246" 
d="M199 556v-153h-152v117q0 77 31 120.5t98 65.5l30 -56q-73 -27 -73 -94h66z" />
    <glyph glyph-name="quoteright" unicode="&#x2019;" horiz-adv-x="246" 
d="M47 547v153h152v-117q0 -77 -31 -120.5t-98 -65.5l-30 56q73 27 73 94h-66z" />
    <glyph glyph-name="quotesinglbase" unicode="&#x201a;" horiz-adv-x="246" 
d="M47 0v153h152v-117q0 -77 -31 -120.5t-98 -65.5l-30 56q73 27 73 94h-66z" />
    <glyph glyph-name="quotedblleft" unicode="&#x201c;" horiz-adv-x="479" 
d="M199 556v-153h-152v117q0 77 31 120.5t98 65.5l30 -56q-73 -27 -73 -94h66zM432 556v-153h-152v117q0 77 31 120.5t98 65.5l30 -56q-73 -27 -73 -94h66z" />
    <glyph glyph-name="quotedblright" unicode="&#x201d;" horiz-adv-x="479" 
d="M280 547v153h152v-117q0 -77 -31 -120.5t-98 -65.5l-30 56q73 27 73 94h-66zM47 547v153h152v-117q0 -77 -31 -120.5t-98 -65.5l-30 56q73 27 73 94h-66z" />
    <glyph glyph-name="quotedblbase" unicode="&#x201e;" horiz-adv-x="479" 
d="M280 0v153h152v-117q0 -77 -31 -120.5t-98 -65.5l-30 56q73 27 73 94h-66zM47 0v153h152v-117q0 -77 -31 -120.5t-98 -65.5l-30 56q73 27 73 94h-66z" />
    <glyph glyph-name="dagger" unicode="&#x2020;" horiz-adv-x="490" 
d="M176 272v125l20 116l-74 -10h-75v123h75l73 -12l-19 125v16h138v-16l-20 -124l74 11h75v-123h-75l-74 11l20 -117v-125h-138z" />
    <glyph glyph-name="daggerdbl" unicode="&#x2021;" horiz-adv-x="490" 
d="M176 84v91l19 108l-73 -12h-75v124h75l73 -10l-11 72l11 73l-73 -10h-75v124h75l73 -12l-19 107v16h138v-16l-20 -107l74 12h75v-124h-75l-74 11l11 -74l-11 -73l74 11h75v-124h-75l-74 12l20 -108v-91h-138z" />
    <glyph glyph-name="bullet" unicode="&#x2022;" horiz-adv-x="564" 
d="M127 270q0 64 45.5 109.5t109.5 45.5t110 -45.5t46 -109.5t-46 -110t-110 -46t-109.5 46t-45.5 110z" />
    <glyph glyph-name="ellipsis" unicode="&#x2026;" horiz-adv-x="784" 
d="M47 0v153h152v-153h-152zM316 0v153h152v-153h-152zM586 0v153h152v-153h-152z" />
    <glyph glyph-name="perthousand" unicode="&#x2030;" horiz-adv-x="1168" 
d="M800 146q0 66 46.5 109t116.5 43t117 -43t47 -109q0 -69 -46 -112t-118 -43q-71 0 -117 43t-46 112zM892 146q0 -35 19.5 -57t51.5 -22q33 0 52.5 22t19.5 57q0 33 -20 54.5t-52 21.5q-31 0 -51 -21.5t-20 -54.5zM574 564h94l-433 -564h-94zM41 422q0 66 47 109t117 43
t116.5 -43t46.5 -109q0 -69 -46 -112t-117 -43t-117.5 43t-46.5 112zM134 422q0 -35 19.5 -57t51.5 -22q33 0 52 22t19 57q0 33 -19.5 54t-51.5 21q-31 0 -51 -21.5t-20 -53.5zM442 146q0 66 47 109t117 43t116.5 -43t46.5 -109q0 -69 -46 -112t-117 -43q-72 0 -118 43
t-46 112zM534 146q0 -35 19.5 -57t52.5 -22q32 0 51.5 22t19.5 57q0 33 -20 54.5t-51 21.5q-32 0 -52 -21.5t-20 -54.5z" />
    <glyph glyph-name="guilsinglleft" unicode="&#x2039;" horiz-adv-x="383" 
d="M179 271l156 -200l-96 -71l-200 271l200 267l96 -72z" />
    <glyph glyph-name="guilsinglright" unicode="&#x203a;" horiz-adv-x="383" 
d="M48 71l156 200l-156 195l96 72l200 -267l-200 -271z" />
    <glyph glyph-name="interrobang" unicode="&#x203d;" horiz-adv-x="572" 
d="M222 217l-14 367q-54 -21 -92 -58l-77 79q107 107 249 107q108 0 173 -50t65 -137q0 -49 -20 -86.5t-48.5 -60t-57.5 -42.5t-50 -45t-22 -55l-2 -19h-104zM198 0v131h150v-131h-150zM398 523q0 54 -65 70l-37 -227q14 22 42 49t44 51t16 57z" />
    <glyph glyph-name="fraction" unicode="&#x2044;" horiz-adv-x="666" 
d="M-11 0l593 700h94l-592 -700h-95z" />
    <glyph glyph-name="zero.sups" unicode="&#x2070;" horiz-adv-x="394" 
d="M27 680q0 87 48 137.5t123 50.5q74 0 121.5 -50.5t47.5 -137.5t-47.5 -136.5t-122.5 -49.5t-122.5 49.5t-47.5 136.5zM118 680q0 -50 21 -78.5t58 -28.5t58 28.5t21 78.5t-21 79.5t-57 29.5q-37 0 -58.5 -29.5t-21.5 -79.5z" />
    <glyph glyph-name="four.sups" unicode="&#x2074;" horiz-adv-x="340" 
d="M46 567l-28 67l176 227h91v-227h42v-67h-42v-67h-87v67h-152zM103 634h95v131z" />
    <glyph glyph-name="five.sups" unicode="&#x2075;" horiz-adv-x="325" 
d="M18 527l35 68q49 -26 96 -26q28 0 45 14t17 37q0 20 -13.5 32.5t-36.5 12.5q-32 0 -68 -14l-50 30l9 180h230v-70h-154l-3 -70q30 14 67 14q47 0 79.5 -30t32.5 -79q0 -62 -43.5 -97.5t-108.5 -35.5q-72 0 -134 34z" />
    <glyph glyph-name="six.sups" unicode="&#x2076;" horiz-adv-x="344" 
d="M27 667q0 101 49.5 151t123.5 50q50 0 106 -28l-35 -64q-36 18 -73 18q-32 0 -53.5 -22.5t-26.5 -59.5q39 26 83 26q52 0 85 -30.5t33 -83.5q0 -55 -38 -92.5t-102 -37.5q-77 0 -114.5 48.5t-37.5 124.5zM118 653q2 -89 60 -89q24 0 39.5 16t15.5 40q0 25 -14.5 40
t-38.5 15q-31 0 -62 -22z" />
    <glyph glyph-name="seven.sups" unicode="&#x2077;" horiz-adv-x="304" 
d="M57 500l131 287h-166v74h260v-59l-127 -302h-98z" />
    <glyph glyph-name="eight.sups" unicode="&#x2078;" horiz-adv-x="360" 
d="M26 599q0 61 68 89q-22 12 -37.5 32.5t-15.5 43.5q0 49 38.5 76.5t100.5 27.5t100.5 -28t38.5 -76q0 -47 -54 -76q30 -12 49.5 -35.5t19.5 -53.5q0 -49 -42.5 -77t-111.5 -28t-111.5 28t-42.5 77zM115 603q0 -21 18 -32.5t47 -11.5q28 0 46 11.5t18 32.5q0 19 -17.5 33
t-46.5 17q-29 -3 -47 -17t-18 -33zM180 719q24 3 37.5 15.5t13.5 30.5q0 16 -14 25.5t-37 9.5t-37.5 -9.5t-14.5 -25.5q0 -18 14 -30.5t38 -15.5z" />
    <glyph glyph-name="nine.sups" unicode="&#x2079;" horiz-adv-x="344" 
d="M34 525l38 62q34 -20 74 -20q33 0 54 22t26 60q-37 -26 -82 -26q-53 0 -85.5 30.5t-32.5 83.5q0 56 37.5 93.5t102.5 37.5q77 0 114.5 -48.5t37.5 -124.5q0 -101 -50 -151t-123 -50q-57 -2 -111 31zM165 686q30 0 61 22q0 89 -61 89q-24 0 -38.5 -15.5t-14.5 -39.5
q0 -25 14.5 -40.5t38.5 -15.5z" />
    <glyph glyph-name="plus.sups" unicode="&#x207a;" horiz-adv-x="324" 
d="M20 643v75h102v104h80v-104h102v-75h-102v-104h-80v104h-102z" />
    <glyph glyph-name="minus.sups" unicode="&#x207b;" horiz-adv-x="324" 
d="M20 643v75h284v-75h-284z" />
    <glyph glyph-name="equal.sups" unicode="&#x207c;" horiz-adv-x="324" 
d="M23 577v69h279v-69h-279zM23 715v69h279v-69h-279z" />
    <glyph glyph-name="parenleft.sups" unicode="&#x207d;" horiz-adv-x="252" 
d="M137 1008h95q-47 -52 -78.5 -138.5t-31.5 -191.5q0 -109 31.5 -198t78.5 -144h-94q-108 149 -108 342q0 191 107 330z" />
    <glyph glyph-name="parenright.sups" unicode="&#x207e;" horiz-adv-x="252" 
d="M20 1008h95q108 -140 108 -330q0 -194 -109 -342h-93q47 55 78 144t31 198q0 105 -31.5 191.5t-78.5 138.5z" />
    <glyph glyph-name="n.sups" unicode="&#x207f;" horiz-adv-x="414" 
d="M45 500v362h89l5 -40q51 49 111 49t89.5 -35t29.5 -98v-238h-95v240q0 54 -50 54q-48 0 -84 -41v-253h-95z" />
    <glyph glyph-name="zero.subs" unicode="&#x2080;" horiz-adv-x="394" 
d="M27 180q0 87 48 137.5t123 50.5q74 0 121.5 -50.5t47.5 -137.5t-47.5 -136.5t-122.5 -49.5t-122.5 49.5t-47.5 136.5zM118 180q0 -50 21 -78.5t58 -28.5t58 28.5t21 78.5t-21 79.5t-57 29.5q-37 0 -58.5 -29.5t-21.5 -79.5z" />
    <glyph glyph-name="one.subs" unicode="&#x2081;" horiz-adv-x="306" 
d="M135 0v274l-68 -34l-33 64l125 58h67v-362h-91z" />
    <glyph glyph-name="two.subs" unicode="&#x2082;" horiz-adv-x="348" 
d="M42 0l-1 41q-1 43 18 75t46 49.5t54.5 31t47 28.5t19.5 33q0 16 -14 25.5t-39 9.5q-48 0 -92 -42l-53 56q71 61 153 61q65 0 101.5 -31t36.5 -78q0 -40 -28 -69t-61.5 -42.5t-62.5 -33t-31 -42.5h178v-72h-272z" />
    <glyph glyph-name="three.subs" unicode="&#x2083;" horiz-adv-x="339" 
d="M25 26l33 68q49 -28 95 -28q31 0 50.5 13t19.5 31q0 42 -62 42h-55v67h51q55 0 55 39q0 16 -13 26.5t-36 10.5q-43 0 -89 -33l-41 59q66 47 136 47q59 0 96.5 -27t37.5 -70q0 -52 -44 -80q56 -26 56 -82t-46 -86t-112 -30t-132 33z" />
    <glyph glyph-name="four.subs" unicode="&#x2084;" horiz-adv-x="340" 
d="M46 67l-28 67l176 227h91v-227h42v-67h-42v-67h-87v67h-152zM103 134h95v131z" />
    <glyph glyph-name="five.subs" unicode="&#x2085;" horiz-adv-x="325" 
d="M18 27l35 68q49 -26 96 -26q28 0 45 14t17 37q0 20 -13.5 32.5t-36.5 12.5q-32 0 -68 -14l-50 30l9 180h230v-70h-154l-3 -70q30 14 67 14q47 0 79.5 -30t32.5 -79q0 -62 -43.5 -97.5t-108.5 -35.5q-72 0 -134 34z" />
    <glyph glyph-name="six.subs" unicode="&#x2086;" horiz-adv-x="344" 
d="M27 167q0 101 49.5 151t123.5 50q50 0 106 -28l-35 -64q-36 18 -73 18q-32 0 -53.5 -22.5t-26.5 -59.5q39 26 83 26q52 0 85 -30.5t33 -83.5q0 -55 -38 -92.5t-102 -37.5q-77 0 -114.5 48.5t-37.5 124.5zM118 153q2 -89 60 -89q24 0 39.5 16t15.5 40q0 25 -14.5 40
t-38.5 15q-31 0 -62 -22z" />
    <glyph glyph-name="seven.subs" unicode="&#x2087;" horiz-adv-x="304" 
d="M57 0l131 287h-166v74h260v-59l-127 -302h-98z" />
    <glyph glyph-name="eight.subs" unicode="&#x2088;" horiz-adv-x="360" 
d="M26 99q0 61 68 89q-22 12 -37.5 32.5t-15.5 43.5q0 49 38.5 76.5t100.5 27.5t100.5 -28t38.5 -76q0 -47 -54 -76q30 -12 49.5 -35.5t19.5 -53.5q0 -49 -42.5 -77t-111.5 -28t-111.5 28t-42.5 77zM115 103q0 -21 18 -32.5t47 -11.5q28 0 46 11.5t18 32.5q0 19 -17.5 33
t-46.5 17q-29 -3 -47 -17t-18 -33zM180 219q24 3 37.5 15.5t13.5 30.5q0 16 -14 25.5t-37 9.5t-37.5 -9.5t-14.5 -25.5q0 -18 14 -30.5t38 -15.5z" />
    <glyph glyph-name="nine.subs" unicode="&#x2089;" horiz-adv-x="344" 
d="M34 25l38 62q34 -20 74 -20q33 0 54 22t26 60q-37 -26 -82 -26q-53 0 -85.5 30.5t-32.5 83.5q0 56 37.5 93.5t102.5 37.5q77 0 114.5 -48.5t37.5 -124.5q0 -101 -50 -151t-123 -50q-57 -2 -111 31zM165 186q30 0 61 22q0 89 -61 89q-24 0 -38.5 -15.5t-14.5 -39.5
q0 -25 14.5 -40.5t38.5 -15.5z" />
    <glyph glyph-name="parenleft.subs" unicode="&#x208d;" horiz-adv-x="252" 
d="M137 508h95q-47 -52 -78.5 -138.5t-31.5 -191.5q0 -109 31.5 -198t78.5 -144h-94q-108 149 -108 342q0 191 107 330z" />
    <glyph glyph-name="parenright.subs" unicode="&#x208e;" horiz-adv-x="252" 
d="M20 508h95q108 -140 108 -330q0 -194 -109 -342h-93q47 55 78 144t31 198q0 105 -31.5 191.5t-78.5 138.5z" />
    <glyph glyph-name="colonmonitary" unicode="&#x20a1;" horiz-adv-x="627" 
d="M276 -133l29 123q-23 3 -45 9l-31 -132h-67l37 155q-73 37 -114 107t-41 157q0 118 78 199t208 90l21 88h69l-22 -89q28 -4 43 -8l23 97h70l-29 -118q33 -15 69 -43l-70 -92l-32 22l-80 -332q63 11 115 62l81 -81q-94 -89 -217 -93l-28 -121h-67zM178 286q0 -89 57 -143
l75 317q-59 -14 -95.5 -61t-36.5 -113zM281 113q25 -12 57 -15l85 357q-29 10 -57 11z" />
    <glyph glyph-name="Euro" unicode="&#x20ac;" horiz-adv-x="643" 
d="M25 173v78h79q-1 10 -1 31t1 32h-79v78h96q30 85 102.5 135t170.5 50q129 0 212 -83l-82 -87q-52 52 -123 52q-94 0 -135 -74h147v-71h-168q-2 -22 -2 -32q0 -21 2 -31h168v-70h-145q44 -75 138 -75q75 0 120 50l88 -80q-83 -88 -216 -88q-98 0 -171.5 50.5t-104.5 134.5
h-97z" />
    <glyph glyph-name="litre" unicode="&#x2113;" horiz-adv-x="567" 
d="M86 159l-31 85q65 26 106 45v243q0 87 46.5 134t120.5 47q83 0 133.5 -45t50.5 -128q0 -155 -201 -278v-104q0 -53 45 -53q35 0 55 31l83 -72q-60 -76 -166 -76q-167 0 -167 168v31q-29 -12 -75 -28zM311 528v-151q91 70 91 151q0 28 -11.5 46.5t-34.5 18.5
q-45 0 -45 -65z" />
    <glyph glyph-name="numero" unicode="&#x2116;" horiz-adv-x="976" 
d="M55 0v564h125l191 -301v301h148v-564h-127l-188 302v-302h-149zM583 403q0 71 46.5 118.5t124.5 47.5q79 0 125.5 -47.5t46.5 -118.5q0 -68 -47.5 -117t-124.5 -49t-124 49t-47 117zM688 403q0 -30 19 -50t47 -20q29 0 48 20t19 50t-19 51t-48 21q-28 0 -47 -21.5
t-19 -50.5z" />
    <glyph glyph-name="servicemark" unicode="&#x2120;" horiz-adv-x="882" 
d="M434 330v370h96l103 -133l101 133h97v-370h-98v222l-98 -126l-103 128v-224h-98zM34 373l53 68q62 -41 124 -41q64 0 64 34q0 18 -23 28.5t-56 17t-66 17t-56 35.5t-23 64q0 50 42.5 81.5t115.5 31.5q72 0 157 -38l-40 -70q-69 32 -117 32q-28 0 -44 -10t-16 -27
t23 -26.5t56 -15.5t66 -16.5t56 -36.5t23 -67q0 -51 -42 -82t-120 -31q-93 0 -177 52z" />
    <glyph glyph-name="trademark" unicode="&#x2122;" horiz-adv-x="886" 
d="M438 330v370h96l103 -133l101 133h97v-370h-98v222l-98 -126l-103 128v-224h-98zM159 330v288h-125v82h348v-82h-124v-288h-99z" />
    <glyph glyph-name="ohm" unicode="&#x2126;" horiz-adv-x="780" 
d="M721 0h-281v101q66 52 111 128t45 155q0 93 -60 146.5t-146 53.5q-87 0 -147 -53.5t-60 -146.5q0 -79 45 -155t111 -128v-101h-279v110h130q-56 54 -95 126.5t-39 151.5q0 151 97 237.5t237 86.5q141 0 237.5 -86.5t96.5 -237.5q0 -79 -39 -151.5t-94 -126.5h130v-110z
" />
    <glyph glyph-name="estimated" unicode="&#x212e;" horiz-adv-x="700" 
d="M55 280q0 133 88 215t232 82q121 0 195.5 -69.5t74.5 -182.5q0 -20 -4 -62h-405v-142q55 -44 141 -44q92 0 177 54l51 -78q-107 -66 -228 -66q-143 0 -232.5 81.5t-89.5 211.5zM372 495q-78 0 -136 -41v-118h241l1 129q-47 30 -106 30z" />
    <glyph glyph-name="uni2190" unicode="&#x2190;" 
d="M78 316l323 294l76 -88l-176 -155l189 7h332v-116h-332l-189 7l179 -155l-79 -88z" />
    <glyph glyph-name="uni2191" unicode="&#x2191;" 
d="M244 239l-88 76l294 323l294 -323l-88 -76l-155 176l7 -189v-332h-116v332l8 189z" />
    <glyph glyph-name="uni2192" unicode="&#x2192;" 
d="M499 653l323 -294l-323 -294l-79 88l179 155l-189 -7h-332v116h332l189 -7l-176 155z" />
    <glyph glyph-name="uni2193" unicode="&#x2193;" 
d="M156 301l88 76l156 -176l-8 189v332h116v-332l-7 -189l155 176l88 -76l-294 -323z" />
    <glyph glyph-name="uni2196" unicode="&#x2196;" 
d="M187 149l-21 436l436 -20l-7 -117l-235 16l139 -129l234 -235l-82 -82l-233 236l-130 138l16 -235z" />
    <glyph glyph-name="uni2197" unicode="&#x2197;" 
d="M733 585l-21 -436l-117 8l16 235l-130 -138l-233 -236l-82 82l234 235l139 129l-235 -16l-7 117z" />
    <glyph glyph-name="uni2198" unicode="&#x2198;" 
d="M712 471l21 -436l-436 20l7 117l235 -16l-139 129l-234 235l82 82l233 -236l130 -138l-16 235z" />
    <glyph glyph-name="uni2199" unicode="&#x2199;" 
d="M166 35l21 436l117 -8l-16 -235l130 138l233 236l82 -82l-234 -235l-139 -129l235 16l7 -117z" />
    <glyph glyph-name="partialdiff" unicode="&#x2202;" horiz-adv-x="646" 
d="M589 262q0 -134 -71.5 -204t-192.5 -70q-126 0 -197.5 69.5t-71.5 179.5q0 103 63.5 166t161.5 63q88 0 156 -47q-11 100 -47 140t-112 40q-81 0 -164 -34l-45 103q39 18 97.5 31t110.5 13q166 0 239 -101.5t73 -348.5zM444 256q0 44 -1 64q-56 44 -128 44q-47 0 -79 -32
t-32 -95q0 -61 33 -99t88 -38t87 40.5t32 115.5z" />
    <glyph glyph-name="increment" unicode="&#x2206;" horiz-adv-x="915" 
d="M55 0l403 709l401 -709h-804zM457 466l-192 -344h380z" />
    <glyph glyph-name="product" unicode="&#x220f;" horiz-adv-x="842" 
d="M787 584h-127v-584h-147v584h-185v-584h-145v584h-128v116h732v-116z" />
    <glyph glyph-name="summation" unicode="&#x2211;" horiz-adv-x="669" 
d="M614 0h-559v89l249 268l-235 259v84h533v-116h-333l205 -227l-224 -241h364v-116z" />
    <glyph glyph-name="minus" unicode="&#x2212;" horiz-adv-x="615" 
d="M38 209v121h539v-121h-539z" />
    <glyph glyph-name="radical" unicode="&#x221a;" horiz-adv-x="789" 
d="M45 336l-45 118l259 96l102 -339l280 489h148l-410 -712h-78l-124 398z" />
    <glyph glyph-name="infinity" unicode="&#x221e;" horiz-adv-x="823" 
d="M239 182q32 0 62 25t51 62q-21 38 -51 63t-62 25q-31 0 -52 -23t-21 -65t21 -64.5t52 -22.5zM222 66q-82 0 -132.5 54.5t-50.5 148.5t50.5 148.5t132.5 54.5q56 0 100 -30.5t90 -90.5q46 60 90 90.5t100 30.5q81 0 131.5 -54.5t50.5 -148.5t-50.5 -148.5t-131.5 -54.5
q-56 0 -100.5 30.5t-89.5 91.5q-45 -61 -89.5 -91.5t-100.5 -30.5zM472 269q21 -37 51 -62t62 -25q31 0 51.5 22.5t20.5 64.5t-20.5 65t-51.5 23q-32 0 -62 -25t-51 -63z" />
    <glyph glyph-name="integral" unicode="&#x222b;" horiz-adv-x="501" 
d="M303 558v-521q0 -135 -76.5 -191t-226.5 -56v112q91 0 122 31.5t31 102.5v520q0 208 224 208q61 0 124 -24l-36 -102q-43 13 -79 13q-83 0 -83 -93z" />
    <glyph glyph-name="approxequal" unicode="&#x2248;" horiz-adv-x="615" 
d="M39 318q-1 9 -1 25q0 72 40 115.5t111 43.5q46 0 88 -18.5t77.5 -37t65.5 -18.5q53 0 50 60h106q1 -9 1 -26q0 -72 -40 -115t-111 -43q-58 0 -126.5 37t-102.5 37q-27 0 -40 -16t-11 -44h-107zM39 50q-1 9 -1 25q0 72 40 115t111 43q46 0 88 -18.5t77.5 -37t65.5 -18.5
q53 0 50 60h106q1 -9 1 -26q0 -72 -40 -115.5t-111 -43.5q-45 0 -86.5 18.5t-77 37.5t-65.5 19q-27 0 -40 -16t-11 -43h-107z" />
    <glyph glyph-name="notequal" unicode="&#x2260;" horiz-adv-x="615" 
d="M38 332v121h343l58 85h96l-57 -85h99v-121h-180l-84 -126h264v-121h-343l-58 -85h-96l58 85h-100v121h182l84 126h-266z" />
    <glyph glyph-name="lessequal" unicode="&#x2264;" horiz-adv-x="633" 
d="M36 0v91h545l-545 163v141l549 143v-130l-331 -85l331 -101v-222h-549z" />
    <glyph glyph-name="greaterequal" unicode="&#x2265;" horiz-adv-x="633" 
d="M597 91v-91h-549v222l331 101l-331 85v130l549 -143v-141l-546 -163h546z" />
    <glyph glyph-name="uni25A0" unicode="&#x25a0;" 
d="M100 0v700h699v-700h-699z" />
    <glyph glyph-name="uni25A1" unicode="&#x25a1;" 
d="M100 0v700h699v-700h-699zM161 61h577v578h-577v-578z" />
    <glyph glyph-name="uni25A3" unicode="&#x25a3;" 
d="M100 0v700h699v-700h-699zM161 61h577v578h-577v-578zM247 223l121 126l-121 126l82 81l121 -126l121 126l82 -81l-121 -126l121 -126l-82 -81l-121 126l-121 -126z" />
    <glyph glyph-name="uni25B2" unicode="&#x25b2;" 
d="M120 43l330 554l329 -554h-659z" />
    <glyph glyph-name="uni25B6" unicode="&#x25b6;" 
d="M727 316l-554 -330v659z" />
    <glyph glyph-name="uni25BC" unicode="&#x25bc;" 
d="M779 592l-330 -554l-329 554h659z" />
    <glyph glyph-name="uni25C0" unicode="&#x25c0;" 
d="M727 -14l-554 330l554 329v-659z" />
    <glyph glyph-name="uni25C9" unicode="&#x25c9;" 
d="M343 349q0 -43 31.5 -74.5t74.5 -31.5q44 0 75.5 31t31.5 75t-31.5 75.5t-75.5 31.5t-75 -31.5t-31 -75.5zM215 349q0 98 68 166.5t166 68.5t166.5 -68.5t68.5 -166.5t-68.5 -166t-166.5 -68q-97 0 -165.5 68.5t-68.5 165.5zM87 349q0 150 106 256.5t256 106.5
t256.5 -106.5t106.5 -256.5t-106.5 -256t-256.5 -106t-256 106t-106 256zM149 349q0 -125 88.5 -213t212.5 -88q125 0 213.5 88.5t88.5 212.5q0 125 -89 213.5t-213 88.5t-212.5 -88.5t-88.5 -213.5z" />
    <glyph glyph-name="lozenge" unicode="&#x25ca;" horiz-adv-x="631" 
d="M187 351l128 -188l131 188l-131 189zM65 351l250 364l251 -364l-251 -364z" />
    <glyph glyph-name="uni25CB" unicode="&#x25cb;" 
d="M87 349q0 150 106 256.5t256 106.5t256.5 -106.5t106.5 -256.5t-106.5 -256t-256.5 -106t-256 106t-106 256zM147 348q0 -125 89 -214t214 -89t214.5 89t89.5 214t-89.5 214.5t-214.5 89.5t-214 -89.5t-89 -214.5z" />
    <glyph glyph-name="uni25CD" unicode="&#x25cd;" 
d="M87 349q0 150 106 256.5t256 106.5t256.5 -106.5t106.5 -256.5t-106.5 -256t-256.5 -106t-256 106t-106 256zM147 348q0 -125 89 -214t214 -89t214.5 89t89.5 214t-89.5 214.5t-214.5 89.5t-214 -89.5t-89 -214.5zM247 223l121 126l-121 126l82 81l121 -126l121 126
l82 -81l-121 -126l121 -126l-82 -81l-121 126l-121 -126z" />
    <glyph glyph-name="uni25CE" unicode="&#x25ce;" 
d="M405 349q0 -18 12.5 -30.5t31.5 -12.5q18 0 31 12.5t13 30.5q0 19 -13 32t-31 13q-19 0 -31.5 -13t-12.5 -32zM343 349q0 44 31 75.5t75 31.5t75.5 -31.5t31.5 -75.5t-31.5 -75t-75.5 -31q-43 0 -74.5 31.5t-31.5 74.5zM215 349q0 98 68 166.5t166 68.5t166.5 -68.5
t68.5 -166.5t-68.5 -166t-166.5 -68q-97 0 -165.5 68.5t-68.5 165.5zM277 349q0 -71 50.5 -121.5t121.5 -50.5q72 0 122.5 50.5t50.5 121.5q0 72 -50.5 122.5t-122.5 50.5q-71 0 -121.5 -50.5t-50.5 -122.5zM87 349q0 150 106 256.5t256 106.5t256.5 -106.5t106.5 -256.5
t-106.5 -256t-256.5 -106t-256 106t-106 256zM149 349q0 -125 88.5 -213t212.5 -88q125 0 213.5 88.5t88.5 212.5q0 125 -89 213.5t-213 88.5t-212.5 -88.5t-88.5 -213.5z" />
    <glyph glyph-name="uni25CF" unicode="&#x25cf;" 
d="M87 349q0 150 106 256.5t256 106.5t256.5 -106.5t106.5 -256.5t-106.5 -256t-256.5 -106t-256 106t-106 256z" />
    <glyph glyph-name="uni25E2" unicode="&#x25e2;" 
d="M765 0h-645l645 645v-645z" />
    <glyph glyph-name="uni25E3" unicode="&#x25e3;" 
d="M780 0h-645v645z" />
    <glyph glyph-name="uni25E4" unicode="&#x25e4;" 
d="M135 700h645l-645 -645v645z" />
    <glyph glyph-name="uni25E5" unicode="&#x25e5;" 
d="M120 700h645v-645z" />
    <glyph glyph-name="uni2605" unicode="&#x2605;" 
d="M267 101l182 96l181 -96l-35 201l147 144l-203 29l-90 184l-90 -184l-203 -29l147 -144zM87 349q0 150 106 256.5t256 106.5t256.5 -106.5t106.5 -256.5t-106.5 -256t-256.5 -106t-256 106t-106 256z" />
    <glyph glyph-name="uni2620" unicode="&#x2620;" 
d="M479 296q0 20 13 31.5t34 11.5q22 0 41.5 -20.5t19.5 -36.5q0 -14 -14.5 -27t-29.5 -13q-11 0 -18.5 4.5t-13.5 13t-7 9.5q-25 22 -25 27zM450 172q-28 0 -28 27q7 49 28 51q21 -2 28 -51q0 -27 -28 -27zM315 282q0 16 19.5 36.5t41.5 20.5q21 0 34 -11.5t13 -31.5
q0 -7 -25 -27q-1 -1 -7 -9.5t-13.5 -13t-18.5 -4.5q-14 0 -29 13.5t-15 26.5zM454 604q-104 0 -163.5 -53t-59.5 -144q0 -37 29 -75q7 -19 7 -42q0 -6 -7 -41q0 -37 30 -43q36 -7 48.5 -23.5t12.5 -55.5q0 -24 26 -36h147q26 12 26 36q0 39 12.5 55.5t47.5 23.5q31 6 31 43
q-7 35 -7 41q0 23 7 42q29 38 29 85q0 86 -59 136.5t-157 50.5zM87 349q0 150 106 256.5t256 106.5t256.5 -106.5t106.5 -256.5t-106.5 -256t-256.5 -106t-256 106t-106 256z" />
    <glyph glyph-name="interrobangdown" unicode="&#x2e18;" horiz-adv-x="562" 
d="M359 321l14 -367q54 21 92 58l77 -79q-107 -107 -249 -107q-108 0 -173 50t-65 137q0 49 20 86.5t48.5 60t57.5 42.5t50 45t22 55l2 19h104zM383 538v-131h-150v131h150zM183 15q0 -54 65 -70l37 227q-14 -22 -42 -49t-44 -51t-16 -57z" />
    <glyph glyph-name="anglebracketleft" unicode="&#x3008;" horiz-adv-x="441" 
d="M49 275l192 480h151l-196 -480l195 -475h-150z" />
    <glyph glyph-name="anglebracketright" unicode="&#x3009;" horiz-adv-x="441" 
d="M200 755l192 -480l-192 -475h-150l195 475l-196 480h151z" />
    <glyph glyph-name="Eacutedotbelow" unicode="&#xe004;" horiz-adv-x="634" 
d="M258 755l111 150l115 -67l-120 -83h-106zM68 0v700h510v-132h-359v-154h320v-117h-320v-165h363v-132h-514zM268 -188v114h116v-114h-116z" />
    <glyph glyph-name="Egravedotbelow" unicode="&#xe005;" horiz-adv-x="634" 
d="M286 755l-119 83l114 67l112 -150h-107zM68 0v700h510v-132h-359v-154h320v-117h-320v-165h363v-132h-514zM268 -188v114h116v-114h-116z" />
    <glyph glyph-name="Hmacronbelow" unicode="&#xe009;" horiz-adv-x="712" 
d="M68 0v700h152v-280h273v280h151v-700h-151v290h-273v-290h-152zM190 -191v90h332v-90h-332z" />
    <glyph glyph-name="Jcaron" unicode="&#xe00c;" horiz-adv-x="572" 
d="M360 755l-116 133h99l87 -64h2l88 64h100l-117 -133h-143zM32 126l114 74q44 -79 114 -79q46 0 71 29.5t25 83.5v466h151v-469q0 -118 -63.5 -180.5t-175.5 -62.5q-154 0 -236 138z" />
    <glyph glyph-name="Kcedilla" unicode="&#xe00d;" horiz-adv-x="692" 
d="M68 0v700h152v-327l266 327h167l-219 -261l241 -439h-171l-167 323l-117 -140v-183h-152zM295 -41h93q-22 -107 -102 -181l-100 50q80 65 109 131z" />
    <glyph glyph-name="Lcedilla" unicode="&#xe00e;" horiz-adv-x="602" 
d="M261 -41h93q-22 -107 -102 -181l-100 50q80 65 109 131zM68 0v700h152v-569h348v-131h-500z" />
    <glyph glyph-name="Mmacron" unicode="&#xe00f;" horiz-adv-x="861" 
d="M265 776v90h332v-90h-332zM68 0v700h152l211 -299l212 299h150v-700h-144v484l-219 -302l-218 302v-484h-144z" />
    <glyph glyph-name="Mcedilla" unicode="&#xe010;" horiz-adv-x="861" 
d="M379 -41h93q-22 -107 -102 -181l-100 50q80 65 109 131zM68 0v700h152l211 -299l212 299h150v-700h-144v484l-219 -302l-218 302v-484h-144z" />
    <glyph glyph-name="Ngrave" unicode="&#xe011;" horiz-adv-x="736" 
d="M328 755l-119 83l114 67l112 -150h-107zM68 0v700h144l312 -461v461h143v-700h-143l-312 459v-459h-144z" />
    <glyph glyph-name="Ndieresis" unicode="&#xe012;" horiz-adv-x="736" 
d="M427 764v115h116v-115h-116zM192 764v115h116v-115h-116zM68 0v700h144l312 -461v461h143v-700h-143l-312 459v-459h-144z" />
    <glyph glyph-name="Nmacron" unicode="&#xe013;" horiz-adv-x="736" 
d="M202 776v90h332v-90h-332zM68 0v700h144l312 -461v461h143v-700h-143l-312 459v-459h-144z" />
    <glyph glyph-name="Ncedilla" unicode="&#xe014;" horiz-adv-x="736" 
d="M317 -41h93q-22 -107 -102 -181l-100 50q80 65 109 131zM68 0v700h144l312 -461v461h143v-700h-143l-312 459v-459h-144z" />
    <glyph glyph-name="Ndescender" unicode="&#xe015;" horiz-adv-x="736" 
d="M68 0v700h144l312 -461v461h143v-900h-143v200l-312 459v-459h-144z" />
    <glyph glyph-name="Ocommaturnedabove" unicode="&#xe017;" horiz-adv-x="808" 
d="M480 827v-72q-32 -8 -61 -8q-49 0 -74 22t-25 56q-1 20 12 44t35 42h98q-37 -36 -37 -62t29 -24q9 0 23 2zM41 352q0 158 102 259t261 101q160 0 261.5 -101t101.5 -259q0 -159 -102 -261.5t-261 -102.5t-261 102.5t-102 261.5zM195 352q0 -106 58.5 -171t150.5 -65
q93 0 151.5 65t58.5 171q0 105 -58.5 169t-151.5 64t-151 -64.5t-58 -168.5z" />
    <glyph glyph-name="Ocedilla" unicode="&#xe01b;" horiz-adv-x="808" 
d="M354 -41h93q-22 -107 -102 -181l-100 50q80 65 109 131zM41 352q0 158 102 259t261 101q160 0 261.5 -101t101.5 -259q0 -159 -102 -261.5t-261 -102.5t-261 102.5t-102 261.5zM195 352q0 -106 58.5 -171t150.5 -65q93 0 151.5 65t58.5 171q0 105 -58.5 169t-151.5 64
t-151 -64.5t-58 -168.5z" />
    <glyph glyph-name="Ounderlineaccent" unicode="&#xe01c;" horiz-adv-x="808" 
d="M41 352q0 158 102 259t261 101q160 0 261.5 -101t101.5 -259q0 -159 -102 -261.5t-261 -102.5t-261 102.5t-102 261.5zM195 352q0 -106 58.5 -171t150.5 -65q93 0 151.5 65t58.5 171q0 105 -58.5 169t-151.5 64t-151 -64.5t-58 -168.5zM348 -206v160h112v-160h-112z" />
    <glyph glyph-name="Pmacron" unicode="&#xe01e;" horiz-adv-x="677" 
d="M68 0v700h293q72 0 126.5 -18.5t84.5 -51t44.5 -70.5t14.5 -82q0 -94 -65.5 -159t-203.5 -65h-142v-254h-152zM220 372h140q59 0 89.5 28.5t30.5 75.5t-30.5 75t-88.5 28h-141v-207zM167 776v90h332v-90h-332z" />
    <glyph glyph-name="Rcedilla" unicode="&#xe020;" horiz-adv-x="700" 
d="M68 0v700h308q139 0 204 -63.5t65 -158.5q0 -64 -32.5 -115t-95.5 -78l134 -285h-163l-108 261h-160v-261h-152zM220 372h154q58 0 88.5 29t30.5 75q0 47 -30.5 75t-87.5 28h-155v-207zM288 -41h93q-22 -107 -102 -181l-100 50q80 65 109 131z" />
    <glyph glyph-name="Euro.LP" unicode="&#xe022;" horiz-adv-x="700" 
d="M25 229v82h88q-2 30 -2 48q0 19 1 29h-87v82h98q26 114 105.5 178t195.5 64q137 0 237 -89l-76 -101q-74 61 -155 61q-55 0 -94 -30t-58 -86h173v-79h-188q-1 -10 -1 -29q0 -18 2 -48h187v-79h-170q40 -115 151 -115q80 0 146 60l94 -86q-57 -56 -115 -79.5t-134 -23.5
q-114 0 -191.5 63.5t-105.5 177.5h-101z" />
    <glyph glyph-name="Umacronbelow" unicode="&#xe023;" horiz-adv-x="721" 
d="M195 -191v90h332v-90h-332zM65 266v434h153v-434q0 -70 39 -109.5t104 -39.5q64 0 103.5 39.5t39.5 109.5v434h152v-434q0 -136 -80.5 -207t-214.5 -71t-215 71t-81 207z" />
    <glyph glyph-name="eacutedotbelow" unicode="&#xe028;" horiz-adv-x="584" 
d="M37 272q0 126 77 202t192 76q113 0 176 -67t63 -178q0 -38 -5 -65h-354q12 -136 132 -136q75 0 149 46l61 -93q-100 -70 -221 -70t-195.5 76t-74.5 209zM310 444q-46 0 -78.5 -31.5t-42.5 -88.5h217q0 120 -96 120zM233 592l128 186l98 -65l-134 -121h-92zM247 -188v114
h115v-114h-115z" />
    <glyph glyph-name="egravedotbelow" unicode="&#xe029;" horiz-adv-x="584" 
d="M37 272q0 126 77 202t192 76q113 0 176 -67t63 -178q0 -38 -5 -65h-354q12 -136 132 -136q75 0 149 46l61 -93q-100 -70 -221 -70t-195.5 76t-74.5 209zM310 444q-46 0 -78.5 -31.5t-42.5 -88.5h217q0 120 -96 120zM282 592l-134 121l99 65l127 -186h-92zM246 -188v114
h115v-114h-115z" />
    <glyph glyph-name="idotaccent" unicode="&#xe030;" horiz-adv-x="272" 
d="M63 0v529h147v-529h-147zM63 624v126h147v-126h-147z" />
    <glyph glyph-name="kcedilla" unicode="&#xe031;" horiz-adv-x="585" 
d="M63 0v755h147v-453l196 235h154l-166 -190l179 -347h-166l-110 236l-87 -99v-137h-147zM257 -41h93q-22 -107 -102 -181l-100 50q80 65 109 131z" />
    <glyph glyph-name="lcedilla" unicode="&#xe032;" horiz-adv-x="286" 
d="M98 -41h93q-22 -107 -102 -181l-100 50q80 65 109 131zM82 0v755h147v-755h-147z" />
    <glyph glyph-name="mmacron" unicode="&#xe033;" horiz-adv-x="906" 
d="M61 0v537h139l6 -58q75 71 158 71q103 0 142 -79q82 79 176 79q82 0 124 -50.5t42 -141.5v-358h-146v361q0 78 -65 78q-58 0 -110 -57q2 -24 2 -35v-347h-147v361q0 78 -65 78t-110 -61v-378h-146zM289 627v90h328v-90h-328z" />
    <glyph glyph-name="mcedilla" unicode="&#xe034;" horiz-adv-x="906" 
d="M398 -41h93q-22 -107 -102 -181l-100 50q80 65 109 131zM61 0v537h139l6 -58q75 71 158 71q103 0 142 -79q82 79 176 79q82 0 124 -50.5t42 -141.5v-358h-146v361q0 78 -65 78q-58 0 -110 -57q2 -24 2 -35v-347h-147v361q0 78 -65 78t-110 -61v-378h-146z" />
    <glyph glyph-name="ngrave" unicode="&#xe035;" horiz-adv-x="597" 
d="M277 592l-134 121l99 65l127 -186h-92zM61 0v537h138l7 -62q71 75 163 75q171 0 171 -195v-355h-147v359q0 81 -70 81q-66 0 -116 -63v-377h-146z" />
    <glyph glyph-name="ndieresis" unicode="&#xe036;" horiz-adv-x="597" 
d="M356 615v114h115v-114h-115zM127 615v114h117v-114h-117zM61 0v537h138l7 -62q71 75 163 75q171 0 171 -195v-355h-147v359q0 81 -70 81q-66 0 -116 -63v-377h-146z" />
    <glyph glyph-name="nmacron" unicode="&#xe037;" horiz-adv-x="597" 
d="M134 627v90h328v-90h-328zM61 0v537h138l7 -62q71 75 163 75q171 0 171 -195v-355h-147v359q0 81 -70 81q-66 0 -116 -63v-377h-146z" />
    <glyph glyph-name="ncedilla" unicode="&#xe038;" horiz-adv-x="597" 
d="M244 -41h93q-22 -107 -102 -181l-100 50q80 65 109 131zM61 0v537h138l7 -62q71 75 163 75q171 0 171 -195v-355h-147v359q0 81 -70 81q-66 0 -116 -63v-377h-146z" />
    <glyph glyph-name="ndescender" unicode="&#xe039;" horiz-adv-x="597" 
d="M61 0v537h138l7 -62q71 75 163 75q171 0 171 -195v-555h-147v559q0 81 -70 81q-66 0 -116 -63v-377h-146z" />
    <glyph glyph-name="ocommaturnedabove" unicode="&#xe03b;" horiz-adv-x="614" 
d="M380 668v-72q-32 -8 -61 -8q-48 0 -73 21.5t-25 55.5q-2 51 46 99h98q-37 -44 -37 -72q0 -27 30 -27q5 0 12.5 1.5t9.5 1.5zM37 274q0 123 76.5 199t194.5 76q116 0 192 -76t76 -199q0 -132 -73.5 -209t-194.5 -77q-123 0 -197 77t-74 209zM185 273q0 -81 32.5 -128
t90.5 -47q56 0 88 47.5t32 127.5q0 74 -33 119.5t-87 45.5q-55 0 -89 -45.5t-34 -119.5z" />
    <glyph glyph-name="ocedilla" unicode="&#xe03f;" horiz-adv-x="614" 
d="M250 -41h93q-22 -107 -102 -181l-100 50q80 65 109 131zM37 274q0 123 76.5 199t194.5 76q116 0 192 -76t76 -199q0 -132 -73.5 -209t-194.5 -77q-123 0 -197 77t-74 209zM185 273q0 -81 32.5 -128t90.5 -47q56 0 88 47.5t32 127.5q0 74 -33 119.5t-87 45.5
q-55 0 -89 -45.5t-34 -119.5z" />
    <glyph glyph-name="ounderlineaccent" unicode="&#xe040;" horiz-adv-x="614" 
d="M250 -206v160h112v-160h-112zM37 274q0 123 76.5 199t194.5 76q116 0 192 -76t76 -199q0 -132 -73.5 -209t-194.5 -77q-123 0 -197 77t-74 209zM185 273q0 -81 32.5 -128t90.5 -47q56 0 88 47.5t32 127.5q0 74 -33 119.5t-87 45.5q-55 0 -89 -45.5t-34 -119.5z" />
    <glyph glyph-name="pmacron" unicode="&#xe042;" horiz-adv-x="607" 
d="M207 57v-257h-145v737h132l11 -65q67 77 157 77q96 0 152 -70.5t56 -203.5q0 -138 -56 -212.5t-149 -74.5q-89 0 -158 69zM207 153q49 -53 111 -53q52 0 79 46.5t27 127.5q0 163 -106 163q-61 0 -111 -56v-228zM149 627v90h328v-90h-328z" />
    <glyph glyph-name="rcedilla" unicode="&#xe044;" horiz-adv-x="443" 
d="M61 0v537h135l10 -83q56 98 153 98q38 0 66 -11l-21 -134q-33 12 -72 12q-74 0 -125 -96v-323h-146zM79 -41h93q-22 -107 -102 -181l-100 50q80 65 109 131z" />
    <glyph glyph-name="umacronbelow" unicode="&#xe047;" horiz-adv-x="598" 
d="M58 182v355h147v-358q0 -81 69 -81q64 0 117 61v378h147v-537h-136l-9 62q-72 -74 -164 -74q-171 0 -171 194zM134 -190v90h328v-90h-328z" />
    <glyph glyph-name="Atilde.small" unicode="&#xe060;" horiz-adv-x="632" 
d="M15 0l222 564h159l220 -564h-154l-34 95h-226l-33 -95h-154zM142 630q-7 67 23 105t85 38q35 0 73.5 -26.5t54.5 -26.5q37 0 31 46h82q7 -67 -22.5 -105t-84.5 -38q-34 0 -73 26t-55 26q-36 0 -32 -45h-82zM314 411l-75 -211h152l-75 211h-2z" />
    <glyph glyph-name="A.small" unicode="&#xe06c;" horiz-adv-x="632" 
d="M15 0l222 564h159l220 -564h-154l-34 95h-226l-33 -95h-154zM314 411l-75 -211h152l-75 211h-2z" />
    <glyph glyph-name="B.small" unicode="&#xe06d;" horiz-adv-x="605" 
d="M63 0v564h258q109 0 164.5 -41t55.5 -111q0 -83 -83 -119q51 -15 79 -49t28 -81q0 -79 -62 -121t-169 -42h-271zM211 331h104q83 0 83 63t-83 63h-104v-126zM211 108h120q84 0 84 65q0 66 -84 66h-120v-131z" />
    <glyph glyph-name="C.small" unicode="&#xe06e;" horiz-adv-x="618" 
d="M40 287q0 124 85.5 207.5t225.5 83.5q126 0 222 -76l-75 -97q-68 55 -142 55t-121 -48.5t-47 -124.5q0 -80 46 -131t122 -51q80 0 145 62l85 -85q-99 -94 -236 -94q-141 0 -225.5 85t-84.5 214z" />
    <glyph glyph-name="D.small" unicode="&#xe06f;" horiz-adv-x="634" 
d="M63 0v564h205q158 0 242 -73t84 -203q0 -137 -82 -212.5t-244 -75.5h-205zM211 114h63q172 0 172 175q0 77 -43.5 120t-128.5 43h-63v-338z" />
    <glyph glyph-name="E.small" unicode="&#xe070;" horiz-adv-x="553" 
d="M63 0v564h438v-116h-290v-111h257v-104h-257v-117h294v-116h-442z" />
    <glyph glyph-name="F.small" unicode="&#xe071;" horiz-adv-x="552" 
d="M63 0v564h442v-116h-294v-112h254v-105h-254v-231h-148z" />
    <glyph glyph-name="G.small" unicode="&#xe072;" horiz-adv-x="646" 
d="M40 286q0 127 86.5 209.5t230.5 82.5q116 0 220 -67l-69 -96q-75 45 -151 45q-78 0 -123.5 -49t-45.5 -125q0 -79 44.5 -130t124.5 -51q61 0 107 23v97h-127v93h254v-257q-97 -73 -237 -73q-142 0 -228 83.5t-86 214.5z" />
    <glyph glyph-name="H.small" unicode="&#xe073;" horiz-adv-x="638" 
d="M63 0v564h148v-215h217v215h147v-564h-147v228h-217v-228h-148z" />
    <glyph glyph-name="I.small" unicode="&#xe074;" horiz-adv-x="273" 
d="M63 0v564h147v-564h-147z" />
    <glyph glyph-name="J.small" unicode="&#xe075;" horiz-adv-x="499" 
d="M22 95l101 69q36 -58 92 -58q77 0 77 89v369h148v-371q0 -95 -55 -150t-159 -55q-131 0 -204 107z" />
    <glyph glyph-name="K.small" unicode="&#xe076;" horiz-adv-x="629" 
d="M64 0v564h147v-243l209 243h174l-193 -212l212 -352h-168l-141 246l-93 -102v-144h-147z" />
    <glyph glyph-name="L.small" unicode="&#xe077;" horiz-adv-x="547" 
d="M63 0v564h147v-443h304v-121h-451z" />
    <glyph glyph-name="M.small" unicode="&#xe078;" horiz-adv-x="760" 
d="M63 0v564h139l178 -230l179 230h138v-564h-141v362l-176 -222l-175 221v-361h-142z" />
    <glyph glyph-name="N.small" unicode="&#xe079;" horiz-adv-x="653" 
d="M63 0v564h136l251 -342v342h140v-564h-135l-252 342v-342h-140z" />
    <glyph glyph-name="O.small" unicode="&#xe07a;" horiz-adv-x="696" 
d="M40 286q0 127 89 209.5t220 82.5q129 0 218 -82.5t89 -209.5q0 -133 -87.5 -215.5t-219.5 -82.5q-133 0 -221 82.5t-88 215.5zM188 286q0 -80 45.5 -130.5t115.5 -50.5q69 0 114 50.5t45 130.5q0 75 -45.5 124.5t-113.5 49.5q-69 0 -115 -49.5t-46 -124.5z" />
    <glyph glyph-name="P.small" unicode="&#xe07b;" horiz-adv-x="611" 
d="M211 290h111q48 0 71.5 22t23.5 57q0 37 -23.5 59t-71.5 22h-111v-160zM63 0v564h266q120 0 177 -56t57 -138q0 -81 -57 -137t-177 -56h-118v-177h-148z" />
    <glyph glyph-name="Q.small" unicode="&#xe07c;" horiz-adv-x="699" 
d="M40 286q0 127 89 209.5t220 82.5q129 0 218 -82.5t89 -209.5q0 -108 -60 -184l67 -53l-64 -73l-73 62q-78 -50 -177 -50q-133 0 -221 82.5t-88 215.5zM344 193l56 68l86 -72q22 42 22 97q0 75 -45.5 124.5t-113.5 49.5q-69 0 -115 -49.5t-46 -124.5q0 -80 45.5 -130.5
t115.5 -50.5q43 0 78 20z" />
    <glyph glyph-name="R.small" unicode="&#xe07d;" horiz-adv-x="627" 
d="M63 0v564h276q121 0 178 -56t57 -138q0 -113 -101 -159l106 -211h-153l-84 187h-3h-128v-187h-148zM211 291h121q48 0 72 22t24 58q0 35 -24 57t-72 22h-121v-159z" />
    <glyph glyph-name="S.small" unicode="&#xe07e;" horiz-adv-x="560" 
d="M36 54l67 104q85 -54 177 -54q95 0 95 54q0 23 -24 39t-60 23.5t-77.5 20.5t-77.5 29t-60 50.5t-24 83.5q0 77 62.5 125.5t172.5 48.5q116 0 217 -49l-56 -105q-81 39 -164 39q-40 0 -62.5 -14.5t-22.5 -36.5q0 -23 24 -37.5t59.5 -21.5t77.5 -20t77.5 -29.5t59.5 -53
t24 -88.5q0 -78 -61.5 -126t-177.5 -48q-138 0 -246 66z" />
    <glyph glyph-name="T.small" unicode="&#xe07f;" horiz-adv-x="587" 
d="M220 0v444h-194v120h535v-120h-194v-444h-147z" />
    <glyph glyph-name="U.small" unicode="&#xe080;" horiz-adv-x="628" 
d="M59 213v351h148v-351q0 -52 29 -80t78 -28q48 0 77.5 28.5t29.5 79.5v351h148v-351q0 -108 -71 -167t-184 -59t-184 59t-71 167z" />
    <glyph glyph-name="V.small" unicode="&#xe081;" horiz-adv-x="625" 
d="M233 0l-219 564h154l143 -408h2l146 408h153l-221 -564h-158z" />
    <glyph glyph-name="W.small" unicode="&#xe082;" horiz-adv-x="929" 
d="M206 0l-187 564h150l115 -370h2l110 370h144l106 -372h2l117 372h144l-186 -564h-144l-115 369h-2l-111 -369h-145z" />
    <glyph glyph-name="X.small" unicode="&#xe083;" horiz-adv-x="640" 
d="M20 0l209 287l-201 277h170l122 -172l122 172h170l-201 -277l208 -287h-169l-131 184l-131 -184h-168z" />
    <glyph glyph-name="Y.small" unicode="&#xe084;" horiz-adv-x="633" 
d="M243 0v212l-230 352h173l130 -215h2l129 215h173l-230 -352v-212h-147z" />
    <glyph glyph-name="Z.small" unicode="&#xe085;" horiz-adv-x="577" 
d="M44 0v99l291 346h-292v119h485v-97l-291 -347h302v-120h-495z" />
    <glyph glyph-name="Aacute.small" unicode="&#xe086;" horiz-adv-x="632" 
d="M246 618l128 186l98 -65l-134 -121h-92zM15 0l222 564h159l220 -564h-154l-34 95h-226l-33 -95h-154zM314 411l-75 -211h152l-75 211h-2z" />
    <glyph glyph-name="Agrave.small" unicode="&#xe087;" horiz-adv-x="632" 
d="M15 0l222 564h159l220 -564h-154l-34 95h-226l-33 -95h-154zM297 618l-134 121l99 65l127 -186h-92zM314 411l-75 -211h152l-75 211h-2z" />
    <glyph glyph-name="Acircumflex.small" unicode="&#xe088;" horiz-adv-x="632" 
d="M15 0l222 564h159l220 -564h-154l-34 95h-226l-33 -95h-154zM119 618l117 160h161l117 -160h-108l-88 90h-3l-89 -90h-107zM314 411l-75 -211h152l-75 211h-2z" />
    <glyph glyph-name="Adieresis.small" unicode="&#xe089;" horiz-adv-x="632" 
d="M375 641v114h115v-114h-115zM146 641v114h117v-114h-117zM15 0l222 564h159l220 -564h-154l-34 95h-226l-33 -95h-154zM314 411l-75 -211h152l-75 211h-2z" />
    <glyph glyph-name="colonmonitary.LP" unicode="&#xe08a;" horiz-adv-x="633" 
d="M293 0l14 58q-21 3 -45 9l-16 -67h-66l22 90q-74 37 -115 107t-41 157q0 118 78 199.5t207 90.5l14 56h69l-14 -57q11 -1 43 -8l15 65h70l-22 -87q42 -21 70 -44l-70 -91l-32 22l-81 -331q62 10 115 61l82 -81q-93 -88 -217 -94l-13 -55h-67zM180 354q0 -90 57 -142
l74 315q-59 -14 -95 -60.5t-36 -112.5zM283 182q23 -11 56 -14l85 355q-25 8 -56 10z" />
    <glyph glyph-name="Aring.small" unicode="&#xe08b;" horiz-adv-x="632" 
d="M15 0l215 546q-32 32 -32 79q0 50 35 83t85 33t85 -33t35 -83q0 -49 -35 -81l213 -544h-154l-34 95h-226l-33 -95h-154zM314 411l-75 -211h152l-75 211h-2zM256 625q0 -23 14.5 -40t37.5 -21h20q22 4 37 21t15 40q0 27 -18 45t-44 18t-44 -18t-18 -45z" />
    <glyph glyph-name="Acaron.small" unicode="&#xe08c;" horiz-adv-x="632" 
d="M236 618l-117 160h107l89 -90h3l88 90h108l-117 -160h-161zM15 0l222 564h159l220 -564h-154l-34 95h-226l-33 -95h-154zM314 411l-75 -211h152l-75 211h-2z" />
    <glyph glyph-name="Amacron.small" unicode="&#xe08d;" horiz-adv-x="632" 
d="M153 653v90h328v-90h-328zM15 0l222 564h159l220 -564h-154l-34 95h-226l-33 -95h-154zM314 411l-75 -211h152l-75 211h-2z" />
    <glyph glyph-name="Abreve.small" unicode="&#xe08e;" horiz-adv-x="632" 
d="M15 0l222 564h159l220 -564h-154l-34 95h-226l-33 -95h-154zM314 411l-75 -211h152l-75 211h-2zM318 608q-77 0 -122 45.5t-53 124.5h92q5 -38 27 -58.5t56 -20.5t55.5 20.5t26.5 58.5h90q-5 -79 -51.5 -124.5t-120.5 -45.5z" />
    <glyph glyph-name="Ainvertedbreve.small" unicode="&#xe08f;" horiz-adv-x="632" 
d="M15 0l222 564h159l220 -564h-154l-34 95h-226l-33 -95h-154zM316 787q76 0 121.5 -45.5t52.5 -123.5h-92q-5 37 -26.5 57.5t-55.5 20.5t-56 -20.5t-27 -57.5h-90q5 78 51.5 123.5t121.5 45.5zM314 411l-75 -211h152l-75 211h-2z" />
    <glyph glyph-name="Adoublegrave.small" unicode="&#xe090;" horiz-adv-x="632" 
d="M15 0l222 564h159l220 -564h-154l-34 95h-226l-33 -95h-154zM314 411l-75 -211h152l-75 211h-2zM161 804l119 -186h-90l-128 124zM356 804l118 -186h-90l-127 124z" />
    <glyph glyph-name="Adotabove.small" unicode="&#xe091;" horiz-adv-x="632" 
d="M15 0l222 564h159l220 -564h-154l-34 95h-226l-33 -95h-154zM314 411l-75 -211h152l-75 211h-2zM261 641v114h115v-114h-115z" />
    <glyph glyph-name="Aringacute.small" unicode="&#xe092;" horiz-adv-x="632" 
d="M15 0l215 546q-32 32 -32 79q0 50 35 83t85 33t85 -33t35 -83q0 -49 -35 -81l213 -544h-154l-34 95h-226l-33 -95h-154zM246 773l128 186l98 -65l-134 -121h-92zM314 411l-75 -211h152l-75 211h-2zM256 625q0 -23 14.5 -40t37.5 -21h20q22 4 37 21t15 40q0 27 -18 45
t-44 18t-44 -18t-18 -45z" />
    <glyph glyph-name="Adieresismacron.small" unicode="&#xe093;" horiz-adv-x="632" 
d="M375 630v114h115v-114h-115zM146 630v114h117v-114h-117zM153 804v90h328v-90h-328zM15 0l222 564h159l220 -564h-154l-34 95h-226l-33 -95h-154zM314 411l-75 -211h152l-75 211h-2z" />
    <glyph glyph-name="Aogonek.small" unicode="&#xe094;" horiz-adv-x="632" 
d="M15 0l222 564h159l217 -557l4 -7q-82 -24 -82 -70q0 -36 43 -36q25 0 49 11l3 -2v-98q-34 -12 -78 -12q-55 0 -87.5 27.5t-32.5 73.5q0 64 61 106h-31l-34 95h-226l-33 -95h-154zM314 411l-75 -211h152l-75 211h-2z" />
    <glyph glyph-name="AE.small" unicode="&#xe096;" horiz-adv-x="927" 
d="M12 0l263 564h600v-116h-375l34 -111h308v-104h-276l36 -117h277v-116h-397l-26 96h-245l-42 -96h-157zM362 440l-102 -232h165z" />
    <glyph glyph-name="AEacute.small" unicode="&#xe097;" horiz-adv-x="927" 
d="M12 0l263 564h600v-116h-375l34 -111h308v-104h-276l36 -117h277v-116h-397l-26 96h-245l-42 -96h-157zM362 440l-102 -232h165zM367 618l128 186l98 -65l-134 -121h-92z" />
    <glyph glyph-name="AEmacron.small" unicode="&#xe098;" horiz-adv-x="927" 
d="M12 0l263 564h600v-116h-375l34 -111h308v-104h-276l36 -117h277v-116h-397l-26 96h-245l-42 -96h-157zM362 440l-102 -232h165zM283 653v90h328v-90h-328z" />
    <glyph glyph-name="Cacute.small" unicode="&#xe099;" horiz-adv-x="618" 
d="M259 618l128 186l98 -65l-134 -121h-92zM40 287q0 124 85.5 207.5t225.5 83.5q126 0 222 -76l-75 -97q-68 55 -142 55t-121 -48.5t-47 -124.5q0 -80 46 -131t122 -51q80 0 145 62l85 -85q-99 -94 -236 -94q-141 0 -225.5 85t-84.5 214z" />
    <glyph glyph-name="Ccircumflex.small" unicode="&#xe09a;" horiz-adv-x="618" 
d="M142 618l117 160h161l117 -160h-108l-88 90h-3l-89 -90h-107zM40 287q0 124 85.5 207.5t225.5 83.5q126 0 222 -76l-75 -97q-68 55 -142 55t-121 -48.5t-47 -124.5q0 -80 46 -131t122 -51q80 0 145 62l85 -85q-99 -94 -236 -94q-141 0 -225.5 85t-84.5 214z" />
    <glyph glyph-name="Ccaron.small" unicode="&#xe09b;" horiz-adv-x="618" 
d="M260 618l-117 160h107l89 -90h3l88 90h108l-117 -160h-161zM40 287q0 124 85.5 207.5t225.5 83.5q126 0 222 -76l-75 -97q-68 55 -142 55t-121 -48.5t-47 -124.5q0 -80 46 -131t122 -51q80 0 145 62l85 -85q-99 -94 -236 -94q-141 0 -225.5 85t-84.5 214z" />
    <glyph glyph-name="Cdotaccent.small" unicode="&#xe09c;" horiz-adv-x="618" 
d="M40 287q0 124 85.5 207.5t225.5 83.5q126 0 222 -76l-75 -97q-68 55 -142 55t-121 -48.5t-47 -124.5q0 -80 46 -131t122 -51q80 0 145 62l85 -85q-99 -94 -236 -94q-141 0 -225.5 85t-84.5 214zM274 641v114h115v-114h-115z" />
    <glyph glyph-name="Ccedilla.small" unicode="&#xe09d;" horiz-adv-x="618" 
d="M167 -172q98 78 121 165q-115 18 -181.5 99t-66.5 195q0 124 85.5 207.5t225.5 83.5q126 0 222 -76l-75 -97q-68 55 -142 55t-121 -48.5t-47 -124.5q0 -80 46 -131t122 -51q80 0 145 62l85 -85q-91 -86 -211 -93q-15 -126 -108 -211z" />
    <glyph glyph-name="Dcaron.small" unicode="&#xe09e;" horiz-adv-x="634" 
d="M63 0v564h205q158 0 242 -73t84 -203q0 -137 -82 -212.5t-244 -75.5h-205zM211 114h63q172 0 172 175q0 77 -43.5 120t-128.5 43h-63v-338zM246 618l-117 160h107l89 -90h3l88 90h108l-117 -160h-161z" />
    <glyph glyph-name="Dcedilla.small" unicode="&#xe09f;" horiz-adv-x="634" 
d="M63 0v564h205q158 0 242 -73t84 -203q0 -137 -82 -212.5t-244 -75.5h-205zM211 114h63q172 0 172 175q0 77 -43.5 120t-128.5 43h-63v-338zM279 -41h93q-22 -107 -102 -181l-100 50q80 65 109 131z" />
    <glyph glyph-name="Ddotbelow.small" unicode="&#xe0a0;" horiz-adv-x="634" 
d="M63 0v564h205q158 0 242 -73t84 -203q0 -137 -82 -212.5t-244 -75.5h-205zM211 114h63q172 0 172 175q0 77 -43.5 120t-128.5 43h-63v-338zM268 -188v114h115v-114h-115z" />
    <glyph glyph-name="Dcroat.small" unicode="&#xe0a1;" horiz-adv-x="664" 
d="M8 240v86h88v238h205q158 0 242 -73t84 -203q0 -137 -82 -212.5t-244 -75.5h-205v240h-88zM244 114h63q172 0 172 175q0 77 -43.5 120t-128.5 43h-63v-128h123v-83h-123v-127z" />
    <glyph glyph-name="Eacute.small" unicode="&#xe0a2;" horiz-adv-x="553" 
d="M63 0v564h438v-116h-290v-111h257v-104h-257v-117h294v-116h-442zM217 618l128 186l98 -65l-134 -121h-92z" />
    <glyph glyph-name="Egrave.small" unicode="&#xe0a3;" horiz-adv-x="553" 
d="M63 0v564h438v-116h-290v-111h257v-104h-257v-117h294v-116h-442zM268 618l-134 121l99 65l127 -186h-92z" />
    <glyph glyph-name="Ecircumflex.small" unicode="&#xe0a4;" horiz-adv-x="554" 
d="M86 618l117 160h161l117 -160h-108l-88 90h-3l-89 -90h-107zM63 0v564h438v-116h-290v-111h257v-104h-257v-117h294v-116h-442z" />
    <glyph glyph-name="Edieresis.small" unicode="&#xe0a5;" horiz-adv-x="553" 
d="M341 641v114h115v-114h-115zM112 641v114h117v-114h-117zM63 0v564h438v-116h-290v-111h257v-104h-257v-117h294v-116h-442z" />
    <glyph glyph-name="Ecaron.small" unicode="&#xe0a6;" horiz-adv-x="554" 
d="M203 618l-117 160h107l89 -90h3l88 90h108l-117 -160h-161zM63 0v564h438v-116h-290v-111h257v-104h-257v-117h294v-116h-442z" />
    <glyph glyph-name="Emacron.small" unicode="&#xe0a7;" horiz-adv-x="553" 
d="M63 0v564h438v-116h-290v-111h257v-104h-257v-117h294v-116h-442zM119 653v90h328v-90h-328z" />
    <glyph glyph-name="Ebreve.small" unicode="&#xe0a8;" horiz-adv-x="553" 
d="M63 0v564h438v-116h-290v-111h257v-104h-257v-117h294v-116h-442zM284 608q-77 0 -122 45.5t-53 124.5h92q5 -38 27 -58.5t56 -20.5t55.5 20.5t26.5 58.5h90q-5 -79 -51.5 -124.5t-120.5 -45.5z" />
    <glyph glyph-name="Einvertedbreve.small" unicode="&#xe0a9;" horiz-adv-x="553" 
d="M63 0v564h438v-116h-290v-111h257v-104h-257v-117h294v-116h-442zM282 787q76 0 121.5 -45.5t52.5 -123.5h-92q-5 37 -26.5 57.5t-55.5 20.5t-56 -20.5t-27 -57.5h-90q5 78 51.5 123.5t121.5 45.5z" />
    <glyph glyph-name="Edoublegrave.small" unicode="&#xe0aa;" horiz-adv-x="557" 
d="M68 0v564h438v-116h-290v-111h257v-104h-257v-117h294v-116h-442zM134 804l119 -186h-90l-128 124zM329 804l118 -186h-90l-127 124z" />
    <glyph glyph-name="Edotaccent.small" unicode="&#xe0ab;" horiz-adv-x="553" 
d="M63 0v564h438v-116h-290v-111h257v-104h-257v-117h294v-116h-442zM227 641v114h115v-114h-115z" />
    <glyph glyph-name="Eacutedotbelow.small" unicode="&#xe0ac;" horiz-adv-x="553" 
d="M63 0v564h438v-116h-290v-111h257v-104h-257v-117h294v-116h-442zM227 -188v114h115v-114h-115zM217 618l128 186l98 -65l-134 -121h-92z" />
    <glyph glyph-name="Egravedotbelow.small" unicode="&#xe0ad;" horiz-adv-x="553" 
d="M63 0v564h438v-116h-290v-111h257v-104h-257v-117h294v-116h-442zM227 -188v114h115v-114h-115zM268 618l-134 121l99 65l127 -186h-92z" />
    <glyph glyph-name="Eogonek.small" unicode="&#xe0ae;" horiz-adv-x="553" 
d="M63 0v564h438v-116h-290v-111h257v-104h-257v-117h294v-116q-82 -24 -82 -70q0 -36 43 -36q25 0 49 11l3 -2v-98q-34 -12 -78 -12q-55 0 -87.5 27.5t-32.5 73.5q0 64 61 106h-318z" />
    <glyph glyph-name="Gacute.small" unicode="&#xe0af;" horiz-adv-x="646" 
d="M260 618l128 186l98 -65l-134 -121h-92zM40 286q0 127 86.5 209.5t230.5 82.5q116 0 220 -67l-69 -96q-75 45 -151 45q-78 0 -123.5 -49t-45.5 -125q0 -79 44.5 -130t124.5 -51q61 0 107 23v97h-127v93h254v-257q-97 -73 -237 -73q-142 0 -228 83.5t-86 214.5z" />
    <glyph glyph-name="Gcircumflex.small" unicode="&#xe0b0;" horiz-adv-x="646" 
d="M143 618l117 160h161l117 -160h-108l-88 90h-3l-89 -90h-107zM40 286q0 127 86.5 209.5t230.5 82.5q116 0 220 -67l-69 -96q-75 45 -151 45q-78 0 -123.5 -49t-45.5 -125q0 -79 44.5 -130t124.5 -51q61 0 107 23v97h-127v93h254v-257q-97 -73 -237 -73q-142 0 -228 83.5
t-86 214.5z" />
    <glyph glyph-name="Gcaron.small" unicode="&#xe0b2;" horiz-adv-x="646" 
d="M260 618l-117 160h107l89 -90h3l88 90h108l-117 -160h-161zM40 286q0 127 86.5 209.5t230.5 82.5q116 0 220 -67l-69 -96q-75 45 -151 45q-78 0 -123.5 -49t-45.5 -125q0 -79 44.5 -130t124.5 -51q61 0 107 23v97h-127v93h254v-257q-97 -73 -237 -73q-142 0 -228 83.5
t-86 214.5z" />
    <glyph glyph-name="Gbreve.small" unicode="&#xe0b3;" horiz-adv-x="646" 
d="M40 286q0 127 86.5 209.5t230.5 82.5q116 0 220 -67l-69 -96q-75 45 -151 45q-78 0 -123.5 -49t-45.5 -125q0 -79 44.5 -130t124.5 -51q61 0 107 23v97h-127v93h254v-257q-97 -73 -237 -73q-142 0 -228 83.5t-86 214.5zM342 608q-77 0 -122 45.5t-53 124.5h92
q5 -38 27 -58.5t56 -20.5t55.5 20.5t26.5 58.5h90q-5 -79 -51.5 -124.5t-120.5 -45.5z" />
    <glyph glyph-name="Gdotaccent.small" unicode="&#xe0b4;" horiz-adv-x="646" 
d="M274 641v114h115v-114h-115zM40 286q0 127 86.5 209.5t230.5 82.5q116 0 220 -67l-69 -96q-75 45 -151 45q-78 0 -123.5 -49t-45.5 -125q0 -79 44.5 -130t124.5 -51q61 0 107 23v97h-127v93h254v-257q-97 -73 -237 -73q-142 0 -228 83.5t-86 214.5z" />
    <glyph glyph-name="Gcommaaccent.small" unicode="&#xe0b6;" horiz-adv-x="646" 
d="M253 -54q32 8 60 8q49 0 74 -21.5t25 -55.5q3 -49 -47 -99h-96q35 43 35 72q0 13 -8 20t-21 6q-10 0 -22 -2v72zM40 286q0 127 86.5 209.5t230.5 82.5q116 0 220 -67l-69 -96q-75 45 -151 45q-78 0 -123.5 -49t-45.5 -125q0 -79 44.5 -130t124.5 -51q61 0 107 23v97h-127
v93h254v-257q-97 -73 -237 -73q-142 0 -228 83.5t-86 214.5z" />
    <glyph glyph-name="Gstroke.small" unicode="&#xe0b7;" horiz-adv-x="655" 
d="M40 286q0 127 86.5 209.5t230.5 82.5q116 0 220 -67l-69 -96q-75 45 -151 45q-78 0 -123.5 -49t-45.5 -125q0 -79 44.5 -130t124.5 -51q61 0 107 23v97h-127v93h254v-91h73v-91h-73v-75q-97 -73 -237 -73q-142 0 -228 83.5t-86 214.5z" />
    <glyph glyph-name="Hcircumflex.small" unicode="&#xe0b8;" horiz-adv-x="638" 
d="M122 618l117 160h161l117 -160h-108l-88 90h-3l-89 -90h-107zM63 0v564h148v-215h217v215h147v-564h-147v228h-217v-228h-148z" />
    <glyph glyph-name="Hcaron.small" unicode="&#xe0b9;" horiz-adv-x="638" 
d="M239 618l-117 160h107l89 -90h3l88 90h108l-117 -160h-161zM63 0v564h148v-215h217v215h147v-564h-147v228h-217v-228h-148z" />
    <glyph glyph-name="Hdotbelow.small" unicode="&#xe0ba;" horiz-adv-x="638" 
d="M63 0v564h148v-215h217v215h147v-564h-147v228h-217v-228h-148zM263 -188v114h115v-114h-115z" />
    <glyph glyph-name="Hmacronbelow.small" unicode="&#xe0bb;" horiz-adv-x="638" 
d="M63 0v564h148v-215h217v215h147v-564h-147v228h-217v-228h-148zM156 -192v90h328v-90h-328z" />
    <glyph glyph-name="Hbar.small" unicode="&#xe0bc;" horiz-adv-x="638" 
d="M63 0v564h148v-67h217v67h147v-564h-147v228h-217v-228h-148zM211 349h217v68h-217v-68z" />
    <glyph glyph-name="Iacute.small" unicode="&#xe0bd;" horiz-adv-x="273" 
d="M67 618l128 186l98 -65l-134 -121h-92zM63 0v564h147v-564h-147z" />
    <glyph glyph-name="Igrave.small" unicode="&#xe0be;" horiz-adv-x="273" 
d="M63 0v564h147v-564h-147zM118 618l-134 121l99 65l127 -186h-92z" />
    <glyph glyph-name="Icircumflex.small" unicode="&#xe0bf;" horiz-adv-x="273" 
d="M-61 618l117 160h161l117 -160h-108l-88 90h-3l-89 -90h-107zM63 0v564h147v-564h-147z" />
    <glyph glyph-name="Idieresis.small" unicode="&#xe0c0;" horiz-adv-x="273" 
d="M195 641v114h115v-114h-115zM-34 641v114h117v-114h-117zM63 0v564h147v-564h-147z" />
    <glyph glyph-name="Itilde.small" unicode="&#xe0c1;" horiz-adv-x="273" 
d="M63 0v564h147v-564h-147zM-38 630q-7 67 23 105t85 38q35 0 73.5 -26.5t54.5 -26.5q37 0 31 46h82q7 -67 -22.5 -105t-84.5 -38q-34 0 -73 26t-55 26q-36 0 -32 -45h-82z" />
    <glyph glyph-name="Icaron.small" unicode="&#xe0c2;" horiz-adv-x="273" 
d="M56 618l-117 160h107l89 -90h3l88 90h108l-117 -160h-161zM63 0v564h147v-564h-147z" />
    <glyph glyph-name="Imacron.small" unicode="&#xe0c3;" horiz-adv-x="273" 
d="M-27 653v90h328v-90h-328zM63 0v564h147v-564h-147z" />
    <glyph glyph-name="Ibreve.small" unicode="&#xe0c4;" horiz-adv-x="273" 
d="M63 0v564h147v-564h-147zM138 608q-77 0 -122 45.5t-53 124.5h92q5 -38 27 -58.5t56 -20.5t55.5 20.5t26.5 58.5h90q-5 -79 -51.5 -124.5t-120.5 -45.5z" />
    <glyph glyph-name="Iinvertedbreve.small" unicode="&#xe0c5;" horiz-adv-x="273" 
d="M136 787q76 0 121.5 -45.5t52.5 -123.5h-92q-5 37 -26.5 57.5t-55.5 20.5t-56 -20.5t-27 -57.5h-90q5 78 51.5 123.5t121.5 45.5zM63 0v564h147v-564h-147z" />
    <glyph glyph-name="Idoublegrave.small" unicode="&#xe0c6;" horiz-adv-x="273" 
d="M63 0v564h147v-564h-147zM-23 804l119 -186h-90l-128 124zM172 804l118 -186h-90l-127 124z" />
    <glyph glyph-name="Idotaccent.small" unicode="&#xe0c7;" horiz-adv-x="273" 
d="M63 0v564h147v-564h-147zM81 641v114h115v-114h-115z" />
    <glyph glyph-name="Idotbelow.small" unicode="&#xe0c8;" horiz-adv-x="273" 
d="M81 -188v114h115v-114h-115zM63 0v564h147v-564h-147z" />
    <glyph glyph-name="Iogonek.small" unicode="&#xe0c9;" horiz-adv-x="273" 
d="M63 0v564h147v-562l1 -2q-82 -24 -82 -70q0 -36 43 -36q25 0 49 11l3 -2v-98q-34 -12 -78 -12q-55 0 -87.5 27.5t-32.5 73.5q0 64 61 106h-24z" />
    <glyph glyph-name="Jcircumflex.small" unicode="&#xe0ca;" horiz-adv-x="499" 
d="M168 618l117 160h161l117 -160h-108l-88 90h-3l-89 -90h-107zM22 95l101 69q36 -58 92 -58q77 0 77 89v369h148v-371q0 -95 -55 -150t-159 -55q-131 0 -204 107z" />
    <glyph glyph-name="Jcaron.small" unicode="&#xe0cb;" horiz-adv-x="499" 
d="M285 618l-117 160h107l89 -90h3l88 90h108l-117 -160h-161zM22 95l101 69q36 -58 92 -58q77 0 77 89v369h148v-371q0 -95 -55 -150t-159 -55q-131 0 -204 107z" />
    <glyph glyph-name="Kcaron.small" unicode="&#xe0cc;" horiz-adv-x="629" 
d="M234 618l-117 160h107l89 -90h3l88 90h108l-117 -160h-161zM64 0v564h147v-243l209 243h174l-193 -212l212 -352h-168l-141 246l-93 -102v-144h-147z" />
    <glyph glyph-name="Kcommaaccent.small" unicode="&#xe0cd;" horiz-adv-x="629" 
d="M241 -54q32 8 60 8q49 0 74 -21.5t25 -55.5q3 -49 -47 -99h-96q35 43 35 72q0 13 -8 20t-21 6q-10 0 -22 -2v72zM64 0v564h147v-243l209 243h174l-193 -212l212 -352h-168l-141 246l-93 -102v-144h-147z" />
    <glyph glyph-name="Kcedilla.small" unicode="&#xe0ce;" horiz-adv-x="629" 
d="M64 0v564h147v-243l209 243h174l-193 -212l212 -352h-168l-141 246l-93 -102v-144h-147zM273 -41h93q-22 -107 -102 -181l-100 50q80 65 109 131z" />
    <glyph glyph-name="Khook.small" unicode="&#xe0cf;" horiz-adv-x="628" 
d="M63 0v564h148v-275q60 22 104 105q45 88 101 128.5t161 48.5v-114q-99 -15 -154 -127l-5 -9l194 -321h-168l-121 213q-44 -30 -112 -47v-166h-148z" />
    <glyph glyph-name="Lacute.small" unicode="&#xe0d0;" horiz-adv-x="547" 
d="M63 0v564h147v-443h304v-121h-451zM68 618l128 186l98 -65l-134 -121h-92z" />
    <glyph glyph-name="Lcaron.small" unicode="&#xe0d1;" horiz-adv-x="547" 
d="M63 0v564h147v-443h304v-121h-451zM288 561q32 8 60 8q49 0 74 -21.5t25 -55.5q3 -49 -47 -99h-96q35 43 35 72q0 13 -8 20t-21 6q-10 0 -22 -2v72z" />
    <glyph glyph-name="Lcommaaccent.small" unicode="&#xe0d2;" horiz-adv-x="547" 
d="M63 0v564h147v-443h304v-121h-451zM210 -54q32 8 60 8q49 0 74 -21.5t25 -55.5q3 -49 -47 -99h-96q35 43 35 72q0 13 -8 20t-21 6q-10 0 -22 -2v72z" />
    <glyph glyph-name="Lcedilla.small" unicode="&#xe0d3;" horiz-adv-x="547" 
d="M63 0v564h147v-443h304v-121h-451zM241 -41h93q-22 -107 -102 -181l-100 50q80 65 109 131z" />
    <glyph glyph-name="Ldotbelow.small" unicode="&#xe0d4;" horiz-adv-x="547" 
d="M63 0v564h147v-443h304v-121h-451zM234 -188v114h115v-114h-115z" />
    <glyph glyph-name="Ldotbelowmacron.small" unicode="&#xe0d5;" horiz-adv-x="547" 
d="M63 0v564h147v-443h304v-121h-451zM234 -188v114h115v-114h-115zM-26 653v90h328v-90h-328z" />
    <glyph glyph-name="Ldot.small" unicode="&#xe0d6;" horiz-adv-x="547" 
d="M63 0v564h147v-443h304v-121h-451zM401 285v114h115v-114h-115z" />
    <glyph glyph-name="Lslash.small" unicode="&#xe0d7;" horiz-adv-x="567" 
d="M-1 149v103l84 45v267h147v-187l134 72v-105l-134 -72v-151h304v-121h-451v194z" />
    <glyph glyph-name="Mmacron.small" unicode="&#xe0d8;" horiz-adv-x="760" 
d="M63 0v564h139l178 -230l179 230h138v-564h-141v362l-176 -222l-175 221v-361h-142zM217 653v90h328v-90h-328z" />
    <glyph glyph-name="Mcedilla.small" unicode="&#xe0d9;" horiz-adv-x="760" 
d="M63 0v564h139l178 -230l179 230h138v-564h-141v362l-176 -222l-175 221v-361h-142zM331 -41h93q-22 -107 -102 -181l-100 50q80 65 109 131z" />
    <glyph glyph-name="Mdotbelow.small" unicode="&#xe0da;" horiz-adv-x="760" 
d="M63 0v564h139l178 -230l179 230h138v-564h-141v362l-176 -222l-175 221v-361h-142zM324 -188v114h115v-114h-115z" />
    <glyph glyph-name="Nacute.small" unicode="&#xe0db;" horiz-adv-x="653" 
d="M259 618l128 186l98 -65l-134 -121h-92zM63 0v564h136l251 -342v342h140v-564h-135l-252 342v-342h-140z" />
    <glyph glyph-name="Ngrave.small" unicode="&#xe0dc;" horiz-adv-x="653" 
d="M63 0v564h136l251 -342v342h140v-564h-135l-252 342v-342h-140zM307 618l-134 121l99 65l127 -186h-92z" />
    <glyph glyph-name="Ndieresis.small" unicode="&#xe0dd;" horiz-adv-x="653" 
d="M385 641v114h115v-114h-115zM156 641v114h117v-114h-117zM63 0v564h136l251 -342v342h140v-564h-135l-252 342v-342h-140z" />
    <glyph glyph-name="Ntilde.small" unicode="&#xe0de;" horiz-adv-x="653" 
d="M63 0v564h136l251 -342v342h140v-564h-135l-252 342v-342h-140zM153 630q-7 67 23 105t85 38q35 0 73.5 -26.5t54.5 -26.5q37 0 31 46h82q7 -67 -22.5 -105t-84.5 -38q-35 0 -73 26t-55 26q-36 0 -32 -45h-82z" />
    <glyph glyph-name="Ncaron.small" unicode="&#xe0df;" horiz-adv-x="653" 
d="M247 618l-117 160h107l89 -90h3l88 90h108l-117 -160h-161zM63 0v564h136l251 -342v342h140v-564h-135l-252 342v-342h-140z" />
    <glyph glyph-name="Nmacron.small" unicode="&#xe0e0;" horiz-adv-x="653" 
d="M164 653v90h328v-90h-328zM63 0v564h136l251 -342v342h140v-564h-135l-252 342v-342h-140z" />
    <glyph glyph-name="Ndotaccent.small" unicode="&#xe0e1;" horiz-adv-x="653" 
d="M63 0v564h136l251 -342v342h140v-564h-135l-252 342v-342h-140zM271 641v114h115v-114h-115z" />
    <glyph glyph-name="Ncommaaccent.small" unicode="&#xe0e2;" horiz-adv-x="653" 
d="M259 -54q32 8 60 8q49 0 74 -21.5t25 -55.5q3 -49 -47 -99h-96q35 43 35 72q0 13 -8 20t-21 6q-10 0 -22 -2v72zM63 0v564h136l251 -342v342h140v-564h-135l-252 342v-342h-140z" />
    <glyph glyph-name="Ncedilla.small" unicode="&#xe0e3;" horiz-adv-x="653" 
d="M283 -41h93q-22 -107 -102 -181l-100 50q80 65 109 131zM63 0v564h136l251 -342v342h140v-564h-135l-252 342v-342h-140z" />
    <glyph glyph-name="Ndotbelow.small" unicode="&#xe0e4;" horiz-adv-x="653" 
d="M271 -188v114h115v-114h-115zM63 0v564h136l251 -342v342h140v-564h-135l-252 342v-342h-140z" />
    <glyph glyph-name="Ndescender.small" unicode="&#xe0e5;" horiz-adv-x="653" 
d="M63 0v564h136l251 -342v342h140v-764h-140v207l-247 335v-342h-140z" />
    <glyph glyph-name="Oacute.small" unicode="&#xe0e6;" horiz-adv-x="696" 
d="M275 618l128 186l98 -65l-134 -121h-92zM40 286q0 127 89 209.5t220 82.5q129 0 218 -82.5t89 -209.5q0 -133 -87.5 -215.5t-219.5 -82.5q-133 0 -221 82.5t-88 215.5zM188 286q0 -80 45.5 -130.5t115.5 -50.5q69 0 114 50.5t45 130.5q0 75 -45.5 124.5t-113.5 49.5
q-69 0 -115 -49.5t-46 -124.5z" />
    <glyph glyph-name="Ograve.small" unicode="&#xe0e7;" horiz-adv-x="696" 
d="M326 618l-134 121l99 65l127 -186h-92zM40 286q0 127 89 209.5t220 82.5q129 0 218 -82.5t89 -209.5q0 -133 -87.5 -215.5t-219.5 -82.5q-133 0 -221 82.5t-88 215.5zM188 286q0 -80 45.5 -130.5t115.5 -50.5q69 0 114 50.5t45 130.5q0 75 -45.5 124.5t-113.5 49.5
q-69 0 -115 -49.5t-46 -124.5z" />
    <glyph glyph-name="Ocircumflex.small" unicode="&#xe0e8;" horiz-adv-x="696" 
d="M151 618l117 160h161l117 -160h-108l-88 90h-3l-89 -90h-107zM40 286q0 127 89 209.5t220 82.5q129 0 218 -82.5t89 -209.5q0 -133 -87.5 -215.5t-219.5 -82.5q-133 0 -221 82.5t-88 215.5zM188 286q0 -80 45.5 -130.5t115.5 -50.5q69 0 114 50.5t45 130.5
q0 75 -45.5 124.5t-113.5 49.5q-69 0 -115 -49.5t-46 -124.5z" />
    <glyph glyph-name="Odieresis.small" unicode="&#xe0e9;" horiz-adv-x="696" 
d="M407 641v114h115v-114h-115zM178 641v114h117v-114h-117zM40 286q0 127 89 209.5t220 82.5q129 0 218 -82.5t89 -209.5q0 -133 -87.5 -215.5t-219.5 -82.5q-133 0 -221 82.5t-88 215.5zM188 286q0 -80 45.5 -130.5t115.5 -50.5q69 0 114 50.5t45 130.5q0 75 -45.5 124.5
t-113.5 49.5q-69 0 -115 -49.5t-46 -124.5z" />
    <glyph glyph-name="Otilde.small" unicode="&#xe0ea;" horiz-adv-x="696" 
d="M40 286q0 127 89 209.5t220 82.5q129 0 218 -82.5t89 -209.5q0 -133 -87.5 -215.5t-219.5 -82.5q-133 0 -221 82.5t-88 215.5zM188 286q0 -80 45.5 -130.5t115.5 -50.5q69 0 114 50.5t45 130.5q0 75 -45.5 124.5t-113.5 49.5q-69 0 -115 -49.5t-46 -124.5zM174 630
q-7 67 23 105t85 38q35 0 73.5 -26.5t54.5 -26.5q37 0 31 46h82q7 -67 -22.5 -105t-84.5 -38q-34 0 -73 26t-55 26q-36 0 -32 -45h-82z" />
    <glyph glyph-name="Ocaron.small" unicode="&#xe0eb;" horiz-adv-x="696" 
d="M268 618l-117 160h107l89 -90h3l88 90h108l-117 -160h-161zM40 286q0 127 89 209.5t220 82.5q129 0 218 -82.5t89 -209.5q0 -133 -87.5 -215.5t-219.5 -82.5q-133 0 -221 82.5t-88 215.5zM188 286q0 -80 45.5 -130.5t115.5 -50.5q69 0 114 50.5t45 130.5
q0 75 -45.5 124.5t-113.5 49.5q-69 0 -115 -49.5t-46 -124.5z" />
    <glyph glyph-name="Omacron.small" unicode="&#xe0ec;" horiz-adv-x="696" 
d="M185 653v90h328v-90h-328zM40 286q0 127 89 209.5t220 82.5q129 0 218 -82.5t89 -209.5q0 -133 -87.5 -215.5t-219.5 -82.5q-133 0 -221 82.5t-88 215.5zM188 286q0 -80 45.5 -130.5t115.5 -50.5q69 0 114 50.5t45 130.5q0 75 -45.5 124.5t-113.5 49.5q-69 0 -115 -49.5
t-46 -124.5z" />
    <glyph glyph-name="Obreve.small" unicode="&#xe0ed;" horiz-adv-x="696" 
d="M40 286q0 127 89 209.5t220 82.5q129 0 218 -82.5t89 -209.5q0 -133 -87.5 -215.5t-219.5 -82.5q-133 0 -221 82.5t-88 215.5zM188 286q0 -80 45.5 -130.5t115.5 -50.5q69 0 114 50.5t45 130.5q0 75 -45.5 124.5t-113.5 49.5q-69 0 -115 -49.5t-46 -124.5zM350 608
q-77 0 -122 45.5t-53 124.5h92q5 -38 27 -58.5t56 -20.5t55.5 20.5t26.5 58.5h90q-5 -79 -51.5 -124.5t-120.5 -45.5z" />
    <glyph glyph-name="Oinvertedbreve.small" unicode="&#xe0ee;" horiz-adv-x="696" 
d="M348 787q76 0 121.5 -45.5t52.5 -123.5h-92q-5 37 -26.5 57.5t-55.5 20.5t-56 -20.5t-27 -57.5h-90q5 78 51.5 123.5t121.5 45.5zM40 286q0 127 89 209.5t220 82.5q129 0 218 -82.5t89 -209.5q0 -133 -87.5 -215.5t-219.5 -82.5q-133 0 -221 82.5t-88 215.5zM188 286
q0 -80 45.5 -130.5t115.5 -50.5q69 0 114 50.5t45 130.5q0 75 -45.5 124.5t-113.5 49.5q-69 0 -115 -49.5t-46 -124.5z" />
    <glyph glyph-name="Ohungarumlaut.small" unicode="&#xe0ef;" horiz-adv-x="696" 
d="M201 618l118 186l100 -62l-129 -124h-89zM396 618l118 186l99 -62l-128 -124h-89zM40 286q0 127 89 209.5t220 82.5q129 0 218 -82.5t89 -209.5q0 -133 -87.5 -215.5t-219.5 -82.5q-133 0 -221 82.5t-88 215.5zM188 286q0 -80 45.5 -130.5t115.5 -50.5q69 0 114 50.5
t45 130.5q0 75 -45.5 124.5t-113.5 49.5q-69 0 -115 -49.5t-46 -124.5z" />
    <glyph glyph-name="Odoublegrave.small" unicode="&#xe0f0;" horiz-adv-x="696" 
d="M191 804l119 -186h-90l-128 124zM386 804l118 -186h-90l-127 124zM40 286q0 127 89 209.5t220 82.5q129 0 218 -82.5t89 -209.5q0 -133 -87.5 -215.5t-219.5 -82.5q-133 0 -221 82.5t-88 215.5zM188 286q0 -80 45.5 -130.5t115.5 -50.5q69 0 114 50.5t45 130.5
q0 75 -45.5 124.5t-113.5 49.5q-69 0 -115 -49.5t-46 -124.5z" />
    <glyph glyph-name="Ocommaturnedabove.small" unicode="&#xe0f1;" horiz-adv-x="696" 
d="M435 694v-72q-32 -8 -61 -8q-48 0 -73 21.5t-25 55.5q-2 51 46 99h98q-37 -44 -37 -72q0 -27 30 -27q5 0 12.5 1.5t9.5 1.5zM40 286q0 127 89 209.5t220 82.5q129 0 218 -82.5t89 -209.5q0 -133 -87.5 -215.5t-219.5 -82.5q-133 0 -221 82.5t-88 215.5zM188 286
q0 -80 45.5 -130.5t115.5 -50.5q69 0 114 50.5t45 130.5q0 75 -45.5 124.5t-113.5 49.5q-69 0 -115 -49.5t-46 -124.5z" />
    <glyph glyph-name="Otildemacron.small" unicode="&#xe0f2;" horiz-adv-x="696" 
d="M40 286q0 127 89 209.5t220 82.5q129 0 218 -82.5t89 -209.5q0 -133 -87.5 -215.5t-219.5 -82.5q-133 0 -221 82.5t-88 215.5zM188 286q0 -80 45.5 -130.5t115.5 -50.5q69 0 114 50.5t45 130.5q0 75 -45.5 124.5t-113.5 49.5q-69 0 -115 -49.5t-46 -124.5zM185 804v90
h328v-90h-328zM174 621q-7 67 23 105t85 38q35 0 73.5 -26.5t54.5 -26.5q37 0 31 46h82q7 -67 -22.5 -105t-84.5 -38q-34 0 -73 26t-55 26q-36 0 -32 -45h-82z" />
    <glyph glyph-name="Odotabove.small" unicode="&#xe0f3;" horiz-adv-x="696" 
d="M293 641v114h115v-114h-115zM40 286q0 127 89 209.5t220 82.5q129 0 218 -82.5t89 -209.5q0 -133 -87.5 -215.5t-219.5 -82.5q-133 0 -221 82.5t-88 215.5zM188 286q0 -80 45.5 -130.5t115.5 -50.5q69 0 114 50.5t45 130.5q0 75 -45.5 124.5t-113.5 49.5
q-69 0 -115 -49.5t-46 -124.5z" />
    <glyph glyph-name="Odotabovemacron.small" unicode="&#xe0f4;" horiz-adv-x="696" 
d="M185 804v90h328v-90h-328zM293 634v114h115v-114h-115zM40 286q0 127 89 209.5t220 82.5q129 0 218 -82.5t89 -209.5q0 -133 -87.5 -215.5t-219.5 -82.5q-133 0 -221 82.5t-88 215.5zM188 286q0 -80 45.5 -130.5t115.5 -50.5q69 0 114 50.5t45 130.5q0 75 -45.5 124.5
t-113.5 49.5q-69 0 -115 -49.5t-46 -124.5z" />
    <glyph glyph-name="Ocedilla.small" unicode="&#xe0f5;" horiz-adv-x="696" 
d="M298 -41h93q-22 -107 -102 -181l-100 50q80 65 109 131zM40 286q0 127 89 209.5t220 82.5q129 0 218 -82.5t89 -209.5q0 -133 -87.5 -215.5t-219.5 -82.5q-133 0 -221 82.5t-88 215.5zM188 286q0 -80 45.5 -130.5t115.5 -50.5q69 0 114 50.5t45 130.5q0 75 -45.5 124.5
t-113.5 49.5q-69 0 -115 -49.5t-46 -124.5z" />
    <glyph glyph-name="Odotbelow.small" unicode="&#xe0f6;" horiz-adv-x="696" 
d="M293 -188v114h115v-114h-115zM40 286q0 127 89 209.5t220 82.5q129 0 218 -82.5t89 -209.5q0 -133 -87.5 -215.5t-219.5 -82.5q-133 0 -221 82.5t-88 215.5zM188 286q0 -80 45.5 -130.5t115.5 -50.5q69 0 114 50.5t45 130.5q0 75 -45.5 124.5t-113.5 49.5
q-69 0 -115 -49.5t-46 -124.5z" />
    <glyph glyph-name="Oogonek.small" unicode="&#xe0f7;" horiz-adv-x="696" 
d="M40 286q0 127 89 209.5t220 82.5q129 0 218 -82.5t89 -209.5q0 -88 -40 -156.5t-113 -106.5q-3 -2 -25 -12.5t-31 -16t-24 -17t-21.5 -25t-6.5 -28.5q0 -36 45 -36q29 0 49 11l3 -3v-99q-36 -12 -79 -12q-57 0 -90 27.5t-33 73.5q0 56 49 102h-3q-127 4 -211.5 85.5
t-84.5 212.5zM188 286q0 -80 45.5 -130.5t115.5 -50.5q69 0 114 50.5t45 130.5q0 75 -45.5 124.5t-113.5 49.5q-69 0 -115 -49.5t-46 -124.5z" />
    <glyph glyph-name="Oogonekmacron.small" unicode="&#xe0f8;" horiz-adv-x="696" 
d="M40 286q0 127 89 209.5t220 82.5q129 0 218 -82.5t89 -209.5q0 -88 -40 -156.5t-113 -106.5q-3 -2 -25 -12.5t-31 -16t-24 -17t-21.5 -25t-6.5 -28.5q0 -36 45 -36q29 0 49 11l3 -3v-99q-36 -12 -79 -12q-57 0 -90 27.5t-33 73.5q0 56 49 102h-3q-127 4 -211.5 85.5
t-84.5 212.5zM188 286q0 -80 45.5 -130.5t115.5 -50.5q69 0 114 50.5t45 130.5q0 75 -45.5 124.5t-113.5 49.5q-69 0 -115 -49.5t-46 -124.5zM185 653v90h328v-90h-328z" />
    <glyph glyph-name="Ounderlineaccent.small" unicode="&#xe0f9;" horiz-adv-x="696" 
d="M295 -206v160h112v-160h-112zM40 286q0 127 89 209.5t220 82.5q129 0 218 -82.5t89 -209.5q0 -133 -87.5 -215.5t-219.5 -82.5q-133 0 -221 82.5t-88 215.5zM188 286q0 -80 45.5 -130.5t115.5 -50.5q69 0 114 50.5t45 130.5q0 75 -45.5 124.5t-113.5 49.5
q-69 0 -115 -49.5t-46 -124.5z" />
    <glyph glyph-name="Oslash.small" unicode="&#xe0fa;" horiz-adv-x="696" 
d="M40 286q0 127 89 209.5t220 82.5q84 0 153 -37l52 67l65 -48l-52 -65q89 -83 89 -209q0 -133 -87.5 -215.5t-219.5 -82.5q-85 0 -157 36l-57 -74l-65 47l59 72q-89 84 -89 217zM508 286q0 59 -31 106l-209 -266q35 -21 81 -21q69 0 114 50.5t45 130.5zM188 286
q0 -66 31 -112l209 264q-36 22 -79 22q-69 0 -115 -49.5t-46 -124.5z" />
    <glyph glyph-name="Oslashacute.small" unicode="&#xe0fb;" horiz-adv-x="696" 
d="M40 286q0 127 89 209.5t220 82.5q84 0 153 -37l52 67l65 -48l-52 -65q89 -83 89 -209q0 -133 -87.5 -215.5t-219.5 -82.5q-85 0 -157 36l-57 -74l-65 47l59 72q-89 84 -89 217zM508 286q0 59 -31 106l-209 -266q35 -21 81 -21q69 0 114 50.5t45 130.5zM188 286
q0 -66 31 -112l209 264q-36 22 -79 22q-69 0 -115 -49.5t-46 -124.5zM275 618l128 186l98 -65l-134 -121h-92z" />
    <glyph glyph-name="barredO.small" unicode="&#xe0fc;" horiz-adv-x="696" 
d="M40 286q0 127 89 209.5t220 82.5q129 0 218 -82.5t89 -209.5q0 -133 -87.5 -215.5t-219.5 -82.5q-133 0 -221 82.5t-88 215.5zM349 460q-61 0 -104 -38t-54 -100h314q-11 62 -54 100t-102 38zM349 105q59 0 101 37.5t54 100.5h-312q11 -63 54 -100.5t103 -37.5z" />
    <glyph glyph-name="OE.small" unicode="&#xe0fd;" horiz-adv-x="999" 
d="M37 287q0 125 89 206.5t218 81.5q101 0 167 -60v49h436v-116h-289v-111h256v-104h-256v-117h293v-116h-440v49q-67 -61 -167 -61q-131 0 -219 83t-88 216zM186 287q0 -81 45.5 -132t116.5 -51t117 51t46 132q0 75 -46.5 123.5t-116.5 48.5t-116 -48.5t-46 -123.5z" />
    <glyph glyph-name="Pmacron.small" unicode="&#xe0fe;" horiz-adv-x="611" 
d="M211 290h111q48 0 71.5 22t23.5 57q0 37 -23.5 59t-71.5 22h-111v-160zM63 0v564h266q120 0 177 -56t57 -138q0 -81 -57 -137t-177 -56h-118v-177h-148zM139 653v90h328v-90h-328z" />
    <glyph glyph-name="Racute.small" unicode="&#xe0ff;" horiz-adv-x="627" 
d="M63 0v564h276q121 0 178 -56t57 -138q0 -113 -101 -159l106 -211h-153l-84 187h-3h-128v-187h-148zM211 291h121q48 0 72 22t24 58q0 35 -24 57t-72 22h-121v-159zM235 618l128 186l98 -65l-134 -121h-92z" />
    <glyph glyph-name="Rcaron.small" unicode="&#xe100;" horiz-adv-x="627" 
d="M63 0v564h276q121 0 178 -56t57 -138q0 -113 -101 -159l106 -211h-153l-84 187h-3h-128v-187h-148zM230 618l-117 160h107l89 -90h3l88 90h108l-117 -160h-161zM211 291h121q48 0 72 22t24 58q0 35 -24 57t-72 22h-121v-159z" />
    <glyph glyph-name="Rinvertedbreve.small" unicode="&#xe101;" horiz-adv-x="627" 
d="M63 0v564h276q121 0 178 -56t57 -138q0 -113 -101 -159l106 -211h-153l-84 187h-131v-187h-148zM311 787q76 0 121.5 -45.5t52.5 -123.5h-92q-5 37 -26.5 57.5t-55.5 20.5t-56 -20.5t-27 -57.5h-90q5 78 51.5 123.5t121.5 45.5zM211 291h121q48 0 72 22t24 58
q0 35 -24 57t-72 22h-121v-159z" />
    <glyph glyph-name="Rdoublegrave.small" unicode="&#xe102;" horiz-adv-x="627" 
d="M63 0v564h276q121 0 178 -56t57 -138q0 -113 -101 -159l106 -211h-153l-84 187h-3h-128v-187h-148zM211 291h121q48 0 72 22t24 58q0 35 -24 57t-72 22h-121v-159zM147 804l119 -186h-90l-128 124zM342 804l118 -186h-90l-127 124z" />
    <glyph glyph-name="Rcommaaccent.small" unicode="&#xe103;" horiz-adv-x="627" 
d="M63 0v564h276q121 0 178 -56t57 -138q0 -113 -101 -159l106 -211h-153l-84 187h-3h-128v-187h-148zM211 291h121q48 0 72 22t24 58q0 35 -24 57t-72 22h-121v-159zM232 -54q32 8 60 8q49 0 74 -21.5t25 -55.5q3 -49 -47 -99h-96q35 43 35 72q0 13 -8 20t-21 6
q-10 0 -22 -2v72z" />
    <glyph glyph-name="Rcedilla.small" unicode="&#xe104;" horiz-adv-x="627" 
d="M63 0v564h276q121 0 178 -56t57 -138q0 -113 -101 -159l106 -211h-153l-84 187h-3h-128v-187h-148zM211 291h121q48 0 72 22t24 58q0 35 -24 57t-72 22h-121v-159zM264 -41h93q-22 -107 -102 -181l-100 50q80 65 109 131z" />
    <glyph glyph-name="Rdotbelow.small" unicode="&#xe105;" horiz-adv-x="627" 
d="M63 0v564h276q121 0 178 -56t57 -138q0 -113 -101 -159l106 -211h-153l-84 187h-3h-128v-187h-148zM211 291h121q48 0 72 22t24 58q0 35 -24 57t-72 22h-121v-159zM255 -188v114h115v-114h-115z" />
    <glyph glyph-name="Rdotbelowmacron.small" unicode="&#xe106;" horiz-adv-x="627" 
d="M63 0v564h276q121 0 178 -56t57 -138q0 -113 -101 -159l106 -211h-153l-84 187h-3h-128v-187h-148zM211 291h121q48 0 72 22t24 58q0 35 -24 57t-72 22h-121v-159zM148 653v90h328v-90h-328zM255 -188v114h115v-114h-115z" />
    <glyph glyph-name="Sacute.small" unicode="&#xe107;" horiz-adv-x="560" 
d="M209 618l128 186l98 -65l-134 -121h-92zM36 54l67 104q85 -54 177 -54q95 0 95 54q0 23 -24 39t-60 23.5t-77.5 20.5t-77.5 29t-60 50.5t-24 83.5q0 77 62.5 125.5t172.5 48.5q116 0 217 -49l-56 -105q-81 39 -164 39q-40 0 -62.5 -14.5t-22.5 -36.5q0 -23 24 -37.5
t59.5 -21.5t77.5 -20t77.5 -29.5t59.5 -53t24 -88.5q0 -78 -61.5 -126t-177.5 -48q-138 0 -246 66z" />
    <glyph glyph-name="Scircumflex.small" unicode="&#xe108;" horiz-adv-x="560" 
d="M92 618l117 160h161l117 -160h-108l-88 90h-3l-89 -90h-107zM36 54l67 104q85 -54 177 -54q95 0 95 54q0 23 -24 39t-60 23.5t-77.5 20.5t-77.5 29t-60 50.5t-24 83.5q0 77 62.5 125.5t172.5 48.5q116 0 217 -49l-56 -105q-81 39 -164 39q-40 0 -62.5 -14.5t-22.5 -36.5
q0 -23 24 -37.5t59.5 -21.5t77.5 -20t77.5 -29.5t59.5 -53t24 -88.5q0 -78 -61.5 -126t-177.5 -48q-138 0 -246 66z" />
    <glyph glyph-name="Scaron.small" unicode="&#xe109;" horiz-adv-x="560" 
d="M215 618l-117 160h107l89 -90h3l88 90h108l-117 -160h-161zM36 54l67 104q85 -54 177 -54q95 0 95 54q0 23 -24 39t-60 23.5t-77.5 20.5t-77.5 29t-60 50.5t-24 83.5q0 77 62.5 125.5t172.5 48.5q116 0 217 -49l-56 -105q-81 39 -164 39q-40 0 -62.5 -14.5t-22.5 -36.5
q0 -23 24 -37.5t59.5 -21.5t77.5 -20t77.5 -29.5t59.5 -53t24 -88.5q0 -78 -61.5 -126t-177.5 -48q-138 0 -246 66z" />
    <glyph glyph-name="Scommaaccent.small" unicode="&#xe10a;" horiz-adv-x="560" 
d="M199 -54q32 8 60 8q49 0 74 -21.5t25 -55.5q3 -49 -47 -99h-96q35 43 35 72q0 13 -8 20t-21 6q-10 0 -22 -2v72zM36 54l67 104q85 -54 177 -54q95 0 95 54q0 23 -24 39t-60 23.5t-77.5 20.5t-77.5 29t-60 50.5t-24 83.5q0 77 62.5 125.5t172.5 48.5q116 0 217 -49
l-56 -105q-81 39 -164 39q-40 0 -62.5 -14.5t-22.5 -36.5q0 -23 24 -37.5t59.5 -21.5t77.5 -20t77.5 -29.5t59.5 -53t24 -88.5q0 -78 -61.5 -126t-177.5 -48q-138 0 -246 66z" />
    <glyph glyph-name="Scedilla.small" unicode="&#xe10b;" horiz-adv-x="560" 
d="M120 -172q97 76 121 162q-115 9 -205 64l67 104q85 -54 177 -54q95 0 95 54q0 23 -24 39t-60 23.5t-77.5 20.5t-77.5 29t-60 50.5t-24 83.5q0 77 62.5 125.5t172.5 48.5q116 0 217 -49l-56 -105q-81 39 -164 39q-40 0 -62.5 -14.5t-22.5 -36.5q0 -23 24 -37.5t59.5 -21.5
t77.5 -20t77.5 -29.5t59.5 -53t24 -88.5q0 -69 -49.5 -116t-143.5 -56q-15 -127 -108 -212z" />
    <glyph glyph-name="Sdotbelow.small" unicode="&#xe10c;" horiz-adv-x="560" 
d="M36 54l67 104q85 -54 177 -54q95 0 95 54q0 23 -24 39t-60 23.5t-77.5 20.5t-77.5 29t-60 50.5t-24 83.5q0 77 62.5 125.5t172.5 48.5q116 0 217 -49l-56 -105q-81 39 -164 39q-40 0 -62.5 -14.5t-22.5 -36.5q0 -23 24 -37.5t59.5 -21.5t77.5 -20t77.5 -29.5t59.5 -53
t24 -88.5q0 -78 -61.5 -126t-177.5 -48q-138 0 -246 66zM223 -188v114h115v-114h-115z" />
    <glyph glyph-name="germandbls.small" unicode="&#xe10d;" horiz-adv-x="652" 
d="M63 0v370q0 101 75 154.5t190 53.5q111 0 179 -46t68 -121q0 -88 -101 -121v-1q61 -12 99.5 -47t38.5 -90q0 -76 -60 -119.5t-155 -43.5q-62 0 -121 16l18 103q39 -11 80 -11q42 0 67.5 17.5t25.5 50.5q0 69 -114 69h-49v103h26q50 0 76 18t26 49t-27 50t-77 19
q-53 0 -85 -27t-32 -81v-365h-148z" />
    <glyph glyph-name="Tcaron.small" unicode="&#xe10e;" horiz-adv-x="587" 
d="M220 0v444h-194v120h535v-120h-194v-444h-147zM213 618l-117 160h107l89 -90h3l88 90h108l-117 -160h-161z" />
    <glyph glyph-name="Tcommaaccent.small" unicode="&#xe10f;" horiz-adv-x="587" 
d="M220 0v444h-194v120h535v-120h-194v-444h-147zM222 -54q32 8 60 8q49 0 74 -21.5t25 -55.5q3 -49 -47 -99h-96q35 43 35 72q0 13 -8 20t-21 6q-10 0 -22 -2v72z" />
    <glyph glyph-name="Tcedilla.small" unicode="&#xe110;" horiz-adv-x="587" 
d="M220 0v444h-194v120h535v-120h-194v-444h-147zM245 -41h93q-22 -107 -102 -181l-100 50q80 65 109 131z" />
    <glyph glyph-name="Tdotbelow.small" unicode="&#xe111;" horiz-adv-x="587" 
d="M220 0v444h-194v120h535v-120h-194v-444h-147zM238 -188v114h115v-114h-115z" />
    <glyph glyph-name="Tbar.small" unicode="&#xe112;" horiz-adv-x="587" 
d="M95 208v85h125v151h-194v120h535v-120h-194v-151h125v-85h-125v-208h-147v208h-125z" />
    <glyph glyph-name="Uacute.small" unicode="&#xe113;" horiz-adv-x="628" 
d="M59 213v351h148v-351q0 -52 29 -80t78 -28q48 0 77.5 28.5t29.5 79.5v351h148v-351q0 -108 -71 -167t-184 -59t-184 59t-71 167zM245 618l128 186l98 -65l-134 -121h-92z" />
    <glyph glyph-name="Ugrave.small" unicode="&#xe114;" horiz-adv-x="628" 
d="M59 213v351h148v-351q0 -52 29 -80t78 -28q48 0 77.5 28.5t29.5 79.5v351h148v-351q0 -108 -71 -167t-184 -59t-184 59t-71 167zM296 618l-134 121l99 65l127 -186h-92z" />
    <glyph glyph-name="Ucircumflex.small" unicode="&#xe115;" horiz-adv-x="628" 
d="M117 618l117 160h161l117 -160h-108l-88 90h-3l-89 -90h-107zM59 213v351h148v-351q0 -52 29 -80t78 -28q48 0 77.5 28.5t29.5 79.5v351h148v-351q0 -108 -71 -167t-184 -59t-184 59t-71 167z" />
    <glyph glyph-name="Udieresis.small" unicode="&#xe116;" horiz-adv-x="628" 
d="M372 641v114h115v-114h-115zM143 641v114h117v-114h-117zM59 213v351h148v-351q0 -52 29 -80t78 -28q48 0 77.5 28.5t29.5 79.5v351h148v-351q0 -108 -71 -167t-184 -59t-184 59t-71 167z" />
    <glyph glyph-name="Utilde.small" unicode="&#xe117;" horiz-adv-x="628" 
d="M59 213v351h148v-351q0 -52 29 -80t78 -28q48 0 77.5 28.5t29.5 79.5v351h148v-351q0 -108 -71 -167t-184 -59t-184 59t-71 167zM140 630q-7 67 23 105t85 38q35 0 73.5 -26.5t54.5 -26.5q37 0 31 46h82q7 -67 -22.5 -105t-84.5 -38q-34 0 -73 26t-55 26q-36 0 -32 -45
h-82z" />
    </font>
</defs>
</svg>
