<?xml version="1.0" standalone="no"?>
<!DOCTYPE svg PUBLIC "-//W3C//DTD SVG 1.1//EN" "http://www.w3.org/Graphics/SVG/1.1/DTD/svg11.dtd" >
<svg xmlns="http://www.w3.org/2000/svg" xmlns:xlink="http://www.w3.org/1999/xlink" version="1.1">
<metadata>
Created by FontForge 20170731 at Wed Dec  2 20:29:00 2009
 By Aleksey,,,
Copyright (c) 2009 by Jackson Cavanaugh / Okay Type &#38; Design, LLC. All rights reserved.
</metadata>
<defs>
<font id="AlrightSans-Light" horiz-adv-x="231" >
  <font-face 
    font-family="Alright Sans Light"
    font-weight="300"
    font-stretch="normal"
    units-per-em="1000"
    panose-1="0 0 4 0 0 0 0 0 0 0"
    ascent="760"
    descent="-240"
    x-height="511"
    cap-height="700"
    bbox="-103 -361 1178 1022"
    underline-thickness="50"
    underline-position="-200"
    unicode-range="U+0020-FB06"
  />
<missing-glyph horiz-adv-x="900" 
d="M200 -237v992h500v-992h-500zM245 -198h410l-205 413zM655 716h-410l205 -414zM426 258l-187 379v-755zM474 258l187 -376v754z" />
    <glyph glyph-name="f_f_j" unicode="ffj" horiz-adv-x="869" 
d="M414 0v464h-239v-464h-55v464h-95v44h95v52q0 195 191 195q80 0 151 -44q48 49 147 49q96 0 179 -56l-24 -38q-72 49 -153 49q-70 0 -106 -35t-36 -117v-55h147v-44h-147v-464h-55zM175 560v-52h239v55q0 70 23 114q-57 33 -123 33q-68 0 -103.5 -35t-35.5 -115zM726 -34
v543h55v-541q0 -178 -144 -178q-21 0 -51 7l11 45q18 -5 35 -5q94 0 94 129z" />
    <glyph glyph-name="f_f_f" unicode="fff" horiz-adv-x="947" 
d="M414 0v464h-239v-464h-55v464h-95v44h95v52q0 195 191 195q82 0 152 -45q48 48 142 48q79 0 151 -45q48 48 141 48q36 0 66 -10l-14 -43q-23 7 -51 7q-66 0 -100.5 -35t-34.5 -115v-57h147v-44h-147v-464h-55v464h-239v-464h-55zM469 562v-54h239v55q0 73 24 116
q-57 34 -124 34q-139 0 -139 -151zM175 560v-52h239v53q0 71 24 115q-57 34 -124 34q-68 0 -103.5 -35t-35.5 -115z" />
    <glyph glyph-name="f_k" unicode="fk" horiz-adv-x="881" 
d="M120 0v464h-95v44h95v59q0 98 52 146t141 48t140.5 -48.5t51.5 -146.5v-337l254 282h65l-152 -165l184 -346h-63l-157 306l-131 -143v-163h-55v566q0 75 -36 112t-102 37q-65 0 -101 -37t-36 -112v-58h147v-44h-147v-464h-55z" />
    <glyph glyph-name="f_j" unicode="fj" horiz-adv-x="575" 
d="M120 0v464h-95v44h95v55q0 105 50.5 151t144.5 46q96 0 179 -56l-24 -38q-74 49 -153 49q-70 0 -106 -35t-36 -117v-55h147v-44h-147v-464h-55zM432 -34v543h55v-541q0 -178 -145 -178q-20 0 -50 7l11 45q18 -5 35 -5q94 0 94 129z" />
    <glyph glyph-name="f_b" unicode="fb" horiz-adv-x="945" 
d="M120 0v464h-95v44h95v59q0 98 52 146t141 48t140.5 -48.5t51.5 -146.5v-126q79 83 169 83q95 0 152.5 -70t57.5 -190q0 -128 -55.5 -201.5t-154.5 -73.5q-94 0 -172 85l-6 -73h-46v566q0 75 -36 112t-102 37q-65 0 -101 -37t-36 -112v-58h147v-44h-147v-464h-55zM505 120
q72 -87 159 -87q78 0 121 62t43 168q0 99 -44 156.5t-120 57.5q-85 0 -159 -86v-271z" />
    <glyph glyph-name="f_f_b" unicode="ffb" horiz-adv-x="1239" 
d="M414 0v464h-239v-464h-55v464h-95v44h95v52q0 195 191 195q82 0 152 -45q50 51 144 51q89 0 140.5 -48.5t51.5 -146.5v-126q79 83 168 83q96 0 153.5 -69.5t57.5 -190.5q0 -128 -55.5 -201.5t-154.5 -73.5q-94 0 -172 85l-6 -73h-47v566q0 149 -137 149q-65 0 -101 -37
t-36 -112v-58h147v-44h-147v-464h-55zM799 120q72 -87 159 -87q78 0 121 62t43 168q0 99 -44 156.5t-120 57.5q-85 0 -159 -86v-271zM175 560v-52h239v59q0 64 24 109q-57 34 -124 34q-68 0 -103.5 -35t-35.5 -115z" />
    <glyph glyph-name="f_f_h" unicode="ffh" horiz-adv-x="1230" 
d="M414 0v464h-239v-464h-55v464h-95v44h95v52q0 195 191 195q82 0 152 -45q50 51 144 51q89 0 140.5 -48.5t51.5 -146.5v-132q80 89 186 89q159 0 159 -171v-352h-55v353q0 124 -114 124q-98 0 -176 -91v-386h-56v566q0 149 -137 149q-65 0 -101 -37t-36 -112v-58h147v-44
h-147v-464h-55zM175 508h239v59q0 64 24 109q-57 34 -124 34q-68 0 -103.5 -35t-35.5 -115v-52z" />
    <glyph glyph-name="f_f_k" unicode="ffk" horiz-adv-x="1175" 
d="M414 0v464h-239v-464h-55v464h-95v44h95v52q0 195 191 195q82 0 152 -45q50 51 144 51q89 0 140.5 -48.5t51.5 -146.5v-337l253 282h66l-152 -165l184 -346h-63l-157 306l-131 -143v-163h-56v566q0 149 -137 149q-65 0 -101 -37t-36 -112v-58h147v-44h-147v-464h-55z
M175 560v-52h239v59q0 64 24 109q-57 34 -124 34q-68 0 -103.5 -35t-35.5 -115z" />
    <glyph glyph-name="f_h" unicode="fh" horiz-adv-x="936" 
d="M120 0v464h-95v44h95v59q0 98 52 146t141 48t140.5 -48.5t51.5 -146.5v-132q80 89 186 89q159 0 159 -171v-352h-55v353q0 124 -114 124q-98 0 -176 -91v-386h-55v566q0 75 -36 112t-102 37q-65 0 -101 -37t-36 -112v-58h147v-44h-147v-464h-55z" />
    <glyph glyph-name="f_f" unicode="ff" horiz-adv-x="654" 
d="M414 0v464h-239v-464h-55v464h-95v44h95v52q0 195 191 195q81 0 150 -44q49 50 142 50q36 0 66 -10l-13 -43q-26 7 -52 7q-66 0 -100.5 -35t-34.5 -115v-57h147v-44h-147v-464h-55zM175 560v-52h239v55q0 70 23 114q-55 33 -123 33t-103.5 -35t-35.5 -115z" />
    <glyph glyph-name="f_i" unicode="fi" horiz-adv-x="575" 
d="M120 0v464h-95v44h95v55q0 105 50.5 151t144.5 46q96 0 179 -56l-24 -38q-74 49 -153 49q-70 0 -106 -35t-36 -117v-55h147v-44h-147v-464h-55zM432 0v509h55v-509h-55z" />
    <glyph glyph-name="f_l" unicode="fl" horiz-adv-x="593" 
d="M120 0v464h-95v44h95v59q0 98 52 146t141 48t140.5 -48.5t51.5 -146.5v-566h-55v566q0 75 -36 112t-102 37q-65 0 -101 -37t-36 -112v-58h147v-44h-147v-464h-55z" />
    <glyph glyph-name="f_f_i" unicode="ffi" horiz-adv-x="869" 
d="M414 0v464h-239v-464h-55v464h-95v44h95v52q0 195 191 195q80 0 151 -44q48 49 147 49q96 0 179 -56l-24 -38q-72 49 -153 49q-70 0 -106 -35t-36 -117v-55h147v-44h-147v-464h-55zM175 560v-52h239v55q0 70 23 114q-57 33 -123 33q-68 0 -103.5 -35t-35.5 -115zM726 0
v509h55v-509h-55z" />
    <glyph glyph-name="f_f_l" unicode="ffl" horiz-adv-x="887" 
d="M414 0v464h-239v-464h-55v464h-95v44h95v52q0 195 191 195q82 0 152 -45q50 51 144 51q89 0 140.5 -48.5t51.5 -146.5v-566h-56v566q0 149 -137 149q-65 0 -101 -37t-36 -112v-58h147v-44h-147v-464h-55zM175 560v-52h239v59q0 64 24 109q-57 34 -124 34
q-68 0 -103.5 -35t-35.5 -115z" />
    <glyph glyph-name=".notdef" horiz-adv-x="900" 
d="M200 -237v992h500v-992h-500zM245 -198h410l-205 413zM655 716h-410l205 -414zM426 258l-187 379v-755zM474 258l187 -376v754z" />
    <glyph glyph-name=".null" horiz-adv-x="0" 
 />
    <glyph glyph-name="nonmarkingreturn" horiz-adv-x="333" 
 />
    <glyph glyph-name="space" unicode=" " horiz-adv-x="255" 
 />
    <glyph glyph-name="exclam" unicode="!" horiz-adv-x="242" 
d="M105 202l-15 275v223h61v-223l-15 -275h-31zM91 0v99h60v-99h-60z" />
    <glyph glyph-name="quotedbl" unicode="&#x22;" horiz-adv-x="390" 
d="M72 464v236h64l-29 -238zM256 464v236h64l-29 -238z" />
    <glyph glyph-name="numbersign" unicode="#" horiz-adv-x="646" 
d="M70 357v43h142l23 136h47l-23 -136h162l23 136h48l-23 -136h139v-43h-146l-29 -171h141v-43h-148l-23 -143h-48l23 143h-161l-23 -143h-48l23 143h-132v43h139l29 171h-135zM252 357l-28 -171h161l29 171h-162z" />
    <glyph glyph-name="dollar" unicode="$" horiz-adv-x="525" 
d="M54 42l27 41q70 -46 171 -49v216q-35 8 -56 13.5t-49.5 17.5t-44 26.5t-27 39t-11.5 55.5q0 62 49 102t137 44v103h37v-104q93 -4 164 -38l-22 -42q-65 30 -144 34v-209q44 -10 69.5 -18t57 -25t46.5 -44.5t15 -67.5q0 -63 -47.5 -103.5t-138.5 -44.5v-122h-37v121
q-116 4 -196 54zM420 135q0 48 -34.5 70t-100.5 37v-208q68 4 101.5 31t33.5 70zM117 404q0 -47 34.5 -68.5t100.5 -36.5v203q-64 -3 -99.5 -30t-35.5 -68z" />
    <glyph glyph-name="percent" unicode="%" horiz-adv-x="724" 
d="M534 536h48l-398 -536h-47zM56 413q0 56 39.5 95t96.5 39q58 0 97.5 -39t39.5 -95q0 -58 -39.5 -96.5t-97.5 -38.5q-57 0 -96.5 39t-39.5 96zM96 413q0 -41 28 -69.5t69 -28.5q40 0 68 28.5t28 69.5t-28 69t-68 28q-41 0 -69 -28t-28 -69zM395 123q0 57 39.5 96t97.5 39
q57 0 96.5 -39t39.5 -96t-39.5 -95.5t-96.5 -38.5q-58 0 -97.5 38.5t-39.5 95.5zM436 123q0 -41 28 -69t68 -28q41 0 68.5 28t27.5 69t-27.5 69t-68.5 28t-68.5 -28t-27.5 -69z" />
    <glyph glyph-name="ampersand" unicode="&#x26;" horiz-adv-x="742" 
d="M47 192q0 68 41.5 124t109.5 93q-54 72 -54 141q0 67 49 114.5t126 47.5q104 0 167 -73l-36 -32q-52 59 -132 59q-53 0 -86 -34t-33 -81q0 -64 65 -141q103 -115 269 -240q54 78 54 173h51q0 -111 -65 -203q55 -40 142 -101l-32 -41q-57 40 -142 102q-105 -112 -257 -112
q-111 0 -174 60t-63 144zM501 130q-170 131 -275 246q-126 -70 -126 -181q0 -66 49 -112.5t137 -46.5q126 0 215 94z" />
    <glyph glyph-name="quotesingle" unicode="'" horiz-adv-x="206" 
d="M72 464v236h64l-29 -238z" />
    <glyph glyph-name="parenleft" unicode="(" horiz-adv-x="366" 
d="M63 277q0 264 191 478h64q-87 -88 -144 -209t-57 -269q0 -270 201 -477h-64q-191 213 -191 477z" />
    <glyph glyph-name="parenright" unicode=")" horiz-adv-x="366" 
d="M303 277q0 -264 -191 -477h-64q201 207 201 477q0 148 -57 269t-144 209h64q191 -214 191 -478z" />
    <glyph glyph-name="asterisk" unicode="*" horiz-adv-x="419" 
d="M141 403l52 135l-2 2l-142 -15v51l142 -8l1 2l-56 129l46 14l38 -134l2 -1l107 91l29 -39l-118 -75v-2l122 -73l-30 -40l-109 88l-2 -1l-35 -139z" />
    <glyph glyph-name="plus" unicode="+" horiz-adv-x="613" 
d="M51 231v50h229v230h53v-230h229v-50h-229v-231h-53v231h-229z" />
    <glyph glyph-name="comma" unicode="," horiz-adv-x="207" 
d="M73 0v104h61v-93q0 -58 -20 -92t-63 -54l-16 27q58 31 58 108h-20z" />
    <glyph glyph-name="hyphen" unicode="-" horiz-adv-x="373" 
d="M47 234v50h280v-50h-280z" />
    <glyph glyph-name="period" unicode="." horiz-adv-x="207" 
d="M73 0v104h61v-104h-61z" />
    <glyph glyph-name="slash" unicode="/" horiz-adv-x="482" 
d="M-10 -200l446 955h57l-446 -955h-57z" />
    <glyph glyph-name="zero" unicode="0" horiz-adv-x="649" 
d="M56 268q0 122 78 200.5t190 78.5q113 0 190.5 -78.5t77.5 -200.5q0 -123 -77.5 -201.5t-190.5 -78.5q-112 0 -190 79t-78 201zM113 268q0 -100 60 -166t151 -66q92 0 152 66t60 166t-60 165.5t-152 65.5q-91 0 -151 -65.5t-60 -165.5z" />
    <glyph glyph-name="one" unicode="1" horiz-adv-x="410" 
d="M271 0h-56v482l-128 -55l-20 43l158 69h46v-539z" />
    <glyph glyph-name="two" unicode="2" horiz-adv-x="592" 
d="M530 0h-459v22q-1 51 20.5 90.5t57 64t78 44t85.5 35.5t78.5 33t58 42t22.5 58q0 53 -46 82t-115 29q-57 0 -111.5 -22.5t-91.5 -59.5l-34 37q43 41 107 66.5t129 25.5q94 0 156 -42t62 -115q0 -55 -40 -93.5t-97.5 -61t-115.5 -44t-100 -57.5t-44 -86h400v-48z" />
    <glyph glyph-name="three" unicode="3" horiz-adv-x="575" 
d="M46 -132l21 45q86 -41 178 -41q102 0 168 45t66 123q0 69 -56.5 104t-138.5 35h-90v46h88q71 0 120 37t49 106q0 58 -50 95.5t-134 37.5q-53 0 -104 -22.5t-87 -58.5l-33 38q98 91 226 91q107 0 172.5 -50.5t65.5 -128.5q0 -64 -37 -106t-101 -58q72 -12 119 -55t47 -113
q0 -100 -82 -156.5t-207 -56.5q-112 0 -200 43z" />
    <glyph glyph-name="four" unicode="4" horiz-adv-x="624" 
d="M53 0l-18 49l376 488h65v-490h119v-47h-119v-163h-55v163h-368zM95 47h326v430z" />
    <glyph glyph-name="five" unicode="5" horiz-adv-x="566" 
d="M51 -131l21 45q82 -42 170 -42q98 0 160 50.5t62 134.5q0 75 -55 121.5t-145 46.5q-56 0 -143 -30l-36 23l11 318h382v-46h-332l-8 -248q76 30 138 30q108 0 176 -59t68 -156q0 -108 -78.5 -170.5t-199.5 -62.5q-110 0 -191 45z" />
    <glyph glyph-name="six" unicode="6" horiz-adv-x="622" 
d="M62 327q0 101 25.5 178t69 120.5t95.5 65t111 21.5q89 0 163 -33l-23 -44q-67 30 -140 30q-48 0 -90 -18.5t-77.5 -56t-56 -103.5t-20.5 -153q37 43 98 71.5t124 28.5q100 0 163 -60t63 -159q0 -94 -65.5 -160.5t-175.5 -66.5q-91 0 -152 47.5t-86.5 121t-25.5 170.5z
M120 286q7 -114 58.5 -182.5t148.5 -68.5q84 0 134.5 53t50.5 127q0 78 -49.5 126t-128.5 48q-62 0 -122.5 -30t-91.5 -73z" />
    <glyph glyph-name="seven" unicode="7" horiz-adv-x="571" 
d="M160 -164l303 652h-417v48h476v-40l-301 -660h-61z" />
    <glyph glyph-name="eight" unicode="8" horiz-adv-x="649" 
d="M57 179q0 73 53.5 120t138.5 65q-71 15 -115 58t-44 106q0 83 66.5 133.5t168.5 50.5t168 -50.5t66 -133.5q0 -63 -44 -106t-114 -58q84 -18 137.5 -65t53.5 -120q0 -89 -74.5 -140t-192.5 -51q-119 0 -193.5 51t-74.5 140zM113 180q0 -67 59.5 -106.5t152.5 -39.5
t152 39.5t59 106.5q0 68 -60.5 108.5t-150.5 50.5q-91 -10 -151.5 -50.5t-60.5 -108.5zM325 385q80 8 129 45.5t49 97.5q0 61 -50.5 99.5t-127.5 38.5t-127.5 -38.5t-50.5 -99.5t49 -98t129 -45z" />
    <glyph glyph-name="nine" unicode="9" horiz-adv-x="619" 
d="M84 -131l26 42q64 -41 148 -41q49 0 91 18t77.5 56t56 103.5t21.5 152.5q-38 -43 -98.5 -71t-122.5 -28q-101 0 -166 60t-65 159q0 94 65.5 160.5t175.5 66.5q136 0 202 -94t66 -245q0 -101 -25.5 -178t-69 -120.5t-96 -65t-112.5 -21.5q-97 1 -174 46zM289 146
q63 0 123 30t91 73q-8 113 -60.5 182t-149.5 69q-86 0 -136 -52.5t-50 -127.5q0 -77 51.5 -125.5t130.5 -48.5z" />
    <glyph glyph-name="colon" unicode=":" horiz-adv-x="207" 
d="M73 0v104h61v-104h-61zM73 407v104h61v-104h-61z" />
    <glyph glyph-name="semicolon" unicode=";" horiz-adv-x="207" 
d="M73 0v104h61v-93q0 -58 -20 -92t-63 -54l-16 27q58 31 58 108h-20zM73 407v104h61v-104h-61z" />
    <glyph glyph-name="less" unicode="&#x3c;" horiz-adv-x="638" 
d="M573 58v-58l-530 229v53l530 229v-59l-466 -196z" />
    <glyph glyph-name="equal" unicode="=" horiz-adv-x="613" 
d="M51 351v50h511v-50h-511zM51 111v50h511v-50h-511z" />
    <glyph glyph-name="greater" unicode="&#x3e;" horiz-adv-x="638" 
d="M65 0v58l466 198l-466 196v59l530 -229v-53z" />
    <glyph glyph-name="question" unicode="?" horiz-adv-x="510" 
d="M192 202q-1 1 -1 16q0 51 21.5 88.5t52 60.5t61 44t52 52t21.5 72q0 56 -44 92.5t-114 36.5q-91 0 -162 -73l-37 34q84 87 199 87q97 0 155.5 -49t58.5 -126q0 -42 -16 -76t-40 -54.5t-52.5 -42t-52.5 -39.5t-40.5 -47t-16.5 -65v-11h-45zM185 0v99h60v-99h-60z" />
    <glyph glyph-name="at" unicode="@" horiz-adv-x="838" 
d="M69 279q0 150 106.5 256.5t257.5 106.5q149 0 243 -92t94 -233q0 -110 -57.5 -175.5t-132.5 -65.5q-44 0 -68.5 24t-26.5 61q-50 -71 -129 -71q-52 0 -83.5 36t-31.5 97q0 92 57 171t149 79q61 0 100 -51l13 41h40l-70 -247q-14 -47 0 -76.5t55 -29.5q59 0 104.5 57
t45.5 150q0 128 -84 208.5t-218 80.5q-137 0 -233 -95.5t-96 -231.5q0 -135 96.5 -231t232.5 -96q90 0 170 48l20 -30q-87 -53 -190 -53q-151 0 -257.5 106t-106.5 256zM286 225q0 -45 20.5 -71.5t58.5 -26.5q41 0 76.5 28.5t50.5 81.5l44 153q-33 45 -88 45
q-71 0 -116.5 -68t-45.5 -142z" />
    <glyph glyph-name="A" unicode="A" horiz-adv-x="678" 
d="M35 0l269 700h71l268 -700h-62l-71 189h-343l-70 -189h-62zM338 646l-153 -410h308l-153 410h-2z" />
    <glyph glyph-name="B" unicode="B" horiz-adv-x="672" 
d="M90 0v700h268q110 0 167 -50t57 -128q0 -61 -33.5 -102.5t-88.5 -58.5q69 -16 109.5 -58.5t40.5 -109.5q0 -92 -60 -142.5t-168 -50.5h-292zM146 49h236q82 0 126 37.5t44 109.5q0 64 -47.5 100.5t-123.5 36.5h-235v-284zM146 380h210q83 0 125.5 39.5t42.5 99.5
q0 58 -42.5 95t-125.5 37h-210v-271z" />
    <glyph glyph-name="C" unicode="C" horiz-adv-x="712" 
d="M60 359q0 157 96.5 255t251.5 98q130 0 223 -70l-31 -43q-83 63 -191 63q-131 0 -211.5 -83.5t-80.5 -219.5q0 -145 80 -233t212 -88q122 0 202 75l36 -38q-93 -87 -240 -87q-156 0 -251.5 102t-95.5 269z" />
    <glyph glyph-name="D" unicode="D" horiz-adv-x="708" 
d="M90 0v700h190q179 0 274 -90.5t95 -252.5q0 -171 -93 -264t-276 -93h-190zM146 49h137q153 0 231 81t78 227q0 138 -80 216t-229 78h-137v-602z" />
    <glyph glyph-name="E" unicode="E" horiz-adv-x="634" 
d="M90 0v700h467v-51h-411v-268h371v-48h-371v-282h417v-51h-473z" />
    <glyph glyph-name="F" unicode="F" horiz-adv-x="615" 
d="M90 0v700h459v-51h-403v-272h358v-49h-358v-328h-56z" />
    <glyph glyph-name="G" unicode="G" horiz-adv-x="724" 
d="M60 359q0 157 96 255t252 98q129 0 225 -61l-29 -42q-84 53 -195 53q-130 0 -210.5 -84t-80.5 -219q0 -148 78 -234.5t213 -86.5q111 0 183 46v228h-211v45h264v-302q-101 -67 -237 -67q-160 0 -254 100.5t-94 270.5z" />
    <glyph glyph-name="H" unicode="H" horiz-adv-x="697" 
d="M90 0v700h56v-318h405v318h57v-700h-57v331h-405v-331h-56z" />
    <glyph glyph-name="I" unicode="I" horiz-adv-x="235" 
d="M90 0v700h56v-700h-56z" />
    <glyph glyph-name="J" unicode="J" horiz-adv-x="566" 
d="M54 135l48 23q18 -51 57.5 -85t101.5 -34q81 0 121.5 51t40.5 138v472h57v-472q0 -112 -55 -176t-162 -64q-80 0 -132.5 41.5t-76.5 105.5z" />
    <glyph glyph-name="K" unicode="K" horiz-adv-x="663" 
d="M90 0v700h56v-423l373 423h69l-230 -260l258 -440h-68l-227 398l-175 -197v-201h-56z" />
    <glyph glyph-name="L" unicode="L" horiz-adv-x="604" 
d="M90 0v700h56v-649h410v-51h-466z" />
    <glyph glyph-name="M" unicode="M" horiz-adv-x="845" 
d="M90 0v700h67l266 -392l266 392h67v-700h-55v626l-278 -406l-278 408v-628h-55z" />
    <glyph glyph-name="N" unicode="N" horiz-adv-x="718" 
d="M90 0v700h62l421 -619v619h55v-700h-63l-420 618v-618h-55z" />
    <glyph glyph-name="O" unicode="O" horiz-adv-x="808" 
d="M60 355q0 159 99 258t245 99t245 -99t99 -258q0 -167 -97.5 -267t-246.5 -100t-246.5 100t-97.5 267zM118 355q0 -145 81.5 -231t204.5 -86t204.5 86t81.5 231q0 137 -82.5 222t-203.5 85t-203.5 -85t-82.5 -222z" />
    <glyph glyph-name="P" unicode="P" horiz-adv-x="655" 
d="M90 0v700h271q119 0 175 -59t56 -144q0 -38 -12.5 -73t-38.5 -65.5t-72.5 -49t-108.5 -18.5h-214v-291h-56zM146 339h214q89 0 132.5 46.5t43.5 110.5q0 65 -42.5 110t-132.5 45h-215v-312z" />
    <glyph glyph-name="Q" unicode="Q" horiz-adv-x="817" 
d="M60 355q0 159 99 258t245 99t245 -99t99 -258q0 -152 -85 -253l95 -81l-33 -35l-94 83q-93 -81 -227 -81q-149 0 -246.5 100t-97.5 267zM455 223l32 36l134 -121q69 87 69 217q0 137 -82.5 222t-203.5 85t-203.5 -85t-82.5 -222q0 -145 81.5 -231t204.5 -86q110 0 187 68
z" />
    <glyph glyph-name="R" unicode="R" horiz-adv-x="673" 
d="M90 0v700h284q118 0 174.5 -59t56.5 -144q0 -68 -40.5 -124t-118.5 -74l156 -299h-63l-147 292h-17h-229v-292h-56zM146 339h226q89 0 132.5 46.5t43.5 110.5q0 65 -42.5 110t-131.5 45h-228v-312z" />
    <glyph glyph-name="S" unicode="S" horiz-adv-x="607" 
d="M57 58l29 45q94 -64 220 -64q91 0 138 38t47 100q0 44 -23.5 73t-60.5 44t-82 26t-90.5 24t-82.5 32.5t-60.5 57.5t-23.5 93q0 80 62.5 132.5t169.5 52.5q120 0 222 -50l-23 -48q-94 47 -197 47q-81 0 -128 -37.5t-47 -95.5q0 -44 23.5 -73.5t60.5 -44t82 -25.5t90.5 -24
t82.5 -32t60.5 -57.5t23.5 -94.5q0 -84 -62.5 -136.5t-181.5 -52.5q-73 0 -139 20t-110 50z" />
    <glyph glyph-name="T" unicode="T" horiz-adv-x="644" 
d="M294 0v649h-263v51h582v-51h-263v-649h-56z" />
    <glyph glyph-name="U" unicode="U" horiz-adv-x="712" 
d="M87 256v444h57v-444q0 -103 60 -160.5t152 -57.5t152.5 57.5t60.5 160.5v444h57v-444q0 -129 -75.5 -198.5t-194.5 -69.5q-118 0 -193.5 69.5t-75.5 198.5z" />
    <glyph glyph-name="V" unicode="V" horiz-adv-x="663" 
d="M297 0l-262 700h62l233 -639h2l234 639h63l-264 -700h-68z" />
    <glyph glyph-name="W" unicode="W" horiz-adv-x="1023" 
d="M260 0l-224 700h61l196 -627h2l187 627h60l187 -627h2l196 627h61l-225 -700h-65l-186 621h-2l-185 -621h-65z" />
    <glyph glyph-name="X" unicode="X" horiz-adv-x="674" 
d="M43 0l258 358l-246 342h70l213 -299l212 299h70l-247 -342l258 -358h-71l-223 314l-224 -314h-70z" />
    <glyph glyph-name="Y" unicode="Y" horiz-adv-x="651" 
d="M297 0v287l-263 413h67l224 -360h2l223 360h67l-263 -413v-287h-57z" />
    <glyph glyph-name="Z" unicode="Z" horiz-adv-x="644" 
d="M60 0v52l447 597h-446v51h514v-52l-445 -596h456v-52h-526z" />
    <glyph glyph-name="bracketleft" unicode="[" horiz-adv-x="366" 
d="M143 -156h156v-44h-212v955h212v-44h-156v-867z" />
    <glyph glyph-name="backslash" unicode="\" horiz-adv-x="482" 
d="M46 755l446 -955h-57l-446 955h57z" />
    <glyph glyph-name="bracketright" unicode="]" horiz-adv-x="366" 
d="M67 -156h156v867h-156v44h212v-955h-212v44z" />
    <glyph glyph-name="asciicircum" unicode="^" horiz-adv-x="524" 
d="M97 562l140 173h51l140 -173h-50l-115 119l-118 -119h-48z" />
    <glyph glyph-name="underscore" unicode="_" horiz-adv-x="545" 
d="M0 -12h545v-51h-545v51z" />
    <glyph glyph-name="grave" unicode="`" horiz-adv-x="646" 
d="M374 566l-141 137l41 32l139 -169h-39z" />
    <glyph glyph-name="a" unicode="a" horiz-adv-x="514" 
d="M52 113q0 158 315 171v91q0 45 -28.5 73t-85.5 28q-71 0 -161 -46l-23 45q94 48 185 48q85 0 127 -40.5t42 -108.5v-274q0 -59 54 -59v-42q-86 0 -104 69q-68 -80 -175 -80q-66 0 -106 34t-40 91zM107 116q0 -38 27.5 -61t73.5 -23q51 0 93.5 22t65.5 56v136
q-260 -11 -260 -130z" />
    <glyph glyph-name="b" unicode="b" horiz-adv-x="580" 
d="M88 0v755h55v-315q79 83 169 83q95 0 152.5 -70t57.5 -190q0 -128 -55.5 -201.5t-154.5 -73.5q-94 0 -171 85l-6 -73h-47zM143 120q71 -86 160 -86q78 0 120.5 61.5t42.5 167.5q0 99 -44 156.5t-120 57.5q-83 0 -159 -86v-271z" />
    <glyph glyph-name="c" unicode="c" horiz-adv-x="508" 
d="M57 262q0 119 65.5 190t169.5 71q91 0 158 -50l-30 -40q-57 42 -127 42q-80 0 -130 -58t-50 -155q0 -105 49 -166t131 -61q75 0 136 51l33 -36q-73 -62 -170 -62q-106 0 -170.5 74t-64.5 200z" />
    <glyph glyph-name="d" unicode="d" horiz-adv-x="579" 
d="M267 -12q-98 0 -153.5 73.5t-55.5 201.5q0 121 57 190.5t153 69.5q90 0 169 -83v315h55v-755h-46l-7 73q-78 -85 -172 -85zM277 34q87 0 160 86v271q-77 86 -159 86q-76 0 -120.5 -57.5t-44.5 -156.5q0 -106 43 -167.5t121 -61.5z" />
    <glyph glyph-name="e" unicode="e" horiz-adv-x="559" 
d="M58 262q0 118 67 189.5t171 71.5q101 0 151.5 -61t50.5 -162q0 -17 -2 -37h-383v-2q0 -108 47 -167t139 -59q83 0 154 49l27 -39q-81 -57 -183 -57q-116 0 -177.5 72t-61.5 202zM297 479q-72 0 -121.5 -47t-59.5 -128h328q2 77 -34 126t-113 49z" />
    <glyph glyph-name="f" unicode="f" horiz-adv-x="360" 
d="M120 0v464h-95v44h95v56q0 197 189 197q36 0 66 -10l-13 -43q-26 7 -52 7q-66 0 -100.5 -35t-34.5 -115v-57h147v-44h-147v-464h-55z" />
    <glyph glyph-name="g" unicode="g" horiz-adv-x="564" 
d="M39 -76q0 74 94 113q-44 26 -44 73q0 46 46 74q-82 54 -82 153q0 80 59 133t147 53q78 0 134 -42q61 46 142 43v-45q-74 1 -117 -20q49 -51 49 -122q0 -82 -61 -135t-147 -53q-48 0 -92 19q-33 -20 -33 -50q0 -20 11 -32.5t37 -19t49 -9t67 -4.5q225 -13 225 -128
q0 -65 -63 -100t-184 -35q-114 0 -175.5 35t-61.5 99zM259 191q66 0 110 41.5t44 104.5q0 61 -44.5 102t-109.5 41t-108.5 -41t-43.5 -102q0 -63 43.5 -104.5t108.5 -41.5zM286 7q-64 2 -106 13q-39 -12 -63.5 -36.5t-24.5 -58.5q0 -44 47.5 -68.5t134.5 -24.5q196 0 196 89
q0 43 -48 62.5t-136 23.5z" />
    <glyph glyph-name="h" unicode="h" horiz-adv-x="570" 
d="M88 0v755h55v-321q82 89 186 89q159 0 159 -171v-352h-55v353q0 124 -113 124q-99 0 -177 -91v-386h-55z" />
    <glyph glyph-name="i" unicode="i" 
d="M88 0v509h55v-509h-55zM88 658v81h55v-81h-55z" />
    <glyph glyph-name="j" unicode="j" horiz-adv-x="239" 
d="M96 -34v543h55v-541q0 -178 -144 -178q-21 0 -51 7l11 45q18 -5 35 -5q94 0 94 129zM96 658v81h55v-81h-55z" />
    <glyph glyph-name="k" unicode="k" horiz-adv-x="515" 
d="M88 0v755h55v-526l254 282h65l-154 -167l182 -344h-63l-155 304l-129 -141v-163h-55z" />
    <glyph glyph-name="l" unicode="l" 
d="M88 0v755h55v-755h-55z" />
    <glyph glyph-name="m" unicode="m" horiz-adv-x="881" 
d="M84 0v511h50l5 -71q81 83 179 83q107 0 140 -88q84 88 188 88q79 0 116 -45t37 -125v-353h-56v353q0 124 -107 124q-94 0 -168 -85q3 -21 3 -42v-350h-56v353q0 124 -107 124q-95 0 -169 -87v-390h-55z" />
    <glyph glyph-name="n" unicode="n" horiz-adv-x="566" 
d="M84 0v511h50l5 -76q83 88 187 88q159 0 159 -171v-352h-56v353q0 124 -113 124q-102 0 -177 -93v-384h-55z" />
    <glyph glyph-name="o" unicode="o" horiz-adv-x="594" 
d="M58 262q0 117 67.5 189t172.5 72t172 -72t67 -189q0 -125 -66 -199.5t-173 -74.5q-109 0 -174.5 74.5t-65.5 199.5zM114 262q0 -104 50 -166.5t134 -62.5q83 0 132.5 62.5t49.5 166.5q0 97 -51 156t-131 59q-81 0 -132.5 -59t-51.5 -156z" />
    <glyph glyph-name="p" unicode="p" horiz-adv-x="579" 
d="M142 72v-272h-55v711h48l6 -73q78 85 170 85q96 0 153 -69.5t57 -190.5q0 -128 -55.5 -201.5t-153.5 -73.5q-94 0 -170 84zM142 120q71 -86 160 -86q78 0 121 61.5t43 167.5q0 99 -44.5 156.5t-120.5 57.5q-83 0 -159 -86v-271z" />
    <glyph glyph-name="q" unicode="q" horiz-adv-x="579" 
d="M277 34q87 0 160 86v271q-77 86 -159 86q-76 0 -120.5 -57.5t-44.5 -156.5q0 -106 43 -167.5t121 -61.5zM267 -12q-98 0 -153.5 73.5t-55.5 201.5q0 121 57 190.5t153 69.5q91 0 169 -85l7 73h48v-711h-55v272q-77 -84 -170 -84z" />
    <glyph glyph-name="r" unicode="r" horiz-adv-x="385" 
d="M84 0v511h49l6 -89q59 101 161 101q36 0 62 -8l-11 -53q-29 9 -57 9q-93 0 -155 -107v-364h-55z" />
    <glyph glyph-name="s" unicode="s" horiz-adv-x="455" 
d="M42 37l26 42q68 -45 160 -45q63 0 96 25t33 69q0 35 -23 57.5t-57 31.5t-74 20.5t-74 24t-57 43t-23 76.5q0 64 48.5 103t127.5 39q86 0 165 -38l-22 -43q-70 35 -143 35q-55 0 -88 -26t-33 -68q0 -35 23 -57t57 -30.5t74 -20t74 -24t57 -43.5t23 -78q0 -66 -48 -104
t-136 -38q-106 0 -186 49z" />
    <glyph glyph-name="t" unicode="t" horiz-adv-x="370" 
d="M119 130v336h-94v45h94v160h55v-160h150v-45h-150v-336q0 -96 80 -96q39 0 74 24l23 -38q-48 -32 -102 -32q-130 0 -130 142z" />
    <glyph glyph-name="u" unicode="u" horiz-adv-x="567" 
d="M82 159v352h55v-353q0 -125 113 -125q101 0 178 93v385h55v-511h-48l-7 75q-83 -87 -187 -87q-159 0 -159 171z" />
    <glyph glyph-name="v" unicode="v" horiz-adv-x="486" 
d="M212 0l-186 511h59l158 -449h2l158 449h57l-187 -511h-61z" />
    <glyph glyph-name="w" unicode="w" horiz-adv-x="797" 
d="M201 0l-175 511h58l148 -445h2l138 445h53l139 -445h2l148 445h57l-175 -511h-60l-137 435h-2l-136 -435h-60z" />
    <glyph glyph-name="x" unicode="x" horiz-adv-x="495" 
d="M33 0l181 258l-172 253h62l144 -214l143 214h62l-171 -253l180 -258h-62l-153 220l-152 -220h-62z" />
    <glyph glyph-name="y" unicode="y" horiz-adv-x="487" 
d="M36 -150q32 -13 56 -13q32 0 53 15t35 53l38 99l-192 507h59l160 -435h2l156 435h58l-227 -613q-22 -60 -56.5 -84t-84.5 -24q-38 0 -73 14z" />
    <glyph glyph-name="z" unicode="z" horiz-adv-x="490" 
d="M54 0v42l311 422h-303v47h371v-43l-310 -422h321v-46h-390z" />
    <glyph glyph-name="braceleft" unicode="{" horiz-adv-x="433" 
d="M317 -157h53v-43h-55q-148 0 -148 137v210q0 52 -21 75.5t-73 23.5h-39v51h39q52 0 73 23.5t21 75.5v222q0 137 148 137h55v-43h-53q-50 0 -72.5 -22.5t-22.5 -72.5v-218q0 -108 -81 -127v-1q81 -19 81 -127v-206q0 -50 22.5 -72.5t72.5 -22.5z" />
    <glyph glyph-name="bar" unicode="|" horiz-adv-x="266" 
d="M107 -200v955h53v-955h-53z" />
    <glyph glyph-name="braceright" unicode="}" horiz-adv-x="433" 
d="M63 -157h53q50 0 72.5 22.5t22.5 72.5v206q0 108 81 127v1q-81 19 -81 127v218q0 50 -22.5 72.5t-72.5 22.5h-53v43h55q148 0 148 -137v-222q0 -52 21 -75.5t73 -23.5h39v-51h-39q-52 0 -73 -23.5t-21 -75.5v-210q0 -137 -148 -137h-55v43z" />
    <glyph glyph-name="asciitilde" unicode="~" horiz-adv-x="568" 
d="M77 199q-1 8 -1 19q0 58 28.5 92t76.5 34q34 0 71.5 -28t72.5 -56t62 -28q30 0 47.5 23t13.5 70h43q1 -8 1 -19q0 -59 -28 -92.5t-76 -33.5q-35 0 -72.5 28t-72 56t-61.5 28q-30 0 -47.5 -23t-14.5 -70h-43z" />
    <glyph glyph-name="nbspace" unicode="&#xa0;" horiz-adv-x="255" 
 />
    <glyph glyph-name="exclamdown" unicode="&#xa1;" horiz-adv-x="242" 
d="M90 34l15 275h31l15 -275v-223h-61v223zM91 412v99h60v-99h-60z" />
    <glyph glyph-name="cent" unicode="&#xa2;" horiz-adv-x="583" 
d="M49 275q0 121 79.5 197t207.5 76q15 0 22 -1l24 105h40l-25 -110q71 -12 125 -50l-29 -39q-49 33 -109 44l-104 -457q30 -5 57 -5q101 0 166 57l33 -35q-78 -69 -200 -69q-34 0 -64 6l-29 -127h-40l33 135q-87 28 -137 100t-50 173zM104 275q0 -83 38 -142.5t106 -83.5
l102 451q-2 0 -6.5 0.5t-6.5 0.5q-104 0 -168.5 -62.5t-64.5 -163.5z" />
    <glyph glyph-name="sterling" unicode="&#xa3;" horiz-adv-x="568" 
d="M97 263v38h90q-42 64 -42 120q0 55 39.5 91t109.5 36q58 0 96 -24.5t56 -58.5l-44 -20q-32 58 -106 58q-46 0 -71.5 -23t-25.5 -61q0 -48 46 -118h134v-38h-109q39 -62 39 -120q0 -22 -9 -51q78 -59 131 -59q76 0 73 89h51q4 -64 -26 -99t-89 -35q-70 0 -159 70
q-24 -33 -62 -51.5t-76 -18.5q-47 0 -74.5 26t-27.5 65t29 65t72 26q49 0 115 -46q0 2 0.5 7t0.5 8q0 52 -44 121q-2 2 -2 3h-115zM142 24q28 0 57.5 16.5t45.5 46.5q-61 47 -103 47q-27 0 -44.5 -16t-17.5 -39t16.5 -39t45.5 -16z" />
    <glyph glyph-name="currency" unicode="&#xa4;" horiz-adv-x="652" 
d="M65 265q0 100 66 174l-56 60l31 30l56 -61q73 58 164 58q92 0 164 -58l57 61l31 -30l-58 -60q67 -73 67 -174q0 -99 -66 -173l57 -60l-31 -29l-57 60q-72 -58 -164 -58q-93 0 -164 57l-56 -59l-31 29l56 60q-66 74 -66 173zM117 265q0 -86 61.5 -147.5t147.5 -61.5
q87 0 148.5 61.5t61.5 147.5q0 87 -61.5 148.5t-148.5 61.5q-86 0 -147.5 -61.5t-61.5 -148.5z" />
    <glyph glyph-name="yen" unicode="&#xa5;" horiz-adv-x="563" 
d="M64 199v38h188l-219 299h67l180 -250h1l182 250h66l-221 -299h187v-38h-187v-69h187v-37h-187v-93h-56v93h-188v37h188v69h-188z" />
    <glyph glyph-name="brokenbar" unicode="&#xa6;" horiz-adv-x="266" 
d="M107 168h53v-368h-53v368zM107 344v411h53v-411h-53z" />
    <glyph glyph-name="section" unicode="&#xa7;" horiz-adv-x="527" 
d="M457 146q0 -63 -65 -107q43 -35 43 -90q0 -62 -47.5 -96t-130.5 -34q-103 0 -176 76l38 32q59 -64 140 -64q57 0 90 21.5t33 63.5q0 37 -32 61t-77.5 38.5t-91.5 31.5t-78 51.5t-32 86.5q0 63 64 107q-43 35 -43 90q0 62 47.5 96t130.5 34q104 0 177 -76l-39 -32
q-56 63 -140 63q-57 0 -90 -21.5t-33 -62.5q0 -37 32 -61t78 -38.5t92 -31.5t78 -51.5t32 -86.5zM406 140q0 37 -25.5 63.5t-57 39t-80.5 29.5t-75 31q-47 -33 -47 -80q0 -37 25.5 -64t57 -39t80.5 -29t75 -31q47 33 47 80z" />
    <glyph glyph-name="dieresis" unicode="&#xa8;" horiz-adv-x="651" 
d="M388 612v65h56v-65h-56zM207 612v65h56v-65h-56z" />
    <glyph glyph-name="copyright" unicode="&#xa9;" horiz-adv-x="869" 
d="M236 278q0 87 59 145t147 58q74 0 132 -41l-26 -34q-46 34 -105 34q-70 0 -116 -46t-46 -116q0 -75 45 -119.5t117 -44.5q68 0 111 40l28 -29q-54 -52 -140 -52q-92 0 -149 56t-57 149zM70 279q0 150 106.5 256.5t257.5 106.5t258 -106.5t107 -256.5t-107 -256t-258 -106
t-257.5 106t-106.5 256zM106 279q0 -135 96.5 -231t232.5 -96q135 0 231.5 96t96.5 231q0 136 -96 231.5t-232 95.5q-137 0 -233 -95.5t-96 -231.5z" />
    <glyph glyph-name="ordfeminine" unicode="&#xaa;" horiz-adv-x="368" 
d="M40 424q0 110 218 119v59q0 30 -19 48t-58 18q-48 0 -112 -32l-17 36q62 33 130 33q60 0 89 -28t29 -75v-185q0 -40 38 -40v-33q-61 0 -76 45q-44 -53 -118 -53q-47 0 -75.5 24t-28.5 64zM83 426q0 -25 18.5 -40t48.5 -15q68 0 108 49v92q-175 -7 -175 -86z" />
    <glyph glyph-name="guillemotleft" unicode="&#xab;" horiz-adv-x="593" 
d="M112 256l180 -226l-39 -30l-201 256l201 255l39 -31zM352 256l180 -226l-39 -30l-201 256l201 255l39 -31z" />
    <glyph glyph-name="logicalnot" unicode="&#xac;" horiz-adv-x="602" 
d="M63 487v49h476v-248h-58v199h-418z" />
    <glyph glyph-name="registered" unicode="&#xae;" horiz-adv-x="869" 
d="M70 279q0 150 106.5 256.5t257.5 106.5t258 -106.5t107 -256.5t-107 -256t-258 -106t-257.5 106t-106.5 256zM106 279q0 -135 96 -230.5t232 -95.5t232.5 96t96.5 230q0 136 -96.5 231.5t-232.5 95.5t-232 -95.5t-96 -231.5zM288 84v389h178q73 0 107.5 -34t34.5 -84
q0 -37 -24 -68t-72 -42l95 -161h-51l-88 156h-135v-156h-45zM333 276h128q52 0 77 23.5t25 55.5q0 34 -23.5 57t-76.5 23h-130v-159z" />
    <glyph glyph-name="macron" unicode="&#xaf;" horiz-adv-x="650" 
d="M186 623v42h281v-42h-281z" />
    <glyph glyph-name="degree" unicode="&#xb0;" horiz-adv-x="413" 
d="M207 402q-65 0 -111 44.5t-46 110.5q0 65 46.5 110t110.5 45t110 -45t46 -110q0 -67 -45.5 -111t-110.5 -44zM207 441q48 0 81.5 33.5t33.5 82.5t-34 82.5t-81 33.5q-48 0 -82 -34t-34 -82q0 -49 34 -82.5t82 -33.5z" />
    <glyph glyph-name="plusminus" unicode="&#xb1;" horiz-adv-x="613" 
d="M51 0v44h229v202h-229v49h229v216h53v-216h229v-49h-229v-202h229v-44h-511z" />
    <glyph glyph-name="two.sups" unicode="&#xb2;" horiz-adv-x="328" 
d="M41 500v21q-1 48 20.5 80.5t52 49t61.5 30t53 32.5t22 47t-22.5 45.5t-63.5 17.5q-54 0 -95 -43l-28 25q51 53 125 53q60 0 93 -27.5t33 -70.5q0 -35 -21.5 -60t-52 -39l-61 -28t-52 -38t-21.5 -59h208v-36h-251z" />
    <glyph glyph-name="three.sups" unicode="&#xb3;" horiz-adv-x="326" 
d="M40 518l15 34q42 -23 93 -23q46 0 76 20.5t30 54.5q0 31 -24.5 47t-63.5 16h-49v34h47q35 0 56 16.5t21 46.5q0 25 -22.5 42t-60.5 17q-56 0 -97 -41l-24 27q51 49 121 49q55 0 89.5 -25.5t34.5 -65.5q0 -60 -61 -81q34 -8 54.5 -29t20.5 -54q0 -51 -42 -80t-106 -29
q-60 0 -108 24z" />
    <glyph glyph-name="acute" unicode="&#xb4;" horiz-adv-x="646" 
d="M233 566l139 169l41 -32l-141 -137h-39z" />
    <glyph glyph-name="mu" unicode="&#xb5;" horiz-adv-x="529" 
d="M117 54l-5 -254h-49v736h56v-388q5 -114 113 -114q101 0 178 92v410h56v-536h-50l-5 74q-78 -85 -175 -85q-94 0 -119 65z" />
    <glyph glyph-name="paragraph" unicode="&#xb6;" horiz-adv-x="665" 
d="M342 0v293h-45q-78 0 -132.5 32t-76.5 76t-22 93q0 84 56.5 145t172.5 61h275v-700h-51v656h-126v-656h-51z" />
    <glyph glyph-name="periodcentered" unicode="&#xb7;" horiz-adv-x="207" 
d="M73 204v104h61v-104h-61z" />
    <glyph glyph-name="cedilla" unicode="&#xb8;" horiz-adv-x="646" 
d="M248 -191q108 88 125 196h38q-14 -127 -117 -219z" />
    <glyph glyph-name="one.sups" unicode="&#xb9;" horiz-adv-x="273" 
d="M143 500v311l-80 -42l-17 31l104 52h33v-352h-40z" />
    <glyph glyph-name="ordmasculine" unicode="&#xba;" horiz-adv-x="422" 
d="M42 525q0 81 47 130.5t121 49.5q73 0 120 -49.5t47 -130.5q0 -86 -46 -137.5t-121 -51.5q-76 0 -122 51t-46 138zM84 525q0 -70 34 -111.5t92 -41.5q56 0 90 41.5t34 111.5q0 64 -34.5 104t-89.5 40t-90.5 -40t-35.5 -104z" />
    <glyph glyph-name="guillemotright" unicode="&#xbb;" horiz-adv-x="593" 
d="M61 30l180 226l-180 224l39 31l201 -255l-201 -256zM302 30l180 226l-180 224l39 31l201 -255l-201 -256z" />
    <glyph glyph-name="onequarter" unicode="&#xbc;" horiz-adv-x="717" 
d="M431 78l-13 32l186 242h48v-240h57v-34h-57v-78h-40v78h-181zM462 112h150v196zM69 0l582 700h49l-581 -700h-50zM148 350v311l-80 -42l-17 31l104 52h33v-352h-40z" />
    <glyph glyph-name="onehalf" unicode="&#xbd;" horiz-adv-x="766" 
d="M507 0v21q-1 48 20.5 80.5t52 49t61.5 30t53 32.5t22 47t-22.5 45.5t-63.5 17.5q-54 0 -95 -43l-28 25q51 53 125 53q60 0 93 -27.5t33 -70.5q0 -35 -21.5 -60t-52 -39l-61 -28t-52 -38t-21.5 -59h208v-36h-251zM69 0l582 700h49l-581 -700h-50zM148 350v311l-80 -42
l-17 31l104 52h33v-352h-40z" />
    <glyph glyph-name="threequarters" unicode="&#xbe;" horiz-adv-x="725" 
d="M21 368l15 34q42 -23 93 -23q46 0 76 20.5t30 54.5q0 31 -24.5 47t-63.5 16h-49v34h47q35 0 56 16.5t21 46.5q0 25 -22.5 42t-60.5 17q-56 0 -97 -41l-24 27q51 49 121 49q55 0 89.5 -25.5t34.5 -65.5q0 -60 -61 -81q34 -8 54.5 -29t20.5 -54q0 -51 -42 -80t-106 -29
q-60 0 -108 24zM441 78l-13 32l186 242h48v-240h57v-34h-57v-78h-40v78h-181zM472 112h150v196zM76 0l582 700h49l-581 -700h-50z" />
    <glyph glyph-name="questiondown" unicode="&#xbf;" horiz-adv-x="491" 
d="M318 309q1 -1 1 -16q0 -51 -21.5 -88.5t-52 -60.5t-61 -44t-52 -52t-21.5 -72q0 -56 44 -92.5t114 -36.5q91 0 162 73l37 -34q-84 -87 -199 -87q-97 0 -155.5 49t-58.5 126q0 42 16 76t40 54.5t52.5 42t52.5 39.5t40.5 47t16.5 65v11h45zM325 511v-99h-60v99h60z" />
    <glyph glyph-name="Agrave" unicode="&#xc0;" horiz-adv-x="678" 
d="M35 0l269 700h71l268 -700h-62l-71 189h-343l-70 -189h-62zM338 646l-153 -410h308l-153 410h-2zM325 755l-111 91l45 34l111 -125h-45z" />
    <glyph glyph-name="Aacute" unicode="&#xc1;" horiz-adv-x="678" 
d="M35 0l269 700h71l268 -700h-62l-71 189h-343l-70 -189h-62zM338 646l-153 -410h308l-153 410h-2zM308 755l111 125l45 -34l-112 -91h-44z" />
    <glyph glyph-name="Acircumflex" unicode="&#xc2;" horiz-adv-x="678" 
d="M35 0l269 700h71l268 -700h-62l-71 189h-343l-70 -189h-62zM338 646l-153 -410h308l-153 410h-2zM181 755l128 108h60l128 -108h-41l-116 73h-1l-117 -73h-41z" />
    <glyph glyph-name="Atilde" unicode="&#xc3;" horiz-adv-x="678" 
d="M35 0l269 700h71l268 -700h-62l-71 189h-343l-70 -189h-62zM338 646l-153 -410h308l-153 410h-2zM201 764q-6 47 15 74t57 27q32 0 71.5 -35t58.5 -35t29.5 16t7.5 43h38q5 -47 -16 -74t-57 -27q-25 0 -48.5 17.5t-44 34.5t-37.5 17q-19 0 -30 -15.5t-7 -42.5h-37z" />
    <glyph glyph-name="Adieresis" unicode="&#xc4;" horiz-adv-x="678" 
d="M35 0l269 700h71l268 -700h-62l-71 189h-343l-70 -189h-62zM338 646l-153 -410h308l-153 410h-2zM406 777v65h56v-65h-56zM216 777v65h56v-65h-56z" />
    <glyph glyph-name="Aring" unicode="&#xc5;" horiz-adv-x="678" 
d="M35 0l262 682q-25 12 -40.5 35t-15.5 52q0 40 28.5 68t69.5 28t69.5 -28t28.5 -68q0 -61 -55 -87l261 -682h-62l-71 189h-343l-70 -189h-62zM338 646l-153 -410h308l-153 410h-2zM339 700q28 0 48 20t20 49t-19.5 48.5t-48.5 19.5t-48.5 -19.5t-19.5 -48.5t20 -49t48 -20
z" />
    <glyph glyph-name="AE" unicode="&#xc6;" horiz-adv-x="1015" 
d="M33 0l322 700h583v-52h-487l79 -266h368v-50h-353l82 -280h318v-52h-364l-54 189h-345l-84 -189h-65zM388 648l-184 -411h309l-118 411h-7z" />
    <glyph glyph-name="Ccedilla" unicode="&#xc7;" horiz-adv-x="712" 
d="M237 -191q101 82 122 182q-136 16 -217.5 115.5t-81.5 252.5q0 157 96.5 255t251.5 98q130 0 223 -70l-31 -43q-83 63 -191 63q-131 0 -211.5 -83.5t-80.5 -219.5q0 -145 80 -233t212 -88q122 0 202 75l36 -38q-93 -87 -240 -87q-1 0 -4 0.5t-5 0.5q-20 -119 -115 -203z
" />
    <glyph glyph-name="Egrave" unicode="&#xc8;" horiz-adv-x="634" 
d="M313 755l-111 91l45 34l111 -125h-45zM90 0v700h467v-51h-411v-268h371v-48h-371v-282h417v-51h-473z" />
    <glyph glyph-name="Eacute" unicode="&#xc9;" horiz-adv-x="634" 
d="M295 755l111 125l45 -34l-112 -91h-44zM90 0v700h467v-51h-411v-268h371v-48h-371v-282h417v-51h-473z" />
    <glyph glyph-name="Ecircumflex" unicode="&#xca;" horiz-adv-x="634" 
d="M90 0v700h467v-51h-411v-268h371v-48h-371v-282h417v-51h-473zM168 755l128 108h60l128 -108h-41l-116 73h-1l-117 -73h-41z" />
    <glyph glyph-name="Edieresis" unicode="&#xcb;" horiz-adv-x="634" 
d="M394 777v65h56v-65h-56zM204 777v65h56v-65h-56zM90 0v700h467v-51h-411v-268h371v-48h-371v-282h417v-51h-473z" />
    <glyph glyph-name="Igrave" unicode="&#xcc;" horiz-adv-x="235" 
d="M90 0v700h56v-700h-56zM104 755l-111 91l45 34l111 -125h-45z" />
    <glyph glyph-name="Iacute" unicode="&#xcd;" horiz-adv-x="235" 
d="M90 0v700h56v-700h-56zM87 755l111 125l45 -34l-112 -91h-44z" />
    <glyph glyph-name="Icircumflex" unicode="&#xce;" horiz-adv-x="235" 
d="M90 0v700h56v-700h-56zM-40 755l128 108h60l128 -108h-41l-116 73h-1l-117 -73h-41z" />
    <glyph glyph-name="Idieresis" unicode="&#xcf;" horiz-adv-x="235" 
d="M90 0v700h56v-700h-56zM185 777v65h56v-65h-56zM-5 777v65h56v-65h-56z" />
    <glyph glyph-name="Eth" unicode="&#xd0;" horiz-adv-x="742" 
d="M124 0v331h-109v41h109v328h190q179 0 274 -90.5t95 -252.5q0 -171 -93 -264t-276 -93h-190zM180 49h137q153 0 231 81t78 227q0 138 -80 216t-229 78h-137v-279h229v-41h-229v-282z" />
    <glyph glyph-name="Ntilde" unicode="&#xd1;" horiz-adv-x="718" 
d="M221 764q-6 47 15 74t57 27q32 0 71.5 -35t58.5 -35t29.5 16t7.5 43h38q5 -47 -16 -74t-57 -27q-25 0 -48.5 17.5t-44 34.5t-37.5 17q-19 0 -30 -15.5t-7 -42.5h-37zM90 0v700h62l421 -619v619h55v-700h-63l-420 618v-618h-55z" />
    <glyph glyph-name="Ograve" unicode="&#xd2;" horiz-adv-x="808" 
d="M391 755l-111 91l45 34l111 -125h-45zM60 355q0 159 99 258t245 99t245 -99t99 -258q0 -167 -97.5 -267t-246.5 -100t-246.5 100t-97.5 267zM118 355q0 -145 81.5 -231t204.5 -86t204.5 86t81.5 231q0 137 -82.5 222t-203.5 85t-203.5 -85t-82.5 -222z" />
    <glyph glyph-name="Oacute" unicode="&#xd3;" horiz-adv-x="808" 
d="M373 755l111 125l45 -34l-112 -91h-44zM60 355q0 159 99 258t245 99t245 -99t99 -258q0 -167 -97.5 -267t-246.5 -100t-246.5 100t-97.5 267zM118 355q0 -145 81.5 -231t204.5 -86t204.5 86t81.5 231q0 137 -82.5 222t-203.5 85t-203.5 -85t-82.5 -222z" />
    <glyph glyph-name="Ocircumflex" unicode="&#xd4;" horiz-adv-x="808" 
d="M60 355q0 159 99 258t245 99t245 -99t99 -258q0 -167 -97.5 -267t-246.5 -100t-246.5 100t-97.5 267zM118 355q0 -145 81.5 -231t204.5 -86t204.5 86t81.5 231q0 137 -82.5 222t-203.5 85t-203.5 -85t-82.5 -222zM246 755l128 108h60l128 -108h-41l-116 73h-1l-117 -73
h-41z" />
    <glyph glyph-name="Otilde" unicode="&#xd5;" horiz-adv-x="808" 
d="M266 764q-6 47 15 74t57 27q32 0 71.5 -35t58.5 -35t29.5 16t7.5 43h38q5 -47 -16 -74t-57 -27q-32 0 -71 34.5t-59 34.5q-19 0 -30 -15.5t-7 -42.5h-37zM60 355q0 159 99 258t245 99t245 -99t99 -258q0 -167 -97.5 -267t-246.5 -100t-246.5 100t-97.5 267zM118 355
q0 -145 81.5 -231t204.5 -86t204.5 86t81.5 231q0 137 -82.5 222t-203.5 85t-203.5 -85t-82.5 -222z" />
    <glyph glyph-name="Odieresis" unicode="&#xd6;" horiz-adv-x="808" 
d="M471 777v65h56v-65h-56zM281 777v65h56v-65h-56zM60 355q0 159 99 258t245 99t245 -99t99 -258q0 -167 -97.5 -267t-246.5 -100t-246.5 100t-97.5 267zM118 355q0 -145 81.5 -231t204.5 -86t204.5 86t81.5 231q0 137 -82.5 222t-203.5 85t-203.5 -85t-82.5 -222z" />
    <glyph glyph-name="multiply" unicode="&#xd7;" horiz-adv-x="578" 
d="M71 61l183 195l-183 195l36 35l181 -194l183 194l36 -35l-183 -195l183 -195l-36 -34l-183 193l-181 -193z" />
    <glyph glyph-name="Oslash" unicode="&#xd8;" horiz-adv-x="808" 
d="M60 355q0 159 99 258t245 99q113 0 201 -62l65 86l32 -25l-66 -86q112 -101 112 -270q0 -167 -97.5 -267t-246.5 -100q-116 0 -201 61l-64 -85l-32 24l65 85q-112 102 -112 282zM690 355q0 140 -88 228l-368 -491q73 -54 170 -54q123 0 204.5 86t81.5 231zM118 355
q0 -150 88 -238l367 490q-72 55 -169 55q-121 0 -203.5 -85t-82.5 -222z" />
    <glyph glyph-name="Ugrave" unicode="&#xd9;" horiz-adv-x="712" 
d="M342 755l-111 91l45 34l111 -125h-45zM87 256v444h57v-444q0 -103 60 -160.5t152 -57.5t152.5 57.5t60.5 160.5v444h57v-444q0 -129 -75.5 -198.5t-194.5 -69.5q-118 0 -193.5 69.5t-75.5 198.5z" />
    <glyph glyph-name="Uacute" unicode="&#xda;" horiz-adv-x="712" 
d="M325 755l111 125l45 -34l-112 -91h-44zM87 256v444h57v-444q0 -103 60 -160.5t152 -57.5t152.5 57.5t60.5 160.5v444h57v-444q0 -129 -75.5 -198.5t-194.5 -69.5q-118 0 -193.5 69.5t-75.5 198.5z" />
    <glyph glyph-name="Ucircumflex" unicode="&#xdb;" horiz-adv-x="712" 
d="M87 256v444h57v-444q0 -103 60 -160.5t152 -57.5t152.5 57.5t60.5 160.5v444h57v-444q0 -129 -75.5 -198.5t-194.5 -69.5q-118 0 -193.5 69.5t-75.5 198.5zM198 755l128 108h60l128 -108h-41l-116 73h-1l-117 -73h-41z" />
    <glyph glyph-name="Udieresis" unicode="&#xdc;" horiz-adv-x="712" 
d="M423 777v65h56v-65h-56zM233 777v65h56v-65h-56zM87 256v444h57v-444q0 -103 60 -160.5t152 -57.5t152.5 57.5t60.5 160.5v444h57v-444q0 -129 -75.5 -198.5t-194.5 -69.5q-118 0 -193.5 69.5t-75.5 198.5z" />
    <glyph glyph-name="Yacute" unicode="&#xdd;" horiz-adv-x="651" 
d="M297 0v287l-263 413h67l224 -360h2l223 360h67l-263 -413v-287h-57zM294 755l111 125l45 -34l-112 -91h-44z" />
    <glyph glyph-name="Thorn" unicode="&#xde;" horiz-adv-x="653" 
d="M90 0v700h56v-137h209q123 0 182 -59.5t59 -149.5t-59.5 -150.5t-182.5 -60.5h-208v-143h-56zM146 191h208q93 0 139 47t46 116t-46 114.5t-138 45.5h-209v-323z" />
    <glyph glyph-name="germandbls" unicode="&#xdf;" horiz-adv-x="626" 
d="M87 0v552q0 98 60 153.5t156 55.5q97 0 159 -53t62 -144q0 -62 -37.5 -109t-106.5 -63v-1q91 -11 142 -64.5t51 -129.5q0 -95 -65 -151.5t-164 -56.5q-60 0 -105 14l11 48q39 -13 89 -13q77 0 127.5 43.5t50.5 117.5t-55 119.5t-150 45.5h-43v48h33q82 0 124 44t42 106
q0 73 -45.5 113.5t-119.5 40.5q-73 0 -117 -43t-44 -121v-552h-55z" />
    <glyph glyph-name="agrave" unicode="&#xe0;" horiz-adv-x="514" 
d="M52 113q0 158 315 171v91q0 45 -28.5 73t-85.5 28q-71 0 -161 -46l-23 45q94 48 185 48q85 0 127 -40.5t42 -108.5v-274q0 -59 54 -59v-42q-86 0 -104 69q-68 -80 -175 -80q-66 0 -106 34t-40 91zM107 116q0 -38 27.5 -61t73.5 -23q51 0 93.5 22t65.5 56v136
q-260 -11 -260 -130zM259 566l-141 137l41 32l139 -169h-39z" />
    <glyph glyph-name="aacute" unicode="&#xe1;" horiz-adv-x="514" 
d="M52 113q0 158 315 171v91q0 45 -28.5 73t-85.5 28q-71 0 -161 -46l-23 45q94 48 185 48q85 0 127 -40.5t42 -108.5v-274q0 -59 54 -59v-42q-86 0 -104 69q-68 -80 -175 -80q-66 0 -106 34t-40 91zM107 116q0 -38 27.5 -61t73.5 -23q51 0 93.5 22t65.5 56v136
q-260 -11 -260 -130zM230 566l139 169l41 -32l-141 -137h-39z" />
    <glyph glyph-name="acircumflex" unicode="&#xe2;" horiz-adv-x="514" 
d="M52 113q0 158 315 171v91q0 45 -28.5 73t-85.5 28q-71 0 -161 -46l-23 45q94 48 185 48q85 0 127 -40.5t42 -108.5v-274q0 -59 54 -59v-42q-86 0 -104 69q-68 -80 -175 -80q-66 0 -106 34t-40 91zM107 116q0 -38 27.5 -61t73.5 -23q51 0 93.5 22t65.5 56v136
q-260 -11 -260 -130zM107 566l126 157h62l126 -157h-42l-114 120h-2l-115 -120h-41z" />
    <glyph glyph-name="atilde" unicode="&#xe3;" horiz-adv-x="514" 
d="M52 113q0 158 315 171v91q0 45 -28.5 73t-85.5 28q-71 0 -161 -46l-23 45q94 48 185 48q85 0 127 -40.5t42 -108.5v-274q0 -59 54 -59v-42q-86 0 -104 69q-68 -80 -175 -80q-66 0 -106 34t-40 91zM107 116q0 -38 27.5 -61t73.5 -23q51 0 93.5 22t65.5 56v136
q-260 -11 -260 -130zM126 599q-5 47 15.5 74t57.5 27q31 0 70.5 -34.5t58.5 -34.5t29.5 15.5t7.5 43.5h37q6 -47 -14.5 -74.5t-57.5 -27.5q-31 0 -70.5 34.5t-58.5 34.5q-20 0 -30.5 -15.5t-6.5 -42.5h-38z" />
    <glyph glyph-name="adieresis" unicode="&#xe4;" horiz-adv-x="514" 
d="M52 113q0 158 315 171v91q0 45 -28.5 73t-85.5 28q-71 0 -161 -46l-23 45q94 48 185 48q85 0 127 -40.5t42 -108.5v-274q0 -59 54 -59v-42q-86 0 -104 69q-68 -80 -175 -80q-66 0 -106 34t-40 91zM107 116q0 -38 27.5 -61t73.5 -23q51 0 93.5 22t65.5 56v136
q-260 -11 -260 -130zM327 612v65h56v-65h-56zM146 612v65h56v-65h-56z" />
    <glyph glyph-name="aring" unicode="&#xe5;" horiz-adv-x="514" 
d="M52 113q0 158 315 171v91q0 45 -28.5 73t-85.5 28q-71 0 -161 -46l-23 45q94 48 185 48q85 0 127 -40.5t42 -108.5v-274q0 -59 54 -59v-42q-86 0 -104 69q-68 -80 -175 -80q-66 0 -106 34t-40 91zM107 116q0 -38 27.5 -61t73.5 -23q51 0 93.5 22t65.5 56v136
q-260 -11 -260 -130zM264 563q-41 0 -69.5 28t-28.5 68t28.5 68t69.5 28q40 0 68.5 -28t28.5 -68t-28.5 -68t-68.5 -28zM264 590q28 0 48 20t20 49t-19.5 49t-48.5 20t-49 -20t-20 -49t20.5 -49t48.5 -20z" />
    <glyph glyph-name="ae" unicode="&#xe6;" horiz-adv-x="868" 
d="M404 99q-29 -47 -83 -79t-122 -32q-66 0 -106.5 34t-40.5 90q0 47 27 81t75.5 52t100 26.5t113.5 11.5v92q0 45 -28.5 73t-85.5 28q-74 0 -162 -46l-23 45q96 48 185 48q138 0 155 -116q30 55 81 85.5t116 30.5q101 0 151.5 -61t50.5 -162q0 -7 -3 -37h-382
q0 -114 48.5 -171t137.5 -57q82 0 153 49l27 -39q-79 -57 -182 -57q-144 0 -203 111zM426 304h328q2 77 -34 126t-113 49q-72 0 -121.5 -47t-59.5 -128zM107 116q0 -38 28 -61t73 -23q57 0 106 29t70 79q-16 50 -16 105q-261 -9 -261 -129z" />
    <glyph glyph-name="ccedilla" unicode="&#xe7;" horiz-adv-x="508" 
d="M132 -191q101 82 122 182q-90 12 -143.5 84t-53.5 187q0 119 65.5 190t169.5 71q91 0 158 -50l-30 -40q-57 42 -127 42q-80 0 -130 -58t-50 -155q0 -105 49 -166t131 -61q75 0 136 51l33 -36q-73 -62 -169 -62q-20 -116 -115 -202z" />
    <glyph glyph-name="egrave" unicode="&#xe8;" horiz-adv-x="559" 
d="M58 262q0 118 67 189.5t171 71.5q101 0 151.5 -61t50.5 -162q0 -17 -2 -37h-383v-2q0 -108 47 -167t139 -59q83 0 154 49l27 -39q-81 -57 -183 -57q-116 0 -177.5 72t-61.5 202zM297 479q-72 0 -121.5 -47t-59.5 -128h328q2 77 -34 126t-113 49zM288 566l-141 137l41 32
l139 -169h-39z" />
    <glyph glyph-name="eacute" unicode="&#xe9;" horiz-adv-x="559" 
d="M58 262q0 118 67 189.5t171 71.5q101 0 151.5 -61t50.5 -162q0 -17 -2 -37h-383v-2q0 -108 47 -167t139 -59q83 0 154 49l27 -39q-81 -57 -183 -57q-116 0 -177.5 72t-61.5 202zM297 479q-72 0 -121.5 -47t-59.5 -128h328q2 77 -34 126t-113 49zM259 566l139 169l41 -32
l-141 -137h-39z" />
    <glyph glyph-name="ecircumflex" unicode="&#xea;" horiz-adv-x="559" 
d="M58 262q0 118 67 189.5t171 71.5q101 0 151.5 -61t50.5 -162q0 -17 -2 -37h-383v-2q0 -108 47 -167t139 -59q83 0 154 49l27 -39q-81 -57 -183 -57q-116 0 -177.5 72t-61.5 202zM297 479q-72 0 -121.5 -47t-59.5 -128h328q2 77 -34 126t-113 49zM137 566l126 157h62
l126 -157h-42l-114 120h-2l-115 -120h-41z" />
    <glyph glyph-name="edieresis" unicode="&#xeb;" horiz-adv-x="559" 
d="M58 262q0 118 67 189.5t171 71.5q101 0 151.5 -61t50.5 -162q0 -17 -2 -37h-383v-2q0 -108 47 -167t139 -59q83 0 154 49l27 -39q-81 -57 -183 -57q-116 0 -177.5 72t-61.5 202zM297 479q-72 0 -121.5 -47t-59.5 -128h328q2 77 -34 126t-113 49zM176 612v65h56v-65h-56z
M357 612v65h56v-65h-56z" />
    <glyph glyph-name="igrave" unicode="&#xec;" 
d="M88 0v509h55v-509h-55zM110 566l-141 137l41 32l139 -169h-39z" />
    <glyph glyph-name="iacute" unicode="&#xed;" 
d="M82 566l139 169l41 -32l-141 -137h-39zM88 0v509h55v-509h-55z" />
    <glyph glyph-name="icircumflex" unicode="&#xee;" 
d="M-41 566l126 157h62l126 -157h-42l-114 120h-2l-115 -120h-41zM88 0v509h55v-509h-55z" />
    <glyph glyph-name="idieresis" unicode="&#xef;" 
d="M179 612v65h56v-65h-56zM-2 612v65h56v-65h-56zM88 0v509h55v-509h-55z" />
    <glyph glyph-name="eth" unicode="&#xf0;" horiz-adv-x="578" 
d="M197 554l-18 35q60 29 98 51q-52 54 -121 115h69q48 -42 96 -92l96 51l18 -35q-50 -25 -87 -45q172 -190 172 -383q0 -123 -63 -193t-168 -70q-106 0 -168.5 66t-62.5 175q0 101 58.5 163.5t154.5 62.5q100 0 173 -68q-41 116 -140 224zM465 249q0 33 -9 83
q-73 79 -177 79q-76 0 -120.5 -49.5t-44.5 -132.5q0 -89 47.5 -142t127.5 -53t128 57.5t48 157.5z" />
    <glyph glyph-name="ntilde" unicode="&#xf1;" horiz-adv-x="566" 
d="M84 0v511h50l5 -76q83 88 187 88q159 0 159 -171v-352h-56v353q0 124 -113 124q-102 0 -177 -93v-384h-55zM146 599q-5 47 15.5 74t57.5 27q31 0 70.5 -34.5t58.5 -34.5t29.5 15.5t7.5 43.5h37q6 -47 -14.5 -74.5t-57.5 -27.5q-31 0 -70.5 34.5t-58.5 34.5
q-20 0 -30.5 -15.5t-6.5 -42.5h-38z" />
    <glyph glyph-name="ograve" unicode="&#xf2;" horiz-adv-x="594" 
d="M291 566l-141 137l41 32l139 -169h-39zM58 262q0 117 67.5 189t172.5 72t172 -72t67 -189q0 -125 -66 -199.5t-173 -74.5q-109 0 -174.5 74.5t-65.5 199.5zM114 262q0 -104 50 -166.5t134 -62.5q83 0 132.5 62.5t49.5 166.5q0 97 -51 156t-131 59q-81 0 -132.5 -59
t-51.5 -156z" />
    <glyph glyph-name="oacute" unicode="&#xf3;" horiz-adv-x="594" 
d="M263 566l139 169l41 -32l-141 -137h-39zM58 262q0 117 67.5 189t172.5 72t172 -72t67 -189q0 -125 -66 -199.5t-173 -74.5q-109 0 -174.5 74.5t-65.5 199.5zM114 262q0 -104 50 -166.5t134 -62.5q83 0 132.5 62.5t49.5 166.5q0 97 -51 156t-131 59q-81 0 -132.5 -59
t-51.5 -156z" />
    <glyph glyph-name="ocircumflex" unicode="&#xf4;" horiz-adv-x="594" 
d="M140 566l126 157h62l126 -157h-42l-114 120h-2l-115 -120h-41zM58 262q0 117 67.5 189t172.5 72t172 -72t67 -189q0 -125 -66 -199.5t-173 -74.5q-109 0 -174.5 74.5t-65.5 199.5zM114 262q0 -104 50 -166.5t134 -62.5q83 0 132.5 62.5t49.5 166.5q0 97 -51 156t-131 59
q-81 0 -132.5 -59t-51.5 -156z" />
    <glyph glyph-name="otilde" unicode="&#xf5;" horiz-adv-x="594" 
d="M58 262q0 117 67.5 189t172.5 72t172 -72t67 -189q0 -125 -66 -199.5t-173 -74.5q-109 0 -174.5 74.5t-65.5 199.5zM114 262q0 -104 50 -166.5t134 -62.5q83 0 132.5 62.5t49.5 166.5q0 97 -51 156t-131 59q-81 0 -132.5 -59t-51.5 -156zM159 599q-5 47 15.5 74t57.5 27
q31 0 70.5 -34.5t58.5 -34.5t29.5 15.5t7.5 43.5h37q6 -47 -14.5 -74.5t-57.5 -27.5q-31 0 -70.5 34.5t-58.5 34.5q-20 0 -30.5 -15.5t-6.5 -42.5h-38z" />
    <glyph glyph-name="odieresis" unicode="&#xf6;" horiz-adv-x="594" 
d="M360 612v65h56v-65h-56zM179 612v65h56v-65h-56zM58 262q0 117 67.5 189t172.5 72t172 -72t67 -189q0 -125 -66 -199.5t-173 -74.5q-109 0 -174.5 74.5t-65.5 199.5zM114 262q0 -104 50 -166.5t134 -62.5q83 0 132.5 62.5t49.5 166.5q0 97 -51 156t-131 59
q-81 0 -132.5 -59t-51.5 -156z" />
    <glyph glyph-name="divide" unicode="&#xf7;" horiz-adv-x="613" 
d="M279 396v91h54v-91h-54zM279 25v90h54v-90h-54zM51 231v50h511v-50h-511z" />
    <glyph glyph-name="oslash" unicode="&#xf8;" horiz-adv-x="594" 
d="M58 262q0 117 67.5 189t172.5 72q80 0 141 -45l63 85l32 -25l-66 -85q69 -74 69 -191q0 -125 -66 -199.5t-173 -74.5q-85 0 -145 46l-66 -87l-32 24l69 91q-66 74 -66 200zM480 262q0 90 -46 149l-252 -335q48 -43 116 -43q83 0 132.5 62.5t49.5 166.5zM114 262
q0 -96 44 -159l251 334q-46 40 -111 40q-81 0 -132.5 -59t-51.5 -156z" />
    <glyph glyph-name="ugrave" unicode="&#xf9;" horiz-adv-x="567" 
d="M82 159v352h55v-353q0 -125 113 -125q101 0 178 93v385h55v-511h-48l-7 75q-83 -87 -187 -87q-159 0 -159 171zM275 566l-141 137l41 32l139 -169h-39z" />
    <glyph glyph-name="uacute" unicode="&#xfa;" horiz-adv-x="567" 
d="M250 566l139 169l41 -32l-141 -137h-39zM82 159v352h55v-353q0 -125 113 -125q101 0 178 93v385h55v-511h-48l-7 75q-83 -87 -187 -87q-159 0 -159 171z" />
    <glyph glyph-name="ucircumflex" unicode="&#xfb;" horiz-adv-x="567" 
d="M126 566l126 157h62l126 -157h-42l-114 120h-2l-115 -120h-41zM82 159v352h55v-353q0 -125 113 -125q101 0 178 93v385h55v-511h-48l-7 75q-83 -87 -187 -87q-159 0 -159 171z" />
    <glyph glyph-name="udieresis" unicode="&#xfc;" horiz-adv-x="567" 
d="M346 612v65h56v-65h-56zM165 612v65h56v-65h-56zM82 159v352h55v-353q0 -125 113 -125q101 0 178 93v385h55v-511h-48l-7 75q-83 -87 -187 -87q-159 0 -159 171z" />
    <glyph glyph-name="yacute" unicode="&#xfd;" horiz-adv-x="487" 
d="M36 -150q32 -13 56 -13q32 0 53 15t35 53l38 99l-192 507h59l160 -435h2l156 435h58l-227 -613q-22 -60 -56.5 -84t-84.5 -24q-38 0 -73 14zM211 566l139 169l41 -32l-141 -137h-39z" />
    <glyph glyph-name="thorn" unicode="&#xfe;" horiz-adv-x="580" 
d="M143 72v-272h-55v955h55v-316q79 84 169 84q95 0 152.5 -70t57.5 -190q0 -128 -55.5 -201.5t-153.5 -73.5q-94 0 -170 84zM143 120q72 -87 160 -87q78 0 121 62t43 168q0 99 -44.5 156.5t-120.5 57.5q-83 0 -159 -86v-271z" />
    <glyph glyph-name="ydieresis" unicode="&#xff;" horiz-adv-x="487" 
d="M36 -150q32 -13 56 -13q32 0 53 15t35 53l38 99l-192 507h59l160 -435h2l156 435h58l-227 -613q-22 -60 -56.5 -84t-84.5 -24q-38 0 -73 14zM308 612v65h56v-65h-56zM127 612v65h56v-65h-56z" />
    <glyph glyph-name="Amacron" unicode="&#x100;" horiz-adv-x="678" 
d="M35 0l269 700h71l268 -700h-62l-71 189h-343l-70 -189h-62zM338 646l-153 -410h308l-153 410h-2zM198 788v42h282v-42h-282z" />
    <glyph glyph-name="amacron" unicode="&#x101;" horiz-adv-x="514" 
d="M52 113q0 158 315 171v91q0 45 -28.5 73t-85.5 28q-71 0 -161 -46l-23 45q94 48 185 48q85 0 127 -40.5t42 -108.5v-274q0 -59 54 -59v-42q-86 0 -104 69q-68 -80 -175 -80q-66 0 -106 34t-40 91zM107 116q0 -38 27.5 -61t73.5 -23q51 0 93.5 22t65.5 56v136
q-260 -11 -260 -130zM123 623v42h281v-42h-281z" />
    <glyph glyph-name="Abreve" unicode="&#x102;" horiz-adv-x="678" 
d="M35 0l269 700h71l268 -700h-62l-71 189h-343l-70 -189h-62zM338 646l-153 -410h308l-153 410h-2zM339 750q-65 0 -107 30t-56 83h43q12 -33 43 -52.5t77 -19.5t77 19.5t43 52.5h42q-13 -52 -55.5 -82.5t-106.5 -30.5z" />
    <glyph glyph-name="abreve" unicode="&#x103;" horiz-adv-x="514" 
d="M52 113q0 158 315 171v91q0 45 -28.5 73t-85.5 28q-71 0 -161 -46l-23 45q94 48 185 48q85 0 127 -40.5t42 -108.5v-274q0 -59 54 -59v-42q-86 0 -104 69q-68 -80 -175 -80q-66 0 -106 34t-40 91zM107 116q0 -38 27.5 -61t73.5 -23q51 0 93.5 22t65.5 56v136
q-260 -11 -260 -130zM264 563q-65 0 -107 43t-48 117h40q7 -54 37.5 -85.5t77.5 -31.5t78 32t36 85h41q-6 -74 -48 -117t-107 -43z" />
    <glyph glyph-name="Aogonek" unicode="&#x104;" horiz-adv-x="678" 
d="M666 -149v-44q-28 -13 -64 -13q-40 0 -67 22.5t-27 62.5q0 71 80 121h-7l-71 189h-343l-70 -189h-62l269 700h71l268 -700q-90 -47 -90 -111q0 -24 16 -37.5t39 -13.5q30 0 56 14zM338 646l-153 -410h308l-153 410h-2z" />
    <glyph glyph-name="aogonek" unicode="&#x105;" horiz-adv-x="514" 
d="M500 -150v-43q-28 -13 -63 -13q-41 0 -68 22.5t-27 62.5q0 74 89 126q-46 15 -58 63q-68 -80 -175 -80q-66 0 -106 34t-40 91q0 158 315 171v91q0 45 -28.5 73t-85.5 28q-71 0 -161 -46l-23 45q94 48 185 48q85 0 127 -40.5t42 -108.5v-274q0 -59 54 -59v-41
q-90 -48 -90 -112q0 -24 16 -37t39 -13q30 0 56 14zM107 116q0 -38 27.5 -61t73.5 -23q51 0 93.5 22t65.5 56v136q-260 -11 -260 -130z" />
    <glyph glyph-name="Cacute" unicode="&#x106;" horiz-adv-x="712" 
d="M60 359q0 157 96.5 255t251.5 98q130 0 223 -70l-31 -43q-83 63 -191 63q-131 0 -211.5 -83.5t-80.5 -219.5q0 -145 80 -233t212 -88q122 0 202 75l36 -38q-93 -87 -240 -87q-156 0 -251.5 102t-95.5 269zM350 755l111 125l45 -34l-112 -91h-44z" />
    <glyph glyph-name="cacute" unicode="&#x107;" horiz-adv-x="508" 
d="M243 566l139 169l41 -32l-141 -137h-39zM57 262q0 119 65.5 190t169.5 71q91 0 158 -50l-30 -40q-57 42 -127 42q-80 0 -130 -58t-50 -155q0 -105 49 -166t131 -61q75 0 136 51l33 -36q-73 -62 -170 -62q-106 0 -170.5 74t-64.5 200z" />
    <glyph glyph-name="Ccircumflex" unicode="&#x108;" horiz-adv-x="712" 
d="M60 359q0 157 96.5 255t251.5 98q130 0 223 -70l-31 -43q-83 63 -191 63q-131 0 -211.5 -83.5t-80.5 -219.5q0 -145 80 -233t212 -88q122 0 202 75l36 -38q-93 -87 -240 -87q-156 0 -251.5 102t-95.5 269zM223 755l128 108h60l128 -108h-41l-116 73h-1l-117 -73h-41z" />
    <glyph glyph-name="ccircumflex" unicode="&#x109;" horiz-adv-x="508" 
d="M120 566l126 157h62l126 -157h-42l-114 120h-2l-115 -120h-41zM57 262q0 119 65.5 190t169.5 71q91 0 158 -50l-30 -40q-57 42 -127 42q-80 0 -130 -58t-50 -155q0 -105 49 -166t131 -61q75 0 136 51l33 -36q-73 -62 -170 -62q-106 0 -170.5 74t-64.5 200z" />
    <glyph glyph-name="Cdotaccent" unicode="&#x10a;" horiz-adv-x="712" 
d="M351 777v65h59v-65h-59zM60 359q0 157 96.5 255t251.5 98q130 0 223 -70l-31 -43q-83 63 -191 63q-131 0 -211.5 -83.5t-80.5 -219.5q0 -145 80 -233t212 -88q122 0 202 75l36 -38q-93 -87 -240 -87q-156 0 -251.5 102t-95.5 269z" />
    <glyph glyph-name="cdotaccent" unicode="&#x10b;" horiz-adv-x="508" 
d="M57 262q0 119 65.5 190t169.5 71q91 0 158 -50l-30 -40q-57 42 -127 42q-80 0 -130 -58t-50 -155q0 -105 49 -166t131 -61q75 0 136 51l33 -36q-73 -62 -170 -62q-106 0 -170.5 74t-64.5 200zM248 612v65h58v-65h-58z" />
    <glyph glyph-name="Ccaron" unicode="&#x10c;" horiz-adv-x="712" 
d="M60 359q0 157 96.5 255t251.5 98q130 0 223 -70l-31 -43q-83 63 -191 63q-131 0 -211.5 -83.5t-80.5 -219.5q0 -145 80 -233t212 -88q122 0 202 75l36 -38q-93 -87 -240 -87q-156 0 -251.5 102t-95.5 269zM351 755l-128 108h41l117 -72h1l116 72h41l-128 -108h-60z" />
    <glyph glyph-name="ccaron" unicode="&#x10d;" horiz-adv-x="508" 
d="M246 566l-126 157h41l115 -120h2l114 120h42l-126 -157h-62zM57 262q0 119 65.5 190t169.5 71q91 0 158 -50l-30 -40q-57 42 -127 42q-80 0 -130 -58t-50 -155q0 -105 49 -166t131 -61q75 0 136 51l33 -36q-73 -62 -170 -62q-106 0 -170.5 74t-64.5 200z" />
    <glyph glyph-name="Dcaron" unicode="&#x10e;" horiz-adv-x="708" 
d="M339 755l-128 108h41l117 -72h1l116 72h41l-128 -108h-60zM90 0v700h190q179 0 274 -90.5t95 -252.5q0 -171 -93 -264t-276 -93h-190zM146 49h137q153 0 231 81t78 227q0 138 -80 216t-229 78h-137v-602z" />
    <glyph glyph-name="dcaron" unicode="&#x10f;" horiz-adv-x="579" 
d="M565 681v36q18 4 34 4q37 0 56 -18t19 -48q1 -46 -55 -95h-41q51 51 51 88q0 36 -39 36q-5 0 -13.5 -1.5t-11.5 -1.5zM267 -12q-98 0 -153.5 73.5t-55.5 201.5q0 121 57 190.5t153 69.5q90 0 169 -83v315h55v-755h-46l-7 73q-78 -85 -172 -85zM277 34q87 0 160 86v271
q-77 86 -159 86q-76 0 -120.5 -57.5t-44.5 -156.5q0 -106 43 -167.5t121 -61.5z" />
    <glyph glyph-name="Dcroat" unicode="&#x110;" horiz-adv-x="742" 
d="M124 0v331h-109v41h109v328h190q179 0 274 -90.5t95 -252.5q0 -171 -93 -264t-276 -93h-190zM180 49h137q153 0 231 81t78 227q0 138 -80 216t-229 78h-137v-279h229v-41h-229v-282z" />
    <glyph glyph-name="dcroat" unicode="&#x111;" horiz-adv-x="579" 
d="M267 -12q-98 0 -153.5 73.5t-55.5 201.5q0 121 57 190.5t153 69.5q90 0 169 -83v180h-59v41h59v94h55v-94h21v-41h-21v-620h-46l-7 73q-78 -85 -172 -85zM277 34q87 0 160 86v271q-77 86 -159 86q-76 0 -120.5 -57.5t-44.5 -156.5q0 -106 43 -167.5t121 -61.5z" />
    <glyph glyph-name="Emacron" unicode="&#x112;" horiz-adv-x="634" 
d="M186 788v42h282v-42h-282zM90 0v700h467v-51h-411v-268h371v-48h-371v-282h417v-51h-473z" />
    <glyph glyph-name="emacron" unicode="&#x113;" horiz-adv-x="559" 
d="M58 262q0 118 67 189.5t171 71.5q101 0 151.5 -61t50.5 -162q0 -17 -2 -37h-383v-2q0 -108 47 -167t139 -59q83 0 154 49l27 -39q-81 -57 -183 -57q-116 0 -177.5 72t-61.5 202zM297 479q-72 0 -121.5 -47t-59.5 -128h328q2 77 -34 126t-113 49zM153 623v42h281v-42h-281
z" />
    <glyph glyph-name="Ebreve" unicode="&#x114;" horiz-adv-x="634" 
d="M327 750q-65 0 -107 30t-56 83h43q12 -33 43 -52.5t77 -19.5t77 19.5t43 52.5h42q-13 -52 -55.5 -82.5t-106.5 -30.5zM90 0v700h467v-51h-411v-268h371v-48h-371v-282h417v-51h-473z" />
    <glyph glyph-name="ebreve" unicode="&#x115;" horiz-adv-x="559" 
d="M58 262q0 118 67 189.5t171 71.5q101 0 151.5 -61t50.5 -162q0 -17 -2 -37h-383v-2q0 -108 47 -167t139 -59q83 0 154 49l27 -39q-81 -57 -183 -57q-116 0 -177.5 72t-61.5 202zM297 479q-72 0 -121.5 -47t-59.5 -128h328q2 77 -34 126t-113 49zM294 563q-65 0 -107 43
t-48 117h40q7 -54 37.5 -85.5t77.5 -31.5t78 32t36 85h41q-6 -74 -48 -117t-107 -43z" />
    <glyph glyph-name="Edotaccent" unicode="&#x116;" horiz-adv-x="634" 
d="M297 777v65h59v-65h-59zM90 0v700h467v-51h-411v-268h371v-48h-371v-282h417v-51h-473z" />
    <glyph glyph-name="edotaccent" unicode="&#x117;" horiz-adv-x="559" 
d="M58 262q0 118 67 189.5t171 71.5q101 0 151.5 -61t50.5 -162q0 -17 -2 -37h-383v-2q0 -108 47 -167t139 -59q83 0 154 49l27 -39q-81 -57 -183 -57q-116 0 -177.5 72t-61.5 202zM297 479q-72 0 -121.5 -47t-59.5 -128h328q2 77 -34 126t-113 49zM265 612v65h58v-65h-58z
" />
    <glyph glyph-name="Eogonek" unicode="&#x118;" horiz-adv-x="634" 
d="M90 0v700h467v-51h-411v-268h371v-48h-371v-282h417v-49l1 -2q-90 -47 -90 -111q0 -24 16 -37.5t39 -13.5q30 0 56 14l2 -1v-44q-28 -13 -64 -13q-40 0 -67 22.5t-27 62.5q0 71 80 121h-419z" />
    <glyph glyph-name="eogonek" unicode="&#x119;" horiz-adv-x="559" 
d="M58 262q0 118 67 189.5t171 71.5q101 0 151.5 -61t50.5 -162q0 -17 -2 -37h-382v-9q1 -105 47.5 -162t137.5 -57q83 0 154 49l27 -39l-36 -22q-26 -14 -44.5 -25.5t-38 -28.5t-29.5 -36.5t-10 -42.5q0 -25 16 -38.5t42 -13.5q32 0 56 14l3 -2v-43q-29 -13 -64 -13
q-44 0 -71 23t-27 63q0 60 65 113q-23 -5 -45 -5q-116 0 -177.5 72t-61.5 202zM297 479q-72 0 -121.5 -47.5t-59.5 -127.5h328q2 77 -34 126t-113 49z" />
    <glyph glyph-name="Ecaron" unicode="&#x11a;" horiz-adv-x="634" 
d="M296 755l-128 108h41l117 -72h1l116 72h41l-128 -108h-60zM90 0v700h467v-51h-411v-268h371v-48h-371v-282h417v-51h-473z" />
    <glyph glyph-name="ecaron" unicode="&#x11b;" horiz-adv-x="559" 
d="M58 262q0 118 67 189.5t171 71.5q101 0 151.5 -61t50.5 -162q0 -17 -2 -37h-383v-2q0 -108 47 -167t139 -59q83 0 154 49l27 -39q-81 -57 -183 -57q-116 0 -177.5 72t-61.5 202zM297 479q-72 0 -121.5 -47t-59.5 -128h328q2 77 -34 126t-113 49zM263 566l-126 157h41
l115 -120h2l114 120h42l-126 -157h-62z" />
    <glyph glyph-name="Gcircumflex" unicode="&#x11c;" horiz-adv-x="724" 
d="M60 359q0 157 96 255t252 98q129 0 225 -61l-29 -42q-84 53 -195 53q-130 0 -210.5 -84t-80.5 -219q0 -148 78 -234.5t213 -86.5q111 0 183 46v228h-211v45h264v-302q-101 -67 -237 -67q-160 0 -254 100.5t-94 270.5zM223 755l128 108h60l128 -108h-41l-116 73h-1
l-117 -73h-41z" />
    <glyph glyph-name="gcircumflex" unicode="&#x11d;" horiz-adv-x="564" 
d="M39 -76q0 74 94 113q-44 26 -44 73q0 46 46 74q-82 54 -82 153q0 80 59 133t147 53q78 0 134 -42q61 46 142 43v-45q-74 1 -117 -20q49 -51 49 -122q0 -82 -61 -135t-147 -53q-48 0 -92 19q-33 -20 -33 -50q0 -20 11 -32.5t37 -19t49 -9t67 -4.5q225 -13 225 -128
q0 -65 -63 -100t-184 -35q-114 0 -175.5 35t-61.5 99zM259 191q66 0 110 41.5t44 104.5q0 61 -44.5 102t-109.5 41t-108.5 -41t-43.5 -102q0 -63 43.5 -104.5t108.5 -41.5zM286 7q-64 2 -106 13q-39 -12 -63.5 -36.5t-24.5 -58.5q0 -44 47.5 -68.5t134.5 -24.5q196 0 196 89
q0 43 -48 62.5t-136 23.5zM131 566l126 157h62l126 -157h-42l-114 120h-2l-115 -120h-41z" />
    <glyph glyph-name="Gbreve" unicode="&#x11e;" horiz-adv-x="724" 
d="M381 750q-65 0 -107 30t-56 83h43q12 -33 43 -52.5t77 -19.5t77 19.5t43 52.5h42q-13 -52 -55.5 -82.5t-106.5 -30.5zM60 359q0 157 96 255t252 98q129 0 225 -61l-29 -42q-84 53 -195 53q-130 0 -210.5 -84t-80.5 -219q0 -148 78 -234.5t213 -86.5q111 0 183 46v228
h-211v45h264v-302q-101 -67 -237 -67q-160 0 -254 100.5t-94 270.5z" />
    <glyph glyph-name="gbreve" unicode="&#x11f;" horiz-adv-x="564" 
d="M39 -76q0 74 94 113q-44 26 -44 73q0 46 46 74q-82 54 -82 153q0 80 59 133t147 53q78 0 134 -42q61 46 142 43v-45q-74 1 -117 -20q49 -51 49 -122q0 -82 -61 -135t-147 -53q-48 0 -92 19q-33 -20 -33 -50q0 -20 11 -32.5t37 -19t49 -9t67 -4.5q225 -13 225 -128
q0 -65 -63 -100t-184 -35q-114 0 -175.5 35t-61.5 99zM259 191q66 0 110 41.5t44 104.5q0 61 -44.5 102t-109.5 41t-108.5 -41t-43.5 -102q0 -63 43.5 -104.5t108.5 -41.5zM286 7q-64 2 -106 13q-39 -12 -63.5 -36.5t-24.5 -58.5q0 -44 47.5 -68.5t134.5 -24.5q196 0 196 89
q0 43 -48 62.5t-136 23.5zM288 563q-65 0 -107 43t-48 117h40q7 -54 37.5 -85.5t77.5 -31.5t78 32t36 85h41q-6 -74 -48 -117t-107 -43z" />
    <glyph glyph-name="Gdotaccent" unicode="&#x120;" horiz-adv-x="724" 
d="M351 777v65h59v-65h-59zM60 359q0 157 96 255t252 98q129 0 225 -61l-29 -42q-84 53 -195 53q-130 0 -210.5 -84t-80.5 -219q0 -148 78 -234.5t213 -86.5q111 0 183 46v228h-211v45h264v-302q-101 -67 -237 -67q-160 0 -254 100.5t-94 270.5z" />
    <glyph glyph-name="gdotaccent" unicode="&#x121;" horiz-adv-x="564" 
d="M39 -76q0 74 94 113q-44 26 -44 73q0 46 46 74q-82 54 -82 153q0 80 59 133t147 53q78 0 134 -42q61 46 142 43v-45q-74 1 -117 -20q49 -51 49 -122q0 -82 -61 -135t-147 -53q-48 0 -92 19q-33 -20 -33 -50q0 -20 11 -32.5t37 -19t49 -9t67 -4.5q225 -13 225 -128
q0 -65 -63 -100t-184 -35q-114 0 -175.5 35t-61.5 99zM259 191q66 0 110 41.5t44 104.5q0 61 -44.5 102t-109.5 41t-108.5 -41t-43.5 -102q0 -63 43.5 -104.5t108.5 -41.5zM286 7q-64 2 -106 13q-39 -12 -63.5 -36.5t-24.5 -58.5q0 -44 47.5 -68.5t134.5 -24.5q196 0 196 89
q0 43 -48 62.5t-136 23.5zM257 612v65h58v-65h-58z" />
    <glyph glyph-name="Gcommaaccent" unicode="&#x122;" horiz-adv-x="724" 
d="M60 359q0 157 96 255t252 98q129 0 225 -61l-29 -42q-84 53 -195 53q-130 0 -210.5 -84t-80.5 -219q0 -148 78 -234.5t213 -86.5q111 0 183 46v228h-211v45h264v-302q-101 -67 -237 -67q-160 0 -254 100.5t-94 270.5zM326 -55q18 4 35 4q36 0 55 -18t19 -48
q1 -46 -55 -95h-41q51 49 51 87q0 37 -39 36q-7 0 -25 -2v36z" />
    <glyph glyph-name="gcommaaccent" unicode="&#x123;" horiz-adv-x="564" 
d="M331 604v-36q-18 -4 -34 -4q-37 0 -56 18t-19 48q-1 46 55 95h41q-51 -51 -51 -88q0 -36 39 -36q5 0 13.5 1.5t11.5 1.5zM39 -76q0 74 94 113q-44 26 -44 73q0 46 46 74q-82 54 -82 153q0 80 59 133t147 53q78 0 134 -42q61 46 142 43v-45q-74 1 -117 -20q49 -51 49 -122
q0 -82 -61 -135t-147 -53q-48 0 -92 19q-33 -20 -33 -50q0 -20 11 -32.5t37 -19t49 -9t67 -4.5q225 -13 225 -128q0 -65 -63 -100t-184 -35q-114 0 -175.5 35t-61.5 99zM259 191q66 0 110 41.5t44 104.5q0 61 -44.5 102t-109.5 41t-108.5 -41t-43.5 -102q0 -63 43.5 -104.5
t108.5 -41.5zM286 7q-64 2 -106 13q-39 -12 -63.5 -36.5t-24.5 -58.5q0 -44 47.5 -68.5t134.5 -24.5q196 0 196 89q0 43 -48 62.5t-136 23.5z" />
    <glyph glyph-name="Hcircumflex" unicode="&#x124;" horiz-adv-x="697" 
d="M90 0v700h56v-318h405v318h57v-700h-57v331h-405v-331h-56zM190 755l128 108h60l128 -108h-41l-116 73h-1l-117 -73h-41z" />
    <glyph glyph-name="hcircumflex" unicode="&#x125;" horiz-adv-x="570" 
d="M88 0v755h55v-321q82 89 186 89q159 0 159 -171v-352h-55v353q0 124 -113 124q-99 0 -177 -91v-386h-55zM-43 797l128 108h60l128 -108h-41l-116 73h-1l-117 -73h-41z" />
    <glyph glyph-name="Hbar" unicode="&#x126;" horiz-adv-x="697" 
d="M90 0v700h56v-137h405v137h57v-700h-57v331h-405v-331h-56zM146 382h405v141h-405v-141z" />
    <glyph glyph-name="hbar" unicode="&#x127;" horiz-adv-x="572" 
d="M15 620v41h75v94h55v-94h138v-41h-138v-186q82 89 186 89q159 0 159 -171v-352h-55v353q0 124 -113 124q-99 0 -177 -91v-386h-55v620h-75z" />
    <glyph glyph-name="Itilde" unicode="&#x128;" horiz-adv-x="235" 
d="M90 0v700h56v-700h-56zM-20 764q-6 47 15 74t57 27q32 0 71.5 -35t58.5 -35t29.5 16t7.5 43h38q5 -47 -16 -74t-57 -27q-32 0 -71 34.5t-59 34.5q-19 0 -30 -15.5t-7 -42.5h-37z" />
    <glyph glyph-name="itilde" unicode="&#x129;" 
d="M88 0v509h55v-509h-55zM-23 599q-5 47 15.5 74t57.5 27q31 0 70.5 -34.5t58.5 -34.5t29.5 15.5t7.5 43.5h37q6 -47 -14.5 -74.5t-57.5 -27.5q-31 0 -70.5 34.5t-58.5 34.5q-20 0 -30.5 -15.5t-6.5 -42.5h-38z" />
    <glyph glyph-name="Imacron" unicode="&#x12a;" horiz-adv-x="235" 
d="M90 0v700h56v-700h-56zM-23 788v42h282v-42h-282z" />
    <glyph glyph-name="imacron" unicode="&#x12b;" 
d="M88 0v509h55v-509h-55zM-25 623v42h281v-42h-281z" />
    <glyph glyph-name="Ibreve" unicode="&#x12c;" horiz-adv-x="235" 
d="M90 0v700h56v-700h-56zM118 750q-65 0 -107 30t-56 83h43q12 -33 43 -52.5t77 -19.5t77 19.5t43 52.5h42q-13 -52 -55.5 -82.5t-106.5 -30.5z" />
    <glyph glyph-name="ibreve" unicode="&#x12d;" 
d="M88 0v509h55v-509h-55zM116 563q-65 0 -107 43t-48 117h40q7 -54 37.5 -85.5t77.5 -31.5t78 32t36 85h41q-6 -74 -48 -117t-107 -43z" />
    <glyph glyph-name="Iogonek" unicode="&#x12e;" horiz-adv-x="235" 
d="M90 0v700h56v-700q-90 -47 -90 -111q0 -24 16 -37.5t39 -13.5q30 0 56 14l2 -1v-44q-28 -13 -64 -13q-40 0 -67 22.5t-27 62.5q0 71 80 121h-1z" />
    <glyph glyph-name="iogonek" unicode="&#x12f;" 
d="M166 -149v-44q-28 -13 -64 -13q-40 0 -67 22.5t-27 62.5q0 71 80 121v509h55v-509q-90 -47 -90 -111q0 -24 16 -37.5t39 -13.5q30 0 56 14zM88 658v81h55v-81h-55z" />
    <glyph glyph-name="Idotaccent" unicode="&#x130;" horiz-adv-x="235" 
d="M90 0v700h56v-700h-56zM88 777v65h59v-65h-59z" />
    <glyph glyph-name="dotlessi" unicode="&#x131;" 
d="M88 0v509h55v-509h-55z" />
    <glyph glyph-name="Jcircumflex" unicode="&#x134;" horiz-adv-x="566" 
d="M54 135l48 23q18 -51 57.5 -85t101.5 -34q81 0 121.5 51t40.5 138v472h57v-472q0 -112 -55 -176t-162 -64q-80 0 -132.5 41.5t-76.5 105.5zM294 755l128 108h60l128 -108h-41l-116 73h-1l-117 -73h-41z" />
    <glyph glyph-name="jcircumflex" unicode="&#x135;" horiz-adv-x="239" 
d="M96 -34v543h55v-541q0 -178 -144 -178q-21 0 -51 7l11 45q18 -5 35 -5q94 0 94 129zM-33 566l126 157h62l126 -157h-42l-114 120h-2l-115 -120h-41z" />
    <glyph glyph-name="Kcommaaccent" unicode="&#x136;" horiz-adv-x="663" 
d="M90 0v700h56v-423l373 423h69l-230 -260l258 -440h-68l-227 398l-175 -197v-201h-56zM267 -55q18 4 35 4q36 0 55 -18t19 -48q1 -46 -55 -95h-41q51 49 51 87q0 37 -39 36q-7 0 -25 -2v36z" />
    <glyph glyph-name="kcommaaccent" unicode="&#x137;" horiz-adv-x="515" 
d="M88 0v755h55v-526l254 282h65l-154 -167l182 -344h-63l-155 304l-129 -141v-163h-55zM232 -55q20 4 34 4q74 0 76 -66q0 -46 -56 -95h-40q51 49 51 87q0 37 -40 36q-5 0 -25 -2v36z" />
    <glyph glyph-name="kgreenlandic" unicode="&#x138;" horiz-adv-x="515" 
d="M88 0v511h55v-282l254 282h65l-154 -167l182 -344h-63l-155 304l-129 -141v-163h-55z" />
    <glyph glyph-name="Lacute" unicode="&#x139;" horiz-adv-x="604" 
d="M87 755l111 125l45 -34l-112 -91h-44zM90 0v700h56v-649h410v-51h-466z" />
    <glyph glyph-name="lacute" unicode="&#x13a;" 
d="M84 797l111 125l45 -34l-112 -91h-44zM88 0v755h55v-755h-55z" />
    <glyph glyph-name="Lcommaaccent" unicode="&#x13b;" horiz-adv-x="604" 
d="M90 0v700h56v-649h410v-51h-466zM267 -55q18 4 35 4q36 0 55 -18t19 -48q1 -46 -55 -95h-41q51 49 51 87q0 37 -39 36q-7 0 -25 -2v36z" />
    <glyph glyph-name="lcommaaccent" unicode="&#x13c;" 
d="M87 -55q20 4 34 4q74 0 76 -66q0 -46 -56 -95h-40q51 49 51 87q0 37 -40 36q-5 0 -25 -2v36zM88 0v755h55v-755h-55z" />
    <glyph glyph-name="Lcaron" unicode="&#x13d;" horiz-adv-x="604" 
d="M90 0v700h56v-649h410v-51h-466zM233 699q18 4 35 4q36 0 55 -18t19 -48q1 -46 -55 -95h-41q51 49 51 87q0 37 -39 36q-7 0 -25 -2v36z" />
    <glyph glyph-name="lcaron" unicode="&#x13e;" 
d="M217 681v36q18 4 34 4q37 0 56 -18t19 -48q1 -46 -55 -95h-41q51 51 51 88q0 36 -39 36q-5 0 -13.5 -1.5t-11.5 -1.5zM88 0v755h55v-755h-55z" />
    <glyph glyph-name="Ldot" unicode="&#x13f;" horiz-adv-x="604" 
d="M90 0v700h56v-649h410v-51h-466zM498 330v65h59v-65h-59z" />
    <glyph glyph-name="ldot" unicode="&#x140;" 
d="M88 0v755h55v-755h-55zM208 317v65h58v-65h-58z" />
    <glyph glyph-name="Lslash" unicode="&#x141;" horiz-adv-x="633" 
d="M14 226v47l106 65v362h56v-328l200 123v-49l-200 -122v-273h410v-51h-466v290z" />
    <glyph glyph-name="lslash" unicode="&#x142;" horiz-adv-x="249" 
d="M7 285v48l90 53v369h55v-337l89 55v-48l-89 -54v-371h-55v339z" />
    <glyph glyph-name="Nacute" unicode="&#x143;" horiz-adv-x="718" 
d="M328 755l111 125l45 -34l-112 -91h-44zM90 0v700h62l421 -619v619h55v-700h-63l-420 618v-618h-55z" />
    <glyph glyph-name="nacute" unicode="&#x144;" horiz-adv-x="566" 
d="M250 566l139 169l41 -32l-141 -137h-39zM84 0v511h50l5 -76q83 88 187 88q159 0 159 -171v-352h-56v353q0 124 -113 124q-102 0 -177 -93v-384h-55z" />
    <glyph glyph-name="Ncommaaccent" unicode="&#x145;" horiz-adv-x="718" 
d="M303 -55q18 4 35 4q36 0 55 -18t19 -48q1 -46 -55 -95h-41q51 49 51 87q0 37 -39 36q-7 0 -25 -2v36zM90 0v700h62l421 -619v619h55v-700h-63l-420 618v-618h-55z" />
    <glyph glyph-name="ncommaaccent" unicode="&#x146;" horiz-adv-x="566" 
d="M229 -55q20 4 34 4q74 0 76 -66q0 -46 -56 -95h-40q51 49 51 87q0 37 -40 36q-5 0 -25 -2v36zM84 0v511h50l5 -76q83 88 187 88q159 0 159 -171v-352h-56v353q0 124 -113 124q-102 0 -177 -93v-384h-55z" />
    <glyph glyph-name="Ncaron" unicode="&#x147;" horiz-adv-x="718" 
d="M328 755l-128 108h41l117 -72h1l116 72h41l-128 -108h-60zM90 0v700h62l421 -619v619h55v-700h-63l-420 618v-618h-55z" />
    <glyph glyph-name="ncaron" unicode="&#x148;" horiz-adv-x="566" 
d="M253 566l-126 157h41l115 -120h2l114 120h42l-126 -157h-62zM84 0v511h50l5 -76q83 88 187 88q159 0 159 -171v-352h-56v353q0 124 -113 124q-102 0 -177 -93v-384h-55z" />
    <glyph glyph-name="Eng" unicode="&#x14a;" horiz-adv-x="718" 
d="M90 0v700h62l421 -607v607h55v-732q0 -178 -144 -178q-24 0 -50 7l10 46q17 -5 36 -5q94 0 94 128v35l-429 617v-618h-55z" />
    <glyph glyph-name="eng" unicode="&#x14b;" horiz-adv-x="566" 
d="M84 0v511h50l5 -76q83 88 187 88q159 0 159 -171v-384q0 -178 -145 -178q-20 0 -50 7l10 45q20 -5 36 -5q93 0 93 129v387q0 124 -113 124q-102 0 -177 -93v-384h-55z" />
    <glyph glyph-name="Omacron" unicode="&#x14c;" horiz-adv-x="808" 
d="M263 788v42h282v-42h-282zM60 355q0 159 99 258t245 99t245 -99t99 -258q0 -167 -97.5 -267t-246.5 -100t-246.5 100t-97.5 267zM118 355q0 -145 81.5 -231t204.5 -86t204.5 86t81.5 231q0 137 -82.5 222t-203.5 85t-203.5 -85t-82.5 -222z" />
    <glyph glyph-name="omacron" unicode="&#x14d;" horiz-adv-x="594" 
d="M156 623v42h281v-42h-281zM58 262q0 117 67.5 189t172.5 72t172 -72t67 -189q0 -125 -66 -199.5t-173 -74.5q-109 0 -174.5 74.5t-65.5 199.5zM114 262q0 -104 50 -166.5t134 -62.5q83 0 132.5 62.5t49.5 166.5q0 97 -51 156t-131 59q-81 0 -132.5 -59t-51.5 -156z" />
    <glyph glyph-name="Obreve" unicode="&#x14e;" horiz-adv-x="808" 
d="M404 750q-65 0 -107 30t-56 83h43q12 -33 43 -52.5t77 -19.5t77 19.5t43 52.5h42q-13 -52 -55.5 -82.5t-106.5 -30.5zM60 355q0 159 99 258t245 99t245 -99t99 -258q0 -167 -97.5 -267t-246.5 -100t-246.5 100t-97.5 267zM118 355q0 -145 81.5 -231t204.5 -86t204.5 86
t81.5 231q0 137 -82.5 222t-203.5 85t-203.5 -85t-82.5 -222z" />
    <glyph glyph-name="obreve" unicode="&#x14f;" horiz-adv-x="594" 
d="M58 262q0 117 67.5 189t172.5 72t172 -72t67 -189q0 -125 -66 -199.5t-173 -74.5q-109 0 -174.5 74.5t-65.5 199.5zM114 262q0 -104 50 -166.5t134 -62.5q83 0 132.5 62.5t49.5 166.5q0 97 -51 156t-131 59q-81 0 -132.5 -59t-51.5 -156zM297 563q-65 0 -107 43t-48 117
h40q7 -54 37.5 -85.5t77.5 -31.5t78 32t36 85h41q-6 -74 -48 -117t-107 -43z" />
    <glyph glyph-name="Ohungarumlaut" unicode="&#x150;" horiz-adv-x="808" 
d="M60 355q0 159 99 258t245 99t245 -99t99 -258q0 -167 -97.5 -267t-246.5 -100t-246.5 100t-97.5 267zM118 355q0 -145 81.5 -231t204.5 -86t204.5 86t81.5 231q0 137 -82.5 222t-203.5 85t-203.5 -85t-82.5 -222zM303 755l109 125l44 -34l-110 -91h-43zM442 755l109 125
l44 -34l-110 -91h-43z" />
    <glyph glyph-name="ohungarumlaut" unicode="&#x151;" horiz-adv-x="594" 
d="M199 566l135 169l42 -30l-139 -139h-38zM340 566l135 169l41 -30l-138 -139h-38zM58 262q0 117 67.5 189t172.5 72t172 -72t67 -189q0 -125 -66 -199.5t-173 -74.5q-109 0 -174.5 74.5t-65.5 199.5zM114 262q0 -104 50 -166.5t134 -62.5q83 0 132.5 62.5t49.5 166.5
q0 97 -51 156t-131 59q-81 0 -132.5 -59t-51.5 -156z" />
    <glyph glyph-name="OE" unicode="&#x152;" horiz-adv-x="1232" 
d="M60 357q0 154 98.5 254.5t242.5 100.5q96 0 173 -51.5t114 -139.5v179h467v-51h-411v-268h371v-49h-371v-281h418v-51h-474v180q-36 -90 -112.5 -141t-174.5 -51q-147 0 -244 102.5t-97 266.5zM117 357q0 -142 81 -230.5t205 -88.5q123 0 204 88.5t81 230.5
q0 132 -83 218.5t-202 86.5q-121 0 -203.5 -86.5t-82.5 -218.5z" />
    <glyph glyph-name="oe" unicode="&#x153;" horiz-adv-x="982" 
d="M58 262q0 117 67.5 189t172.5 72q77 0 132.5 -42t77.5 -116q22 74 78 116t133 42q101 0 152 -61t51 -162q0 -7 -3 -37h-382q0 -111 47 -169.5t139 -58.5q82 0 153 49l27 -39q-79 -57 -182 -57q-170 0 -214 160q-22 -75 -76.5 -117.5t-132.5 -42.5q-109 0 -174.5 74.5
t-65.5 199.5zM114 262q0 -104 50 -166.5t134 -62.5q83 0 133 62.5t50 166.5q0 97 -51 156t-132 59t-132.5 -59t-51.5 -156zM539 304h328q2 77 -34 126t-113 49q-72 0 -121.5 -47.5t-59.5 -127.5z" />
    <glyph glyph-name="Racute" unicode="&#x154;" horiz-adv-x="673" 
d="M90 0v700h284q118 0 174.5 -59t56.5 -144q0 -68 -40.5 -124t-118.5 -74l156 -299h-63l-147 292h-246v-292h-56zM146 339h226q89 0 132.5 46.5t43.5 110.5q0 65 -42.5 110t-131.5 45h-228v-312zM297 755l111 125l45 -34l-112 -91h-44z" />
    <glyph glyph-name="racute" unicode="&#x155;" horiz-adv-x="385" 
d="M189 566l139 169l41 -32l-141 -137h-39zM84 0v511h49l6 -89q59 101 161 101q36 0 62 -8l-11 -53q-29 9 -57 9q-93 0 -155 -107v-364h-55z" />
    <glyph glyph-name="Rcommaaccent" unicode="&#x156;" horiz-adv-x="673" 
d="M90 0v700h284q118 0 174.5 -59t56.5 -144q0 -68 -40.5 -124t-118.5 -74l156 -299h-63l-147 292h-17h-229v-292h-56zM146 339h226q89 0 132.5 46.5t43.5 110.5q0 65 -42.5 110t-131.5 45h-228v-312zM272 -55q18 4 35 4q36 0 55 -18t19 -48q1 -46 -55 -95h-41q51 49 51 87
q0 37 -39 36q-7 0 -25 -2v36z" />
    <glyph glyph-name="rcommaaccent" unicode="&#x157;" horiz-adv-x="385" 
d="M83 -55q20 4 34 4q74 0 76 -66q0 -46 -56 -95h-40q51 49 51 87q0 37 -40 36q-5 0 -25 -2v36zM84 0v511h49l6 -89q59 101 161 101q36 0 62 -8l-11 -53q-29 9 -57 9q-93 0 -155 -107v-364h-55z" />
    <glyph glyph-name="Rcaron" unicode="&#x158;" horiz-adv-x="673" 
d="M90 0v700h284q118 0 174.5 -59t56.5 -144q0 -68 -40.5 -124t-118.5 -74l156 -299h-63l-147 292h-17h-229v-292h-56zM146 339h226q89 0 132.5 46.5t43.5 110.5q0 65 -42.5 110t-131.5 45h-228v-312zM298 755l-128 108h41l117 -72h1l116 72h41l-128 -108h-60z" />
    <glyph glyph-name="rcaron" unicode="&#x159;" horiz-adv-x="385" 
d="M192 566l-126 157h41l115 -120h2l114 120h42l-126 -157h-62zM84 0v511h49l6 -89q59 101 161 101q36 0 62 -8l-11 -53q-29 9 -57 9q-93 0 -155 -107v-364h-55z" />
    <glyph glyph-name="Sacute" unicode="&#x15a;" horiz-adv-x="607" 
d="M57 58l29 45q94 -64 220 -64q91 0 138 38t47 100q0 44 -23.5 73t-60.5 44t-82 26t-90.5 24t-82.5 32.5t-60.5 57.5t-23.5 93q0 80 62.5 132.5t169.5 52.5q120 0 222 -50l-23 -48q-94 47 -197 47q-81 0 -128 -37.5t-47 -95.5q0 -44 23.5 -73.5t60.5 -44t82 -25.5t90.5 -24
t82.5 -32t60.5 -57.5t23.5 -94.5q0 -84 -62.5 -136.5t-181.5 -52.5q-73 0 -139 20t-110 50zM273 755l111 125l45 -34l-112 -91h-44z" />
    <glyph glyph-name="sacute" unicode="&#x15b;" horiz-adv-x="455" 
d="M193 566l139 169l41 -32l-141 -137h-39zM42 37l26 42q68 -45 160 -45q63 0 96 25t33 69q0 35 -23 57.5t-57 31.5t-74 20.5t-74 24t-57 43t-23 76.5q0 64 48.5 103t127.5 39q86 0 165 -38l-22 -43q-70 35 -143 35q-55 0 -88 -26t-33 -68q0 -35 23 -57t57 -30.5t74 -20
t74 -24t57 -43.5t23 -78q0 -66 -48 -104t-136 -38q-106 0 -186 49z" />
    <glyph glyph-name="Scircumflex" unicode="&#x15c;" horiz-adv-x="607" 
d="M57 58l29 45q94 -64 220 -64q91 0 138 38t47 100q0 44 -23.5 73t-60.5 44t-82 26t-90.5 24t-82.5 32.5t-60.5 57.5t-23.5 93q0 80 62.5 132.5t169.5 52.5q120 0 222 -50l-23 -48q-94 47 -197 47q-81 0 -128 -37.5t-47 -95.5q0 -44 23.5 -73.5t60.5 -44t82 -25.5t90.5 -24
t82.5 -32t60.5 -57.5t23.5 -94.5q0 -84 -62.5 -136.5t-181.5 -52.5q-73 0 -139 20t-110 50zM146 755l128 108h60l128 -108h-41l-116 73h-1l-117 -73h-41z" />
    <glyph glyph-name="scircumflex" unicode="&#x15d;" horiz-adv-x="455" 
d="M72 566l126 157h62l126 -157h-42l-114 120h-2l-115 -120h-41zM42 37l26 42q68 -45 160 -45q63 0 96 25t33 69q0 35 -23 57.5t-57 31.5t-74 20.5t-74 24t-57 43t-23 76.5q0 64 48.5 103t127.5 39q86 0 165 -38l-22 -43q-70 35 -143 35q-55 0 -88 -26t-33 -68q0 -35 23 -57
t57 -30.5t74 -20t74 -24t57 -43.5t23 -78q0 -66 -48 -104t-136 -38q-106 0 -186 49z" />
    <glyph glyph-name="Scedilla" unicode="&#x15e;" horiz-adv-x="607" 
d="M159 -191q100 83 122 180q-135 7 -224 69l29 45q94 -64 220 -64q91 0 138 38t47 100q0 44 -23.5 73t-60.5 44t-82 26t-90.5 24t-82.5 32.5t-60.5 57.5t-23.5 93q0 80 62.5 132.5t169.5 52.5q120 0 222 -50l-23 -48q-94 47 -197 47q-81 0 -128 -37.5t-47 -95.5
q0 -44 23.5 -73.5t60.5 -44t82 -25.5t90.5 -24t82.5 -32t60.5 -57.5t23.5 -94.5q0 -81 -59 -133t-171 -56q-20 -116 -115 -202z" />
    <glyph glyph-name="scedilla" unicode="&#x15f;" horiz-adv-x="455" 
d="M82 -191q100 83 122 180q-93 6 -162 48l26 42q68 -45 160 -45q63 0 96 25t33 69q0 35 -23 57.5t-57 31.5t-74 20.5t-74 24t-57 43t-23 76.5q0 64 48.5 103t127.5 39q86 0 165 -38l-22 -43q-70 35 -143 35q-55 0 -88 -26t-33 -68q0 -35 23 -57t57 -30.5t74 -20t74 -24
t57 -43.5t23 -78q0 -63 -44 -100.5t-125 -40.5q-20 -119 -115 -203z" />
    <glyph glyph-name="Scaron" unicode="&#x160;" horiz-adv-x="607" 
d="M57 58l29 45q94 -64 220 -64q91 0 138 38t47 100q0 44 -23.5 73t-60.5 44t-82 26t-90.5 24t-82.5 32.5t-60.5 57.5t-23.5 93q0 80 62.5 132.5t169.5 52.5q120 0 222 -50l-23 -48q-94 47 -197 47q-81 0 -128 -37.5t-47 -95.5q0 -44 23.5 -73.5t60.5 -44t82 -25.5t90.5 -24
t82.5 -32t60.5 -57.5t23.5 -94.5q0 -84 -62.5 -136.5t-181.5 -52.5q-73 0 -139 20t-110 50zM274 755l-128 108h41l117 -72h1l116 72h41l-128 -108h-60z" />
    <glyph glyph-name="scaron" unicode="&#x161;" horiz-adv-x="455" 
d="M198 566l-126 157h41l115 -120h2l114 120h42l-126 -157h-62zM42 37l26 42q68 -45 160 -45q63 0 96 25t33 69q0 35 -23 57.5t-57 31.5t-74 20.5t-74 24t-57 43t-23 76.5q0 64 48.5 103t127.5 39q86 0 165 -38l-22 -43q-70 35 -143 35q-55 0 -88 -26t-33 -68q0 -35 23 -57
t57 -30.5t74 -20t74 -24t57 -43.5t23 -78q0 -66 -48 -104t-136 -38q-106 0 -186 49z" />
    <glyph glyph-name="Tcedilla" unicode="&#x162;" horiz-adv-x="644" 
d="M302 -49h41q-27 -93 -105 -165l-46 23q79 64 110 142zM294 0v649h-263v51h582v-51h-263v-649h-56z" />
    <glyph glyph-name="tcedilla" unicode="&#x163;" horiz-adv-x="370" 
d="M165 -49h41q-27 -93 -105 -165l-46 23q79 64 110 142zM119 130v336h-94v45h94v160h55v-160h150v-45h-150v-336q0 -96 80 -96q39 0 74 24l23 -38q-48 -32 -102 -32q-130 0 -130 142z" />
    <glyph glyph-name="Tcaron" unicode="&#x164;" horiz-adv-x="644" 
d="M292 755l-128 108h41l117 -72h1l116 72h41l-128 -108h-60zM294 0v649h-263v51h582v-51h-263v-649h-56z" />
    <glyph glyph-name="tcaron" unicode="&#x165;" horiz-adv-x="370" 
d="M260 682v36q18 4 34 4q37 0 56 -18t19 -48q1 -46 -55 -95h-41q51 51 51 88q0 36 -39 36q-5 0 -13.5 -1.5t-11.5 -1.5zM119 130v336h-94v45h94v160h55v-160h150v-45h-150v-336q0 -96 80 -96q39 0 74 24l23 -38q-48 -32 -102 -32q-130 0 -130 142z" />
    <glyph glyph-name="Tbar" unicode="&#x166;" horiz-adv-x="644" 
d="M121 331v41h173v277h-263v51h582v-51h-263v-277h173v-41h-173v-331h-56v331h-173z" />
    <glyph glyph-name="tbar" unicode="&#x167;" horiz-adv-x="370" 
d="M34 280v40h85v146h-94v45h94v160h55v-160h150v-45h-150v-146h138v-40h-138v-150q0 -96 80 -96q39 0 74 24l23 -38q-48 -32 -102 -32q-130 0 -130 142v150h-85z" />
    <glyph glyph-name="Utilde" unicode="&#x168;" horiz-adv-x="712" 
d="M218 764q-6 47 15 74t57 27q32 0 71.5 -35t58.5 -35t29.5 16t7.5 43h38q5 -47 -16 -74t-57 -27q-32 0 -71 34.5t-59 34.5q-19 0 -30 -15.5t-7 -42.5h-37zM87 256v444h57v-444q0 -103 60 -160.5t152 -57.5t152.5 57.5t60.5 160.5v444h57v-444q0 -129 -75.5 -198.5
t-194.5 -69.5q-118 0 -193.5 69.5t-75.5 198.5z" />
    <glyph glyph-name="utilde" unicode="&#x169;" horiz-adv-x="567" 
d="M82 159v352h55v-353q0 -125 113 -125q101 0 178 93v385h55v-511h-48l-7 75q-83 -87 -187 -87q-159 0 -159 171zM145 599q-5 47 15.5 74t57.5 27q31 0 70.5 -34.5t58.5 -34.5t29.5 15.5t7.5 43.5h37q6 -47 -14.5 -74.5t-57.5 -27.5q-31 0 -70.5 34.5t-58.5 34.5
q-20 0 -30.5 -15.5t-6.5 -42.5h-38z" />
    <glyph glyph-name="Umacron" unicode="&#x16a;" horiz-adv-x="712" 
d="M215 788v42h282v-42h-282zM87 256v444h57v-444q0 -103 60 -160.5t152 -57.5t152.5 57.5t60.5 160.5v444h57v-444q0 -129 -75.5 -198.5t-194.5 -69.5q-118 0 -193.5 69.5t-75.5 198.5z" />
    <glyph glyph-name="umacron" unicode="&#x16b;" horiz-adv-x="567" 
d="M82 159v352h55v-353q0 -125 113 -125q101 0 178 93v385h55v-511h-48l-7 75q-83 -87 -187 -87q-159 0 -159 171zM142 623v42h281v-42h-281z" />
    <glyph glyph-name="Ubreve" unicode="&#x16c;" horiz-adv-x="712" 
d="M356 750q-65 0 -107 30t-56 83h43q12 -33 43 -52.5t77 -19.5t77 19.5t43 52.5h42q-13 -52 -55.5 -82.5t-106.5 -30.5zM87 256v444h57v-444q0 -103 60 -160.5t152 -57.5t152.5 57.5t60.5 160.5v444h57v-444q0 -129 -75.5 -198.5t-194.5 -69.5q-118 0 -193.5 69.5
t-75.5 198.5z" />
    <glyph glyph-name="ubreve" unicode="&#x16d;" horiz-adv-x="567" 
d="M82 159v352h55v-353q0 -125 113 -125q101 0 178 93v385h55v-511h-48l-7 75q-83 -87 -187 -87q-159 0 -159 171zM283 563q-65 0 -107 43t-48 117h40q7 -54 37.5 -85.5t77.5 -31.5t78 32t36 85h41q-6 -74 -48 -117t-107 -43z" />
    <glyph glyph-name="Uring" unicode="&#x16e;" horiz-adv-x="712" 
d="M87 256v444h57v-444q0 -103 60 -160.5t152 -57.5t152.5 57.5t60.5 160.5v444h57v-444q0 -129 -75.5 -198.5t-194.5 -69.5q-118 0 -193.5 69.5t-75.5 198.5zM356 753q-41 0 -69.5 27.5t-28.5 68.5q0 40 28.5 68t69.5 28t69.5 -28t28.5 -68q0 -41 -28.5 -68.5t-69.5 -27.5z
M356 780q28 0 48 20t20 49t-20 48.5t-48 19.5t-48 -19.5t-20 -48.5t20 -49t48 -20z" />
    <glyph glyph-name="uring" unicode="&#x16f;" horiz-adv-x="567" 
d="M283 563q-41 0 -69.5 28t-28.5 68t28.5 68t69.5 28q40 0 68.5 -28t28.5 -68t-28.5 -68t-68.5 -28zM283 590q28 0 48 20t20 49t-19.5 49t-48.5 20t-49 -20t-20 -49t20 -49t49 -20zM82 159v352h55v-353q0 -125 113 -125q101 0 178 93v385h55v-511h-48l-7 75
q-83 -87 -187 -87q-159 0 -159 171z" />
    <glyph glyph-name="Uhungarumlaut" unicode="&#x170;" horiz-adv-x="712" 
d="M87 256v444h57v-444q0 -103 60 -160.5t152 -57.5t152.5 57.5t60.5 160.5v444h57v-444q0 -129 -75.5 -198.5t-194.5 -69.5q-118 0 -193.5 69.5t-75.5 198.5zM255 755l109 125l44 -34l-110 -91h-43zM394 755l109 125l44 -34l-110 -91h-43z" />
    <glyph glyph-name="uhungarumlaut" unicode="&#x171;" horiz-adv-x="567" 
d="M82 159v352h55v-353q0 -125 113 -125q101 0 178 93v385h55v-511h-48l-7 75q-83 -87 -187 -87q-159 0 -159 171zM184 566l135 169l42 -30l-139 -139h-38zM325 566l135 169l41 -30l-138 -139h-38z" />
    <glyph glyph-name="Uogonek" unicode="&#x172;" horiz-adv-x="712" 
d="M87 256v444h57v-444q0 -103 60 -160.5t152 -57.5t152.5 57.5t60.5 160.5v444h57v-444q0 -81 -32 -140t-88 -91q-29 -16 -45.5 -27.5t-37.5 -29t-31 -37t-10 -41.5q0 -24 16 -38t42 -14q30 0 56 14l2 -1v-44q-28 -13 -63 -13q-44 0 -71.5 23t-27.5 63q0 58 65 112
q-17 -4 -45 -4q-118 0 -193.5 69.5t-75.5 198.5z" />
    <glyph glyph-name="uogonek" unicode="&#x173;" horiz-adv-x="567" 
d="M82 159v352h55v-353q0 -125 113 -125q101 0 178 93v385h55v-511q-90 -47 -90 -111q0 -24 16 -37.5t39 -13.5q30 0 56 14l2 -1v-44q-28 -13 -64 -13q-40 0 -67 22.5t-27 62.5q0 73 86 125l-6 71q-83 -87 -187 -87q-159 0 -159 171z" />
    <glyph glyph-name="Wcircumflex" unicode="&#x174;" horiz-adv-x="1023" 
d="M260 0l-224 700h61l196 -627h2l187 627h60l187 -627h2l196 627h61l-225 -700h-65l-186 621h-2l-185 -621h-65zM353 755l128 108h60l128 -108h-41l-116 73h-1l-117 -73h-41z" />
    <glyph glyph-name="wcircumflex" unicode="&#x175;" horiz-adv-x="797" 
d="M242 566l126 157h62l126 -157h-42l-114 120h-2l-115 -120h-41zM201 0l-175 511h58l148 -445h2l138 445h53l139 -445h2l148 445h57l-175 -511h-60l-137 435h-2l-136 -435h-60z" />
    <glyph glyph-name="Ycircumflex" unicode="&#x176;" horiz-adv-x="651" 
d="M297 0v287l-263 413h67l224 -360h2l223 360h67l-263 -413v-287h-57zM167 755l128 108h60l128 -108h-41l-116 73h-1l-117 -73h-41z" />
    <glyph glyph-name="ycircumflex" unicode="&#x177;" horiz-adv-x="487" 
d="M36 -150q32 -13 56 -13q32 0 53 15t35 53l38 99l-192 507h59l160 -435h2l156 435h58l-227 -613q-22 -60 -56.5 -84t-84.5 -24q-38 0 -73 14zM88 566l126 157h62l126 -157h-42l-114 120h-2l-115 -120h-41z" />
    <glyph glyph-name="Ydieresis" unicode="&#x178;" horiz-adv-x="651" 
d="M297 0v287l-263 413h67l224 -360h2l223 360h67l-263 -413v-287h-57zM393 777v65h56v-65h-56zM203 777v65h56v-65h-56z" />
    <glyph glyph-name="Zacute" unicode="&#x179;" horiz-adv-x="644" 
d="M60 0v52l447 597h-446v51h514v-52l-445 -596h456v-52h-526zM282 755l111 125l45 -34l-112 -91h-44z" />
    <glyph glyph-name="zacute" unicode="&#x17a;" horiz-adv-x="490" 
d="M208 566l139 169l41 -32l-141 -137h-39zM54 0v42l311 422h-303v47h371v-43l-310 -422h321v-46h-390z" />
    <glyph glyph-name="Zdotaccent" unicode="&#x17b;" horiz-adv-x="644" 
d="M282 777v65h59v-65h-59zM60 0v52l447 597h-446v51h514v-52l-445 -596h456v-52h-526z" />
    <glyph glyph-name="zdotaccent" unicode="&#x17c;" horiz-adv-x="490" 
d="M54 0v42l311 422h-303v47h371v-43l-310 -422h321v-46h-390zM213 612v65h58v-65h-58z" />
    <glyph glyph-name="Zcaron" unicode="&#x17d;" horiz-adv-x="644" 
d="M285 755l-128 108h41l117 -72h1l116 72h41l-128 -108h-60zM60 0v52l447 597h-446v51h514v-52l-445 -596h456v-52h-526z" />
    <glyph glyph-name="zcaron" unicode="&#x17e;" horiz-adv-x="490" 
d="M214 566l-126 157h41l115 -120h2l114 120h42l-126 -157h-62zM54 0v42l311 422h-303v47h371v-43l-310 -422h321v-46h-390z" />
    <glyph glyph-name="Schwa" unicode="&#x18f;" horiz-adv-x="729" 
d="M70 357h545v2q0 138 -75.5 220.5t-202.5 82.5q-106 0 -193 -63l-31 42q98 71 224 71q153 0 244.5 -96t91.5 -257q0 -170 -88 -270.5t-238 -100.5q-134 0 -207.5 83t-73.5 224q0 34 4 62zM347 37q116 0 185.5 74.5t80.5 203.5h-491q-7 -128 53 -203t172 -75z" />
    <glyph glyph-name="florin" unicode="&#x192;" horiz-adv-x="363" 
d="M-23 -156q23 -7 48 -7q93 0 93 142v273h-95v44h95v59q0 99 51 146t139 47q36 0 66 -10l-14 -43q-26 7 -51 7q-135 0 -135 -147v-59h146v-44h-146v-273q0 -99 -35 -143.5t-110 -44.5q-36 0 -66 10z" />
    <glyph glyph-name="Khook" unicode="&#x198;" horiz-adv-x="663" 
d="M90 0v700h56v-429q86 31 164 195q58 123 124 175.5t152 60.5l2 -47q-67 -8 -123 -54.5t-108 -156.5l259 -444h-68l-220 387q-42 -77 -83.5 -112.5t-98.5 -54.5v-220h-56z" />
    <glyph glyph-name="khook" unicode="&#x199;" horiz-adv-x="515" 
d="M88 0v584q0 174 149 174v-47q-94 0 -94 -127v-355l254 282h65l-154 -167l182 -344h-63l-156 303l-128 -140v-163h-55z" />
    <glyph glyph-name="barredO" unicode="&#x19f;" horiz-adv-x="808" 
d="M60 355q0 159 99 258t245 99t245 -99t99 -258q0 -167 -97.5 -267t-246.5 -100t-246.5 100t-97.5 267zM404 662q-118 0 -200 -80.5t-86 -211.5h572q-5 131 -86.5 211.5t-199.5 80.5zM404 38q118 0 198 79t87 213h-571q7 -134 87.5 -213t198.5 -79z" />
    <glyph glyph-name="Ezh" unicode="&#x1b7;" horiz-adv-x="627" 
d="M137 295l344 352h-443v53h522v-49l-348 -352q56 10 91 10q135 0 211.5 -68.5t76.5 -187.5q0 -123 -92 -193t-231 -70q-121 0 -218 44l21 46q89 -42 196 -42q115 0 190.5 57.5t75.5 158.5q0 103 -66 157t-187 54q-57 0 -117 -12z" />
    <glyph glyph-name="Acaron" unicode="&#x1cd;" horiz-adv-x="678" 
d="M35 0l269 700h71l268 -700h-62l-71 189h-343l-70 -189h-62zM338 646l-153 -410h308l-153 410h-2zM309 755l-128 108h41l117 -72h1l116 72h41l-128 -108h-60z" />
    <glyph glyph-name="acaron" unicode="&#x1ce;" horiz-adv-x="514" 
d="M52 113q0 158 315 171v91q0 45 -28.5 73t-85.5 28q-71 0 -161 -46l-23 45q94 48 185 48q85 0 127 -40.5t42 -108.5v-274q0 -59 54 -59v-42q-86 0 -104 69q-68 -80 -175 -80q-66 0 -106 34t-40 91zM107 116q0 -38 27.5 -61t73.5 -23q51 0 93.5 22t65.5 56v136
q-260 -11 -260 -130zM233 566l-126 157h41l115 -120h2l114 120h42l-126 -157h-62z" />
    <glyph glyph-name="Icaron" unicode="&#x1cf;" horiz-adv-x="235" 
d="M90 0v700h56v-700h-56zM88 755l-128 108h41l117 -72h1l116 72h41l-128 -108h-60z" />
    <glyph glyph-name="icaron" unicode="&#x1d0;" 
d="M85 566l-126 157h41l115 -120h2l114 120h42l-126 -157h-62zM88 0v509h55v-509h-55z" />
    <glyph glyph-name="Ocaron" unicode="&#x1d1;" horiz-adv-x="808" 
d="M374 755l-128 108h41l117 -72h1l116 72h41l-128 -108h-60zM60 355q0 159 99 258t245 99t245 -99t99 -258q0 -167 -97.5 -267t-246.5 -100t-246.5 100t-97.5 267zM118 355q0 -145 81.5 -231t204.5 -86t204.5 86t81.5 231q0 137 -82.5 222t-203.5 85t-203.5 -85t-82.5 -222
z" />
    <glyph glyph-name="ocaron" unicode="&#x1d2;" horiz-adv-x="594" 
d="M266 566l-126 157h41l115 -120h2l114 120h42l-126 -157h-62zM58 262q0 117 67.5 189t172.5 72t172 -72t67 -189q0 -125 -66 -199.5t-173 -74.5q-109 0 -174.5 74.5t-65.5 199.5zM114 262q0 -104 50 -166.5t134 -62.5q83 0 132.5 62.5t49.5 166.5q0 97 -51 156t-131 59
q-81 0 -132.5 -59t-51.5 -156z" />
    <glyph glyph-name="Ucaron" unicode="&#x1d3;" horiz-adv-x="712" 
d="M326 755l-128 108h41l117 -72h1l116 72h41l-128 -108h-60zM87 256v444h57v-444q0 -103 60 -160.5t152 -57.5t152.5 57.5t60.5 160.5v444h57v-444q0 -129 -75.5 -198.5t-194.5 -69.5q-118 0 -193.5 69.5t-75.5 198.5z" />
    <glyph glyph-name="ucaron" unicode="&#x1d4;" horiz-adv-x="567" 
d="M252 566l-126 157h41l115 -120h2l114 120h42l-126 -157h-62zM82 159v352h55v-353q0 -125 113 -125q101 0 178 93v385h55v-511h-48l-7 75q-83 -87 -187 -87q-159 0 -159 171z" />
    <glyph glyph-name="Adieresismacron" unicode="&#x1de;" horiz-adv-x="678" 
d="M35 0l269 700h71l268 -700h-62l-71 189h-343l-70 -189h-62zM338 646l-153 -410h308l-153 410h-2zM406 763v65h56v-65h-56zM216 763v65h56v-65h-56zM198 883v42h282v-42h-282z" />
    <glyph glyph-name="adieresismacron" unicode="&#x1df;" horiz-adv-x="514" 
d="M52 113q0 158 315 171v91q0 45 -28.5 73t-85.5 28q-71 0 -161 -46l-23 45q94 48 185 48q85 0 127 -40.5t42 -108.5v-274q0 -59 54 -59v-42q-86 0 -104 69q-68 -80 -175 -80q-66 0 -106 34t-40 91zM107 116q0 -38 27.5 -61t73.5 -23q51 0 93.5 22t65.5 56v136
q-260 -11 -260 -130zM327 600v65h56v-65h-56zM146 600v65h56v-65h-56zM123 740v42h281v-42h-281z" />
    <glyph glyph-name="AEmacron" unicode="&#x1e2;" horiz-adv-x="1015" 
d="M33 0l322 700h583v-52h-487l79 -266h368v-50h-353l82 -280h318v-52h-364l-54 189h-345l-84 -189h-65zM388 648l-184 -411h309l-118 411h-7zM342 788v42h282v-42h-282z" />
    <glyph glyph-name="aemacron" unicode="&#x1e3;" horiz-adv-x="868" 
d="M404 99q-29 -47 -83 -79t-122 -32q-66 0 -106.5 34t-40.5 90q0 47 27 81t75.5 52t100 26.5t113.5 11.5v92q0 45 -28.5 73t-85.5 28q-74 0 -162 -46l-23 45q96 48 185 48q138 0 155 -116q30 55 81 85.5t116 30.5q101 0 151.5 -61t50.5 -162q0 -7 -3 -37h-382
q0 -114 48.5 -171t137.5 -57q82 0 153 49l27 -39q-79 -57 -182 -57q-144 0 -203 111zM426 304h328q2 77 -34 126t-113 49q-72 0 -121.5 -47t-59.5 -128zM107 116q0 -38 28 -61t73 -23q57 0 106 29t70 79q-16 50 -16 105q-261 -9 -261 -129zM288 623v42h281v-42h-281z" />
    <glyph glyph-name="Gstroke" unicode="&#x1e4;" horiz-adv-x="726" 
d="M493 179v41h99v92h-211v45h264v-137h91v-41h-91v-124q-101 -67 -237 -67q-160 0 -254 100.5t-94 270.5q0 157 96 255t252 98q129 0 225 -61l-29 -42q-84 53 -195 53q-130 0 -210.5 -84t-80.5 -219q0 -148 78 -234.5t213 -86.5q111 0 183 46v95h-99z" />
    <glyph glyph-name="gstroke" unicode="&#x1e5;" horiz-adv-x="558" 
d="M-14 -96v40h49q13 60 93 93q-44 26 -44 73q0 46 46 74q-82 54 -82 153q0 80 59 133t147 53q78 0 134 -42q61 46 142 43v-45q-74 1 -117 -20q49 -51 49 -122q0 -82 -61 -135t-147 -53q-48 0 -92 19q-33 -20 -33 -50q0 -20 11 -32.5t37 -19t49 -9t67 -4.5q207 -13 223 -109
h44v-40h-44q-10 -55 -72.5 -84.5t-172.5 -29.5q-104 0 -165 30t-71 84h-49zM254 191q66 0 110 41.5t44 104.5q0 61 -44.5 102t-109.5 41t-108.5 -41t-43.5 -102q0 -63 43.5 -104.5t108.5 -41.5zM463 -96h-373q22 -72 179 -72q175 0 194 72zM281 7q-64 2 -106 13
q-74 -23 -86 -76h372q-22 54 -180 63z" />
    <glyph glyph-name="Gcaron" unicode="&#x1e6;" horiz-adv-x="724" 
d="M351 755l-128 108h41l117 -72h1l116 72h41l-128 -108h-60zM60 359q0 157 96 255t252 98q129 0 225 -61l-29 -42q-84 53 -195 53q-130 0 -210.5 -84t-80.5 -219q0 -148 78 -234.5t213 -86.5q111 0 183 46v228h-211v45h264v-302q-101 -67 -237 -67q-160 0 -254 100.5
t-94 270.5z" />
    <glyph glyph-name="gcaron" unicode="&#x1e7;" horiz-adv-x="564" 
d="M257 566l-126 157h41l115 -120h2l114 120h42l-126 -157h-62zM39 -76q0 74 94 113q-44 26 -44 73q0 46 46 74q-82 54 -82 153q0 80 59 133t147 53q78 0 134 -42q61 46 142 43v-45q-74 1 -117 -20q49 -51 49 -122q0 -82 -61 -135t-147 -53q-48 0 -92 19q-33 -20 -33 -50
q0 -20 11 -32.5t37 -19t49 -9t67 -4.5q225 -13 225 -128q0 -65 -63 -100t-184 -35q-114 0 -175.5 35t-61.5 99zM259 191q66 0 110 41.5t44 104.5q0 61 -44.5 102t-109.5 41t-108.5 -41t-43.5 -102q0 -63 43.5 -104.5t108.5 -41.5zM286 7q-64 2 -106 13q-39 -12 -63.5 -36.5
t-24.5 -58.5q0 -44 47.5 -68.5t134.5 -24.5q196 0 196 89q0 43 -48 62.5t-136 23.5z" />
    <glyph glyph-name="Kcaron" unicode="&#x1e8;" horiz-adv-x="663" 
d="M90 0v700h56v-423l373 423h69l-230 -260l258 -440h-68l-227 398l-175 -197v-201h-56zM293 755l-128 108h41l117 -72h1l116 72h41l-128 -108h-60z" />
    <glyph glyph-name="kcaron" unicode="&#x1e9;" horiz-adv-x="515" 
d="M88 0v755h55v-526l254 282h65l-154 -167l182 -344h-63l-155 304l-129 -141v-163h-55zM86 797l-128 108h41l117 -72h1l116 72h41l-128 -108h-60z" />
    <glyph glyph-name="Oogonek" unicode="&#x1ea;" horiz-adv-x="808" 
d="M60 355q0 159 99 258t245 99t245 -99t99 -258q0 -114 -47.5 -199t-129.5 -128q-62 -34 -96 -65.5t-34 -72.5q0 -24 16 -38t42 -14q31 0 55 14l3 -1v-44q-28 -13 -63 -13q-44 0 -71.5 23t-27.5 63q0 59 67 114q-27 -6 -58 -6q-149 0 -246.5 100t-97.5 267zM118 355
q0 -145 81.5 -231t204.5 -86t204.5 86t81.5 231q0 137 -82.5 222t-203.5 85t-203.5 -85t-82.5 -222z" />
    <glyph glyph-name="oogonek" unicode="&#x1eb;" horiz-adv-x="594" 
d="M58 262q0 117 67.5 189t172.5 72t172 -72t67 -189q0 -82 -30 -144.5t-84 -95.5q-41 -27 -61.5 -42t-38.5 -39.5t-18 -50.5q0 -25 16 -38.5t42 -13.5q31 0 56 14l2 -2v-43q-28 -13 -63 -13q-44 0 -71 23t-27 63q0 56 62 111q-12 -3 -27 -3q-107 1 -172 75t-65 199z
M114 262q0 -104 50 -166.5t134 -62.5q83 0 132.5 62.5t49.5 166.5q0 97 -51 156t-131 59q-81 0 -132.5 -59t-51.5 -156z" />
    <glyph glyph-name="Oogonekmacron" unicode="&#x1ec;" horiz-adv-x="808" 
d="M263 788v42h282v-42h-282zM60 355q0 159 99 258t245 99t245 -99t99 -258q0 -114 -47.5 -199t-129.5 -128q-62 -34 -96 -65.5t-34 -72.5q0 -24 16 -38t42 -14q31 0 55 14l3 -1v-44q-28 -13 -63 -13q-44 0 -71.5 23t-27.5 63q0 59 67 114q-27 -6 -58 -6q-149 0 -246.5 100
t-97.5 267zM118 355q0 -145 81.5 -231t204.5 -86t204.5 86t81.5 231q0 137 -82.5 222t-203.5 85t-203.5 -85t-82.5 -222z" />
    <glyph glyph-name="oogonekmacron" unicode="&#x1ed;" horiz-adv-x="594" 
d="M156 623v42h281v-42h-281zM58 262q0 117 67.5 189t172.5 72t172 -72t67 -189q0 -82 -30 -144.5t-84 -95.5q-41 -27 -61.5 -42t-38.5 -39.5t-18 -50.5q0 -25 16 -38.5t42 -13.5q31 0 56 14l2 -2v-43q-28 -13 -63 -13q-44 0 -71 23t-27 63q0 56 62 111q-12 -3 -27 -3
q-107 1 -172 75t-65 199zM114 262q0 -104 50 -166.5t134 -62.5q83 0 132.5 62.5t49.5 166.5q0 97 -51 156t-131 59q-81 0 -132.5 -59t-51.5 -156z" />
    <glyph glyph-name="Ezhcaron" unicode="&#x1ee;" horiz-adv-x="627" 
d="M277 755l-128 108h41l117 -72h1l116 72h41l-128 -108h-60zM137 295l344 352h-443v53h522v-49l-348 -352q56 10 91 10q135 0 211.5 -68.5t76.5 -187.5q0 -123 -92 -193t-231 -70q-121 0 -218 44l21 46q89 -42 196 -42q115 0 190.5 57.5t75.5 158.5q0 103 -66 157t-187 54
q-57 0 -117 -12z" />
    <glyph glyph-name="ezhcaron" unicode="&#x1ef;" horiz-adv-x="493" 
d="M213 566l-126 157h41l115 -120h2l114 120h42l-126 -157h-62zM107 188l258 276h-328v47h396v-44l-257 -272q42 7 74 7q100 0 156.5 -52.5t56.5 -146.5q0 -99 -70.5 -156t-181.5 -57q-98 0 -170 38l18 42q74 -33 151 -33q88 0 143 44.5t55 122.5q0 79 -47 118.5t-133 39.5
q-47 0 -101 -9z" />
    <glyph glyph-name="jcaron" unicode="&#x1f0;" horiz-adv-x="239" 
d="M96 -34v543h55v-541q0 -178 -144 -178q-21 0 -51 7l11 45q18 -5 35 -5q94 0 94 129zM93 566l-126 157h41l115 -120h2l114 120h42l-126 -157h-62z" />
    <glyph glyph-name="Gacute" unicode="&#x1f4;" horiz-adv-x="724" 
d="M350 755l111 125l45 -34l-112 -91h-44zM60 359q0 157 96 255t252 98q129 0 225 -61l-29 -42q-84 53 -195 53q-130 0 -210.5 -84t-80.5 -219q0 -148 78 -234.5t213 -86.5q111 0 183 46v228h-211v45h264v-302q-101 -67 -237 -67q-160 0 -254 100.5t-94 270.5z" />
    <glyph glyph-name="gacute" unicode="&#x1f5;" horiz-adv-x="564" 
d="M252 566l139 169l41 -32l-141 -137h-39zM39 -76q0 74 94 113q-44 26 -44 73q0 46 46 74q-82 54 -82 153q0 80 59 133t147 53q78 0 134 -42q61 46 142 43v-45q-74 1 -117 -20q49 -51 49 -122q0 -82 -61 -135t-147 -53q-48 0 -92 19q-33 -20 -33 -50q0 -20 11 -32.5t37 -19
t49 -9t67 -4.5q225 -13 225 -128q0 -65 -63 -100t-184 -35q-114 0 -175.5 35t-61.5 99zM259 191q66 0 110 41.5t44 104.5q0 61 -44.5 102t-109.5 41t-108.5 -41t-43.5 -102q0 -63 43.5 -104.5t108.5 -41.5zM286 7q-64 2 -106 13q-39 -12 -63.5 -36.5t-24.5 -58.5
q0 -44 47.5 -68.5t134.5 -24.5q196 0 196 89q0 43 -48 62.5t-136 23.5z" />
    <glyph glyph-name="Aringacute" unicode="&#x1fa;" horiz-adv-x="678" 
d="M35 0l262 682q-25 12 -40.5 35t-15.5 52q0 40 28.5 68t69.5 28t69.5 -28t28.5 -68q0 -61 -55 -87l261 -682h-62l-71 189h-343l-70 -189h-62zM338 646l-153 -410h308l-153 410h-2zM339 700q28 0 48 20t20 49t-19.5 48.5t-48.5 19.5t-48.5 -19.5t-19.5 -48.5t20 -49t48 -20
zM308 888l111 125l45 -34l-112 -91h-44z" />
    <glyph glyph-name="aringacute" unicode="&#x1fb;" horiz-adv-x="514" 
d="M52 113q0 158 315 171v91q0 45 -28.5 73t-85.5 28q-71 0 -161 -46l-23 45q94 48 185 48q85 0 127 -40.5t42 -108.5v-274q0 -59 54 -59v-42q-86 0 -104 69q-68 -80 -175 -80q-66 0 -106 34t-40 91zM107 116q0 -38 27.5 -61t73.5 -23q51 0 93.5 22t65.5 56v136
q-260 -11 -260 -130zM230 780l139 169l41 -32l-141 -137h-39zM264 558q-41 0 -69.5 28t-28.5 68t28.5 68t69.5 28q40 0 68.5 -28t28.5 -68t-28.5 -68t-68.5 -28zM264 585q28 0 48 20t20 49t-19.5 49t-48.5 20t-49 -20t-20 -49q0 -28 20.5 -48.5t48.5 -20.5z" />
    <glyph glyph-name="AEacute" unicode="&#x1fc;" horiz-adv-x="1015" 
d="M33 0l322 700h583v-52h-487l79 -266h368v-50h-353l82 -280h318v-52h-364l-54 189h-345l-84 -189h-65zM388 648l-184 -411h309l-118 411h-7zM452 755l111 125l45 -34l-112 -91h-44z" />
    <glyph glyph-name="aeacute" unicode="&#x1fd;" horiz-adv-x="868" 
d="M404 99q-29 -47 -83 -79t-122 -32q-66 0 -106.5 34t-40.5 90q0 47 27 81t75.5 52t100 26.5t113.5 11.5v92q0 45 -28.5 73t-85.5 28q-74 0 -162 -46l-23 45q96 48 185 48q138 0 155 -116q30 55 81 85.5t116 30.5q101 0 151.5 -61t50.5 -162q0 -7 -3 -37h-382
q0 -114 48.5 -171t137.5 -57q82 0 153 49l27 -39q-79 -57 -182 -57q-144 0 -203 111zM426 304h328q2 77 -34 126t-113 49q-72 0 -121.5 -47t-59.5 -128zM107 116q0 -38 28 -61t73 -23q57 0 106 29t70 79q-16 50 -16 105q-261 -9 -261 -129zM396 566l139 169l41 -32
l-141 -137h-39z" />
    <glyph glyph-name="Oslashacute" unicode="&#x1fe;" horiz-adv-x="808" 
d="M60 355q0 159 99 258t245 99q113 0 201 -62l65 86l32 -25l-66 -86q112 -101 112 -270q0 -167 -97.5 -267t-246.5 -100q-116 0 -201 61l-64 -85l-32 24l65 85q-112 102 -112 282zM690 355q0 140 -88 228l-368 -491q73 -54 170 -54q123 0 204.5 86t81.5 231zM118 355
q0 -150 88 -238l367 490q-72 55 -169 55q-121 0 -203.5 -85t-82.5 -222zM373 755l111 125l45 -34l-112 -91h-44z" />
    <glyph glyph-name="oslashacute" unicode="&#x1ff;" horiz-adv-x="594" 
d="M58 262q0 117 67.5 189t172.5 72q81 0 142 -45l63 85l32 -25l-66 -86q68 -73 68 -190q0 -125 -66 -199.5t-173 -74.5q-84 0 -144 46l-65 -87l-33 24l68 90q-66 75 -66 201zM480 262q0 89 -45 148l-252 -335q47 -42 115 -42q83 0 132.5 62.5t49.5 166.5zM114 262
q0 -98 45 -160l251 335q-46 40 -112 40q-81 0 -132.5 -59t-51.5 -156zM262 566l139 169l41 -32l-141 -137h-39z" />
    <glyph glyph-name="Adoublegrave" unicode="&#x200;" horiz-adv-x="678" 
d="M35 0l269 700h71l268 -700h-62l-71 189h-343l-70 -189h-62zM338 646l-153 -410h308l-153 410h-2zM301 755h-44l-110 91l45 34zM442 755h-44l-109 91l44 34z" />
    <glyph glyph-name="adoublegrave" unicode="&#x201;" horiz-adv-x="514" 
d="M52 113q0 158 315 171v91q0 45 -28.5 73t-85.5 28q-71 0 -161 -46l-23 45q94 48 185 48q85 0 127 -40.5t42 -108.5v-274q0 -59 54 -59v-42q-86 0 -104 69q-68 -80 -175 -80q-66 0 -106 34t-40 91zM107 116q0 -38 27.5 -61t73.5 -23q51 0 93.5 22t65.5 56v136
q-260 -11 -260 -130zM87 735l136 -169h-39l-138 139zM228 735l135 -169h-38l-138 139z" />
    <glyph glyph-name="Ainvertedbreve" unicode="&#x202;" horiz-adv-x="678" 
d="M35 0l269 700h71l268 -700h-62l-71 189h-343l-70 -189h-62zM338 646l-153 -410h308l-153 410h-2zM339 868q64 0 106.5 -30t55.5 -83h-43q-25 71 -119 71q-95 0 -120 -71h-43q13 52 56 82.5t107 30.5z" />
    <glyph glyph-name="ainvertedbreve" unicode="&#x203;" horiz-adv-x="514" 
d="M52 113q0 158 315 171v91q0 45 -28.5 73t-85.5 28q-71 0 -161 -46l-23 45q94 48 185 48q85 0 127 -40.5t42 -108.5v-274q0 -59 54 -59v-42q-86 0 -104 69q-68 -80 -175 -80q-66 0 -106 34t-40 91zM107 116q0 -38 27.5 -61t73.5 -23q51 0 93.5 22t65.5 56v136
q-260 -11 -260 -130zM264 725q65 0 106.5 -42.5t48.5 -116.5h-41q-6 54 -36.5 85.5t-77.5 31.5q-48 0 -79 -32t-36 -85h-40q5 74 47 116.5t108 42.5z" />
    <glyph glyph-name="Edoublegrave" unicode="&#x204;" horiz-adv-x="634" 
d="M289 755h-44l-110 91l45 34zM430 755h-44l-109 91l44 34zM90 0v700h467v-51h-411v-268h371v-48h-371v-282h417v-51h-473z" />
    <glyph glyph-name="edoublegrave" unicode="&#x205;" horiz-adv-x="559" 
d="M58 262q0 118 67 189.5t171 71.5q101 0 151.5 -61t50.5 -162q0 -17 -2 -37h-383v-2q0 -108 47 -167t139 -59q83 0 154 49l27 -39q-81 -57 -183 -57q-116 0 -177.5 72t-61.5 202zM297 479q-72 0 -121.5 -47t-59.5 -128h328q2 77 -34 126t-113 49zM116 735l136 -169h-39
l-138 139zM257 735l135 -169h-38l-138 139z" />
    <glyph glyph-name="Einvertedbreve" unicode="&#x206;" horiz-adv-x="634" 
d="M90 0v700h467v-51h-411v-268h371v-48h-371v-282h417v-51h-473zM327 868q64 0 106.5 -30t55.5 -83h-43q-25 71 -119 71q-95 0 -120 -71h-43q13 52 56 82.5t107 30.5z" />
    <glyph glyph-name="einvertedbreve" unicode="&#x207;" horiz-adv-x="559" 
d="M58 262q0 118 67 189.5t171 71.5q101 0 151.5 -61t50.5 -162q0 -17 -2 -37h-383v-2q0 -108 47 -167t139 -59q83 0 154 49l27 -39q-81 -57 -183 -57q-116 0 -177.5 72t-61.5 202zM297 479q-72 0 -121.5 -47t-59.5 -128h328q2 77 -34 126t-113 49zM293 725
q65 0 106.5 -42.5t48.5 -116.5h-41q-6 54 -36.5 85.5t-77.5 31.5q-48 0 -79 -32t-36 -85h-40q5 74 47 116.5t108 42.5z" />
    <glyph glyph-name="Idoublegrave" unicode="&#x208;" horiz-adv-x="235" 
d="M90 0v700h56v-700h-56zM80 755h-44l-110 91l45 34zM221 755h-44l-109 91l44 34z" />
    <glyph glyph-name="idoublegrave" unicode="&#x209;" 
d="M88 0v509h55v-509h-55zM-62 735l136 -169h-39l-138 139zM79 735l135 -169h-38l-138 139z" />
    <glyph glyph-name="Iinvertedbreve" unicode="&#x20a;" horiz-adv-x="235" 
d="M90 0v700h56v-700h-56zM118 868q64 0 106.5 -30t55.5 -83h-43q-25 71 -119 71q-95 0 -120 -71h-43q13 52 56 82.5t107 30.5z" />
    <glyph glyph-name="iinvertedbreve" unicode="&#x20b;" 
d="M116 725q65 0 106.5 -42.5t48.5 -116.5h-41q-6 54 -36.5 85.5t-77.5 31.5q-48 0 -79 -32t-36 -85h-40q5 74 47 116.5t108 42.5zM88 0v509h55v-509h-55z" />
    <glyph glyph-name="Odoublegrave" unicode="&#x20c;" horiz-adv-x="808" 
d="M366 755h-44l-110 91l45 34zM507 755h-44l-109 91l44 34zM60 355q0 159 99 258t245 99t245 -99t99 -258q0 -167 -97.5 -267t-246.5 -100t-246.5 100t-97.5 267zM118 355q0 -145 81.5 -231t204.5 -86t204.5 86t81.5 231q0 137 -82.5 222t-203.5 85t-203.5 -85t-82.5 -222z
" />
    <glyph glyph-name="odoublegrave" unicode="&#x20d;" horiz-adv-x="594" 
d="M119 735l136 -169h-39l-138 139zM260 735l135 -169h-38l-138 139zM58 262q0 117 67.5 189t172.5 72t172 -72t67 -189q0 -125 -66 -199.5t-173 -74.5q-109 0 -174.5 74.5t-65.5 199.5zM114 262q0 -104 50 -166.5t134 -62.5q83 0 132.5 62.5t49.5 166.5q0 97 -51 156
t-131 59q-81 0 -132.5 -59t-51.5 -156z" />
    <glyph glyph-name="Oinvertedbreve" unicode="&#x20e;" horiz-adv-x="808" 
d="M404 868q64 0 106.5 -30t55.5 -83h-43q-25 71 -119 71q-95 0 -120 -71h-43q13 52 56 82.5t107 30.5zM60 355q0 159 99 258t245 99t245 -99t99 -258q0 -167 -97.5 -267t-246.5 -100t-246.5 100t-97.5 267zM118 355q0 -145 81.5 -231t204.5 -86t204.5 86t81.5 231
q0 137 -82.5 222t-203.5 85t-203.5 -85t-82.5 -222z" />
    <glyph glyph-name="oinvertedbreve" unicode="&#x20f;" horiz-adv-x="594" 
d="M297 725q65 0 106.5 -42.5t48.5 -116.5h-41q-6 54 -36.5 85.5t-77.5 31.5q-48 0 -79 -32t-36 -85h-40q5 74 47 116.5t108 42.5zM58 262q0 117 67.5 189t172.5 72t172 -72t67 -189q0 -125 -66 -199.5t-173 -74.5q-109 0 -174.5 74.5t-65.5 199.5zM114 262
q0 -104 50 -166.5t134 -62.5q83 0 132.5 62.5t49.5 166.5q0 97 -51 156t-131 59q-81 0 -132.5 -59t-51.5 -156z" />
    <glyph glyph-name="Rdoublegrave" unicode="&#x210;" horiz-adv-x="673" 
d="M90 0v700h284q118 0 174.5 -59t56.5 -144q0 -68 -40.5 -124t-118.5 -74l156 -299h-63l-147 292h-246v-292h-56zM146 339h226q89 0 132.5 46.5t43.5 110.5q0 65 -42.5 110t-131.5 45h-228v-312zM290 755h-44l-110 91l45 34zM431 755h-44l-109 91l44 34z" />
    <glyph glyph-name="rdoublegrave" unicode="&#x211;" horiz-adv-x="385" 
d="M84 0v511h49l6 -89q59 101 161 101q36 0 62 -8l-11 -53q-29 9 -57 9q-93 0 -155 -107v-364h-55zM46 735l136 -169h-39l-138 139zM187 735l135 -169h-38l-138 139z" />
    <glyph glyph-name="Rinvertedbreve" unicode="&#x212;" horiz-adv-x="673" 
d="M90 0v700h284q118 0 174.5 -59t56.5 -144q0 -68 -40.5 -124t-118.5 -74l156 -299h-63l-147 292h-246v-292h-56zM146 339h226q89 0 132.5 46.5t43.5 110.5q0 65 -42.5 110t-131.5 45h-228v-312zM328 868q64 0 106.5 -30t55.5 -83h-43q-25 71 -119 71q-95 0 -120 -71h-43
q13 52 56 82.5t107 30.5z" />
    <glyph glyph-name="rinvertedbreve" unicode="&#x213;" horiz-adv-x="385" 
d="M223 725q65 0 106.5 -42.5t48.5 -116.5h-41q-6 54 -36.5 85.5t-77.5 31.5q-48 0 -79 -32t-36 -85h-40q5 74 47 116.5t108 42.5zM84 0v511h49l6 -89q59 101 161 101q36 0 62 -8l-11 -53q-29 9 -57 9q-93 0 -155 -107v-364h-55z" />
    <glyph glyph-name="Udoublegrave" unicode="&#x214;" horiz-adv-x="712" 
d="M318 755h-44l-110 91l45 34zM459 755h-44l-109 91l44 34zM87 256v444h57v-444q0 -103 60 -160.5t152 -57.5t152.5 57.5t60.5 160.5v444h57v-444q0 -129 -75.5 -198.5t-194.5 -69.5q-118 0 -193.5 69.5t-75.5 198.5z" />
    <glyph glyph-name="udoublegrave" unicode="&#x215;" horiz-adv-x="567" 
d="M82 159v352h55v-353q0 -125 113 -125q101 0 178 93v385h55v-511h-48l-7 75q-83 -87 -187 -87q-159 0 -159 171zM105 735l136 -169h-39l-138 139zM246 735l135 -169h-38l-138 139z" />
    <glyph glyph-name="Uinvertedbreve" unicode="&#x216;" horiz-adv-x="712" 
d="M87 256v444h57v-444q0 -103 60 -160.5t152 -57.5t152.5 57.5t60.5 160.5v444h57v-444q0 -129 -75.5 -198.5t-194.5 -69.5q-118 0 -193.5 69.5t-75.5 198.5zM356 868q64 0 106.5 -30t55.5 -83h-43q-25 71 -119 71q-95 0 -120 -71h-43q13 52 56 82.5t107 30.5z" />
    <glyph glyph-name="uinvertedbreve" unicode="&#x217;" horiz-adv-x="567" 
d="M283 725q65 0 106.5 -42.5t48.5 -116.5h-41q-6 54 -36.5 85.5t-77.5 31.5q-48 0 -79 -32t-36 -85h-40q5 74 47 116.5t108 42.5zM82 159v352h55v-353q0 -125 113 -125q101 0 178 93v385h55v-511h-48l-7 75q-83 -87 -187 -87q-159 0 -159 171z" />
    <glyph glyph-name="Scommaaccent" unicode="&#x218;" horiz-adv-x="607" 
d="M57 58l29 45q94 -64 220 -64q91 0 138 38t47 100q0 44 -23.5 73t-60.5 44t-82 26t-90.5 24t-82.5 32.5t-60.5 57.5t-23.5 93q0 80 62.5 132.5t169.5 52.5q120 0 222 -50l-23 -48q-94 47 -197 47q-81 0 -128 -37.5t-47 -95.5q0 -44 23.5 -73.5t60.5 -44t82 -25.5t90.5 -24
t82.5 -32t60.5 -57.5t23.5 -94.5q0 -84 -62.5 -136.5t-181.5 -52.5q-73 0 -139 20t-110 50zM248 -55q18 4 35 4q36 0 55 -18t19 -48q1 -46 -55 -95h-41q51 49 51 87q0 37 -39 36q-7 0 -25 -2v36z" />
    <glyph glyph-name="scommaaccent" unicode="&#x219;" horiz-adv-x="455" 
d="M170 -55q20 4 34 4q74 0 76 -66q0 -46 -56 -95h-40q51 49 51 87q0 37 -40 36q-5 0 -25 -2v36zM42 37l26 42q68 -45 160 -45q63 0 96 25t33 69q0 35 -23 57.5t-57 31.5t-74 20.5t-74 24t-57 43t-23 76.5q0 64 48.5 103t127.5 39q86 0 165 -38l-22 -43q-70 35 -143 35
q-55 0 -88 -26t-33 -68q0 -35 23 -57t57 -30.5t74 -20t74 -24t57 -43.5t23 -78q0 -66 -48 -104t-136 -38q-106 0 -186 49z" />
    <glyph glyph-name="Tcommaaccent" unicode="&#x21a;" horiz-adv-x="644" 
d="M294 0v649h-263v51h582v-51h-263v-649h-56zM294 -55q18 4 35 4q36 0 55 -18t19 -48q1 -46 -55 -95h-41q51 49 51 87q0 37 -39 36q-7 0 -25 -2v36z" />
    <glyph glyph-name="tcommaaccent" unicode="&#x21b;" horiz-adv-x="370" 
d="M131 -55q20 4 34 4q74 0 76 -66q0 -46 -56 -95h-40q51 49 51 87q0 37 -40 36q-5 0 -25 -2v36zM119 130v336h-94v45h94v160h55v-160h150v-45h-150v-336q0 -96 80 -96q39 0 74 24l23 -38q-48 -32 -102 -32q-130 0 -130 142z" />
    <glyph glyph-name="Hcaron" unicode="&#x21e;" horiz-adv-x="697" 
d="M90 0v700h56v-318h405v318h57v-700h-57v331h-405v-331h-56zM318 755l-128 108h41l117 -72h1l116 72h41l-128 -108h-60z" />
    <glyph glyph-name="hcaron" unicode="&#x21f;" horiz-adv-x="570" 
d="M88 0v755h55v-321q82 89 186 89q159 0 159 -171v-352h-55v353q0 124 -113 124q-99 0 -177 -91v-386h-55zM85 797l-128 108h41l117 -72h1l116 72h41l-128 -108h-60z" />
    <glyph glyph-name="Adotabove" unicode="&#x226;" horiz-adv-x="678" 
d="M35 0l269 700h71l268 -700h-62l-71 189h-343l-70 -189h-62zM338 646l-153 -410h308l-153 410h-2zM309 777v65h59v-65h-59z" />
    <glyph glyph-name="adotabove" unicode="&#x227;" horiz-adv-x="514" 
d="M52 113q0 158 315 171v91q0 45 -28.5 73t-85.5 28q-71 0 -161 -46l-23 45q94 48 185 48q85 0 127 -40.5t42 -108.5v-274q0 -59 54 -59v-42q-86 0 -104 69q-68 -80 -175 -80q-66 0 -106 34t-40 91zM107 116q0 -38 27.5 -61t73.5 -23q51 0 93.5 22t65.5 56v136
q-260 -11 -260 -130zM227 612v65h58v-65h-58z" />
    <glyph glyph-name="Otildemacron" unicode="&#x22c;" horiz-adv-x="808" 
d="M266 755q-6 47 15 74t57 27q32 0 71.5 -35t58.5 -35t29.5 16t7.5 43h38q5 -47 -16 -74t-57 -27q-32 0 -71 34.5t-59 34.5q-19 0 -30 -15.5t-7 -42.5h-37zM263 888v42h282v-42h-282zM60 355q0 159 99 258t245 99t245 -99t99 -258q0 -167 -97.5 -267t-246.5 -100
t-246.5 100t-97.5 267zM118 355q0 -145 81.5 -231t204.5 -86t204.5 86t81.5 231q0 137 -82.5 222t-203.5 85t-203.5 -85t-82.5 -222z" />
    <glyph glyph-name="otildemacron" unicode="&#x22d;" horiz-adv-x="594" 
d="M156 736v42h281v-42h-281zM58 262q0 117 67.5 189t172.5 72t172 -72t67 -189q0 -125 -66 -199.5t-173 -74.5q-109 0 -174.5 74.5t-65.5 199.5zM114 262q0 -104 50 -166.5t134 -62.5q83 0 132.5 62.5t49.5 166.5q0 97 -51 156t-131 59q-81 0 -132.5 -59t-51.5 -156z
M159 585q-5 47 15.5 74t57.5 27q31 0 70.5 -34.5t58.5 -34.5t29.5 15.5t7.5 43.5h37q6 -47 -14.5 -74.5t-57.5 -27.5q-31 0 -70.5 34.5t-58.5 34.5q-20 0 -30.5 -15.5t-6.5 -42.5h-38z" />
    <glyph glyph-name="Odotabove" unicode="&#x22e;" horiz-adv-x="808" 
d="M374 777v65h59v-65h-59zM60 355q0 159 99 258t245 99t245 -99t99 -258q0 -167 -97.5 -267t-246.5 -100t-246.5 100t-97.5 267zM118 355q0 -145 81.5 -231t204.5 -86t204.5 86t81.5 231q0 137 -82.5 222t-203.5 85t-203.5 -85t-82.5 -222z" />
    <glyph glyph-name="odotabove" unicode="&#x22f;" horiz-adv-x="594" 
d="M58 262q0 117 67.5 189t172.5 72t172 -72t67 -189q0 -125 -66 -199.5t-173 -74.5q-109 0 -174.5 74.5t-65.5 199.5zM114 262q0 -104 50 -166.5t134 -62.5q83 0 132.5 62.5t49.5 166.5q0 97 -51 156t-131 59q-81 0 -132.5 -59t-51.5 -156zM268 612v65h58v-65h-58z" />
    <glyph glyph-name="Odotabovemacron" unicode="&#x230;" horiz-adv-x="808" 
d="M374 768v65h59v-65h-59zM263 888v42h282v-42h-282zM60 355q0 159 99 258t245 99t245 -99t99 -258q0 -167 -97.5 -267t-246.5 -100t-246.5 100t-97.5 267zM118 355q0 -145 81.5 -231t204.5 -86t204.5 86t81.5 231q0 137 -82.5 222t-203.5 85t-203.5 -85t-82.5 -222z" />
    <glyph glyph-name="odotabovemacron" unicode="&#x231;" horiz-adv-x="594" 
d="M156 736v42h281v-42h-281zM58 262q0 117 67.5 189t172.5 72t172 -72t67 -189q0 -125 -66 -199.5t-173 -74.5q-109 0 -174.5 74.5t-65.5 199.5zM114 262q0 -104 50 -166.5t134 -62.5q83 0 132.5 62.5t49.5 166.5q0 97 -51 156t-131 59q-81 0 -132.5 -59t-51.5 -156z
M268 599v65h58v-65h-58z" />
    <glyph glyph-name="dotlessj" unicode="&#x237;" horiz-adv-x="239" 
d="M96 -34v543h55v-541q0 -178 -144 -178q-21 0 -51 7l11 45q18 -5 35 -5q94 0 94 129z" />
    <glyph glyph-name="schwa" unicode="&#x259;" horiz-adv-x="554" 
d="M63 247h382v2q0 108 -47 167t-139 59q-83 0 -153 -50l-27 40q78 58 181 58q116 0 178.5 -72.5t62.5 -201.5q0 -118 -67.5 -189.5t-171.5 -71.5q-97 0 -149.5 60.5t-52.5 155.5q0 20 3 43zM261 32q72 0 121 47t60 128h-328q-2 -78 34 -126.5t113 -48.5z" />
    <glyph glyph-name="barredo" unicode="&#x275;" horiz-adv-x="594" 
d="M58 262q0 117 67.5 189t172.5 72t172 -72t67 -189q0 -125 -66 -199.5t-173 -74.5q-109 0 -174.5 74.5t-65.5 199.5zM298 33q77 0 126 55t55 149h-365q6 -94 55.5 -149t128.5 -55zM298 477q-78 0 -129 -55.5t-55 -146.5h366q-4 91 -54.5 146.5t-127.5 55.5z" />
    <glyph glyph-name="ezh" unicode="&#x292;" horiz-adv-x="493" 
d="M107 188l258 276h-328v47h396v-44l-257 -272q42 7 74 7q100 0 156.5 -52.5t56.5 -146.5q0 -99 -70.5 -156t-181.5 -57q-98 0 -170 38l18 42q74 -33 151 -33q88 0 143 44.5t55 122.5q0 79 -47 118.5t-133 39.5q-47 0 -101 -9z" />
    <glyph glyph-name="circumflex" unicode="&#x2c6;" horiz-adv-x="653" 
d="M171 566l126 157h62l126 -157h-42l-114 120h-2l-115 -120h-41z" />
    <glyph glyph-name="caron" unicode="&#x2c7;" horiz-adv-x="653" 
d="M297 566l-126 157h41l115 -120h2l114 120h42l-126 -157h-62z" />
    <glyph glyph-name="breve" unicode="&#x2d8;" horiz-adv-x="649" 
d="M327 563q-65 0 -107 43t-48 117h40q7 -54 37.5 -85.5t77.5 -31.5t78 32t36 85h41q-6 -74 -48 -117t-107 -43z" />
    <glyph glyph-name="dotaccent" unicode="&#x2d9;" horiz-adv-x="643" 
d="M292 612v65h58v-65h-58z" />
    <glyph glyph-name="ring" unicode="&#x2da;" horiz-adv-x="646" 
d="M325 563q-41 0 -69.5 28t-28.5 68t28.5 68t69.5 28q40 0 68.5 -28t28.5 -68t-28.5 -68t-68.5 -28zM325 590q28 0 48 20t20 49t-19.5 49t-48.5 20t-49 -20t-20 -49t20 -49t49 -20z" />
    <glyph glyph-name="ogonek" unicode="&#x2db;" horiz-adv-x="646" 
d="M391 -149v-44q-28 -13 -63 -13q-44 0 -71.5 23t-27.5 63q0 92 154 167l14 -23q-58 -32 -90 -63t-32 -71q0 -24 16 -38t42 -14q30 0 56 14z" />
    <glyph glyph-name="tilde" unicode="&#x2dc;" horiz-adv-x="651" 
d="M188 599q-5 47 15.5 74t57.5 27q31 0 70.5 -34.5t58.5 -34.5t29.5 15.5t7.5 43.5h37q6 -47 -14.5 -74.5t-57.5 -27.5q-31 0 -70.5 34.5t-58.5 34.5q-20 0 -30.5 -15.5t-6.5 -42.5h-38z" />
    <glyph glyph-name="hungarumlaut" unicode="&#x2dd;" horiz-adv-x="653" 
d="M170 566l135 169l42 -30l-139 -139h-38zM311 566l135 169l41 -30l-138 -139h-38z" />
    <glyph glyph-name="doublegrave" unicode="&#x30f;" horiz-adv-x="653" 
d="M211 735l136 -169h-39l-138 139zM352 735l135 -169h-38l-138 139z" />
    <glyph glyph-name="invertedbreve" unicode="&#x311;" horiz-adv-x="649" 
d="M327 725q65 0 106.5 -42.5t48.5 -116.5h-41q-6 54 -36.5 85.5t-77.5 31.5q-48 0 -79 -32t-36 -85h-40q5 74 47 116.5t108 42.5z" />
    <glyph glyph-name="commaabovecmb" unicode="&#x313;" horiz-adv-x="644" 
d="M377 604v-36q-18 -4 -34 -4q-37 0 -56 18t-19 48q-1 46 55 95h41q-51 -51 -51 -88q0 -36 39 -36q5 0 13.5 1.5t11.5 1.5z" />
    <glyph glyph-name="uni0323" unicode="&#x323;" horiz-adv-x="643" 
d="M292 -174v65h58v-65h-58z" />
    <glyph glyph-name="uni0329" unicode="&#x329;" horiz-adv-x="643" 
d="M297 -201v148h49v-148h-49z" />
    <glyph glyph-name="pi" unicode="&#x3c0;" horiz-adv-x="733" 
d="M670 489h-161v-319q0 -69 32 -97.5t95 -28.5v-46q-93 0 -137.5 38.5t-44.5 133.5v319h-184v-489h-56v489h-151v47h607v-47z" />
    <glyph glyph-name="Ddotbelow" unicode="&#x1e0c;" horiz-adv-x="708" 
d="M90 0v700h190q179 0 274 -90.5t95 -252.5q0 -171 -93 -264t-276 -93h-190zM146 49h137q153 0 231 81t78 227q0 138 -80 216t-229 78h-137v-602zM340 -174v65h59v-65h-59z" />
    <glyph glyph-name="ddotbelow" unicode="&#x1e0d;" horiz-adv-x="579" 
d="M245 -174v65h58v-65h-58zM267 -12q-98 0 -153.5 73.5t-55.5 201.5q0 121 57 190.5t153 69.5q90 0 169 -83v315h55v-755h-46l-7 73q-78 -85 -172 -85zM277 34q87 0 160 86v271q-77 86 -159 86q-76 0 -120.5 -57.5t-44.5 -156.5q0 -106 43 -167.5t121 -61.5z" />
    <glyph glyph-name="Dcedilla" unicode="&#x1e10;" horiz-adv-x="708" 
d="M348 -49h41q-27 -93 -105 -165l-46 23q79 64 110 142zM90 0v700h190q179 0 274 -90.5t95 -252.5q0 -171 -93 -264t-276 -93h-190zM146 49h137q153 0 231 81t78 227q0 138 -80 216t-229 78h-137v-602z" />
    <glyph glyph-name="dcedilla" unicode="&#x1e11;" horiz-adv-x="579" 
d="M252 -49h41q-27 -93 -105 -165l-46 23q79 64 110 142zM267 -12q-98 0 -153.5 73.5t-55.5 201.5q0 121 57 190.5t153 69.5q90 0 169 -83v315h55v-755h-46l-7 73q-78 -85 -172 -85zM277 34q87 0 160 86v271q-77 86 -159 86q-76 0 -120.5 -57.5t-44.5 -156.5
q0 -106 43 -167.5t121 -61.5z" />
    <glyph glyph-name="Hdotbelow" unicode="&#x1e24;" horiz-adv-x="697" 
d="M90 0v700h56v-318h405v318h57v-700h-57v331h-405v-331h-56zM319 -174v65h59v-65h-59z" />
    <glyph glyph-name="hdotbelow" unicode="&#x1e25;" horiz-adv-x="570" 
d="M88 0v755h55v-321q82 89 186 89q159 0 159 -171v-352h-55v353q0 124 -113 124q-99 0 -177 -91v-386h-55zM259 -174v65h58v-65h-58z" />
    <glyph glyph-name="Ldotbelow" unicode="&#x1e36;" horiz-adv-x="604" 
d="M90 0v700h56v-649h410v-51h-466zM293 -174v65h59v-65h-59z" />
    <glyph glyph-name="ldotbelow" unicode="&#x1e37;" 
d="M87 -174v65h58v-65h-58zM88 0v755h55v-755h-55z" />
    <glyph glyph-name="Ldotbelowmacron" unicode="&#x1e38;" horiz-adv-x="604" 
d="M-23 788v42h282v-42h-282zM90 0v700h56v-649h410v-51h-466zM293 -174v65h59v-65h-59z" />
    <glyph glyph-name="ldotbelowmacron" unicode="&#x1e39;" 
d="M-25 830v42h282v-42h-282zM87 -174v65h58v-65h-58zM88 0v755h55v-755h-55z" />
    <glyph glyph-name="Mdotbelow" unicode="&#x1e42;" horiz-adv-x="845" 
d="M90 0v700h67l266 -392l266 392h67v-700h-55v626l-278 -406l-278 408v-628h-55zM394 -174v65h59v-65h-59z" />
    <glyph glyph-name="mdotbelow" unicode="&#x1e43;" horiz-adv-x="881" 
d="M84 0v511h50l5 -71q81 83 179 83q107 0 140 -88q84 88 188 88q79 0 116 -45t37 -125v-353h-56v353q0 124 -107 124q-94 0 -168 -85q3 -21 3 -42v-350h-56v353q0 124 -107 124q-95 0 -169 -87v-390h-55zM413 -174v65h58v-65h-58z" />
    <glyph glyph-name="Ndotaccent" unicode="&#x1e44;" horiz-adv-x="718" 
d="M329 777v65h59v-65h-59zM90 0v700h62l421 -619v619h55v-700h-63l-420 618v-618h-55z" />
    <glyph glyph-name="ndotaccent" unicode="&#x1e45;" horiz-adv-x="566" 
d="M255 612v65h58v-65h-58zM84 0v511h50l5 -76q83 88 187 88q159 0 159 -171v-352h-56v353q0 124 -113 124q-102 0 -177 -93v-384h-55z" />
    <glyph glyph-name="Ndotbelow" unicode="&#x1e46;" horiz-adv-x="718" 
d="M330 -174v65h59v-65h-59zM90 0v700h62l421 -619v619h55v-700h-63l-420 618v-618h-55z" />
    <glyph glyph-name="ndotbelow" unicode="&#x1e47;" horiz-adv-x="566" 
d="M255 -174v65h58v-65h-58zM84 0v511h50l5 -76q83 88 187 88q159 0 159 -171v-352h-56v353q0 124 -113 124q-102 0 -177 -93v-384h-55z" />
    <glyph glyph-name="Rdotbelow" unicode="&#x1e5a;" horiz-adv-x="673" 
d="M90 0v700h284q118 0 174.5 -59t56.5 -144q0 -68 -40.5 -124t-118.5 -74l156 -299h-63l-147 292h-246v-292h-56zM146 339h226q89 0 132.5 46.5t43.5 110.5q0 65 -42.5 110t-131.5 45h-228v-312zM298 -174v65h59v-65h-59z" />
    <glyph glyph-name="rdotbelow" unicode="&#x1e5b;" horiz-adv-x="385" 
d="M84 0v511h49l6 -89q59 101 161 101q36 0 62 -8l-11 -53q-29 9 -57 9q-93 0 -155 -107v-364h-55zM83 -174v65h58v-65h-58z" />
    <glyph glyph-name="Rdotbelowmacron" unicode="&#x1e5c;" horiz-adv-x="673" 
d="M90 0v700h284q118 0 174.5 -59t56.5 -144q0 -68 -40.5 -124t-118.5 -74l156 -299h-63l-147 292h-17h-229v-292h-56zM146 339h226q89 0 132.5 46.5t43.5 110.5q0 65 -42.5 110t-131.5 45h-228v-312zM187 788v42h282v-42h-282zM298 -174v65h59v-65h-59z" />
    <glyph glyph-name="rdotbelowmacron" unicode="&#x1e5d;" horiz-adv-x="385" 
d="M83 623v42h281v-42h-281zM84 0v511h49l6 -89q59 101 161 101q36 0 62 -8l-11 -53q-29 9 -57 9q-93 0 -155 -107v-364h-55zM83 -174v65h58v-65h-58z" />
    <glyph glyph-name="Sdotbelow" unicode="&#x1e62;" horiz-adv-x="607" 
d="M57 58l29 45q94 -64 220 -64q91 0 138 38t47 100q0 44 -23.5 73t-60.5 44t-82 26t-90.5 24t-82.5 32.5t-60.5 57.5t-23.5 93q0 80 62.5 132.5t169.5 52.5q120 0 222 -50l-23 -48q-94 47 -197 47q-81 0 -128 -37.5t-47 -95.5q0 -44 23.5 -73.5t60.5 -44t82 -25.5t90.5 -24
t82.5 -32t60.5 -57.5t23.5 -94.5q0 -84 -62.5 -136.5t-181.5 -52.5q-73 0 -139 20t-110 50zM274 -174v65h59v-65h-59z" />
    <glyph glyph-name="sdotbelow" unicode="&#x1e63;" horiz-adv-x="455" 
d="M42 37l26 42q68 -45 160 -45q63 0 96 25t33 69q0 35 -23 57.5t-57 31.5t-74 20.5t-74 24t-57 43t-23 76.5q0 64 48.5 103t127.5 39q86 0 165 -38l-22 -43q-70 35 -143 35q-55 0 -88 -26t-33 -68q0 -35 23 -57t57 -30.5t74 -20t74 -24t57 -43.5t23 -78q0 -66 -48 -104
t-136 -38q-106 0 -186 49zM197 -174v65h58v-65h-58z" />
    <glyph glyph-name="Tdotbelow" unicode="&#x1e6c;" horiz-adv-x="644" 
d="M294 0v649h-263v51h582v-51h-263v-649h-56zM293 -174v65h59v-65h-59z" />
    <glyph glyph-name="tdotbelow" unicode="&#x1e6d;" horiz-adv-x="370" 
d="M159 -174v65h58v-65h-58zM119 130v336h-94v45h94v160h55v-160h150v-45h-150v-336q0 -96 80 -96q39 0 74 24l23 -38q-48 -32 -102 -32q-130 0 -130 142z" />
    <glyph glyph-name="Wgrave" unicode="&#x1e80;" horiz-adv-x="1023" 
d="M498 755l-111 91l45 34l111 -125h-45zM260 0l-224 700h61l196 -627h2l187 627h60l187 -627h2l196 627h61l-225 -700h-65l-186 621h-2l-185 -621h-65z" />
    <glyph glyph-name="wgrave" unicode="&#x1e81;" horiz-adv-x="797" 
d="M201 0l-175 511h58l148 -445h2l138 445h53l139 -445h2l148 445h57l-175 -511h-60l-137 435h-2l-136 -435h-60zM394 566l-141 137l41 32l139 -169h-39z" />
    <glyph glyph-name="Wacute" unicode="&#x1e82;" horiz-adv-x="1023" 
d="M480 755l111 125l45 -34l-112 -91h-44zM260 0l-224 700h61l196 -627h2l187 627h60l187 -627h2l196 627h61l-225 -700h-65l-186 621h-2l-185 -621h-65z" />
    <glyph glyph-name="wacute" unicode="&#x1e83;" horiz-adv-x="797" 
d="M365 566l139 169l41 -32l-141 -137h-39zM201 0l-175 511h58l148 -445h2l138 445h53l139 -445h2l148 445h57l-175 -511h-60l-137 435h-2l-136 -435h-60z" />
    <glyph glyph-name="Wdieresis" unicode="&#x1e84;" horiz-adv-x="1023" 
d="M579 777v65h56v-65h-56zM389 777v65h56v-65h-56zM260 0l-224 700h61l196 -627h2l187 627h60l187 -627h2l196 627h61l-225 -700h-65l-186 621h-2l-185 -621h-65z" />
    <glyph glyph-name="wdieresis" unicode="&#x1e85;" horiz-adv-x="797" 
d="M461 612v65h56v-65h-56zM280 612v65h56v-65h-56zM201 0l-175 511h58l148 -445h2l138 445h53l139 -445h2l148 445h57l-175 -511h-60l-137 435h-2l-136 -435h-60z" />
    <glyph glyph-name="hmacronbelow" unicode="&#x1e96;" horiz-adv-x="570" 
d="M88 0v755h55v-321q82 89 186 89q159 0 159 -171v-352h-55v353q0 124 -113 124q-99 0 -177 -91v-386h-55zM147 -160v42h281v-42h-281z" />
    <glyph glyph-name="germandbls.cap" unicode="&#x1e9e;" horiz-adv-x="679" 
d="M87 0v488q0 106 67.5 165t177.5 59q109 0 179 -50.5t70 -137.5q0 -59 -40 -104t-114 -59v-1q91 -9 141 -58t50 -121q0 -91 -67.5 -141.5t-176.5 -50.5q-60 0 -114 14l11 48q48 -13 99 -13q85 0 138 38.5t53 107.5t-55.5 109t-156.5 40h-54v48h43q94 0 140.5 41.5
t46.5 100.5q0 67 -53 105t-140 38q-86 0 -137.5 -46t-51.5 -131v-489h-56z" />
    <glyph glyph-name="Idotbelow" unicode="&#x1eca;" horiz-adv-x="235" 
d="M90 0v700h56v-700h-56zM88 -174v65h59v-65h-59z" />
    <glyph glyph-name="idotbelow" unicode="&#x1ecb;" 
d="M88 0v509h55v-509h-55zM88 658v81h55v-81h-55zM87 -174v65h58v-65h-58z" />
    <glyph glyph-name="Odotbelow" unicode="&#x1ecc;" horiz-adv-x="808" 
d="M60 355q0 159 99 258t245 99t245 -99t99 -258q0 -167 -97.5 -267t-246.5 -100t-246.5 100t-97.5 267zM118 355q0 -145 81.5 -231t204.5 -86t204.5 86t81.5 231q0 137 -82.5 222t-203.5 85t-203.5 -85t-82.5 -222zM375 -174v65h59v-65h-59z" />
    <glyph glyph-name="odotbelow" unicode="&#x1ecd;" horiz-adv-x="594" 
d="M268 -174v65h58v-65h-58zM58 262q0 117 67.5 189t172.5 72t172 -72t67 -189q0 -125 -66 -199.5t-173 -74.5q-109 0 -174.5 74.5t-65.5 199.5zM114 262q0 -104 50 -166.5t134 -62.5q83 0 132.5 62.5t49.5 166.5q0 97 -51 156t-131 59q-81 0 -132.5 -59t-51.5 -156z" />
    <glyph glyph-name="Udotbelow" unicode="&#x1ee4;" horiz-adv-x="712" 
d="M87 256v444h57v-444q0 -103 60 -160.5t152 -57.5t152.5 57.5t60.5 160.5v444h57v-444q0 -129 -75.5 -198.5t-194.5 -69.5q-118 0 -193.5 69.5t-75.5 198.5zM327 -174v65h59v-65h-59z" />
    <glyph glyph-name="udotbelow" unicode="&#x1ee5;" horiz-adv-x="567" 
d="M82 159v352h55v-353q0 -125 113 -125q101 0 178 93v385h55v-511h-48l-7 75q-83 -87 -187 -87q-159 0 -159 171zM254 -174v65h58v-65h-58z" />
    <glyph glyph-name="Ygrave" unicode="&#x1ef2;" horiz-adv-x="651" 
d="M297 0v287l-263 413h67l224 -360h2l223 360h67l-263 -413v-287h-57zM312 755l-111 91l45 34l111 -125h-45z" />
    <glyph glyph-name="ygrave" unicode="&#x1ef3;" horiz-adv-x="487" 
d="M36 -150q32 -13 56 -13q32 0 53 15t35 53l38 99l-192 507h59l160 -435h2l156 435h58l-227 -613q-22 -60 -56.5 -84t-84.5 -24q-38 0 -73 14zM240 566l-141 137l41 32l139 -169h-39z" />
    <glyph glyph-name="Ytilde" unicode="&#x1ef8;" horiz-adv-x="651" 
d="M297 0v287l-263 413h67l224 -360h2l223 360h67l-263 -413v-287h-57zM188 764q-6 47 15 74t57 27q32 0 71.5 -35t58.5 -35t29.5 16t7.5 43h38q5 -47 -16 -74t-57 -27q-32 0 -71 34.5t-59 34.5q-19 0 -30 -15.5t-7 -42.5h-37z" />
    <glyph glyph-name="ytilde" unicode="&#x1ef9;" horiz-adv-x="487" 
d="M36 -150q32 -13 56 -13q32 0 53 15t35 53l38 99l-192 507h59l160 -435h2l156 435h58l-227 -613q-22 -60 -56.5 -84t-84.5 -24q-38 0 -73 14zM107 599q-5 47 15.5 74t57.5 27q31 0 70.5 -34.5t58.5 -34.5t29.5 15.5t7.5 43.5h37q6 -47 -14.5 -74.5t-57.5 -27.5
q-31 0 -70.5 34.5t-58.5 34.5q-20 0 -30.5 -15.5t-6.5 -42.5h-38z" />
    <glyph glyph-name="enspace" unicode="&#x2002;" horiz-adv-x="500" 
 />
    <glyph glyph-name="emspace" unicode="&#x2003;" horiz-adv-x="1000" 
 />
    <glyph glyph-name="threeperemspace" unicode="&#x2004;" horiz-adv-x="333" 
 />
    <glyph glyph-name="fourperemspace" unicode="&#x2005;" horiz-adv-x="250" 
 />
    <glyph glyph-name="sixperemspace" unicode="&#x2006;" horiz-adv-x="167" 
 />
    <glyph glyph-name="figurespace" unicode="&#x2007;" horiz-adv-x="620" 
 />
    <glyph glyph-name="punctuationspace" unicode="&#x2008;" horiz-adv-x="240" 
 />
    <glyph glyph-name="thinspace" unicode="&#x2009;" horiz-adv-x="100" 
 />
    <glyph glyph-name="hairspace" unicode="&#x200a;" horiz-adv-x="50" 
 />
    <glyph glyph-name="zerowidthspace" unicode="&#x200b;" horiz-adv-x="0" 
 />
    <glyph glyph-name="endash" unicode="&#x2013;" horiz-adv-x="573" 
d="M48 234v50h477v-50h-477z" />
    <glyph glyph-name="emdash" unicode="&#x2014;" horiz-adv-x="916" 
d="M48 234v50h819v-50h-819z" />
    <glyph glyph-name="quoteleft" unicode="&#x2018;" horiz-adv-x="207" 
d="M134 567v-104h-61v93q0 58 20 92t63 54l16 -27q-58 -31 -58 -108h20z" />
    <glyph glyph-name="quoteright" unicode="&#x2019;" horiz-adv-x="207" 
d="M73 596v104h61v-93q0 -58 -20 -92t-63 -54l-16 27q58 31 58 108h-20z" />
    <glyph glyph-name="quotesinglbase" unicode="&#x201a;" horiz-adv-x="207" 
d="M73 0v104h61v-93q0 -58 -20 -92t-63 -54l-16 27q58 31 58 108h-20z" />
    <glyph glyph-name="quotedblleft" unicode="&#x201c;" horiz-adv-x="397" 
d="M134 567v-104h-61v93q0 58 20 92t63 54l16 -27q-58 -31 -58 -108h20zM324 567v-104h-61v93q0 58 20 92t63 54l16 -27q-58 -31 -58 -108h20z" />
    <glyph glyph-name="quotedblright" unicode="&#x201d;" horiz-adv-x="397" 
d="M263 596v104h61v-93q0 -58 -20 -92t-63 -54l-16 27q58 31 58 108h-20zM73 596v104h61v-93q0 -58 -20 -92t-63 -54l-16 27q58 31 58 108h-20z" />
    <glyph glyph-name="quotedblbase" unicode="&#x201e;" horiz-adv-x="397" 
d="M263 0v104h61v-93q0 -58 -20 -92t-63 -54l-16 27q58 31 58 108h-20zM73 0v104h61v-93q0 -58 -20 -92t-63 -54l-16 27q58 31 58 108h-20z" />
    <glyph glyph-name="dagger" unicode="&#x2020;" horiz-adv-x="450" 
d="M198 272v179l8 114l-88 -5h-57v48h57l88 -6l-8 118v35h53v-35l-9 -118l90 6h57v-48h-57l-90 6l9 -115v-179h-53z" />
    <glyph glyph-name="daggerdbl" unicode="&#x2021;" horiz-adv-x="443" 
d="M198 84v167l8 104l-88 -7h-57v49h57l88 -5l-7 92l7 97l-88 -5h-57v49h57l88 -7l-8 104v33h53v-33l-9 -103l90 6h51v-49h-51l-90 6l7 -98l-7 -92l90 5h51v-49h-51l-90 7l9 -104v-167h-53z" />
    <glyph glyph-name="bullet" unicode="&#x2022;" horiz-adv-x="547" 
d="M145 256q0 53 38 90.5t91 37.5t90.5 -37.5t37.5 -90.5t-37.5 -90.5t-90.5 -37.5t-91 37.5t-38 90.5z" />
    <glyph glyph-name="ellipsis" unicode="&#x2026;" horiz-adv-x="658" 
d="M73 0v104h61v-104h-61zM299 0v104h61v-104h-61zM525 0v104h61v-104h-61z" />
    <glyph glyph-name="perthousand" unicode="&#x2030;" horiz-adv-x="1047" 
d="M718 123q0 57 40 96t97 39t96.5 -39t39.5 -96t-39.5 -95.5t-96.5 -38.5q-58 0 -97.5 38.5t-39.5 95.5zM759 123q0 -41 28 -69t69 -28q40 0 67.5 28t27.5 69t-27.5 69t-67.5 28q-41 0 -69 -28t-28 -69zM534 536h48l-398 -536h-47zM56 413q0 56 39.5 95t96.5 39
q58 0 97.5 -39t39.5 -95q0 -58 -39.5 -96.5t-97.5 -38.5q-57 0 -96.5 39t-39.5 96zM96 413q0 -41 28 -69.5t69 -28.5q40 0 68 28.5t28 69.5t-28 69t-68 28q-41 0 -69 -28t-28 -69zM395 123q0 57 39.5 96t97.5 39q57 0 96.5 -39t39.5 -96t-39.5 -95.5t-96.5 -38.5
q-58 0 -97.5 38.5t-39.5 95.5zM436 123q0 -41 28 -69t68 -28q41 0 68.5 28t27.5 69t-27.5 69t-68.5 28t-68.5 -28t-27.5 -69z" />
    <glyph glyph-name="guilsinglleft" unicode="&#x2039;" horiz-adv-x="353" 
d="M112 256l180 -226l-39 -30l-201 256l201 255l39 -31z" />
    <glyph glyph-name="guilsinglright" unicode="&#x203a;" horiz-adv-x="353" 
d="M61 30l180 226l-180 224l39 31l201 -255l-201 -256z" />
    <glyph glyph-name="interrobang" unicode="&#x203d;" horiz-adv-x="513" 
d="M219 202l-3 446v15q-80 -10 -140 -72l-35 34q85 87 202 87q97 0 155.5 -49t58.5 -126q0 -50 -20 -87.5t-48.5 -61t-57 -46t-49 -55t-20.5 -74.5v-11h-43zM274 657l-24 -360q10 28 30.5 52.5t41 42t39.5 37t31 46.5t12 62q0 49 -35 83.5t-95 42.5v-6zM210 0v99h60v-99h-60
z" />
    <glyph glyph-name="fraction" unicode="&#x2044;" horiz-adv-x="628" 
d="M-2 0l582 700h49l-581 -700h-50z" />
    <glyph glyph-name="zero.sups" unicode="&#x2070;" horiz-adv-x="390" 
d="M35 676q0 83 45.5 132.5t114.5 49.5t114.5 -49.5t45.5 -132.5t-45.5 -132.5t-114.5 -49.5t-114.5 49.5t-45.5 132.5zM76 676q0 -66 33.5 -106t85.5 -40t86 40t34 106t-34 106.5t-86 40.5t-85.5 -40.5t-33.5 -106.5z" />
    <glyph glyph-name="four.sups" unicode="&#x2074;" horiz-adv-x="333" 
d="M40 578l-13 32l186 242h48v-240h57v-34h-57v-78h-40v78h-181zM71 612h150v196z" />
    <glyph glyph-name="five.sups" unicode="&#x2075;" horiz-adv-x="312" 
d="M32 519l16 33q42 -23 90 -23q45 0 73.5 23.5t28.5 60.5q0 34 -24 54.5t-65 20.5q-29 0 -76 -15l-23 15l8 164h204v-34h-168l-5 -110q32 15 69 15q54 0 88 -30.5t34 -78.5q0 -55 -40.5 -88t-102.5 -33q-63 0 -107 26z" />
    <glyph glyph-name="six.sups" unicode="&#x2076;" horiz-adv-x="333" 
d="M35 664q0 99 45.5 146.5t112.5 47.5q47 0 90 -18l-16 -33q-37 16 -75 16q-47 0 -80.5 -35.5t-36.5 -106.5q45 42 107 42q52 0 85.5 -31t33.5 -81q0 -49 -34 -83t-92 -34q-72 0 -106 47t-34 123zM75 646q3 -53 28 -85t72 -32q40 0 63.5 24t23.5 57q0 35 -23.5 57.5
t-60.5 22.5q-63 0 -103 -44z" />
    <glyph glyph-name="seven.sups" unicode="&#x2077;" horiz-adv-x="297" 
d="M79 500l149 317h-203v35h247v-28l-148 -324h-45z" />
    <glyph glyph-name="eight.sups" unicode="&#x2078;" horiz-adv-x="343" 
d="M32 592q0 35 25 58.5t62 32.5q-30 9 -49.5 30.5t-19.5 50.5q0 43 34 68.5t87 25.5q54 0 88.5 -25.5t34.5 -68.5q0 -29 -20 -50.5t-50 -30.5q37 -9 62 -32.5t25 -58.5q0 -46 -38.5 -72t-101.5 -26q-62 0 -100.5 26t-38.5 72zM73 593q0 -30 27 -47.5t71 -17.5t71.5 17.5
t27.5 47.5q0 31 -28 50t-71 22q-42 -3 -70 -22t-28 -50zM171 698q39 4 61 21.5t22 44.5t-23 43.5t-60 16.5q-36 0 -59 -16.5t-23 -43.5t22.5 -44.5t59.5 -21.5z" />
    <glyph glyph-name="nine.sups" unicode="&#x2079;" horiz-adv-x="334" 
d="M45 519l20 31q32 -20 77 -20q48 0 81 35t36 107q-46 -43 -105 -43q-53 0 -87 31t-34 82q0 49 34 82.5t93 33.5q72 0 106 -47t34 -123q0 -99 -45.5 -146.5t-112.5 -47.5q-51 0 -97 25zM158 663q61 0 101 44q-3 53 -28 85t-72 32q-40 0 -63 -23.5t-23 -57.5q0 -36 23.5 -58
t61.5 -22z" />
    <glyph glyph-name="plus.sups" unicode="&#x207a;" horiz-adv-x="324" 
d="M29 658v37h114v112h38v-112h114v-37h-114v-113h-38v113h-114z" />
    <glyph glyph-name="minus.sups" unicode="&#x207b;" horiz-adv-x="324" 
d="M29 658v37h266v-37h-266z" />
    <glyph glyph-name="equal.sups" unicode="&#x207c;" horiz-adv-x="324" 
d="M30 595v34h264v-34h-264zM30 723v35h264v-35h-264z" />
    <glyph glyph-name="parenleft.sups" unicode="&#x207d;" horiz-adv-x="219" 
d="M141 994h46q-44 -47 -77 -135.5t-33 -187.5t33.5 -191t76.5 -141h-46q-45 61 -75.5 149t-30.5 183q0 94 30.5 179.5t75.5 143.5z" />
    <glyph glyph-name="parenright.sups" unicode="&#x207e;" horiz-adv-x="219" 
d="M33 994h45q45 -59 76 -144t31 -179q0 -96 -31 -184t-76 -148h-45q43 49 76.5 141t33.5 191t-33.5 187t-76.5 136z" />
    <glyph glyph-name="n.sups" unicode="&#x207f;" horiz-adv-x="403" 
d="M62 500v352h38l4 -49q56 58 126 58q113 0 113 -120v-241h-43v242q0 83 -76 83q-68 0 -120 -62v-263h-42z" />
    <glyph glyph-name="zero.subs" unicode="&#x2080;" horiz-adv-x="390" 
d="M35 176q0 83 45.5 132.5t114.5 49.5t114.5 -49.5t45.5 -132.5t-45.5 -132.5t-114.5 -49.5t-114.5 49.5t-45.5 132.5zM76 176q0 -66 33.5 -106t85.5 -40t86 40t34 106t-34 106.5t-86 40.5t-85.5 -40.5t-33.5 -106.5z" />
    <glyph glyph-name="one.subs" unicode="&#x2081;" horiz-adv-x="273" 
d="M143 0v311l-80 -42l-17 31l104 52h33v-352h-40z" />
    <glyph glyph-name="two.subs" unicode="&#x2082;" horiz-adv-x="328" 
d="M41 0v21q-1 48 20.5 80.5t52 49t61.5 30t53 32.5t22 47t-22.5 45.5t-63.5 17.5q-54 0 -95 -43l-28 25q51 53 125 53q60 0 93 -27.5t33 -70.5q0 -35 -21.5 -60t-52 -39l-61 -28t-52 -38t-21.5 -59h208v-36h-251z" />
    <glyph glyph-name="three.subs" unicode="&#x2083;" horiz-adv-x="326" 
d="M40 18l15 34q42 -23 93 -23q46 0 76 20.5t30 54.5q0 31 -24.5 47t-63.5 16h-49v34h47q35 0 56 16.5t21 46.5q0 25 -22.5 42t-60.5 17q-56 0 -97 -41l-24 27q51 49 121 49q55 0 89.5 -25.5t34.5 -65.5q0 -60 -61 -81q34 -8 54.5 -29t20.5 -54q0 -51 -42 -80t-106 -29
q-60 0 -108 24z" />
    <glyph glyph-name="four.subs" unicode="&#x2084;" horiz-adv-x="333" 
d="M40 78l-13 32l186 242h48v-240h57v-34h-57v-78h-40v78h-181zM71 112h150v196z" />
    <glyph glyph-name="five.subs" unicode="&#x2085;" horiz-adv-x="312" 
d="M32 19l16 33q42 -23 90 -23q45 0 73.5 23.5t28.5 60.5q0 34 -24 54.5t-65 20.5q-29 0 -76 -15l-23 15l8 164h204v-34h-168l-5 -110q32 15 69 15q54 0 88 -30.5t34 -78.5q0 -55 -40.5 -88t-102.5 -33q-63 0 -107 26z" />
    <glyph glyph-name="six.subs" unicode="&#x2086;" horiz-adv-x="333" 
d="M35 164q0 99 45.5 146.5t112.5 47.5q47 0 90 -18l-16 -33q-37 16 -75 16q-47 0 -80.5 -35.5t-36.5 -106.5q45 42 107 42q52 0 85.5 -31t33.5 -81q0 -49 -34 -83t-92 -34q-72 0 -106 47t-34 123zM75 146q3 -53 28 -85t72 -32q40 0 63.5 24t23.5 57q0 35 -23.5 57.5
t-60.5 22.5q-63 0 -103 -44z" />
    <glyph glyph-name="seven.subs" unicode="&#x2087;" horiz-adv-x="297" 
d="M79 0l149 317h-203v35h247v-28l-148 -324h-45z" />
    <glyph glyph-name="eight.subs" unicode="&#x2088;" horiz-adv-x="343" 
d="M32 92q0 35 25 58.5t62 32.5q-30 9 -49.5 30.5t-19.5 50.5q0 43 34 68.5t87 25.5q54 0 88.5 -25.5t34.5 -68.5q0 -29 -20 -50.5t-50 -30.5q37 -9 62 -32.5t25 -58.5q0 -46 -38.5 -72t-101.5 -26q-62 0 -100.5 26t-38.5 72zM73 93q0 -30 27 -47.5t71 -17.5t71.5 17.5
t27.5 47.5q0 31 -28 50t-71 22q-42 -3 -70 -22t-28 -50zM171 198q39 4 61 21.5t22 44.5t-23 43.5t-60 16.5q-36 0 -59 -16.5t-23 -43.5t22.5 -44.5t59.5 -21.5z" />
    <glyph glyph-name="nine.subs" unicode="&#x2089;" horiz-adv-x="334" 
d="M45 19l20 31q32 -20 77 -20q48 0 81 35t36 107q-46 -43 -105 -43q-53 0 -87 31t-34 82q0 49 34 82.5t93 33.5q72 0 106 -47t34 -123q0 -99 -45.5 -146.5t-112.5 -47.5q-51 0 -97 25zM158 163q61 0 101 44q-3 53 -28 85t-72 32q-40 0 -63 -23.5t-23 -57.5q0 -36 23.5 -58
t61.5 -22z" />
    <glyph glyph-name="parenleft.subs" unicode="&#x208d;" horiz-adv-x="219" 
d="M141 494h46q-44 -47 -77 -135.5t-33 -187.5t33.5 -191t76.5 -141h-46q-45 61 -75.5 149t-30.5 183q0 94 30.5 179.5t75.5 143.5z" />
    <glyph glyph-name="parenright.subs" unicode="&#x208e;" horiz-adv-x="219" 
d="M33 494h45q45 -59 76 -144t31 -179q0 -96 -31 -184t-76 -148h-45q43 49 76.5 141t33.5 191t-33.5 187t-76.5 136z" />
    <glyph glyph-name="colonmonitary" unicode="&#x20a1;" horiz-adv-x="583" 
d="M254 -133l30 125q-32 5 -55 13l-32 -138h-38l36 151v1q-69 34 -107.5 101t-38.5 155q0 115 73 189.5t192 82.5l24 105h39l-25 -105q28 -1 55 -6l26 111h38l-28 -121q44 -14 79 -39l-29 -38q-29 20 -62 32l-104 -452h9q102 0 168 58l32 -35q-78 -69 -200 -69
q-3 0 -8.5 0.5t-7.5 0.5l-29 -122h-37zM102 275q0 -145 106 -208l97 433q-91 -9 -147 -70.5t-56 -154.5zM238 52q27 -10 57 -15l103 458q-24 5 -57 7z" />
    <glyph glyph-name="Euro" unicode="&#x20ac;" horiz-adv-x="623" 
d="M32 171v39h90q-5 32 -5 62q0 28 4 51h-89v39h98q26 85 97 135.5t164 50.5q108 0 185 -65l-32 -36q-65 54 -151 54q-73 0 -128.5 -37.5t-79.5 -103.5h212v-37h-221q-5 -27 -5 -51q0 -34 6 -62h220v-37h-209q25 -64 79.5 -100.5t126.5 -36.5q90 0 154 57l38 -32
q-78 -72 -194 -72q-93 0 -162.5 48.5t-97.5 133.5h-100z" />
    <glyph glyph-name="litre" unicode="&#x2113;" horiz-adv-x="456" 
d="M78 195l-15 36q49 26 96 55v278q0 148 116 148q118 0 118 -147q0 -92 -42.5 -161t-135.5 -132v-144q0 -47 16 -70.5t54 -23.5q41 0 68 32l33 -31q-41 -47 -107 -47q-120 0 -120 139v111q-33 -20 -81 -43zM215 563v-239q68 53 99 109.5t31 129.5q0 102 -65 102t-65 -102z
" />
    <glyph glyph-name="numero" unicode="&#x2116;" horiz-adv-x="925" 
d="M63 0v536h57l285 -442v442h56v-536h-58l-284 443v-443h-56zM549 387q0 66 46.5 110t111.5 44t110.5 -44t45.5 -110q0 -68 -45 -111.5t-110 -43.5q-66 0 -112.5 43.5t-46.5 111.5zM596 387q0 -50 33 -81t79 -31t77.5 31t31.5 81q0 48 -32.5 79.5t-77.5 31.5t-78 -31.5
t-33 -79.5z" />
    <glyph glyph-name="servicemark" unicode="&#x2120;" horiz-adv-x="861" 
d="M434 330v370h50l132 -176l131 176h51v-370h-45v307l-136 -182l-139 183v-308h-44zM43 360l25 32q60 -34 129 -34q51 0 77.5 17.5t26.5 47.5t-25.5 46.5t-62 23.5t-73 15.5t-62 32.5t-25.5 64q0 45 38 73.5t103 28.5q71 0 137 -29l-19 -34q-58 27 -118 27q-45 0 -71 -18.5
t-26 -47.5t25.5 -45t62 -23t73.5 -15.5t62.5 -33t25.5 -65.5q0 -47 -38 -75t-111 -28q-84 0 -154 40z" />
    <glyph glyph-name="trademark" unicode="&#x2122;" horiz-adv-x="875" 
d="M447 330v370h51l131 -176l131 176h51v-370h-44v307l-137 -182l-138 183v-308h-45zM184 330v330h-147v40h343v-40h-151v-330h-45z" />
    <glyph glyph-name="ohm" unicode="&#x2126;" horiz-adv-x="770" 
d="M698 0h-246v44q84 68 144 158.5t60 185.5q0 126 -78 200t-193 74t-193 -74t-78 -200q0 -95 60 -185.5t144 -158.5v-44h-246v46h185q-82 67 -138 157t-56 186q0 149 92.5 236t229.5 87t229.5 -87t92.5 -236q0 -96 -56 -186t-138 -157h185v-46z" />
    <glyph glyph-name="estimated" unicode="&#x212e;" horiz-adv-x="662" 
d="M63 261q0 130 79 208.5t209 78.5q111 0 179.5 -66.5t67.5 -174.5q0 -23 -3 -42h-416v-172q67 -62 175 -62q92 0 162 47l25 -36q-80 -54 -187 -54q-130 0 -210.5 75t-80.5 198zM350 507q-105 0 -171 -63v-141h315v153q-57 51 -144 51z" />
    <glyph glyph-name="uni2190" unicode="&#x2190;" horiz-adv-x="900" 
d="M99 332l302 262l32 -36l-241 -205l268 4h341v-50h-341l-268 3l242 -204l-33 -37z" />
    <glyph glyph-name="uni2191" unicode="&#x2191;" horiz-adv-x="900" 
d="M224 339l-37 32l263 302l263 -302l-37 -32l-205 240l4 -267v-342h-50v342l4 267z" />
    <glyph glyph-name="uni2192" unicode="&#x2192;" horiz-adv-x="900" 
d="M499 603l302 -262l-302 -263l-33 37l242 204l-268 -3h-341v50h341l268 -4l-241 205z" />
    <glyph glyph-name="uni2193" unicode="&#x2193;" horiz-adv-x="900" 
d="M187 289l37 32l205 -240l-4 267v342h50v-342l-4 -267l205 240l37 -32l-263 -302z" />
    <glyph glyph-name="uni2196" unicode="&#x2196;" horiz-adv-x="900" 
d="M221 193l-29 400l399 -28l-2 -49l-316 25l192 -185l242 -243l-36 -34l-241 242l-186 191l25 -316z" />
    <glyph glyph-name="uni2197" unicode="&#x2197;" horiz-adv-x="900" 
d="M707 593l-29 -400l-48 3l25 316l-186 -191l-241 -242l-36 34l242 243l192 185l-316 -25l-2 49z" />
    <glyph glyph-name="uni2198" unicode="&#x2198;" horiz-adv-x="900" 
d="M678 469l29 -400l-399 28l2 49l316 -25l-192 185l-242 243l36 34l241 -242l186 -191l-25 316z" />
    <glyph glyph-name="uni2199" unicode="&#x2199;" horiz-adv-x="900" 
d="M192 69l29 400l48 -3l-25 -316l186 191l241 242l36 -34l-242 -243l-192 -185l316 25l2 -49z" />
    <glyph glyph-name="partialdiff" unicode="&#x2202;" horiz-adv-x="590" 
d="M526 251q0 -124 -62.5 -193.5t-167.5 -69.5q-107 0 -169.5 66t-62.5 175q0 102 58.5 164t154.5 62q115 0 190 -81q-4 62 -14.5 111t-31 91.5t-56.5 66t-86 23.5q-83 0 -169 -37l-20 43q96 40 189 40q60 0 105 -25.5t72 -67t43 -103.5t21.5 -124.5t5.5 -140.5zM471 249
q0 50 -1 75q-75 85 -184 85q-76 0 -121.5 -48.5t-45.5 -131.5q0 -88 48.5 -140.5t128.5 -52.5t127.5 56.5t47.5 156.5z" />
    <glyph glyph-name="increment" unicode="&#x2206;" horiz-adv-x="930" 
d="M63 0l403 709l401 -709h-804zM466 612l-318 -563h630z" />
    <glyph glyph-name="product" unicode="&#x220f;" horiz-adv-x="834" 
d="M771 652h-151v-652h-55v652h-296v-652h-55v652h-151v48h708v-48z" />
    <glyph glyph-name="summation" unicode="&#x2211;" horiz-adv-x="668" 
d="M605 0h-542v38l318 318l-302 307v37h514v-48h-434l292 -296l-310 -308h464v-48z" />
    <glyph glyph-name="minus" unicode="&#x2212;" horiz-adv-x="613" 
d="M51 231v50h511v-50h-511z" />
    <glyph glyph-name="radical" unicode="&#x221a;" horiz-adv-x="726" 
d="M18 410l-18 49l194 75l117 -455l355 621h60l-408 -712h-32l-127 479z" />
    <glyph glyph-name="infinity" unicode="&#x221e;" horiz-adv-x="823" 
d="M221 114q48 0 92.5 40t73.5 102q-29 62 -73.5 102t-92.5 40q-52 0 -85.5 -39t-33.5 -103t33.5 -103t85.5 -39zM222 67q-78 0 -124 50.5t-46 138.5q0 87 46 138t124 51q54 0 104 -41t86 -108q35 67 85 108t105 41q78 0 123.5 -51t45.5 -138q0 -88 -45.5 -138.5
t-123.5 -50.5q-55 0 -104.5 41t-85.5 107q-36 -66 -86 -107t-104 -41zM436 256q29 -62 73.5 -102t92.5 -40q53 0 86 38.5t33 103.5t-33 103.5t-86 38.5q-48 0 -92.5 -40t-73.5 -102z" />
    <glyph glyph-name="integral" unicode="&#x222b;" horiz-adv-x="412" 
d="M211 568v-576q0 -201 -211 -201v46q79 0 117 37.5t38 117.5v576q0 99 51 146t140 47q36 0 66 -10l-13 -44q-32 8 -52 8q-65 0 -100.5 -36.5t-35.5 -110.5z" />
    <glyph glyph-name="approxequal" unicode="&#x2248;" horiz-adv-x="613" 
d="M52 319q0 4 -0.5 10t-0.5 9q0 59 32 92.5t86 33.5q46 0 96.5 -28t96 -56t81.5 -28q35 0 55.5 23.5t16.5 70.5h46q0 -4 0.5 -10t0.5 -9q0 -59 -32 -92.5t-86 -33.5q-37 0 -77 17.5t-68.5 38.5t-64 38.5t-63.5 17.5q-36 0 -56.5 -23.5t-16.5 -70.5h-46zM52 66q0 4 -0.5 10
t-0.5 9q0 58 32 91.5t86 33.5q46 0 96.5 -28t96 -56t81.5 -28q35 0 55.5 23.5t16.5 70.5h46q0 -4 0.5 -10t0.5 -9q0 -59 -32 -92.5t-86 -33.5q-37 0 -77 17.5t-68.5 38.5t-64 38.5t-63.5 17.5q-36 0 -56.5 -23t-16.5 -70h-46z" />
    <glyph glyph-name="notequal" unicode="&#x2260;" horiz-adv-x="613" 
d="M51 351v50h334l77 110h49l-77 -110h128v-50h-162l-131 -190h293v-50h-328l-77 -111h-49l77 111h-134v50h169l132 190h-301z" />
    <glyph glyph-name="lessequal" unicode="&#x2264;" horiz-adv-x="644" 
d="M579 44l-536 208v57l536 202v-55l-462 -176l462 -181v-55zM43 0v44h536v-44h-536z" />
    <glyph glyph-name="greaterequal" unicode="&#x2265;" horiz-adv-x="644" 
d="M602 252l-536 -208v55l462 181l-462 176v55l536 -202v-57zM602 44v-44h-536v44h536z" />
    <glyph glyph-name="uni25A0" unicode="&#x25a0;" horiz-adv-x="900" 
d="M100 0v700h699v-700h-699z" />
    <glyph glyph-name="uni25A1" unicode="&#x25a1;" horiz-adv-x="900" 
d="M100 0v700h699v-700h-699zM137 37h625v626h-625v-626z" />
    <glyph glyph-name="uni25A3" unicode="&#x25a3;" horiz-adv-x="900" 
d="M100 0v700h699v-700h-699zM137 37h625v626h-625v-626zM268 189l150 160l-150 160l34 33l149 -159l148 158l34 -32l-149 -160l150 -159l-35 -33l-148 159l-150 -159z" />
    <glyph glyph-name="uni25B2" unicode="&#x25b2;" horiz-adv-x="900" 
d="M120 63l330 554l329 -554h-659z" />
    <glyph glyph-name="uni25B6" unicode="&#x25b6;" horiz-adv-x="900" 
d="M727 332l-554 -330v659z" />
    <glyph glyph-name="uni25BC" unicode="&#x25bc;" horiz-adv-x="900" 
d="M779 609l-330 -554l-329 554h659z" />
    <glyph glyph-name="uni25C0" unicode="&#x25c0;" horiz-adv-x="900" 
d="M727 2l-554 330l554 329v-659z" />
    <glyph glyph-name="uni25C9" unicode="&#x25c9;" horiz-adv-x="900" 
d="M343 349q0 -43 31.5 -74.5t74.5 -31.5q44 0 75.5 31t31.5 75t-31.5 75.5t-75.5 31.5t-75 -31.5t-31 -75.5zM215 349q0 98 68 166.5t166 68.5t166.5 -68.5t68.5 -166.5t-68.5 -166t-166.5 -68q-97 0 -165.5 68.5t-68.5 165.5zM87 349q0 150 106 256.5t256 106.5
t256.5 -106.5t106.5 -256.5t-106.5 -256t-256.5 -106t-256 106t-106 256zM149 349q0 -125 88.5 -213t212.5 -88q125 0 213.5 88.5t88.5 212.5q0 125 -89 213.5t-213 88.5t-212.5 -88.5t-88.5 -213.5z" />
    <glyph glyph-name="lozenge" unicode="&#x25ca;" horiz-adv-x="631" 
d="M120 351l196 -289l197 289l-197 289zM65 351l250 364l251 -364l-251 -364z" />
    <glyph glyph-name="uni25CB" unicode="&#x25cb;" horiz-adv-x="900" 
d="M87 349q0 150 106 256.5t256 106.5t256.5 -106.5t106.5 -256.5t-106.5 -256t-256.5 -106t-256 106t-106 256zM125 349q0 -135 95 -230.5t230 -95.5t230.5 95.5t95.5 230.5q0 134 -95.5 230t-230.5 96t-230 -95.5t-95 -230.5z" />
    <glyph glyph-name="uni25CD" unicode="&#x25cd;" horiz-adv-x="900" 
d="M87 349q0 150 106 256.5t256 106.5t256.5 -106.5t106.5 -256.5t-106.5 -256t-256.5 -106t-256 106t-106 256zM125 349q0 -135 95 -230.5t230 -95.5t230.5 95.5t95.5 230.5q0 134 -95.5 230t-230.5 96t-230 -95.5t-95 -230.5zM268 189l150 160l-150 160l34 33l149 -159
l148 158l34 -32l-149 -160l150 -159l-35 -33l-148 159l-150 -159z" />
    <glyph glyph-name="uni25CE" unicode="&#x25ce;" horiz-adv-x="900" 
d="M405 349q0 -18 12.5 -30.5t31.5 -12.5q18 0 31 12.5t13 30.5q0 19 -13 32t-31 13q-19 0 -31.5 -13t-12.5 -32zM343 349q0 44 31 75.5t75 31.5t75.5 -31.5t31.5 -75.5t-31.5 -75t-75.5 -31q-43 0 -74.5 31.5t-31.5 74.5zM215 349q0 98 68 166.5t166 68.5t166.5 -68.5
t68.5 -166.5t-68.5 -166t-166.5 -68q-97 0 -165.5 68.5t-68.5 165.5zM277 349q0 -71 50.5 -121.5t121.5 -50.5q72 0 122.5 50.5t50.5 121.5q0 72 -50.5 122.5t-122.5 50.5q-71 0 -121.5 -50.5t-50.5 -122.5zM87 349q0 150 106 256.5t256 106.5t256.5 -106.5t106.5 -256.5
t-106.5 -256t-256.5 -106t-256 106t-106 256zM149 349q0 -125 88.5 -213t212.5 -88q125 0 213.5 88.5t88.5 212.5q0 125 -89 213.5t-213 88.5t-212.5 -88.5t-88.5 -213.5z" />
    <glyph glyph-name="uni25CF" unicode="&#x25cf;" horiz-adv-x="900" 
d="M87 349q0 150 106 256.5t256 106.5t256.5 -106.5t106.5 -256.5t-106.5 -256t-256.5 -106t-256 106t-106 256z" />
    <glyph glyph-name="uni25E2" unicode="&#x25e2;" horiz-adv-x="900" 
d="M765 0h-645l645 645v-645z" />
    <glyph glyph-name="uni25E3" unicode="&#x25e3;" horiz-adv-x="900" 
d="M780 0h-645v645z" />
    <glyph glyph-name="uni25E4" unicode="&#x25e4;" horiz-adv-x="900" 
d="M135 700h645l-645 -645v645z" />
    <glyph glyph-name="uni25E5" unicode="&#x25e5;" horiz-adv-x="900" 
d="M120 700h645v-645z" />
    <glyph glyph-name="uni2605" unicode="&#x2605;" horiz-adv-x="900" 
d="M267 101l182 96l181 -96l-35 201l147 144l-203 29l-90 184l-90 -184l-203 -29l147 -144zM87 349q0 150 106 256.5t256 106.5t256.5 -106.5t106.5 -256.5t-106.5 -256t-256.5 -106t-256 106t-106 256z" />
    <glyph glyph-name="uni2620" unicode="&#x2620;" horiz-adv-x="900" 
d="M479 296q0 20 13 31.5t34 11.5q22 0 41.5 -20.5t19.5 -36.5q0 -14 -14.5 -27t-29.5 -13q-11 0 -18.5 4.5t-13.5 13t-7 9.5q-25 22 -25 27zM450 172q-28 0 -28 27q7 49 28 51q21 -2 28 -51q0 -27 -28 -27zM315 282q0 16 19.5 36.5t41.5 20.5q21 0 34 -11.5t13 -31.5
q0 -7 -25 -27q-1 -1 -7 -9.5t-13.5 -13t-18.5 -4.5q-14 0 -29 13.5t-15 26.5zM454 604q-104 0 -163.5 -53t-59.5 -144q0 -37 29 -75q7 -19 7 -42q0 -6 -7 -41q0 -37 30 -43q36 -7 48.5 -23.5t12.5 -55.5q0 -24 26 -36h147q26 12 26 36q0 39 12.5 55.5t47.5 23.5q31 6 31 43
q-7 35 -7 41q0 23 7 42q29 38 29 85q0 86 -59 136.5t-157 50.5zM87 349q0 150 106 256.5t256 106.5t256.5 -106.5t106.5 -256.5t-106.5 -256t-256.5 -106t-256 106t-106 256z" />
    <glyph glyph-name="interrobangdown" unicode="&#x2e18;" horiz-adv-x="493" 
d="M291 309l3 -446v-15q80 10 140 72l35 -34q-85 -87 -202 -87q-97 0 -155.5 49t-58.5 126q0 50 20 87.5t48.5 61t57 46t49 55t20.5 74.5v11h43zM236 -146l24 360q-10 -28 -30.5 -52.5t-41 -42t-39.5 -37t-31 -46.5t-12 -62q0 -49 35 -83.5t95 -42.5v6zM300 511v-99h-60v99
h60z" />
    <glyph glyph-name="anglebracketleft" unicode="&#x3008;" horiz-adv-x="394" 
d="M61 273l212 482h60l-214 -482l213 -473h-59z" />
    <glyph glyph-name="anglebracketright" unicode="&#x3009;" horiz-adv-x="394" 
d="M121 755l212 -482l-212 -473h-59l213 473l-214 482h60z" />
    <glyph glyph-name="Eacutedotbelow" unicode="&#xe004;" horiz-adv-x="634" 
d="M295 755l111 125l45 -34l-112 -91h-44zM90 0v700h467v-51h-411v-268h371v-48h-371v-282h417v-51h-473zM297 -174v65h59v-65h-59z" />
    <glyph glyph-name="Egravedotbelow" unicode="&#xe005;" horiz-adv-x="634" 
d="M313 755l-111 91l45 34l111 -125h-45zM90 0v700h467v-51h-411v-268h371v-48h-371v-282h417v-51h-473zM297 -174v65h59v-65h-59z" />
    <glyph glyph-name="Hmacronbelow" unicode="&#xe009;" horiz-adv-x="697" 
d="M90 0v700h56v-318h405v318h57v-700h-57v331h-405v-331h-56zM208 -161v42h282v-42h-282z" />
    <glyph glyph-name="Jcaron" unicode="&#xe00c;" horiz-adv-x="566" 
d="M422 755l-128 108h41l117 -72h1l116 72h41l-128 -108h-60zM54 135l48 23q18 -51 57.5 -85t101.5 -34q81 0 121.5 51t40.5 138v472h57v-472q0 -112 -55 -176t-162 -64q-80 0 -132.5 41.5t-76.5 105.5z" />
    <glyph glyph-name="Kcedilla" unicode="&#xe00d;" horiz-adv-x="663" 
d="M90 0v700h56v-423l373 423h69l-230 -260l258 -440h-68l-227 398l-175 -197v-201h-56zM302 -49h41q-27 -93 -105 -165l-46 23q79 64 110 142z" />
    <glyph glyph-name="Lcedilla" unicode="&#xe00e;" horiz-adv-x="604" 
d="M299 -49h41q-27 -93 -105 -165l-46 23q79 64 110 142zM90 0v700h56v-649h410v-51h-466z" />
    <glyph glyph-name="Mmacron" unicode="&#xe00f;" horiz-adv-x="845" 
d="M282 788v42h282v-42h-282zM90 0v700h67l266 -392l266 392h67v-700h-55v626l-278 -406l-278 408v-628h-55z" />
    <glyph glyph-name="Mcedilla" unicode="&#xe010;" horiz-adv-x="845" 
d="M402 -49h41q-27 -93 -105 -165l-46 23q79 64 110 142zM90 0v700h67l266 -392l266 392h67v-700h-55v626l-278 -406l-278 408v-628h-55z" />
    <glyph glyph-name="Ngrave" unicode="&#xe011;" horiz-adv-x="718" 
d="M345 755l-111 91l45 34l111 -125h-45zM90 0v700h62l421 -619v619h55v-700h-63l-420 618v-618h-55z" />
    <glyph glyph-name="Ndieresis" unicode="&#xe012;" horiz-adv-x="718" 
d="M426 777v65h56v-65h-56zM236 777v65h56v-65h-56zM90 0v700h62l421 -619v619h55v-700h-63l-420 618v-618h-55z" />
    <glyph glyph-name="Nmacron" unicode="&#xe013;" horiz-adv-x="718" 
d="M218 788v42h282v-42h-282zM90 0v700h62l421 -619v619h55v-700h-63l-420 618v-618h-55z" />
    <glyph glyph-name="Ncedilla" unicode="&#xe014;" horiz-adv-x="718" 
d="M338 -49h41q-27 -93 -105 -165l-46 23q79 64 110 142zM90 0v700h62l421 -619v619h55v-700h-63l-420 618v-618h-55z" />
    <glyph glyph-name="Ndescender" unicode="&#xe015;" horiz-adv-x="718" 
d="M90 0v700h62l421 -619v619h55v-900h-55v200h-8l-420 618v-618h-55z" />
    <glyph glyph-name="Ocommaturnedabove" unicode="&#xe017;" horiz-adv-x="808" 
d="M446 793v-36q-16 -4 -32 -4q-59 0 -61 52q0 36 43 70h41q-39 -36 -39 -63q0 -22 26 -22q12 0 22 3zM60 355q0 159 99 258t245 99t245 -99t99 -258q0 -167 -97.5 -267t-246.5 -100t-246.5 100t-97.5 267zM118 355q0 -145 81.5 -231t204.5 -86t204.5 86t81.5 231
q0 137 -82.5 222t-203.5 85t-203.5 -85t-82.5 -222z" />
    <glyph glyph-name="Ocedilla" unicode="&#xe01b;" horiz-adv-x="808" 
d="M383 -49h41q-27 -93 -105 -165l-46 23q79 64 110 142zM60 355q0 159 99 258t245 99t245 -99t99 -258q0 -167 -97.5 -267t-246.5 -100t-246.5 100t-97.5 267zM118 355q0 -145 81.5 -231t204.5 -86t204.5 86t81.5 231q0 137 -82.5 222t-203.5 85t-203.5 -85t-82.5 -222z
" />
    <glyph glyph-name="Ounderlineaccent" unicode="&#xe01c;" horiz-adv-x="808" 
d="M60 355q0 159 99 258t245 99t245 -99t99 -258q0 -167 -97.5 -267t-246.5 -100t-246.5 100t-97.5 267zM118 355q0 -145 81.5 -231t204.5 -86t204.5 86t81.5 231q0 137 -82.5 222t-203.5 85t-203.5 -85t-82.5 -222zM380 -201v148h49v-148h-49z" />
    <glyph glyph-name="Pmacron" unicode="&#xe01e;" horiz-adv-x="655" 
d="M90 0v700h271q119 0 175 -59t56 -144q0 -38 -12.5 -73t-38.5 -65.5t-72.5 -49t-108.5 -18.5h-214v-291h-56zM146 339h214q89 0 132.5 46.5t43.5 110.5q0 65 -42.5 110t-132.5 45h-215v-312zM184 788v42h282v-42h-282z" />
    <glyph glyph-name="Rcedilla" unicode="&#xe020;" horiz-adv-x="673" 
d="M90 0v700h284q118 0 174.5 -59t56.5 -144q0 -68 -40.5 -124t-118.5 -74l156 -299h-63l-147 292h-17h-229v-292h-56zM146 339h226q89 0 132.5 46.5t43.5 110.5q0 65 -42.5 110t-131.5 45h-228v-312zM307 -49h41q-27 -93 -105 -165l-46 23q79 64 110 142z" />
    <glyph glyph-name="Euro.LP" unicode="&#xe022;" horiz-adv-x="676" 
d="M32 229v40h100q-6 42 -6 89q0 40 4 71h-98v40h105q25 113 99 178t185 65q119 0 205 -73l-31 -40q-74 63 -173 63q-88 0 -146 -51.5t-80 -142.5h238v-39h-246q-4 -31 -4 -71q0 -47 6 -89h244v-39h-236q24 -91 81.5 -141.5t143.5 -50.5q108 0 178 72l38 -34
q-82 -88 -218 -88q-109 0 -181.5 64t-99.5 177h-108z" />
    <glyph glyph-name="Umacronbelow" unicode="&#xe023;" horiz-adv-x="712" 
d="M215 -161v42h282v-42h-282zM87 256v444h57v-444q0 -103 60 -160.5t152 -57.5t152.5 57.5t60.5 160.5v444h57v-444q0 -129 -75.5 -198.5t-194.5 -69.5q-118 0 -193.5 69.5t-75.5 198.5z" />
    <glyph glyph-name="eacutedotbelow" unicode="&#xe028;" horiz-adv-x="559" 
d="M58 262q0 118 67 189.5t171 71.5q101 0 151.5 -61t50.5 -162q0 -17 -2 -37h-383v-2q0 -108 47 -167t139 -59q83 0 154 49l27 -39q-81 -57 -183 -57q-116 0 -177.5 72t-61.5 202zM297 479q-72 0 -121.5 -47t-59.5 -128h328q2 77 -34 126t-113 49zM259 566l139 169l41 -32
l-141 -137h-39zM264 -174v65h58v-65h-58z" />
    <glyph glyph-name="egravedotbelow" unicode="&#xe029;" horiz-adv-x="559" 
d="M58 262q0 118 67 189.5t171 71.5q101 0 151.5 -61t50.5 -162q0 -17 -2 -37h-383v-2q0 -108 47 -167t139 -59q83 0 154 49l27 -39q-81 -57 -183 -57q-116 0 -177.5 72t-61.5 202zM297 479q-72 0 -121.5 -47t-59.5 -128h328q2 77 -34 126t-113 49zM288 566l-141 137l41 32
l139 -169h-39zM264 -174v65h58v-65h-58z" />
    <glyph glyph-name="idotaccent" unicode="&#xe030;" 
d="M88 0v509h55v-509h-55zM88 658v81h55v-81h-55z" />
    <glyph glyph-name="kcedilla" unicode="&#xe031;" horiz-adv-x="515" 
d="M88 0v755h55v-526l254 282h65l-154 -167l182 -344h-63l-155 304l-129 -141v-163h-55zM265 -49h41q-27 -93 -105 -165l-46 23q79 64 110 142z" />
    <glyph glyph-name="lcedilla" unicode="&#xe032;" horiz-adv-x="234" 
d="M96 -49h41q-27 -93 -105 -165l-46 23q79 64 110 142zM92 0v755h55v-755h-55z" />
    <glyph glyph-name="mmacron" unicode="&#xe033;" horiz-adv-x="881" 
d="M84 0v511h50l5 -71q81 83 179 83q107 0 140 -88q84 88 188 88q79 0 116 -45t37 -125v-353h-56v353q0 124 -107 124q-94 0 -168 -85q3 -21 3 -42v-350h-56v353q0 124 -107 124q-95 0 -169 -87v-390h-55zM300 623v42h281v-42h-281z" />
    <glyph glyph-name="mcedilla" unicode="&#xe034;" horiz-adv-x="881" 
d="M418 -49h41q-27 -93 -105 -165l-46 23q79 64 110 142zM84 0v511h50l5 -71q81 83 179 83q107 0 140 -88q84 88 188 88q79 0 116 -45t37 -125v-353h-56v353q0 124 -107 124q-94 0 -168 -85q3 -21 3 -42v-350h-56v353q0 124 -107 124q-95 0 -169 -87v-390h-55z" />
    <glyph glyph-name="ngrave" unicode="&#xe035;" horiz-adv-x="566" 
d="M279 566l-141 137l41 32l139 -169h-39zM84 0v511h50l5 -76q83 88 187 88q159 0 159 -171v-352h-56v353q0 124 -113 124q-102 0 -177 -93v-384h-55z" />
    <glyph glyph-name="ndieresis" unicode="&#xe036;" horiz-adv-x="566" 
d="M347 612v65h56v-65h-56zM166 612v65h56v-65h-56zM84 0v511h50l5 -76q83 88 187 88q159 0 159 -171v-352h-56v353q0 124 -113 124q-102 0 -177 -93v-384h-55z" />
    <glyph glyph-name="nmacron" unicode="&#xe037;" horiz-adv-x="566" 
d="M143 623v42h281v-42h-281zM84 0v511h50l5 -76q83 88 187 88q159 0 159 -171v-352h-56v353q0 124 -113 124q-102 0 -177 -93v-384h-55z" />
    <glyph glyph-name="ncedilla" unicode="&#xe038;" horiz-adv-x="566" 
d="M261 -49h41q-27 -93 -105 -165l-46 23q79 64 110 142zM84 0v511h50l5 -76q83 88 187 88q159 0 159 -171v-352h-56v353q0 124 -113 124q-102 0 -177 -93v-384h-55z" />
    <glyph glyph-name="ndescender" unicode="&#xe039;" horiz-adv-x="566" 
d="M84 0v511h50l5 -76q83 88 187 88q159 0 159 -171v-552h-56v553q0 124 -113 124q-102 0 -177 -93v-384h-55z" />
    <glyph glyph-name="ocommaturnedabove" unicode="&#xe03b;" horiz-adv-x="594" 
d="M338 604v-36q-18 -4 -34 -4q-37 0 -56 18t-19 48q-1 46 55 95h41q-51 -51 -51 -88q0 -36 39 -36q5 0 13.5 1.5t11.5 1.5zM58 262q0 117 67.5 189t172.5 72t172 -72t67 -189q0 -125 -66 -199.5t-173 -74.5q-109 0 -174.5 74.5t-65.5 199.5zM114 262q0 -104 50 -166.5
t134 -62.5q83 0 132.5 62.5t49.5 166.5q0 97 -51 156t-131 59q-81 0 -132.5 -59t-51.5 -156z" />
    <glyph glyph-name="ocedilla" unicode="&#xe03f;" horiz-adv-x="594" 
d="M273 -49h41q-27 -93 -105 -165l-46 23q79 64 110 142zM58 262q0 117 67.5 189t172.5 72t172 -72t67 -189q0 -125 -66 -199.5t-173 -74.5q-109 0 -174.5 74.5t-65.5 199.5zM114 262q0 -104 50 -166.5t134 -62.5q83 0 132.5 62.5t49.5 166.5q0 97 -51 156t-131 59
q-81 0 -132.5 -59t-51.5 -156z" />
    <glyph glyph-name="ounderlineaccent" unicode="&#xe040;" horiz-adv-x="594" 
d="M273 -201v148h49v-148h-49zM58 262q0 117 67.5 189t172.5 72t172 -72t67 -189q0 -125 -66 -199.5t-173 -74.5q-109 0 -174.5 74.5t-65.5 199.5zM114 262q0 -104 50 -166.5t134 -62.5q83 0 132.5 62.5t49.5 166.5q0 97 -51 156t-131 59q-81 0 -132.5 -59t-51.5 -156z" />
    <glyph glyph-name="pmacron" unicode="&#xe042;" horiz-adv-x="579" 
d="M142 72v-272h-55v711h48l6 -73q78 85 170 85q96 0 153 -69.5t57 -190.5q0 -128 -55.5 -201.5t-153.5 -73.5q-94 0 -170 84zM142 120q71 -86 160 -86q78 0 121 61.5t43 167.5q0 99 -44.5 156.5t-120.5 57.5q-83 0 -159 -86v-271zM163 623v42h281v-42h-281z" />
    <glyph glyph-name="rcedilla" unicode="&#xe044;" horiz-adv-x="385" 
d="M84 0v511h49l6 -89q59 101 161 101q36 0 62 -8l-11 -53q-29 9 -57 9q-93 0 -155 -107v-364h-55zM89 -49h41q-27 -93 -105 -165l-46 23q79 64 110 142z" />
    <glyph glyph-name="umacronbelow" unicode="&#xe047;" horiz-adv-x="567" 
d="M82 159v352h55v-353q0 -125 113 -125q101 0 178 93v385h55v-511h-48l-7 75q-83 -87 -187 -87q-159 0 -159 171zM142 -160v42h281v-42h-281z" />
    <glyph glyph-name="Atilde.small" unicode="&#xe060;" horiz-adv-x="595" 
d="M32 0l233 536h65l234 -536h-60l-65 153h-282l-65 -153h-60zM297 481l-121 -284h244l-121 284h-2zM160 624q-5 47 15.5 74t57.5 27q31 0 70.5 -34.5t58.5 -34.5t29.5 15.5t7.5 43.5h37q6 -47 -14.5 -74.5t-57.5 -27.5q-31 0 -70.5 34.5t-58.5 34.5q-20 0 -30.5 -15.5
t-6.5 -42.5h-38z" />
    <glyph glyph-name="A.small" unicode="&#xe06c;" horiz-adv-x="595" 
d="M32 0l233 536h65l234 -536h-60l-65 153h-282l-65 -153h-60zM297 481l-121 -284h244l-121 284h-2z" />
    <glyph glyph-name="B.small" unicode="&#xe06d;" horiz-adv-x="582" 
d="M88 0v536h232q93 0 139.5 -38t46.5 -99q0 -43 -24 -76t-67 -46q54 -12 85 -45t31 -82q0 -70 -53.5 -110t-139.5 -40h-250zM143 294h176q67 0 99.5 27.5t32.5 73.5q0 44 -32 70t-100 26h-176v-197zM143 45h194q61 0 99.5 28t38.5 79q0 50 -38 75t-100 25h-194v-207z" />
    <glyph glyph-name="C.small" unicode="&#xe06e;" horiz-adv-x="593" 
d="M58 275q0 121 79.5 197.5t206.5 76.5q107 0 187 -57l-30 -39q-68 48 -156 48q-104 0 -168 -62.5t-64 -163.5q0 -108 63.5 -174t168.5 -66q103 0 167 58l33 -36q-78 -69 -201 -69q-130 0 -208 79.5t-78 207.5z" />
    <glyph glyph-name="D.small" unicode="&#xe06f;" horiz-adv-x="622" 
d="M88 0v536h168q150 0 229 -69t79 -192q0 -132 -77.5 -203.5t-230.5 -71.5h-168zM143 47h115q126 0 188.5 59t62.5 170q0 102 -64 158t-187 56h-115v-443z" />
    <glyph glyph-name="E.small" unicode="&#xe070;" horiz-adv-x="553" 
d="M88 0v536h399v-47h-344v-194h310v-44h-310v-204h349v-47h-404z" />
    <glyph glyph-name="F.small" unicode="&#xe071;" horiz-adv-x="541" 
d="M88 0v536h392v-47h-337v-194h301v-45h-301v-250h-55z" />
    <glyph glyph-name="G.small" unicode="&#xe072;" horiz-adv-x="621" 
d="M58 275q0 121 79.5 197.5t208.5 76.5q103 0 187 -48l-27 -40q-67 40 -160 40q-104 0 -168.5 -62.5t-64.5 -163.5q0 -110 62.5 -175t170.5 -65q88 0 146 35v166h-158v42h210v-235q-83 -55 -199 -55q-132 0 -209.5 78t-77.5 209z" />
    <glyph glyph-name="H.small" unicode="&#xe073;" horiz-adv-x="609" 
d="M88 0v536h55v-239h323v239h55v-536h-55v249h-323v-249h-55z" />
    <glyph glyph-name="I.small" unicode="&#xe074;" 
d="M87 0v536h56v-536h-56z" />
    <glyph glyph-name="J.small" unicode="&#xe075;" horiz-adv-x="487" 
d="M42 105l44 24q35 -93 130 -93q68 0 101 40t33 110v350h55v-351q0 -91 -47 -144t-140 -53q-126 0 -176 117z" />
    <glyph glyph-name="K.small" unicode="&#xe076;" horiz-adv-x="579" 
d="M88 0v536h55v-313l313 313h68l-198 -198l213 -338h-64l-187 300l-145 -145v-155h-55z" />
    <glyph glyph-name="L.small" unicode="&#xe077;" horiz-adv-x="528" 
d="M87 0v536h56v-488h342v-48h-398z" />
    <glyph glyph-name="M.small" unicode="&#xe078;" horiz-adv-x="731" 
d="M88 0v536h62l216 -290l215 290h62v-536h-55v466l-223 -300l-223 299v-465h-54z" />
    <glyph glyph-name="N.small" unicode="&#xe079;" horiz-adv-x="628" 
d="M88 0v536h58l341 -456v456h54v-536h-59l-340 456v-456h-54z" />
    <glyph glyph-name="O.small" unicode="&#xe07a;" horiz-adv-x="680" 
d="M58 271q0 120 82.5 199t200.5 79q117 0 199.5 -79t82.5 -199q0 -126 -81.5 -204t-200.5 -78q-120 0 -201.5 77.5t-81.5 204.5zM114 271q0 -105 65.5 -170t161.5 -65t161 65t65 170q0 100 -66 165t-160 65q-95 0 -161 -65t-66 -165z" />
    <glyph glyph-name="P.small" unicode="&#xe07b;" horiz-adv-x="583" 
d="M143 259h177q73 0 108 34t35 81q0 49 -34 82t-107 33h-179v-230zM88 0v536h235q100 0 147.5 -47t47.5 -114q0 -66 -48 -114.5t-148 -48.5h-179v-212h-55z" />
    <glyph glyph-name="Q.small" unicode="&#xe07c;" horiz-adv-x="682" 
d="M58 271q0 120 82.5 199t200.5 79q117 0 199.5 -79t82.5 -199q0 -110 -65 -186l79 -64l-29 -33l-80 66q-77 -65 -187 -65q-120 0 -201.5 77.5t-81.5 204.5zM381 176l28 32l108 -90q50 63 50 153q0 100 -66 165t-160 65q-95 0 -161 -65t-66 -165q0 -105 65.5 -170
t161.5 -65q84 0 147 52z" />
    <glyph glyph-name="R.small" unicode="&#xe07d;" horiz-adv-x="592" 
d="M88 0v536h241q101 0 148.5 -47t47.5 -114q0 -52 -31.5 -95t-97.5 -59l127 -221h-60l-119 214h-16h-185v-214h-55zM143 259h184q72 0 107 34t35 82t-34 81t-107 33h-185v-230z" />
    <glyph glyph-name="S.small" unicode="&#xe07e;" horiz-adv-x="521" 
d="M50 42l27 42q77 -49 183 -49q76 0 114.5 27.5t38.5 73.5q0 45 -36.5 70t-88 35.5t-103 23t-88 46.5t-36.5 92q0 64 53.5 105t146.5 41q104 0 186 -39l-22 -43q-76 35 -165 35q-67 0 -105.5 -27.5t-38.5 -70.5q0 -45 36.5 -69t88 -34.5t103.5 -23t88.5 -47t36.5 -93.5
q0 -67 -53.5 -108t-154.5 -41q-122 0 -211 54z" />
    <glyph glyph-name="T.small" unicode="&#xe07f;" horiz-adv-x="553" 
d="M249 0v488h-218v48h490v-48h-216v-488h-56z" />
    <glyph glyph-name="U.small" unicode="&#xe080;" horiz-adv-x="623" 
d="M82 209v327h55v-327q0 -83 49 -128.5t125 -45.5t125 45.5t49 128.5v327h56v-327q0 -105 -65 -163t-165 -58t-164.5 58t-64.5 163z" />
    <glyph glyph-name="V.small" unicode="&#xe081;" horiz-adv-x="567" 
d="M249 0l-220 536h59l194 -482h2l195 482h59l-221 -536h-68z" />
    <glyph glyph-name="W.small" unicode="&#xe082;" horiz-adv-x="862" 
d="M218 0l-188 536h58l160 -466h2l153 466h59l151 -467h2l161 467h57l-188 -536h-60l-153 462h-2l-152 -462h-60z" />
    <glyph glyph-name="X.small" unicode="&#xe083;" horiz-adv-x="586" 
d="M37 0l220 273l-211 263h68l179 -222l179 222h68l-212 -263l221 -273h-68l-189 232l-187 -232h-68z" />
    <glyph glyph-name="Y.small" unicode="&#xe084;" horiz-adv-x="559" 
d="M251 0v214l-222 322h67l182 -269h2l184 269h67l-225 -322v-214h-55z" />
    <glyph glyph-name="Z.small" unicode="&#xe085;" horiz-adv-x="566" 
d="M58 0v45l371 443h-369v48h441v-43l-372 -445h382v-48h-453z" />
    <glyph glyph-name="Aacute.small" unicode="&#xe086;" horiz-adv-x="595" 
d="M264 591l139 169l41 -32l-141 -137h-39zM32 0l233 536h65l234 -536h-60l-65 153h-282l-65 -153h-60zM297 481l-121 -284h244l-121 284h-2z" />
    <glyph glyph-name="Agrave.small" unicode="&#xe087;" horiz-adv-x="595" 
d="M32 0l233 536h65l234 -536h-60l-65 153h-282l-65 -153h-60zM297 481l-121 -284h244l-121 284h-2zM293 591l-141 137l41 32l139 -169h-39z" />
    <glyph glyph-name="Acircumflex.small" unicode="&#xe088;" horiz-adv-x="595" 
d="M32 0l233 536h65l234 -536h-60l-65 153h-282l-65 -153h-60zM297 481l-121 -284h244l-121 284h-2zM141 591l126 157h62l126 -157h-42l-114 120h-2l-115 -120h-41z" />
    <glyph glyph-name="Adieresis.small" unicode="&#xe089;" horiz-adv-x="595" 
d="M361 637v65h56v-65h-56zM180 637v65h56v-65h-56zM32 0l233 536h65l234 -536h-60l-65 153h-282l-65 -153h-60zM297 481l-121 -284h244l-121 284h-2z" />
    <glyph glyph-name="colonmonitary.LP" unicode="&#xe08a;" horiz-adv-x="596" 
d="M275 0l18 74q-21 3 -54 13l-21 -87h-37l23 101q-69 34 -107.5 101t-38.5 156q0 115 73 189.5t193 82.5l15 70h39l-16 -70q31 -2 55 -7l17 77h39l-20 -86q42 -15 78 -39l-29 -38q-28 19 -61 31l-103 -451h7q102 0 167 57l33 -34q-78 -69 -200 -69h-15l-17 -71h-38z
M111 358q0 -145 106 -208l98 433q-92 -9 -148 -70t-56 -155zM248 134q23 -9 57 -14l104 458q-25 5 -59 7z" />
    <glyph glyph-name="Aring.small" unicode="&#xe08b;" horiz-adv-x="595" 
d="M32 0l224 517q-25 11 -40.5 34.5t-15.5 52.5q0 40 28.5 68t69.5 28q40 0 68.5 -28t28.5 -68q0 -29 -16 -52.5t-41 -35.5l226 -516h-60l-65 153h-282l-65 -153h-60zM297 481l-121 -284h244l-121 284h-2zM229 604q0 -25 16.5 -44.5t40.5 -23.5h23q24 4 40.5 23t16.5 45
q0 29 -19.5 49t-48.5 20t-49 -20t-20 -49z" />
    <glyph glyph-name="Acaron.small" unicode="&#xe08c;" horiz-adv-x="595" 
d="M267 591l-126 157h41l115 -120h2l114 120h42l-126 -157h-62zM32 0l233 536h65l234 -536h-60l-65 153h-282l-65 -153h-60zM297 481l-121 -284h244l-121 284h-2z" />
    <glyph glyph-name="Amacron.small" unicode="&#xe08d;" horiz-adv-x="595" 
d="M157 648v42h281v-42h-281zM32 0l233 536h65l234 -536h-60l-65 153h-282l-65 -153h-60zM297 481l-121 -284h244l-121 284h-2z" />
    <glyph glyph-name="Abreve.small" unicode="&#xe08e;" horiz-adv-x="595" 
d="M32 0l233 536h65l234 -536h-60l-65 153h-282l-65 -153h-60zM297 481l-121 -284h244l-121 284h-2zM298 588q-65 0 -107 43t-48 117h40q7 -54 37.5 -85.5t77.5 -31.5t78 32t36 85h41q-6 -74 -48 -117t-107 -43z" />
    <glyph glyph-name="Ainvertedbreve.small" unicode="&#xe08f;" horiz-adv-x="595" 
d="M32 0l233 536h65l234 -536h-60l-65 153h-282l-65 -153h-60zM297 481l-121 -284h244l-121 284h-2zM298 750q65 0 106.5 -42.5t48.5 -116.5h-41q-6 54 -36.5 85.5t-77.5 31.5q-48 0 -79 -32t-36 -85h-40q5 74 47 116.5t108 42.5z" />
    <glyph glyph-name="Adoublegrave.small" unicode="&#xe090;" horiz-adv-x="595" 
d="M32 0l233 536h65l234 -536h-60l-65 153h-282l-65 -153h-60zM297 481l-121 -284h244l-121 284h-2zM121 760l136 -169h-39l-138 139zM262 760l135 -169h-38l-138 139z" />
    <glyph glyph-name="Adotabove.small" unicode="&#xe091;" horiz-adv-x="595" 
d="M32 0l233 536h65l234 -536h-60l-65 153h-282l-65 -153h-60zM297 481l-121 -284h244l-121 284h-2zM269 637v65h58v-65h-58z" />
    <glyph glyph-name="Aringacute.small" unicode="&#xe092;" horiz-adv-x="595" 
d="M32 0l224 517q-25 11 -40.5 34.5t-15.5 52.5q0 40 28.5 68t69.5 28q40 0 68.5 -28t28.5 -68q0 -29 -16 -52.5t-41 -35.5l226 -516h-60l-65 153h-282l-65 -153h-60zM297 481l-121 -284h244l-121 284h-2zM229 604q0 -25 16.5 -44.5t40.5 -23.5h23q24 4 40.5 23t16.5 45
q0 29 -19.5 49t-48.5 20t-49 -20t-20 -49zM264 723l139 169l41 -32l-141 -137h-39z" />
    <glyph glyph-name="Adieresismacron.small" unicode="&#xe093;" horiz-adv-x="595" 
d="M361 623v65h56v-65h-56zM180 623v65h56v-65h-56zM157 761v42h281v-42h-281zM32 0l233 536h65l234 -536h-60l-65 153h-282l-65 -153h-60zM297 481l-121 -284h244l-121 284h-2z" />
    <glyph glyph-name="Aogonek.small" unicode="&#xe094;" horiz-adv-x="595" 
d="M32 0l233 536h65l234 -536q-90 -47 -90 -111q0 -24 16 -37.5t39 -13.5q30 0 56 14l2 -1v-44q-28 -13 -64 -13q-40 0 -67 22.5t-27 62.5q0 71 80 121h-5l-65 153h-282l-65 -153h-60zM297 481l-121 -284h244l-121 284h-2z" />
    <glyph glyph-name="AE.small" unicode="&#xe096;" horiz-adv-x="874" 
d="M40 0l263 536h505v-47h-414l64 -195h316v-44h-301l66 -203h274v-47h-317l-49 153h-273l-74 -153h-60zM336 489l-140 -290h237l-92 290h-5z" />
    <glyph glyph-name="AEacute.small" unicode="&#xe097;" horiz-adv-x="866" 
d="M487 0l-49 153h-273l-74 -153h-60l263 536h505v-47h-414l64 -195h316v-44h-301l66 -203h274v-47h-317zM327 489l-140 -290h237l-92 290h-5zM379 591l139 169l41 -32l-141 -137h-39z" />
    <glyph glyph-name="AEmacron.small" unicode="&#xe098;" horiz-adv-x="866" 
d="M31 0l263 536h505v-47h-414l64 -195h316v-44h-301l66 -203h274v-47h-317l-49 153h-273l-74 -153h-60zM327 489l-140 -290h237l-92 290h-5zM274 648v42h281v-42h-281z" />
    <glyph glyph-name="Cacute.small" unicode="&#xe099;" horiz-adv-x="593" 
d="M290 591l139 169l41 -32l-141 -137h-39zM58 275q0 121 79.5 197.5t206.5 76.5q107 0 187 -57l-30 -39q-68 48 -156 48q-104 0 -168 -62.5t-64 -163.5q0 -108 63.5 -174t168.5 -66q103 0 167 58l33 -36q-78 -69 -201 -69q-130 0 -208 79.5t-78 207.5z" />
    <glyph glyph-name="Ccircumflex.small" unicode="&#xe09a;" horiz-adv-x="593" 
d="M169 591l126 157h62l126 -157h-42l-114 120h-2l-115 -120h-41zM58 275q0 121 79.5 197.5t206.5 76.5q107 0 187 -57l-30 -39q-68 48 -156 48q-104 0 -168 -62.5t-64 -163.5q0 -108 63.5 -174t168.5 -66q103 0 167 58l33 -36q-78 -69 -201 -69q-130 0 -208 79.5t-78 207.5
z" />
    <glyph glyph-name="Ccaron.small" unicode="&#xe09b;" horiz-adv-x="593" 
d="M295 591l-126 157h41l115 -120h2l114 120h42l-126 -157h-62zM58 275q0 121 79.5 197.5t206.5 76.5q107 0 187 -57l-30 -39q-68 48 -156 48q-104 0 -168 -62.5t-64 -163.5q0 -108 63.5 -174t168.5 -66q103 0 167 58l33 -36q-78 -69 -201 -69q-130 0 -208 79.5t-78 207.5z
" />
    <glyph glyph-name="Cdotaccent.small" unicode="&#xe09c;" horiz-adv-x="593" 
d="M58 275q0 121 79.5 197.5t206.5 76.5q107 0 187 -57l-30 -39q-68 48 -156 48q-104 0 -168 -62.5t-64 -163.5q0 -108 63.5 -174t168.5 -66q103 0 167 58l33 -36q-78 -69 -201 -69q-130 0 -208 79.5t-78 207.5zM295 637v65h58v-65h-58z" />
    <glyph glyph-name="Ccedilla.small" unicode="&#xe09d;" horiz-adv-x="593" 
d="M182 -191q101 82 122 181q-113 12 -179.5 89.5t-66.5 195.5q0 121 79.5 197.5t206.5 76.5q107 0 187 -57l-30 -39q-68 48 -156 48q-104 0 -168 -62.5t-64 -163.5q0 -108 63.5 -174t168.5 -66q103 0 167 58l33 -36q-78 -69 -201 -69h-1q-20 -116 -115 -202z" />
    <glyph glyph-name="Dcaron.small" unicode="&#xe09e;" horiz-adv-x="622" 
d="M88 0v536h168q150 0 229 -69t79 -192q0 -132 -77.5 -203.5t-230.5 -71.5h-168zM143 47h115q126 0 188.5 59t62.5 170q0 102 -64 158t-187 56h-115v-443zM294 591l-126 157h41l115 -120h2l114 120h42l-126 -157h-62z" />
    <glyph glyph-name="Dcedilla.small" unicode="&#xe09f;" horiz-adv-x="622" 
d="M88 0v536h168q150 0 229 -69t79 -192q0 -132 -77.5 -203.5t-230.5 -71.5h-168zM143 47h115q126 0 188.5 59t62.5 170q0 102 -64 158t-187 56h-115v-443zM304 -49h41q-27 -93 -105 -165l-46 23q79 64 110 142z" />
    <glyph glyph-name="Ddotbelow.small" unicode="&#xe0a0;" horiz-adv-x="622" 
d="M88 0v536h168q150 0 229 -69t79 -192q0 -132 -77.5 -203.5t-230.5 -71.5h-168zM143 47h115q126 0 188.5 59t62.5 170q0 102 -64 158t-187 56h-115v-443zM296 -174v65h58v-65h-58z" />
    <glyph glyph-name="Dcroat.small" unicode="&#xe0a1;" horiz-adv-x="646" 
d="M114 0v250h-104v41h104v245h168q150 0 229 -69t79 -192q0 -132 -77.5 -203.5t-230.5 -71.5h-168zM169 47h115q126 0 188.5 59t62.5 170q0 102 -64 158t-187 56h-115v-200h173v-40h-173v-203z" />
    <glyph glyph-name="Eacute.small" unicode="&#xe0a2;" horiz-adv-x="553" 
d="M88 0v536h399v-47h-344v-194h310v-44h-310v-204h349v-47h-404zM257 591l139 169l41 -32l-141 -137h-39z" />
    <glyph glyph-name="Egrave.small" unicode="&#xe0a3;" horiz-adv-x="553" 
d="M88 0v536h399v-47h-344v-194h310v-44h-310v-204h349v-47h-404zM286 591l-141 137l41 32l139 -169h-39z" />
    <glyph glyph-name="Ecircumflex.small" unicode="&#xe0a4;" horiz-adv-x="554" 
d="M133 591l126 157h62l126 -157h-42l-114 120h-2l-115 -120h-41zM88 0v536h399v-47h-344v-194h310v-44h-310v-204h349v-47h-404z" />
    <glyph glyph-name="Edieresis.small" unicode="&#xe0a5;" horiz-adv-x="553" 
d="M353 637v65h56v-65h-56zM172 637v65h56v-65h-56zM88 0v536h399v-47h-344v-194h310v-44h-310v-204h349v-47h-404z" />
    <glyph glyph-name="Ecaron.small" unicode="&#xe0a6;" horiz-adv-x="554" 
d="M259 591l-126 157h41l115 -120h2l114 120h42l-126 -157h-62zM88 0v536h399v-47h-344v-194h310v-44h-310v-204h349v-47h-404z" />
    <glyph glyph-name="Emacron.small" unicode="&#xe0a7;" horiz-adv-x="553" 
d="M88 0v536h399v-47h-344v-194h310v-44h-310v-204h349v-47h-404zM149 648v42h281v-42h-281z" />
    <glyph glyph-name="Ebreve.small" unicode="&#xe0a8;" horiz-adv-x="553" 
d="M88 0v536h399v-47h-344v-194h310v-44h-310v-204h349v-47h-404zM290 588q-65 0 -107 43t-48 117h40q7 -54 37.5 -85.5t77.5 -31.5t78 32t36 85h41q-6 -74 -48 -117t-107 -43z" />
    <glyph glyph-name="Einvertedbreve.small" unicode="&#xe0a9;" horiz-adv-x="553" 
d="M88 0v536h399v-47h-344v-194h310v-44h-310v-204h349v-47h-404zM290 750q65 0 106.5 -42.5t48.5 -116.5h-41q-6 54 -36.5 85.5t-77.5 31.5q-48 0 -79 -32t-36 -85h-40q5 74 47 116.5t108 42.5z" />
    <glyph glyph-name="Edoublegrave.small" unicode="&#xe0aa;" horiz-adv-x="554" 
d="M89 0v536h399v-47h-344v-194h310v-44h-310v-204h349v-47h-404zM115 760l136 -169h-39l-138 139zM256 760l135 -169h-38l-138 139z" />
    <glyph glyph-name="Edotaccent.small" unicode="&#xe0ab;" horiz-adv-x="553" 
d="M88 0v536h399v-47h-344v-194h310v-44h-310v-204h349v-47h-404zM261 637v65h58v-65h-58z" />
    <glyph glyph-name="Eacutedotbelow.small" unicode="&#xe0ac;" horiz-adv-x="553" 
d="M88 0v536h399v-47h-344v-194h310v-44h-310v-204h349v-47h-404zM262 -174v65h58v-65h-58zM257 591l139 169l41 -32l-141 -137h-39z" />
    <glyph glyph-name="Egravedotbelow.small" unicode="&#xe0ad;" horiz-adv-x="553" 
d="M88 0v536h399v-47h-344v-194h310v-44h-310v-204h349v-47h-404zM262 -174v65h58v-65h-58zM286 591l-141 137l41 32l139 -169h-39z" />
    <glyph glyph-name="Eogonek.small" unicode="&#xe0ae;" horiz-adv-x="553" 
d="M88 0v536h399v-47h-344v-194h310v-44h-310v-204h349v-47q-90 -47 -90 -111q0 -24 16 -37.5t39 -13.5q30 0 56 14l2 -1v-44q-28 -13 -64 -13q-40 0 -67 22.5t-27 62.5q0 71 80 121h-349z" />
    <glyph glyph-name="Gacute.small" unicode="&#xe0af;" horiz-adv-x="621" 
d="M289 591l139 169l41 -32l-141 -137h-39zM58 275q0 121 79.5 197.5t208.5 76.5q103 0 187 -48l-27 -40q-67 40 -160 40q-104 0 -168.5 -62.5t-64.5 -163.5q0 -110 62.5 -175t170.5 -65q88 0 146 35v166h-158v42h210v-235q-83 -55 -199 -55q-132 0 -209.5 78t-77.5 209z
" />
    <glyph glyph-name="Gcircumflex.small" unicode="&#xe0b0;" horiz-adv-x="621" 
d="M168 591l126 157h62l126 -157h-42l-114 120h-2l-115 -120h-41zM58 275q0 121 79.5 197.5t208.5 76.5q103 0 187 -48l-27 -40q-67 40 -160 40q-104 0 -168.5 -62.5t-64.5 -163.5q0 -110 62.5 -175t170.5 -65q88 0 146 35v166h-158v42h210v-235q-83 -55 -199 -55
q-132 0 -209.5 78t-77.5 209z" />
    <glyph glyph-name="Gcaron.small" unicode="&#xe0b2;" horiz-adv-x="621" 
d="M294 591l-126 157h41l115 -120h2l114 120h42l-126 -157h-62zM58 275q0 121 79.5 197.5t208.5 76.5q103 0 187 -48l-27 -40q-67 40 -160 40q-104 0 -168.5 -62.5t-64.5 -163.5q0 -110 62.5 -175t170.5 -65q88 0 146 35v166h-158v42h210v-235q-83 -55 -199 -55
q-132 0 -209.5 78t-77.5 209z" />
    <glyph glyph-name="Gbreve.small" unicode="&#xe0b3;" horiz-adv-x="621" 
d="M58 275q0 121 79.5 197.5t208.5 76.5q103 0 187 -48l-27 -40q-67 40 -160 40q-104 0 -168.5 -62.5t-64.5 -163.5q0 -110 62.5 -175t170.5 -65q88 0 146 35v166h-158v42h210v-235q-83 -55 -199 -55q-132 0 -209.5 78t-77.5 209zM326 588q-65 0 -107 43t-48 117h40
q7 -54 37.5 -85.5t77.5 -31.5t78 32t36 85h41q-6 -74 -48 -117t-107 -43z" />
    <glyph glyph-name="Gdotaccent.small" unicode="&#xe0b4;" horiz-adv-x="621" 
d="M295 637v65h58v-65h-58zM58 275q0 121 79.5 197.5t208.5 76.5q103 0 187 -48l-27 -40q-67 40 -160 40q-104 0 -168.5 -62.5t-64.5 -163.5q0 -110 62.5 -175t170.5 -65q88 0 146 35v166h-158v42h210v-235q-83 -55 -199 -55q-132 0 -209.5 78t-77.5 209z" />
    <glyph glyph-name="Gcommaaccent.small" unicode="&#xe0b6;" horiz-adv-x="621" 
d="M268 -55q20 4 34 4q74 0 76 -66q0 -46 -56 -95h-40q51 49 51 87q0 37 -40 36q-5 0 -25 -2v36zM58 275q0 121 79.5 197.5t208.5 76.5q103 0 187 -48l-27 -40q-67 40 -160 40q-104 0 -168.5 -62.5t-64.5 -163.5q0 -110 62.5 -175t170.5 -65q88 0 146 35v166h-158v42h210
v-235q-83 -55 -199 -55q-132 0 -209.5 78t-77.5 209z" />
    <glyph glyph-name="Gstroke.small" unicode="&#xe0b7;" horiz-adv-x="623" 
d="M403 130v41h89v65h-158v42h210v-107h85v-41h-85v-87q-83 -55 -199 -55q-132 0 -209.5 78t-77.5 209q0 121 79.5 197.5t208.5 76.5q103 0 187 -48l-27 -40q-67 40 -160 40q-104 0 -168.5 -62.5t-64.5 -163.5q0 -110 62.5 -175t170.5 -65q88 0 146 35v60h-89z" />
    <glyph glyph-name="Hcircumflex.small" unicode="&#xe0b8;" horiz-adv-x="609" 
d="M148 591l126 157h62l126 -157h-42l-114 120h-2l-115 -120h-41zM88 0v536h55v-239h323v239h55v-536h-55v249h-323v-249h-55z" />
    <glyph glyph-name="Hcaron.small" unicode="&#xe0b9;" horiz-adv-x="609" 
d="M274 591l-126 157h41l115 -120h2l114 120h42l-126 -157h-62zM88 0v536h55v-239h323v239h55v-536h-55v249h-323v-249h-55z" />
    <glyph glyph-name="Hdotbelow.small" unicode="&#xe0ba;" horiz-adv-x="609" 
d="M88 0v536h55v-239h323v239h55v-536h-55v249h-323v-249h-55zM276 -174v65h58v-65h-58z" />
    <glyph glyph-name="Hmacronbelow.small" unicode="&#xe0bb;" horiz-adv-x="609" 
d="M88 0v536h55v-239h323v239h55v-536h-55v249h-323v-249h-55zM164 -161v42h281v-42h-281z" />
    <glyph glyph-name="Hbar.small" unicode="&#xe0bc;" horiz-adv-x="609" 
d="M88 0v536h55v-98h323v98h55v-536h-55v249h-323v-249h-55zM143 297h323v102h-323v-102z" />
    <glyph glyph-name="Iacute.small" unicode="&#xe0bd;" 
d="M82 591l139 169l41 -32l-141 -137h-39zM87 0v536h56v-536h-56z" />
    <glyph glyph-name="Igrave.small" unicode="&#xe0be;" 
d="M87 0v536h56v-536h-56zM111 591l-141 137l41 32l139 -169h-39z" />
    <glyph glyph-name="Icircumflex.small" unicode="&#xe0bf;" 
d="M-41 591l126 157h62l126 -157h-42l-114 120h-2l-115 -120h-41zM87 0v536h56v-536h-56z" />
    <glyph glyph-name="Idieresis.small" unicode="&#xe0c0;" 
d="M179 637v65h56v-65h-56zM-2 637v65h56v-65h-56zM87 0v536h56v-536h-56z" />
    <glyph glyph-name="Itilde.small" unicode="&#xe0c1;" 
d="M87 0v536h56v-536h-56zM-22 624q-5 47 15.5 74t57.5 27q31 0 70.5 -34.5t58.5 -34.5t29.5 15.5t7.5 43.5h37q6 -47 -14.5 -74.5t-57.5 -27.5q-31 0 -70.5 34.5t-58.5 34.5q-20 0 -30.5 -15.5t-6.5 -42.5h-38z" />
    <glyph glyph-name="Icaron.small" unicode="&#xe0c2;" 
d="M85 591l-126 157h41l115 -120h2l114 120h42l-126 -157h-62zM87 0v536h56v-536h-56z" />
    <glyph glyph-name="Imacron.small" unicode="&#xe0c3;" 
d="M-25 648v42h281v-42h-281zM87 0v536h56v-536h-56z" />
    <glyph glyph-name="Ibreve.small" unicode="&#xe0c4;" 
d="M87 0v536h56v-536h-56zM116 588q-65 0 -107 43t-48 117h40q7 -54 37.5 -85.5t77.5 -31.5t78 32t36 85h41q-6 -74 -48 -117t-107 -43z" />
    <glyph glyph-name="Iinvertedbreve.small" unicode="&#xe0c5;" 
d="M116 750q65 0 106.5 -42.5t48.5 -116.5h-41q-6 54 -36.5 85.5t-77.5 31.5q-48 0 -79 -32t-36 -85h-40q5 74 47 116.5t108 42.5zM87 0v536h56v-536h-56z" />
    <glyph glyph-name="Idoublegrave.small" unicode="&#xe0c6;" 
d="M87 0v536h56v-536h-56zM-62 760l136 -169h-39l-138 139zM79 760l135 -169h-38l-138 139z" />
    <glyph glyph-name="Idotaccent.small" unicode="&#xe0c7;" 
d="M87 0v536h56v-536h-56zM87 637v65h58v-65h-58z" />
    <glyph glyph-name="Idotbelow.small" unicode="&#xe0c8;" 
d="M87 -174v65h58v-65h-58zM87 0v536h56v-536h-56z" />
    <glyph glyph-name="Iogonek.small" unicode="&#xe0c9;" 
d="M87 0v536h56v-536q-90 -47 -90 -111q0 -24 16 -37.5t39 -13.5q30 0 56 14l2 -1v-44q-28 -13 -64 -13q-40 0 -67 22.5t-27 62.5q0 71 80 121h-1z" />
    <glyph glyph-name="Jcircumflex.small" unicode="&#xe0ca;" horiz-adv-x="487" 
d="M220 591l126 157h62l126 -157h-42l-114 120h-2l-115 -120h-41zM42 105l44 24q35 -93 130 -93q68 0 101 40t33 110v350h55v-351q0 -91 -47 -144t-140 -53q-126 0 -176 117z" />
    <glyph glyph-name="Jcaron.small" unicode="&#xe0cb;" horiz-adv-x="487" 
d="M346 591l-126 157h41l115 -120h2l114 120h42l-126 -157h-62zM42 105l44 24q35 -93 130 -93q68 0 101 40t33 110v350h55v-351q0 -91 -47 -144t-140 -53q-126 0 -176 117z" />
    <glyph glyph-name="Kcaron.small" unicode="&#xe0cc;" horiz-adv-x="579" 
d="M262 591l-126 157h41l115 -120h2l114 120h42l-126 -157h-62zM88 0v536h55v-313l313 313h68l-198 -198l213 -338h-64l-187 300l-145 -145v-155h-55z" />
    <glyph glyph-name="Kcommaaccent.small" unicode="&#xe0cd;" horiz-adv-x="579" 
d="M238 -55q20 4 34 4q74 0 76 -66q0 -46 -56 -95h-40q51 49 51 87q0 37 -40 36q-5 0 -25 -2v36zM88 0v536h55v-313l313 313h68l-198 -198l213 -338h-64l-187 300l-145 -145v-155h-55z" />
    <glyph glyph-name="Kcedilla.small" unicode="&#xe0ce;" horiz-adv-x="579" 
d="M88 0v536h55v-313l313 313h68l-198 -198l213 -338h-64l-187 300l-145 -145v-155h-55zM273 -49h41q-27 -93 -105 -165l-46 23q79 64 110 142z" />
    <glyph glyph-name="Khook.small" unicode="&#xe0cf;" horiz-adv-x="579" 
d="M88 0v536h55v-332q37 12 68.5 46.5t69.5 106.5q49 97 105.5 136.5t129.5 45.5l2 -43q-55 -7 -102 -41t-90 -117l213 -338h-65l-177 285q-36 -58 -71 -85.5t-83 -42.5v-157h-55z" />
    <glyph glyph-name="Lacute.small" unicode="&#xe0d0;" horiz-adv-x="528" 
d="M87 0v536h56v-488h342v-48h-398zM82 591l139 169l41 -32l-141 -137h-39z" />
    <glyph glyph-name="Lcaron.small" unicode="&#xe0d1;" horiz-adv-x="528" 
d="M87 0v536h56v-488h342v-48h-398zM222 535q20 4 34 4q74 0 76 -66q0 -46 -56 -95h-40q51 49 51 87q0 37 -40 36q-5 0 -25 -2v36z" />
    <glyph glyph-name="Lcommaaccent.small" unicode="&#xe0d2;" horiz-adv-x="528" 
d="M87 0v536h56v-488h342v-48h-398zM231 -55q20 4 34 4q74 0 76 -66q0 -46 -56 -95h-40q51 49 51 87q0 37 -40 36q-5 0 -25 -2v36z" />
    <glyph glyph-name="Lcedilla.small" unicode="&#xe0d3;" horiz-adv-x="528" 
d="M87 0v536h56v-488h342v-48h-398zM264 -49h41q-27 -93 -105 -165l-46 23q79 64 110 142z" />
    <glyph glyph-name="Ldotbelow.small" unicode="&#xe0d4;" horiz-adv-x="528" 
d="M87 0v536h56v-488h342v-48h-398zM258 -174v65h58v-65h-58z" />
    <glyph glyph-name="Ldotbelowmacron.small" unicode="&#xe0d5;" horiz-adv-x="528" 
d="M87 0v536h56v-488h342v-48h-398zM258 -174v65h58v-65h-58zM-25 648v42h281v-42h-281z" />
    <glyph glyph-name="Ldot.small" unicode="&#xe0d6;" horiz-adv-x="528" 
d="M87 0v536h56v-488h342v-48h-398zM427 259v65h58v-65h-58z" />
    <glyph glyph-name="Lslash.small" unicode="&#xe0d7;" horiz-adv-x="545" 
d="M8 154v48l96 59v275h56v-240l191 118v-49l-191 -118v-199h342v-48h-398v213z" />
    <glyph glyph-name="Mmacron.small" unicode="&#xe0d8;" horiz-adv-x="731" 
d="M88 0v536h62l216 -290l215 290h62v-536h-55v466l-223 -300l-223 299v-465h-54zM224 648v42h281v-42h-281z" />
    <glyph glyph-name="Mcedilla.small" unicode="&#xe0d9;" horiz-adv-x="731" 
d="M88 0v536h62l216 -290l215 290h62v-536h-55v466l-223 -300l-223 299v-465h-54zM344 -49h41q-27 -93 -105 -165l-46 23q79 64 110 142z" />
    <glyph glyph-name="Mdotbelow.small" unicode="&#xe0da;" horiz-adv-x="731" 
d="M88 0v536h62l216 -290l215 290h62v-536h-55v466l-223 -300l-223 299v-465h-54zM336 -174v65h58v-65h-58z" />
    <glyph glyph-name="Nacute.small" unicode="&#xe0db;" horiz-adv-x="628" 
d="M281 591l139 169l41 -32l-141 -137h-39zM88 0v536h58l341 -456v456h54v-536h-59l-340 456v-456h-54z" />
    <glyph glyph-name="Ngrave.small" unicode="&#xe0dc;" horiz-adv-x="628" 
d="M88 0v536h58l341 -456v456h54v-536h-59l-340 456v-456h-54zM310 591l-141 137l41 32l139 -169h-39z" />
    <glyph glyph-name="Ndieresis.small" unicode="&#xe0dd;" horiz-adv-x="628" 
d="M378 637v65h56v-65h-56zM197 637v65h56v-65h-56zM88 0v536h58l341 -456v456h54v-536h-59l-340 456v-456h-54z" />
    <glyph glyph-name="Ntilde.small" unicode="&#xe0de;" horiz-adv-x="628" 
d="M88 0v536h58l341 -456v456h54v-536h-59l-340 456v-456h-54zM176 624q-5 47 15.5 74t57.5 27q31 0 70.5 -34.5t58.5 -34.5t29.5 15.5t7.5 43.5h37q6 -47 -14.5 -74.5t-57.5 -27.5q-31 0 -70.5 34.5t-58.5 34.5q-20 0 -30.5 -15.5t-6.5 -42.5h-38z" />
    <glyph glyph-name="Ncaron.small" unicode="&#xe0df;" horiz-adv-x="628" 
d="M284 591l-126 157h41l115 -120h2l114 120h42l-126 -157h-62zM88 0v536h58l341 -456v456h54v-536h-59l-340 456v-456h-54z" />
    <glyph glyph-name="Nmacron.small" unicode="&#xe0e0;" horiz-adv-x="628" 
d="M174 648v42h281v-42h-281zM88 0v536h58l341 -456v456h54v-536h-59l-340 456v-456h-54z" />
    <glyph glyph-name="Ndotaccent.small" unicode="&#xe0e1;" horiz-adv-x="628" 
d="M88 0v536h58l341 -456v456h54v-536h-59l-340 456v-456h-54zM286 637v65h58v-65h-58z" />
    <glyph glyph-name="Ncommaaccent.small" unicode="&#xe0e2;" horiz-adv-x="628" 
d="M261 -55q20 4 34 4q74 0 76 -66q0 -46 -56 -95h-40q51 49 51 87q0 37 -40 36q-5 0 -25 -2v36zM88 0v536h58l341 -456v456h54v-536h-59l-340 456v-456h-54z" />
    <glyph glyph-name="Ncedilla.small" unicode="&#xe0e3;" horiz-adv-x="628" 
d="M295 -49h41q-27 -93 -105 -165l-46 23q79 64 110 142zM88 0v536h58l341 -456v456h54v-536h-59l-340 456v-456h-54z" />
    <glyph glyph-name="Ndotbelow.small" unicode="&#xe0e4;" horiz-adv-x="628" 
d="M286 -174v65h58v-65h-58zM88 0v536h58l341 -456v456h54v-536h-59l-340 456v-456h-54z" />
    <glyph glyph-name="Ndescender.small" unicode="&#xe0e5;" horiz-adv-x="628" 
d="M88 0v536h58l341 -456v456h54v-736h-54v200h-5l-340 456v-456h-54z" />
    <glyph glyph-name="Oacute.small" unicode="&#xe0e6;" horiz-adv-x="680" 
d="M306 591l139 169l41 -32l-141 -137h-39zM58 271q0 120 82.5 199t200.5 79q117 0 199.5 -79t82.5 -199q0 -126 -81.5 -204t-200.5 -78q-120 0 -201.5 77.5t-81.5 204.5zM114 271q0 -105 65.5 -170t161.5 -65t161 65t65 170q0 100 -66 165t-160 65q-95 0 -161 -65t-66 -165
z" />
    <glyph glyph-name="Ograve.small" unicode="&#xe0e7;" horiz-adv-x="680" 
d="M335 591l-141 137l41 32l139 -169h-39zM58 271q0 120 82.5 199t200.5 79q117 0 199.5 -79t82.5 -199q0 -126 -81.5 -204t-200.5 -78q-120 0 -201.5 77.5t-81.5 204.5zM114 271q0 -105 65.5 -170t161.5 -65t161 65t65 170q0 100 -66 165t-160 65q-95 0 -161 -65t-66 -165z
" />
    <glyph glyph-name="Ocircumflex.small" unicode="&#xe0e8;" horiz-adv-x="680" 
d="M183 591l126 157h62l126 -157h-42l-114 120h-2l-115 -120h-41zM58 271q0 120 82.5 199t200.5 79q117 0 199.5 -79t82.5 -199q0 -126 -81.5 -204t-200.5 -78q-120 0 -201.5 77.5t-81.5 204.5zM114 271q0 -105 65.5 -170t161.5 -65t161 65t65 170q0 100 -66 165t-160 65
q-95 0 -161 -65t-66 -165z" />
    <glyph glyph-name="Odieresis.small" unicode="&#xe0e9;" horiz-adv-x="680" 
d="M403 637v65h56v-65h-56zM222 637v65h56v-65h-56zM58 271q0 120 82.5 199t200.5 79q117 0 199.5 -79t82.5 -199q0 -126 -81.5 -204t-200.5 -78q-120 0 -201.5 77.5t-81.5 204.5zM114 271q0 -105 65.5 -170t161.5 -65t161 65t65 170q0 100 -66 165t-160 65q-95 0 -161 -65
t-66 -165z" />
    <glyph glyph-name="Otilde.small" unicode="&#xe0ea;" horiz-adv-x="680" 
d="M58 271q0 120 82.5 199t200.5 79q117 0 199.5 -79t82.5 -199q0 -126 -81.5 -204t-200.5 -78q-120 0 -201.5 77.5t-81.5 204.5zM114 271q0 -105 65.5 -170t161.5 -65t161 65t65 170q0 100 -66 165t-160 65q-95 0 -161 -65t-66 -165zM202 624q-5 47 15.5 74t57.5 27
q31 0 70.5 -34.5t58.5 -34.5t29.5 15.5t7.5 43.5h37q6 -47 -14.5 -74.5t-57.5 -27.5q-31 0 -70.5 34.5t-58.5 34.5q-20 0 -30.5 -15.5t-6.5 -42.5h-38z" />
    <glyph glyph-name="Ocaron.small" unicode="&#xe0eb;" horiz-adv-x="680" 
d="M309 591l-126 157h41l115 -120h2l114 120h42l-126 -157h-62zM58 271q0 120 82.5 199t200.5 79q117 0 199.5 -79t82.5 -199q0 -126 -81.5 -204t-200.5 -78q-120 0 -201.5 77.5t-81.5 204.5zM114 271q0 -105 65.5 -170t161.5 -65t161 65t65 170q0 100 -66 165t-160 65
q-95 0 -161 -65t-66 -165z" />
    <glyph glyph-name="Omacron.small" unicode="&#xe0ec;" horiz-adv-x="680" 
d="M199 648v42h281v-42h-281zM58 271q0 120 82.5 199t200.5 79q117 0 199.5 -79t82.5 -199q0 -126 -81.5 -204t-200.5 -78q-120 0 -201.5 77.5t-81.5 204.5zM114 271q0 -105 65.5 -170t161.5 -65t161 65t65 170q0 100 -66 165t-160 65q-95 0 -161 -65t-66 -165z" />
    <glyph glyph-name="Obreve.small" unicode="&#xe0ed;" horiz-adv-x="680" 
d="M58 271q0 120 82.5 199t200.5 79q117 0 199.5 -79t82.5 -199q0 -126 -81.5 -204t-200.5 -78q-120 0 -201.5 77.5t-81.5 204.5zM114 271q0 -105 65.5 -170t161.5 -65t161 65t65 170q0 100 -66 165t-160 65q-95 0 -161 -65t-66 -165zM340 588q-65 0 -107 43t-48 117h40
q7 -54 37.5 -85.5t77.5 -31.5t78 32t36 85h41q-6 -74 -48 -117t-107 -43z" />
    <glyph glyph-name="Oinvertedbreve.small" unicode="&#xe0ee;" horiz-adv-x="680" 
d="M340 750q65 0 106.5 -42.5t48.5 -116.5h-41q-6 54 -36.5 85.5t-77.5 31.5q-48 0 -79 -32t-36 -85h-40q5 74 47 116.5t108 42.5zM58 271q0 120 82.5 199t200.5 79q117 0 199.5 -79t82.5 -199q0 -126 -81.5 -204t-200.5 -78q-120 0 -201.5 77.5t-81.5 204.5zM114 271
q0 -105 65.5 -170t161.5 -65t161 65t65 170q0 100 -66 165t-160 65q-95 0 -161 -65t-66 -165z" />
    <glyph glyph-name="Ohungarumlaut.small" unicode="&#xe0ef;" horiz-adv-x="680" 
d="M242 591l135 169l42 -30l-139 -139h-38zM383 591l135 169l41 -30l-138 -139h-38zM58 271q0 120 82.5 199t200.5 79q117 0 199.5 -79t82.5 -199q0 -126 -81.5 -204t-200.5 -78q-120 0 -201.5 77.5t-81.5 204.5zM114 271q0 -105 65.5 -170t161.5 -65t161 65t65 170
q0 100 -66 165t-160 65q-95 0 -161 -65t-66 -165z" />
    <glyph glyph-name="Odoublegrave.small" unicode="&#xe0f0;" horiz-adv-x="680" 
d="M163 760l136 -169h-39l-138 139zM304 760l135 -169h-38l-138 139zM58 271q0 120 82.5 199t200.5 79q117 0 199.5 -79t82.5 -199q0 -126 -81.5 -204t-200.5 -78q-120 0 -201.5 77.5t-81.5 204.5zM114 271q0 -105 65.5 -170t161.5 -65t161 65t65 170q0 100 -66 165t-160 65
q-95 0 -161 -65t-66 -165z" />
    <glyph glyph-name="Ocommaturnedabove.small" unicode="&#xe0f1;" horiz-adv-x="680" 
d="M386 629v-36q-18 -4 -34 -4q-37 0 -56 18t-19 48q-1 46 55 95h41q-51 -51 -51 -88q0 -36 39 -36q5 0 13.5 1.5t11.5 1.5zM58 271q0 120 82.5 199t200.5 79q117 0 199.5 -79t82.5 -199q0 -126 -81.5 -204t-200.5 -78q-120 0 -201.5 77.5t-81.5 204.5zM114 271
q0 -105 65.5 -170t161.5 -65t161 65t65 170q0 100 -66 165t-160 65q-95 0 -161 -65t-66 -165z" />
    <glyph glyph-name="Otildemacron.small" unicode="&#xe0f2;" horiz-adv-x="680" 
d="M58 271q0 120 82.5 199t200.5 79q117 0 199.5 -79t82.5 -199q0 -126 -81.5 -204t-200.5 -78q-120 0 -201.5 77.5t-81.5 204.5zM114 271q0 -105 65.5 -170t161.5 -65t161 65t65 170q0 100 -66 165t-160 65q-95 0 -161 -65t-66 -165zM199 761v42h281v-42h-281zM202 612
q-5 47 15.5 74t57.5 27q31 0 70.5 -34.5t58.5 -34.5t29.5 15.5t7.5 43.5h37q6 -47 -14.5 -74.5t-57.5 -27.5q-31 0 -70.5 34.5t-58.5 34.5q-20 0 -30.5 -15.5t-6.5 -42.5h-38z" />
    <glyph glyph-name="Odotabove.small" unicode="&#xe0f3;" horiz-adv-x="680" 
d="M312 637v65h58v-65h-58zM58 271q0 120 82.5 199t200.5 79q117 0 199.5 -79t82.5 -199q0 -126 -81.5 -204t-200.5 -78q-120 0 -201.5 77.5t-81.5 204.5zM114 271q0 -105 65.5 -170t161.5 -65t161 65t65 170q0 100 -66 165t-160 65q-95 0 -161 -65t-66 -165z" />
    <glyph glyph-name="Odotabovemacron.small" unicode="&#xe0f4;" horiz-adv-x="680" 
d="M199 761v42h281v-42h-281zM312 625v65h58v-65h-58zM58 271q0 120 82.5 199t200.5 79q117 0 199.5 -79t82.5 -199q0 -126 -81.5 -204t-200.5 -78q-120 0 -201.5 77.5t-81.5 204.5zM114 271q0 -105 65.5 -170t161.5 -65t161 65t65 170q0 100 -66 165t-160 65
q-95 0 -161 -65t-66 -165z" />
    <glyph glyph-name="Ocedilla.small" unicode="&#xe0f5;" horiz-adv-x="680" 
d="M319 -49h41q-27 -93 -105 -165l-46 23q79 64 110 142zM58 271q0 120 82.5 199t200.5 79q117 0 199.5 -79t82.5 -199q0 -126 -81.5 -204t-200.5 -78q-120 0 -201.5 77.5t-81.5 204.5zM114 271q0 -105 65.5 -170t161.5 -65t161 65t65 170q0 100 -66 165t-160 65
q-95 0 -161 -65t-66 -165z" />
    <glyph glyph-name="Odotbelow.small" unicode="&#xe0f6;" horiz-adv-x="680" 
d="M312 -174v65h58v-65h-58zM58 271q0 120 82.5 199t200.5 79q117 0 199.5 -79t82.5 -199q0 -126 -81.5 -204t-200.5 -78q-120 0 -201.5 77.5t-81.5 204.5zM114 271q0 -105 65.5 -170t161.5 -65t161 65t65 170q0 100 -66 165t-160 65q-95 0 -161 -65t-66 -165z" />
    <glyph glyph-name="Oogonek.small" unicode="&#xe0f7;" horiz-adv-x="680" 
d="M58 271q0 120 82.5 199t200.5 79q117 0 199.5 -79t82.5 -199q0 -84 -37.5 -148t-103.5 -100q-29 -16 -43.5 -25.5t-37 -27t-33 -38t-10.5 -43.5q0 -25 16 -38.5t42 -13.5q30 0 55 14l3 -2v-43q-32 -14 -64 -14q-44 0 -71 23t-27 64q0 61 67 114q-17 -4 -41 -4
q-118 1 -199 78.5t-81 203.5zM114 271q0 -105 65.5 -170t161.5 -65t161 65t65 170q0 100 -66 165t-160 65q-95 0 -161 -65t-66 -165z" />
    <glyph glyph-name="Oogonekmacron.small" unicode="&#xe0f8;" horiz-adv-x="680" 
d="M58 271q0 120 82.5 199t200.5 79q117 0 199.5 -79t82.5 -199q0 -84 -37.5 -148t-103.5 -100q-29 -16 -43.5 -25.5t-37 -27t-33 -38t-10.5 -43.5q0 -25 16 -38.5t42 -13.5q30 0 55 14l3 -2v-43q-32 -14 -64 -14q-44 0 -71 23t-27 64q0 61 67 114q-17 -4 -41 -4
q-118 1 -199 78.5t-81 203.5zM114 271q0 -105 65.5 -170t161.5 -65t161 65t65 170q0 100 -66 165t-160 65q-95 0 -161 -65t-66 -165zM199 648v42h281v-42h-281z" />
    <glyph glyph-name="Ounderlineaccent.small" unicode="&#xe0f9;" horiz-adv-x="680" 
d="M317 -201v148h49v-148h-49zM58 271q0 120 82.5 199t200.5 79q117 0 199.5 -79t82.5 -199q0 -126 -81.5 -204t-200.5 -78q-120 0 -201.5 77.5t-81.5 204.5zM114 271q0 -105 65.5 -170t161.5 -65t161 65t65 170q0 100 -66 165t-160 65q-95 0 -161 -65t-66 -165z" />
    <glyph glyph-name="Oslash.small" unicode="&#xe0fa;" horiz-adv-x="684" 
d="M58 271q0 120 82.5 199t200.5 79q83 0 154 -44l58 78l32 -25l-58 -76q96 -83 96 -211q0 -126 -81.5 -204t-200.5 -78q-89 0 -155 42l-63 -84l-33 24l63 83q-95 80 -95 217zM114 271q0 -110 72 -177l279 370q-55 37 -124 37q-95 0 -161 -65t-66 -165zM567 271
q0 103 -72 170l-280 -370q55 -35 126 -35q96 0 161 65t65 170z" />
    <glyph glyph-name="Oslashacute.small" unicode="&#xe0fb;" horiz-adv-x="684" 
d="M58 271q0 120 82.5 199t200.5 79q84 0 155 -44l58 78l33 -25l-59 -77q95 -82 95 -210q0 -126 -81.5 -204t-200.5 -78q-87 0 -155 41l-62 -83l-32 24l62 82q-96 80 -96 218zM114 271q0 -111 73 -178l279 371q-56 37 -125 37q-95 0 -161 -65t-66 -165zM567 271
q0 103 -72 170l-279 -370q55 -35 125 -35q96 0 161 65t65 170zM306 591l139 169l41 -32l-141 -137h-39z" />
    <glyph glyph-name="barredO.small" unicode="&#xe0fc;" horiz-adv-x="680" 
d="M58 271q0 120 82.5 199t200.5 79q117 0 199.5 -79t82.5 -199q0 -126 -81.5 -204t-200.5 -78q-120 0 -201.5 77.5t-81.5 204.5zM341 501q-90 0 -155.5 -60.5t-71.5 -153.5h452q-6 93 -70.5 153.5t-154.5 60.5zM341 36q90 0 154 58.5t71 154.5h-451q7 -96 71 -154.5
t155 -58.5z" />
    <glyph glyph-name="OE.small" unicode="&#xe0fd;" horiz-adv-x="1034" 
d="M56 273q0 120 82.5 197.5t201.5 77.5q75 0 137 -35.5t94 -97.5v121h397v-48h-342v-193h308v-46h-308v-200h347v-49h-402v123q-32 -63 -93 -99t-138 -36q-121 0 -202.5 79t-81.5 206zM112 273q0 -105 65 -171t164 -66q98 0 164 65.5t66 171.5q0 100 -66.5 163t-163.5 63
q-96 0 -162.5 -64t-66.5 -162z" />
    <glyph glyph-name="Pmacron.small" unicode="&#xe0fe;" horiz-adv-x="583" 
d="M143 259h177q73 0 108 34t35 81q0 49 -34 82t-107 33h-179v-230zM88 0v536h235q100 0 147.5 -47t47.5 -114q0 -66 -48 -114.5t-148 -48.5h-179v-212h-55zM148 648v42h281v-42h-281z" />
    <glyph glyph-name="Racute.small" unicode="&#xe0ff;" horiz-adv-x="592" 
d="M88 0v536h241q101 0 148.5 -47t47.5 -114q0 -52 -31.5 -95t-97.5 -59l127 -221h-60l-119 214h-16h-185v-214h-55zM143 259h184q72 0 107 34t35 82t-34 81t-107 33h-185v-230zM257 591l139 169l41 -32l-141 -137h-39z" />
    <glyph glyph-name="Rcaron.small" unicode="&#xe100;" horiz-adv-x="592" 
d="M88 0v536h241q101 0 148.5 -47t47.5 -114q0 -52 -31.5 -95t-97.5 -59l127 -221h-60l-119 214h-16h-185v-214h-55zM143 259h184q72 0 107 34t35 82t-34 81t-107 33h-185v-230zM261 591l-126 157h41l115 -120h2l114 120h42l-126 -157h-62z" />
    <glyph glyph-name="Rinvertedbreve.small" unicode="&#xe101;" horiz-adv-x="592" 
d="M88 0v536h241q101 0 148.5 -47t47.5 -114q0 -52 -31.5 -95t-97.5 -59l127 -221h-60l-119 214h-201v-214h-55zM143 259h184q72 0 107 34t35 82t-34 81t-107 33h-185v-230zM292 750q65 0 106.5 -42.5t48.5 -116.5h-41q-6 54 -36.5 85.5t-77.5 31.5q-48 0 -79 -32t-36 -85
h-40q5 74 47 116.5t108 42.5z" />
    <glyph glyph-name="Rdoublegrave.small" unicode="&#xe102;" horiz-adv-x="592" 
d="M88 0v536h241q101 0 148.5 -47t47.5 -114q0 -52 -31.5 -95t-97.5 -59l127 -221h-60l-119 214h-16h-185v-214h-55zM143 259h184q72 0 107 34t35 82t-34 81t-107 33h-185v-230zM114 760l136 -169h-39l-138 139zM255 760l135 -169h-38l-138 139z" />
    <glyph glyph-name="Rcommaaccent.small" unicode="&#xe103;" horiz-adv-x="592" 
d="M88 0v536h241q101 0 148.5 -47t47.5 -114q0 -52 -31.5 -95t-97.5 -59l127 -221h-60l-119 214h-16h-185v-214h-55zM143 259h184q72 0 107 34t35 82t-34 81t-107 33h-185v-230zM236 -55q20 4 34 4q74 0 76 -66q0 -46 -56 -95h-40q51 49 51 87q0 37 -40 36q-5 0 -25 -2v36z
" />
    <glyph glyph-name="Rcedilla.small" unicode="&#xe104;" horiz-adv-x="592" 
d="M88 0v536h241q101 0 148.5 -47t47.5 -114q0 -52 -31.5 -95t-97.5 -59l127 -221h-60l-119 214h-16h-185v-214h-55zM143 259h184q72 0 107 34t35 82t-34 81t-107 33h-185v-230zM272 -49h41q-27 -93 -105 -165l-46 23q79 64 110 142z" />
    <glyph glyph-name="Rdotbelow.small" unicode="&#xe105;" horiz-adv-x="592" 
d="M88 0v536h241q101 0 148.5 -47t47.5 -114q0 -52 -31.5 -95t-97.5 -59l127 -221h-60l-119 214h-16h-185v-214h-55zM143 259h184q72 0 107 34t35 82t-34 81t-107 33h-185v-230zM264 -174v65h58v-65h-58z" />
    <glyph glyph-name="Rdotbelowmacron.small" unicode="&#xe106;" horiz-adv-x="592" 
d="M88 0v536h241q101 0 148.5 -47t47.5 -114q0 -52 -31.5 -95t-97.5 -59l127 -221h-60l-119 214h-16h-185v-214h-55zM143 259h184q72 0 107 34t35 82t-34 81t-107 33h-185v-230zM152 648v42h281v-42h-281zM264 -174v65h58v-65h-58z" />
    <glyph glyph-name="Sacute.small" unicode="&#xe107;" horiz-adv-x="521" 
d="M226 591l139 169l41 -32l-141 -137h-39zM50 42l27 42q77 -49 183 -49q76 0 114.5 27.5t38.5 73.5q0 45 -36.5 70t-88 35.5t-103 23t-88 46.5t-36.5 92q0 64 53.5 105t146.5 41q104 0 186 -39l-22 -43q-76 35 -165 35q-67 0 -105.5 -27.5t-38.5 -70.5q0 -45 36.5 -69
t88 -34.5t103.5 -23t88.5 -47t36.5 -93.5q0 -67 -53.5 -108t-154.5 -41q-122 0 -211 54z" />
    <glyph glyph-name="Scircumflex.small" unicode="&#xe108;" horiz-adv-x="521" 
d="M105 591l126 157h62l126 -157h-42l-114 120h-2l-115 -120h-41zM50 42l27 42q77 -49 183 -49q76 0 114.5 27.5t38.5 73.5q0 45 -36.5 70t-88 35.5t-103 23t-88 46.5t-36.5 92q0 64 53.5 105t146.5 41q104 0 186 -39l-22 -43q-76 35 -165 35q-67 0 -105.5 -27.5
t-38.5 -70.5q0 -45 36.5 -69t88 -34.5t103.5 -23t88.5 -47t36.5 -93.5q0 -67 -53.5 -108t-154.5 -41q-122 0 -211 54z" />
    <glyph glyph-name="Scaron.small" unicode="&#xe109;" horiz-adv-x="521" 
d="M232 591l-126 157h41l115 -120h2l114 120h42l-126 -157h-62zM50 42l27 42q77 -49 183 -49q76 0 114.5 27.5t38.5 73.5q0 45 -36.5 70t-88 35.5t-103 23t-88 46.5t-36.5 92q0 64 53.5 105t146.5 41q104 0 186 -39l-22 -43q-76 35 -165 35q-67 0 -105.5 -27.5t-38.5 -70.5
q0 -45 36.5 -69t88 -34.5t103.5 -23t88.5 -47t36.5 -93.5q0 -67 -53.5 -108t-154.5 -41q-122 0 -211 54z" />
    <glyph glyph-name="Scommaaccent.small" unicode="&#xe10a;" horiz-adv-x="521" 
d="M203 -55q20 4 34 4q74 0 76 -66q0 -46 -56 -95h-40q51 49 51 87q0 37 -40 36q-5 0 -25 -2v36zM50 42l27 42q77 -49 183 -49q76 0 114.5 27.5t38.5 73.5q0 45 -36.5 70t-88 35.5t-103 23t-88 46.5t-36.5 92q0 64 53.5 105t146.5 41q104 0 186 -39l-22 -43q-76 35 -165 35
q-67 0 -105.5 -27.5t-38.5 -70.5q0 -45 36.5 -69t88 -34.5t103.5 -23t88.5 -47t36.5 -93.5q0 -67 -53.5 -108t-154.5 -41q-122 0 -211 54z" />
    <glyph glyph-name="Scedilla.small" unicode="&#xe10b;" horiz-adv-x="521" 
d="M116 -191q100 83 122 180q-113 6 -188 53l27 42q77 -49 183 -49q76 0 114.5 27.5t38.5 73.5q0 45 -36.5 70t-88 35.5t-103 23t-88 46.5t-36.5 92q0 64 53.5 105t146.5 41q104 0 186 -39l-22 -43q-76 35 -165 35q-67 0 -105.5 -27.5t-38.5 -70.5q0 -45 36.5 -69t88 -34.5
t103.5 -23t88.5 -47t36.5 -93.5q0 -65 -49 -105t-143 -43q-20 -119 -115 -203z" />
    <glyph glyph-name="Sdotbelow.small" unicode="&#xe10c;" horiz-adv-x="521" 
d="M50 42l27 42q77 -49 183 -49q76 0 114.5 27.5t38.5 73.5q0 45 -36.5 70t-88 35.5t-103 23t-88 46.5t-36.5 92q0 64 53.5 105t146.5 41q104 0 186 -39l-22 -43q-76 35 -165 35q-67 0 -105.5 -27.5t-38.5 -70.5q0 -45 36.5 -69t88 -34.5t103.5 -23t88.5 -47t36.5 -93.5
q0 -67 -53.5 -108t-154.5 -41q-122 0 -211 54zM231 -174v65h58v-65h-58z" />
    <glyph glyph-name="germandbls.small" unicode="&#xe10d;" horiz-adv-x="622" 
d="M84 0v350q0 93 65 146t168 53q96 0 155.5 -41.5t59.5 -111.5q0 -45 -32 -78t-89 -44v-1q73 -8 115.5 -43.5t42.5 -89.5q0 -71 -58 -111t-150 -40q-60 0 -123 18l11 44q59 -17 107 -17q70 0 113.5 28.5t43.5 80.5q0 49 -46 77.5t-138 28.5h-58v44h49q84 0 120.5 29
t36.5 73q0 50 -43.5 79.5t-116.5 29.5q-80 0 -128.5 -40.5t-48.5 -114.5v-349h-56z" />
    <glyph glyph-name="Tcaron.small" unicode="&#xe10e;" horiz-adv-x="553" 
d="M249 0v488h-218v48h490v-48h-216v-488h-56zM245 591l-126 157h41l115 -120h2l114 120h42l-126 -157h-62z" />
    <glyph glyph-name="Tcommaaccent.small" unicode="&#xe10f;" horiz-adv-x="553" 
d="M249 0v488h-218v48h490v-48h-216v-488h-56zM249 -55q20 4 34 4q74 0 76 -66q0 -46 -56 -95h-40q51 49 51 87q0 37 -40 36q-5 0 -25 -2v36z" />
    <glyph glyph-name="Tcedilla.small" unicode="&#xe110;" horiz-adv-x="553" 
d="M249 0v488h-218v48h490v-48h-216v-488h-56zM256 -49h41q-27 -93 -105 -165l-46 23q79 64 110 142z" />
    <glyph glyph-name="Tdotbelow.small" unicode="&#xe111;" horiz-adv-x="553" 
d="M249 0v488h-218v48h490v-48h-216v-488h-56zM248 -174v65h58v-65h-58z" />
    <glyph glyph-name="Tbar.small" unicode="&#xe112;" horiz-adv-x="553" 
d="M86 234v40h163v214h-218v48h490v-48h-216v-214h163v-40h-163v-234h-56v234h-163z" />
    <glyph glyph-name="Uacute.small" unicode="&#xe113;" horiz-adv-x="623" 
d="M82 209v327h55v-327q0 -83 49 -128.5t125 -45.5t125 45.5t49 128.5v327h56v-327q0 -105 -65 -163t-165 -58t-164.5 58t-64.5 163zM278 591l139 169l41 -32l-141 -137h-39z" />
    <glyph glyph-name="Ugrave.small" unicode="&#xe114;" horiz-adv-x="623" 
d="M82 209v327h55v-327q0 -83 49 -128.5t125 -45.5t125 45.5t49 128.5v327h56v-327q0 -105 -65 -163t-165 -58t-164.5 58t-64.5 163zM307 591l-141 137l41 32l139 -169h-39z" />
    </font>
</defs>
</svg>
