<?xml version="1.0" standalone="no"?>
<!DOCTYPE svg PUBLIC "-//W3C//DTD SVG 1.1//EN" "http://www.w3.org/Graphics/SVG/1.1/DTD/svg11.dtd" >
<svg xmlns="http://www.w3.org/2000/svg" xmlns:xlink="http://www.w3.org/1999/xlink" version="1.1">
<metadata>
Created by FontForge 20170731 at Fri Oct  4 19:18:48 2013
 By Aleksey,,,
(c) 2010 Klim Type Foundry. All rights reserved.
</metadata>
<defs>
<font id="TiemposHeadline-LightItalic" horiz-adv-x="500" >
  <font-face 
    font-family="Tiempos Headline Light"
    font-weight="600"
    font-style="italic"
    font-stretch="normal"
    units-per-em="1000"
    panose-1="2 2 3 3 6 3 3 13 4 3"
    ascent="783"
    descent="-217"
    x-height="530"
    cap-height="702"
    bbox="-183 -226 1093 1033"
    underline-thickness="30"
    underline-position="-160"
    slope="-12"
    unicode-range="U+0020-FB04"
  />
<missing-glyph horiz-adv-x="960" 
d="M90 0v780h780v-780h-780zM480 345l-279 -279h558zM201 714l279 -279l279 279h-558zM435 390l-275 275v-550zM525 390l275 -275v550z" />
    <glyph glyph-name="ff" unicode="ff" horiz-adv-x="570" 
d="M340 93l71 378h-198l-73 -320q-45 -199 -98 -278.5t-136 -79.5q-38 0 -62.5 17t-24.5 46q0 45 55 58h9q4 -42 20 -67t39 -25q20 0 33 14t31 71t39 169l72 395h-78l6 24l80 18q25 112 96 181t157 69q85 0 129 -51q60 71 136 71q47 0 73 -20t26 -54q0 -47 -58 -62h-11
q0 45 -14.5 76t-45.5 31q-33 0 -61.5 -67t-42.5 -178h118l-9 -38h-113l-70 -303q-45 -199 -98 -278.5t-136 -79.5q-77 0 -77 63q0 45 55 58h9q1 -43 13 -67.5t31 -24.5q22 0 36.5 15.5t32.5 72t39 166.5zM361 732q-54 0 -92.5 -57t-50.5 -166h200q13 69 44 133
q-28 90 -101 90z" />
    <glyph glyph-name="fi" unicode="fi" horiz-adv-x="551" 
d="M423 509l78 21h10l-104 -414q-9 -34 -9 -44q0 -15 14 -15q29 0 90 75l15 -11q-48 -71 -80 -101t-66 -30q-28 0 -43.5 18.5t-15.5 49.5q0 33 14 86l83 327h-196l-73 -320q-45 -199 -98 -278.5t-136 -79.5q-38 0 -62.5 17t-24.5 46q0 45 55 58h9q4 -42 20 -67t39 -25
q20 0 33 14t31 71t39 169l72 395h-78l6 24l80 18q26 117 94.5 193.5t159.5 76.5q53 0 82.5 -20t29.5 -54q0 -52 -65 -62h-12q5 46 -11.5 75.5t-50.5 29.5q-53 0 -87 -63t-47 -180h205z" />
    <glyph glyph-name="fl" unicode="fl" horiz-adv-x="552" 
d="M334 471h-121l-73 -320q-45 -199 -98 -278.5t-136 -79.5q-38 0 -62.5 17t-24.5 46q0 45 55 58h9q4 -42 20 -67t39 -25q20 0 33 14t31 71t39 169l72 395h-78l6 24l80 18q26 117 93.5 193.5t158.5 76.5q61 0 106 -35l79 35h10l-164 -667q-9 -34 -9 -44q0 -15 14 -15
q29 0 90 75l15 -11q-48 -71 -80 -101t-66 -30q-28 0 -43.5 18.5t-15.5 49.5q0 27 14 86l133 535q-11 32 -35 52.5t-55 20.5q-125 0 -152 -243h125z" />
    <glyph glyph-name="ffi" unicode="ffi" horiz-adv-x="844" 
d="M702 471h-196l-71 -303q-47 -200 -99 -279t-135 -79q-77 0 -77 63q0 45 55 58h9q1 -43 13 -67.5t31 -24.5q22 0 37 15.5t33 72t38 166.5l70 378h-197l-73 -320q-45 -199 -98 -278.5t-136 -79.5q-38 0 -62.5 17t-24.5 46q0 45 55 58h9q4 -42 20 -67t39 -25q20 0 33 14
t31 71t39 169l72 395h-78l6 24l80 18q25 112 96 181t157 69q89 0 134 -57q71 77 160 77q53 0 82.5 -20t29.5 -54q0 -52 -65 -62h-12q5 46 -11.5 75.5t-50.5 29.5q-53 0 -87 -63t-47 -180h205l78 21h10l-104 -414q-9 -34 -9 -44q0 -15 14 -15q29 0 90 75l15 -11
q-48 -71 -80 -101t-66 -30q-28 0 -43.5 18.5t-15.5 49.5q0 33 14 86zM361 732q-54 0 -92.5 -57t-50.5 -166h199l1 3q16 70 46 125q-28 95 -103 95z" />
    <glyph glyph-name="ffl" unicode="ffl" horiz-adv-x="845" 
d="M627 471h-121l-71 -303q-47 -200 -99 -279t-135 -79q-77 0 -77 63q0 45 55 58h9q1 -43 13 -67.5t31 -24.5q22 0 37 15.5t33 72t38 166.5l70 378h-197l-73 -320q-45 -199 -98 -278.5t-136 -79.5q-38 0 -62.5 17t-24.5 46q0 45 55 58h9q4 -42 20 -67t39 -25q20 0 33 14
t31 71t39 169l72 395h-78l6 24l80 18q25 112 96 181t157 69q90 0 134 -56q70 76 158 76q60 0 106 -35l79 35h10l-164 -667q-9 -34 -9 -44q0 -15 14 -15q29 0 90 75l15 -11q-48 -71 -80 -101t-66 -30q-28 0 -43.5 18.5t-15.5 49.5q0 27 14 86l133 535q-11 32 -35 52.5
t-55 20.5q-125 0 -152 -243h125zM418 512q16 72 46 126q-29 94 -103 94q-54 0 -92.5 -57t-50.5 -166h199z" />
    <glyph glyph-name="f_b" unicode="fb" horiz-adv-x="822" 
d="M318 111l142 568q-11 32 -35 52.5t-55 20.5q-125 0 -152 -243h125l-9 -38h-121l-73 -320q-45 -199 -98 -278.5t-136 -79.5q-38 0 -62.5 17t-24.5 46q0 45 55 58h9q4 -42 20 -67t39 -25q20 0 33 14t31 71t39 169l72 395h-78l6 24l80 18q26 117 93.5 193.5t158.5 76.5
q61 0 106 -35l79 35h10l-126 -503q44 98 117 174t130 76q50 0 78.5 -39t28.5 -107q0 -153 -101.5 -273.5t-213.5 -120.5q-60 0 -107.5 33t-59.5 88zM661 467q-65 0 -150.5 -114.5t-118.5 -280.5q8 -26 33.5 -39t54.5 -13q59 0 113.5 55t86.5 137.5t32 163.5q0 91 -51 91z
" />
    <glyph glyph-name="f_f_b" unicode="ffb" horiz-adv-x="1115" 
d="M627 471h-121l-71 -303q-47 -200 -99 -279t-135 -79q-77 0 -77 63q0 45 55 58h9q1 -43 13 -67.5t31 -24.5q22 0 37 15.5t33 72t38 166.5l70 378h-197l-73 -320q-45 -199 -98 -278.5t-136 -79.5q-38 0 -62.5 17t-24.5 46q0 45 55 58h9q4 -42 20 -67t39 -25q20 0 33 14
t31 71t39 169l72 395h-78l6 24l80 18q25 112 96 181t157 69q90 0 134 -56q70 76 158 76q60 0 106 -35l79 35h10l-126 -503q44 98 117 174t130 76q50 0 78.5 -39t28.5 -107q0 -153 -101.5 -273.5t-213.5 -120.5q-60 0 -107.5 33t-59.5 88l142 568q-11 32 -35 52.5t-55 20.5
q-125 0 -152 -243h125zM954 467q-65 0 -150.5 -114.5t-118.5 -280.5q8 -26 33.5 -39t54.5 -13q59 0 113.5 55t86.5 137.5t32 163.5q0 91 -51 91zM418 512q16 72 46 126q-29 94 -103 94q-54 0 -92.5 -57t-50.5 -166h199z" />
    <glyph glyph-name="f_h" unicode="fh" horiz-adv-x="824" 
d="M290 0l170 679q-11 32 -35 52.5t-55 20.5q-125 0 -152 -243h125l-9 -38h-121l-73 -320q-45 -199 -98 -278.5t-136 -79.5q-38 0 -62.5 17t-24.5 46q0 45 55 58h9q4 -42 20 -67t39 -25q20 0 33 14t31 71t39 169l72 395h-78l6 24l80 18q26 117 93.5 193.5t158.5 76.5
q61 0 106 -35l79 35h10l-128 -501q49 91 124.5 169.5t141.5 78.5q35 0 49.5 -18t14.5 -53q0 -18 -6 -44l-79 -299q-9 -34 -9 -44q0 -15 14 -15q29 0 90 75l15 -11q-48 -71 -80 -101t-66 -30q-28 0 -43.5 18.5t-15.5 49.5q0 33 14 86l74 275q5 22 5 33q0 21 -18 21
q-53 0 -139 -100.5t-117 -227.5l-36 -145h-87z" />
    <glyph glyph-name="f_f_h" unicode="ffh" horiz-adv-x="1117" 
d="M583 0l170 679q-11 32 -35 52.5t-55 20.5q-125 0 -152 -243h125l-9 -38h-121l-71 -303q-47 -200 -99 -279t-135 -79q-77 0 -77 63q0 45 55 58h9q1 -43 13 -67.5t31 -24.5q22 0 37 15.5t33 72t38 166.5l70 378h-197l-73 -320q-45 -199 -98 -278.5t-136 -79.5
q-38 0 -62.5 17t-24.5 46q0 45 55 58h9q4 -42 20 -67t39 -25q20 0 33 14t31 71t39 169l72 395h-78l6 24l80 18q25 112 96 181t157 69q90 0 134 -56q70 76 158 76q60 0 106 -35l79 35h10l-128 -501q49 91 124.5 169.5t141.5 78.5q35 0 49.5 -18t14.5 -53q0 -18 -6 -44
l-79 -299q-9 -34 -9 -44q0 -15 14 -15q29 0 90 75l15 -11q-48 -71 -80 -101t-66 -30q-28 0 -43.5 18.5t-15.5 49.5q0 33 14 86l74 275q5 22 5 33q0 21 -18 21q-53 0 -139 -100.5t-117 -227.5l-36 -145h-87zM361 732q-54 0 -92.5 -57t-50.5 -166h199l1 3q16 72 46 126
q-29 94 -103 94z" />
    <glyph glyph-name="f_idieresis" unicode="f&#xef;" horiz-adv-x="551" 
d="M423 509l78 21h10l-104 -414q-9 -34 -9 -44q0 -15 14 -15q29 0 90 75l15 -11q-48 -71 -80 -101t-66 -30q-28 0 -43.5 18.5t-15.5 49.5q0 33 14 86l83 327h-196l-73 -320q-45 -199 -98 -278.5t-136 -79.5q-38 0 -62.5 17t-24.5 46q0 45 55 58h9q4 -42 20 -67t39 -25
q20 0 33 14t31 71t39 169l72 395h-78l6 24l80 18q21 120 77 195t144 75q56 0 86 -27.5t30 -70.5q0 -32 -20 -53.5t-58 -24.5h-13q16 47 1 96.5t-56 49.5q-45 0 -66 -60.5t-32 -183.5h205zM565 608q-25 0 -41.5 16.5t-16.5 41.5q0 26 18.5 45t44.5 19q25 0 41.5 -16.5
t16.5 -41.5q0 -26 -18.5 -45t-44.5 -19z" />
    <glyph glyph-name="f_f_idieresis" unicode="ff&#xef;" horiz-adv-x="844" 
d="M340 93l70 378h-197l-73 -320q-45 -199 -98 -278.5t-136 -79.5q-38 0 -62.5 17t-24.5 46q0 45 55 58h9q4 -42 20 -67t39 -25q20 0 33 14t31 71t39 169l72 395h-78l6 24l80 18q25 112 96 181t157 69q79 0 125 -46q56 66 136 66q56 0 86 -27.5t30 -70.5q0 -32 -20 -53.5
t-58 -24.5h-13q16 47 1 96.5t-56 49.5q-45 0 -66 -60.5t-32 -183.5h205l78 21h10l-104 -414q-9 -34 -9 -44q0 -15 14 -15q29 0 90 75l15 -11q-48 -71 -80 -101t-66 -30q-28 0 -43.5 18.5t-15.5 49.5q0 33 14 86l83 327h-196l-71 -303q-47 -200 -99 -279t-135 -79
q-77 0 -77 63q0 45 55 58h9q1 -43 13 -67.5t31 -24.5q22 0 37 15.5t33 72t38 166.5zM361 732q-54 0 -92.5 -57t-50.5 -166h199l1 3q12 76 41 137q-28 83 -98 83zM858 608q-25 0 -41.5 16.5t-16.5 41.5q0 26 18.5 45t44.5 19q25 0 41.5 -16.5t16.5 -41.5q0 -26 -18.5 -45
t-44.5 -19z" />
    <glyph glyph-name="f_j" unicode="fj" horiz-adv-x="517" 
d="M410 471h-197l-73 -320q-45 -199 -98 -278.5t-136 -79.5q-38 0 -62.5 17t-24.5 46q0 45 55 58h9q4 -42 20 -67t39 -25q20 0 33 14t31 71t39 169l72 395h-78l6 24l80 18q26 117 94.5 193.5t159.5 76.5q53 0 82.5 -20t29.5 -54q0 -52 -65 -62h-12q5 46 -11.5 75.5
t-50.5 29.5q-53 0 -87 -63t-47 -180h205l78 21h10l-84 -376q-41 -186 -98 -265.5t-138 -79.5q-35 0 -57 17t-22 46q0 45 55 58h9q2 -92 45 -92q27 0 44.5 34t40.5 137z" />
    <glyph glyph-name="f_f_j" unicode="ffj" horiz-adv-x="809" 
d="M702 471h-196l-71 -303q-47 -200 -99 -279t-135 -79q-77 0 -77 63q0 45 55 58h9q1 -43 13 -67.5t31 -24.5q22 0 37 15.5t33 72t38 166.5l70 378h-197l-73 -320q-45 -199 -98 -278.5t-136 -79.5q-38 0 -62.5 17t-24.5 46q0 45 55 58h9q4 -42 20 -67t39 -25q20 0 33 14
t31 71t39 169l72 395h-78l6 24l80 18q25 112 96 181t157 69q89 0 134 -57q71 77 160 77q53 0 82.5 -20t29.5 -54q0 -52 -65 -62h-12q5 46 -11.5 75.5t-50.5 29.5q-53 0 -87 -63t-47 -180h204l78 21h10l-84 -376q-41 -186 -98 -265.5t-138 -79.5q-35 0 -57 17t-22 46
q0 45 55 58h9q2 -92 45 -92q27 0 44.5 34t40.5 137zM361 732q-54 0 -92.5 -57t-50.5 -166h199l1 3q16 70 46 125q-28 95 -103 95z" />
    <glyph glyph-name="f_k" unicode="fk" horiz-adv-x="782" 
d="M334 471h-121l-73 -320q-45 -199 -98 -278.5t-136 -79.5q-38 0 -62.5 17t-24.5 46q0 45 55 58h9q4 -42 20 -67t39 -25q20 0 33 14t31 71t39 169l72 395h-78l6 24l80 18q26 117 93.5 193.5t158.5 76.5q61 0 106 -35l79 35h10l-195 -783h-88l171 679q-11 32 -35 52.5
t-55 20.5q-125 0 -152 -243h125zM537 325l82 -214q2 -5 5 -13l4.5 -12t4.5 -10.5t4.5 -10t4 -7.5t5 -6.5t5.5 -4.5t6.5 -3t7.5 -1q16 0 32.5 16t47.5 55l15 -11q-37 -61 -65 -87t-64 -26q-37 0 -59 26t-40 80l-66 191l170 186q53 57 94 57q30 0 45.5 -17t15.5 -41
q0 -45 -56 -68h-7q0 21 -9.5 37t-30.5 16q-31 0 -74 -46z" />
    <glyph glyph-name="f_f_k" unicode="ffk" horiz-adv-x="1075" 
d="M627 471h-121l-71 -303q-47 -200 -99 -279t-135 -79q-77 0 -77 63q0 45 55 58h9q1 -43 13 -67.5t31 -24.5q22 0 37 15.5t33 72t38 166.5l70 378h-197l-73 -320q-45 -199 -98 -278.5t-136 -79.5q-38 0 -62.5 17t-24.5 46q0 45 55 58h9q4 -42 20 -67t39 -25q20 0 33 14
t31 71t39 169l72 395h-78l6 24l80 18q25 112 96 181t157 69q90 0 134 -56q70 76 158 76q60 0 106 -35l79 35h10l-195 -783h-88l171 679q-11 32 -35 52.5t-55 20.5q-125 0 -152 -243h125zM830 325l82 -214q2 -5 5 -13l4.5 -12t4.5 -10.5t4.5 -10t4 -7.5t5 -6.5t5.5 -4.5
t6.5 -3t7.5 -1q16 0 32.5 16t47.5 55l15 -11q-37 -61 -65 -87t-64 -26q-37 0 -59 26t-40 80l-66 191l170 186q53 57 94 57q30 0 45.5 -17t15.5 -41q0 -45 -56 -68h-7q0 21 -9.5 37t-30.5 16q-31 0 -74 -46zM418 512q16 72 46 126q-29 94 -103 94q-54 0 -92.5 -57t-50.5 -166
h199z" />
    <glyph glyph-name=".notdef" horiz-adv-x="960" 
d="M90 0v780h780v-780h-780zM480 345l-279 -279h558zM201 714l279 -279l279 279h-558zM435 390l-275 275v-550zM525 390l275 -275v550z" />
    <glyph glyph-name=".null" horiz-adv-x="0" 
 />
    <glyph glyph-name="nonmarkingreturn" horiz-adv-x="333" 
 />
    <glyph glyph-name="space" unicode=" " horiz-adv-x="200" 
 />
    <glyph glyph-name="exclam" unicode="!" horiz-adv-x="238" 
d="M281 702l-171 -499h-15l65 499h121zM7 59q0 29 20.5 49t48.5 20t48.5 -20t20.5 -49t-20.5 -49t-48.5 -20t-48.5 20t-20.5 49z" />
    <glyph glyph-name="quotedbl" unicode="&#x22;" horiz-adv-x="253" 
d="M109 492h-9l13 135q1 10 2.5 28.5t2.5 28t3 22t5 21t8 15.5q14 20 38 20q39 0 39 -41q0 -27 -39 -105zM226 492h-9l13 135q1 10 2.5 28.5t2.5 28t3 22t5 21t8 15.5q14 20 38 20q39 0 39 -41q0 -27 -39 -105z" />
    <glyph glyph-name="numbersign" unicode="#" horiz-adv-x="545" 
d="M465 234h-109l-77 -243l-32 10l73 233h-148l-77 -243l-32 10l73 233h-105v29h114l64 201h-107v29h116l70 220l32 -10l-67 -210h149l70 220l32 -10l-67 -210h99v-29h-108l-63 -201h100v-29zM244 464l-63 -201h148l64 201h-149z" />
    <glyph glyph-name="dollar" unicode="$" horiz-adv-x="539" 
d="M473 208q0 -99 -75.5 -158.5t-178.5 -59.5h-5l-23 -103h-27l23 104q-61 5 -109 25.5t-74 45.5l26 167h26q8 -187 139 -205l67 294l-19 9q-70 34 -104.5 77t-34.5 103q0 90 65 147.5t172 57.5h10l22 94h27l-22 -96q87 -9 150 -57l-28 -147h-25q-1 77 -25.5 119t-79.5 52
l-63 -277q80 -37 123 -82t43 -110zM383 169q0 47 -22 76.5t-75 59.5l-64 -283h3q71 0 114.5 39.5t43.5 107.5zM189 538q0 -43 22 -72t72 -54l61 268h-9q-66 0 -106 -40t-40 -102z" />
    <glyph glyph-name="percent" unicode="%" horiz-adv-x="734" 
d="M242 712q60 0 99 -40t39 -104q0 -83 -53 -135.5t-121 -52.5q-60 0 -99 40t-39 104q0 83 53 135.5t121 52.5zM242 687q-49 0 -78 -56.5t-29 -126.5q0 -99 71 -99q49 0 78 56.5t29 126.5q0 99 -71 99zM503 -10q-60 0 -99 40t-39 104q0 83 53 135.5t121 52.5q60 0 99 -40
t39 -104q0 -83 -53 -135.5t-121 -52.5zM691 712l-597 -722h-40l597 722h40zM503 15q49 0 78 56.5t29 126.5q0 99 -71 99q-49 0 -78 -56.5t-29 -126.5q0 -99 71 -99z" />
    <glyph glyph-name="ampersand" unicode="&#x26;" horiz-adv-x="660" 
d="M10 170q0 84 57.5 138.5t147.5 79.5q-43 69 -43 136q0 80 56.5 134t140.5 54q71 0 113.5 -38t42.5 -93q0 -67 -52 -111t-158 -75l149 -230q58 82 58 166q0 37 -55 37l5 26h203l-5 -26q-58 0 -77.5 -13t-34.5 -59q-35 -95 -77 -157l30 -46q46 -66 112 -66l-6 -27h-127
q-33 18 -69 70q-88 -80 -210 -80q-84 0 -142.5 48t-58.5 132zM257 36q75 0 146 61l-177 274q-58 -22 -90 -70t-32 -113q0 -71 43.5 -111.5t109.5 -40.5zM251 550q0 -57 48 -130l4 -7q77 27 110 65t33 103q0 46 -23 74t-67 28q-47 0 -76 -36.5t-29 -96.5z" />
    <glyph glyph-name="quotesingle" unicode="'" horiz-adv-x="136" 
d="M109 492h-9l13 135q1 10 2.5 28.5t2.5 28t3 22t5 21t8 15.5q14 20 38 20q39 0 39 -41q0 -27 -39 -105z" />
    <glyph glyph-name="parenleft" unicode="(" horiz-adv-x="338" 
d="M74 197q0 161 86.5 307t232.5 266h39q-134 -113 -207 -283.5t-73 -314.5q0 -196 86 -314h-39q-125 155 -125 339z" />
    <glyph glyph-name="parenright" unicode=")" horiz-adv-x="338" 
d="M288 431q0 -161 -86.5 -307t-232.5 -266h-39q134 113 207 283.5t73 314.5q0 196 -86 314h39q125 -155 125 -339z" />
    <glyph glyph-name="asterisk" unicode="*" horiz-adv-x="403" 
d="M422 584h-136l101 -92q13 -11 13 -24.5t-10 -21.5q-26 -19 -44 14l-68 119l-29 -134q-4 -17 -14.5 -24t-23.5 -2q-13 6 -16 17.5t6 27.5l68 118l-130 -41q-17 -6 -28 0.5t-13 19.5t7 22t27 9h136l-101 92q-13 11 -13 24.5t10 21.5q26 19 44 -14l67 -119l30 134
q4 17 14.5 24t23.5 2q13 -6 16 -17.5t-6 -27.5l-69 -118l131 41q17 6 28 -0.5t13 -19.5t-7 -22t-27 -9z" />
    <glyph glyph-name="plus" unicode="+" horiz-adv-x="564" 
d="M314 590h54l-41 -193h192l-11 -52h-192l-41 -193h-54l41 193h-192l11 52h192z" />
    <glyph glyph-name="comma" unicode="," horiz-adv-x="200" 
d="M66 -1h-31q-20 4 -33 18.5t-13 37.5q0 27 18 44t45 17q32 0 49.5 -21.5t17.5 -57.5q0 -63 -48 -105.5t-122 -48.5v23q110 19 117 93z" />
    <glyph glyph-name="hyphen" unicode="-" horiz-adv-x="320" 
d="M284 278h-260l10 45h260z" />
    <glyph glyph-name="period" unicode="." horiz-adv-x="200" 
d="M-15 59q0 29 20.5 49t48.5 20t48.5 -20t20.5 -49t-20.5 -49t-48.5 -20t-48.5 20t-20.5 49z" />
    <glyph glyph-name="slash" unicode="/" horiz-adv-x="377" 
d="M458 770l-493 -911h-40l492 911h41z" />
    <glyph glyph-name="zero" unicode="0" horiz-adv-x="596" 
d="M241 -10q-99 0 -151.5 71.5t-52.5 183.5q0 114 42 220t122.5 176.5t180.5 70.5q99 0 151.5 -71.5t52.5 -183.5q0 -114 -42 -220t-122.5 -176.5t-180.5 -70.5zM242 19q68 0 125 71.5t87.5 173.5t30.5 203q0 216 -105 216q-68 0 -125 -71.5t-87 -173.5t-30 -203
q0 -216 104 -216z" />
    <glyph glyph-name="one" unicode="1" horiz-adv-x="403" 
d="M334 711h19l-125 -591q-11 -59 12 -74.5t99 -18.5l-6 -27h-351l6 27q82 6 106.5 17t35.5 55l102 484h-138l6 24l35 6q71 12 112.5 31.5t86.5 66.5z" />
    <glyph glyph-name="two" unicode="2" horiz-adv-x="531" 
d="M93 82h175q70 0 103.5 18.5t75.5 87.5h24l-60 -188h-447l4 17q195 157 284.5 240t127.5 142t38 121q0 52 -34 84t-92 32q-59 0 -101.5 -26t-85.5 -74l-14 17q97 159 240 159q83 0 133.5 -46.5t50.5 -124.5q0 -40 -17 -79t-42 -70.5t-69.5 -72t-83.5 -71t-102 -80
t-108 -86.5z" />
    <glyph glyph-name="three" unicode="3" horiz-adv-x="517" 
d="M183 372q98 24 160.5 69.5t62.5 111.5q0 42 -28 69t-74 27q-96 0 -179 -97l-16 18q96 142 236 142q72 0 114 -37.5t42 -94.5q0 -123 -183 -182q69 -7 114 -53.5t45 -109.5q0 -59 -26 -107.5t-66.5 -77.5t-87 -44.5t-91.5 -15.5q-107 0 -156.5 42t-49.5 100q0 59 59 87h48
q-18 -39 -18 -73q0 -58 29 -92.5t90 -34.5q73 0 123.5 51.5t50.5 131.5q0 70 -34.5 111t-94.5 41q-34 0 -65 -8z" />
    <glyph glyph-name="four" unicode="4" horiz-adv-x="605" 
d="M69 232h274l75 349zM315 98l21 100h-332l4 20l483 484h48l-102 -470h120l-8 -34h-119l-21 -100q-7 -42 5.5 -53.5t68.5 -17.5l-6 -27h-270l6 27q59 7 76.5 18.5t25.5 52.5z" />
    <glyph glyph-name="five" unicode="5" horiz-adv-x="518" 
d="M196 605l-47 -159q83 4 152.5 -16t117 -71t47.5 -128q0 -105 -72.5 -173t-180.5 -68q-101 0 -157 39t-56 102q0 60 58 88h49q-18 -35 -18 -75q0 -55 32 -90t92 -35q72 0 120 49.5t48 129.5q0 186 -290 171l101 328h240q29 0 41.5 6.5t33.5 37.5h22l-51 -136h-282z" />
    <glyph glyph-name="six" unicode="6" horiz-adv-x="550" 
d="M544 689q-140 -40 -243.5 -119t-144.5 -196q75 73 170 73q88 0 139 -55t51 -136q0 -113 -76 -189.5t-180 -76.5q-108 0 -165.5 67t-57.5 171q0 175 134.5 311t355.5 172zM287 401q-81 0 -139 -52q-16 -61 -16 -122q0 -95 32.5 -151t97.5 -56q75 0 116.5 61t41.5 151
q0 75 -33 122t-100 47z" />
    <glyph glyph-name="seven" unicode="7" horiz-adv-x="503" 
d="M486 613h-262q-48 0 -76.5 -20.5t-60.5 -65.5h-27l80 175h425l-3 -19l-418 -683h-98z" />
    <glyph glyph-name="eight" unicode="8" horiz-adv-x="545" 
d="M532 555q0 -71 -54 -117t-127 -59l34 -24q50 -35 76.5 -72.5t26.5 -89.5q0 -92 -65 -147.5t-171 -55.5q-104 0 -167.5 51.5t-63.5 131.5q0 72 54.5 120.5t140.5 66.5l-17 12q-81 57 -81 147q0 81 59.5 137t156.5 56q85 0 141.5 -41.5t56.5 -115.5zM320 293l-89 57
q-61 -22 -92 -71.5t-31 -104.5q0 -69 39.5 -111.5t104.5 -42.5q61 0 104.5 38.5t43.5 107.5q0 75 -80 127zM272 431l67 -44q54 23 84 66.5t30 100.5q0 55 -31 91.5t-88 36.5q-56 0 -92.5 -34.5t-36.5 -96.5q0 -77 67 -120z" />
    <glyph glyph-name="nine" unicode="9" horiz-adv-x="550" 
d="M33 13q140 39 243 118.5t144 196.5q-75 -73 -169 -73q-88 0 -139 55t-51 136q0 113 76 189.5t180 76.5q108 0 165.5 -67t57.5 -171q0 -175 -134.5 -311t-355.5 -172zM290 301q81 0 138 52q17 57 17 122q0 95 -32.5 151t-97.5 56q-75 0 -116.5 -61t-41.5 -151
q0 -75 33 -122t100 -47z" />
    <glyph glyph-name="colon" unicode=":" horiz-adv-x="200" 
d="M-15 59q0 29 20.5 49t48.5 20t48.5 -20t20.5 -49t-20.5 -49t-48.5 -20t-48.5 20t-20.5 49zM55 401q0 29 20.5 49t48.5 20t48.5 -20t20.5 -49t-20.5 -49t-48.5 -20t-48.5 20t-20.5 49z" />
    <glyph glyph-name="semicolon" unicode=";" horiz-adv-x="200" 
d="M65 -1h-31q-20 4 -33 18.5t-13 37.5q0 27 18 44t45 17q32 0 49.5 -21.5t17.5 -57.5q0 -63 -48 -105.5t-122 -48.5v23q110 19 117 93zM55 401q0 29 20.5 49t48.5 20t48.5 -20t20.5 -49t-20.5 -49t-48.5 -20t-48.5 20t-20.5 49z" />
    <glyph glyph-name="less" unicode="&#x3c;" horiz-adv-x="413" 
d="M61 366l2 8l350 189l-13 -64l-250 -132l194 -132l-13 -58z" />
    <glyph glyph-name="equal" unicode="=" horiz-adv-x="574" 
d="M60 276l11 51h438l-11 -51h-438zM89 414l12 52h438l-12 -52h-438z" />
    <glyph glyph-name="greater" unicode="&#x3e;" horiz-adv-x="413" 
d="M386 374l-2 -8l-350 -189l14 64l250 132l-194 132l12 58z" />
    <glyph glyph-name="question" unicode="?" horiz-adv-x="440" 
d="M281 442q57 33 83 64.5t26 83.5q0 45 -25.5 72t-71.5 27q-45 0 -71 -29t-26 -80q0 -23 5 -48h-70q-24 18 -24 57q0 56 52 89.5t134 33.5q83 0 132.5 -41.5t49.5 -110.5q0 -65 -35.5 -103t-111.5 -80q-61 -34 -92 -66t-31 -77q0 -13 8 -41h-16q-39 39 -39 94q0 49 30.5 84
t92.5 71zM93 59q0 29 20.5 49t48.5 20t48.5 -20t20.5 -49t-20.5 -49t-48.5 -20t-48.5 20t-20.5 49z" />
    <glyph glyph-name="at" unicode="@" horiz-adv-x="847" 
d="M587 75q-71 0 -93.5 51t0.5 132q-81 -182 -177 -182q-43 0 -68 33t-25 93q0 111 79.5 205.5t174.5 94.5q53 0 89 -34l68 37h14l-30 -86l-61 -205q-27 -111 34 -111q80 0 123.5 84t43.5 192q0 129 -69 205t-202 76q-113 0 -202.5 -64.5t-135 -164.5t-45.5 -213
q0 -137 82.5 -220t220.5 -83q84 0 143.5 16.5t129.5 56.5l9 -14q-54 -43 -131 -70t-159 -27q-170 0 -267 90.5t-97 250.5q0 120 56 227t161.5 175t234.5 68q157 0 246 -83t89 -226q0 -73 -27.5 -141.5t-83 -115.5t-125.5 -47zM347 125q48 0 106 91.5t93 222.5q-18 37 -68 37
q-70 0 -121.5 -90t-51.5 -186q0 -34 11 -54.5t31 -20.5z" />
    <glyph glyph-name="A" unicode="A" horiz-adv-x="696" 
d="M490 110l-27 136h-284l-82 -135q-20 -34 -20 -50q0 -17 19.5 -24.5t63.5 -9.5l-5 -27h-203l5 27q48 5 67 37l358 583l-14 64h96l128 -647q6 -32 51 -37l-5 -27h-251l5 27q21 1 32.5 2t26.5 4t23 9t13.5 17t5.5 26q0 11 -3 25zM395 601l-197 -323h259z" />
    <glyph glyph-name="B" unicode="B" horiz-adv-x="617" 
d="M326 346h-96l-52 -246q-9 -39 10.5 -53t73.5 -14h12q89 0 143.5 46.5t54.5 139.5q0 57 -38 92t-108 35zM373 669h-74l-62 -290h74q90 0 143.5 42.5t53.5 134.5q0 113 -135 113zM-26 0l6 27q59 7 76.5 18.5t26.5 52.5l108 506q9 43 -4.5 53.5t-68.5 17.5l5 27h281
q102 0 151 -38t49 -104q0 -48 -19.5 -86t-53 -60.5t-71.5 -35t-80 -14.5q89 -4 139.5 -45.5t50.5 -104.5q0 -101 -83 -157.5t-209 -56.5h-304z" />
    <glyph glyph-name="C" unicode="C" horiz-adv-x="644" 
d="M455 712q131 0 209 -59l-31 -146h-27q1 84 -38 128t-113 44q-73 0 -134 -40t-98 -102.5t-57 -133.5t-20 -138q0 -117 43 -179.5t125 -62.5q84 0 144.5 48.5t105.5 150.5h30l-51 -178q-106 -54 -229 -54q-129 0 -199 74t-70 201q0 79 30 158.5t82.5 144t130.5 104.5
t167 40z" />
    <glyph glyph-name="D" unicode="D" horiz-adv-x="700" 
d="M253 33h15q140 0 231.5 106.5t91.5 280.5q0 119 -56 184t-171 65h-65l-120 -565q-9 -42 8 -56.5t66 -14.5zM257 0h-283l6 27q59 7 76.5 18.5t26.5 52.5l108 506q9 43 -4.5 53.5t-68.5 17.5l6 27h253q147 0 231 -76t84 -206q0 -190 -124 -305t-311 -115z" />
    <glyph glyph-name="E" unicode="E" horiz-adv-x="614" 
d="M509 0h-535l6 27q59 7 76.5 18.5t26.5 52.5l108 506q9 43 -4.5 53.5t-68.5 17.5l6 27h522l-31 -167h-20q-16 80 -40.5 107t-76.5 27h-179l-62 -290h159q31 0 51 21.5t39 68.5h27l-45 -213h-27q2 47 -9.5 68.5t-42.5 21.5h-159l-52 -245q-9 -39 10.5 -53.5t73.5 -14.5h92
q51 0 91 31.5t108 115.5h24z" />
    <glyph glyph-name="F" unicode="F" horiz-adv-x="563" 
d="M281 0h-307l6 27q59 7 76.5 18.5t26.5 52.5l108 506q9 43 -4.5 53.5t-68.5 17.5l6 27h503l-32 -170h-20q-9 78 -36 107.5t-80 29.5h-160l-64 -300h138q30 0 49.5 22.5t38.5 71.5h27l-47 -221h-27q2 49 -7.5 71.5t-40.5 22.5h-138l-48 -225q-10 -45 12 -60.5t96 -21.5z
" />
    <glyph glyph-name="G" unicode="G" horiz-adv-x="697" 
d="M323 23q93 0 148 42l36 163q9 43 -4.5 53.5t-68.5 17.5l6 27h252l-6 -27q-48 -3 -65 -16.5t-25 -54.5l-35 -166q-60 -36 -114.5 -54t-123.5 -18q-131 0 -204.5 72.5t-73.5 198.5q0 79 30.5 159.5t83 145t131.5 105.5t167 41q130 0 213 -59l-31 -146h-27q1 84 -39.5 128
t-115.5 44q-73 0 -134 -40.5t-98.5 -103.5t-58 -135t-20.5 -139q0 -115 46.5 -176.5t130.5 -61.5z" />
    <glyph glyph-name="H" unicode="H" horiz-adv-x="771" 
d="M83 98l108 506q9 43 -4.5 53.5t-68.5 17.5l6 27h270l-6 -27q-59 -7 -76.5 -18.5t-26.5 -52.5l-48 -224h351l48 224q9 43 -4.5 53.5t-68.5 17.5l6 27h270l-6 -27q-59 -7 -76.5 -18.5t-26.5 -52.5l-108 -506q-9 -43 4.5 -53.5t68.5 -17.5l-6 -27h-270l6 27q59 7 76.5 18.5
t26.5 52.5l53 248h-351l-53 -248q-9 -43 4.5 -53.5t68.5 -17.5l-6 -27h-270l6 27q59 7 76.5 18.5t26.5 52.5z" />
    <glyph glyph-name="I" unicode="I" horiz-adv-x="326" 
d="M83 98l108 506q9 43 -4.5 53.5t-68.5 17.5l6 27h270l-6 -27q-59 -7 -76.5 -18.5t-26.5 -52.5l-108 -506q-9 -43 4.5 -53.5t68.5 -17.5l-6 -27h-270l6 27q59 7 76.5 18.5t26.5 52.5z" />
    <glyph glyph-name="J" unicode="J" horiz-adv-x="490" 
d="M272 167l93 437q9 43 -4.5 53.5t-68.5 17.5l6 27h270l-6 -27q-59 -7 -76.5 -18.5t-26.5 -52.5l-89 -417q-22 -103 -82 -150t-156 -47q-72 0 -114.5 29t-42.5 78q0 50 43 83h69q-20 -43 -20 -78q0 -39 19.5 -61.5t56.5 -22.5q49 0 80.5 34.5t48.5 114.5z" />
    <glyph glyph-name="K" unicode="K" horiz-adv-x="661" 
d="M334 379l164 -282q25 -40 48 -54.5t66 -15.5l-6 -27h-146q-23 21 -64 86l-152 262l306 265q30 25 30 39q0 12 -13.5 16.5t-56.5 6.5l5 27h215l-5 -27q-32 -1 -55 -12.5t-55 -38.5zM285 604l-108 -506q-9 -43 4.5 -53.5t68.5 -17.5l-6 -27h-270l6 27q59 7 76.5 18.5
t26.5 52.5l108 506q9 43 -4.5 53.5t-68.5 17.5l5 27h271l-6 -27q-59 -7 -76.5 -18.5t-26.5 -52.5z" />
    <glyph glyph-name="L" unicode="L" horiz-adv-x="582" 
d="M285 604l-107 -503q-9 -39 10.5 -53.5t73.5 -14.5h59q58 0 99 35.5t107 126.5h25l-73 -195h-505l6 27q59 7 76.5 18.5t26.5 52.5l108 506q9 43 -4.5 53.5t-68.5 17.5l6 27h270l-6 -27q-59 -7 -76.5 -18.5t-26.5 -52.5z" />
    <glyph glyph-name="M" unicode="M" horiz-adv-x="890" 
d="M659 99l45 467l-325 -566h-19l-99 566l-147 -451q-16 -49 -3 -67t75 -21l-6 -27h-214l6 27q44 3 62.5 14.5t30.5 45.5l170 515q9 39 -6 54.5t-63 18.5l6 27h166q-3 -24 3 -57l87 -492l282 492q21 36 27 57h167l-6 -27q-48 -3 -69.5 -18.5t-30.5 -54.5l-49 -515
q-1 -34 13 -45.5t56 -14.5l-6 -27h-266l6 27q64 5 82.5 17t24.5 55z" />
    <glyph glyph-name="N" unicode="N" horiz-adv-x="729" 
d="M561 146l95 458q8 40 -12.5 54t-81.5 17l6 27h237l-6 -27q-59 -7 -76.5 -18.5t-26.5 -52.5l-129 -608h-25l-318 581l-101 -479q-8 -40 12.5 -54t81.5 -17l-6 -27h-237l6 27q59 7 76.5 18.5t26.5 52.5l110 516q-20 37 -35.5 48.5t-51.5 12.5l6 27h151z" />
    <glyph glyph-name="O" unicode="O" horiz-adv-x="696" 
d="M428 712q126 0 193 -77.5t67 -194.5q0 -62 -17 -126t-51 -121.5t-79.5 -103t-107 -72.5t-128.5 -27q-126 0 -193 77.5t-67 194.5q0 62 17 126t51 121.5t79.5 103t107 72.5t128.5 27zM428 679q-85 0 -151.5 -68t-98.5 -161.5t-32 -187.5q0 -107 39 -173t120 -66
q85 0 151.5 68t98.5 161.5t32 187.5q0 107 -39 173t-120 66z" />
    <glyph glyph-name="P" unicode="P" horiz-adv-x="581" 
d="M124 702h259q112 0 169.5 -49t57.5 -126q0 -112 -89 -176t-232 -64h-71l-38 -176q-10 -46 11 -61.5t96 -20.5l-6 -29h-307l6 27q59 7 76.5 18.5t26.5 52.5l108 506q9 43 -4.5 53.5t-68.5 17.5zM299 669l-74 -349h66q102 0 163 52.5t61 154.5q0 65 -40 103.5t-118 38.5
h-58z" />
    <glyph glyph-name="Q" unicode="Q" horiz-adv-x="696" 
d="M428 712q126 0 193 -77.5t67 -194.5q0 -98 -40.5 -194.5t-120 -168t-178.5 -84.5l41 -60q26 -38 51 -58t68 -23l-2 -10q-44 -21 -85 -21q-80 0 -113 77l-41 94q-109 12 -166 87t-57 183q0 62 17 126t51 121.5t79.5 103t107 72.5t128.5 27zM428 679q-85 0 -151.5 -68
t-98.5 -161.5t-32 -187.5q0 -108 39.5 -175.5t119.5 -67.5q84 0 151 69t99 163.5t32 188.5q0 107 -39 173t-120 66z" />
    <glyph glyph-name="R" unicode="R" horiz-adv-x="674" 
d="M363 669h-64l-70 -329h55q101 0 160.5 51t59.5 144q0 61 -34.5 97.5t-106.5 36.5zM222 306l-45 -208q-9 -43 4.5 -53.5t68.5 -17.5l-6 -27h-270l6 27q59 7 76.5 18.5t26.5 52.5l108 506q9 43 -4.5 53.5t-68.5 17.5l6 27h268q111 0 162 -46.5t51 -118.5q0 -40 -15.5 -74.5
t-39 -58t-54 -41.5t-57.5 -27.5t-53 -14.5l119 -210q27 -46 52.5 -64.5t66.5 -19.5l-5 -27h-143q-29 23 -65 89l-116 217h-73z" />
    <glyph glyph-name="S" unicode="S" horiz-adv-x="529" 
d="M479 208q0 -99 -75.5 -158.5t-178.5 -59.5q-72 0 -128.5 21.5t-86.5 50.5l26 167h26q9 -207 169 -207q71 0 113.5 39.5t42.5 107.5q0 55 -29.5 87.5t-108.5 70.5q-70 34 -104.5 77t-34.5 103q0 90 65 147.5t172 57.5q111 0 187 -59l-28 -147h-25q-1 89 -33.5 131.5
t-106.5 42.5q-66 0 -105 -40t-39 -102q0 -47 25.5 -76.5t85.5 -57.5q82 -38 126.5 -84t44.5 -112z" />
    <glyph glyph-name="T" unicode="T" horiz-adv-x="641" 
d="M457 671l-121 -571q-9 -43 7.5 -55t75.5 -18l-6 -27h-290l6 27q64 7 84 19t29 54l121 571h-72q-63 0 -99 -33.5t-105 -144.5h-22l60 209h583l-30 -209h-22q-17 113 -35.5 145.5t-80.5 32.5h-83z" />
    <glyph glyph-name="U" unicode="U" horiz-adv-x="703" 
d="M571 254l75 350q9 43 -4.5 53.5t-68.5 17.5l6 27h215l-6 -27q-59 -7 -76.5 -18.5t-26.5 -52.5l-78 -367q-26 -123 -99.5 -185t-180.5 -62q-126 0 -191.5 73t-37.5 205l71 336q9 43 -4.5 53.5t-68.5 17.5l6 27h270l-6 -27q-59 -7 -76.5 -18.5t-26.5 -52.5l-72 -340
q-21 -100 19.5 -161.5t129.5 -61.5q98 0 153 51t78 162z" />
    <glyph glyph-name="V" unicode="V" horiz-adv-x="673" 
d="M345 125l276 466q20 34 20 50q0 17 -19.5 24.5t-63.5 9.5l6 27h200l-6 -27q-49 -7 -67 -37l-387 -647h-20l-138 647q-4 19 -16 26.5t-35 10.5l6 27h248l-6 -27q-52 -2 -77 -12.5t-25 -43.5q0 -6 4 -28z" />
    <glyph glyph-name="W" unicode="W" horiz-adv-x="916" 
d="M567 592l52 -454l249 453q19 36 19 48q0 17 -17 26t-65 10l6 27h196l-6 -27q-18 -3 -26.5 -5t-20 -10t-19.5 -22l-360 -647h-21l-50 425l-243 -425h-22l-93 647q-3 30 -51 37l6 27h248l-6 -27q-59 -3 -80 -13.5t-21 -36.5q0 -17 2 -33l62 -458l191 337l-19 167
q-3 30 -51 37l6 27h239l-6 -27q-59 -3 -80 -13.5t-21 -36.5q0 -17 2 -33z" />
    <glyph glyph-name="X" unicode="X" horiz-adv-x="673" 
d="M428 106l-94 212l-187 -205q-34 -37 -34 -56q0 -29 76 -30l-6 -27h-226l6 27q30 0 51.5 10t49.5 40l255 274l-121 274q-22 50 -79 50l6 27h268l-6 -27q-49 0 -71.5 -6t-22.5 -25q0 -14 16 -52l78 -178l160 175q37 40 37 58q0 16 -17.5 22t-59.5 6l6 27h224l-6 -27
q-57 0 -103 -50l-226 -244l135 -304q21 -50 79 -50l-6 -27h-267l6 27q26 1 40 2t28 5t19.5 11t5.5 18q0 12 -14 43z" />
    <glyph glyph-name="Y" unicode="Y" horiz-adv-x="621" 
d="M360 283l-39 -183q-9 -43 7.5 -55t75.5 -18l-6 -27h-285l6 27q64 7 84 19t29 54l38 182l-124 356q-6 19 -17.5 26.5t-33.5 10.5l6 27h247l-6 -27q-58 -1 -78 -10t-20 -30q0 -12 9 -43l96 -269l210 268q28 36 28 52q0 17 -17.5 24t-63.5 8l6 27h200l-6 -27q-42 -6 -67 -37
z" />
    <glyph glyph-name="Z" unicode="Z" horiz-adv-x="603" 
d="M109 33h218q31 0 53 7t49 31.5t46 47.5t62 79h24l-74 -198h-507l3 16l548 653h-215q-55 0 -85 -28.5t-91 -123.5h-23l45 185h495l-4 -17z" />
    <glyph glyph-name="bracketleft" unicode="[" horiz-adv-x="312" 
d="M256 684l-157 -739q-8 -36 12.5 -46t87.5 -14l-5 -26h-182l193 911h182l-5 -26q-69 -4 -93.5 -14t-32.5 -46z" />
    <glyph glyph-name="backslash" unicode="\" horiz-adv-x="377" 
d="M244 -141l-107 911h36l107 -911h-36z" />
    <glyph glyph-name="bracketright" unicode="]" horiz-adv-x="312" 
d="M83 -55l157 739q8 36 -12.5 46t-87.5 14l5 26h182l-193 -911h-182l5 26q69 4 93.5 14t32.5 46z" />
    <glyph glyph-name="asciicircum" unicode="^" horiz-adv-x="462" 
d="M362 770l104 -290h-45l-89 256l-199 -256h-49l226 290h52z" />
    <glyph glyph-name="underscore" unicode="_" horiz-adv-x="390" 
d="M304 -105h-349l7 39h350z" />
    <glyph glyph-name="grave" unicode="`" horiz-adv-x="355" 
d="M170 761h100l60 -169h-17l-143 164v5z" />
    <glyph glyph-name="a" unicode="a" horiz-adv-x="539" 
d="M157 53q62 0 132.5 109.5t116.5 288.5q-22 51 -78 51q-57 0 -108 -54t-81 -139t-30 -173q0 -83 48 -83zM311 58q0 22 12.5 76t26.5 94q-46 -101 -107.5 -169.5t-117.5 -68.5q-50 0 -76.5 39t-26.5 107q0 102 45 194.5t115 146t141 53.5q59 0 99 -40l72 48h20l-35 -112
l-75 -310q-9 -34 -9 -44q0 -15 14 -15q29 0 90 75l15 -11q-48 -71 -80 -101t-66 -30q-28 0 -42.5 18t-14.5 50z" />
    <glyph glyph-name="b" unicode="b" horiz-adv-x="537" 
d="M287 783l-126 -503q44 98 117 174t130 76q50 0 78.5 -39t28.5 -107q0 -153 -101.5 -273.5t-213.5 -120.5q-60 0 -107.5 33t-59.5 88l147 589l-68 32l3 12l162 39h10zM376 467q-65 0 -150.5 -114.5t-118.5 -280.5q8 -26 33.5 -39t54.5 -13q59 0 113.5 55t86.5 137.5
t32 163.5q0 91 -51 91z" />
    <glyph glyph-name="c" unicode="c" horiz-adv-x="413" 
d="M285 500q-72 0 -124 -104.5t-52 -218.5q0 -57 25.5 -96.5t74.5 -39.5q43 0 75 23t70 73l16 -13q-85 -134 -195 -134q-74 0 -113.5 49t-39.5 125q0 88 39 172.5t106.5 139t143.5 54.5q54 0 83.5 -22.5t29.5 -60.5q0 -53 -59 -63h-6q-2 116 -74 116z" />
    <glyph glyph-name="d" unicode="d" horiz-adv-x="562" 
d="M158 53q63 0 139.5 111.5t117.5 286.5q-10 24 -32 37.5t-48 13.5q-59 0 -112 -56t-82.5 -138.5t-30.5 -163.5q0 -91 48 -91zM424 493l52 207l-68 32l3 12l162 39h10l-166 -667q-9 -34 -9 -44q0 -15 14 -15q29 0 90 75l15 -11q-48 -71 -80 -101t-66 -30q-28 0 -42.5 18
t-14.5 50q0 22 14.5 82.5t29.5 101.5q-45 -100 -115 -176t-127 -76q-50 0 -77 39t-27 107q0 102 47 194.5t118 146t143 53.5q57 0 94 -37z" />
    <glyph glyph-name="e" unicode="e" horiz-adv-x="424" 
d="M424 433q0 -37 -18.5 -67.5t-46 -50.5t-72.5 -37.5t-83 -27.5t-93 -22q-2 -28 -2 -42q0 -68 27.5 -106t76.5 -38q78 0 155 100l18 -13q-95 -139 -207 -139q-74 0 -115.5 49t-41.5 131q0 86 39 169.5t105.5 137t140.5 53.5q57 0 87 -27.5t30 -69.5zM289 499
q-62 0 -111 -75t-64 -175q118 27 173.5 71t55.5 118q0 26 -13.5 43.5t-40.5 17.5z" />
    <glyph glyph-name="f" unicode="f" horiz-adv-x="278" 
d="M38 471l6 24l83 19q23 119 83 194t141 75q47 0 73 -20t26 -54q0 -47 -58 -62h-11q0 45 -14.5 76t-45.5 31q-78 0 -102 -245h116l-9 -38h-113l-73 -320q-44 -199 -97 -278.5t-137 -79.5q-38 0 -62.5 17t-24.5 46q0 45 55 58h9q4 -42 20 -67t39 -25q20 0 33 14t31 71
t39 169l73 395h-80z" />
    <glyph glyph-name="g" unicode="g" horiz-adv-x="464" 
d="M430 384q0 -93 -62 -151.5t-152 -58.5q-30 0 -56 8q-41 -26 -41 -47q0 -8 6.5 -14.5t13.5 -9.5t22 -7l151 -48q114 -37 114 -121q0 -75 -73.5 -116t-184.5 -41q-98 0 -169.5 39.5t-71.5 98.5q0 52 43.5 81.5t121.5 49.5q-30 21 -30 52q0 50 80 89q-81 37 -81 132
q0 93 61.5 151.5t151.5 58.5q42 0 77 -16l170 7l-13 -49h-49l-64 9q35 -40 35 -97zM277 -21l-170 59q-97 -37 -97 -112q0 -53 46.5 -86t119.5 -33q86 0 131 26.5t45 68.5q0 30 -17.5 46t-57.5 31zM347 399q0 106 -73 106q-54 0 -92 -58.5t-38 -141.5q0 -106 72 -106
q55 0 93 58.5t38 141.5z" />
    <glyph glyph-name="h" unicode="h" horiz-adv-x="544" 
d="M292 783l-128 -501q49 91 124.5 169.5t141.5 78.5q35 0 49.5 -18t14.5 -53q0 -18 -6 -44l-79 -299q-9 -34 -9 -44q0 -15 14 -15q29 0 90 75l15 -11q-48 -71 -80 -101t-66 -30q-28 0 -43.5 18.5t-15.5 49.5q0 33 14 86l74 275q5 22 5 33q0 21 -18 21q-53 0 -139 -100.5
t-117 -227.5l-36 -145h-87l175 700l-68 32l3 12l162 39h10z" />
    <glyph glyph-name="i" unicode="i" horiz-adv-x="272" 
d="M220 611q-25 0 -41.5 17t-16.5 41q0 26 18.5 45t44.5 19q25 0 41.5 -17t16.5 -41q0 -26 -18.5 -45t-44.5 -19zM47 144l76 300l-61 31l3 12l157 43h10l-104 -414q-9 -34 -9 -44q0 -15 14 -15q29 0 90 75l15 -11q-48 -71 -80 -101t-66 -30q-28 0 -43.5 18.5t-15.5 49.5
q0 33 14 86z" />
    <glyph glyph-name="j" unicode="j" horiz-adv-x="240" 
d="M234 530l-88 -392q-42 -187 -99.5 -266t-142.5 -79q-38 0 -62.5 17t-24.5 46q0 45 55 58h9q4 -42 20 -67t39 -25q27 0 44.5 34t40.5 137l102 451l-61 31l3 12l155 43h10zM213 611q-25 0 -41.5 17t-16.5 41q0 26 18.5 45t44.5 19q25 0 41.5 -17t16.5 -41q0 -26 -18.5 -45
t-44.5 -19z" />
    <glyph glyph-name="k" unicode="k" horiz-adv-x="503" 
d="M258 325l82 -214q2 -5 5 -13l4.5 -12t4.5 -10.5t4.5 -10t4 -7.5t5 -6.5t5.5 -4.5t6.5 -3t7.5 -1q16 0 32.5 16t47.5 55l15 -11q-37 -61 -65 -87t-64 -26q-37 0 -59 26t-40 80l-66 191l170 186q53 57 94 57q30 0 45.5 -17t15.5 -41q0 -45 -56 -68h-7q0 21 -9.5 37
t-30.5 16q-31 0 -74 -46zM98 0h-88l176 700l-68 32l3 12l162 39h10z" />
    <glyph glyph-name="l" unicode="l" horiz-adv-x="266" 
d="M286 783l-164 -667q-9 -34 -9 -44q0 -15 14 -15q29 0 90 75l15 -11q-48 -71 -80 -101t-66 -30q-28 0 -43.5 18.5t-15.5 49.5q0 33 14 86l138 556l-68 32l3 12l162 39h10z" />
    <glyph glyph-name="m" unicode="m" horiz-adv-x="822" 
d="M431 530q63 0 63 -67q0 -49 -42 -181q51 95 121 171.5t135 76.5q35 0 49.5 -18t14.5 -53q0 -18 -6 -44l-79 -299q-9 -34 -9 -44q0 -15 14 -15q29 0 90 75l15 -11q-48 -71 -80 -101t-66 -30q-28 0 -43.5 18.5t-15.5 49.5q0 33 14 86l74 275q5 22 5 33q0 21 -18 21
q-51 0 -133 -101.5t-113 -226.5l-36 -145h-87l105 419q5 22 5 33q0 21 -18 21q-51 0 -133 -101.5t-113 -226.5l-36 -145h-87l111 444l-61 31l3 12l157 43h10l-66 -248q51 95 121 171.5t135 76.5z" />
    <glyph glyph-name="n" unicode="n" horiz-adv-x="555" 
d="M241 530l-66 -248q49 91 124.5 169.5t141.5 78.5q35 0 49.5 -18t14.5 -53q0 -18 -6 -44l-79 -299q-9 -34 -9 -44q0 -15 14 -15q29 0 90 75l15 -11q-48 -71 -80 -101t-66 -30q-28 0 -43.5 18.5t-15.5 49.5q0 33 14 86l74 275q5 22 5 33q0 21 -18 21q-53 0 -139 -100.5
t-117 -227.5l-36 -145h-87l111 444l-61 31l3 12l157 43h10z" />
    <glyph glyph-name="o" unicode="o" horiz-adv-x="480" 
d="M190 18q48 0 91 55.5t66 133t23 148.5q0 147 -80 147q-48 0 -91 -55.5t-66 -133t-23 -148.5q0 -147 80 -147zM180 -10q-75 0 -116.5 48.5t-41.5 135.5q0 60 21.5 123t57.5 114.5t88.5 85t110.5 33.5q75 0 116.5 -48.5t41.5 -135.5q0 -60 -21.5 -123t-57.5 -114.5
t-88.5 -85t-110.5 -33.5z" />
    <glyph glyph-name="p" unicode="p" horiz-adv-x="548" 
d="M241 530l-64 -252q45 100 115 176t127 76q50 0 78.5 -39t28.5 -107q0 -153 -101.5 -273.5t-213.5 -120.5q-62 0 -95 38l-39 -155q-5 -20 -5 -27q0 -18 19 -24.5t74 -7.5l-6 -26h-259l6 26q42 2 58.5 11.5t23.5 38.5l145 580l-61 31l3 12l156 43h10zM387 467
q-64 0 -143.5 -113t-117.5 -284q10 -24 32 -37.5t48 -13.5q59 0 113.5 55.5t86.5 138t32 163.5q0 91 -51 91z" />
    <glyph glyph-name="q" unicode="q" horiz-adv-x="529" 
d="M494 426l-146 -553q-5 -20 -5 -27q0 -17 14.5 -23.5t48.5 -8.5l-6 -26h-249l6 26q57 2 75.5 11t26.5 39l104 371q-45 -99 -112.5 -172t-124.5 -73q-50 0 -77 39t-27 107q0 102 47 194.5t118 146t143 53.5q67 0 107 -40l72 48h20zM158 53q63 0 139.5 111.5t117.5 286.5
q-10 24 -32 37.5t-48 13.5q-59 0 -112 -56t-82.5 -138.5t-30.5 -163.5q0 -91 48 -91z" />
    <glyph glyph-name="r" unicode="r" horiz-adv-x="388" 
d="M241 530l-50 -187l-41 -123q75 156 128 233t101 77q24 0 37.5 -15.5t13.5 -38.5q0 -52 -63 -82h-8q0 41 -28 41q-45 0 -114 -125t-109 -310h-87l111 444l-61 31l3 12l157 43h10z" />
    <glyph glyph-name="s" unicode="s" horiz-adv-x="373" 
d="M176 27q80 0 80 77q0 25 -28.5 59.5t-62 65.5t-62 73t-28.5 80q0 62 47.5 105t118.5 43q57 0 89.5 -23t32.5 -62q0 -35 -44 -55h-4q-39 102 -115 102q-33 0 -51 -19t-18 -51q0 -18 19 -43.5t46 -52t54 -55t46 -61.5t19 -62q0 -71 -50.5 -114.5t-121.5 -43.5
q-66 0 -107 30.5t-41 75.5q0 47 43 67h5q16 -62 50 -99t83 -37z" />
    <glyph glyph-name="t" unicode="t" horiz-adv-x="311" 
d="M216 471l-86 -341q-8 -34 -8 -50q0 -26 25 -26q27 0 52.5 19.5t70.5 70.5l15 -12q-53 -73 -95.5 -107.5t-83.5 -34.5q-33 0 -52 20t-19 54q0 33 11 76l83 331h-66l5 19q50 17 87.5 51t79.5 92h21l-31 -124h113l-10 -38h-112z" />
    <glyph glyph-name="u" unicode="u" horiz-adv-x="555" 
d="M386 384l32 131l93 7l-99 -406q-9 -34 -9 -44q0 -15 14 -15q29 0 90 75l15 -11q-48 -71 -80 -101t-66 -30q-28 0 -42.5 18t-14.5 50q0 37 41 190q-24 -55 -62.5 -111t-91.5 -101.5t-98 -45.5q-36 0 -55 21.5t-19 55.5q0 22 8 51l84 326l-61 31l3 12l157 43h10l-105 -408
q-8 -30 -8 -46q0 -29 27 -29q52 0 128 101t109 236z" />
    <glyph glyph-name="v" unicode="v" horiz-adv-x="453" 
d="M79 449l-59 26l4 12l132 43h3l30 -450l118 147q42 53 60 91t18 79q0 40 -25.5 60t-70.5 15v8q40 50 86 50q42 0 60 -25t18 -60q0 -48 -28 -100.5t-92 -129.5l-187 -225h-31z" />
    <glyph glyph-name="w" unicode="w" horiz-adv-x="682" 
d="M324 449l-59 26l4 12l132 43h3l28 -447l109 144q40 53 56.5 90.5t16.5 79.5q0 40 -25.5 60t-70.5 15v8q40 50 86 50q42 0 60 -25t18 -60q0 -48 -27 -99.5t-88 -130.5l-176 -225h-31l-20 253l-194 -253h-31l-36 459l-59 26l4 12l132 43h3l30 -443l148 194z" />
    <glyph glyph-name="x" unicode="x" horiz-adv-x="541" 
d="M145 119l79 120l-51 209l-77 31l4 13l136 38h5l48 -202l75 112q31 47 56 68.5t59 21.5q28 0 45 -16.5t17 -42.5q0 -44 -52 -67h-5q0 57 -41 57q-20 0 -36.5 -13.5t-39.5 -46.5l-71 -103l49 -205q4 -18 6.5 -24.5t8.5 -12t16 -5.5q39 0 107 74l13 -15q-52 -66 -90 -93
t-72 -27q-29 0 -44.5 22t-26.5 68l-31 127l-83 -127q-30 -46 -55.5 -68t-60.5 -22q-29 0 -47 17t-18 45q0 44 48 70h5q-1 -31 11.5 -46.5t31.5 -15.5q37 0 81 59z" />
    <glyph glyph-name="y" unicode="y" horiz-adv-x="479" 
d="M80 449l-61 26l4 12l132 43h3l78 -499q12 17 56 84q119 185 119 282q0 40 -25.5 60t-70.5 15v8q40 50 86 50q42 0 60 -25t18 -60q0 -47 -38.5 -127.5t-126.5 -218.5q-61 -95 -112.5 -158.5t-91.5 -94t-69.5 -41.5t-60.5 -11q-37 0 -63 19.5t-26 56.5q0 23 13.5 40.5
t33.5 23.5h4q0 -40 19 -62.5t53 -22.5q38 0 72 18.5t83 75.5z" />
    <glyph glyph-name="z" unicode="z" horiz-adv-x="454" 
d="M378 441h-191q-24 0 -35 -7t-25 -27l-31 -47l-16 6l70 188h15q4 -39 29 -39h290v-11l-393 -380l79 -29q6 -2 18.5 -6t16.5 -5.5t12.5 -4t13 -3.5t12 -2t14 -1.5t14.5 -0.5q38 0 65 21.5t50 72.5l18 -7q-33 -95 -64 -132t-87 -37q-45 0 -124 43l-85 50l-38 -91
q-38 1 -38 31q0 23 22 45z" />
    <glyph glyph-name="braceleft" unicode="{" horiz-adv-x="341" 
d="M71 310l3 10q86 17 104 100l47 222q13 59 65.5 93.5t124.5 34.5l-4 -21q-47 -5 -74.5 -27.5t-37.5 -70.5l-48 -224q-10 -48 -38.5 -72t-86.5 -40q51 -16 69.5 -40t8.5 -72l-48 -224q-10 -48 8 -70.5t62 -27.5l-4 -21q-72 0 -110.5 35t-25.5 93l47 222q18 83 -62 100z" />
    <glyph glyph-name="bar" unicode="|" horiz-adv-x="217" 
d="M239 770l-193 -911h-37l193 911h37z" />
    <glyph glyph-name="braceright" unicode="}" horiz-adv-x="341" 
d="M295 320l-3 -10q-86 -17 -104 -100l-47 -222q-13 -59 -65.5 -93.5t-124.5 -34.5l4 21q94 10 112 98l48 224q10 48 38.5 72t85.5 40q-50 16 -68.5 40t-8.5 72l48 224q10 48 -8 70.5t-62 27.5l4 21q72 0 110.5 -35t25.5 -93l-47 -222q-18 -83 62 -100z" />
    <glyph glyph-name="asciitilde" unicode="~" horiz-adv-x="451" 
d="M399 365l25 -6q-22 -65 -48.5 -94t-71.5 -29q-32 0 -89 34t-84 34q-24 0 -39.5 -14t-33.5 -48l-25 6q22 65 48.5 94t71.5 29q33 0 90 -34t83 -34q24 0 39.5 14t33.5 48z" />
    <glyph glyph-name="uni00A0" unicode="&#xa0;" horiz-adv-x="200" 
 />
    <glyph glyph-name="exclamdown" unicode="&#xa1;" horiz-adv-x="238" 
d="M-24 -116l171 499h15l-65 -499h-121zM250 527q0 -29 -20 -49t-49 -20t-49 20t-20 49t20 49t49 20t49 -20t20 -49z" />
    <glyph glyph-name="cent" unicode="&#xa2;" horiz-adv-x="459" 
d="M152 -114l23 104q-77 1 -115.5 49.5t-38.5 125.5q0 127 82.5 240t194.5 133l22 99h27l-22 -96q2 0 6.5 0.5t6.5 0.5q56 0 87.5 -22t31.5 -61q0 -53 -66 -63h-6q5 48 -11.5 79.5t-54.5 35.5l-106 -470h6q46 0 80.5 23t78.5 73l17 -13q-87 -122 -193 -133l-23 -105h-27z
M109 177q0 -112 78 -132l104 465q-69 -15 -125.5 -120t-56.5 -213z" />
    <glyph glyph-name="sterling" unicode="&#xa3;" horiz-adv-x="630" 
d="M89 353l7 31h118l35 115q33 107 89 160t148 53q66 0 105 -28.5t39 -75.5q0 -23 -12.5 -43t-31.5 -27h-65q10 30 10 62q0 88 -55 88q-21 0 -38.5 -13t-33 -43t-26 -57t-27.5 -77l-3 -9l-36 -105h179l-8 -31h-181l-36 -107l-40 -108q120 -65 209 -65q97 0 97 78
q0 36 -32 62l9 10q70 -36 70 -106q0 -61 -38 -94t-100 -33q-24 0 -49.5 6t-44.5 13.5t-43.5 21.5t-36 21.5t-34 23.5t-26.5 19q-20 -47 -55.5 -76t-81.5 -29q-48 0 -74 26t-26 63q0 45 30.5 73.5t76.5 28.5q34 0 70 -16l57 188h-115zM51 27q57 0 87 107q-27 18 -61 18
q-36 0 -55 -20t-19 -53q0 -22 13.5 -37t34.5 -15z" />
    <glyph glyph-name="currency" unicode="&#xa4;" horiz-adv-x="577" 
d="M100 547l28 24l63 -74q58 45 131 45q70 0 118 -45l82 74l23 -26l-83 -74q29 -43 29 -99q0 -88 -62 -155l65 -74l-28 -24l-64 74q-58 -45 -130 -45q-71 0 -119 45l-81 -74l-23 26l83 73q-29 43 -29 100q0 88 62 155zM276 180q75 0 127 56.5t52 132.5q0 62 -38.5 101.5
t-98.5 39.5q-75 0 -127 -56.5t-52 -132.5q0 -62 38.5 -101.5t98.5 -39.5z" />
    <glyph glyph-name="yen" unicode="&#xa5;" horiz-adv-x="592" 
d="M334 283l-13 -60h173l-7 -32h-173l-19 -91q-9 -43 7.5 -55t75.5 -18l-6 -27h-285l6 27q64 7 84 19t29 54l19 91h-172l7 32h171l13 59l-8 24h-158l6 31h142l-96 301q-9 31 -51 37l6 27h247l-6 -27q-58 -1 -78 -10t-20 -30q0 -12 9 -43l86 -269l200 268q28 36 28 52
q0 17 -17.5 24t-63.5 8l6 27h200l-6 -27q-45 -6 -67 -37l-228 -301h143l-6 -31h-161z" />
    <glyph glyph-name="brokenbar" unicode="&#xa6;" horiz-adv-x="217" 
d="M239 770l-80 -376h-37l80 376h37zM125 235l-79 -376h-37l79 376h37z" />
    <glyph glyph-name="section" unicode="&#xa7;" horiz-adv-x="518" 
d="M412 142q0 -85 -33.5 -162t-104.5 -129.5t-164 -52.5q-69 0 -102 25.5t-33 63.5q0 49 54 69h52q-8 -16 -8 -37q0 -34 18 -64.5t60 -30.5q39 0 63.5 32.5t24.5 82.5q0 41 -22 92.5t-48 95.5t-48 109.5t-22 131.5q0 85 33.5 162t104.5 129.5t164 52.5q69 0 102 -25.5
t33 -63.5q0 -49 -54 -69h-52q8 16 8 37q0 34 -18 64.5t-60 30.5q-39 0 -63.5 -32.5t-24.5 -82.5q0 -41 22 -92.5t48 -95.5t48 -109.5t22 -131.5zM129 368q0 -61 22 -124.5t48 -108t48 -98.5t22 -98q0 -45 -31 -87q65 42 104.5 120.5t39.5 169.5q0 61 -22 124.5t-48 108
t-48 98.5t-22 98q0 45 31 87q-65 -42 -104.5 -120.5t-39.5 -169.5z" />
    <glyph glyph-name="dieresis" unicode="&#xa8;" 
d="M154 608q-25 0 -41.5 16.5t-16.5 41.5q0 26 18.5 45t44.5 19q25 0 41.5 -16.5t16.5 -41.5q0 -26 -18.5 -45t-44.5 -19zM320 608q-25 0 -41.5 16.5t-16.5 41.5q0 26 18.5 45t44.5 19q25 0 41.5 -16.5t16.5 -41.5q0 -26 -18.5 -45t-44.5 -19z" />
    <glyph glyph-name="copyright" unicode="&#xa9;" horiz-adv-x="796" 
d="M392 -10q-147 0 -241.5 95.5t-94.5 239.5q0 162 110 274.5t271 112.5q147 0 241.5 -95.5t94.5 -239.5q0 -162 -110 -274.5t-271 -112.5zM393 142q-77 0 -125.5 45.5t-48.5 121.5q0 104 73 179.5t175 75.5q76 0 122 -41l-20 -93h-17q-5 53 -23.5 79.5t-58.5 26.5
q-70 0 -121 -71t-51 -157q0 -63 25.5 -100t72.5 -37q82 0 140 117h20l-30 -108q-66 -38 -133 -38zM392 10q153 0 257 106.5t104 260.5q0 135 -89 225t-227 90q-153 0 -257 -106.5t-104 -260.5q0 -135 89 -225t227 -90z" />
    <glyph glyph-name="ordfeminine" unicode="&#xaa;" horiz-adv-x="385" 
d="M161 410q36 0 82.5 71t74.5 179q-18 28 -53 28q-50 0 -91.5 -71.5t-41.5 -157.5q0 -49 29 -49zM336 685l54 33h15l-22 -71l-55 -201q-6 -24 -6 -29q0 -9 9 -9q21 0 58 48l14 -9q-55 -84 -108 -84q-38 0 -38 44q0 34 25 107h-2q-29 -65 -69 -108t-77 -43q-34 0 -53.5 25.5
t-19.5 70.5q0 100 65 176.5t139 76.5q44 0 71 -27z" />
    <glyph glyph-name="guillemotleft" unicode="&#xab;" horiz-adv-x="441" 
d="M41 271l1 6l233 192h28l-168 -195l83 -195h-28zM194 271l1 6l233 192h28l-168 -195l83 -195h-28z" />
    <glyph glyph-name="registered" unicode="&#xae;" horiz-adv-x="555" 
d="M334 590h-19l-21 -102h25q27 0 44.5 15.5t17.5 41.5q0 18 -12 31.5t-35 13.5zM245 608h108q40 0 57 -18t17 -40q0 -61 -75 -73l30 -56q17 -33 44 -33l-3 -15h-54q-19 16 -32 43l-27 55h-20l-12 -58q-3 -14 1.5 -19.5t21.5 -5.5l-3 -15h-104l4 15q31 0 36 24l32 152
q3 15 -0.5 20t-24.5 6zM307 257q-94 0 -154 60.5t-60 151.5q0 102 70 172.5t172 70.5q94 0 154 -60.5t60 -151.5q0 -102 -70 -172.5t-172 -70.5zM307 277q94 0 158 64.5t64 158.5q0 82 -54.5 137t-139.5 55q-94 0 -158 -64.5t-64 -158.5q0 -82 54.5 -137t139.5 -55z" />
    <glyph glyph-name="macron" unicode="&#xaf;" 
d="M119 623l10 49h251l-10 -49h-251z" />
    <glyph glyph-name="degree" unicode="&#xb0;" horiz-adv-x="263" 
d="M170 509q41 0 65 29t24 72q0 32 -18 52t-48 20q-41 0 -65 -29t-24 -72q0 -32 18 -52t48 -20zM169 479q-45 0 -73 28.5t-28 73.5q0 54 36 92.5t90 38.5q44 0 72.5 -28t28.5 -74q0 -54 -36 -92.5t-90 -38.5z" />
    <glyph glyph-name="plusminus" unicode="&#xb1;" horiz-adv-x="564" 
d="M318 602h49l-32 -149h196l-11 -49h-195l-31 -148h-49l31 148h-194l11 49h193zM28 146l10 49h438l-10 -49h-438z" />
    <glyph glyph-name="twosuperior" unicode="&#xb2;" horiz-adv-x="379" 
d="M144 374h94q38 0 55.5 10.5t46.5 49.5h18l-47 -126h-267l3 13q148 123 191 177t43 105q0 26 -17.5 42.5t-46.5 16.5q-54 0 -101 -53l-10 13q22 37 61 63t85 26q48 0 77 -26t29 -71q0 -27 -9 -49t-31.5 -45.5t-42.5 -40t-61.5 -49t-69.5 -56.5z" />
    <glyph glyph-name="threesuperior" unicode="&#xb3;" horiz-adv-x="361" 
d="M246 531q45 -6 72 -32t27 -66q0 -65 -48.5 -100.5t-111.5 -35.5q-64 0 -96 24.5t-32 58.5q0 33 36 48h39q-6 -22 -6 -43q0 -28 15 -47t44 -19q39 0 63 26.5t24 70.5q0 38 -19 61.5t-54 23.5q-13 0 -34 -3l-3 16q123 40 123 101q0 21 -12.5 34t-37.5 13q-50 0 -99 -49
l-13 12q49 87 143 87q45 0 70 -20.5t25 -55.5q0 -74 -115 -105z" />
    <glyph glyph-name="acute" unicode="&#xb4;" 
d="M242 761h106l-1 -5l-178 -164h-17z" />
    <glyph glyph-name="mu" unicode="&#xb5;" horiz-adv-x="571" 
d="M112 -9l-44 -177l-88 -10l159 640l-61 31l3 12l157 43h10l-104 -416q-6 -26 -6 -38q0 -29 27 -29q52 0 128 101t109 236l32 131l93 7l-99 -406q-9 -34 -9 -44q0 -15 14 -15q29 0 90 75l15 -11q-48 -71 -80 -101t-66 -30q-28 0 -42.5 18t-14.5 50q0 37 41 190
q-39 -86 -118 -171.5t-146 -85.5z" />
    <glyph glyph-name="paragraph" unicode="&#xb6;" horiz-adv-x="620" 
d="M214 -197l89 421q-107 0 -162.5 54.5t-55.5 139.5q0 126 86.5 205t233.5 79h273l-7 -29q-53 -2 -81 -18t-37 -59l-168 -793h-37l184 867h-97l-184 -867h-37zM310 256l88 414q-50 0 -91 -24t-65 -62.5t-36.5 -81t-12.5 -84.5q0 -69 28 -115.5t89 -46.5z" />
    <glyph glyph-name="periodcentered" unicode="&#xb7;" horiz-adv-x="206" 
d="M30 302q0 31 21 52t52 21t52 -21t21 -52t-21 -52t-52 -21t-52 21t-21 52z" />
    <glyph glyph-name="cedilla" unicode="&#xb8;" 
d="M162 -221l-6 26q60 0 93.5 15.5t33.5 40.5q0 39 -89 42l58 105h25l-30 -56q43 -1 69.5 -18.5t26.5 -50.5q0 -51 -49.5 -77.5t-131.5 -26.5z" />
    <glyph glyph-name="onesuperior" unicode="&#xb9;" horiz-adv-x="319" 
d="M275 712h20l-70 -331q-6 -31 8 -39.5t66 -10.5l-5 -23h-244l5 23q53 3 69.5 10.5t22.5 36.5l51 243h-87l4 17l21 4q52 10 81.5 23.5t57.5 46.5z" />
    <glyph glyph-name="ordmasculine" unicode="&#xba;" horiz-adv-x="326" 
d="M187 390q43 0 75 68t32 137q0 91 -48 91q-43 0 -75 -68t-32 -137q0 -91 48 -91zM178 364q-49 0 -79 32t-30 88q0 81 56 154.5t130 73.5q49 0 79 -32t30 -88q0 -81 -56 -154.5t-130 -73.5z" />
    <glyph glyph-name="guillemotright" unicode="&#xbb;" horiz-adv-x="441" 
d="M408 277l-1 -6l-233 -192h-28l168 195l-83 195h28zM255 277l-1 -6l-233 -192h-28l168 195l-83 195h28z" />
    <glyph glyph-name="onequarter" unicode="&#xbc;" horiz-adv-x="787" 
d="M406 134h150l39 182zM667 0h-204l4 23q43 3 56 9.5t18 31.5l9 43h-193l4 17l287 279h39l-57 -269h79l-6 -27h-79l-9 -43q-5 -25 5 -31.5t51 -9.5zM100 -10l597 722h40l-597 -722h-40zM275 712h20l-70 -331q-6 -31 8 -39.5t66 -10.5l-5 -23h-244l5 23q53 3 69.5 10.5
t22.5 36.5l51 243h-87l4 17l21 4q52 10 81.5 23.5t57.5 46.5z" />
    <glyph glyph-name="onehalf" unicode="&#xbd;" horiz-adv-x="797" 
d="M100 -10l597 722h40l-597 -722h-40zM275 712h20l-70 -331q-6 -31 8 -39.5t66 -10.5l-5 -23h-244l5 23q53 3 69.5 10.5t22.5 36.5l51 243h-87l4 17l21 4q52 10 81.5 23.5t57.5 46.5zM519 66h94q38 0 55.5 10.5t46.5 49.5h18l-47 -126h-267l3 13q148 123 191 177t43 105
q0 26 -17.5 42.5t-46.5 16.5q-54 0 -101 -53l-10 13q22 37 61 63t85 26q48 0 77 -26t29 -71q0 -27 -9 -49t-31.5 -45.5t-42.5 -40t-61.5 -49t-69.5 -56.5z" />
    <glyph glyph-name="threequarters" unicode="&#xbe;" horiz-adv-x="787" 
d="M406 134h150l39 182zM667 0h-204l4 23q43 3 56 9.5t18 31.5l9 43h-193l4 17l287 279h39l-57 -269h79l-6 -27h-79l-9 -43q-5 -25 5 -31.5t51 -9.5zM100 -10l597 722h40l-597 -722h-40zM246 531q45 -6 72 -32t27 -66q0 -65 -48.5 -100.5t-111.5 -35.5q-64 0 -96 24.5
t-32 58.5q0 33 36 48h39q-6 -22 -6 -43q0 -28 15 -47t44 -19q39 0 63 26.5t24 70.5q0 38 -19 61.5t-54 23.5q-13 0 -34 -3l-3 16q123 40 123 101q0 21 -12.5 34t-37.5 13q-50 0 -99 -49l-13 12q49 87 143 87q45 0 70 -20.5t25 -55.5q0 -74 -115 -105z" />
    <glyph glyph-name="questiondown" unicode="&#xbf;" horiz-adv-x="420" 
d="M173 144q-57 -33 -83 -64.5t-26 -83.5q0 -45 25.5 -72t71.5 -27q45 0 71 29t26 80q0 23 -5 48h70q24 -18 24 -57q0 -56 -52 -89.5t-134 -33.5q-83 0 -132.5 41.5t-49.5 110.5q0 65 35.5 103t111.5 80q61 34 92 66t31 77q0 13 -8 41h16q39 -39 39 -94q0 -49 -30.5 -84
t-92.5 -71zM361 527q0 -29 -20.5 -49t-48.5 -20t-48.5 20t-20.5 49t20.5 49t48.5 20t48.5 -20t20.5 -49z" />
    <glyph glyph-name="Agrave" unicode="&#xc0;" horiz-adv-x="696" 
d="M490 110l-27 136h-284l-82 -135q-20 -34 -20 -50q0 -17 19.5 -24.5t63.5 -9.5l-5 -27h-203l5 27q48 5 67 37l358 583l-14 64h96l128 -647q6 -32 51 -37l-5 -27h-251l5 27q21 1 32.5 2t26.5 4t23 9t13.5 17t5.5 26q0 11 -3 25zM395 601l-197 -323h259zM297 900h105
l46 -149h-17l-134 144v5z" />
    <glyph glyph-name="Aacute" unicode="&#xc1;" horiz-adv-x="696" 
d="M490 110l-27 136h-284l-82 -135q-20 -34 -20 -50q0 -17 19.5 -24.5t63.5 -9.5l-5 -27h-203l5 27q48 5 67 37l358 583l-14 64h96l128 -647q6 -32 51 -37l-5 -27h-251l5 27q21 1 32.5 2t26.5 4t23 9t13.5 17t5.5 26q0 11 -3 25zM395 601l-197 -323h259zM481 900h112l-1 -5
l-160 -144h-17z" />
    <glyph glyph-name="Acircumflex" unicode="&#xc2;" horiz-adv-x="696" 
d="M490 110l-27 136h-284l-82 -135q-20 -34 -20 -50q0 -17 19.5 -24.5t63.5 -9.5l-5 -27h-203l5 27q48 5 67 37l358 583l-14 64h96l128 -647q6 -32 51 -37l-5 -27h-251l5 27q21 1 32.5 2t26.5 4t23 9t13.5 17t5.5 26q0 11 -3 25zM395 601l-197 -323h259zM503 910l73 -159
h-24l-95 94l-141 -94h-28l147 159h68z" />
    <glyph glyph-name="Atilde" unicode="&#xc3;" horiz-adv-x="696" 
d="M490 110l-27 136h-284l-82 -135q-20 -34 -20 -50q0 -17 19.5 -24.5t63.5 -9.5l-5 -27h-203l5 27q48 5 67 37l358 583l-14 64h96l128 -647q6 -32 51 -37l-5 -27h-251l5 27q21 1 32.5 2t26.5 4t23 9t13.5 17t5.5 26q0 11 -3 25zM395 601l-197 -323h259zM502 754
q-26 0 -65.5 28t-61.5 28q-21 0 -37 -12.5t-37 -44.5l-17 10q36 67 59 90t57 23q26 0 65 -28t61 -28t38.5 13t35.5 44l18 -10q-36 -67 -59 -90t-57 -23z" />
    <glyph glyph-name="Adieresis" unicode="&#xc4;" horiz-adv-x="696" 
d="M490 110l-27 136h-284l-82 -135q-20 -34 -20 -50q0 -17 19.5 -24.5t63.5 -9.5l-5 -27h-203l5 27q48 5 67 37l358 583l-14 64h96l128 -647q6 -32 51 -37l-5 -27h-251l5 27q21 1 32.5 2t26.5 4t23 9t13.5 17t5.5 26q0 11 -3 25zM395 601l-197 -323h259zM355 760
q-25 0 -41.5 16.5t-16.5 41.5q0 26 18.5 45t44.5 19q25 0 41.5 -16.5t16.5 -41.5q0 -26 -18.5 -45t-44.5 -19zM541 760q-25 0 -41.5 16.5t-16.5 41.5q0 26 18.5 45t44.5 19q25 0 41.5 -16.5t16.5 -41.5q0 -26 -18.5 -45t-44.5 -19z" />
    <glyph glyph-name="Aring" unicode="&#xc5;" horiz-adv-x="696" 
d="M490 110l-27 136h-284l-82 -135q-20 -34 -20 -50q0 -17 19.5 -24.5t63.5 -9.5l-5 -27h-203l5 27q48 5 67 37l358 583l-14 64h96l128 -647q6 -32 51 -37l-5 -27h-251l5 27q21 1 32.5 2t26.5 4t23 9t13.5 17t5.5 26q0 11 -3 25zM395 601l-197 -323h259zM365 811
q0 40 27 67.5t66 27.5q38 0 59.5 -21t21.5 -56q0 -40 -27 -67.5t-66 -27.5q-38 0 -59.5 21t-21.5 56zM507 829q0 22 -13.5 35.5t-35.5 13.5q-28 0 -44.5 -19.5t-16.5 -47.5q0 -22 13.5 -35.5t35.5 -13.5q28 0 44.5 19.5t16.5 47.5z" />
    <glyph glyph-name="AE" unicode="&#xc6;" horiz-adv-x="979" 
d="M874 0h-525l6 27q59 7 76.5 18.5t26.5 52.5l31 148h-262l-112 -135q-26 -32 -26 -50q0 -17 19.5 -24.5t63.5 -9.5l-5 -27h-215l5 27q45 5 83 50l478 570q-21 18 -91 28l6 27h578l-31 -167h-20q-16 80 -40.5 107t-76.5 27h-169l-62 -290h149q31 0 51 21.5t39 68.5h27
l-45 -213h-27q2 47 -9.5 68.5t-42.5 21.5h-149l-52 -245q-9 -39 10.5 -53.5t73.5 -14.5h82q51 0 91 31.5t108 115.5h24zM580 670l-326 -392h242z" />
    <glyph glyph-name="Ccedilla" unicode="&#xc7;" horiz-adv-x="644" 
d="M214 -221l-6 26q60 0 93.5 15.5t33.5 40.5q0 39 -89 42l48 88q-120 6 -184.5 79t-64.5 195q0 79 30 158.5t82.5 144t130.5 104.5t167 40q131 0 209 -59l-31 -146h-27q1 84 -38 128t-113 44q-73 0 -134 -40t-98 -102.5t-57 -133.5t-20 -138q0 -117 43 -179.5t125 -62.5
q84 0 144.5 48.5t105.5 150.5h30l-51 -178q-102 -53 -224 -54l-20 -38q43 -1 69.5 -18.5t26.5 -50.5q0 -51 -49.5 -77.5t-131.5 -26.5z" />
    <glyph glyph-name="Egrave" unicode="&#xc8;" horiz-adv-x="614" 
d="M509 0h-535l6 27q59 7 76.5 18.5t26.5 52.5l108 506q9 43 -4.5 53.5t-68.5 17.5l6 27h522l-31 -167h-20q-16 80 -40.5 107t-76.5 27h-179l-62 -290h159q31 0 51 21.5t39 68.5h27l-45 -213h-27q2 47 -9.5 68.5t-42.5 21.5h-159l-52 -245q-9 -39 10.5 -53.5t73.5 -14.5h92
q51 0 91 31.5t108 115.5h24zM289 900h105l46 -149h-17l-134 144v5z" />
    <glyph glyph-name="Eacute" unicode="&#xc9;" horiz-adv-x="614" 
d="M509 0h-535l6 27q59 7 76.5 18.5t26.5 52.5l108 506q9 43 -4.5 53.5t-68.5 17.5l6 27h522l-31 -167h-20q-16 80 -40.5 107t-76.5 27h-179l-62 -290h159q31 0 51 21.5t39 68.5h27l-45 -213h-27q2 47 -9.5 68.5t-42.5 21.5h-159l-52 -245q-9 -39 10.5 -53.5t73.5 -14.5h92
q51 0 91 31.5t108 115.5h24zM475 900h112l-1 -5l-160 -144h-17z" />
    <glyph glyph-name="Ecircumflex" unicode="&#xca;" horiz-adv-x="614" 
d="M509 0h-535l6 27q59 7 76.5 18.5t26.5 52.5l108 506q9 43 -4.5 53.5t-68.5 17.5l6 27h522l-31 -167h-20q-16 80 -40.5 107t-76.5 27h-179l-62 -290h159q31 0 51 21.5t39 68.5h27l-45 -213h-27q2 47 -9.5 68.5t-42.5 21.5h-159l-52 -245q-9 -39 10.5 -53.5t73.5 -14.5h92
q51 0 91 31.5t108 115.5h24zM495 910l73 -159h-24l-95 94l-141 -94h-28l147 159h68z" />
    <glyph glyph-name="Edieresis" unicode="&#xcb;" horiz-adv-x="614" 
d="M509 0h-535l6 27q59 7 76.5 18.5t26.5 52.5l108 506q9 43 -4.5 53.5t-68.5 17.5l6 27h522l-31 -167h-20q-16 80 -40.5 107t-76.5 27h-179l-62 -290h159q31 0 51 21.5t39 68.5h27l-45 -213h-27q2 47 -9.5 68.5t-42.5 21.5h-159l-52 -245q-9 -39 10.5 -53.5t73.5 -14.5h92
q51 0 91 31.5t108 115.5h24zM347 760q-25 0 -41.5 16.5t-16.5 41.5q0 26 18.5 45t44.5 19q25 0 41.5 -16.5t16.5 -41.5q0 -26 -18.5 -45t-44.5 -19zM533 760q-25 0 -41.5 16.5t-16.5 41.5q0 26 18.5 45t44.5 19q25 0 41.5 -16.5t16.5 -41.5q0 -26 -18.5 -45t-44.5 -19z" />
    <glyph glyph-name="Igrave" unicode="&#xcc;" horiz-adv-x="326" 
d="M83 98l108 506q9 43 -4.5 53.5t-68.5 17.5l6 27h270l-6 -27q-59 -7 -76.5 -18.5t-26.5 -52.5l-108 -506q-9 -43 4.5 -53.5t68.5 -17.5l-6 -27h-270l6 27q59 7 76.5 18.5t26.5 52.5zM129 900h105l46 -149h-17l-134 144v5z" />
    <glyph glyph-name="Iacute" unicode="&#xcd;" horiz-adv-x="326" 
d="M83 98l108 506q9 43 -4.5 53.5t-68.5 17.5l6 27h270l-6 -27q-59 -7 -76.5 -18.5t-26.5 -52.5l-108 -506q-9 -43 4.5 -53.5t68.5 -17.5l-6 -27h-270l6 27q59 7 76.5 18.5t26.5 52.5zM325 900h112l-1 -5l-160 -144h-17z" />
    <glyph glyph-name="Icircumflex" unicode="&#xce;" horiz-adv-x="326" 
d="M83 98l108 506q9 43 -4.5 53.5t-68.5 17.5l6 27h270l-6 -27q-59 -7 -76.5 -18.5t-26.5 -52.5l-108 -506q-9 -43 4.5 -53.5t68.5 -17.5l-6 -27h-270l6 27q59 7 76.5 18.5t26.5 52.5zM335 910l73 -159h-24l-95 94l-141 -94h-28l147 159h68z" />
    <glyph glyph-name="Idieresis" unicode="&#xcf;" horiz-adv-x="326" 
d="M83 98l108 506q9 43 -4.5 53.5t-68.5 17.5l6 27h270l-6 -27q-59 -7 -76.5 -18.5t-26.5 -52.5l-108 -506q-9 -43 4.5 -53.5t68.5 -17.5l-6 -27h-270l6 27q59 7 76.5 18.5t26.5 52.5zM190 760q-25 0 -41.5 16.5t-16.5 41.5q0 26 18.5 45t44.5 19q25 0 41.5 -16.5
t16.5 -41.5q0 -26 -18.5 -45t-44.5 -19zM376 760q-25 0 -41.5 16.5t-16.5 41.5q0 26 18.5 45t44.5 19q25 0 41.5 -16.5t16.5 -41.5q0 -26 -18.5 -45t-44.5 -19z" />
    <glyph glyph-name="Eth" unicode="&#xd0;" horiz-adv-x="700" 
d="M51 346l7 34h85l48 224q9 43 -4.5 53.5t-68.5 17.5l6 27h253q147 0 231 -76t84 -206q0 -190 -124 -305t-311 -115h-283l6 27q59 7 76.5 18.5t26.5 52.5l53 248h-85zM253 33h15q140 0 231.5 106.5t91.5 280.5q0 119 -56 184t-171 65h-65l-62 -289h146l-7 -34h-146
l-51 -242q-9 -42 8 -56.5t66 -14.5z" />
    <glyph glyph-name="Ntilde" unicode="&#xd1;" horiz-adv-x="729" 
d="M561 146l95 458q8 40 -12.5 54t-81.5 17l6 27h237l-6 -27q-59 -7 -76.5 -18.5t-26.5 -52.5l-129 -608h-25l-318 581l-101 -479q-8 -40 12.5 -54t81.5 -17l-6 -27h-237l6 27q59 7 76.5 18.5t26.5 52.5l110 516q-20 37 -35.5 48.5t-51.5 12.5l6 27h151zM539 754
q-26 0 -65.5 28t-61.5 28q-21 0 -37 -12.5t-37 -44.5l-17 10q36 67 59 90t57 23q26 0 65 -28t61 -28t38.5 13t35.5 44l18 -10q-36 -67 -59 -90t-57 -23z" />
    <glyph glyph-name="Ograve" unicode="&#xd2;" horiz-adv-x="696" 
d="M428 712q126 0 193 -77.5t67 -194.5q0 -62 -17 -126t-51 -121.5t-79.5 -103t-107 -72.5t-128.5 -27q-126 0 -193 77.5t-67 194.5q0 62 17 126t51 121.5t79.5 103t107 72.5t128.5 27zM428 679q-85 0 -151.5 -68t-98.5 -161.5t-32 -187.5q0 -107 39 -173t120 -66
q85 0 151.5 68t98.5 161.5t32 187.5q0 107 -39 173t-120 66zM319 900h105l46 -149h-17l-134 144v5z" />
    <glyph glyph-name="Oacute" unicode="&#xd3;" horiz-adv-x="696" 
d="M428 712q126 0 193 -77.5t67 -194.5q0 -62 -17 -126t-51 -121.5t-79.5 -103t-107 -72.5t-128.5 -27q-126 0 -193 77.5t-67 194.5q0 62 17 126t51 121.5t79.5 103t107 72.5t128.5 27zM428 679q-85 0 -151.5 -68t-98.5 -161.5t-32 -187.5q0 -107 39 -173t120 -66
q85 0 151.5 68t98.5 161.5t32 187.5q0 107 -39 173t-120 66zM515 900h112l-1 -5l-160 -144h-17z" />
    <glyph glyph-name="Ocircumflex" unicode="&#xd4;" horiz-adv-x="696" 
d="M428 712q126 0 193 -77.5t67 -194.5q0 -62 -17 -126t-51 -121.5t-79.5 -103t-107 -72.5t-128.5 -27q-126 0 -193 77.5t-67 194.5q0 62 17 126t51 121.5t79.5 103t107 72.5t128.5 27zM428 679q-85 0 -151.5 -68t-98.5 -161.5t-32 -187.5q0 -107 39 -173t120 -66
q85 0 151.5 68t98.5 161.5t32 187.5q0 107 -39 173t-120 66zM525 910l73 -159h-24l-95 94l-141 -94h-28l147 159h68z" />
    <glyph glyph-name="Otilde" unicode="&#xd5;" horiz-adv-x="696" 
d="M428 712q126 0 193 -77.5t67 -194.5q0 -62 -17 -126t-51 -121.5t-79.5 -103t-107 -72.5t-128.5 -27q-126 0 -193 77.5t-67 194.5q0 62 17 126t51 121.5t79.5 103t107 72.5t128.5 27zM428 679q-85 0 -151.5 -68t-98.5 -161.5t-32 -187.5q0 -107 39 -173t120 -66
q85 0 151.5 68t98.5 161.5t32 187.5q0 107 -39 173t-120 66zM524 754q-26 0 -65.5 28t-61.5 28q-21 0 -37 -12.5t-37 -44.5l-17 10q36 67 59 90t57 23q26 0 65 -28t61 -28t38.5 13t35.5 44l18 -10q-36 -67 -59 -90t-57 -23z" />
    <glyph glyph-name="Odieresis" unicode="&#xd6;" horiz-adv-x="696" 
d="M428 712q126 0 193 -77.5t67 -194.5q0 -62 -17 -126t-51 -121.5t-79.5 -103t-107 -72.5t-128.5 -27q-126 0 -193 77.5t-67 194.5q0 62 17 126t51 121.5t79.5 103t107 72.5t128.5 27zM428 679q-85 0 -151.5 -68t-98.5 -161.5t-32 -187.5q0 -107 39 -173t120 -66
q85 0 151.5 68t98.5 161.5t32 187.5q0 107 -39 173t-120 66zM377 760q-25 0 -41.5 16.5t-16.5 41.5q0 26 18.5 45t44.5 19q25 0 41.5 -16.5t16.5 -41.5q0 -26 -18.5 -45t-44.5 -19zM563 760q-25 0 -41.5 16.5t-16.5 41.5q0 26 18.5 45t44.5 19q25 0 41.5 -16.5t16.5 -41.5
q0 -26 -18.5 -45t-44.5 -19z" />
    <glyph glyph-name="multiply" unicode="&#xd7;" horiz-adv-x="488" 
d="M220 367l-111 142l41 34l111 -143l174 144l28 -37l-174 -143l113 -141l-41 -34l-113 142l-173 -144l-28 37z" />
    <glyph glyph-name="Oslash" unicode="&#xd8;" horiz-adv-x="696" 
d="M668 705l-52 -66q72 -75 72 -199q0 -62 -17 -126t-51 -121.5t-79.5 -103t-107 -72.5t-128.5 -27q-98 0 -164 50l-58 -73l-26 17l61 77q-73 74 -73 201q0 62 17 126t51 121.5t79.5 103t107 72.5t128.5 27q98 0 165 -52l49 62zM428 679q-85 0 -151.5 -68t-98.5 -161.5
t-32 -187.5q0 -81 22 -138l383 483q-40 72 -123 72zM587 440q0 78 -21 136l-383 -484q40 -69 122 -69q85 0 151.5 68t98.5 161.5t32 187.5z" />
    <glyph glyph-name="Ugrave" unicode="&#xd9;" horiz-adv-x="703" 
d="M571 254l75 350q9 43 -4.5 53.5t-68.5 17.5l6 27h215l-6 -27q-59 -7 -76.5 -18.5t-26.5 -52.5l-78 -367q-26 -123 -99.5 -185t-180.5 -62q-126 0 -191.5 73t-37.5 205l71 336q9 43 -4.5 53.5t-68.5 17.5l6 27h270l-6 -27q-59 -7 -76.5 -18.5t-26.5 -52.5l-72 -340
q-21 -100 19.5 -161.5t129.5 -61.5q98 0 153 51t78 162zM345 900h105l46 -149h-17l-134 144v5z" />
    <glyph glyph-name="Uacute" unicode="&#xda;" horiz-adv-x="703" 
d="M571 254l75 350q9 43 -4.5 53.5t-68.5 17.5l6 27h215l-6 -27q-59 -7 -76.5 -18.5t-26.5 -52.5l-78 -367q-26 -123 -99.5 -185t-180.5 -62q-126 0 -191.5 73t-37.5 205l71 336q9 43 -4.5 53.5t-68.5 17.5l6 27h270l-6 -27q-59 -7 -76.5 -18.5t-26.5 -52.5l-72 -340
q-21 -100 19.5 -161.5t129.5 -61.5q98 0 153 51t78 162zM523 900h112l-1 -5l-160 -144h-17z" />
    <glyph glyph-name="Ucircumflex" unicode="&#xdb;" horiz-adv-x="703" 
d="M571 254l75 350q9 43 -4.5 53.5t-68.5 17.5l6 27h215l-6 -27q-59 -7 -76.5 -18.5t-26.5 -52.5l-78 -367q-26 -123 -99.5 -185t-180.5 -62q-126 0 -191.5 73t-37.5 205l71 336q9 43 -4.5 53.5t-68.5 17.5l6 27h270l-6 -27q-59 -7 -76.5 -18.5t-26.5 -52.5l-72 -340
q-21 -100 19.5 -161.5t129.5 -61.5q98 0 153 51t78 162zM551 910l73 -159h-24l-95 94l-141 -94h-28l147 159h68z" />
    <glyph glyph-name="Udieresis" unicode="&#xdc;" horiz-adv-x="703" 
d="M571 254l75 350q9 43 -4.5 53.5t-68.5 17.5l6 27h215l-6 -27q-59 -7 -76.5 -18.5t-26.5 -52.5l-78 -367q-26 -123 -99.5 -185t-180.5 -62q-126 0 -191.5 73t-37.5 205l71 336q9 43 -4.5 53.5t-68.5 17.5l6 27h270l-6 -27q-59 -7 -76.5 -18.5t-26.5 -52.5l-72 -340
q-21 -100 19.5 -161.5t129.5 -61.5q98 0 153 51t78 162zM403 760q-25 0 -41.5 16.5t-16.5 41.5q0 26 18.5 45t44.5 19q25 0 41.5 -16.5t16.5 -41.5q0 -26 -18.5 -45t-44.5 -19zM589 760q-25 0 -41.5 16.5t-16.5 41.5q0 26 18.5 45t44.5 19q25 0 41.5 -16.5t16.5 -41.5
q0 -26 -18.5 -45t-44.5 -19z" />
    <glyph glyph-name="Yacute" unicode="&#xdd;" horiz-adv-x="621" 
d="M360 283l-39 -183q-9 -43 7.5 -55t75.5 -18l-6 -27h-285l6 27q64 7 84 19t29 54l38 182l-124 356q-6 19 -17.5 26.5t-33.5 10.5l6 27h247l-6 -27q-58 -1 -78 -10t-20 -30q0 -12 9 -43l96 -269l210 268q28 36 28 52q0 17 -17.5 24t-63.5 8l6 27h200l-6 -27q-42 -6 -67 -37
zM495 900h112l-1 -5l-160 -144h-17z" />
    <glyph glyph-name="Thorn" unicode="&#xde;" horiz-adv-x="596" 
d="M270 532l-74 -349h66q102 0 163 52.5t61 154.5q0 65 -40 103.5t-118 38.5h-58zM285 604l-9 -40l78 1q112 1 169.5 -48.5t57.5 -126.5q0 -112 -89 -176t-232 -64h-71l-9 -39q-10 -46 11 -61.5t96 -20.5l-6 -29h-307l6 27q59 7 76.5 18.5t26.5 52.5l108 506q9 43 -4.5 53.5
t-68.5 17.5l6 27h270l-6 -27q-59 -7 -76.5 -18t-26.5 -53z" />
    <glyph glyph-name="germandbls" unicode="&#xdf;" horiz-adv-x="564" 
d="M384 27q78 0 78 77q0 33 -25.5 74t-56 73.5t-56 71t-25.5 67.5t17 51t66 62q69 57 69 152q0 42 -24 70.5t-65 28.5q-54 0 -81.5 -43.5t-45.5 -128.5l-95 -431q-44 -199 -97 -278.5t-137 -79.5q-38 0 -62.5 17t-24.5 46q0 45 55 58h9q4 -42 20 -67t39 -25q20 0 33 14
t31 71t39 169l73 395h-80l6 24l83 19q24 117 89.5 193t163.5 76q69 0 111.5 -34.5t42.5 -89.5q0 -28 -10 -52.5t-31.5 -46.5t-37 -35t-44.5 -34q-42 -30 -42 -65q0 -21 24 -55t53 -65.5t53 -75t24 -80.5q0 -72 -50 -116t-124 -44q-66 0 -107 30.5t-41 75.5q0 47 43 67h5
q16 -62 50.5 -99t84.5 -37z" />
    <glyph glyph-name="agrave" unicode="&#xe0;" horiz-adv-x="539" 
d="M157 53q62 0 132.5 109.5t116.5 288.5q-22 51 -78 51q-57 0 -108 -54t-81 -139t-30 -173q0 -83 48 -83zM311 58q0 22 12.5 76t26.5 94q-46 -101 -107.5 -169.5t-117.5 -68.5q-50 0 -76.5 39t-26.5 107q0 102 45 194.5t115 146t141 53.5q59 0 99 -40l72 48h20l-35 -112
l-75 -310q-9 -34 -9 -44q0 -15 14 -15q29 0 90 75l15 -11q-48 -71 -80 -101t-66 -30q-28 0 -42.5 18t-14.5 50zM221 761h100l60 -169h-17l-143 164v5z" />
    <glyph glyph-name="aacute" unicode="&#xe1;" horiz-adv-x="539" 
d="M157 53q62 0 132.5 109.5t116.5 288.5q-22 51 -78 51q-57 0 -108 -54t-81 -139t-30 -173q0 -83 48 -83zM311 58q0 22 12.5 76t26.5 94q-46 -101 -107.5 -169.5t-117.5 -68.5q-50 0 -76.5 39t-26.5 107q0 102 45 194.5t115 146t141 53.5q59 0 99 -40l72 48h20l-35 -112
l-75 -310q-9 -34 -9 -44q0 -15 14 -15q29 0 90 75l15 -11q-48 -71 -80 -101t-66 -30q-28 0 -42.5 18t-14.5 50zM442 761h106l-1 -5l-178 -164h-17z" />
    <glyph glyph-name="acircumflex" unicode="&#xe2;" horiz-adv-x="539" 
d="M157 53q62 0 132.5 109.5t116.5 288.5q-22 51 -78 51q-57 0 -108 -54t-81 -139t-30 -173q0 -83 48 -83zM311 58q0 22 12.5 76t26.5 94q-46 -101 -107.5 -169.5t-117.5 -68.5q-50 0 -76.5 39t-26.5 107q0 102 45 194.5t115 146t141 53.5q59 0 99 -40l72 48h20l-35 -112
l-75 -310q-9 -34 -9 -44q0 -15 14 -15q29 0 90 75l15 -11q-48 -71 -80 -101t-66 -30q-28 0 -42.5 18t-14.5 50zM425 765l73 -173h-24l-95 108l-141 -108h-28l147 173h68z" />
    <glyph glyph-name="atilde" unicode="&#xe3;" horiz-adv-x="539" 
d="M157 53q62 0 132.5 109.5t116.5 288.5q-22 51 -78 51q-57 0 -108 -54t-81 -139t-30 -173q0 -83 48 -83zM311 58q0 22 12.5 76t26.5 94q-46 -101 -107.5 -169.5t-117.5 -68.5q-50 0 -76.5 39t-26.5 107q0 102 45 194.5t115 146t141 53.5q59 0 99 -40l72 48h20l-35 -112
l-75 -310q-9 -34 -9 -44q0 -15 14 -15q29 0 90 75l15 -11q-48 -71 -80 -101t-66 -30q-28 0 -42.5 18t-14.5 50zM437 604q-26 0 -65.5 28t-61.5 28q-21 0 -37 -12.5t-37 -44.5l-17 10q36 67 59 90t57 23q26 0 65 -28t61 -28t38.5 13t35.5 44l18 -10q-36 -67 -59 -90t-57 -23z
" />
    <glyph glyph-name="adieresis" unicode="&#xe4;" horiz-adv-x="539" 
d="M157 53q62 0 132.5 109.5t116.5 288.5q-22 51 -78 51q-57 0 -108 -54t-81 -139t-30 -173q0 -83 48 -83zM311 58q0 22 12.5 76t26.5 94q-46 -101 -107.5 -169.5t-117.5 -68.5q-50 0 -76.5 39t-26.5 107q0 102 45 194.5t115 146t141 53.5q59 0 99 -40l72 48h20l-35 -112
l-75 -310q-9 -34 -9 -44q0 -15 14 -15q29 0 90 75l15 -11q-48 -71 -80 -101t-66 -30q-28 0 -42.5 18t-14.5 50zM291 608q-25 0 -41.5 16.5t-16.5 41.5q0 26 18.5 45t44.5 19q25 0 41.5 -16.5t16.5 -41.5q0 -26 -18.5 -45t-44.5 -19zM457 608q-25 0 -41.5 16.5t-16.5 41.5
q0 26 18.5 45t44.5 19q25 0 41.5 -16.5t16.5 -41.5q0 -26 -18.5 -45t-44.5 -19z" />
    <glyph glyph-name="aring" unicode="&#xe5;" horiz-adv-x="539" 
d="M157 53q62 0 132.5 109.5t116.5 288.5q-22 51 -78 51q-57 0 -108 -54t-81 -139t-30 -173q0 -83 48 -83zM311 58q0 22 12.5 76t26.5 94q-46 -101 -107.5 -169.5t-117.5 -68.5q-50 0 -76.5 39t-26.5 107q0 102 45 194.5t115 146t141 53.5q59 0 99 -40l72 48h20l-35 -112
l-75 -310q-9 -34 -9 -44q0 -15 14 -15q29 0 90 75l15 -11q-48 -71 -80 -101t-66 -30q-28 0 -42.5 18t-14.5 50zM428 661q0 22 -13.5 35.5t-35.5 13.5q-28 0 -44.5 -19.5t-16.5 -47.5q0 -22 13.5 -35.5t35.5 -13.5q28 0 44.5 19.5t16.5 47.5zM286 643q0 40 27 67.5t66 27.5
q38 0 59.5 -21t21.5 -56q0 -40 -27 -67.5t-66 -27.5q-38 0 -59.5 21t-21.5 56z" />
    <glyph glyph-name="ae" unicode="&#xe6;" horiz-adv-x="715" 
d="M335 530q71 0 116 -59q70 59 147 59q57 0 87 -27.5t30 -69.5q0 -37 -18.5 -67.5t-46 -50.5t-72.5 -37.5t-83 -27.5t-93 -22q-2 -28 -2 -42q0 -68 27.5 -106t76.5 -38q78 0 155 100l18 -13q-95 -139 -207 -139q-71 0 -112 45t-45 121q-43 -74 -93 -120t-95 -46
q-50 0 -76.5 39t-26.5 107q0 156 97 275t216 119zM157 53q35 0 76.5 40t81.5 113q7 67 36.5 130.5t74.5 110.5q-31 55 -91 55t-113 -54.5t-83 -138.5t-30 -173q0 -83 48 -83zM580 499q-62 0 -111 -75t-64 -175q118 27 173.5 71t55.5 118q0 26 -13.5 43.5t-40.5 17.5z" />
    <glyph glyph-name="ccedilla" unicode="&#xe7;" horiz-adv-x="413" 
d="M61 -221l-6 26q60 0 93.5 15.5t33.5 40.5q0 39 -89 42l49 90q-58 10 -89 57t-31 114q0 88 39 172.5t106.5 139t143.5 54.5q54 0 83.5 -22.5t29.5 -60.5q0 -53 -59 -63h-6q-2 116 -74 116t-124 -104.5t-52 -218.5q0 -57 25.5 -96.5t74.5 -39.5q43 0 75 23t70 73l16 -13
q-85 -134 -195 -134h-9l-20 -38q43 -1 69.5 -18.5t26.5 -50.5q0 -51 -49.5 -77.5t-131.5 -26.5z" />
    <glyph glyph-name="egrave" unicode="&#xe8;" horiz-adv-x="424" 
d="M424 433q0 -37 -18.5 -67.5t-46 -50.5t-72.5 -37.5t-83 -27.5t-93 -22q-2 -28 -2 -42q0 -68 27.5 -106t76.5 -38q78 0 155 100l18 -13q-95 -139 -207 -139q-74 0 -115.5 49t-41.5 131q0 86 39 169.5t105.5 137t140.5 53.5q57 0 87 -27.5t30 -69.5zM289 499
q-62 0 -111 -75t-64 -175q118 27 173.5 71t55.5 118q0 26 -13.5 43.5t-40.5 17.5zM191 761h100l60 -169h-17l-143 164v5z" />
    <glyph glyph-name="eacute" unicode="&#xe9;" horiz-adv-x="424" 
d="M424 433q0 -37 -18.5 -67.5t-46 -50.5t-72.5 -37.5t-83 -27.5t-93 -22q-2 -28 -2 -42q0 -68 27.5 -106t76.5 -38q78 0 155 100l18 -13q-95 -139 -207 -139q-74 0 -115.5 49t-41.5 131q0 86 39 169.5t105.5 137t140.5 53.5q57 0 87 -27.5t30 -69.5zM289 499
q-62 0 -111 -75t-64 -175q118 27 173.5 71t55.5 118q0 26 -13.5 43.5t-40.5 17.5zM388 761h106l-1 -5l-178 -164h-17z" />
    <glyph glyph-name="ecircumflex" unicode="&#xea;" horiz-adv-x="424" 
d="M424 433q0 -37 -18.5 -67.5t-46 -50.5t-72.5 -37.5t-83 -27.5t-93 -22q-2 -28 -2 -42q0 -68 27.5 -106t76.5 -38q78 0 155 100l18 -13q-95 -139 -207 -139q-74 0 -115.5 49t-41.5 131q0 86 39 169.5t105.5 137t140.5 53.5q57 0 87 -27.5t30 -69.5zM289 499
q-62 0 -111 -75t-64 -175q118 27 173.5 71t55.5 118q0 26 -13.5 43.5t-40.5 17.5zM397 765l73 -173h-24l-95 108l-141 -108h-28l147 173h68z" />
    <glyph glyph-name="edieresis" unicode="&#xeb;" horiz-adv-x="424" 
d="M424 433q0 -37 -18.5 -67.5t-46 -50.5t-72.5 -37.5t-83 -27.5t-93 -22q-2 -28 -2 -42q0 -68 27.5 -106t76.5 -38q78 0 155 100l18 -13q-95 -139 -207 -139q-74 0 -115.5 49t-41.5 131q0 86 39 169.5t105.5 137t140.5 53.5q57 0 87 -27.5t30 -69.5zM289 499
q-62 0 -111 -75t-64 -175q118 27 173.5 71t55.5 118q0 26 -13.5 43.5t-40.5 17.5zM248 608q-25 0 -41.5 16.5t-16.5 41.5q0 26 18.5 45t44.5 19q25 0 41.5 -16.5t16.5 -41.5q0 -26 -18.5 -45t-44.5 -19zM414 608q-25 0 -41.5 16.5t-16.5 41.5q0 26 18.5 45t44.5 19
q25 0 41.5 -16.5t16.5 -41.5q0 -26 -18.5 -45t-44.5 -19z" />
    <glyph glyph-name="igrave" unicode="&#xec;" horiz-adv-x="272" 
d="M47 144l76 300l-61 31l3 12l157 43h10l-104 -414q-9 -34 -9 -44q0 -15 14 -15q29 0 90 75l15 -11q-48 -71 -80 -101t-66 -30q-28 0 -43.5 18.5t-15.5 49.5q0 33 14 86zM52 761h100l60 -169h-17l-143 164v5z" />
    <glyph glyph-name="iacute" unicode="&#xed;" horiz-adv-x="272" 
d="M47 144l76 300l-61 31l3 12l157 43h10l-104 -414q-9 -34 -9 -44q0 -15 14 -15q29 0 90 75l15 -11q-48 -71 -80 -101t-66 -30q-28 0 -43.5 18.5t-15.5 49.5q0 33 14 86zM263 761h106l-1 -5l-178 -164h-17z" />
    <glyph glyph-name="icircumflex" unicode="&#xee;" horiz-adv-x="272" 
d="M47 144l76 300l-61 31l3 12l157 43h10l-104 -414q-9 -34 -9 -44q0 -15 14 -15q29 0 90 75l15 -11q-48 -71 -80 -101t-66 -30q-28 0 -43.5 18.5t-15.5 49.5q0 33 14 86zM270 765l73 -173h-24l-95 108l-141 -108h-28l147 173h68z" />
    <glyph glyph-name="idieresis" unicode="&#xef;" horiz-adv-x="272" 
d="M47 144l76 300l-61 31l3 12l157 43h10l-104 -414q-9 -34 -9 -44q0 -15 14 -15q29 0 90 75l15 -11q-48 -71 -80 -101t-66 -30q-28 0 -43.5 18.5t-15.5 49.5q0 33 14 86zM121 608q-25 0 -41.5 16.5t-16.5 41.5q0 26 18.5 45t44.5 19q25 0 41.5 -16.5t16.5 -41.5
q0 -26 -18.5 -45t-44.5 -19zM287 608q-25 0 -41.5 16.5t-16.5 41.5q0 26 18.5 45t44.5 19q25 0 41.5 -16.5t16.5 -41.5q0 -26 -18.5 -45t-44.5 -19z" />
    <glyph glyph-name="eth" unicode="&#xf0;" horiz-adv-x="480" 
d="M143 585l-11 28l140 53q-49 58 -127 100l14 17q91 -36 158 -100l113 44l11 -28l-101 -39q118 -129 118 -301q0 -90 -36.5 -175t-101 -139.5t-139.5 -54.5q-73 0 -116 47t-43 138q0 80 35 161t102 137.5t146 56.5q25 0 44 -8q-19 67 -57 120zM370 359q0 68 -11 124
q-24 19 -60 19q-52 0 -97 -55.5t-68.5 -132t-23.5 -146.5q0 -150 79 -150q50 0 93 56.5t65.5 134.5t22.5 150z" />
    <glyph glyph-name="ntilde" unicode="&#xf1;" horiz-adv-x="555" 
d="M241 530l-66 -248q49 91 124.5 169.5t141.5 78.5q35 0 49.5 -18t14.5 -53q0 -18 -6 -44l-79 -299q-9 -34 -9 -44q0 -15 14 -15q29 0 90 75l15 -11q-48 -71 -80 -101t-66 -30q-28 0 -43.5 18.5t-15.5 49.5q0 33 14 86l74 275q5 22 5 33q0 21 -18 21q-53 0 -139 -100.5
t-117 -227.5l-36 -145h-87l111 444l-61 31l3 12l157 43h10zM422 604q-26 0 -65.5 28t-61.5 28q-21 0 -37 -12.5t-37 -44.5l-17 10q36 67 59 90t57 23q26 0 65 -28t61 -28t38.5 13t35.5 44l18 -10q-36 -67 -59 -90t-57 -23z" />
    <glyph glyph-name="ograve" unicode="&#xf2;" horiz-adv-x="480" 
d="M190 18q48 0 91 55.5t66 133t23 148.5q0 147 -80 147q-48 0 -91 -55.5t-66 -133t-23 -148.5q0 -147 80 -147zM180 -10q-75 0 -116.5 48.5t-41.5 135.5q0 60 21.5 123t57.5 114.5t88.5 85t110.5 33.5q75 0 116.5 -48.5t41.5 -135.5q0 -60 -21.5 -123t-57.5 -114.5
t-88.5 -85t-110.5 -33.5zM170 761h100l60 -169h-17l-143 164v5z" />
    <glyph glyph-name="oacute" unicode="&#xf3;" horiz-adv-x="480" 
d="M190 18q48 0 91 55.5t66 133t23 148.5q0 147 -80 147q-48 0 -91 -55.5t-66 -133t-23 -148.5q0 -147 80 -147zM180 -10q-75 0 -116.5 48.5t-41.5 135.5q0 60 21.5 123t57.5 114.5t88.5 85t110.5 33.5q75 0 116.5 -48.5t41.5 -135.5q0 -60 -21.5 -123t-57.5 -114.5
t-88.5 -85t-110.5 -33.5zM381 761h106l-1 -5l-178 -164h-17z" />
    <glyph glyph-name="ocircumflex" unicode="&#xf4;" horiz-adv-x="480" 
d="M190 18q48 0 91 55.5t66 133t23 148.5q0 147 -80 147q-48 0 -91 -55.5t-66 -133t-23 -148.5q0 -147 80 -147zM180 -10q-75 0 -116.5 48.5t-41.5 135.5q0 60 21.5 123t57.5 114.5t88.5 85t110.5 33.5q75 0 116.5 -48.5t41.5 -135.5q0 -60 -21.5 -123t-57.5 -114.5
t-88.5 -85t-110.5 -33.5zM381 765l73 -173h-24l-95 108l-141 -108h-28l147 173h68z" />
    <glyph glyph-name="otilde" unicode="&#xf5;" horiz-adv-x="480" 
d="M190 18q48 0 91 55.5t66 133t23 148.5q0 147 -80 147q-48 0 -91 -55.5t-66 -133t-23 -148.5q0 -147 80 -147zM180 -10q-75 0 -116.5 48.5t-41.5 135.5q0 60 21.5 123t57.5 114.5t88.5 85t110.5 33.5q75 0 116.5 -48.5t41.5 -135.5q0 -60 -21.5 -123t-57.5 -114.5
t-88.5 -85t-110.5 -33.5zM386 604q-26 0 -65.5 28t-61.5 28q-21 0 -37 -12.5t-37 -44.5l-17 10q36 67 59 90t57 23q26 0 65 -28t61 -28t38.5 13t35.5 44l18 -10q-36 -67 -59 -90t-57 -23z" />
    <glyph glyph-name="odieresis" unicode="&#xf6;" horiz-adv-x="480" 
d="M190 18q48 0 91 55.5t66 133t23 148.5q0 147 -80 147q-48 0 -91 -55.5t-66 -133t-23 -148.5q0 -147 80 -147zM180 -10q-75 0 -116.5 48.5t-41.5 135.5q0 60 21.5 123t57.5 114.5t88.5 85t110.5 33.5q75 0 116.5 -48.5t41.5 -135.5q0 -60 -21.5 -123t-57.5 -114.5
t-88.5 -85t-110.5 -33.5zM249 608q-25 0 -41.5 16.5t-16.5 41.5q0 26 18.5 45t44.5 19q25 0 41.5 -16.5t16.5 -41.5q0 -26 -18.5 -45t-44.5 -19zM415 608q-25 0 -41.5 16.5t-16.5 41.5q0 26 18.5 45t44.5 19q25 0 41.5 -16.5t16.5 -41.5q0 -26 -18.5 -45t-44.5 -19z" />
    <glyph glyph-name="divide" unicode="&#xf7;" horiz-adv-x="564" 
d="M70 345l11 52h438l-11 -52h-438zM206 208q0 22 15 37t37 15t37 -15t15 -37t-15 -37t-37 -15t-37 15t-15 37zM277 534q0 22 15 37t37 15t37 -15t15 -37t-15 -37t-37 -15t-37 15t-15 37z" />
    <glyph glyph-name="oslash" unicode="&#xf8;" horiz-adv-x="480" 
d="M180 -10q-66 0 -106 37l-42 -54l-22 17l46 58q-34 48 -34 126q0 60 21.5 123t57.5 114.5t88.5 85t110.5 33.5q65 0 105 -37l39 49l22 -17l-42 -53q34 -48 34 -126q0 -60 -21.5 -123t-57.5 -114.5t-88.5 -85t-110.5 -33.5zM190 18q48 0 91 55.5t66 133t23 148.5
q0 24 -3 45l-248 -317q18 -65 71 -65zM110 165q0 -17 2 -45l249 316q-18 66 -71 66q-48 0 -91 -55.5t-66 -133t-23 -148.5z" />
    <glyph glyph-name="ugrave" unicode="&#xf9;" horiz-adv-x="555" 
d="M386 384l32 131l93 7l-99 -406q-9 -34 -9 -44q0 -15 14 -15q29 0 90 75l15 -11q-48 -71 -80 -101t-66 -30q-28 0 -42.5 18t-14.5 50q0 37 41 190q-24 -55 -62.5 -111t-91.5 -101.5t-98 -45.5q-36 0 -55 21.5t-19 55.5q0 22 8 51l84 326l-61 31l3 12l157 43h10l-105 -408
q-8 -30 -8 -46q0 -29 27 -29q52 0 128 101t109 236zM192 761h100l60 -169h-17l-143 164v5z" />
    <glyph glyph-name="uacute" unicode="&#xfa;" horiz-adv-x="555" 
d="M386 384l32 131l93 7l-99 -406q-9 -34 -9 -44q0 -15 14 -15q29 0 90 75l15 -11q-48 -71 -80 -101t-66 -30q-28 0 -42.5 18t-14.5 50q0 37 41 190q-24 -55 -62.5 -111t-91.5 -101.5t-98 -45.5q-36 0 -55 21.5t-19 55.5q0 22 8 51l84 326l-61 31l3 12l157 43h10l-105 -408
q-8 -30 -8 -46q0 -29 27 -29q52 0 128 101t109 236zM402 761h106l-1 -5l-178 -164h-17z" />
    <glyph glyph-name="ucircumflex" unicode="&#xfb;" horiz-adv-x="555" 
d="M386 384l32 131l93 7l-99 -406q-9 -34 -9 -44q0 -15 14 -15q29 0 90 75l15 -11q-48 -71 -80 -101t-66 -30q-28 0 -42.5 18t-14.5 50q0 37 41 190q-24 -55 -62.5 -111t-91.5 -101.5t-98 -45.5q-36 0 -55 21.5t-19 55.5q0 22 8 51l84 326l-61 31l3 12l157 43h10l-105 -408
q-8 -30 -8 -46q0 -29 27 -29q52 0 128 101t109 236zM410 765l73 -173h-24l-95 108l-141 -108h-28l147 173h68z" />
    <glyph glyph-name="udieresis" unicode="&#xfc;" horiz-adv-x="555" 
d="M386 384l32 131l93 7l-99 -406q-9 -34 -9 -44q0 -15 14 -15q29 0 90 75l15 -11q-48 -71 -80 -101t-66 -30q-28 0 -42.5 18t-14.5 50q0 37 41 190q-24 -55 -62.5 -111t-91.5 -101.5t-98 -45.5q-36 0 -55 21.5t-19 55.5q0 22 8 51l84 326l-61 31l3 12l157 43h10l-105 -408
q-8 -30 -8 -46q0 -29 27 -29q52 0 128 101t109 236zM261 608q-25 0 -41.5 16.5t-16.5 41.5q0 26 18.5 45t44.5 19q25 0 41.5 -16.5t16.5 -41.5q0 -26 -18.5 -45t-44.5 -19zM427 608q-25 0 -41.5 16.5t-16.5 41.5q0 26 18.5 45t44.5 19q25 0 41.5 -16.5t16.5 -41.5
q0 -26 -18.5 -45t-44.5 -19z" />
    <glyph glyph-name="yacute" unicode="&#xfd;" horiz-adv-x="479" 
d="M80 449l-61 26l4 12l132 43h3l78 -499q12 17 56 84q119 185 119 282q0 40 -25.5 60t-70.5 15v8q40 50 86 50q42 0 60 -25t18 -60q0 -47 -38.5 -127.5t-126.5 -218.5q-61 -95 -112.5 -158.5t-91.5 -94t-69.5 -41.5t-60.5 -11q-37 0 -63 19.5t-26 56.5q0 23 13.5 40.5
t33.5 23.5h4q0 -40 19 -62.5t53 -22.5q38 0 72 18.5t83 75.5zM390 761h106l-1 -5l-178 -164h-17z" />
    <glyph glyph-name="thorn" unicode="&#xfe;" horiz-adv-x="532" 
d="M371 467q-64 0 -143.5 -113t-117.5 -284q10 -24 32 -37.5t48 -13.5q59 0 113.5 55.5t86.5 138t32 163.5q0 91 -51 91zM288 783l-127 -505q45 100 115 176t127 76q50 0 78.5 -39t28.5 -107q0 -153 -101.5 -273.5t-213.5 -120.5q-62 0 -95 38l-39 -155q-5 -20 -5 -27
q0 -18 19 -24.5t74 -7.5l-6 -26h-259l6 26q42 2 58.5 11.5t23.5 38.5l209 836l-68 32l3 12l162 39h10z" />
    <glyph glyph-name="ydieresis" unicode="&#xff;" horiz-adv-x="479" 
d="M80 449l-61 26l4 12l132 43h3l78 -499q12 17 56 84q119 185 119 282q0 40 -25.5 60t-70.5 15v8q40 50 86 50q42 0 60 -25t18 -60q0 -47 -38.5 -127.5t-126.5 -218.5q-61 -95 -112.5 -158.5t-91.5 -94t-69.5 -41.5t-60.5 -11q-37 0 -63 19.5t-26 56.5q0 23 13.5 40.5
t33.5 23.5h4q0 -40 19 -62.5t53 -22.5q38 0 72 18.5t83 75.5zM395 608q-25 0 -41.5 16.5t-16.5 41.5q0 26 18.5 45t44.5 19q25 0 41.5 -16.5t16.5 -41.5q0 -26 -18.5 -45t-44.5 -19zM229 608q-25 0 -41.5 16.5t-16.5 41.5q0 26 18.5 45t44.5 19q25 0 41.5 -16.5t16.5 -41.5
q0 -26 -18.5 -45t-44.5 -19z" />
    <glyph glyph-name="Amacron" unicode="&#x100;" horiz-adv-x="696" 
d="M490 110l-27 136h-284l-82 -135q-20 -34 -20 -50q0 -17 19.5 -24.5t63.5 -9.5l-5 -27h-203l5 27q48 5 67 37l358 583l-14 64h96l128 -647q6 -32 51 -37l-5 -27h-251l5 27q21 1 32.5 2t26.5 4t23 9t13.5 17t5.5 26q0 11 -3 25zM395 601l-197 -323h259zM307 773l10 49h271
l-10 -49h-271z" />
    <glyph glyph-name="amacron" unicode="&#x101;" horiz-adv-x="539" 
d="M157 53q62 0 132.5 109.5t116.5 288.5q-22 51 -78 51q-57 0 -108 -54t-81 -139t-30 -173q0 -83 48 -83zM311 58q0 22 12.5 76t26.5 94q-46 -101 -107.5 -169.5t-117.5 -68.5q-50 0 -76.5 39t-26.5 107q0 102 45 194.5t115 146t141 53.5q59 0 99 -40l72 48h20l-35 -112
l-75 -310q-9 -34 -9 -44q0 -15 14 -15q29 0 90 75l15 -11q-48 -71 -80 -101t-66 -30q-28 0 -42.5 18t-14.5 50zM241 623l10 49h251l-10 -49h-251z" />
    <glyph glyph-name="Abreve" unicode="&#x102;" horiz-adv-x="696" 
d="M490 110l-27 136h-284l-82 -135q-20 -34 -20 -50q0 -17 19.5 -24.5t63.5 -9.5l-5 -27h-203l5 27q48 5 67 37l358 583l-14 64h96l128 -647q6 -32 51 -37l-5 -27h-251l5 27q21 1 32.5 2t26.5 4t23 9t13.5 17t5.5 26q0 11 -3 25zM395 601l-197 -323h259zM436 748
q-60 0 -88.5 40t-11.5 117h29q-13 -94 82 -94q96 0 122 94h29q-34 -157 -162 -157z" />
    <glyph glyph-name="abreve" unicode="&#x103;" horiz-adv-x="539" 
d="M157 53q62 0 132.5 109.5t116.5 288.5q-22 51 -78 51q-57 0 -108 -54t-81 -139t-30 -173q0 -83 48 -83zM311 58q0 22 12.5 76t26.5 94q-46 -101 -107.5 -169.5t-117.5 -68.5q-50 0 -76.5 39t-26.5 107q0 102 45 194.5t115 146t141 53.5q59 0 99 -40l72 48h20l-35 -112
l-75 -310q-9 -34 -9 -44q0 -15 14 -15q29 0 90 75l15 -11q-48 -71 -80 -101t-66 -30q-28 0 -42.5 18t-14.5 50zM370 596q-59 0 -85.5 40.5t-9.5 118.5h29q-13 -96 77 -96t117 96h29q-34 -159 -157 -159z" />
    <glyph glyph-name="Aogonek" unicode="&#x104;" horiz-adv-x="696" 
d="M490 110l-27 136h-284l-82 -135q-20 -34 -20 -50q0 -17 19.5 -24.5t63.5 -9.5l-5 -27h-203l5 27q48 5 67 37l358 583l-14 64h96l128 -647q6 -32 51 -37l-5 -27h-226q-119 -41 -119 -119q0 -21 13.5 -33t35.5 -12q46 0 99 47l8 -10q-22 -24 -38 -38.5t-45.5 -29.5
t-60.5 -15q-35 0 -57 18t-22 50q0 53 45 93.5t119 66.5q10 3 32.5 10.5t30 11t20 10.5t16.5 15t4 20q0 11 -3 25zM395 601l-197 -323h259z" />
    <glyph glyph-name="aogonek" unicode="&#x105;" horiz-adv-x="539" 
d="M514 121q-32 -45 -74 -85.5t-70 -62t-48.5 -46.5t-20.5 -49q0 -42 49 -42q46 0 99 47l8 -10q-22 -24 -38 -38.5t-45.5 -29.5t-60.5 -15q-35 0 -56.5 18t-21.5 50q0 29 22.5 56.5t45 42.5t60.5 35q-52 5 -52 66q0 22 12.5 76t26.5 94q-46 -101 -107.5 -169.5t-117.5 -68.5
q-50 0 -76.5 39t-26.5 107q0 102 45 194.5t115 146t141 53.5q59 0 99 -40l72 48h20l-35 -112l-75 -310q-9 -34 -9 -44q0 -15 14 -15q29 0 90 75zM157 53q62 0 132.5 109.5t116.5 288.5q-22 51 -78 51q-57 0 -108 -54t-81 -139t-30 -173q0 -83 48 -83z" />
    <glyph glyph-name="Cacute" unicode="&#x106;" horiz-adv-x="644" 
d="M455 712q131 0 209 -59l-31 -146h-27q1 84 -38 128t-113 44q-73 0 -134 -40t-98 -102.5t-57 -133.5t-20 -138q0 -117 43 -179.5t125 -62.5q84 0 144.5 48.5t105.5 150.5h30l-51 -178q-106 -54 -229 -54q-129 0 -199 74t-70 201q0 79 30 158.5t82.5 144t130.5 104.5
t167 40zM530 900h112l-1 -5l-160 -144h-17z" />
    <glyph glyph-name="cacute" unicode="&#x107;" horiz-adv-x="413" 
d="M285 500q-72 0 -124 -104.5t-52 -218.5q0 -57 25.5 -96.5t74.5 -39.5q43 0 75 23t70 73l16 -13q-85 -134 -195 -134q-74 0 -113.5 49t-39.5 125q0 88 39 172.5t106.5 139t143.5 54.5q54 0 83.5 -22.5t29.5 -60.5q0 -53 -59 -63h-6q-2 116 -74 116zM402 761h106l-1 -5
l-178 -164h-17z" />
    <glyph glyph-name="Ccircumflex" unicode="&#x108;" horiz-adv-x="644" 
d="M455 712q131 0 209 -59l-31 -146h-27q1 84 -38 128t-113 44q-73 0 -134 -40t-98 -102.5t-57 -133.5t-20 -138q0 -117 43 -179.5t125 -62.5q84 0 144.5 48.5t105.5 150.5h30l-51 -178q-106 -54 -229 -54q-129 0 -199 74t-70 201q0 79 30 158.5t82.5 144t130.5 104.5
t167 40zM549 910l73 -159h-24l-95 94l-141 -94h-28l147 159h68z" />
    <glyph glyph-name="ccircumflex" unicode="&#x109;" horiz-adv-x="413" 
d="M285 500q-72 0 -124 -104.5t-52 -218.5q0 -57 25.5 -96.5t74.5 -39.5q43 0 75 23t70 73l16 -13q-85 -134 -195 -134q-74 0 -113.5 49t-39.5 125q0 88 39 172.5t106.5 139t143.5 54.5q54 0 83.5 -22.5t29.5 -60.5q0 -53 -59 -63h-6q-2 116 -74 116zM389 765l73 -173h-24
l-95 108l-141 -108h-28l147 173h68z" />
    <glyph glyph-name="Cdotaccent" unicode="&#x10a;" horiz-adv-x="644" 
d="M455 712q131 0 209 -59l-31 -146h-27q1 84 -38 128t-113 44q-73 0 -134 -40t-98 -102.5t-57 -133.5t-20 -138q0 -117 43 -179.5t125 -62.5q84 0 144.5 48.5t105.5 150.5h30l-51 -178q-106 -54 -229 -54q-129 0 -199 74t-70 201q0 79 30 158.5t82.5 144t130.5 104.5
t167 40zM496 760q-25 0 -41.5 17t-16.5 41q0 26 18.5 45t44.5 19q25 0 41.5 -17t16.5 -41q0 -26 -18.5 -45t-44.5 -19z" />
    <glyph glyph-name="cdotaccent" unicode="&#x10b;" horiz-adv-x="413" 
d="M285 500q-72 0 -124 -104.5t-52 -218.5q0 -57 25.5 -96.5t74.5 -39.5q43 0 75 23t70 73l16 -13q-85 -134 -195 -134q-74 0 -113.5 49t-39.5 125q0 88 39 172.5t106.5 139t143.5 54.5q54 0 83.5 -22.5t29.5 -60.5q0 -53 -59 -63h-6q-2 116 -74 116zM348 611
q-25 0 -41.5 17t-16.5 41q0 26 18.5 45t44.5 19q25 0 41.5 -17t16.5 -41q0 -26 -18.5 -45t-44.5 -19z" />
    <glyph glyph-name="Ccaron" unicode="&#x10c;" horiz-adv-x="644" 
d="M455 712q131 0 209 -59l-31 -146h-27q1 84 -38 128t-113 44q-73 0 -134 -40t-98 -102.5t-57 -133.5t-20 -138q0 -117 43 -179.5t125 -62.5q84 0 144.5 48.5t105.5 150.5h30l-51 -178q-106 -54 -229 -54q-129 0 -199 74t-70 201q0 79 30 158.5t82.5 144t130.5 104.5
t167 40zM451 751l-73 159h24l95 -94l141 94h28l-147 -159h-68z" />
    <glyph glyph-name="ccaron" unicode="&#x10d;" horiz-adv-x="413" 
d="M285 500q-72 0 -124 -104.5t-52 -218.5q0 -57 25.5 -96.5t74.5 -39.5q43 0 75 23t70 73l16 -13q-85 -134 -195 -134q-74 0 -113.5 49t-39.5 125q0 88 39 172.5t106.5 139t143.5 54.5q54 0 83.5 -22.5t29.5 -60.5q0 -53 -59 -63h-6q-2 116 -74 116zM288 593l-73 173h24
l95 -108l141 108h28l-147 -173h-68z" />
    <glyph glyph-name="Dcaron" unicode="&#x10e;" horiz-adv-x="700" 
d="M253 33h15q140 0 231.5 106.5t91.5 280.5q0 119 -56 184t-171 65h-65l-120 -565q-9 -42 8 -56.5t66 -14.5zM257 0h-283l6 27q59 7 76.5 18.5t26.5 52.5l108 506q9 43 -4.5 53.5t-68.5 17.5l6 27h253q147 0 231 -76t84 -206q0 -190 -124 -305t-311 -115zM386 751l-73 159
h24l95 -94l141 94h28l-147 -159h-68z" />
    <glyph glyph-name="dcaron" unicode="&#x10f;" horiz-adv-x="562" 
d="M158 53q63 0 139.5 111.5t117.5 286.5q-10 24 -32 37.5t-48 13.5q-59 0 -112 -56t-82.5 -138.5t-30.5 -163.5q0 -91 48 -91zM424 493l52 207l-68 32l3 12l162 39h10l-166 -667q-9 -34 -9 -44q0 -15 14 -15q29 0 90 75l15 -11q-48 -71 -80 -101t-66 -30q-28 0 -42.5 18
t-14.5 50q0 22 14.5 82.5t29.5 101.5q-45 -100 -115 -176t-127 -76q-50 0 -77 39t-27 107q0 102 47 194.5t118 146t143 53.5q57 0 94 -37zM739 778l-147 -200h-11l64 205h95z" />
    <glyph glyph-name="Dcroat" unicode="&#x110;" horiz-adv-x="700" 
d="M51 346l7 34h85l48 224q9 43 -4.5 53.5t-68.5 17.5l6 27h253q147 0 231 -76t84 -206q0 -190 -124 -305t-311 -115h-283l6 27q59 7 76.5 18.5t26.5 52.5l53 248h-85zM253 33h15q140 0 231.5 106.5t91.5 280.5q0 119 -56 184t-171 65h-65l-62 -289h146l-7 -34h-146
l-51 -242q-9 -42 8 -56.5t66 -14.5z" />
    <glyph glyph-name="dcroat" unicode="&#x111;" horiz-adv-x="562" 
d="M424 493l26 103h-134l7 32h135l18 72l-68 32l3 12l162 39h10l-39 -155h70l-7 -32h-71l-119 -480q-9 -34 -9 -44q0 -15 14 -15q29 0 90 75l15 -11q-48 -71 -80 -101t-66 -30q-28 0 -42.5 18t-14.5 50q0 22 14.5 82.5t29.5 101.5q-45 -100 -115 -176t-127 -76q-50 0 -77 39
t-27 107q0 102 47 194.5t118 146t143 53.5q57 0 94 -37zM158 53q63 0 139.5 111.5t117.5 286.5q-10 24 -32 37.5t-48 13.5q-59 0 -112 -56t-82.5 -138.5t-30.5 -163.5q0 -91 48 -91z" />
    <glyph glyph-name="Emacron" unicode="&#x112;" horiz-adv-x="614" 
d="M509 0h-535l6 27q59 7 76.5 18.5t26.5 52.5l108 506q9 43 -4.5 53.5t-68.5 17.5l6 27h522l-31 -167h-20q-16 80 -40.5 107t-76.5 27h-179l-62 -290h159q31 0 51 21.5t39 68.5h27l-45 -213h-27q2 47 -9.5 68.5t-42.5 21.5h-159l-52 -245q-9 -39 10.5 -53.5t73.5 -14.5h92
q51 0 91 31.5t108 115.5h24zM299 773l10 49h271l-10 -49h-271z" />
    <glyph glyph-name="emacron" unicode="&#x113;" horiz-adv-x="424" 
d="M424 433q0 -37 -18.5 -67.5t-46 -50.5t-72.5 -37.5t-83 -27.5t-93 -22q-2 -28 -2 -42q0 -68 27.5 -106t76.5 -38q78 0 155 100l18 -13q-95 -139 -207 -139q-74 0 -115.5 49t-41.5 131q0 86 39 169.5t105.5 137t140.5 53.5q57 0 87 -27.5t30 -69.5zM289 499
q-62 0 -111 -75t-64 -175q118 27 173.5 71t55.5 118q0 26 -13.5 43.5t-40.5 17.5zM200 623l10 49h251l-10 -49h-251z" />
    <glyph glyph-name="Ebreve" unicode="&#x114;" horiz-adv-x="614" 
d="M509 0h-535l6 27q59 7 76.5 18.5t26.5 52.5l108 506q9 43 -4.5 53.5t-68.5 17.5l6 27h522l-31 -167h-20q-16 80 -40.5 107t-76.5 27h-179l-62 -290h159q31 0 51 21.5t39 68.5h27l-45 -213h-27q2 47 -9.5 68.5t-42.5 21.5h-159l-52 -245q-9 -39 10.5 -53.5t73.5 -14.5h92
q51 0 91 31.5t108 115.5h24zM438 748q-60 0 -88.5 40t-11.5 117h29q-13 -94 82 -94q96 0 122 94h29q-34 -157 -162 -157z" />
    <glyph glyph-name="ebreve" unicode="&#x115;" horiz-adv-x="424" 
d="M424 433q0 -37 -18.5 -67.5t-46 -50.5t-72.5 -37.5t-83 -27.5t-93 -22q-2 -28 -2 -42q0 -68 27.5 -106t76.5 -38q78 0 155 100l18 -13q-95 -139 -207 -139q-74 0 -115.5 49t-41.5 131q0 86 39 169.5t105.5 137t140.5 53.5q57 0 87 -27.5t30 -69.5zM289 499
q-62 0 -111 -75t-64 -175q118 27 173.5 71t55.5 118q0 26 -13.5 43.5t-40.5 17.5zM322 596q-59 0 -85.5 40.5t-9.5 118.5h29q-13 -96 77 -96t117 96h29q-34 -159 -157 -159z" />
    <glyph glyph-name="Edotaccent" unicode="&#x116;" horiz-adv-x="614" 
d="M509 0h-535l6 27q59 7 76.5 18.5t26.5 52.5l108 506q9 43 -4.5 53.5t-68.5 17.5l6 27h522l-31 -167h-20q-16 80 -40.5 107t-76.5 27h-179l-62 -290h159q31 0 51 21.5t39 68.5h27l-45 -213h-27q2 47 -9.5 68.5t-42.5 21.5h-159l-52 -245q-9 -39 10.5 -53.5t73.5 -14.5h92
q51 0 91 31.5t108 115.5h24zM442 760q-25 0 -41.5 17t-16.5 41q0 26 18.5 45t44.5 19q25 0 41.5 -17t16.5 -41q0 -26 -18.5 -45t-44.5 -19z" />
    <glyph glyph-name="edotaccent" unicode="&#x117;" horiz-adv-x="424" 
d="M424 433q0 -37 -18.5 -67.5t-46 -50.5t-72.5 -37.5t-83 -27.5t-93 -22q-2 -28 -2 -42q0 -68 27.5 -106t76.5 -38q78 0 155 100l18 -13q-95 -139 -207 -139q-74 0 -115.5 49t-41.5 131q0 86 39 169.5t105.5 137t140.5 53.5q57 0 87 -27.5t30 -69.5zM289 499
q-62 0 -111 -75t-64 -175q118 27 173.5 71t55.5 118q0 26 -13.5 43.5t-40.5 17.5zM343 611q-25 0 -41.5 17t-16.5 41q0 26 18.5 45t44.5 19q25 0 41.5 -17t16.5 -41q0 -26 -18.5 -45t-44.5 -19z" />
    <glyph glyph-name="Eogonek" unicode="&#x118;" horiz-adv-x="614" 
d="M509 0h-103q-119 -56 -119 -119q0 -21 13.5 -33t35.5 -12q46 0 99 47l8 -10q-22 -24 -38 -38.5t-45.5 -29.5t-60.5 -15q-35 0 -57 18t-22 50q0 47 40.5 80t111.5 62h-398l6 27q59 7 76.5 18.5t26.5 52.5l108 506q9 43 -4.5 53.5t-68.5 17.5l6 27h522l-31 -167h-20
q-16 80 -40.5 107t-76.5 27h-179l-62 -290h159q31 0 51 21.5t39 68.5h27l-45 -213h-27q2 47 -9.5 68.5t-42.5 21.5h-159l-52 -245q-9 -39 10.5 -53.5t73.5 -14.5h92q51 0 91 31.5t108 115.5h24z" />
    <glyph glyph-name="eogonek" unicode="&#x119;" horiz-adv-x="424" 
d="M184 -10q-74 0 -118 49.5t-44 130.5q0 86 39 169.5t105.5 137t140.5 53.5q57 0 87 -27.5t30 -69.5q0 -37 -18.5 -67.5t-46 -50.5t-72.5 -37.5t-83 -27.5t-93 -22q-2 -28 -2 -42q0 -69 27.5 -106.5t78.5 -37.5q75 0 155 100l17 -13q-60 -86 -148 -129q-97 -47 -97 -119
q0 -21 13.5 -33t35.5 -12q46 0 99 47l8 -10q-22 -24 -38 -38.5t-45.5 -29.5t-60.5 -15q-35 0 -57 18t-22 50q0 65 109 132zM289 499q-62 0 -111 -75t-64 -175q118 27 173.5 71t55.5 118q0 26 -13.5 43.5t-40.5 17.5z" />
    <glyph glyph-name="Ecaron" unicode="&#x11a;" horiz-adv-x="614" 
d="M509 0h-535l6 27q59 7 76.5 18.5t26.5 52.5l108 506q9 43 -4.5 53.5t-68.5 17.5l6 27h522l-31 -167h-20q-16 80 -40.5 107t-76.5 27h-179l-62 -290h159q31 0 51 21.5t39 68.5h27l-45 -213h-27q2 47 -9.5 68.5t-42.5 21.5h-159l-52 -245q-9 -39 10.5 -53.5t73.5 -14.5h92
q51 0 91 31.5t108 115.5h24zM397 751l-73 159h24l95 -94l141 94h28l-147 -159h-68z" />
    <glyph glyph-name="ecaron" unicode="&#x11b;" horiz-adv-x="424" 
d="M424 433q0 -37 -18.5 -67.5t-46 -50.5t-72.5 -37.5t-83 -27.5t-93 -22q-2 -28 -2 -42q0 -68 27.5 -106t76.5 -38q78 0 155 100l18 -13q-95 -139 -207 -139q-74 0 -115.5 49t-41.5 131q0 86 39 169.5t105.5 137t140.5 53.5q57 0 87 -27.5t30 -69.5zM289 499
q-62 0 -111 -75t-64 -175q118 27 173.5 71t55.5 118q0 26 -13.5 43.5t-40.5 17.5zM284 593l-73 173h24l95 -108l141 108h28l-147 -173h-68z" />
    <glyph glyph-name="Gcircumflex" unicode="&#x11c;" horiz-adv-x="697" 
d="M323 23q93 0 148 42l36 163q9 43 -4.5 53.5t-68.5 17.5l6 27h252l-6 -27q-48 -3 -65 -16.5t-25 -54.5l-35 -166q-60 -36 -114.5 -54t-123.5 -18q-131 0 -204.5 72.5t-73.5 198.5q0 79 30.5 159.5t83 145t131.5 105.5t167 41q130 0 213 -59l-31 -146h-27q1 84 -39.5 128
t-115.5 44q-73 0 -134 -40.5t-98.5 -103.5t-58 -135t-20.5 -139q0 -115 46.5 -176.5t130.5 -61.5zM553 910l73 -159h-24l-95 94l-141 -94h-28l147 159h68z" />
    <glyph glyph-name="gcircumflex" unicode="&#x11d;" horiz-adv-x="464" 
d="M430 384q0 -93 -62 -151.5t-152 -58.5q-30 0 -56 8q-41 -26 -41 -47q0 -8 6.5 -14.5t13.5 -9.5t22 -7l151 -48q114 -37 114 -121q0 -75 -73.5 -116t-184.5 -41q-98 0 -169.5 39.5t-71.5 98.5q0 52 43.5 81.5t121.5 49.5q-30 21 -30 52q0 50 80 89q-81 37 -81 132
q0 93 61.5 151.5t151.5 58.5q42 0 77 -16l170 7l-13 -49h-49l-64 9q35 -40 35 -97zM277 -21l-170 59q-97 -37 -97 -112q0 -53 46.5 -86t119.5 -33q86 0 131 26.5t45 68.5q0 30 -17.5 46t-57.5 31zM347 399q0 106 -73 106q-54 0 -92 -58.5t-38 -141.5q0 -106 72 -106
q55 0 93 58.5t38 141.5zM386 765l73 -173h-24l-95 108l-141 -108h-28l147 173h68z" />
    <glyph glyph-name="Gbreve" unicode="&#x11e;" horiz-adv-x="697" 
d="M323 23q93 0 148 42l36 163q9 43 -4.5 53.5t-68.5 17.5l6 27h252l-6 -27q-48 -3 -65 -16.5t-25 -54.5l-35 -166q-60 -36 -114.5 -54t-123.5 -18q-131 0 -204.5 72.5t-73.5 198.5q0 79 30.5 159.5t83 145t131.5 105.5t167 41q130 0 213 -59l-31 -146h-27q1 84 -39.5 128
t-115.5 44q-73 0 -134 -40.5t-98.5 -103.5t-58 -135t-20.5 -139q0 -115 46.5 -176.5t130.5 -61.5zM497 748q-60 0 -88.5 40t-11.5 117h29q-13 -94 82 -94q96 0 122 94h29q-34 -157 -162 -157z" />
    <glyph glyph-name="gbreve" unicode="&#x11f;" horiz-adv-x="464" 
d="M430 384q0 -93 -62 -151.5t-152 -58.5q-30 0 -56 8q-41 -26 -41 -47q0 -8 6.5 -14.5t13.5 -9.5t22 -7l151 -48q114 -37 114 -121q0 -75 -73.5 -116t-184.5 -41q-98 0 -169.5 39.5t-71.5 98.5q0 52 43.5 81.5t121.5 49.5q-30 21 -30 52q0 50 80 89q-81 37 -81 132
q0 93 61.5 151.5t151.5 58.5q42 0 77 -16l170 7l-13 -49h-49l-64 9q35 -40 35 -97zM277 -21l-170 59q-97 -37 -97 -112q0 -53 46.5 -86t119.5 -33q86 0 131 26.5t45 68.5q0 30 -17.5 46t-57.5 31zM347 399q0 106 -73 106q-54 0 -92 -58.5t-38 -141.5q0 -106 72 -106
q55 0 93 58.5t38 141.5zM318 596q-59 0 -85.5 40.5t-9.5 118.5h29q-13 -96 77 -96t117 96h29q-34 -159 -157 -159z" />
    <glyph glyph-name="Gdotaccent" unicode="&#x120;" horiz-adv-x="697" 
d="M323 23q93 0 148 42l36 163q9 43 -4.5 53.5t-68.5 17.5l6 27h252l-6 -27q-48 -3 -65 -16.5t-25 -54.5l-35 -166q-60 -36 -114.5 -54t-123.5 -18q-131 0 -204.5 72.5t-73.5 198.5q0 79 30.5 159.5t83 145t131.5 105.5t167 41q130 0 213 -59l-31 -146h-27q1 84 -39.5 128
t-115.5 44q-73 0 -134 -40.5t-98.5 -103.5t-58 -135t-20.5 -139q0 -115 46.5 -176.5t130.5 -61.5zM500 760q-25 0 -41.5 17t-16.5 41q0 26 18.5 45t44.5 19q25 0 41.5 -17t16.5 -41q0 -26 -18.5 -45t-44.5 -19z" />
    <glyph glyph-name="gdotaccent" unicode="&#x121;" horiz-adv-x="464" 
d="M430 384q0 -93 -62 -151.5t-152 -58.5q-30 0 -56 8q-41 -26 -41 -47q0 -8 6.5 -14.5t13.5 -9.5t22 -7l151 -48q114 -37 114 -121q0 -75 -73.5 -116t-184.5 -41q-98 0 -169.5 39.5t-71.5 98.5q0 52 43.5 81.5t121.5 49.5q-30 21 -30 52q0 50 80 89q-81 37 -81 132
q0 93 61.5 151.5t151.5 58.5q42 0 77 -16l170 7l-13 -49h-49l-64 9q35 -40 35 -97zM277 -21l-170 59q-97 -37 -97 -112q0 -53 46.5 -86t119.5 -33q86 0 131 26.5t45 68.5q0 30 -17.5 46t-57.5 31zM347 399q0 106 -73 106q-54 0 -92 -58.5t-38 -141.5q0 -106 72 -106
q55 0 93 58.5t38 141.5zM332 611q-25 0 -41.5 17t-16.5 41q0 26 18.5 45t44.5 19q25 0 41.5 -17t16.5 -41q0 -26 -18.5 -45t-44.5 -19z" />
    <glyph glyph-name="Gcommaaccent" unicode="&#x122;" horiz-adv-x="697" 
d="M323 23q93 0 148 42l36 163q9 43 -4.5 53.5t-68.5 17.5l6 27h252l-6 -27q-48 -3 -65 -16.5t-25 -54.5l-35 -166q-60 -36 -114.5 -54t-123.5 -18q-131 0 -204.5 72.5t-73.5 198.5q0 79 30.5 159.5t83 145t131.5 105.5t167 41q130 0 213 -59l-31 -146h-27q1 84 -39.5 128
t-115.5 44q-73 0 -134 -40.5t-98.5 -103.5t-58 -135t-20.5 -139q0 -115 46.5 -176.5t130.5 -61.5zM322 -149h-49q-33 7 -33 39q0 29 19.5 45.5t49.5 16.5q29 0 46 -17.5t17 -47.5q0 -49 -38 -81t-108 -32l5 22q36 0 61 16.5t30 38.5z" />
    <glyph glyph-name="gcommaaccent" unicode="&#x123;" horiz-adv-x="464" 
d="M430 384q0 -93 -62 -151.5t-152 -58.5q-30 0 -56 8q-41 -26 -41 -47q0 -8 6.5 -14.5t13.5 -9.5t22 -7l151 -48q114 -37 114 -121q0 -75 -73.5 -116t-184.5 -41q-98 0 -169.5 39.5t-71.5 98.5q0 52 43.5 81.5t121.5 49.5q-30 21 -30 52q0 50 80 89q-81 37 -81 132
q0 93 61.5 151.5t151.5 58.5q42 0 77 -16l170 7l-13 -49h-49l-64 9q35 -40 35 -97zM277 -21l-170 59q-97 -37 -97 -112q0 -53 46.5 -86t119.5 -33q86 0 131 26.5t45 68.5q0 30 -17.5 46t-57.5 31zM347 399q0 106 -73 106q-54 0 -92 -58.5t-38 -141.5q0 -106 72 -106
q55 0 93 58.5t38 141.5zM316 708h49q33 -7 33 -39q0 -29 -19.5 -45.5t-49.5 -16.5q-29 0 -46 17.5t-17 47.5q0 49 38 81t108 32l-5 -22q-36 0 -61 -16.5t-30 -38.5z" />
    <glyph glyph-name="Hcircumflex" unicode="&#x124;" horiz-adv-x="771" 
d="M83 98l108 506q9 43 -4.5 53.5t-68.5 17.5l6 27h270l-6 -27q-59 -7 -76.5 -18.5t-26.5 -52.5l-48 -224h351l48 224q9 43 -4.5 53.5t-68.5 17.5l6 27h270l-6 -27q-59 -7 -76.5 -18.5t-26.5 -52.5l-108 -506q-9 -43 4.5 -53.5t68.5 -17.5l-6 -27h-270l6 27q59 7 76.5 18.5
t26.5 52.5l53 248h-351l-53 -248q-9 -43 4.5 -53.5t68.5 -17.5l-6 -27h-270l6 27q59 7 76.5 18.5t26.5 52.5zM557 910l73 -159h-24l-95 94l-141 -94h-28l147 159h68z" />
    <glyph glyph-name="hcircumflex" unicode="&#x125;" horiz-adv-x="544" 
d="M292 783l-128 -501q49 91 124.5 169.5t141.5 78.5q35 0 49.5 -18t14.5 -53q0 -18 -6 -44l-79 -299q-9 -34 -9 -44q0 -15 14 -15q29 0 90 75l15 -11q-48 -71 -80 -101t-66 -30q-28 0 -43.5 18.5t-15.5 49.5q0 33 14 86l74 275q5 22 5 33q0 21 -18 21q-53 0 -139 -100.5
t-117 -227.5l-36 -145h-87l175 700l-68 32l3 12l162 39h10zM463 962l73 -159h-24l-95 94l-141 -94h-28l147 159h68z" />
    <glyph glyph-name="Hbar" unicode="&#x126;" horiz-adv-x="781" 
d="M89 500l7 34h85l15 70q9 43 -4.5 53.5t-68.5 17.5l6 27h270l-6 -27q-59 -7 -76.5 -18.5t-26.5 -52.5l-15 -70h351l15 70q9 43 -4.5 53.5t-68.5 17.5l6 27h270l-6 -27q-59 -7 -76.5 -18.5t-26.5 -52.5l-15 -70h91l-7 -34h-91l-86 -402q-9 -43 4.5 -53.5t68.5 -17.5l-6 -27
h-270l6 27q59 7 76.5 18.5t26.5 52.5l53 248h-351l-53 -248q-9 -43 4.5 -53.5t68.5 -17.5l-6 -27h-270l6 27q59 7 76.5 18.5t26.5 52.5l86 402h-85zM242 380h351l25 120h-351z" />
    <glyph glyph-name="hbar" unicode="&#x127;" horiz-adv-x="544" 
d="M380 596h-136l-80 -314q49 91 124.5 169.5t141.5 78.5q35 0 49.5 -18t14.5 -53q0 -18 -6 -44l-79 -299q-9 -34 -9 -44q0 -15 14 -15q29 0 90 75l15 -11q-48 -71 -80 -101t-66 -30q-28 0 -43.5 18.5t-15.5 49.5q0 33 14 86l74 275q5 22 5 33q0 21 -18 21
q-53 0 -139 -100.5t-117 -227.5l-36 -145h-87l149 596h-70l7 32h71l18 72l-68 32l3 12l162 39h10l-40 -155h135z" />
    <glyph glyph-name="Itilde" unicode="&#x128;" horiz-adv-x="326" 
d="M83 98l108 506q9 43 -4.5 53.5t-68.5 17.5l6 27h270l-6 -27q-59 -7 -76.5 -18.5t-26.5 -52.5l-108 -506q-9 -43 4.5 -53.5t68.5 -17.5l-6 -27h-270l6 27q59 7 76.5 18.5t26.5 52.5zM334 754q-26 0 -65.5 28t-61.5 28q-21 0 -37 -12.5t-37 -44.5l-17 10q36 67 59 90t57 23
q26 0 65 -28t61 -28t38.5 13t35.5 44l18 -10q-36 -67 -59 -90t-57 -23z" />
    <glyph glyph-name="itilde" unicode="&#x129;" horiz-adv-x="272" 
d="M258 604q-19 0 -51.5 28t-48.5 28q-20 0 -35.5 -13t-34.5 -44l-16 10q34 67 56 90t54 23q19 0 51 -28t49 -28q37 0 69 57l17 -10q-34 -67 -56 -90t-54 -23zM47 144l76 300l-61 31l3 12l157 43h10l-104 -414q-9 -34 -9 -44q0 -15 14 -15q29 0 90 75l15 -11
q-48 -71 -80 -101t-66 -30q-28 0 -43.5 18.5t-15.5 49.5q0 33 14 86z" />
    <glyph glyph-name="Imacron" unicode="&#x12a;" horiz-adv-x="326" 
d="M83 98l108 506q9 43 -4.5 53.5t-68.5 17.5l6 27h270l-6 -27q-59 -7 -76.5 -18.5t-26.5 -52.5l-108 -506q-9 -43 4.5 -53.5t68.5 -17.5l-6 -27h-270l6 27q59 7 76.5 18.5t26.5 52.5zM139 773l10 49h271l-10 -49h-271z" />
    <glyph glyph-name="imacron" unicode="&#x12b;" horiz-adv-x="272" 
d="M103 623l10 49h211l-10 -49h-211zM47 144l76 300l-61 31l3 12l157 43h10l-104 -414q-9 -34 -9 -44q0 -15 14 -15q29 0 90 75l15 -11q-48 -71 -80 -101t-66 -30q-28 0 -43.5 18.5t-15.5 49.5q0 33 14 86z" />
    <glyph glyph-name="Ibreve" unicode="&#x12c;" horiz-adv-x="326" 
d="M83 98l108 506q9 43 -4.5 53.5t-68.5 17.5l6 27h270l-6 -27q-59 -7 -76.5 -18.5t-26.5 -52.5l-108 -506q-9 -43 4.5 -53.5t68.5 -17.5l-6 -27h-270l6 27q59 7 76.5 18.5t26.5 52.5zM278 748q-60 0 -88.5 40t-11.5 117h29q-13 -94 82 -94q96 0 122 94h29
q-34 -157 -162 -157z" />
    <glyph glyph-name="ibreve" unicode="&#x12d;" horiz-adv-x="272" 
d="M47 144l76 300l-61 31l3 12l157 43h10l-104 -414q-9 -34 -9 -44q0 -15 14 -15q29 0 90 75l15 -11q-48 -71 -80 -101t-66 -30q-28 0 -43.5 18.5t-15.5 49.5q0 33 14 86zM202 596q-59 0 -85.5 40.5t-9.5 118.5h29q-13 -96 77 -96t117 96h29q-34 -159 -157 -159z" />
    <glyph glyph-name="Iogonek" unicode="&#x12e;" horiz-adv-x="326" 
d="M83 98l108 506q9 43 -4.5 53.5t-68.5 17.5l6 27h270l-6 -27q-59 -7 -76.5 -18.5t-26.5 -52.5l-108 -506q-9 -43 4.5 -53.5t68.5 -17.5l-6 -27h-80q-119 -56 -119 -119q0 -21 13.5 -33t35.5 -12q46 0 99 47l8 -10q-22 -24 -38 -38.5t-45.5 -29.5t-60.5 -15q-35 0 -57 18
t-22 50q0 47 40.5 80t111.5 62h-156l6 27q59 7 76.5 18.5t26.5 52.5z" />
    <glyph glyph-name="iogonek" unicode="&#x12f;" horiz-adv-x="272" 
d="M220 611q-25 0 -41.5 17t-16.5 41q0 26 18.5 45t44.5 19q25 0 41.5 -17t16.5 -41q0 -26 -18.5 -45t-44.5 -19zM33 58q0 33 14 86l76 300l-61 31l3 12l157 43h10l-104 -414q-9 -34 -9 -44q0 -15 14 -15q29 0 90 75l15 -11q-32 -45 -74 -85.5t-70 -62t-48.5 -46.5
t-20.5 -49q0 -42 49 -42q46 0 99 47l8 -10q-22 -24 -38 -38.5t-45.5 -29.5t-60.5 -15q-35 0 -56.5 18t-21.5 50q0 29 22.5 56.5t45 42.5t60.5 35q-54 5 -54 66z" />
    <glyph glyph-name="Idotaccent" unicode="&#x130;" horiz-adv-x="326" 
d="M83 98l108 506q9 43 -4.5 53.5t-68.5 17.5l6 27h270l-6 -27q-59 -7 -76.5 -18.5t-26.5 -52.5l-108 -506q-9 -43 4.5 -53.5t68.5 -17.5l-6 -27h-270l6 27q59 7 76.5 18.5t26.5 52.5zM282 760q-25 0 -41.5 17t-16.5 41q0 26 18.5 45t44.5 19q25 0 41.5 -17t16.5 -41
q0 -26 -18.5 -45t-44.5 -19z" />
    <glyph glyph-name="dotlessi" unicode="&#x131;" horiz-adv-x="272" 
d="M47 144l76 300l-61 31l3 12l157 43h10l-104 -414q-9 -34 -9 -44q0 -15 14 -15q29 0 90 75l15 -11q-48 -71 -80 -101t-66 -30q-28 0 -43.5 18.5t-15.5 49.5q0 33 14 86z" />
    <glyph glyph-name="IJ" unicode="&#x132;" horiz-adv-x="787" 
d="M84 98l108 506q9 43 -4.5 53.5t-68.5 17.5l6 27h270l-6 -27q-59 -7 -76.5 -18.5t-26.5 -52.5l-108 -506q-9 -43 4.5 -53.5t68.5 -17.5l-6 -27h-270l6 27q59 7 76.5 18.5t26.5 52.5zM569 167l93 437q9 43 -4.5 53.5t-68.5 17.5l6 27h270l-6 -27q-59 -7 -76.5 -18.5
t-26.5 -52.5l-89 -417q-22 -103 -82 -150t-156 -47q-72 0 -114.5 29t-42.5 78q0 50 43 83h69q-20 -43 -20 -78q0 -39 19.5 -61.5t56.5 -22.5q49 0 80.5 34.5t48.5 114.5z" />
    <glyph glyph-name="ij" unicode="&#x133;" horiz-adv-x="469" 
d="M220 611q-25 0 -41.5 17t-16.5 41q0 26 18.5 45t44.5 19q25 0 41.5 -17t16.5 -41q0 -26 -18.5 -45t-44.5 -19zM47 144l76 300l-61 31l3 12l157 43h10l-104 -414q-9 -34 -9 -44q0 -15 14 -15q29 0 90 75l15 -11q-48 -71 -80 -101t-66 -30q-28 0 -43.5 18.5t-15.5 49.5
q0 33 14 86zM463 530l-88 -392q-42 -187 -99.5 -266t-142.5 -79q-38 0 -62.5 17t-24.5 46q0 45 55 58h9q4 -42 20 -67t39 -25q27 0 44.5 34t40.5 137l102 451l-61 31l3 12l155 43h10zM442 611q-25 0 -41.5 17t-16.5 41q0 26 18.5 45t44.5 19q25 0 41.5 -17t16.5 -41
q0 -26 -18.5 -45t-44.5 -19z" />
    <glyph glyph-name="Jcircumflex" unicode="&#x134;" horiz-adv-x="490" 
d="M272 167l93 437q9 43 -4.5 53.5t-68.5 17.5l6 27h270l-6 -27q-59 -7 -76.5 -18.5t-26.5 -52.5l-89 -417q-22 -103 -82 -150t-156 -47q-72 0 -114.5 29t-42.5 78q0 50 43 83h69q-20 -43 -20 -78q0 -39 19.5 -61.5t56.5 -22.5q49 0 80.5 34.5t48.5 114.5zM506 910l73 -159
h-24l-95 94l-141 -94h-28l147 159h68z" />
    <glyph glyph-name="jcircumflex" unicode="&#x135;" horiz-adv-x="240" 
d="M234 530l-88 -392q-42 -187 -99.5 -266t-142.5 -79q-38 0 -62.5 17t-24.5 46q0 45 55 58h9q4 -42 20 -67t39 -25q27 0 44.5 34t40.5 137l102 451l-61 31l3 12l155 43h10zM270 765l73 -173h-24l-95 108l-141 -108h-28l147 173h68z" />
    <glyph glyph-name="Kcommaaccent" unicode="&#x136;" horiz-adv-x="661" 
d="M334 379l164 -282q25 -40 48 -54.5t66 -15.5l-6 -27h-146q-23 21 -64 86l-152 262l306 265q30 25 30 39q0 12 -13.5 16.5t-56.5 6.5l5 27h215l-5 -27q-32 -1 -55 -12.5t-55 -38.5zM285 604l-108 -506q-9 -43 4.5 -53.5t68.5 -17.5l-6 -27h-270l6 27q59 7 76.5 18.5
t26.5 52.5l108 506q9 43 -4.5 53.5t-68.5 17.5l5 27h271l-6 -27q-59 -7 -76.5 -18.5t-26.5 -52.5zM289 -149h-49q-33 7 -33 39q0 29 19.5 45.5t49.5 16.5q29 0 46 -17.5t17 -47.5q0 -49 -38 -81t-108 -32l5 22q36 0 61 16.5t30 38.5z" />
    <glyph glyph-name="kcommaaccent" unicode="&#x137;" horiz-adv-x="503" 
d="M258 325l82 -214q2 -5 5 -13l4.5 -12t4.5 -10.5t4.5 -10t4 -7.5t5 -6.5t5.5 -4.5t6.5 -3t7.5 -1q16 0 32.5 16t47.5 55l15 -11q-37 -61 -65 -87t-64 -26q-37 0 -59 26t-40 80l-66 191l170 186q53 57 94 57q30 0 45.5 -17t15.5 -41q0 -45 -56 -68h-7q0 21 -9.5 37
t-30.5 16q-31 0 -74 -46zM98 0h-88l176 700l-68 32l3 12l162 39h10zM173 -149h-49q-33 7 -33 39q0 29 19.5 45.5t49.5 16.5q29 0 46 -17.5t17 -47.5q0 -49 -38 -81t-108 -32l5 22q36 0 61 16.5t30 38.5z" />
    <glyph glyph-name="kgreenlandic" unicode="&#x138;" horiz-adv-x="514" 
d="M269 325l82 -214q2 -5 5 -13l4.5 -12t4.5 -10.5t4.5 -10t4 -7.5t5 -6.5t5.5 -4.5t6.5 -3t7.5 -1q16 0 32.5 16t47.5 55l15 -11q-37 -61 -65 -87t-64 -26q-37 0 -59 26t-40 80l-66 191l170 186q53 57 94 57q30 0 45.5 -17t15.5 -41q0 -45 -56 -68h-7q0 21 -9.5 37
t-30.5 16q-31 0 -74 -46zM108 0h-87l111 444l-61 31l3 12l157 43h10z" />
    <glyph glyph-name="Lacute" unicode="&#x139;" horiz-adv-x="582" 
d="M285 604l-107 -503q-9 -39 10.5 -53.5t73.5 -14.5h59q58 0 99 35.5t107 126.5h25l-73 -195h-505l6 27q59 7 76.5 18.5t26.5 52.5l108 506q9 43 -4.5 53.5t-68.5 17.5l6 27h270l-6 -27q-59 -7 -76.5 -18.5t-26.5 -52.5zM328 900h112l-1 -5l-160 -144h-17z" />
    <glyph glyph-name="lacute" unicode="&#x13a;" horiz-adv-x="266" 
d="M286 783l-164 -667q-9 -34 -9 -44q0 -15 14 -15q29 0 90 75l15 -11q-48 -71 -80 -101t-66 -30q-28 0 -43.5 18.5t-15.5 49.5q0 33 14 86l138 556l-68 32l3 12l162 39h10zM290 944h112l-1 -5l-160 -144h-17z" />
    <glyph glyph-name="Lcommaaccent" unicode="&#x13b;" horiz-adv-x="582" 
d="M285 604l-107 -503q-9 -39 10.5 -53.5t73.5 -14.5h59q58 0 99 35.5t107 126.5h25l-73 -195h-505l6 27q59 7 76.5 18.5t26.5 52.5l108 506q9 43 -4.5 53.5t-68.5 17.5l6 27h270l-6 -27q-59 -7 -76.5 -18.5t-26.5 -52.5zM250 -149h-49q-33 7 -33 39q0 29 19.5 45.5
t49.5 16.5q29 0 46 -17.5t17 -47.5q0 -49 -38 -81t-108 -32l5 22q36 0 61 16.5t30 38.5z" />
    <glyph glyph-name="lcommaaccent" unicode="&#x13c;" horiz-adv-x="266" 
d="M286 783l-164 -667q-9 -34 -9 -44q0 -15 14 -15q29 0 90 75l15 -11q-48 -71 -80 -101t-66 -30q-28 0 -43.5 18.5t-15.5 49.5q0 33 14 86l138 556l-68 32l3 12l162 39h10zM68 -149h-49q-33 7 -33 39q0 29 19.5 45.5t49.5 16.5q29 0 46 -17.5t17 -47.5q0 -49 -38 -81
t-108 -32l5 22q36 0 61 16.5t30 38.5z" />
    <glyph glyph-name="Lcaron" unicode="&#x13d;" horiz-adv-x="582" 
d="M285 604l-107 -503q-9 -39 10.5 -53.5t73.5 -14.5h59q58 0 99 35.5t107 126.5h25l-73 -195h-505l6 27q59 7 76.5 18.5t26.5 52.5l108 506q9 43 -4.5 53.5t-68.5 17.5l6 27h270l-6 -27q-59 -7 -76.5 -18.5t-26.5 -52.5zM580 697l-147 -200h-11l64 205h95z" />
    <glyph glyph-name="lcaron" unicode="&#x13e;" horiz-adv-x="266" 
d="M286 783l-164 -667q-9 -34 -9 -44q0 -15 14 -15q29 0 90 75l15 -11q-48 -71 -80 -101t-66 -30q-28 0 -43.5 18.5t-15.5 49.5q0 33 14 86l138 556l-68 32l3 12l162 39h10zM443 778l-147 -200h-11l64 205h95z" />
    <glyph glyph-name="Ldot" unicode="&#x13f;" horiz-adv-x="582" 
d="M285 604l-107 -503q-9 -39 10.5 -53.5t73.5 -14.5h59q58 0 99 35.5t107 126.5h25l-73 -195h-505l6 27q59 7 76.5 18.5t26.5 52.5l108 506q9 43 -4.5 53.5t-68.5 17.5l6 27h270l-6 -27q-59 -7 -76.5 -18.5t-26.5 -52.5zM476 310q-25 0 -41.5 17t-16.5 41q0 26 18.5 45
t44.5 19q25 0 41.5 -17t16.5 -41q0 -26 -18.5 -45t-44.5 -19z" />
    <glyph glyph-name="ldot" unicode="&#x140;" horiz-adv-x="303" 
d="M286 783l-164 -667q-9 -34 -9 -44q0 -15 14 -15q29 0 90 75l15 -11q-48 -71 -80 -101t-66 -30q-28 0 -43.5 18.5t-15.5 49.5q0 33 14 86l138 556l-68 32l3 12l162 39h10zM290 325q-25 0 -41.5 17t-16.5 41q0 26 18.5 45t44.5 19q25 0 41.5 -17t16.5 -41q0 -26 -18.5 -45
t-44.5 -19z" />
    <glyph glyph-name="Lslash" unicode="&#x141;" horiz-adv-x="582" 
d="M373 398l-146 -67l-49 -230q-9 -39 10.5 -53.5t73.5 -14.5h59q58 0 99 35.5t107 126.5h25l-73 -195h-505l6 27q59 7 76.5 18.5t26.5 52.5l41 194l-96 -44l9 40l96 44l58 272q9 43 -4.5 53.5t-68.5 17.5l6 27h270l-6 -27q-59 -7 -76.5 -18.5t-26.5 -52.5l-50 -233l147 67z
" />
    <glyph glyph-name="lslash" unicode="&#x142;" horiz-adv-x="281" 
d="M300 464l-98 -56l-72 -292q-9 -34 -9 -44q0 -15 14 -15q29 0 90 75l15 -11q-48 -71 -80 -101t-66 -30q-28 0 -43.5 18.5t-15.5 49.5q0 33 14 86l55 223l-78 -44l11 43l78 44l72 290l-68 32l3 12l162 39h10l-82 -333l99 57z" />
    <glyph glyph-name="Nacute" unicode="&#x143;" horiz-adv-x="729" 
d="M561 146l95 458q8 40 -12.5 54t-81.5 17l6 27h237l-6 -27q-59 -7 -76.5 -18.5t-26.5 -52.5l-129 -608h-25l-318 581l-101 -479q-8 -40 12.5 -54t81.5 -17l-6 -27h-237l6 27q59 7 76.5 18.5t26.5 52.5l110 516q-20 37 -35.5 48.5t-51.5 12.5l6 27h151zM502 900h112l-1 -5
l-160 -144h-17z" />
    <glyph glyph-name="nacute" unicode="&#x144;" horiz-adv-x="555" 
d="M241 530l-66 -248q49 91 124.5 169.5t141.5 78.5q35 0 49.5 -18t14.5 -53q0 -18 -6 -44l-79 -299q-9 -34 -9 -44q0 -15 14 -15q29 0 90 75l15 -11q-48 -71 -80 -101t-66 -30q-28 0 -43.5 18.5t-15.5 49.5q0 33 14 86l74 275q5 22 5 33q0 21 -18 21q-53 0 -139 -100.5
t-117 -227.5l-36 -145h-87l111 444l-61 31l3 12l157 43h10zM437 761h106l-1 -5l-178 -164h-17z" />
    <glyph glyph-name="Ncommaaccent" unicode="&#x145;" horiz-adv-x="729" 
d="M561 146l95 458q8 40 -12.5 54t-81.5 17l6 27h237l-6 -27q-59 -7 -76.5 -18.5t-26.5 -52.5l-129 -608h-25l-318 581l-101 -479q-8 -40 12.5 -54t81.5 -17l-6 -27h-237l6 27q59 7 76.5 18.5t26.5 52.5l110 516q-20 37 -35.5 48.5t-51.5 12.5l6 27h151zM323 -149h-49
q-33 7 -33 39q0 29 19.5 45.5t49.5 16.5q29 0 46 -17.5t17 -47.5q0 -49 -38 -81t-108 -32l5 22q36 0 61 16.5t30 38.5z" />
    <glyph glyph-name="ncommaaccent" unicode="&#x146;" horiz-adv-x="555" 
d="M241 530l-66 -248q49 91 124.5 169.5t141.5 78.5q35 0 49.5 -18t14.5 -53q0 -18 -6 -44l-79 -299q-9 -34 -9 -44q0 -15 14 -15q29 0 90 75l15 -11q-48 -71 -80 -101t-66 -30q-28 0 -43.5 18.5t-15.5 49.5q0 33 14 86l74 275q5 22 5 33q0 21 -18 21q-53 0 -139 -100.5
t-117 -227.5l-36 -145h-87l111 444l-61 31l3 12l157 43h10zM224 -149h-49q-33 7 -33 39q0 29 19.5 45.5t49.5 16.5q29 0 46 -17.5t17 -47.5q0 -49 -38 -81t-108 -32l5 22q36 0 61 16.5t30 38.5z" />
    <glyph glyph-name="Ncaron" unicode="&#x147;" horiz-adv-x="729" 
d="M561 146l95 458q8 40 -12.5 54t-81.5 17l6 27h237l-6 -27q-59 -7 -76.5 -18.5t-26.5 -52.5l-129 -608h-25l-318 581l-101 -479q-8 -40 12.5 -54t81.5 -17l-6 -27h-237l6 27q59 7 76.5 18.5t26.5 52.5l110 516q-20 37 -35.5 48.5t-51.5 12.5l6 27h151zM432 751l-73 159h24
l95 -94l141 94h28l-147 -159h-68z" />
    <glyph glyph-name="ncaron" unicode="&#x148;" horiz-adv-x="555" 
d="M241 530l-66 -248q49 91 124.5 169.5t141.5 78.5q35 0 49.5 -18t14.5 -53q0 -18 -6 -44l-79 -299q-9 -34 -9 -44q0 -15 14 -15q29 0 90 75l15 -11q-48 -71 -80 -101t-66 -30q-28 0 -43.5 18.5t-15.5 49.5q0 33 14 86l74 275q5 22 5 33q0 21 -18 21q-53 0 -139 -100.5
t-117 -227.5l-36 -145h-87l111 444l-61 31l3 12l157 43h10zM323 593l-73 173h24l95 -108l141 108h28l-147 -173h-68z" />
    <glyph glyph-name="Eng" unicode="&#x14a;" horiz-adv-x="729" 
d="M506 62l-282 515l-101 -479q-8 -40 12.5 -54t81.5 -17l-6 -27h-237l6 27q59 7 76.5 18.5t26.5 52.5l110 516q-20 37 -35.5 48.5t-51.5 12.5l6 27h151l298 -556l95 458q8 40 -12.5 54t-81.5 17l6 27h237l-6 -27q-59 -7 -76.5 -18.5t-26.5 -52.5l-110 -520
q-23 -108 -59 -159.5t-137 -124.5l-13 11l28 33q75 87 101 218z" />
    <glyph glyph-name="eng" unicode="&#x14b;" horiz-adv-x="527" 
d="M499 415l-74 -278q-50 -188 -107 -266t-140 -78q-38 0 -62.5 17t-24.5 46q0 45 55 58h9q4 -42 20 -67t39 -25q26 0 41.5 32t43.5 139l114 426q5 22 5 33q0 21 -18 21q-53 0 -139 -100.5t-117 -227.5l-36 -145h-87l111 444l-61 31l3 12l157 43h10l-66 -248
q49 91 124.5 169.5t141.5 78.5q35 0 49.5 -18t14.5 -53q0 -18 -6 -44z" />
    <glyph glyph-name="Omacron" unicode="&#x14c;" horiz-adv-x="696" 
d="M428 712q126 0 193 -77.5t67 -194.5q0 -62 -17 -126t-51 -121.5t-79.5 -103t-107 -72.5t-128.5 -27q-126 0 -193 77.5t-67 194.5q0 62 17 126t51 121.5t79.5 103t107 72.5t128.5 27zM428 679q-85 0 -151.5 -68t-98.5 -161.5t-32 -187.5q0 -107 39 -173t120 -66
q85 0 151.5 68t98.5 161.5t32 187.5q0 107 -39 173t-120 66zM329 773l10 49h271l-10 -49h-271z" />
    <glyph glyph-name="omacron" unicode="&#x14d;" horiz-adv-x="480" 
d="M190 18q48 0 91 55.5t66 133t23 148.5q0 147 -80 147q-48 0 -91 -55.5t-66 -133t-23 -148.5q0 -147 80 -147zM180 -10q-75 0 -116.5 48.5t-41.5 135.5q0 60 21.5 123t57.5 114.5t88.5 85t110.5 33.5q75 0 116.5 -48.5t41.5 -135.5q0 -60 -21.5 -123t-57.5 -114.5
t-88.5 -85t-110.5 -33.5zM198 623l10 49h251l-10 -49h-251z" />
    <glyph glyph-name="Obreve" unicode="&#x14e;" horiz-adv-x="696" 
d="M428 712q126 0 193 -77.5t67 -194.5q0 -62 -17 -126t-51 -121.5t-79.5 -103t-107 -72.5t-128.5 -27q-126 0 -193 77.5t-67 194.5q0 62 17 126t51 121.5t79.5 103t107 72.5t128.5 27zM428 679q-85 0 -151.5 -68t-98.5 -161.5t-32 -187.5q0 -107 39 -173t120 -66
q85 0 151.5 68t98.5 161.5t32 187.5q0 107 -39 173t-120 66zM468 748q-60 0 -88.5 40t-11.5 117h29q-13 -94 82 -94q96 0 122 94h29q-34 -157 -162 -157z" />
    <glyph glyph-name="obreve" unicode="&#x14f;" horiz-adv-x="480" 
d="M190 18q48 0 91 55.5t66 133t23 148.5q0 147 -80 147q-48 0 -91 -55.5t-66 -133t-23 -148.5q0 -147 80 -147zM180 -10q-75 0 -116.5 48.5t-41.5 135.5q0 60 21.5 123t57.5 114.5t88.5 85t110.5 33.5q75 0 116.5 -48.5t41.5 -135.5q0 -60 -21.5 -123t-57.5 -114.5
t-88.5 -85t-110.5 -33.5zM320 596q-59 0 -85.5 40.5t-9.5 118.5h29q-13 -96 77 -96t117 96h29q-34 -159 -157 -159z" />
    <glyph glyph-name="Ohungarumlaut" unicode="&#x150;" horiz-adv-x="696" 
d="M428 712q126 0 193 -77.5t67 -194.5q0 -62 -17 -126t-51 -121.5t-79.5 -103t-107 -72.5t-128.5 -27q-126 0 -193 77.5t-67 194.5q0 62 17 126t51 121.5t79.5 103t107 72.5t128.5 27zM428 679q-85 0 -151.5 -68t-98.5 -161.5t-32 -187.5q0 -107 39 -173t120 -66
q85 0 151.5 68t98.5 161.5t32 187.5q0 107 -39 173t-120 66zM451 900h105l-1 -5l-170 -144h-19zM594 900h105l-1 -5l-170 -144h-19z" />
    <glyph glyph-name="ohungarumlaut" unicode="&#x151;" horiz-adv-x="480" 
d="M190 18q48 0 91 55.5t66 133t23 148.5q0 147 -80 147q-48 0 -91 -55.5t-66 -133t-23 -148.5q0 -147 80 -147zM180 -10q-75 0 -116.5 48.5t-41.5 135.5q0 60 21.5 123t57.5 114.5t88.5 85t110.5 33.5q75 0 116.5 -48.5t41.5 -135.5q0 -60 -21.5 -123t-57.5 -114.5
t-88.5 -85t-110.5 -33.5zM325 761h97l-1 -5l-190 -164h-19zM468 761h97l-1 -5l-190 -164h-19z" />
    <glyph glyph-name="OE" unicode="&#x152;" horiz-adv-x="960" 
d="M373 33h52l136 636h-92q-140 0 -231.5 -106.5t-91.5 -280.5q0 -119 56 -184t171 -65zM855 0h-495q-147 0 -231 76t-84 206q0 190 124 305t311 115h512l-31 -167h-20q-16 80 -40.5 107t-76.5 27h-169l-62 -290h149q31 0 51 21.5t39 68.5h27l-45 -213h-27q2 47 -9.5 68.5
t-42.5 21.5h-149l-52 -245q-9 -39 10.5 -53.5t73.5 -14.5h82q51 0 91 31.5t108 115.5h24z" />
    <glyph glyph-name="oe" unicode="&#x153;" horiz-adv-x="746" 
d="M501 -10q-51 0 -87 26.5t-53 71.5q-79 -98 -181 -98q-75 0 -116.5 48.5t-41.5 135.5q0 60 21.5 123t57.5 114.5t88.5 85t110.5 33.5q104 0 142 -103q86 103 187 103q57 0 87 -27.5t30 -69.5q0 -37 -18.5 -67.5t-46 -50.5t-72.5 -37.5t-83 -27.5t-93 -22q-2 -28 -2 -42
q0 -68 27.5 -106t76.5 -38q78 0 155 100l18 -13q-95 -139 -207 -139zM190 18q48 0 91 55.5t66 133t23 148.5q0 147 -80 147q-48 0 -91 -55.5t-66 -133t-23 -148.5q0 -147 80 -147zM611 499q-62 0 -111 -75t-64 -175q118 27 173.5 71t55.5 118q0 26 -13.5 43.5t-40.5 17.5z
" />
    <glyph glyph-name="Racute" unicode="&#x154;" horiz-adv-x="674" 
d="M363 669h-64l-70 -329h55q101 0 160.5 51t59.5 144q0 61 -34.5 97.5t-106.5 36.5zM222 306l-45 -208q-9 -43 4.5 -53.5t68.5 -17.5l-6 -27h-270l6 27q59 7 76.5 18.5t26.5 52.5l108 506q9 43 -4.5 53.5t-68.5 17.5l6 27h268q111 0 162 -46.5t51 -118.5q0 -40 -15.5 -74.5
t-39 -58t-54 -41.5t-57.5 -27.5t-53 -14.5l119 -210q27 -46 52.5 -64.5t66.5 -19.5l-5 -27h-143q-29 23 -65 89l-116 217h-73zM440 900h112l-1 -5l-160 -144h-17z" />
    <glyph glyph-name="racute" unicode="&#x155;" horiz-adv-x="388" 
d="M241 530l-50 -187l-41 -123q75 156 128 233t101 77q24 0 37.5 -15.5t13.5 -38.5q0 -52 -63 -82h-8q0 41 -28 41q-45 0 -114 -125t-109 -310h-87l111 444l-61 31l3 12l157 43h10zM376 761h106l-1 -5l-178 -164h-17z" />
    <glyph glyph-name="Rcommaaccent" unicode="&#x156;" horiz-adv-x="674" 
d="M363 669h-64l-70 -329h55q101 0 160.5 51t59.5 144q0 61 -34.5 97.5t-106.5 36.5zM222 306l-45 -208q-9 -43 4.5 -53.5t68.5 -17.5l-6 -27h-270l6 27q59 7 76.5 18.5t26.5 52.5l108 506q9 43 -4.5 53.5t-68.5 17.5l6 27h268q111 0 162 -46.5t51 -118.5q0 -40 -15.5 -74.5
t-39 -58t-54 -41.5t-57.5 -27.5t-53 -14.5l119 -210q27 -46 52.5 -64.5t66.5 -19.5l-5 -27h-143q-29 23 -65 89l-116 217h-73zM295 -149h-49q-33 7 -33 39q0 29 19.5 45.5t49.5 16.5q29 0 46 -17.5t17 -47.5q0 -49 -38 -81t-108 -32l5 22q36 0 61 16.5t30 38.5z" />
    <glyph glyph-name="rcommaaccent" unicode="&#x157;" horiz-adv-x="388" 
d="M241 530l-50 -187l-41 -123q75 156 128 233t101 77q24 0 37.5 -15.5t13.5 -38.5q0 -52 -63 -82h-8q0 41 -28 41q-45 0 -114 -125t-109 -310h-87l111 444l-61 31l3 12l157 43h10zM61 -149h-49q-33 7 -33 39q0 29 19.5 45.5t49.5 16.5q29 0 46 -17.5t17 -47.5
q0 -49 -38 -81t-108 -32l5 22q36 0 61 16.5t30 38.5z" />
    <glyph glyph-name="Rcaron" unicode="&#x158;" horiz-adv-x="674" 
d="M363 669h-64l-70 -329h55q101 0 160.5 51t59.5 144q0 61 -34.5 97.5t-106.5 36.5zM222 306l-45 -208q-9 -43 4.5 -53.5t68.5 -17.5l-6 -27h-270l6 27q59 7 76.5 18.5t26.5 52.5l108 506q9 43 -4.5 53.5t-68.5 17.5l6 27h268q111 0 162 -46.5t51 -118.5q0 -40 -15.5 -74.5
t-39 -58t-54 -41.5t-57.5 -27.5t-53 -14.5l119 -210q27 -46 52.5 -64.5t66.5 -19.5l-5 -27h-143q-29 23 -65 89l-116 217h-73zM352 751l-73 159h24l95 -94l141 94h28l-147 -159h-68z" />
    <glyph glyph-name="rcaron" unicode="&#x159;" horiz-adv-x="388" 
d="M241 530l-50 -187l-41 -123q75 156 128 233t101 77q24 0 37.5 -15.5t13.5 -38.5q0 -52 -63 -82h-8q0 41 -28 41q-45 0 -114 -125t-109 -310h-87l111 444l-61 31l3 12l157 43h10zM262 593l-73 173h24l95 -108l141 108h28l-147 -173h-68z" />
    <glyph glyph-name="Sacute" unicode="&#x15a;" horiz-adv-x="529" 
d="M479 208q0 -99 -75.5 -158.5t-178.5 -59.5q-72 0 -128.5 21.5t-86.5 50.5l26 167h26q9 -207 169 -207q71 0 113.5 39.5t42.5 107.5q0 55 -29.5 87.5t-108.5 70.5q-70 34 -104.5 77t-34.5 103q0 90 65 147.5t172 57.5q111 0 187 -59l-28 -147h-25q-1 89 -33.5 131.5
t-106.5 42.5q-66 0 -105 -40t-39 -102q0 -47 25.5 -76.5t85.5 -57.5q82 -38 126.5 -84t44.5 -112zM423 900h112l-1 -5l-160 -144h-17z" />
    <glyph glyph-name="sacute" unicode="&#x15b;" horiz-adv-x="373" 
d="M176 27q80 0 80 77q0 25 -28.5 59.5t-62 65.5t-62 73t-28.5 80q0 62 47.5 105t118.5 43q57 0 89.5 -23t32.5 -62q0 -35 -44 -55h-4q-39 102 -115 102q-33 0 -51 -19t-18 -51q0 -18 19 -43.5t46 -52t54 -55t46 -61.5t19 -62q0 -71 -50.5 -114.5t-121.5 -43.5
q-66 0 -107 30.5t-41 75.5q0 47 43 67h5q16 -62 50 -99t83 -37zM340 761h106l-1 -5l-178 -164h-17z" />
    <glyph glyph-name="Scircumflex" unicode="&#x15c;" horiz-adv-x="529" 
d="M479 208q0 -99 -75.5 -158.5t-178.5 -59.5q-72 0 -128.5 21.5t-86.5 50.5l26 167h26q9 -207 169 -207q71 0 113.5 39.5t42.5 107.5q0 55 -29.5 87.5t-108.5 70.5q-70 34 -104.5 77t-34.5 103q0 90 65 147.5t172 57.5q111 0 187 -59l-28 -147h-25q-1 89 -33.5 131.5
t-106.5 42.5q-66 0 -105 -40t-39 -102q0 -47 25.5 -76.5t85.5 -57.5q82 -38 126.5 -84t44.5 -112zM433 910l73 -159h-24l-95 94l-141 -94h-28l147 159h68z" />
    <glyph glyph-name="scircumflex" unicode="&#x15d;" horiz-adv-x="373" 
d="M176 27q80 0 80 77q0 25 -28.5 59.5t-62 65.5t-62 73t-28.5 80q0 62 47.5 105t118.5 43q57 0 89.5 -23t32.5 -62q0 -35 -44 -55h-4q-39 102 -115 102q-33 0 -51 -19t-18 -51q0 -18 19 -43.5t46 -52t54 -55t46 -61.5t19 -62q0 -71 -50.5 -114.5t-121.5 -43.5
q-66 0 -107 30.5t-41 75.5q0 47 43 67h5q16 -62 50 -99t83 -37zM342 765l73 -173h-24l-95 108l-141 -108h-28l147 173h68z" />
    <glyph glyph-name="Scedilla" unicode="&#x15e;" horiz-adv-x="529" 
d="M98 -221l-6 26q60 0 93.5 15.5t33.5 40.5q0 39 -89 42l49 90q-108 12 -169 69l26 167h26q9 -207 169 -207q71 0 113.5 39.5t42.5 107.5q0 55 -29.5 87.5t-108.5 70.5q-70 34 -104.5 77t-34.5 103q0 90 65 147.5t172 57.5q111 0 187 -59l-28 -147h-25q-1 89 -33.5 131.5
t-106.5 42.5q-66 0 -105 -40t-39 -102q0 -47 25.5 -76.5t85.5 -57.5q82 -38 126.5 -84t44.5 -112q0 -99 -75.5 -158.5t-178.5 -59.5q-15 0 -22 1l-20 -39q43 -1 69.5 -18.5t26.5 -50.5q0 -51 -49.5 -77.5t-131.5 -26.5z" />
    <glyph glyph-name="scedilla" unicode="&#x15f;" horiz-adv-x="373" 
d="M12 -221l-6 26q60 0 93.5 15.5t33.5 40.5q0 39 -89 42l51 92q-46 10 -73 37.5t-27 63.5q0 47 43 67h5q16 -62 50 -99t83 -37q80 0 80 77q0 25 -28.5 59.5t-62 65.5t-62 73t-28.5 80q0 62 47.5 105t118.5 43q57 0 89.5 -23t32.5 -62q0 -35 -44 -55h-4q-39 102 -115 102
q-33 0 -51 -19t-18 -51q0 -18 19 -43.5t46 -52t54 -55t46 -61.5t19 -62q0 -71 -50.5 -114.5t-121.5 -43.5q-9 0 -25 2l-21 -40q43 -1 69.5 -18.5t26.5 -50.5q0 -51 -49.5 -77.5t-131.5 -26.5z" />
    <glyph glyph-name="Scaron" unicode="&#x160;" horiz-adv-x="529" 
d="M479 208q0 -99 -75.5 -158.5t-178.5 -59.5q-72 0 -128.5 21.5t-86.5 50.5l26 167h26q9 -207 169 -207q71 0 113.5 39.5t42.5 107.5q0 55 -29.5 87.5t-108.5 70.5q-70 34 -104.5 77t-34.5 103q0 90 65 147.5t172 57.5q111 0 187 -59l-28 -147h-25q-1 89 -33.5 131.5
t-106.5 42.5q-66 0 -105 -40t-39 -102q0 -47 25.5 -76.5t85.5 -57.5q82 -38 126.5 -84t44.5 -112zM335 751l-73 159h24l95 -94l141 94h28l-147 -159h-68z" />
    <glyph glyph-name="scaron" unicode="&#x161;" horiz-adv-x="373" 
d="M176 27q80 0 80 77q0 25 -28.5 59.5t-62 65.5t-62 73t-28.5 80q0 62 47.5 105t118.5 43q57 0 89.5 -23t32.5 -62q0 -35 -44 -55h-4q-39 102 -115 102q-33 0 -51 -19t-18 -51q0 -18 19 -43.5t46 -52t54 -55t46 -61.5t19 -62q0 -71 -50.5 -114.5t-121.5 -43.5
q-66 0 -107 30.5t-41 75.5q0 47 43 67h5q16 -62 50 -99t83 -37zM232 593l-73 173h24l95 -108l141 108h28l-147 -173h-68z" />
    <glyph glyph-name="Tcedilla" unicode="&#x162;" horiz-adv-x="641" 
d="M457 671l-121 -571q-9 -43 7.5 -55t75.5 -18l-6 -27h-290l6 27q64 7 84 19t29 54l121 571h-72q-63 0 -99 -33.5t-105 -144.5h-22l60 209h583l-30 -209h-22q-17 113 -35.5 145.5t-80.5 32.5h-83zM264 -149h-49q-33 7 -33 39q0 29 19.5 45.5t49.5 16.5q29 0 46 -17.5
t17 -47.5q0 -49 -38 -81t-108 -32l5 22q36 0 61 16.5t30 38.5z" />
    <glyph glyph-name="tcedilla" unicode="&#x163;" horiz-adv-x="311" 
d="M216 471l-86 -341q-8 -34 -8 -50q0 -26 25 -26q27 0 52.5 19.5t70.5 70.5l15 -12q-53 -73 -95.5 -107.5t-83.5 -34.5q-33 0 -52 20t-19 54q0 33 11 76l83 331h-66l5 19q50 17 87.5 51t79.5 92h21l-31 -124h113l-10 -38h-112zM88 -149h-49q-33 7 -33 39q0 29 19.5 45.5
t49.5 16.5q29 0 46 -17.5t17 -47.5q0 -49 -38 -81t-108 -32l5 22q36 0 61 16.5t30 38.5z" />
    <glyph glyph-name="Tcaron" unicode="&#x164;" horiz-adv-x="641" 
d="M457 671l-121 -571q-9 -43 7.5 -55t75.5 -18l-6 -27h-290l6 27q64 7 84 19t29 54l121 571h-72q-63 0 -99 -33.5t-105 -144.5h-22l60 209h583l-30 -209h-22q-17 113 -35.5 145.5t-80.5 32.5h-83zM397 751l-73 159h24l95 -94l141 94h28l-147 -159h-68z" />
    <glyph glyph-name="tcaron" unicode="&#x165;" horiz-adv-x="311" 
d="M216 471l-86 -341q-8 -34 -8 -50q0 -26 25 -26q27 0 52.5 19.5t70.5 70.5l15 -12q-53 -73 -95.5 -107.5t-83.5 -34.5q-33 0 -52 20t-19 54q0 33 11 76l83 331h-66l5 19q50 17 87.5 51t79.5 92h21l-31 -124h113l-10 -38h-112zM425 744l-147 -200h-11l64 205h95z" />
    <glyph glyph-name="Tbar" unicode="&#x166;" horiz-adv-x="641" 
d="M181 346l7 34h113l62 291h-72q-63 0 -99 -33.5t-105 -144.5h-22l60 209h583l-30 -209h-22q-17 113 -35.5 145.5t-80.5 32.5h-83l-62 -291h118l-7 -34h-118l-52 -246q-9 -43 7.5 -55t75.5 -18l-6 -27h-290l6 27q64 7 84 19t29 54l52 246h-113z" />
    <glyph glyph-name="tbar" unicode="&#x167;" horiz-adv-x="331" 
d="M226 471l-26 -101h121l-8 -36h-122l-51 -204q-8 -34 -8 -50q0 -26 25 -26q27 0 52.5 19.5t70.5 70.5l15 -12q-53 -73 -95.5 -107.5t-83.5 -34.5q-33 0 -52 20t-19 54q0 33 11 76l48 194h-59l8 36h60l26 101h-66l5 19q50 17 87.5 51t79.5 92h21l-31 -124h113l-10 -38h-112
z" />
    <glyph glyph-name="Utilde" unicode="&#x168;" horiz-adv-x="703" 
d="M571 254l75 350q9 43 -4.5 53.5t-68.5 17.5l6 27h215l-6 -27q-59 -7 -76.5 -18.5t-26.5 -52.5l-78 -367q-26 -123 -99.5 -185t-180.5 -62q-126 0 -191.5 73t-37.5 205l71 336q9 43 -4.5 53.5t-68.5 17.5l6 27h270l-6 -27q-59 -7 -76.5 -18.5t-26.5 -52.5l-72 -340
q-21 -100 19.5 -161.5t129.5 -61.5q98 0 153 51t78 162zM550 754q-26 0 -65.5 28t-61.5 28q-21 0 -37 -12.5t-37 -44.5l-17 10q36 67 59 90t57 23q26 0 65 -28t61 -28t38.5 13t35.5 44l18 -10q-36 -67 -59 -90t-57 -23z" />
    <glyph glyph-name="utilde" unicode="&#x169;" horiz-adv-x="555" 
d="M386 384l32 131l93 7l-99 -406q-9 -34 -9 -44q0 -15 14 -15q29 0 90 75l15 -11q-48 -71 -80 -101t-66 -30q-28 0 -42.5 18t-14.5 50q0 37 41 190q-24 -55 -62.5 -111t-91.5 -101.5t-98 -45.5q-36 0 -55 21.5t-19 55.5q0 22 8 51l84 326l-61 31l3 12l157 43h10l-105 -408
q-8 -30 -8 -46q0 -29 27 -29q52 0 128 101t109 236zM407 604q-26 0 -65.5 28t-61.5 28q-21 0 -37 -12.5t-37 -44.5l-17 10q36 67 59 90t57 23q26 0 65 -28t61 -28t38.5 13t35.5 44l18 -10q-36 -67 -59 -90t-57 -23z" />
    <glyph glyph-name="Umacron" unicode="&#x16a;" horiz-adv-x="703" 
d="M571 254l75 350q9 43 -4.5 53.5t-68.5 17.5l6 27h215l-6 -27q-59 -7 -76.5 -18.5t-26.5 -52.5l-78 -367q-26 -123 -99.5 -185t-180.5 -62q-126 0 -191.5 73t-37.5 205l71 336q9 43 -4.5 53.5t-68.5 17.5l6 27h270l-6 -27q-59 -7 -76.5 -18.5t-26.5 -52.5l-72 -340
q-21 -100 19.5 -161.5t129.5 -61.5q98 0 153 51t78 162zM355 773l10 49h271l-10 -49h-271z" />
    <glyph glyph-name="umacron" unicode="&#x16b;" horiz-adv-x="555" 
d="M386 384l32 131l93 7l-99 -406q-9 -34 -9 -44q0 -15 14 -15q29 0 90 75l15 -11q-48 -71 -80 -101t-66 -30q-28 0 -42.5 18t-14.5 50q0 37 41 190q-24 -55 -62.5 -111t-91.5 -101.5t-98 -45.5q-36 0 -55 21.5t-19 55.5q0 22 8 51l84 326l-61 31l3 12l157 43h10l-105 -408
q-8 -30 -8 -46q0 -29 27 -29q52 0 128 101t109 236zM223 623l10 49h251l-10 -49h-251z" />
    <glyph glyph-name="Ubreve" unicode="&#x16c;" horiz-adv-x="703" 
d="M571 254l75 350q9 43 -4.5 53.5t-68.5 17.5l6 27h215l-6 -27q-59 -7 -76.5 -18.5t-26.5 -52.5l-78 -367q-26 -123 -99.5 -185t-180.5 -62q-126 0 -191.5 73t-37.5 205l71 336q9 43 -4.5 53.5t-68.5 17.5l6 27h270l-6 -27q-59 -7 -76.5 -18.5t-26.5 -52.5l-72 -340
q-21 -100 19.5 -161.5t129.5 -61.5q98 0 153 51t78 162zM494 748q-60 0 -88.5 40t-11.5 117h29q-13 -94 82 -94q96 0 122 94h29q-34 -157 -162 -157z" />
    <glyph glyph-name="ubreve" unicode="&#x16d;" horiz-adv-x="555" 
d="M386 384l32 131l93 7l-99 -406q-9 -34 -9 -44q0 -15 14 -15q29 0 90 75l15 -11q-48 -71 -80 -101t-66 -30q-28 0 -42.5 18t-14.5 50q0 37 41 190q-24 -55 -62.5 -111t-91.5 -101.5t-98 -45.5q-36 0 -55 21.5t-19 55.5q0 22 8 51l84 326l-61 31l3 12l157 43h10l-105 -408
q-8 -30 -8 -46q0 -29 27 -29q52 0 128 101t109 236zM342 596q-59 0 -85.5 40.5t-9.5 118.5h29q-13 -96 77 -96t117 96h29q-34 -159 -157 -159z" />
    <glyph glyph-name="Uring" unicode="&#x16e;" horiz-adv-x="703" 
d="M571 254l75 350q9 43 -4.5 53.5t-68.5 17.5l6 27h215l-6 -27q-59 -7 -76.5 -18.5t-26.5 -52.5l-78 -367q-26 -123 -99.5 -185t-180.5 -62q-126 0 -191.5 73t-37.5 205l71 336q9 43 -4.5 53.5t-68.5 17.5l6 27h270l-6 -27q-59 -7 -76.5 -18.5t-26.5 -52.5l-72 -340
q-21 -100 19.5 -161.5t129.5 -61.5q98 0 153 51t78 162zM555 829q0 22 -13.5 35.5t-35.5 13.5q-28 0 -44.5 -19.5t-16.5 -47.5q0 -22 13.5 -35.5t35.5 -13.5q28 0 44.5 19.5t16.5 47.5zM413 811q0 40 27 67.5t66 27.5q38 0 59.5 -21t21.5 -56q0 -40 -27 -67.5t-66 -27.5
q-38 0 -59.5 21t-21.5 56z" />
    <glyph glyph-name="uring" unicode="&#x16f;" horiz-adv-x="555" 
d="M386 384l32 131l93 7l-99 -406q-9 -34 -9 -44q0 -15 14 -15q29 0 90 75l15 -11q-48 -71 -80 -101t-66 -30q-28 0 -42.5 18t-14.5 50q0 37 41 190q-24 -55 -62.5 -111t-91.5 -101.5t-98 -45.5q-36 0 -55 21.5t-19 55.5q0 22 8 51l84 326l-61 31l3 12l157 43h10l-105 -408
q-8 -30 -8 -46q0 -29 27 -29q52 0 128 101t109 236zM409 661q0 22 -13.5 35.5t-35.5 13.5q-28 0 -44.5 -19.5t-16.5 -47.5q0 -22 13.5 -35.5t35.5 -13.5q28 0 44.5 19.5t16.5 47.5zM267 643q0 40 27 67.5t66 27.5q38 0 59.5 -21t21.5 -56q0 -40 -27 -67.5t-66 -27.5
q-38 0 -59.5 21t-21.5 56z" />
    <glyph glyph-name="Uhungarumlaut" unicode="&#x170;" horiz-adv-x="703" 
d="M571 254l75 350q9 43 -4.5 53.5t-68.5 17.5l6 27h215l-6 -27q-59 -7 -76.5 -18.5t-26.5 -52.5l-78 -367q-26 -123 -99.5 -185t-180.5 -62q-126 0 -191.5 73t-37.5 205l71 336q9 43 -4.5 53.5t-68.5 17.5l6 27h270l-6 -27q-59 -7 -76.5 -18.5t-26.5 -52.5l-72 -340
q-21 -100 19.5 -161.5t129.5 -61.5q98 0 153 51t78 162zM477 900h105l-1 -5l-170 -144h-19zM620 900h105l-1 -5l-170 -144h-19z" />
    <glyph glyph-name="uhungarumlaut" unicode="&#x171;" horiz-adv-x="555" 
d="M386 384l32 131l93 7l-99 -406q-9 -34 -9 -44q0 -15 14 -15q29 0 90 75l15 -11q-48 -71 -80 -101t-66 -30q-28 0 -42.5 18t-14.5 50q0 37 41 190q-24 -55 -62.5 -111t-91.5 -101.5t-98 -45.5q-36 0 -55 21.5t-19 55.5q0 22 8 51l84 326l-61 31l3 12l157 43h10l-105 -408
q-8 -30 -8 -46q0 -29 27 -29q52 0 128 101t109 236zM346 761h97l-1 -5l-190 -164h-19zM489 761h97l-1 -5l-190 -164h-19z" />
    <glyph glyph-name="Uogonek" unicode="&#x172;" horiz-adv-x="703" 
d="M361 -8q-22 -2 -34 -2q-126 0 -191.5 73t-37.5 205l71 336q9 43 -4.5 53.5t-68.5 17.5l6 27h270l-6 -27q-59 -7 -76.5 -18.5t-26.5 -52.5l-72 -340q-21 -100 19.5 -161.5t129.5 -61.5q98 0 153 51t78 162l75 350q9 43 -4.5 53.5t-68.5 17.5l6 27h215l-6 -27
q-59 -7 -76.5 -18.5t-26.5 -52.5l-78 -367q-40 -187 -185 -233q-128 -56 -128 -123q0 -21 13.5 -33t35.5 -12q46 0 99 47l8 -10q-22 -24 -38 -38.5t-45.5 -29.5t-60.5 -15q-35 0 -57 18t-22 50q0 76 134 134z" />
    <glyph glyph-name="uogonek" unicode="&#x173;" horiz-adv-x="555" 
d="M319 58q0 37 41 190q-24 -55 -62.5 -111t-91.5 -101.5t-98 -45.5q-35 0 -54 21.5t-19 55.5q0 25 7 51l81 326l-61 31l3 12l157 43h10l-104 -416q-6 -26 -6 -38q0 -29 27 -29q52 0 128 101t109 236l32 131l93 7l-99 -406q-9 -34 -9 -44q0 -15 14 -15q29 0 90 75l15 -11
q-32 -45 -74 -85.5t-70 -62t-48.5 -46.5t-20.5 -49q0 -42 49 -42q46 0 99 47l8 -10q-22 -24 -38 -38.5t-45.5 -29.5t-60.5 -15q-35 0 -56.5 18t-21.5 50q0 29 22.5 56.5t45 42.5t60.5 35q-52 5 -52 66z" />
    <glyph glyph-name="Wcircumflex" unicode="&#x174;" horiz-adv-x="916" 
d="M567 592l52 -454l249 453q19 36 19 48q0 17 -17 26t-65 10l6 27h196l-6 -27q-18 -3 -26.5 -5t-20 -10t-19.5 -22l-360 -647h-21l-50 425l-243 -425h-22l-93 647q-3 30 -51 37l6 27h248l-6 -27q-59 -3 -80 -13.5t-21 -36.5q0 -17 2 -33l62 -458l191 337l-19 167
q-3 30 -51 37l6 27h239l-6 -27q-59 -3 -80 -13.5t-21 -36.5q0 -17 2 -33zM625 910l73 -159h-24l-95 94l-141 -94h-28l147 159h68z" />
    <glyph glyph-name="wcircumflex" unicode="&#x175;" horiz-adv-x="682" 
d="M324 449l-59 26l4 12l132 43h3l28 -447l109 144q40 53 56.5 90.5t16.5 79.5q0 40 -25.5 60t-70.5 15v8q40 50 86 50q42 0 60 -25t18 -60q0 -48 -27 -99.5t-88 -130.5l-176 -225h-31l-20 253l-194 -253h-31l-36 459l-59 26l4 12l132 43h3l30 -443l148 194zM481 765
l73 -173h-24l-95 108l-141 -108h-28l147 173h68z" />
    <glyph glyph-name="Ycircumflex" unicode="&#x176;" horiz-adv-x="621" 
d="M360 283l-39 -183q-9 -43 7.5 -55t75.5 -18l-6 -27h-285l6 27q64 7 84 19t29 54l38 182l-124 356q-6 19 -17.5 26.5t-33.5 10.5l6 27h247l-6 -27q-58 -1 -78 -10t-20 -30q0 -12 9 -43l96 -269l210 268q28 36 28 52q0 17 -17.5 24t-63.5 8l6 27h200l-6 -27q-42 -6 -67 -37
zM504 910l73 -159h-24l-95 94l-141 -94h-28l147 159h68z" />
    <glyph glyph-name="ycircumflex" unicode="&#x177;" horiz-adv-x="479" 
d="M80 449l-61 26l4 12l132 43h3l78 -499q12 17 56 84q119 185 119 282q0 40 -25.5 60t-70.5 15v8q40 50 86 50q42 0 60 -25t18 -60q0 -47 -38.5 -127.5t-126.5 -218.5q-61 -95 -112.5 -158.5t-91.5 -94t-69.5 -41.5t-60.5 -11q-37 0 -63 19.5t-26 56.5q0 23 13.5 40.5
t33.5 23.5h4q0 -40 19 -62.5t53 -22.5q38 0 72 18.5t83 75.5zM378 765l73 -173h-24l-95 108l-141 -108h-28l147 173h68z" />
    <glyph glyph-name="Ydieresis" unicode="&#x178;" horiz-adv-x="621" 
d="M360 283l-39 -183q-9 -43 7.5 -55t75.5 -18l-6 -27h-285l6 27q64 7 84 19t29 54l38 182l-124 356q-6 19 -17.5 26.5t-33.5 10.5l6 27h247l-6 -27q-58 -1 -78 -10t-20 -30q0 -12 9 -43l96 -269l210 268q28 36 28 52q0 17 -17.5 24t-63.5 8l6 27h200l-6 -27q-42 -6 -67 -37
zM357 760q-25 0 -41.5 16.5t-16.5 41.5q0 26 18.5 45t44.5 19q25 0 41.5 -16.5t16.5 -41.5q0 -26 -18.5 -45t-44.5 -19zM543 760q-25 0 -41.5 16.5t-16.5 41.5q0 26 18.5 45t44.5 19q25 0 41.5 -16.5t16.5 -41.5q0 -26 -18.5 -45t-44.5 -19z" />
    <glyph glyph-name="Zacute" unicode="&#x179;" horiz-adv-x="603" 
d="M109 33h218q31 0 53 7t49 31.5t46 47.5t62 79h24l-74 -198h-507l3 16l548 653h-215q-55 0 -85 -28.5t-91 -123.5h-23l45 185h495l-4 -17zM459 900h112l-1 -5l-160 -144h-17z" />
    <glyph glyph-name="zacute" unicode="&#x17a;" horiz-adv-x="454" 
d="M378 441h-191q-24 0 -35 -7t-25 -27l-31 -47l-16 6l70 188h15q4 -39 29 -39h290v-11l-393 -380l79 -29q6 -2 18.5 -6t16.5 -5.5t12.5 -4t13 -3.5t12 -2t14 -1.5t14.5 -0.5q38 0 65 21.5t50 72.5l18 -7q-33 -95 -64 -132t-87 -37q-45 0 -124 43l-85 50l-38 -91
q-38 1 -38 31q0 23 22 45zM401 761h106l-1 -5l-178 -164h-17z" />
    <glyph glyph-name="Zdotaccent" unicode="&#x17b;" horiz-adv-x="603" 
d="M109 33h218q31 0 53 7t49 31.5t46 47.5t62 79h24l-74 -198h-507l3 16l548 653h-215q-55 0 -85 -28.5t-91 -123.5h-23l45 185h495l-4 -17zM416 760q-25 0 -41.5 17t-16.5 41q0 26 18.5 45t44.5 19q25 0 41.5 -17t16.5 -41q0 -26 -18.5 -45t-44.5 -19z" />
    <glyph glyph-name="zdotaccent" unicode="&#x17c;" horiz-adv-x="454" 
d="M378 441h-191q-24 0 -35 -7t-25 -27l-31 -47l-16 6l70 188h15q4 -39 29 -39h290v-11l-393 -380l79 -29q6 -2 18.5 -6t16.5 -5.5t12.5 -4t13 -3.5t12 -2t14 -1.5t14.5 -0.5q38 0 65 21.5t50 72.5l18 -7q-33 -95 -64 -132t-87 -37q-45 0 -124 43l-85 50l-38 -91
q-38 1 -38 31q0 23 22 45zM335 611q-25 0 -41.5 17t-16.5 41q0 26 18.5 45t44.5 19q25 0 41.5 -17t16.5 -41q0 -26 -18.5 -45t-44.5 -19z" />
    <glyph glyph-name="Zcaron" unicode="&#x17d;" horiz-adv-x="603" 
d="M109 33h218q31 0 53 7t49 31.5t46 47.5t62 79h24l-74 -198h-507l3 16l548 653h-215q-55 0 -85 -28.5t-91 -123.5h-23l45 185h495l-4 -17zM371 751l-73 159h24l95 -94l141 94h28l-147 -159h-68z" />
    <glyph glyph-name="zcaron" unicode="&#x17e;" horiz-adv-x="454" 
d="M378 441h-191q-24 0 -35 -7t-25 -27l-31 -47l-16 6l70 188h15q4 -39 29 -39h290v-11l-393 -380l79 -29q6 -2 18.5 -6t16.5 -5.5t12.5 -4t13 -3.5t12 -2t14 -1.5t14.5 -0.5q38 0 65 21.5t50 72.5l18 -7q-33 -95 -64 -132t-87 -37q-45 0 -124 43l-85 50l-38 -91
q-38 1 -38 31q0 23 22 45zM288 593l-73 173h24l95 -108l141 108h28l-147 -173h-68z" />
    <glyph glyph-name="florin" unicode="&#x192;" horiz-adv-x="470" 
d="M92 324l7 28h94l20 87q31 135 82 204t133 69q93 0 93 -67q0 -47 -55 -64h-19q0 26 -1 41.5t-5 32.5t-13 25t-23 8q-45 0 -69 -108l-52 -228h105l-4 -28h-107l-46 -202q-31 -137 -82.5 -206t-133.5 -69q-47 0 -70 18.5t-23 48.5q0 48 55 64h19q-10 -107 40 -107
q47 0 68 93l82 360h-95z" />
    <glyph glyph-name="Aringacute" unicode="&#x1fa;" horiz-adv-x="696" 
d="M490 110l-27 136h-284l-82 -135q-20 -34 -20 -50q0 -17 19.5 -24.5t63.5 -9.5l-5 -27h-203l5 27q48 5 67 37l358 583l-14 64h96l128 -647q6 -32 51 -37l-5 -27h-251l5 27q21 1 32.5 2t26.5 4t23 9t13.5 17t5.5 26q0 11 -3 25zM395 601l-197 -323h259zM526 822
q0 -37 -25 -62.5t-61 -25.5q-35 0 -55 19.5t-20 51.5q0 37 25 62.5t61 25.5q35 0 55 -19.5t20 -51.5zM495 822q0 21 -12 32.5t-32 11.5q-26 0 -40.5 -17.5t-14.5 -43.5q0 -21 12 -32.5t32 -11.5q26 0 40.5 17.5t14.5 43.5zM515 1033h108l-1 -5l-140 -115h-17z" />
    <glyph glyph-name="aringacute" unicode="&#x1fb;" horiz-adv-x="539" 
d="M414 641q0 21 -12 32.5t-32 11.5q-26 0 -40.5 -17.5t-14.5 -43.5q0 -21 12 -32.5t32 -11.5q26 0 40.5 17.5t14.5 43.5zM444 852h108l-1 -5l-140 -115h-17zM445 641q0 -37 -25 -62.5t-61 -25.5q-35 0 -55 19.5t-20 51.5q0 37 25 62.5t61 25.5q35 0 55 -19.5t20 -51.5z
M157 53q62 0 132.5 109.5t116.5 288.5q-22 51 -78 51q-57 0 -108 -54t-81 -139t-30 -173q0 -83 48 -83zM311 58q0 22 12.5 76t26.5 94q-46 -101 -107.5 -169.5t-117.5 -68.5q-50 0 -76.5 39t-26.5 107q0 102 45 194.5t115 146t141 53.5q59 0 99 -40l72 48h20l-35 -112
l-75 -310q-9 -34 -9 -44q0 -15 14 -15q29 0 90 75l15 -11q-48 -71 -80 -101t-66 -30q-28 0 -42.5 18t-14.5 50z" />
    <glyph glyph-name="AEacute" unicode="&#x1fc;" horiz-adv-x="979" 
d="M874 0h-525l6 27q59 7 76.5 18.5t26.5 52.5l31 148h-262l-112 -135q-26 -32 -26 -50q0 -17 19.5 -24.5t63.5 -9.5l-5 -27h-215l5 27q45 5 83 50l478 570q-21 18 -91 28l6 27h578l-31 -167h-20q-16 80 -40.5 107t-76.5 27h-169l-62 -290h149q31 0 51 21.5t39 68.5h27
l-45 -213h-27q2 47 -9.5 68.5t-42.5 21.5h-149l-52 -245q-9 -39 10.5 -53.5t73.5 -14.5h82q51 0 91 31.5t108 115.5h24zM580 670l-326 -392h242zM808 900h112l-1 -5l-160 -144h-17z" />
    <glyph glyph-name="aeacute" unicode="&#x1fd;" horiz-adv-x="715" 
d="M335 530q71 0 116 -59q70 59 147 59q57 0 87 -27.5t30 -69.5q0 -37 -18.5 -67.5t-46 -50.5t-72.5 -37.5t-83 -27.5t-93 -22q-2 -28 -2 -42q0 -68 27.5 -106t76.5 -38q78 0 155 100l18 -13q-95 -139 -207 -139q-71 0 -112 45t-45 121q-43 -74 -93 -120t-95 -46
q-50 0 -76.5 39t-26.5 107q0 156 97 275t216 119zM157 53q35 0 76.5 40t81.5 113q7 67 36.5 130.5t74.5 110.5q-31 55 -91 55t-113 -54.5t-83 -138.5t-30 -173q0 -83 48 -83zM580 499q-62 0 -111 -75t-64 -175q118 27 173.5 71t55.5 118q0 26 -13.5 43.5t-40.5 17.5z
M541 761h106l-1 -5l-178 -164h-17z" />
    <glyph glyph-name="Oslashacute" unicode="&#x1fe;" horiz-adv-x="696" 
d="M668 705l-52 -66q72 -75 72 -199q0 -62 -17 -126t-51 -121.5t-79.5 -103t-107 -72.5t-128.5 -27q-98 0 -164 50l-58 -73l-26 17l61 77q-73 74 -73 201q0 62 17 126t51 121.5t79.5 103t107 72.5t128.5 27q98 0 165 -52l49 62zM428 679q-85 0 -151.5 -68t-98.5 -161.5
t-32 -187.5q0 -81 22 -138l383 483q-40 72 -123 72zM587 440q0 78 -21 136l-383 -484q40 -69 122 -69q85 0 151.5 68t98.5 161.5t32 187.5zM517 900h112l-1 -5l-160 -144h-17z" />
    <glyph glyph-name="oslashacute" unicode="&#x1ff;" horiz-adv-x="480" 
d="M180 -10q-66 0 -106 37l-42 -54l-22 17l46 58q-34 48 -34 126q0 60 21.5 123t57.5 114.5t88.5 85t110.5 33.5q65 0 105 -37l39 49l22 -17l-42 -53q34 -48 34 -126q0 -60 -21.5 -123t-57.5 -114.5t-88.5 -85t-110.5 -33.5zM190 18q48 0 91 55.5t66 133t23 148.5
q0 24 -3 45l-248 -317q18 -65 71 -65zM110 165q0 -17 2 -45l249 316q-18 66 -71 66q-48 0 -91 -55.5t-66 -133t-23 -148.5zM389 761h106l-1 -5l-178 -164h-17z" />
    <glyph glyph-name="Scommaaccent" unicode="&#x218;" horiz-adv-x="529" 
d="M479 208q0 -99 -75.5 -158.5t-178.5 -59.5q-72 0 -128.5 21.5t-86.5 50.5l26 167h26q9 -207 169 -207q71 0 113.5 39.5t42.5 107.5q0 55 -29.5 87.5t-108.5 70.5q-70 34 -104.5 77t-34.5 103q0 90 65 147.5t172 57.5q111 0 187 -59l-28 -147h-25q-1 89 -33.5 131.5
t-106.5 42.5q-66 0 -105 -40t-39 -102q0 -47 25.5 -76.5t85.5 -57.5q82 -38 126.5 -84t44.5 -112zM201 -149h-49q-33 7 -33 39q0 29 19.5 45.5t49.5 16.5q29 0 46 -17.5t17 -47.5q0 -49 -38 -81t-108 -32l5 22q36 0 61 16.5t30 38.5z" />
    <glyph glyph-name="scommaaccent" unicode="&#x219;" horiz-adv-x="373" 
d="M176 27q80 0 80 77q0 25 -28.5 59.5t-62 65.5t-62 73t-28.5 80q0 62 47.5 105t118.5 43q57 0 89.5 -23t32.5 -62q0 -35 -44 -55h-4q-39 102 -115 102q-33 0 -51 -19t-18 -51q0 -18 19 -43.5t46 -52t54 -55t46 -61.5t19 -62q0 -71 -50.5 -114.5t-121.5 -43.5
q-66 0 -107 30.5t-41 75.5q0 47 43 67h5q16 -62 50 -99t83 -37zM120 -149h-49q-33 7 -33 39q0 29 19.5 45.5t49.5 16.5q29 0 46 -17.5t17 -47.5q0 -49 -38 -81t-108 -32l5 22q36 0 61 16.5t30 38.5z" />
    <glyph glyph-name="uni0237" unicode="&#x237;" horiz-adv-x="240" 
d="M234 530l-88 -392q-42 -187 -99.5 -266t-142.5 -79q-38 0 -62.5 17t-24.5 46q0 45 55 58h9q4 -42 20 -67t39 -25q27 0 44.5 34t40.5 137l102 451l-61 31l3 12l155 43h10z" />
    <glyph glyph-name="circumflex" unicode="&#x2c6;" 
d="M321 765l73 -173h-24l-95 108l-141 -108h-28l147 173h68z" />
    <glyph glyph-name="caron" unicode="&#x2c7;" 
d="M179 593l-73 173h24l95 -108l141 108h28l-147 -173h-68z" />
    <glyph glyph-name="breve" unicode="&#x2d8;" 
d="M222 596q-59 0 -85.5 40.5t-9.5 118.5h29q-13 -96 77 -96t117 96h29q-34 -159 -157 -159z" />
    <glyph glyph-name="dotaccent" unicode="&#x2d9;" 
d="M247 611q-25 0 -41.5 17t-16.5 41q0 26 18.5 45t44.5 19q25 0 41.5 -17t16.5 -41q0 -26 -18.5 -45t-44.5 -19z" />
    <glyph glyph-name="ring" unicode="&#x2da;" 
d="M305 661q0 22 -13.5 35.5t-35.5 13.5q-28 0 -44.5 -19.5t-16.5 -47.5q0 -22 13.5 -35.5t35.5 -13.5q28 0 44.5 19.5t16.5 47.5zM163 643q0 40 27 67.5t66 27.5q38 0 59.5 -21t21.5 -56q0 -40 -27 -67.5t-66 -27.5q-38 0 -59.5 21t-21.5 56z" />
    <glyph glyph-name="ogonek" unicode="&#x2db;" 
d="M346 21l4 -10q-145 -61 -145 -130q0 -21 13.5 -33t35.5 -12q46 0 99 47l8 -10q-22 -24 -38 -38.5t-45.5 -29.5t-60.5 -15q-35 0 -57 18t-22 50q0 24 13.5 46.5t31 37.5t49.5 31t54.5 25.5t59.5 22.5z" />
    <glyph glyph-name="tilde" unicode="&#x2dc;" 
d="M301 604q-26 0 -65.5 28t-61.5 28q-21 0 -37 -12.5t-37 -44.5l-17 10q36 67 59 90t57 23q26 0 65 -28t61 -28t38.5 13t35.5 44l18 -10q-36 -67 -59 -90t-57 -23z" />
    <glyph glyph-name="hungarumlaut" unicode="&#x2dd;" 
d="M186 761h97l-1 -5l-190 -164h-19zM329 761h97l-1 -5l-190 -164h-19z" />
    <glyph glyph-name="pi" unicode="&#x3c0;" horiz-adv-x="630" 
d="M456 456h-194q-59 -278 -136 -456h-101l2 11q5 9 49.5 87t62.5 113t46 107t42 138h-117l16 74h492l-33 -74h-80q-73 -274 -73 -368q0 -45 47 -45q25 0 49 6v-11q-59 -48 -111 -48q-35 0 -55.5 21.5t-20.5 57.5q0 50 24.5 129t90.5 258z" />
    <glyph glyph-name="Wgrave" unicode="&#x1e80;" horiz-adv-x="916" 
d="M567 592l52 -454l249 453q19 36 19 48q0 17 -17 26t-65 10l6 27h196l-6 -27q-18 -3 -26.5 -5t-20 -10t-19.5 -22l-360 -647h-21l-50 425l-243 -425h-22l-93 647q-3 30 -51 37l6 27h248l-6 -27q-59 -3 -80 -13.5t-21 -36.5q0 -17 2 -33l62 -458l191 337l-19 167
q-3 30 -51 37l6 27h239l-6 -27q-59 -3 -80 -13.5t-21 -36.5q0 -17 2 -33zM420 900h105l46 -149h-17l-134 144v5z" />
    <glyph glyph-name="wgrave" unicode="&#x1e81;" horiz-adv-x="682" 
d="M324 449l-59 26l4 12l132 43h3l28 -447l109 144q40 53 56.5 90.5t16.5 79.5q0 40 -25.5 60t-70.5 15v8q40 50 86 50q42 0 60 -25t18 -60q0 -48 -27 -99.5t-88 -130.5l-176 -225h-31l-20 253l-194 -253h-31l-36 459l-59 26l4 12l132 43h3l30 -443l148 194zM263 761h100
l60 -169h-17l-143 164v5z" />
    <glyph glyph-name="Wacute" unicode="&#x1e82;" horiz-adv-x="916" 
d="M567 592l52 -454l249 453q19 36 19 48q0 17 -17 26t-65 10l6 27h196l-6 -27q-18 -3 -26.5 -5t-20 -10t-19.5 -22l-360 -647h-21l-50 425l-243 -425h-22l-93 647q-3 30 -51 37l6 27h248l-6 -27q-59 -3 -80 -13.5t-21 -36.5q0 -17 2 -33l62 -458l191 337l-19 167
q-3 30 -51 37l6 27h239l-6 -27q-59 -3 -80 -13.5t-21 -36.5q0 -17 2 -33zM616 900h112l-1 -5l-160 -144h-17z" />
    <glyph glyph-name="wacute" unicode="&#x1e83;" horiz-adv-x="682" 
d="M324 449l-59 26l4 12l132 43h3l28 -447l109 144q40 53 56.5 90.5t16.5 79.5q0 40 -25.5 60t-70.5 15v8q40 50 86 50q42 0 60 -25t18 -60q0 -48 -27 -99.5t-88 -130.5l-176 -225h-31l-20 253l-194 -253h-31l-36 459l-59 26l4 12l132 43h3l30 -443l148 194zM474 761h106
l-1 -5l-178 -164h-17z" />
    <glyph glyph-name="Wdieresis" unicode="&#x1e84;" horiz-adv-x="916" 
d="M567 592l52 -454l249 453q19 36 19 48q0 17 -17 26t-65 10l6 27h196l-6 -27q-18 -3 -26.5 -5t-20 -10t-19.5 -22l-360 -647h-21l-50 425l-243 -425h-22l-93 647q-3 30 -51 37l6 27h248l-6 -27q-59 -3 -80 -13.5t-21 -36.5q0 -17 2 -33l62 -458l191 337l-19 167
q-3 30 -51 37l6 27h239l-6 -27q-59 -3 -80 -13.5t-21 -36.5q0 -17 2 -33zM664 760q-25 0 -41.5 16.5t-16.5 41.5q0 26 18.5 45t44.5 19q25 0 41.5 -16.5t16.5 -41.5q0 -26 -18.5 -45t-44.5 -19zM478 760q-25 0 -41.5 16.5t-16.5 41.5q0 26 18.5 45t44.5 19q25 0 41.5 -16.5
t16.5 -41.5q0 -26 -18.5 -45t-44.5 -19z" />
    <glyph glyph-name="wdieresis" unicode="&#x1e85;" horiz-adv-x="682" 
d="M324 449l-59 26l4 12l132 43h3l28 -447l109 144q40 53 56.5 90.5t16.5 79.5q0 40 -25.5 60t-70.5 15v8q40 50 86 50q42 0 60 -25t18 -60q0 -48 -27 -99.5t-88 -130.5l-176 -225h-31l-20 253l-194 -253h-31l-36 459l-59 26l4 12l132 43h3l30 -443l148 194zM498 608
q-25 0 -41.5 16.5t-16.5 41.5q0 26 18.5 45t44.5 19q25 0 41.5 -16.5t16.5 -41.5q0 -26 -18.5 -45t-44.5 -19zM332 608q-25 0 -41.5 16.5t-16.5 41.5q0 26 18.5 45t44.5 19q25 0 41.5 -16.5t16.5 -41.5q0 -26 -18.5 -45t-44.5 -19z" />
    <glyph glyph-name="Ygrave" unicode="&#x1ef2;" horiz-adv-x="621" 
d="M360 283l-39 -183q-9 -43 7.5 -55t75.5 -18l-6 -27h-285l6 27q64 7 84 19t29 54l38 182l-124 356q-6 19 -17.5 26.5t-33.5 10.5l6 27h247l-6 -27q-58 -1 -78 -10t-20 -30q0 -12 9 -43l96 -269l210 268q28 36 28 52q0 17 -17.5 24t-63.5 8l6 27h200l-6 -27q-42 -6 -67 -37
zM299 900h105l46 -149h-17l-134 144v5z" />
    <glyph glyph-name="ygrave" unicode="&#x1ef3;" horiz-adv-x="479" 
d="M80 449l-61 26l4 12l132 43h3l78 -499q12 17 56 84q119 185 119 282q0 40 -25.5 60t-70.5 15v8q40 50 86 50q42 0 60 -25t18 -60q0 -47 -38.5 -127.5t-126.5 -218.5q-61 -95 -112.5 -158.5t-91.5 -94t-69.5 -41.5t-60.5 -11q-37 0 -63 19.5t-26 56.5q0 23 13.5 40.5
t33.5 23.5h4q0 -40 19 -62.5t53 -22.5q38 0 72 18.5t83 75.5zM160 761h100l60 -169h-17l-143 164v5z" />
    <glyph glyph-name="endash" unicode="&#x2013;" horiz-adv-x="540" 
d="M505 282h-480l9 36h480z" />
    <glyph glyph-name="emdash" unicode="&#x2014;" horiz-adv-x="960" 
d="M934 318l-9 -36h-900l9 36h900z" />
    <glyph glyph-name="quoteleft" unicode="&#x2018;" horiz-adv-x="198" 
d="M163 650h30q20 -4 33 -18.5t13 -37.5q0 -27 -18 -44t-45 -17q-29 0 -48 20t-19 53q0 57 48 99t118 48v-23q-42 -7 -75.5 -28.5t-36.5 -51.5z" />
    <glyph glyph-name="quoteright" unicode="&#x2019;" horiz-adv-x="198" 
d="M203 631h-30q-20 4 -33 18.5t-13 37.5q0 27 18 44t45 17q29 0 48 -20t19 -53q0 -57 -48 -99t-118 -48v23q42 7 75.5 28.5t36.5 51.5z" />
    <glyph glyph-name="quotesinglbase" unicode="&#x201a;" horiz-adv-x="198" 
d="M66 -1h-30q-20 4 -33 18.5t-13 37.5q0 27 18 44t45 17q29 0 48 -20t19 -53q0 -57 -48 -99t-118 -48v23q42 7 75.5 28.5t36.5 51.5z" />
    <glyph glyph-name="quotedblleft" unicode="&#x201c;" horiz-adv-x="356" 
d="M163 650h30q20 -4 33 -18.5t13 -37.5q0 -27 -18 -44t-45 -17q-29 0 -48 20t-19 53q0 57 48 99t118 48v-23q-42 -7 -75.5 -28.5t-36.5 -51.5zM321 650h30q20 -4 33 -18.5t13 -37.5q0 -27 -18 -44t-45 -17q-29 0 -48 20t-19 53q0 57 48 99t118 48v-23q-42 -7 -75.5 -28.5
t-36.5 -51.5z" />
    <glyph glyph-name="quotedblright" unicode="&#x201d;" horiz-adv-x="356" 
d="M361 631h-30q-20 4 -33 18.5t-13 37.5q0 27 18 44t45 17q29 0 48 -20t19 -53q0 -57 -48 -99t-118 -48v23q42 7 75.5 28.5t36.5 51.5zM203 631h-30q-20 4 -33 18.5t-13 37.5q0 27 18 44t45 17q29 0 48 -20t19 -53q0 -57 -48 -99t-118 -48v23q42 7 75.5 28.5t36.5 51.5z
" />
    <glyph glyph-name="quotedblbase" unicode="&#x201e;" horiz-adv-x="356" 
d="M224 -1h-30q-20 4 -33 18.5t-13 37.5q0 27 18 44t45 17q29 0 48 -20t19 -53q0 -57 -48 -99t-118 -48v23q42 7 75.5 28.5t36.5 51.5zM66 -1h-30q-20 4 -33 18.5t-13 37.5q0 27 18 44t45 17q29 0 48 -20t19 -53q0 -57 -48 -99t-118 -48v23q42 7 75.5 28.5t36.5 51.5z" />
    <glyph glyph-name="dagger" unicode="&#x2020;" horiz-adv-x="352" 
d="M257 595q-7 -31 -1 -55t22 -35l-2 -8q-45 -50 -105 -301h-12q46 250 23 301l2 8q44 23 59 90q-24 0 -61 -13t-54 -13q-15 0 -24 9t-9 23t11.5 24t29.5 10q17 0 51.5 -13t58.5 -13q6 10 1.5 52t-4.5 46q0 51 38 51q29 0 29 -31q0 -15 -22.5 -55.5t-27.5 -62.5q24 0 61 13
t54 13q15 0 24 -9t9 -23t-11.5 -24t-29.5 -10q-17 0 -51.5 13t-58.5 13z" />
    <glyph glyph-name="daggerdbl" unicode="&#x2021;" horiz-adv-x="352" 
d="M203 344q24 0 61 13t54 13q15 0 24 -9t9 -23t-11.5 -24t-29.5 -10q-17 0 -51.5 13t-58.5 13q-3 -21 1 -48t4 -38q0 -48 -38 -48q-29 0 -29 31q0 15 22 49t26 54q-24 0 -61 -13t-54 -13q-15 0 -24 9t-9 23t11.5 24t29.5 10q17 0 51.5 -13t58.5 -13q10 49 -25 72l2 8
q18 4 33.5 20.5t18.5 32.5t-5.5 32.5t-24.5 20.5l2 8q44 23 55 72q-24 0 -61 -13t-54 -13q-15 0 -24 9t-9 23t11.5 24t29.5 10q17 0 51.5 -13t58.5 -13q3 21 -1 48t-4 38q0 48 38 48q29 0 29 -31q0 -15 -22 -49t-26 -54q24 0 61 13t54 13q15 0 24 -9t9 -23t-11.5 -24
t-29.5 -10q-17 0 -51.5 13t-58.5 13q-11 -48 25 -72l-2 -8q-18 -4 -33.5 -20.5t-18.5 -32.5t5.5 -32.5t24.5 -20.5l-2 -8q-46 -24 -55 -72z" />
    <glyph glyph-name="bullet" unicode="&#x2022;" horiz-adv-x="304" 
d="M30 301q0 50 36 86t86 36t86 -36t36 -86t-36 -86t-86 -36t-86 36t-36 86z" />
    <glyph glyph-name="ellipsis" unicode="&#x2026;" horiz-adv-x="580" 
d="M-15 59q0 29 20.5 49t48.5 20t48.5 -20t20.5 -49t-20.5 -49t-48.5 -20t-48.5 20t-20.5 49zM175 59q0 29 20.5 49t48.5 20t48.5 -20t20.5 -49t-20.5 -49t-48.5 -20t-48.5 20t-20.5 49zM365 59q0 29 20.5 49t48.5 20t48.5 -20t20.5 -49t-20.5 -49t-48.5 -20t-48.5 20
t-20.5 49z" />
    <glyph glyph-name="perthousand" unicode="&#x2030;" horiz-adv-x="1064" 
d="M242 712q60 0 99 -40t39 -104q0 -83 -53 -135.5t-121 -52.5q-60 0 -99 40t-39 104q0 83 53 135.5t121 52.5zM242 687q-49 0 -78 -56.5t-29 -126.5q0 -99 71 -99q49 0 78 56.5t29 126.5q0 99 -71 99zM503 -10q-60 0 -99 40t-39 104q0 83 53 135.5t121 52.5q60 0 99 -40
t39 -104q0 -83 -53 -135.5t-121 -52.5zM691 712l-597 -722h-40l597 722h40zM503 15q49 0 78 56.5t29 126.5q0 99 -71 99q-49 0 -78 -56.5t-29 -126.5q0 -99 71 -99zM847 -10q-60 0 -99 40t-39 104q0 83 53 135.5t121 52.5q60 0 99 -40t39 -104q0 -83 -53 -135.5t-121 -52.5z
M847 15q49 0 78 56.5t29 126.5q0 99 -71 99q-49 0 -78 -56.5t-29 -126.5q0 -99 71 -99z" />
    <glyph glyph-name="guilsinglleft" unicode="&#x2039;" horiz-adv-x="288" 
d="M41 271l1 6l233 192h28l-168 -195l83 -195h-28z" />
    <glyph glyph-name="guilsinglright" unicode="&#x203a;" horiz-adv-x="288" 
d="M255 277l-1 -6l-233 -192h-28l168 195l-83 195h28z" />
    <glyph glyph-name="fraction" unicode="&#x2044;" horiz-adv-x="283" 
d="M-159 -10l597 722h40l-597 -722h-40z" />
    <glyph glyph-name="Euro" unicode="&#x20ac;" horiz-adv-x="622" 
d="M463 712q112 0 179 -59l-26 -146h-29q3 172 -124 172q-87 0 -150 -71.5t-94 -180.5h284l-20 -31h-272q-8 -38 -13 -82h239l-20 -31h-221v-19q0 -242 132 -242q71 0 120 48t89 151h32l-44 -178q-92 -54 -197 -54q-111 0 -170.5 73.5t-59.5 201.5v19h-86l8 31h80
q4 39 17 82h-81l8 31h83q43 122 133.5 203.5t202.5 81.5z" />
    <glyph glyph-name="uni2117" unicode="&#x2117;" horiz-adv-x="796" 
d="M428 320h-50l-24 -108q-5 -23 8 -31t52 -9l-4 -18h-191l4 18q31 1 44 8.5t19 31.5l63 280q5 23 -5.5 31t-38.5 10l4 18h165q64 0 97 -28t33 -76q0 -56 -47 -91.5t-129 -35.5zM424 527l-42 -183h36q49 0 81.5 25t32.5 76q0 82 -78 82h-30zM392 -10q-147 0 -241.5 95.5
t-94.5 239.5q0 162 110 274.5t271 112.5q147 0 241.5 -95.5t94.5 -239.5q0 -162 -110 -274.5t-271 -112.5zM392 10q153 0 257 106.5t104 260.5q0 135 -89 225t-227 90q-153 0 -257 -106.5t-104 -260.5q0 -135 89 -225t227 -90z" />
    <glyph glyph-name="trademark" unicode="&#x2122;" horiz-adv-x="827" 
d="M141 702h288l-13 -98h-20q-2 6 -4.5 17.5t-4 16t-4 12.5t-4.5 11.5t-6 8.5t-8.5 6.5t-10.5 3t-14 1.5h-26l-56 -257q-5 -9 -1.5 -15.5t3.5 -9.5t9 -5.5t14 -3t18 -1.5l-4 -19h-165l4 19q26 2 39.5 7.5t16.5 22.5l57 262h-26q-8 0 -15 -1.5t-12 -3t-11 -7t-9.5 -8
t-10 -11.5t-9 -12.5t-11 -16t-11.5 -17.5h-21zM616 462l115 212q7 12 13 28h100l-4 -19q-40 -3 -47 -27l-12 -243q-1 -13 6.5 -17.5t28.5 -6.5l-4 -19h-147l4 19q34 1 42.5 10.5t10.5 46.5l9 177l-138 -253h-21l-38 253l-64 -184q-11 -28 -5.5 -38t38.5 -12l-4 -19h-115
l4 19q36 1 44 24l85 242q0 14 -7 20.5t-28 7.5l4 19h98q0 -21 1 -28z" />
    <glyph glyph-name="Omega" unicode="&#x2126;" horiz-adv-x="745" 
d="M463 686q-59 0 -108.5 -39t-79.5 -99t-46.5 -126.5t-16.5 -125.5q0 -146 78 -226l-14 -70h-246l11 174h16q23 -72 43 -88t87 -16h69q-51 30 -96.5 101.5t-45.5 167.5q0 93 44 178.5t126 140t181 54.5q102 0 166 -63t64 -174q0 -121 -82.5 -232.5t-204.5 -172.5h69
q67 0 94 16t80 88h21l-61 -174h-251l14 70q96 71 157 192t61 240q0 184 -129 184z" />
    <glyph glyph-name="uni2153" unicode="&#x2153;" horiz-adv-x="799" 
d="M100 -10l597 722h40l-597 -722h-40zM275 712h20l-70 -331q-6 -31 8 -39.5t66 -10.5l-5 -23h-244l5 23q53 3 69.5 10.5t22.5 36.5l51 243h-87l4 17l21 4q52 10 81.5 23.5t57.5 46.5zM624 224q45 -6 72 -32t27 -66q0 -65 -48.5 -100.5t-111.5 -35.5q-64 0 -96 24.5
t-32 58.5q0 33 36 48h39q-6 -23 -6 -43q0 -28 15 -47t44 -19q39 0 63 26.5t24 70.5q0 38 -19 61.5t-54 23.5q-13 0 -34 -3l-3 16q123 40 123 101q0 21 -12.5 34t-37.5 13q-50 0 -99 -49l-13 12q49 87 143 87q45 0 70 -20.5t25 -55.5q0 -74 -115 -105z" />
    <glyph glyph-name="uni2154" unicode="&#x2154;" horiz-adv-x="811" 
d="M112 -10l597 722h40l-597 -722h-40zM636 224q45 -6 72 -32t27 -66q0 -65 -48.5 -100.5t-111.5 -35.5q-64 0 -96 24.5t-32 58.5q0 33 36 48h39q-6 -23 -6 -43q0 -28 15 -47t44 -19q39 0 63 26.5t24 70.5q0 38 -19 61.5t-54 23.5q-13 0 -34 -3l-3 16q123 40 123 101
q0 21 -12.5 34t-37.5 13q-50 0 -99 -49l-13 12q49 87 143 87q45 0 70 -20.5t25 -55.5q0 -74 -115 -105zM144 374h94q38 0 55.5 10.5t46.5 49.5h18l-47 -126h-267l3 13q148 123 191 177t43 105q0 26 -17.5 42.5t-46.5 16.5q-54 0 -101 -53l-10 13q22 37 61 63t85 26
q48 0 77 -26t29 -71q0 -27 -9 -49t-31.5 -45.5t-42.5 -40t-61.5 -49t-69.5 -56.5z" />
    <glyph glyph-name="uni215B" unicode="&#x215b;" horiz-adv-x="825" 
d="M765 315q0 -74 -106 -94q81 -41 81 -107q0 -58 -40.5 -91t-106.5 -33q-62 0 -102 30t-40 74q0 41 33 68t81 39q-25 13 -41 38t-16 54q0 48 37.5 80t95.5 32q55 0 89.5 -25.5t34.5 -64.5zM632 162l-54 32q-33 -14 -49 -40.5t-16 -56.5q0 -37 21.5 -61t58.5 -24t61 22.5
t24 57.5q0 43 -46 70zM610 251l37 -23q60 35 60 90q0 27 -17.5 45t-48.5 18q-32 0 -52 -19t-20 -50q0 -36 41 -61zM100 -10l597 722h40l-597 -722h-40zM275 712h20l-70 -331q-6 -31 8 -39.5t66 -10.5l-5 -23h-244l5 23q53 3 69.5 10.5t22.5 36.5l51 243h-87l4 17l21 4
q52 10 81.5 23.5t57.5 46.5z" />
    <glyph glyph-name="uni215C" unicode="&#x215c;" horiz-adv-x="825" 
d="M246 531q45 -6 72 -32t27 -66q0 -65 -48.5 -100.5t-111.5 -35.5q-64 0 -96 24.5t-32 58.5q0 33 36 48h39q-6 -22 -6 -43q0 -28 15 -47t44 -19q39 0 63 26.5t24 70.5q0 38 -19 61.5t-54 23.5q-13 0 -34 -3l-3 16q123 40 123 101q0 21 -12.5 34t-37.5 13q-50 0 -99 -49
l-13 12q49 87 143 87q45 0 70 -20.5t25 -55.5q0 -74 -115 -105zM765 315q0 -74 -106 -94q81 -41 81 -107q0 -58 -40.5 -91t-106.5 -33q-62 0 -102 30t-40 74q0 41 33 68t81 39q-25 13 -41 38t-16 54q0 48 37.5 80t95.5 32q55 0 89.5 -25.5t34.5 -64.5zM632 162l-54 32
q-33 -14 -49 -40.5t-16 -56.5q0 -37 21.5 -61t58.5 -24t61 22.5t24 57.5q0 43 -46 70zM610 251l37 -23q60 35 60 90q0 27 -17.5 45t-48.5 18q-32 0 -52 -19t-20 -50q0 -36 41 -61zM100 -10l597 722h40l-597 -722h-40z" />
    <glyph glyph-name="uni215D" unicode="&#x215d;" horiz-adv-x="815" 
d="M182 702h127q21 0 31 4t19 18h21l-33 -93h-159l-24 -69q75 -2 122.5 -34.5t47.5 -91.5q0 -62 -42 -101t-105 -39q-61 0 -94 21t-33 56q0 38 36 56h38q-9 -24 -9 -46q0 -29 16.5 -46.5t45.5 -17.5q39 0 61 24t22 65q0 49 -41.5 74t-112.5 25zM755 315q0 -74 -106 -94
q81 -41 81 -107q0 -58 -40.5 -91t-106.5 -33q-62 0 -102 30t-40 74q0 41 33 68t81 39q-25 13 -41 38t-16 54q0 48 37.5 80t95.5 32q55 0 89.5 -25.5t34.5 -64.5zM622 162l-54 32q-33 -14 -49 -40.5t-16 -56.5q0 -37 21.5 -61t58.5 -24t61 22.5t24 57.5q0 43 -46 70zM600 251
l37 -23q60 35 60 90q0 27 -17.5 45t-48.5 18q-32 0 -52 -19t-20 -50q0 -36 41 -61zM90 -10l597 722h40l-597 -722h-40z" />
    <glyph glyph-name="uni215E" unicode="&#x215e;" horiz-adv-x="750" 
d="M356 629h-164q-21 0 -36.5 -14.5t-35.5 -49.5h-25l57 137h283l-3 -12l-277 -393h-59zM690 315q0 -74 -106 -94q81 -41 81 -107q0 -58 -40.5 -91t-106.5 -33q-62 0 -102 30t-40 74q0 41 33 68t81 39q-25 13 -41 38t-16 54q0 48 37.5 80t95.5 32q55 0 89.5 -25.5
t34.5 -64.5zM557 162l-54 32q-33 -14 -49 -40.5t-16 -56.5q0 -37 21.5 -61t58.5 -24t61 22.5t24 57.5q0 43 -46 70zM535 251l37 -23q60 35 60 90q0 27 -17.5 45t-48.5 18q-32 0 -52 -19t-20 -50q0 -36 41 -61zM25 -10l597 722h40l-597 -722h-40z" />
    <glyph glyph-name="partialdiff" unicode="&#x2202;" horiz-adv-x="522" 
d="M308 530q37 0 67 -18q-41 155 -208 241l14 17q143 -55 223.5 -163.5t80.5 -253.5q0 -91 -34.5 -173.5t-99 -136t-142.5 -53.5q-79 0 -125.5 53t-46.5 148q0 83 34.5 160.5t97.5 128t139 50.5zM391 363q0 58 -9 115q-25 21 -67 21q-53 0 -97 -54t-65.5 -129t-21.5 -149
q0 -66 21.5 -106t59.5 -40q51 0 93.5 56.5t64 134t21.5 151.5z" />
    <glyph glyph-name="Delta" unicode="&#x2206;" horiz-adv-x="668" 
d="M582 0h-602l6 31l418 671h47l137 -671zM379 600l-349 -566h455z" />
    <glyph glyph-name="product" unicode="&#x220f;" horiz-adv-x="727" 
d="M610 670h-326l-164 -769q-9 -41 4 -52.5t69 -18.5l-5 -27h-269l5 27q58 7 75.5 18.5t26.5 52.5l150 703q9 41 -4 52.5t-69 18.5l6 27h690l-6 -27q-59 -7 -76.5 -18.5t-26.5 -52.5l-150 -703q-9 -41 4 -52.5t69 -18.5l-5 -27h-270l5 27q59 7 76.5 18.5t26.5 52.5z" />
    <glyph glyph-name="summation" unicode="&#x2211;" horiz-adv-x="571" 
d="M11 -114h235q76 0 108.5 17t93.5 93h19l-70 -193h-488l5 26l399 408l-210 435l7 30h481l-36 -167h-16q-14 74 -37 105t-79 31h-218l188 -393l-2 -6z" />
    <glyph glyph-name="minus" unicode="&#x2212;" horiz-adv-x="564" 
d="M70 345l11 52h438l-11 -52h-438z" />
    <glyph glyph-name="radical" unicode="&#x221a;" horiz-adv-x="557" 
d="M247 125l339 587h41l-412 -712h-50l-36 445q-2 31 -12 42.5t-40 11.5h-27l6 31h169z" />
    <glyph glyph-name="infinity" unicode="&#x221e;" horiz-adv-x="693" 
d="M337 354l-31 44q-45 63 -101 63q-50 0 -82.5 -35.5t-32.5 -96.5q0 -38 23 -62t55 -24q35 0 60 14t58 47zM378 349l30 -42q44 -63 101 -63q50 0 82.5 35.5t32.5 96.5q0 38 -23 62t-55 24q-34 0 -58.5 -14.5t-60.5 -50.5zM354 322l-42 -42q-71 -71 -138 -71q-55 0 -89 32.5
t-34 90.5q0 71 46 117t115 46q40 0 68.5 -18.5t54.5 -56.5l26 -39l42 42q73 73 137 73q55 0 89 -32.5t34 -90.5q0 -71 -46 -117t-115 -46q-41 0 -69 17.5t-54 57.5z" />
    <glyph glyph-name="integral" unicode="&#x222b;" horiz-adv-x="416" 
d="M263 482l-93 -438q-25 -118 -76 -179t-135 -61q-39 0 -62.5 18.5t-23.5 51.5q0 41 48 55h19q1 -24 3 -39t6.5 -31t13 -23.5t21.5 -7.5q31 0 47 39.5t43 166.5l94 437q51 241 208 241q41 0 65 -19t24 -52q0 -41 -48 -55h-19q-3 50 -12 76t-35 26q-29 0 -45 -39.5
t-43 -166.5z" />
    <glyph glyph-name="approxequal" unicode="&#x2248;" horiz-adv-x="574" 
d="M86 399l11 52q70 40 127 40q38 0 96.5 -19.5t95.5 -19.5q59 0 128 40l-11 -52q-69 -40 -128 -40q-37 0 -95.5 19.5t-96.5 19.5q-57 0 -127 -40zM56 256l11 51q68 40 126 40q38 0 96.5 -19t95.5 -19q61 0 128 39l-11 -52q-67 -39 -128 -39q-37 0 -95.5 19t-96.5 19
q-58 0 -126 -39z" />
    <glyph glyph-name="notequal" unicode="&#x2260;" horiz-adv-x="574" 
d="M90 416l11 50h264l106 108h57l-106 -108h117l-11 -50h-155l-89 -91h225l-11 -49h-262l-106 -109h-57l106 109h-119l11 49h156l89 91h-226z" />
    <glyph glyph-name="lessequal" unicode="&#x2264;" horiz-adv-x="433" 
d="M81 400l1 8l346 166l-14 -60l-239 -113l191 -113l-11 -54zM26 144l11 51h310l-11 -51h-310z" />
    <glyph glyph-name="greaterequal" unicode="&#x2265;" horiz-adv-x="433" 
d="M403 408l-1 -8l-346 -166l12 60l239 113l-191 113l13 54zM358 195l-11 -51h-310l11 51h310z" />
    <glyph glyph-name="lozenge" unicode="&#x25ca;" horiz-adv-x="545" 
d="M219 27l260 329l-123 319l-260 -329zM244 0h-51l-138 351l276 351h51l138 -351z" />
    <glyph glyph-name="i.dot" horiz-adv-x="272" 
d="M47 144l76 300l-61 31l3 12l157 43h10l-104 -414q-9 -34 -9 -44q0 -15 14 -15q29 0 90 75l15 -11q-48 -71 -80 -101t-66 -30q-28 0 -43.5 18.5t-15.5 49.5q0 33 14 86zM217 611q-25 0 -41.5 17t-16.5 41q0 26 18.5 45t44.5 19q25 0 41.5 -17t16.5 -41q0 -26 -18.5 -45
t-44.5 -19z" />
    <glyph glyph-name="space_uni0326" 
d="M273 -149h-49q-33 7 -33 39q0 29 19.5 45.5t49.5 16.5q29 0 46 -17.5t17 -47.5q0 -49 -38 -81t-108 -32l5 22q36 0 61 16.5t30 38.5z" />
    <glyph glyph-name="space_uni0326.alt" 
d="M227 708h49q33 -7 33 -39q0 -29 -19.5 -45.5t-49.5 -16.5q-29 0 -46 17.5t-17 47.5q0 49 38 81t108 32l-5 -22q-36 0 -61 -16.5t-30 -38.5z" />
    <glyph glyph-name="space_dotbelowcomb" 
d="M247 -169q-25 0 -41.5 17t-16.5 41q0 26 18.5 45t44.5 19q25 0 41.5 -17t16.5 -41q0 -26 -18.5 -45t-44.5 -19z" />
    <glyph glyph-name="caron.Slovak" 
d="M328 778l-147 -200h-11l64 205h95z" />
    <glyph glyph-name="cedilla.alt" 
d="M221 -48h17q49 0 77 -17.5t28 -51.5q0 -51 -49.5 -77.5t-131.5 -26.5l-6 26q60 0 93.5 15.5t33.5 40.5q0 39 -89 42z" />
    <glyph glyph-name="grave.cap" 
d="M170 900h105l46 -149h-17l-134 144v5z" />
    <glyph glyph-name="acute.cap" 
d="M236 900h112l-1 -5l-160 -144h-17z" />
    <glyph glyph-name="circumflex.cap" 
d="M321 910l73 -159h-24l-95 94l-141 -94h-28l147 159h68z" />
    <glyph glyph-name="tilde.cap" 
d="M301 754q-26 0 -65.5 28t-61.5 28q-21 0 -37 -12.5t-37 -44.5l-17 10q36 67 59 90t57 23q26 0 65 -28t61 -28t38.5 13t35.5 44l18 -10q-36 -67 -59 -90t-57 -23z" />
    <glyph glyph-name="macron.cap" 
d="M109 773l10 49h271l-10 -49h-271z" />
    <glyph glyph-name="breve.cap" 
d="M222 748q-60 0 -88.5 40t-11.5 117h29q-13 -94 82 -94q96 0 122 94h29q-34 -157 -162 -157z" />
    <glyph glyph-name="dotaccent.cap" 
d="M247 760q-25 0 -41.5 17t-16.5 41q0 26 18.5 45t44.5 19q25 0 41.5 -17t16.5 -41q0 -26 -18.5 -45t-44.5 -19z" />
    <glyph glyph-name="dieresis.cap" 
d="M154 760q-25 0 -41.5 16.5t-16.5 41.5q0 26 18.5 45t44.5 19q25 0 41.5 -16.5t16.5 -41.5q0 -26 -18.5 -45t-44.5 -19zM340 760q-25 0 -41.5 16.5t-16.5 41.5q0 26 18.5 45t44.5 19q25 0 41.5 -16.5t16.5 -41.5q0 -26 -18.5 -45t-44.5 -19z" />
    <glyph glyph-name="ring.cap" 
d="M305 829q0 22 -13.5 35.5t-35.5 13.5q-28 0 -44.5 -19.5t-16.5 -47.5q0 -22 13.5 -35.5t35.5 -13.5q28 0 44.5 19.5t16.5 47.5zM163 811q0 40 27 67.5t66 27.5q38 0 59.5 -21t21.5 -56q0 -40 -27 -67.5t-66 -27.5q-38 0 -59.5 21t-21.5 56z" />
    <glyph glyph-name="hungarumlaut.cap" 
d="M178 900h105l-1 -5l-170 -144h-19zM321 900h105l-1 -5l-170 -144h-19z" />
    <glyph glyph-name="caron.cap" 
d="M179 751l-73 159h24l95 -94l141 94h28l-147 -159h-68z" />
    <glyph glyph-name="exclamdown.cap" horiz-adv-x="238" 
d="M2 0l171 499h15l-65 -499h-121zM276 643q0 -29 -20 -49t-49 -20t-49 20t-20 49t20 49t49 20t49 -20t20 -49z" />
    <glyph glyph-name="questiondown.cap" horiz-adv-x="440" 
d="M201 260q-57 -33 -83 -64.5t-26 -83.5q0 -45 25.5 -72t71.5 -27q45 0 71 29t26 80q0 23 -5 48h70q24 -18 24 -57q0 -56 -52 -89.5t-134 -33.5q-83 0 -132.5 41.5t-49.5 110.5q0 65 35.5 103t111.5 80q61 34 92 66t31 77q0 13 -8 41h16q39 -39 39 -94q0 -49 -30.5 -84
t-92.5 -71zM389 643q0 -29 -20.5 -49t-48.5 -20t-48.5 20t-20.5 49t20.5 49t48.5 20t48.5 -20t20.5 -49z" />
    <glyph glyph-name="guilsinglleft.cap" horiz-adv-x="288" 
d="M56 356l1 6l233 192h28l-168 -195l83 -195h-28z" />
    <glyph glyph-name="guilsinglright.cap" horiz-adv-x="288" 
d="M270 362l-1 -6l-233 -192h-28l168 195l-83 195h28z" />
    <glyph glyph-name="guillemotleft.cap" horiz-adv-x="441" 
d="M56 356l1 6l233 192h28l-168 -195l83 -195h-28zM209 356l1 6l233 192h28l-168 -195l83 -195h-28z" />
    <glyph glyph-name="guillemotright.cap" horiz-adv-x="441" 
d="M423 362l-1 -6l-233 -192h-28l168 195l-83 195h28zM270 362l-1 -6l-233 -192h-28l168 195l-83 195h28z" />
    <glyph glyph-name="slash.cap" horiz-adv-x="376" 
d="M454 770l-472 -871h-41l472 871h41z" />
    <glyph glyph-name="backslash.cap" horiz-adv-x="376" 
d="M244 -101l-102 871h36l102 -871h-36z" />
    <glyph glyph-name="bar.cap" horiz-adv-x="217" 
d="M239 770l-185 -871h-37l185 871h37z" />
    <glyph glyph-name="brokenbar.cap" horiz-adv-x="217" 
d="M240 770l-79 -371h-37l79 371h37zM134 270l-79 -371h-37l79 371h37z" />
    <glyph glyph-name="periodcentered.cap" horiz-adv-x="206" 
d="M44 362q0 31 21 52t52 21t52 -21t21 -52t-21 -52t-52 -21t-52 21t-21 52z" />
    <glyph glyph-name="bullet.cap" horiz-adv-x="304" 
d="M44 361q0 50 36 86t86 36t86 -36t36 -86t-36 -86t-86 -36t-86 36t-36 86z" />
    <glyph glyph-name="hyphen.cap" horiz-adv-x="320" 
d="M298 338h-260l10 45h260z" />
    <glyph glyph-name="endash.cap" horiz-adv-x="540" 
d="M519 342h-480l9 36h480z" />
    <glyph glyph-name="emdash.cap" horiz-adv-x="960" 
d="M948 378l-9 -36h-900l9 36h900z" />
    <glyph glyph-name="parenleft.cap" horiz-adv-x="338" 
d="M74 222q0 154 87 293.5t232 254.5h39q-135 -109 -207.5 -271.5t-72.5 -300.5q0 -187 86 -300h-39q-125 149 -125 324z" />
    <glyph glyph-name="parenright.cap" horiz-adv-x="338" 
d="M293 446q0 -154 -87 -293.5t-232 -254.5h-39q135 109 207.5 271.5t72.5 300.5q0 187 -86 300h39q125 -149 125 -324z" />
    <glyph glyph-name="bracketleft.cap" horiz-adv-x="312" 
d="M259 684l-148 -699q-8 -36 12.5 -46t87.5 -14l-5 -26h-182l184 871h182l-5 -26q-69 -4 -93.5 -14t-32.5 -46z" />
    <glyph glyph-name="bracketright.cap" horiz-adv-x="312" 
d="M94 -15l149 699q8 36 -12.5 46t-87.5 14l5 26h182l-185 -871h-182l5 26q69 4 93.5 14t32.5 46z" />
    <glyph glyph-name="braceleft.cap" horiz-adv-x="341" 
d="M79 330l3 10q86 17 104 100l43 202q13 59 65.5 93.5t124.5 34.5l-4 -21q-47 -5 -74.5 -27.5t-37.5 -70.5l-44 -204q-10 -48 -38.5 -72t-86.5 -40q51 -16 69.5 -40t8.5 -72l-44 -204q-10 -48 8 -70.5t62 -27.5l-4 -21q-72 0 -110.5 35t-25.5 93l43 202q18 83 -62 100z" />
    <glyph glyph-name="braceright.cap" horiz-adv-x="341" 
d="M304 340l-3 -10q-86 -17 -104 -100l-43 -202q-13 -59 -65.5 -93.5t-124.5 -34.5l4 21q47 5 74.5 27.5t37.5 70.5l44 204q10 48 38.5 72t86.5 40q-51 16 -69.5 40t-8.5 72l44 204q10 48 -8 70.5t-62 27.5l4 21q72 0 110.5 -35t25.5 -93l-43 -202q-18 -83 62 -100z" />
    <glyph glyph-name="at.cap" horiz-adv-x="847" 
d="M600 131q-71 0 -93.5 51t0.5 132q-81 -182 -177 -182q-43 0 -68 33t-25 93q0 111 79.5 205.5t174.5 94.5q53 0 89 -34l68 37h14l-30 -86l-61 -205q-27 -111 34 -111q80 0 123.5 84t43.5 192q0 129 -69 205t-202 76q-113 0 -202.5 -64.5t-135 -164.5t-45.5 -213
q0 -137 82.5 -220t220.5 -83q84 0 143.5 16.5t129.5 56.5l9 -14q-54 -43 -131 -70t-159 -27q-170 0 -267 90.5t-97 250.5q0 120 56 227t161.5 175t234.5 68q157 0 246 -83t89 -226q0 -73 -27.5 -141.5t-83 -115.5t-125.5 -47zM360 181q48 0 106 91.5t93 222.5q-19 37 -68 37
q-70 0 -121.5 -90t-51.5 -186q0 -34 11 -54.5t31 -20.5z" />
    </font>
</defs>
</svg>
