<?xml version="1.0" standalone="no"?>
<!DOCTYPE svg PUBLIC "-//W3C//DTD SVG 1.1//EN" "http://www.w3.org/Graphics/SVG/1.1/DTD/svg11.dtd" >
<svg xmlns="http://www.w3.org/2000/svg" xmlns:xlink="http://www.w3.org/1999/xlink" version="1.1">
<metadata>
Created by FontForge 20170731 at Fri Oct  4 19:18:48 2013
 By Aleksey,,,
(c) 2010 Klim Type Foundry. All rights reserved.
</metadata>
<defs>
<font id="TiemposHeadline-BoldItalic" horiz-adv-x="500" >
  <font-face 
    font-family="Tiempos Headline Bold"
    font-weight="600"
    font-style="italic"
    font-stretch="normal"
    units-per-em="1000"
    panose-1="2 2 8 3 6 3 3 13 4 3"
    ascent="783"
    descent="-217"
    x-height="549"
    cap-height="702"
    bbox="-218 -246 1274 1047"
    underline-thickness="30"
    underline-position="-160"
    slope="-12"
    unicode-range="U+0020-FB04"
  />
<missing-glyph horiz-adv-x="960" 
d="M90 0v780h780v-780h-780zM480 345l-279 -279h558zM201 714l279 -279l279 279h-558zM435 390l-275 275v-550zM525 390l275 -275v550z" />
    <glyph glyph-name="ff" unicode="ff" horiz-adv-x="682" 
d="M341 33l87 439h-124l-48 -208q-60 -259 -140 -372t-181 -113q-58 0 -94.5 22.5t-36.5 60.5q0 35 22 55.5t56 23.5h33q-5 -121 34 -121q23 0 35 35.5t32 139.5q3 18 5 27l90 450h-71l8 39l74 18q31 109 102 174.5t177 65.5q97 0 143 -54q71 68 167 68q59 0 97 -22.5
t38 -68.5q0 -53 -54 -72h-79q19 120 -22 120q-29 0 -45 -64.5t-16 -150.5h106l-13 -53h-101l-52 -232q-52 -234 -132.5 -342t-181.5 -108q-47 0 -78.5 19.5t-31.5 55.5q0 31 20 49.5t51 21.5h22q-6 -104 30 -104q23 0 40 56q8 30 32 145zM411 726q-42 0 -68 -58.5
t-30 -142.5h126q16 56 40 102q-2 41 -20 70t-48 29z" />
    <glyph glyph-name="fi" unicode="fi" horiz-adv-x="662" 
d="M474 525l132 24h31l-102 -405q-8 -29 -8 -41q0 -15 14 -15q24 0 81 71l24 -21q-56 -78 -101 -113t-101 -35q-47 0 -73 26t-26 66q0 35 11 82l77 308h-129l-57 -260q-51 -227 -127.5 -330t-184.5 -103q-58 0 -94.5 22.5t-36.5 60.5q0 35 22 55.5t56 23.5h33
q-5 -121 34 -121q23 0 35 35.5t32 139.5q3 18 5 27l89 450h-70l8 39l74 18q32 120 112.5 187t204.5 67q66 0 115.5 -25.5t49.5 -71.5q0 -55 -56 -72h-95q16 41 8.5 83.5t-41.5 42.5q-44 0 -73 -62t-34 -153h161z" />
    <glyph glyph-name="fl" unicode="fl" horiz-adv-x="660" 
d="M385 472h-79l-58 -260q-52 -227 -128 -330t-184 -103q-58 0 -95 22.5t-37 60.5q0 35 22.5 55.5t56.5 23.5h33q-7 -121 34 -121q24 0 40 52q8 30 32 150l88 450h-69l8 39l74 18q32 113 102.5 183.5t174.5 70.5q75 0 112 -33l149 33h30l-154 -639q-8 -36 -8 -41
q0 -15 14 -15q24 0 81 71l24 -21q-56 -78 -101 -113t-101 -35q-48 0 -73.5 26t-25.5 66q0 35 11 82l117 471q-20 105 -77 105q-31 0 -51.5 -32.5t-28 -79t-6.5 -103.5h86z" />
    <glyph glyph-name="ffi" unicode="ffi" horiz-adv-x="979" 
d="M751 472h-129l-52 -232q-52 -234 -132.5 -342t-181.5 -108q-47 0 -78.5 19.5t-31.5 55.5q0 31 20 49.5t51 21.5h22q-6 -104 30 -104q22 0 35 40t37 161l87 439h-124l-48 -208q-60 -259 -140 -372t-181 -113q-58 0 -94.5 22.5t-36.5 60.5q0 35 22 55.5t56 23.5h33
q-5 -121 34 -121q23 0 35 35.5t32 139.5q3 18 5 27l90 450h-71l8 39l74 18q31 109 102 174.5t177 65.5q102 0 146 -58q85 72 210 72q66 0 115 -25.5t49 -71.5q0 -55 -56 -72h-94q15 41 7.5 83.5t-41.5 42.5q-44 0 -73 -62t-33 -153h160l133 24h31l-103 -405q-8 -29 -8 -41
q0 -15 14 -15q25 0 81 71l24 -21q-57 -79 -101 -113.5t-100 -34.5q-48 0 -73.5 26t-25.5 66t11 82zM411 726q-42 0 -68 -58.5t-30 -142.5h126v1q13 53 40 101q-2 41 -20 70t-48 29z" />
    <glyph glyph-name="ffl" unicode="ffl" horiz-adv-x="977" 
d="M700 472h-78l-52 -232q-52 -234 -132.5 -342t-181.5 -108q-47 0 -78.5 19.5t-31.5 55.5q0 31 20 49.5t51 21.5h22q-6 -104 30 -104q22 0 35 40t37 161l87 439h-124l-48 -208q-60 -259 -140 -372t-181 -113q-58 0 -94.5 22.5t-36.5 60.5q0 35 22 55.5t56 23.5h33
q-5 -121 34 -121q23 0 35 35.5t32 139.5q3 18 5 27l90 450h-71l8 39l74 18q31 109 102 174.5t177 65.5q99 0 144 -55q72 69 171 69q74 0 113 -33l148 33h31l-155 -639q-8 -36 -8 -41q0 -15 14 -15q25 0 81 71l24 -21q-57 -79 -101 -113.5t-100 -34.5q-48 0 -73.5 26
t-25.5 66t11 82l116 471q-18 105 -77 105q-45 0 -66.5 -65t-17.5 -150h83zM439 526q16 56 40 100q-1 41 -19 70.5t-49 29.5q-42 0 -68 -58.5t-30 -142.5h126v1z" />
    <glyph glyph-name="f_b" unicode="fb" horiz-adv-x="962" 
d="M346 110l129 525q-20 105 -77 105q-31 0 -51.5 -32.5t-28 -79t-6.5 -103.5h86l-13 -53h-79l-58 -260q-52 -227 -128 -330t-184 -103q-58 0 -95 22.5t-37 60.5q0 35 22.5 55.5t56.5 23.5h33q-7 -121 34 -121q24 0 40 52q8 30 32 150l88 450h-69l8 39l74 18
q32 113 102.5 183.5t174.5 70.5q75 0 112 -33l149 33h30l-118 -485q52 107 120 179t140 72q115 0 115 -155q0 -162 -106.5 -283t-253.5 -121q-77 0 -146 33t-96 87zM727 426q-30 0 -73 -54t-80.5 -137t-53.5 -161q4 -20 19 -31.5t35 -11.5q46 0 90 58t69 135.5t25 142.5
q0 59 -31 59z" />
    <glyph glyph-name="f_f_b" unicode="ffb" horiz-adv-x="1279" 
d="M700 472h-78l-52 -232q-52 -234 -132.5 -342t-181.5 -108q-47 0 -78.5 19.5t-31.5 55.5q0 31 20 49.5t51 21.5h22q-6 -104 30 -104q22 0 35 40t37 161l87 439h-124l-48 -208q-60 -259 -140 -372t-181 -113q-58 0 -94.5 22.5t-36.5 60.5q0 35 22 55.5t56 23.5h33
q-5 -121 34 -121q23 0 35 35.5t32 139.5q3 18 5 27l90 450h-71l8 39l74 18q31 109 102 174.5t177 65.5q99 0 144 -55q72 69 171 69q74 0 113 -33l148 33h31l-118 -485q52 107 120 179t140 72q114 0 114 -155q0 -162 -106.5 -283t-253.5 -121q-77 0 -145.5 33t-96.5 87
l129 525q-18 105 -77 105q-45 0 -66.5 -65t-17.5 -150h83zM1044 426q-30 0 -73.5 -54t-81 -137t-52.5 -161q3 -20 18 -31.5t35 -11.5q46 0 90.5 58t69.5 135.5t25 142.5q0 59 -31 59zM439 526q16 56 40 100q-1 41 -19 70.5t-49 29.5q-42 0 -68 -58.5t-30 -142.5h126v1z" />
    <glyph glyph-name="f_h" unicode="fh" horiz-adv-x="967" 
d="M319 0l156 635q-20 105 -77 105q-31 0 -51.5 -32.5t-28 -79t-6.5 -103.5h86l-13 -53h-79l-58 -260q-52 -227 -128 -330t-184 -103q-58 0 -95 22.5t-37 60.5q0 35 22.5 55.5t56.5 23.5h33q-7 -121 34 -121q24 0 40 52q8 30 32 150l88 450h-69l8 39l74 18
q32 113 102.5 183.5t174.5 70.5q75 0 112 -33l149 33h30l-117 -478q59 117 130 180.5t143 63.5q39 0 60 -22.5t21 -61.5q0 -23 -8 -55l-74 -266q-8 -29 -8 -41q0 -15 14 -15q25 0 81 71l24 -21q-57 -79 -101 -113.5t-100 -34.5q-48 0 -75.5 26t-27.5 66q0 32 15 82l61 210
q7 26 7 32q0 19 -17 19q-34 0 -94.5 -89t-88.5 -200l-35 -136h-182z" />
    <glyph glyph-name="f_f_h" unicode="ffh" horiz-adv-x="1283" 
d="M635 0l156 635q-18 105 -77 105q-45 0 -66.5 -65t-17.5 -150h83l-13 -53h-78l-52 -232q-52 -234 -132.5 -342t-181.5 -108q-47 0 -78.5 19.5t-31.5 55.5q0 31 20 49.5t51 21.5h22q-6 -104 30 -104q22 0 35 40t37 161l87 439h-124l-48 -208q-60 -259 -140 -372t-181 -113
q-58 0 -94.5 22.5t-36.5 60.5q0 35 22 55.5t56 23.5h33q-5 -121 34 -121q23 0 35 35.5t32 139.5q3 18 5 27l90 450h-71l8 39l74 18q31 109 102 174.5t177 65.5q99 0 144 -55q72 69 171 69q74 0 113 -33l148 33h31l-117 -478q59 117 130 180.5t143 63.5q39 0 60 -22.5
t21 -61.5q0 -24 -9 -55l-73 -266q-8 -29 -8 -41q0 -15 14 -15q24 0 81 71l24 -21q-56 -78 -101 -113t-101 -35q-47 0 -75 26t-28 66q0 32 15 82l62 210q7 26 7 32q0 19 -18 19q-34 0 -94 -89.5t-88 -199.5l-35 -136h-183zM411 726q-42 0 -68 -58.5t-30 -142.5h126v1
q16 56 40 100q-1 41 -19 70.5t-49 29.5z" />
    <glyph glyph-name="f_idieresis" unicode="f&#xef;" horiz-adv-x="662" 
d="M474 525l132 24h31l-102 -405q-8 -29 -8 -41q0 -15 14 -15q24 0 81 71l24 -21q-56 -78 -101 -113t-101 -35q-47 0 -73 26t-26 66q0 35 11 82l77 308h-129l-57 -260q-51 -227 -127.5 -330t-184.5 -103q-58 0 -94.5 22.5t-36.5 60.5q0 35 22 55.5t56 23.5h33
q-5 -121 34 -121q23 0 35 35.5t32 139.5q3 18 5 27l89 450h-70l8 39l74 18q32 113 100 183.5t179 70.5q67 0 110.5 -26.5t43.5 -78.5q0 -65 -64 -82h-88q29 144 -23 144q-36 0 -53 -64.5t-15 -150.5h162zM670 601q-36 0 -58.5 22.5t-22.5 55.5q0 36 24 62t63 26
q36 0 58.5 -22.5t22.5 -55.5q0 -37 -24 -62.5t-63 -25.5z" />
    <glyph glyph-name="f_f_idieresis" unicode="ff&#xef;" horiz-adv-x="979" 
d="M751 472h-129l-52 -232q-52 -234 -132.5 -342t-181.5 -108q-47 0 -78.5 19.5t-31.5 55.5q0 31 20 49.5t51 21.5h22q-6 -104 30 -104q22 0 35 40t37 161l87 439h-124l-48 -208q-60 -259 -140 -372t-181 -113q-58 0 -94.5 22.5t-36.5 60.5q0 35 22 55.5t56 23.5h33
q-5 -121 34 -121q23 0 35 35.5t32 139.5q3 18 5 27l90 450h-71l8 39l74 18q31 109 102 174.5t177 65.5q98 0 143 -53q72 67 175 67q67 0 110.5 -26.5t43.5 -78.5q0 -65 -64 -82h-88q29 144 -22 144q-35 0 -52.5 -64t-16.5 -151h161l133 24h31l-103 -405q-8 -29 -8 -41
q0 -15 14 -15q25 0 81 71l24 -21q-57 -79 -101 -113.5t-100 -34.5q-48 0 -73.5 26t-25.5 66t11 82zM411 726q-42 0 -68 -58.5t-30 -142.5h126v1q17 58 40 102q-2 40 -19.5 69t-48.5 29zM988 601q-36 0 -58 22.5t-22 55.5q0 36 24 62t62 26q37 0 59 -22.5t22 -55.5
q0 -37 -24 -62.5t-63 -25.5z" />
    <glyph glyph-name="f_j" unicode="fj" horiz-adv-x="633" 
d="M434 472h-130l-48 -208q-61 -259 -140.5 -372t-180.5 -113q-58 0 -94.5 22.5t-36.5 60.5q0 35 22 55.5t56 23.5h33q-5 -121 34 -121q23 0 35 35.5t32 139.5q3 18 5 27l89 450h-70l8 39l74 18q32 120 112.5 187t204.5 67q66 0 115.5 -25.5t49.5 -71.5q0 -55 -56 -72h-95
q16 41 8.5 83.5t-41.5 42.5q-44 0 -73 -62t-34 -153h161l132 24h31l-68 -312q-51 -232 -132.5 -339.5t-182.5 -107.5q-47 0 -78.5 19.5t-31.5 55.5q0 31 20 49t51 22h21q-5 -105 31 -105q19 0 30 31.5t29 112.5q6 28 9 43z" />
    <glyph glyph-name="f_f_j" unicode="ffj" horiz-adv-x="950" 
d="M751 472h-129l-52 -232q-52 -234 -132.5 -342t-181.5 -108q-47 0 -78.5 19.5t-31.5 55.5q0 31 20 49.5t51 21.5h22q-6 -104 30 -104q22 0 35 40t37 161l87 439h-124l-48 -208q-60 -259 -140 -372t-181 -113q-58 0 -94.5 22.5t-36.5 60.5q0 35 22 55.5t56 23.5h33
q-5 -121 34 -121q23 0 35 35.5t32 139.5q3 18 5 27l90 450h-71l8 39l74 18q31 109 102 174.5t177 65.5q102 0 146 -58q85 72 210 72q66 0 115 -25.5t49 -71.5q0 -55 -56 -72h-94q15 41 7.5 83.5t-41.5 42.5q-44 0 -73 -62t-33 -153h160l132 24h32l-69 -312
q-51 -232 -132.5 -339.5t-182.5 -107.5q-46 0 -78 19.5t-32 55.5q0 31 20 49t51 22h22q-5 -105 30 -105q19 0 30 31.5t29 112.5q6 28 9 43zM411 726q-42 0 -68 -58.5t-30 -142.5h126v1q13 53 40 101q-2 41 -20 70t-48 29z" />
    <glyph glyph-name="f_k" unicode="fk" horiz-adv-x="943" 
d="M385 472h-79l-58 -260q-52 -227 -128 -330t-184 -103q-58 0 -95 22.5t-37 60.5q0 35 22.5 55.5t56.5 23.5h33q-7 -121 34 -121q24 0 40 52q8 30 32 150l88 450h-69l8 39l74 18q32 113 102.5 183.5t174.5 70.5q75 0 112 -33l149 33h30l-190 -783h-183l157 635
q-20 105 -77 105q-31 0 -51.5 -32.5t-28 -79t-6.5 -103.5h86zM710 372l90 -212q12 -29 21 -41t22 -12t26.5 11.5t37.5 39.5l23 -20q-55 -79 -97 -113.5t-90 -34.5q-39 0 -61.5 23t-40.5 71l-65 188l178 209q59 68 116 68q39 0 61 -23.5t22 -58.5q0 -71 -79 -97h-11
q3 34 -11 54.5t-43 20.5q-16 0 -30.5 -7.5t-23 -16t-26.5 -27.5z" />
    <glyph glyph-name="f_f_k" unicode="ffk" horiz-adv-x="1259" 
d="M700 472h-77l-53 -232q-52 -234 -132.5 -342t-181.5 -108q-47 0 -78.5 19.5t-31.5 55.5q0 31 20 49.5t51 21.5h22q-6 -104 30 -104q22 0 35 40t37 161l87 439h-124l-48 -208q-60 -259 -140 -372t-181 -113q-58 0 -94.5 22.5t-36.5 60.5q0 35 22 55.5t56 23.5h33
q-5 -121 34 -121q23 0 35 35.5t32 139.5q3 18 5 27l90 450h-71l8 39l74 18q31 109 102 174.5t177 65.5q99 0 144 -55q72 69 171 69q74 0 113 -33l148 33h31l-190 -783h-183l156 635q-18 105 -77 105q-45 0 -66.5 -65t-17.5 -150h83zM1027 372l90 -212q12 -29 20.5 -41
t22.5 -12q13 0 26 11t37 40l23 -20q-54 -78 -96 -113t-90 -35q-39 0 -61.5 23t-40.5 71l-65 188l178 209q30 35 56.5 51.5t58.5 16.5q39 0 61 -23.5t22 -58.5q0 -71 -79 -97h-11q3 34 -11 54.5t-42 20.5q-24 0 -40 -11.5t-40 -39.5zM439 526q16 56 40 100q-1 41 -19 70.5
t-49 29.5q-42 0 -68 -58.5t-30 -142.5h126v1z" />
    <glyph glyph-name=".notdef" horiz-adv-x="960" 
d="M90 0v780h780v-780h-780zM480 345l-279 -279h558zM201 714l279 -279l279 279h-558zM435 390l-275 275v-550zM525 390l275 -275v550z" />
    <glyph glyph-name=".null" horiz-adv-x="0" 
 />
    <glyph glyph-name="nonmarkingreturn" horiz-adv-x="333" 
 />
    <glyph glyph-name="space" unicode=" " horiz-adv-x="171" 
 />
    <glyph glyph-name="exclam" unicode="!" horiz-adv-x="293" 
d="M367 702l-208 -468h-57l26 468h239zM8 87q0 41 28 70t67 29q40 0 68 -29t28 -70q0 -40 -28 -68.5t-68 -28.5q-39 0 -67 28.5t-28 68.5z" />
    <glyph glyph-name="quotedbl" unicode="&#x22;" horiz-adv-x="361" 
d="M127 455h-15l-1 146v20.5v21t0.5 19t1 19.5t2 16.5t4 16.5t6 13.5t7.5 12.5q25 29 64 29q32 0 49 -17.5t17 -44.5q0 -14 -5 -30t-10.5 -25t-17 -27.5t-15.5 -25.5zM302 455h-15l-1 146v20.5v21t0.5 19t1 19.5t2 16.5t4 16.5t6 13.5t7.5 12.5q25 29 64 29q32 0 49 -17.5
t17 -44.5q0 -14 -5 -30t-10.5 -25t-17 -27.5t-15.5 -25.5z" />
    <glyph glyph-name="numbersign" unicode="#" horiz-adv-x="527" 
d="M489 230h-121l-75 -240l-52 17l71 223h-133l-75 -240l-52 17l71 223h-78v47h93l48 153h-107v47h122l75 236l51 -17l-69 -219h132l75 236l51 -17l-69 -219h77v-47h-92l-49 -153h106v-47zM243 430l-49 -153h133l48 153h-132z" />
    <glyph glyph-name="dollar" unicode="$" horiz-adv-x="579" 
d="M544 232q0 -112 -81.5 -175t-207.5 -67l-22 -103h-41l22 104q-70 4 -127.5 28.5t-89.5 54.5l32 170h47q1 -86 40 -140t109 -62l46 221l-29 15q-77 38 -117.5 83t-40.5 115q0 108 77 171.5t205 64.5l22 101h41l-22 -103q114 -12 180 -72l-32 -151h-44q0 70 -29 115.5
t-86 57.5l-46 -218l10 -4q42 -21 69 -37.5t56.5 -42t44 -57t14.5 -69.5zM244 559q0 -32 16.5 -54t52.5 -43l43 202q-48 -1 -80 -30.5t-32 -74.5zM378 149q0 52 -70 94l-42 -202q49 5 80.5 33t31.5 75z" />
    <glyph glyph-name="percent" unicode="%" horiz-adv-x="779" 
d="M271 712q63 0 105 -38t42 -106q0 -93 -61.5 -148t-139.5 -55q-63 0 -105 37.5t-42 106.5q0 93 61.5 148t139.5 55zM268 677q-37 0 -62.5 -62t-25.5 -142q0 -74 39 -74q37 0 62.5 62t25.5 142q0 74 -39 74zM535 -10q-63 0 -105 38t-42 106q0 93 61.5 148t139.5 55
q63 0 105 -37.5t42 -106.5q0 -93 -61.5 -148t-139.5 -55zM733 712l-605 -722h-56l605 722h56zM537 25q37 0 62.5 62t25.5 142q0 74 -39 74q-37 0 -62.5 -62t-25.5 -142q0 -74 39 -74z" />
    <glyph glyph-name="ampersand" unicode="&#x26;" horiz-adv-x="727" 
d="M10 177q0 156 202 206q-34 64 -34 133q0 85 66.5 140.5t172.5 55.5q88 0 138.5 -38t50.5 -101q0 -121 -192 -174l118 -189q31 51 31 100q0 29 -42 29l8 43h209l-8 -43q-54 0 -76.5 -14t-40.5 -58q-22 -52 -56 -98l34 -53q16 -24 27 -37.5t31 -25t45 -11.5l-9 -42h-210
q-27 19 -52 46q-92 -56 -201 -56q-91 0 -151.5 51t-60.5 136zM320 72q31 0 71 16q-14 20 -20 31l-140 233q-58 -45 -58 -135q0 -66 40.5 -105.5t106.5 -39.5zM337 576q0 -57 53 -138l7 -12q78 43 78 148q0 45 -18.5 70.5t-52.5 25.5q-32 0 -49.5 -25.5t-17.5 -68.5z" />
    <glyph glyph-name="quotesingle" unicode="'" horiz-adv-x="187" 
d="M127 455h-15l-1 146v20.5v21t0.5 19t1 19.5t2 16.5t4 16.5t6 13.5t7.5 12.5q25 29 64 29q32 0 49 -17.5t17 -44.5q0 -14 -5 -30t-10.5 -25t-17 -27.5t-15.5 -25.5z" />
    <glyph glyph-name="parenleft" unicode="(" horiz-adv-x="371" 
d="M70 206q0 163 95.5 312t246.5 252h55q-135 -129 -202 -298.5t-67 -323.5q0 -168 75 -290h-55q-72 68 -110 158t-38 190z" />
    <glyph glyph-name="parenright" unicode=")" horiz-adv-x="371" 
d="M333 422q0 -163 -95.5 -312t-246.5 -252h-55q135 129 201.5 298t66.5 324q0 170 -74 290h55q72 -68 110 -158t38 -190z" />
    <glyph glyph-name="asterisk" unicode="*" horiz-adv-x="443" 
d="M433 549l-132 8l110 -72q29 -17 33.5 -40.5t-15.5 -40.5q-18 -18 -41 -10.5t-38 37.5l-58 116l-6 -130q-1 -33 -19 -48.5t-43 -7.5t-30.5 30.5t13.5 51.5l72 109l-116 -59q-30 -16 -52.5 -8t-27.5 33q-5 26 12 42t51 13l130 -7l-109 71q-29 17 -33 40.5t15 41.5
q18 17 41 9.5t38 -36.5l58 -118l7 131q1 33 19 48.5t42 7.5q25 -8 31 -30.5t-13 -51.5l-73 -109l117 59q29 16 51.5 8t27.5 -33t-11.5 -41t-50.5 -14z" />
    <glyph glyph-name="plus" unicode="+" horiz-adv-x="574" 
d="M317 591h70l-40 -187h187l-15 -69h-187l-39 -187h-70l39 187h-185l15 69h185z" />
    <glyph glyph-name="comma" unicode="," horiz-adv-x="267" 
d="M108 4h-39q-73 17 -73 87q0 41 27.5 65.5t69.5 24.5q48 0 74.5 -31t26.5 -82q0 -83 -65 -137t-166 -53v41q135 11 145 85z" />
    <glyph glyph-name="hyphen" unicode="-" horiz-adv-x="320" 
d="M283 269h-260l18 78h260z" />
    <glyph glyph-name="period" unicode="." horiz-adv-x="267" 
d="M-4 93q0 45 29.5 74.5t73.5 29.5q43 0 73 -29.5t30 -74.5t-30 -74t-73 -29q-44 0 -73.5 29t-29.5 74z" />
    <glyph glyph-name="slash" unicode="/" horiz-adv-x="362" 
d="M461 770l-470 -911h-79l469 911h80z" />
    <glyph glyph-name="zero" unicode="0" horiz-adv-x="662" 
d="M283 -10q-109 0 -178 78t-69 197q0 114 46 215t135 166.5t201 65.5q109 0 178 -78t69 -197q0 -114 -46 -215t-135 -166.5t-201 -65.5zM284 33q50 0 96 99.5t70 219.5t24 204q0 54 -12 83.5t-44 29.5q-51 0 -97 -100t-70 -219.5t-24 -203.5q0 -54 12 -83.5t45 -29.5z" />
    <glyph glyph-name="one" unicode="1" horiz-adv-x="440" 
d="M385 711h42l-126 -591q-11 -50 4.5 -63.5t79.5 -14.5l-9 -42h-392l10 42q66 1 82.5 12.5t26.5 58.5l90 423h-110l9 39l43 7q145 24 250 129z" />
    <glyph glyph-name="two" unicode="2" horiz-adv-x="551" 
d="M161 155h150q69 0 99.5 17t78.5 84h34l-86 -256h-480l8 32q237 199 316 292.5t79 172.5q0 44 -27.5 69t-73.5 25q-88 0 -150 -67l-18 24q44 73 111.5 118.5t153.5 45.5q93 0 144 -46.5t51 -126.5q0 -32 -9.5 -62t-32.5 -58.5t-45 -51t-63.5 -52.5t-70.5 -49.5t-83 -54.5
t-86 -56z" />
    <glyph glyph-name="three" unicode="3" horiz-adv-x="548" 
d="M171 365q95 24 146 62t51 97q0 35 -22.5 57t-61.5 22q-72 0 -137 -67l-19 24q43 69 108.5 110.5t146.5 41.5q79 0 125 -38t46 -98q0 -40 -19 -72.5t-51.5 -53t-66 -33t-72.5 -20.5q73 -6 124.5 -54.5t51.5 -114.5q0 -76 -46.5 -132t-114.5 -81t-147 -25q-103 0 -161.5 42
t-58.5 106q0 63 65 87h98q-16 -34 -16 -76q0 -49 19 -84t57 -35q55 0 87.5 60t32.5 123q0 123 -108 123q-19 0 -52 -7z" />
    <glyph glyph-name="four" unicode="4" horiz-adv-x="647" 
d="M90 235h225l67 316zM288 109l15 73h-304l7 34l449 486h150l-100 -467h115l-12 -53h-114l-16 -73q-8 -40 3.5 -52t61.5 -15l-9 -42h-347l9 42q51 3 67.5 15t24.5 52z" />
    <glyph glyph-name="five" unicode="5" horiz-adv-x="541" 
d="M208 541l-23 -77q94 0 164.5 -22t116 -75t45.5 -134q0 -111 -81 -177t-204 -66q-103 0 -165 38.5t-62 103.5q0 32 17 56t46 33h91q-12 -36 -12 -66q0 -54 30 -89.5t76 -35.5q47 0 76.5 32t29.5 84q0 163 -272 163l133 392h271q27 0 38.5 7t30.5 35h39l-72 -202h-313z" />
    <glyph glyph-name="six" unicode="6" horiz-adv-x="610" 
d="M597 681q-124 -18 -210.5 -91t-129.5 -187q70 55 150 55q86 0 136.5 -51t50.5 -132q0 -123 -89.5 -204t-217.5 -81q-112 0 -181.5 69.5t-69.5 184.5q0 123 73 229t200 170.5t278 68.5zM316 395q-36 0 -67 -17q-30 -93 -30 -202q0 -143 72 -143q53 0 89 69t36 158
q0 62 -24.5 98.5t-75.5 36.5z" />
    <glyph glyph-name="seven" unicode="7" horiz-adv-x="530" 
d="M463 521h-247q-38 0 -62 -17.5t-50 -63.5h-41l99 262h463l-8 -38l-418 -664h-121z" />
    <glyph glyph-name="eight" unicode="8" horiz-adv-x="592" 
d="M595 555q0 -65 -50 -102.5t-117 -41.5l13 -8q112 -63 112 -178q0 -108 -79.5 -171.5t-202.5 -63.5q-112 0 -186 49t-74 128q0 68 52 108.5t132 46.5l-8 5q-82 61 -82 164q0 95 75 158t192 63q100 0 161.5 -43.5t61.5 -113.5zM325 238l-109 70q-73 -38 -73 -141
q0 -60 36.5 -98t96.5 -38q55 0 90.5 29.5t35.5 76.5q0 32 -17.5 53t-59.5 48zM321 477l84 -53q34 19 52 58.5t18 81.5q0 48 -29 77.5t-79 29.5q-47 0 -77 -27.5t-30 -73.5q0 -53 61 -93z" />
    <glyph glyph-name="nine" unicode="9" horiz-adv-x="610" 
d="M52 21q124 18 210 90.5t129 186.5q-68 -54 -149 -54q-86 0 -136.5 51t-50.5 132q0 123 89.5 204t217.5 81q112 0 181.5 -69.5t69.5 -184.5q0 -123 -73 -229t-200 -170.5t-278 -68.5zM333 307q37 0 67 17q30 93 30 202q0 143 -72 143q-53 0 -89 -69t-36 -158
q0 -62 24.5 -98.5t75.5 -36.5z" />
    <glyph glyph-name="colon" unicode=":" horiz-adv-x="267" 
d="M-4 93q0 45 29.5 74.5t73.5 29.5q43 0 73 -29.5t30 -74.5t-30 -74t-73 -29q-44 0 -73.5 29t-29.5 74zM60 402q0 45 30 74.5t73 29.5q44 0 73.5 -29.5t29.5 -74.5t-29.5 -74t-73.5 -29q-43 0 -73 29t-30 74z" />
    <glyph glyph-name="semicolon" unicode=";" horiz-adv-x="267" 
d="M107 4h-38q-73 17 -73 87q0 41 27.5 65.5t69.5 24.5q48 0 74.5 -31t26.5 -82q0 -83 -65 -137t-166 -53v41q60 5 100 26t44 59zM60 402q0 45 30 74.5t73 29.5q44 0 73.5 -29.5t29.5 -74.5t-29.5 -74t-73.5 -29q-43 0 -73 29t-30 74z" />
    <glyph glyph-name="less" unicode="&#x3c;" horiz-adv-x="425" 
d="M62 363l3 9l357 194l-18 -84l-224 -117l174 -119l-16 -77z" />
    <glyph glyph-name="equal" unicode="=" horiz-adv-x="584" 
d="M67 264l14 65h443l-14 -65h-443zM97 409l15 67h443l-14 -67h-444z" />
    <glyph glyph-name="greater" unicode="&#x3e;" horiz-adv-x="425" 
d="M401 372l-2 -9l-358 -194l18 84l224 117l-173 119l16 77z" />
    <glyph glyph-name="question" unicode="?" horiz-adv-x="470" 
d="M270 474q54 31 81.5 60t27.5 72q0 31 -16 49t-46 18q-37 0 -57 -29t-20 -75q0 -23 5 -48h-122q-27 24 -27 59q0 62 60.5 97t150.5 35q102 0 158 -45.5t56 -121.5q0 -67 -38.5 -110.5t-112.5 -78.5q-62 -29 -91 -52.5t-29 -55.5q0 -11 3 -21h-27q-70 32 -70 102
q0 44 26 76.5t88 68.5zM102 87q0 41 28 70t67 29q40 0 68 -29t28 -70q0 -40 -28 -68.5t-68 -28.5q-39 0 -67 28.5t-28 68.5z" />
    <glyph glyph-name="at" unicode="@" horiz-adv-x="885" 
d="M606 77q-74 0 -99.5 45t-11.5 116q-38 -78 -78 -119.5t-92 -41.5q-45 0 -74 34t-29 93q0 107 78.5 198.5t184.5 91.5q58 0 91 -41l76 33h40l-34 -92l-61 -194q-12 -34 -6 -60t34 -26q58 0 102 73.5t44 183.5q0 117 -76.5 199t-206.5 82q-161 0 -259.5 -116t-98.5 -285
q0 -159 94.5 -244.5t241.5 -85.5q81 0 142.5 17.5t127.5 57.5l14 -20q-117 -104 -304 -104q-171 0 -286.5 100t-115.5 277q0 184 127 313.5t317 129.5q167 0 266 -93t99 -228q0 -72 -23 -130t-59.5 -92.5t-79 -53t-85.5 -18.5zM386 165q42 0 86.5 78.5t66.5 183.5
q-13 32 -45 32q-55 0 -97.5 -82t-42.5 -160q0 -52 32 -52z" />
    <glyph glyph-name="A" unicode="A" horiz-adv-x="744" 
d="M439 125l-17 92h-254l-53 -91q-18 -31 -18 -47q0 -18 17.5 -26.5t56.5 -10.5l-9 -42h-216l9 42q47 5 66 37l323 542l-15 83h202l116 -625q3 -18 15.5 -26t35.5 -11l-9 -42h-346l9 42q45 2 67.5 12.5t22.5 39.5q0 18 -3 31zM362 548l-162 -277h212z" />
    <glyph glyph-name="B" unicode="B" horiz-adv-x="702" 
d="M359 335h-44l-47 -220q-9 -40 3.5 -54t52.5 -14h8q63 0 106 47.5t43 132.5q0 50 -30.5 79t-91.5 29zM407 655h-24l-56 -266h25q72 0 116.5 42.5t44.5 125.5q0 98 -106 98zM-24 0l9 42q51 5 64.5 16t22.5 51l103 484q8 39 -1.5 50.5t-57.5 16.5l9 42h361q105 0 157 -39
t52 -105q0 -61 -35.5 -105.5t-84.5 -64.5t-103 -22q85 -3 141.5 -45.5t56.5 -109.5q0 -102 -86 -156.5t-220 -54.5h-388z" />
    <glyph glyph-name="C" unicode="C" horiz-adv-x="685" 
d="M486 712q65 0 124.5 -17t94.5 -44l-34 -173h-45q-6 187 -133 187q-60 0 -111 -42.5t-81 -108t-46.5 -137.5t-16.5 -137q0 -199 123 -199q132 0 234 213h55l-60 -202q-104 -62 -240 -62q-145 0 -228.5 80t-83.5 211q0 184 128 307.5t320 123.5z" />
    <glyph glyph-name="D" unicode="D" horiz-adv-x="776" 
d="M316 47h7q68 0 128 60.5t93 153t33 188.5q0 105 -40.5 155.5t-132.5 50.5h-21l-114 -538q-9 -43 1.5 -56.5t45.5 -13.5zM312 0h-336l9 42q51 5 64.5 16t22.5 51l103 484q8 39 -1.5 50.5t-57.5 16.5l10 42h309q152 0 247 -74t95 -209q0 -187 -134 -303t-331 -116z" />
    <glyph glyph-name="E" unicode="E" horiz-adv-x="663" 
d="M556 0h-580l9 42q51 5 64.5 16t22.5 51l103 484q8 39 -1.5 50.5t-57.5 16.5l10 42h573l-37 -193h-35q-20 90 -42.5 118t-87.5 28h-114l-56 -265h97q33 0 50.5 19.5t35.5 72.5h44l-52 -240h-43q5 53 -4.5 73t-42.5 20h-97l-47 -221q-9 -39 7 -53t60 -14h34q63 0 100.5 31
t120.5 140h45z" />
    <glyph glyph-name="F" unicode="F" horiz-adv-x="617" 
d="M361 0h-385l9 42q51 5 64.5 16t22.5 51l103 484q8 39 -1.5 50.5t-57.5 16.5l10 42h564l-38 -200h-35q-17 89 -42 121t-90 32h-102l-58 -273h87q33 0 51 20t36 73h43l-51 -241h-44q5 53 -4 73t-42 20h-87l-47 -215q-8 -39 13.5 -52.5t89.5 -17.5z" />
    <glyph glyph-name="G" unicode="G" horiz-adv-x="743" 
d="M374 41q38 0 63 12l37 170q8 40 -1.5 51.5t-57.5 16.5l10 42h325l-9 -42q-48 -5 -61.5 -16.5t-21.5 -51.5l-36 -166q-117 -67 -262 -67q-147 0 -234.5 79.5t-87.5 209.5q0 183 132 308t325 125q64 0 123.5 -17.5t95.5 -43.5l-33 -173h-46q-6 187 -133 187q-61 0 -113 -43
t-84 -109t-49.5 -138.5t-17.5 -137.5q0 -94 36 -145t100 -51z" />
    <glyph glyph-name="H" unicode="H" horiz-adv-x="846" 
d="M72 109l103 484q8 39 -1.5 50.5t-57.5 16.5l10 42h341l-10 -42q-50 -5 -64 -16t-22 -51l-44 -206h253l44 206q8 39 -1.5 50.5t-57.5 16.5l10 42h341l-10 -42q-50 -5 -64 -16.5t-22 -50.5l-103 -484q-9 -39 0.5 -50.5t57.5 -16.5l-9 -42h-341l9 42q50 5 64 16t23 51
l46 216h-253l-46 -216q-9 -39 0.5 -50.5t57.5 -16.5l-9 -42h-341l9 42q50 5 64 16t23 51z" />
    <glyph glyph-name="I" unicode="I" horiz-adv-x="397" 
d="M72 109l103 484q8 39 -1.5 50.5t-57.5 16.5l10 42h341l-10 -42q-50 -5 -64 -16t-22 -51l-103 -484q-9 -39 0.5 -50.5t57.5 -16.5l-9 -42h-341l9 42q51 5 64.5 16t22.5 51z" />
    <glyph glyph-name="J" unicode="J" horiz-adv-x="586" 
d="M284 168l91 425q8 39 -1.5 50.5t-57.5 16.5l10 42h341l-10 -42q-50 -5 -64 -16.5t-22 -50.5l-83 -384q-26 -118 -99.5 -168.5t-204.5 -50.5q-96 0 -153 35.5t-57 93.5q0 74 75 110h122q-31 -75 -31 -125q0 -71 54 -71q37 0 56.5 33t33.5 102z" />
    <glyph glyph-name="K" unicode="K" horiz-adv-x="756" 
d="M502 418l135 -312q16 -32 31.5 -46.5t46.5 -17.5l-9 -42h-220q-33 34 -66 115l-94 226l284 244q37 33 37 51q0 12 -12.5 17.5t-50.5 6.5l9 42h241l-10 -42q-31 -2 -50.5 -9.5t-42.5 -28.5zM371 593l-103 -484q-9 -39 0.5 -50.5t57.5 -16.5l-9 -42h-341l9 42q51 5 64.5 16
t22.5 51l103 484q8 39 -1.5 50.5t-57.5 16.5l9 42h342l-10 -42q-50 -5 -64 -16t-22 -51z" />
    <glyph glyph-name="L" unicode="L" horiz-adv-x="649" 
d="M370 593l-102 -479q-8 -39 6 -53t57 -14h28q51 0 99.5 39.5t132.5 150.5h43l-87 -237h-571l9 42q51 5 64.5 16t22.5 51l103 484q8 39 -1.5 50.5t-57.5 16.5l10 42h340l-10 -42q-50 -5 -64 -16.5t-22 -50.5z" />
    <glyph glyph-name="M" unicode="M" horiz-adv-x="973" 
d="M664 128l33 383l-287 -511h-71l-77 511l-134 -394q-13 -43 2.5 -57t77.5 -18l-9 -42h-248l10 42q44 2 64 14.5t32 45.5l167 485q8 40 -6.5 55.5t-63.5 17.5l9 42h269q-3 -25 2 -64l57 -385l211 385q25 49 30 64h270l-9 -42q-50 -2 -71 -17.5t-29 -55.5l-40 -485
q-1 -35 13.5 -46.5t58.5 -13.5l-9 -42h-363l9 42q57 3 76.5 18.5t25.5 67.5z" />
    <glyph glyph-name="N" unicode="N" horiz-adv-x="754" 
d="M605 281l66 312q8 38 -9.5 50.5t-79.5 16.5l10 42h242l-10 -42q-50 -5 -64 -16t-22 -51l-126 -594h-68l-316 532l-90 -422q-8 -38 10 -50.5t80 -16.5l-10 -42h-242l10 42q50 5 64 16t22 51l105 491q-17 33 -28.5 44.5t-34.5 15.5l9 42h240z" />
    <glyph glyph-name="O" unicode="O" horiz-adv-x="756" 
d="M465 712q134 0 213 -79.5t79 -200.5q0 -84 -30.5 -163t-84.5 -141t-135.5 -100t-176.5 -38q-134 0 -213 79.5t-79 200.5q0 84 30.5 163t84.5 141t135.5 100t176.5 38zM460 664q-50 0 -93.5 -49.5t-69.5 -123t-41 -150t-15 -137.5q0 -166 94 -166q50 0 93.5 49.5t69.5 123
t41 150t15 137.5q0 166 -94 166z" />
    <glyph glyph-name="P" unicode="P" horiz-adv-x="680" 
d="M126 702h341q116 0 181.5 -50t65.5 -130q0 -124 -96 -187.5t-251 -63.5h-66l-34 -159q-8 -39 13.5 -53t89.5 -17l-9 -42h-385l9 42q51 5 64.5 16t22.5 51l103 484q8 39 -1.5 50.5t-57.5 16.5zM383 655l-71 -332h23q79 0 133 52t54 147q0 62 -30 97.5t-88 35.5h-21z" />
    <glyph glyph-name="Q" unicode="Q" horiz-adv-x="756" 
d="M465 712q134 0 213 -79.5t79 -200.5q0 -155 -95.5 -280.5t-251.5 -153.5l66 -61q31 -29 58 -41t67 -13l-3 -17q-54 -52 -137 -52q-103 0 -155 97l-45 85q-105 20 -164 95t-59 179q0 84 30.5 163t84.5 141t135.5 100t176.5 38zM460 664q-50 0 -93.5 -49.5t-69.5 -123
t-41 -150t-15 -137.5q0 -174 93 -174q50 0 93.5 51t70 125.5t41.5 152.5t15 139q0 166 -94 166z" />
    <glyph glyph-name="R" unicode="R" horiz-adv-x="747" 
d="M408 653h-26l-65 -310h28q80 0 131.5 48.5t51.5 144.5q0 53 -29.5 85t-90.5 32zM306 293l-39 -184q-9 -39 0.5 -50.5t57.5 -16.5l-8 -42h-341l9 42q51 5 64.5 16t22.5 51l103 484q8 39 -1.5 50.5t-57.5 16.5l10 42h368q114 0 170.5 -47.5t56.5 -121.5q0 -45 -20 -83.5
t-52 -63.5t-64 -40.5t-64 -23.5l98 -199q23 -47 40 -63.5t50 -17.5l-8 -42h-218q-32 29 -61 106l-75 187h-41z" />
    <glyph glyph-name="S" unicode="S" horiz-adv-x="586" 
d="M548 235q0 -116 -86.5 -180.5t-218.5 -64.5q-78 0 -142 25.5t-99 58.5l32 170h46q1 -93 47 -148t127 -55q54 0 88 28t34 80q0 40 -28.5 65.5t-100.5 61.5q-77 37 -118 82.5t-41 115.5q0 108 77.5 173t206.5 65q68 0 126.5 -21.5t92.5 -52.5l-31 -151h-45
q0 82 -38.5 129.5t-114.5 47.5q-48 0 -77 -29t-29 -76q0 -40 23.5 -64t84.5 -54q88 -43 136 -89t48 -117z" />
    <glyph glyph-name="T" unicode="T" horiz-adv-x="719" 
d="M544 661l-118 -555q-9 -38 4.5 -48t65.5 -16l-10 -42h-361l10 42q54 5 70.5 15.5t24.5 48.5l118 555h-33q-46 0 -83 -39.5t-126 -170.5h-44l69 251h648l-39 -251h-41q-33 138 -45 164q-28 43 -67 46h-43z" />
    <glyph glyph-name="U" unicode="U" horiz-adv-x="754" 
d="M605 266l70 327q8 39 -5.5 50.5t-72.5 16.5l10 42h230l-9 -42q-50 -5 -64.5 -16t-22.5 -51l-74 -346q-53 -257 -313 -257q-145 0 -216.5 80.5t-42.5 214.5l66 308q8 39 -1 50.5t-57 16.5l9 42h341l-10 -42q-50 -5 -64 -16.5t-22 -50.5l-68 -317q-19 -88 13 -145t115 -57
q74 0 120 44.5t68 147.5z" />
    <glyph glyph-name="V" unicode="V" horiz-adv-x="715" 
d="M423 227l213 349q23 36 23 54q0 15 -14.5 22t-53.5 8l10 42h209l-9 -42q-48 -6 -67 -37l-392 -627h-56l-145 627q-4 19 -15 26.5t-35 10.5l9 42h338l-9 -42q-48 -2 -67.5 -12.5t-19.5 -36.5q0 -15 5 -35z" />
    <glyph glyph-name="W" unicode="W" horiz-adv-x="983" 
d="M700 567l35 -314l169 306q25 44 25 68q0 16 -12 24t-48 9l9 42h201l-10 -42q-48 -6 -66 -37l-355 -627h-58l-52 399l-232 -399h-59l-106 627q-5 30 -50 37l9 42h316l-9 -42q-36 -3 -50 -15t-14 -38q0 -20 4 -40l50 -317l130 225l-19 148q-4 31 -43 37l10 42h295l-9 -42
q-37 -3 -50.5 -15t-13.5 -40q0 -19 3 -38z" />
    <glyph glyph-name="X" unicode="X" horiz-adv-x="726" 
d="M401 117l-77 168l-177 -178q-19 -22 -19 -35q0 -29 72 -30l-9 -42h-241l8 42q50 6 79 35l263 260l-131 288q-12 29 -54 35l9 42h336l-9 -42q-63 0 -63 -33q0 -12 12 -43l54 -122l133 133q19 22 19 36q0 28 -61 29l9 42h230l-8 -42q-52 -6 -81 -35l-218 -214l146 -326
q10 -21 23.5 -30.5t35.5 -12.5l-8 -42h-348l8 42q27 1 41.5 3t26 10t11.5 22q0 15 -12 40z" />
    <glyph glyph-name="Y" unicode="Y" horiz-adv-x="694" 
d="M455 263l-34 -157q-8 -38 5 -48t65 -16l-9 -42h-356l9 42q54 5 70.5 15.5t24.5 48.5l33 152l-122 365q-6 20 -16.5 27t-33.5 10l9 42h334l-10 -42q-42 -1 -60 -12t-18 -35q0 -15 12 -53l79 -231l168 236q34 48 34 65q0 29 -64 30l10 42h204l-9 -42q-44 -6 -66 -37z" />
    <glyph glyph-name="Z" unicode="Z" horiz-adv-x="646" 
d="M204 47h126q62 0 107.5 35t134.5 149h44l-85 -231h-563l7 35l490 620h-117q-66 0 -100 -31t-105 -139h-42l55 217h547l-8 -35z" />
    <glyph glyph-name="bracketleft" unicode="[" horiz-adv-x="336" 
d="M295 671l-151 -713q-8 -37 10 -46.5t82 -13.5l-8 -39h-218l193 911h218l-8 -39q-66 -4 -88 -13.5t-30 -46.5z" />
    <glyph glyph-name="backslash" unicode="\" horiz-adv-x="362" 
d="M212 -141l-84 911h72l84 -911h-72z" />
    <glyph glyph-name="bracketright" unicode="]" horiz-adv-x="336" 
d="M74 -42l151 713q8 37 -10 46.5t-82 13.5l9 39h218l-193 -911h-218l7 39q67 4 88.5 13.5t29.5 46.5z" />
    <glyph glyph-name="asciicircum" unicode="^" horiz-adv-x="469" 
d="M379 770l104 -290h-68l-81 236l-181 -236h-75l226 290h75z" />
    <glyph glyph-name="underscore" unicode="_" horiz-adv-x="414" 
d="M321 -141h-373l14 75h374z" />
    <glyph glyph-name="grave" unicode="`" horiz-adv-x="473" 
d="M152 765h166l29 -164h-50l-145 155v9z" />
    <glyph glyph-name="a" unicode="a" horiz-adv-x="656" 
d="M235 114q41 0 99.5 99t99.5 249q-4 19 -17.5 31t-32.5 12q-46 0 -90 -53t-69.5 -129t-25.5 -144q0 -65 36 -65zM338 85q0 35 27 127q-54 -108 -108.5 -165t-119.5 -57q-57 0 -89.5 42.5t-32.5 117.5q0 94 44.5 185.5t126 152.5t176.5 61q75 0 124 -51l114 52h37l-39 -134
l-67 -272q-8 -36 -8 -41q0 -15 14 -15q24 0 81 71l24 -21q-56 -78 -101 -113t-100 -35q-48 0 -75.5 25.5t-27.5 69.5z" />
    <glyph glyph-name="b" unicode="b" horiz-adv-x="632" 
d="M361 783l-118 -485q52 107 120 179t140 72q115 0 115 -155q0 -162 -106.5 -283t-253.5 -121q-77 0 -146 33t-96 87l140 571l-51 28l6 30l220 44h30zM397 426q-30 0 -73 -54t-80.5 -137t-53.5 -161q4 -20 19 -31.5t35 -11.5q46 0 90 58t69 135.5t26 142.5q0 59 -32 59z
" />
    <glyph glyph-name="c" unicode="c" horiz-adv-x="477" 
d="M339 509q-34 0 -66 -46.5t-51.5 -115t-19.5 -131.5q0 -128 80 -128q61 0 130 79l22 -21q-43 -73 -103 -114.5t-131 -41.5q-82 0 -131.5 53t-49.5 143t43.5 173t122.5 136.5t172 53.5q62 0 99.5 -24.5t37.5 -73.5q0 -31 -19 -53t-51 -31h-51q10 55 3.5 98.5t-37.5 43.5z
" />
    <glyph glyph-name="d" unicode="d" horiz-adv-x="662" 
d="M235 114q41 0 100.5 100t99.5 248q-4 19 -17 31t-32 12q-47 0 -91.5 -53.5t-70 -129t-25.5 -141.5q0 -67 36 -67zM452 526l36 155l-51 28l6 30l220 44h30l-154 -639q-9 -32 -9 -41q0 -15 14 -15q25 0 81 71l24 -21q-57 -79 -101 -113.5t-100 -34.5q-48 0 -75.5 25.5
t-27.5 69.5q0 42 28 129q-114 -224 -236 -224q-57 0 -89.5 42.5t-32.5 117.5q0 94 44.5 185.5t125.5 152.5t175 61q55 0 92 -23z" />
    <glyph glyph-name="e" unicode="e" horiz-adv-x="502" 
d="M510 434q0 -41 -22.5 -72.5t-66.5 -53.5t-96.5 -36.5t-124.5 -25.5v-19q0 -67 27.5 -101t77.5 -34q71 0 143 81l23 -21q-105 -162 -262 -162q-84 0 -136.5 55t-52.5 146q0 140 99 249t241 109q74 0 112 -32.5t38 -82.5zM344 509q-45 0 -86 -72t-54 -158q175 42 175 182
q0 48 -35 48z" />
    <glyph glyph-name="f" unicode="f" horiz-adv-x="366" 
d="M40 472l9 39l75 18q31 113 99.5 183.5t171.5 70.5q59 0 97 -22.5t38 -68.5q0 -53 -55 -72h-79q19 120 -21 120q-32 0 -48.5 -63.5t-14.5 -151.5h109l-13 -53h-102l-58 -260q-51 -227 -127.5 -330t-184.5 -103q-58 0 -95 22.5t-37 60.5q0 35 22.5 55.5t56.5 23.5h33
q-7 -121 34 -121q24 0 40 52q8 30 32 150l89 450h-71z" />
    <glyph glyph-name="g" unicode="g" horiz-adv-x="536" 
d="M512 391q0 -94 -79.5 -150t-194.5 -56q-49 0 -85 13q-23 -14 -23 -32q0 -19 29 -24l182 -42q150 -31 150 -128q0 -90 -89.5 -143t-225.5 -53q-107 0 -184.5 37t-77.5 101q0 43 43 65.5t98 25.5q-37 31 -37 79q0 79 107 126q-80 42 -80 136q0 91 79 147t193 56
q43 0 87 -17l191 6l-22 -69h-45l-48 8q32 -40 32 -86zM278 -70l-201 53q-51 -22 -51 -68q0 -41 43.5 -67t114.5 -26q67 0 108 17.5t41 47.5q0 18 -12.5 26.5t-42.5 16.5zM345 437q0 71 -36 71q-37 0 -67.5 -65.5t-30.5 -147.5q0 -72 35 -72q38 0 68.5 66t30.5 148z" />
    <glyph glyph-name="h" unicode="h" horiz-adv-x="646" 
d="M370 783l-116 -478q58 117 129.5 180.5t142.5 63.5q39 0 60 -22.5t21 -61.5q0 -23 -8 -55l-73 -266q-9 -32 -9 -41q0 -15 14 -15q25 0 81 71l24 -21q-57 -79 -101 -113.5t-100 -34.5q-48 0 -75.5 26t-27.5 66q0 32 15 82l62 210q6 22 6 32q0 19 -17 19q-34 0 -94.5 -89
t-88.5 -200l-35 -136h-182l167 681l-51 28l6 30l220 44h30z" />
    <glyph glyph-name="i" unicode="i" horiz-adv-x="344" 
d="M253 592q-43 0 -69 25.5t-26 62.5q0 41 28 69.5t74 28.5q43 0 69 -25t26 -62q0 -41 -28 -70t-74 -29zM38 164l70 276l-53 39l6 27l227 43h31l-102 -405q-8 -29 -8 -41q0 -15 14 -15q24 0 81 71l24 -21q-56 -78 -101 -113t-101 -35q-47 0 -73 26t-26 66q0 35 11 82z" />
    <glyph glyph-name="j" unicode="j" horiz-adv-x="312" 
d="M320 549l-111 -447q-42 -167 -113.5 -245t-181.5 -78q-59 0 -95.5 22t-36.5 62q0 34 22.5 54.5t56.5 23.5h32q-3 -121 34 -121q22 0 34.5 33t35.5 128q4 16 6 25l105 434l-53 39l7 27l226 43h32zM251 592q-42 0 -68 25.5t-26 62.5q0 41 28 69.5t74 28.5q42 0 68 -25
t26 -62q0 -41 -28 -70t-74 -29z" />
    <glyph glyph-name="k" unicode="k" horiz-adv-x="622" 
d="M389 372l90 -212q13 -30 21.5 -41.5t21.5 -11.5q22 0 64 51l23 -20q-54 -78 -96.5 -113t-90.5 -35q-38 0 -60.5 23t-40.5 71l-65 188l178 209q30 35 56.5 51.5t58.5 16.5q39 0 61 -23.5t22 -58.5q0 -71 -79 -97h-11q3 34 -11 54.5t-43 20.5q-23 0 -39 -11.5t-40 -39.5z
M180 0h-182l168 681l-52 28l6 30l220 44h30z" />
    <glyph glyph-name="l" unicode="l" horiz-adv-x="333" 
d="M363 783l-154 -639q-8 -36 -8 -41q0 -15 14 -15q24 0 81 71l24 -21q-56 -78 -101 -113t-100 -35q-48 0 -73.5 26t-25.5 66q0 39 10 82l129 517l-52 28l6 30l220 44h30z" />
    <glyph glyph-name="m" unicode="m" horiz-adv-x="958" 
d="M526 549q39 0 59.5 -22.5t20.5 -61.5t-36 -159q59 118 128 180.5t140 62.5q40 0 61 -22.5t21 -61.5q0 -19 -9 -55l-73 -266q-8 -29 -8 -41q0 -15 14 -15q24 0 81 71l24 -21q-56 -78 -101 -113t-101 -35q-48 0 -75.5 26t-27.5 66q0 32 15 82l62 210q6 22 6 32q0 19 -17 19
q-33 0 -90.5 -89.5t-85.5 -199.5l-36 -136h-182l93 374q6 22 6 32q0 19 -17 19q-33 0 -91 -89.5t-86 -199.5l-35 -136h-182l110 440l-53 39l6 27l228 43h31l-68 -243q59 118 128 180.5t140 62.5z" />
    <glyph glyph-name="n" unicode="n" horiz-adv-x="652" 
d="M326 549l-68 -245q59 117 131 181t143 64q39 0 60 -22.5t21 -61.5q0 -23 -8 -55l-73 -266q-8 -29 -8 -41q0 -15 14 -15q24 0 81 71l24 -21q-56 -78 -101 -113t-101 -35q-48 0 -75.5 26t-27.5 66q0 32 15 82l62 210q6 22 6 32q0 19 -17 19q-34 0 -94 -89t-89 -200
l-35 -136h-182l110 440l-53 39l6 27l228 43h31z" />
    <glyph glyph-name="o" unicode="o" horiz-adv-x="577" 
d="M194 114q0 -83 40 -83q34 0 70 69t57.5 161t21.5 163q0 84 -40 84q-34 0 -70 -69t-57.5 -161t-21.5 -164zM558 341q0 -140 -95 -245.5t-232 -105.5q-96 0 -154 55t-58 153q0 91 42.5 171.5t118.5 130t166 49.5q96 0 154 -55t58 -153z" />
    <glyph glyph-name="p" unicode="p" horiz-adv-x="643" 
d="M326 549l-72 -251q53 108 120 179.5t140 71.5q114 0 114 -155q0 -105 -47.5 -198.5t-125 -149.5t-162.5 -56q-70 0 -98 43l-41 -158q-4 -11 -4 -19q0 -16 16 -21.5t60 -7.5l-7 -39h-320l8 39q32 2 45 9.5t18 29.5l144 574l-53 39l7 27l227 43h31zM407 426q-29 0 -71 -52
t-79 -132.5t-52 -156.5q12 -42 56 -42t86.5 54.5t67 130t24.5 139.5q0 59 -32 59z" />
    <glyph glyph-name="q" unicode="q" horiz-adv-x="628" 
d="M602 416l-137 -545q-4 -12 -4 -18q0 -14 11.5 -18.5t39.5 -7.5l-8 -39h-315l8 39q48 4 63.5 11t22.5 32l89 343q-112 -223 -235 -223q-57 0 -89.5 42.5t-32.5 117.5q0 94 44.5 185.5t125.5 152.5t175 61q85 0 132 -51l112 52h38zM235 114q41 0 100.5 100t99.5 248
q-4 19 -17 31t-32 12q-47 0 -91.5 -53.5t-70 -129t-25.5 -141.5q0 -67 36 -67z" />
    <glyph glyph-name="r" unicode="r" horiz-adv-x="493" 
d="M326 549l-42 -149l-47 -147q85 175 129.5 235.5t94.5 60.5q34 0 53.5 -21.5t19.5 -56.5q0 -44 -27 -79.5t-67 -52.5h-8q0 48 -39 48q-58 0 -114 -107t-93 -280h-182l110 440l-53 39l6 27l228 43h31z" />
    <glyph glyph-name="s" unicode="s" horiz-adv-x="453" 
d="M209 30q25 0 39.5 12.5t14.5 34.5q0 20 -20.5 44.5t-49.5 50t-58.5 53t-50 63t-20.5 71.5q0 78 64.5 134t159.5 56q66 0 109 -25.5t43 -73.5q0 -28 -22 -47.5t-50 -25.5h-9q-12 55 -42.5 92.5t-71.5 37.5q-23 0 -36.5 -12.5t-13.5 -34.5q0 -17 21.5 -41t52.5 -50.5
t62 -55t52.5 -64.5t21.5 -70q0 -81 -66.5 -135t-159.5 -54q-83 0 -135 32t-52 85q0 62 72 87h8q15 -76 50.5 -120t86.5 -44z" />
    <glyph glyph-name="t" unicode="t" horiz-adv-x="399" 
d="M298 472l-77 -310q-8 -32 -8 -50q0 -29 25 -29q45 0 121 88l25 -19q-117 -162 -235 -162q-53 0 -84.5 31t-31.5 77q0 26 9 71l76 303h-62l9 35q66 21 132.5 67.5t107.5 98.5h42l-36 -148h110l-13 -53h-110z" />
    <glyph glyph-name="u" unicode="u" horiz-adv-x="654" 
d="M409 404l31 126l187 9l-99 -395q-8 -32 -8 -41q0 -15 14 -15q24 0 81 71l24 -21q-56 -78 -101 -113t-101 -35q-48 0 -75.5 25.5t-27.5 69.5q0 31 28 130q-112 -225 -237 -225q-46 0 -72 28t-26 72q0 24 8 58l73 292l-53 39l6 27l228 43h31l-96 -378q-8 -30 -8 -42
q0 -20 18 -20q34 0 90 91t85 204z" />
    <glyph glyph-name="v" unicode="v" horiz-adv-x="522" 
d="M77 447l-55 37l7 23l204 42h18l29 -396l66 77q68 78 68 152q0 42 -24.5 63t-67.5 20l1 14q43 70 119 70q47 0 70 -28.5t23 -71.5q0 -52 -35 -104t-103 -123l-222 -226h-52z" />
    <glyph glyph-name="w" unicode="w" horiz-adv-x="788" 
d="M359 447l-50 35l7 23l199 44h18l26 -382l54 63q67 78 67 152q0 42 -25 63t-68 20l2 14q43 70 119 70q47 0 69.5 -28.5t22.5 -71.5q0 -36 -22 -78t-44.5 -69.5t-70.5 -79.5l-210 -226h-48l-26 248l-208 -248h-48l-46 451l-55 37l7 23l204 42h18l27 -371l96 116z" />
    <glyph glyph-name="x" unicode="x" horiz-adv-x="570" 
d="M160 165l39 74l-55 205l-75 41l7 24l207 41h18l46 -182l41 70q34 58 62 85t67 27q35 0 54 -21t19 -52q0 -64 -89 -97h-12q7 63 -31 63q-16 0 -29 -15.5t-36 -54.5l-33 -55l40 -154q5 -20 7 -26.5t6.5 -17t9.5 -13.5t12 -3q17 0 33.5 12t44.5 42l21 -19
q-57 -78 -104 -113.5t-94 -35.5q-40 0 -61.5 24.5t-34.5 74.5l-26 97l-46 -86q-31 -57 -63.5 -83.5t-73.5 -26.5q-33 0 -53.5 22t-20.5 54q0 40 25.5 64t61.5 34h12q-3 -30 6 -48t29 -18q21 0 34.5 13.5t34.5 53.5z" />
    <glyph glyph-name="y" unicode="y" horiz-adv-x="537" 
d="M70 447l-56 37l7 23l200 42h18l85 -451q0 1 1 2q61 85 83 142.5t22 117.5q0 55 -29 80.5t-75 24.5l2 14q43 70 115 70q50 0 76 -30.5t26 -78.5q0 -68 -50.5 -155t-150.5 -220q-118 -159 -194 -222.5t-155 -63.5q-46 0 -76 23.5t-30 66.5q0 32 21.5 56t56.5 34h17
q0 -103 76 -103q58 0 122 65z" />
    <glyph glyph-name="z" unicode="z" horiz-adv-x="514" 
d="M348 385h-182q-16 0 -26 -4t-15.5 -9.5t-17.5 -20.5l-23 -29l-19 6l79 246h23q3 -21 8 -30t16 -9h364v-21l-371 -323l91 -33q62 -17 88 -17q30 0 57 16t58 64l18 -10q-41 -129 -88 -178.5t-119 -49.5q-59 0 -147 44l-99 52l-30 -80q-47 -3 -47 31q0 25 25 47z" />
    <glyph glyph-name="braceleft" unicode="{" horiz-adv-x="367" 
d="M69 305l3 18q87 17 105 100l46 219q28 128 233 128l-6 -29q-89 -10 -107 -98l-45 -209q-11 -54 -46.5 -81t-96.5 -39q55 -12 79.5 -39.5t12.5 -80.5l-44 -208q-18 -87 65 -98l-5 -29q-107 0 -149.5 33t-29.5 95l47 218q17 83 -62 100z" />
    <glyph glyph-name="bar" unicode="|" horiz-adv-x="205" 
d="M254 770l-193 -911h-74l193 911h74z" />
    <glyph glyph-name="braceright" unicode="}" horiz-adv-x="375" 
d="M340 323l-4 -18q-87 -17 -104 -100l-46 -218q-28 -128 -233 -128l6 29q89 11 107 98l44 208q12 54 47.5 81t95.5 39q-55 12 -79 39t-13 81l45 209q18 87 -65 98l5 29q107 0 149.5 -33t29.5 -95l-46 -219q-18 -83 61 -100z" />
    <glyph glyph-name="asciitilde" unicode="~" horiz-adv-x="493" 
d="M432 396l31 -15q-45 -160 -143 -160q-31 0 -85.5 37t-81.5 37q-49 0 -91 -69l-31 15q46 160 142 160q31 0 86 -37t82 -37q49 0 91 69z" />
    <glyph glyph-name="uni00A0" unicode="&#xa0;" horiz-adv-x="171" 
 />
    <glyph glyph-name="exclamdown" unicode="&#xa1;" horiz-adv-x="293" 
d="M-52 -102l208 468h57l-26 -468h-239zM307 513q0 -41 -28 -70t-67 -29q-40 0 -68 29t-28 70q0 40 28 68.5t68 28.5q39 0 67 -28.5t28 -68.5z" />
    <glyph glyph-name="cent" unicode="&#xa2;" horiz-adv-x="511" 
d="M197 -116l22 106q-88 3 -143 59.5t-55 145.5q0 140 89.5 248t229.5 120l23 107h39l-23 -105q64 -2 104 -28t40 -73q0 -62 -65 -79h-52q21 121 -36 134l-94 -441q6 -1 17 -1q74 0 152 93l22 -18q-82 -143 -209 -160l-23 -108h-38zM191 206q0 -84 50 -115l90 426
q-63 -19 -101.5 -111t-38.5 -200z" />
    <glyph glyph-name="sterling" unicode="&#xa3;" horiz-adv-x="677" 
d="M92 348l10 43h101l17 74q56 247 297 247q77 0 127 -29.5t50 -79.5q0 -33 -19.5 -57t-50.5 -33h-92q30 58 30 106q0 57 -39 57q-26 0 -41 -23.5t-30 -70.5l-54 -191h135l-11 -43h-136l-13 -47q-12 -40 -26.5 -76t-23.5 -53l-9 -16q83 -34 161 -34q87 0 87 67q0 31 -31 53
l13 12q42 -12 70 -43.5t28 -76.5q0 -69 -46 -106.5t-121 -37.5q-42 0 -85 15t-66.5 30t-59.5 40q-28 -40 -74 -62.5t-93 -22.5q-56 0 -88.5 30t-32.5 77t32.5 76.5t78.5 29.5q34 0 71 -13l35 158h-101zM71 47q28 0 44.5 21t28.5 71q-29 22 -57 22q-65 0 -65 -64
q0 -22 13.5 -36t35.5 -14z" />
    <glyph glyph-name="currency" unicode="&#xa4;" horiz-adv-x="577" 
d="M101 543l34 30l62 -73q58 42 129 42t117 -44l83 75l27 -33l-84 -75q26 -40 26 -95q0 -87 -57 -150l64 -73l-34 -30l-63 73q-57 -42 -128 -42t-118 44l-82 -75l-27 33l83 74q-25 42 -25 96q0 86 56 150zM283 200q66 0 111.5 49t45.5 120q0 54 -33.5 88t-86.5 34
q-67 0 -112 -49.5t-45 -120.5q0 -54 33.5 -87.5t86.5 -33.5z" />
    <glyph glyph-name="yen" unicode="&#xa5;" horiz-adv-x="680" 
d="M100 343l9 45h89l-74 235q-6 20 -16.5 27t-33.5 10l9 42h326l-10 -42q-42 -1 -59.5 -12t-17.5 -35q0 -13 11 -53l72 -230l164 235q33 49 33 65q0 29 -64 30l10 42h205l-10 -42q-44 -6 -66 -37l-166 -235h103l-9 -45h-125l-56 -79h165l-10 -44h-165l-24 -114
q-8 -38 5.5 -48t64.5 -16l-9 -42h-348l10 42q54 5 70 15.5t25 48.5l24 114h-158l10 44h154l-25 79h-113z" />
    <glyph glyph-name="brokenbar" unicode="&#xa6;" horiz-adv-x="205" 
d="M254 770l-80 -376h-74l80 376h74zM140 235l-79 -376h-74l79 376h74z" />
    <glyph glyph-name="section" unicode="&#xa7;" horiz-adv-x="518" 
d="M427 142q0 -63 -21 -123.5t-60 -110t-100 -80t-135 -30.5q-62 0 -98.5 27t-36.5 74q0 56 66 78h81q-12 -24 -12 -56q0 -38 13.5 -63t41.5 -25q59 0 59 106q0 41 -22 92.5t-48 95.5t-48 109.5t-22 131.5q0 85 35.5 162t110 129.5t171.5 52.5q62 0 98.5 -27.5t36.5 -73.5
q0 -55 -66 -78h-82q13 23 13 56q0 38 -14 63t-42 25q-59 0 -59 -106q0 -41 22 -92.5t48 -95.5t48 -109.5t22 -131.5zM131 368q0 -56 22 -117.5t48 -107t48 -102t22 -102.5q0 -39 -12 -60q52 38 87 109t35 154q0 56 -22 117.5t-48 107t-48 102t-22 102.5q0 39 12 60
q-52 -38 -87 -109t-35 -154z" />
    <glyph glyph-name="dieresis" unicode="&#xa8;" 
d="M145 601q-37 0 -59.5 22.5t-22.5 55.5q0 36 24.5 62t63.5 26q36 0 58.5 -22.5t22.5 -55.5q0 -36 -24 -62t-63 -26zM346 601q-36 0 -58.5 22.5t-22.5 55.5q0 36 24 62t63 26q36 0 58.5 -22.5t22.5 -55.5q0 -37 -24 -62.5t-63 -25.5z" />
    <glyph glyph-name="copyright" unicode="&#xa9;" horiz-adv-x="796" 
d="M398 -10q-147 0 -241.5 95.5t-94.5 239.5q0 162 110 274.5t271 112.5q147 0 241.5 -95.5t94.5 -239.5q0 -162 -110 -274.5t-271 -112.5zM398 141q-82 0 -131.5 47.5t-49.5 121.5q0 108 74 181t182 73q82 0 131 -44l-21 -99h-34q-2 107 -70 107q-39 0 -72 -36t-50 -89
t-17 -107q0 -52 17.5 -85t54.5 -33q38 0 64 26t55 85h37l-25 -109q-65 -39 -145 -39zM398 25q145 0 244 102t99 250q0 128 -83.5 214t-214.5 86q-146 0 -244.5 -102t-98.5 -250q0 -128 83.5 -214t214.5 -86z" />
    <glyph glyph-name="ordfeminine" unicode="&#xaa;" horiz-adv-x="471" 
d="M225 426q30 0 66 67t53 156q-8 30 -33 30q-26 0 -52.5 -35t-42.5 -84t-16 -90q0 -44 25 -44zM371 674l88 39h32l-25 -87l-47 -173q-5 -18 -5 -27t8 -9q23 0 56 42l16 -14q-67 -97 -139 -97q-29 0 -47 18t-18 47q0 27 13 66h-2q-60 -131 -145 -131q-38 0 -61 29.5
t-23 80.5q0 95 64.5 174.5t151.5 79.5q54 0 83 -38z" />
    <glyph glyph-name="guillemotleft" unicode="&#xab;" horiz-adv-x="465" 
d="M27 273l1 6l231 200h46l-134 -203l47 -204h-46zM214 273l1 6l230 200h46l-134 -203l47 -204h-46z" />
    <glyph glyph-name="registered" unicode="&#xae;" horiz-adv-x="555" 
d="M334 585h-8l-21 -98h9q24 0 42 15.5t18 42.5q0 18 -10.5 29t-29.5 11zM242 608h113q42 0 63 -17.5t21 -46.5q0 -54 -66 -73l29 -58q10 -22 32 -24l-4 -18h-62q-14 9 -24 33l-29 62h-14l-12 -54q-3 -12 1 -17t19 -6l-4 -18h-114l5 18q17 0 22.5 5t8.5 20l32 146
q3 15 -0.5 20t-20.5 6zM311 257q-94 0 -154 60.5t-60 151.5q0 102 70 172.5t172 70.5q94 0 154 -60.5t60 -151.5q0 -102 -70 -172.5t-172 -70.5zM311 288q90 0 149.5 61t59.5 151q0 79 -50 130t-131 51q-90 0 -149.5 -61t-59.5 -151q0 -79 50 -130t131 -51z" />
    <glyph glyph-name="macron" unicode="&#xaf;" 
d="M97 625l19 86h286l-19 -86h-286z" />
    <glyph glyph-name="degree" unicode="&#xb0;" horiz-adv-x="283" 
d="M190 515q33 0 54 26t21 66q0 26 -14 43t-39 17q-34 0 -54.5 -26.5t-20.5 -66.5q0 -26 14 -42.5t39 -16.5zM186 469q-46 0 -75.5 29.5t-29.5 75.5q0 57 39 97.5t95 40.5q47 0 76 -29t29 -76q0 -57 -39 -97.5t-95 -40.5z" />
    <glyph glyph-name="plusminus" unicode="&#xb1;" horiz-adv-x="574" 
d="M322 607h67l-31 -143h188l-14 -66h-188l-30 -141h-67l30 141h-185l14 66h185zM36 137l14 67h441l-14 -67h-441z" />
    <glyph glyph-name="twosuperior" unicode="&#xb2;" horiz-adv-x="408" 
d="M175 397h114q28 0 43.5 8t37.5 35h24l-41 -137h-311l5 25q139 104 183.5 157.5t44.5 94.5q0 53 -53 53q-52 0 -95 -50l-19 19q26 47 70.5 77t104.5 30q51 0 83 -25.5t32 -73.5q0 -26 -13 -50.5t-27 -41t-50 -41t-53.5 -35t-65.5 -37.5q-9 -5 -14 -8z" />
    <glyph glyph-name="threesuperior" unicode="&#xb3;" horiz-adv-x="387" 
d="M266 533q46 -6 75 -31.5t29 -65.5q0 -62 -54.5 -98t-125.5 -36q-62 0 -100.5 23.5t-38.5 58.5q0 40 40 53h69q-10 -20 -10 -46q0 -25 11 -42.5t32 -17.5q28 0 45 26t17 65q0 33 -14.5 51.5t-41.5 18.5q-7 0 -23 -2l-4 22q52 19 76.5 39t24.5 49q0 18 -11.5 29t-32.5 11
q-49 0 -87 -45l-23 16q26 46 69.5 73.5t96.5 27.5q47 0 74.5 -20.5t27.5 -58.5q0 -41 -35 -67t-86 -33z" />
    <glyph glyph-name="acute" unicode="&#xb4;" 
d="M204 765h177v-8l-211 -156h-52z" />
    <glyph glyph-name="mu" unicode="&#xb5;" horiz-adv-x="657" 
d="M194 -4l-47 -183l-183 -10l160 637l-53 39l6 27l227 43h31l-96 -380q-7 -30 -7 -40q0 -20 18 -20q34 0 90 91t85 204l31 126l187 9l-99 -395q-8 -32 -8 -41q0 -15 14 -15q24 0 81 71l24 -21q-56 -78 -101 -113t-101 -35q-48 0 -75.5 25.5t-27.5 69.5q0 31 28 130
q-48 -97 -92 -149.5t-92 -69.5z" />
    <glyph glyph-name="paragraph" unicode="&#xb6;" horiz-adv-x="615" 
d="M221 -197l84 397q-99 0 -163 58.5t-64 149.5q0 123 94 208.5t240 85.5h284l-10 -40q-60 -1 -84 -16t-34 -66l-165 -777h-51l182 858h-80l-182 -858h-51zM313 239l91 425q-70 -7 -118 -85.5t-48 -175.5q0 -66 18 -113t57 -51z" />
    <glyph glyph-name="periodcentered" unicode="&#xb7;" horiz-adv-x="262" 
d="M30 304q0 44 29.5 73t71.5 29t71.5 -29t29.5 -73q0 -43 -29.5 -71.5t-71.5 -28.5t-71.5 28.5t-29.5 71.5z" />
    <glyph glyph-name="cedilla" unicode="&#xb8;" 
d="M155 -231l-9 35q54 0 85.5 14.5t31.5 35.5q0 18 -18.5 25t-57.5 9l60 120h37l-25 -48q94 -10 94 -79q0 -54 -56 -83t-142 -29z" />
    <glyph glyph-name="onesuperior" unicode="&#xb9;" horiz-adv-x="332" 
d="M295 712h33l-68 -320q-7 -32 2.5 -41t52.5 -11l-7 -34h-258l7 34q43 3 56 10.5t19 35.5l46 212h-68l7 31l27 6q57 11 86.5 26t64.5 51z" />
    <glyph glyph-name="ordmasculine" unicode="&#xba;" horiz-adv-x="406" 
d="M197 430q0 -55 25 -55q33 0 64.5 89.5t31.5 163.5q0 54 -26 54q-33 0 -64 -89t-31 -163zM439 574q0 -91 -64.5 -160t-154.5 -69q-64 0 -104 37t-40 101q0 91 64.5 160t154.5 69q64 0 104 -37t40 -101z" />
    <glyph glyph-name="guillemotright" unicode="&#xbb;" horiz-adv-x="465" 
d="M446 279l-1 -6l-230 -201h-46l134 204l-48 203h46zM260 279l-1 -6l-231 -201h-46l134 204l-47 203h46z" />
    <glyph glyph-name="onequarter" unicode="&#xbc;" horiz-adv-x="792" 
d="M424 143h131l36 166zM699 0h-227l6 34q35 2 46 9t17 32l7 30h-189l7 30l260 262h103l-54 -254h78l-8 -38h-78l-6 -30q-6 -25 2 -32t42 -9zM95 -10l604 722h57l-605 -722h-56zM295 712h33l-68 -320q-7 -32 2.5 -41t52.5 -11l-7 -34h-258l7 34q43 3 56 10.5t19 35.5l46 212
h-68l7 31l27 6q57 11 86.5 26t64.5 51z" />
    <glyph glyph-name="onehalf" unicode="&#xbd;" horiz-adv-x="805" 
d="M95 -10l604 722h57l-605 -722h-56zM295 712h33l-68 -320q-7 -32 2.5 -41t52.5 -11l-7 -34h-258l7 34q43 3 56 10.5t19 35.5l46 212h-68l7 31l27 6q57 11 86.5 26t64.5 51zM546 94h113q28 0 44 8t38 35h24l-41 -137h-311l5 25q139 104 183.5 157.5t44.5 94.5q0 53 -53 53
q-52 0 -95 -50l-19 19q58 106 175 106q52 0 83.5 -25t31.5 -73q0 -31 -13.5 -57.5t-52 -56t-59 -42.5t-81.5 -47q-11 -7 -17 -10z" />
    <glyph glyph-name="threequarters" unicode="&#xbe;" horiz-adv-x="798" 
d="M430 143h131l36 166zM705 0h-227l6 34q35 2 46 9t17 32l6 30h-188l7 30l260 262h103l-54 -254h78l-8 -38h-78l-7 -30q-5 -25 3 -32t42 -9zM101 -10l604 722h56l-605 -722h-55zM266 533q46 -6 75 -31.5t29 -65.5q0 -62 -54.5 -98t-125.5 -36q-62 0 -100.5 23.5t-38.5 58.5
q0 40 40 53h69q-10 -20 -10 -46q0 -25 11 -42.5t32 -17.5q28 0 45 26t17 65q0 33 -14.5 51.5t-41.5 18.5q-7 0 -23 -2l-4 22q52 19 76.5 39t24.5 49q0 18 -11.5 29t-32.5 11q-49 0 -87 -45l-23 16q26 46 69.5 73.5t96.5 27.5q47 0 74.5 -20.5t27.5 -58.5q0 -41 -35 -67
t-86 -33z" />
    <glyph glyph-name="questiondown" unicode="&#xbf;" horiz-adv-x="466" 
d="M226 126q-54 -31 -81.5 -60t-27.5 -72q0 -31 16 -49t46 -18q37 0 57 29t20 75q0 23 -5 48h122q27 -24 27 -59q0 -62 -60.5 -97t-150.5 -35q-102 0 -158 45.5t-56 121.5q0 67 38.5 110.5t112.5 78.5q62 29 91 52.5t29 55.5q0 10 -3 21h27q70 -32 70 -102q0 -44 -26 -76.5
t-88 -68.5zM394 513q0 -41 -28 -70t-67 -29q-40 0 -68 29t-28 70q0 40 28 68.5t68 28.5q39 0 67 -28.5t28 -68.5z" />
    <glyph glyph-name="Agrave" unicode="&#xc0;" horiz-adv-x="744" 
d="M439 125l-17 92h-254l-53 -91q-18 -31 -18 -47q0 -18 17.5 -26.5t56.5 -10.5l-9 -42h-216l9 42q47 5 66 37l323 542l-15 83h202l116 -625q3 -18 15.5 -26t35.5 -11l-9 -42h-346l9 42q45 2 67.5 12.5t22.5 39.5q0 18 -3 31zM362 548l-162 -277h212zM272 892h167l26 -149
h-50l-143 140v9z" />
    <glyph glyph-name="Aacute" unicode="&#xc1;" horiz-adv-x="744" 
d="M439 125l-17 92h-254l-53 -91q-18 -31 -18 -47q0 -18 17.5 -26.5t56.5 -10.5l-9 -42h-216l9 42q47 5 66 37l323 542l-15 83h202l116 -625q3 -18 15.5 -26t35.5 -11l-9 -42h-346l9 42q45 2 67.5 12.5t22.5 39.5q0 18 -3 31zM362 548l-162 -277h212zM493 892h178v-8
l-208 -141h-52z" />
    <glyph glyph-name="Acircumflex" unicode="&#xc2;" horiz-adv-x="744" 
d="M439 125l-17 92h-254l-53 -91q-18 -31 -18 -47q0 -18 17.5 -26.5t56.5 -10.5l-9 -42h-216l9 42q47 5 66 37l323 542l-15 83h202l116 -625q3 -18 15.5 -26t35.5 -11l-9 -42h-346l9 42q45 2 67.5 12.5t22.5 39.5q0 18 -3 31zM362 548l-162 -277h212zM532 896l80 -153h-55
l-102 70l-139 -70h-60l152 153h124z" />
    <glyph glyph-name="Atilde" unicode="&#xc3;" horiz-adv-x="744" 
d="M439 125l-17 92h-254l-53 -91q-18 -31 -18 -47q0 -18 17.5 -26.5t56.5 -10.5l-9 -42h-216l9 42q47 5 66 37l323 542l-15 83h202l116 -625q3 -18 15.5 -26t35.5 -11l-9 -42h-346l9 42q45 2 67.5 12.5t22.5 39.5q0 18 -3 31zM510 743q-33 0 -71.5 30t-58.5 30
q-32 0 -71 -56l-34 20q35 70 64 102t67 32q33 0 71.5 -29.5t57.5 -29.5q33 0 71 55l34 -19q-34 -71 -63 -103t-67 -32zM362 548l-162 -277h212z" />
    <glyph glyph-name="Adieresis" unicode="&#xc4;" horiz-adv-x="744" 
d="M439 125l-17 92h-254l-53 -91q-18 -31 -18 -47q0 -18 17.5 -26.5t56.5 -10.5l-9 -42h-216l9 42q47 5 66 37l323 542l-15 83h202l116 -625q3 -18 15.5 -26t35.5 -11l-9 -42h-346l9 42q45 2 67.5 12.5t22.5 39.5q0 18 -3 31zM362 548l-162 -277h212zM352 740q-36 0 -59 23
t-23 55q0 36 24.5 62t63.5 26q36 0 58.5 -22.5t22.5 -55.5q0 -36 -24 -62t-63 -26zM557 740q-37 0 -59 22.5t-22 55.5q0 36 24 62t63 26q36 0 58 -22.5t22 -55.5q0 -37 -23.5 -62.5t-62.5 -25.5z" />
    <glyph glyph-name="Aring" unicode="&#xc5;" horiz-adv-x="744" 
d="M439 125l-17 92h-254l-53 -91q-18 -31 -18 -47q0 -18 17.5 -26.5t56.5 -10.5l-9 -42h-216l9 42q47 5 66 37l323 542l-15 83h202l116 -625q3 -18 15.5 -26t35.5 -11l-9 -42h-346l9 42q45 2 67.5 12.5t22.5 39.5q0 18 -3 31zM355 821q0 45 30.5 76.5t76.5 31.5
q44 0 71.5 -26.5t27.5 -67.5q0 -45 -30.5 -76.5t-76.5 -31.5q-44 0 -71.5 26.5t-27.5 67.5zM362 548l-162 -277h212zM508 833q0 21 -12.5 33.5t-34.5 12.5q-25 0 -39 -16t-14 -41q0 -21 12.5 -33t34.5 -12q25 0 39 16t14 40z" />
    <glyph glyph-name="AE" unicode="&#xc6;" horiz-adv-x="1037" 
d="M930 0h-579l10 42q50 5 64 16t22 51l30 139h-242l-101 -122q-22 -26 -22 -48q0 -18 18.5 -26t58.5 -10l-9 -42h-234l9 42q39 4 69 39l456 551q-24 20 -97 28l9 42h681l-37 -193h-35q-20 90 -42.5 118t-87.5 28h-112l-56 -265h95q33 0 50.5 19.5t35.5 72.5h44l-52 -240
h-43q5 53 -4.5 73t-42.5 20h-95l-47 -221q-9 -39 7 -53t59 -14h33q63 0 100.5 31t120.5 140h45zM561 639l-281 -337h208z" />
    <glyph glyph-name="Ccedilla" unicode="&#xc7;" horiz-adv-x="685" 
d="M211 -231l-9 35q54 0 85.5 14.5t31.5 35.5q0 18 -18.5 25t-57.5 9l52 106q-121 14 -189 91.5t-68 195.5q0 184 128 307.5t320 123.5q65 0 124.5 -17t94.5 -44l-34 -173h-45q-6 187 -133 187q-60 0 -111 -42.5t-81 -108t-46.5 -137.5t-16.5 -137q0 -199 123 -199
q132 0 234 213h55l-60 -202q-104 -62 -240 -62q-13 0 -19 1l-16 -31q94 -10 94 -79q0 -54 -56 -83t-142 -29z" />
    <glyph glyph-name="Egrave" unicode="&#xc8;" horiz-adv-x="663" 
d="M278 892h167l26 -149h-50l-143 140v9zM556 0h-580l9 42q51 5 64.5 16t22.5 51l103 484q8 39 -1.5 50.5t-57.5 16.5l10 42h573l-37 -193h-35q-20 90 -42.5 118t-87.5 28h-114l-56 -265h97q33 0 50.5 19.5t35.5 72.5h44l-52 -240h-43q5 53 -4.5 73t-42.5 20h-97l-47 -221
q-9 -39 7 -53t60 -14h34q63 0 100.5 31t120.5 140h45z" />
    <glyph glyph-name="Eacute" unicode="&#xc9;" horiz-adv-x="663" 
d="M500 892h178v-8l-208 -141h-52zM556 0h-580l9 42q51 5 64.5 16t22.5 51l103 484q8 39 -1.5 50.5t-57.5 16.5l10 42h573l-37 -193h-35q-20 90 -42.5 118t-87.5 28h-114l-56 -265h97q33 0 50.5 19.5t35.5 72.5h44l-52 -240h-43q5 53 -4.5 73t-42.5 20h-97l-47 -221
q-9 -39 7 -53t60 -14h34q63 0 100.5 31t120.5 140h45z" />
    <glyph glyph-name="Ecircumflex" unicode="&#xca;" horiz-adv-x="663" 
d="M556 0h-580l9 42q51 5 64.5 16t22.5 51l103 484q8 39 -1.5 50.5t-57.5 16.5l10 42h573l-37 -193h-35q-20 90 -42.5 118t-87.5 28h-114l-56 -265h97q33 0 50.5 19.5t35.5 72.5h44l-52 -240h-43q5 53 -4.5 73t-42.5 20h-97l-47 -221q-9 -39 7 -53t60 -14h34q63 0 100.5 31
t120.5 140h45zM537 896l80 -153h-55l-102 70l-139 -70h-60l152 153h124z" />
    <glyph glyph-name="Edieresis" unicode="&#xcb;" horiz-adv-x="663" 
d="M358 740q-36 0 -59 23t-23 55q0 36 24.5 62t63.5 26q36 0 58.5 -22.5t22.5 -55.5q0 -36 -24 -62t-63 -26zM563 740q-37 0 -59 22.5t-22 55.5q0 36 24 62t63 26q36 0 58 -22.5t22 -55.5q0 -37 -23.5 -62.5t-62.5 -25.5zM556 0h-580l9 42q51 5 64.5 16t22.5 51l103 484
q8 39 -1.5 50.5t-57.5 16.5l10 42h573l-37 -193h-35q-20 90 -42.5 118t-87.5 28h-114l-56 -265h97q33 0 50.5 19.5t35.5 72.5h44l-52 -240h-43q5 53 -4.5 73t-42.5 20h-97l-47 -221q-9 -39 7 -53t60 -14h34q63 0 100.5 31t120.5 140h45z" />
    <glyph glyph-name="Igrave" unicode="&#xcc;" horiz-adv-x="397" 
d="M72 109l103 484q8 39 -1.5 50.5t-57.5 16.5l10 42h341l-10 -42q-50 -5 -64 -16t-22 -51l-103 -484q-9 -39 0.5 -50.5t57.5 -16.5l-9 -42h-341l9 42q51 5 64.5 16t22.5 51zM135 892h167l26 -149h-50l-143 140v9z" />
    <glyph glyph-name="Iacute" unicode="&#xcd;" horiz-adv-x="397" 
d="M72 109l103 484q8 39 -1.5 50.5t-57.5 16.5l10 42h341l-10 -42q-50 -5 -64 -16t-22 -51l-103 -484q-9 -39 0.5 -50.5t57.5 -16.5l-9 -42h-341l9 42q51 5 64.5 16t22.5 51zM360 892h178v-8l-208 -141h-52z" />
    <glyph glyph-name="Icircumflex" unicode="&#xce;" horiz-adv-x="397" 
d="M72 109l103 484q8 39 -1.5 50.5t-57.5 16.5l10 42h341l-10 -42q-50 -5 -64 -16t-22 -51l-103 -484q-9 -39 0.5 -50.5t57.5 -16.5l-9 -42h-341l9 42q51 5 64.5 16t22.5 51zM395 896l80 -153h-55l-102 70l-139 -70h-60l152 153h124z" />
    <glyph glyph-name="Idieresis" unicode="&#xcf;" horiz-adv-x="397" 
d="M72 109l103 484q8 39 -1.5 50.5t-57.5 16.5l10 42h341l-10 -42q-50 -5 -64 -16t-22 -51l-103 -484q-9 -39 0.5 -50.5t57.5 -16.5l-9 -42h-341l9 42q51 5 64.5 16t22.5 51zM219 740q-37 0 -59.5 23t-22.5 55q0 36 24.5 62t63.5 26q36 0 58.5 -22.5t22.5 -55.5
q0 -36 -24 -62t-63 -26zM424 740q-37 0 -59 22.5t-22 55.5q0 36 24 62t63 26q36 0 58 -22.5t22 -55.5q0 -37 -23.5 -62.5t-62.5 -25.5z" />
    <glyph glyph-name="Eth" unicode="&#xd0;" horiz-adv-x="776" 
d="M50 325l13 62h68l44 206q8 39 -1.5 50.5t-57.5 16.5l10 42h309q152 0 247 -74t95 -209q0 -187 -134 -303t-331 -116h-336l9 42q51 5 64.5 16t22.5 51l46 216h-68zM316 47h7q68 0 128 60.5t93 153t33 188.5q0 105 -40.5 155.5t-132.5 50.5h-21l-57 -268h118l-13 -62h-118
l-44 -208q-9 -43 1.5 -56.5t45.5 -13.5z" />
    <glyph glyph-name="Ntilde" unicode="&#xd1;" horiz-adv-x="754" 
d="M558 743q-33 0 -71.5 30t-58.5 30q-32 0 -71 -56l-34 20q35 70 64 102t67 32q33 0 71.5 -29.5t57.5 -29.5q33 0 71 55l34 -19q-34 -71 -63 -103t-67 -32zM605 281l66 312q8 38 -9.5 50.5t-79.5 16.5l10 42h242l-10 -42q-50 -5 -64 -16t-22 -51l-126 -594h-68l-316 532
l-90 -422q-8 -38 10 -50.5t80 -16.5l-10 -42h-242l10 42q50 5 64 16t22 51l105 491q-17 33 -28.5 44.5t-34.5 15.5l9 42h240z" />
    <glyph glyph-name="Ograve" unicode="&#xd2;" horiz-adv-x="756" 
d="M319 892h167l26 -149h-50l-143 140v9zM465 712q134 0 213 -79.5t79 -200.5q0 -84 -30.5 -163t-84.5 -141t-135.5 -100t-176.5 -38q-134 0 -213 79.5t-79 200.5q0 84 30.5 163t84.5 141t135.5 100t176.5 38zM460 664q-50 0 -93.5 -49.5t-69.5 -123t-41 -150t-15 -137.5
q0 -166 94 -166q50 0 93.5 49.5t69.5 123t41 150t15 137.5q0 166 -94 166z" />
    <glyph glyph-name="Oacute" unicode="&#xd3;" horiz-adv-x="756" 
d="M543 892h178v-8l-208 -141h-52zM465 712q134 0 213 -79.5t79 -200.5q0 -84 -30.5 -163t-84.5 -141t-135.5 -100t-176.5 -38q-134 0 -213 79.5t-79 200.5q0 84 30.5 163t84.5 141t135.5 100t176.5 38zM460 664q-50 0 -93.5 -49.5t-69.5 -123t-41 -150t-15 -137.5
q0 -166 94 -166q50 0 93.5 49.5t69.5 123t41 150t15 137.5q0 166 -94 166z" />
    <glyph glyph-name="Ocircumflex" unicode="&#xd4;" horiz-adv-x="756" 
d="M465 712q134 0 213 -79.5t79 -200.5q0 -84 -30.5 -163t-84.5 -141t-135.5 -100t-176.5 -38q-134 0 -213 79.5t-79 200.5q0 84 30.5 163t84.5 141t135.5 100t176.5 38zM460 664q-50 0 -93.5 -49.5t-69.5 -123t-41 -150t-15 -137.5q0 -166 94 -166q50 0 93.5 49.5t69.5 123
t41 150t15 137.5q0 166 -94 166zM579 896l80 -153h-55l-102 70l-139 -70h-60l152 153h124z" />
    <glyph glyph-name="Otilde" unicode="&#xd5;" horiz-adv-x="756" 
d="M558 743q-33 0 -71.5 30t-58.5 30q-32 0 -71 -56l-34 20q35 70 64 102t67 32q33 0 71.5 -29.5t57.5 -29.5q33 0 71 55l34 -19q-34 -71 -63 -103t-67 -32zM465 712q134 0 213 -79.5t79 -200.5q0 -84 -30.5 -163t-84.5 -141t-135.5 -100t-176.5 -38q-134 0 -213 79.5
t-79 200.5q0 84 30.5 163t84.5 141t135.5 100t176.5 38zM460 664q-50 0 -93.5 -49.5t-69.5 -123t-41 -150t-15 -137.5q0 -166 94 -166q50 0 93.5 49.5t69.5 123t41 150t15 137.5q0 166 -94 166z" />
    <glyph glyph-name="Odieresis" unicode="&#xd6;" horiz-adv-x="756" 
d="M399 740q-37 0 -59.5 23t-22.5 55q0 36 24.5 62t63.5 26q36 0 58.5 -22.5t22.5 -55.5q0 -36 -24 -62t-63 -26zM604 740q-37 0 -59 22.5t-22 55.5q0 36 24 62t63 26q36 0 58 -22.5t22 -55.5q0 -37 -23.5 -62.5t-62.5 -25.5zM465 712q134 0 213 -79.5t79 -200.5
q0 -84 -30.5 -163t-84.5 -141t-135.5 -100t-176.5 -38q-134 0 -213 79.5t-79 200.5q0 84 30.5 163t84.5 141t135.5 100t176.5 38zM460 664q-50 0 -93.5 -49.5t-69.5 -123t-41 -150t-15 -137.5q0 -166 94 -166q50 0 93.5 49.5t69.5 123t41 150t15 137.5q0 166 -94 166z" />
    <glyph glyph-name="multiply" unicode="&#xd7;" horiz-adv-x="497" 
d="M219 365l-108 137l58 48l106 -139l167 139l38 -48l-167 -137l109 -137l-58 -46l-108 137l-166 -138l-37 47z" />
    <glyph glyph-name="Oslash" unicode="&#xd8;" horiz-adv-x="756" 
d="M723 697l-50 -59q84 -79 84 -206q0 -84 -30.5 -163t-84.5 -141t-135.5 -100t-176.5 -38q-100 0 -173 46l-59 -69l-36 29l59 69q-83 77 -83 205q0 84 30.5 163t84.5 141t135.5 100t176.5 38q98 0 171 -46l51 60zM332 38q50 0 94.5 49.5t72 122.5t43.5 150t16 138v6
l-316 -369q18 -97 90 -97zM463 664q-50 0 -94.5 -49.5t-72 -122.5t-43.5 -150t-16 -138v-4l315 369q-16 95 -89 95z" />
    <glyph glyph-name="Ugrave" unicode="&#xd9;" horiz-adv-x="754" 
d="M365 892h167l26 -149h-50l-143 140v9zM605 266l70 327q8 39 -5.5 50.5t-72.5 16.5l10 42h230l-9 -42q-50 -5 -64.5 -16t-22.5 -51l-74 -346q-53 -257 -313 -257q-145 0 -216.5 80.5t-42.5 214.5l66 308q8 39 -1 50.5t-57 16.5l9 42h341l-10 -42q-50 -5 -64 -16.5
t-22 -50.5l-68 -317q-19 -88 13 -145t115 -57q74 0 120 44.5t68 147.5z" />
    <glyph glyph-name="Uacute" unicode="&#xda;" horiz-adv-x="754" 
d="M586 892h178v-8l-208 -141h-52zM605 266l70 327q8 39 -5.5 50.5t-72.5 16.5l10 42h230l-9 -42q-50 -5 -64.5 -16t-22.5 -51l-74 -346q-53 -257 -313 -257q-145 0 -216.5 80.5t-42.5 214.5l66 308q8 39 -1 50.5t-57 16.5l9 42h341l-10 -42q-50 -5 -64 -16.5t-22 -50.5
l-68 -317q-19 -88 13 -145t115 -57q74 0 120 44.5t68 147.5z" />
    <glyph glyph-name="Ucircumflex" unicode="&#xdb;" horiz-adv-x="754" 
d="M605 266l70 327q8 39 -5.5 50.5t-72.5 16.5l10 42h230l-9 -42q-50 -5 -64.5 -16t-22.5 -51l-74 -346q-53 -257 -313 -257q-145 0 -216.5 80.5t-42.5 214.5l66 308q8 39 -1 50.5t-57 16.5l9 42h341l-10 -42q-50 -5 -64 -16.5t-22 -50.5l-68 -317q-19 -88 13 -145t115 -57
q74 0 120 44.5t68 147.5zM625 896l80 -153h-55l-102 70l-139 -70h-60l152 153h124z" />
    <glyph glyph-name="Udieresis" unicode="&#xdc;" horiz-adv-x="754" 
d="M445 740q-37 0 -59.5 23t-22.5 55q0 36 24.5 62t63.5 26q36 0 58.5 -22.5t22.5 -55.5q0 -36 -24 -62t-63 -26zM650 740q-37 0 -59 22.5t-22 55.5q0 36 24 62t63 26q36 0 58 -22.5t22 -55.5q0 -37 -23.5 -62.5t-62.5 -25.5zM605 266l70 327q8 39 -5.5 50.5t-72.5 16.5
l10 42h230l-9 -42q-50 -5 -64.5 -16t-22.5 -51l-74 -346q-53 -257 -313 -257q-145 0 -216.5 80.5t-42.5 214.5l66 308q8 39 -1 50.5t-57 16.5l9 42h341l-10 -42q-50 -5 -64 -16.5t-22 -50.5l-68 -317q-19 -88 13 -145t115 -57q74 0 120 44.5t68 147.5z" />
    <glyph glyph-name="Yacute" unicode="&#xdd;" horiz-adv-x="694" 
d="M455 263l-34 -157q-8 -38 5 -48t65 -16l-9 -42h-356l9 42q54 5 70.5 15.5t24.5 48.5l33 152l-122 365q-6 20 -16.5 27t-33.5 10l9 42h334l-10 -42q-42 -1 -60 -12t-18 -35q0 -15 12 -53l79 -231l168 236q34 48 34 65q0 29 -64 30l10 42h204l-9 -42q-44 -6 -66 -37z
M566 892h178v-8l-208 -141h-52z" />
    <glyph glyph-name="Thorn" unicode="&#xde;" horiz-adv-x="689" 
d="M356 527l-71 -332h23q78 0 132.5 52t54.5 147q0 62 -30.5 97.5t-87.5 35.5h-21zM371 593l-4 -19h73q113 0 179.5 -47.5t66.5 -132.5q0 -124 -95.5 -187.5t-250.5 -63.5h-66l-7 -31q-8 -39 13.5 -53t89.5 -17l-9 -42h-385l9 42q51 5 64.5 16t22.5 51l103 484
q8 39 -1.5 50.5t-57.5 16.5l10 42h341l-10 -42q-50 -5 -64 -16t-22 -51z" />
    <glyph glyph-name="germandbls" unicode="&#xdf;" horiz-adv-x="704" 
d="M478 30q53 0 53 50q0 21 -19 46t-45.5 50t-53.5 52t-46 61t-19 68q0 26 7.5 47t29.5 44.5t30 31t41 34.5q60 50 60 138q0 39 -20 64.5t-59 25.5q-77 0 -103 -127l-86 -403q-48 -227 -125.5 -330t-186.5 -103q-58 0 -95 22.5t-37 60.5q0 35 22.5 55.5t56.5 23.5h33
q-7 -123 33 -123q24 0 35.5 37.5t36.5 164.5l90 452h-71l9 39l75 18q31 111 110.5 182.5t198.5 71.5q89 0 148 -38t59 -98q0 -47 -26.5 -78.5t-82.5 -57.5q-18 -8 -27 -13.5t-16.5 -15.5t-7.5 -23q0 -19 30 -51.5t66 -64t66 -76.5t30 -87q0 -85 -65.5 -137.5t-159.5 -52.5
q-83 0 -135 32t-52 85q0 62 72 87h8q15 -76 51 -120t87 -44z" />
    <glyph glyph-name="agrave" unicode="&#xe0;" horiz-adv-x="656" 
d="M235 114q41 0 99.5 99t99.5 249q-4 19 -17.5 31t-32.5 12q-46 0 -90 -53t-69.5 -129t-25.5 -144q0 -65 36 -65zM338 85q0 35 27 127q-54 -108 -108.5 -165t-119.5 -57q-57 0 -89.5 42.5t-32.5 117.5q0 94 44.5 185.5t126 152.5t176.5 61q75 0 124 -51l114 52h37l-39 -134
l-67 -272q-8 -36 -8 -41q0 -15 14 -15q24 0 81 71l24 -21q-56 -78 -101 -113t-100 -35q-48 0 -75.5 25.5t-27.5 69.5zM280 765h166l29 -164h-50l-145 155v9z" />
    <glyph glyph-name="aacute" unicode="&#xe1;" horiz-adv-x="656" 
d="M235 114q41 0 99.5 99t99.5 249q-4 19 -17.5 31t-32.5 12q-46 0 -90 -53t-69.5 -129t-25.5 -144q0 -65 36 -65zM338 85q0 35 27 127q-54 -108 -108.5 -165t-119.5 -57q-57 0 -89.5 42.5t-32.5 117.5q0 94 44.5 185.5t126 152.5t176.5 61q75 0 124 -51l114 52h37l-39 -134
l-67 -272q-8 -36 -8 -41q0 -15 14 -15q24 0 81 71l24 -21q-56 -78 -101 -113t-100 -35q-48 0 -75.5 25.5t-27.5 69.5zM476 765h177v-8l-211 -156h-52z" />
    <glyph glyph-name="acircumflex" unicode="&#xe2;" horiz-adv-x="656" 
d="M235 114q41 0 99.5 99t99.5 249q-4 19 -17.5 31t-32.5 12q-46 0 -90 -53t-69.5 -129t-25.5 -144q0 -65 36 -65zM338 85q0 35 27 127q-54 -108 -108.5 -165t-119.5 -57q-57 0 -89.5 42.5t-32.5 117.5q0 94 44.5 185.5t126 152.5t176.5 61q75 0 124 -51l114 52h37l-39 -134
l-67 -272q-8 -36 -8 -41q0 -15 14 -15q24 0 81 71l24 -21q-56 -78 -101 -113t-100 -35q-48 0 -75.5 25.5t-27.5 69.5zM522 766l80 -170h-55l-102 85l-139 -85h-60l152 170h124z" />
    <glyph glyph-name="atilde" unicode="&#xe3;" horiz-adv-x="656" 
d="M235 114q41 0 99.5 99t99.5 249q-4 19 -17.5 31t-32.5 12q-46 0 -90 -53t-69.5 -129t-25.5 -144q0 -65 36 -65zM338 85q0 35 27 127q-54 -108 -108.5 -165t-119.5 -57q-57 0 -89.5 42.5t-32.5 117.5q0 94 44.5 185.5t126 152.5t176.5 61q75 0 124 -51l114 52h37l-39 -134
l-67 -272q-8 -36 -8 -41q0 -15 14 -15q24 0 81 71l24 -21q-56 -78 -101 -113t-100 -35q-48 0 -75.5 25.5t-27.5 69.5zM493 602q-33 0 -71.5 30t-58.5 30q-32 0 -71 -56l-34 20q35 70 64 102t67 32q33 0 71.5 -29.5t57.5 -29.5q33 0 71 55l34 -19q-34 -71 -63 -103t-67 -32z
" />
    <glyph glyph-name="adieresis" unicode="&#xe4;" horiz-adv-x="656" 
d="M235 114q41 0 99.5 99t99.5 249q-4 19 -17.5 31t-32.5 12q-46 0 -90 -53t-69.5 -129t-25.5 -144q0 -65 36 -65zM338 85q0 35 27 127q-54 -108 -108.5 -165t-119.5 -57q-57 0 -89.5 42.5t-32.5 117.5q0 94 44.5 185.5t126 152.5t176.5 61q75 0 124 -51l114 52h37l-39 -134
l-67 -272q-8 -36 -8 -41q0 -15 14 -15q24 0 81 71l24 -21q-56 -78 -101 -113t-100 -35q-48 0 -75.5 25.5t-27.5 69.5zM333 601q-37 0 -59.5 22.5t-22.5 55.5q0 36 24.5 62t63.5 26q36 0 58.5 -22.5t22.5 -55.5q0 -36 -24 -62t-63 -26zM534 601q-36 0 -58.5 22.5t-22.5 55.5
q0 36 24 62t63 26q36 0 58.5 -22.5t22.5 -55.5q0 -37 -24 -62.5t-63 -25.5z" />
    <glyph glyph-name="aring" unicode="&#xe5;" horiz-adv-x="656" 
d="M235 114q41 0 99.5 99t99.5 249q-4 19 -17.5 31t-32.5 12q-46 0 -90 -53t-69.5 -129t-25.5 -144q0 -65 36 -65zM338 85q0 35 27 127q-54 -108 -108.5 -165t-119.5 -57q-57 0 -89.5 42.5t-32.5 117.5q0 94 44.5 185.5t126 152.5t176.5 61q75 0 124 -51l114 52h37l-39 -134
l-67 -272q-8 -36 -8 -41q0 -15 14 -15q24 0 81 71l24 -21q-56 -78 -101 -113t-100 -35q-48 0 -75.5 25.5t-27.5 69.5zM486 684q0 21 -12.5 33.5t-34.5 12.5q-25 0 -39 -16.5t-14 -40.5q0 -21 12.5 -33.5t34.5 -12.5q25 0 39 16.5t14 40.5zM333 672q0 45 30.5 76.5t76.5 31.5
q44 0 71.5 -27t27.5 -68q0 -45 -30.5 -76.5t-76.5 -31.5q-44 0 -71.5 27t-27.5 68z" />
    <glyph glyph-name="ae" unicode="&#xe6;" horiz-adv-x="827" 
d="M372 549q84 0 135 -54q81 54 177 54q74 0 112.5 -32.5t38.5 -82.5q0 -41 -22.5 -72.5t-66.5 -53.5t-97 -36.5t-125 -25.5v-19q0 -66 28 -100.5t78 -34.5q70 0 142 81l23 -21q-105 -162 -261 -162q-80 0 -132 49.5t-58 132.5q-98 -182 -207 -182q-57 0 -89.5 42.5
t-32.5 117.5q0 70 27 141t73 128.5t113.5 93.5t143.5 36zM235 114q23 0 52.5 33t59.5 91q17 124 108 214q-26 55 -73 55q-45 0 -88.5 -53.5t-69 -130t-25.5 -144.5q0 -65 36 -65zM668 509q-44 0 -85.5 -72.5t-54.5 -157.5q175 42 175 182q0 48 -35 48z" />
    <glyph glyph-name="ccedilla" unicode="&#xe7;" horiz-adv-x="477" 
d="M65 -231l-9 35q54 0 85.5 14.5t31.5 35.5q0 18 -18.5 25t-57.5 9l54 108q-61 14 -96.5 64.5t-35.5 125.5q0 90 43.5 173t122.5 136.5t172 53.5q62 0 99.5 -24.5t37.5 -73.5q0 -31 -19 -53t-51 -31h-51q10 55 3.5 98.5t-37.5 43.5q-34 0 -66 -46.5t-51.5 -115
t-19.5 -131.5q0 -128 80 -128q61 0 130 79l22 -21q-43 -73 -103 -114.5t-131 -41.5q-10 0 -15 1l-16 -31q94 -10 94 -79q0 -54 -56 -83t-142 -29z" />
    <glyph glyph-name="egrave" unicode="&#xe8;" horiz-adv-x="502" 
d="M510 434q0 -41 -22.5 -72.5t-66.5 -53.5t-96.5 -36.5t-124.5 -25.5v-19q0 -67 27.5 -101t77.5 -34q71 0 143 81l23 -21q-105 -162 -262 -162q-84 0 -136.5 55t-52.5 146q0 140 99 249t241 109q74 0 112 -32.5t38 -82.5zM344 509q-45 0 -86 -72t-54 -158q175 42 175 182
q0 48 -35 48zM219 765h166l29 -164h-50l-145 155v9z" />
    <glyph glyph-name="eacute" unicode="&#xe9;" horiz-adv-x="502" 
d="M510 434q0 -41 -22.5 -72.5t-66.5 -53.5t-96.5 -36.5t-124.5 -25.5v-19q0 -67 27.5 -101t77.5 -34q71 0 143 81l23 -21q-105 -162 -262 -162q-84 0 -136.5 55t-52.5 146q0 140 99 249t241 109q74 0 112 -32.5t38 -82.5zM344 509q-45 0 -86 -72t-54 -158q175 42 175 182
q0 48 -35 48zM402 765h177v-8l-211 -156h-52z" />
    <glyph glyph-name="ecircumflex" unicode="&#xea;" horiz-adv-x="502" 
d="M510 434q0 -41 -22.5 -72.5t-66.5 -53.5t-96.5 -36.5t-124.5 -25.5v-19q0 -67 27.5 -101t77.5 -34q71 0 143 81l23 -21q-105 -162 -262 -162q-84 0 -136.5 55t-52.5 146q0 140 99 249t241 109q74 0 112 -32.5t38 -82.5zM455 766l80 -170h-55l-102 85l-139 -85h-60
l152 170h124zM344 509q-45 0 -86 -72t-54 -158q175 42 175 182q0 48 -35 48z" />
    <glyph glyph-name="edieresis" unicode="&#xeb;" horiz-adv-x="502" 
d="M510 434q0 -41 -22.5 -72.5t-66.5 -53.5t-96.5 -36.5t-124.5 -25.5v-19q0 -67 27.5 -101t77.5 -34q71 0 143 81l23 -21q-105 -162 -262 -162q-84 0 -136.5 55t-52.5 146q0 140 99 249t241 109q74 0 112 -32.5t38 -82.5zM344 509q-45 0 -86 -72t-54 -158q175 42 175 182
q0 48 -35 48zM277 601q-37 0 -59.5 22.5t-22.5 55.5q0 36 24.5 62t63.5 26q36 0 58.5 -22.5t22.5 -55.5q0 -36 -24 -62t-63 -26zM478 601q-36 0 -58.5 22.5t-22.5 55.5q0 36 24 62t63 26q36 0 58.5 -22.5t22.5 -55.5q0 -37 -24 -62.5t-63 -25.5z" />
    <glyph glyph-name="igrave" unicode="&#xec;" horiz-adv-x="344" 
d="M38 164l70 276l-53 39l6 27l227 43h31l-102 -405q-8 -29 -8 -41q0 -15 14 -15q24 0 81 71l24 -21q-56 -78 -101 -113t-101 -35q-47 0 -73 26t-26 66q0 35 11 82zM81 765h166l29 -164h-50l-145 155v9z" />
    <glyph glyph-name="iacute" unicode="&#xed;" horiz-adv-x="344" 
d="M292 765h177v-8l-211 -156h-52zM38 164l70 276l-53 39l6 27l227 43h31l-102 -405q-8 -29 -8 -41q0 -15 14 -15q24 0 81 71l24 -21q-56 -78 -101 -113t-101 -35q-47 0 -73 26t-26 66q0 35 11 82z" />
    <glyph glyph-name="icircumflex" unicode="&#xee;" horiz-adv-x="344" 
d="M336 766l80 -170h-55l-102 85l-139 -85h-60l152 170h124zM38 164l70 276l-53 39l6 27l227 43h31l-102 -405q-8 -29 -8 -41q0 -15 14 -15q24 0 81 71l24 -21q-56 -78 -101 -113t-101 -35q-47 0 -73 26t-26 66q0 35 11 82z" />
    <glyph glyph-name="idieresis" unicode="&#xef;" horiz-adv-x="344" 
d="M151 601q-37 0 -59.5 22.5t-22.5 55.5q0 36 24.5 62t63.5 26q36 0 58.5 -22.5t22.5 -55.5q0 -36 -24 -62t-63 -26zM352 601q-36 0 -58.5 22.5t-22.5 55.5q0 36 24 62t63 26q36 0 58.5 -22.5t22.5 -55.5q0 -37 -24 -62.5t-63 -25.5zM38 164l70 276l-53 39l6 27l227 43h31
l-102 -405q-8 -29 -8 -41q0 -15 14 -15q24 0 81 71l24 -21q-56 -78 -101 -113t-101 -35q-47 0 -73 26t-26 66q0 35 11 82z" />
    <glyph glyph-name="eth" unicode="&#xf0;" horiz-adv-x="577" 
d="M146 586l-12 42l166 53q-41 41 -118 78l21 28q107 -25 180 -80l133 43l12 -43l-104 -33q67 -64 100.5 -147t33.5 -167q0 -164 -96.5 -267t-236.5 -103q-87 0 -146.5 54t-59.5 151q0 141 94.5 247.5t233.5 106.5q9 0 25 -2q-12 55 -41 97zM383 433q0 44 -4 75q-14 4 -19 4
q-46 0 -86 -73t-60 -162t-20 -157q0 -89 39 -89q36 0 72 69t57 163t21 170z" />
    <glyph glyph-name="ntilde" unicode="&#xf1;" horiz-adv-x="652" 
d="M326 549l-68 -245q59 117 131 181t143 64q39 0 60 -22.5t21 -61.5q0 -23 -8 -55l-73 -266q-8 -29 -8 -41q0 -15 14 -15q24 0 81 71l24 -21q-56 -78 -101 -113t-101 -35q-48 0 -75.5 26t-27.5 66q0 32 15 82l62 210q6 22 6 32q0 19 -17 19q-34 0 -94 -89t-89 -200
l-35 -136h-182l110 440l-53 39l6 27l228 43h31zM479 602q-33 0 -71.5 30t-58.5 30q-32 0 -71 -56l-34 20q35 70 64 102t67 32q33 0 71.5 -29.5t57.5 -29.5q33 0 71 55l34 -19q-34 -71 -63 -103t-67 -32z" />
    <glyph glyph-name="ograve" unicode="&#xf2;" horiz-adv-x="577" 
d="M194 114q0 -83 40 -83q34 0 70 69t57.5 161t21.5 163q0 84 -40 84q-34 0 -70 -69t-57.5 -161t-21.5 -164zM558 341q0 -140 -95 -245.5t-232 -105.5q-96 0 -154 55t-58 153q0 91 42.5 171.5t118.5 130t166 49.5q96 0 154 -55t58 -153zM205 765h166l29 -164h-50l-145 155v9
z" />
    <glyph glyph-name="oacute" unicode="&#xf3;" horiz-adv-x="577" 
d="M416 765h177v-8l-211 -156h-52zM194 114q0 -83 40 -83q34 0 70 69t57.5 161t21.5 163q0 84 -40 84q-34 0 -70 -69t-57.5 -161t-21.5 -164zM558 341q0 -140 -95 -245.5t-232 -105.5q-96 0 -154 55t-58 153q0 91 42.5 171.5t118.5 130t166 49.5q96 0 154 -55t58 -153z" />
    <glyph glyph-name="ocircumflex" unicode="&#xf4;" horiz-adv-x="577" 
d="M459 766l80 -170h-55l-102 85l-139 -85h-60l152 170h124zM194 114q0 -83 40 -83q34 0 70 69t57.5 161t21.5 163q0 84 -40 84q-34 0 -70 -69t-57.5 -161t-21.5 -164zM558 341q0 -140 -95 -245.5t-232 -105.5q-96 0 -154 55t-58 153q0 91 42.5 171.5t118.5 130t166 49.5
q96 0 154 -55t58 -153z" />
    <glyph glyph-name="otilde" unicode="&#xf5;" horiz-adv-x="577" 
d="M194 114q0 -83 40 -83q34 0 70 69t57.5 161t21.5 163q0 84 -40 84q-34 0 -70 -69t-57.5 -161t-21.5 -164zM558 341q0 -140 -95 -245.5t-232 -105.5q-96 0 -154 55t-58 153q0 91 42.5 171.5t118.5 130t166 49.5q96 0 154 -55t58 -153zM433 602q-33 0 -71.5 30t-58.5 30
q-32 0 -71 -56l-34 20q35 70 64 102t67 32q33 0 71.5 -29.5t57.5 -29.5q33 0 71 55l34 -19q-34 -71 -63 -103t-67 -32z" />
    <glyph glyph-name="odieresis" unicode="&#xf6;" horiz-adv-x="577" 
d="M277 601q-37 0 -59.5 22.5t-22.5 55.5q0 36 24.5 62t63.5 26q36 0 58.5 -22.5t22.5 -55.5q0 -36 -24 -62t-63 -26zM478 601q-36 0 -58.5 22.5t-22.5 55.5q0 36 24 62t63 26q36 0 58.5 -22.5t22.5 -55.5q0 -37 -24 -62.5t-63 -25.5zM194 114q0 -83 40 -83q34 0 70 69
t57.5 161t21.5 163q0 84 -40 84q-34 0 -70 -69t-57.5 -161t-21.5 -164zM558 341q0 -140 -95 -245.5t-232 -105.5q-96 0 -154 55t-58 153q0 91 42.5 171.5t118.5 130t166 49.5q96 0 154 -55t58 -153z" />
    <glyph glyph-name="divide" unicode="&#xf7;" horiz-adv-x="574" 
d="M77 335l15 69h442l-15 -69h-442zM208 197q0 25 17.5 43t41.5 18t42 -18t18 -43q0 -24 -18 -41.5t-42 -17.5t-41.5 17.5t-17.5 41.5zM283 541q0 25 17 42t41 17t42 -17.5t18 -41.5t-18 -42t-42 -18t-41 18t-17 42z" />
    <glyph glyph-name="oslash" unicode="&#xf8;" horiz-adv-x="577" 
d="M231 -10q-73 0 -122 30l-49 -58l-34 25l49 59q-56 58 -56 152q0 91 42.5 171.5t118.5 130t166 49.5q72 0 124 -32l44 52l34 -24l-45 -54q55 -55 55 -150q0 -140 -95 -245.5t-232 -105.5zM343 508q-44 0 -88.5 -102.5t-60.5 -217.5l194 231v5q0 84 -45 84zM234 31
q43 0 87 100.5t60 214.5l-192 -230v-2q0 -83 45 -83z" />
    <glyph glyph-name="ugrave" unicode="&#xf9;" horiz-adv-x="654" 
d="M409 404l31 126l187 9l-99 -395q-8 -32 -8 -41q0 -15 14 -15q24 0 81 71l24 -21q-56 -78 -101 -113t-101 -35q-48 0 -75.5 25.5t-27.5 69.5q0 31 28 130q-112 -225 -237 -225q-46 0 -72 28t-26 72q0 24 8 58l73 292l-53 39l6 27l228 43h31l-96 -378q-8 -30 -8 -42
q0 -20 18 -20q34 0 90 91t85 204zM235 765h166l29 -164h-50l-145 155v9z" />
    <glyph glyph-name="uacute" unicode="&#xfa;" horiz-adv-x="654" 
d="M446 765h177v-8l-211 -156h-52zM409 404l31 126l187 9l-99 -395q-8 -32 -8 -41q0 -15 14 -15q24 0 81 71l24 -21q-56 -78 -101 -113t-101 -35q-48 0 -75.5 25.5t-27.5 69.5q0 31 28 130q-112 -225 -237 -225q-46 0 -72 28t-26 72q0 24 8 58l73 292l-53 39l6 27l228 43h31
l-96 -378q-8 -30 -8 -42q0 -20 18 -20q34 0 90 91t85 204z" />
    <glyph glyph-name="ucircumflex" unicode="&#xfb;" horiz-adv-x="654" 
d="M490 766l80 -170h-55l-102 85l-139 -85h-60l152 170h124zM409 404l31 126l187 9l-99 -395q-8 -32 -8 -41q0 -15 14 -15q24 0 81 71l24 -21q-56 -78 -101 -113t-101 -35q-48 0 -75.5 25.5t-27.5 69.5q0 31 28 130q-112 -225 -237 -225q-46 0 -72 28t-26 72q0 24 8 58
l73 292l-53 39l6 27l228 43h31l-96 -378q-8 -30 -8 -42q0 -20 18 -20q34 0 90 91t85 204z" />
    <glyph glyph-name="udieresis" unicode="&#xfc;" horiz-adv-x="654" 
d="M305 601q-37 0 -59.5 22.5t-22.5 55.5q0 36 24.5 62t63.5 26q36 0 58.5 -22.5t22.5 -55.5q0 -36 -24 -62t-63 -26zM506 601q-36 0 -58.5 22.5t-22.5 55.5q0 36 24 62t63 26q36 0 58.5 -22.5t22.5 -55.5q0 -37 -24 -62.5t-63 -25.5zM409 404l31 126l187 9l-99 -395
q-8 -32 -8 -41q0 -15 14 -15q24 0 81 71l24 -21q-56 -78 -101 -113t-101 -35q-48 0 -75.5 25.5t-27.5 69.5q0 31 28 130q-112 -225 -237 -225q-46 0 -72 28t-26 72q0 24 8 58l73 292l-53 39l6 27l228 43h31l-96 -378q-8 -30 -8 -42q0 -20 18 -20q34 0 90 91t85 204z" />
    <glyph glyph-name="yacute" unicode="&#xfd;" horiz-adv-x="537" 
d="M70 447l-56 37l7 23l200 42h18l85 -451q0 1 1 2q61 85 83 142.5t22 117.5q0 55 -29 80.5t-75 24.5l2 14q43 70 115 70q50 0 76 -30.5t26 -78.5q0 -68 -50.5 -155t-150.5 -220q-118 -159 -194 -222.5t-155 -63.5q-46 0 -76 23.5t-30 66.5q0 32 21.5 56t56.5 34h17
q0 -103 76 -103q58 0 122 65zM402 765h177v-8l-211 -156h-52z" />
    <glyph glyph-name="thorn" unicode="&#xfe;" horiz-adv-x="631" 
d="M392 426q-29 0 -71 -52t-79 -132.5t-52 -156.5q12 -42 55 -42q44 0 87 55t67 130t25 139q0 59 -32 59zM365 783l-126 -485q52 107 119.5 179t139.5 72q115 0 115 -155q0 -160 -102.5 -282t-233.5 -122q-71 0 -97 43l-42 -158q-3 -12 -3 -19q0 -16 16 -21.5t60 -7.5
l-8 -39h-319l8 39q32 2 44.5 9.5t18.5 29.5l205 815l-52 28l6 30l220 44h31z" />
    <glyph glyph-name="ydieresis" unicode="&#xff;" horiz-adv-x="537" 
d="M70 447l-56 37l7 23l200 42h18l85 -451q0 1 1 2q61 85 83 142.5t22 117.5q0 55 -29 80.5t-75 24.5l2 14q43 70 115 70q50 0 76 -30.5t26 -78.5q0 -68 -50.5 -155t-150.5 -220q-118 -159 -194 -222.5t-155 -63.5q-46 0 -76 23.5t-30 66.5q0 32 21.5 56t56.5 34h17
q0 -103 76 -103q58 0 122 65zM258 601q-36 0 -59 22.5t-23 55.5q0 36 24.5 62t63.5 26q36 0 58.5 -22.5t22.5 -55.5q0 -36 -24 -62t-63 -26zM459 601q-36 0 -58.5 22.5t-22.5 55.5q0 36 24 62t63 26q36 0 58.5 -22.5t22.5 -55.5q0 -37 -24 -62.5t-63 -25.5z" />
    <glyph glyph-name="Amacron" unicode="&#x100;" horiz-adv-x="744" 
d="M439 125l-17 92h-254l-53 -91q-18 -31 -18 -47q0 -18 17.5 -26.5t56.5 -10.5l-9 -42h-216l9 42q47 5 66 37l323 542l-15 83h202l116 -625q3 -18 15.5 -26t35.5 -11l-9 -42h-346l9 42q45 2 67.5 12.5t22.5 39.5q0 18 -3 31zM362 548l-162 -277h212zM297 751l19 86h290
l-19 -86h-290z" />
    <glyph glyph-name="amacron" unicode="&#x101;" horiz-adv-x="656" 
d="M235 114q41 0 99.5 99t99.5 249q-4 19 -17.5 31t-32.5 12q-46 0 -90 -53t-69.5 -129t-25.5 -144q0 -65 36 -65zM338 85q0 35 27 127q-54 -108 -108.5 -165t-119.5 -57q-57 0 -89.5 42.5t-32.5 117.5q0 94 44.5 185.5t126 152.5t176.5 61q75 0 124 -51l114 52h37l-39 -134
l-67 -272q-8 -36 -8 -41q0 -15 14 -15q24 0 81 71l24 -21q-56 -78 -101 -113t-100 -35q-48 0 -75.5 25.5t-27.5 69.5zM297 625l19 86h286l-19 -86h-286z" />
    <glyph glyph-name="Abreve" unicode="&#x102;" horiz-adv-x="744" 
d="M439 125l-17 92h-254l-53 -91q-18 -31 -18 -47q0 -18 17.5 -26.5t56.5 -10.5l-9 -42h-216l9 42q47 5 66 37l323 542l-15 83h202l116 -625q3 -18 15.5 -26t35.5 -11l-9 -42h-346l9 42q45 2 67.5 12.5t22.5 39.5q0 18 -3 31zM362 548l-162 -277h212zM440 740
q-66 0 -97 39.5t-14 116.5h45q-3 -37 19 -52t64 -15q89 0 116 67h48q-37 -156 -181 -156z" />
    <glyph glyph-name="abreve" unicode="&#x103;" horiz-adv-x="656" 
d="M235 114q41 0 99.5 99t99.5 249q-4 19 -17.5 31t-32.5 12q-46 0 -90 -53t-69.5 -129t-25.5 -144q0 -65 36 -65zM338 85q0 35 27 127q-54 -108 -108.5 -165t-119.5 -57q-57 0 -89.5 42.5t-32.5 117.5q0 94 44.5 185.5t126 152.5t176.5 61q75 0 124 -51l114 52h37l-39 -134
l-67 -272q-8 -36 -8 -41q0 -15 14 -15q24 0 81 71l24 -21q-56 -78 -101 -113t-100 -35q-48 0 -75.5 25.5t-27.5 69.5zM435 598q-69 0 -98 44t-10 124h46q-4 -41 18 -58t63 -17q90 0 116 75h47q-19 -81 -65.5 -124.5t-116.5 -43.5z" />
    <glyph glyph-name="Aogonek" unicode="&#x104;" horiz-adv-x="744" 
d="M439 125l-17 92h-254l-53 -91q-18 -31 -18 -47q0 -18 17.5 -26.5t56.5 -10.5l-9 -42h-216l9 42q47 5 66 37l323 542l-15 83h202l116 -625q3 -18 15.5 -26t35.5 -11l-9 -42h-310q-80 -45 -80 -103q0 -18 10.5 -29.5t30.5 -11.5q34 0 73 30l12 -20q-73 -81 -150 -81
q-38 0 -61.5 20t-23.5 57q0 53 39.5 91t118.5 72q7 3 20 8.5t19 8t15.5 7t14 7t10.5 7.5t8.5 9t4.5 10t2 12q0 18 -3 31zM362 548l-162 -277h212z" />
    <glyph glyph-name="aogonek" unicode="&#x105;" horiz-adv-x="656" 
d="M642 138q-37 -49 -91 -99.5t-82 -82t-28 -59.5q0 -18 11 -29.5t30 -11.5q35 0 74 30l12 -20q-73 -81 -151 -81q-37 0 -60.5 19.5t-23.5 53.5q0 73 105 132q-47 2 -73.5 27t-26.5 68q0 35 27 127q-54 -108 -108.5 -165t-119.5 -57q-57 0 -89.5 42.5t-32.5 117.5
q0 94 44.5 185.5t126 152.5t176.5 61q75 0 124 -51l114 52h37l-39 -134l-67 -272q-8 -36 -8 -41q0 -15 14 -15q24 0 81 71zM235 114q41 0 99.5 99t99.5 249q-4 19 -17.5 31t-32.5 12q-46 0 -90 -53t-69.5 -129t-25.5 -144q0 -65 36 -65z" />
    <glyph glyph-name="Cacute" unicode="&#x106;" horiz-adv-x="685" 
d="M486 712q65 0 124.5 -17t94.5 -44l-34 -173h-45q-6 187 -133 187q-60 0 -111 -42.5t-81 -108t-46.5 -137.5t-16.5 -137q0 -199 123 -199q132 0 234 213h55l-60 -202q-104 -62 -240 -62q-145 0 -228.5 80t-83.5 211q0 184 128 307.5t320 123.5zM559 892h178v-8l-208 -141
h-52z" />
    <glyph glyph-name="cacute" unicode="&#x107;" horiz-adv-x="477" 
d="M427 765h177v-8l-211 -156h-52zM339 509q-34 0 -66 -46.5t-51.5 -115t-19.5 -131.5q0 -128 80 -128q61 0 130 79l22 -21q-43 -73 -103 -114.5t-131 -41.5q-82 0 -131.5 53t-49.5 143t43.5 173t122.5 136.5t172 53.5q62 0 99.5 -24.5t37.5 -73.5q0 -31 -19 -53t-51 -31
h-51q10 55 3.5 98.5t-37.5 43.5z" />
    <glyph glyph-name="Ccircumflex" unicode="&#x108;" horiz-adv-x="685" 
d="M486 712q65 0 124.5 -17t94.5 -44l-34 -173h-45q-6 187 -133 187q-60 0 -111 -42.5t-81 -108t-46.5 -137.5t-16.5 -137q0 -199 123 -199q132 0 234 213h55l-60 -202q-104 -62 -240 -62q-145 0 -228.5 80t-83.5 211q0 184 128 307.5t320 123.5zM596 896l80 -153h-55
l-102 70l-139 -70h-60l152 153h124z" />
    <glyph glyph-name="ccircumflex" unicode="&#x109;" horiz-adv-x="477" 
d="M467 766l80 -170h-55l-102 85l-139 -85h-60l152 170h124zM339 509q-34 0 -66 -46.5t-51.5 -115t-19.5 -131.5q0 -128 80 -128q61 0 130 79l22 -21q-43 -73 -103 -114.5t-131 -41.5q-82 0 -131.5 53t-49.5 143t43.5 173t122.5 136.5t172 53.5q62 0 99.5 -24.5t37.5 -73.5
q0 -31 -19 -53t-51 -31h-51q10 55 3.5 98.5t-37.5 43.5z" />
    <glyph glyph-name="Cdotaccent" unicode="&#x10a;" horiz-adv-x="685" 
d="M519 741q-40 0 -64.5 24t-24.5 59q0 38 26.5 65t70.5 27q40 0 64.5 -23.5t24.5 -57.5q0 -39 -27 -66.5t-70 -27.5zM486 712q65 0 124.5 -17t94.5 -44l-34 -173h-45q-6 187 -133 187q-60 0 -111 -42.5t-81 -108t-46.5 -137.5t-16.5 -137q0 -199 123 -199q132 0 234 213h55
l-60 -202q-104 -62 -240 -62q-145 0 -228.5 80t-83.5 211q0 184 128 307.5t320 123.5z" />
    <glyph glyph-name="cdotaccent" unicode="&#x10b;" horiz-adv-x="477" 
d="M339 509q-34 0 -66 -46.5t-51.5 -115t-19.5 -131.5q0 -128 80 -128q61 0 130 79l22 -21q-43 -73 -103 -114.5t-131 -41.5q-82 0 -131.5 53t-49.5 143t43.5 173t122.5 136.5t172 53.5q62 0 99.5 -24.5t37.5 -73.5q0 -31 -19 -53t-51 -31h-51q10 55 3.5 98.5t-37.5 43.5z
M386 597q-40 0 -64.5 24t-24.5 59q0 38 26.5 65t70.5 27q40 0 64.5 -23.5t24.5 -58.5q0 -39 -27 -66t-70 -27z" />
    <glyph glyph-name="Ccaron" unicode="&#x10c;" horiz-adv-x="685" 
d="M486 712q65 0 124.5 -17t94.5 -44l-34 -173h-45q-6 187 -133 187q-60 0 -111 -42.5t-81 -108t-46.5 -137.5t-16.5 -137q0 -199 123 -199q132 0 234 213h55l-60 -202q-104 -62 -240 -62q-145 0 -228.5 80t-83.5 211q0 184 128 307.5t320 123.5zM445 744l-80 153h55
l102 -70l139 70h60l-152 -153h-124z" />
    <glyph glyph-name="ccaron" unicode="&#x10d;" horiz-adv-x="477" 
d="M312 600l-80 170h55l102 -85l139 85h60l-152 -170h-124zM339 509q-34 0 -66 -46.5t-51.5 -115t-19.5 -131.5q0 -128 80 -128q61 0 130 79l22 -21q-43 -73 -103 -114.5t-131 -41.5q-82 0 -131.5 53t-49.5 143t43.5 173t122.5 136.5t172 53.5q62 0 99.5 -24.5t37.5 -73.5
q0 -31 -19 -53t-51 -31h-51q10 55 3.5 98.5t-37.5 43.5z" />
    <glyph glyph-name="Dcaron" unicode="&#x10e;" horiz-adv-x="776" 
d="M400 744l-80 153h55l102 -70l139 70h60l-152 -153h-124zM316 47h7q68 0 128 60.5t93 153t33 188.5q0 105 -40.5 155.5t-132.5 50.5h-21l-114 -538q-9 -43 1.5 -56.5t45.5 -13.5zM312 0h-336l9 42q51 5 64.5 16t22.5 51l103 484q8 39 -1.5 50.5t-57.5 16.5l10 42h309
q152 0 247 -74t95 -209q0 -187 -134 -303t-331 -116z" />
    <glyph glyph-name="dcaron" unicode="&#x10f;" horiz-adv-x="662" 
d="M891 772l-158 -194h-40l56 205h144zM235 114q41 0 100.5 100t99.5 248q-4 19 -17 31t-32 12q-47 0 -91.5 -53.5t-70 -129t-25.5 -141.5q0 -67 36 -67zM452 526l36 155l-51 28l6 30l220 44h30l-154 -639q-9 -32 -9 -41q0 -15 14 -15q25 0 81 71l24 -21
q-57 -79 -101 -113.5t-100 -34.5q-48 0 -75.5 25.5t-27.5 69.5q0 42 28 129q-114 -224 -236 -224q-57 0 -89.5 42.5t-32.5 117.5q0 94 44.5 185.5t125.5 152.5t175 61q55 0 92 -23z" />
    <glyph glyph-name="Dcroat" unicode="&#x110;" horiz-adv-x="776" 
d="M50 325l13 62h68l44 206q8 39 -1.5 50.5t-57.5 16.5l10 42h309q152 0 247 -74t95 -209q0 -187 -134 -303t-331 -116h-336l9 42q51 5 64.5 16t22.5 51l46 216h-68zM316 47h7q68 0 128 60.5t93 153t33 188.5q0 105 -40.5 155.5t-132.5 50.5h-21l-57 -268h118l-13 -62h-118
l-44 -208q-9 -43 1.5 -56.5t45.5 -13.5z" />
    <glyph glyph-name="dcroat" unicode="&#x111;" horiz-adv-x="670" 
d="M452 526l14 63h-118l11 51h119l10 41l-51 28l6 30l220 44h30l-35 -143h62l-11 -51h-63l-107 -445q-9 -32 -9 -41q0 -15 14 -15q25 0 81 71l24 -21q-57 -79 -101 -113.5t-100 -34.5q-48 0 -75.5 25.5t-27.5 69.5q0 42 28 129q-114 -224 -236 -224q-57 0 -89.5 42.5
t-32.5 117.5q0 94 44.5 185.5t125.5 152.5t175 61q55 0 92 -23zM235 114q41 0 100.5 100t99.5 248q-4 19 -17 31t-32 12q-47 0 -91.5 -53.5t-70 -129t-25.5 -141.5q0 -67 36 -67z" />
    <glyph glyph-name="Emacron" unicode="&#x112;" horiz-adv-x="663" 
d="M303 751l19 86h290l-19 -86h-290zM556 0h-580l9 42q51 5 64.5 16t22.5 51l103 484q8 39 -1.5 50.5t-57.5 16.5l10 42h573l-37 -193h-35q-20 90 -42.5 118t-87.5 28h-114l-56 -265h97q33 0 50.5 19.5t35.5 72.5h44l-52 -240h-43q5 53 -4.5 73t-42.5 20h-97l-47 -221
q-9 -39 7 -53t60 -14h34q63 0 100.5 31t120.5 140h45z" />
    <glyph glyph-name="emacron" unicode="&#x113;" horiz-adv-x="502" 
d="M510 434q0 -41 -22.5 -72.5t-66.5 -53.5t-96.5 -36.5t-124.5 -25.5v-19q0 -67 27.5 -101t77.5 -34q71 0 143 81l23 -21q-105 -162 -262 -162q-84 0 -136.5 55t-52.5 146q0 140 99 249t241 109q74 0 112 -32.5t38 -82.5zM234 625l19 86h286l-19 -86h-286zM344 509
q-45 0 -86 -72t-54 -158q175 42 175 182q0 48 -35 48z" />
    <glyph glyph-name="Ebreve" unicode="&#x114;" horiz-adv-x="663" 
d="M449 740q-66 0 -97 39.5t-14 116.5h45q-3 -37 19 -52t64 -15q89 0 116 67h48q-37 -156 -181 -156zM556 0h-580l9 42q51 5 64.5 16t22.5 51l103 484q8 39 -1.5 50.5t-57.5 16.5l10 42h573l-37 -193h-35q-20 90 -42.5 118t-87.5 28h-114l-56 -265h97q33 0 50.5 19.5
t35.5 72.5h44l-52 -240h-43q5 53 -4.5 73t-42.5 20h-97l-47 -221q-9 -39 7 -53t60 -14h34q63 0 100.5 31t120.5 140h45z" />
    <glyph glyph-name="ebreve" unicode="&#x115;" horiz-adv-x="502" 
d="M510 434q0 -41 -22.5 -72.5t-66.5 -53.5t-96.5 -36.5t-124.5 -25.5v-19q0 -67 27.5 -101t77.5 -34q71 0 143 81l23 -21q-105 -162 -262 -162q-84 0 -136.5 55t-52.5 146q0 140 99 249t241 109q74 0 112 -32.5t38 -82.5zM371 598q-69 0 -98 44t-10 124h46q-4 -41 18 -58
t63 -17q90 0 116 75h47q-19 -81 -65.5 -124.5t-116.5 -43.5zM344 509q-45 0 -86 -72t-54 -158q175 42 175 182q0 48 -35 48z" />
    <glyph glyph-name="Edotaccent" unicode="&#x116;" horiz-adv-x="663" 
d="M461 741q-40 0 -64.5 24t-24.5 59q0 38 26.5 65t70.5 27q40 0 64.5 -23.5t24.5 -57.5q0 -39 -27 -66.5t-70 -27.5zM556 0h-580l9 42q51 5 64.5 16t22.5 51l103 484q8 39 -1.5 50.5t-57.5 16.5l10 42h573l-37 -193h-35q-20 90 -42.5 118t-87.5 28h-114l-56 -265h97
q33 0 50.5 19.5t35.5 72.5h44l-52 -240h-43q5 53 -4.5 73t-42.5 20h-97l-47 -221q-9 -39 7 -53t60 -14h34q63 0 100.5 31t120.5 140h45z" />
    <glyph glyph-name="edotaccent" unicode="&#x117;" horiz-adv-x="502" 
d="M510 434q0 -41 -22.5 -72.5t-66.5 -53.5t-96.5 -36.5t-124.5 -25.5v-19q0 -67 27.5 -101t77.5 -34q71 0 143 81l23 -21q-105 -162 -262 -162q-84 0 -136.5 55t-52.5 146q0 140 99 249t241 109q74 0 112 -32.5t38 -82.5zM388 597q-40 0 -64.5 24t-24.5 59q0 38 26.5 65
t70.5 27q40 0 64.5 -23.5t24.5 -58.5q0 -39 -27 -66t-70 -27zM344 509q-45 0 -86 -72t-54 -158q175 42 175 182q0 48 -35 48z" />
    <glyph glyph-name="Eogonek" unicode="&#x118;" horiz-adv-x="663" 
d="M556 0h-94q-74 -49 -74 -103q0 -18 10.5 -29.5t30.5 -11.5q34 0 73 30l13 -20q-75 -81 -151 -81q-37 0 -61 19.5t-24 53.5q0 80 123 142h-426l9 42q51 5 64.5 16t22.5 51l103 484q8 39 -1.5 50.5t-57.5 16.5l10 42h573l-37 -193h-35q-20 90 -42.5 118t-87.5 28h-114
l-56 -265h97q33 0 50.5 19.5t35.5 72.5h44l-52 -240h-43q5 53 -4.5 73t-42.5 20h-97l-47 -221q-9 -39 7 -53t60 -14h34q63 0 100.5 31t120.5 140h45z" />
    <glyph glyph-name="eogonek" unicode="&#x119;" horiz-adv-x="502" 
d="M226 -9q-86 0 -146 55.5t-60 144.5q0 140 99 249t241 109q74 0 112 -32.5t38 -82.5q0 -41 -22.5 -72.5t-66.5 -53.5t-96.5 -36.5t-124.5 -25.5v-19q0 -67 28.5 -102t78.5 -35q69 0 144 81l21 -19q-61 -91 -158 -141q-83 -45 -83 -114q0 -18 10.5 -29.5t30.5 -11.5
q34 0 73 30l13 -20q-75 -81 -151 -81q-37 0 -61 19.5t-24 53.5q0 74 104 133zM344 509q-45 0 -86 -72t-54 -158q175 42 175 182q0 48 -35 48z" />
    <glyph glyph-name="Ecaron" unicode="&#x11a;" horiz-adv-x="663" 
d="M386 744l-80 153h55l102 -70l139 70h60l-152 -153h-124zM556 0h-580l9 42q51 5 64.5 16t22.5 51l103 484q8 39 -1.5 50.5t-57.5 16.5l10 42h573l-37 -193h-35q-20 90 -42.5 118t-87.5 28h-114l-56 -265h97q33 0 50.5 19.5t35.5 72.5h44l-52 -240h-43q5 53 -4.5 73
t-42.5 20h-97l-47 -221q-9 -39 7 -53t60 -14h34q63 0 100.5 31t120.5 140h45z" />
    <glyph glyph-name="ecaron" unicode="&#x11b;" horiz-adv-x="502" 
d="M510 434q0 -41 -22.5 -72.5t-66.5 -53.5t-96.5 -36.5t-124.5 -25.5v-19q0 -67 27.5 -101t77.5 -34q71 0 143 81l23 -21q-105 -162 -262 -162q-84 0 -136.5 55t-52.5 146q0 140 99 249t241 109q74 0 112 -32.5t38 -82.5zM299 600l-80 170h55l102 -85l139 85h60l-152 -170
h-124zM344 509q-45 0 -86 -72t-54 -158q175 42 175 182q0 48 -35 48z" />
    <glyph glyph-name="Gcircumflex" unicode="&#x11c;" horiz-adv-x="743" 
d="M374 41q38 0 63 12l37 170q8 40 -1.5 51.5t-57.5 16.5l10 42h325l-9 -42q-48 -5 -61.5 -16.5t-21.5 -51.5l-36 -166q-117 -67 -262 -67q-147 0 -234.5 79.5t-87.5 209.5q0 183 132 308t325 125q64 0 123.5 -17.5t95.5 -43.5l-33 -173h-46q-6 187 -133 187q-61 0 -113 -43
t-84 -109t-49.5 -138.5t-17.5 -137.5q0 -94 36 -145t100 -51zM610 896l80 -153h-55l-102 70l-139 -70h-60l152 153h124z" />
    <glyph glyph-name="gcircumflex" unicode="&#x11d;" horiz-adv-x="536" 
d="M512 391q0 -94 -79.5 -150t-194.5 -56q-49 0 -85 13q-23 -14 -23 -32q0 -19 29 -24l182 -42q150 -31 150 -128q0 -90 -89.5 -143t-225.5 -53q-107 0 -184.5 37t-77.5 101q0 43 43 65.5t98 25.5q-37 31 -37 79q0 79 107 126q-80 42 -80 136q0 91 79 147t193 56
q43 0 87 -17l191 6l-22 -69h-45l-48 8q32 -40 32 -86zM278 -70l-201 53q-51 -22 -51 -68q0 -41 43.5 -67t114.5 -26q67 0 108 17.5t41 47.5q0 18 -12.5 26.5t-42.5 16.5zM449 766l80 -170h-55l-102 85l-139 -85h-60l152 170h124zM345 437q0 71 -36 71q-37 0 -67.5 -65.5
t-30.5 -147.5q0 -72 35 -72q38 0 68.5 66t30.5 148z" />
    <glyph glyph-name="Gbreve" unicode="&#x11e;" horiz-adv-x="743" 
d="M522 740q-66 0 -97 39.5t-14 116.5h45q-3 -37 19 -52t64 -15q89 0 116 67h48q-37 -156 -181 -156zM374 41q38 0 63 12l37 170q8 40 -1.5 51.5t-57.5 16.5l10 42h325l-9 -42q-48 -5 -61.5 -16.5t-21.5 -51.5l-36 -166q-117 -67 -262 -67q-147 0 -234.5 79.5t-87.5 209.5
q0 183 132 308t325 125q64 0 123.5 -17.5t95.5 -43.5l-33 -173h-46q-6 187 -133 187q-61 0 -113 -43t-84 -109t-49.5 -138.5t-17.5 -137.5q0 -94 36 -145t100 -51z" />
    <glyph glyph-name="gbreve" unicode="&#x11f;" horiz-adv-x="536" 
d="M512 391q0 -94 -79.5 -150t-194.5 -56q-49 0 -85 13q-23 -14 -23 -32q0 -19 29 -24l182 -42q150 -31 150 -128q0 -90 -89.5 -143t-225.5 -53q-107 0 -184.5 37t-77.5 101q0 43 43 65.5t98 25.5q-37 31 -37 79q0 79 107 126q-80 42 -80 136q0 91 79 147t193 56
q43 0 87 -17l191 6l-22 -69h-45l-48 8q32 -40 32 -86zM278 -70l-201 53q-51 -22 -51 -68q0 -41 43.5 -67t114.5 -26q67 0 108 17.5t41 47.5q0 18 -12.5 26.5t-42.5 16.5zM351 598q-69 0 -98 44t-10 124h46q-4 -41 18 -58t63 -17q90 0 116 75h47q-19 -81 -65.5 -124.5
t-116.5 -43.5zM345 437q0 71 -36 71q-37 0 -67.5 -65.5t-30.5 -147.5q0 -72 35 -72q38 0 68.5 66t30.5 148z" />
    <glyph glyph-name="Gdotaccent" unicode="&#x120;" horiz-adv-x="743" 
d="M533 741q-40 0 -64.5 24t-24.5 59q0 38 26.5 65t70.5 27q40 0 64.5 -23.5t24.5 -57.5q0 -39 -27 -66.5t-70 -27.5zM374 41q38 0 63 12l37 170q8 40 -1.5 51.5t-57.5 16.5l10 42h325l-9 -42q-48 -5 -61.5 -16.5t-21.5 -51.5l-36 -166q-117 -67 -262 -67
q-147 0 -234.5 79.5t-87.5 209.5q0 183 132 308t325 125q64 0 123.5 -17.5t95.5 -43.5l-33 -173h-46q-6 187 -133 187q-61 0 -113 -43t-84 -109t-49.5 -138.5t-17.5 -137.5q0 -94 36 -145t100 -51z" />
    <glyph glyph-name="gdotaccent" unicode="&#x121;" horiz-adv-x="536" 
d="M512 391q0 -94 -79.5 -150t-194.5 -56q-49 0 -85 13q-23 -14 -23 -32q0 -19 29 -24l182 -42q150 -31 150 -128q0 -90 -89.5 -143t-225.5 -53q-107 0 -184.5 37t-77.5 101q0 43 43 65.5t98 25.5q-37 31 -37 79q0 79 107 126q-80 42 -80 136q0 91 79 147t193 56
q43 0 87 -17l191 6l-22 -69h-45l-48 8q32 -40 32 -86zM278 -70l-201 53q-51 -22 -51 -68q0 -41 43.5 -67t114.5 -26q67 0 108 17.5t41 47.5q0 18 -12.5 26.5t-42.5 16.5zM345 437q0 71 -36 71q-37 0 -67.5 -65.5t-30.5 -147.5q0 -72 35 -72q38 0 68.5 66t30.5 148zM366 597
q-40 0 -64.5 24t-24.5 59q0 38 26.5 65t70.5 27q40 0 64.5 -23.5t24.5 -58.5q0 -39 -27 -66t-70 -27z" />
    <glyph glyph-name="Gcommaaccent" unicode="&#x122;" horiz-adv-x="743" 
d="M349 -156h-59q-39 9 -39 48q0 32 23.5 52.5t64.5 20.5q39 0 61 -22t22 -58q0 -58 -44.5 -94.5t-137.5 -36.5l1 37q46 0 74.5 15.5t33.5 37.5zM374 41q38 0 63 12l37 170q8 40 -1.5 51.5t-57.5 16.5l10 42h325l-9 -42q-48 -5 -61.5 -16.5t-21.5 -51.5l-36 -166
q-117 -67 -262 -67q-147 0 -234.5 79.5t-87.5 209.5q0 183 132 308t325 125q64 0 123.5 -17.5t95.5 -43.5l-33 -173h-46q-6 187 -133 187q-61 0 -113 -43t-84 -109t-49.5 -138.5t-17.5 -137.5q0 -94 36 -145t100 -51z" />
    <glyph glyph-name="gcommaaccent" unicode="&#x123;" horiz-adv-x="536" 
d="M512 391q0 -94 -79.5 -150t-194.5 -56q-49 0 -85 13q-23 -14 -23 -32q0 -19 29 -24l182 -42q150 -31 150 -128q0 -90 -89.5 -143t-225.5 -53q-107 0 -184.5 37t-77.5 101q0 43 43 65.5t98 25.5q-37 31 -37 79q0 79 107 126q-80 42 -80 136q0 91 79 147t193 56
q43 0 87 -17l191 6l-22 -69h-45l-48 8q32 -40 32 -86zM278 -70l-201 53q-51 -22 -51 -68q0 -41 43.5 -67t114.5 -26q67 0 108 17.5t41 47.5q0 18 -12.5 26.5t-42.5 16.5zM345 437q0 71 -36 71q-37 0 -67.5 -65.5t-30.5 -147.5q0 -72 35 -72q38 0 68.5 66t30.5 148zM355 714
h59q39 -11 39 -48q0 -32 -23.5 -53t-64.5 -21q-39 0 -61 22t-22 58q0 59 44.5 95t137.5 36l-1 -37q-46 0 -74.5 -15t-33.5 -37z" />
    <glyph glyph-name="Hcircumflex" unicode="&#x124;" horiz-adv-x="846" 
d="M72 109l103 484q8 39 -1.5 50.5t-57.5 16.5l10 42h341l-10 -42q-50 -5 -64 -16t-22 -51l-44 -206h253l44 206q8 39 -1.5 50.5t-57.5 16.5l10 42h341l-10 -42q-50 -5 -64 -16.5t-22 -50.5l-103 -484q-9 -39 0.5 -50.5t57.5 -16.5l-9 -42h-341l9 42q50 5 64 16t23 51
l46 216h-253l-46 -216q-9 -39 0.5 -50.5t57.5 -16.5l-9 -42h-341l9 42q50 5 64 16t23 51zM620 896l80 -153h-55l-102 70l-139 -70h-60l152 153h124z" />
    <glyph glyph-name="hcircumflex" unicode="&#x125;" horiz-adv-x="646" 
d="M370 783l-116 -478q58 117 129.5 180.5t142.5 63.5q39 0 60 -22.5t21 -61.5q0 -23 -8 -55l-73 -266q-9 -32 -9 -41q0 -15 14 -15q25 0 81 71l24 -21q-57 -79 -101 -113.5t-100 -34.5q-48 0 -75.5 26t-27.5 66q0 32 15 82l62 210q6 22 6 32q0 19 -17 19q-34 0 -94.5 -89
t-88.5 -200l-35 -136h-182l167 681l-51 28l6 30l220 44h30zM545 948l80 -153h-55l-102 70l-139 -70h-60l152 153h124z" />
    <glyph glyph-name="Hbar" unicode="&#x126;" horiz-adv-x="848" 
d="M85 489l13 62h69l9 42q8 39 -1.5 50.5t-57.5 16.5l10 42h340l-9 -42q-50 -5 -64 -16t-22 -51l-9 -42h253l9 42q8 39 -1.5 50.5t-57.5 16.5l10 42h341l-10 -42q-50 -5 -64 -16t-22 -51l-9 -42h74l-13 -62h-74l-81 -380q-9 -39 0.5 -50.5t57.5 -16.5l-9 -42h-341l9 42
q50 5 64 16t23 51l46 216h-253l-47 -216q-8 -39 1.5 -50.5t57.5 -16.5l-10 -42h-340l9 42q50 5 64 16t23 51l81 380h-69zM328 387h253l22 102h-253z" />
    <glyph glyph-name="hbar" unicode="&#x127;" horiz-adv-x="650" 
d="M450 589h-123l-69 -284q58 117 129.5 180.5t142.5 63.5q39 0 60 -22.5t21 -61.5q0 -23 -8 -55l-73 -266q-8 -29 -8 -41q0 -15 14 -15q24 0 81 71l24 -21q-56 -78 -101 -113t-101 -35q-48 0 -75.5 26t-27.5 66q0 32 15 82l62 210q6 22 6 32q0 19 -17 19q-34 0 -94 -89
t-89 -200l-35 -136h-182l145 589h-58l11 51h60l10 41l-52 28l6 30l220 44h30l-35 -143h122z" />
    <glyph glyph-name="Itilde" unicode="&#x128;" horiz-adv-x="397" 
d="M72 109l103 484q8 39 -1.5 50.5t-57.5 16.5l10 42h341l-10 -42q-50 -5 -64 -16t-22 -51l-103 -484q-9 -39 0.5 -50.5t57.5 -16.5l-9 -42h-341l9 42q51 5 64.5 16t22.5 51zM379 743q-33 0 -71.5 30t-58.5 30q-32 0 -71 -56l-34 20q35 70 64 102t67 32q33 0 71.5 -29.5
t57.5 -29.5q33 0 71 55l34 -19q-34 -71 -63 -103t-67 -32z" />
    <glyph glyph-name="itilde" unicode="&#x129;" horiz-adv-x="344" 
d="M302 602q-31 0 -63 30t-50 30q-32 0 -69 -56l-33 20q33 70 61.5 102t65.5 32q31 0 63 -29.5t50 -29.5q32 0 68 55l33 -19q-32 -70 -60.5 -102.5t-65.5 -32.5zM38 164l70 276l-53 39l6 27l227 43h31l-102 -405q-8 -29 -8 -41q0 -15 14 -15q24 0 81 71l24 -21
q-56 -78 -101 -113t-101 -35q-47 0 -73 26t-26 66q0 35 11 82z" />
    <glyph glyph-name="Imacron" unicode="&#x12a;" horiz-adv-x="397" 
d="M72 109l103 484q8 39 -1.5 50.5t-57.5 16.5l10 42h341l-10 -42q-50 -5 -64 -16t-22 -51l-103 -484q-9 -39 0.5 -50.5t57.5 -16.5l-9 -42h-341l9 42q51 5 64.5 16t22.5 51zM161 751l19 86h290l-19 -86h-290z" />
    <glyph glyph-name="imacron" unicode="&#x12b;" horiz-adv-x="344" 
d="M113 625l19 86h262l-19 -86h-262zM38 164l70 276l-53 39l6 27l227 43h31l-102 -405q-8 -29 -8 -41q0 -15 14 -15q24 0 81 71l24 -21q-56 -78 -101 -113t-101 -35q-47 0 -73 26t-26 66q0 35 11 82z" />
    <glyph glyph-name="Ibreve" unicode="&#x12c;" horiz-adv-x="397" 
d="M72 109l103 484q8 39 -1.5 50.5t-57.5 16.5l10 42h341l-10 -42q-50 -5 -64 -16t-22 -51l-103 -484q-9 -39 0.5 -50.5t57.5 -16.5l-9 -42h-341l9 42q51 5 64.5 16t22.5 51zM307 740q-66 0 -97 39.5t-14 116.5h45q-3 -37 19 -52t64 -15q89 0 116 67h48q-37 -156 -181 -156z
" />
    <glyph glyph-name="ibreve" unicode="&#x12d;" horiz-adv-x="344" 
d="M38 164l70 276l-53 39l6 27l227 43h31l-102 -405q-8 -29 -8 -41q0 -15 14 -15q24 0 81 71l24 -21q-56 -78 -101 -113t-101 -35q-47 0 -73 26t-26 66q0 35 11 82zM237 598q-69 0 -98 44t-10 124h46q-4 -41 18 -58t63 -17q90 0 116 75h47q-19 -81 -65.5 -124.5
t-116.5 -43.5z" />
    <glyph glyph-name="Iogonek" unicode="&#x12e;" horiz-adv-x="397" 
d="M72 109l103 484q8 39 -1.5 50.5t-57.5 16.5l10 42h341l-10 -42q-50 -5 -64 -16t-22 -51l-103 -484q-9 -39 0.5 -50.5t57.5 -16.5l-9 -42h-124q-74 -49 -74 -103q0 -18 10.5 -29.5t30.5 -11.5q34 0 73 30l13 -20q-75 -81 -151 -81q-37 0 -61 19.5t-24 53.5q0 80 123 142
h-157l9 42q51 5 64.5 16t22.5 51z" />
    <glyph glyph-name="iogonek" unicode="&#x12f;" horiz-adv-x="344" 
d="M253 592q-43 0 -69 25.5t-26 62.5q0 41 28 69.5t74 28.5q43 0 69 -25t26 -62q0 -41 -28 -70t-74 -29zM27 82q0 35 11 82l70 276l-53 39l6 27l227 43h31l-102 -405q-8 -29 -8 -41q0 -15 14 -15q24 0 81 71l24 -21q-37 -49 -91 -99.5t-82 -82t-28 -59.5q0 -19 10.5 -30
t30.5 -11q34 0 73 30l13 -20q-73 -81 -151 -81q-37 0 -60.5 19.5t-23.5 53.5q0 73 105 132q-47 1 -72 25t-25 67z" />
    <glyph glyph-name="Idotaccent" unicode="&#x130;" horiz-adv-x="397" 
d="M72 109l103 484q8 39 -1.5 50.5t-57.5 16.5l10 42h341l-10 -42q-50 -5 -64 -16t-22 -51l-103 -484q-9 -39 0.5 -50.5t57.5 -16.5l-9 -42h-341l9 42q51 5 64.5 16t22.5 51zM319 741q-40 0 -64.5 24t-24.5 59q0 38 26.5 65t70.5 27q40 0 64.5 -23.5t24.5 -57.5
q0 -39 -27 -66.5t-70 -27.5z" />
    <glyph glyph-name="dotlessi" unicode="&#x131;" horiz-adv-x="344" 
d="M38 164l70 276l-53 39l6 27l227 43h31l-102 -405q-8 -29 -8 -41q0 -15 14 -15q24 0 81 71l24 -21q-56 -78 -101 -113t-101 -35q-47 0 -73 26t-26 66q0 35 11 82z" />
    <glyph glyph-name="IJ" unicode="&#x132;" horiz-adv-x="946" 
d="M72 109l103 484q8 39 -1.5 50.5t-57.5 16.5l10 42h341l-10 -42q-50 -5 -64 -16t-22 -51l-103 -484q-9 -39 0.5 -50.5t57.5 -16.5l-9 -42h-341l9 42q51 5 64.5 16t22.5 51zM644 168l91 425q8 39 -1.5 50.5t-57.5 16.5l10 42h341l-10 -42q-50 -5 -64 -16.5t-22 -50.5
l-83 -384q-26 -118 -99.5 -168.5t-204.5 -50.5q-96 0 -153 35.5t-57 93.5q0 74 75 110h122q-31 -75 -31 -125q0 -71 54 -71q37 0 56.5 33t33.5 102z" />
    <glyph glyph-name="ij" unicode="&#x133;" horiz-adv-x="631" 
d="M253 592q-43 0 -69 25.5t-26 62.5q0 41 28 69.5t74 28.5q43 0 69 -25t26 -62q0 -41 -28 -70t-74 -29zM38 164l70 276l-53 39l6 27l227 43h31l-102 -405q-8 -29 -8 -41q0 -15 14 -15q24 0 81 71l24 -21q-56 -78 -101 -113t-101 -35q-47 0 -73 26t-26 66q0 35 11 82z
M640 549l-111 -447q-42 -167 -113.5 -245t-181.5 -78q-59 0 -95.5 22t-36.5 62q0 34 22.5 54.5t56.5 23.5h32q-3 -121 34 -121q22 0 34.5 33t35.5 128q4 16 6 25l105 434l-53 39l7 27l226 43h32zM571 592q-42 0 -68 25.5t-26 62.5q0 41 28 69.5t74 28.5q42 0 68 -25t26 -62
q0 -41 -28 -70t-74 -29z" />
    <glyph glyph-name="Jcircumflex" unicode="&#x134;" horiz-adv-x="586" 
d="M284 168l91 425q8 39 -1.5 50.5t-57.5 16.5l10 42h341l-10 -42q-50 -5 -64 -16.5t-22 -50.5l-83 -384q-26 -118 -99.5 -168.5t-204.5 -50.5q-96 0 -153 35.5t-57 93.5q0 74 75 110h122q-31 -75 -31 -125q0 -71 54 -71q37 0 56.5 33t33.5 102zM597 896l80 -153h-55
l-102 70l-139 -70h-60l152 153h124z" />
    <glyph glyph-name="jcircumflex" unicode="&#x135;" horiz-adv-x="312" 
d="M320 549l-111 -447q-42 -167 -113.5 -245t-181.5 -78q-59 0 -95.5 22t-36.5 62q0 34 22.5 54.5t56.5 23.5h32q-3 -121 34 -121q22 0 34.5 33t35.5 128q4 16 6 25l105 434l-53 39l7 27l226 43h32zM326 766l80 -170h-55l-102 85l-139 -85h-60l152 170h124z" />
    <glyph glyph-name="Kcommaaccent" unicode="&#x136;" horiz-adv-x="756" 
d="M339 -156h-59q-39 9 -39 48q0 32 23.5 52.5t64.5 20.5q39 0 61 -22t22 -58q0 -58 -44.5 -94.5t-137.5 -36.5l1 37q46 0 74.5 15.5t33.5 37.5zM502 418l135 -312q16 -32 31.5 -46.5t46.5 -17.5l-9 -42h-220q-33 34 -66 115l-94 226l284 244q37 33 37 51q0 12 -12.5 17.5
t-50.5 6.5l9 42h241l-10 -42q-31 -2 -50.5 -9.5t-42.5 -28.5zM371 593l-103 -484q-9 -39 0.5 -50.5t57.5 -16.5l-9 -42h-341l9 42q51 5 64.5 16t22.5 51l103 484q8 39 -1.5 50.5t-57.5 16.5l9 42h342l-10 -42q-50 -5 -64 -16t-22 -51z" />
    <glyph glyph-name="kcommaaccent" unicode="&#x137;" horiz-adv-x="622" 
d="M247 -156h-59q-39 9 -39 48q0 32 23.5 52.5t64.5 20.5q39 0 61 -22t22 -58q0 -58 -44.5 -94.5t-137.5 -36.5l1 37q46 0 74.5 15.5t33.5 37.5zM389 372l90 -212q13 -30 21.5 -41.5t21.5 -11.5q22 0 64 51l23 -20q-54 -78 -96.5 -113t-90.5 -35q-38 0 -60.5 23t-40.5 71
l-65 188l178 209q30 35 56.5 51.5t58.5 16.5q39 0 61 -23.5t22 -58.5q0 -71 -79 -97h-11q3 34 -11 54.5t-43 20.5q-23 0 -39 -11.5t-40 -39.5zM180 0h-182l168 681l-52 28l6 30l220 44h30z" />
    <glyph glyph-name="kgreenlandic" unicode="&#x138;" horiz-adv-x="628" 
d="M395 372l91 -212q12 -29 20.5 -41t21.5 -12q22 0 64 51l23 -20q-54 -78 -96.5 -113t-90.5 -35q-38 0 -60.5 23t-40.5 71l-65 188l178 209q30 35 56.5 51.5t58.5 16.5q39 0 61 -23.5t22 -58.5q0 -71 -79 -97h-11q3 34 -11 54.5t-43 20.5q-23 0 -39 -11.5t-40 -39.5zM186 0
h-182l110 440l-53 39l6 27l222 43h30z" />
    <glyph glyph-name="Lacute" unicode="&#x139;" horiz-adv-x="649" 
d="M366 892h178v-8l-208 -141h-52zM370 593l-102 -479q-8 -39 6 -53t57 -14h28q51 0 99.5 39.5t132.5 150.5h43l-87 -237h-571l9 42q51 5 64.5 16t22.5 51l103 484q8 39 -1.5 50.5t-57.5 16.5l10 42h340l-10 -42q-50 -5 -64 -16.5t-22 -50.5z" />
    <glyph glyph-name="lacute" unicode="&#x13a;" horiz-adv-x="333" 
d="M330 947h178v-8l-208 -141h-52zM363 783l-154 -639q-8 -36 -8 -41q0 -15 14 -15q24 0 81 71l24 -21q-56 -78 -101 -113t-100 -35q-48 0 -73.5 26t-25.5 66q0 39 10 82l129 517l-52 28l6 30l220 44h30z" />
    <glyph glyph-name="Lcommaaccent" unicode="&#x13b;" horiz-adv-x="649" 
d="M266 -156h-59q-39 9 -39 48q0 32 23.5 52.5t64.5 20.5q39 0 61 -22t22 -58q0 -58 -44.5 -94.5t-137.5 -36.5l1 37q46 0 74.5 15.5t33.5 37.5zM370 593l-102 -479q-8 -39 6 -53t57 -14h28q51 0 99.5 39.5t132.5 150.5h43l-87 -237h-571l9 42q51 5 64.5 16t22.5 51l103 484
q8 39 -1.5 50.5t-57.5 16.5l10 42h340l-10 -42q-50 -5 -64 -16.5t-22 -50.5z" />
    <glyph glyph-name="lcommaaccent" unicode="&#x13c;" horiz-adv-x="333" 
d="M97 -156h-59q-39 9 -39 48q0 32 23.5 52.5t64.5 20.5q39 0 61 -22t22 -58q0 -58 -44.5 -94.5t-137.5 -36.5l1 37q46 0 74.5 15.5t33.5 37.5zM363 783l-154 -639q-8 -36 -8 -41q0 -15 14 -15q24 0 81 71l24 -21q-56 -78 -101 -113t-100 -35q-48 0 -73.5 26t-25.5 66
q0 39 10 82l129 517l-52 28l6 30l220 44h30z" />
    <glyph glyph-name="Lcaron" unicode="&#x13d;" horiz-adv-x="649" 
d="M673 691l-158 -194h-40l56 205h144zM370 593l-102 -479q-8 -39 6 -53t57 -14h28q51 0 99.5 39.5t132.5 150.5h43l-87 -237h-571l9 42q51 5 64.5 16t22.5 51l103 484q8 39 -1.5 50.5t-57.5 16.5l10 42h340l-10 -42q-50 -5 -64 -16.5t-22 -50.5z" />
    <glyph glyph-name="lcaron" unicode="&#x13e;" horiz-adv-x="333" 
d="M561 772l-158 -194h-40l56 205h144zM363 783l-154 -639q-8 -36 -8 -41q0 -15 14 -15q24 0 81 71l24 -21q-56 -78 -101 -113t-100 -35q-48 0 -73.5 26t-25.5 66q0 39 10 82l129 517l-52 28l6 30l220 44h30z" />
    <glyph glyph-name="Ldot" unicode="&#x13f;" horiz-adv-x="649" 
d="M370 593l-102 -479q-8 -39 6 -53t57 -14h28q51 0 99.5 39.5t132.5 150.5h43l-87 -237h-571l9 42q51 5 64.5 16t22.5 51l103 484q8 39 -1.5 50.5t-57.5 16.5l10 42h340l-10 -42q-50 -5 -64 -16.5t-22 -50.5zM537 308q-40 0 -64.5 24t-24.5 59q0 38 26.5 65t70.5 27
q40 0 64.5 -23.5t24.5 -58.5q0 -39 -27 -66t-70 -27z" />
    <glyph glyph-name="ldot" unicode="&#x140;" horiz-adv-x="437" 
d="M363 783l-154 -639q-8 -36 -8 -41q0 -15 14 -15q24 0 81 71l24 -21q-56 -78 -101 -113t-100 -35q-48 0 -73.5 26t-25.5 66q0 39 10 82l129 517l-52 28l6 30l220 44h30zM390 299q-40 0 -64.5 24t-24.5 59q0 38 26.5 65t70.5 27q40 0 64.5 -23.5t24.5 -58.5q0 -39 -27 -66
t-70 -27z" />
    <glyph glyph-name="Lslash" unicode="&#x141;" horiz-adv-x="649" 
d="M448 391l-132 -49l-48 -228q-8 -39 6 -53t57 -14h28q51 0 99.5 39.5t132.5 150.5h43l-87 -237h-571l9 42q51 5 64.5 16t22.5 51l36 168l-78 -28l14 64l78 29l53 251q8 39 -1.5 50.5t-57.5 16.5l10 42h340l-10 -42q-50 -5 -64 -16.5t-22 -50.5l-40 -187l132 49z" />
    <glyph glyph-name="lslash" unicode="&#x142;" horiz-adv-x="344" 
d="M368 466l-85 -37l-68 -285q-8 -36 -8 -41q0 -15 14 -15q24 0 81 71l24 -21q-56 -78 -101 -113t-101 -35q-48 0 -73.5 26t-25.5 66q0 35 11 82l50 201l-73 -31l15 62l73 31l63 254l-52 28l7 30l220 44h30l-71 -293l85 37z" />
    <glyph glyph-name="Nacute" unicode="&#x143;" horiz-adv-x="754" 
d="M538 892h178v-8l-208 -141h-52zM605 281l66 312q8 38 -9.5 50.5t-79.5 16.5l10 42h242l-10 -42q-50 -5 -64 -16t-22 -51l-126 -594h-68l-316 532l-90 -422q-8 -38 10 -50.5t80 -16.5l-10 -42h-242l10 42q50 5 64 16t22 51l105 491q-17 33 -28.5 44.5t-34.5 15.5l9 42h240
z" />
    <glyph glyph-name="nacute" unicode="&#x144;" horiz-adv-x="652" 
d="M466 765h177v-8l-211 -156h-52zM326 549l-68 -245q59 117 131 181t143 64q39 0 60 -22.5t21 -61.5q0 -23 -8 -55l-73 -266q-8 -29 -8 -41q0 -15 14 -15q24 0 81 71l24 -21q-56 -78 -101 -113t-101 -35q-48 0 -75.5 26t-27.5 66q0 32 15 82l62 210q6 22 6 32q0 19 -17 19
q-34 0 -94 -89t-89 -200l-35 -136h-182l110 440l-53 39l6 27l228 43h31z" />
    <glyph glyph-name="Ncommaaccent" unicode="&#x145;" horiz-adv-x="754" 
d="M333 -156h-59q-39 9 -39 48q0 32 23.5 52.5t64.5 20.5q39 0 61 -22t22 -58q0 -58 -44.5 -94.5t-137.5 -36.5l1 37q46 0 74.5 15.5t33.5 37.5zM605 281l66 312q8 38 -9.5 50.5t-79.5 16.5l10 42h242l-10 -42q-50 -5 -64 -16t-22 -51l-126 -594h-68l-316 532l-90 -422
q-8 -38 10 -50.5t80 -16.5l-10 -42h-242l10 42q50 5 64 16t22 51l105 491q-17 33 -28.5 44.5t-34.5 15.5l9 42h240z" />
    <glyph glyph-name="ncommaaccent" unicode="&#x146;" horiz-adv-x="652" 
d="M270 -156h-59q-39 9 -39 48q0 32 23.5 52.5t64.5 20.5q39 0 61 -22t22 -58q0 -58 -44.5 -94.5t-137.5 -36.5l1 37q46 0 74.5 15.5t33.5 37.5zM326 549l-68 -245q59 117 131 181t143 64q39 0 60 -22.5t21 -61.5q0 -23 -8 -55l-73 -266q-8 -29 -8 -41q0 -15 14 -15
q24 0 81 71l24 -21q-56 -78 -101 -113t-101 -35q-48 0 -75.5 26t-27.5 66q0 32 15 82l62 210q6 22 6 32q0 19 -17 19q-34 0 -94 -89t-89 -200l-35 -136h-182l110 440l-53 39l6 27l228 43h31z" />
    <glyph glyph-name="Ncaron" unicode="&#x147;" horiz-adv-x="754" 
d="M426 744l-80 153h55l102 -70l139 70h60l-152 -153h-124zM605 281l66 312q8 38 -9.5 50.5t-79.5 16.5l10 42h242l-10 -42q-50 -5 -64 -16t-22 -51l-126 -594h-68l-316 532l-90 -422q-8 -38 10 -50.5t80 -16.5l-10 -42h-242l10 42q50 5 64 16t22 51l105 491
q-17 33 -28.5 44.5t-34.5 15.5l9 42h240z" />
    <glyph glyph-name="ncaron" unicode="&#x148;" horiz-adv-x="652" 
d="M351 600l-80 170h55l102 -85l139 85h60l-152 -170h-124zM326 549l-68 -245q59 117 131 181t143 64q39 0 60 -22.5t21 -61.5q0 -23 -8 -55l-73 -266q-8 -29 -8 -41q0 -15 14 -15q24 0 81 71l24 -21q-56 -78 -101 -113t-101 -35q-48 0 -75.5 26t-27.5 66q0 32 15 82l62 210
q6 22 6 32q0 19 -17 19q-34 0 -94 -89t-89 -200l-35 -136h-182l110 440l-53 39l6 27l228 43h31z" />
    <glyph glyph-name="Eng" unicode="&#x14a;" horiz-adv-x="754" 
d="M492 84l-264 447l-90 -422q-8 -38 10 -50.5t80 -16.5l-10 -42h-242l10 42q50 5 64 16t22 51l105 491q-17 33 -28.5 44.5t-34.5 15.5l9 42h240l242 -421l66 312q8 38 -9.5 50.5t-79.5 16.5l10 42h242l-10 -42q-50 -5 -64 -16t-22 -51l-103 -487q-27 -125 -88.5 -189.5
t-201.5 -125.5l-13 20l56 57q76 78 104 216z" />
    <glyph glyph-name="eng" unicode="&#x14b;" horiz-adv-x="626" 
d="M605 410l-85 -308q-47 -167 -119.5 -245t-182.5 -78q-59 0 -95.5 22t-36.5 62q0 34 22.5 54.5t56.5 23.5h32q-3 -121 34 -121q24 0 40.5 40t44.5 146l99 368q6 22 6 32q0 19 -17 19q-34 0 -94 -89t-89 -200l-35 -136h-182l110 440l-53 39l6 27l228 43h31l-68 -245
q59 117 131 181t143 64q39 0 60 -22.5t21 -61.5q0 -23 -8 -55z" />
    <glyph glyph-name="Omacron" unicode="&#x14c;" horiz-adv-x="756" 
d="M344 751l19 86h290l-19 -86h-290zM465 712q134 0 213 -79.5t79 -200.5q0 -84 -30.5 -163t-84.5 -141t-135.5 -100t-176.5 -38q-134 0 -213 79.5t-79 200.5q0 84 30.5 163t84.5 141t135.5 100t176.5 38zM460 664q-50 0 -93.5 -49.5t-69.5 -123t-41 -150t-15 -137.5
q0 -166 94 -166q50 0 93.5 49.5t69.5 123t41 150t15 137.5q0 166 -94 166z" />
    <glyph glyph-name="omacron" unicode="&#x14d;" horiz-adv-x="577" 
d="M224 625l19 86h286l-19 -86h-286zM194 114q0 -83 40 -83q34 0 70 69t57.5 161t21.5 163q0 84 -40 84q-34 0 -70 -69t-57.5 -161t-21.5 -164zM558 341q0 -140 -95 -245.5t-232 -105.5q-96 0 -154 55t-58 153q0 91 42.5 171.5t118.5 130t166 49.5q96 0 154 -55t58 -153z
" />
    <glyph glyph-name="Obreve" unicode="&#x14e;" horiz-adv-x="756" 
d="M490 740q-66 0 -97 39.5t-14 116.5h45q-3 -37 19 -52t64 -15q89 0 116 67h48q-37 -156 -181 -156zM465 712q134 0 213 -79.5t79 -200.5q0 -84 -30.5 -163t-84.5 -141t-135.5 -100t-176.5 -38q-134 0 -213 79.5t-79 200.5q0 84 30.5 163t84.5 141t135.5 100t176.5 38z
M460 664q-50 0 -93.5 -49.5t-69.5 -123t-41 -150t-15 -137.5q0 -166 94 -166q50 0 93.5 49.5t69.5 123t41 150t15 137.5q0 166 -94 166z" />
    <glyph glyph-name="obreve" unicode="&#x14f;" horiz-adv-x="577" 
d="M194 114q0 -83 40 -83q34 0 70 69t57.5 161t21.5 163q0 84 -40 84q-34 0 -70 -69t-57.5 -161t-21.5 -164zM558 341q0 -140 -95 -245.5t-232 -105.5q-96 0 -154 55t-58 153q0 91 42.5 171.5t118.5 130t166 49.5q96 0 154 -55t58 -153zM361 598q-69 0 -98 44t-10 124h46
q-4 -41 18 -58t63 -17q90 0 116 75h47q-19 -81 -65.5 -124.5t-116.5 -43.5z" />
    <glyph glyph-name="Ohungarumlaut" unicode="&#x150;" horiz-adv-x="756" 
d="M465 712q134 0 213 -79.5t79 -200.5q0 -84 -30.5 -163t-84.5 -141t-135.5 -100t-176.5 -38q-134 0 -213 79.5t-79 200.5q0 84 30.5 163t84.5 141t135.5 100t176.5 38zM460 664q-50 0 -93.5 -49.5t-69.5 -123t-41 -150t-15 -137.5q0 -166 94 -166q50 0 93.5 49.5t69.5 123
t41 150t15 137.5q0 166 -94 166zM437 892h151l-2 -9l-169 -140h-53zM616 892h152l-2 -9l-169 -140h-54z" />
    <glyph glyph-name="ohungarumlaut" unicode="&#x151;" horiz-adv-x="577" 
d="M307 765h150l-2 -9l-183 -155h-53zM487 765h150l-2 -9l-183 -155h-53zM194 114q0 -83 40 -83q34 0 70 69t57.5 161t21.5 163q0 84 -40 84q-34 0 -70 -69t-57.5 -161t-21.5 -164zM558 341q0 -140 -95 -245.5t-232 -105.5q-96 0 -154 55t-58 153q0 91 42.5 171.5t118.5 130
t166 49.5q96 0 154 -55t58 -153z" />
    <glyph glyph-name="OE" unicode="&#x152;" horiz-adv-x="1046" 
d="M411 47h32l129 608h-62q-77 0 -141 -61t-98 -152.5t-34 -188.5q0 -105 40.5 -155.5t133.5 -50.5zM939 0h-559q-152 0 -247 74t-95 209q0 187 133.5 303t330.5 116h580l-37 -193h-36q-19 89 -42 117.5t-88 28.5h-111l-57 -265h95q34 0 51.5 19.5t35.5 72.5h43l-51 -240
h-43q5 53 -4.5 73t-42.5 20h-96l-47 -221q-9 -39 7 -53t60 -14h33q34 0 57 6.5t50.5 31.5t47.5 49t65 84h46z" />
    <glyph glyph-name="oe" unicode="&#x153;" horiz-adv-x="844" 
d="M347 549q99 0 160 -80q96 80 195 80q73 0 111.5 -32.5t38.5 -82.5q0 -41 -22.5 -72.5t-66.5 -53.5t-97 -36.5t-125 -25.5v-19q0 -66 28 -100.5t78 -34.5q70 0 142 81l23 -21q-105 -162 -261 -162q-86 0 -137 73q-89 -73 -183 -73q-96 0 -153.5 55t-57.5 153
q0 91 42.5 171.5t118.5 130t166 49.5zM195 114q0 -83 40 -83q34 0 70 69t57.5 161t21.5 163q0 84 -40 84q-52 0 -100.5 -139.5t-48.5 -254.5zM685 509q-44 0 -85.5 -72.5t-54.5 -157.5q175 42 175 182q0 48 -35 48z" />
    <glyph glyph-name="Racute" unicode="&#x154;" horiz-adv-x="747" 
d="M408 653h-26l-65 -310h28q80 0 131.5 48.5t51.5 144.5q0 53 -29.5 85t-90.5 32zM306 293l-39 -184q-9 -39 0.5 -50.5t57.5 -16.5l-8 -42h-341l9 42q51 5 64.5 16t22.5 51l103 484q8 39 -1.5 50.5t-57.5 16.5l10 42h368q114 0 170.5 -47.5t56.5 -121.5q0 -45 -20 -83.5
t-52 -63.5t-64 -40.5t-64 -23.5l98 -199q23 -47 40 -63.5t50 -17.5l-8 -42h-218q-32 29 -61 106l-75 187h-41zM489 892h178v-8l-208 -141h-52z" />
    <glyph glyph-name="racute" unicode="&#x155;" horiz-adv-x="493" 
d="M402 765h177v-8l-211 -156h-52zM326 549l-42 -149l-47 -147q85 175 129.5 235.5t94.5 60.5q34 0 53.5 -21.5t19.5 -56.5q0 -44 -27 -79.5t-67 -52.5h-8q0 48 -39 48q-58 0 -114 -107t-93 -280h-182l110 440l-53 39l6 27l228 43h31z" />
    <glyph glyph-name="Rcommaaccent" unicode="&#x156;" horiz-adv-x="747" 
d="M321 -156h-59q-39 9 -39 48q0 32 23.5 52.5t64.5 20.5q39 0 61 -22t22 -58q0 -58 -44.5 -94.5t-137.5 -36.5l1 37q46 0 74.5 15.5t33.5 37.5zM408 653h-26l-65 -310h28q80 0 131.5 48.5t51.5 144.5q0 53 -29.5 85t-90.5 32zM306 293l-39 -184q-9 -39 0.5 -50.5
t57.5 -16.5l-8 -42h-341l9 42q51 5 64.5 16t22.5 51l103 484q8 39 -1.5 50.5t-57.5 16.5l10 42h368q114 0 170.5 -47.5t56.5 -121.5q0 -45 -20 -83.5t-52 -63.5t-64 -40.5t-64 -23.5l98 -199q23 -47 40 -63.5t50 -17.5l-8 -42h-218q-32 29 -61 106l-75 187h-41z" />
    <glyph glyph-name="rcommaaccent" unicode="&#x157;" horiz-adv-x="493" 
d="M83 -156h-59q-39 9 -39 48q0 32 23.5 52.5t64.5 20.5q39 0 61 -22t22 -58q0 -58 -44.5 -94.5t-137.5 -36.5l1 37q46 0 74.5 15.5t33.5 37.5zM326 549l-42 -149l-47 -147q85 175 129.5 235.5t94.5 60.5q34 0 53.5 -21.5t19.5 -56.5q0 -44 -27 -79.5t-67 -52.5h-8
q0 48 -39 48q-58 0 -114 -107t-93 -280h-182l110 440l-53 39l6 27l228 43h31z" />
    <glyph glyph-name="Rcaron" unicode="&#x158;" horiz-adv-x="747" 
d="M373 744l-80 153h55l102 -70l139 70h60l-152 -153h-124zM408 653h-26l-65 -310h28q80 0 131.5 48.5t51.5 144.5q0 53 -29.5 85t-90.5 32zM306 293l-39 -184q-9 -39 0.5 -50.5t57.5 -16.5l-8 -42h-341l9 42q51 5 64.5 16t22.5 51l103 484q8 39 -1.5 50.5t-57.5 16.5l10 42
h368q114 0 170.5 -47.5t56.5 -121.5q0 -45 -20 -83.5t-52 -63.5t-64 -40.5t-64 -23.5l98 -199q23 -47 40 -63.5t50 -17.5l-8 -42h-218q-32 29 -61 106l-75 187h-41z" />
    <glyph glyph-name="rcaron" unicode="&#x159;" horiz-adv-x="493" 
d="M287 600l-80 170h55l102 -85l139 85h60l-152 -170h-124zM326 549l-42 -149l-47 -147q85 175 129.5 235.5t94.5 60.5q34 0 53.5 -21.5t19.5 -56.5q0 -44 -27 -79.5t-67 -52.5h-8q0 48 -39 48q-58 0 -114 -107t-93 -280h-182l110 440l-53 39l6 27l228 43h31z" />
    <glyph glyph-name="Sacute" unicode="&#x15a;" horiz-adv-x="586" 
d="M548 235q0 -116 -86.5 -180.5t-218.5 -64.5q-78 0 -142 25.5t-99 58.5l32 170h46q1 -93 47 -148t127 -55q54 0 88 28t34 80q0 40 -28.5 65.5t-100.5 61.5q-77 37 -118 82.5t-41 115.5q0 108 77.5 173t206.5 65q68 0 126.5 -21.5t92.5 -52.5l-31 -151h-45
q0 82 -38.5 129.5t-114.5 47.5q-48 0 -77 -29t-29 -76q0 -40 23.5 -64t84.5 -54q88 -43 136 -89t48 -117zM452 892h178v-8l-208 -141h-52z" />
    <glyph glyph-name="sacute" unicode="&#x15b;" horiz-adv-x="453" 
d="M357 765h177v-8l-211 -156h-52zM209 30q25 0 39.5 12.5t14.5 34.5q0 20 -20.5 44.5t-49.5 50t-58.5 53t-50 63t-20.5 71.5q0 78 64.5 134t159.5 56q66 0 109 -25.5t43 -73.5q0 -28 -22 -47.5t-50 -25.5h-9q-12 55 -42.5 92.5t-71.5 37.5q-23 0 -36.5 -12.5t-13.5 -34.5
q0 -17 21.5 -41t52.5 -50.5t62 -55t52.5 -64.5t21.5 -70q0 -81 -66.5 -135t-159.5 -54q-83 0 -135 32t-52 85q0 62 72 87h8q15 -76 50.5 -120t86.5 -44z" />
    <glyph glyph-name="Scircumflex" unicode="&#x15c;" horiz-adv-x="586" 
d="M548 235q0 -116 -86.5 -180.5t-218.5 -64.5q-78 0 -142 25.5t-99 58.5l32 170h46q1 -93 47 -148t127 -55q54 0 88 28t34 80q0 40 -28.5 65.5t-100.5 61.5q-77 37 -118 82.5t-41 115.5q0 108 77.5 173t206.5 65q68 0 126.5 -21.5t92.5 -52.5l-31 -151h-45
q0 82 -38.5 129.5t-114.5 47.5q-48 0 -77 -29t-29 -76q0 -40 23.5 -64t84.5 -54q88 -43 136 -89t48 -117zM488 896l80 -153h-55l-102 70l-139 -70h-60l152 153h124z" />
    <glyph glyph-name="scircumflex" unicode="&#x15d;" horiz-adv-x="453" 
d="M407 766l80 -170h-55l-102 85l-139 -85h-60l152 170h124zM209 30q25 0 39.5 12.5t14.5 34.5q0 20 -20.5 44.5t-49.5 50t-58.5 53t-50 63t-20.5 71.5q0 78 64.5 134t159.5 56q66 0 109 -25.5t43 -73.5q0 -28 -22 -47.5t-50 -25.5h-9q-12 55 -42.5 92.5t-71.5 37.5
q-23 0 -36.5 -12.5t-13.5 -34.5q0 -17 21.5 -41t52.5 -50.5t62 -55t52.5 -64.5t21.5 -70q0 -81 -66.5 -135t-159.5 -54q-83 0 -135 32t-52 85q0 62 72 87h8q15 -76 50.5 -120t86.5 -44z" />
    <glyph glyph-name="Scedilla" unicode="&#x15e;" horiz-adv-x="586" 
d="M106 -231l-9 35q54 0 85.5 14.5t31.5 35.5q0 18 -18.5 25t-57.5 9l52 106q-61 8 -110.5 30.5t-77.5 49.5l32 170h46q1 -93 47 -148t127 -55q54 0 88 28t34 80q0 40 -28.5 65.5t-100.5 61.5q-77 37 -118 82.5t-41 115.5q0 108 77.5 173t206.5 65q68 0 126.5 -21.5
t92.5 -52.5l-31 -151h-45q0 82 -38.5 129.5t-114.5 47.5q-48 0 -77 -29t-29 -76q0 -40 23.5 -64t84.5 -54q88 -43 136 -89t48 -117q0 -116 -86.5 -180.5t-218.5 -64.5q-3 0 -9 0.5t-8 0.5l-16 -31q94 -10 94 -79q0 -54 -56 -83t-142 -29z" />
    <glyph glyph-name="scedilla" unicode="&#x15f;" horiz-adv-x="453" 
d="M46 -231l-9 35q54 0 85.5 14.5t31.5 35.5q0 18 -18.5 25t-57.5 9l52 105q-63 8 -100.5 38.5t-37.5 75.5q0 62 72 87h8q15 -76 50.5 -120t86.5 -44q25 0 39.5 12.5t14.5 34.5q0 20 -20.5 44.5t-49.5 50t-58.5 53t-50 63t-20.5 71.5q0 78 64.5 134t159.5 56q66 0 109 -25.5
t43 -73.5q0 -28 -22 -47.5t-50 -25.5h-9q-12 55 -42.5 92.5t-71.5 37.5q-23 0 -36.5 -12.5t-13.5 -34.5q0 -17 21.5 -41t52.5 -50.5t62 -55t52.5 -64.5t21.5 -70q0 -81 -66.5 -135t-159.5 -54q-3 0 -7 0.5t-6 0.5l-16 -31q94 -10 94 -79q0 -54 -56 -83t-142 -29z" />
    <glyph glyph-name="Scaron" unicode="&#x160;" horiz-adv-x="586" 
d="M548 235q0 -116 -86.5 -180.5t-218.5 -64.5q-78 0 -142 25.5t-99 58.5l32 170h46q1 -93 47 -148t127 -55q54 0 88 28t34 80q0 40 -28.5 65.5t-100.5 61.5q-77 37 -118 82.5t-41 115.5q0 108 77.5 173t206.5 65q68 0 126.5 -21.5t92.5 -52.5l-31 -151h-45
q0 82 -38.5 129.5t-114.5 47.5q-48 0 -77 -29t-29 -76q0 -40 23.5 -64t84.5 -54q88 -43 136 -89t48 -117zM337 744l-80 153h55l102 -70l139 70h60l-152 -153h-124z" />
    <glyph glyph-name="scaron" unicode="&#x161;" horiz-adv-x="453" 
d="M251 600l-80 170h55l102 -85l139 85h60l-152 -170h-124zM209 30q25 0 39.5 12.5t14.5 34.5q0 20 -20.5 44.5t-49.5 50t-58.5 53t-50 63t-20.5 71.5q0 78 64.5 134t159.5 56q66 0 109 -25.5t43 -73.5q0 -28 -22 -47.5t-50 -25.5h-9q-12 55 -42.5 92.5t-71.5 37.5
q-23 0 -36.5 -12.5t-13.5 -34.5q0 -17 21.5 -41t52.5 -50.5t62 -55t52.5 -64.5t21.5 -70q0 -81 -66.5 -135t-159.5 -54q-83 0 -135 32t-52 85q0 62 72 87h8q15 -76 50.5 -120t86.5 -44z" />
    <glyph glyph-name="Tcedilla" unicode="&#x162;" horiz-adv-x="719" 
d="M292 -156h-59q-39 9 -39 48q0 32 23.5 52.5t64.5 20.5q39 0 61 -22t22 -58q0 -58 -44.5 -94.5t-137.5 -36.5l1 37q46 0 74.5 15.5t33.5 37.5zM544 661l-118 -555q-9 -38 4.5 -48t65.5 -16l-10 -42h-361l10 42q54 5 70.5 15.5t24.5 48.5l118 555h-33q-46 0 -83 -39.5
t-126 -170.5h-44l69 251h648l-39 -251h-41q-33 138 -45 164q-28 43 -67 46h-43z" />
    <glyph glyph-name="tcedilla" unicode="&#x163;" horiz-adv-x="399" 
d="M117 -156h-59q-39 9 -39 48q0 32 23.5 52.5t64.5 20.5q39 0 61 -22t22 -58q0 -58 -44.5 -94.5t-137.5 -36.5l1 37q46 0 74.5 15.5t33.5 37.5zM298 472l-77 -310q-8 -32 -8 -50q0 -29 25 -29q45 0 121 88l25 -19q-117 -162 -235 -162q-53 0 -84.5 31t-31.5 77q0 26 9 71
l76 303h-62l9 35q66 21 132.5 67.5t107.5 98.5h42l-36 -148h110l-13 -53h-110z" />
    <glyph glyph-name="Tcaron" unicode="&#x164;" horiz-adv-x="719" 
d="M401 744l-80 153h55l102 -70l139 70h60l-152 -153h-124zM544 661l-118 -555q-9 -38 4.5 -48t65.5 -16l-10 -42h-361l10 42q54 5 70.5 15.5t24.5 48.5l118 555h-33q-46 0 -83 -39.5t-126 -170.5h-44l69 251h648l-39 -251h-41q-33 138 -45 164q-28 43 -67 46h-43z" />
    <glyph glyph-name="tcaron" unicode="&#x165;" horiz-adv-x="399" 
d="M551 754l-158 -194h-40l56 205h144zM298 472l-77 -310q-8 -32 -8 -50q0 -29 25 -29q45 0 121 88l25 -19q-117 -162 -235 -162q-53 0 -84.5 31t-31.5 77q0 26 9 71l76 303h-62l9 35q66 21 132.5 67.5t107.5 98.5h42l-36 -148h110l-13 -53h-110z" />
    <glyph glyph-name="Tbar" unicode="&#x166;" horiz-adv-x="719" 
d="M179 325l12 62h98l59 274h-33q-46 0 -83 -39.5t-126 -170.5h-44l69 251h648l-39 -251h-41q-33 138 -45 164q-28 43 -67 46h-43l-59 -274h111l-13 -62h-111l-46 -219q-9 -38 4.5 -48t65.5 -16l-10 -42h-361l10 42q54 5 70.5 15.5t24.5 48.5l46 219h-97z" />
    <glyph glyph-name="tbar" unicode="&#x167;" horiz-adv-x="416" 
d="M306 472l-23 -91h115l-12 -54h-117l-41 -165q-8 -32 -8 -50q0 -29 25 -29q45 0 121 88l26 -19q-117 -162 -235 -162q-53 0 -84.5 31t-31.5 77q0 31 8 71l39 158h-56l12 54h58l23 91h-62l9 35q67 21 133.5 67.5t107.5 98.5h42l-36 -148h110l-14 -53h-109z" />
    <glyph glyph-name="Utilde" unicode="&#x168;" horiz-adv-x="754" 
d="M604 743q-33 0 -71.5 30t-58.5 30q-32 0 -71 -56l-34 20q35 70 64 102t67 32q33 0 71.5 -29.5t57.5 -29.5q33 0 71 55l34 -19q-34 -71 -63 -103t-67 -32zM605 266l70 327q8 39 -5.5 50.5t-72.5 16.5l10 42h230l-9 -42q-50 -5 -64.5 -16t-22.5 -51l-74 -346
q-53 -257 -313 -257q-145 0 -216.5 80.5t-42.5 214.5l66 308q8 39 -1 50.5t-57 16.5l9 42h341l-10 -42q-50 -5 -64 -16.5t-22 -50.5l-68 -317q-19 -88 13 -145t115 -57q74 0 120 44.5t68 147.5z" />
    <glyph glyph-name="utilde" unicode="&#x169;" horiz-adv-x="654" 
d="M409 404l31 126l187 9l-99 -395q-8 -32 -8 -41q0 -15 14 -15q24 0 81 71l24 -21q-56 -78 -101 -113t-101 -35q-48 0 -75.5 25.5t-27.5 69.5q0 31 28 130q-112 -225 -237 -225q-46 0 -72 28t-26 72q0 24 8 58l73 292l-53 39l6 27l228 43h31l-96 -378q-8 -30 -8 -42
q0 -20 18 -20q34 0 90 91t85 204zM463 602q-33 0 -71.5 30t-58.5 30q-32 0 -71 -56l-34 20q35 70 64 102t67 32q33 0 71.5 -29.5t57.5 -29.5q33 0 71 55l34 -19q-34 -71 -63 -103t-67 -32z" />
    <glyph glyph-name="Umacron" unicode="&#x16a;" horiz-adv-x="754" 
d="M391 751l19 86h290l-19 -86h-290zM605 266l70 327q8 39 -5.5 50.5t-72.5 16.5l10 42h230l-9 -42q-50 -5 -64.5 -16t-22.5 -51l-74 -346q-53 -257 -313 -257q-145 0 -216.5 80.5t-42.5 214.5l66 308q8 39 -1 50.5t-57 16.5l9 42h341l-10 -42q-50 -5 -64 -16.5t-22 -50.5
l-68 -317q-19 -88 13 -145t115 -57q74 0 120 44.5t68 147.5z" />
    <glyph glyph-name="umacron" unicode="&#x16b;" horiz-adv-x="654" 
d="M409 404l31 126l187 9l-99 -395q-8 -32 -8 -41q0 -15 14 -15q24 0 81 71l24 -21q-56 -78 -101 -113t-101 -35q-48 0 -75.5 25.5t-27.5 69.5q0 31 28 130q-112 -225 -237 -225q-46 0 -72 28t-26 72q0 24 8 58l73 292l-53 39l6 27l228 43h31l-96 -378q-8 -30 -8 -42
q0 -20 18 -20q34 0 90 91t85 204zM255 625l19 86h286l-19 -86h-286z" />
    <glyph glyph-name="Ubreve" unicode="&#x16c;" horiz-adv-x="754" 
d="M536 740q-66 0 -97 39.5t-14 116.5h45q-3 -37 19 -52t64 -15q89 0 116 67h48q-37 -156 -181 -156zM605 266l70 327q8 39 -5.5 50.5t-72.5 16.5l10 42h230l-9 -42q-50 -5 -64.5 -16t-22.5 -51l-74 -346q-53 -257 -313 -257q-145 0 -216.5 80.5t-42.5 214.5l66 308
q8 39 -1 50.5t-57 16.5l9 42h341l-10 -42q-50 -5 -64 -16.5t-22 -50.5l-68 -317q-19 -88 13 -145t115 -57q74 0 120 44.5t68 147.5z" />
    <glyph glyph-name="ubreve" unicode="&#x16d;" horiz-adv-x="654" 
d="M409 404l31 126l187 9l-99 -395q-8 -32 -8 -41q0 -15 14 -15q24 0 81 71l24 -21q-56 -78 -101 -113t-101 -35q-48 0 -75.5 25.5t-27.5 69.5q0 31 28 130q-112 -225 -237 -225q-46 0 -72 28t-26 72q0 24 8 58l73 292l-53 39l6 27l228 43h31l-96 -378q-8 -30 -8 -42
q0 -20 18 -20q34 0 90 91t85 204zM391 598q-69 0 -98 44t-10 124h46q-4 -41 18 -58t63 -17q90 0 116 75h47q-19 -81 -65.5 -124.5t-116.5 -43.5z" />
    <glyph glyph-name="Uring" unicode="&#x16e;" horiz-adv-x="754" 
d="M605 266l70 327q8 39 -5.5 50.5t-72.5 16.5l10 42h230l-9 -42q-50 -5 -64.5 -16t-22.5 -51l-74 -346q-53 -257 -313 -257q-145 0 -216.5 80.5t-42.5 214.5l66 308q8 39 -1 50.5t-57 16.5l9 42h341l-10 -42q-50 -5 -64 -16.5t-22 -50.5l-68 -317q-19 -88 13 -145t115 -57
q74 0 120 44.5t68 147.5zM602 833q0 21 -12.5 33.5t-34.5 12.5q-25 0 -39 -16t-14 -41q0 -21 12.5 -33t34.5 -12q25 0 39 16t14 40zM449 821q0 45 30.5 76.5t76.5 31.5q44 0 71.5 -26.5t27.5 -67.5q0 -45 -30.5 -76.5t-76.5 -31.5q-44 0 -71.5 26.5t-27.5 67.5z" />
    <glyph glyph-name="uring" unicode="&#x16f;" horiz-adv-x="654" 
d="M459 684q0 21 -12.5 33.5t-34.5 12.5q-25 0 -39 -16.5t-14 -40.5q0 -21 12.5 -33.5t34.5 -12.5q25 0 39 16.5t14 40.5zM306 672q0 45 30.5 76.5t76.5 31.5q44 0 71.5 -27t27.5 -68q0 -45 -30.5 -76.5t-76.5 -31.5q-44 0 -71.5 27t-27.5 68zM409 404l31 126l187 9
l-99 -395q-8 -32 -8 -41q0 -15 14 -15q24 0 81 71l24 -21q-56 -78 -101 -113t-101 -35q-48 0 -75.5 25.5t-27.5 69.5q0 31 28 130q-112 -225 -237 -225q-46 0 -72 28t-26 72q0 24 8 58l73 292l-53 39l6 27l228 43h31l-96 -378q-8 -30 -8 -42q0 -20 18 -20q34 0 90 91t85 204
z" />
    <glyph glyph-name="Uhungarumlaut" unicode="&#x170;" horiz-adv-x="754" 
d="M605 266l70 327q8 39 -5.5 50.5t-72.5 16.5l10 42h230l-9 -42q-50 -5 -64.5 -16t-22.5 -51l-74 -346q-53 -257 -313 -257q-145 0 -216.5 80.5t-42.5 214.5l66 308q8 39 -1 50.5t-57 16.5l9 42h341l-10 -42q-50 -5 -64 -16.5t-22 -50.5l-68 -317q-19 -88 13 -145t115 -57
q74 0 120 44.5t68 147.5zM483 892h151l-2 -9l-169 -140h-53zM662 892h152l-2 -9l-169 -140h-54z" />
    <glyph glyph-name="uhungarumlaut" unicode="&#x171;" horiz-adv-x="654" 
d="M409 404l31 126l187 9l-99 -395q-8 -32 -8 -41q0 -15 14 -15q24 0 81 71l24 -21q-56 -78 -101 -113t-101 -35q-48 0 -75.5 25.5t-27.5 69.5q0 31 28 130q-112 -225 -237 -225q-46 0 -72 28t-26 72q0 24 8 58l73 292l-53 39l6 27l228 43h31l-96 -378q-8 -30 -8 -42
q0 -20 18 -20q34 0 90 91t85 204zM337 765h150l-2 -9l-183 -155h-53zM517 765h150l-2 -9l-183 -155h-53z" />
    <glyph glyph-name="Uogonek" unicode="&#x172;" horiz-adv-x="754" 
d="M605 266l70 327q8 39 -5.5 50.5t-72.5 16.5l10 42h230l-9 -42q-50 -5 -64.5 -16t-22.5 -51l-74 -346q-35 -172 -168 -230q-101 -56 -101 -120q0 -18 11 -29.5t30 -11.5q35 0 74 30l12 -20q-73 -81 -151 -81q-37 0 -60.5 19.5t-23.5 53.5q0 75 110 135q-22 -3 -46 -3
q-145 0 -216.5 80.5t-42.5 214.5l66 308q8 39 -1 50.5t-57 16.5l9 42h341l-10 -42q-50 -5 -64 -16.5t-22 -50.5l-68 -317q-19 -88 13 -145t115 -57q74 0 120 44.5t68 147.5z" />
    <glyph glyph-name="uogonek" unicode="&#x173;" horiz-adv-x="654" 
d="M334 85q0 31 28 130q-112 -225 -237 -225q-46 0 -72 28t-26 72q0 24 8 58l73 292l-53 39l6 27l227 43h31l-96 -380q-7 -30 -7 -40q0 -20 18 -20q34 0 90 91t85 204l31 126l187 9l-99 -395q-8 -29 -8 -41q0 -15 14 -15q24 0 81 71l24 -21q-37 -49 -91 -99.5t-82 -82
t-28 -59.5q0 -19 10.5 -30t30.5 -11q34 0 73 30l12 -20q-73 -81 -150 -81q-37 0 -61 19.5t-24 53.5q0 72 106 132q-47 2 -74 27t-27 68z" />
    <glyph glyph-name="Wcircumflex" unicode="&#x174;" horiz-adv-x="983" 
d="M700 567l35 -314l169 306q25 44 25 68q0 16 -12 24t-48 9l9 42h201l-10 -42q-48 -6 -66 -37l-355 -627h-58l-52 399l-232 -399h-59l-106 627q-5 30 -50 37l9 42h316l-9 -42q-36 -3 -50 -15t-14 -38q0 -20 4 -40l50 -317l130 225l-19 148q-4 31 -43 37l10 42h295l-9 -42
q-37 -3 -50.5 -15t-13.5 -40q0 -19 3 -38zM703 896l80 -153h-55l-102 70l-139 -70h-60l152 153h124z" />
    <glyph glyph-name="wcircumflex" unicode="&#x175;" horiz-adv-x="788" 
d="M359 447l-50 35l7 23l199 44h18l26 -382l54 63q67 78 67 152q0 42 -25 63t-68 20l2 14q43 70 119 70q47 0 69.5 -28.5t22.5 -71.5q0 -36 -22 -78t-44.5 -69.5t-70.5 -79.5l-210 -226h-48l-26 248l-208 -248h-48l-46 451l-55 37l7 23l204 42h18l27 -371l96 116zM573 766
l80 -170h-55l-102 85l-139 -85h-60l152 170h124z" />
    <glyph glyph-name="Ycircumflex" unicode="&#x176;" horiz-adv-x="694" 
d="M455 263l-34 -157q-8 -38 5 -48t65 -16l-9 -42h-356l9 42q54 5 70.5 15.5t24.5 48.5l33 152l-122 365q-6 20 -16.5 27t-33.5 10l9 42h334l-10 -42q-42 -1 -60 -12t-18 -35q0 -15 12 -53l79 -231l168 236q34 48 34 65q0 29 -64 30l10 42h204l-9 -42q-44 -6 -66 -37z
M601 896l80 -153h-55l-102 70l-139 -70h-60l152 153h124z" />
    <glyph glyph-name="ycircumflex" unicode="&#x177;" horiz-adv-x="537" 
d="M70 447l-56 37l7 23l200 42h18l85 -451q0 1 1 2q61 85 83 142.5t22 117.5q0 55 -29 80.5t-75 24.5l2 14q43 70 115 70q50 0 76 -30.5t26 -78.5q0 -68 -50.5 -155t-150.5 -220q-118 -159 -194 -222.5t-155 -63.5q-46 0 -76 23.5t-30 66.5q0 32 21.5 56t56.5 34h17
q0 -103 76 -103q58 0 122 65zM442 766l80 -170h-55l-102 85l-139 -85h-60l152 170h124z" />
    <glyph glyph-name="Ydieresis" unicode="&#x178;" horiz-adv-x="694" 
d="M455 263l-34 -157q-8 -38 5 -48t65 -16l-9 -42h-356l9 42q54 5 70.5 15.5t24.5 48.5l33 152l-122 365q-6 20 -16.5 27t-33.5 10l9 42h334l-10 -42q-42 -1 -60 -12t-18 -35q0 -15 12 -53l79 -231l168 236q34 48 34 65q0 29 -64 30l10 42h204l-9 -42q-44 -6 -66 -37z
M421 740q-37 0 -59.5 23t-22.5 55q0 36 24.5 62t63.5 26q36 0 58.5 -22.5t22.5 -55.5q0 -36 -24 -62t-63 -26zM626 740q-37 0 -59 22.5t-22 55.5q0 36 24 62t63 26q36 0 58 -22.5t22 -55.5q0 -37 -23.5 -62.5t-62.5 -25.5z" />
    <glyph glyph-name="Zacute" unicode="&#x179;" horiz-adv-x="640" 
d="M204 47h126q62 0 107.5 35t134.5 149h44l-85 -231h-563l7 35l490 620h-117q-66 0 -100 -31t-105 -139h-42l55 217h547l-8 -35zM507 892h178v-8l-208 -141h-52z" />
    <glyph glyph-name="zacute" unicode="&#x17a;" horiz-adv-x="514" 
d="M407 765h177v-8l-211 -156h-52zM348 385h-182q-16 0 -26 -4t-15.5 -9.5t-17.5 -20.5l-23 -29l-19 6l79 246h23q3 -21 8 -30t16 -9h364v-21l-371 -323l91 -33q62 -17 88 -17q30 0 57 16t58 64l18 -10q-41 -129 -88 -178.5t-119 -49.5q-59 0 -147 44l-99 52l-30 -80
q-47 -3 -47 31q0 25 25 47z" />
    <glyph glyph-name="Zdotaccent" unicode="&#x17b;" horiz-adv-x="640" 
d="M466 741q-40 0 -64.5 24t-24.5 59q0 38 26.5 65t70.5 27q40 0 64.5 -23.5t24.5 -57.5q0 -39 -27 -66.5t-70 -27.5zM204 47h126q62 0 107.5 35t134.5 149h44l-85 -231h-563l7 35l490 620h-117q-66 0 -100 -31t-105 -139h-42l55 217h547l-8 -35z" />
    <glyph glyph-name="zdotaccent" unicode="&#x17c;" horiz-adv-x="514" 
d="M348 385h-182q-16 0 -26 -4t-15.5 -9.5t-17.5 -20.5l-23 -29l-19 6l79 246h23q3 -21 8 -30t16 -9h364v-21l-371 -323l91 -33q62 -17 88 -17q30 0 57 16t58 64l18 -10q-41 -129 -88 -178.5t-119 -49.5q-59 0 -147 44l-99 52l-30 -80q-47 -3 -47 31q0 25 25 47zM364 597
q-40 0 -64.5 24t-24.5 59q0 38 26.5 65t70.5 27q40 0 64.5 -23.5t24.5 -58.5q0 -39 -27 -66t-70 -27z" />
    <glyph glyph-name="Zcaron" unicode="&#x17d;" horiz-adv-x="640" 
d="M391 744l-80 153h55l102 -70l139 70h60l-152 -153h-124zM204 47h126q62 0 107.5 35t134.5 149h44l-85 -231h-563l7 35l490 620h-117q-66 0 -100 -31t-105 -139h-42l55 217h547l-8 -35z" />
    <glyph glyph-name="zcaron" unicode="&#x17e;" horiz-adv-x="514" 
d="M292 600l-80 170h55l102 -85l139 85h60l-152 -170h-124zM348 385h-182q-16 0 -26 -4t-15.5 -9.5t-17.5 -20.5l-23 -29l-19 6l79 246h23q3 -21 8 -30t16 -9h364v-21l-371 -323l91 -33q62 -17 88 -17q30 0 57 16t58 64l18 -10q-41 -129 -88 -178.5t-119 -49.5
q-59 0 -147 44l-99 52l-30 -80q-47 -3 -47 31q0 25 25 47z" />
    <glyph glyph-name="florin" unicode="&#x192;" horiz-adv-x="513" 
d="M55 343l11 42h97l4 19q69 308 300 308q63 0 100.5 -21t37.5 -64q0 -52 -54 -68h-54q13 120 -34 120q-38 0 -53 -69l-50 -225h110l-11 -42h-109l-41 -188q-72 -330 -302 -330q-62 0 -101 20.5t-39 63.5q0 52 54 69h54q-15 -119 36 -119q35 0 50 66l92 418h-98z" />
    <glyph glyph-name="Aringacute" unicode="&#x1fa;" horiz-adv-x="744" 
d="M439 125l-17 92h-254l-53 -91q-18 -31 -18 -47q0 -18 17.5 -26.5t56.5 -10.5l-9 -42h-216l9 42q47 5 66 37l323 542l-15 83h202l116 -625q3 -18 15.5 -26t35.5 -11l-9 -42h-346l9 42q45 2 67.5 12.5t22.5 39.5q0 18 -3 31zM559 822q0 -41 -31 -69t-77 -28q-45 0 -73 24
t-28 61q0 41 31 69t77 28q45 0 73 -24t28 -61zM362 548l-162 -277h212zM512 1047h178v-8l-188 -112h-52zM505 820q0 19 -13 30t-35 11q-25 0 -39 -14t-14 -35q0 -19 13 -30t35 -11q25 0 39 14t14 35z" />
    <glyph glyph-name="aringacute" unicode="&#x1fb;" horiz-adv-x="656" 
d="M487 659q0 19 -13 30t-36 11q-24 0 -38 -14.5t-14 -35.5q0 -19 13 -30t35 -11q25 0 39 14.5t14 35.5zM495 885h179l-1 -8l-188 -112h-52zM540 661q0 -42 -30.5 -69.5t-77.5 -27.5q-45 0 -72.5 23.5t-27.5 60.5q0 42 30.5 69.5t77.5 27.5q45 0 72.5 -23.5t27.5 -60.5z
M235 114q41 0 99.5 99t99.5 249q-4 19 -17.5 31t-32.5 12q-46 0 -90 -53t-69.5 -129t-25.5 -144q0 -65 36 -65zM338 85q0 35 27 127q-54 -108 -108.5 -165t-119.5 -57q-57 0 -89.5 42.5t-32.5 117.5q0 94 44.5 185.5t126 152.5t176.5 61q75 0 124 -51l114 52h37l-39 -134
l-67 -272q-8 -36 -8 -41q0 -15 14 -15q24 0 81 71l24 -21q-56 -78 -101 -113t-100 -35q-48 0 -75.5 25.5t-27.5 69.5z" />
    <glyph glyph-name="AEacute" unicode="&#x1fc;" horiz-adv-x="1037" 
d="M930 0h-579l10 42q50 5 64 16t22 51l30 139h-242l-101 -122q-22 -26 -22 -48q0 -18 18.5 -26t58.5 -10l-9 -42h-234l9 42q39 4 69 39l456 551q-24 20 -97 28l9 42h681l-37 -193h-35q-20 90 -42.5 118t-87.5 28h-112l-56 -265h95q33 0 50.5 19.5t35.5 72.5h44l-52 -240
h-43q5 53 -4.5 73t-42.5 20h-95l-47 -221q-9 -39 7 -53t59 -14h33q63 0 100.5 31t120.5 140h45zM561 639l-281 -337h208zM769 892h178v-8l-208 -141h-52z" />
    <glyph glyph-name="aeacute" unicode="&#x1fd;" horiz-adv-x="827" 
d="M372 549q84 0 135 -54q81 54 177 54q74 0 112.5 -32.5t38.5 -82.5q0 -41 -22.5 -72.5t-66.5 -53.5t-97 -36.5t-125 -25.5v-19q0 -66 28 -100.5t78 -34.5q70 0 142 81l23 -21q-105 -162 -261 -162q-80 0 -132 49.5t-58 132.5q-98 -182 -207 -182q-57 0 -89.5 42.5
t-32.5 117.5q0 70 27 141t73 128.5t113.5 93.5t143.5 36zM235 114q23 0 52.5 33t59.5 91q17 124 108 214q-26 55 -73 55q-45 0 -88.5 -53.5t-69 -130t-25.5 -144.5q0 -65 36 -65zM668 509q-44 0 -85.5 -72.5t-54.5 -157.5q175 42 175 182q0 48 -35 48zM583 765h177v-8
l-211 -156h-52z" />
    <glyph glyph-name="Oslashacute" unicode="&#x1fe;" horiz-adv-x="756" 
d="M723 697l-50 -59q84 -79 84 -206q0 -84 -30.5 -163t-84.5 -141t-135.5 -100t-176.5 -38q-100 0 -173 46l-59 -69l-36 29l59 69q-83 77 -83 205q0 84 30.5 163t84.5 141t135.5 100t176.5 38q98 0 171 -46l51 60zM332 38q50 0 94.5 49.5t72 122.5t43.5 150t16 138v6
l-316 -369q18 -97 90 -97zM463 664q-50 0 -94.5 -49.5t-72 -122.5t-43.5 -150t-16 -138v-4l315 369q-16 95 -89 95zM544 892h178v-8l-208 -141h-52z" />
    <glyph glyph-name="oslashacute" unicode="&#x1ff;" horiz-adv-x="577" 
d="M231 -10q-73 0 -122 30l-49 -58l-34 25l49 59q-56 58 -56 152q0 91 42.5 171.5t118.5 130t166 49.5q72 0 124 -32l44 52l34 -24l-45 -54q55 -55 55 -150q0 -140 -95 -245.5t-232 -105.5zM343 508q-44 0 -88.5 -102.5t-60.5 -217.5l194 231v5q0 84 -45 84zM234 31
q43 0 87 100.5t60 214.5l-192 -230v-2q0 -83 45 -83zM418 765h177v-8l-211 -156h-52z" />
    <glyph glyph-name="Scommaaccent" unicode="&#x218;" horiz-adv-x="586" 
d="M226 -156h-59q-39 9 -39 48q0 32 23.5 52.5t64.5 20.5q39 0 61 -22t22 -58q0 -58 -44.5 -94.5t-137.5 -36.5l1 37q46 0 74.5 15.5t33.5 37.5zM548 235q0 -116 -86.5 -180.5t-218.5 -64.5q-78 0 -142 25.5t-99 58.5l32 170h46q1 -93 47 -148t127 -55q54 0 88 28t34 80
q0 40 -28.5 65.5t-100.5 61.5q-77 37 -118 82.5t-41 115.5q0 108 77.5 173t206.5 65q68 0 126.5 -21.5t92.5 -52.5l-31 -151h-45q0 82 -38.5 129.5t-114.5 47.5q-48 0 -77 -29t-29 -76q0 -40 23.5 -64t84.5 -54q88 -43 136 -89t48 -117z" />
    <glyph glyph-name="scommaaccent" unicode="&#x219;" horiz-adv-x="453" 
d="M148 -156h-59q-39 9 -39 48q0 32 23.5 52.5t64.5 20.5q39 0 61 -22t22 -58q0 -58 -44.5 -94.5t-137.5 -36.5l1 37q46 0 74.5 15.5t33.5 37.5zM209 30q25 0 39.5 12.5t14.5 34.5q0 20 -20.5 44.5t-49.5 50t-58.5 53t-50 63t-20.5 71.5q0 78 64.5 134t159.5 56
q66 0 109 -25.5t43 -73.5q0 -28 -22 -47.5t-50 -25.5h-9q-12 55 -42.5 92.5t-71.5 37.5q-23 0 -36.5 -12.5t-13.5 -34.5q0 -17 21.5 -41t52.5 -50.5t62 -55t52.5 -64.5t21.5 -70q0 -81 -66.5 -135t-159.5 -54q-83 0 -135 32t-52 85q0 62 72 87h8q15 -76 50.5 -120t86.5 -44z
" />
    <glyph glyph-name="uni0237" unicode="&#x237;" horiz-adv-x="312" 
d="M320 549l-111 -447q-42 -167 -113.5 -245t-181.5 -78q-59 0 -95.5 22t-36.5 62q0 34 22.5 54.5t56.5 23.5h32q-3 -121 34 -121q22 0 34.5 33t35.5 128q4 16 6 25l105 434l-53 39l7 27l226 43h32z" />
    <glyph glyph-name="circumflex" unicode="&#x2c6;" 
d="M348 766l80 -170h-55l-102 85l-139 -85h-60l152 170h124z" />
    <glyph glyph-name="caron" unicode="&#x2c7;" 
d="M152 600l-80 170h55l102 -85l139 85h60l-152 -170h-124z" />
    <glyph glyph-name="breve" unicode="&#x2d8;" 
d="M217 598q-69 0 -98 44t-10 124h46q-4 -41 18 -58t63 -17q90 0 116 75h47q-19 -81 -65.5 -124.5t-116.5 -43.5z" />
    <glyph glyph-name="dotaccent" unicode="&#x2d9;" 
d="M246 597q-40 0 -64.5 24t-24.5 59q0 38 26.5 65t70.5 27q40 0 64.5 -23.5t24.5 -58.5q0 -39 -27 -66t-70 -27z" />
    <glyph glyph-name="ring" unicode="&#x2da;" 
d="M300 684q0 21 -12.5 33.5t-34.5 12.5q-25 0 -39 -16.5t-14 -40.5q0 -21 12.5 -33.5t34.5 -12.5q25 0 39 16.5t14 40.5zM147 672q0 45 30.5 76.5t76.5 31.5q44 0 71.5 -27t27.5 -68q0 -45 -30.5 -76.5t-76.5 -31.5q-44 0 -71.5 27t-27.5 68z" />
    <glyph glyph-name="ogonek" unicode="&#x2db;" 
d="M345 39l7 -17q-111 -59 -111 -125q0 -18 10.5 -29.5t30.5 -11.5q34 0 73 30l13 -20q-75 -81 -151 -81q-37 0 -61 19.5t-24 53.5q0 27 13.5 51t31.5 40.5t50.5 35t55.5 28.5t62 26z" />
    <glyph glyph-name="tilde" unicode="&#x2dc;" 
d="M302 602q-33 0 -71.5 30t-58.5 30q-32 0 -71 -56l-34 20q35 70 64 102t67 32q33 0 71.5 -29.5t57.5 -29.5q33 0 71 55l34 -19q-34 -71 -63 -103t-67 -32z" />
    <glyph glyph-name="hungarumlaut" unicode="&#x2dd;" 
d="M129 765h150l-2 -9l-183 -155h-53zM309 765h150l-2 -9l-183 -155h-53z" />
    <glyph glyph-name="pi" unicode="&#x3c0;" horiz-adv-x="679" 
d="M453 428h-145q-31 -149 -58.5 -238t-71.5 -190h-174l8 40q8 11 43.5 57t51 69.5t42 68.5t43.5 92t28 101h-129l25 118h572l-42 -118h-80q-63 -241 -63 -320q0 -38 36 -38q20 0 44 9l-1 -31q-72 -58 -145 -58q-45 0 -70.5 24t-25.5 66q0 86 112 348z" />
    <glyph glyph-name="Wgrave" unicode="&#x1e80;" horiz-adv-x="983" 
d="M700 567l35 -314l169 306q25 44 25 68q0 16 -12 24t-48 9l9 42h201l-10 -42q-48 -6 -66 -37l-355 -627h-58l-52 399l-232 -399h-59l-106 627q-5 30 -50 37l9 42h316l-9 -42q-36 -3 -50 -15t-14 -38q0 -20 4 -40l50 -317l130 225l-19 148q-4 31 -43 37l10 42h295l-9 -42
q-37 -3 -50.5 -15t-13.5 -40q0 -19 3 -38zM442 892h167l26 -149h-50l-143 140v9z" />
    <glyph glyph-name="wgrave" unicode="&#x1e81;" horiz-adv-x="788" 
d="M359 447l-50 35l7 23l199 44h18l26 -382l54 63q67 78 67 152q0 42 -25 63t-68 20l2 14q43 70 119 70q47 0 69.5 -28.5t22.5 -71.5q0 -36 -22 -78t-44.5 -69.5t-70.5 -79.5l-210 -226h-48l-26 248l-208 -248h-48l-46 451l-55 37l7 23l204 42h18l27 -371l96 116zM319 765
h166l29 -164h-50l-145 155v9z" />
    <glyph glyph-name="Wacute" unicode="&#x1e82;" horiz-adv-x="983" 
d="M700 567l35 -314l169 306q25 44 25 68q0 16 -12 24t-48 9l9 42h201l-10 -42q-48 -6 -66 -37l-355 -627h-58l-52 399l-232 -399h-59l-106 627q-5 30 -50 37l9 42h316l-9 -42q-36 -3 -50 -15t-14 -38q0 -20 4 -40l50 -317l130 225l-19 148q-4 31 -43 37l10 42h295l-9 -42
q-37 -3 -50.5 -15t-13.5 -40q0 -19 3 -38zM666 892h178v-8l-208 -141h-52z" />
    <glyph glyph-name="wacute" unicode="&#x1e83;" horiz-adv-x="788" 
d="M359 447l-50 35l7 23l199 44h18l26 -382l54 63q67 78 67 152q0 42 -25 63t-68 20l2 14q43 70 119 70q47 0 69.5 -28.5t22.5 -71.5q0 -36 -22 -78t-44.5 -69.5t-70.5 -79.5l-210 -226h-48l-26 248l-208 -248h-48l-46 451l-55 37l7 23l204 42h18l27 -371l96 116zM530 765
h177v-8l-211 -156h-52z" />
    <glyph glyph-name="Wdieresis" unicode="&#x1e84;" horiz-adv-x="983" 
d="M700 567l35 -314l169 306q25 44 25 68q0 16 -12 24t-48 9l9 42h201l-10 -42q-48 -6 -66 -37l-355 -627h-58l-52 399l-232 -399h-59l-106 627q-5 30 -50 37l9 42h316l-9 -42q-36 -3 -50 -15t-14 -38q0 -20 4 -40l50 -317l130 225l-19 148q-4 31 -43 37l10 42h295l-9 -42
q-37 -3 -50.5 -15t-13.5 -40q0 -19 3 -38zM523 740q-37 0 -59.5 23t-22.5 55q0 36 24.5 62t63.5 26q36 0 58.5 -22.5t22.5 -55.5q0 -36 -24 -62t-63 -26zM728 740q-37 0 -59 22.5t-22 55.5q0 36 24 62t63 26q36 0 58 -22.5t22 -55.5q0 -37 -23.5 -62.5t-62.5 -25.5z" />
    <glyph glyph-name="wdieresis" unicode="&#x1e85;" horiz-adv-x="788" 
d="M359 447l-50 35l7 23l199 44h18l26 -382l54 63q67 78 67 152q0 42 -25 63t-68 20l2 14q43 70 119 70q47 0 69.5 -28.5t22.5 -71.5q0 -36 -22 -78t-44.5 -69.5t-70.5 -79.5l-210 -226h-48l-26 248l-208 -248h-48l-46 451l-55 37l7 23l204 42h18l27 -371l96 116zM389 601
q-37 0 -59.5 22.5t-22.5 55.5q0 36 24.5 62t63.5 26q36 0 58.5 -22.5t22.5 -55.5q0 -36 -24 -62t-63 -26zM590 601q-36 0 -58.5 22.5t-22.5 55.5q0 36 24 62t63 26q36 0 58.5 -22.5t22.5 -55.5q0 -37 -24 -62.5t-63 -25.5z" />
    <glyph glyph-name="Ygrave" unicode="&#x1ef2;" horiz-adv-x="694" 
d="M455 263l-34 -157q-8 -38 5 -48t65 -16l-9 -42h-356l9 42q54 5 70.5 15.5t24.5 48.5l33 152l-122 365q-6 20 -16.5 27t-33.5 10l9 42h334l-10 -42q-42 -1 -60 -12t-18 -35q0 -15 12 -53l79 -231l168 236q34 48 34 65q0 29 -64 30l10 42h204l-9 -42q-44 -6 -66 -37z
M341 892h167l26 -149h-50l-143 140v9z" />
    <glyph glyph-name="ygrave" unicode="&#x1ef3;" horiz-adv-x="537" 
d="M70 447l-56 37l7 23l200 42h18l85 -451q0 1 1 2q61 85 83 142.5t22 117.5q0 55 -29 80.5t-75 24.5l2 14q43 70 115 70q50 0 76 -30.5t26 -78.5q0 -68 -50.5 -155t-150.5 -220q-118 -159 -194 -222.5t-155 -63.5q-46 0 -76 23.5t-30 66.5q0 32 21.5 56t56.5 34h17
q0 -103 76 -103q58 0 122 65zM188 765h166l29 -164h-50l-145 155v9z" />
    <glyph glyph-name="endash" unicode="&#x2013;" horiz-adv-x="540" 
d="M503 274h-480l15 60h480z" />
    <glyph glyph-name="emdash" unicode="&#x2014;" horiz-adv-x="960" 
d="M938 334l-15 -60h-900l15 60h900z" />
    <glyph glyph-name="quoteleft" unicode="&#x2018;" horiz-adv-x="280" 
d="M192 634h39q72 -17 72 -87q0 -41 -27.5 -66t-68.5 -25q-47 0 -74 32t-27 83q0 81 64.5 134t165.5 52v-41q-58 -4 -98.5 -24.5t-45.5 -57.5z" />
    <glyph glyph-name="quoteright" unicode="&#x2019;" horiz-adv-x="280" 
d="M239 578h-38q-73 17 -73 87q0 41 27 65.5t69 24.5q48 0 74.5 -31.5t26.5 -82.5q0 -81 -64.5 -134t-165.5 -52v41q59 4 99 24.5t45 57.5z" />
    <glyph glyph-name="quotesinglbase" unicode="&#x201a;" horiz-adv-x="280" 
d="M114 -1h-38q-73 17 -73 87q0 41 27.5 65.5t68.5 24.5q48 0 75 -31.5t27 -82.5q0 -81 -65 -134t-166 -52v41q59 4 99.5 24.5t44.5 57.5z" />
    <glyph glyph-name="quotedblleft" unicode="&#x201c;" horiz-adv-x="506" 
d="M192 634h39q72 -17 72 -87q0 -41 -27.5 -66t-68.5 -25q-47 0 -74 32t-27 83q0 81 64.5 134t165.5 52v-41q-58 -4 -98.5 -24.5t-45.5 -57.5zM418 634h38q73 -17 73 -87q0 -41 -27.5 -66t-68.5 -25q-48 0 -75 32t-27 83q0 81 65 134t166 52v-41q-58 -4 -99 -24.5t-45 -57.5
z" />
    <glyph glyph-name="quotedblright" unicode="&#x201d;" horiz-adv-x="506" 
d="M465 577h-39q-73 17 -73 87q0 41 27.5 66t69.5 25q47 0 74 -32t27 -83q0 -81 -64.5 -134t-165.5 -52v41q58 4 98.5 24.5t45.5 57.5zM239 577h-38q-73 17 -73 87q0 41 27.5 66t68.5 25q48 0 74.5 -32t26.5 -83q0 -81 -64.5 -134t-165.5 -52v41q58 4 98.5 24.5t45.5 57.5z
" />
    <glyph glyph-name="quotedblbase" unicode="&#x201e;" horiz-adv-x="506" 
d="M340 -1h-38q-73 17 -73 87q0 41 27 65.5t69 24.5q47 0 74 -31.5t27 -82.5q0 -81 -64.5 -134t-165.5 -52v41q59 4 99 24.5t45 57.5zM114 -1h-38q-73 17 -73 87q0 41 27.5 65.5t68.5 24.5q48 0 75 -31.5t27 -82.5q0 -81 -65 -134t-166 -52v41q59 4 99.5 24.5t44.5 57.5z
" />
    <glyph glyph-name="dagger" unicode="&#x2020;" horiz-adv-x="378" 
d="M266 579q-7 -31 4.5 -56.5t31.5 -38.5l-2 -9q-27 -30 -65.5 -124t-64.5 -202h-13q19 106 20.5 204t-12.5 122l2 9q25 13 47.5 38.5t29.5 56.5q-25 0 -59.5 -21t-54.5 -21q-19 0 -31.5 12.5t-12.5 34.5q0 26 17 41.5t39 15.5q20 0 50 -21t56 -21q5 27 -6 60.5t-11 45.5
q0 25 15.5 39t39.5 14q23 0 35.5 -13t12.5 -31q0 -21 -29.5 -56.5t-34.5 -58.5q25 0 59.5 21t54.5 21q18 0 31 -13t13 -34q0 -26 -17 -41.5t-39 -15.5q-20 0 -50.5 21t-55.5 21z" />
    <glyph glyph-name="daggerdbl" unicode="&#x2021;" horiz-adv-x="378" 
d="M210 310q25 0 59.5 20.5t54.5 20.5q18 0 30.5 -12.5t12.5 -33.5q0 -26 -16.5 -41.5t-38.5 -15.5q-20 0 -50.5 20.5t-55.5 20.5q-2 -19 8.5 -43.5t10.5 -40.5q0 -25 -16 -39t-40 -14q-21 0 -33.5 13t-12.5 31q0 22 28.5 49.5t32.5 43.5q-26 0 -61 -20.5t-54 -20.5
q-18 0 -30.5 12.5t-12.5 33.5q0 26 16.5 41.5t38.5 15.5q20 0 50.5 -20.5t55.5 -20.5q11 51 -38 83l2 9q28 3 45.5 17.5t22.5 35.5q4 21 -8 35.5t-38 17.5l2 9q62 31 74 83q-25 0 -59.5 -20.5t-54.5 -20.5q-18 0 -31 12.5t-13 33.5q0 26 17 41.5t39 15.5q20 0 50.5 -20.5
t55.5 -20.5q2 19 -8.5 43.5t-10.5 40.5q0 25 16 39t39 14q21 0 33.5 -13t12.5 -31q0 -22 -28 -49.5t-32 -43.5q25 0 59.5 20.5t54.5 20.5q18 0 31 -12.5t13 -33.5q0 -26 -17 -41.5t-39 -15.5q-20 0 -50.5 20.5t-55.5 20.5q-11 -49 38 -83l-2 -9q-27 -3 -45 -17.5t-23 -35.5
t7.5 -35.5t38.5 -17.5l-2 -9q-64 -33 -73 -83z" />
    <glyph glyph-name="bullet" unicode="&#x2022;" horiz-adv-x="368" 
d="M30 308q0 64 45.5 110.5t108.5 46.5q64 0 109 -46t45 -111q0 -64 -45.5 -110.5t-108.5 -46.5t-108.5 46.5t-45.5 110.5z" />
    <glyph glyph-name="ellipsis" unicode="&#x2026;" horiz-adv-x="764" 
d="M-4 93q0 45 29.5 74.5t73.5 29.5q43 0 73 -29.5t30 -74.5t-30 -74t-73 -29q-44 0 -73.5 29t-29.5 74zM244 93q0 45 30 74.5t74 29.5q43 0 73 -29.5t30 -74.5t-30 -74t-73 -29q-44 0 -74 29t-30 74zM493 93q0 45 30 74.5t73 29.5q44 0 74 -29.5t30 -74.5t-30 -74t-74 -29
q-43 0 -73 29t-30 74z" />
    <glyph glyph-name="perthousand" unicode="&#x2030;" horiz-adv-x="1150" 
d="M271 712q63 0 105 -38t42 -106q0 -93 -61.5 -148t-139.5 -55q-63 0 -105 37.5t-42 106.5q0 93 61.5 148t139.5 55zM268 677q-37 0 -62.5 -62t-25.5 -142q0 -74 39 -74q37 0 62.5 62t25.5 142q0 74 -39 74zM535 -10q-63 0 -105 38t-42 106q0 93 61.5 148t139.5 55
q63 0 105 -37.5t42 -106.5q0 -93 -61.5 -148t-139.5 -55zM733 712l-605 -722h-56l605 722h56zM537 25q37 0 62.5 62t25.5 142q0 74 -39 74q-37 0 -62.5 -62t-25.5 -142q0 -74 39 -74zM909 -10q-63 0 -105 38t-42 106q0 93 61.5 148t139.5 55q63 0 105 -37.5t42 -106.5
q0 -93 -61.5 -148t-139.5 -55zM911 25q37 0 63 62t26 142q0 74 -40 74q-37 0 -62.5 -62t-25.5 -142q0 -74 39 -74z" />
    <glyph glyph-name="guilsinglleft" unicode="&#x2039;" horiz-adv-x="279" 
d="M27 273l1 6l231 200h46l-134 -203l47 -204h-46z" />
    <glyph glyph-name="guilsinglright" unicode="&#x203a;" horiz-adv-x="279" 
d="M260 279l-1 -6l-231 -201h-46l134 204l-47 203h46z" />
    <glyph glyph-name="fraction" unicode="&#x2044;" horiz-adv-x="283" 
d="M-165 -10l605 722h56l-605 -722h-56z" />
    <glyph glyph-name="Euro" unicode="&#x20ac;" horiz-adv-x="675" 
d="M515 712q118 0 188 -61l-30 -164h-46q-3 92 -27 135t-79 43q-63 0 -113.5 -64.5t-80.5 -162.5h188l-18 -44h-182q-7 -26 -15 -76h161l-18 -46h-147q-1 -11 -1 -32q0 -199 105 -199q58 0 100.5 46.5t94.5 146.5h52l-56 -187q-85 -57 -203 -57q-135 0 -210 73t-75 199v10
h-77l13 46h67q4 38 15 76h-70l13 44h72q48 122 151 198t228 76z" />
    <glyph glyph-name="uni2117" unicode="&#x2117;" horiz-adv-x="796" 
d="M440 307h-48l-19 -87q-5 -20 7 -26.5t44 -7.5l-7 -32h-212l7 32q28 1 38 8t15 30l59 262q4 20 -3 25.5t-33 7.5l7 32h195q69 0 104 -29.5t35 -78.5q0 -58 -52.5 -97t-136.5 -39zM439 516l-40 -178h19q46 0 75 27t29 77q0 74 -66 74h-17zM398 -10q-147 0 -241.5 95.5
t-94.5 239.5q0 162 110 274.5t271 112.5q147 0 241.5 -95.5t94.5 -239.5q0 -162 -110 -274.5t-271 -112.5zM398 25q145 0 244 102t99 250q0 128 -83.5 214t-214.5 86q-146 0 -244.5 -102t-98.5 -250q0 -128 83.5 -214t214.5 -86z" />
    <glyph glyph-name="trademark" unicode="&#x2122;" horiz-adv-x="933" 
d="M157 702h320l-18 -113h-32q-7 45 -18 64.5t-38 19.5h-11l-53 -242q-4 -19 3.5 -25.5t32.5 -8.5l-5 -27h-183l5 27q25 2 35.5 8t14.5 25l52 243h-10q-29 0 -49 -20t-45 -64h-32zM686 498l87 167q11 19 14 37h156l-14 -30q-23 0 -33 -7t-15 -26l-14 -212q-1 -17 6.5 -22.5
t28.5 -7.5l-6 -27h-181l5 27q37 1 46 13.5t11 52.5l9 150l-129 -243h-43l-32 243l-54 -151q-15 -29 -12 -46.5t41 -18.5l-6 -27h-132l6 27q22 2 32 7.5t16 22.5l76 212q0 18 -5.5 25.5t-26.5 7.5l6 30h140q-2 -23 0 -36z" />
    <glyph glyph-name="Omega" unicode="&#x2126;" horiz-adv-x="754" 
d="M463 671q-60 0 -107 -61t-70 -146.5t-23 -171.5q0 -125 42 -206l-18 -86h-269l16 194h31q12 -35 18.5 -49.5t20.5 -26t31.5 -13.5t53.5 -2h72q-65 23 -118 93.5t-53 162.5q0 144 112 248.5t261 104.5q120 0 188.5 -69t68.5 -178q0 -123 -87 -220t-215 -142h71q66 0 91 14
t73 77h32l-66 -194h-270l18 86q80 87 128.5 202.5t48.5 237.5q0 61 -19 103t-62 42z" />
    <glyph glyph-name="uni2153" unicode="&#x2153;" horiz-adv-x="801" 
d="M95 -10l604 722h57l-605 -722h-56zM295 712h33l-68 -320q-7 -32 2.5 -41t52.5 -11l-7 -34h-258l7 34q43 3 56 10.5t19 35.5l46 212h-68l7 31l27 6q57 11 86.5 26t64.5 51zM636 222q46 -6 75.5 -31t29.5 -65q0 -62 -54.5 -98t-125.5 -36q-62 0 -100.5 23.5t-38.5 58.5
q0 38 39 53h69q-10 -20 -10 -47q0 -24 11.5 -41.5t32.5 -17.5q28 0 45 25.5t17 64.5q0 34 -15 52.5t-41 18.5q-6 0 -24 -2l-4 21q53 20 77 40t24 48q0 18 -11.5 29.5t-31.5 11.5q-47 0 -88 -45l-22 16q26 45 69 73t96 28q47 0 75 -20.5t28 -59.5q0 -40 -35.5 -66t-86.5 -34z
" />
    <glyph glyph-name="uni2154" unicode="&#x2154;" horiz-adv-x="851" 
d="M145 -10l604 722h56l-605 -722h-55zM686 222q46 -5 75 -30t29 -66q0 -62 -54.5 -98t-125.5 -36q-62 0 -100.5 23.5t-38.5 58.5q0 38 40 53h69q-10 -20 -10 -47q0 -25 11 -42t32 -17q28 0 45 25.5t17 64.5q0 71 -56 71q-7 0 -23 -2l-4 21q53 20 77 40t24 48
q0 18 -11.5 29.5t-32.5 11.5q-47 0 -87 -45l-23 16q26 45 69.5 73t96.5 28q47 0 74.5 -20.5t27.5 -59.5q0 -40 -35 -66t-86 -34zM175 397h114q28 0 43.5 8t37.5 35h24l-41 -137h-311l5 25q139 104 183.5 157.5t44.5 94.5q0 53 -53 53q-52 0 -95 -50l-19 19q26 47 70.5 77
t104.5 30q51 0 83 -25.5t32 -73.5q0 -26 -13 -50.5t-27 -41t-50 -41t-53.5 -35t-65.5 -37.5q-9 -5 -14 -8z" />
    <glyph glyph-name="uni215B" unicode="&#x215b;" horiz-adv-x="854" 
d="M810 311q0 -36 -30 -56.5t-80 -22.5q86 -37 86 -111q0 -64 -47.5 -97.5t-118.5 -33.5q-68 0 -116 28t-48 73q0 74 114 83q-64 38 -64 103q0 59 45 94t113 35q67 0 106.5 -26.5t39.5 -68.5zM655 127l-75 39q-38 -23 -38 -67q0 -35 21.5 -55.5t56.5 -20.5q30 0 50 14.5
t20 41.5q0 28 -35 48zM639 266l45 -24q43 28 43 73q0 25 -17 41.5t-46 16.5q-28 0 -45 -15.5t-17 -40.5q0 -33 37 -51zM95 -10l604 722h57l-605 -722h-56zM295 712h33l-68 -320q-7 -32 2.5 -41t52.5 -11l-7 -34h-258l7 34q43 3 56 10.5t19 35.5l46 212h-68l7 31l27 6
q57 11 86.5 26t64.5 51z" />
    <glyph glyph-name="uni215C" unicode="&#x215c;" horiz-adv-x="851" 
d="M266 533q46 -6 75 -31.5t29 -65.5q0 -62 -54.5 -98t-125.5 -36q-62 0 -100.5 23.5t-38.5 58.5q0 40 40 53h69q-10 -20 -10 -46q0 -25 11 -42.5t32 -17.5q28 0 45 26t17 65q0 33 -14.5 51.5t-41.5 18.5q-7 0 -23 -2l-4 22q52 19 76.5 39t24.5 49q0 18 -11.5 29t-32.5 11
q-49 0 -87 -45l-23 16q26 46 69.5 73.5t96.5 27.5q47 0 74.5 -20.5t27.5 -58.5q0 -41 -35 -67t-86 -33zM807 311q0 -36 -30 -56.5t-80 -22.5q87 -37 87 -111q0 -64 -48 -97.5t-119 -33.5q-68 0 -116 28t-48 73q0 73 114 83q-63 37 -63 103q0 59 45 94t112 35t106.5 -26
t39.5 -69zM652 127l-74 39q-38 -23 -38 -67q0 -35 21.5 -55.5t55.5 -20.5q30 0 50.5 14.5t20.5 41.5q0 28 -36 48zM636 266l45 -24q43 27 43 73q0 25 -16.5 41.5t-46.5 16.5q-28 0 -45 -15.5t-17 -40.5q0 -32 37 -51zM101 -10l604 722h56l-605 -722h-55z" />
    <glyph glyph-name="uni215D" unicode="&#x215d;" horiz-adv-x="846" 
d="M191 702h142q18 0 25 4t18 20h28l-41 -124h-173l-15 -41q188 8 188 -122q0 -62 -46.5 -100t-118.5 -38q-65 0 -99.5 20.5t-34.5 53.5q0 38 39 54h60q-9 -22 -9 -42q0 -26 13.5 -41t38.5 -15q27 0 44 19t17 47q0 44 -39.5 62.5t-120.5 18.5zM802 311q0 -36 -30 -56.5
t-80 -22.5q87 -37 87 -111q0 -64 -48 -97.5t-119 -33.5q-68 0 -116 28t-48 73q0 74 114 83q-63 37 -63 103q0 59 44.5 94t112.5 35q67 0 106.5 -26t39.5 -69zM647 127l-74 39q-38 -23 -38 -67q0 -35 21 -55.5t56 -20.5q30 0 50.5 14.5t20.5 41.5q0 28 -36 48zM631 266
l45 -24q43 27 43 73q0 25 -16.5 41.5t-46.5 16.5q-28 0 -45 -15.5t-17 -40.5q0 -32 37 -51zM96 -10l604 722h56l-605 -722h-55z" />
    <glyph glyph-name="uni215E" unicode="&#x215e;" horiz-adv-x="788" 
d="M348 593h-140q-41 0 -75 -61h-36l68 170h298l-7 -30l-277 -368h-79zM744 311q0 -36 -30 -56.5t-80 -22.5q86 -37 86 -111q0 -64 -47.5 -97.5t-118.5 -33.5q-68 0 -116 28t-48 73q0 74 114 83q-64 38 -64 103q0 59 45 94t113 35q67 0 106.5 -26.5t39.5 -68.5zM589 127
l-75 39q-38 -23 -38 -67q0 -35 21.5 -55.5t56.5 -20.5q30 0 50 14.5t20 41.5q0 28 -35 48zM573 266l45 -24q43 28 43 73q0 25 -17 41.5t-46 16.5q-28 0 -45 -15.5t-17 -40.5q0 -33 37 -51zM37 -10l605 722h56l-605 -722h-56z" />
    <glyph glyph-name="partialdiff" unicode="&#x2202;" horiz-adv-x="598" 
d="M354 549q10 0 30 -2q-16 70 -59 120.5t-126 88.5l21 29q75 -17 136 -50t101 -75t67.5 -93.5t39.5 -104t12 -107.5q0 -161 -89 -263t-232 -102q-95 0 -157.5 62t-62.5 163q0 139 91.5 236.5t227.5 97.5zM395 423q0 47 -4 82q-12 3 -21 3q-43 0 -80.5 -69t-57 -157.5
t-19.5 -160.5q0 -89 39 -89q54 0 98.5 130.5t44.5 260.5z" />
    <glyph glyph-name="Delta" unicode="&#x2206;" horiz-adv-x="659" 
d="M606 0h-635l8 39l432 663h46l156 -663zM320 471l-271 -417h366z" />
    <glyph glyph-name="product" unicode="&#x220f;" horiz-adv-x="813" 
d="M601 654h-223l-159 -742q-8 -40 1.5 -51t57.5 -16l-8 -42h-340l8 42q50 5 64 16t22 51l145 681q8 40 -1 51t-58 16l10 42h760l-10 -42q-50 -5 -64 -16.5t-22 -50.5l-145 -681q-8 -40 1 -51t57 -16l-8 -42h-341l8 42q51 5 65 16t22 51z" />
    <glyph glyph-name="summation" unicode="&#x2211;" horiz-adv-x="617" 
d="M70 -48h222q71 0 108.5 16t90.5 81h41l-95 -246h-536l10 47l351 375l-170 423l11 54h542l-40 -187h-40q-9 35 -14.5 52t-15.5 38t-22 29.5t-31.5 15t-47.5 6.5h-144l132 -326l-3 -12z" />
    <glyph glyph-name="minus" unicode="&#x2212;" horiz-adv-x="574" 
d="M77 335l15 69h442l-15 -69h-442z" />
    <glyph glyph-name="radical" unicode="&#x221a;" horiz-adv-x="598" 
d="M346 241l282 471h56l-427 -712h-72l-49 444q-3 30 -13 42t-35 15l-25 2l8 43h252z" />
    <glyph glyph-name="infinity" unicode="&#x221e;" horiz-adv-x="748" 
d="M358 347l-31 44q-42 62 -95 62q-48 0 -80 -34.5t-32 -91.5q0 -38 23 -61t57 -23q49 0 105 54zM424 348l30 -43q43 -61 97 -61q47 0 79 34t32 92q0 38 -23 61t-56 23q-50 0 -105 -55zM385 297l-37 -37q-73 -76 -149 -76q-61 0 -100.5 38t-39.5 104q0 82 53 134.5t128 52.5
q42 0 71.5 -20t58.5 -58l27 -36l38 38q73 76 148 76q61 0 100.5 -38t39.5 -104q0 -82 -52.5 -134.5t-127.5 -52.5q-42 0 -72 19t-59 58z" />
    <glyph glyph-name="integral" unicode="&#x222b;" horiz-adv-x="449" 
d="M326 493l-87 -415q-28 -135 -93 -204.5t-183 -69.5q-54 0 -87.5 21t-33.5 64q0 51 53 68h54q-7 -43 -4 -79t25 -36q28 0 42 36t37 145l86 413q29 136 93.5 206t181.5 70q55 0 88.5 -21.5t33.5 -64.5q0 -50 -53 -67h-54q7 43 4.5 79t-25.5 36q-28 0 -42 -37t-36 -144z" />
    <glyph glyph-name="approxequal" unicode="&#x2248;" horiz-adv-x="584" 
d="M93 386l14 69q71 41 128 41q39 0 98 -20t97 -20q61 0 129 41l-14 -69q-70 -41 -130 -41q-38 0 -96.5 20t-97.5 20q-59 0 -128 -41zM63 248l15 68q67 41 128 41q39 0 98 -19.5t96 -19.5q62 0 130 40l-14 -69q-69 -40 -131 -40q-37 0 -96 19t-98 19q-58 0 -128 -39z" />
    <glyph glyph-name="notequal" unicode="&#x2260;" horiz-adv-x="584" 
d="M97 409l15 66h256l96 105h80l-96 -105h107l-14 -66h-154l-74 -81h211l-14 -64h-255l-96 -105h-80l96 105h-108l13 64h153l74 81h-210z" />
    <glyph glyph-name="lessequal" unicode="&#x2264;" horiz-adv-x="445" 
d="M81 401l2 9l352 171l-16 -81l-209 -97l167 -99l-16 -74zM24 131l14 67h316l-14 -67h-316z" />
    <glyph glyph-name="greaterequal" unicode="&#x2265;" horiz-adv-x="445" 
d="M419 410l-2 -9l-352 -171l16 80l209 98l-167 98l17 75zM374 198l-14 -67h-316l14 67h316z" />
    <glyph glyph-name="lozenge" unicode="&#x25ca;" horiz-adv-x="566" 
d="M235 49l243 307l-110 297l-243 -307zM272 0h-87l-132 351l279 351h87l132 -351z" />
    <glyph glyph-name="i.dot" horiz-adv-x="344" 
d="M38 164l70 276l-53 39l6 27l227 43h31l-102 -405q-8 -29 -8 -41q0 -15 14 -15q24 0 81 71l24 -21q-56 -78 -101 -113t-101 -35q-47 0 -73 26t-26 66q0 35 11 82zM253 597q-40 0 -64.5 24t-24.5 59q0 38 26.5 65t70.5 27q40 0 64.5 -23.5t24.5 -58.5q0 -39 -27 -66
t-70 -27z" />
    <glyph glyph-name="space_uni0326" 
d="M268 -156h-59q-39 9 -39 48q0 32 23.5 52.5t64.5 20.5q39 0 61 -22t22 -58q0 -58 -44.5 -94.5t-137.5 -36.5l1 37q46 0 74.5 15.5t33.5 37.5z" />
    <glyph glyph-name="space_uni0326.alt" 
d="M232 714h59q39 -11 39 -48q0 -32 -23.5 -53t-64.5 -21q-39 0 -61 22t-22 58q0 59 44.5 95t137.5 36l-1 -37q-46 0 -74.5 -15t-33.5 -37z" />
    <glyph glyph-name="space_dotbelowcomb" 
d="M246 -201q-40 0 -64.5 24t-24.5 59q0 38 26.5 65t70.5 27q40 0 64.5 -23.5t24.5 -57.5q0 -39 -27 -66.5t-70 -27.5z" />
    <glyph glyph-name="caron.Slovak" 
d="M348 772l-158 -194h-40l56 205h144z" />
    <glyph glyph-name="cedilla.alt" 
d="M223 -40h35q95 -9 95 -79q0 -54 -56 -83t-142 -29l-9 35q54 0 85.5 14.5t31.5 35.5q0 18 -18.5 25t-57.5 9z" />
    <glyph glyph-name="grave.cap" 
d="M152 892h167l26 -149h-50l-143 140v9z" />
    <glyph glyph-name="acute.cap" 
d="M203 892h178v-8l-208 -141h-52z" />
    <glyph glyph-name="circumflex.cap" 
d="M348 896l80 -153h-55l-102 70l-139 -70h-60l152 153h124z" />
    <glyph glyph-name="tilde.cap" 
d="M302 743q-33 0 -71.5 30t-58.5 30q-32 0 -71 -56l-34 20q35 70 64 102t67 32q33 0 71.5 -29.5t57.5 -29.5q33 0 71 55l34 -19q-34 -71 -63 -103t-67 -32z" />
    <glyph glyph-name="macron.cap" 
d="M95 751l19 86h290l-19 -86h-290z" />
    <glyph glyph-name="breve.cap" 
d="M218 740q-66 0 -97 39.5t-14 116.5h45q-3 -37 19 -52t64 -15q89 0 116 67h48q-37 -156 -181 -156z" />
    <glyph glyph-name="dotaccent.cap" 
d="M246 741q-40 0 -64.5 24t-24.5 59q0 38 26.5 65t70.5 27q40 0 64.5 -23.5t24.5 -57.5q0 -39 -27 -66.5t-70 -27.5z" />
    <glyph glyph-name="dieresis.cap" 
d="M145 740q-37 0 -59.5 23t-22.5 55q0 36 24.5 62t63.5 26q36 0 58.5 -22.5t22.5 -55.5q0 -36 -24 -62t-63 -26zM350 740q-37 0 -59 22.5t-22 55.5q0 36 24 62t63 26q36 0 58 -22.5t22 -55.5q0 -37 -23.5 -62.5t-62.5 -25.5z" />
    <glyph glyph-name="ring.cap" 
d="M300 833q0 21 -12.5 33.5t-34.5 12.5q-25 0 -39 -16t-14 -41q0 -21 12.5 -33t34.5 -12q25 0 39 16t14 40zM147 821q0 45 30.5 76.5t76.5 31.5q44 0 71.5 -26.5t27.5 -67.5q0 -45 -30.5 -76.5t-76.5 -31.5q-44 0 -71.5 26.5t-27.5 67.5z" />
    <glyph glyph-name="hungarumlaut.cap" 
d="M123 892h151l-2 -9l-169 -140h-53zM302 892h152l-2 -9l-169 -140h-54z" />
    <glyph glyph-name="caron.cap" 
d="M152 744l-80 153h55l102 -70l139 70h60l-152 -153h-124z" />
    <glyph glyph-name="exclamdown.cap" horiz-adv-x="293" 
d="M-24 0l208 468h57l-26 -468h-239zM335 615q0 -41 -28 -70t-67 -29q-40 0 -68 29t-28 70q0 40 28 68.5t68 28.5q39 0 67 -28.5t28 -68.5z" />
    <glyph glyph-name="questiondown.cap" horiz-adv-x="470" 
d="M240 228q-54 -31 -81.5 -60t-27.5 -72q0 -31 16 -49t46 -18q37 0 57 29t20 75q0 23 -5 48h122q27 -24 27 -59q0 -62 -60.5 -97t-150.5 -35q-102 0 -158 45.5t-56 121.5q0 67 38.5 110.5t112.5 78.5q62 29 91 52.5t29 55.5q0 10 -3 21h27q70 -32 70 -102q0 -44 -26 -76.5
t-88 -68.5zM408 615q0 -41 -28 -70t-67 -29q-40 0 -68 29t-28 70q0 40 28 68.5t68 28.5q39 0 67 -28.5t28 -68.5z" />
    <glyph glyph-name="guilsinglleft.cap" horiz-adv-x="279" 
d="M45 349l1 6l231 201h46l-134 -204l47 -203h-46z" />
    <glyph glyph-name="guilsinglright.cap" horiz-adv-x="279" 
d="M278 355l-1 -6l-230 -200h-46l133 203l-47 204h46z" />
    <glyph glyph-name="guillemotleft.cap" horiz-adv-x="465" 
d="M45 349l1 6l231 201h46l-134 -204l47 -203h-46zM232 349l1 6l230 201h46l-133 -204l47 -203h-46z" />
    <glyph glyph-name="guillemotright.cap" horiz-adv-x="465" 
d="M465 355l-1 -6l-231 -200h-46l134 203l-47 204h46zM278 355l-1 -6l-230 -200h-46l133 203l-47 204h46z" />
    <glyph glyph-name="slash.cap" horiz-adv-x="361" 
d="M463 770l-450 -871h-79l450 871h79z" />
    <glyph glyph-name="backslash.cap" horiz-adv-x="361" 
d="M208 -101l-80 871h74l80 -871h-74z" />
    <glyph glyph-name="bar.cap" horiz-adv-x="205" 
d="M254 770l-185 -871h-73l185 871h73z" />
    <glyph glyph-name="brokenbar.cap" horiz-adv-x="205" 
d="M254 770l-79 -371h-74l79 371h74zM148 270l-79 -371h-74l79 371h74z" />
    <glyph glyph-name="periodcentered.cap" horiz-adv-x="262" 
d="M49 348q0 44 29.5 73t71.5 29t71.5 -29t29.5 -73t-29 -72.5t-72 -28.5t-72 28.5t-29 72.5z" />
    <glyph glyph-name="bullet.cap" horiz-adv-x="368" 
d="M49 351q0 65 45.5 111t108.5 46q64 0 108.5 -46t44.5 -111q0 -64 -45 -110t-108 -46t-108.5 46t-45.5 110z" />
    <glyph glyph-name="hyphen.cap" horiz-adv-x="320" 
d="M300 313h-260l18 78h260z" />
    <glyph glyph-name="endash.cap" horiz-adv-x="540" 
d="M520 318h-480l15 60h480z" />
    <glyph glyph-name="emdash.cap" horiz-adv-x="960" 
d="M955 378l-15 -60h-900l15 60h900z" />
    <glyph glyph-name="parenleft.cap" horiz-adv-x="371" 
d="M66 230q0 155 95.5 298t246.5 242h56q-136 -124 -203 -286t-67 -310q0 -160 76 -277h-56q-72 65 -110 151t-38 182z" />
    <glyph glyph-name="parenright.cap" horiz-adv-x="371" 
d="M327 437q0 -155 -95.5 -298t-246.5 -242h-56q136 124 203 286t67 310q0 164 -76 277h56q72 -65 110 -151t38 -182z" />
    <glyph glyph-name="bracketleft.cap" horiz-adv-x="336" 
d="M297 671l-144 -673q-8 -37 10 -46.5t82 -13.5l-7 -39h-219l185 871h219l-9 -39q-66 -4 -87.5 -13.5t-29.5 -46.5z" />
    <glyph glyph-name="bracketright.cap" horiz-adv-x="336" 
d="M80 -2l143 673q8 37 -9.5 46.5t-81.5 13.5l8 39h219l-185 -871h-219l7 39q67 4 88.5 13.5t29.5 46.5z" />
    <glyph glyph-name="braceleft.cap" horiz-adv-x="367" 
d="M73 325l4 18q87 17 105 100l42 199q28 128 233 128l-6 -29q-89 -10 -107 -98l-41 -189q-11 -54 -46.5 -81t-96.5 -39q55 -12 79 -39t13 -81l-40 -187q-18 -88 65 -98l-5 -29q-107 0 -149.5 33t-29.5 95l42 197q17 83 -62 100z" />
    <glyph glyph-name="braceright.cap" horiz-adv-x="375" 
d="M342 345l-4 -18q-87 -17 -105 -100l-42 -199q-28 -128 -233 -128l6 29q89 10 107 98l41 189q11 54 46.5 81t96.5 39q-55 12 -79.5 39.5t-12.5 80.5l40 187q18 88 -65 98l5 29q107 0 149.5 -33t29.5 -95l-42 -197q-18 -83 62 -100z" />
    <glyph glyph-name="at.cap" horiz-adv-x="885" 
d="M621 138q-74 0 -99.5 45t-11.5 116q-38 -78 -78 -119.5t-92 -41.5q-45 0 -74 34t-29 93q0 107 78.5 198.5t184.5 91.5q58 0 91 -41l76 33h40l-34 -92l-61 -194q-12 -35 -6 -60.5t34 -25.5q58 0 102 73.5t44 183.5q0 117 -76.5 199t-206.5 82q-161 0 -259.5 -116
t-98.5 -285q0 -159 94.5 -244.5t241.5 -85.5q81 0 142.5 17.5t127.5 57.5l14 -20q-117 -104 -304 -104q-171 0 -286.5 100t-115.5 277q0 184 127 313.5t317 129.5q167 0 266 -93t99 -228q0 -72 -23 -130t-59.5 -92.5t-79 -53t-85.5 -18.5zM401 226q42 0 86.5 78.5
t66.5 183.5q-13 32 -45 32q-55 0 -97.5 -82t-42.5 -160q0 -52 32 -52z" />
    </font>
</defs>
</svg>
