<?xml version="1.0" standalone="no"?>
<!DOCTYPE svg PUBLIC "-//W3C//DTD SVG 1.1//EN" "http://www.w3.org/Graphics/SVG/1.1/DTD/svg11.dtd" >
<svg xmlns="http://www.w3.org/2000/svg" xmlns:xlink="http://www.w3.org/1999/xlink" version="1.1">
<metadata>
Created by FontForge 20170731 at Thu Oct  7 15:25:27 2010
 By Aleksey,,,
(c) 2010 Klim Type Foundry. All rights reserved.
</metadata>
<defs>
<font id="TiemposText-BoldItalic" horiz-adv-x="600" >
  <font-face 
    font-family="Tiempos Text Bold"
    font-weight="700"
    font-style="italic"
    font-stretch="normal"
    units-per-em="1000"
    panose-1="2 2 8 3 6 3 3 13 4 3"
    ascent="761"
    descent="-239"
    x-height="559"
    cap-height="702"
    bbox="-189 -250 1331 1061"
    underline-thickness="30"
    underline-position="-170"
    slope="-12"
    unicode-range="U+0020-FB04"
  />
<missing-glyph horiz-adv-x="960" 
 />
    <glyph glyph-name="ff" unicode="ff" horiz-adv-x="717" 
d="M364 13l88 469h-140l-50 -235q-96 -454 -316 -454q-57 0 -92 22t-35 59q0 34 22.5 54.5t56.5 24.5h28q2 -116 43 -116q22 0 33.5 32t30.5 133l90 480h-75l12 53l82 20q68 203 266 203q87 0 148 -50q67 62 174 62q65 0 106 -21.5t41 -67.5q0 -53 -54 -70h-62
q15 109 -35 109q-67 0 -77 -173h124l-13 -65h-119l-48 -224q-53 -249 -130 -351.5t-186 -102.5q-46 0 -72 21t-26 56q0 32 20 53t53 25h22q1 -33 1.5 -46t2.5 -32t7.5 -26t14.5 -7q22 0 33.5 32t30.5 133zM417 708q-88 0 -97 -161h147q13 42 27 73q-18 88 -77 88z" />
    <glyph glyph-name="fi" unicode="fi" horiz-adv-x="707" 
d="M48 482l12 53l82 20q72 215 292 215q70 0 117.5 -22t47.5 -67q0 -49 -54 -66h-92q15 105 -40 105q-37 0 -62.5 -44t-30.5 -129h239l68 12h38l-103 -409q-8 -30 -8 -41q0 -15 14 -15q23 0 80 73l31 -27q-53 -76 -100 -113t-101 -37q-47 0 -75.5 26.5t-28.5 67.5
q0 31 13 86l76 312h-151l-50 -235q-53 -249 -130 -351.5t-186 -102.5q-57 0 -92 22t-35 59q0 34 22.5 54.5t56.5 24.5h28q2 -116 43 -116q22 0 33.5 32t30.5 133l90 480h-75z" />
    <glyph glyph-name="fl" unicode="fl" horiz-adv-x="706" 
d="M48 482l12 53l82 20q34 103 103.5 159t169.5 56q75 0 122 -37l141 28h35l-150 -611q-7 -27 -7 -41q0 -15 14 -15q22 0 79 73l31 -27q-53 -76 -100 -113t-101 -37q-47 0 -75.5 26.5t-28.5 67.5q0 31 13 86l108 454q-17 96 -79 96q-39 0 -65.5 -43.5t-31.5 -129.5h90
l-13 -65h-85l-50 -235q-53 -249 -130 -351.5t-186 -102.5q-57 0 -92 22t-35 59q0 34 22.5 54.5t56.5 24.5h28q2 -116 43 -116q22 0 33.5 32t30.5 133l90 480h-75z" />
    <glyph glyph-name="ffi" unicode="ffi" horiz-adv-x="1036" 
d="M364 13l88 469h-140l-50 -235q-96 -454 -316 -454q-57 0 -92 22t-35 59q0 34 22.5 54.5t56.5 24.5h28q2 -116 43 -116q22 0 33.5 32t30.5 133l90 480h-75l12 53l82 20q68 203 266 203q94 0 155 -56q77 68 200 68q70 0 117.5 -22t47.5 -67q0 -49 -54 -66h-92
q15 105 -40 105q-37 0 -62.5 -44t-30.5 -129h239l68 12h38l-103 -409q-8 -30 -8 -41q0 -15 14 -15q23 0 80 73l31 -27q-53 -76 -100 -113t-101 -37q-47 0 -75.5 26.5t-28.5 67.5q0 31 13 86l76 312h-151l-48 -224q-53 -249 -130 -351.5t-186 -102.5q-46 0 -72 21t-26 56
q0 32 20 53t53 25h22q1 -33 1.5 -46t2.5 -32t7.5 -26t14.5 -7q22 0 33.5 32t30.5 133zM417 708q-85 0 -97 -161h148q9 31 27 67q-17 94 -78 94z" />
    <glyph glyph-name="ffl" unicode="ffl" horiz-adv-x="1035" 
d="M726 482h-85l-48 -224q-53 -249 -130 -351.5t-186 -102.5q-46 0 -72 21t-26 56q0 32 20 53t53 25h22q1 -33 1.5 -46t2.5 -32t7.5 -26t14.5 -7q22 0 33.5 32t30.5 133l88 469h-140l-50 -235q-96 -454 -316 -454q-57 0 -92 22t-35 59q0 34 22.5 54.5t56.5 24.5h28
q2 -116 43 -116q22 0 33.5 32t30.5 133l90 480h-75l12 53l82 20q68 203 266 203q93 0 154 -55q73 67 182 67q75 0 122 -37l141 28h35l-150 -611q-7 -27 -7 -41q0 -15 14 -15q22 0 79 73l31 -27q-53 -76 -100 -113t-101 -37q-47 0 -75.5 26.5t-28.5 67.5q0 31 13 86l108 454
q-17 96 -79 96q-39 0 -65.5 -43.5t-31.5 -129.5h90zM468 547q9 29 27 68q-17 93 -78 93q-88 0 -97 -161h148z" />
    <glyph glyph-name="f_b" unicode="fb" horiz-adv-x="1000" 
d="M48 482l12 53l82 20q34 103 103.5 159t169.5 56q75 0 122 -37l141 28h35l-75 -303l-57 -157h7q21 46 45 85.5t56.5 81.5t72 66.5t79.5 24.5q67 0 100 -46t33 -130q0 -71 -26 -140t-72.5 -126t-118.5 -92t-157 -35q-83 0 -143 39.5t-78 111.5l117 483q-17 96 -79 96
q-39 0 -65.5 -43.5t-31.5 -129.5h90l-13 -65h-85l-50 -235q-53 -249 -130 -351.5t-186 -102.5q-57 0 -92 22t-35 59q0 34 22.5 54.5t56.5 24.5h28q2 -116 43 -116q22 0 33.5 32t30.5 133l90 480h-75zM749 438q-49 0 -112 -104t-91 -230q2 -26 18.5 -42t40.5 -16
q50 0 94.5 53t69 126.5t24.5 139.5q0 73 -44 73z" />
    <glyph glyph-name="f_f_b" unicode="ffb" horiz-adv-x="1329" 
d="M726 482h-85l-48 -224q-53 -249 -130 -351.5t-186 -102.5q-46 0 -72 21t-26 56q0 32 20 53t53 25h22q1 -33 1.5 -46t2.5 -32t7.5 -26t14.5 -7q22 0 33.5 32t30.5 133l88 469h-140l-50 -235q-96 -454 -316 -454q-57 0 -92 22t-35 59q0 34 22.5 54.5t56.5 24.5h28
q2 -116 43 -116q22 0 33.5 32t30.5 133l90 480h-75l12 53l82 20q68 203 266 203q93 0 154 -55q73 67 182 67q75 0 122 -37l141 28h35l-75 -303l-57 -157h7q21 46 45 85.5t56.5 81.5t72 66.5t79.5 24.5q67 0 100 -46t33 -130q0 -71 -26 -140t-72.5 -126t-118.5 -92t-157 -35
q-83 0 -143 39.5t-78 111.5l117 483q-17 96 -79 96q-39 0 -65.5 -43.5t-31.5 -129.5h90zM1078 438q-49 0 -112 -104t-91 -230q2 -26 18.5 -42t40.5 -16q50 0 94.5 53t69 126.5t24.5 139.5q0 73 -44 73zM468 547q9 29 27 68q-17 93 -78 93q-88 0 -97 -161h148z" />
    <glyph glyph-name="f_h" unicode="fh" horiz-adv-x="1024" 
d="M48 482l12 53l82 20q34 103 103.5 159t169.5 56q75 0 122 -37l141 28h35l-74 -302l-52 -160h7q151 260 287 260q41 0 63.5 -24t22.5 -64q0 -18 -6 -44l-75 -277q-9 -34 -9 -41q0 -15 14 -15q13 0 31 17t49 56l31 -27q-53 -76 -100.5 -113t-100.5 -37q-47 0 -76.5 26.5
t-29.5 67.5q0 38 14 86l64 220q5 22 5 33q0 18 -17 18q-32 0 -99.5 -96t-97.5 -210l-35 -135h-182l149 624q-17 96 -79 96q-39 0 -65.5 -43.5t-31.5 -129.5h90l-13 -65h-85l-50 -235q-53 -249 -130 -351.5t-186 -102.5q-57 0 -92 22t-35 59q0 34 22.5 54.5t56.5 24.5h28
q2 -116 43 -116q22 0 33.5 32t30.5 133l90 480h-75z" />
    <glyph glyph-name="f_f_h" unicode="ffh" horiz-adv-x="1353" 
d="M726 482h-85l-48 -224q-53 -249 -130 -351.5t-186 -102.5q-46 0 -72 21t-26 56q0 32 20 53t53 25h22q1 -33 1.5 -46t2.5 -32t7.5 -26t14.5 -7q22 0 33.5 32t30.5 133l88 469h-140l-50 -235q-96 -454 -316 -454q-57 0 -92 22t-35 59q0 34 22.5 54.5t56.5 24.5h28
q2 -116 43 -116q22 0 33.5 32t30.5 133l90 480h-75l12 53l82 20q68 203 266 203q93 0 154 -55q73 67 182 67q75 0 122 -37l141 28h35l-74 -302l-52 -160h7q151 260 287 260q41 0 63.5 -24t22.5 -64q0 -18 -6 -44l-75 -277q-9 -34 -9 -41q0 -15 14 -15q13 0 31 17t49 56
l31 -27q-53 -76 -100.5 -113t-100.5 -37q-47 0 -76.5 26.5t-29.5 67.5q0 38 14 86l64 220q5 22 5 33q0 18 -17 18q-32 0 -99.5 -96t-97.5 -210l-35 -135h-182l149 624q-17 96 -79 96q-39 0 -65.5 -43.5t-31.5 -129.5h90zM468 547q9 29 27 68q-17 93 -78 93q-88 0 -97 -161
h148z" />
    <glyph glyph-name="f_idieresis" unicode="f&#xef;" horiz-adv-x="707" 
d="M48 482l12 53l80 20q30 110 92.5 166.5t174.5 56.5q70 0 119 -23t49 -70q0 -59 -54 -76h-102q9 43 6 81t-28 38q-31 0 -51.5 -47t-25.5 -134h239l68 12h38l-103 -409q-8 -30 -8 -41q0 -15 14 -15q23 0 80 73l31 -27q-53 -76 -100 -113t-101 -37q-47 0 -75.5 26.5
t-28.5 67.5q0 31 13 86l76 312h-151l-50 -235q-53 -249 -130 -351.5t-186 -102.5q-57 0 -92 22t-35 59q0 34 22.5 54.5t56.5 24.5h28q2 -116 43 -116q22 0 33.5 32t30.5 133l90 480h-75zM703 602q-39 0 -62.5 24.5t-23.5 58.5q0 39 25 66t67 27q39 0 62.5 -24t23.5 -58
q0 -39 -25 -66.5t-67 -27.5z" />
    <glyph glyph-name="f_f_idieresis" unicode="ff&#xef;" horiz-adv-x="1036" 
d="M33 2l90 480h-75l12 53l82 20q68 203 266 203q84 0 144 -46q68 66 184 66q70 0 119 -23t49 -70q0 -59 -54 -76h-102q9 43 6 81t-28 38q-31 0 -51.5 -47t-25.5 -134h239l68 12h38l-103 -409q-8 -30 -8 -41q0 -15 14 -15q23 0 80 73l31 -27q-53 -76 -100 -113t-101 -37
q-47 0 -75.5 26.5t-28.5 67.5q0 31 13 86l76 312h-151l-48 -224q-53 -249 -130 -351.5t-186 -102.5q-46 0 -72 21t-26 56q0 32 20 53t53 25h22q1 -33 1.5 -46t2.5 -32t7.5 -26t14.5 -7q22 0 33.5 32t30.5 133l88 469h-140l-50 -235q-96 -454 -316 -454q-57 0 -92 22t-35 59
q0 34 22.5 54.5t56.5 24.5h28q2 -116 43 -116q22 0 33.5 32t30.5 133zM1032 602q-39 0 -62.5 24.5t-23.5 58.5q0 39 25 66t67 27q39 0 62.5 -24t23.5 -58q0 -39 -25 -66.5t-67 -27.5zM467 547q9 36 26 77q-19 84 -76 84q-85 0 -97 -161h147z" />
    <glyph glyph-name="f_j" unicode="fj" horiz-adv-x="668" 
d="M33 2l90 480h-75l12 53l82 20q72 215 292 215q70 0 117.5 -22t47.5 -67q0 -49 -54 -66h-92q15 105 -40 105q-37 0 -62.5 -44t-30.5 -129h239l68 12h38l-113 -449q-42 -166 -113.5 -236t-167.5 -70q-46 0 -72 21t-26 56q0 32 20 53t53 25h22q1 -33 1.5 -46t2.5 -32
t7.5 -26t14.5 -7q18 0 27 22t23 88q2 11 3.5 17.5t4 17.5t4.5 21l107 468h-151l-50 -235q-53 -249 -130 -351.5t-186 -102.5q-57 0 -92 22t-35 59q0 34 22.5 54.5t56.5 24.5h28q2 -116 43 -116q22 0 33.5 32t30.5 133z" />
    <glyph glyph-name="f_f_j" unicode="ffj" horiz-adv-x="997" 
d="M364 13l88 469h-140l-50 -235q-96 -454 -316 -454q-57 0 -92 22t-35 59q0 34 22.5 54.5t56.5 24.5h28q2 -116 43 -116q22 0 33.5 32t30.5 133l90 480h-75l12 53l82 20q68 203 266 203q94 0 155 -56q77 68 200 68q70 0 117.5 -22t47.5 -67q0 -49 -54 -66h-92
q15 105 -40 105q-37 0 -62.5 -44t-30.5 -129h239l68 12h38l-113 -449q-42 -166 -113.5 -236t-167.5 -70q-46 0 -72 21t-26 56q0 32 20 53t53 25h22q1 -33 1.5 -46t2.5 -32t7.5 -26t14.5 -7q18 0 27 22t23 88q7 35 12 56l107 468h-151l-48 -224q-53 -249 -130 -351.5
t-186 -102.5q-46 0 -72 21t-26 56q0 32 20 53t53 25h22q1 -33 1.5 -46t2.5 -32t7.5 -26t14.5 -7q22 0 33.5 32t30.5 133zM417 708q-85 0 -97 -161h148q9 31 27 67q-17 94 -78 94z" />
    <glyph glyph-name="f_k" unicode="fk" horiz-adv-x="988" 
d="M48 482l12 53l82 20q34 103 103.5 159t169.5 56q75 0 122 -37l141 28h35l-185 -761h-182l150 624q-17 96 -79 96q-39 0 -65.5 -43.5t-31.5 -129.5h90l-13 -65h-85l-50 -235q-53 -249 -130 -351.5t-186 -102.5q-57 0 -92 22t-35 59q0 34 22.5 54.5t56.5 24.5h28
q2 -116 43 -116q22 0 33.5 32t30.5 133l90 480h-75zM758 373l70 -186q12 -35 22 -50.5t25 -15.5t28 9t36 38l28 -27q-51 -82 -92 -116.5t-90 -34.5q-40 0 -65.5 25t-44.5 77l-65 179l153 186q48 58 78 80t62 22q37 0 58 -23t21 -55q0 -69 -74 -93h-22q0 58 -37 58
q-35 0 -80 -59z" />
    <glyph glyph-name="f_f_k" unicode="ffk" horiz-adv-x="1317" 
d="M726 482h-85l-48 -224q-53 -249 -130 -351.5t-186 -102.5q-46 0 -72 21t-26 56q0 32 20 53t53 25h22q1 -33 1.5 -46t2.5 -32t7.5 -26t14.5 -7q22 0 33.5 32t30.5 133l88 469h-140l-50 -235q-96 -454 -316 -454q-57 0 -92 22t-35 59q0 34 22.5 54.5t56.5 24.5h28
q2 -116 43 -116q22 0 33.5 32t30.5 133l90 480h-75l12 53l82 20q68 203 266 203q93 0 154 -55q73 67 182 67q75 0 122 -37l141 28h35l-185 -761h-182l150 624q-17 96 -79 96q-39 0 -65.5 -43.5t-31.5 -129.5h90zM1087 373l70 -186q12 -35 22 -50.5t25 -15.5t28 9t36 38
l28 -27q-51 -82 -92 -116.5t-90 -34.5q-40 0 -65.5 25t-44.5 77l-65 179l153 186q48 58 78 80t62 22q38 0 58.5 -23t20.5 -55q0 -69 -74 -93h-22q0 58 -37 58q-35 0 -80 -59zM468 547q9 29 27 68q-17 93 -78 93q-88 0 -97 -161h148z" />
    <glyph glyph-name=".notdef" horiz-adv-x="960" 
 />
    <glyph glyph-name=".null" horiz-adv-x="0" 
 />
    <glyph glyph-name="nonmarkingreturn" horiz-adv-x="333" 
 />
    <glyph glyph-name="space" unicode=" " horiz-adv-x="200" 
 />
    <glyph glyph-name="exclam" unicode="!" horiz-adv-x="334" 
d="M33 93q0 43 29.5 73.5t70.5 30.5q42 0 71 -30t29 -74q0 -42 -29 -72t-71 -30q-41 0 -70.5 30t-29.5 72zM375 702l-177 -463h-87l58 463h206z" />
    <glyph glyph-name="quotedbl" unicode="&#x22;" horiz-adv-x="463" 
d="M168 447h-36l4 148q0 6 0.5 25t1 25.5t1.5 21t2.5 22t4 18t7 18t9.5 13.5q27 32 72 32q37 0 53.5 -19.5t16.5 -46.5q0 -20 -6 -36t-23.5 -42t-20.5 -31zM385 447h-36l4 148q0 6 0.5 25t1 25.5t1.5 21t2.5 22t4 18t7 18t9.5 13.5q27 32 72 32q37 0 53.5 -19.5t16.5 -46.5
q0 -20 -6 -36t-23.5 -42t-20.5 -31z" />
    <glyph glyph-name="numbersign" unicode="#" horiz-adv-x="589" 
d="M532 209h-131l-79 -219l-72 26l70 193h-122l-79 -219l-72 26l70 193h-77v71h102l52 142h-105v71h130l80 219l72 -26l-70 -193h121l80 219l72 -26l-70 -193h77v-71h-103l-51 -142h105v-71zM275 422l-51 -142h121l52 142h-122z" />
    <glyph glyph-name="dollar" unicode="$" horiz-adv-x="588" 
d="M193 -113l22 106q-67 7 -120 33t-79 59l27 156h91q5 -148 95 -180l43 205q-2 1 -4 2.5t-3 1.5q-89 42 -130 94t-41 123q0 104 75.5 164.5t194.5 60.5l22 102h54l-22 -105q104 -13 170 -72l-30 -147h-79q-15 120 -76 147l-40 -193h1l2 -1q97 -48 140.5 -94.5t43.5 -123.5
q0 -76 -41 -130t-102.5 -78.5t-137.5 -26.5l-21 -103h-55zM380 150q0 29 -13.5 50t-45.5 40l-39 -186q45 2 71.5 26.5t26.5 69.5zM254 558q0 -29 14 -49t46 -39l37 177q-45 0 -71 -25t-26 -64z" />
    <glyph glyph-name="percent" unicode="%" horiz-adv-x="930" 
d="M301 664q-37 0 -67 -64t-30 -149q0 -68 37 -68t67 64t30 149q0 68 -37 68zM133 -19l606 741h78l-608 -741h-76zM235 335q-67 0 -112 37t-45 104q0 74 36 129.5t87 81t106 25.5q67 0 112 -37t45 -104q0 -74 -36 -129.5t-87 -81t-106 -25.5zM648 39q37 0 67 64t30 149
q0 68 -37 68t-67 -64t-30 -149q0 -68 37 -68zM714 368q67 0 112 -37t45 -104q0 -74 -36 -129.5t-87 -81t-106 -25.5q-67 0 -112 37t-45 104q0 74 36 129.5t87 81t106 25.5z" />
    <glyph glyph-name="ampersand" unicode="&#x26;" horiz-adv-x="768" 
d="M23 177q0 157 210 212q-34 64 -34 125q0 87 66 142.5t177 55.5q92 0 144 -38t52 -103q0 -118 -197 -179l115 -178q28 46 28 91q0 28 -39 28l12 67h216l-12 -67q-53 0 -76 -14.5t-42 -57.5q-21 -49 -57 -95l30 -45q19 -29 38 -40.5t53 -11.5l-12 -69h-196q-21 15 -52 46
q-101 -56 -209 -56q-94 0 -154.5 49t-60.5 138zM348 80q31 0 63 13q-12 16 -20 32l-133 221q-55 -37 -55 -122q0 -61 38 -102.5t107 -41.5zM357 578q0 -55 52 -136l4 -6q79 40 79 136q0 39 -17.5 60.5t-50.5 21.5q-31 0 -49 -21t-18 -55z" />
    <glyph glyph-name="quotesingle" unicode="'" horiz-adv-x="246" 
d="M168 447h-36l4 148q0 6 0.5 25t1 25.5t1.5 21t2.5 22t4 18t7 18t9.5 13.5q27 32 72 32q37 0 53.5 -19.5t16.5 -46.5q0 -20 -6 -36t-23.5 -42t-20.5 -31z" />
    <glyph glyph-name="parenleft" unicode="(" horiz-adv-x="388" 
d="M66 204q0 158 86 307.5t226 258.5h103q-75 -66 -131.5 -148t-86 -162t-43 -149.5t-13.5 -129.5q0 -205 85 -322h-96q-62 66 -96 157.5t-34 187.5z" />
    <glyph glyph-name="parenright" unicode=")" horiz-adv-x="388" 
d="M359 425q0 -158 -86 -307.5t-226 -258.5h-103q75 66 131.5 148t86 162t43 149.5t13.5 129.5q0 205 -85 322h96q62 -66 96 -157.5t34 -187.5z" />
    <glyph glyph-name="asterisk" unicode="*" horiz-adv-x="500" 
d="M424 369l-92 146l-14 -172l-111 33l80 151l-155 -73l-27 113l171 6l-141 98l84 81l92 -147l13 172l112 -33l-81 -151l156 73l27 -113l-171 -6l141 -98z" />
    <glyph glyph-name="plus" unicode="+" horiz-adv-x="603" 
d="M321 594h93l-39 -183h184l-20 -93h-183l-39 -184h-93l39 184h-184l21 93h182z" />
    <glyph glyph-name="comma" unicode="," horiz-adv-x="310" 
d="M136 15h-35q-73 16 -73 86q0 40 26 66t72 26q49 0 79 -32t30 -89q0 -84 -71 -147.5t-181 -63.5v61q137 8 153 93z" />
    <glyph glyph-name="hyphen" unicode="-" horiz-adv-x="360" 
d="M306 247h-260l25 116h260z" />
    <glyph glyph-name="period" unicode="." horiz-adv-x="310" 
d="M23 97q0 47 31 77.5t76 30.5q46 0 77 -30.5t31 -77.5t-31 -77t-77 -30q-45 0 -76 30t-31 77z" />
    <glyph glyph-name="slash" unicode="/" horiz-adv-x="442" 
d="M527 770l-471 -911h-108l470 911h109z" />
    <glyph glyph-name="zero" unicode="0" horiz-adv-x="681" 
d="M303 63q41 0 76 49.5t56 123t33 149t12 134.5q0 62 -14.5 91t-49.5 29q-41 0 -76 -50t-56 -123t-33 -148.5t-12 -134.5q0 -62 14.5 -91t49.5 -29zM293 -10q-106 0 -175 74.5t-69 200.5q0 110 43.5 210.5t131.5 168.5t202 68q107 0 175.5 -74.5t68.5 -200.5
q0 -81 -26 -160t-72.5 -143.5t-119.5 -104t-159 -39.5z" />
    <glyph glyph-name="one" unicode="1" horiz-adv-x="469" 
d="M377 711h62l-118 -551q-6 -24 -6 -44q0 -30 19.5 -39t79.5 -10l-13 -67h-408l14 67q68 1 90.5 14t32.5 57l80 376h-123l13 62l45 7q72 12 123 41t109 87z" />
    <glyph glyph-name="two" unicode="2" horiz-adv-x="555" 
d="M164 144h133q68 0 92 14t73 81h58l-81 -239h-487l12 56q233 183 313.5 272.5t80.5 158.5q0 90 -88 90q-76 0 -150 -76l-33 46q44 73 113.5 119t157.5 46q94 0 143.5 -46.5t49.5 -127.5q0 -28 -7 -54.5t-26 -54t-35 -48.5t-50.5 -49.5t-55.5 -46t-68 -48t-69 -45
t-76 -48.5z" />
    <glyph glyph-name="three" unicode="3" horiz-adv-x="549" 
d="M171 363q45 16 71.5 28t59 31t48.5 43t16 53q0 30 -19.5 48t-54.5 18q-66 0 -130 -64l-35 45q45 67 111.5 107t145.5 40q81 0 125 -38t44 -102q0 -39 -19.5 -72t-52.5 -54.5t-68 -35.5t-73 -21q74 -5 126 -52.5t52 -114.5q0 -113 -85 -172.5t-213 -59.5q-100 0 -160 42.5
t-60 106.5q0 67 61 90h102q-11 -33 -11 -62q0 -48 19 -82t63 -34q49 0 76 37t27 103q0 57 -31.5 92.5t-80.5 35.5q-22 0 -48 -5z" />
    <glyph glyph-name="four" unicode="4" horiz-adv-x="656" 
d="M114 258h219l59 279zM308 136l9 45h-317l15 63l450 458h145l-92 -444h117l-17 -77h-117l-8 -41q-4 -18 -4 -33q0 -22 14 -30t54 -10l-13 -67h-346l14 67q52 2 70 15t26 54z" />
    <glyph glyph-name="five" unicode="5" horiz-adv-x="546" 
d="M574 702l-47 -166h-302l-25 -72q313 -11 313 -231q0 -112 -80 -177.5t-203 -65.5q-103 0 -163.5 38.5t-60.5 103.5q0 32 16.5 56.5t45.5 32.5h97q-9 -31 -9 -51q0 -50 29 -81.5t76 -31.5q102 0 102 113q0 134 -275 138l132 394h354z" />
    <glyph glyph-name="six" unicode="6" horiz-adv-x="623" 
d="M592 666q-257 -90 -332 -268q69 63 156 63q86 0 138 -52.5t52 -141.5q0 -118 -86 -197.5t-215 -79.5q-114 0 -187 69t-73 195q0 117 71 215.5t191.5 160.5t269.5 82zM327 381q-42 0 -82 -25q-16 -61 -16 -124q0 -78 23.5 -125.5t69.5 -47.5q48 0 80.5 57.5t32.5 135.5
q0 56 -27 92.5t-81 36.5z" />
    <glyph glyph-name="seven" unicode="7" horiz-adv-x="536" 
d="M450 534h-229q-34 0 -58.5 -19.5t-52.5 -68.5h-59l99 256h473l-10 -45l-432 -657h-136z" />
    <glyph glyph-name="eight" unicode="8" horiz-adv-x="603" 
d="M600 553q0 -65 -49 -103t-124 -48l13 -6q123 -63 123 -180q0 -100 -82 -163t-205 -63q-117 0 -189 48t-72 127q0 69 53 110t130 44l-9 7q-36 24 -59.5 65.5t-23.5 91.5q0 102 76.5 165.5t197.5 63.5q103 0 161.5 -44.5t58.5 -114.5zM328 247l-94 53q-83 -50 -83 -124
q0 -58 35 -88.5t96 -30.5q52 0 86.5 27.5t34.5 69.5q0 32 -16 50.5t-59 42.5zM319 465l70 -41q83 51 83 129q0 42 -26.5 67t-75.5 25q-47 0 -78.5 -26t-31.5 -69q0 -50 59 -85z" />
    <glyph glyph-name="nine" unicode="9" horiz-adv-x="623" 
d="M70 36q257 89 331 267q-70 -62 -155 -62q-86 0 -138 52.5t-52 141.5q0 118 86 197.5t215 79.5q114 0 187 -69t73 -195q0 -117 -71 -215.5t-191.5 -160.5t-269.5 -82zM335 321q43 0 81 25q17 57 17 124q0 78 -23.5 125.5t-69.5 47.5q-48 0 -80.5 -57.5t-32.5 -135.5
q0 -56 27 -92.5t81 -36.5z" />
    <glyph glyph-name="colon" unicode=":" horiz-adv-x="310" 
d="M23 97q0 47 31 77.5t76 30.5q46 0 77 -30.5t31 -77.5t-31 -77t-77 -30q-45 0 -76 30t-31 77zM87 396q0 47 31 77.5t76 30.5q46 0 77 -30.5t31 -77.5t-31 -77t-77 -30q-45 0 -76 30t-31 77z" />
    <glyph glyph-name="semicolon" unicode=";" horiz-adv-x="310" 
d="M136 15h-35q-73 16 -73 86q0 40 26 66t72 26q49 0 79 -32t30 -89q0 -84 -71 -147.5t-181 -63.5v61q137 8 153 93zM87 396q0 47 31 77.5t76 30.5q46 0 77 -30.5t31 -77.5t-31 -77t-77 -30q-45 0 -76 30t-31 77z" />
    <glyph glyph-name="less" unicode="&#x3c;" horiz-adv-x="462" 
d="M78 357l2 10l381 210l-22 -112l-206 -107l159 -106l-22 -104z" />
    <glyph glyph-name="equal" unicode="=" horiz-adv-x="615" 
d="M72 237l19 88h459l-18 -88h-460zM106 406l20 88h460l-20 -88h-460z" />
    <glyph glyph-name="greater" unicode="&#x3e;" horiz-adv-x="462" 
d="M433 367l-2 -10l-383 -209l24 112l205 106l-161 107l23 104z" />
    <glyph glyph-name="question" unicode="?" horiz-adv-x="478" 
d="M107 93q0 44 29 74t71 30t71 -30t29 -74q0 -42 -29 -72t-71 -30t-71 30t-29 72zM280 463q47 27 68.5 52.5t21.5 68.5q0 28 -15.5 46t-45.5 18q-39 0 -59 -29t-20 -69q0 -22 5 -45h-110q-29 26 -29 59q0 65 64 106.5t157 41.5q96 0 149 -44.5t53 -120.5q0 -113 -137 -182
q-36 -19 -49 -27t-35 -23.5t-29.5 -30t-7.5 -32.5q0 -7 2 -19h-47q-51 39 -51 90q0 39 26.5 71.5t88.5 68.5z" />
    <glyph glyph-name="at" unicode="@" horiz-adv-x="918" 
d="M619 77q-70 0 -97.5 44.5t-15.5 110.5h-5q-74 -155 -163 -155q-45 0 -75 35t-30 94q0 106 75 196t182 90q58 0 87 -40l80 30h56l-35 -94l-51 -179q-9 -29 -2.5 -51.5t28.5 -22.5q38 0 66.5 27.5t43.5 69t22 81.5t7 75q0 106 -74 179.5t-198 73.5q-169 0 -274.5 -121.5
t-105.5 -298.5q0 -143 90.5 -217.5t231.5 -74.5q82 0 143 16.5t132 52.5l15 -33q-126 -102 -309 -102q-166 0 -276.5 94.5t-110.5 255.5q0 128 58 237.5t166 176t243 66.5q162 0 256 -88t94 -215q0 -78 -27 -147.5t-86.5 -117.5t-140.5 -48zM405 172q35 0 76.5 71t60.5 165
q-13 34 -36 34q-53 0 -92 -72.5t-39 -147.5q0 -50 30 -50z" />
    <glyph glyph-name="A" unicode="A" horiz-adv-x="759" 
d="M462 151l-12 63h-255l-39 -63q-18 -30 -18 -49q0 -17 14 -25.5t50 -9.5l-14 -67h-226l14 67q46 8 64 37l327 520l-18 79h190l128 -599q6 -31 51 -37l-13 -67h-334l14 67q45 2 63.5 12t18.5 33q0 16 -5 39zM391 529l-154 -247h200z" />
    <glyph glyph-name="B" unicode="B" horiz-adv-x="715" 
d="M-15 0l14 67q52 2 70 15t26 54l90 428q4 18 4 31q0 22 -14 30t-54 10l13 67h357q227 0 227 -153q0 -86 -61 -132t-159 -54q86 -5 135.5 -42.5t49.5 -100.5q0 -108 -87 -164t-228 -56h-383zM372 326h-48l-38 -183q-5 -24 -5 -34q0 -24 16 -33.5t50 -9.5h7q56 0 96 38.5
t40 114.5q0 107 -118 107zM413 631h-25l-50 -236h34q75 0 115 37t40 110q0 89 -114 89z" />
    <glyph glyph-name="C" unicode="C" horiz-adv-x="704" 
d="M367 -10q-149 0 -229.5 79t-80.5 203q0 190 126.5 315t312.5 125q146 0 226 -77l-34 -159h-93q-5 85 -25.5 125.5t-75.5 40.5q-70 0 -125.5 -61t-83 -149.5t-27.5 -181.5q0 -185 121 -185q60 0 99 41t90 142h95l-43 -192q-109 -66 -253 -66z" />
    <glyph glyph-name="D" unicode="D" horiz-adv-x="791" 
d="M427 631h-39l-100 -479q-6 -27 -6 -42q0 -22 13 -30.5t44 -8.5h11q49 0 89 24t66.5 62.5t44.5 87.5t26 96.5t8 91.5q0 198 -157 198zM-15 0l14 67q52 2 70 15t26 54l90 428q4 18 4 31q0 22 -14 30t-54 10l13 67h308q160 0 251 -76t91 -212q0 -183 -125.5 -298.5
t-322.5 -115.5h-351z" />
    <glyph glyph-name="E" unicode="E" horiz-adv-x="674" 
d="M-15 0l14 67q52 2 70 15t26 54l90 428q4 18 4 31q0 22 -14 30t-54 10l13 67h579l-41 -191h-71q-12 68 -33 95t-77 27h-103l-49 -236h74q33 0 52.5 17t36.5 62h64l-48 -229h-64q0 45 -11.5 62t-44.5 17h-74l-37 -177q-5 -23 -5 -35q0 -26 16.5 -35.5t52.5 -9.5h23
q52 0 91.5 29.5t99.5 107.5h79l-74 -206h-585z" />
    <glyph glyph-name="F" unicode="F" horiz-adv-x="629" 
d="M-15 0l14 67q52 2 70 15t26 54l90 428q4 18 4 31q0 22 -14 30t-54 10l13 67h573l-41 -192h-76q-11 68 -32 95.5t-78 27.5h-91l-52 -244h64q34 0 53.5 16.5t35.5 61.5h65l-48 -228h-65q0 46 -11.5 62.5t-44.5 16.5h-64l-35 -171q-4 -20 -4 -35q0 -29 22 -38t83 -11
l-12 -63h-391z" />
    <glyph glyph-name="G" unicode="G" horiz-adv-x="764" 
d="M57 272q0 190 128.5 315t319.5 125q145 0 224 -77l-34 -159h-93q-5 82 -28.5 124t-78.5 42q-70 0 -126 -61t-83.5 -149.5t-27.5 -181.5q0 -185 122 -185q41 0 77 17l31 125q4 22 4 30q0 20 -15 27.5t-54 9.5l15 70h332l-14 -70q-50 -1 -66.5 -13.5t-25.5 -52.5l-33 -140
q-111 -78 -264 -78q-149 0 -229.5 79t-80.5 203z" />
    <glyph glyph-name="H" unicode="H" horiz-adv-x="864" 
d="M825 566l-90 -428q-4 -18 -4 -31q0 -22 14.5 -30t54.5 -10l-14 -67h-350l13 67q52 2 70.5 15.5t26.5 53.5l39 190h-261l-39 -188q-4 -18 -4 -31q0 -22 14 -30t54 -10l-13 -67h-351l14 67q52 2 70 15t26 54l90 428q4 18 4 31q0 22 -14 30t-54 10l13 67h350l-13 -67
q-52 -2 -70 -15t-26 -54l-36 -169h261l35 167q4 18 4 31q0 22 -14 30t-54 10l14 67h350l-14 -67q-52 -2 -70 -15t-26 -54z" />
    <glyph glyph-name="I" unicode="I" horiz-adv-x="413" 
d="M375 566l-90 -428q-4 -18 -4 -31q0 -22 14 -30t54 -10l-13 -67h-351l14 67q52 2 70 15t26 54l90 428q4 18 4 31q0 22 -14 30t-54 10l13 67h350l-13 -67q-52 -2 -70 -15t-26 -54z" />
    <glyph glyph-name="J" unicode="J" horiz-adv-x="613" 
d="M319 192l78 372q4 18 4 31q0 22 -14 30t-54 10l13 67h351l-14 -67q-52 -2 -70 -15t-26 -54l-73 -342q-26 -121 -99.5 -177.5t-197.5 -56.5q-106 0 -162 40t-56 104q0 36 19 63.5t48 41.5h132q-24 -61 -24 -107q0 -30 13 -52t41 -22q35 0 55.5 33.5t35.5 100.5z" />
    <glyph glyph-name="K" unicode="K" horiz-adv-x="783" 
d="M520 415l125 -276q20 -43 38 -57.5t54 -15.5l-13 -66h-209q-35 25 -74 120l-97 237l244 202q2 2 6 5.5t6 5t5.5 4.5t5 4.5l4 4t3.5 4.5t3 4t2.5 4t1 4.5t0.5 4.5q0 30 -54 31l14 67h263l-13 -67q-36 -1 -56 -9t-52 -36zM375 566l-90 -428q-4 -18 -4 -31q0 -22 14 -30
t54 -10l-13 -67h-351l14 67q52 2 70 15t26 54l90 428q4 18 4 31q0 22 -14 30t-54 10l13 67h350l-13 -67q-52 -2 -70 -15t-26 -54z" />
    <glyph glyph-name="L" unicode="L" horiz-adv-x="664" 
d="M375 566l-88 -418q-5 -23 -5 -36q0 -23 15 -32t49 -9h27q46 0 80 29.5t117 137.5h84l-88 -238h-581l14 67q52 2 70 15t26 54l90 428q4 18 4 31q0 22 -14 30t-54 10l13 67h350l-13 -67q-52 -2 -70 -15t-26 -54z" />
    <glyph glyph-name="M" unicode="M" horiz-adv-x="1002" 
d="M694 156l19 332l-278 -488h-70l-73 492l-115 -324q-13 -37 -13 -59t19 -31t65 -11l-13 -67h-270l15 67q43 2 62.5 14.5t32.5 46.5l159 434q8 40 -6 55.5t-62 17.5l14 67h269q0 -35 4 -68l49 -376l216 380q22 41 30 64h273l-14 -67q-50 -2 -70.5 -17.5t-29.5 -55.5
l-24 -434q-2 -36 12.5 -47.5t58.5 -13.5l-13 -67h-372l14 67q56 3 82 20.5t29 68.5z" />
    <glyph glyph-name="N" unicode="N" horiz-adv-x="785" 
d="M605 293l56 271q4 18 4 31q0 22 -14 30t-54 10l13 67h249l-13 -67q-52 -2 -70 -15t-27 -54l-118 -566h-79l-292 507l-77 -369q-4 -18 -4 -31q0 -22 14 -30t54 -10l-14 -67h-248l14 67q52 2 70 15t26 54l95 449q-16 29 -29.5 38t-40.5 12l14 67h252z" />
    <glyph glyph-name="O" unicode="O" horiz-adv-x="764" 
d="M354 61q61 0 108.5 67.5t70 156.5t22.5 174q0 90 -21 136t-74 46q-61 0 -108.5 -67.5t-70 -156.5t-22.5 -174q0 -90 21 -136t74 -46zM350 -10q-135 0 -214 76.5t-79 208.5q0 110 49.5 209.5t144.5 163.5t213 64q135 0 214 -76.5t79 -208.5q0 -110 -49.5 -209.5
t-144.5 -163.5t-213 -64z" />
    <glyph glyph-name="P" unicode="P" horiz-adv-x="684" 
d="M312 269l-25 -122q-4 -20 -4 -35q0 -29 22 -38t83 -11l-12 -63h-391l14 67q52 2 70 15t26 54l90 428q4 18 4 31q0 22 -14 30t-54 10l13 67h339q125 0 186.5 -47.5t61.5 -129.5q0 -125 -90.5 -190.5t-240.5 -65.5h-78zM388 631l-63 -297h31q74 0 123.5 45t49.5 136
q0 116 -109 116h-32z" />
    <glyph glyph-name="Q" unicode="Q" horiz-adv-x="764" 
d="M327 -68l-32 62q-111 14 -174.5 88.5t-63.5 192.5q0 110 49.5 209.5t144.5 163.5t213 64q135 0 214 -76.5t79 -208.5q0 -143 -83 -264t-218 -159l54 -52q36 -35 61 -49t63 -14l-7 -34q-48 -33 -123 -33q-121 0 -177 110zM354 61q61 0 108.5 67.5t70 156.5t22.5 174
q0 90 -21 136t-74 46q-61 0 -108.5 -67.5t-70 -156.5t-22.5 -174q0 -90 21 -136t74 -46z" />
    <glyph glyph-name="R" unicode="R" horiz-adv-x="762" 
d="M422 631h-38l-59 -274h33q188 0 188 160q0 114 -124 114zM312 290l-32 -152q-4 -18 -4 -31q0 -22 14 -30t54 -10l-13 -67h-346l14 67q52 2 70 15t26 54l90 428q4 18 4 31q0 22 -14 30t-54 10l13 67h354q248 0 248 -183q0 -77 -57 -130.5t-138 -68.5l79 -179
q19 -45 37 -59.5t59 -14.5l-14 -67h-217q-34 33 -60 110l-61 180h-52z" />
    <glyph glyph-name="S" unicode="S" horiz-adv-x="589" 
d="M265 -10q-82 0 -148.5 28t-96.5 67l27 156h91q3 -87 39.5 -137t101.5 -50q48 0 76.5 25t28.5 71q0 39 -24.5 64t-90.5 56q-89 42 -130 94t-41 123q0 104 75.5 164.5t195.5 60.5q140 0 223 -75l-30 -147h-79q-9 75 -36 116t-92 41q-45 0 -71 -25t-26 -64q0 -37 24.5 -60.5
t87.5 -54.5q97 -48 140.5 -94.5t43.5 -123.5t-42 -131.5t-106 -79t-141 -24.5z" />
    <glyph glyph-name="T" unicode="T" horiz-adv-x="737" 
d="M146 702h651l-35 -235h-72q-15 91 -39 130t-81 39h-18l-103 -486q-6 -29 -6 -40q0 -23 17.5 -32t59.5 -11l-13 -67h-365l14 67q51 2 72 15.5t29 53.5l106 500h-19q-55 0 -89.5 -34.5t-98.5 -134.5h-75z" />
    <glyph glyph-name="U" unicode="U" horiz-adv-x="775" 
d="M598 275l62 289q4 18 4 31q0 22 -14 30t-54 10l13 67h249l-14 -67q-51 -2 -69.5 -15.5t-26.5 -53.5l-66 -320q-26 -127 -109.5 -191.5t-204.5 -64.5q-122 0 -193 56.5t-71 160.5q0 32 10 79l58 278q4 18 4 31q0 22 -14 30t-54 10l13 67h351l-14 -67q-52 -2 -70 -15
t-26 -54l-57 -269q-9 -45 -9 -72q0 -63 30.5 -97.5t86.5 -34.5q73 0 118 40t67 142z" />
    <glyph glyph-name="V" unicode="V" horiz-adv-x="734" 
d="M429 237l196 314q19 31 19 52q0 16 -13.5 23t-48.5 9l14 67h234l-14 -67q-26 -4 -40.5 -11t-26.5 -26l-384 -602h-56l-165 602q-5 19 -15.5 26t-32.5 11l14 67h335l-13 -67q-48 -3 -66.5 -16t-18.5 -41q0 -15 5 -34z" />
    <glyph glyph-name="W" unicode="W" horiz-adv-x="1012" 
d="M750 254l149 280q27 52 27 70q0 15 -13 22.5t-48 8.5l14 67h229l-14 -67q-19 -3 -28 -5.5t-20.5 -10.5t-19.5 -21l-344 -602h-73l-56 387l-220 -387h-71l-118 602q-6 29 -48 37l14 67h322l-14 -67q-71 -6 -72 -60q0 -15 3 -34l54 -294l134 235l-14 116q-4 29 -42 37
l14 67h315l-13 -67q-83 -3 -83 -66q0 -14 3 -39z" />
    <glyph glyph-name="X" unicode="X" horiz-adv-x="738" 
d="M702 600l-212 -208l151 -290q16 -29 57 -35l-14 -67h-324l13 67q55 0 55 36q0 16 -12 41l-72 146l-139 -146q-31 -31 -31 -50q0 -14 10.5 -20.5t40.5 -6.5l-13 -67h-251l14 67q54 0 87 35l245 252l-131 246q-17 33 -50 35l14 67h330l-13 -67q-65 0 -65 -35q0 -17 14 -42
l52 -102l96 102q30 28 30 50q0 14 -9.5 20.5t-36.5 6.5l14 67h248l-14 -67q-49 0 -84 -35z" />
    <glyph glyph-name="Y" unicode="Y" horiz-adv-x="692" 
d="M419 340l148 196q2 3 10.5 14t11 15t7 11.5t6 13t1.5 11.5q0 16 -13 24.5t-46 9.5l14 67h230l-14 -67q-44 -7 -67 -37l-263 -341l-26 -121q-3 -15 -3 -26q0 -23 17 -32t59 -11l-14 -67h-355l14 67q51 2 71.5 15.5t28.5 53.5l26 122l-118 340q-6 18 -16.5 25.5t-31.5 11.5
l14 67h324l-14 -67q-76 0 -76 -52q0 -21 10 -48z" />
    <glyph glyph-name="Z" unicode="Z" horiz-adv-x="648" 
d="M230 71h114q60 0 93.5 26.5t114.5 134.5h80l-84 -232h-571l10 47l476 583h-117q-20 0 -37 -5.5t-27 -10t-26 -22t-21.5 -24.5t-25 -36.5t-26.5 -38.5h-69l45 209h555l-11 -48z" />
    <glyph glyph-name="bracketleft" unicode="[" horiz-adv-x="357" 
d="M298 658l-145 -681q-3 -13 -3 -24q0 -24 21.5 -31.5t80.5 -10.5l-11 -52h-237l194 911h237l-11 -52q-69 -4 -93.5 -14t-32.5 -46z" />
    <glyph glyph-name="backslash" unicode="\" horiz-adv-x="442" 
d="M252 -141l-85 911h103l85 -911h-103z" />
    <glyph glyph-name="bracketright" unicode="]" horiz-adv-x="357" 
d="M92 -29l144 681q3 13 3 24q0 24 -21.5 31.5t-80.5 10.5l11 52h237l-193 -911h-237l11 52q69 4 93.5 14t32.5 46z" />
    <glyph glyph-name="asciicircum" unicode="^" horiz-adv-x="490" 
d="M298 770h120l84 -290h-112l-49 188l-127 -188h-122z" />
    <glyph glyph-name="underscore" unicode="_" horiz-adv-x="440" 
d="M351 -169h-399l20 103h400z" />
    <glyph glyph-name="grave" unicode="`" horiz-adv-x="500" 
d="M153 766h181l35 -160h-91z" />
    <glyph glyph-name="a" unicode="a" horiz-adv-x="694" 
d="M249 111q49 0 107 103.5t86 238.5q-7 18 -11 26t-14 14.5t-26 6.5q-50 0 -94 -53t-67.5 -125.5t-23.5 -139.5q0 -71 43 -71zM482 505l105 54h71l-41 -141l-66 -268q-8 -30 -8 -41q0 -15 14 -15q22 0 79 73l32 -27q-53 -76 -100.5 -113t-101.5 -37q-46 0 -73 30t-27 78
q0 11 2.5 24t5.5 23l9 30t10 35h-7q-22 -46 -41.5 -79.5t-47.5 -68.5t-62.5 -53.5t-73.5 -18.5q-60 0 -97.5 47.5t-37.5 128.5q0 95 41 184t120.5 149t176.5 60q40 0 66 -13.5t52 -40.5z" />
    <glyph glyph-name="b" unicode="b" horiz-adv-x="658" 
d="M37 141l122 500l-61 44l10 34l228 42h35l-75 -303l-57 -157h7q21 46 45 85.5t56.5 81.5t72 66.5t79.5 24.5q67 0 100 -46t33 -130q0 -71 -26 -140t-72.5 -126t-118.5 -92t-157 -35q-83 0 -143 39.5t-78 111.5zM407 438q-49 0 -112 -104t-91 -230q2 -26 18.5 -42t40.5 -16
q50 0 94.5 53t69 126.5t24.5 139.5q0 73 -44 73z" />
    <glyph glyph-name="c" unicode="c" horiz-adv-x="510" 
d="M353 499q-57 0 -102 -92t-45 -188q0 -57 22.5 -88.5t62.5 -31.5q76 0 144 77l27 -27q-44 -79 -106.5 -119t-133.5 -40q-91 0 -143.5 57.5t-52.5 149.5q0 91 43 173.5t123 135.5t177 53q64 0 104 -25.5t40 -78.5q0 -66 -64 -82h-58q14 126 -38 126z" />
    <glyph glyph-name="d" unicode="d" horiz-adv-x="700" 
d="M249 111q51 0 113.5 106.5t89.5 249.5q-19 36 -59 36q-50 0 -94.5 -53.5t-68.5 -127t-24 -140.5q0 -71 43 -71zM495 641l-61 44l10 34l224 42h35l-146 -611q-8 -30 -8 -41q0 -15 14 -15q13 0 31 17t49 56l31 -27q-53 -76 -100.5 -113t-100.5 -37q-47 0 -74 29.5t-27 77.5
q0 24 23 114h-7q-21 -45 -41 -79.5t-48.5 -69t-63.5 -53.5t-74 -19q-60 0 -97.5 47.5t-37.5 128.5q0 94 42 183.5t121 149.5t175 60q36 0 63 -11.5t39 -27.5z" />
    <glyph glyph-name="e" unicode="e" horiz-adv-x="530" 
d="M525 436q0 -78 -82.5 -126t-243.5 -77v-14q0 -59 26.5 -94t71.5 -35q44 0 79 20t76 66l28 -27q-45 -78 -115 -118.5t-142 -40.5q-92 0 -144.5 58t-52.5 150q0 90 45.5 173t127 135.5t176.5 52.5q70 0 110 -35.5t40 -87.5zM350 498q-50 0 -92 -69.5t-55 -156.5
q94 28 137 70t43 104q0 52 -33 52z" />
    <glyph glyph-name="f" unicode="f" horiz-adv-x="388" 
d="M48 482l12 53l80 20q31 107 92 161t169 54q65 0 106 -21.5t41 -67.5q0 -53 -54 -70h-62q15 109 -35 109q-65 0 -77 -170h124l-13 -68h-119l-50 -235q-53 -249 -130 -351.5t-186 -102.5q-57 0 -92 22t-35 59q0 34 22.5 54.5t56.5 24.5h28q2 -116 43 -116q22 0 33.5 32
t30.5 133l90 480h-75z" />
    <glyph glyph-name="g" unicode="g" horiz-adv-x="575" 
d="M332 559q58 0 105 -25l196 20l-23 -95h-43l-64 19q25 -36 25 -74q0 -90 -80.5 -144t-195.5 -54q-38 0 -66 7q-32 -13 -32 -34q0 -20 29 -28l175 -35q77 -15 115 -46t38 -90q0 -84 -86.5 -136.5t-214.5 -52.5q-107 0 -190 36t-83 99q0 45 44 69.5t98 26.5q-39 37 -39 82
q0 76 115 119q-98 39 -98 147q0 84 80.5 136.5t194.5 52.5zM305 -44l-202 42q-47 -16 -47 -59q0 -40 44 -64.5t111 -24.5q63 0 105 19t42 50q0 16 -12.5 23.5t-40.5 13.5zM265 258q37 0 66.5 49t29.5 125q0 75 -42 75q-37 0 -66.5 -49.5t-29.5 -125.5q0 -74 42 -74z" />
    <glyph glyph-name="h" unicode="h" horiz-adv-x="684" 
d="M299 459l-52 -160h7q151 260 287 260q41 0 63.5 -24t22.5 -64q0 -18 -6 -44l-75 -277q-9 -34 -9 -41q0 -15 14 -15q13 0 31 17t49 56l31 -27q-53 -76 -100.5 -113t-100.5 -37q-47 0 -76.5 26.5t-29.5 67.5q0 38 14 86l64 220q5 22 5 33q0 18 -17 18q-32 0 -99.5 -96
t-97.5 -210l-35 -135h-182l154 641l-61 44l10 34l228 42h35z" />
    <glyph glyph-name="i" unicode="i" horiz-adv-x="370" 
d="M328 559l-103 -409q-8 -30 -8 -41q0 -15 14 -15q23 0 80 73l31 -27q-53 -76 -100 -113t-101 -37q-47 0 -75.5 26.5t-28.5 67.5q0 31 13 86l66 269l-50 47l9 34l218 39h35zM261 594q-44 0 -70 25.5t-26 62.5q0 42 28 70.5t76 28.5q43 0 69.5 -25.5t26.5 -61.5
q0 -42 -28.5 -71t-75.5 -29z" />
    <glyph glyph-name="j" unicode="j" horiz-adv-x="340" 
d="M269 594q-43 0 -69.5 25.5t-26.5 62.5q0 41 28.5 70t75.5 29q44 0 70 -25t26 -62q0 -42 -28 -71t-76 -29zM24 -4l101 443l-51 47l10 34l218 39h35l-115 -456q-79 -310 -284 -310q-57 0 -92 22t-35 59q0 34 22.5 54.5t56.5 24.5h28q2 -114 40 -114q21 0 32.5 30.5
t33.5 126.5z" />
    <glyph glyph-name="k" unicode="k" horiz-adv-x="649" 
d="M419 373l70 -186q12 -35 22 -50.5t25 -15.5t28 9t36 38l28 -27q-51 -82 -92 -116.5t-90 -34.5q-40 0 -65.5 25t-44.5 77l-65 179l153 186q48 58 78 80t62 22q38 0 58.5 -23t20.5 -55q0 -69 -74 -93h-22q0 58 -37 58q-35 0 -80 -59zM374 761l-185 -761h-182l155 641
l-61 44l10 34l228 42h35z" />
    <glyph glyph-name="l" unicode="l" horiz-adv-x="358" 
d="M157 641l-61 44l10 34l228 42h35l-154 -611q-7 -27 -7 -41q0 -15 14 -15q22 0 79 73l31 -27q-53 -76 -100 -113t-101 -37q-47 0 -75.5 26.5t-28.5 67.5q0 31 13 86z" />
    <glyph glyph-name="m" unicode="m" horiz-adv-x="1005" 
d="M577 300h7q74 131 141.5 195t136.5 64q41 0 63.5 -24t22.5 -64q0 -20 -6 -44l-75 -277q-9 -34 -9 -41q0 -15 14 -15q13 0 31 17t49 56l31 -27q-53 -76 -100.5 -113t-100.5 -37q-47 0 -76.5 26.5t-29.5 67.5q0 40 14 86l63 216q5 16 5 33q0 18 -17 18q-33 0 -96 -91.5
t-91 -204.5l-35 -141h-182l96 386q5 22 5 33q0 18 -17 18q-32 0 -98.5 -92.5t-93.5 -203.5l-35 -141h-181l109 439l-51 47l10 34l218 42h36l-27 -105l-56 -157h7q76 131 145 195t138 64q40 0 60.5 -25t20.5 -63q0 -40 -46 -171z" />
    <glyph glyph-name="n" unicode="n" horiz-adv-x="689" 
d="M335 562l-27 -105l-56 -158h7q151 260 287 260q41 0 63.5 -24t22.5 -64q0 -18 -6 -44l-75 -277q-9 -34 -9 -41q0 -15 14 -15q13 0 31 17t49 56l31 -27q-53 -76 -100.5 -113t-100.5 -37q-47 0 -76.5 26.5t-29.5 67.5q0 38 14 86l64 220q5 22 5 33q0 18 -17 18
q-32 0 -99.5 -96t-97.5 -210l-35 -135h-181l109 439l-51 47l10 34l218 42h36z" />
    <glyph glyph-name="o" unicode="o" horiz-adv-x="608" 
d="M255 53q33 0 62 35t47 87t28.5 107.5t10.5 101.5q0 112 -50 112q-33 0 -62 -35t-47 -87t-28.5 -107.5t-10.5 -101.5q0 -112 50 -112zM250 -10q-98 0 -160 62t-62 168q0 143 92 241t238 98q98 0 160 -62t62 -168q0 -143 -92 -241t-238 -98z" />
    <glyph glyph-name="p" unicode="p" horiz-adv-x="663" 
d="M244 300h7q21 46 45 86.5t56.5 82t72 66t79.5 24.5q67 0 100 -46t33 -130q0 -94 -42 -183.5t-122 -149.5t-176 -60q-69 0 -96 49l-25 -105q-5 -22 -5 -31q1 -19 13 -25.5t41 -9.5l-16 -65h-306l15 65q37 5 51.5 14.5t22.5 42.5l123 514l-52 47l10 34l217 42h35l-24 -105z
M412 438q-50 0 -111.5 -104.5t-87.5 -240.5q11 -24 22 -35.5t33 -11.5q50 0 94.5 53t69 126t24.5 139q0 74 -44 74z" />
    <glyph glyph-name="q" unicode="q" horiz-adv-x="675" 
d="M366 559q72 0 119 -54l104 54h71l-40 -141l-112 -484q-5 -22 -5 -31q1 -19 13 -25.5t41 -9.5l-15 -65h-307l16 65q37 5 51.5 14.5t22.5 42.5l36 156l37 130h-7q-21 -45 -41.5 -79.5t-49 -69t-63.5 -53.5t-74 -19q-60 0 -98.5 48t-38.5 128q0 94 42.5 183.5t122 149.5
t175.5 60zM251 111q50 0 108 103.5t85 238.5q-10 47 -50 47q-51 0 -95.5 -53t-68.5 -125.5t-24 -139.5q0 -71 45 -71z" />
    <glyph glyph-name="r" unicode="r" horiz-adv-x="523" 
d="M232 236h7q109 210 138 252q42 62 85 70q9 1 18 1q36 0 54.5 -22.5t18.5 -58.5q0 -42 -28 -77t-61 -51h-22q0 36 -28 36q-55 0 -113 -101.5t-104 -284.5h-182l109 439l-50 47l10 34l216 42h35l-39 -148z" />
    <glyph glyph-name="s" unicode="s" horiz-adv-x="482" 
d="M214 45q27 0 42 14t15 38q0 23 -31.5 52.5t-69.5 56t-69.5 68t-31.5 84.5q0 90 63.5 145.5t165.5 55.5q65 0 109.5 -29t44.5 -77q0 -21 -15.5 -37t-40.5 -23h-34q-7 48 -33 79t-62 31q-60 0 -60 -47q0 -21 33.5 -52t73 -59.5t73 -71t33.5 -85.5q0 -89 -65.5 -143.5
t-164.5 -54.5q-83 0 -138.5 33.5t-55.5 82.5q0 29 17.5 49t45.5 29h30q22 -139 125 -139z" />
    <glyph glyph-name="t" unicode="t" horiz-adv-x="433" 
d="M308 482l-76 -308q-8 -32 -8 -51q0 -29 23 -29q21 0 48 21.5t76 73.5l31 -27q-63 -87 -121.5 -129.5t-126.5 -42.5q-54 0 -83.5 32.5t-29.5 78.5q0 33 10 76l75 305h-73l13 49q58 10 121 50t109 94h60l-31 -125h117l-17 -68h-117z" />
    <glyph glyph-name="u" unicode="u" horiz-adv-x="701" 
d="M407 243h-7q-139 -253 -265 -253q-49 0 -73.5 26t-24.5 72q0 25 8 60l70 291l-50 47l10 34l217 39h35l-100 -395q-4 -17 -4 -30q0 -23 17 -23q37 0 104.5 100.5t94.5 207.5l31 120l183 10l-100 -399q-8 -30 -8 -41q0 -15 14 -15q23 0 80 73l31 -27q-53 -76 -99 -113
t-100 -37q-47 0 -72.5 29.5t-25.5 78.5q0 38 34 145z" />
    <glyph glyph-name="v" unicode="v" horiz-adv-x="563" 
d="M79 445l-61 41l10 34l190 39h35l28 -399l76 87q75 86 75 144q0 36 -23.5 57t-62.5 21l1 19q42 71 121 71q45 0 68 -27.5t23 -70.5q0 -52 -38.5 -109t-105.5 -126l-222 -231h-67z" />
    <glyph glyph-name="w" unicode="w" horiz-adv-x="837" 
d="M386 445l-61 41l10 34l176 39h35l28 -399l74 87q58 66 58 144q0 36 -23.5 57t-62.5 21l1 19q42 71 121 71q45 0 68 -29t23 -72q0 -89 -127 -231l-209 -232h-65l-26 255l-212 -255h-63l-52 450l-61 41l10 34l185 39h35l34 -384l117 145z" />
    <glyph glyph-name="x" unicode="x" horiz-adv-x="595" 
d="M161 162l50 76l-80 212l-59 36l10 34l175 39h35l57 -174l43 70q63 104 134 104q40 0 61.5 -22.5t21.5 -53.5q0 -70 -78 -95h-24q0 58 -30 58q-19 0 -32.5 -12t-36.5 -47l-40 -61l48 -143q11 -35 20.5 -50.5t25.5 -15.5q28 0 72 51l29 -27q-56 -82 -99.5 -116.5
t-91.5 -34.5q-39 0 -62.5 25.5t-42.5 76.5l-35 91l-55 -89q-64 -104 -139 -104q-36 0 -56.5 22t-20.5 52q0 71 77 97h24q0 -58 31 -58q19 0 33 13t35 46z" />
    <glyph glyph-name="y" unicode="y" horiz-adv-x="569" 
d="M363 58q-113 -145 -194 -204.5t-159 -59.5q-50 0 -83.5 23.5t-33.5 67.5q0 27 17 48.5t46 31.5h32q0 -48 18 -73t60 -25q57 0 130 70l-117 508l-61 41l10 34l185 39h35l85 -457l3 3q102 138 102 272q0 45 -23 68.5t-64 23.5l1 19q44 71 121 71q45 0 68.5 -30.5
t23.5 -73.5q0 -84 -52.5 -179.5t-149.5 -217.5z" />
    <glyph glyph-name="z" unicode="z" horiz-adv-x="543" 
d="M361 402h-186q-24 0 -35 -6.5t-25 -27.5l-27 -41l-34 9l89 247h35q3 -21 7.5 -29t14.5 -8h366v-33l-366 -329l84 -25q38 -12 72 -12q43 0 67 13t59 65l34 -11q-46 -121 -93.5 -175t-116.5 -54q-64 0 -141 44l-88 50l-49 -83q-55 0 -55 37q0 29 29 54z" />
    <glyph glyph-name="braceleft" unicode="{" horiz-adv-x="393" 
d="M63 297l7 36q87 17 105 100l44 209q28 128 252 128l-9 -41q-97 -12 -115 -98l-44 -204q-11 -50 -35.5 -73.5t-78.5 -38.5q39 -13 55 -29t16 -46q0 -18 -25.5 -132.5t-25.5 -133.5q0 -63 77 -73l-9 -42q-201 0 -201 102q0 23 25.5 133.5t25.5 132.5q0 57 -64 70z" />
    <glyph glyph-name="bar" unicode="|" horiz-adv-x="302" 
d="M315 770l-193 -911h-102l193 911h102z" />
    <glyph glyph-name="braceright" unicode="}" horiz-adv-x="393" 
d="M362 332l-7 -36q-87 -17 -105 -100l-44 -209q-28 -128 -252 -128l9 41q97 12 115 98l44 204q11 50 35.5 73.5t78.5 38.5q-39 13 -55 29t-16 46q0 18 25.5 132.5t25.5 133.5q0 63 -77 73l9 42q201 0 201 -102q0 -23 -25.5 -133.5t-25.5 -132.5q0 -57 64 -70z" />
    <glyph glyph-name="asciitilde" unicode="~" horiz-adv-x="582" 
d="M494 447l62 -19q-50 -184 -172 -184q-29 0 -83.5 31.5t-75.5 31.5q-50 0 -89 -62l-62 19q50 184 172 184q29 0 83.5 -31.5t75.5 -31.5q50 0 89 62z" />
    <glyph glyph-name="uni00A0" unicode="&#xa0;" horiz-adv-x="200" 
 />
    <glyph glyph-name="exclamdown" unicode="&#xa1;" horiz-adv-x="334" 
d="M316 457q0 -43 -29.5 -73.5t-70.5 -30.5q-42 0 -71 30t-29 74q0 42 29 72t71 30q41 0 70.5 -30t29.5 -72zM-26 -152l177 463h87l-58 -463h-206z" />
    <glyph glyph-name="cent" unicode="&#xa2;" horiz-adv-x="553" 
d="M213 -117l22 108q-92 5 -145.5 62.5t-53.5 148.5q0 84 38 161.5t112 131.5t168 64l25 118h57l-25 -117q63 -3 102 -29t39 -75q0 -64 -65 -82h-53q15 108 -35 128l-87 -417h2q80 0 161 92l29 -27q-39 -68 -93.5 -108t-117.5 -49l-23 -110h-57zM207 230q0 -93 51 -129
l84 400q-62 -20 -98.5 -101.5t-36.5 -169.5z" />
    <glyph glyph-name="sterling" unicode="&#xa3;" horiz-adv-x="722" 
d="M126 334l13 58h105l12 43q73 277 320 277q74 0 121.5 -27.5t47.5 -78.5q0 -76 -77 -99h-97q27 51 27 96q0 50 -40 50q-43 0 -70 -84l-59 -177h139l-14 -58h-145l-50 -150q37 -17 56 -24.5t52 -15.5t65 -8q61 0 61 53q0 27 -27 45l22 27q37 -7 67 -34.5t30 -74.5
q0 -78 -51.5 -120t-129.5 -42q-118 0 -212 92q-76 -92 -193 -92q-55 0 -86.5 31t-31.5 78q0 59 40.5 96t96.5 37q36 0 78 -14l32 116h-102zM102 54q51 0 75 90q-32 19 -62 19q-26 0 -43.5 -15t-17.5 -42q0 -22 12.5 -37t35.5 -15z" />
    <glyph glyph-name="currency" unicode="&#xa4;" horiz-adv-x="577" 
d="M297 243q50 0 85 36t35 90q0 48 -29 78t-74 30q-50 0 -85 -36t-35 -90q0 -48 29 -78t74 -30zM291 163q-72 0 -121 41l-79 -70l-38 44l79 72q-24 43 -24 94q0 79 48 136l-62 70l46 41l61 -69q53 35 118 35q66 0 114 -37l82 73l39 -44l-81 -72q29 -44 29 -101
q0 -81 -51 -140l63 -68l-47 -41l-61 69q-52 -33 -115 -33z" />
    <glyph glyph-name="yen" unicode="&#xa5;" horiz-adv-x="680" 
d="M93 331l12 57h92l-74 210q-6 19 -16.5 26t-32.5 11l14 67h333l-13 -67q-77 0 -77 -52q0 -16 10 -48l60 -195l143 196q36 47 36 65q0 16 -13 24.5t-46 9.5l13 67h230l-13 -67q-44 -7 -67 -37l-159 -210h99l-12 -57h-130l-52 -68h167l-13 -56h-169l-15 -71q-3 -15 -3 -26
q0 -23 17 -32t59 -11l-14 -67h-355l14 67q51 2 71.5 15.5t28.5 53.5l15 71h-168l13 56h164l-24 68h-125z" />
    <glyph glyph-name="brokenbar" unicode="&#xa6;" horiz-adv-x="302" 
d="M315 770l-80 -376h-102l80 376h102zM202 235l-80 -376h-102l80 376h102z" />
    <glyph glyph-name="section" unicode="&#xa7;" horiz-adv-x="518" 
d="M127 -202q-60 0 -97.5 27.5t-37.5 76.5q0 56 69 80h88q-10 -19 -10 -48q0 -76 47 -76q52 0 52 81q0 41 -22 92.5t-48 95.5t-48 109.5t-22 131.5q0 63 21.5 123.5t60.5 110t101.5 80t136.5 30.5q60 0 97.5 -27.5t37.5 -76.5q0 -56 -69 -80h-88q10 19 10 48q0 76 -47 76
q-52 0 -52 -81q0 -41 22 -92.5t48 -95.5t48 -109.5t22 -131.5q0 -63 -21.5 -123.5t-60.5 -110t-101.5 -80t-136.5 -30.5zM251 606q-39 -40 -61.5 -103t-22.5 -135q0 -55 21.5 -116.5t47 -106.5t47 -99.5t21.5 -98.5q0 -24 -10 -43q39 40 61.5 103t22.5 135q0 55 -21.5 116.5
t-47 106.5t-47 99.5t-21.5 98.5q0 24 10 43z" />
    <glyph glyph-name="dieresis" unicode="&#xa8;" horiz-adv-x="500" 
d="M138 603q-39 0 -63 24.5t-24 58.5q0 38 25.5 65.5t67.5 27.5q39 0 62.5 -24t23.5 -58q0 -39 -25.5 -66.5t-66.5 -27.5zM357 603q-39 0 -62.5 24.5t-23.5 58.5q0 39 25 66t67 27q39 0 62.5 -24t23.5 -58q0 -39 -25 -66.5t-67 -27.5z" />
    <glyph glyph-name="copyright" unicode="&#xa9;" horiz-adv-x="796" 
d="M399 30q143 0 240 100.5t97 246.5q0 127 -81.5 211t-210.5 84q-143 0 -240 -100.5t-97 -246.5q0 -127 81.5 -211t210.5 -84zM399 -10q-147 0 -241.5 95.5t-94.5 239.5q0 162 110 274.5t271 112.5q147 0 241.5 -95.5t94.5 -239.5q0 -162 -110 -274.5t-271 -112.5zM399 141
q-88 0 -135 46.5t-47 118.5q0 112 74 185t183 73q85 0 133 -45l-20 -93h-65q-2 34 -5 50.5t-13.5 28t-30.5 11.5q-53 0 -88 -69t-35 -154q0 -101 56 -101q34 0 52 20t48 81h66l-25 -113q-65 -39 -148 -39z" />
    <glyph glyph-name="ordfeminine" unicode="&#xaa;" horiz-adv-x="531" 
d="M248 410q34 0 73 70.5t58 164.5q-5 17 -12 25t-23 8q-45 0 -85 -73.5t-40 -144.5q0 -50 29 -50zM408 685l86 39h51l-29 -101l-48 -188q-5 -23 -5 -29q0 -11 10 -11q17 0 56 52l26 -23q-38 -55 -74.5 -82t-80.5 -27q-33 0 -54.5 22t-21.5 56q0 10 2 20t8.5 29t9.5 31h-5
q-33 -71 -71 -114.5t-91 -43.5q-43 0 -70 34.5t-27 92.5q0 106 69.5 194t173.5 88q46 0 85 -39z" />
    <glyph glyph-name="guillemotleft" unicode="&#xab;" horiz-adv-x="564" 
d="M256 271l2 10l221 200h89l-157 -205l59 -205h-78zM30 271l2 10l222 200h88l-157 -205l59 -205h-77z" />
    <glyph glyph-name="registered" unicode="&#xae;" horiz-adv-x="555" 
d="M337 580h-5l-19 -89h5q24 0 41 13t17 41q0 35 -39 35zM245 608h115q86 0 86 -65q0 -29 -20.5 -47t-46.5 -26l32 -56q9 -20 27 -21l-6 -23h-60q-15 9 -23 31l-29 64h-13l-10 -45q-2 -8 -2 -14q0 -13 21 -13l-6 -23h-116l6 23q17 0 22.5 5t7.5 20l31 141q2 10 2 13
q0 12 -22 13zM316 291q90 0 148 59.5t58 149.5q0 78 -49 128t-129 50q-90 0 -148 -59.5t-58 -149.5q0 -78 49 -128t129 -50zM316 257q-94 0 -154 60.5t-60 151.5q0 102 70 172.5t172 70.5q94 0 154 -60.5t60 -151.5q0 -102 -70 -172.5t-172 -70.5z" />
    <glyph glyph-name="macron" unicode="&#xaf;" horiz-adv-x="500" 
d="M85 626l23 101h308l-23 -101h-308z" />
    <glyph glyph-name="degree" unicode="&#xb0;" horiz-adv-x="376" 
d="M219 456q41 0 67.5 34t26.5 84q0 32 -16 52.5t-47 20.5q-42 0 -68.5 -34t-26.5 -84q0 -32 16.5 -52.5t47.5 -20.5zM214 391q-60 0 -98.5 37.5t-38.5 95.5q0 79 51 133.5t126 54.5q60 0 98.5 -37.5t38.5 -95.5q0 -79 -51 -133.5t-126 -54.5z" />
    <glyph glyph-name="plusminus" unicode="&#xb1;" horiz-adv-x="603" 
d="M331 621h92l-29 -134h179l-19 -92h-179l-29 -136h-92l29 136h-178l20 92h177zM46 116l20 93h447l-21 -93h-446z" />
    <glyph glyph-name="twosuperior" unicode="&#xb2;" horiz-adv-x="451" 
d="M216 395h110q29 0 43 8t45 42h41l-46 -158h-363l9 47q161 118 207.5 166.5t46.5 89.5q0 58 -57 58t-106 -56l-27 35q73 121 209 121q59 0 96 -28.5t37 -83.5q0 -38 -19 -72.5t-56 -64.5t-76 -53.5t-94 -50.5z" />
    <glyph glyph-name="threesuperior" unicode="&#xb3;" horiz-adv-x="432" 
d="M323 537q47 -6 78 -35t31 -70q0 -79 -63 -116.5t-157 -37.5q-64 0 -108 26.5t-44 65.5q0 46 45 62h87q-13 -25 -13 -54q0 -25 13 -40t35 -15q27 0 45 25.5t18 66.5q0 73 -59 73q-8 0 -24 -2l-4 30q56 21 79 41.5t23 49.5q0 18 -12 30t-34 12q-46 0 -94 -48l-31 25
q27 52 78.5 85t110.5 33q58 0 91 -24t33 -71q0 -45 -34 -74.5t-90 -37.5z" />
    <glyph glyph-name="acute" unicode="&#xb4;" horiz-adv-x="500" 
d="M199 766h197l-195 -160h-98z" />
    <glyph glyph-name="mu" unicode="&#xb5;" horiz-adv-x="701" 
d="M173 -6l-34 -181l-179 -10l155 636l-50 47l10 34l217 39h35l-100 -395q-4 -17 -4 -30q0 -23 17 -23q37 0 104.5 100.5t94.5 207.5l31 120l183 10l-100 -399q-8 -30 -8 -41q0 -15 14 -15q23 0 80 73l31 -27q-53 -76 -99 -113t-100 -37q-47 0 -72.5 29.5t-25.5 78.5
q0 38 34 145h-7q-117 -212 -227 -249z" />
    <glyph glyph-name="paragraph" unicode="&#xb6;" horiz-adv-x="669" 
d="M233 -197l83 391q-107 0 -168.5 58.5t-61.5 153.5q0 122 95.5 209t242.5 87h316l-15 -69q-61 0 -84 -14t-33 -59l-161 -757h-74l178 840h-66l-178 -840h-74zM327 249l85 398q-62 -10 -108 -86.5t-46 -161.5q0 -62 17 -103.5t52 -46.5z" />
    <glyph glyph-name="periodcentered" unicode="&#xb7;" horiz-adv-x="315" 
d="M56 305q0 47 31 77.5t76 30.5q46 0 77 -30.5t31 -77.5t-31 -77t-77 -30q-45 0 -76 30t-31 77z" />
    <glyph glyph-name="cedilla" unicode="&#xb8;" horiz-adv-x="500" 
d="M122 -233l-11 49q122 0 122 39q0 33 -76 36l58 117h50l-27 -52q86 -9 86 -78q0 -52 -60 -81.5t-142 -29.5z" />
    <glyph glyph-name="onesuperior" unicode="&#xb9;" horiz-adv-x="391" 
d="M334 748h50l-77 -363q-3 -11 -3 -19q0 -15 13.5 -20t53.5 -7l-11 -52h-296l11 52q54 3 65.5 9.5t18.5 36.5l47 218h-75l10 48l29 6q58 12 91.5 31.5t72.5 59.5z" />
    <glyph glyph-name="ordmasculine" unicode="&#xba;" horiz-adv-x="446" 
d="M241 363q30 0 54 42t35 94.5t11 97.5q0 76 -36 76q-30 0 -54 -42t-35 -94.5t-11 -97.5q0 -76 36 -76zM234 314q-71 0 -117.5 45.5t-46.5 121.5q0 104 65.5 172.5t176.5 68.5q71 0 117.5 -45.5t46.5 -121.5q0 -104 -65.5 -172.5t-176.5 -68.5z" />
    <glyph glyph-name="guillemotright" unicode="&#xbb;" horiz-adv-x="564" 
d="M303 281l-2 -10l-221 -200h-89l157 205l-59 205h78zM529 281l-2 -10l-222 -200h-88l157 205l-59 205h77z" />
    <glyph glyph-name="onequarter" unicode="&#xbc;" horiz-adv-x="979" 
d="M540 104h139l38 181zM788 -71h-147l25 118h-212l11 48l288 294h133l-60 -285h88l-13 -57h-88zM194 0l606 741h77l-607 -741h-76zM334 748h50l-77 -363q-3 -11 -3 -19q0 -15 13.5 -20t53.5 -7l-11 -52h-296l11 52q54 3 65.5 9.5t18.5 36.5l47 218h-75l10 48l29 6
q58 12 91.5 31.5t72.5 59.5z" />
    <glyph glyph-name="onehalf" unicode="&#xbd;" horiz-adv-x="977" 
d="M194 0l606 741h77l-607 -741h-76zM334 748h50l-77 -363q-3 -11 -3 -19q0 -15 13.5 -20t53.5 -7l-11 -52h-296l11 52q54 3 65.5 9.5t18.5 36.5l47 218h-75l10 48l29 6q58 12 91.5 31.5t72.5 59.5zM672 37h110q29 0 43 8t45 42h41l-46 -158h-363l9 47q161 118 207.5 166.5
t46.5 89.5q0 58 -57 58t-106 -56l-27 35q73 121 209 121q59 0 96 -28.5t37 -83.5q0 -38 -19 -72.5t-56 -64.5t-76 -53.5t-94 -50.5z" />
    <glyph glyph-name="threequarters" unicode="&#xbe;" horiz-adv-x="990" 
d="M323 537q47 -6 78 -35t31 -70q0 -79 -63 -116.5t-157 -37.5q-64 0 -108 26.5t-44 65.5q0 46 45 62h87q-13 -25 -13 -54q0 -25 13 -40t35 -15q27 0 45 25.5t18 66.5q0 73 -59 73q-8 0 -24 -2l-4 30q56 21 79 41.5t23 49.5q0 18 -12 30t-34 12q-46 0 -94 -48l-31 25
q27 52 78.5 85t110.5 33q58 0 91 -24t33 -71q0 -45 -34 -74.5t-90 -37.5zM551 104h139l38 181zM799 -71h-147l25 118h-212l11 48l288 294h133l-60 -285h88l-13 -57h-88zM205 0l606 741h77l-607 -741h-76z" />
    <glyph glyph-name="questiondown" unicode="&#xbf;" horiz-adv-x="478" 
d="M412 457q0 -44 -29 -74t-71 -30t-71 30t-29 74q0 42 29 72t71 30t71 -30t29 -72zM239 87q-47 -27 -68.5 -52.5t-21.5 -68.5q0 -28 15.5 -46t45.5 -18q39 0 59 29t20 69q0 22 -5 45h110q29 -26 29 -59q0 -65 -64 -106.5t-157 -41.5q-96 0 -149 44.5t-53 120.5
q0 113 137 182q36 19 49 27t35 23.5t29.5 30t7.5 32.5q0 7 -2 19h47q51 -39 51 -90q0 -39 -26.5 -71.5t-88.5 -68.5z" />
    <glyph glyph-name="Agrave" unicode="&#xc0;" horiz-adv-x="759" 
d="M462 151l-12 63h-255l-39 -63q-18 -30 -18 -49q0 -17 14 -25.5t50 -9.5l-14 -67h-226l14 67q46 8 64 37l327 520l-18 79h190l128 -599q6 -31 51 -37l-13 -67h-334l14 67q45 2 63.5 12t18.5 33q0 16 -5 39zM391 529l-154 -247h200zM301 909h181l35 -158h-91z" />
    <glyph glyph-name="Aacute" unicode="&#xc1;" horiz-adv-x="759" 
d="M462 151l-12 63h-255l-39 -63q-18 -30 -18 -49q0 -17 14 -25.5t50 -9.5l-14 -67h-226l14 67q46 8 64 37l327 520l-18 79h190l128 -599q6 -31 51 -37l-13 -67h-334l14 67q45 2 63.5 12t18.5 33q0 16 -5 39zM391 529l-154 -247h200zM500 909h197l-194 -158h-99z" />
    <glyph glyph-name="Acircumflex" unicode="&#xc2;" horiz-adv-x="759" 
d="M462 151l-12 63h-255l-39 -63q-18 -30 -18 -49q0 -17 14 -25.5t50 -9.5l-14 -67h-226l14 67q46 8 64 37l327 520l-18 79h190l128 -599q6 -31 51 -37l-13 -67h-334l14 67q45 2 63.5 12t18.5 33q0 16 -5 39zM564 918l92 -169h-89l-88 80l-134 -80h-101l184 169h136z
M391 529l-154 -247h200z" />
    <glyph glyph-name="Atilde" unicode="&#xc3;" horiz-adv-x="759" 
d="M462 151l-12 63h-255l-39 -63q-18 -30 -18 -49q0 -17 14 -25.5t50 -9.5l-14 -67h-226l14 67q46 8 64 37l327 520l-18 79h190l128 -599q6 -31 51 -37l-13 -67h-334l14 67q45 2 63.5 12t18.5 33q0 16 -5 39zM624 900l58 -12q-46 -92 -76 -121t-75 -29q-26 0 -70.5 31.5
t-61.5 31.5q-14 0 -26.5 -8.5t-20.5 -18t-21 -28.5l-59 11q47 92 77 121t74 29q30 0 72.5 -31.5t59.5 -31.5q32 0 69 56zM391 529l-154 -247h200z" />
    <glyph glyph-name="Adieresis" unicode="&#xc4;" horiz-adv-x="759" 
d="M462 151l-12 63h-255l-39 -63q-18 -30 -18 -49q0 -17 14 -25.5t50 -9.5l-14 -67h-226l14 67q46 8 64 37l327 520l-18 79h190l128 -599q6 -31 51 -37l-13 -67h-334l14 67q45 2 63.5 12t18.5 33q0 16 -5 39zM366 743q-39 0 -63 24.5t-24 58.5q0 38 25.5 65.5t67.5 27.5
q39 0 62.5 -24t23.5 -58q0 -39 -25.5 -66.5t-66.5 -27.5zM585 743q-39 0 -62.5 24.5t-23.5 58.5q0 39 25 66t67 27q39 0 62.5 -24t23.5 -58q0 -39 -25 -66.5t-67 -27.5zM391 529l-154 -247h200z" />
    <glyph glyph-name="Aring" unicode="&#xc5;" horiz-adv-x="759" 
d="M462 151l-12 63h-255l-39 -63q-18 -30 -18 -49q0 -17 14 -25.5t50 -9.5l-14 -67h-226l14 67q46 8 64 37l327 520l-18 79h190l128 -599q6 -31 51 -37l-13 -67h-334l14 67q45 2 63.5 12t18.5 33q0 16 -5 39zM471 739q-46 0 -75 26t-29 67q0 46 36.5 77.5t86.5 31.5
q46 0 75 -26t29 -67q0 -46 -36.5 -77.5t-86.5 -31.5zM391 529l-154 -247h200zM476 796q24 0 37.5 14t13.5 35q0 18 -11 28.5t-31 10.5q-24 0 -37.5 -14t-13.5 -34q0 -18 11 -29t31 -11z" />
    <glyph glyph-name="AE" unicode="&#xc6;" horiz-adv-x="1042" 
d="M40 104l422 502q-6 18 -19.5 23.5t-47.5 5.5l13 67h673l-41 -191h-71q-12 68 -33 95t-77 27h-103l-49 -236h74q33 0 52.5 17t36.5 62h64l-48 -229h-64q0 45 -11.5 62t-44.5 17h-74l-37 -177q-5 -23 -5 -35q0 -26 16.5 -35.5t52.5 -9.5h23q52 0 91.5 29.5t99.5 107.5h79
l-74 -206h-585l14 67q52 2 70 15t26 54l22 108h-234l-71 -83q-29 -33 -29 -59q0 -17 14 -25.5t50 -9.5l-14 -67h-239l14 67q40 7 64 37zM561 603l-251 -291h190z" />
    <glyph glyph-name="Ccedilla" unicode="&#xc7;" horiz-adv-x="704" 
d="M209 -233l-11 49q122 0 122 39q0 33 -76 36l51 105q-115 18 -176.5 93t-61.5 183q0 190 126.5 315t312.5 125q146 0 226 -77l-34 -159h-93q-5 85 -25.5 125.5t-75.5 40.5q-70 0 -125.5 -61t-83 -149.5t-27.5 -181.5q0 -185 121 -185q60 0 99 41t90 142h95l-43 -192
q-109 -66 -253 -66q-16 0 -24 1l-18 -35q86 -9 86 -78q0 -52 -60.5 -81.5t-141.5 -29.5z" />
    <glyph glyph-name="Egrave" unicode="&#xc8;" horiz-adv-x="674" 
d="M-15 0l14 67q52 2 70 15t26 54l90 428q4 18 4 31q0 22 -14 30t-54 10l13 67h579l-41 -191h-71q-12 68 -33 95t-77 27h-103l-49 -236h74q33 0 52.5 17t36.5 62h64l-48 -229h-64q0 45 -11.5 62t-44.5 17h-74l-37 -177q-5 -23 -5 -35q0 -26 16.5 -35.5t52.5 -9.5h23
q52 0 91.5 29.5t99.5 107.5h79l-74 -206h-585zM278 909h181l35 -158h-91z" />
    <glyph glyph-name="Eacute" unicode="&#xc9;" horiz-adv-x="674" 
d="M-15 0l14 67q52 2 70 15t26 54l90 428q4 18 4 31q0 22 -14 30t-54 10l13 67h579l-41 -191h-71q-12 68 -33 95t-77 27h-103l-49 -236h74q33 0 52.5 17t36.5 62h64l-48 -229h-64q0 45 -11.5 62t-44.5 17h-74l-37 -177q-5 -23 -5 -35q0 -26 16.5 -35.5t52.5 -9.5h23
q52 0 91.5 29.5t99.5 107.5h79l-74 -206h-585zM476 909h197l-194 -158h-99z" />
    <glyph glyph-name="Ecircumflex" unicode="&#xca;" horiz-adv-x="674" 
d="M-15 0l14 67q52 2 70 15t26 54l90 428q4 18 4 31q0 22 -14 30t-54 10l13 67h579l-41 -191h-71q-12 68 -33 95t-77 27h-103l-49 -236h74q33 0 52.5 17t36.5 62h64l-48 -229h-64q0 45 -11.5 62t-44.5 17h-74l-37 -177q-5 -23 -5 -35q0 -26 16.5 -35.5t52.5 -9.5h23
q52 0 91.5 29.5t99.5 107.5h79l-74 -206h-585zM541 918l92 -169h-89l-88 80l-134 -80h-101l184 169h136z" />
    <glyph glyph-name="Edieresis" unicode="&#xcb;" horiz-adv-x="674" 
d="M-15 0l14 67q52 2 70 15t26 54l90 428q4 18 4 31q0 22 -14 30t-54 10l13 67h579l-41 -191h-71q-12 68 -33 95t-77 27h-103l-49 -236h74q33 0 52.5 17t36.5 62h64l-48 -229h-64q0 45 -11.5 62t-44.5 17h-74l-37 -177q-5 -23 -5 -35q0 -26 16.5 -35.5t52.5 -9.5h23
q52 0 91.5 29.5t99.5 107.5h79l-74 -206h-585zM343 743q-39 0 -63 24.5t-24 58.5q0 38 25.5 65.5t67.5 27.5q39 0 62.5 -24t23.5 -58q0 -39 -25.5 -66.5t-66.5 -27.5zM562 743q-39 0 -62.5 24.5t-23.5 58.5q0 39 25 66t67 27q39 0 62.5 -24t23.5 -58q0 -39 -25 -66.5
t-67 -27.5z" />
    <glyph glyph-name="Igrave" unicode="&#xcc;" horiz-adv-x="413" 
d="M375 566l-90 -428q-4 -18 -4 -31q0 -22 14 -30t54 -10l-13 -67h-351l14 67q52 2 70 15t26 54l90 428q4 18 4 31q0 22 -14 30t-54 10l13 67h350l-13 -67q-52 -2 -70 -15t-26 -54zM159 909h181l35 -158h-91z" />
    <glyph glyph-name="Iacute" unicode="&#xcd;" horiz-adv-x="413" 
d="M375 566l-90 -428q-4 -18 -4 -31q0 -22 14 -30t54 -10l-13 -67h-351l14 67q52 2 70 15t26 54l90 428q4 18 4 31q0 22 -14 30t-54 10l13 67h350l-13 -67q-52 -2 -70 -15t-26 -54zM357 909h197l-194 -158h-99z" />
    <glyph glyph-name="Icircumflex" unicode="&#xce;" horiz-adv-x="413" 
d="M375 566l-90 -428q-4 -18 -4 -31q0 -22 14 -30t54 -10l-13 -67h-351l14 67q52 2 70 15t26 54l90 428q4 18 4 31q0 22 -14 30t-54 10l13 67h350l-13 -67q-52 -2 -70 -15t-26 -54zM422 918l92 -169h-89l-88 80l-134 -80h-101l184 169h136z" />
    <glyph glyph-name="Idieresis" unicode="&#xcf;" horiz-adv-x="413" 
d="M375 566l-90 -428q-4 -18 -4 -31q0 -22 14 -30t54 -10l-13 -67h-351l14 67q52 2 70 15t26 54l90 428q4 18 4 31q0 22 -14 30t-54 10l13 67h350l-13 -67q-52 -2 -70 -15t-26 -54zM224 743q-39 0 -63 24.5t-24 58.5q0 38 25.5 65.5t67.5 27.5q39 0 62.5 -24t23.5 -58
q0 -39 -25.5 -66.5t-66.5 -27.5zM443 743q-39 0 -62.5 24.5t-23.5 58.5q0 39 25 66t67 27q39 0 62.5 -24t23.5 -58q0 -39 -25 -66.5t-67 -27.5z" />
    <glyph glyph-name="Eth" unicode="&#xd0;" horiz-adv-x="801" 
d="M59 327l15 71h86l35 166q4 18 4 31q0 22 -14 30t-54 10l13 67h308q160 0 251 -76t91 -212q0 -183 -125.5 -298.5t-322.5 -115.5h-351l14 67q52 2 70 15t26 54l40 191h-86zM437 631h-39l-49 -233h123l-15 -71h-123l-36 -175q-6 -27 -6 -42q0 -22 13 -30.5t44 -8.5h11
q49 0 89 24t66.5 62.5t44.5 87.5t26 96.5t8 91.5q0 198 -157 198z" />
    <glyph glyph-name="Ntilde" unicode="&#xd1;" horiz-adv-x="785" 
d="M676 900l58 -12q-46 -92 -76 -121t-75 -29q-26 0 -70.5 31.5t-61.5 31.5q-14 0 -26.5 -8.5t-20.5 -18t-21 -28.5l-59 11q47 92 77 121t74 29q30 0 72.5 -31.5t59.5 -31.5q32 0 69 56zM605 293l56 271q4 18 4 31q0 22 -14 30t-54 10l13 67h249l-13 -67q-52 -2 -70 -15
t-27 -54l-118 -566h-79l-292 507l-77 -369q-4 -18 -4 -31q0 -22 14 -30t54 -10l-14 -67h-248l14 67q52 2 70 15t26 54l95 449q-16 29 -29.5 38t-40.5 12l14 67h252z" />
    <glyph glyph-name="Ograve" unicode="&#xd2;" horiz-adv-x="764" 
d="M354 61q61 0 108.5 67.5t70 156.5t22.5 174q0 90 -21 136t-74 46q-61 0 -108.5 -67.5t-70 -156.5t-22.5 -174q0 -90 21 -136t74 -46zM350 -10q-135 0 -214 76.5t-79 208.5q0 110 49.5 209.5t144.5 163.5t213 64q135 0 214 -76.5t79 -208.5q0 -110 -49.5 -209.5
t-144.5 -163.5t-213 -64zM328 909h181l35 -158h-91z" />
    <glyph glyph-name="Oacute" unicode="&#xd3;" horiz-adv-x="764" 
d="M354 61q61 0 108.5 67.5t70 156.5t22.5 174q0 90 -21 136t-74 46q-61 0 -108.5 -67.5t-70 -156.5t-22.5 -174q0 -90 21 -136t74 -46zM350 -10q-135 0 -214 76.5t-79 208.5q0 110 49.5 209.5t144.5 163.5t213 64q135 0 214 -76.5t79 -208.5q0 -110 -49.5 -209.5
t-144.5 -163.5t-213 -64zM526 909h197l-194 -158h-99z" />
    <glyph glyph-name="Ocircumflex" unicode="&#xd4;" horiz-adv-x="764" 
d="M354 61q61 0 108.5 67.5t70 156.5t22.5 174q0 90 -21 136t-74 46q-61 0 -108.5 -67.5t-70 -156.5t-22.5 -174q0 -90 21 -136t74 -46zM350 -10q-135 0 -214 76.5t-79 208.5q0 110 49.5 209.5t144.5 163.5t213 64q135 0 214 -76.5t79 -208.5q0 -110 -49.5 -209.5
t-144.5 -163.5t-213 -64zM591 918l92 -169h-89l-88 80l-134 -80h-101l184 169h136z" />
    <glyph glyph-name="Otilde" unicode="&#xd5;" horiz-adv-x="764" 
d="M354 61q61 0 108.5 67.5t70 156.5t22.5 174q0 90 -21 136t-74 46q-61 0 -108.5 -67.5t-70 -156.5t-22.5 -174q0 -90 21 -136t74 -46zM350 -10q-135 0 -214 76.5t-79 208.5q0 110 49.5 209.5t144.5 163.5t213 64q135 0 214 -76.5t79 -208.5q0 -110 -49.5 -209.5
t-144.5 -163.5t-213 -64zM650 900l58 -12q-46 -92 -76 -121t-75 -29q-26 0 -70.5 31.5t-61.5 31.5q-14 0 -26.5 -8.5t-20.5 -18t-21 -28.5l-59 11q47 92 77 121t74 29q30 0 72.5 -31.5t59.5 -31.5q32 0 69 56z" />
    <glyph glyph-name="Odieresis" unicode="&#xd6;" horiz-adv-x="764" 
d="M354 61q61 0 108.5 67.5t70 156.5t22.5 174q0 90 -21 136t-74 46q-61 0 -108.5 -67.5t-70 -156.5t-22.5 -174q0 -90 21 -136t74 -46zM350 -10q-135 0 -214 76.5t-79 208.5q0 110 49.5 209.5t144.5 163.5t213 64q135 0 214 -76.5t79 -208.5q0 -110 -49.5 -209.5
t-144.5 -163.5t-213 -64zM393 743q-39 0 -63 24.5t-24 58.5q0 38 25.5 65.5t67.5 27.5q39 0 62.5 -24t23.5 -58q0 -39 -25.5 -66.5t-66.5 -27.5zM612 743q-39 0 -62.5 24.5t-23.5 58.5q0 39 25 66t67 27q39 0 62.5 -24t23.5 -58q0 -39 -25 -66.5t-67 -27.5z" />
    <glyph glyph-name="multiply" unicode="&#xd7;" horiz-adv-x="526" 
d="M223 365l-106 133l75 62l103 -134l161 134l53 -65l-162 -134l104 -132l-72 -60l-106 132l-159 -132l-51 63z" />
    <glyph glyph-name="Oslash" unicode="&#xd8;" horiz-adv-x="764" 
d="M682 742l-46 -74q121 -75 121 -241q0 -110 -49.5 -209.5t-144.5 -163.5t-213 -64q-64 0 -117 18l-56 -93l-54 30l54 89q-120 74 -120 241q0 110 49.5 209.5t144.5 163.5t213 64q65 0 116 -18l48 78zM252 250q0 -55 5 -86l273 447q-24 30 -70 30q-61 0 -110.5 -67
t-73.5 -155t-24 -169zM354 61q61 0 110.5 67t73.5 155.5t24 170.5q0 43 -5 83l-273 -447q23 -29 70 -29z" />
    <glyph glyph-name="Ugrave" unicode="&#xd9;" horiz-adv-x="775" 
d="M598 275l62 289q4 18 4 31q0 22 -14 30t-54 10l13 67h249l-14 -67q-51 -2 -69.5 -15.5t-26.5 -53.5l-66 -320q-26 -127 -109.5 -191.5t-204.5 -64.5q-122 0 -193 56.5t-71 160.5q0 32 10 79l58 278q4 18 4 31q0 22 -14 30t-54 10l13 67h351l-14 -67q-52 -2 -70 -15
t-26 -54l-57 -269q-9 -45 -9 -72q0 -63 30.5 -97.5t86.5 -34.5q73 0 118 40t67 142zM383 909h181l35 -158h-91z" />
    <glyph glyph-name="Uacute" unicode="&#xda;" horiz-adv-x="775" 
d="M598 275l62 289q4 18 4 31q0 22 -14 30t-54 10l13 67h249l-14 -67q-51 -2 -69.5 -15.5t-26.5 -53.5l-66 -320q-26 -127 -109.5 -191.5t-204.5 -64.5q-122 0 -193 56.5t-71 160.5q0 32 10 79l58 278q4 18 4 31q0 22 -14 30t-54 10l13 67h351l-14 -67q-52 -2 -70 -15
t-26 -54l-57 -269q-9 -45 -9 -72q0 -63 30.5 -97.5t86.5 -34.5q73 0 118 40t67 142zM581 909h197l-194 -158h-99z" />
    <glyph glyph-name="Ucircumflex" unicode="&#xdb;" horiz-adv-x="775" 
d="M598 275l62 289q4 18 4 31q0 22 -14 30t-54 10l13 67h249l-14 -67q-51 -2 -69.5 -15.5t-26.5 -53.5l-66 -320q-26 -127 -109.5 -191.5t-204.5 -64.5q-122 0 -193 56.5t-71 160.5q0 32 10 79l58 278q4 18 4 31q0 22 -14 30t-54 10l13 67h351l-14 -67q-52 -2 -70 -15
t-26 -54l-57 -269q-9 -45 -9 -72q0 -63 30.5 -97.5t86.5 -34.5q73 0 118 40t67 142zM646 918l92 -169h-89l-88 80l-134 -80h-101l184 169h136z" />
    <glyph glyph-name="Udieresis" unicode="&#xdc;" horiz-adv-x="775" 
d="M598 275l62 289q4 18 4 31q0 22 -14 30t-54 10l13 67h249l-14 -67q-51 -2 -69.5 -15.5t-26.5 -53.5l-66 -320q-26 -127 -109.5 -191.5t-204.5 -64.5q-122 0 -193 56.5t-71 160.5q0 32 10 79l58 278q4 18 4 31q0 22 -14 30t-54 10l13 67h351l-14 -67q-52 -2 -70 -15
t-26 -54l-57 -269q-9 -45 -9 -72q0 -63 30.5 -97.5t86.5 -34.5q73 0 118 40t67 142zM448 743q-39 0 -63 24.5t-24 58.5q0 38 25.5 65.5t67.5 27.5q39 0 62.5 -24t23.5 -58q0 -39 -25.5 -66.5t-66.5 -27.5zM667 743q-39 0 -62.5 24.5t-23.5 58.5q0 39 25 66t67 27
q39 0 62.5 -24t23.5 -58q0 -39 -25 -66.5t-67 -27.5z" />
    <glyph glyph-name="Yacute" unicode="&#xdd;" horiz-adv-x="692" 
d="M419 340l148 196q2 3 10.5 14t11 15t7 11.5t6 13t1.5 11.5q0 16 -13 24.5t-46 9.5l14 67h230l-14 -67q-44 -7 -67 -37l-263 -341l-26 -121q-3 -15 -3 -26q0 -23 17 -32t59 -11l-14 -67h-355l14 67q51 2 71.5 15.5t28.5 53.5l26 122l-118 340q-6 18 -16.5 25.5t-31.5 11.5
l14 67h324l-14 -67q-76 0 -76 -52q0 -21 10 -48zM543 909h197l-194 -158h-99z" />
    <glyph glyph-name="Thorn" unicode="&#xde;" horiz-adv-x="684" 
d="M358 484l-57 -267h31q167 0 167 151q0 59 -28.5 87.5t-90.5 28.5h-22zM374 566l-2 -11h71q125 0 186.5 -47.5t61.5 -129.5q0 -226 -325 -226h-78l-1 -5q-4 -20 -4 -35q0 -29 22 -38t83 -11l-12 -63h-391l14 67q52 2 70 15t26 54l90 428q4 18 4 31q0 22 -14 30t-54 10
l13 67h350l-13 -67q-52 -2 -71 -15.5t-26 -53.5z" />
    <glyph glyph-name="germandbls" unicode="&#xdf;" horiz-adv-x="709" 
d="M48 482l16 67h77q36 106 116 163.5t201 57.5q87 0 139 -34t52 -97q0 -45 -26 -75t-78 -55q-3 -2 -11.5 -6t-11.5 -5.5t-9.5 -5t-9 -6.5t-6 -7t-4.5 -9t-1 -11q0 -16 19 -38t46.5 -47t55 -52.5t46.5 -63t19 -70.5q0 -89 -63.5 -143.5t-159.5 -54.5q-79 0 -122 32.5
t-43 83.5q0 58 61 78h28q13 -144 99 -144q26 0 40.5 14.5t14.5 38.5q0 21 -26.5 54t-57.5 63t-57.5 75.5t-26.5 88.5q0 72 84 143q70 59 70 125q0 78 -68 78q-49 0 -75.5 -29.5t-38.5 -86.5l-75 -357q-51 -243 -129 -348.5t-187 -105.5q-57 0 -92 22t-35 59q0 34 22.5 54.5
t56.5 24.5h28q2 -116 43 -116q22 0 33.5 32t30.5 133l90 480h-75z" />
    <glyph glyph-name="agrave" unicode="&#xe0;" horiz-adv-x="694" 
d="M249 111q49 0 107 103.5t86 238.5q-7 18 -11 26t-14 14.5t-26 6.5q-50 0 -94 -53t-67.5 -125.5t-23.5 -139.5q0 -71 43 -71zM482 505l105 54h71l-41 -141l-66 -268q-8 -30 -8 -41q0 -15 14 -15q22 0 79 73l32 -27q-53 -76 -100.5 -113t-101.5 -37q-46 0 -73 30t-27 78
q0 11 2.5 24t5.5 23l9 30t10 35h-7q-22 -46 -41.5 -79.5t-47.5 -68.5t-62.5 -53.5t-73.5 -18.5q-60 0 -97.5 47.5t-37.5 128.5q0 95 41 184t120.5 149t176.5 60q40 0 66 -13.5t52 -40.5zM261 766h181l35 -160h-91z" />
    <glyph glyph-name="aacute" unicode="&#xe1;" horiz-adv-x="694" 
d="M249 111q49 0 107 103.5t86 238.5q-7 18 -11 26t-14 14.5t-26 6.5q-50 0 -94 -53t-67.5 -125.5t-23.5 -139.5q0 -71 43 -71zM482 505l105 54h71l-41 -141l-66 -268q-8 -30 -8 -41q0 -15 14 -15q22 0 79 73l32 -27q-53 -76 -100.5 -113t-101.5 -37q-46 0 -73 30t-27 78
q0 11 2.5 24t5.5 23l9 30t10 35h-7q-22 -46 -41.5 -79.5t-47.5 -68.5t-62.5 -53.5t-73.5 -18.5q-60 0 -97.5 47.5t-37.5 128.5q0 95 41 184t120.5 149t176.5 60q40 0 66 -13.5t52 -40.5zM461 766h197l-195 -160h-98z" />
    <glyph glyph-name="acircumflex" unicode="&#xe2;" horiz-adv-x="694" 
d="M249 111q49 0 107 103.5t86 238.5q-7 18 -11 26t-14 14.5t-26 6.5q-50 0 -94 -53t-67.5 -125.5t-23.5 -139.5q0 -71 43 -71zM482 505l105 54h71l-41 -141l-66 -268q-8 -30 -8 -41q0 -15 14 -15q22 0 79 73l32 -27q-53 -76 -100.5 -113t-101.5 -37q-46 0 -73 30t-27 78
q0 11 2.5 24t5.5 23l9 30t10 35h-7q-22 -46 -41.5 -79.5t-47.5 -68.5t-62.5 -53.5t-73.5 -18.5q-60 0 -97.5 47.5t-37.5 128.5q0 95 41 184t120.5 149t176.5 60q40 0 66 -13.5t52 -40.5zM528 766l92 -169h-89l-88 80l-134 -80h-101l184 169h136z" />
    <glyph glyph-name="atilde" unicode="&#xe3;" horiz-adv-x="694" 
d="M249 111q49 0 107 103.5t86 238.5q-7 18 -11 26t-14 14.5t-26 6.5q-50 0 -94 -53t-67.5 -125.5t-23.5 -139.5q0 -71 43 -71zM482 505l105 54h71l-41 -141l-66 -268q-8 -30 -8 -41q0 -15 14 -15q22 0 79 73l32 -27q-53 -76 -100.5 -113t-101.5 -37q-46 0 -73 30t-27 78
q0 11 2.5 24t5.5 23l9 30t10 35h-7q-22 -46 -41.5 -79.5t-47.5 -68.5t-62.5 -53.5t-73.5 -18.5q-60 0 -97.5 47.5t-37.5 128.5q0 95 41 184t120.5 149t176.5 60q40 0 66 -13.5t52 -40.5zM586 771l58 -11q-46 -92 -76 -121t-75 -29q-26 0 -70.5 31.5t-61.5 31.5
q-14 0 -26.5 -8.5t-20.5 -18.5t-21 -29l-59 12q47 92 77 121t74 29q30 0 72.5 -31.5t59.5 -31.5q32 0 69 55z" />
    <glyph glyph-name="adieresis" unicode="&#xe4;" horiz-adv-x="694" 
d="M249 111q49 0 107 103.5t86 238.5q-7 18 -11 26t-14 14.5t-26 6.5q-50 0 -94 -53t-67.5 -125.5t-23.5 -139.5q0 -71 43 -71zM482 505l105 54h71l-41 -141l-66 -268q-8 -30 -8 -41q0 -15 14 -15q22 0 79 73l32 -27q-53 -76 -100.5 -113t-101.5 -37q-46 0 -73 30t-27 78
q0 11 2.5 24t5.5 23l9 30t10 35h-7q-22 -46 -41.5 -79.5t-47.5 -68.5t-62.5 -53.5t-73.5 -18.5q-60 0 -97.5 47.5t-37.5 128.5q0 95 41 184t120.5 149t176.5 60q40 0 66 -13.5t52 -40.5zM327 603q-39 0 -63 24.5t-24 58.5q0 38 25.5 65.5t67.5 27.5q39 0 62.5 -24t23.5 -58
q0 -39 -25.5 -66.5t-66.5 -27.5zM546 603q-39 0 -62.5 24.5t-23.5 58.5q0 39 25 66t67 27q39 0 62.5 -24t23.5 -58q0 -39 -25 -66.5t-67 -27.5z" />
    <glyph glyph-name="aring" unicode="&#xe5;" horiz-adv-x="694" 
d="M249 111q49 0 107 103.5t86 238.5q-7 18 -11 26t-14 14.5t-26 6.5q-50 0 -94 -53t-67.5 -125.5t-23.5 -139.5q0 -71 43 -71zM482 505l105 54h71l-41 -141l-66 -268q-8 -30 -8 -41q0 -15 14 -15q22 0 79 73l32 -27q-53 -76 -100.5 -113t-101.5 -37q-46 0 -73 30t-27 78
q0 11 2.5 24t5.5 23l9 30t10 35h-7q-22 -46 -41.5 -79.5t-47.5 -68.5t-62.5 -53.5t-73.5 -18.5q-60 0 -97.5 47.5t-37.5 128.5q0 95 41 184t120.5 149t176.5 60q40 0 66 -13.5t52 -40.5zM436 654q24 0 37.5 14t13.5 35q0 18 -11 28.5t-31 10.5q-24 0 -37.5 -14t-13.5 -34
q0 -18 11 -29t31 -11zM431 597q-46 0 -75 26t-29 67q0 46 36.5 77.5t86.5 31.5q46 0 75 -26t29 -67q0 -46 -36.5 -77.5t-86.5 -31.5z" />
    <glyph glyph-name="ae" unicode="&#xe6;" horiz-adv-x="865" 
d="M357 559q94 0 145 -75q93 75 208 75q70 0 110 -35.5t40 -87.5q0 -78 -82.5 -126t-243.5 -77v-14q0 -59 26.5 -94t71.5 -35q44 0 79 20t76 66l28 -27q-45 -78 -115 -118.5t-142 -40.5q-83 0 -134 47t-61 126q-91 -173 -202 -173q-60 0 -97.5 47.5t-37.5 128.5
q0 94 41 183.5t118.5 149.5t171.5 60zM249 111q52 0 113 113q9 127 103 226q-26 54 -73 54q-50 0 -94.5 -54t-68 -127.5t-23.5 -140.5q0 -71 43 -71zM685 498q-50 0 -92 -69.5t-55 -156.5q94 28 137 70t43 104q0 52 -33 52z" />
    <glyph glyph-name="ccedilla" unicode="&#xe7;" horiz-adv-x="510" 
d="M76 -233l-11 49q122 0 122 39q0 33 -76 36l52 106q-65 17 -101 70.5t-36 129.5q0 91 43 173.5t123 135.5t177 53q64 0 104 -25.5t40 -78.5q0 -66 -64 -82h-58q14 126 -38 126q-57 0 -102 -92t-45 -188q0 -57 22.5 -88.5t62.5 -31.5q76 0 144 77l27 -27
q-44 -79 -106.5 -119t-133.5 -40h-13l-17 -34q86 -9 86 -78q0 -52 -60 -81.5t-142 -29.5z" />
    <glyph glyph-name="egrave" unicode="&#xe8;" horiz-adv-x="530" 
d="M525 436q0 -78 -82.5 -126t-243.5 -77v-14q0 -59 26.5 -94t71.5 -35q44 0 79 20t76 66l28 -27q-45 -78 -115 -118.5t-142 -40.5q-92 0 -144.5 58t-52.5 150q0 90 45.5 173t127 135.5t176.5 52.5q70 0 110 -35.5t40 -87.5zM350 498q-50 0 -92 -69.5t-55 -156.5
q94 28 137 70t43 104q0 52 -33 52zM197 766h181l35 -160h-91z" />
    <glyph glyph-name="eacute" unicode="&#xe9;" horiz-adv-x="530" 
d="M525 436q0 -78 -82.5 -126t-243.5 -77v-14q0 -59 26.5 -94t71.5 -35q44 0 79 20t76 66l28 -27q-45 -78 -115 -118.5t-142 -40.5q-92 0 -144.5 58t-52.5 150q0 90 45.5 173t127 135.5t176.5 52.5q70 0 110 -35.5t40 -87.5zM397 766h197l-195 -160h-98zM350 498
q-50 0 -92 -69.5t-55 -156.5q94 28 137 70t43 104q0 52 -33 52z" />
    <glyph glyph-name="ecircumflex" unicode="&#xea;" horiz-adv-x="530" 
d="M525 436q0 -78 -82.5 -126t-243.5 -77v-14q0 -59 26.5 -94t71.5 -35q44 0 79 20t76 66l28 -27q-45 -78 -115 -118.5t-142 -40.5q-92 0 -144.5 58t-52.5 150q0 90 45.5 173t127 135.5t176.5 52.5q70 0 110 -35.5t40 -87.5zM464 766l92 -169h-89l-88 80l-134 -80h-101
l184 169h136zM350 498q-50 0 -92 -69.5t-55 -156.5q94 28 137 70t43 104q0 52 -33 52z" />
    <glyph glyph-name="edieresis" unicode="&#xeb;" horiz-adv-x="530" 
d="M525 436q0 -78 -82.5 -126t-243.5 -77v-14q0 -59 26.5 -94t71.5 -35q44 0 79 20t76 66l28 -27q-45 -78 -115 -118.5t-142 -40.5q-92 0 -144.5 58t-52.5 150q0 90 45.5 173t127 135.5t176.5 52.5q70 0 110 -35.5t40 -87.5zM263 603q-39 0 -63 24.5t-24 58.5
q0 38 25.5 65.5t67.5 27.5q39 0 62.5 -24t23.5 -58q0 -39 -25.5 -66.5t-66.5 -27.5zM482 603q-39 0 -62.5 24.5t-23.5 58.5q0 39 25 66t67 27q39 0 62.5 -24t23.5 -58q0 -39 -25 -66.5t-67 -27.5zM350 498q-50 0 -92 -69.5t-55 -156.5q94 28 137 70t43 104q0 52 -33 52z" />
    <glyph glyph-name="igrave" unicode="&#xec;" horiz-adv-x="370" 
d="M328 559l-103 -409q-8 -30 -8 -41q0 -15 14 -15q23 0 80 73l31 -27q-53 -76 -100 -113t-101 -37q-47 0 -75.5 26.5t-28.5 67.5q0 31 13 86l66 269l-50 47l9 34l218 39h35zM91 766h181l35 -160h-91z" />
    <glyph glyph-name="iacute" unicode="&#xed;" horiz-adv-x="370" 
d="M328 559l-103 -409q-8 -30 -8 -41q0 -15 14 -15q23 0 80 73l31 -27q-53 -76 -100 -113t-101 -37q-47 0 -75.5 26.5t-28.5 67.5q0 31 13 86l66 269l-50 47l9 34l218 39h35zM281 766h197l-195 -160h-98z" />
    <glyph glyph-name="icircumflex" unicode="&#xee;" horiz-adv-x="370" 
d="M328 559l-103 -409q-8 -30 -8 -41q0 -15 14 -15q23 0 80 73l31 -27q-53 -76 -100 -113t-101 -37q-47 0 -75.5 26.5t-28.5 67.5q0 31 13 86l66 269l-50 47l9 34l218 39h35zM358 766l92 -169h-89l-88 80l-134 -80h-101l184 169h136z" />
    <glyph glyph-name="idieresis" unicode="&#xef;" horiz-adv-x="370" 
d="M328 559l-103 -409q-8 -30 -8 -41q0 -15 14 -15q23 0 80 73l31 -27q-53 -76 -100 -113t-101 -37q-47 0 -75.5 26.5t-28.5 67.5q0 31 13 86l66 269l-50 47l9 34l218 39h35zM157 603q-39 0 -63 24.5t-24 58.5q0 38 25.5 65.5t67.5 27.5q39 0 62.5 -24t23.5 -58
q0 -39 -25.5 -66.5t-66.5 -27.5zM376 603q-39 0 -62.5 24.5t-23.5 58.5q0 39 25 66t67 27q39 0 62.5 -24t23.5 -58q0 -39 -25 -66.5t-67 -27.5z" />
    <glyph glyph-name="eth" unicode="&#xf0;" horiz-adv-x="606" 
d="M177 570l-19 44l142 55q-42 33 -115 66l30 41q106 -22 180 -70l116 45l19 -44l-89 -35q72 -60 106 -143t34 -173q0 -159 -92 -262.5t-239 -103.5q-98 0 -160 62t-62 168q0 141 90 233t231 92q18 0 35 -3q-14 51 -47 90zM403 384q0 50 -6 92q-15 6 -40 6q-45 0 -81.5 -56
t-53.5 -127t-17 -134q0 -112 50 -112q33 0 62 35t47 87t28.5 107.5t10.5 101.5z" />
    <glyph glyph-name="ntilde" unicode="&#xf1;" horiz-adv-x="689" 
d="M335 562l-27 -105l-56 -158h7q151 260 287 260q41 0 63.5 -24t22.5 -64q0 -18 -6 -44l-75 -277q-9 -34 -9 -41q0 -15 14 -15q13 0 31 17t49 56l31 -27q-53 -76 -100.5 -113t-100.5 -37q-47 0 -76.5 26.5t-29.5 67.5q0 38 14 86l64 220q5 22 5 33q0 18 -17 18
q-32 0 -99.5 -96t-97.5 -210l-35 -135h-181l109 439l-51 47l10 34l218 42h36zM587 771l58 -11q-46 -92 -76 -121t-75 -29q-26 0 -70.5 31.5t-61.5 31.5q-14 0 -26.5 -8.5t-20.5 -18.5t-21 -29l-59 12q47 92 77 121t74 29q30 0 72.5 -31.5t59.5 -31.5q32 0 69 55z" />
    <glyph glyph-name="ograve" unicode="&#xf2;" horiz-adv-x="608" 
d="M255 53q33 0 62 35t47 87t28.5 107.5t10.5 101.5q0 112 -50 112q-33 0 -62 -35t-47 -87t-28.5 -107.5t-10.5 -101.5q0 -112 50 -112zM250 -10q-98 0 -160 62t-62 168q0 143 92 241t238 98q98 0 160 -62t62 -168q0 -143 -92 -241t-238 -98zM214 766h181l35 -160h-91z" />
    <glyph glyph-name="oacute" unicode="&#xf3;" horiz-adv-x="608" 
d="M255 53q33 0 62 35t47 87t28.5 107.5t10.5 101.5q0 112 -50 112q-33 0 -62 -35t-47 -87t-28.5 -107.5t-10.5 -101.5q0 -112 50 -112zM250 -10q-98 0 -160 62t-62 168q0 143 92 241t238 98q98 0 160 -62t62 -168q0 -143 -92 -241t-238 -98zM414 766h197l-195 -160h-98z
" />
    <glyph glyph-name="ocircumflex" unicode="&#xf4;" horiz-adv-x="608" 
d="M255 53q33 0 62 35t47 87t28.5 107.5t10.5 101.5q0 112 -50 112q-33 0 -62 -35t-47 -87t-28.5 -107.5t-10.5 -101.5q0 -112 50 -112zM250 -10q-98 0 -160 62t-62 168q0 143 92 241t238 98q98 0 160 -62t62 -168q0 -143 -92 -241t-238 -98zM481 766l92 -169h-89l-88 80
l-134 -80h-101l184 169h136z" />
    <glyph glyph-name="otilde" unicode="&#xf5;" horiz-adv-x="608" 
d="M255 53q33 0 62 35t47 87t28.5 107.5t10.5 101.5q0 112 -50 112q-33 0 -62 -35t-47 -87t-28.5 -107.5t-10.5 -101.5q0 -112 50 -112zM250 -10q-98 0 -160 62t-62 168q0 143 92 241t238 98q98 0 160 -62t62 -168q0 -143 -92 -241t-238 -98zM539 771l58 -11
q-46 -92 -76 -121t-75 -29q-26 0 -70.5 31.5t-61.5 31.5q-14 0 -26.5 -8.5t-20.5 -18.5t-21 -29l-59 12q47 92 77 121t74 29q30 0 72.5 -31.5t59.5 -31.5q32 0 69 55z" />
    <glyph glyph-name="odieresis" unicode="&#xf6;" horiz-adv-x="608" 
d="M255 53q33 0 62 35t47 87t28.5 107.5t10.5 101.5q0 112 -50 112q-33 0 -62 -35t-47 -87t-28.5 -107.5t-10.5 -101.5q0 -112 50 -112zM250 -10q-98 0 -160 62t-62 168q0 143 92 241t238 98q98 0 160 -62t62 -168q0 -143 -92 -241t-238 -98zM275 603q-39 0 -63 24.5
t-24 58.5q0 38 25.5 65.5t67.5 27.5q39 0 62.5 -24t23.5 -58q0 -39 -25.5 -66.5t-66.5 -27.5zM494 603q-39 0 -62.5 24.5t-23.5 58.5q0 39 25 66t67 27q39 0 62.5 -24t23.5 -58q0 -39 -25 -66.5t-67 -27.5z" />
    <glyph glyph-name="divide" unicode="&#xf7;" horiz-adv-x="603" 
d="M80 318l20 93h459l-19 -93h-460zM210 179q0 30 20.5 50t48.5 20q30 0 50.5 -20t20.5 -50t-20.5 -50.5t-50.5 -20.5q-28 0 -48.5 20.5t-20.5 50.5zM289 550q0 29 20.5 49.5t48.5 20.5q30 0 51 -20.5t21 -49.5t-21 -50.5t-51 -21.5q-28 0 -48.5 21.5t-20.5 50.5z" />
    <glyph glyph-name="oslash" unicode="&#xf8;" horiz-adv-x="622" 
d="M559 591l-52 -77q85 -64 85 -185q0 -143 -94.5 -241t-240.5 -98q-49 0 -95 18l-68 -100l-43 28l66 97q-87 63 -87 187q0 143 94.5 241t240.5 98q55 0 97 -19l54 79zM197 165v-14l214 314q-16 31 -54 31q-43 0 -81.5 -59t-58.5 -135t-20 -137zM265 53q43 0 81.5 59
t58.5 135t20 137v10l-212 -311q17 -30 52 -30z" />
    <glyph glyph-name="ugrave" unicode="&#xf9;" horiz-adv-x="701" 
d="M407 243h-7q-139 -253 -265 -253q-49 0 -73.5 26t-24.5 72q0 25 8 60l70 291l-50 47l10 34l217 39h35l-100 -395q-4 -17 -4 -30q0 -23 17 -23q37 0 104.5 100.5t94.5 207.5l31 120l183 10l-100 -399q-8 -30 -8 -41q0 -15 14 -15q23 0 80 73l31 -27q-53 -76 -99 -113
t-100 -37q-47 0 -72.5 29.5t-25.5 78.5q0 38 34 145zM253 766h181l35 -160h-91z" />
    <glyph glyph-name="uacute" unicode="&#xfa;" horiz-adv-x="701" 
d="M407 243h-7q-139 -253 -265 -253q-49 0 -73.5 26t-24.5 72q0 25 8 60l70 291l-50 47l10 34l217 39h35l-100 -395q-4 -17 -4 -30q0 -23 17 -23q37 0 104.5 100.5t94.5 207.5l31 120l183 10l-100 -399q-8 -30 -8 -41q0 -15 14 -15q23 0 80 73l31 -27q-53 -76 -99 -113
t-100 -37q-47 0 -72.5 29.5t-25.5 78.5q0 38 34 145zM453 766h197l-195 -160h-98z" />
    <glyph glyph-name="ucircumflex" unicode="&#xfb;" horiz-adv-x="701" 
d="M407 243h-7q-139 -253 -265 -253q-49 0 -73.5 26t-24.5 72q0 25 8 60l70 291l-50 47l10 34l217 39h35l-100 -395q-4 -17 -4 -30q0 -23 17 -23q37 0 104.5 100.5t94.5 207.5l31 120l183 10l-100 -399q-8 -30 -8 -41q0 -15 14 -15q23 0 80 73l31 -27q-53 -76 -99 -113
t-100 -37q-47 0 -72.5 29.5t-25.5 78.5q0 38 34 145zM520 766l92 -169h-89l-88 80l-134 -80h-101l184 169h136z" />
    <glyph glyph-name="udieresis" unicode="&#xfc;" horiz-adv-x="701" 
d="M407 243h-7q-139 -253 -265 -253q-49 0 -73.5 26t-24.5 72q0 25 8 60l70 291l-50 47l10 34l217 39h35l-100 -395q-4 -17 -4 -30q0 -23 17 -23q37 0 104.5 100.5t94.5 207.5l31 120l183 10l-100 -399q-8 -30 -8 -41q0 -15 14 -15q23 0 80 73l31 -27q-53 -76 -99 -113
t-100 -37q-47 0 -72.5 29.5t-25.5 78.5q0 38 34 145zM319 603q-39 0 -63 24.5t-24 58.5q0 38 25.5 65.5t67.5 27.5q39 0 62.5 -24t23.5 -58q0 -39 -25.5 -66.5t-66.5 -27.5zM538 603q-39 0 -62.5 24.5t-23.5 58.5q0 39 25 66t67 27q39 0 62.5 -24t23.5 -58q0 -39 -25 -66.5
t-67 -27.5z" />
    <glyph glyph-name="yacute" unicode="&#xfd;" horiz-adv-x="569" 
d="M363 58q-113 -145 -194 -204.5t-159 -59.5q-50 0 -83.5 23.5t-33.5 67.5q0 27 17 48.5t46 31.5h32q0 -48 18 -73t60 -25q57 0 130 70l-117 508l-61 41l10 34l185 39h35l85 -457l3 3q102 138 102 272q0 45 -23 68.5t-64 23.5l1 19q44 71 121 71q45 0 68.5 -30.5
t23.5 -73.5q0 -84 -52.5 -179.5t-149.5 -217.5zM389 766h197l-195 -160h-98z" />
    <glyph glyph-name="thorn" unicode="&#xfe;" horiz-adv-x="658" 
d="M204 104q23 -58 59 -58q50 0 94.5 53t69 126.5t24.5 139.5q0 73 -44 73q-49 0 -112 -104t-91 -230zM-13 -75l172 716l-61 44l10 34l228 42h35l-75 -303l-57 -157h7q21 46 45 85.5t56.5 81.5t72 66.5t79.5 24.5q67 0 100 -46t33 -130q0 -94 -42 -183.5t-122 -149.5
t-176 -60q-35 0 -60.5 15.5t-36.5 35.5l-24 -107q-5 -22 -5 -31q1 -19 13 -25.5t41 -9.5l-16 -65h-306l15 65q37 5 51.5 14.5t22.5 42.5z" />
    <glyph glyph-name="ydieresis" unicode="&#xff;" horiz-adv-x="569" 
d="M363 58q-113 -145 -194 -204.5t-159 -59.5q-50 0 -83.5 23.5t-33.5 67.5q0 27 17 48.5t46 31.5h32q0 -48 18 -73t60 -25q57 0 130 70l-117 508l-61 41l10 34l185 39h35l85 -457l3 3q102 138 102 272q0 45 -23 68.5t-64 23.5l1 19q44 71 121 71q45 0 68.5 -30.5
t23.5 -73.5q0 -84 -52.5 -179.5t-149.5 -217.5zM255 603q-39 0 -63 24.5t-24 58.5q0 38 25.5 65.5t67.5 27.5q39 0 62.5 -24t23.5 -58q0 -39 -25.5 -66.5t-66.5 -27.5zM474 603q-39 0 -62.5 24.5t-23.5 58.5q0 39 25 66t67 27q39 0 62.5 -24t23.5 -58q0 -39 -25 -66.5
t-67 -27.5z" />
    <glyph glyph-name="Amacron" unicode="&#x100;" horiz-adv-x="759" 
d="M462 151l-12 63h-255l-39 -63q-18 -30 -18 -49q0 -17 14 -25.5t50 -9.5l-14 -67h-226l14 67q46 8 64 37l327 520l-18 79h190l128 -599q6 -31 51 -37l-13 -67h-334l14 67q45 2 63.5 12t18.5 33q0 16 -5 39zM303 758l24 106h318l-24 -106h-318zM391 529l-154 -247h200z" />
    <glyph glyph-name="amacron" unicode="&#x101;" horiz-adv-x="694" 
d="M249 111q49 0 107 103.5t86 238.5q-7 18 -11 26t-14 14.5t-26 6.5q-50 0 -94 -53t-67.5 -125.5t-23.5 -139.5q0 -71 43 -71zM482 505l105 54h71l-41 -141l-66 -268q-8 -30 -8 -41q0 -15 14 -15q22 0 79 73l32 -27q-53 -76 -100.5 -113t-101.5 -37q-46 0 -73 30t-27 78
q0 11 2.5 24t5.5 23l9 30t10 35h-7q-22 -46 -41.5 -79.5t-47.5 -68.5t-62.5 -53.5t-73.5 -18.5q-60 0 -97.5 47.5t-37.5 128.5q0 95 41 184t120.5 149t176.5 60q40 0 66 -13.5t52 -40.5zM270 626l23 101h308l-23 -101h-308z" />
    <glyph glyph-name="Abreve" unicode="&#x102;" horiz-adv-x="759" 
d="M462 151l-12 63h-255l-39 -63q-18 -30 -18 -49q0 -17 14 -25.5t50 -9.5l-14 -67h-226l14 67q46 8 64 37l327 520l-18 79h190l128 -599q6 -31 51 -37l-13 -67h-334l14 67q45 2 63.5 12t18.5 33q0 16 -5 39zM462 746q-60 0 -93.5 30.5t-33.5 81.5q0 29 11 58h66
q-1 -5 -1 -14q0 -64 71 -64q74 0 105 78h74q-20 -80 -72 -125t-127 -45zM391 529l-154 -247h200z" />
    <glyph glyph-name="abreve" unicode="&#x103;" horiz-adv-x="694" 
d="M249 111q49 0 107 103.5t86 238.5q-7 18 -11 26t-14 14.5t-26 6.5q-50 0 -94 -53t-67.5 -125.5t-23.5 -139.5q0 -71 43 -71zM482 505l105 54h71l-41 -141l-66 -268q-8 -30 -8 -41q0 -15 14 -15q22 0 79 73l32 -27q-53 -76 -100.5 -113t-101.5 -37q-46 0 -73 30t-27 78
q0 11 2.5 24t5.5 23l9 30t10 35h-7q-22 -46 -41.5 -79.5t-47.5 -68.5t-62.5 -53.5t-73.5 -18.5q-60 0 -97.5 47.5t-37.5 128.5q0 95 41 184t120.5 149t176.5 60q40 0 66 -13.5t52 -40.5zM418 603q-60 0 -93.5 30.5t-33.5 81.5q0 29 11 58h66q-1 -5 -1 -14q0 -64 71 -64
q74 0 105 78h74q-20 -80 -72 -125t-127 -45z" />
    <glyph glyph-name="Aogonek" unicode="&#x104;" horiz-adv-x="759" 
d="M462 151l-12 63h-255l-39 -63q-18 -30 -18 -49q0 -17 14 -25.5t50 -9.5l-14 -67h-226l14 67q46 8 64 37l327 520l-18 79h190l128 -599q6 -31 51 -37l-13 -67h-290q-80 -52 -80 -99q0 -39 39 -39q30 0 72 25l16 -28q-78 -75 -155 -75q-37 0 -61.5 19.5t-24.5 52.5
q0 27 11 50t38 45t45.5 33.5t58.5 34.5q57 33 75 51t18 42q0 16 -5 39zM391 529l-154 -247h200z" />
    <glyph glyph-name="aogonek" unicode="&#x105;" horiz-adv-x="694" 
d="M482 505l105 54h71l-41 -141l-65 -263q-8 -30 -8 -41q0 -15 14 -15q25 0 78 68l32 -27q-47 -59 -94.5 -102.5t-73 -60.5t-42 -35.5t-16.5 -40.5q0 -39 39 -39q30 0 72 25l16 -28q-78 -75 -155 -75q-37 0 -61.5 19.5t-24.5 53.5q0 81 106 141q-68 19 -68 100q0 11 2.5 24
t5.5 23l9 30t10 35h-7q-22 -46 -41.5 -79.5t-47.5 -68.5t-62.5 -53.5t-73.5 -18.5q-60 0 -97.5 47.5t-37.5 128.5q0 95 41 184t120.5 149t176.5 60q40 0 66 -13.5t52 -40.5zM249 111q49 0 107 103.5t86 238.5q-7 18 -11 26t-14 14.5t-26 6.5q-50 0 -94 -53t-67.5 -125.5
t-23.5 -139.5q0 -71 43 -71z" />
    <glyph glyph-name="Cacute" unicode="&#x106;" horiz-adv-x="704" 
d="M367 -10q-149 0 -229.5 79t-80.5 203q0 190 126.5 315t312.5 125q146 0 226 -77l-34 -159h-93q-5 85 -25.5 125.5t-75.5 40.5q-70 0 -125.5 -61t-83 -149.5t-27.5 -181.5q0 -185 121 -185q60 0 99 41t90 142h95l-43 -192q-109 -66 -253 -66zM556 909h197l-194 -158h-99z
" />
    <glyph glyph-name="cacute" unicode="&#x107;" horiz-adv-x="510" 
d="M353 499q-57 0 -102 -92t-45 -188q0 -57 22.5 -88.5t62.5 -31.5q76 0 144 77l27 -27q-44 -79 -106.5 -119t-133.5 -40q-91 0 -143.5 57.5t-52.5 149.5q0 91 43 173.5t123 135.5t177 53q64 0 104 -25.5t40 -78.5q0 -66 -64 -82h-58q14 126 -38 126zM409 766h197l-195 -160
h-98z" />
    <glyph glyph-name="Ccircumflex" unicode="&#x108;" horiz-adv-x="704" 
d="M367 -10q-149 0 -229.5 79t-80.5 203q0 190 126.5 315t312.5 125q146 0 226 -77l-34 -159h-93q-5 85 -25.5 125.5t-75.5 40.5q-70 0 -125.5 -61t-83 -149.5t-27.5 -181.5q0 -185 121 -185q60 0 99 41t90 142h95l-43 -192q-109 -66 -253 -66zM621 918l92 -169h-89l-88 80
l-134 -80h-101l184 169h136z" />
    <glyph glyph-name="ccircumflex" unicode="&#x109;" horiz-adv-x="510" 
d="M353 499q-57 0 -102 -92t-45 -188q0 -57 22.5 -88.5t62.5 -31.5q76 0 144 77l27 -27q-44 -79 -106.5 -119t-133.5 -40q-91 0 -143.5 57.5t-52.5 149.5q0 91 43 173.5t123 135.5t177 53q64 0 104 -25.5t40 -78.5q0 -66 -64 -82h-58q14 126 -38 126zM476 766l92 -169h-89
l-88 80l-134 -80h-101l184 169h136z" />
    <glyph glyph-name="Cdotaccent" unicode="&#x10a;" horiz-adv-x="704" 
d="M367 -10q-149 0 -229.5 79t-80.5 203q0 190 126.5 315t312.5 125q146 0 226 -77l-34 -159h-93q-5 85 -25.5 125.5t-75.5 40.5q-70 0 -125.5 -61t-83 -149.5t-27.5 -181.5q0 -185 121 -185q60 0 99 41t90 142h95l-43 -192q-109 -66 -253 -66zM532 744q-44 0 -70 25.5
t-26 62.5q0 42 28 70.5t76 28.5q43 0 69.5 -25.5t26.5 -61.5q0 -42 -28.5 -71t-75.5 -29z" />
    <glyph glyph-name="cdotaccent" unicode="&#x10b;" horiz-adv-x="510" 
d="M353 499q-57 0 -102 -92t-45 -188q0 -57 22.5 -88.5t62.5 -31.5q76 0 144 77l27 -27q-44 -79 -106.5 -119t-133.5 -40q-91 0 -143.5 57.5t-52.5 149.5q0 91 43 173.5t123 135.5t177 53q64 0 104 -25.5t40 -78.5q0 -66 -64 -82h-58q14 126 -38 126zM383 599
q-44 0 -70 25.5t-26 62.5q0 42 28 70.5t76 28.5q43 0 69.5 -25.5t26.5 -61.5q0 -42 -28.5 -71t-75.5 -29z" />
    <glyph glyph-name="Ccaron" unicode="&#x10c;" horiz-adv-x="704" 
d="M367 -10q-149 0 -229.5 79t-80.5 203q0 190 126.5 315t312.5 125q146 0 226 -77l-34 -159h-93q-5 85 -25.5 125.5t-75.5 40.5q-70 0 -125.5 -61t-83 -149.5t-27.5 -181.5q0 -185 121 -185q60 0 99 41t90 142h95l-43 -192q-109 -66 -253 -66zM449 752l-92 169h89l88 -80
l134 80h101l-184 -169h-136z" />
    <glyph glyph-name="ccaron" unicode="&#x10d;" horiz-adv-x="510" 
d="M353 499q-57 0 -102 -92t-45 -188q0 -57 22.5 -88.5t62.5 -31.5q76 0 144 77l27 -27q-44 -79 -106.5 -119t-133.5 -40q-91 0 -143.5 57.5t-52.5 149.5q0 91 43 173.5t123 135.5t177 53q64 0 104 -25.5t40 -78.5q0 -66 -64 -82h-58q14 126 -38 126zM302 606l-92 169h89
l88 -80l134 80h101l-184 -169h-136z" />
    <glyph glyph-name="Dcaron" unicode="&#x10e;" horiz-adv-x="791" 
d="M427 631h-39l-100 -479q-6 -27 -6 -42q0 -22 13 -30.5t44 -8.5h11q49 0 89 24t66.5 62.5t44.5 87.5t26 96.5t8 91.5q0 198 -157 198zM-15 0l14 67q52 2 70 15t26 54l90 428q4 18 4 31q0 22 -14 30t-54 10l13 67h308q160 0 251 -76t91 -212q0 -183 -125.5 -298.5
t-322.5 -115.5h-351zM400 752l-92 169h89l88 -80l134 80h101l-184 -169h-136z" />
    <glyph glyph-name="dcaron" unicode="&#x10f;" horiz-adv-x="708" 
d="M249 111q51 0 113.5 106.5t89.5 249.5q-19 36 -59 36q-50 0 -94.5 -53.5t-68.5 -127t-24 -140.5q0 -71 43 -71zM495 641l-61 44l10 34l224 42h35l-146 -611q-8 -30 -8 -41q0 -15 14 -15q13 0 31 17t49 56l31 -27q-53 -76 -100.5 -113t-100.5 -37q-47 0 -74 29.5t-27 77.5
q0 24 23 114h-7q-21 -45 -41 -79.5t-48.5 -69t-63.5 -53.5t-74 -19q-60 0 -97.5 47.5t-37.5 128.5q0 94 42 183.5t121 149.5t175 60q36 0 63 -11.5t39 -27.5zM931 766l-133 -205h-76l51 205h158z" />
    <glyph glyph-name="Dcroat" unicode="&#x110;" horiz-adv-x="801" 
d="M59 327l15 71h86l35 166q4 18 4 31q0 22 -14 30t-54 10l13 67h308q160 0 251 -76t91 -212q0 -183 -125.5 -298.5t-322.5 -115.5h-351l14 67q52 2 70 15t26 54l40 191h-86zM437 631h-39l-49 -233h123l-15 -71h-123l-36 -175q-6 -27 -6 -42q0 -22 13 -30.5t44 -8.5h11
q49 0 89 24t66.5 62.5t44.5 87.5t26 96.5t8 91.5q0 198 -157 198z" />
    <glyph glyph-name="dcroat" unicode="&#x111;" horiz-adv-x="706" 
d="M723 577h-64l-102 -427q-8 -30 -8 -41q0 -15 14 -15q13 0 31 17t49 56l31 -27q-53 -76 -100.5 -113t-100.5 -37q-47 0 -74 29.5t-27 77.5q0 24 23 114h-7q-21 -45 -41 -79.5t-48.5 -69t-63.5 -53.5t-74 -19q-60 0 -97.5 47.5t-37.5 128.5q0 94 40 177t117.5 136t173.5 53
q36 0 63 -11.5t39 -27.5l20 84h-123l13 51h123l13 53h-72l14 47l221 33h35l-32 -133h65zM249 111q51 0 111 99.5t85 229.5q-19 36 -59 36q-75 0 -127.5 -94.5t-52.5 -199.5q0 -71 43 -71z" />
    <glyph glyph-name="Emacron" unicode="&#x112;" horiz-adv-x="674" 
d="M-15 0l14 67q52 2 70 15t26 54l90 428q4 18 4 31q0 22 -14 30t-54 10l13 67h579l-41 -191h-71q-12 68 -33 95t-77 27h-103l-49 -236h74q33 0 52.5 17t36.5 62h64l-48 -229h-64q0 45 -11.5 62t-44.5 17h-74l-37 -177q-5 -23 -5 -35q0 -26 16.5 -35.5t52.5 -9.5h23
q52 0 91.5 29.5t99.5 107.5h79l-74 -206h-585zM280 758l24 106h318l-24 -106h-318z" />
    <glyph glyph-name="emacron" unicode="&#x113;" horiz-adv-x="530" 
d="M525 436q0 -78 -82.5 -126t-243.5 -77v-14q0 -59 26.5 -94t71.5 -35q44 0 79 20t76 66l28 -27q-45 -78 -115 -118.5t-142 -40.5q-92 0 -144.5 58t-52.5 150q0 90 45.5 173t127 135.5t176.5 52.5q70 0 110 -35.5t40 -87.5zM206 626l23 101h308l-23 -101h-308zM350 498
q-50 0 -92 -69.5t-55 -156.5q94 28 137 70t43 104q0 52 -33 52z" />
    <glyph glyph-name="Ebreve" unicode="&#x114;" horiz-adv-x="674" 
d="M-15 0l14 67q52 2 70 15t26 54l90 428q4 18 4 31q0 22 -14 30t-54 10l13 67h579l-41 -191h-71q-12 68 -33 95t-77 27h-103l-49 -236h74q33 0 52.5 17t36.5 62h64l-48 -229h-64q0 45 -11.5 62t-44.5 17h-74l-37 -177q-5 -23 -5 -35q0 -26 16.5 -35.5t52.5 -9.5h23
q52 0 91.5 29.5t99.5 107.5h79l-74 -206h-585zM439 746q-60 0 -93.5 30.5t-33.5 81.5q0 29 11 58h66q-1 -5 -1 -14q0 -64 71 -64q74 0 105 78h74q-20 -80 -72 -125t-127 -45z" />
    <glyph glyph-name="ebreve" unicode="&#x115;" horiz-adv-x="530" 
d="M525 436q0 -78 -82.5 -126t-243.5 -77v-14q0 -59 26.5 -94t71.5 -35q44 0 79 20t76 66l28 -27q-45 -78 -115 -118.5t-142 -40.5q-92 0 -144.5 58t-52.5 150q0 90 45.5 173t127 135.5t176.5 52.5q70 0 110 -35.5t40 -87.5zM354 603q-60 0 -93.5 30.5t-33.5 81.5
q0 29 11 58h66q-1 -5 -1 -14q0 -64 71 -64q74 0 105 78h74q-20 -80 -72 -125t-127 -45zM350 498q-50 0 -92 -69.5t-55 -156.5q94 28 137 70t43 104q0 52 -33 52z" />
    <glyph glyph-name="Edotaccent" unicode="&#x116;" horiz-adv-x="674" 
d="M-15 0l14 67q52 2 70 15t26 54l90 428q4 18 4 31q0 22 -14 30t-54 10l13 67h579l-41 -191h-71q-12 68 -33 95t-77 27h-103l-49 -236h74q33 0 52.5 17t36.5 62h64l-48 -229h-64q0 45 -11.5 62t-44.5 17h-74l-37 -177q-5 -23 -5 -35q0 -26 16.5 -35.5t52.5 -9.5h23
q52 0 91.5 29.5t99.5 107.5h79l-74 -206h-585zM452 744q-44 0 -70 25.5t-26 62.5q0 42 28 70.5t76 28.5q43 0 69.5 -25.5t26.5 -61.5q0 -42 -28.5 -71t-75.5 -29z" />
    <glyph glyph-name="edotaccent" unicode="&#x117;" horiz-adv-x="530" 
d="M525 436q0 -78 -82.5 -126t-243.5 -77v-14q0 -59 26.5 -94t71.5 -35q44 0 79 20t76 66l28 -27q-45 -78 -115 -118.5t-142 -40.5q-92 0 -144.5 58t-52.5 150q0 90 45.5 173t127 135.5t176.5 52.5q70 0 110 -35.5t40 -87.5zM371 599q-44 0 -70 25.5t-26 62.5q0 42 28 70.5
t76 28.5q43 0 69.5 -25.5t26.5 -61.5q0 -42 -28.5 -71t-75.5 -29zM350 498q-50 0 -92 -69.5t-55 -156.5q94 28 137 70t43 104q0 52 -33 52z" />
    <glyph glyph-name="Eogonek" unicode="&#x118;" horiz-adv-x="674" 
d="M-15 0l14 67q52 2 70 15t26 54l90 428q4 18 4 31q0 22 -14 30t-54 10l13 67h579l-41 -191h-71q-12 68 -33 95t-77 27h-103l-49 -236h74q33 0 52.5 17t36.5 62h64l-48 -229h-64q0 45 -11.5 62t-44.5 17h-74l-37 -177q-5 -23 -5 -35q0 -26 16.5 -35.5t52.5 -9.5h23
q52 0 91.5 29.5t99.5 107.5h79l-74 -206h-107q-77 -50 -77 -99q0 -39 39 -39q30 0 72 25l16 -28q-78 -75 -155 -75q-37 0 -61.5 19.5t-24.5 52.5q0 81 119 144h-406z" />
    <glyph glyph-name="eogonek" unicode="&#x119;" horiz-adv-x="530" 
d="M525 436q0 -78 -82.5 -126t-243.5 -77v-14q0 -59 26.5 -94t71.5 -35q44 0 79 20t76 66l28 -27q-55 -94 -148 -136q-99 -56 -99 -112q0 -39 39 -39q30 0 72 25l16 -28q-78 -75 -155 -75q-37 0 -61.5 19.5t-24.5 52.5q0 76 100 134q-90 1 -141.5 59t-51.5 149
q0 90 45.5 173t127 135.5t176.5 52.5q70 0 110 -35.5t40 -87.5zM350 498q-50 0 -92 -69.5t-55 -156.5q94 28 137 70t43 104q0 52 -33 52z" />
    <glyph glyph-name="Ecaron" unicode="&#x11a;" horiz-adv-x="674" 
d="M-15 0l14 67q52 2 70 15t26 54l90 428q4 18 4 31q0 22 -14 30t-54 10l13 67h579l-41 -191h-71q-12 68 -33 95t-77 27h-103l-49 -236h74q33 0 52.5 17t36.5 62h64l-48 -229h-64q0 45 -11.5 62t-44.5 17h-74l-37 -177q-5 -23 -5 -35q0 -26 16.5 -35.5t52.5 -9.5h23
q52 0 91.5 29.5t99.5 107.5h79l-74 -206h-585zM369 752l-92 169h89l88 -80l134 80h101l-184 -169h-136z" />
    <glyph glyph-name="ecaron" unicode="&#x11b;" horiz-adv-x="530" 
d="M525 436q0 -78 -82.5 -126t-243.5 -77v-14q0 -59 26.5 -94t71.5 -35q44 0 79 20t76 66l28 -27q-45 -78 -115 -118.5t-142 -40.5q-92 0 -144.5 58t-52.5 150q0 90 45.5 173t127 135.5t176.5 52.5q70 0 110 -35.5t40 -87.5zM290 606l-92 169h89l88 -80l134 80h101
l-184 -169h-136zM350 498q-50 0 -92 -69.5t-55 -156.5q94 28 137 70t43 104q0 52 -33 52z" />
    <glyph glyph-name="Gcircumflex" unicode="&#x11c;" horiz-adv-x="764" 
d="M57 272q0 190 128.5 315t319.5 125q145 0 224 -77l-34 -159h-93q-5 82 -28.5 124t-78.5 42q-70 0 -126 -61t-83.5 -149.5t-27.5 -181.5q0 -185 122 -185q41 0 77 17l31 125q4 22 4 30q0 20 -15 27.5t-54 9.5l15 70h332l-14 -70q-50 -1 -66.5 -13.5t-25.5 -52.5l-33 -140
q-111 -78 -264 -78q-149 0 -229.5 79t-80.5 203zM613 918l92 -169h-89l-88 80l-134 -80h-101l184 169h136z" />
    <glyph glyph-name="gcircumflex" unicode="&#x11d;" horiz-adv-x="575" 
d="M332 559q58 0 105 -25l196 20l-23 -95h-43l-64 19q25 -36 25 -74q0 -90 -80.5 -144t-195.5 -54q-38 0 -66 7q-32 -13 -32 -34q0 -20 29 -28l175 -35q77 -15 115 -46t38 -90q0 -84 -86.5 -136.5t-214.5 -52.5q-107 0 -190 36t-83 99q0 45 44 69.5t98 26.5q-39 37 -39 82
q0 76 115 119q-98 39 -98 147q0 84 80.5 136.5t194.5 52.5zM483 766l92 -169h-89l-88 80l-134 -80h-101l184 169h136zM305 -44l-202 42q-47 -16 -47 -59q0 -40 44 -64.5t111 -24.5q63 0 105 19t42 50q0 16 -12.5 23.5t-40.5 13.5zM265 258q37 0 66.5 49t29.5 125
q0 75 -42 75q-37 0 -66.5 -49.5t-29.5 -125.5q0 -74 42 -74z" />
    <glyph glyph-name="Gbreve" unicode="&#x11e;" horiz-adv-x="764" 
d="M57 272q0 190 128.5 315t319.5 125q145 0 224 -77l-34 -159h-93q-5 82 -28.5 124t-78.5 42q-70 0 -126 -61t-83.5 -149.5t-27.5 -181.5q0 -185 122 -185q41 0 77 17l31 125q4 22 4 30q0 20 -15 27.5t-54 9.5l15 70h332l-14 -70q-50 -1 -66.5 -13.5t-25.5 -52.5l-33 -140
q-111 -78 -264 -78q-149 0 -229.5 79t-80.5 203zM511 746q-60 0 -93.5 30.5t-33.5 81.5q0 29 11 58h66q-1 -5 -1 -14q0 -64 71 -64q74 0 105 78h74q-20 -80 -72 -125t-127 -45z" />
    <glyph glyph-name="gbreve" unicode="&#x11f;" horiz-adv-x="575" 
d="M332 559q58 0 105 -25l196 20l-23 -95h-43l-64 19q25 -36 25 -74q0 -90 -80.5 -144t-195.5 -54q-38 0 -66 7q-32 -13 -32 -34q0 -20 29 -28l175 -35q77 -15 115 -46t38 -90q0 -84 -86.5 -136.5t-214.5 -52.5q-107 0 -190 36t-83 99q0 45 44 69.5t98 26.5q-39 37 -39 82
q0 76 115 119q-98 39 -98 147q0 84 80.5 136.5t194.5 52.5zM373 603q-60 0 -93.5 30.5t-33.5 81.5q0 29 11 58h66q-1 -5 -1 -14q0 -64 71 -64q74 0 105 78h74q-20 -80 -72 -125t-127 -45zM305 -44l-202 42q-47 -16 -47 -59q0 -40 44 -64.5t111 -24.5q63 0 105 19t42 50
q0 16 -12.5 23.5t-40.5 13.5zM265 258q37 0 66.5 49t29.5 125q0 75 -42 75q-37 0 -66.5 -49.5t-29.5 -125.5q0 -74 42 -74z" />
    <glyph glyph-name="Gdotaccent" unicode="&#x120;" horiz-adv-x="764" 
d="M57 272q0 190 128.5 315t319.5 125q145 0 224 -77l-34 -159h-93q-5 82 -28.5 124t-78.5 42q-70 0 -126 -61t-83.5 -149.5t-27.5 -181.5q0 -185 122 -185q41 0 77 17l31 125q4 22 4 30q0 20 -15 27.5t-54 9.5l15 70h332l-14 -70q-50 -1 -66.5 -13.5t-25.5 -52.5l-33 -140
q-111 -78 -264 -78q-149 0 -229.5 79t-80.5 203zM524 744q-44 0 -70 25.5t-26 62.5q0 42 28 70.5t76 28.5q43 0 69.5 -25.5t26.5 -61.5q0 -42 -28.5 -71t-75.5 -29z" />
    <glyph glyph-name="gdotaccent" unicode="&#x121;" horiz-adv-x="575" 
d="M332 559q58 0 105 -25l196 20l-23 -95h-43l-64 19q25 -36 25 -74q0 -90 -80.5 -144t-195.5 -54q-38 0 -66 7q-32 -13 -32 -34q0 -20 29 -28l175 -35q77 -15 115 -46t38 -90q0 -84 -86.5 -136.5t-214.5 -52.5q-107 0 -190 36t-83 99q0 45 44 69.5t98 26.5q-39 37 -39 82
q0 76 115 119q-98 39 -98 147q0 84 80.5 136.5t194.5 52.5zM305 -44l-202 42q-47 -16 -47 -59q0 -40 44 -64.5t111 -24.5q63 0 105 19t42 50q0 16 -12.5 23.5t-40.5 13.5zM390 599q-44 0 -70 25.5t-26 62.5q0 42 28 70.5t76 28.5q43 0 69.5 -25.5t26.5 -61.5
q0 -42 -28.5 -71t-75.5 -29zM265 258q37 0 66.5 49t29.5 125q0 75 -42 75q-37 0 -66.5 -49.5t-29.5 -125.5q0 -74 42 -74z" />
    <glyph glyph-name="Gcommaaccent" unicode="&#x122;" horiz-adv-x="764" 
d="M57 272q0 190 128.5 315t319.5 125q145 0 224 -77l-34 -159h-93q-5 82 -28.5 124t-78.5 42q-70 0 -126 -61t-83.5 -149.5t-27.5 -181.5q0 -185 122 -185q41 0 77 17l31 125q4 22 4 30q0 20 -15 27.5t-54 9.5l15 70h332l-14 -70q-50 -1 -66.5 -13.5t-25.5 -52.5l-33 -140
q-111 -78 -264 -78q-149 0 -229.5 79t-80.5 203zM337 -158h-61q-41 11 -41 50q0 33 25 54.5t69 21.5q41 0 63.5 -22t22.5 -59q0 -61 -46 -99t-144 -38v45q49 0 78 13t34 34z" />
    <glyph glyph-name="gcommaaccent" unicode="&#x123;" horiz-adv-x="575" 
d="M332 559q58 0 105 -25l196 20l-23 -95h-43l-64 19q25 -36 25 -74q0 -90 -80.5 -144t-195.5 -54q-38 0 -66 7q-32 -13 -32 -34q0 -20 29 -28l175 -35q77 -15 115 -46t38 -90q0 -84 -86.5 -136.5t-214.5 -52.5q-107 0 -190 36t-83 99q0 45 44 69.5t98 26.5q-39 37 -39 82
q0 76 115 119q-98 39 -98 147q0 84 80.5 136.5t194.5 52.5zM305 -44l-202 42q-47 -16 -47 -59q0 -40 44 -64.5t111 -24.5q63 0 105 19t42 50q0 16 -12.5 23.5t-40.5 13.5zM379 720h61q41 -11 41 -50q0 -33 -25 -54.5t-69 -21.5q-41 0 -63.5 22t-22.5 59q0 61 46 99t144 38
v-45q-49 0 -78 -13t-34 -34zM265 258q37 0 66.5 49t29.5 125q0 75 -42 75q-37 0 -66.5 -49.5t-29.5 -125.5q0 -74 42 -74z" />
    <glyph glyph-name="Hcircumflex" unicode="&#x124;" horiz-adv-x="864" 
d="M825 566l-90 -428q-4 -18 -4 -31q0 -22 14.5 -30t54.5 -10l-14 -67h-350l13 67q52 2 70.5 15.5t26.5 53.5l39 190h-261l-39 -188q-4 -18 -4 -31q0 -22 14 -30t54 -10l-13 -67h-351l14 67q52 2 70 15t26 54l90 428q4 18 4 31q0 22 -14 30t-54 10l13 67h350l-13 -67
q-52 -2 -70 -15t-26 -54l-36 -169h261l35 167q4 18 4 31q0 22 -14 30t-54 10l14 67h350l-14 -67q-52 -2 -70 -15t-26 -54zM648 918l92 -169h-89l-88 80l-134 -80h-101l184 169h136z" />
    <glyph glyph-name="hcircumflex" unicode="&#x125;" horiz-adv-x="684" 
d="M299 459l-52 -160h7q151 260 287 260q41 0 63.5 -24t22.5 -64q0 -18 -6 -44l-75 -277q-9 -34 -9 -41q0 -15 14 -15q13 0 31 17t49 56l31 -27q-53 -76 -100.5 -113t-100.5 -37q-47 0 -76.5 26.5t-29.5 67.5q0 38 14 86l64 220q5 22 5 33q0 18 -17 18q-32 0 -99.5 -96
t-97.5 -210l-35 -135h-182l154 641l-61 44l10 34l228 42h35zM545 956l92 -169h-89l-88 80l-134 -80h-101l184 169h136z" />
    <glyph glyph-name="Hbar" unicode="&#x126;" horiz-adv-x="894" 
d="M102 449l15 71h79l9 44q4 18 4 31q0 22 -14 30t-54 10l13 67h350l-13 -67q-52 -2 -70 -15t-26 -54l-10 -46h261l9 44q4 18 4 31q0 22 -14 30t-54 10l14 67h350l-14 -67q-52 -2 -70 -15t-26 -54l-10 -46h87l-15 -71h-87l-65 -311q-4 -18 -4 -31q0 -22 14.5 -30t54.5 -10
l-14 -67h-350l13 67q52 2 70.5 15.5t26.5 53.5l31 151h-261l-31 -149q-4 -18 -4 -31q0 -22 14 -30t54 -10l-13 -67h-351l14 67q52 2 70 15t26 54l66 313h-79zM370 449l-19 -91h261l19 91h-261z" />
    <glyph glyph-name="hbar" unicode="&#x127;" horiz-adv-x="689" 
d="M304 459l-52 -160h7q151 260 287 260q41 0 63.5 -24t22.5 -64q0 -18 -6 -44l-75 -277q-9 -34 -9 -41q0 -15 14 -15q13 0 31 17t49 56l31 -27q-53 -76 -100.5 -113t-100.5 -37q-47 0 -76.5 26.5t-29.5 67.5q0 38 14 86l64 220q5 22 5 33q0 18 -17 18q-32 0 -99.5 -96
t-97.5 -210l-35 -135h-182l138 577h-69l13 51h68l13 53h-71l14 47l225 33h35l-33 -133h116l-13 -51h-115z" />
    <glyph glyph-name="Itilde" unicode="&#x128;" horiz-adv-x="413" 
d="M375 566l-90 -428q-4 -18 -4 -31q0 -22 14 -30t54 -10l-13 -67h-351l14 67q52 2 70 15t26 54l90 428q4 18 4 31q0 22 -14 30t-54 10l13 67h350l-13 -67q-52 -2 -70 -15t-26 -54zM481 900l58 -12q-46 -92 -76 -121t-75 -29q-26 0 -70.5 31.5t-61.5 31.5q-14 0 -26.5 -8.5
t-20.5 -18t-21 -28.5l-59 11q47 92 77 121t74 29q30 0 72.5 -31.5t59.5 -31.5q32 0 69 56z" />
    <glyph glyph-name="itilde" unicode="&#x129;" horiz-adv-x="370" 
d="M392 771l58 -11q-46 -91 -75 -120.5t-67 -29.5q-25 0 -59.5 31.5t-51.5 31.5q-14 0 -26.5 -8.5t-20.5 -18.5t-21 -29l-59 12q47 91 75.5 120.5t67.5 29.5q29 0 61 -31.5t49 -31.5q32 0 69 55zM328 559l-103 -409q-8 -30 -8 -41q0 -15 14 -15q23 0 80 73l31 -27
q-53 -76 -100 -113t-101 -37q-47 0 -75.5 26.5t-28.5 67.5q0 31 13 86l66 269l-50 47l9 34l218 39h35z" />
    <glyph glyph-name="Imacron" unicode="&#x12a;" horiz-adv-x="413" 
d="M375 566l-90 -428q-4 -18 -4 -31q0 -22 14 -30t54 -10l-13 -67h-351l14 67q52 2 70 15t26 54l90 428q4 18 4 31q0 22 -14 30t-54 10l13 67h350l-13 -67q-52 -2 -70 -15t-26 -54zM161 758l24 106h318l-24 -106h-318z" />
    <glyph glyph-name="imacron" unicode="&#x12b;" horiz-adv-x="370" 
d="M116 626l23 101h278l-23 -101h-278zM328 559l-103 -409q-8 -30 -8 -41q0 -15 14 -15q23 0 80 73l31 -27q-53 -76 -100 -113t-101 -37q-47 0 -75.5 26.5t-28.5 67.5q0 31 13 86l66 269l-50 47l9 34l218 39h35z" />
    <glyph glyph-name="Ibreve" unicode="&#x12c;" horiz-adv-x="413" 
d="M375 566l-90 -428q-4 -18 -4 -31q0 -22 14 -30t54 -10l-13 -67h-351l14 67q52 2 70 15t26 54l90 428q4 18 4 31q0 22 -14 30t-54 10l13 67h350l-13 -67q-52 -2 -70 -15t-26 -54zM320 746q-60 0 -93.5 30.5t-33.5 81.5q0 29 11 58h66q-1 -5 -1 -14q0 -64 71 -64
q74 0 105 78h74q-20 -80 -72 -125t-127 -45z" />
    <glyph glyph-name="ibreve" unicode="&#x12d;" horiz-adv-x="370" 
d="M328 559l-103 -409q-8 -30 -8 -41q0 -15 14 -15q23 0 80 73l31 -27q-53 -76 -100 -113t-101 -37q-47 0 -75.5 26.5t-28.5 67.5q0 31 13 86l66 269l-50 47l9 34l218 39h35zM248 603q-60 0 -93.5 30.5t-33.5 81.5q0 29 11 58h66q-1 -5 -1 -14q0 -64 71 -64q74 0 105 78h74
q-20 -80 -72 -125t-127 -45z" />
    <glyph glyph-name="Iogonek" unicode="&#x12e;" horiz-adv-x="413" 
d="M375 566l-90 -428q-4 -18 -4 -31q0 -22 14 -30t54 -10l-13 -67h-123q-78 -51 -78 -99q0 -39 39 -39q30 0 72 25l16 -28q-78 -75 -155 -75q-37 0 -61.5 19.5t-24.5 52.5q0 81 119 144h-155l14 67q52 2 70 15t26 54l90 428q4 18 4 31q0 22 -14 30t-54 10l13 67h350l-13 -67
q-52 -2 -70 -15t-26 -54z" />
    <glyph glyph-name="iogonek" unicode="&#x12f;" horiz-adv-x="370" 
d="M261 594q-44 0 -70 25.5t-26 62.5q0 42 28 70.5t76 28.5q43 0 69.5 -25.5t26.5 -61.5q0 -42 -28.5 -71t-75.5 -29zM37 84q0 31 13 86l66 269l-50 47l9 34l218 39h35l-102 -404q-8 -30 -8 -41q0 -15 14 -15q25 0 78 68l32 -27q-47 -59 -94.5 -102.5t-73 -60.5t-42 -35.5
t-16.5 -40.5q0 -39 39 -39q30 0 72 25l16 -28q-78 -75 -155 -75q-37 0 -61.5 19.5t-24.5 53.5q0 81 106 141q-71 19 -71 86z" />
    <glyph glyph-name="Idotaccent" unicode="&#x130;" horiz-adv-x="413" 
d="M375 566l-90 -428q-4 -18 -4 -31q0 -22 14 -30t54 -10l-13 -67h-351l14 67q52 2 70 15t26 54l90 428q4 18 4 31q0 22 -14 30t-54 10l13 67h350l-13 -67q-52 -2 -70 -15t-26 -54zM333 744q-44 0 -70 25.5t-26 62.5q0 42 28 70.5t76 28.5q43 0 69.5 -25.5t26.5 -61.5
q0 -42 -28.5 -71t-75.5 -29z" />
    <glyph glyph-name="dotlessi" unicode="&#x131;" horiz-adv-x="370" 
d="M328 559l-103 -409q-8 -30 -8 -41q0 -15 14 -15q23 0 80 73l31 -27q-53 -76 -100 -113t-101 -37q-47 0 -75.5 26.5t-28.5 67.5q0 31 13 86l66 269l-50 47l9 34l218 39h35z" />
    <glyph glyph-name="IJ" unicode="&#x132;" horiz-adv-x="1026" 
d="M375 566l-90 -428q-4 -18 -4 -31q0 -22 14 -30t54 -10l-13 -67h-351l14 67q52 2 70 15t26 54l90 428q4 18 4 31q0 22 -14 30t-54 10l13 67h350l-13 -67q-52 -2 -70 -15t-26 -54zM732 192l78 372q4 18 4 31q0 22 -14 30t-54 10l13 67h351l-14 -67q-52 -2 -70 -15t-26 -54
l-73 -342q-26 -121 -99.5 -177.5t-197.5 -56.5q-106 0 -162 40t-56 104q0 36 19 63.5t48 41.5h132q-24 -61 -24 -107q0 -30 13 -52t41 -22q35 0 55.5 33.5t35.5 100.5z" />
    <glyph glyph-name="ij" unicode="&#x133;" horiz-adv-x="710" 
d="M328 559l-103 -409q-8 -30 -8 -41q0 -15 14 -15q23 0 80 73l31 -27q-53 -76 -100 -113t-101 -37q-47 0 -75.5 26.5t-28.5 67.5q0 31 13 86l66 269l-50 47l9 34l218 39h35zM261 594q-44 0 -70 25.5t-26 62.5q0 42 28 70.5t76 28.5q43 0 69.5 -25.5t26.5 -61.5
q0 -42 -28.5 -71t-75.5 -29zM639 594q-43 0 -69.5 25.5t-26.5 62.5q0 41 28.5 70t75.5 29q44 0 70 -25t26 -62q0 -42 -28 -71t-76 -29zM394 -4l101 443l-51 47l10 34l218 39h35l-115 -456q-79 -310 -284 -310q-57 0 -92 22t-35 59q0 34 22.5 54.5t56.5 24.5h28
q2 -114 40 -114q21 0 32.5 30.5t33.5 126.5z" />
    <glyph glyph-name="Jcircumflex" unicode="&#x134;" horiz-adv-x="613" 
d="M319 192l78 372q4 18 4 31q0 22 -14 30t-54 10l13 67h351l-14 -67q-52 -2 -70 -15t-26 -54l-73 -342q-26 -121 -99.5 -177.5t-197.5 -56.5q-106 0 -162 40t-56 104q0 36 19 63.5t48 41.5h132q-24 -61 -24 -107q0 -30 13 -52t41 -22q35 0 55.5 33.5t35.5 100.5zM637 918
l92 -169h-89l-88 80l-134 -80h-101l184 169h136z" />
    <glyph glyph-name="jcircumflex" unicode="&#x135;" horiz-adv-x="340" 
d="M24 -4l101 443l-51 47l10 34l218 39h35l-115 -456q-79 -310 -284 -310q-57 0 -92 22t-35 59q0 34 22.5 54.5t56.5 24.5h28q2 -114 40 -114q21 0 32.5 30.5t33.5 126.5zM348 766l92 -169h-89l-88 80l-134 -80h-101l184 169h136z" />
    <glyph glyph-name="Kcommaaccent" unicode="&#x136;" horiz-adv-x="783" 
d="M520 415l125 -276q20 -43 38 -57.5t54 -15.5l-13 -66h-209q-35 25 -74 120l-97 237l244 202q2 2 6 5.5t6 5t5.5 4.5t5 4.5l4 4t3.5 4.5t3 4t2.5 4t1 4.5t0.5 4.5q0 30 -54 31l14 67h263l-13 -67q-36 -1 -56 -9t-52 -36zM375 566l-90 -428q-4 -18 -4 -31q0 -22 14 -30
t54 -10l-13 -67h-351l14 67q52 2 70 15t26 54l90 428q4 18 4 31q0 22 -14 30t-54 10l13 67h350l-13 -67q-52 -2 -70 -15t-26 -54zM377 -158h-61q-41 11 -41 50q0 33 25 54.5t69 21.5q41 0 63.5 -22t22.5 -59q0 -61 -46 -99t-144 -38v45q49 0 78 13t34 34z" />
    <glyph glyph-name="kcommaaccent" unicode="&#x137;" horiz-adv-x="649" 
d="M419 373l70 -186q12 -35 22 -50.5t25 -15.5t28 9t36 38l28 -27q-51 -82 -92 -116.5t-90 -34.5q-40 0 -65.5 25t-44.5 77l-65 179l153 186q48 58 78 80t62 22q38 0 58.5 -23t20.5 -55q0 -69 -74 -93h-22q0 58 -37 58q-35 0 -80 -59zM374 761l-185 -761h-182l155 641
l-61 44l10 34l228 42h35zM246 -158h-61q-41 11 -41 50q0 33 25 54.5t69 21.5q41 0 63.5 -22t22.5 -59q0 -61 -46 -99t-144 -38v45q49 0 78 13t34 34z" />
    <glyph glyph-name="kgreenlandic" unicode="&#x138;" horiz-adv-x="659" 
d="M429 373l70 -186q12 -35 22 -50.5t25 -15.5t28 9t36 38l28 -27q-51 -82 -92 -116.5t-90 -34.5q-40 0 -65.5 25t-44.5 77l-65 179l153 186q48 58 78 80t62 22q38 0 58.5 -23t20.5 -55q0 -69 -74 -93h-22q0 58 -37 58q-35 0 -80 -59zM335 562l-140 -562h-182l109 439
l-51 47l10 34l219 42h35z" />
    <glyph glyph-name="Lacute" unicode="&#x139;" horiz-adv-x="664" 
d="M375 566l-88 -418q-5 -23 -5 -36q0 -23 15 -32t49 -9h27q46 0 80 29.5t117 137.5h84l-88 -238h-581l14 67q52 2 70 15t26 54l90 428q4 18 4 31q0 22 -14 30t-54 10l13 67h350l-13 -67q-52 -2 -70 -15t-26 -54zM372 909h197l-194 -158h-99z" />
    <glyph glyph-name="lacute" unicode="&#x13a;" horiz-adv-x="358" 
d="M157 641l-61 44l10 34l228 42h35l-154 -611q-7 -27 -7 -41q0 -15 14 -15q22 0 79 73l31 -27q-53 -76 -100 -113t-101 -37q-47 0 -75.5 26.5t-28.5 67.5q0 31 13 86zM336 951h197l-194 -158h-99z" />
    <glyph glyph-name="Lcommaaccent" unicode="&#x13b;" horiz-adv-x="664" 
d="M375 566l-88 -418q-5 -23 -5 -36q0 -23 15 -32t49 -9h27q46 0 80 29.5t117 137.5h84l-88 -238h-581l14 67q52 2 70 15t26 54l90 428q4 18 4 31q0 22 -14 30t-54 10l13 67h350l-13 -67q-52 -2 -70 -15t-26 -54zM293 -158h-61q-41 11 -41 50q0 33 25 54.5t69 21.5
q41 0 63.5 -22t22.5 -59q0 -61 -46 -99t-144 -38v45q49 0 78 13t34 34z" />
    <glyph glyph-name="lcommaaccent" unicode="&#x13c;" horiz-adv-x="358" 
d="M157 641l-61 44l10 34l228 42h35l-154 -611q-7 -27 -7 -41q0 -15 14 -15q22 0 79 73l31 -27q-53 -76 -100 -113t-101 -37q-47 0 -75.5 26.5t-28.5 67.5q0 31 13 86zM103 -158h-61q-41 11 -41 50q0 33 25 54.5t69 21.5q41 0 63.5 -22t22.5 -59q0 -61 -46 -99t-144 -38v45
q49 0 78 13t34 34z" />
    <glyph glyph-name="Lcaron" unicode="&#x13d;" horiz-adv-x="664" 
d="M375 566l-88 -418q-5 -23 -5 -36q0 -23 15 -32t49 -9h27q46 0 80 29.5t117 137.5h84l-88 -238h-581l14 67q52 2 70 15t26 54l90 428q4 18 4 31q0 22 -14 30t-54 10l13 67h350l-13 -67q-52 -2 -70 -15t-26 -54zM721 706l-133 -205h-76l51 205h158z" />
    <glyph glyph-name="lcaron" unicode="&#x13e;" horiz-adv-x="367" 
d="M157 641l-61 44l10 34l228 42h35l-154 -611q-7 -27 -7 -41q0 -15 14 -15q22 0 79 73l31 -27q-53 -76 -100 -113t-101 -37q-47 0 -75.5 26.5t-28.5 67.5q0 31 13 86zM595 766l-133 -205h-76l51 205h158z" />
    <glyph glyph-name="Ldot" unicode="&#x13f;" horiz-adv-x="664" 
d="M375 566l-88 -418q-5 -23 -5 -36q0 -23 15 -32t49 -9h27q46 0 80 29.5t117 137.5h84l-88 -238h-581l14 67q52 2 70 15t26 54l90 428q4 18 4 31q0 22 -14 30t-54 10l13 67h350l-13 -67q-52 -2 -70 -15t-26 -54zM570 311q-44 0 -70 25.5t-26 62.5q0 42 28 70.5t76 28.5
q43 0 69.5 -25.5t26.5 -61.5q0 -42 -28.5 -71t-75.5 -29z" />
    <glyph glyph-name="ldot" unicode="&#x140;" horiz-adv-x="527" 
d="M157 641l-61 44l10 34l228 42h35l-154 -611q-7 -27 -7 -41q0 -15 14 -15q22 0 79 73l31 -27q-53 -76 -100 -113t-101 -37q-47 0 -75.5 26.5t-28.5 67.5q0 31 13 86zM437 287q-44 0 -70 25.5t-26 62.5q0 42 28 70.5t76 28.5q43 0 69.5 -25.5t26.5 -61.5q0 -42 -28.5 -71
t-75.5 -29z" />
    <glyph glyph-name="Lslash" unicode="&#x141;" horiz-adv-x="684" 
d="M395 566l-29 -136l133 47l-16 -75l-133 -47l-43 -207q-5 -23 -5 -36q0 -23 15 -32t49 -9h27q46 0 80 29.5t117 137.5h84l-88 -238h-581l14 67q52 2 70 15t26 54l33 158l-88 -31l16 75l88 31l41 195q4 18 4 31q0 22 -14 30t-54 10l13 67h350l-13 -67q-52 -2 -70 -15
t-26 -54z" />
    <glyph glyph-name="lslash" unicode="&#x142;" horiz-adv-x="385" 
d="M170 641l-61 44l10 34l228 42h35l-64 -254l105 49l-18 -69l-105 -49l-72 -288q-7 -27 -7 -41q0 -15 14 -15q22 0 79 73l31 -27q-53 -76 -100 -113t-101 -37q-47 0 -75.5 26.5t-28.5 67.5q0 31 13 86l49 196l-87 -40l18 69l86 40z" />
    <glyph glyph-name="Nacute" unicode="&#x143;" horiz-adv-x="785" 
d="M605 293l56 271q4 18 4 31q0 22 -14 30t-54 10l13 67h249l-13 -67q-52 -2 -70 -15t-27 -54l-118 -566h-79l-292 507l-77 -369q-4 -18 -4 -31q0 -22 14 -30t54 -10l-14 -67h-248l14 67q52 2 70 15t26 54l95 449q-16 29 -29.5 38t-40.5 12l14 67h252zM545 909h197
l-194 -158h-99z" />
    <glyph glyph-name="nacute" unicode="&#x144;" horiz-adv-x="689" 
d="M335 562l-27 -105l-56 -158h7q151 260 287 260q41 0 63.5 -24t22.5 -64q0 -18 -6 -44l-75 -277q-9 -34 -9 -41q0 -15 14 -15q13 0 31 17t49 56l31 -27q-53 -76 -100.5 -113t-100.5 -37q-47 0 -76.5 26.5t-29.5 67.5q0 38 14 86l64 220q5 22 5 33q0 18 -17 18
q-32 0 -99.5 -96t-97.5 -210l-35 -135h-181l109 439l-51 47l10 34l218 42h36zM461 766h197l-195 -160h-98z" />
    <glyph glyph-name="Ncommaaccent" unicode="&#x145;" horiz-adv-x="785" 
d="M605 293l56 271q4 18 4 31q0 22 -14 30t-54 10l13 67h249l-13 -67q-52 -2 -70 -15t-27 -54l-118 -566h-79l-292 507l-77 -369q-4 -18 -4 -31q0 -22 14 -30t54 -10l-14 -67h-248l14 67q52 2 70 15t26 54l95 449q-16 29 -29.5 38t-40.5 12l14 67h252zM354 -158h-61
q-41 11 -41 50q0 33 25 54.5t69 21.5q41 0 63.5 -22t22.5 -59q0 -61 -46 -99t-144 -38v45q49 0 78 13t34 34z" />
    <glyph glyph-name="ncommaaccent" unicode="&#x146;" horiz-adv-x="689" 
d="M335 562l-27 -105l-56 -158h7q151 260 287 260q41 0 63.5 -24t22.5 -64q0 -18 -6 -44l-75 -277q-9 -34 -9 -41q0 -15 14 -15q13 0 31 17t49 56l31 -27q-53 -76 -100.5 -113t-100.5 -37q-47 0 -76.5 26.5t-29.5 67.5q0 38 14 86l64 220q5 22 5 33q0 18 -17 18
q-32 0 -99.5 -96t-97.5 -210l-35 -135h-181l109 439l-51 47l10 34l218 42h36zM280 -158h-61q-41 11 -41 50q0 33 25 54.5t69 21.5q41 0 63.5 -22t22.5 -59q0 -61 -46 -99t-144 -38v45q49 0 78 13t34 34z" />
    <glyph glyph-name="Ncaron" unicode="&#x147;" horiz-adv-x="785" 
d="M605 293l56 271q4 18 4 31q0 22 -14 30t-54 10l13 67h249l-13 -67q-52 -2 -70 -15t-27 -54l-118 -566h-79l-292 507l-77 -369q-4 -18 -4 -31q0 -22 14 -30t54 -10l-14 -67h-248l14 67q52 2 70 15t26 54l95 449q-16 29 -29.5 38t-40.5 12l14 67h252zM438 752l-92 169h89
l88 -80l134 80h101l-184 -169h-136z" />
    <glyph glyph-name="ncaron" unicode="&#x148;" horiz-adv-x="689" 
d="M335 562l-27 -105l-56 -158h7q151 260 287 260q41 0 63.5 -24t22.5 -64q0 -18 -6 -44l-75 -277q-9 -34 -9 -41q0 -15 14 -15q13 0 31 17t49 56l31 -27q-53 -76 -100.5 -113t-100.5 -37q-47 0 -76.5 26.5t-29.5 67.5q0 38 14 86l64 220q5 22 5 33q0 18 -17 18
q-32 0 -99.5 -96t-97.5 -210l-35 -135h-181l109 439l-51 47l10 34l218 42h36zM355 606l-92 169h89l88 -80l134 80h101l-184 -169h-136z" />
    <glyph glyph-name="Eng" unicode="&#x14a;" horiz-adv-x="785" 
d="M749 566l-96 -463q-32 -153 -101 -231.5t-172 -78.5q-57 0 -92 22t-35 59q0 34 22.5 54.5t56.5 24.5h28q2 -114 40 -114q24 0 43 34t41 130l17 74l-241 430l-77 -369q-4 -18 -4 -31q0 -22 14 -30t54 -10l-14 -67h-248l14 67q52 2 70 15t26 54l95 449q-16 29 -29.5 38
t-40.5 12l14 67h252l219 -409l56 271q4 18 4 31q0 22 -14 30t-54 10l13 67h249l-13 -67q-52 -2 -70.5 -15.5t-26.5 -53.5z" />
    <glyph glyph-name="eng" unicode="&#x14b;" horiz-adv-x="662" 
d="M343 -4l95 394q5 22 5 33q0 18 -17 18q-32 0 -99.5 -96t-97.5 -210l-35 -135h-181l109 439l-51 47l10 34l218 42h36l-27 -105l-56 -158h7q151 260 287 260q41 0 63.5 -24t22.5 -64q0 -18 -6 -44l-85 -324q-82 -310 -284 -310q-57 0 -92 22t-35 59q0 34 22.5 54.5
t56.5 24.5h28q2 -114 38 -114q21 0 33 31t35 126z" />
    <glyph glyph-name="Omacron" unicode="&#x14c;" horiz-adv-x="764" 
d="M354 61q61 0 108.5 67.5t70 156.5t22.5 174q0 90 -21 136t-74 46q-61 0 -108.5 -67.5t-70 -156.5t-22.5 -174q0 -90 21 -136t74 -46zM350 -10q-135 0 -214 76.5t-79 208.5q0 110 49.5 209.5t144.5 163.5t213 64q135 0 214 -76.5t79 -208.5q0 -110 -49.5 -209.5
t-144.5 -163.5t-213 -64zM330 758l24 106h318l-24 -106h-318z" />
    <glyph glyph-name="omacron" unicode="&#x14d;" horiz-adv-x="608" 
d="M255 53q33 0 62 35t47 87t28.5 107.5t10.5 101.5q0 112 -50 112q-33 0 -62 -35t-47 -87t-28.5 -107.5t-10.5 -101.5q0 -112 50 -112zM250 -10q-98 0 -160 62t-62 168q0 143 92 241t238 98q98 0 160 -62t62 -168q0 -143 -92 -241t-238 -98zM223 626l23 101h308l-23 -101
h-308z" />
    <glyph glyph-name="Obreve" unicode="&#x14e;" horiz-adv-x="764" 
d="M354 61q61 0 108.5 67.5t70 156.5t22.5 174q0 90 -21 136t-74 46q-61 0 -108.5 -67.5t-70 -156.5t-22.5 -174q0 -90 21 -136t74 -46zM350 -10q-135 0 -214 76.5t-79 208.5q0 110 49.5 209.5t144.5 163.5t213 64q135 0 214 -76.5t79 -208.5q0 -110 -49.5 -209.5
t-144.5 -163.5t-213 -64zM489 746q-60 0 -93.5 30.5t-33.5 81.5q0 29 11 58h66q-1 -5 -1 -14q0 -64 71 -64q74 0 105 78h74q-20 -80 -72 -125t-127 -45z" />
    <glyph glyph-name="obreve" unicode="&#x14f;" horiz-adv-x="608" 
d="M255 53q33 0 62 35t47 87t28.5 107.5t10.5 101.5q0 112 -50 112q-33 0 -62 -35t-47 -87t-28.5 -107.5t-10.5 -101.5q0 -112 50 -112zM250 -10q-98 0 -160 62t-62 168q0 143 92 241t238 98q98 0 160 -62t62 -168q0 -143 -92 -241t-238 -98zM371 603q-60 0 -93.5 30.5
t-33.5 81.5q0 29 11 58h66q-1 -5 -1 -14q0 -64 71 -64q74 0 105 78h74q-20 -80 -72 -125t-127 -45z" />
    <glyph glyph-name="Ohungarumlaut" unicode="&#x150;" horiz-adv-x="764" 
d="M354 61q61 0 108.5 67.5t70 156.5t22.5 174q0 90 -21 136t-74 46q-61 0 -108.5 -67.5t-70 -156.5t-22.5 -174q0 -90 21 -136t74 -46zM350 -10q-135 0 -214 76.5t-79 208.5q0 110 49.5 209.5t144.5 163.5t213 64q135 0 214 -76.5t79 -208.5q0 -110 -49.5 -209.5
t-144.5 -163.5t-213 -64zM417 909h171l-178 -158h-88zM627 909h177l-184 -158h-88z" />
    <glyph glyph-name="ohungarumlaut" unicode="&#x151;" horiz-adv-x="608" 
d="M255 53q33 0 62 35t47 87t28.5 107.5t10.5 101.5q0 112 -50 112q-33 0 -62 -35t-47 -87t-28.5 -107.5t-10.5 -101.5q0 -112 50 -112zM250 -10q-98 0 -160 62t-62 168q0 143 92 241t238 98q98 0 160 -62t62 -168q0 -143 -92 -241t-238 -98zM306 766h171l-179 -160h-88z
M516 766h177l-185 -160h-88z" />
    <glyph glyph-name="OE" unicode="&#x152;" horiz-adv-x="1047" 
d="M516 702h570l-41 -191h-71q-12 68 -33 95t-77 27h-103l-49 -236h74q33 0 52.5 17t36.5 62h64l-48 -229h-64q0 45 -11.5 62t-44.5 17h-74l-37 -177q-5 -23 -5 -35q0 -26 16.5 -35.5t52.5 -9.5h23q52 0 91.5 29.5t99.5 107.5h79l-74 -206h-544q-160 0 -251 76t-91 212
q0 184 127 299t332 115zM572 633h-61q-54 0 -98.5 -24.5t-72.5 -63t-47.5 -88t-27.5 -96.5t-8 -92q0 -198 157 -198h40z" />
    <glyph glyph-name="oe" unicode="&#x153;" horiz-adv-x="899" 
d="M358 559q108 0 168 -91q98 91 218 91q70 0 110 -35.5t40 -87.5q0 -78 -82.5 -126t-243.5 -77v-14q0 -59 26.5 -94t71.5 -35q44 0 79 20t76 66l28 -27q-45 -78 -115 -118.5t-142 -40.5q-92 0 -143 76q-87 -76 -199 -76q-98 0 -160 62t-62 168q0 143 92 241t238 98zM255 53
q33 0 62 35t47 87t28.5 107.5t10.5 101.5q0 112 -50 112q-33 0 -62 -35t-47 -87t-28.5 -107.5t-10.5 -101.5q0 -112 50 -112zM719 498q-50 0 -92 -69.5t-55 -156.5q94 28 137 70t43 104q0 52 -33 52z" />
    <glyph glyph-name="Racute" unicode="&#x154;" horiz-adv-x="762" 
d="M422 631h-38l-59 -274h33q188 0 188 160q0 114 -124 114zM312 290l-32 -152q-4 -18 -4 -31q0 -22 14 -30t54 -10l-13 -67h-346l14 67q52 2 70 15t26 54l90 428q4 18 4 31q0 22 -14 30t-54 10l13 67h354q248 0 248 -183q0 -77 -57 -130.5t-138 -68.5l79 -179
q19 -45 37 -59.5t59 -14.5l-14 -67h-217q-34 33 -60 110l-61 180h-52zM483 909h197l-194 -158h-99z" />
    <glyph glyph-name="racute" unicode="&#x155;" horiz-adv-x="523" 
d="M232 236h7q109 210 138 252q42 62 85 70q9 1 18 1q36 0 54.5 -22.5t18.5 -58.5q0 -42 -28 -77t-61 -51h-22q0 36 -28 36q-55 0 -113 -101.5t-104 -284.5h-182l109 439l-50 47l10 34l216 42h35l-39 -148zM392 766h197l-195 -160h-98z" />
    <glyph glyph-name="Rcommaaccent" unicode="&#x156;" horiz-adv-x="762" 
d="M422 631h-38l-59 -274h33q188 0 188 160q0 114 -124 114zM312 290l-32 -152q-4 -18 -4 -31q0 -22 14 -30t54 -10l-13 -67h-346l14 67q52 2 70 15t26 54l90 428q4 18 4 31q0 22 -14 30t-54 10l13 67h354q248 0 248 -183q0 -77 -57 -130.5t-138 -68.5l79 -179
q19 -45 37 -59.5t59 -14.5l-14 -67h-217q-34 33 -60 110l-61 180h-52zM357 -158h-61q-41 11 -41 50q0 33 25 54.5t69 21.5q41 0 63.5 -22t22.5 -59q0 -61 -46 -99t-144 -38v45q49 0 78 13t34 34z" />
    <glyph glyph-name="rcommaaccent" unicode="&#x157;" horiz-adv-x="523" 
d="M232 236h7q109 210 138 252q42 62 85 70q9 1 18 1q36 0 54.5 -22.5t18.5 -58.5q0 -42 -28 -77t-61 -51h-22q0 36 -28 36q-55 0 -113 -101.5t-104 -284.5h-182l109 439l-50 47l10 34l216 42h35l-39 -148zM101 -158h-61q-41 11 -41 50q0 33 25 54.5t69 21.5q41 0 63.5 -22
t22.5 -59q0 -61 -46 -99t-144 -38v45q49 0 78 13t34 34z" />
    <glyph glyph-name="Rcaron" unicode="&#x158;" horiz-adv-x="762" 
d="M422 631h-38l-59 -274h33q188 0 188 160q0 114 -124 114zM312 290l-32 -152q-4 -18 -4 -31q0 -22 14 -30t54 -10l-13 -67h-346l14 67q52 2 70 15t26 54l90 428q4 18 4 31q0 22 -14 30t-54 10l13 67h354q248 0 248 -183q0 -77 -57 -130.5t-138 -68.5l79 -179
q19 -45 37 -59.5t59 -14.5l-14 -67h-217q-34 33 -60 110l-61 180h-52zM376 752l-92 169h89l88 -80l134 80h101l-184 -169h-136z" />
    <glyph glyph-name="rcaron" unicode="&#x159;" horiz-adv-x="523" 
d="M232 236h7q109 210 138 252q42 62 85 70q9 1 18 1q36 0 54.5 -22.5t18.5 -58.5q0 -42 -28 -77t-61 -51h-22q0 36 -28 36q-55 0 -113 -101.5t-104 -284.5h-182l109 439l-50 47l10 34l216 42h35l-39 -148zM285 606l-92 169h89l88 -80l134 80h101l-184 -169h-136z" />
    <glyph glyph-name="Sacute" unicode="&#x15a;" horiz-adv-x="589" 
d="M265 -10q-82 0 -148.5 28t-96.5 67l27 156h91q3 -87 39.5 -137t101.5 -50q48 0 76.5 25t28.5 71q0 39 -24.5 64t-90.5 56q-89 42 -130 94t-41 123q0 104 75.5 164.5t195.5 60.5q140 0 223 -75l-30 -147h-79q-9 75 -36 116t-92 41q-45 0 -71 -25t-26 -64q0 -37 24.5 -60.5
t87.5 -54.5q97 -48 140.5 -94.5t43.5 -123.5t-42 -131.5t-106 -79t-141 -24.5zM443 909h197l-194 -158h-99z" />
    <glyph glyph-name="sacute" unicode="&#x15b;" horiz-adv-x="482" 
d="M214 45q27 0 42 14t15 38q0 23 -31.5 52.5t-69.5 56t-69.5 68t-31.5 84.5q0 90 63.5 145.5t165.5 55.5q65 0 109.5 -29t44.5 -77q0 -21 -15.5 -37t-40.5 -23h-34q-7 48 -33 79t-62 31q-60 0 -60 -47q0 -21 33.5 -52t73 -59.5t73 -71t33.5 -85.5q0 -89 -65.5 -143.5
t-164.5 -54.5q-83 0 -138.5 33.5t-55.5 82.5q0 29 17.5 49t45.5 29h30q22 -139 125 -139zM354 766h197l-195 -160h-98z" />
    <glyph glyph-name="Scircumflex" unicode="&#x15c;" horiz-adv-x="589" 
d="M265 -10q-82 0 -148.5 28t-96.5 67l27 156h91q3 -87 39.5 -137t101.5 -50q48 0 76.5 25t28.5 71q0 39 -24.5 64t-90.5 56q-89 42 -130 94t-41 123q0 104 75.5 164.5t195.5 60.5q140 0 223 -75l-30 -147h-79q-9 75 -36 116t-92 41q-45 0 -71 -25t-26 -64q0 -37 24.5 -60.5
t87.5 -54.5q97 -48 140.5 -94.5t43.5 -123.5t-42 -131.5t-106 -79t-141 -24.5zM508 918l92 -169h-89l-88 80l-134 -80h-101l184 169h136z" />
    <glyph glyph-name="scircumflex" unicode="&#x15d;" horiz-adv-x="482" 
d="M214 45q27 0 42 14t15 38q0 23 -31.5 52.5t-69.5 56t-69.5 68t-31.5 84.5q0 90 63.5 145.5t165.5 55.5q65 0 109.5 -29t44.5 -77q0 -21 -15.5 -37t-40.5 -23h-34q-7 48 -33 79t-62 31q-60 0 -60 -47q0 -21 33.5 -52t73 -59.5t73 -71t33.5 -85.5q0 -89 -65.5 -143.5
t-164.5 -54.5q-83 0 -138.5 33.5t-55.5 82.5q0 29 17.5 49t45.5 29h30q22 -139 125 -139zM421 766l92 -169h-89l-88 80l-134 -80h-101l184 169h136z" />
    <glyph glyph-name="Scedilla" unicode="&#x15e;" horiz-adv-x="589" 
d="M126 -233l-11 49q122 0 122 39q0 33 -76 36l50 103q-64 8 -115 33.5t-76 57.5l27 156h91q3 -87 39.5 -137t101.5 -50q48 0 76.5 25t28.5 71q0 39 -24.5 64t-90.5 56q-89 42 -130 94t-41 123q0 104 75.5 164.5t195.5 60.5q140 0 223 -75l-30 -147h-79q-9 75 -36 116
t-92 41q-45 0 -71 -25t-26 -64q0 -37 24.5 -60.5t87.5 -54.5q97 -48 140.5 -94.5t43.5 -123.5t-42 -131.5t-106 -79t-141 -24.5h-6l-17 -34q86 -9 86 -78q0 -52 -60 -81.5t-142 -29.5z" />
    <glyph glyph-name="scedilla" unicode="&#x15f;" horiz-adv-x="482" 
d="M43 -233l-11 49q122 0 122 39q0 33 -76 36l51 105q-60 11 -96.5 40.5t-36.5 69.5q0 29 17.5 49t45.5 29h30q22 -139 125 -139q27 0 42 14t15 38q0 23 -31.5 52.5t-69.5 56t-69.5 68t-31.5 84.5q0 90 63.5 145.5t165.5 55.5q65 0 109.5 -29t44.5 -77q0 -21 -15.5 -37
t-40.5 -23h-34q-7 48 -33 79t-62 31q-60 0 -60 -47q0 -21 33.5 -52t73 -59.5t73 -71t33.5 -85.5q0 -89 -65.5 -143.5t-164.5 -54.5q-3 0 -7 0.5t-6 0.5l-18 -35q86 -9 86 -78q0 -52 -60 -81.5t-142 -29.5z" />
    <glyph glyph-name="Scaron" unicode="&#x160;" horiz-adv-x="589" 
d="M265 -10q-82 0 -148.5 28t-96.5 67l27 156h91q3 -87 39.5 -137t101.5 -50q48 0 76.5 25t28.5 71q0 39 -24.5 64t-90.5 56q-89 42 -130 94t-41 123q0 104 75.5 164.5t195.5 60.5q140 0 223 -75l-30 -147h-79q-9 75 -36 116t-92 41q-45 0 -71 -25t-26 -64q0 -37 24.5 -60.5
t87.5 -54.5q97 -48 140.5 -94.5t43.5 -123.5t-42 -131.5t-106 -79t-141 -24.5zM336 752l-92 169h89l88 -80l134 80h101l-184 -169h-136z" />
    <glyph glyph-name="scaron" unicode="&#x161;" horiz-adv-x="482" 
d="M214 45q27 0 42 14t15 38q0 23 -31.5 52.5t-69.5 56t-69.5 68t-31.5 84.5q0 90 63.5 145.5t165.5 55.5q65 0 109.5 -29t44.5 -77q0 -21 -15.5 -37t-40.5 -23h-34q-7 48 -33 79t-62 31q-60 0 -60 -47q0 -21 33.5 -52t73 -59.5t73 -71t33.5 -85.5q0 -89 -65.5 -143.5
t-164.5 -54.5q-83 0 -138.5 33.5t-55.5 82.5q0 29 17.5 49t45.5 29h30q22 -139 125 -139zM247 606l-92 169h89l88 -80l134 80h101l-184 -169h-136z" />
    <glyph glyph-name="Tcedilla" unicode="&#x162;" horiz-adv-x="737" 
d="M146 702h651l-35 -235h-72q-15 91 -39 130t-81 39h-18l-103 -486q-6 -29 -6 -40q0 -23 17.5 -32t59.5 -11l-13 -67h-365l14 67q51 2 72 15.5t29 53.5l106 500h-19q-55 0 -89.5 -34.5t-98.5 -134.5h-75zM309 -158h-61q-41 11 -41 50q0 33 25 54.5t69 21.5q41 0 63.5 -22
t22.5 -59q0 -61 -46 -99t-144 -38v45q49 0 78 13t34 34z" />
    <glyph glyph-name="tcedilla" unicode="&#x163;" horiz-adv-x="433" 
d="M308 482l-76 -308q-8 -32 -8 -51q0 -29 23 -29q21 0 48 21.5t76 73.5l31 -27q-63 -87 -121.5 -129.5t-126.5 -42.5q-54 0 -83.5 32.5t-29.5 78.5q0 33 10 76l75 305h-73l13 49q58 10 121 50t109 94h60l-31 -125h117l-17 -68h-117zM157 -158h-61q-41 11 -41 50
q0 33 25 54.5t69 21.5q41 0 63.5 -22t22.5 -59q0 -61 -46 -99t-144 -38v45q49 0 78 13t34 34z" />
    <glyph glyph-name="Tcaron" unicode="&#x164;" horiz-adv-x="737" 
d="M146 702h651l-35 -235h-72q-15 91 -39 130t-81 39h-18l-103 -486q-6 -29 -6 -40q0 -23 17.5 -32t59.5 -11l-13 -67h-365l14 67q51 2 72 15.5t29 53.5l106 500h-19q-55 0 -89.5 -34.5t-98.5 -134.5h-75zM413 752l-92 169h89l88 -80l134 80h101l-184 -169h-136z" />
    <glyph glyph-name="tcaron" unicode="&#x165;" horiz-adv-x="433" 
d="M308 482l-76 -308q-8 -32 -8 -51q0 -29 23 -29q21 0 48 21.5t76 73.5l31 -27q-63 -87 -121.5 -129.5t-126.5 -42.5q-54 0 -83.5 32.5t-29.5 78.5q0 33 10 76l75 305h-73l13 49q58 10 121 50t109 94h60l-31 -125h117l-17 -68h-117zM599 824l-133 -205h-76l51 205h158z" />
    <glyph glyph-name="Tbar" unicode="&#x166;" horiz-adv-x="737" 
d="M146 702h651l-35 -235h-72q-15 91 -39 130t-81 39h-18l-50 -235h105l-16 -71h-104l-38 -180q-6 -29 -6 -40q0 -23 17.5 -32t59.5 -11l-13 -67h-365l14 67q51 2 72 15.5t29 53.5l41 194h-101l16 71h100l50 235h-19q-55 0 -89.5 -34.5t-98.5 -134.5h-75z" />
    <glyph glyph-name="tbar" unicode="&#x167;" horiz-adv-x="461" 
d="M322 482l-25 -102h127l-15 -66h-129l-34 -140q-8 -32 -8 -51q0 -29 23 -29q21 0 48 21.5t76 73.5l31 -27q-63 -87 -121.5 -129.5t-126.5 -42.5q-54 0 -83.5 32.5t-29.5 78.5q0 33 10 76l33 137h-60l16 66h61l25 102h-73l13 49q58 10 121 50t109 94h60l-31 -125h117
l-17 -68h-117z" />
    <glyph glyph-name="Utilde" unicode="&#x168;" horiz-adv-x="775" 
d="M598 275l62 289q4 18 4 31q0 22 -14 30t-54 10l13 67h249l-14 -67q-51 -2 -69.5 -15.5t-26.5 -53.5l-66 -320q-26 -127 -109.5 -191.5t-204.5 -64.5q-122 0 -193 56.5t-71 160.5q0 32 10 79l58 278q4 18 4 31q0 22 -14 30t-54 10l13 67h351l-14 -67q-52 -2 -70 -15
t-26 -54l-57 -269q-9 -45 -9 -72q0 -63 30.5 -97.5t86.5 -34.5q73 0 118 40t67 142zM705 900l58 -12q-46 -92 -76 -121t-75 -29q-26 0 -70.5 31.5t-61.5 31.5q-14 0 -26.5 -8.5t-20.5 -18t-21 -28.5l-59 11q47 92 77 121t74 29q30 0 72.5 -31.5t59.5 -31.5q32 0 69 56z" />
    <glyph glyph-name="utilde" unicode="&#x169;" horiz-adv-x="701" 
d="M407 243h-7q-139 -253 -265 -253q-49 0 -73.5 26t-24.5 72q0 25 8 60l70 291l-50 47l10 34l217 39h35l-100 -395q-4 -17 -4 -30q0 -23 17 -23q37 0 104.5 100.5t94.5 207.5l31 120l183 10l-100 -399q-8 -30 -8 -41q0 -15 14 -15q23 0 80 73l31 -27q-53 -76 -99 -113
t-100 -37q-47 0 -72.5 29.5t-25.5 78.5q0 38 34 145zM578 771l58 -11q-46 -92 -76 -121t-75 -29q-26 0 -70.5 31.5t-61.5 31.5q-14 0 -26.5 -8.5t-20.5 -18.5t-21 -29l-59 12q47 92 77 121t74 29q30 0 72.5 -31.5t59.5 -31.5q32 0 69 55z" />
    <glyph glyph-name="Umacron" unicode="&#x16a;" horiz-adv-x="775" 
d="M598 275l62 289q4 18 4 31q0 22 -14 30t-54 10l13 67h249l-14 -67q-51 -2 -69.5 -15.5t-26.5 -53.5l-66 -320q-26 -127 -109.5 -191.5t-204.5 -64.5q-122 0 -193 56.5t-71 160.5q0 32 10 79l58 278q4 18 4 31q0 22 -14 30t-54 10l13 67h351l-14 -67q-52 -2 -70 -15
t-26 -54l-57 -269q-9 -45 -9 -72q0 -63 30.5 -97.5t86.5 -34.5q73 0 118 40t67 142zM385 758l24 106h318l-24 -106h-318z" />
    <glyph glyph-name="umacron" unicode="&#x16b;" horiz-adv-x="701" 
d="M407 243h-7q-139 -253 -265 -253q-49 0 -73.5 26t-24.5 72q0 25 8 60l70 291l-50 47l10 34l217 39h35l-100 -395q-4 -17 -4 -30q0 -23 17 -23q37 0 104.5 100.5t94.5 207.5l31 120l183 10l-100 -399q-8 -30 -8 -41q0 -15 14 -15q23 0 80 73l31 -27q-53 -76 -99 -113
t-100 -37q-47 0 -72.5 29.5t-25.5 78.5q0 38 34 145zM262 626l23 101h308l-23 -101h-308z" />
    <glyph glyph-name="Ubreve" unicode="&#x16c;" horiz-adv-x="775" 
d="M598 275l62 289q4 18 4 31q0 22 -14 30t-54 10l13 67h249l-14 -67q-51 -2 -69.5 -15.5t-26.5 -53.5l-66 -320q-26 -127 -109.5 -191.5t-204.5 -64.5q-122 0 -193 56.5t-71 160.5q0 32 10 79l58 278q4 18 4 31q0 22 -14 30t-54 10l13 67h351l-14 -67q-52 -2 -70 -15
t-26 -54l-57 -269q-9 -45 -9 -72q0 -63 30.5 -97.5t86.5 -34.5q73 0 118 40t67 142zM544 746q-60 0 -93.5 30.5t-33.5 81.5q0 29 11 58h66q-1 -5 -1 -14q0 -64 71 -64q74 0 105 78h74q-20 -80 -72 -125t-127 -45z" />
    <glyph glyph-name="ubreve" unicode="&#x16d;" horiz-adv-x="701" 
d="M407 243h-7q-139 -253 -265 -253q-49 0 -73.5 26t-24.5 72q0 25 8 60l70 291l-50 47l10 34l217 39h35l-100 -395q-4 -17 -4 -30q0 -23 17 -23q37 0 104.5 100.5t94.5 207.5l31 120l183 10l-100 -399q-8 -30 -8 -41q0 -15 14 -15q23 0 80 73l31 -27q-53 -76 -99 -113
t-100 -37q-47 0 -72.5 29.5t-25.5 78.5q0 38 34 145zM410 603q-60 0 -93.5 30.5t-33.5 81.5q0 29 11 58h66q-1 -5 -1 -14q0 -64 71 -64q74 0 105 78h74q-20 -80 -72 -125t-127 -45z" />
    <glyph glyph-name="Uring" unicode="&#x16e;" horiz-adv-x="775" 
d="M598 275l62 289q4 18 4 31q0 22 -14 30t-54 10l13 67h249l-14 -67q-51 -2 -69.5 -15.5t-26.5 -53.5l-66 -320q-26 -127 -109.5 -191.5t-204.5 -64.5q-122 0 -193 56.5t-71 160.5q0 32 10 79l58 278q4 18 4 31q0 22 -14 30t-54 10l13 67h351l-14 -67q-52 -2 -70 -15
t-26 -54l-57 -269q-9 -45 -9 -72q0 -63 30.5 -97.5t86.5 -34.5q73 0 118 40t67 142zM558 796q24 0 37.5 14t13.5 35q0 18 -11 28.5t-31 10.5q-24 0 -37.5 -14t-13.5 -34q0 -18 11 -29t31 -11zM553 739q-46 0 -75 26t-29 67q0 46 36.5 77.5t86.5 31.5q46 0 75 -26t29 -67
q0 -46 -36.5 -77.5t-86.5 -31.5z" />
    <glyph glyph-name="uring" unicode="&#x16f;" horiz-adv-x="701" 
d="M407 243h-7q-139 -253 -265 -253q-49 0 -73.5 26t-24.5 72q0 25 8 60l70 291l-50 47l10 34l217 39h35l-100 -395q-4 -17 -4 -30q0 -23 17 -23q37 0 104.5 100.5t94.5 207.5l31 120l183 10l-100 -399q-8 -30 -8 -41q0 -15 14 -15q23 0 80 73l31 -27q-53 -76 -99 -113
t-100 -37q-47 0 -72.5 29.5t-25.5 78.5q0 38 34 145zM428 654q24 0 37.5 14t13.5 35q0 18 -11 28.5t-31 10.5q-24 0 -37.5 -14t-13.5 -34q0 -18 11 -29t31 -11zM423 597q-46 0 -75 26t-29 67q0 46 36.5 77.5t86.5 31.5q46 0 75 -26t29 -67q0 -46 -36.5 -77.5t-86.5 -31.5z
" />
    <glyph glyph-name="Uhungarumlaut" unicode="&#x170;" horiz-adv-x="775" 
d="M598 275l62 289q4 18 4 31q0 22 -14 30t-54 10l13 67h249l-14 -67q-51 -2 -69.5 -15.5t-26.5 -53.5l-66 -320q-26 -127 -109.5 -191.5t-204.5 -64.5q-122 0 -193 56.5t-71 160.5q0 32 10 79l58 278q4 18 4 31q0 22 -14 30t-54 10l13 67h351l-14 -67q-52 -2 -70 -15
t-26 -54l-57 -269q-9 -45 -9 -72q0 -63 30.5 -97.5t86.5 -34.5q73 0 118 40t67 142zM472 909h171l-178 -158h-88zM682 909h177l-184 -158h-88z" />
    <glyph glyph-name="uhungarumlaut" unicode="&#x171;" horiz-adv-x="701" 
d="M407 243h-7q-139 -253 -265 -253q-49 0 -73.5 26t-24.5 72q0 25 8 60l70 291l-50 47l10 34l217 39h35l-100 -395q-4 -17 -4 -30q0 -23 17 -23q37 0 104.5 100.5t94.5 207.5l31 120l183 10l-100 -399q-8 -30 -8 -41q0 -15 14 -15q23 0 80 73l31 -27q-53 -76 -99 -113
t-100 -37q-47 0 -72.5 29.5t-25.5 78.5q0 38 34 145zM345 766h171l-179 -160h-88zM555 766h177l-185 -160h-88z" />
    <glyph glyph-name="Uogonek" unicode="&#x172;" horiz-adv-x="775" 
d="M598 275l62 289q4 18 4 31q0 22 -14 30t-54 10l13 67h249l-14 -67q-51 -2 -69.5 -15.5t-26.5 -53.5l-66 -320q-41 -194 -211 -243q-83 -52 -83 -102q0 -39 39 -39q30 0 72 25l16 -28q-78 -75 -155 -75q-37 0 -61.5 19.5t-24.5 52.5q0 76 100 134h-6q-122 0 -193 56.5
t-71 160.5q0 32 10 79l58 278q4 18 4 31q0 22 -14 30t-54 10l13 67h351l-14 -67q-52 -2 -70 -15t-26 -54l-57 -269q-9 -45 -9 -72q0 -63 30.5 -97.5t86.5 -34.5q73 0 118 40t67 142z" />
    <glyph glyph-name="uogonek" unicode="&#x173;" horiz-adv-x="701" 
d="M653 549l-99 -394q-8 -30 -8 -41q0 -15 14 -15q25 0 78 68l32 -27q-47 -59 -94.5 -102.5t-73 -60.5t-42 -35.5t-16.5 -40.5q0 -39 39 -39q30 0 72 25l16 -28q-78 -75 -155 -75q-37 0 -61.5 19.5t-24.5 53.5q0 81 106 141q-63 17 -63 100q0 38 34 145h-7
q-139 -253 -265 -253q-49 0 -73.5 26t-24.5 72q0 25 8 60l70 291l-50 47l10 34l217 39h35l-100 -395q-4 -17 -4 -30q0 -23 17 -23q37 0 104.5 100.5t94.5 207.5l31 120z" />
    <glyph glyph-name="Wcircumflex" unicode="&#x174;" horiz-adv-x="1012" 
d="M750 254l149 280q27 52 27 70q0 15 -13 22.5t-48 8.5l14 67h229l-14 -67q-19 -3 -28 -5.5t-20.5 -10.5t-19.5 -21l-344 -602h-73l-56 387l-220 -387h-71l-118 602q-6 29 -48 37l14 67h322l-14 -67q-71 -6 -72 -60q0 -15 3 -34l54 -294l134 235l-14 116q-4 29 -42 37
l14 67h315l-13 -67q-83 -3 -83 -66q0 -14 3 -39zM746 918l92 -169h-89l-88 80l-134 -80h-101l184 169h136z" />
    <glyph glyph-name="wcircumflex" unicode="&#x175;" horiz-adv-x="837" 
d="M386 445l-61 41l10 34l176 39h35l28 -399l74 87q58 66 58 144q0 36 -23.5 57t-62.5 21l1 19q42 71 121 71q45 0 68 -29t23 -72q0 -89 -127 -231l-209 -232h-65l-26 255l-212 -255h-63l-52 450l-61 41l10 34l185 39h35l34 -384l117 145zM601 766l92 -169h-89l-88 80
l-134 -80h-101l184 169h136z" />
    <glyph glyph-name="Ycircumflex" unicode="&#x176;" horiz-adv-x="692" 
d="M419 340l148 196q2 3 10.5 14t11 15t7 11.5t6 13t1.5 11.5q0 16 -13 24.5t-46 9.5l14 67h230l-14 -67q-44 -7 -67 -37l-263 -341l-26 -121q-3 -15 -3 -26q0 -23 17 -32t59 -11l-14 -67h-355l14 67q51 2 71.5 15.5t28.5 53.5l26 122l-118 340q-6 18 -16.5 25.5t-31.5 11.5
l14 67h324l-14 -67q-76 0 -76 -52q0 -21 10 -48zM598 918l92 -169h-89l-88 80l-134 -80h-101l184 169h136z" />
    <glyph glyph-name="ycircumflex" unicode="&#x177;" horiz-adv-x="569" 
d="M363 58q-113 -145 -194 -204.5t-159 -59.5q-50 0 -83.5 23.5t-33.5 67.5q0 27 17 48.5t46 31.5h32q0 -48 18 -73t60 -25q57 0 130 70l-117 508l-61 41l10 34l185 39h35l85 -457l3 3q102 138 102 272q0 45 -23 68.5t-64 23.5l1 19q44 71 121 71q45 0 68.5 -30.5
t23.5 -73.5q0 -84 -52.5 -179.5t-149.5 -217.5zM457 766l92 -169h-89l-88 80l-134 -80h-101l184 169h136z" />
    <glyph glyph-name="Ydieresis" unicode="&#x178;" horiz-adv-x="692" 
d="M419 340l148 196q2 3 10.5 14t11 15t7 11.5t6 13t1.5 11.5q0 16 -13 24.5t-46 9.5l14 67h230l-14 -67q-44 -7 -67 -37l-263 -341l-26 -121q-3 -15 -3 -26q0 -23 17 -32t59 -11l-14 -67h-355l14 67q51 2 71.5 15.5t28.5 53.5l26 122l-118 340q-6 18 -16.5 25.5t-31.5 11.5
l14 67h324l-14 -67q-76 0 -76 -52q0 -21 10 -48zM400 743q-39 0 -63 24.5t-24 58.5q0 38 25.5 65.5t67.5 27.5q39 0 62.5 -24t23.5 -58q0 -39 -25.5 -66.5t-66.5 -27.5zM619 743q-39 0 -62.5 24.5t-23.5 58.5q0 39 25 66t67 27q39 0 62.5 -24t23.5 -58q0 -39 -25 -66.5
t-67 -27.5z" />
    <glyph glyph-name="Zacute" unicode="&#x179;" horiz-adv-x="648" 
d="M230 71h114q60 0 93.5 26.5t114.5 134.5h80l-84 -232h-571l10 47l476 583h-117q-20 0 -37 -5.5t-27 -10t-26 -22t-21.5 -24.5t-25 -36.5t-26.5 -38.5h-69l45 209h555l-11 -48zM468 909h197l-194 -158h-99z" />
    <glyph glyph-name="zacute" unicode="&#x17a;" horiz-adv-x="543" 
d="M361 402h-186q-24 0 -35 -6.5t-25 -27.5l-27 -41l-34 9l89 247h35q3 -21 7.5 -29t14.5 -8h366v-33l-366 -329l84 -25q38 -12 72 -12q43 0 67 13t59 65l34 -11q-46 -121 -93.5 -175t-116.5 -54q-64 0 -141 44l-88 50l-49 -83q-55 0 -55 37q0 29 29 54zM387 766h197
l-195 -160h-98z" />
    <glyph glyph-name="Zdotaccent" unicode="&#x17b;" horiz-adv-x="648" 
d="M230 71h114q60 0 93.5 26.5t114.5 134.5h80l-84 -232h-571l10 47l476 583h-117q-20 0 -37 -5.5t-27 -10t-26 -22t-21.5 -24.5t-25 -36.5t-26.5 -38.5h-69l45 209h555l-11 -48zM444 744q-44 0 -70 25.5t-26 62.5q0 42 28 70.5t76 28.5q43 0 69.5 -25.5t26.5 -61.5
q0 -42 -28.5 -71t-75.5 -29z" />
    <glyph glyph-name="zdotaccent" unicode="&#x17c;" horiz-adv-x="543" 
d="M361 402h-186q-24 0 -35 -6.5t-25 -27.5l-27 -41l-34 9l89 247h35q3 -21 7.5 -29t14.5 -8h366v-33l-366 -329l84 -25q38 -12 72 -12q43 0 67 13t59 65l34 -11q-46 -121 -93.5 -175t-116.5 -54q-64 0 -141 44l-88 50l-49 -83q-55 0 -55 37q0 29 29 54zM361 599
q-44 0 -70 25.5t-26 62.5q0 42 28 70.5t76 28.5q43 0 69.5 -25.5t26.5 -61.5q0 -42 -28.5 -71t-75.5 -29z" />
    <glyph glyph-name="Zcaron" unicode="&#x17d;" horiz-adv-x="648" 
d="M230 71h114q60 0 93.5 26.5t114.5 134.5h80l-84 -232h-571l10 47l476 583h-117q-20 0 -37 -5.5t-27 -10t-26 -22t-21.5 -24.5t-25 -36.5t-26.5 -38.5h-69l45 209h555l-11 -48zM361 752l-92 169h89l88 -80l134 80h101l-184 -169h-136z" />
    <glyph glyph-name="zcaron" unicode="&#x17e;" horiz-adv-x="543" 
d="M361 402h-186q-24 0 -35 -6.5t-25 -27.5l-27 -41l-34 9l89 247h35q3 -21 7.5 -29t14.5 -8h366v-33l-366 -329l84 -25q38 -12 72 -12q43 0 67 13t59 65l34 -11q-46 -121 -93.5 -175t-116.5 -54q-64 0 -141 44l-88 50l-49 -83q-55 0 -55 37q0 29 29 54zM280 606l-92 169h89
l88 -80l134 80h101l-184 -169h-136z" />
    <glyph glyph-name="florin" unicode="&#x192;" horiz-adv-x="523" 
d="M53 290l15 61h93l10 45q37 166 98 241t185 75q66 0 108.5 -21.5t42.5 -67.5q0 -54 -54 -69h-62q7 47 -1.5 78t-36.5 31q-34 0 -46 -60l-55 -252h110l-11 -61h-113l-32 -148q-41 -185 -102.5 -263.5t-186.5 -78.5q-66 0 -108.5 21t-42.5 67q0 53 54 70h62
q-15 -109 38 -109q34 0 46 60l83 381h-94z" />
    <glyph glyph-name="Aringacute" unicode="&#x1fa;" horiz-adv-x="759" 
d="M462 151l-12 63h-255l-39 -63q-18 -30 -18 -49q0 -17 14 -25.5t50 -9.5l-14 -67h-226l14 67q46 8 64 37l327 520l-18 79h190l128 -599q6 -31 51 -37l-13 -67h-334l14 67q45 2 63.5 12t18.5 33q0 16 -5 39zM474 734q-50 0 -81 22t-31 59q0 43 39 71t93 28q51 0 81.5 -21.5
t30.5 -58.5q0 -43 -39 -71.5t-93 -28.5zM391 529l-154 -247h200zM549 1061h197l-170 -120h-99zM479 786q26 0 40.5 12.5t14.5 31.5q0 32 -45 32q-26 0 -40.5 -12.5t-14.5 -30.5q0 -33 45 -33z" />
    <glyph glyph-name="aringacute" unicode="&#x1fb;" horiz-adv-x="694" 
d="M436 633q26 0 40.5 12.5t14.5 31.5q0 32 -45 32q-26 0 -40.5 -12.5t-14.5 -30.5q0 -33 45 -33zM431 581q-50 0 -81 22t-31 59q0 43 39 71t93 28q51 0 81.5 -21.5t30.5 -58.5q0 -43 -39 -71.5t-93 -28.5zM506 908h197l-170 -120h-99zM249 111q49 0 107 103.5t86 238.5
q-7 18 -11 26t-14 14.5t-26 6.5q-50 0 -94 -53t-67.5 -125.5t-23.5 -139.5q0 -71 43 -71zM482 505l105 54h71l-41 -141l-66 -268q-8 -30 -8 -41q0 -15 14 -15q22 0 79 73l32 -27q-53 -76 -100.5 -113t-101.5 -37q-46 0 -73 30t-27 78q0 11 2.5 24t5.5 23l9 30t10 35h-7
q-22 -46 -41.5 -79.5t-47.5 -68.5t-62.5 -53.5t-73.5 -18.5q-60 0 -97.5 47.5t-37.5 128.5q0 95 41 184t120.5 149t176.5 60q40 0 66 -13.5t52 -40.5z" />
    <glyph glyph-name="AEacute" unicode="&#x1fc;" horiz-adv-x="1042" 
d="M40 104l422 502q-6 18 -19.5 23.5t-47.5 5.5l13 67h673l-41 -191h-71q-12 68 -33 95t-77 27h-103l-49 -236h74q33 0 52.5 17t36.5 62h64l-48 -229h-64q0 45 -11.5 62t-44.5 17h-74l-37 -177q-5 -23 -5 -35q0 -26 16.5 -35.5t52.5 -9.5h23q52 0 91.5 29.5t99.5 107.5h79
l-74 -206h-585l14 67q52 2 70 15t26 54l22 108h-234l-71 -83q-29 -33 -29 -59q0 -17 14 -25.5t50 -9.5l-14 -67h-239l14 67q40 7 64 37zM561 603l-251 -291h190zM768 909h197l-194 -158h-99z" />
    <glyph glyph-name="aeacute" unicode="&#x1fd;" horiz-adv-x="865" 
d="M357 559q94 0 145 -75q93 75 208 75q70 0 110 -35.5t40 -87.5q0 -78 -82.5 -126t-243.5 -77v-14q0 -59 26.5 -94t71.5 -35q44 0 79 20t76 66l28 -27q-45 -78 -115 -118.5t-142 -40.5q-83 0 -134 47t-61 126q-91 -173 -202 -173q-60 0 -97.5 47.5t-37.5 128.5
q0 94 41 183.5t118.5 149.5t171.5 60zM249 111q52 0 113 113q9 127 103 226q-26 54 -73 54q-50 0 -94.5 -54t-68 -127.5t-23.5 -140.5q0 -71 43 -71zM553 766h197l-195 -160h-98zM685 498q-50 0 -92 -69.5t-55 -156.5q94 28 137 70t43 104q0 52 -33 52z" />
    <glyph glyph-name="Oslashacute" unicode="&#x1fe;" horiz-adv-x="764" 
d="M682 742l-46 -74q121 -75 121 -241q0 -110 -49.5 -209.5t-144.5 -163.5t-213 -64q-64 0 -117 18l-56 -93l-54 30l54 89q-120 74 -120 241q0 110 49.5 209.5t144.5 163.5t213 64q65 0 116 -18l48 78zM252 250q0 -55 5 -86l273 447q-24 30 -70 30q-61 0 -110.5 -67
t-73.5 -155t-24 -169zM354 61q61 0 110.5 67t73.5 155.5t24 170.5q0 43 -5 83l-273 -447q23 -29 70 -29zM532 909h197l-194 -158h-99z" />
    <glyph glyph-name="oslashacute" unicode="&#x1ff;" horiz-adv-x="622" 
d="M559 591l-52 -77q85 -64 85 -185q0 -143 -94.5 -241t-240.5 -98q-49 0 -95 18l-68 -100l-43 28l66 97q-87 63 -87 187q0 143 94.5 241t240.5 98q55 0 97 -19l54 79zM197 165v-14l214 314q-16 31 -54 31q-43 0 -81.5 -59t-58.5 -135t-20 -137zM265 53q43 0 81.5 59
t58.5 135t20 137v10l-212 -311q17 -30 52 -30zM423 766h197l-195 -160h-98z" />
    <glyph glyph-name="Scommaaccent" unicode="&#x218;" horiz-adv-x="589" 
d="M265 -10q-82 0 -148.5 28t-96.5 67l27 156h91q3 -87 39.5 -137t101.5 -50q48 0 76.5 25t28.5 71q0 39 -24.5 64t-90.5 56q-89 42 -130 94t-41 123q0 104 75.5 164.5t195.5 60.5q140 0 223 -75l-30 -147h-79q-9 75 -36 116t-92 41q-45 0 -71 -25t-26 -64q0 -37 24.5 -60.5
t87.5 -54.5q97 -48 140.5 -94.5t43.5 -123.5t-42 -131.5t-106 -79t-141 -24.5zM232 -158h-61q-41 11 -41 50q0 33 25 54.5t69 21.5q41 0 63.5 -22t22.5 -59q0 -61 -46 -99t-144 -38v45q49 0 78 13t34 34z" />
    <glyph glyph-name="scommaaccent" unicode="&#x219;" horiz-adv-x="482" 
d="M214 45q27 0 42 14t15 38q0 23 -31.5 52.5t-69.5 56t-69.5 68t-31.5 84.5q0 90 63.5 145.5t165.5 55.5q65 0 109.5 -29t44.5 -77q0 -21 -15.5 -37t-40.5 -23h-34q-7 48 -33 79t-62 31q-60 0 -60 -47q0 -21 33.5 -52t73 -59.5t73 -71t33.5 -85.5q0 -89 -65.5 -143.5
t-164.5 -54.5q-83 0 -138.5 33.5t-55.5 82.5q0 29 17.5 49t45.5 29h30q22 -139 125 -139zM173 -158h-61q-41 11 -41 50q0 33 25 54.5t69 21.5q41 0 63.5 -22t22.5 -59q0 -61 -46 -99t-144 -38v45q49 0 78 13t34 34z" />
    <glyph glyph-name="uni0237" unicode="&#x237;" horiz-adv-x="340" 
d="M24 -4l101 443l-51 47l10 34l218 39h35l-115 -456q-79 -310 -284 -310q-57 0 -92 22t-35 59q0 34 22.5 54.5t56.5 24.5h28q2 -114 40 -114q21 0 32.5 30.5t33.5 126.5z" />
    <glyph glyph-name="circumflex" unicode="&#x2c6;" horiz-adv-x="500" 
d="M335 766l92 -169h-89l-88 80l-134 -80h-101l184 169h136z" />
    <glyph glyph-name="caron" unicode="&#x2c7;" horiz-adv-x="500" 
d="M137 606l-92 169h89l88 -80l134 80h101l-184 -169h-136z" />
    <glyph glyph-name="breve" unicode="&#x2d8;" horiz-adv-x="500" 
d="M244 603q-60 0 -93.5 30.5t-33.5 81.5q0 29 11 58h66q-1 -5 -1 -14q0 -64 71 -64q74 0 105 78h74q-20 -80 -72 -125t-127 -45z" />
    <glyph glyph-name="dotaccent" unicode="&#x2d9;" horiz-adv-x="500" 
d="M261 599q-44 0 -70 25.5t-26 62.5q0 42 28 70.5t76 28.5q43 0 69.5 -25.5t26.5 -61.5q0 -42 -28.5 -71t-75.5 -29z" />
    <glyph glyph-name="ring" unicode="&#x2da;" horiz-adv-x="500" 
d="M256 654q24 0 37.5 14t13.5 35q0 18 -11 28.5t-31 10.5q-24 0 -37.5 -14t-13.5 -34q0 -18 11 -29t31 -11zM251 597q-46 0 -75 26t-29 67q0 46 36.5 77.5t86.5 31.5q46 0 75 -26t29 -67q0 -46 -36.5 -77.5t-86.5 -31.5z" />
    <glyph glyph-name="ogonek" unicode="&#x2db;" horiz-adv-x="500" 
d="M340 43l9 -24q-109 -61 -109 -118q0 -39 39 -39q30 0 72 25l16 -28q-78 -75 -155 -75q-37 0 -61.5 19.5t-24.5 52.5q0 34 17.5 62.5t53 52t65.5 38t78 34.5z" />
    <glyph glyph-name="tilde" unicode="&#x2dc;" horiz-adv-x="500" 
d="M397 771l58 -11q-46 -92 -76 -121t-75 -29q-26 0 -70.5 31.5t-61.5 31.5q-14 0 -26.5 -8.5t-20.5 -18.5t-21 -29l-59 12q47 92 77 121t74 29q30 0 72.5 -31.5t59.5 -31.5q32 0 69 55z" />
    <glyph glyph-name="hungarumlaut" unicode="&#x2dd;" horiz-adv-x="500" 
d="M109 766h171l-179 -160h-88zM319 766h177l-185 -160h-88z" />
    <glyph glyph-name="pi" unicode="&#x3c0;" horiz-adv-x="690" 
d="M442 422h-123q-31 -148 -58 -234t-71 -188h-191l9 47q48 61 74.5 98.5t60 113t52.5 163.5h-108l27 128h590l-44 -128h-80q-60 -232 -60 -291q0 -16 9 -26t24 -10q21 0 43 6l-2 -51q-76 -60 -152 -60q-47 0 -74 24.5t-27 68.5q0 80 101 339z" />
    <glyph glyph-name="Wgrave" unicode="&#x1e80;" horiz-adv-x="1012" 
d="M750 254l149 280q27 52 27 70q0 15 -13 22.5t-48 8.5l14 67h229l-14 -67q-19 -3 -28 -5.5t-20.5 -10.5t-19.5 -21l-344 -602h-73l-56 387l-220 -387h-71l-118 602q-6 29 -48 37l14 67h322l-14 -67q-71 -6 -72 -60q0 -15 3 -34l54 -294l134 235l-14 116q-4 29 -42 37
l14 67h315l-13 -67q-83 -3 -83 -66q0 -14 3 -39zM483 909h181l35 -158h-91z" />
    <glyph glyph-name="wgrave" unicode="&#x1e81;" horiz-adv-x="837" 
d="M386 445l-61 41l10 34l176 39h35l28 -399l74 87q58 66 58 144q0 36 -23.5 57t-62.5 21l1 19q42 71 121 71q45 0 68 -29t23 -72q0 -89 -127 -231l-209 -232h-65l-26 255l-212 -255h-63l-52 450l-61 41l10 34l185 39h35l34 -384l117 145zM334 766h181l35 -160h-91z" />
    <glyph glyph-name="Wacute" unicode="&#x1e82;" horiz-adv-x="1012" 
d="M750 254l149 280q27 52 27 70q0 15 -13 22.5t-48 8.5l14 67h229l-14 -67q-19 -3 -28 -5.5t-20.5 -10.5t-19.5 -21l-344 -602h-73l-56 387l-220 -387h-71l-118 602q-6 29 -48 37l14 67h322l-14 -67q-71 -6 -72 -60q0 -15 3 -34l54 -294l134 235l-14 116q-4 29 -42 37
l14 67h315l-13 -67q-83 -3 -83 -66q0 -14 3 -39zM682 909h197l-194 -158h-99z" />
    <glyph glyph-name="wacute" unicode="&#x1e83;" horiz-adv-x="837" 
d="M386 445l-61 41l10 34l176 39h35l28 -399l74 87q58 66 58 144q0 36 -23.5 57t-62.5 21l1 19q42 71 121 71q45 0 68 -29t23 -72q0 -89 -127 -231l-209 -232h-65l-26 255l-212 -255h-63l-52 450l-61 41l10 34l185 39h35l34 -384l117 145zM534 766h197l-195 -160h-98z" />
    <glyph glyph-name="Wdieresis" unicode="&#x1e84;" horiz-adv-x="1012" 
d="M750 254l149 280q27 52 27 70q0 15 -13 22.5t-48 8.5l14 67h229l-14 -67q-19 -3 -28 -5.5t-20.5 -10.5t-19.5 -21l-344 -602h-73l-56 387l-220 -387h-71l-118 602q-6 29 -48 37l14 67h322l-14 -67q-71 -6 -72 -60q0 -15 3 -34l54 -294l134 235l-14 116q-4 29 -42 37
l14 67h315l-13 -67q-83 -3 -83 -66q0 -14 3 -39zM548 743q-39 0 -63 24.5t-24 58.5q0 38 25.5 65.5t67.5 27.5q39 0 62.5 -24t23.5 -58q0 -39 -25.5 -66.5t-66.5 -27.5zM767 743q-39 0 -62.5 24.5t-23.5 58.5q0 39 25 66t67 27q39 0 62.5 -24t23.5 -58q0 -39 -25 -66.5
t-67 -27.5z" />
    <glyph glyph-name="wdieresis" unicode="&#x1e85;" horiz-adv-x="837" 
d="M386 445l-61 41l10 34l176 39h35l28 -399l74 87q58 66 58 144q0 36 -23.5 57t-62.5 21l1 19q42 71 121 71q45 0 68 -29t23 -72q0 -89 -127 -231l-209 -232h-65l-26 255l-212 -255h-63l-52 450l-61 41l10 34l185 39h35l34 -384l117 145zM400 603q-39 0 -63 24.5t-24 58.5
q0 38 25.5 65.5t67.5 27.5q39 0 62.5 -24t23.5 -58q0 -39 -25.5 -66.5t-66.5 -27.5zM619 603q-39 0 -62.5 24.5t-23.5 58.5q0 39 25 66t67 27q39 0 62.5 -24t23.5 -58q0 -39 -25 -66.5t-67 -27.5z" />
    <glyph glyph-name="Ygrave" unicode="&#x1ef2;" horiz-adv-x="692" 
d="M419 340l148 196q2 3 10.5 14t11 15t7 11.5t6 13t1.5 11.5q0 16 -13 24.5t-46 9.5l14 67h230l-14 -67q-44 -7 -67 -37l-263 -341l-26 -121q-3 -15 -3 -26q0 -23 17 -32t59 -11l-14 -67h-355l14 67q51 2 71.5 15.5t28.5 53.5l26 122l-118 340q-6 18 -16.5 25.5t-31.5 11.5
l14 67h324l-14 -67q-76 0 -76 -52q0 -21 10 -48zM345 909h181l35 -158h-91z" />
    <glyph glyph-name="ygrave" unicode="&#x1ef3;" horiz-adv-x="569" 
d="M363 58q-113 -145 -194 -204.5t-159 -59.5q-50 0 -83.5 23.5t-33.5 67.5q0 27 17 48.5t46 31.5h32q0 -48 18 -73t60 -25q57 0 130 70l-117 508l-61 41l10 34l185 39h35l85 -457l3 3q102 138 102 272q0 45 -23 68.5t-64 23.5l1 19q44 71 121 71q45 0 68.5 -30.5
t23.5 -73.5q0 -84 -52.5 -179.5t-149.5 -217.5zM189 766h181l35 -160h-91z" />
    <glyph glyph-name="endash" unicode="&#x2013;" horiz-adv-x="580" 
d="M533 262h-487l18 86h487z" />
    <glyph glyph-name="emdash" unicode="&#x2014;" horiz-adv-x="1000" 
d="M953 262h-907l18 86h907z" />
    <glyph glyph-name="quoteleft" unicode="&#x2018;" horiz-adv-x="324" 
d="M221 636h37q73 -16 73 -86q0 -40 -26 -66t-72 -26q-49 0 -79 32t-30 89q0 81 65 136t175 55v-59q-132 -15 -143 -75z" />
    <glyph glyph-name="quoteright" unicode="&#x2019;" horiz-adv-x="324" 
d="M259 592h-37q-73 16 -73 86q0 40 26 66t72 26q49 0 79 -32t30 -89q0 -81 -65 -136t-175 -55v59q132 15 143 75z" />
    <glyph glyph-name="quotesinglbase" unicode="&#x201a;" horiz-adv-x="324" 
d="M144 9h-37q-73 16 -73 86q0 40 26 66t72 26q49 0 79 -32t30 -89q0 -81 -65 -136t-175 -55v59q132 15 143 75z" />
    <glyph glyph-name="quotedblleft" unicode="&#x201c;" horiz-adv-x="588" 
d="M221 636h37q73 -16 73 -86q0 -40 -26 -66t-72 -26q-49 0 -79 32t-30 89q0 81 65 136t175 55v-59q-132 -15 -143 -75zM485 636h37q73 -16 73 -86q0 -40 -26 -66t-72 -26q-49 0 -79 32t-30 89q0 81 65 136t175 55v-59q-132 -15 -143 -75z" />
    <glyph glyph-name="quotedblright" unicode="&#x201d;" horiz-adv-x="588" 
d="M523 592h-37q-73 16 -73 86q0 40 26 66t72 26q49 0 79 -32t30 -89q0 -81 -65 -136t-175 -55v59q132 15 143 75zM259 592h-37q-73 16 -73 86q0 40 26 66t72 26q49 0 79 -32t30 -89q0 -81 -65 -136t-175 -55v59q132 15 143 75z" />
    <glyph glyph-name="quotedblbase" unicode="&#x201e;" horiz-adv-x="588" 
d="M408 9h-37q-73 16 -73 86q0 40 26 66t72 26q49 0 79 -32t30 -89q0 -81 -65 -136t-175 -55v59q132 15 143 75zM144 9h-37q-73 16 -73 86q0 40 26 66t72 26q49 0 79 -32t30 -89q0 -81 -65 -136t-175 -55v59q132 15 143 75z" />
    <glyph glyph-name="dagger" unicode="&#x2020;" horiz-adv-x="502" 
d="M117 605l170 -22l16 175h105l-61 -175l182 22l-21 -101l-173 21l-41 -303h-105l87 303l-180 -21z" />
    <glyph glyph-name="daggerdbl" unicode="&#x2021;" horiz-adv-x="502" 
d="M286 552l-181 -21l22 101l170 -22l10 148h105l-55 -148l182 22l-22 -101l-172 21l-27 -124l182 21l-22 -101l-172 22l-8 -148h-105l53 148l-180 -22l22 101l171 -21z" />
    <glyph glyph-name="bullet" unicode="&#x2022;" horiz-adv-x="422" 
d="M54 309q0 68 47.5 116.5t113.5 48.5q67 0 114 -48.5t47 -116.5q0 -67 -47.5 -115.5t-113.5 -48.5t-113.5 48.5t-47.5 115.5z" />
    <glyph glyph-name="ellipsis" unicode="&#x2026;" horiz-adv-x="930" 
d="M23 97q0 47 31 77.5t76 30.5q46 0 77 -30.5t31 -77.5t-31 -77t-77 -30q-45 0 -76 30t-31 77zM333 97q0 47 31 77.5t76 30.5q46 0 77 -30.5t31 -77.5t-31 -77t-77 -30q-45 0 -76 30t-31 77zM643 97q0 47 31 77.5t76 30.5q46 0 77 -30.5t31 -77.5t-31 -77t-77 -30
q-45 0 -76 30t-31 77z" />
    <glyph glyph-name="perthousand" unicode="&#x2030;" horiz-adv-x="1349" 
d="M301 664q-37 0 -67 -64t-30 -149q0 -68 37 -68t67 64t30 149q0 68 -37 68zM133 -19l606 741h78l-608 -741h-76zM235 335q-67 0 -112 37t-45 104q0 74 36 129.5t87 81t106 25.5q67 0 112 -37t45 -104q0 -74 -36 -129.5t-87 -81t-106 -25.5zM648 39q37 0 67 64t30 149
q0 68 -37 68t-67 -64t-30 -149q0 -68 37 -68zM714 368q67 0 112 -37t45 -104q0 -74 -36 -129.5t-87 -81t-106 -25.5q-67 0 -112 37t-45 104q0 74 36 129.5t87 81t106 25.5zM1067 39q37 0 67 64t30 149q0 68 -37 68t-67 -64t-30 -149q0 -68 37 -68zM1133 368q67 0 112 -37
t45 -104q0 -74 -36 -129.5t-87 -81t-106 -25.5q-67 0 -112 37t-45 104q0 74 36 129.5t87 81t106 25.5z" />
    <glyph glyph-name="guilsinglleft" unicode="&#x2039;" horiz-adv-x="338" 
d="M30 271l2 10l222 200h88l-157 -205l59 -205h-77z" />
    <glyph glyph-name="guilsinglright" unicode="&#x203a;" horiz-adv-x="338" 
d="M303 281l-2 -10l-221 -200h-89l157 205l-59 205h78z" />
    <glyph glyph-name="fraction" unicode="&#x2044;" horiz-adv-x="283" 
d="M-160 0l682 780h86l-682 -780h-86z" />
    <glyph glyph-name="Euro" unicode="&#x20ac;" horiz-adv-x="718" 
d="M51 383l13 57h80q49 127 155 199.5t232 72.5q127 0 206 -74l-32 -154h-82q-4 84 -23.5 119.5t-70.5 35.5q-66 0 -117 -55.5t-80 -143.5h216l-21 -57h-211q-8 -41 -10 -64h199l-21 -58h-182v-7q0 -190 106 -190q58 0 96 40.5t79 137.5h90l-39 -179q-114 -73 -243 -73
q-134 0 -207 69.5t-73 192.5v9h-87l13 58h78q3 29 11 64h-75z" />
    <glyph glyph-name="uni2117" unicode="&#x2117;" horiz-adv-x="796" 
d="M399 30q143 0 240 100.5t97 246.5q0 127 -81.5 211t-210.5 84q-143 0 -240 -100.5t-97 -246.5q0 -127 81.5 -211t210.5 -84zM399 -10q-147 0 -241.5 95.5t-94.5 239.5q0 162 110 274.5t271 112.5q147 0 241.5 -95.5t94.5 -239.5q0 -162 -110 -274.5t-271 -112.5zM443 304
h-48l-15 -67q-2 -12 -2 -16q0 -12 10.5 -16.5t39.5 -5.5l-10 -45h-216l10 45q28 1 36.5 8t13.5 30l53 233q3 12 3 19q0 10 -7.5 13t-28.5 4l10 45h202q141 0 141 -109q0 -59 -54 -98.5t-138 -39.5zM440 503l-35 -156h15q100 0 100 94q0 62 -65 62h-15z" />
    <glyph glyph-name="trademark" unicode="&#x2122;" horiz-adv-x="957" 
d="M162 702h327l-20 -120h-36q-10 47 -20.5 64.5t-38.5 17.5h-8l-51 -236q-2 -10 -2 -13q0 -12 8.5 -16t29.5 -6l-7 -34h-183l7 34q25 2 35 8.5t14 26.5l51 236h-7q-20 0 -36.5 -11t-27 -24t-32.5 -47h-36zM698 501l83 161q12 23 15 40h165l-17 -38q-24 0 -34.5 -7.5
t-15.5 -28.5l-12 -203q-1 -18 6 -24t29 -8l-7 -34h-187l7 34q28 2 39.5 8t15.5 25q3 10 4 37l7 140l-130 -244h-39l-32 244l-51 -140q-13 -39 -13 -48q0 -12 8 -16.5t34 -5.5l-7 -34h-140l7 34q23 2 33 7.5t17 24.5l74 203q0 14 -1.5 20t-8.5 11t-22 5l8 38h143
q-2 -22 0 -39z" />
    <glyph glyph-name="Omega" unicode="&#x2126;" horiz-adv-x="756" 
d="M465 639q-49 0 -88 -38t-60.5 -94.5t-32.5 -113t-11 -102.5q0 -107 40 -201l-19 -90h-271l17 198h41q21 -61 39 -74.5t84 -13.5h53q-66 21 -113 91t-47 163q0 144 113.5 246t264.5 102q121 0 187.5 -70t66.5 -179q0 -125 -81 -218.5t-207 -134.5h53q66 0 90 13.5t71 74.5
h41l-67 -198h-271l19 90q77 91 125.5 201.5t48.5 213.5q0 62 -21.5 98t-64.5 36z" />
    <glyph glyph-name="uni2153" unicode="&#x2153;" horiz-adv-x="971" 
d="M194 0l606 741h77l-607 -741h-76zM334 748h50l-77 -363q-3 -11 -3 -19q0 -15 13.5 -20t53.5 -7l-11 -52h-296l11 52q54 3 65.5 9.5t18.5 36.5l47 218h-75l10 48l29 6q58 12 91.5 31.5t72.5 59.5zM777 182q47 -6 78 -35t31 -70q0 -79 -63 -116.5t-157 -37.5
q-64 0 -108 26.5t-44 65.5q0 46 45 62h87q-13 -25 -13 -54q0 -25 13 -40t35 -15q27 0 45 25.5t18 66.5q0 73 -59 73q-8 0 -24 -2l-4 30q56 21 79 41.5t23 49.5q0 18 -12 30t-34 12q-46 0 -94 -48l-31 25q27 52 78.5 85t110.5 33q58 0 91 -24t33 -71q0 -45 -34 -74.5
t-90 -37.5z" />
    <glyph glyph-name="uni2154" unicode="&#x2154;" horiz-adv-x="1026" 
d="M216 395h110q29 0 43 8t45 42h41l-46 -158h-363l9 47q161 118 207.5 166.5t46.5 89.5q0 58 -57 58t-106 -56l-27 35q73 121 209 121q59 0 96 -28.5t37 -83.5q0 -38 -19 -72.5t-56 -64.5t-76 -53.5t-94 -50.5zM249 0l606 741h77l-607 -741h-76zM832 182q47 -6 78 -35
t31 -70q0 -79 -63 -116.5t-157 -37.5q-64 0 -108 26.5t-44 65.5q0 46 45 62h87q-13 -25 -13 -54q0 -25 13 -40t35 -15q27 0 45 25.5t18 66.5q0 73 -59 73q-8 0 -24 -2l-4 30q56 21 79 41.5t23 49.5q0 18 -12 30t-34 12q-46 0 -94 -48l-31 25q27 52 78.5 85t110.5 33
q58 0 91 -24t33 -71q0 -45 -34 -74.5t-90 -37.5z" />
    <glyph glyph-name="uni215B" unicode="&#x215b;" horiz-adv-x="1023" 
d="M334 748h50l-77 -363q-3 -11 -3 -19q0 -15 13.5 -20t53.5 -7l-11 -52h-296l11 52q54 3 65.5 9.5t18.5 36.5l47 218h-75l10 48l29 6q58 12 91.5 31.5t72.5 59.5zM953 283q0 -39 -32.5 -63.5t-86.5 -28.5q94 -44 94 -118q0 -75 -57.5 -112.5t-143.5 -37.5q-72 0 -127 34.5
t-55 86.5q0 40 32 64t86 26q-66 40 -66 107q0 70 53.5 110t133.5 40q78 0 123.5 -29.5t45.5 -78.5zM766 80l-82 40q-19 -17 -27.5 -31.5t-8.5 -37.5q0 -35 24 -56t62 -21q34 0 54.5 15.5t20.5 41.5q0 17 -10 27t-33 22zM756 228l52 -23q42 33 42 76q0 26 -18 42.5t-53 16.5
q-28 0 -45.5 -15t-17.5 -40q0 -40 40 -57zM194 0l606 741h77l-607 -741h-76z" />
    <glyph glyph-name="uni215C" unicode="&#x215c;" horiz-adv-x="1035" 
d="M323 537q47 -6 78 -35t31 -70q0 -79 -63 -116.5t-157 -37.5q-64 0 -108 26.5t-44 65.5q0 46 45 62h87q-13 -25 -13 -54q0 -25 13 -40t35 -15q27 0 45 25.5t18 66.5q0 73 -59 73q-8 0 -24 -2l-4 30q56 21 79 41.5t23 49.5q0 18 -12 30t-34 12q-46 0 -94 -48l-31 25
q27 52 78.5 85t110.5 33q58 0 91 -24t33 -71q0 -45 -34 -74.5t-90 -37.5zM205 0l606 741h77l-607 -741h-76zM965 283q0 -39 -32.5 -63.5t-86.5 -28.5q94 -44 94 -118q0 -75 -57.5 -112.5t-143.5 -37.5q-72 0 -127 34.5t-55 86.5q0 40 32 64t86 26q-66 40 -66 107
q0 70 53.5 110t133.5 40q78 0 123.5 -29.5t45.5 -78.5zM778 80l-82 40q-19 -17 -27.5 -31.5t-8.5 -37.5q0 -35 24 -56t62 -21q34 0 54.5 15.5t20.5 41.5q0 17 -10 27t-33 22zM768 228l52 -23q42 33 42 76q0 26 -18 42.5t-53 16.5q-28 0 -45.5 -15t-17.5 -40q0 -40 40 -57z
" />
    <glyph glyph-name="uni215D" unicode="&#x215d;" horiz-adv-x="1022" 
d="M456 736l-39 -122h-203l-15 -40q108 0 164.5 -30.5t56.5 -102.5q0 -71 -56 -117.5t-142 -46.5q-73 0 -112.5 23.5t-39.5 60.5q0 23 13 39t32 23h75q-10 -24 -10 -45q0 -24 13.5 -38.5t37.5 -14.5q32 0 51 18.5t19 50.5q0 78 -185 78l101 264h239zM952 283
q0 -39 -32.5 -63.5t-86.5 -28.5q94 -44 94 -118q0 -75 -57.5 -112.5t-143.5 -37.5q-72 0 -127 34.5t-55 86.5q0 40 32 64t86 26q-66 40 -66 107q0 70 53.5 110t133.5 40q78 0 123.5 -29.5t45.5 -78.5zM765 80l-82 40q-19 -17 -27.5 -31.5t-8.5 -37.5q0 -35 24 -56t62 -21
q34 0 54.5 15.5t20.5 41.5q0 17 -10 27t-33 22zM755 228l52 -23q42 33 42 76q0 26 -18 42.5t-53 16.5q-28 0 -45.5 -15t-17.5 -40q0 -40 40 -57zM193 0l606 741h77l-607 -741h-76z" />
    <glyph glyph-name="uni215E" unicode="&#x215e;" horiz-adv-x="944" 
d="M367 604h-142q-43 0 -76 -61h-49l74 193h337l-7 -34l-287 -415h-101zM874 283q0 -39 -32.5 -63.5t-86.5 -28.5q94 -44 94 -118q0 -75 -57.5 -112.5t-143.5 -37.5q-72 0 -127 34.5t-55 86.5q0 40 32 64t86 26q-66 40 -66 107q0 70 53.5 110t133.5 40q78 0 123.5 -29.5
t45.5 -78.5zM687 80l-82 40q-19 -17 -27.5 -31.5t-8.5 -37.5q0 -35 24 -56t62 -21q34 0 54.5 15.5t20.5 41.5q0 17 -10 27t-33 22zM677 228l52 -23q42 33 42 76q0 26 -18 42.5t-53 16.5q-28 0 -45.5 -15t-17.5 -40q0 -40 40 -57zM115 0l606 741h77l-607 -741h-76z" />
    <glyph glyph-name="partialdiff" unicode="&#x2202;" horiz-adv-x="608" 
d="M349 545q18 0 35 -3q-20 68 -67 111.5t-132 81.5l30 41q98 -20 171.5 -64t114.5 -103t60.5 -122t19.5 -131q0 -159 -92 -262.5t-239 -103.5q-98 0 -160 62t-62 168q0 141 90 233t231 92zM403 384q0 50 -6 92q-15 6 -40 6q-45 0 -81.5 -56t-53.5 -127t-17 -134
q0 -112 50 -112q33 0 62 35t47 87t28.5 107.5t10.5 101.5z" />
    <glyph glyph-name="Delta" unicode="&#x2206;" horiz-adv-x="682" 
d="M619 0h-642l10 51l434 651h47l161 -651zM341 470l-266 -402h358z" />
    <glyph glyph-name="product" unicode="&#x220f;" horiz-adv-x="832" 
d="M116 702h782l-15 -69q-50 -2 -67.5 -15t-25.5 -53l-133 -625q-4 -16 -4 -30q0 -21 14.5 -28.5t53.5 -9.5l-14 -69h-346l14 69q50 2 68 15t26 53l148 699h-248l-148 -699q-4 -16 -4 -30q0 -21 14.5 -28.5t53.5 -9.5l-14 -69h-345l14 69q50 2 67.5 15t25.5 53l133 625
q4 24 4 29q0 21 -15 29t-54 10z" />
    <glyph glyph-name="summation" unicode="&#x2211;" horiz-adv-x="645" 
d="M81 -46h186q70 0 108.5 15t90.5 79h74l-95 -245h-547l13 65l351 391l-177 368l16 75h555l-41 -192h-87q-15 74 -39 101.5t-89 27.5h-111l127 -286l-9 -41z" />
    <glyph glyph-name="minus" unicode="&#x2212;" horiz-adv-x="603" 
d="M80 318l21 93h460l-21 -93h-460z" />
    <glyph glyph-name="radical" unicode="&#x221a;" horiz-adv-x="615" 
d="M353 255l275 457h77l-431 -712h-78l-53 433q-4 30 -14 42t-34 15l-25 3l12 57h244z" />
    <glyph glyph-name="infinity" unicode="&#x221e;" horiz-adv-x="760" 
d="M343 349l-28 38q-37 48 -80 48q-39 0 -65.5 -28t-26.5 -75q0 -31 19.5 -50t46.5 -19q44 0 87 41zM450 349l28 -38q37 -48 80 -48q39 0 65.5 28t26.5 75q0 31 -19.5 50t-46.5 19q-44 0 -87 -41zM389 286l-34 -35q-72 -75 -156 -75q-64 0 -105 40t-41 109q0 86 55 141
t133 55q88 0 139 -74l24 -35l34 35q72 75 156 75q64 0 105 -40t41 -109q0 -86 -55 -141t-133 -55q-88 0 -139 74z" />
    <glyph glyph-name="integral" unicode="&#x222b;" horiz-adv-x="457" 
d="M324 487l-83 -401q-29 -143 -91 -213.5t-186 -70.5q-58 0 -93.5 21.5t-35.5 67.5q0 53 54 70h62q-9 -43 -7 -76t24 -33q27 0 41 36t34 132q1 5 1 7l83 401q30 143 91.5 213.5t185.5 70.5q58 0 93.5 -21.5t35.5 -67.5q0 -53 -54 -70h-62q9 43 7 76t-24 33q-27 0 -41 -36
t-34 -132q-1 -5 -1 -7z" />
    <glyph glyph-name="approxequal" unicode="&#x2248;" horiz-adv-x="615" 
d="M101 379l20 91q75 41 131 41q40 0 101.5 -20t100.5 -20q65 0 135 41l-20 -90q-74 -42 -134 -42q-40 0 -101 20.5t-100 20.5q-59 0 -133 -42zM69 223l17 89q74 42 133 42q40 0 101.5 -20t100.5 -20q65 0 135 41l-19 -89q-70 -42 -135 -42q-40 0 -100.5 20t-99.5 20
q-61 0 -133 -41z" />
    <glyph glyph-name="notequal" unicode="&#x2260;" horiz-adv-x="615" 
d="M106 407l19 86h274l92 103h84l-92 -103h102l-19 -86h-159l-73 -83h214l-16 -86h-274l-92 -104h-86l92 104h-100l18 86h159l74 83h-217z" />
    <glyph glyph-name="lessequal" unicode="&#x2264;" horiz-adv-x="482" 
d="M94 405l2 11l378 185l-22 -109l-185 -86l149 -85l-22 -101zM29 93l20 93h338l-20 -93h-338z" />
    <glyph glyph-name="greaterequal" unicode="&#x2265;" horiz-adv-x="482" 
d="M405 186l-20 -93h-337l18 93h339zM453 416l-2 -11l-376 -185l23 110l182 86l-147 82l22 103z" />
    <glyph glyph-name="lozenge" unicode="&#x25ca;" horiz-adv-x="571" 
d="M52 351l281 351h98l132 -351l-281 -351h-98zM444 351l-85 246l-190 -246l86 -245z" />
    <glyph glyph-name="Tcedilla.sc" horiz-adv-x="677" 
d="M507 545l-92 -423q-4 -20 -4 -25q0 -17 16 -24.5t55 -7.5l-14 -65h-343l14 65q46 0 64.5 12.5t26.5 46.5l91 421h-8q-47 0 -78 -31.5t-83 -115.5h-78l58 210h590l-33 -210h-71q-11 74 -33.5 110.5t-70.5 36.5h-7zM282 -158h-61q-41 11 -41 50q0 33 25 54.5t69 21.5
q41 0 63.5 -22t22.5 -59q0 -61 -46 -99t-144 -38v45q49 0 78 13t34 34z" />
    <glyph glyph-name="i.dot" horiz-adv-x="370" 
d="M328 559l-103 -409q-8 -30 -8 -41q0 -15 14 -15q23 0 80 73l31 -27q-53 -76 -100 -113t-101 -37q-47 0 -75.5 26.5t-28.5 67.5q0 31 13 86l66 269l-50 47l9 34l218 39h35zM265 599q-44 0 -70 25.5t-26 62.5q0 42 28 70.5t76 28.5q43 0 69.5 -25.5t26.5 -61.5
q0 -42 -28.5 -71t-75.5 -29z" />
    <glyph glyph-name="space_uni0326" horiz-adv-x="500" 
d="M254 -158h-61q-41 11 -41 50q0 33 25 54.5t69 21.5q41 0 63.5 -22t22.5 -59q0 -61 -46 -99t-144 -38v45q49 0 78 13t34 34z" />
    <glyph glyph-name="space_uni0326.alt" horiz-adv-x="500" 
d="M220 720h61q41 -11 41 -50q0 -33 -25 -54.5t-69 -21.5q-41 0 -63.5 22t-22.5 59q0 61 46 99t144 38v-45q-49 0 -78 -13t-34 -34z" />
    <glyph glyph-name="space_dotbelowcomb" horiz-adv-x="500" 
d="M163 -159q-2 36 23 64.5t59 29.5q36 1 62.5 -24.5t28.5 -61.5t-22.5 -63.5t-60.5 -28.5q-35 -2 -62 23.5t-28 60.5z" />
    <glyph glyph-name="A.sc" horiz-adv-x="687" 
d="M405 138l-9 44h-221l-29 -44q-15 -24 -15 -43q0 -29 53 -30l-14 -65h-201l14 65q41 8 56 32l285 438l-17 77h177l113 -515q6 -26 45 -32l-14 -65h-301l14 65q39 2 54 10.5t15 25.5q0 15 -5 37zM346 444l-129 -198h167z" />
    <glyph glyph-name="B.sc" horiz-adv-x="652" 
d="M337 280h-38l-32 -150q-5 -24 -5 -30q0 -38 45 -38h17q43 0 76 32.5t33 97.5q0 88 -96 88zM370 540h-14l-43 -194h26q62 0 94.5 30.5t32.5 87.5q0 42 -24.5 59t-71.5 17zM120 608h326q204 0 204 -133q0 -74 -53.5 -113t-142.5 -47q77 -3 121 -36.5t44 -90.5
q0 -93 -78.5 -140.5t-205.5 -47.5h-348l14 65q45 2 59 13t22 46l78 362q4 20 4 25q0 17 -12.5 23.5t-45.5 8.5z" />
    <glyph glyph-name="C.sc" horiz-adv-x="641" 
d="M329 -10q-135 0 -207.5 70.5t-72.5 176.5q0 168 111.5 274.5t279.5 106.5q132 0 203 -71l-31 -140h-93q-2 38 -5 59t-11 43.5t-23.5 32.5t-40.5 10q-58 0 -104 -54t-68 -131t-22 -157q0 -148 96 -148q50 0 82.5 35t78.5 123h93l-37 -172q-96 -58 -229 -58z" />
    <glyph glyph-name="D.sc" horiz-adv-x="721" 
d="M385 540h-29l-87 -404q-5 -25 -5 -37q0 -31 42 -31h15q52 0 92 34t60 86t29.5 101t9.5 91q0 160 -127 160zM120 608h279q142 0 225 -64.5t83 -184.5q0 -160 -111 -259.5t-288 -99.5h-321l14 65q45 2 59 13t22 46l78 362q4 20 4 25q0 17 -12.5 23.5t-45.5 8.5z" />
    <glyph glyph-name="E.sc" horiz-adv-x="611" 
d="M-13 0l14 65q45 2 59 13t22 46l78 362q4 20 4 25q0 17 -12.5 23.5t-45.5 8.5l14 65h517l-37 -172h-71q-10 58 -29 82t-69 24h-75l-42 -194h51q29 0 46 13.5t32 51.5h62l-43 -199h-62q0 38 -10.5 52t-39.5 14h-51l-31 -146q-4 -24 -4 -30q0 -22 14 -30t44 -8h11
q43 0 77.5 26t87.5 93h79l-67 -185h-523z" />
    <glyph glyph-name="F.sc" horiz-adv-x="573" 
d="M120 608h515l-37 -171h-76q-9 58 -28 81.5t-70 23.5h-67l-44 -200h44q31 0 47.5 13.5t30.5 51.5h63l-42 -198h-64q0 40 -10 53t-40 13h-43l-31 -144q-3 -24 -3 -29q0 -25 19 -32.5t72 -8.5l-11 -61h-358l14 65q45 2 59 13t22 46l78 362q4 20 4 25q0 17 -12.5 23.5
t-45.5 8.5z" />
    <glyph glyph-name="G.sc" horiz-adv-x="694" 
d="M49 236q0 169 113.5 275.5t286.5 106.5q132 0 201 -71l-31 -140h-93q-4 72 -22 108.5t-64 36.5q-59 0 -105 -54t-68 -130.5t-22 -156.5q0 -149 95 -149q33 0 57 9l28 108q0 3 1 8t1.5 9t0.5 7q0 15 -12.5 20.5t-45.5 7.5l15 69h303l-14 -69q-44 -1 -57.5 -11.5
t-21.5 -43.5l-28 -116q-97 -70 -240 -70q-134 0 -206 71t-72 175z" />
    <glyph glyph-name="H.sc" horiz-adv-x="782" 
d="M480 124l33 156h-212l-34 -158q-4 -20 -4 -25q0 -17 12.5 -23.5t45.5 -8.5l-14 -65h-320l14 65q45 2 59 13t22 46l78 362q4 20 4 25q0 17 -12.5 23.5t-45.5 8.5l14 65h320l-14 -65q-45 -2 -59 -13t-22 -46l-30 -136h213l30 138q4 20 4 25q0 17 -12.5 23.5t-45.5 8.5
l14 65h320l-14 -65q-45 -2 -59 -13t-22 -46l-78 -362q-4 -20 -4 -25q0 -17 12.5 -23.5t45.5 -8.5l-14 -65h-320l14 65q45 2 59 13t22 46z" />
    <glyph glyph-name="I.sc" horiz-adv-x="384" 
d="M82 124l78 362q4 20 4 25q0 17 -12.5 23.5t-45.5 8.5l14 65h320l-14 -65q-45 -2 -59 -13t-22 -46l-78 -362q-4 -20 -4 -25q0 -17 12.5 -23.5t45.5 -8.5l-14 -65h-320l14 65q45 2 59 13t22 46z" />
    <glyph glyph-name="J.sc" horiz-adv-x="576" 
d="M291 171l68 315q4 20 4 25q0 17 -12.5 23.5t-45.5 8.5l14 65h320l-14 -65q-45 -2 -59 -13t-22 -46l-62 -281q-25 -109 -92.5 -160.5t-181.5 -51.5q-98 0 -151 36.5t-53 95.5q0 33 18.5 59.5t45.5 39.5h128q-23 -60 -23 -103q0 -23 10.5 -42.5t34.5 -19.5q28 0 44.5 29.5
t28.5 84.5z" />
    <glyph glyph-name="K.sc" horiz-adv-x="719" 
d="M491 362l100 -236q15 -36 31 -48t46 -13l-14 -65h-197q-30 20 -62 104l-76 205l201 165q2 2 8 6.5t8 6.5t6.5 6t6 7t4 6.5t3.5 7.5t1 8q0 20 -47 21l14 65h241l-14 -65q-31 -1 -47 -7.5t-45 -30.5zM82 124l78 362q4 20 4 25q0 17 -12.5 23.5t-45.5 8.5l14 65h320l-14 -65
q-45 -2 -59 -13t-22 -46l-78 -362q-4 -20 -4 -25q0 -17 12.5 -23.5t45.5 -8.5l-14 -65h-320l14 65q45 2 59 13t22 46z" />
    <glyph glyph-name="L.sc" horiz-adv-x="609" 
d="M-13 0l14 65q45 2 59 13t22 46l78 362q4 20 4 25q0 17 -12.5 23.5t-45.5 8.5l14 65h320l-14 -65q-45 -2 -59 -13t-22 -46l-73 -340q-6 -26 -6 -42q0 -34 50 -34h20q39 0 68 25.5t105 123.5h83l-81 -217h-524z" />
    <glyph glyph-name="M.sc" horiz-adv-x="890" 
d="M601 142l21 267l-244 -409h-59l-54 410l-100 -254q-13 -33 -13 -56q0 -19 16.5 -26t58.5 -9l-14 -65h-244l14 65q38 2 56 13t29 40l142 358q5 37 -6 51t-53 16l14 65h245q0 -39 3 -62l34 -297l180 301q16 26 27 58h249l-14 -65q-45 -2 -62.5 -15t-25.5 -48l-25 -362
q-2 -31 12 -41t53 -12l-14 -65h-337l14 65q49 3 71.5 18t25.5 59z" />
    <glyph glyph-name="N.sc" horiz-adv-x="706" 
d="M538 261l47 225q3 14 3 25q0 17 -11.5 24t-44.5 8l13 65h217l-13 -65q-45 -2 -59.5 -13t-22.5 -46l-104 -484h-76l-257 431l-66 -309q-3 -13 -3 -25q0 -17 11.5 -24t44.5 -8l-13 -65h-217l13 65q45 2 59.5 13t22.5 46l82 377q-13 24 -24.5 31.5t-33.5 10.5l13 65h224z
" />
    <glyph glyph-name="O.sc" horiz-adv-x="694" 
d="M247 188q0 -65 13.5 -98t52.5 -33q50 0 90.5 62.5t59.5 144.5t19 156q0 65 -13.5 98t-52.5 33q-50 0 -90.5 -62.5t-59.5 -144.5t-19 -156zM680 360q0 -69 -26 -135.5t-72.5 -118.5t-116.5 -84t-151 -32q-120 0 -192.5 70.5t-72.5 187.5q0 69 26 135.5t72.5 118.5
t116.5 84t151 32q120 0 192.5 -70.5t72.5 -187.5z" />
    <glyph glyph-name="P.sc" horiz-adv-x="623" 
d="M-13 0l14 65q45 2 59 13t22 46l78 362q4 20 4 25q0 17 -12.5 23.5t-45.5 8.5l14 65h303q113 0 168.5 -40t55.5 -111q0 -113 -81 -171t-215 -58h-63l-21 -97q-3 -24 -3 -29q0 -25 19.5 -32.5t72.5 -8.5l-11 -61h-358zM356 540l-55 -251h20q60 0 102.5 38.5t42.5 117.5
q0 95 -89 95h-21z" />
    <glyph glyph-name="Q.sc" horiz-adv-x="694" 
d="M680 360q0 -119 -71.5 -220.5t-190.5 -135.5l51 -44q32 -25 54.5 -35.5t54.5 -10.5l-6 -34q-46 -33 -118 -33q-113 0 -165 100l-25 47q-99 14 -157 82t-58 172q0 69 26 135.5t72.5 118.5t116.5 84t151 32q120 0 192.5 -70.5t72.5 -187.5zM247 188q0 -65 13.5 -98
t52.5 -33q50 0 90.5 62.5t59.5 144.5t19 156q0 65 -13.5 98t-52.5 33q-50 0 -90.5 -62.5t-59.5 -144.5t-19 -156z" />
    <glyph glyph-name="R.sc" horiz-adv-x="702" 
d="M383 540h-29l-51 -231h24q161 0 161 136q0 95 -105 95zM120 608h326q226 0 226 -161q0 -64 -49 -110t-116 -60l63 -153q15 -37 30 -48t50 -11l-14 -65h-207q-30 28 -49 93l-45 152h-46l-27 -123q-4 -20 -4 -25q0 -17 12.5 -23.5t45.5 -8.5l-14 -65h-315l14 65q45 2 59 13
t22 46l78 362q4 20 4 25q0 17 -12.5 23.5t-45.5 8.5z" />
    <glyph glyph-name="S.sc" horiz-adv-x="540" 
d="M238 -10q-74 0 -134 25t-86 60l24 132h91q2 -72 32.5 -114t86.5 -42q40 0 63 19t23 54q0 31 -20 50.5t-77 44.5q-82 36 -120 83t-38 112q0 94 70 149t181 55q126 0 200 -66l-27 -128h-78q-8 64 -30.5 98.5t-79.5 34.5q-36 0 -58 -20t-22 -49q0 -31 21 -49t78 -45
q88 -41 127 -82.5t39 -110.5q0 -103 -77.5 -157t-188.5 -54z" />
    <glyph glyph-name="T.sc" horiz-adv-x="677" 
d="M507 545l-92 -423q-4 -20 -4 -25q0 -17 16 -24.5t55 -7.5l-14 -65h-343l14 65q46 0 64.5 12.5t26.5 46.5l91 421h-8q-47 0 -78 -31.5t-83 -115.5h-78l58 210h590l-33 -210h-71q-11 74 -33.5 110.5t-70.5 36.5h-7z" />
    <glyph glyph-name="U.sc" horiz-adv-x="702" 
d="M537 246l51 240q3 14 3 25q0 17 -11.5 24t-44.5 8l13 65h217l-13 -65q-45 -2 -59.5 -13t-22.5 -46l-57 -266q-24 -113 -98.5 -170.5t-184.5 -57.5q-107 0 -171.5 57t-64.5 145q0 33 10 79l47 215q4 20 4 25q0 17 -12.5 23.5t-45.5 8.5l14 65h320l-14 -65q-45 -2 -59 -13
t-22 -46l-49 -219q-8 -35 -8 -65q0 -53 27.5 -81t76.5 -28q57 0 95.5 34t58.5 121z" />
    <glyph glyph-name="V.sc" horiz-adv-x="668" 
d="M388 221l171 249q17 26 17 47q0 12 -10.5 18t-40.5 8l14 65h205l-14 -65q-23 -4 -35.5 -10t-23.5 -22l-354 -513h-51l-136 513q-4 16 -13 22t-29 10l14 65h306l-13 -65q-42 -3 -57 -14.5t-15 -34.5q0 -10 5 -32z" />
    <glyph glyph-name="W.sc" horiz-adv-x="912" 
d="M661 227l135 224q25 40 25 66q0 13 -10.5 19t-39.5 7l14 65h203l-14 -65q-17 -3 -24.5 -5t-17.5 -9t-17 -18l-317 -513h-71l-34 324l-206 -324h-66l-92 513q-5 24 -41 32l14 65h285l-14 -65q-56 -6 -57 -52q0 -15 3 -31l37 -234l120 184l-10 101q-3 25 -35 32l14 65h279
l-14 -65q-68 -3 -68 -59q0 -23 1 -40z" />
    <glyph glyph-name="X.sc" horiz-adv-x="667" 
d="M624 516l-183 -171l135 -253q13 -20 46 -27l-14 -65h-287l14 65q41 0 41 31q0 14 -10 34l-57 113l-115 -113q-26 -26 -26 -42q0 -23 40 -23l-14 -65h-225l14 65q48 0 75 27l215 212l-116 212q-15 25 -40 27l14 65h293l-14 -65q-51 0 -51 -31q0 -14 12 -34l40 -72l73 72
q27 25 27 43q0 12 -7.5 17t-29.5 5l14 65h221l-14 -65q-39 0 -71 -27z" />
    <glyph glyph-name="Y.sc" horiz-adv-x="633" 
d="M502 608h207l-14 -65q-40 -8 -59 -32l-228 -295l-21 -96q-3 -11 -3 -20q0 -19 13.5 -26t49.5 -9l-14 -65h-321l14 65q44 2 60.5 13.5t23.5 45.5l21 93l-101 294q-5 15 -14 21.5t-28 10.5l14 65h299l-14 -65q-62 0 -62 -47q0 -21 8 -44l52 -155l118 156q33 43 33 60
q0 29 -48 30z" />
    <glyph glyph-name="Z.sc" horiz-adv-x="594" 
d="M226 62h82q53 0 83.5 24.5t104.5 123.5h77l-77 -210h-516l10 46l411 500h-89q-26 0 -47 -12t-30.5 -22.5t-32.5 -44t-33 -46.5h-68l41 187h502l-11 -47z" />
    <glyph glyph-name="Aacute.sc" horiz-adv-x="687" 
d="M405 138l-9 44h-221l-29 -44q-15 -24 -15 -43q0 -29 53 -30l-14 -65h-201l14 65q41 8 56 32l285 438l-17 77h177l113 -515q6 -26 45 -32l-14 -65h-301l14 65q39 2 54 10.5t15 25.5q0 15 -5 37zM454 816h197l-195 -160h-98zM346 444l-129 -198h167z" />
    <glyph glyph-name="Abreve.sc" horiz-adv-x="687" 
d="M405 138l-9 44h-221l-29 -44q-15 -24 -15 -43q0 -29 53 -30l-14 -65h-201l14 65q41 8 56 32l285 438l-17 77h177l113 -515q6 -26 45 -32l-14 -65h-301l14 65q39 2 54 10.5t15 25.5q0 15 -5 37zM411 653q-60 0 -93.5 30.5t-33.5 81.5q0 29 11 58h66q-1 -5 -1 -14
q0 -64 71 -64q74 0 105 78h74q-20 -80 -72 -125t-127 -45zM346 444l-129 -198h167z" />
    <glyph glyph-name="Acircumflex.sc" horiz-adv-x="687" 
d="M405 138l-9 44h-221l-29 -44q-15 -24 -15 -43q0 -29 53 -30l-14 -65h-201l14 65q41 8 56 32l285 438l-17 77h177l113 -515q6 -26 45 -32l-14 -65h-301l14 65q39 2 54 10.5t15 25.5q0 15 -5 37zM521 816l92 -169h-89l-88 80l-134 -80h-101l184 169h136zM346 444l-129 -198
h167z" />
    <glyph glyph-name="Adieresis.sc" horiz-adv-x="687" 
d="M405 138l-9 44h-221l-29 -44q-15 -24 -15 -43q0 -29 53 -30l-14 -65h-201l14 65q41 8 56 32l285 438l-17 77h177l113 -515q6 -26 45 -32l-14 -65h-301l14 65q39 2 54 10.5t15 25.5q0 15 -5 37zM320 653q-39 0 -63 24.5t-24 58.5q0 38 25.5 65.5t67.5 27.5q39 0 62.5 -24
t23.5 -58q0 -39 -25.5 -66.5t-66.5 -27.5zM539 653q-39 0 -62.5 24.5t-23.5 58.5q0 39 25 66t67 27q39 0 62.5 -24t23.5 -58q0 -39 -25 -66.5t-67 -27.5zM346 444l-129 -198h167z" />
    <glyph glyph-name="Agrave.sc" horiz-adv-x="687" 
d="M405 138l-9 44h-221l-29 -44q-15 -24 -15 -43q0 -29 53 -30l-14 -65h-201l14 65q41 8 56 32l285 438l-17 77h177l113 -515q6 -26 45 -32l-14 -65h-301l14 65q39 2 54 10.5t15 25.5q0 15 -5 37zM254 816h181l35 -160h-91zM346 444l-129 -198h167z" />
    <glyph glyph-name="Amacron.sc" horiz-adv-x="687" 
d="M405 138l-9 44h-221l-29 -44q-15 -24 -15 -43q0 -29 53 -30l-14 -65h-201l14 65q41 8 56 32l285 438l-17 77h177l113 -515q6 -26 45 -32l-14 -65h-301l14 65q39 2 54 10.5t15 25.5q0 15 -5 37zM264 676l23 101h308l-23 -101h-308zM346 444l-129 -198h167z" />
    <glyph glyph-name="Aogonek.sc" horiz-adv-x="687" 
d="M405 138l-9 44h-221l-29 -44q-15 -24 -15 -43q0 -29 53 -30l-14 -65h-201l14 65q41 8 56 32l285 438l-17 77h177l113 -515q6 -26 45 -32l-14 -65h-281q-77 -43 -77 -99q0 -39 39 -39q30 0 72 25l16 -28q-78 -75 -155 -75q-37 0 -61.5 19.5t-24.5 52.5q0 57 42.5 96.5
t121.5 77.5q51 24 70.5 39t19.5 32q0 15 -5 37zM346 444l-129 -198h167z" />
    <glyph glyph-name="Aring.sc" horiz-adv-x="687" 
d="M405 138l-9 44h-221l-29 -44q-15 -24 -15 -43q0 -29 53 -30l-14 -65h-201l14 65q41 8 56 32l285 438l-17 77h177l113 -515q6 -26 45 -32l-14 -65h-301l14 65q39 2 54 10.5t15 25.5q0 15 -5 37zM424 647q-46 0 -75 26t-29 67q0 46 36.5 77.5t86.5 31.5q46 0 75 -26t29 -67
q0 -46 -36.5 -77.5t-86.5 -31.5zM346 444l-129 -198h167zM429 704q24 0 37.5 14t13.5 35q0 18 -11 28.5t-31 10.5q-24 0 -37.5 -14t-13.5 -34q0 -18 11 -29t31 -11z" />
    <glyph glyph-name="Aringacute.sc" horiz-adv-x="687" 
d="M405 138l-9 44h-221l-29 -44q-15 -24 -15 -43q0 -29 53 -30l-14 -65h-201l14 65q41 8 56 32l285 438l-17 77h177l113 -515q6 -26 45 -32l-14 -65h-301l14 65q39 2 54 10.5t15 25.5q0 15 -5 37zM416 642q-50 0 -81 22t-31 59q0 43 39 71t93 28q51 0 81.5 -21.5t30.5 -58.5
q0 -43 -39 -71.5t-93 -28.5zM491 969h197l-170 -120h-99zM346 444l-129 -198h167zM421 694q26 0 40.5 12.5t14.5 31.5q0 32 -45 32q-26 0 -40.5 -12.5t-14.5 -30.5q0 -33 45 -33z" />
    <glyph glyph-name="Atilde.sc" horiz-adv-x="687" 
d="M405 138l-9 44h-221l-29 -44q-15 -24 -15 -43q0 -29 53 -30l-14 -65h-201l14 65q41 8 56 32l285 438l-17 77h177l113 -515q6 -26 45 -32l-14 -65h-301l14 65q39 2 54 10.5t15 25.5q0 15 -5 37zM580 821l58 -11q-46 -92 -76 -121t-75 -29q-26 0 -70.5 31.5t-61.5 31.5
q-14 0 -26.5 -8.5t-20.5 -18.5t-21 -29l-59 12q47 92 77 121t74 29q30 0 72.5 -31.5t59.5 -31.5q32 0 69 55zM346 444l-129 -198h167z" />
    <glyph glyph-name="AE.sc" horiz-adv-x="938" 
d="M39 97l358 420q-4 17 -15.5 21.5t-40.5 4.5l13 65h610l-38 -172h-70q-10 58 -29 82t-69 24h-75l-42 -194h50q30 0 47 13.5t32 51.5h62l-43 -199h-62q0 38 -10.5 52t-39.5 14h-50l-32 -146q-4 -24 -4 -30q0 -22 14 -30t43 -8h11q43 0 78 26t88 93h79l-67 -185h-523l13 65
q45 2 59.5 13t22.5 46l18 85h-206l-53 -60q-27 -31 -27 -54q0 -29 52 -30l-13 -65h-211l14 65q36 7 56 32zM494 518l-216 -244h163z" />
    <glyph glyph-name="AEacute.sc" horiz-adv-x="938" 
d="M39 97l358 420q-4 17 -15.5 21.5t-40.5 4.5l13 65h610l-38 -172h-70q-10 58 -29 82t-69 24h-75l-42 -194h50q30 0 47 13.5t32 51.5h62l-43 -199h-62q0 38 -10.5 52t-39.5 14h-50l-32 -146q-4 -24 -4 -30q0 -22 14 -30t43 -8h11q43 0 78 26t88 93h79l-67 -185h-523l13 65
q45 2 59.5 13t22.5 46l18 85h-206l-53 -60q-27 -31 -27 -54q0 -29 52 -30l-13 -65h-211l14 65q36 7 56 32zM685 816h197l-195 -160h-98zM494 518l-216 -244h163z" />
    <glyph glyph-name="Cacute.sc" horiz-adv-x="641" 
d="M329 -10q-135 0 -207.5 70.5t-72.5 176.5q0 168 111.5 274.5t279.5 106.5q132 0 203 -71l-31 -140h-93q-2 38 -5 59t-11 43.5t-23.5 32.5t-40.5 10q-58 0 -104 -54t-68 -131t-22 -157q0 -148 96 -148q50 0 82.5 35t78.5 123h93l-37 -172q-96 -58 -229 -58zM501 816h197
l-195 -160h-98z" />
    <glyph glyph-name="Ccaron.sc" horiz-adv-x="641" 
d="M329 -10q-135 0 -207.5 70.5t-72.5 176.5q0 168 111.5 274.5t279.5 106.5q132 0 203 -71l-31 -140h-93q-2 38 -5 59t-11 43.5t-23.5 32.5t-40.5 10q-58 0 -104 -54t-68 -131t-22 -157q0 -148 96 -148q50 0 82.5 35t78.5 123h93l-37 -172q-96 -58 -229 -58zM394 656
l-92 169h89l88 -80l134 80h101l-184 -169h-136z" />
    <glyph glyph-name="Ccedilla.sc" horiz-adv-x="641" 
d="M203 -233l-11 49q122 0 122 39q0 33 -76 36l50 101q-116 11 -177.5 79.5t-61.5 165.5q0 168 111.5 274.5t279.5 106.5q132 0 203 -71l-31 -140h-93q-2 38 -5 59t-11 43.5t-23.5 32.5t-40.5 10q-58 0 -104 -54t-68 -131t-22 -157q0 -148 96 -148q50 0 82.5 35t78.5 123h93
l-37 -172q-93 -56 -222 -58l-17 -34q86 -9 86 -78q0 -52 -60.5 -81.5t-141.5 -29.5z" />
    <glyph glyph-name="Ccircumflex.sc" horiz-adv-x="641" 
d="M329 -10q-135 0 -207.5 70.5t-72.5 176.5q0 168 111.5 274.5t279.5 106.5q132 0 203 -71l-31 -140h-93q-2 38 -5 59t-11 43.5t-23.5 32.5t-40.5 10q-58 0 -104 -54t-68 -131t-22 -157q0 -148 96 -148q50 0 82.5 35t78.5 123h93l-37 -172q-96 -58 -229 -58zM569 816
l92 -169h-89l-88 80l-134 -80h-101l184 169h136z" />
    <glyph glyph-name="Cdotaccent.sc" horiz-adv-x="641" 
d="M329 -10q-135 0 -207.5 70.5t-72.5 176.5q0 168 111.5 274.5t279.5 106.5q132 0 203 -71l-31 -140h-93q-2 38 -5 59t-11 43.5t-23.5 32.5t-40.5 10q-58 0 -104 -54t-68 -131t-22 -157q0 -148 96 -148q50 0 82.5 35t78.5 123h93l-37 -172q-96 -58 -229 -58zM475 649
q-44 0 -70 25.5t-26 62.5q0 42 28 70.5t76 28.5q43 0 69.5 -25.5t26.5 -61.5q0 -42 -28.5 -71t-75.5 -29z" />
    <glyph glyph-name="Dcaron.sc" horiz-adv-x="721" 
d="M385 540h-29l-87 -404q-5 -25 -5 -37q0 -31 42 -31h15q52 0 92 34t60 86t29.5 101t9.5 91q0 160 -127 160zM120 608h279q142 0 225 -64.5t83 -184.5q0 -160 -111 -259.5t-288 -99.5h-321l14 65q45 2 59 13t22 46l78 362q4 20 4 25q0 17 -12.5 23.5t-45.5 8.5zM355 656
l-92 169h89l88 -80l134 80h101l-184 -169h-136z" />
    <glyph glyph-name="Dcroat.sc" horiz-adv-x="721" 
d="M120 608h279q142 0 225 -64.5t83 -184.5q0 -160 -111 -259.5t-288 -99.5h-321l14 65q45 2 59 13t22 46l33 154h-67l15 71h67l30 137q4 20 4 25q0 17 -12.5 23.5t-45.5 8.5zM385 540h-29l-41 -191h105l-15 -71h-106l-30 -142q-5 -25 -5 -37q0 -31 42 -31h15q52 0 92 34
t60 86t29.5 101t9.5 91q0 160 -127 160z" />
    <glyph glyph-name="Eacute.sc" horiz-adv-x="611" 
d="M-13 0l14 65q45 2 59 13t22 46l78 362q4 20 4 25q0 17 -12.5 23.5t-45.5 8.5l14 65h517l-37 -172h-71q-10 58 -29 82t-69 24h-75l-42 -194h51q29 0 46 13.5t32 51.5h62l-43 -199h-62q0 38 -10.5 52t-39.5 14h-51l-31 -146q-4 -24 -4 -30q0 -22 14 -30t44 -8h11
q43 0 77.5 26t87.5 93h79l-67 -185h-523zM423 816h197l-195 -160h-98z" />
    <glyph glyph-name="Ebreve.sc" horiz-adv-x="611" 
d="M-13 0l14 65q45 2 59 13t22 46l78 362q4 20 4 25q0 17 -12.5 23.5t-45.5 8.5l14 65h517l-37 -172h-71q-10 58 -29 82t-69 24h-75l-42 -194h51q29 0 46 13.5t32 51.5h62l-43 -199h-62q0 38 -10.5 52t-39.5 14h-51l-31 -146q-4 -24 -4 -30q0 -22 14 -30t44 -8h11
q43 0 77.5 26t87.5 93h79l-67 -185h-523zM380 653q-60 0 -93.5 30.5t-33.5 81.5q0 29 11 58h66q-1 -5 -1 -14q0 -64 71 -64q74 0 105 78h74q-20 -80 -72 -125t-127 -45z" />
    <glyph glyph-name="Ecaron.sc" horiz-adv-x="611" 
d="M-13 0l14 65q45 2 59 13t22 46l78 362q4 20 4 25q0 17 -12.5 23.5t-45.5 8.5l14 65h517l-37 -172h-71q-10 58 -29 82t-69 24h-75l-42 -194h51q29 0 46 13.5t32 51.5h62l-43 -199h-62q0 38 -10.5 52t-39.5 14h-51l-31 -146q-4 -24 -4 -30q0 -22 14 -30t44 -8h11
q43 0 77.5 26t87.5 93h79l-67 -185h-523zM316 656l-92 169h89l88 -80l134 80h101l-184 -169h-136z" />
    <glyph glyph-name="Ecircumflex.sc" horiz-adv-x="611" 
d="M-13 0l14 65q45 2 59 13t22 46l78 362q4 20 4 25q0 17 -12.5 23.5t-45.5 8.5l14 65h517l-37 -172h-71q-10 58 -29 82t-69 24h-75l-42 -194h51q29 0 46 13.5t32 51.5h62l-43 -199h-62q0 38 -10.5 52t-39.5 14h-51l-31 -146q-4 -24 -4 -30q0 -22 14 -30t44 -8h11
q43 0 77.5 26t87.5 93h79l-67 -185h-523zM490 816l92 -169h-89l-88 80l-134 -80h-101l184 169h136z" />
    <glyph glyph-name="Edieresis.sc" horiz-adv-x="611" 
d="M-13 0l14 65q45 2 59 13t22 46l78 362q4 20 4 25q0 17 -12.5 23.5t-45.5 8.5l14 65h517l-37 -172h-71q-10 58 -29 82t-69 24h-75l-42 -194h51q29 0 46 13.5t32 51.5h62l-43 -199h-62q0 38 -10.5 52t-39.5 14h-51l-31 -146q-4 -24 -4 -30q0 -22 14 -30t44 -8h11
q43 0 77.5 26t87.5 93h79l-67 -185h-523zM289 653q-39 0 -63 24.5t-24 58.5q0 38 25.5 65.5t67.5 27.5q39 0 62.5 -24t23.5 -58q0 -39 -25.5 -66.5t-66.5 -27.5zM508 653q-39 0 -62.5 24.5t-23.5 58.5q0 39 25 66t67 27q39 0 62.5 -24t23.5 -58q0 -39 -25 -66.5t-67 -27.5z
" />
    <glyph glyph-name="Edotaccent.sc" horiz-adv-x="611" 
d="M-13 0l14 65q45 2 59 13t22 46l78 362q4 20 4 25q0 17 -12.5 23.5t-45.5 8.5l14 65h517l-37 -172h-71q-10 58 -29 82t-69 24h-75l-42 -194h51q29 0 46 13.5t32 51.5h62l-43 -199h-62q0 38 -10.5 52t-39.5 14h-51l-31 -146q-4 -24 -4 -30q0 -22 14 -30t44 -8h11
q43 0 77.5 26t87.5 93h79l-67 -185h-523zM397 649q-44 0 -70 25.5t-26 62.5q0 42 28 70.5t76 28.5q43 0 69.5 -25.5t26.5 -61.5q0 -42 -28.5 -71t-75.5 -29z" />
    <glyph glyph-name="Egrave.sc" horiz-adv-x="611" 
d="M-13 0l14 65q45 2 59 13t22 46l78 362q4 20 4 25q0 17 -12.5 23.5t-45.5 8.5l14 65h517l-37 -172h-71q-10 58 -29 82t-69 24h-75l-42 -194h51q29 0 46 13.5t32 51.5h62l-43 -199h-62q0 38 -10.5 52t-39.5 14h-51l-31 -146q-4 -24 -4 -30q0 -22 14 -30t44 -8h11
q43 0 77.5 26t87.5 93h79l-67 -185h-523zM223 816h181l35 -160h-91z" />
    <glyph glyph-name="Emacron.sc" horiz-adv-x="611" 
d="M-13 0l14 65q45 2 59 13t22 46l78 362q4 20 4 25q0 17 -12.5 23.5t-45.5 8.5l14 65h517l-37 -172h-71q-10 58 -29 82t-69 24h-75l-42 -194h51q29 0 46 13.5t32 51.5h62l-43 -199h-62q0 38 -10.5 52t-39.5 14h-51l-31 -146q-4 -24 -4 -30q0 -22 14 -30t44 -8h11
q43 0 77.5 26t87.5 93h79l-67 -185h-523zM233 676l23 101h308l-23 -101h-308z" />
    <glyph glyph-name="Eogonek.sc" horiz-adv-x="611" 
d="M-13 0l14 65q45 2 59 13t22 46l78 362q4 20 4 25q0 17 -12.5 23.5t-45.5 8.5l14 65h517l-37 -172h-71q-10 58 -29 82t-69 24h-75l-42 -194h51q29 0 46 13.5t32 51.5h62l-43 -199h-62q0 38 -10.5 52t-39.5 14h-51l-31 -146q-4 -24 -4 -30q0 -22 14 -30t44 -8h11
q43 0 77.5 26t87.5 93h79l-67 -185h-82q-77 -50 -77 -99q0 -39 39 -39q30 0 72 25l16 -28q-78 -75 -155 -75q-37 0 -61.5 19.5t-24.5 52.5q0 81 119 144h-369z" />
    <glyph glyph-name="Eth.sc" horiz-adv-x="721" 
d="M120 608h279q142 0 225 -64.5t83 -184.5q0 -160 -111 -259.5t-288 -99.5h-321l14 65q45 2 59 13t22 46l33 154h-67l15 71h67l30 137q4 20 4 25q0 17 -12.5 23.5t-45.5 8.5zM385 540h-29l-41 -191h105l-15 -71h-106l-30 -142q-5 -25 -5 -37q0 -31 42 -31h15q52 0 92 34
t60 86t29.5 101t9.5 91q0 160 -127 160z" />
    <glyph glyph-name="Gbreve.sc" horiz-adv-x="694" 
d="M49 236q0 169 113.5 275.5t286.5 106.5q132 0 201 -71l-31 -140h-93q-4 72 -22 108.5t-64 36.5q-59 0 -105 -54t-68 -130.5t-22 -156.5q0 -149 95 -149q33 0 57 9l28 108q0 3 1 8t1.5 9t0.5 7q0 15 -12.5 20.5t-45.5 7.5l15 69h303l-14 -69q-44 -1 -57.5 -11.5
t-21.5 -43.5l-28 -116q-97 -70 -240 -70q-134 0 -206 71t-72 175zM451 653q-60 0 -93.5 30.5t-33.5 81.5q0 29 11 58h66q-1 -5 -1 -14q0 -64 71 -64q74 0 105 78h74q-20 -80 -72 -125t-127 -45z" />
    <glyph glyph-name="Gcircumflex.sc" horiz-adv-x="694" 
d="M49 236q0 169 113.5 275.5t286.5 106.5q132 0 201 -71l-31 -140h-93q-4 72 -22 108.5t-64 36.5q-59 0 -105 -54t-68 -130.5t-22 -156.5q0 -149 95 -149q33 0 57 9l28 108q0 3 1 8t1.5 9t0.5 7q0 15 -12.5 20.5t-45.5 7.5l15 69h303l-14 -69q-44 -1 -57.5 -11.5
t-21.5 -43.5l-28 -116q-97 -70 -240 -70q-134 0 -206 71t-72 175zM562 816l92 -169h-89l-88 80l-134 -80h-101l184 169h136z" />
    <glyph glyph-name="Gcommaaccent.sc" horiz-adv-x="694" 
d="M49 236q0 169 113.5 275.5t286.5 106.5q132 0 201 -71l-31 -140h-93q-4 72 -22 108.5t-64 36.5q-59 0 -105 -54t-68 -130.5t-22 -156.5q0 -149 95 -149q33 0 57 9l28 108q0 3 1 8t1.5 9t0.5 7q0 15 -12.5 20.5t-45.5 7.5l15 69h303l-14 -69q-44 -1 -57.5 -11.5
t-21.5 -43.5l-28 -116q-97 -70 -240 -70q-134 0 -206 71t-72 175zM302 -158h-61q-41 11 -41 50q0 33 25 54.5t69 21.5q41 0 63.5 -22t22.5 -59q0 -61 -46 -99t-144 -38v45q49 0 78 13t34 34z" />
    <glyph glyph-name="Gdotaccent.sc" horiz-adv-x="694" 
d="M49 236q0 169 113.5 275.5t286.5 106.5q132 0 201 -71l-31 -140h-93q-4 72 -22 108.5t-64 36.5q-59 0 -105 -54t-68 -130.5t-22 -156.5q0 -149 95 -149q33 0 57 9l28 108q0 3 1 8t1.5 9t0.5 7q0 15 -12.5 20.5t-45.5 7.5l15 69h303l-14 -69q-44 -1 -57.5 -11.5
t-21.5 -43.5l-28 -116q-97 -70 -240 -70q-134 0 -206 71t-72 175zM468 649q-44 0 -70 25.5t-26 62.5q0 42 28 70.5t76 28.5q43 0 69.5 -25.5t26.5 -61.5q0 -42 -28.5 -71t-75.5 -29z" />
    <glyph glyph-name="Hbar.sc" horiz-adv-x="782" 
d="M480 124l25 115h-213l-25 -117q-4 -20 -4 -25q0 -17 12.5 -23.5t45.5 -8.5l-14 -65h-320l14 65q45 2 59 13t22 46l55 256h-65l15 71h65l8 35q4 20 4 25q0 17 -12.5 23.5t-45.5 8.5l14 65h320l-14 -65q-45 -2 -59 -13t-22 -46l-7 -33h212l8 35q4 20 4 25q0 17 -12.5 23.5
t-45.5 8.5l14 65h320l-14 -65q-45 -2 -59 -13t-22 -46l-7 -33h70l-15 -71h-71l-55 -258q-4 -20 -4 -25q0 -17 12.5 -23.5t45.5 -8.5l-14 -65h-320l14 65q45 2 59 13t22 46zM322 380l-16 -73h213l16 73h-213z" />
    <glyph glyph-name="Hcircumflex.sc" horiz-adv-x="782" 
d="M480 124l33 156h-212l-34 -158q-4 -20 -4 -25q0 -17 12.5 -23.5t45.5 -8.5l-14 -65h-320l14 65q45 2 59 13t22 46l78 362q4 20 4 25q0 17 -12.5 23.5t-45.5 8.5l14 65h320l-14 -65q-45 -2 -59 -13t-22 -46l-30 -136h213l30 138q4 20 4 25q0 17 -12.5 23.5t-45.5 8.5
l14 65h320l-14 -65q-45 -2 -59 -13t-22 -46l-78 -362q-4 -20 -4 -25q0 -17 12.5 -23.5t45.5 -8.5l-14 -65h-320l14 65q45 2 59 13t22 46zM594 816l92 -169h-89l-88 80l-134 -80h-101l184 169h136z" />
    <glyph glyph-name="Iacute.sc" horiz-adv-x="384" 
d="M82 124l78 362q4 20 4 25q0 17 -12.5 23.5t-45.5 8.5l14 65h320l-14 -65q-45 -2 -59 -13t-22 -46l-78 -362q-4 -20 -4 -25q0 -17 12.5 -23.5t45.5 -8.5l-14 -65h-320l14 65q45 2 59 13t22 46zM328 816h197l-195 -160h-98z" />
    <glyph glyph-name="Ibreve.sc" horiz-adv-x="384" 
d="M82 124l78 362q4 20 4 25q0 17 -12.5 23.5t-45.5 8.5l14 65h320l-14 -65q-45 -2 -59 -13t-22 -46l-78 -362q-4 -20 -4 -25q0 -17 12.5 -23.5t45.5 -8.5l-14 -65h-320l14 65q45 2 59 13t22 46zM285 653q-60 0 -93.5 30.5t-33.5 81.5q0 29 11 58h66q-1 -5 -1 -14
q0 -64 71 -64q74 0 105 78h74q-20 -80 -72 -125t-127 -45z" />
    <glyph glyph-name="Icircumflex.sc" horiz-adv-x="384" 
d="M82 124l78 362q4 20 4 25q0 17 -12.5 23.5t-45.5 8.5l14 65h320l-14 -65q-45 -2 -59 -13t-22 -46l-78 -362q-4 -20 -4 -25q0 -17 12.5 -23.5t45.5 -8.5l-14 -65h-320l14 65q45 2 59 13t22 46zM395 816l92 -169h-89l-88 80l-134 -80h-101l184 169h136z" />
    <glyph glyph-name="Idieresis.sc" horiz-adv-x="384" 
d="M82 124l78 362q4 20 4 25q0 17 -12.5 23.5t-45.5 8.5l14 65h320l-14 -65q-45 -2 -59 -13t-22 -46l-78 -362q-4 -20 -4 -25q0 -17 12.5 -23.5t45.5 -8.5l-14 -65h-320l14 65q45 2 59 13t22 46zM194 653q-39 0 -63 24.5t-24 58.5q0 38 25.5 65.5t67.5 27.5q39 0 62.5 -24
t23.5 -58q0 -39 -25.5 -66.5t-66.5 -27.5zM413 653q-39 0 -62.5 24.5t-23.5 58.5q0 39 25 66t67 27q39 0 62.5 -24t23.5 -58q0 -39 -25 -66.5t-67 -27.5z" />
    <glyph glyph-name="Idotaccent.sc" horiz-adv-x="384" 
d="M82 124l78 362q4 20 4 25q0 17 -12.5 23.5t-45.5 8.5l14 65h320l-14 -65q-45 -2 -59 -13t-22 -46l-78 -362q-4 -20 -4 -25q0 -17 12.5 -23.5t45.5 -8.5l-14 -65h-320l14 65q45 2 59 13t22 46zM302 649q-44 0 -70 25.5t-26 62.5q0 42 28 70.5t76 28.5q43 0 69.5 -25.5
t26.5 -61.5q0 -42 -28.5 -71t-75.5 -29z" />
    <glyph glyph-name="Igrave.sc" horiz-adv-x="384" 
d="M82 124l78 362q4 20 4 25q0 17 -12.5 23.5t-45.5 8.5l14 65h320l-14 -65q-45 -2 -59 -13t-22 -46l-78 -362q-4 -20 -4 -25q0 -17 12.5 -23.5t45.5 -8.5l-14 -65h-320l14 65q45 2 59 13t22 46zM128 816h181l35 -160h-91z" />
    <glyph glyph-name="Imacron.sc" horiz-adv-x="384" 
d="M82 124l78 362q4 20 4 25q0 17 -12.5 23.5t-45.5 8.5l14 65h320l-14 -65q-45 -2 -59 -13t-22 -46l-78 -362q-4 -20 -4 -25q0 -17 12.5 -23.5t45.5 -8.5l-14 -65h-320l14 65q45 2 59 13t22 46zM138 676l23 101h308l-23 -101h-308z" />
    <glyph glyph-name="Iogonek.sc" horiz-adv-x="384" 
d="M82 124l78 362q4 20 4 25q0 17 -12.5 23.5t-45.5 8.5l14 65h320l-14 -65q-45 -2 -59 -13t-22 -46l-78 -362q-4 -20 -4 -25q0 -17 12.5 -23.5t45.5 -8.5l-14 -65h-106q-77 -50 -77 -99q0 -39 39 -39q30 0 72 25l16 -28q-78 -75 -155 -75q-37 0 -61.5 19.5t-24.5 52.5
q0 81 119 144h-142l14 65q45 2 59 13t22 46z" />
    <glyph glyph-name="Itilde.sc" horiz-adv-x="384" 
d="M82 124l78 362q4 20 4 25q0 17 -12.5 23.5t-45.5 8.5l14 65h320l-14 -65q-45 -2 -59 -13t-22 -46l-78 -362q-4 -20 -4 -25q0 -17 12.5 -23.5t45.5 -8.5l-14 -65h-320l14 65q45 2 59 13t22 46zM454 821l58 -11q-46 -92 -76 -121t-75 -29q-26 0 -70.5 31.5t-61.5 31.5
q-14 0 -26.5 -8.5t-20.5 -18.5t-21 -29l-59 12q47 92 77 121t74 29q30 0 72.5 -31.5t59.5 -31.5q32 0 69 55z" />
    <glyph glyph-name="IJ.sc" horiz-adv-x="926" 
d="M82 124l78 362q4 20 4 25q0 17 -12.5 23.5t-45.5 8.5l14 65h320l-14 -65q-45 -2 -59 -13t-22 -46l-78 -362q-4 -20 -4 -25q0 -17 12.5 -23.5t45.5 -8.5l-14 -65h-320l14 65q45 2 59 13t22 46zM641 171l68 315q4 20 4 25q0 17 -12.5 23.5t-45.5 8.5l14 65h320l-14 -65
q-45 -2 -59 -13t-22 -46l-62 -281q-25 -109 -92.5 -160.5t-181.5 -51.5q-98 0 -151 36.5t-53 95.5q0 33 18.5 59.5t45.5 39.5h128q-23 -60 -23 -103q0 -23 10.5 -42.5t34.5 -19.5q28 0 44.5 29.5t28.5 84.5z" />
    <glyph glyph-name="Jcircumflex.sc" horiz-adv-x="576" 
d="M291 171l68 315q4 20 4 25q0 17 -12.5 23.5t-45.5 8.5l14 65h320l-14 -65q-45 -2 -59 -13t-22 -46l-62 -281q-25 -109 -92.5 -160.5t-181.5 -51.5q-98 0 -151 36.5t-53 95.5q0 33 18.5 59.5t45.5 39.5h128q-23 -60 -23 -103q0 -23 10.5 -42.5t34.5 -19.5q28 0 44.5 29.5
t28.5 84.5zM598 816l92 -169h-89l-88 80l-134 -80h-101l184 169h136z" />
    <glyph glyph-name="Kcommaaccent.sc" horiz-adv-x="719" 
d="M491 362l100 -236q15 -36 31 -48t46 -13l-14 -65h-197q-30 20 -62 104l-76 205l201 165q2 2 8 6.5t8 6.5t6.5 6t6 7t4 6.5t3.5 7.5t1 8q0 20 -47 21l14 65h241l-14 -65q-31 -1 -47 -7.5t-45 -30.5zM82 124l78 362q4 20 4 25q0 17 -12.5 23.5t-45.5 8.5l14 65h320l-14 -65
q-45 -2 -59 -13t-22 -46l-78 -362q-4 -20 -4 -25q0 -17 12.5 -23.5t45.5 -8.5l-14 -65h-320l14 65q45 2 59 13t22 46zM321 -158h-61q-41 11 -41 50q0 33 25 54.5t69 21.5q41 0 63.5 -22t22.5 -59q0 -61 -46 -99t-144 -38v45q49 0 78 13t34 34z" />
    <glyph glyph-name="Lacute.sc" horiz-adv-x="609" 
d="M-13 0l14 65q45 2 59 13t22 46l78 362q4 20 4 25q0 17 -12.5 23.5t-45.5 8.5l14 65h320l-14 -65q-45 -2 -59 -13t-22 -46l-73 -340q-6 -26 -6 -42q0 -34 50 -34h20q39 0 68 25.5t105 123.5h83l-81 -217h-524zM332 816h197l-195 -160h-98z" />
    <glyph glyph-name="Lcaron.sc" horiz-adv-x="609" 
d="M-13 0l14 65q45 2 59 13t22 46l78 362q4 20 4 25q0 17 -12.5 23.5t-45.5 8.5l14 65h320l-14 -65q-45 -2 -59 -13t-22 -46l-73 -340q-6 -26 -6 -42q0 -34 50 -34h20q39 0 68 25.5t105 123.5h83l-81 -217h-524zM655 608l-133 -205h-76l51 205h158z" />
    <glyph glyph-name="Lcommaaccent.sc" horiz-adv-x="609" 
d="M-13 0l14 65q45 2 59 13t22 46l78 362q4 20 4 25q0 17 -12.5 23.5t-45.5 8.5l14 65h320l-14 -65q-45 -2 -59 -13t-22 -46l-73 -340q-6 -26 -6 -42q0 -34 50 -34h20q39 0 68 25.5t105 123.5h83l-81 -217h-524zM259 -158h-61q-41 11 -41 50q0 33 25 54.5t69 21.5
q41 0 63.5 -22t22.5 -59q0 -61 -46 -99t-144 -38v45q49 0 78 13t34 34z" />
    <glyph glyph-name="Ldot.sc" horiz-adv-x="609" 
d="M-13 0l14 65q45 2 59 13t22 46l78 362q4 20 4 25q0 17 -12.5 23.5t-45.5 8.5l14 65h320l-14 -65q-45 -2 -59 -13t-22 -46l-73 -340q-6 -26 -6 -42q0 -34 50 -34h20q39 0 68 25.5t105 123.5h83l-81 -217h-524zM504 275q-44 0 -70 25.5t-26 62.5q0 42 28 70.5t76 28.5
q43 0 69.5 -25.5t26.5 -61.5q0 -42 -28.5 -71t-75.5 -29z" />
    <glyph glyph-name="Lslash.sc" horiz-adv-x="609" 
d="M-13 0l14 65q45 2 59 13t22 46l22 104l-72 -25l16 70l71 25l41 188q4 20 4 25q0 17 -12.5 23.5t-45.5 8.5l14 65h320l-14 -65q-45 -2 -59 -13t-22 -46l-27 -126l116 42l-16 -70l-115 -41l-31 -145q-6 -26 -6 -42q0 -34 50 -34h20q39 0 68 25.5t105 123.5h83l-81 -217
h-524z" />
    <glyph glyph-name="Nacute.sc" horiz-adv-x="706" 
d="M538 261l47 225q3 14 3 25q0 17 -11.5 24t-44.5 8l13 65h217l-13 -65q-45 -2 -59.5 -13t-22.5 -46l-104 -484h-76l-257 431l-66 -309q-3 -13 -3 -25q0 -17 11.5 -24t44.5 -8l-13 -65h-217l13 65q45 2 59.5 13t22.5 46l82 377q-13 24 -24.5 31.5t-33.5 10.5l13 65h224z
M489 816h197l-195 -160h-98z" />
    <glyph glyph-name="Ncaron.sc" horiz-adv-x="706" 
d="M538 261l47 225q3 14 3 25q0 17 -11.5 24t-44.5 8l13 65h217l-13 -65q-45 -2 -59.5 -13t-22.5 -46l-104 -484h-76l-257 431l-66 -309q-3 -13 -3 -25q0 -17 11.5 -24t44.5 -8l-13 -65h-217l13 65q45 2 59.5 13t22.5 46l82 377q-13 24 -24.5 31.5t-33.5 10.5l13 65h224z
M382 656l-92 169h89l88 -80l134 80h101l-184 -169h-136z" />
    <glyph glyph-name="Ncommaaccent.sc" horiz-adv-x="706" 
d="M538 261l47 225q3 14 3 25q0 17 -11.5 24t-44.5 8l13 65h217l-13 -65q-45 -2 -59.5 -13t-22.5 -46l-104 -484h-76l-257 431l-66 -309q-3 -13 -3 -25q0 -17 11.5 -24t44.5 -8l-13 -65h-217l13 65q45 2 59.5 13t22.5 46l82 377q-13 24 -24.5 31.5t-33.5 10.5l13 65h224z
M296 -158h-61q-41 11 -41 50q0 33 25 54.5t69 21.5q41 0 63.5 -22t22.5 -59q0 -61 -46 -99t-144 -38v45q49 0 78 13t34 34z" />
    <glyph glyph-name="Ntilde.sc" horiz-adv-x="706" 
d="M538 261l47 225q3 14 3 25q0 17 -11.5 24t-44.5 8l13 65h217l-13 -65q-45 -2 -59.5 -13t-22.5 -46l-104 -484h-76l-257 431l-66 -309q-3 -13 -3 -25q0 -17 11.5 -24t44.5 -8l-13 -65h-217l13 65q45 2 59.5 13t22.5 46l82 377q-13 24 -24.5 31.5t-33.5 10.5l13 65h224z
M615 821l58 -11q-46 -92 -76 -121t-75 -29q-26 0 -70.5 31.5t-61.5 31.5q-14 0 -26.5 -8.5t-20.5 -18.5t-21 -29l-59 12q47 92 77 121t74 29q30 0 72.5 -31.5t59.5 -31.5q32 0 69 55z" />
    <glyph glyph-name="Eng.sc" horiz-adv-x="706" 
d="M667 484l-84 -393q-57 -270 -251 -270q-54 0 -86.5 20.5t-32.5 54.5q0 32 21 51t53 22h28q-2 -108 32 -108q22 0 38.5 29.5t37.5 120.5l15 68l-208 354l-66 -311q-3 -18 -3 -25q0 -17 11.5 -24t44.5 -8l-13 -65h-217l13 65q45 2 59.5 13t22.5 46l82 377
q-13 24 -24.5 31.5t-33.5 10.5l13 65h223l196 -347l46 225q4 12 4 25q0 17 -12 23.5t-45 8.5l13 65h218l-13 -65q-45 -2 -60 -13.5t-22 -45.5z" />
    <glyph glyph-name="Oacute.sc" horiz-adv-x="694" 
d="M247 188q0 -65 13.5 -98t52.5 -33q50 0 90.5 62.5t59.5 144.5t19 156q0 65 -13.5 98t-52.5 33q-50 0 -90.5 -62.5t-59.5 -144.5t-19 -156zM680 360q0 -69 -26 -135.5t-72.5 -118.5t-116.5 -84t-151 -32q-120 0 -192.5 70.5t-72.5 187.5q0 69 26 135.5t72.5 118.5
t116.5 84t151 32q120 0 192.5 -70.5t72.5 -187.5zM481 816h197l-195 -160h-98z" />
    <glyph glyph-name="Obreve.sc" horiz-adv-x="694" 
d="M247 188q0 -65 13.5 -98t52.5 -33q50 0 90.5 62.5t59.5 144.5t19 156q0 65 -13.5 98t-52.5 33q-50 0 -90.5 -62.5t-59.5 -144.5t-19 -156zM680 360q0 -69 -26 -135.5t-72.5 -118.5t-116.5 -84t-151 -32q-120 0 -192.5 70.5t-72.5 187.5q0 69 26 135.5t72.5 118.5
t116.5 84t151 32q120 0 192.5 -70.5t72.5 -187.5zM438 653q-60 0 -93.5 30.5t-33.5 81.5q0 29 11 58h66q-1 -5 -1 -14q0 -64 71 -64q74 0 105 78h74q-20 -80 -72 -125t-127 -45z" />
    <glyph glyph-name="Ocircumflex.sc" horiz-adv-x="694" 
d="M247 188q0 -65 13.5 -98t52.5 -33q50 0 90.5 62.5t59.5 144.5t19 156q0 65 -13.5 98t-52.5 33q-50 0 -90.5 -62.5t-59.5 -144.5t-19 -156zM680 360q0 -69 -26 -135.5t-72.5 -118.5t-116.5 -84t-151 -32q-120 0 -192.5 70.5t-72.5 187.5q0 69 26 135.5t72.5 118.5
t116.5 84t151 32q120 0 192.5 -70.5t72.5 -187.5zM548 816l92 -169h-89l-88 80l-134 -80h-101l184 169h136z" />
    <glyph glyph-name="Odieresis.sc" horiz-adv-x="694" 
d="M247 188q0 -65 13.5 -98t52.5 -33q50 0 90.5 62.5t59.5 144.5t19 156q0 65 -13.5 98t-52.5 33q-50 0 -90.5 -62.5t-59.5 -144.5t-19 -156zM680 360q0 -69 -26 -135.5t-72.5 -118.5t-116.5 -84t-151 -32q-120 0 -192.5 70.5t-72.5 187.5q0 69 26 135.5t72.5 118.5
t116.5 84t151 32q120 0 192.5 -70.5t72.5 -187.5zM347 653q-39 0 -63 24.5t-24 58.5q0 38 25.5 65.5t67.5 27.5q39 0 62.5 -24t23.5 -58q0 -39 -25.5 -66.5t-66.5 -27.5zM566 653q-39 0 -62.5 24.5t-23.5 58.5q0 39 25 66t67 27q39 0 62.5 -24t23.5 -58q0 -39 -25 -66.5
t-67 -27.5z" />
    <glyph glyph-name="Ograve.sc" horiz-adv-x="694" 
d="M247 188q0 -65 13.5 -98t52.5 -33q50 0 90.5 62.5t59.5 144.5t19 156q0 65 -13.5 98t-52.5 33q-50 0 -90.5 -62.5t-59.5 -144.5t-19 -156zM680 360q0 -69 -26 -135.5t-72.5 -118.5t-116.5 -84t-151 -32q-120 0 -192.5 70.5t-72.5 187.5q0 69 26 135.5t72.5 118.5
t116.5 84t151 32q120 0 192.5 -70.5t72.5 -187.5zM281 816h181l35 -160h-91z" />
    <glyph glyph-name="Ohungarumlaut.sc" horiz-adv-x="694" 
d="M247 188q0 -65 13.5 -98t52.5 -33q50 0 90.5 62.5t59.5 144.5t19 156q0 65 -13.5 98t-52.5 33q-50 0 -90.5 -62.5t-59.5 -144.5t-19 -156zM680 360q0 -69 -26 -135.5t-72.5 -118.5t-116.5 -84t-151 -32q-120 0 -192.5 70.5t-72.5 187.5q0 69 26 135.5t72.5 118.5
t116.5 84t151 32q120 0 192.5 -70.5t72.5 -187.5zM373 816h171l-179 -160h-88zM583 816h177l-185 -160h-88z" />
    <glyph glyph-name="Omacron.sc" horiz-adv-x="694" 
d="M247 188q0 -65 13.5 -98t52.5 -33q50 0 90.5 62.5t59.5 144.5t19 156q0 65 -13.5 98t-52.5 33q-50 0 -90.5 -62.5t-59.5 -144.5t-19 -156zM680 360q0 -69 -26 -135.5t-72.5 -118.5t-116.5 -84t-151 -32q-120 0 -192.5 70.5t-72.5 187.5q0 69 26 135.5t72.5 118.5
t116.5 84t151 32q120 0 192.5 -70.5t72.5 -187.5zM291 676l23 101h308l-23 -101h-308z" />
    <glyph glyph-name="Oslash.sc" horiz-adv-x="694" 
d="M415 618q63 0 118 -22l53 78l54 -30l-54 -79q94 -72 94 -205q0 -69 -26 -135.5t-72.5 -118.5t-116.5 -84t-151 -32q-60 0 -108 18l-63 -93l-54 30l62 91q-102 69 -102 212q0 69 26 135.5t72.5 118.5t116.5 84t151 32zM416 551q-50 0 -91.5 -62.5t-62 -144.5t-20.5 -156
v-19l232 341q-16 41 -58 41zM313 57q38 0 72 36.5t55.5 92t34 117.5t12.5 116l-227 -332q17 -30 53 -30z" />
    <glyph glyph-name="Oslashacute.sc" horiz-adv-x="694" 
d="M415 618q63 0 118 -22l53 78l54 -30l-54 -79q94 -72 94 -205q0 -69 -26 -135.5t-72.5 -118.5t-116.5 -84t-151 -32q-60 0 -108 18l-63 -93l-54 30l62 91q-102 69 -102 212q0 69 26 135.5t72.5 118.5t116.5 84t151 32zM416 551q-50 0 -91.5 -62.5t-62 -144.5t-20.5 -156
v-19l232 341q-16 41 -58 41zM313 57q38 0 72 36.5t55.5 92t34 117.5t12.5 116l-227 -332q17 -30 53 -30zM481 816h197l-195 -160h-98z" />
    <glyph glyph-name="Otilde.sc" horiz-adv-x="694" 
d="M247 188q0 -65 13.5 -98t52.5 -33q50 0 90.5 62.5t59.5 144.5t19 156q0 65 -13.5 98t-52.5 33q-50 0 -90.5 -62.5t-59.5 -144.5t-19 -156zM680 360q0 -69 -26 -135.5t-72.5 -118.5t-116.5 -84t-151 -32q-120 0 -192.5 70.5t-72.5 187.5q0 69 26 135.5t72.5 118.5
t116.5 84t151 32q120 0 192.5 -70.5t72.5 -187.5zM607 821l58 -11q-46 -92 -76 -121t-75 -29q-26 0 -70.5 31.5t-61.5 31.5q-14 0 -26.5 -8.5t-20.5 -18.5t-21 -29l-59 12q47 92 77 121t74 29q30 0 72.5 -31.5t59.5 -31.5q32 0 69 55z" />
    <glyph glyph-name="OE.sc" horiz-adv-x="948" 
d="M460 608h514l-37 -172h-71q-9 57 -28.5 81.5t-68.5 24.5h-75l-42 -194h50q30 0 46.5 13.5t31.5 51.5h62l-42 -199h-62q0 38 -10.5 52t-39.5 14h-50l-32 -146q-5 -20 -5 -30q0 -22 14 -30t44 -8h11q43 0 78 26t87 93h79l-66 -185h-491q-142 0 -225 64.5t-83 184.5
q0 160 113 259.5t298 99.5zM509 542h-53q-60 0 -104.5 -34.5t-66.5 -87t-32 -101t-10 -91.5q0 -160 127 -160h37z" />
    <glyph glyph-name="Racute.sc" horiz-adv-x="702" 
d="M383 540h-29l-51 -231h24q161 0 161 136q0 95 -105 95zM120 608h326q226 0 226 -161q0 -64 -49 -110t-116 -60l63 -153q15 -37 30 -48t50 -11l-14 -65h-207q-30 28 -49 93l-45 152h-46l-27 -123q-4 -20 -4 -25q0 -17 12.5 -23.5t45.5 -8.5l-14 -65h-315l14 65q45 2 59 13
t22 46l78 362q4 20 4 25q0 17 -12.5 23.5t-45.5 8.5zM444 816h197l-195 -160h-98z" />
    <glyph glyph-name="Rcaron.sc" horiz-adv-x="702" 
d="M383 540h-29l-51 -231h24q161 0 161 136q0 95 -105 95zM120 608h326q226 0 226 -161q0 -64 -49 -110t-116 -60l63 -153q15 -37 30 -48t50 -11l-14 -65h-207q-30 28 -49 93l-45 152h-46l-27 -123q-4 -20 -4 -25q0 -17 12.5 -23.5t45.5 -8.5l-14 -65h-315l14 65q45 2 59 13
t22 46l78 362q4 20 4 25q0 17 -12.5 23.5t-45.5 8.5zM337 656l-92 169h89l88 -80l134 80h101l-184 -169h-136z" />
    <glyph glyph-name="Rcommaaccent.sc" horiz-adv-x="702" 
d="M383 540h-29l-51 -231h24q161 0 161 136q0 95 -105 95zM120 608h326q226 0 226 -161q0 -64 -49 -110t-116 -60l63 -153q15 -37 30 -48t50 -11l-14 -65h-207q-30 28 -49 93l-45 152h-46l-27 -123q-4 -20 -4 -25q0 -17 12.5 -23.5t45.5 -8.5l-14 -65h-315l14 65q45 2 59 13
t22 46l78 362q4 20 4 25q0 17 -12.5 23.5t-45.5 8.5zM303 -158h-61q-41 11 -41 50q0 33 25 54.5t69 21.5q41 0 63.5 -22t22.5 -59q0 -61 -46 -99t-144 -38v45q49 0 78 13t34 34z" />
    <glyph glyph-name="Sacute.sc" horiz-adv-x="540" 
d="M238 -10q-74 0 -134 25t-86 60l24 132h91q2 -72 32.5 -114t86.5 -42q40 0 63 19t23 54q0 31 -20 50.5t-77 44.5q-82 36 -120 83t-38 112q0 94 70 149t181 55q126 0 200 -66l-27 -128h-78q-8 64 -30.5 98.5t-79.5 34.5q-36 0 -58 -20t-22 -49q0 -31 21 -49t78 -45
q88 -41 127 -82.5t39 -110.5q0 -103 -77.5 -157t-188.5 -54zM405 816h197l-195 -160h-98z" />
    <glyph glyph-name="Scaron.sc" horiz-adv-x="540" 
d="M238 -10q-74 0 -134 25t-86 60l24 132h91q2 -72 32.5 -114t86.5 -42q40 0 63 19t23 54q0 31 -20 50.5t-77 44.5q-82 36 -120 83t-38 112q0 94 70 149t181 55q126 0 200 -66l-27 -128h-78q-8 64 -30.5 98.5t-79.5 34.5q-36 0 -58 -20t-22 -49q0 -31 21 -49t78 -45
q88 -41 127 -82.5t39 -110.5q0 -103 -77.5 -157t-188.5 -54zM298 656l-92 169h89l88 -80l134 80h101l-184 -169h-136z" />
    <glyph glyph-name="Scedilla.sc" horiz-adv-x="540" 
d="M106 -233l-11 49q122 0 122 39q0 33 -76 36l50 102q-58 6 -104.5 29.5t-68.5 52.5l24 132h91q2 -72 32.5 -114t86.5 -42q40 0 63 19t23 54q0 31 -20 50.5t-77 44.5q-82 36 -120 83t-38 112q0 94 70 149t181 55q126 0 200 -66l-27 -128h-78q-8 64 -30.5 98.5t-79.5 34.5
q-36 0 -58 -20t-22 -49q0 -31 21 -49t78 -45q88 -41 127 -82.5t39 -110.5t-38.5 -118t-96.5 -70.5t-130 -22.5l-17 -34q86 -9 86 -78q0 -52 -60 -81.5t-142 -29.5z" />
    <glyph glyph-name="Scircumflex.sc" horiz-adv-x="540" 
d="M238 -10q-74 0 -134 25t-86 60l24 132h91q2 -72 32.5 -114t86.5 -42q40 0 63 19t23 54q0 31 -20 50.5t-77 44.5q-82 36 -120 83t-38 112q0 94 70 149t181 55q126 0 200 -66l-27 -128h-78q-8 64 -30.5 98.5t-79.5 34.5q-36 0 -58 -20t-22 -49q0 -31 21 -49t78 -45
q88 -41 127 -82.5t39 -110.5q0 -103 -77.5 -157t-188.5 -54zM472 816l92 -169h-89l-88 80l-134 -80h-101l184 169h136z" />
    <glyph glyph-name="Scommaaccent.sc" horiz-adv-x="540" 
d="M238 -10q-74 0 -134 25t-86 60l24 132h91q2 -72 32.5 -114t86.5 -42q40 0 63 19t23 54q0 31 -20 50.5t-77 44.5q-82 36 -120 83t-38 112q0 94 70 149t181 55q126 0 200 -66l-27 -128h-78q-8 64 -30.5 98.5t-79.5 34.5q-36 0 -58 -20t-22 -49q0 -31 21 -49t78 -45
q88 -41 127 -82.5t39 -110.5q0 -103 -77.5 -157t-188.5 -54zM212 -158h-61q-41 11 -41 50q0 33 25 54.5t69 21.5q41 0 63.5 -22t22.5 -59q0 -61 -46 -99t-144 -38v45q49 0 78 13t34 34z" />
    <glyph glyph-name="Tbar.sc" horiz-adv-x="677" 
d="M507 545l-45 -206h91l-15 -71h-91l-32 -146q-4 -20 -4 -25q0 -17 16 -24.5t55 -7.5l-14 -65h-343l14 65q46 0 64.5 12.5t26.5 46.5l31 144h-90l15 71h90l45 206h-8q-47 0 -78 -31.5t-83 -115.5h-78l58 210h590l-33 -210h-71q-11 74 -33.5 110.5t-70.5 36.5h-7z" />
    <glyph glyph-name="Tcaron.sc" horiz-adv-x="677" 
d="M507 545l-92 -423q-4 -20 -4 -25q0 -17 16 -24.5t55 -7.5l-14 -65h-343l14 65q46 0 64.5 12.5t26.5 46.5l91 421h-8q-47 0 -78 -31.5t-83 -115.5h-78l58 210h590l-33 -210h-71q-11 74 -33.5 110.5t-70.5 36.5h-7zM368 656l-92 169h89l88 -80l134 80h101l-184 -169h-136z
" />
    <glyph glyph-name="Thorn.sc" horiz-adv-x="635" 
d="M344 484l-1 -3h59q113 0 168 -40.5t55 -112.5q0 -198 -289 -198h-68q-3 -24 -3 -28q0 -25 19 -32.5t72 -8.5l-11 -61h-358l13 65q45 2 59.5 13t22.5 46l78 362q3 9 3 25q0 17 -11.5 24t-44.5 8l12 65h319l-12 -65q-46 -2 -61 -13.5t-21 -45.5zM330 414l-49 -223h19
q139 0 139 126q0 50 -23.5 73.5t-75.5 23.5h-10z" />
    <glyph glyph-name="Uacute.sc" horiz-adv-x="702" 
d="M537 246l51 240q3 14 3 25q0 17 -11.5 24t-44.5 8l13 65h217l-13 -65q-45 -2 -59.5 -13t-22.5 -46l-57 -266q-24 -113 -98.5 -170.5t-184.5 -57.5q-107 0 -171.5 57t-64.5 145q0 33 10 79l47 215q4 20 4 25q0 17 -12.5 23.5t-45.5 8.5l14 65h320l-14 -65q-45 -2 -59 -13
t-22 -46l-49 -219q-8 -35 -8 -65q0 -53 27.5 -81t76.5 -28q57 0 95.5 34t58.5 121zM525 816h197l-195 -160h-98z" />
    <glyph glyph-name="Ubreve.sc" horiz-adv-x="702" 
d="M537 246l51 240q3 14 3 25q0 17 -11.5 24t-44.5 8l13 65h217l-13 -65q-45 -2 -59.5 -13t-22.5 -46l-57 -266q-24 -113 -98.5 -170.5t-184.5 -57.5q-107 0 -171.5 57t-64.5 145q0 33 10 79l47 215q4 20 4 25q0 17 -12.5 23.5t-45.5 8.5l14 65h320l-14 -65q-45 -2 -59 -13
t-22 -46l-49 -219q-8 -35 -8 -65q0 -53 27.5 -81t76.5 -28q57 0 95.5 34t58.5 121zM481 653q-60 0 -93.5 30.5t-33.5 81.5q0 29 11 58h66q-1 -5 -1 -14q0 -64 71 -64q74 0 105 78h74q-20 -80 -72 -125t-127 -45z" />
    <glyph glyph-name="Ucircumflex.sc" horiz-adv-x="702" 
d="M537 246l51 240q3 14 3 25q0 17 -11.5 24t-44.5 8l13 65h217l-13 -65q-45 -2 -59.5 -13t-22.5 -46l-57 -266q-24 -113 -98.5 -170.5t-184.5 -57.5q-107 0 -171.5 57t-64.5 145q0 33 10 79l47 215q4 20 4 25q0 17 -12.5 23.5t-45.5 8.5l14 65h320l-14 -65q-45 -2 -59 -13
t-22 -46l-49 -219q-8 -35 -8 -65q0 -53 27.5 -81t76.5 -28q57 0 95.5 34t58.5 121zM592 816l92 -169h-89l-88 80l-134 -80h-101l184 169h136z" />
    <glyph glyph-name="Udieresis.sc" horiz-adv-x="702" 
d="M537 246l51 240q3 14 3 25q0 17 -11.5 24t-44.5 8l13 65h217l-13 -65q-45 -2 -59.5 -13t-22.5 -46l-57 -266q-24 -113 -98.5 -170.5t-184.5 -57.5q-107 0 -171.5 57t-64.5 145q0 33 10 79l47 215q4 20 4 25q0 17 -12.5 23.5t-45.5 8.5l14 65h320l-14 -65q-45 -2 -59 -13
t-22 -46l-49 -219q-8 -35 -8 -65q0 -53 27.5 -81t76.5 -28q57 0 95.5 34t58.5 121zM391 653q-39 0 -63 24.5t-24 58.5q0 38 25.5 65.5t67.5 27.5q39 0 62.5 -24t23.5 -58q0 -39 -25.5 -66.5t-66.5 -27.5zM610 653q-39 0 -62.5 24.5t-23.5 58.5q0 39 25 66t67 27
q39 0 62.5 -24t23.5 -58q0 -39 -25 -66.5t-67 -27.5z" />
    <glyph glyph-name="Ugrave.sc" horiz-adv-x="702" 
d="M537 246l51 240q3 14 3 25q0 17 -11.5 24t-44.5 8l13 65h217l-13 -65q-45 -2 -59.5 -13t-22.5 -46l-57 -266q-24 -113 -98.5 -170.5t-184.5 -57.5q-107 0 -171.5 57t-64.5 145q0 33 10 79l47 215q4 20 4 25q0 17 -12.5 23.5t-45.5 8.5l14 65h320l-14 -65q-45 -2 -59 -13
t-22 -46l-49 -219q-8 -35 -8 -65q0 -53 27.5 -81t76.5 -28q57 0 95.5 34t58.5 121zM325 816h181l35 -160h-91z" />
    <glyph glyph-name="Uhungarumlaut.sc" horiz-adv-x="702" 
d="M537 246l51 240q3 14 3 25q0 17 -11.5 24t-44.5 8l13 65h217l-13 -65q-45 -2 -59.5 -13t-22.5 -46l-57 -266q-24 -113 -98.5 -170.5t-184.5 -57.5q-107 0 -171.5 57t-64.5 145q0 33 10 79l47 215q4 20 4 25q0 17 -12.5 23.5t-45.5 8.5l14 65h320l-14 -65q-45 -2 -59 -13
t-22 -46l-49 -219q-8 -35 -8 -65q0 -53 27.5 -81t76.5 -28q57 0 95.5 34t58.5 121zM417 816h171l-179 -160h-88zM627 816h177l-185 -160h-88z" />
    <glyph glyph-name="Umacron.sc" horiz-adv-x="702" 
d="M537 246l51 240q3 14 3 25q0 17 -11.5 24t-44.5 8l13 65h217l-13 -65q-45 -2 -59.5 -13t-22.5 -46l-57 -266q-24 -113 -98.5 -170.5t-184.5 -57.5q-107 0 -171.5 57t-64.5 145q0 33 10 79l47 215q4 20 4 25q0 17 -12.5 23.5t-45.5 8.5l14 65h320l-14 -65q-45 -2 -59 -13
t-22 -46l-49 -219q-8 -35 -8 -65q0 -53 27.5 -81t76.5 -28q57 0 95.5 34t58.5 121zM334 676l23 101h308l-23 -101h-308z" />
    <glyph glyph-name="Uogonek.sc" horiz-adv-x="702" 
d="M537 246l51 240q3 14 3 25q0 17 -11.5 24t-44.5 8l13 65h217l-13 -65q-45 -2 -59.5 -13t-22.5 -46l-57 -266q-35 -163 -173 -211q-89 -53 -89 -106q0 -39 39 -39q30 0 72 25l16 -28q-78 -75 -155 -75q-37 0 -61.5 19.5t-24.5 52.5q0 76 100 134h-7q-107 0 -171.5 57
t-64.5 145q0 33 10 79l47 215q4 20 4 25q0 17 -12.5 23.5t-45.5 8.5l14 65h320l-14 -65q-45 -2 -59 -13t-22 -46l-49 -219q-8 -35 -8 -65q0 -53 27.5 -81t76.5 -28q57 0 95.5 34t58.5 121z" />
    <glyph glyph-name="Uring.sc" horiz-adv-x="702" 
d="M537 246l51 240q3 14 3 25q0 17 -11.5 24t-44.5 8l13 65h217l-13 -65q-45 -2 -59.5 -13t-22.5 -46l-57 -266q-24 -113 -98.5 -170.5t-184.5 -57.5q-107 0 -171.5 57t-64.5 145q0 33 10 79l47 215q4 20 4 25q0 17 -12.5 23.5t-45.5 8.5l14 65h320l-14 -65q-45 -2 -59 -13
t-22 -46l-49 -219q-8 -35 -8 -65q0 -53 27.5 -81t76.5 -28q57 0 95.5 34t58.5 121zM500 704q24 0 37.5 14t13.5 35q0 18 -11 28.5t-31 10.5q-24 0 -37.5 -14t-13.5 -34q0 -18 11 -29t31 -11zM495 647q-46 0 -75 26t-29 67q0 46 36.5 77.5t86.5 31.5q46 0 75 -26t29 -67
q0 -46 -36.5 -77.5t-86.5 -31.5z" />
    <glyph glyph-name="Utilde.sc" horiz-adv-x="702" 
d="M537 246l51 240q3 14 3 25q0 17 -11.5 24t-44.5 8l13 65h217l-13 -65q-45 -2 -59.5 -13t-22.5 -46l-57 -266q-24 -113 -98.5 -170.5t-184.5 -57.5q-107 0 -171.5 57t-64.5 145q0 33 10 79l47 215q4 20 4 25q0 17 -12.5 23.5t-45.5 8.5l14 65h320l-14 -65q-45 -2 -59 -13
t-22 -46l-49 -219q-8 -35 -8 -65q0 -53 27.5 -81t76.5 -28q57 0 95.5 34t58.5 121zM650 821l58 -11q-46 -92 -76 -121t-75 -29q-26 0 -70.5 31.5t-61.5 31.5q-14 0 -26.5 -8.5t-20.5 -18.5t-21 -29l-59 12q47 92 77 121t74 29q30 0 72.5 -31.5t59.5 -31.5q32 0 69 55z" />
    <glyph glyph-name="Wacute.sc" horiz-adv-x="912" 
d="M661 227l135 224q25 40 25 66q0 13 -10.5 19t-39.5 7l14 65h203l-14 -65q-17 -3 -24.5 -5t-17.5 -9t-17 -18l-317 -513h-71l-34 324l-206 -324h-66l-92 513q-5 24 -41 32l14 65h285l-14 -65q-56 -6 -57 -52q0 -15 3 -31l37 -234l120 184l-10 101q-3 25 -35 32l14 65h279
l-14 -65q-68 -3 -68 -59q0 -23 1 -40zM616 816h197l-195 -160h-98z" />
    <glyph glyph-name="Wcircumflex.sc" horiz-adv-x="912" 
d="M661 227l135 224q25 40 25 66q0 13 -10.5 19t-39.5 7l14 65h203l-14 -65q-17 -3 -24.5 -5t-17.5 -9t-17 -18l-317 -513h-71l-34 324l-206 -324h-66l-92 513q-5 24 -41 32l14 65h285l-14 -65q-56 -6 -57 -52q0 -15 3 -31l37 -234l120 184l-10 101q-3 25 -35 32l14 65h279
l-14 -65q-68 -3 -68 -59q0 -23 1 -40zM683 816l92 -169h-89l-88 80l-134 -80h-101l184 169h136z" />
    </font>
</defs>
</svg>
