<?xml version="1.0" standalone="no"?>
<!DOCTYPE svg PUBLIC "-//W3C//DTD SVG 1.1//EN" "http://www.w3.org/Graphics/SVG/1.1/DTD/svg11.dtd" >
<svg xmlns="http://www.w3.org/2000/svg" xmlns:xlink="http://www.w3.org/1999/xlink" version="1.1">
<metadata>
Created by FontForge 20170731 at Thu Oct  7 15:25:27 2010
 By Aleksey,,,
(c) 2010 Klim Type Foundry. All rights reserved.
</metadata>
<defs>
<font id="TiemposText-RegularItalic" horiz-adv-x="600" >
  <font-face 
    font-family="Tiempos Text Regular"
    font-weight="400"
    font-style="italic"
    font-stretch="normal"
    units-per-em="1000"
    panose-1="2 2 5 3 6 3 3 13 4 3"
    ascent="761"
    descent="-239"
    x-height="540"
    cap-height="702"
    bbox="-210 -230 1219 1028"
    underline-thickness="30"
    underline-position="-170"
    slope="-12"
    unicode-range="U+0020-FB04"
  />
<missing-glyph horiz-adv-x="960" 
 />
    <glyph glyph-name="ff" unicode="ff" horiz-adv-x="637" 
d="M388 102l64 380h-215l-69 -331q-42 -199 -93 -278.5t-135 -79.5q-40 0 -65 16.5t-25 44.5q0 47 53 60h14q16 -78 60 -78q18 0 30 13.5t30 71.5t37 169l67 392h-81l6 34l85 20q21 108 82.5 164t145.5 56q86 0 149 -61q56 71 143 71q49 0 77.5 -20.5t28.5 -53.5
q0 -48 -48 -62h-19q-2 42 -19.5 69.5t-45.5 27.5q-36 0 -59 -44.5t-34 -154.5h123l-6 -46h-122l-65 -319q-41 -199 -92.5 -278.5t-135.5 -79.5q-37 0 -58.5 16.5t-21.5 44.5q0 46 51 58h14q8 -40 19.5 -58t32.5 -18q18 0 30 13.5t30 71.5t37 169zM373 720q-50 0 -86.5 -43.5
t-44.5 -148.5h218q10 54 31 105q-16 34 -47.5 60.5t-70.5 26.5z" />
    <glyph glyph-name="fi" unicode="fi" horiz-adv-x="630" 
d="M60 482l6 34l85 20q21 107 87 168.5t156 61.5q57 0 91.5 -20.5t34.5 -53.5q0 -22 -15 -38.5t-38 -23.5h-12q-21 97 -81 97q-47 0 -85 -46.5t-48 -152.5h250l46 16h26l-105 -428q-9 -34 -9 -44q0 -15 14 -15q32 0 93 75l20 -21q-45 -67 -80.5 -94t-74.5 -27
q-28 0 -45 18.5t-17 49.5q0 27 14 86l84 338h-219l-70 -331q-42 -199 -93 -278.5t-135 -79.5q-40 0 -65 16.5t-25 44.5q0 47 53 60h14q16 -78 60 -78q18 0 30 13.5t30 71.5t37 169l67 392h-81z" />
    <glyph glyph-name="fl" unicode="fl" horiz-adv-x="616" 
d="M60 482l6 34l85 20q21 110 83 170t145 60q74 0 127 -49l75 44h23l-148 -645q-7 -29 -7 -44t14 -15q32 0 93 75l20 -21q-45 -67 -80.5 -94t-74.5 -27q-28 0 -45 18.5t-17 49.5t13 86l113 502q-14 33 -44 58.5t-68 25.5q-49 0 -86.5 -48t-45.5 -154h123l-6 -46h-120
l-70 -331q-42 -199 -93 -278.5t-135 -79.5q-40 0 -65 16.5t-25 44.5q0 47 53 60h14q16 -78 60 -78q18 0 30 13.5t30 71.5t37 169l67 392h-81z" />
    <glyph glyph-name="ffi" unicode="ffi" horiz-adv-x="941" 
d="M388 102l64 380h-215l-69 -331q-42 -199 -93 -278.5t-135 -79.5q-40 0 -65 16.5t-25 44.5q0 47 53 60h14q16 -78 60 -78q18 0 30 13.5t30 71.5t37 169l67 392h-81l6 34l85 20q21 108 82.5 164t145.5 56q45 0 87 -20t68 -47q68 77 171 77q57 0 91.5 -20.5t34.5 -53.5
q0 -22 -15 -38.5t-38 -23.5h-12q-21 97 -81 97q-47 0 -85 -46.5t-48 -152.5h250l46 16h26l-105 -428q-9 -34 -9 -44q0 -15 14 -15q32 0 93 75l20 -21q-45 -67 -80.5 -94t-74.5 -27q-28 0 -45 18.5t-17 49.5q0 27 14 86l84 338h-221l-65 -319q-41 -199 -92.5 -278.5
t-135.5 -79.5q-37 0 -58.5 16.5t-21.5 44.5q0 46 51 58h14q8 -40 19.5 -58t32.5 -18q18 0 30 13.5t30 72t37 168.5zM373 720q-50 0 -86.5 -43.5t-44.5 -148.5h218q11 56 33 101q-15 35 -47.5 63t-72.5 28z" />
    <glyph glyph-name="ffl" unicode="ffl" horiz-adv-x="927" 
d="M669 482h-122l-65 -319q-41 -199 -92.5 -278.5t-135.5 -79.5q-37 0 -58.5 16.5t-21.5 44.5q0 46 51 58h14q8 -40 19.5 -58t32.5 -18q18 0 30 13.5t30 71.5t37 169l64 380h-215l-69 -331q-42 -199 -93 -278.5t-135 -79.5q-40 0 -65 16.5t-25 44.5q0 47 53 60h14
q16 -78 60 -78q18 0 30 13.5t30 71.5t37 169l67 392h-81l6 34l85 20q21 108 82.5 164t145.5 56q44 0 85.5 -19t67.5 -46q64 75 158 75q74 0 127 -49l75 44h23l-148 -645q-7 -29 -7 -44t14 -15q32 0 93 75l20 -21q-45 -67 -80.5 -94t-74.5 -27q-28 0 -45 18.5t-17 49.5t13 86
l113 502q-14 33 -44 58.5t-68 25.5q-49 0 -86.5 -48t-45.5 -154h123zM460 528q10 57 32 102q-15 34 -47 62t-72 28q-50 0 -86.5 -43.5t-44.5 -148.5h218z" />
    <glyph glyph-name="f_b" unicode="fb" horiz-adv-x="897" 
d="M60 482l6 34l85 20q21 110 83 170t145 60q74 0 127 -49l75 44h23l-78 -335l-52 -149h7q147 263 272 263q53 0 81.5 -39t28.5 -103q0 -78 -32 -154.5t-81.5 -131t-111.5 -88.5t-121 -34t-100.5 30.5t-53.5 85.5l122 540q-14 33 -44 58.5t-68 25.5q-49 0 -86.5 -48
t-45.5 -154h123l-6 -46h-120l-70 -331q-42 -199 -93 -278.5t-135 -79.5q-40 0 -65 16.5t-25 44.5q0 47 53 60h14q16 -78 60 -78q18 0 30 13.5t30 71.5t37 169l67 392h-81zM712 473q-54 0 -142 -109.5t-120 -253.5q0 -34 20 -56t52 -22q62 0 120.5 56t93.5 139.5t35 164.5
t-59 81z" />
    <glyph glyph-name="f_f_b" unicode="ffb" horiz-adv-x="1208" 
d="M669 482h-122l-65 -319q-41 -199 -92.5 -278.5t-135.5 -79.5q-37 0 -58.5 16.5t-21.5 44.5q0 46 51 58h14q8 -40 19.5 -58t32.5 -18q18 0 30 13.5t30 71.5t37 169l64 380h-215l-69 -331q-42 -199 -93 -278.5t-135 -79.5q-40 0 -65 16.5t-25 44.5q0 47 53 60h14
q16 -78 60 -78q18 0 30 13.5t30 71.5t37 169l67 392h-81l6 34l85 20q21 108 82.5 164t145.5 56q44 0 85.5 -19t67.5 -46q64 75 158 75q74 0 127 -49l75 44h23l-78 -335l-52 -149h7q147 263 272 263q53 0 81.5 -39t28.5 -103q0 -78 -32 -154.5t-81.5 -131t-111.5 -88.5
t-121 -34t-100.5 30.5t-53.5 85.5l122 540q-14 33 -44 58.5t-68 25.5q-49 0 -86.5 -48t-45.5 -154h123zM1023 473q-54 0 -142 -109.5t-120 -253.5q0 -34 20 -56t52 -22q62 0 120.5 56t93.5 139.5t35 164.5t-59 81zM460 528q10 57 32 102q-15 34 -47 62t-72 28
q-50 0 -86.5 -43.5t-44.5 -148.5h218z" />
    <glyph glyph-name="f_h" unicode="fh" horiz-adv-x="918" 
d="M60 482l6 34l85 20q21 110 83 170t145 60q74 0 127 -49l75 44h23l-83 -358l-34 -112h7q52 91 131 170t145 79q68 0 68 -71q0 -18 -6 -44l-82 -309q-9 -34 -9 -44q0 -15 14 -15q32 0 93 75l20 -21q-45 -67 -80.5 -94t-74.5 -27q-28 0 -45 18.5t-17 49.5q0 33 14 86l75 278
q5 22 5 33q0 21 -18 21q-53 0 -142 -103.5t-122 -233.5l-35 -139h-91l148 646q-14 33 -44 58.5t-68 25.5q-49 0 -86.5 -48t-45.5 -154h123l-6 -46h-120l-70 -331q-42 -199 -93 -278.5t-135 -79.5q-40 0 -65 16.5t-25 44.5q0 47 53 60h14q16 -78 60 -78q18 0 30 13.5t30 71.5
t37 169l67 392h-81z" />
    <glyph glyph-name="f_f_h" unicode="ffh" horiz-adv-x="1229" 
d="M669 482h-122l-65 -319q-41 -199 -92.5 -278.5t-135.5 -79.5q-37 0 -58.5 16.5t-21.5 44.5q0 46 51 58h14q8 -40 19.5 -58t32.5 -18q18 0 30 13.5t30 71.5t37 169l64 380h-215l-69 -331q-42 -199 -93 -278.5t-135 -79.5q-40 0 -65 16.5t-25 44.5q0 47 53 60h14
q16 -78 60 -78q18 0 30 13.5t30 71.5t37 169l67 392h-81l6 34l85 20q21 108 82.5 164t145.5 56q44 0 85.5 -19t67.5 -46q64 75 158 75q74 0 127 -49l75 44h23l-83 -358l-34 -112h7q52 91 131 170t145 79q68 0 68 -71q0 -18 -6 -44l-82 -309q-9 -34 -9 -44q0 -15 14 -15
q32 0 93 75l20 -21q-45 -67 -80.5 -94t-74.5 -27q-28 0 -45 18.5t-17 49.5q0 33 14 86l75 278q5 22 5 33q0 21 -18 21q-53 0 -142 -103.5t-122 -233.5l-35 -139h-91l148 646q-14 33 -44 58.5t-68 25.5q-49 0 -86.5 -48t-45.5 -154h123zM460 528q10 57 32 102q-15 34 -47 62
t-72 28q-50 0 -86.5 -43.5t-44.5 -148.5h218z" />
    <glyph glyph-name="f_idieresis" unicode="f&#xef;" horiz-adv-x="630" 
d="M60 482l6 34l85 20q21 107 87 168.5t156 61.5q57 0 90 -20.5t33 -55.5q0 -23 -15 -40.5t-38 -24.5h-18q-8 49 -23.5 75.5t-48.5 26.5q-47 0 -85 -46.5t-48 -152.5h250l46 16h26l-105 -428q-9 -34 -9 -44q0 -15 14 -15q32 0 93 75l20 -21q-45 -67 -80.5 -94t-74.5 -27
q-28 0 -45 18.5t-17 49.5q0 27 14 86l84 338h-219l-70 -331q-42 -199 -93 -278.5t-135 -79.5q-40 0 -65 16.5t-25 44.5q0 47 53 60h14q16 -78 60 -78q18 0 30 13.5t30 71.5t37 169l67 392h-81zM634 615q-25 0 -41.5 16.5t-16.5 41.5q0 26 18.5 45t44.5 19q25 0 41.5 -16.5
t16.5 -41.5q0 -26 -18.5 -45t-44.5 -19z" />
    <glyph glyph-name="f_f_idieresis" unicode="ff&#xef;" horiz-adv-x="941" 
d="M74 90l67 392h-81l6 34l85 20q21 108 82.5 164t145.5 56q45 0 87 -20t68 -47q68 77 171 77q57 0 90 -20.5t33 -55.5q0 -23 -15 -40.5t-38 -24.5h-18q-8 49 -23.5 75.5t-48.5 26.5q-47 0 -85 -46.5t-48 -152.5h250l46 16h26l-105 -428q-9 -34 -9 -44q0 -15 14 -15
q32 0 93 75l20 -21q-45 -67 -80.5 -94t-74.5 -27q-28 0 -45 18.5t-17 49.5q0 27 14 86l84 338h-221l-65 -319q-41 -199 -92.5 -278.5t-135.5 -79.5q-37 0 -58.5 16.5t-21.5 44.5q0 46 51 58h14q8 -40 19.5 -58t32.5 -18q18 0 30 13.5t30 72t37 168.5l64 380h-215l-69 -331
q-42 -199 -93 -278.5t-135 -79.5q-40 0 -65 16.5t-25 44.5q0 47 53 60h14q16 -78 60 -78q18 0 30 13.5t30 71.5t37 169zM460 528q11 56 33 101q-15 35 -47.5 63t-72.5 28q-50 0 -86.5 -43.5t-44.5 -148.5h218zM945 615q-25 0 -41.5 16.5t-16.5 41.5q0 26 18.5 45t44.5 19
q25 0 41.5 -16.5t16.5 -41.5q0 -26 -18.5 -45t-44.5 -19z" />
    <glyph glyph-name="f_j" unicode="fj" horiz-adv-x="593" 
d="M74 90l67 392h-81l6 34l85 20q21 107 87 168.5t156 61.5q57 0 91.5 -20.5t34.5 -53.5q0 -22 -15 -38.5t-38 -23.5h-12q-21 97 -81 97q-47 0 -85 -46.5t-48 -152.5h250l46 16h26l-98 -435q-33 -146 -85.5 -224.5t-135.5 -78.5q-40 0 -65 16.5t-25 44.5q0 47 53 60h14
q16 -78 59 -78q23 0 39 35.5t32 106.5l106 491h-219l-70 -331q-42 -199 -93 -278.5t-135 -79.5q-40 0 -65 16.5t-25 44.5q0 47 53 60h14q16 -78 60 -78q18 0 30 13.5t30 71.5t37 169z" />
    <glyph glyph-name="f_f_j" unicode="ffj" horiz-adv-x="904" 
d="M388 102l64 380h-215l-69 -331q-42 -199 -93 -278.5t-135 -79.5q-40 0 -65 16.5t-25 44.5q0 47 53 60h14q16 -78 60 -78q18 0 30 13.5t30 71.5t37 169l67 392h-81l6 34l85 20q21 108 82.5 164t145.5 56q45 0 87 -20t68 -47q68 77 171 77q57 0 91.5 -20.5t34.5 -53.5
q0 -22 -15 -38.5t-38 -23.5h-12q-21 97 -81 97q-47 0 -85 -46.5t-48 -152.5h250l46 16h26l-98 -435q-33 -146 -85.5 -224.5t-135.5 -78.5q-40 0 -65 16.5t-25 44.5q0 47 53 60h14q16 -78 59 -78q23 0 39 35.5t32 106.5l106 491h-221l-65 -319q-41 -199 -92.5 -278.5
t-135.5 -79.5q-37 0 -58.5 16.5t-21.5 44.5q0 46 51 58h14q8 -40 19.5 -58t32.5 -18q18 0 30 13.5t30 72t37 168.5zM373 720q-50 0 -86.5 -43.5t-44.5 -148.5h218q11 56 33 101q-15 35 -47.5 63t-72.5 28z" />
    <glyph glyph-name="f_k" unicode="fk" horiz-adv-x="873" 
d="M60 482l6 34l85 20q21 110 83 170t145 60q74 0 127 -49l75 44h23l-176 -761h-91l148 646q-14 33 -44 58.5t-68 25.5q-49 0 -86.5 -48t-45.5 -154h123l-6 -46h-120l-70 -331q-42 -199 -93 -278.5t-135 -79.5q-40 0 -65 16.5t-25 44.5q0 47 53 60h14q16 -78 60 -78
q18 0 30 13.5t30 71.5t37 169l67 392h-81zM592 315l87 -197q15 -33 27 -49.5t26 -16.5q30 0 91 77l18 -22q-72 -117 -143 -117q-37 0 -60 27t-45 79l-79 191l189 204q44 49 91 49q31 0 47 -17t16 -41q0 -45 -56 -68h-14q0 42 -36 42q-33 0 -73 -45z" />
    <glyph glyph-name="f_f_k" unicode="ffk" horiz-adv-x="1184" 
d="M669 482h-122l-65 -319q-41 -199 -92.5 -278.5t-135.5 -79.5q-37 0 -58.5 16.5t-21.5 44.5q0 46 51 58h14q8 -40 19.5 -58t32.5 -18q18 0 30 13.5t30 71.5t37 169l64 380h-215l-69 -331q-42 -199 -93 -278.5t-135 -79.5q-40 0 -65 16.5t-25 44.5q0 47 53 60h14
q16 -78 60 -78q18 0 30 13.5t30 71.5t37 169l67 392h-81l6 34l85 20q21 108 82.5 164t145.5 56q44 0 85.5 -19t67.5 -46q64 75 158 75q74 0 127 -49l75 44h23l-176 -761h-91l148 646q-14 33 -44 58.5t-68 25.5q-49 0 -86.5 -48t-45.5 -154h123zM903 315l87 -197
q15 -33 27 -49.5t26 -16.5q30 0 91 77l18 -22q-72 -117 -143 -117q-37 0 -60 27t-45 79l-79 191l189 204q44 49 91 49q31 0 47 -17t16 -41q0 -45 -56 -68h-14q0 42 -36 42q-33 0 -73 -45zM460 528q10 57 32 102q-15 34 -47 62t-72 28q-50 0 -86.5 -43.5t-44.5 -148.5h218z
" />
    <glyph glyph-name=".notdef" horiz-adv-x="960" 
 />
    <glyph glyph-name=".null" horiz-adv-x="0" 
 />
    <glyph glyph-name="nonmarkingreturn" horiz-adv-x="333" 
 />
    <glyph glyph-name="space" unicode=" " horiz-adv-x="200" 
 />
    <glyph glyph-name="exclam" unicode="!" horiz-adv-x="292" 
d="M37 63q0 31 21 52t52 21t52 -21t21 -52t-21 -52t-52 -21t-52 21t-21 52zM321 702l-162 -499h-47l74 499h135z" />
    <glyph glyph-name="quotedbl" unicode="&#x22;" horiz-adv-x="388" 
d="M151 482h-22l15 145q1 8 2.5 23.5t2 22.5t2 18.5t3.5 18t4.5 14.5t6.5 14q17 24 45 24q21 0 34 -13.5t13 -34.5q0 -12 -4 -26t-8 -22.5t-13.5 -26t-12.5 -23.5zM321 482h-22l15 145q1 8 2.5 23.5t2 22.5t2 18.5t3.5 18t4.5 14.5t6.5 14q17 24 45 24q21 0 34 -13.5
t13 -34.5q0 -12 -4 -26t-8 -22.5t-13.5 -26t-12.5 -23.5z" />
    <glyph glyph-name="numbersign" unicode="#" horiz-adv-x="612" 
d="M517 210h-128l-79 -220l-51 18l73 202h-136l-79 -220l-51 18l73 202h-105v53h124l64 177h-108v53h127l80 220l51 -18l-73 -202h135l80 220l51 -18l-73 -202h105v-53h-124l-65 -177h109v-53zM280 440l-65 -177h136l64 177h-135z" />
    <glyph glyph-name="dollar" unicode="$" horiz-adv-x="553" 
d="M257 -10l-20 -103h-45l20 106q-112 12 -186 84l26 166h34q12 -176 136 -202l54 280l-11 7q-71 39 -104.5 84t-33.5 107q0 88 60 140.5t153 52.5h12l20 102h45l-21 -107q90 -14 153 -67l-28 -146h-33q-16 137 -102 163l-50 -260q79 -44 118.5 -89.5t39.5 -110.5
q0 -97 -71.5 -152t-165.5 -55zM404 168q0 41 -20.5 70t-66.5 59l-51 -259q60 2 99 35t39 95zM211 541q0 -39 19.5 -67t64.5 -55l48 245h-4q-64 0 -96 -32.5t-32 -90.5z" />
    <glyph glyph-name="percent" unicode="%" horiz-adv-x="865" 
d="M261 671q-49 0 -80.5 -56.5t-31.5 -126.5q0 -100 75 -100q49 0 80.5 56.5t31.5 126.5q0 100 -75 100zM106 -19l613 741h60l-613 -741h-60zM223 347q-66 0 -109 44t-43 114q0 92 58.5 149.5t132.5 57.5q66 0 109 -44t43 -114q0 -92 -58.5 -149.5t-132.5 -57.5zM624 32
q49 0 80.5 56.5t31.5 126.5q0 100 -75 100q-49 0 -80.5 -56.5t-31.5 -126.5q0 -100 75 -100zM662 356q66 0 109 -44t43 -114q0 -92 -58.5 -149.5t-132.5 -57.5q-66 0 -109 44t-43 114q0 92 58.5 149.5t132.5 57.5z" />
    <glyph glyph-name="ampersand" unicode="&#x26;" horiz-adv-x="675" 
d="M15 168q0 79 57.5 136t146.5 88q-40 67 -40 132q0 80 56 134t143 54q74 0 114 -35t40 -94q0 -65 -52 -112.5t-155 -82.5l138 -214q47 73 47 146q0 21 -9.5 29.5t-31.5 8.5l8 39h203l-8 -39q-58 0 -77.5 -13t-34.5 -59q-31 -86 -73 -148l29 -45q36 -55 107 -55l-8 -38
h-118q-35 19 -70 70q-89 -80 -216 -80q-83 0 -139.5 46.5t-56.5 131.5zM243 40q86 0 161 65l-164 255q-56 -26 -93.5 -73t-37.5 -110q0 -62 37 -99.5t97 -37.5zM256 549q0 -56 48 -129l1 -2q78 26 113 62t35 97q0 93 -88 93q-43 0 -76 -33t-33 -88z" />
    <glyph glyph-name="quotesingle" unicode="'" horiz-adv-x="218" 
d="M151 482h-22l15 145q1 8 2.5 23.5t2 22.5t2 18.5t3.5 18t4.5 14.5t6.5 14q17 24 45 24q21 0 34 -13.5t13 -34.5q0 -12 -4 -26t-8 -22.5t-13.5 -26t-12.5 -23.5z" />
    <glyph glyph-name="parenleft" unicode="(" horiz-adv-x="338" 
d="M59 187q0 163 83.5 319t223.5 264h50q-143 -125 -211 -290t-68 -329q0 -167 90 -292h-50q-58 62 -88 148t-30 180z" />
    <glyph glyph-name="parenright" unicode=")" horiz-adv-x="338" 
d="M306 442q0 -163 -83.5 -319t-223.5 -264h-50q143 125 211 290t68 329q0 167 -90 292h50q58 -62 88 -148t30 -180z" />
    <glyph glyph-name="asterisk" unicode="*" horiz-adv-x="436" 
d="M396 420l-97 132l-41 -157l-53 19l66 149l-158 -43l-10 56l162 17l-115 115l42 37l97 -133l42 158l52 -19l-66 -149l158 43l10 -56l-162 -16l116 -116z" />
    <glyph glyph-name="plus" unicode="+" horiz-adv-x="563" 
d="M309 590h62l-40 -188h189l-14 -62h-188l-39 -188h-61l39 188h-189l15 62h187z" />
    <glyph glyph-name="comma" unicode="," horiz-adv-x="324" 
d="M131 8h-30q-42 12 -42 56q0 26 18.5 44.5t45.5 18.5q34 0 53.5 -21.5t19.5 -59.5q0 -63 -52.5 -117t-128.5 -61v38q102 22 116 102z" />
    <glyph glyph-name="hyphen" unicode="-" horiz-adv-x="360" 
d="M285 267h-240l20 76h240z" />
    <glyph glyph-name="period" unicode="." horiz-adv-x="324" 
d="M56 63q0 31 21 52t52 21t52 -21t21 -52t-21 -52t-52 -21t-52 21t-21 52z" />
    <glyph glyph-name="slash" unicode="/" horiz-adv-x="397" 
d="M474 770l-471 -911h-60l470 911h61z" />
    <glyph glyph-name="zero" unicode="0" horiz-adv-x="625" 
d="M269 38q67 0 121 68.5t80.5 162t26.5 183.5q0 211 -114 211q-67 0 -121 -68.5t-80.5 -162t-26.5 -183.5q0 -211 114 -211zM261 -10q-102 0 -156 75t-54 188q0 114 40.5 218t120 172t179.5 68q102 0 156 -75t54 -188q0 -114 -40.5 -218t-120 -172t-179.5 -68z" />
    <glyph glyph-name="one" unicode="1" horiz-adv-x="414" 
d="M344 711h22l-123 -578q-6 -29 -6 -43q0 -29 21.5 -37t94.5 -13l-7 -40h-356l7 40q83 6 108.5 17t34.5 55l99 464h-138l6 31l36 6q76 12 115 30.5t86 67.5z" />
    <glyph glyph-name="two" unicode="2" horiz-adv-x="553" 
d="M127 82h151q67 0 98 18t81 88h30l-60 -188h-447l5 22q190 158 276.5 241t119.5 138.5t33 118.5q0 52 -30.5 83t-85.5 31q-59 0 -101.5 -25.5t-85.5 -72.5l-19 23q94 153 245 153q83 0 132 -46.5t49 -124.5q0 -34 -8.5 -66t-31 -65t-43 -58.5t-62 -63t-70 -61.5t-86 -70.5
t-90.5 -74.5z" />
    <glyph glyph-name="three" unicode="3" horiz-adv-x="542" 
d="M192 372q95 23 157.5 70.5t62.5 109.5q0 40 -26 62.5t-72 22.5q-93 0 -176 -91l-20 24q98 142 236 142q72 0 114 -37.5t42 -94.5q0 -129 -176 -185q70 -11 111 -54t41 -106q0 -59 -24.5 -107.5t-63.5 -77.5t-84.5 -44.5t-90.5 -15.5q-107 0 -160.5 43.5t-53.5 100.5
q0 65 59 93h56q-16 -42 -16 -84q0 -47 29.5 -79t85.5 -32q72 0 119.5 49.5t47.5 132.5q0 59 -34 95.5t-93 36.5q-34 0 -65 -8z" />
    <glyph glyph-name="four" unicode="4" horiz-adv-x="605" 
d="M84 232h268l69 331zM325 112l15 68h-340l7 38l491 484h48l-99 -470h121l-12 -52h-121l-12 -55q-5 -25 -5 -35q0 -29 21.5 -39t69.5 -12l-7 -39h-303l7 39q56 2 83 16t36 57z" />
    <glyph glyph-name="five" unicode="5" horiz-adv-x="552" 
d="M542 702l-30 -95h-268l-52 -155q83 -1 148 -22t108.5 -72.5t43.5 -128.5q0 -105 -72.5 -172t-181.5 -67q-105 0 -158.5 44.5t-53.5 101.5q0 62 55 89h54q-14 -34 -14 -75q0 -51 29 -83.5t91 -32.5q70 0 113 45.5t43 120.5q0 51 -21.5 85.5t-62.5 52.5t-87.5 25.5
t-109.5 7.5l112 331h314z" />
    <glyph glyph-name="six" unicode="6" horiz-adv-x="593" 
d="M555 676q-305 -86 -377 -311q79 81 174 81q90 0 140 -53.5t50 -136.5q0 -113 -77 -189.5t-181 -76.5q-109 0 -168 66t-59 172q0 175 134.5 311t355.5 172zM310 393q-73 0 -142 -64q-12 -51 -12 -110q0 -84 32.5 -134t96.5 -50q74 0 115.5 58.5t41.5 144.5q0 70 -35 112.5
t-97 42.5z" />
    <glyph glyph-name="seven" unicode="7" horiz-adv-x="503" 
d="M477 607h-262q-37 0 -58.5 -13t-49.5 -52h-36l73 160h425l-5 -28l-416 -674h-109z" />
    <glyph glyph-name="eight" unicode="8" horiz-adv-x="575" 
d="M552 546q0 -64 -51.5 -108t-123.5 -63l28 -19q103 -69 103 -163q0 -92 -65 -147.5t-171 -55.5q-107 0 -169 51.5t-62 132.5q0 71 52.5 118.5t137.5 69.5l-17 14q-76 63 -76 143q0 81 59.5 137t153.5 56q88 0 144.5 -43t56.5 -123zM340 293l-85 54q-119 -53 -119 -172
q0 -62 36.5 -101t100.5 -39q60 0 103.5 35t43.5 94q0 78 -80 129zM291 432l65 -42q108 58 108 156q0 54 -30 87.5t-83 33.5t-88.5 -32t-35.5 -86q0 -75 64 -117z" />
    <glyph glyph-name="nine" unicode="9" horiz-adv-x="593" 
d="M68 26q303 84 377 310q-80 -80 -174 -80q-90 0 -140 53.5t-50 136.5q0 113 77 189.5t181 76.5q109 0 168 -66t59 -172q0 -175 -134.5 -311t-355.5 -172zM313 309q74 0 142 64q12 51 12 110q0 84 -32.5 134t-96.5 50q-74 0 -115.5 -58.5t-41.5 -144.5q0 -70 35 -112.5
t97 -42.5z" />
    <glyph glyph-name="colon" unicode=":" horiz-adv-x="324" 
d="M56 63q0 31 21 52t52 21t52 -21t21 -52t-21 -52t-52 -21t-52 21t-21 52zM117 375q0 31 21 52t52 21t52 -21t21 -52t-21 -52t-52 -21t-52 21t-21 52z" />
    <glyph glyph-name="semicolon" unicode=";" horiz-adv-x="324" 
d="M131 8h-30q-42 12 -42 56q0 26 18.5 44.5t45.5 18.5q34 0 53.5 -21.5t19.5 -59.5q0 -63 -52.5 -117t-128.5 -61v38q102 22 116 102zM117 375q0 31 21 52t52 21t52 -21t21 -52t-21 -52t-52 -21t-52 21t-21 52z" />
    <glyph glyph-name="less" unicode="&#x3c;" horiz-adv-x="413" 
d="M57 364l3 10l349 189l-15 -80l-225 -118l174 -117l-15 -73z" />
    <glyph glyph-name="equal" unicode="=" horiz-adv-x="574" 
d="M61 271l12 61h438l-13 -61h-437zM89 409l13 62h437l-12 -62h-438z" />
    <glyph glyph-name="greater" unicode="&#x3e;" horiz-adv-x="413" 
d="M387 374l-2 -10l-350 -189l17 80l223 118l-175 118l17 72z" />
    <glyph glyph-name="question" unicode="?" horiz-adv-x="440" 
d="M94 63q0 31 21 52t52 21t52 -21t21 -52t-21 -52t-52 -21t-52 21t-21 52zM278 442q56 32 80 59.5t24 73.5q0 42 -25 66.5t-68 24.5q-44 0 -69.5 -27t-25.5 -75q0 -14 5 -36h-74q-24 18 -24 57q0 56 54 91t136 35q83 0 132.5 -41t49.5 -110q0 -65 -35.5 -103.5
t-111.5 -80.5q-60 -33 -89.5 -65t-29.5 -78q0 -15 3 -29h-26q-28 39 -28 82q0 85 122 156z" />
    <glyph glyph-name="at" unicode="@" horiz-adv-x="905" 
d="M619 75q-48 0 -72.5 28.5t-23.5 70.5t14 89h-6q-35 -83 -83.5 -135t-96.5 -52q-43 0 -68 33t-25 91q0 115 76 208.5t167 93.5q56 0 90 -32l47 38h37l-27 -89l-50 -208q-23 -96 33 -96q42 0 76 29t52.5 73.5t28 89t9.5 83.5q0 120 -72 191t-206 71q-106 0 -198 -62.5
t-144.5 -163t-52.5 -211.5q0 -137 89 -221t234 -84q139 0 268 73l12 -30q-52 -42 -130.5 -66t-162.5 -24q-171 0 -274.5 95.5t-103.5 256.5q0 89 35.5 175t96.5 153t148.5 108t185.5 41q156 0 246.5 -83t90.5 -219q0 -51 -15 -104.5t-43 -101.5t-75.5 -78.5t-106.5 -30.5z
M384 134q44 0 97.5 82.5t87.5 211.5q-19 37 -60 37q-69 0 -118 -87.5t-49 -175.5q0 -68 42 -68z" />
    <glyph glyph-name="A" unicode="A" horiz-adv-x="717" 
d="M502 122l-22 105h-294l-64 -104q-20 -31 -20 -49q0 -19 20.5 -26t66.5 -9l-7 -39h-225l8 39q26 4 41.5 11t27.5 26l354 569l-17 66h106l136 -635q4 -19 17 -26.5t37 -10.5l-7 -39h-267l7 39q35 1 53.5 4t34.5 15.5t16 36.5q0 7 -2 27zM407 585l-191 -309h254z" />
    <glyph glyph-name="B" unicode="B" horiz-adv-x="682" 
d="M-12 0l9 39q55 2 81.5 16t35.5 57l99 463q5 25 5 37q0 29 -19.5 39t-70.5 12l8 39h300q103 0 159 -38.5t56 -114.5q0 -85 -65.5 -135.5t-149.5 -53.5q83 -7 131 -45.5t48 -106.5q0 -96 -81 -152t-211 -56h-335zM350 336h-92l-46 -217q-4 -20 -4 -31q0 -24 21.5 -33.5
t69.5 -9.5h18q93 0 145 42.5t52 122.5q0 61 -38 93.5t-126 32.5zM411 656h-85l-58 -275h68q97 0 155.5 39.5t58.5 124.5q0 111 -139 111z" />
    <glyph glyph-name="C" unicode="C" horiz-adv-x="666" 
d="M342 -10q-132 0 -207 73t-75 204q0 181 118.5 313t289.5 132q132 0 211 -61l-30 -149h-34q-13 161 -153 161q-89 0 -159 -58.5t-104.5 -146.5t-34.5 -184q0 -112 48.5 -173t133.5 -61q78 0 128 42t101 143h42l-47 -170q-114 -65 -228 -65z" />
    <glyph glyph-name="D" unicode="D" horiz-adv-x="747" 
d="M395 656h-69l-111 -523q-5 -23 -5 -39q0 -29 17 -38.5t65 -9.5h6q136 0 229.5 99t93.5 269q0 108 -52.5 175t-173.5 67zM-12 0l9 39q55 2 81.5 16t35.5 57l99 463q5 25 5 37q0 29 -19.5 39t-70.5 12l8 39h275q162 0 238.5 -79t76.5 -209q0 -178 -126.5 -296t-312.5 -118
h-299z" />
    <glyph glyph-name="E" unicode="E" horiz-adv-x="669" 
d="M-12 0l9 39q55 2 81.5 16t35.5 57l99 463q5 25 5 37q0 29 -19.5 39t-70.5 12l8 39h557l-36 -167h-27q-16 73 -34.5 97t-75.5 24h-194l-58 -274h160q33 0 54 21.5t39 68.5h34l-48 -226h-34q0 48 -11.5 69t-43.5 21h-160l-43 -205q-5 -22 -5 -39q0 -27 20 -36.5t69 -9.5h76
q66 0 106.5 26.5t107.5 107.5h29l-68 -180h-562z" />
    <glyph glyph-name="F" unicode="F" horiz-adv-x="612" 
d="M-12 0l9 39q55 2 81.5 16t35.5 57l99 463q5 25 5 37q0 29 -19.5 39t-70.5 12l8 39h533l-37 -173h-27q-7 34 -11 48t-12 33.5t-18 26.5t-27 13t-41 6h-169l-62 -289h136q33 0 53.5 21.5t38.5 68.5h34l-47 -226h-34q0 48 -11.5 69t-43.5 21h-136l-40 -189q-6 -28 -6 -40
q0 -31 26.5 -40.5t89.5 -12.5l-7 -39h-330z" />
    <glyph glyph-name="G" unicode="G" horiz-adv-x="730" 
d="M60 269q0 114 55 216t151.5 164.5t209.5 62.5q132 0 211 -61l-30 -149h-34q-13 161 -153 161q-90 0 -161.5 -58.5t-108 -147.5t-36.5 -187q0 -111 53 -170.5t139 -59.5q76 0 140 37l33 133q6 26 6 37q0 29 -20 39t-71 12l8 39h285l-8 -39q-52 -2 -73.5 -15.5t-32.5 -57.5
l-40 -166q-120 -69 -231 -69q-135 0 -213.5 71.5t-78.5 207.5z" />
    <glyph glyph-name="H" unicode="H" horiz-adv-x="845" 
d="M776 590l-99 -463q-5 -25 -5 -37q0 -29 19.5 -39t70.5 -12l-8 -39h-303l9 39q55 2 81.5 16t35.5 57l48 224h-367l-44 -209q-5 -25 -5 -37q0 -29 19.5 -39t70.5 -12l-8 -39h-303l9 39q55 2 81.5 16t35.5 57l99 463q5 25 5 37q0 29 -19.5 39t-70.5 12l8 39h303l-9 -39
q-55 -2 -81.5 -16t-35.5 -57l-45 -208h367l41 193q5 25 5 37q0 29 -19.5 39t-70.5 12l8 39h303l-9 -39q-55 -2 -81.5 -16t-35.5 -57z" />
    <glyph glyph-name="I" unicode="I" horiz-adv-x="382" 
d="M313 590l-99 -463q-5 -25 -5 -37q0 -29 19.5 -39t70.5 -12l-8 -39h-303l9 39q55 2 81.5 16t35.5 57l99 463q5 25 5 37q0 29 -19.5 39t-70.5 12l8 39h303l-9 -39q-55 -2 -81.5 -16t-35.5 -57z" />
    <glyph glyph-name="J" unicode="J" horiz-adv-x="501" 
d="M276 173l84 402q5 25 5 37q0 29 -19.5 39t-70.5 12l8 39h303l-9 -39q-55 -2 -81.5 -16t-35.5 -57l-85 -401q-42 -199 -237 -199q-83 0 -122 32t-39 83q0 50 40 74h73q-14 -31 -14 -65q0 -81 71 -81q50 0 81.5 30.5t47.5 109.5z" />
    <glyph glyph-name="K" unicode="K" horiz-adv-x="715" 
d="M372 382l173 -264q30 -46 56 -62.5t71 -16.5l-7 -39h-146q-35 32 -92 119l-153 238l292 241q29 25 31 39q0 20 -77 26l9 39h255l-9 -39q-63 -3 -121 -51zM313 590l-99 -463q-5 -25 -5 -37q0 -29 19.5 -39t70.5 -12l-8 -39h-303l9 39q55 2 81.5 16t35.5 57l99 463
q5 25 5 37q0 29 -19.5 39t-70.5 12l8 39h303l-9 -39q-55 -2 -81.5 -16t-35.5 -57z" />
    <glyph glyph-name="L" unicode="L" horiz-adv-x="617" 
d="M313 590l-99 -463q-5 -25 -5 -34q0 -27 20.5 -37t69.5 -10h49q64 0 105 31.5t106 117.5h33l-73 -195h-531l9 39q55 2 81.5 16t35.5 57l99 463q5 25 5 37q0 29 -19.5 39t-70.5 12l8 39h303l-9 -39q-55 -2 -81.5 -16t-35.5 -57z" />
    <glyph glyph-name="M" unicode="M" horiz-adv-x="948" 
d="M723 127l33 423l-329 -550h-30l-102 557l-155 -430q-8 -21 -8 -40q0 -26 19 -36t65 -12l-7 -39h-241l8 39q44 2 65 14t33 46l185 505q0 35 -15 46.5t-61 12.5l9 39h176q0 -36 4 -56l86 -506l298 506q22 38 28 56h179l-9 -39q-50 -1 -71 -17t-29 -56l-39 -491
q-3 -34 12.5 -46t59.5 -14l-7 -39h-278l7 39q54 2 81.5 19.5t32.5 68.5z" />
    <glyph glyph-name="N" unicode="N" horiz-adv-x="793" 
d="M589 157l89 418q5 25 5 37q0 29 -19.5 39t-70.5 12l8 39h265l-9 -39q-55 -2 -81.5 -16t-35.5 -57l-124 -590h-42l-307 555l-90 -428q-5 -25 -5 -37q0 -29 19.5 -39t70.5 -12l-8 -39h-266l9 39q55 2 81.5 16t35.5 57l106 494q-24 36 -40 46t-53 11l9 39h159z" />
    <glyph glyph-name="O" unicode="O" horiz-adv-x="720" 
d="M323 42q79 0 142.5 55.5t96.5 142t33 184.5q0 106 -40 171t-119 65q-80 0 -143 -55.5t-96 -141.5t-33 -184q0 -106 40 -171.5t119 -65.5zM322 -10q-125 0 -193.5 79.5t-68.5 205.5q0 180 110 308.5t267 128.5q125 0 193.5 -79t68.5 -205q0 -180 -110 -309t-267 -129z" />
    <glyph glyph-name="P" unicode="P" horiz-adv-x="623" 
d="M248 287l-33 -155q-6 -28 -6 -40q0 -31 26.5 -40.5t89.5 -12.5l-7 -39h-330l9 39q55 2 81.5 16t35.5 57l99 463q5 25 5 37q0 29 -19.5 39t-70.5 12l8 39h291q114 0 170.5 -51t56.5 -134q0 -108 -88.5 -169t-232.5 -61h-85zM326 656l-69 -323h78q103 0 160.5 46t57.5 138
q0 65 -39 102t-116 37h-72z" />
    <glyph glyph-name="Q" unicode="Q" horiz-adv-x="720" 
d="M326 -91l-40 83q-108 12 -165.5 89.5t-57.5 193.5q0 180 110 308.5t267 128.5q125 0 193.5 -79t68.5 -205q0 -163 -93 -287t-232 -146l32 -49q31 -47 60 -69t70 -27l-4 -19q-34 -14 -75 -14q-52 0 -81 20t-53 72zM326 42q79 0 142.5 55.5t96.5 142t33 184.5
q0 106 -40 171t-119 65q-80 0 -143 -55.5t-96 -141.5t-33 -184q0 -106 40 -171.5t119 -65.5z" />
    <glyph glyph-name="R" unicode="R" horiz-adv-x="682" 
d="M377 656h-51l-63 -299h47q102 0 162.5 42t60.5 130q0 127 -156 127zM253 313l-39 -186q-5 -25 -5 -37q0 -29 19.5 -39t70.5 -12l-8 -39h-303l9 39q55 2 81.5 16t35.5 57l99 463q5 25 5 37q0 29 -19.5 39t-70.5 12l8 39h282q108 0 163 -45t55 -128q0 -89 -66.5 -142.5
t-172.5 -64.5l115 -190q34 -55 56.5 -73.5t70.5 -19.5l-8 -39h-135q-34 31 -84 118l-111 195h-48z" />
    <glyph glyph-name="S" unicode="S" horiz-adv-x="559" 
d="M255 -10q-77 0 -136.5 26.5t-94.5 60.5l26 166h34q8 -98 52 -151.5t121 -53.5q63 0 104 33t41 97q0 50 -30.5 83.5t-108.5 76.5q-71 39 -104.5 84t-33.5 107q0 88 60 140.5t153 52.5q123 0 209 -72l-28 -146h-33q-19 170 -149 170q-64 0 -96 -32.5t-32 -90.5
q0 -44 25.5 -74.5t86.5 -62.5q86 -45 128.5 -92.5t42.5 -114.5q0 -97 -71.5 -152t-165.5 -55z" />
    <glyph glyph-name="T" unicode="T" horiz-adv-x="673" 
d="M135 702h597l-29 -209h-32q-8 34 -11 47t-9.5 36t-10 29.5t-11.5 20t-14.5 16.5t-18 8t-24.5 6t-31 1h-70l-112 -530q-5 -20 -5 -37q0 -29 23.5 -39t76.5 -12l-8 -39h-323l8 39q57 2 88 16.5t40 56.5l116 545h-69q-66 0 -97 -27t-103 -137h-32z" />
    <glyph glyph-name="U" unicode="U" horiz-adv-x="762" 
d="M587 245l69 330q5 25 5 37q0 29 -19.5 39t-70.5 12l8 39h265l-9 -39q-55 -2 -81.5 -16t-35.5 -57l-77 -364q-25 -119 -101.5 -177.5t-183.5 -58.5q-118 0 -179.5 54.5t-61.5 158.5q0 30 8 72l62 300q5 25 5 37q0 29 -19.5 39t-70.5 12l8 39h303l-9 -39q-55 -2 -81.5 -16
t-35.5 -57l-69 -325q-7 -37 -7 -59q0 -71 40 -113.5t114 -42.5q91 0 146.5 45.5t77.5 149.5z" />
    <glyph glyph-name="V" unicode="V" horiz-adv-x="704" 
d="M353 127l271 452q17 29 17 45q0 21 -21.5 29t-65.5 10l9 39h231l-9 -39q-51 -7 -70 -37l-389 -635h-31l-144 635q-4 19 -16.5 26.5t-37.5 10.5l9 39h264l-9 -39q-32 -1 -50.5 -4t-36 -16.5t-17.5 -37.5q0 -11 3 -25z" />
    <glyph glyph-name="W" unicode="W" horiz-adv-x="977" 
d="M658 141l245 438q18 33 18 50q0 13 -10 20t-27.5 10t-48.5 4l9 39h223l-9 -39q-18 -3 -27.5 -5t-22 -10t-20.5 -22l-363 -635h-30l-60 431l-246 -431h-30l-108 635q-4 30 -54 37l9 39h265l-9 -39q-25 -1 -35 -2t-26.5 -4.5t-23.5 -9t-13 -16.5t-6 -27q0 -17 2 -31
l66 -433l199 351l-20 135q-2 14 -10.5 22t-17 10t-26.5 5l9 39h255l-9 -39q-25 -1 -35 -2t-26.5 -4.5t-23.5 -9.5t-13 -17t-6 -28q0 -6 2 -22z" />
    <glyph glyph-name="X" unicode="X" horiz-adv-x="707" 
d="M668 613l-240 -244l146 -280q26 -50 81 -50l-7 -39h-281l7 39q31 0 47 1t32 9.5t16 25.5q0 15 -16 47l-102 192l-182 -189q-40 -41 -40 -59q0 -15 18.5 -20.5t65.5 -6.5l-7 -39h-246l8 39q30 0 50.5 10t50.5 40l262 266l-136 258q-26 50 -82 50l9 39h283l-9 -39
q-49 0 -71.5 -6.5t-23.5 -27.5q0 -17 17 -49l88 -169l164 166q37 37 38 58q0 15 -20 21t-64 7l9 39h245l-9 -39q-30 0 -51 -10t-50 -40z" />
    <glyph glyph-name="Y" unicode="Y" horiz-adv-x="666" 
d="M365 329l211 251q27 33 27 49q0 17 -18 23.5t-67 10.5l9 39h229l-9 -39q-42 -6 -70 -37l-292 -343l-33 -156q-6 -24 -6 -37q0 -29 24 -39t77 -12l-8 -39h-318l8 39q57 2 88 16.5t40 56.5l36 170l-142 344q-8 19 -19.5 26.5t-34.5 10.5l9 39h263l-9 -39q-33 0 -52 -2
t-34.5 -12t-15.5 -29q0 -13 10 -40z" />
    <glyph glyph-name="Z" unicode="Z" horiz-adv-x="608" 
d="M113 47h223q27 0 49 7t37 15t37.5 32.5t34.5 39.5t43 57h34l-75 -198h-518l5 25l541 629h-200q-58 0 -87.5 -25t-86.5 -112h-30l39 185h502l-6 -26z" />
    <glyph glyph-name="bracketleft" unicode="[" horiz-adv-x="312" 
d="M243 678l-155 -727q-2 -12 -2 -17q0 -25 22 -32.5t81 -10.5l-7 -32h-182l193 911h182l-7 -32q-68 -4 -92.5 -14t-32.5 -46z" />
    <glyph glyph-name="backslash" unicode="\" horiz-adv-x="397" 
d="M243 -141l-85 911h57l85 -911h-57z" />
    <glyph glyph-name="bracketright" unicode="]" horiz-adv-x="312" 
d="M91 -49l156 727q2 12 2 17q0 28 -35 36q-17 3 -68 7l7 32h182l-194 -911h-182l7 32q68 4 92.5 14t32.5 46z" />
    <glyph glyph-name="asciicircum" unicode="^" horiz-adv-x="462" 
d="M302 770h72l94 -290h-62l-75 235l-173 -235h-72z" />
    <glyph glyph-name="underscore" unicode="_" horiz-adv-x="440" 
d="M352 -120h-399l10 54h400z" />
    <glyph glyph-name="grave" unicode="`" horiz-adv-x="500" 
d="M156 761h124l63 -169h-41z" />
    <glyph glyph-name="a" unicode="a" horiz-adv-x="597" 
d="M179 57q58 0 129.5 109t116.5 287q-26 46 -79 46q-61 0 -113 -54t-79.5 -134t-28.5 -163q0 -42 14 -66.5t40 -24.5zM451 500l59 48h35l-35 -112l-78 -320q-9 -34 -9 -44q0 -15 14 -15q33 0 92 75l21 -21q-44 -66 -80 -93.5t-75 -27.5q-56 0 -56 68q0 22 12.5 75t26.5 93
h-7q-48 -103 -108 -169.5t-118 -66.5q-52 0 -81.5 39.5t-29.5 110.5q0 158 97 279t212 121q68 0 108 -40z" />
    <glyph glyph-name="b" unicode="b" horiz-adv-x="580" 
d="M46 106l127 562l-74 31l5 20l160 42h23l-78 -335l-52 -149h7q147 263 272 263q53 0 81.5 -39t28.5 -103q0 -78 -32 -154.5t-81.5 -131t-111.5 -88.5t-121 -34t-100.5 30.5t-53.5 85.5zM395 473q-54 0 -142 -109.5t-120 -253.5q0 -34 20 -56t52 -22q62 0 120.5 56
t93.5 139.5t35 164.5t-59 81z" />
    <glyph glyph-name="c" unicode="c" horiz-adv-x="463" 
d="M302 495q-45 0 -85.5 -46.5t-64 -116.5t-23.5 -141q0 -143 94 -143q45 0 79.5 22t76.5 70l23 -19q-36 -57 -88.5 -94t-118.5 -37q-81 0 -119.5 50t-38.5 134q0 88 39 172t109 139t152 55q56 0 85.5 -23.5t29.5 -64.5q0 -47 -56 -70h-16q-3 49 -23 81t-55 32z" />
    <glyph glyph-name="d" unicode="d" horiz-adv-x="604" 
d="M185 55q60 0 135 116.5t112 284.5q-24 43 -76 43q-64 0 -117.5 -54t-82.5 -134t-30 -163q0 -42 15 -67.5t44 -25.5zM480 668l-74 31l5 20l158 42h23l-150 -645q-8 -38 -8 -44q0 -15 14 -15q33 0 92 75l21 -21q-44 -66 -80 -93.5t-75 -27.5q-27 0 -41.5 17.5t-14.5 45.5
q0 55 36 174h-7q-48 -103 -109.5 -170t-121.5 -67q-54 0 -84 39.5t-30 110.5q0 105 47 198.5t120.5 147.5t150.5 54q56 0 93 -34z" />
    <glyph glyph-name="e" unicode="e" horiz-adv-x="472" 
d="M451 430q0 -29 -13 -54.5t-39.5 -46t-54 -36t-70 -30.5t-72.5 -24t-76 -21v-26q0 -66 29 -104.5t79 -38.5q80 0 158 93l25 -20q-54 -72 -104.5 -102t-111.5 -30q-82 0 -123 58t-41 142q0 85 40 166t109.5 132.5t147.5 51.5q58 0 87.5 -30.5t29.5 -79.5zM307 490
q-60 0 -112 -69.5t-65 -170.5q124 37 180.5 76t56.5 96q0 30 -16 49t-44 19z" />
    <glyph glyph-name="f" unicode="f" horiz-adv-x="326" 
d="M60 482l6 34l85 20q21 111 73.5 170.5t135.5 59.5q49 0 77.5 -20.5t28.5 -53.5q0 -48 -48 -62h-19q-2 42 -19.5 69.5t-45.5 27.5q-36 0 -59 -44t-34 -153h123l-6 -48h-122l-68 -331q-41 -199 -92.5 -278.5t-135.5 -79.5q-40 0 -65 16.5t-25 44.5q0 47 53 60h14
q16 -78 60 -78q18 0 30 13.5t30 71.5t37 169l67 392h-81z" />
    <glyph glyph-name="g" unicode="g" horiz-adv-x="517" 
d="M305 540q44 0 76 -17l176 12l-15 -65h-39l-82 22q34 -40 34 -96q0 -100 -67 -161t-167 -61q-23 0 -46 5q-35 -23 -35 -39q0 -12 9 -18t32 -12l144 -41q119 -34 119 -121q0 -62 -65.5 -109.5t-201.5 -47.5q-101 0 -169 37.5t-68 91.5q0 53 43 80.5t124 48.5q-28 19 -28 51
q0 49 69 89q-37 18 -57 52.5t-20 76.5q0 100 67 161t167 61zM283 -9l-154 45q-53 -19 -77 -42.5t-24 -61.5q0 -47 47.5 -75.5t117.5 -28.5q76 0 123.5 26t47.5 70q0 26 -19.5 40t-61.5 27zM234 209q52 0 92.5 58t40.5 136q0 46 -18.5 74t-56.5 28q-52 0 -92.5 -58
t-40.5 -136q0 -46 18.5 -74t56.5 -28z" />
    <glyph glyph-name="h" unicode="h" horiz-adv-x="619" 
d="M222 403l-34 -112h7q52 91 131 170t145 79q68 0 68 -71q0 -18 -6 -44l-82 -309q-9 -34 -9 -44q0 -15 14 -15q32 0 93 75l20 -21q-45 -67 -80.5 -94t-74.5 -27q-28 0 -45 18.5t-17 49.5q0 33 14 86l75 278q5 22 5 33q0 21 -18 21q-53 0 -142 -103.5t-122 -233.5l-35 -139
h-91l153 668l-74 31l5 20l160 42h23z" />
    <glyph glyph-name="i" unicode="i" horiz-adv-x="334" 
d="M266 540l-104 -424q-9 -34 -9 -44q0 -15 14 -15q32 0 93 75l20 -21q-45 -67 -80.5 -94t-74.5 -27q-28 0 -45 18.5t-17 49.5q0 27 14 86l77 310l-76 31l6 21l157 34h25zM238 611q-27 0 -45 18.5t-18 44.5q0 29 20.5 50t49.5 21q27 0 45 -18.5t18 -44.5q0 -29 -20.5 -50
t-49.5 -21z" />
    <glyph glyph-name="j" unicode="j" horiz-adv-x="299" 
d="M240 611q-27 0 -45 18.5t-18 44.5q0 29 20.5 50t49.5 21q27 0 45 -18.5t18 -44.5q0 -29 -20.5 -50t-49.5 -21zM54 -22l101 476l-75 31l6 21l157 34h25l-100 -444q-33 -146 -85.5 -224.5t-135.5 -78.5q-40 0 -65 16.5t-25 44.5q0 47 53 60h14q16 -78 59 -78q41 0 71 142z
" />
    <glyph glyph-name="k" unicode="k" horiz-adv-x="574" 
d="M293 315l87 -197q15 -33 27 -49.5t26 -16.5q30 0 91 77l18 -22q-72 -117 -143 -117q-37 0 -60 27t-45 79l-79 191l189 204q44 49 91 49q31 0 47 -17t16 -41q0 -45 -56 -68h-14q0 42 -36 42q-33 0 -73 -45zM305 761l-176 -761h-91l153 668l-74 31l5 20l160 42h23z" />
    <glyph glyph-name="l" unicode="l" horiz-adv-x="312" 
d="M186 668l-74 31l5 20l160 42h23l-148 -645q-7 -29 -7 -44t14 -15q32 0 93 75l20 -21q-45 -67 -80.5 -94t-74.5 -27q-28 0 -45 18.5t-17 49.5t13 86z" />
    <glyph glyph-name="m" unicode="m" horiz-adv-x="900" 
d="M478 288h7q26 43 54.5 82t64.5 80t75 65.5t73 24.5q68 0 68 -71q0 -18 -6 -44l-82 -309q-9 -34 -9 -44q0 -15 14 -15q32 0 93 75l20 -21q-45 -67 -80.5 -94t-74.5 -27q-28 0 -45 18.5t-17 49.5q0 33 14 86l74 276q5 22 5 33q0 21 -18 21q-51 0 -136.5 -106t-115.5 -227
l-35 -141h-91l106 420q5 22 5 33q0 21 -18 21q-51 0 -136.5 -106t-115.5 -227l-35 -141h-91l113 454l-76 31l6 21l151 34h25l-31 -129l-39 -123h7q37 61 74.5 111.5t92 95.5t99.5 45q60 0 60 -62q0 -49 -49 -190z" />
    <glyph glyph-name="n" unicode="n" horiz-adv-x="626" 
d="M264 540l-34 -138l-35 -111h7q52 91 131 170t145 79q68 0 68 -71q0 -18 -6 -44l-82 -309q-9 -34 -9 -44q0 -15 14 -15q32 0 93 75l20 -21q-45 -67 -80.5 -94t-74.5 -27q-28 0 -45 18.5t-17 49.5q0 33 14 86l75 278q5 22 5 33q0 21 -18 21q-53 0 -142 -103.5t-122 -233.5
l-35 -139h-91l113 454l-76 31l6 21l151 34h25z" />
    <glyph glyph-name="o" unicode="o" horiz-adv-x="522" 
d="M212 30q52 0 94 54.5t63.5 130t21.5 148.5q0 65 -21.5 101t-59.5 36q-52 0 -94 -54.5t-63.5 -130t-21.5 -148.5q0 -65 21.5 -101t59.5 -36zM209 -10q-79 0 -125.5 53t-46.5 148q0 84 34 163.5t99 132.5t143 53q79 0 125.5 -53t46.5 -148q0 -84 -34 -163.5t-99 -132.5
t-143 -53z" />
    <glyph glyph-name="p" unicode="p" horiz-adv-x="605" 
d="M181 261h7q67 132 137.5 205.5t135.5 73.5q49 0 79.5 -39.5t30.5 -102.5q0 -104 -52 -200t-129.5 -152t-154.5 -56q-29 0 -54 12.5t-38 31.5l-29 -125q-4 -16 -4 -31q0 -14 10 -22.5t22 -11.5t36 -6l-9 -35h-251l9 35q30 4 44.5 7.5t29.5 15.5t20 34l137 562l-77 28l6 21
l151 34h25l-34 -141zM420 471q-51 0 -135 -107.5t-126 -249.5q0 -35 20.5 -58t53.5 -23q61 0 118 55t91 138t34 164t-56 81z" />
    <glyph glyph-name="q" unicode="q" horiz-adv-x="567" 
d="M352 540q66 0 106 -40l59 48h35l-35 -112l-132 -529q-5 -20 -5 -29q0 -14 10 -22.5t22 -11.5t36 -6l-9 -35h-251l9 35q22 3 33.5 5.5t26 8t22.5 16t12 27.5l50 184l44 146h-7q-47 -103 -108.5 -169t-121.5 -66q-54 0 -84 39.5t-30 110.5q0 105 47 198.5t120.5 147.5
t150.5 54zM183 56q61 0 136.5 116.5t112.5 284.5q-24 43 -76 43q-64 0 -117.5 -54.5t-82.5 -134.5t-30 -163q0 -42 15 -67t42 -25z" />
    <glyph glyph-name="r" unicode="r" horiz-adv-x="461" 
d="M174 201h7q83 170 142.5 254.5t108.5 84.5q29 0 42.5 -18t13.5 -43q0 -53 -61 -82h-15q0 37 -28 37q-26 0 -71 -55t-94 -159t-78 -220h-91l113 454l-76 31l6 21l151 34h25l-42 -166z" />
    <glyph glyph-name="s" unicode="s" horiz-adv-x="415" 
d="M194 36q78 0 78 74q0 26 -28.5 61t-62 65t-62 72.5t-28.5 80.5q0 63 49.5 107t122.5 44q57 0 91 -24.5t34 -64.5q0 -31 -43 -52h-10q-45 91 -111 91q-69 0 -69 -65q0 -19 19 -44.5t46.5 -51.5t55 -54.5t46.5 -61t19 -62.5q0 -72 -53 -116.5t-125 -44.5q-68 0 -110 30.5
t-42 75.5t44 65h8q47 -125 131 -125z" />
    <glyph glyph-name="t" unicode="t" horiz-adv-x="383" 
d="M238 482l-78 -346q-9 -42 -9 -59q0 -23 22 -23q48 0 138 96l23 -24q-50 -64 -105 -100t-98 -36q-70 0 -70 77q0 29 11 76l77 339h-73l8 29q51 17 86.5 47t75.5 86h31l-27 -114h125l-12 -48h-125z" />
    <glyph glyph-name="u" unicode="u" horiz-adv-x="622" 
d="M408 249h-7q-62 -123 -130 -191t-132 -68q-32 0 -52 23t-20 60q0 31 9 66l79 315l-76 31l6 21l157 34h25l-100 -404q-9 -38 -9 -58q0 -27 22 -27q39 0 91.5 55t98.5 141.5t69 173.5l27 102l93 7l-103 -414q-9 -34 -9 -44q0 -15 14 -15q32 0 93 75l20 -21
q-45 -67 -80.5 -94t-74.5 -27q-28 0 -42.5 18t-14.5 50q0 39 46 191z" />
    <glyph glyph-name="v" unicode="v" horiz-adv-x="520" 
d="M102 459l-73 25l6 21l134 35h13l37 -449l129 149q78 89 78 169q0 71 -91 71v15q36 45 86 45q43 0 63.5 -26t20.5 -64q0 -51 -29 -105.5t-94 -129.5l-196 -225h-39z" />
    <glyph glyph-name="w" unicode="w" horiz-adv-x="755" 
d="M369 459l-73 25l6 21l131 35h13l36 -443l123 159q54 71 54 152q0 72 -89 72v15q36 45 86 45q43 0 63.5 -26t20.5 -67q0 -86 -100 -214l-187 -243h-39l-28 285l-200 -285h-39l-45 469l-73 25l6 21l134 35h13l36 -441l163 228z" />
    <glyph glyph-name="x" unicode="x" horiz-adv-x="553" 
d="M142 119l85 125l-60 214l-93 26l7 21l140 35h13l58 -212l77 122q29 46 54 68t56 22t49.5 -16.5t18.5 -46.5q0 -41 -42 -65h-14q0 57 -39 57q-17 0 -28.5 -11.5t-34.5 -46.5l-84 -129l44 -159q6 -22 8.5 -30t7 -17.5t9 -12t11.5 -2.5q37 0 106 73l19 -24q-55 -66 -92 -93
t-71 -27q-29 0 -45 25t-29 70l-33 114l-79 -119q-21 -32 -34 -48t-34.5 -29t-47.5 -13q-27 0 -45 17t-18 45q0 50 42 72h14q0 -64 39 -64q16 0 27.5 11t37.5 48z" />
    <glyph glyph-name="y" unicode="y" horiz-adv-x="515" 
d="M335 99q-61 -95 -112.5 -158.5t-92 -94t-70.5 -41.5t-62 -11q-37 0 -65.5 19t-28.5 58q0 22 13 39.5t33 23.5h17q0 -82 64 -82q33 0 67.5 21t86.5 85l-86 501l-73 25l6 21l132 35h13l77 -490q25 35 45 67q121 185 121 291q0 72 -90 72v15q36 45 86 45q43 0 63.5 -25.5
t20.5 -62.5q0 -52 -38.5 -133t-126.5 -220z" />
    <glyph glyph-name="z" unicode="z" horiz-adv-x="490" 
d="M389 447h-199q-24 0 -36.5 -7t-23.5 -27l-29 -50l-25 9l70 191h20q4 -39 29 -39h308l-1 -23l-386 -369l124 -40q47 -15 76 -15q37 0 61.5 20.5t47.5 72.5l24 -7q-34 -98 -64.5 -135.5t-89.5 -37.5q-43 0 -109 31l-120 54l-48 -76q-38 1 -38 31q0 23 22 45z" />
    <glyph glyph-name="braceleft" unicode="{" horiz-adv-x="341" 
d="M60 307l3 16q87 18 105 100l46 219q13 60 63 94t127 34l-6 -27q-93 -11 -111 -98l-47 -218q-11 -50 -35.5 -73.5t-78.5 -38.5q38 -12 54.5 -28.5t16.5 -46.5q0 -22 -27 -140t-27 -143q0 -62 73 -71l-6 -27q-63 0 -101 27t-38 74q0 23 27 137.5t27 137.5q0 58 -65 72z" />
    <glyph glyph-name="bar" unicode="|" horiz-adv-x="257" 
d="M274 770l-196 -911h-57l196 911h57z" />
    <glyph glyph-name="braceright" unicode="}" horiz-adv-x="341" 
d="M304 322l-3 -16q-87 -18 -105 -100l-46 -219q-13 -60 -63 -94t-127 -34l6 27q93 11 111 98l47 218q11 50 35.5 73.5t78.5 38.5q-38 12 -54.5 28.5t-16.5 46.5q0 21 27 140t27 143q0 62 -73 71l6 27q63 0 101 -27t38 -74q0 -23 -27 -137t-27 -138q0 -58 65 -72z" />
    <glyph glyph-name="asciitilde" unicode="~" horiz-adv-x="511" 
d="M429 404l39 -6q-21 -63 -52.5 -93t-77.5 -30q-32 0 -89 29.5t-84 29.5q-24 0 -38 -10.5t-31 -42.5l-39 6q21 63 52.5 93t77.5 30q33 0 90 -29.5t83 -29.5q24 0 38 10.5t31 42.5z" />
    <glyph glyph-name="uni00A0" unicode="&#xa0;" horiz-adv-x="200" 
 />
    <glyph glyph-name="exclamdown" unicode="&#xa1;" horiz-adv-x="292" 
d="M276 467q0 -31 -21 -52t-52 -21t-52 21t-21 52t21 52t52 21t52 -21t21 -52zM-8 -172l162 499h47l-74 -499h-135z" />
    <glyph glyph-name="cent" unicode="&#xa2;" horiz-adv-x="533" 
d="M178 -113l24 105q-77 9 -114.5 63t-37.5 138q0 131 81 244t202 134l23 101h45l-22 -97h1q64 0 98.5 -26t34.5 -70q0 -48 -62 -72h-18q-5 51 -19 82.5t-46 39.5l-107 -475q48 1 85 26t86 77l33 -28q-36 -57 -92 -96t-127 -42l-23 -104h-45zM147 204q0 -116 70 -143
l106 468q-48 -10 -89 -60.5t-64 -121.5t-23 -143z" />
    <glyph glyph-name="sterling" unicode="&#xa3;" horiz-adv-x="691" 
d="M120 341l10 43h118l37 110q35 107 90 162t145 55q70 0 112.5 -31t42.5 -78q0 -50 -41 -65h-69q8 21 8 51q0 31 -14.5 55.5t-50.5 24.5q-17 0 -32.5 -10t-26.5 -23t-23.5 -40t-20 -47.5t-21.5 -59.5l-37 -104h178l-11 -43h-182l-67 -193q18 -6 54 -20.5t58.5 -23t54 -16
t57.5 -7.5q82 0 82 66q0 29 -30 53l26 27q63 -38 63 -110q0 -61 -37 -94t-103 -33q-36 0 -76 13t-61 24t-63.5 37.5t-47.5 29.5q-17 -47 -55 -75.5t-89 -28.5q-53 0 -78.5 26.5t-25.5 64.5q0 50 31 80t84 30q33 0 70 -14l55 164h-114zM91 39q51 0 74 92q-31 13 -59 13
t-43.5 -16.5t-15.5 -40.5q0 -22 12 -35t32 -13z" />
    <glyph glyph-name="currency" unicode="&#xa4;" horiz-adv-x="577" 
d="M290 194q64 0 109 47t45 116q0 61 -37 100t-95 39q-64 0 -109 -47t-45 -116q0 -61 37 -100t95 -39zM287 148q-72 0 -121 41l-79 -70l-33 38l78 71q-28 44 -28 101q0 82 52 142l-61 69l41 36l61 -69q52 35 118 35q70 0 120 -42l81 72l34 -38l-81 -72q29 -44 29 -101
q0 -81 -51 -140l63 -68l-42 -36l-60 68q-52 -37 -121 -37z" />
    <glyph glyph-name="yen" unicode="&#xa5;" horiz-adv-x="666" 
d="M94 315l9 43h144l-106 268q-8 20 -19 27t-35 10l9 39h268l-9 -39q-33 0 -52 -2t-34.5 -12t-15.5 -29q0 -13 10 -40l92 -251l206 251q27 33 27 49q0 29 -85 34l9 39h229l-9 -39q-45 -6 -70 -37l-224 -268h149l-9 -43h-176l-27 -32l-8 -37h196l-9 -44h-196l-16 -75
q-5 -25 -5 -37q0 -29 23.5 -39t76.5 -12l-8 -39h-323l8 39q57 2 88 16.5t40 56.5l19 90h-191l9 44h191l8 36l-13 33h-171z" />
    <glyph glyph-name="brokenbar" unicode="&#xa6;" horiz-adv-x="257" 
d="M274 770l-81 -376h-57l81 376h57zM158 235l-80 -376h-57l80 376h57z" />
    <glyph glyph-name="section" unicode="&#xa7;" horiz-adv-x="518" 
d="M118 -202q-69 0 -102 26.5t-33 68.5q0 43 54 63h52q-8 -16 -8 -37q0 -31 16.5 -53.5t55.5 -22.5q45 0 69.5 26t24.5 70q0 41 -22 92.5t-48 95.5t-48 109.5t-22 131.5q0 85 33.5 162t104.5 129.5t164 52.5q69 0 102 -26.5t33 -68.5q0 -43 -54 -63h-52q8 16 8 37
q0 31 -16.5 53.5t-55.5 22.5q-45 0 -69.5 -26t-24.5 -70q0 -41 22 -92.5t48 -95.5t48 -109.5t22 -131.5q0 -85 -33.5 -162t-104.5 -129.5t-164 -52.5zM242 606q-39 -41 -63 -104t-24 -134q0 -55 22 -116.5t48 -106.5t48 -99.5t22 -98.5q0 -24 -10 -43q39 41 63 104t24 134
q0 55 -22 116.5t-48 106.5t-48 99.5t-22 98.5q0 24 10 43z" />
    <glyph glyph-name="dieresis" unicode="&#xa8;" horiz-adv-x="500" 
d="M154 615q-25 0 -41.5 16.5t-16.5 41.5q0 26 18.5 45t44.5 19q25 0 41.5 -16.5t16.5 -41.5q0 -26 -18.5 -45t-44.5 -19zM340 615q-25 0 -41.5 16.5t-16.5 41.5q0 26 18.5 45t44.5 19q25 0 41.5 -16.5t16.5 -41.5q0 -26 -18.5 -45t-44.5 -19z" />
    <glyph glyph-name="copyright" unicode="&#xa9;" horiz-adv-x="796" 
d="M395 30q143 0 240 100.5t97 246.5q0 127 -81.5 211t-210.5 84q-143 0 -240 -100.5t-97 -246.5q0 -127 81.5 -211t210.5 -84zM395 -10q-147 0 -241.5 95.5t-94.5 239.5q0 162 110 274.5t271 112.5q147 0 241.5 -95.5t94.5 -239.5q0 -162 -110 -274.5t-271 -112.5zM396 142
q-77 0 -125.5 45.5t-48.5 121.5q0 104 73 180t175 76q76 0 122 -41l-20 -93h-27q-5 50 -23.5 71.5t-58.5 21.5q-72 0 -117 -64.5t-45 -151.5q0 -126 99 -126q45 0 71.5 23.5t56.5 82.5h31l-30 -108q-66 -38 -133 -38z" />
    <glyph glyph-name="ordfeminine" unicode="&#xaa;" horiz-adv-x="460" 
d="M194 370q41 0 91.5 79.5t83.5 207.5q-21 34 -57 34q-60 0 -106 -80.5t-46 -173.5q0 -67 34 -67zM389 694l57 36h26l-26 -83l-57 -235q-7 -24 -7 -33q0 -11 11 -11q24 0 68 56l17 -18q-60 -91 -128 -91q-21 0 -32.5 13.5t-11.5 37.5q0 42 29 125h-5q-35 -77 -80 -126.5
t-88 -49.5q-40 0 -62.5 30t-22.5 82q0 117 73 207t159 90q50 0 80 -30z" />
    <glyph glyph-name="guillemotleft" unicode="&#xab;" horiz-adv-x="487" 
d="M229 269l2 10l206 190h53l-167 -195l83 -195h-43zM50 269l2 10l206 190h54l-168 -195l83 -195h-43z" />
    <glyph glyph-name="registered" unicode="&#xae;" horiz-adv-x="555" 
d="M337 586h-19l-20 -94h25q27 0 44 13.5t17 39.5q0 18 -12 29.5t-35 11.5zM248 608h108q40 0 57 -18t17 -40q0 -61 -75 -73l30 -56q15 -29 45 -29l-4 -19h-55q-19 16 -32 43l-27 55h-19l-10 -50q-2 -10 -2 -15q0 -9 5 -11.5t19 -2.5l-4 -19h-104l5 19q31 0 36 24l30 143
q3 15 3 16q0 8 -5.5 10t-21.5 4zM310 287q89 0 149 61.5t60 151.5q0 78 -50.5 130t-130.5 52q-89 0 -149 -61.5t-60 -151.5q0 -78 50.5 -130t130.5 -52zM310 257q-94 0 -154 60.5t-60 151.5q0 102 70 172.5t172 70.5q94 0 154 -60.5t60 -151.5q0 -102 -70 -172.5t-172 -70.5
z" />
    <glyph glyph-name="macron" unicode="&#xaf;" horiz-adv-x="500" 
d="M112 623l13 58h262l-13 -58h-262z" />
    <glyph glyph-name="degree" unicode="&#xb0;" horiz-adv-x="341" 
d="M198 457q49 0 79.5 36.5t30.5 91.5q0 35 -21 58t-57 23q-49 0 -79.5 -36.5t-30.5 -91.5q0 -35 21 -58t57 -23zM195 411q-57 0 -92.5 35.5t-35.5 89.5q0 73 47.5 124.5t118.5 51.5q57 0 92.5 -35.5t35.5 -89.5q0 -73 -47.5 -124.5t-118.5 -51.5z" />
    <glyph glyph-name="plusminus" unicode="&#xb1;" horiz-adv-x="563" 
d="M312 602h62l-30 -143h188l-13 -61h-188l-30 -142h-60l29 142h-189l14 61h187zM28 144l13 61h438l-14 -61h-437z" />
    <glyph glyph-name="twosuperior" unicode="&#xb2;" horiz-adv-x="422" 
d="M164 362h92q43 0 63 12t53 57h27l-53 -144h-296l6 27q119 98 174.5 153t71.5 86.5t16 70.5q0 30 -18 48.5t-51 18.5q-56 0 -116 -66l-16 22q25 42 70 71.5t98 29.5q54 0 85.5 -30t31.5 -81q0 -31 -9 -56t-35 -53.5t-45.5 -45.5t-70 -56.5t-78.5 -63.5z" />
    <glyph glyph-name="threesuperior" unicode="&#xb3;" horiz-adv-x="419" 
d="M274 540q50 -7 78.5 -35t28.5 -74q0 -74 -54.5 -113.5t-128.5 -39.5q-70 0 -106.5 27t-36.5 64q0 45 40 62h47q-7 -24 -7 -49q0 -31 17 -51t49 -20q44 0 71 29.5t27 79.5q0 40 -22.5 62t-58.5 22q-16 0 -38 -3l-5 23q64 21 101 47t37 65q0 23 -14.5 36.5t-41.5 13.5
q-56 0 -111 -55l-16 19q59 94 162 94q51 0 79 -23t28 -62q0 -47 -37 -76.5t-88 -42.5z" />
    <glyph glyph-name="acute" unicode="&#xb4;" horiz-adv-x="500" 
d="M233 761h136l-193 -169h-45z" />
    <glyph glyph-name="mu" unicode="&#xb5;" horiz-adv-x="622" 
d="M127 -10l-44 -177l-94 -10l160 651l-76 31l6 21l157 34h25l-100 -404q-9 -38 -9 -58q0 -27 22 -27q39 0 91.5 55t98.5 141.5t69 173.5l27 102l93 7l-103 -414q-9 -34 -9 -44q0 -15 14 -15q32 0 93 75l20 -21q-45 -67 -80.5 -94t-74.5 -27q-28 0 -42.5 18t-14.5 50
q0 39 46 191h-7q-59 -118 -134 -188.5t-134 -70.5z" />
    <glyph glyph-name="paragraph" unicode="&#xb6;" horiz-adv-x="620" 
d="M219 -197l89 421q-107 0 -162.5 54.5t-55.5 139.5q0 126 86.5 205t233.5 79h273l-9 -39q-54 -2 -81 -16t-36 -57l-167 -787h-52l183 861h-67l-183 -861h-52zM316 262l86 402q-66 0 -114.5 -40.5t-69 -94.5t-20.5 -111q0 -68 28 -112t90 -44z" />
    <glyph glyph-name="periodcentered" unicode="&#xb7;" horiz-adv-x="256" 
d="M64 301q0 31 21 52t52 21t52 -21t21 -52t-21 -52t-52 -21t-52 21t-21 52z" />
    <glyph glyph-name="cedilla" unicode="&#xb8;" horiz-adv-x="500" 
d="M155 -221l-3 33q124 0 124 49q0 39 -89 42l58 105h32l-30 -56q101 -2 101 -64q0 -54 -54.5 -81.5t-138.5 -27.5z" />
    <glyph glyph-name="onesuperior" unicode="&#xb9;" horiz-adv-x="367" 
d="M304 748h30l-78 -368q-4 -16 -4 -28q0 -18 17 -23.5t68 -8.5l-6 -33h-271l7 33q55 3 75.5 11t26.5 36l56 268h-99l7 34l33 4q50 6 79 21.5t59 53.5z" />
    <glyph glyph-name="ordmasculine" unicode="&#xba;" horiz-adv-x="396" 
d="M206 351q60 0 95.5 75.5t35.5 167.5t-54 92q-60 0 -95.5 -75.5t-35.5 -167.5t54 -92zM204 315q-61 0 -98 39.5t-37 109.5q0 97 63 177.5t153 80.5q61 0 98 -39.5t37 -109.5q0 -97 -63 -177.5t-153 -80.5z" />
    <glyph glyph-name="guillemotright" unicode="&#xbb;" horiz-adv-x="487" 
d="M261 279l-2 -10l-206 -190h-53l167 195l-83 195h43zM440 279l-2 -10l-206 -190h-54l168 195l-83 195h43z" />
    <glyph glyph-name="onequarter" unicode="&#xbc;" horiz-adv-x="943" 
d="M522 92h164l43 199zM734 -71h-83l26 119h-222l8 34l312 307h56l-62 -297h76l-9 -44h-76zM190 0l613 741h60l-613 -741h-60zM304 748h30l-78 -368q-4 -16 -4 -28q0 -18 17 -23.5t68 -8.5l-6 -33h-271l7 33q55 3 75.5 11t26.5 36l56 268h-99l7 34l33 4q50 6 79 21.5
t59 53.5z" />
    <glyph glyph-name="onehalf" unicode="&#xbd;" horiz-adv-x="957" 
d="M190 0l613 741h60l-613 -741h-60zM304 748h30l-78 -368q-4 -16 -4 -28q0 -18 17 -23.5t68 -8.5l-6 -33h-271l7 33q55 3 75.5 11t26.5 36l56 268h-99l7 34l33 4q50 6 79 21.5t59 53.5zM639 3h92q43 0 63 12t53 57h27l-53 -144h-296l6 27q119 98 174.5 153t71.5 86.5
t16 70.5q0 31 -18.5 49t-50.5 18q-56 0 -116 -66l-16 22q25 42 70 71.5t98 29.5q54 0 85.5 -30t31.5 -81q0 -31 -9 -56t-35 -53.5t-45.5 -45.5t-70 -56.5t-78.5 -63.5z" />
    <glyph glyph-name="threequarters" unicode="&#xbe;" horiz-adv-x="943" 
d="M274 540q50 -7 78.5 -35t28.5 -74q0 -74 -54.5 -113.5t-128.5 -39.5q-70 0 -106.5 27t-36.5 64q0 45 40 62h47q-7 -24 -7 -49q0 -31 17 -51t49 -20q44 0 71 29.5t27 79.5q0 40 -22.5 62t-58.5 22q-16 0 -38 -3l-5 23q64 21 101 47t37 65q0 23 -14.5 36.5t-41.5 13.5
q-56 0 -111 -55l-16 19q59 94 162 94q51 0 79 -23t28 -62q0 -47 -37 -76.5t-88 -42.5zM522 92h164l43 199zM734 -71h-83l26 119h-222l8 34l312 307h56l-62 -297h76l-9 -44h-76zM190 0l613 741h60l-613 -741h-60z" />
    <glyph glyph-name="questiondown" unicode="&#xbf;" horiz-adv-x="440" 
d="M378 466q0 -31 -21 -52t-52 -21t-52 21t-21 52t21 52t52 21t52 -21t21 -52zM194 87q-56 -32 -80 -59.5t-24 -73.5q0 -42 25 -66.5t68 -24.5q44 0 69.5 27t25.5 75q0 13 -5 36h74q24 -18 24 -57q0 -56 -54 -91t-136 -35q-83 0 -132.5 41t-49.5 110q0 65 35.5 103.5
t111.5 80.5q60 33 89.5 65t29.5 78q0 16 -3 29h26q28 -39 28 -82q0 -85 -122 -156z" />
    <glyph glyph-name="Agrave" unicode="&#xc0;" horiz-adv-x="717" 
d="M502 122l-22 105h-294l-64 -104q-20 -31 -20 -49q0 -19 20.5 -26t66.5 -9l-7 -39h-225l8 39q26 4 41.5 11t27.5 26l354 569l-17 66h106l136 -635q4 -19 17 -26.5t37 -10.5l-7 -39h-267l7 39q35 1 53.5 4t34.5 15.5t16 36.5q0 7 -2 27zM407 585l-191 -309h254zM294 910
h122l56 -149h-40z" />
    <glyph glyph-name="Aacute" unicode="&#xc1;" horiz-adv-x="717" 
d="M502 122l-22 105h-294l-64 -104q-20 -31 -20 -49q0 -19 20.5 -26t66.5 -9l-7 -39h-225l8 39q26 4 41.5 11t27.5 26l354 569l-17 66h106l136 -635q4 -19 17 -26.5t37 -10.5l-7 -39h-267l7 39q35 1 53.5 4t34.5 15.5t16 36.5q0 7 -2 27zM407 585l-191 -309h254zM509 910
h132l-182 -149h-41z" />
    <glyph glyph-name="Acircumflex" unicode="&#xc2;" horiz-adv-x="717" 
d="M502 122l-22 105h-294l-64 -104q-20 -31 -20 -49q0 -19 20.5 -26t66.5 -9l-7 -39h-225l8 39q26 4 41.5 11t27.5 26l354 569l-17 66h106l136 -635q4 -19 17 -26.5t37 -10.5l-7 -39h-267l7 39q35 1 53.5 4t34.5 15.5t16 36.5q0 7 -2 27zM407 585l-191 -309h254zM512 920
l106 -159h-45l-107 89l-169 -89h-47l188 159h74z" />
    <glyph glyph-name="Atilde" unicode="&#xc3;" horiz-adv-x="717" 
d="M502 122l-22 105h-294l-64 -104q-20 -31 -20 -49q0 -19 20.5 -26t66.5 -9l-7 -39h-225l8 39q26 4 41.5 11t27.5 26l354 569l-17 66h106l136 -635q4 -19 17 -26.5t37 -10.5l-7 -39h-267l7 39q35 1 53.5 4t34.5 15.5t16 36.5q0 7 -2 27zM407 585l-191 -309h254zM604 890
l36 -10q-37 -72 -63 -96t-62 -24q-32 0 -73 36t-60 36q-21 0 -34 -13t-34 -49l-37 10q37 72 63 96t62 24q32 0 73 -36t60 -36q21 0 34 13t35 49z" />
    <glyph glyph-name="Adieresis" unicode="&#xc4;" horiz-adv-x="717" 
d="M502 122l-22 105h-294l-64 -104q-20 -31 -20 -49q0 -19 20.5 -26t66.5 -9l-7 -39h-225l8 39q26 4 41.5 11t27.5 26l354 569l-17 66h106l136 -635q4 -19 17 -26.5t37 -10.5l-7 -39h-267l7 39q35 1 53.5 4t34.5 15.5t16 36.5q0 7 -2 27zM407 585l-191 -309h254zM363 770
q-25 0 -41.5 16.5t-16.5 41.5q0 26 18.5 45t44.5 19q25 0 41.5 -16.5t16.5 -41.5q0 -26 -18.5 -45t-44.5 -19zM549 770q-25 0 -41.5 16.5t-16.5 41.5q0 26 18.5 45t44.5 19q25 0 41.5 -16.5t16.5 -41.5q0 -26 -18.5 -45t-44.5 -19z" />
    <glyph glyph-name="Aring" unicode="&#xc5;" horiz-adv-x="717" 
d="M502 122l-22 105h-294l-64 -104q-20 -31 -20 -49q0 -19 20.5 -26t66.5 -9l-7 -39h-225l8 39q26 4 41.5 11t27.5 26l354 569l-17 66h106l136 -635q4 -19 17 -26.5t37 -10.5l-7 -39h-267l7 39q35 1 53.5 4t34.5 15.5t16 36.5q0 7 -2 27zM407 585l-191 -309h254zM448 754
q-37 0 -59 22.5t-22 58.5q0 43 29.5 72t73.5 29q37 0 59 -22.5t22 -58.5q0 -43 -29.5 -72t-73.5 -29zM453 791q26 0 41 18.5t15 45.5q0 20 -11.5 32t-32.5 12q-26 0 -41 -18.5t-15 -45.5q0 -20 11.5 -32t32.5 -12z" />
    <glyph glyph-name="AE" unicode="&#xc6;" horiz-adv-x="1041" 
d="M34 76l510 559q-13 28 -86 28l8 39h599l-36 -167h-27q-16 73 -34.5 97t-75.5 24h-194l-58 -274h160q33 0 54 21.5t39 68.5h34l-48 -226h-34q0 48 -11.5 69t-43.5 21h-160l-43 -205q-5 -23 -5 -39q0 -27 20 -36.5t69 -9.5h76q66 0 106.5 26.5t107.5 107.5h29l-68 -180
h-562l9 39q55 2 81.5 16t35.5 57l30 140h-255l-117 -129q-21 -22 -21 -49q0 -19 20.5 -26t67.5 -9l-7 -39h-247l8 39q40 5 69 37zM594 619l-293 -323h224z" />
    <glyph glyph-name="Ccedilla" unicode="&#xc7;" horiz-adv-x="666" 
d="M188 -221l-3 33q124 0 124 49q0 39 -89 42l51 93q-100 18 -155.5 88.5t-55.5 182.5q0 181 118.5 313t289.5 132q132 0 211 -61l-30 -149h-34q-13 161 -153 161q-89 0 -159 -58.5t-104.5 -146.5t-34.5 -184q0 -112 48.5 -173t133.5 -61q78 0 128 42t101 143h42l-47 -170
q-114 -65 -228 -65q-15 0 -41 2l-21 -40q101 -2 101 -64q0 -54 -54.5 -81.5t-138.5 -27.5z" />
    <glyph glyph-name="Egrave" unicode="&#xc8;" horiz-adv-x="669" 
d="M-12 0l9 39q55 2 81.5 16t35.5 57l99 463q5 25 5 37q0 29 -19.5 39t-70.5 12l8 39h557l-36 -167h-27q-16 73 -34.5 97t-75.5 24h-194l-58 -274h160q33 0 54 21.5t39 68.5h34l-48 -226h-34q0 48 -11.5 69t-43.5 21h-160l-43 -205q-5 -22 -5 -39q0 -27 20 -36.5t69 -9.5h76
q66 0 106.5 26.5t107.5 107.5h29l-68 -180h-562zM315 910h122l56 -149h-40z" />
    <glyph glyph-name="Eacute" unicode="&#xc9;" horiz-adv-x="669" 
d="M-12 0l9 39q55 2 81.5 16t35.5 57l99 463q5 25 5 37q0 29 -19.5 39t-70.5 12l8 39h557l-36 -167h-27q-16 73 -34.5 97t-75.5 24h-194l-58 -274h160q33 0 54 21.5t39 68.5h34l-48 -226h-34q0 48 -11.5 69t-43.5 21h-160l-43 -205q-5 -22 -5 -39q0 -27 20 -36.5t69 -9.5h76
q66 0 106.5 26.5t107.5 107.5h29l-68 -180h-562zM529 910h132l-182 -149h-41z" />
    <glyph glyph-name="Ecircumflex" unicode="&#xca;" horiz-adv-x="669" 
d="M-12 0l9 39q55 2 81.5 16t35.5 57l99 463q5 25 5 37q0 29 -19.5 39t-70.5 12l8 39h557l-36 -167h-27q-16 73 -34.5 97t-75.5 24h-194l-58 -274h160q33 0 54 21.5t39 68.5h34l-48 -226h-34q0 48 -11.5 69t-43.5 21h-160l-43 -205q-5 -22 -5 -39q0 -27 20 -36.5t69 -9.5h76
q66 0 106.5 26.5t107.5 107.5h29l-68 -180h-562zM532 920l106 -159h-45l-107 89l-169 -89h-47l188 159h74z" />
    <glyph glyph-name="Edieresis" unicode="&#xcb;" horiz-adv-x="669" 
d="M-12 0l9 39q55 2 81.5 16t35.5 57l99 463q5 25 5 37q0 29 -19.5 39t-70.5 12l8 39h557l-36 -167h-27q-16 73 -34.5 97t-75.5 24h-194l-58 -274h160q33 0 54 21.5t39 68.5h34l-48 -226h-34q0 48 -11.5 69t-43.5 21h-160l-43 -205q-5 -22 -5 -39q0 -27 20 -36.5t69 -9.5h76
q66 0 106.5 26.5t107.5 107.5h29l-68 -180h-562zM383 770q-25 0 -41.5 16.5t-16.5 41.5q0 26 18.5 45t44.5 19q25 0 41.5 -16.5t16.5 -41.5q0 -26 -18.5 -45t-44.5 -19zM569 770q-25 0 -41.5 16.5t-16.5 41.5q0 26 18.5 45t44.5 19q25 0 41.5 -16.5t16.5 -41.5
q0 -26 -18.5 -45t-44.5 -19z" />
    <glyph glyph-name="Igrave" unicode="&#xcc;" horiz-adv-x="382" 
d="M313 590l-99 -463q-5 -25 -5 -37q0 -29 19.5 -39t70.5 -12l-8 -39h-303l9 39q55 2 81.5 16t35.5 57l99 463q5 25 5 37q0 29 -19.5 39t-70.5 12l8 39h303l-9 -39q-55 -2 -81.5 -16t-35.5 -57zM152 910h122l56 -149h-40z" />
    <glyph glyph-name="Iacute" unicode="&#xcd;" horiz-adv-x="382" 
d="M313 590l-99 -463q-5 -25 -5 -37q0 -29 19.5 -39t70.5 -12l-8 -39h-303l9 39q55 2 81.5 16t35.5 57l99 463q5 25 5 37q0 29 -19.5 39t-70.5 12l8 39h303l-9 -39q-55 -2 -81.5 -16t-35.5 -57zM366 910h132l-182 -149h-41z" />
    <glyph glyph-name="Icircumflex" unicode="&#xce;" horiz-adv-x="382" 
d="M313 590l-99 -463q-5 -25 -5 -37q0 -29 19.5 -39t70.5 -12l-8 -39h-303l9 39q55 2 81.5 16t35.5 57l99 463q5 25 5 37q0 29 -19.5 39t-70.5 12l8 39h303l-9 -39q-55 -2 -81.5 -16t-35.5 -57zM369 920l106 -159h-45l-107 89l-169 -89h-47l188 159h74z" />
    <glyph glyph-name="Idieresis" unicode="&#xcf;" horiz-adv-x="382" 
d="M313 590l-99 -463q-5 -25 -5 -37q0 -29 19.5 -39t70.5 -12l-8 -39h-303l9 39q55 2 81.5 16t35.5 57l99 463q5 25 5 37q0 29 -19.5 39t-70.5 12l8 39h303l-9 -39q-55 -2 -81.5 -16t-35.5 -57zM220 770q-25 0 -41.5 16.5t-16.5 41.5q0 26 18.5 45t44.5 19q25 0 41.5 -16.5
t16.5 -41.5q0 -26 -18.5 -45t-44.5 -19zM406 770q-25 0 -41.5 16.5t-16.5 41.5q0 26 18.5 45t44.5 19q25 0 41.5 -16.5t16.5 -41.5q0 -26 -18.5 -45t-44.5 -19z" />
    <glyph glyph-name="Eth" unicode="&#xd0;" horiz-adv-x="757" 
d="M72 338l9 43h100l42 194q5 25 5 37q0 29 -19.5 39t-70.5 12l8 39h275q162 0 238.5 -79t76.5 -209q0 -178 -126.5 -296t-312.5 -118h-299l9 39q55 2 81.5 16t35.5 57l48 226h-100zM405 656h-69l-59 -275h176l-9 -43h-176l-43 -205q-5 -23 -5 -39q0 -29 17 -38.5t65 -9.5h6
q136 0 229.5 99t93.5 269q0 108 -52.5 175t-173.5 67z" />
    <glyph glyph-name="Ntilde" unicode="&#xd1;" horiz-adv-x="793" 
d="M589 157l89 418q5 25 5 37q0 29 -19.5 39t-70.5 12l8 39h265l-9 -39q-55 -2 -81.5 -16t-35.5 -57l-124 -590h-42l-307 555l-90 -428q-5 -25 -5 -37q0 -29 19.5 -39t70.5 -12l-8 -39h-266l9 39q55 2 81.5 16t35.5 57l106 494q-24 36 -40 46t-53 11l9 39h159zM650 890
l36 -10q-37 -72 -63 -96t-62 -24q-32 0 -73 36t-60 36q-21 0 -34 -13t-34 -49l-37 10q37 72 63 96t62 24q32 0 73 -36t60 -36q21 0 34 13t35 49z" />
    <glyph glyph-name="Ograve" unicode="&#xd2;" horiz-adv-x="720" 
d="M323 42q79 0 142.5 55.5t96.5 142t33 184.5q0 106 -40 171t-119 65q-80 0 -143 -55.5t-96 -141.5t-33 -184q0 -106 40 -171.5t119 -65.5zM322 -10q-125 0 -193.5 79.5t-68.5 205.5q0 180 110 308.5t267 128.5q125 0 193.5 -79t68.5 -205q0 -180 -110 -309t-267 -129z
M318 910h122l56 -149h-40z" />
    <glyph glyph-name="Oacute" unicode="&#xd3;" horiz-adv-x="720" 
d="M323 42q79 0 142.5 55.5t96.5 142t33 184.5q0 106 -40 171t-119 65q-80 0 -143 -55.5t-96 -141.5t-33 -184q0 -106 40 -171.5t119 -65.5zM322 -10q-125 0 -193.5 79.5t-68.5 205.5q0 180 110 308.5t267 128.5q125 0 193.5 -79t68.5 -205q0 -180 -110 -309t-267 -129z
M532 910h132l-182 -149h-41z" />
    <glyph glyph-name="Ocircumflex" unicode="&#xd4;" horiz-adv-x="720" 
d="M323 42q79 0 142.5 55.5t96.5 142t33 184.5q0 106 -40 171t-119 65q-80 0 -143 -55.5t-96 -141.5t-33 -184q0 -106 40 -171.5t119 -65.5zM322 -10q-125 0 -193.5 79.5t-68.5 205.5q0 180 110 308.5t267 128.5q125 0 193.5 -79t68.5 -205q0 -180 -110 -309t-267 -129z
M535 920l106 -159h-45l-107 89l-169 -89h-47l188 159h74z" />
    <glyph glyph-name="Otilde" unicode="&#xd5;" horiz-adv-x="720" 
d="M323 42q79 0 142.5 55.5t96.5 142t33 184.5q0 106 -40 171t-119 65q-80 0 -143 -55.5t-96 -141.5t-33 -184q0 -106 40 -171.5t119 -65.5zM322 -10q-125 0 -193.5 79.5t-68.5 205.5q0 180 110 308.5t267 128.5q125 0 193.5 -79t68.5 -205q0 -180 -110 -309t-267 -129z
M627 890l36 -10q-37 -72 -63 -96t-62 -24q-32 0 -73 36t-60 36q-21 0 -34 -13t-34 -49l-37 10q37 72 63 96t62 24q32 0 73 -36t60 -36q21 0 34 13t35 49z" />
    <glyph glyph-name="Odieresis" unicode="&#xd6;" horiz-adv-x="720" 
d="M323 42q79 0 142.5 55.5t96.5 142t33 184.5q0 106 -40 171t-119 65q-80 0 -143 -55.5t-96 -141.5t-33 -184q0 -106 40 -171.5t119 -65.5zM322 -10q-125 0 -193.5 79.5t-68.5 205.5q0 180 110 308.5t267 128.5q125 0 193.5 -79t68.5 -205q0 -180 -110 -309t-267 -129z
M386 770q-25 0 -41.5 16.5t-16.5 41.5q0 26 18.5 45t44.5 19q25 0 41.5 -16.5t16.5 -41.5q0 -26 -18.5 -45t-44.5 -19zM572 770q-25 0 -41.5 16.5t-16.5 41.5q0 26 18.5 45t44.5 19q25 0 41.5 -16.5t16.5 -41.5q0 -26 -18.5 -45t-44.5 -19z" />
    <glyph glyph-name="multiply" unicode="&#xd7;" horiz-adv-x="488" 
d="M216 370l-108 136l49 42l107 -139l167 139l33 -44l-166 -138l109 -137l-49 -40l-108 137l-166 -137l-34 43z" />
    <glyph glyph-name="Oslash" unicode="&#xd8;" horiz-adv-x="720" 
d="M645 737l-46 -75q100 -76 100 -234q0 -180 -110 -309t-267 -129q-67 0 -124 26l-51 -82l-39 23l51 83q-99 76 -99 235q0 180 110 308.5t267 128.5q66 0 123 -26l46 74zM323 42q79 0 142.5 55.5t96.5 142t33 184.5q0 106 -39 169l-323 -520q37 -31 90 -31zM164 279
q0 -108 39 -169l322 519q-37 31 -89 31q-80 0 -143 -55.5t-96 -141.5t-33 -184z" />
    <glyph glyph-name="Ugrave" unicode="&#xd9;" horiz-adv-x="762" 
d="M587 245l69 330q5 25 5 37q0 29 -19.5 39t-70.5 12l8 39h265l-9 -39q-55 -2 -81.5 -16t-35.5 -57l-77 -364q-25 -119 -101.5 -177.5t-183.5 -58.5q-118 0 -179.5 54.5t-61.5 158.5q0 30 8 72l62 300q5 25 5 37q0 29 -19.5 39t-70.5 12l8 39h303l-9 -39q-55 -2 -81.5 -16
t-35.5 -57l-69 -325q-7 -37 -7 -59q0 -71 40 -113.5t114 -42.5q91 0 146.5 45.5t77.5 149.5zM361 910h122l56 -149h-40z" />
    <glyph glyph-name="Uacute" unicode="&#xda;" horiz-adv-x="762" 
d="M587 245l69 330q5 25 5 37q0 29 -19.5 39t-70.5 12l8 39h265l-9 -39q-55 -2 -81.5 -16t-35.5 -57l-77 -364q-25 -119 -101.5 -177.5t-183.5 -58.5q-118 0 -179.5 54.5t-61.5 158.5q0 30 8 72l62 300q5 25 5 37q0 29 -19.5 39t-70.5 12l8 39h303l-9 -39q-55 -2 -81.5 -16
t-35.5 -57l-69 -325q-7 -37 -7 -59q0 -71 40 -113.5t114 -42.5q91 0 146.5 45.5t77.5 149.5zM575 910h132l-182 -149h-41z" />
    <glyph glyph-name="Ucircumflex" unicode="&#xdb;" horiz-adv-x="762" 
d="M587 245l69 330q5 25 5 37q0 29 -19.5 39t-70.5 12l8 39h265l-9 -39q-55 -2 -81.5 -16t-35.5 -57l-77 -364q-25 -119 -101.5 -177.5t-183.5 -58.5q-118 0 -179.5 54.5t-61.5 158.5q0 30 8 72l62 300q5 25 5 37q0 29 -19.5 39t-70.5 12l8 39h303l-9 -39q-55 -2 -81.5 -16
t-35.5 -57l-69 -325q-7 -37 -7 -59q0 -71 40 -113.5t114 -42.5q91 0 146.5 45.5t77.5 149.5zM578 920l106 -159h-45l-107 89l-169 -89h-47l188 159h74z" />
    <glyph glyph-name="Udieresis" unicode="&#xdc;" horiz-adv-x="762" 
d="M587 245l69 330q5 25 5 37q0 29 -19.5 39t-70.5 12l8 39h265l-9 -39q-55 -2 -81.5 -16t-35.5 -57l-77 -364q-25 -119 -101.5 -177.5t-183.5 -58.5q-118 0 -179.5 54.5t-61.5 158.5q0 30 8 72l62 300q5 25 5 37q0 29 -19.5 39t-70.5 12l8 39h303l-9 -39q-55 -2 -81.5 -16
t-35.5 -57l-69 -325q-7 -37 -7 -59q0 -71 40 -113.5t114 -42.5q91 0 146.5 45.5t77.5 149.5zM429 770q-25 0 -41.5 16.5t-16.5 41.5q0 26 18.5 45t44.5 19q25 0 41.5 -16.5t16.5 -41.5q0 -26 -18.5 -45t-44.5 -19zM615 770q-25 0 -41.5 16.5t-16.5 41.5q0 26 18.5 45
t44.5 19q25 0 41.5 -16.5t16.5 -41.5q0 -26 -18.5 -45t-44.5 -19z" />
    <glyph glyph-name="Yacute" unicode="&#xdd;" horiz-adv-x="666" 
d="M365 329l211 251q27 33 27 49q0 17 -18 23.5t-67 10.5l9 39h229l-9 -39q-42 -6 -70 -37l-292 -343l-33 -156q-6 -24 -6 -37q0 -29 24 -39t77 -12l-8 -39h-318l8 39q57 2 88 16.5t40 56.5l36 170l-142 344q-8 19 -19.5 26.5t-34.5 10.5l9 39h263l-9 -39q-33 0 -52 -2
t-34.5 -12t-15.5 -29q0 -13 10 -40zM527 910h132l-182 -149h-41z" />
    <glyph glyph-name="Thorn" unicode="&#xde;" horiz-adv-x="623" 
d="M295 506l-65 -303h78q218 0 218 172q0 63 -40.5 97t-118.5 34h-72zM313 590l-8 -38h91q115 0 173 -48t58 -129q0 -107 -87.5 -162.5t-233.5 -55.5h-85l-6 -25q-6 -28 -6 -40q0 -31 26.5 -40.5t89.5 -12.5l-7 -39h-330l9 39q55 2 81.5 16t35.5 57l99 463q5 25 5 37
q0 29 -19.5 39t-70.5 12l8 39h303l-9 -39q-54 -2 -80.5 -16t-36.5 -57z" />
    <glyph glyph-name="germandbls" unicode="&#xdf;" horiz-adv-x="597" 
d="M60 482l9 48h83q25 108 89.5 172t161.5 64q70 0 112 -31t42 -85q0 -37 -19 -70.5t-37 -50.5t-54 -45q-24 -19 -34 -33.5t-10 -33.5q0 -21 23.5 -54t51.5 -62.5t51.5 -70t23.5 -75.5q0 -74 -52 -119.5t-129 -45.5q-65 0 -105.5 30.5t-40.5 75.5t44 65h8q36 -127 123 -127
q75 0 75 80q0 34 -24 75t-53.5 72.5t-53.5 68.5t-24 63q0 29 17.5 50t72.5 65q63 50 63 130q0 41 -22.5 64.5t-60.5 23.5q-59 0 -90.5 -43.5t-48.5 -124.5l-84 -407q-41 -199 -92.5 -278.5t-135.5 -79.5q-40 0 -65 16.5t-25 44.5q0 47 53 60h14q16 -78 60 -78q18 0 30 13.5
t30 71.5t37 169l69 392h-83z" />
    <glyph glyph-name="agrave" unicode="&#xe0;" horiz-adv-x="597" 
d="M179 57q58 0 129.5 109t116.5 287q-26 46 -79 46q-61 0 -113 -54t-79.5 -134t-28.5 -163q0 -42 14 -66.5t40 -24.5zM451 500l59 48h35l-35 -112l-78 -320q-9 -34 -9 -44q0 -15 14 -15q33 0 92 75l21 -21q-44 -66 -80 -93.5t-75 -27.5q-56 0 -56 68q0 22 12.5 75t26.5 93
h-7q-48 -103 -108 -169.5t-118 -66.5q-52 0 -81.5 39.5t-29.5 110.5q0 158 97 279t212 121q68 0 108 -40zM215 761h124l63 -169h-41z" />
    <glyph glyph-name="aacute" unicode="&#xe1;" horiz-adv-x="597" 
d="M179 57q58 0 129.5 109t116.5 287q-26 46 -79 46q-61 0 -113 -54t-79.5 -134t-28.5 -163q0 -42 14 -66.5t40 -24.5zM451 500l59 48h35l-35 -112l-78 -320q-9 -34 -9 -44q0 -15 14 -15q33 0 92 75l21 -21q-44 -66 -80 -93.5t-75 -27.5q-56 0 -56 68q0 22 12.5 75t26.5 93
h-7q-48 -103 -108 -169.5t-118 -66.5q-52 0 -81.5 39.5t-29.5 110.5q0 158 97 279t212 121q68 0 108 -40zM445 761h136l-193 -169h-45z" />
    <glyph glyph-name="acircumflex" unicode="&#xe2;" horiz-adv-x="597" 
d="M179 57q58 0 129.5 109t116.5 287q-26 46 -79 46q-61 0 -113 -54t-79.5 -134t-28.5 -163q0 -42 14 -66.5t40 -24.5zM451 500l59 48h35l-35 -112l-78 -320q-9 -34 -9 -44q0 -15 14 -15q33 0 92 75l21 -21q-44 -66 -80 -93.5t-75 -27.5q-56 0 -56 68q0 22 12.5 75t26.5 93
h-7q-48 -103 -108 -169.5t-118 -66.5q-52 0 -81.5 39.5t-29.5 110.5q0 158 97 279t212 121q68 0 108 -40zM436 761l96 -169h-45l-97 100l-159 -100h-47l178 169h74z" />
    <glyph glyph-name="atilde" unicode="&#xe3;" horiz-adv-x="597" 
d="M179 57q58 0 129.5 109t116.5 287q-26 46 -79 46q-61 0 -113 -54t-79.5 -134t-28.5 -163q0 -42 14 -66.5t40 -24.5zM451 500l59 48h35l-35 -112l-78 -320q-9 -34 -9 -44q0 -15 14 -15q33 0 92 75l21 -21q-44 -66 -80 -93.5t-75 -27.5q-56 0 -56 68q0 22 12.5 75t26.5 93
h-7q-48 -103 -108 -169.5t-118 -66.5q-52 0 -81.5 39.5t-29.5 110.5q0 158 97 279t212 121q68 0 108 -40zM534 741l36 -10q-37 -72 -63 -96t-62 -24q-32 0 -73 36t-60 36q-21 0 -34 -13t-34 -49l-37 10q37 72 63 96t62 24q32 0 73 -36t60 -36q21 0 34 13t35 49z" />
    <glyph glyph-name="adieresis" unicode="&#xe4;" horiz-adv-x="597" 
d="M179 57q58 0 129.5 109t116.5 287q-26 46 -79 46q-61 0 -113 -54t-79.5 -134t-28.5 -163q0 -42 14 -66.5t40 -24.5zM451 500l59 48h35l-35 -112l-78 -320q-9 -34 -9 -44q0 -15 14 -15q33 0 92 75l21 -21q-44 -66 -80 -93.5t-75 -27.5q-56 0 -56 68q0 22 12.5 75t26.5 93
h-7q-48 -103 -108 -169.5t-118 -66.5q-52 0 -81.5 39.5t-29.5 110.5q0 158 97 279t212 121q68 0 108 -40zM292 615q-25 0 -41.5 16.5t-16.5 41.5q0 26 18.5 45t44.5 19q25 0 41.5 -16.5t16.5 -41.5q0 -26 -18.5 -45t-44.5 -19zM478 615q-25 0 -41.5 16.5t-16.5 41.5
q0 26 18.5 45t44.5 19q25 0 41.5 -16.5t16.5 -41.5q0 -26 -18.5 -45t-44.5 -19z" />
    <glyph glyph-name="aring" unicode="&#xe5;" horiz-adv-x="597" 
d="M179 57q58 0 129.5 109t116.5 287q-26 46 -79 46q-61 0 -113 -54t-79.5 -134t-28.5 -163q0 -42 14 -66.5t40 -24.5zM451 500l59 48h35l-35 -112l-78 -320q-9 -34 -9 -44q0 -15 14 -15q33 0 92 75l21 -21q-44 -66 -80 -93.5t-75 -27.5q-56 0 -56 68q0 22 12.5 75t26.5 93
h-7q-48 -103 -108 -169.5t-118 -66.5q-52 0 -81.5 39.5t-29.5 110.5q0 158 97 279t212 121q68 0 108 -40zM381 625q26 0 41 18.5t15 45.5q0 20 -11.5 32t-32.5 12q-26 0 -41 -18.5t-15 -45.5q0 -20 11.5 -32t32.5 -12zM376 588q-37 0 -59 22.5t-22 58.5q0 43 29.5 72
t73.5 29q37 0 59 -22.5t22 -58.5q0 -43 -29.5 -72t-73.5 -29z" />
    <glyph glyph-name="ae" unicode="&#xe6;" horiz-adv-x="771" 
d="M343 540q76 0 126 -65q76 65 164 65q58 0 87.5 -30.5t29.5 -79.5q0 -29 -13 -54.5t-39.5 -46t-54 -36t-70 -30.5t-72.5 -24t-76 -21v-26q0 -66 29 -104.5t79 -38.5q80 0 158 93l25 -20q-54 -72 -104.5 -102t-111.5 -30q-75 0 -115.5 47.5t-47.5 122.5q-44 -77 -94 -123.5
t-98 -46.5q-52 0 -81.5 39.5t-29.5 110.5q0 158 97 279t212 121zM179 57q34 0 76.5 41.5t81.5 115.5q9 130 97 227q-36 58 -88 58q-61 0 -113 -54t-79.5 -134t-28.5 -163q0 -42 14 -66.5t40 -24.5zM606 490q-60 0 -112 -69.5t-65 -170.5q124 37 180.5 76t56.5 96
q0 30 -16 49t-44 19z" />
    <glyph glyph-name="ccedilla" unicode="&#xe7;" horiz-adv-x="463" 
d="M52 -221l-3 33q124 0 124 49q0 39 -89 42l52 96q-99 31 -99 175q0 88 39 172t109 139t152 55q56 0 85.5 -23.5t29.5 -64.5q0 -47 -56 -70h-16q-3 49 -23 81t-55 32q-45 0 -85.5 -46.5t-64 -116.5t-23.5 -141q0 -143 94 -143q45 0 79.5 22t76.5 70l23 -19
q-36 -57 -88.5 -94t-118.5 -37q-12 0 -30 2l-21 -40q101 -2 101 -64q0 -54 -54.5 -81.5t-138.5 -27.5z" />
    <glyph glyph-name="egrave" unicode="&#xe8;" horiz-adv-x="472" 
d="M451 430q0 -29 -13 -54.5t-39.5 -46t-54 -36t-70 -30.5t-72.5 -24t-76 -21v-26q0 -66 29 -104.5t79 -38.5q80 0 158 93l25 -20q-54 -72 -104.5 -102t-111.5 -30q-82 0 -123 58t-41 142q0 85 40 166t109.5 132.5t147.5 51.5q58 0 87.5 -30.5t29.5 -79.5zM307 490
q-60 0 -112 -69.5t-65 -170.5q124 37 180.5 76t56.5 96q0 30 -16 49t-44 19zM174 761h124l63 -169h-41z" />
    <glyph glyph-name="eacute" unicode="&#xe9;" horiz-adv-x="472" 
d="M451 430q0 -29 -13 -54.5t-39.5 -46t-54 -36t-70 -30.5t-72.5 -24t-76 -21v-26q0 -66 29 -104.5t79 -38.5q80 0 158 93l25 -20q-54 -72 -104.5 -102t-111.5 -30q-82 0 -123 58t-41 142q0 85 40 166t109.5 132.5t147.5 51.5q58 0 87.5 -30.5t29.5 -79.5zM307 490
q-60 0 -112 -69.5t-65 -170.5q124 37 180.5 76t56.5 96q0 30 -16 49t-44 19zM404 761h136l-193 -169h-45z" />
    <glyph glyph-name="ecircumflex" unicode="&#xea;" horiz-adv-x="472" 
d="M451 430q0 -29 -13 -54.5t-39.5 -46t-54 -36t-70 -30.5t-72.5 -24t-76 -21v-26q0 -66 29 -104.5t79 -38.5q80 0 158 93l25 -20q-54 -72 -104.5 -102t-111.5 -30q-82 0 -123 58t-41 142q0 85 40 166t109.5 132.5t147.5 51.5q58 0 87.5 -30.5t29.5 -79.5zM307 490
q-60 0 -112 -69.5t-65 -170.5q124 37 180.5 76t56.5 96q0 30 -16 49t-44 19zM395 761l96 -169h-45l-97 100l-159 -100h-47l178 169h74z" />
    <glyph glyph-name="edieresis" unicode="&#xeb;" horiz-adv-x="472" 
d="M451 430q0 -29 -13 -54.5t-39.5 -46t-54 -36t-70 -30.5t-72.5 -24t-76 -21v-26q0 -66 29 -104.5t79 -38.5q80 0 158 93l25 -20q-54 -72 -104.5 -102t-111.5 -30q-82 0 -123 58t-41 142q0 85 40 166t109.5 132.5t147.5 51.5q58 0 87.5 -30.5t29.5 -79.5zM307 490
q-60 0 -112 -69.5t-65 -170.5q124 37 180.5 76t56.5 96q0 30 -16 49t-44 19zM250 615q-25 0 -41.5 16.5t-16.5 41.5q0 26 18.5 45t44.5 19q25 0 41.5 -16.5t16.5 -41.5q0 -26 -18.5 -45t-44.5 -19zM436 615q-25 0 -41.5 16.5t-16.5 41.5q0 26 18.5 45t44.5 19
q25 0 41.5 -16.5t16.5 -41.5q0 -26 -18.5 -45t-44.5 -19z" />
    <glyph glyph-name="igrave" unicode="&#xec;" horiz-adv-x="334" 
d="M266 540l-104 -424q-9 -34 -9 -44q0 -15 14 -15q32 0 93 75l20 -21q-45 -67 -80.5 -94t-74.5 -27q-28 0 -45 18.5t-17 49.5q0 27 14 86l77 310l-76 31l6 21l157 34h25zM76 761h124l63 -169h-41z" />
    <glyph glyph-name="iacute" unicode="&#xed;" horiz-adv-x="334" 
d="M266 540l-104 -424q-9 -34 -9 -44q0 -15 14 -15q32 0 93 75l20 -21q-45 -67 -80.5 -94t-74.5 -27q-28 0 -45 18.5t-17 49.5q0 27 14 86l77 310l-76 31l6 21l157 34h25zM305 761h136l-193 -169h-45z" />
    <glyph glyph-name="icircumflex" unicode="&#xee;" horiz-adv-x="334" 
d="M266 540l-104 -424q-9 -34 -9 -44q0 -15 14 -15q32 0 93 75l20 -21q-45 -67 -80.5 -94t-74.5 -27q-28 0 -45 18.5t-17 49.5q0 27 14 86l77 310l-76 31l6 21l157 34h25zM297 761l96 -169h-45l-97 100l-159 -100h-47l178 169h74z" />
    <glyph glyph-name="idieresis" unicode="&#xef;" horiz-adv-x="334" 
d="M266 540l-104 -424q-9 -34 -9 -44q0 -15 14 -15q32 0 93 75l20 -21q-45 -67 -80.5 -94t-74.5 -27q-28 0 -45 18.5t-17 49.5q0 27 14 86l77 310l-76 31l6 21l157 34h25zM152 615q-25 0 -41.5 16.5t-16.5 41.5q0 26 18.5 45t44.5 19q25 0 41.5 -16.5t16.5 -41.5
q0 -26 -18.5 -45t-44.5 -19zM338 615q-25 0 -41.5 16.5t-16.5 41.5q0 26 18.5 45t44.5 19q25 0 41.5 -16.5t16.5 -41.5q0 -26 -18.5 -45t-44.5 -19z" />
    <glyph glyph-name="eth" unicode="&#xf0;" horiz-adv-x="522" 
d="M154 578l-14 36l139 53q-50 45 -116 79l22 30q84 -35 147 -89l106 41l14 -36l-89 -34q122 -127 122 -305q0 -91 -34.5 -173.5t-99 -136t-142.5 -53.5q-79 0 -125.5 53t-46.5 148q0 84 34 163.5t97.5 132.5t138.5 53q35 0 62 -15q-22 65 -62 112zM391 363q0 62 -10 116
q-24 21 -67 21q-53 0 -96.5 -54.5t-65 -129.5t-21.5 -149q0 -65 21.5 -101t59.5 -36q52 0 94 54.5t63.5 130t21.5 148.5z" />
    <glyph glyph-name="ntilde" unicode="&#xf1;" horiz-adv-x="626" 
d="M264 540l-34 -138l-35 -111h7q52 91 131 170t145 79q68 0 68 -71q0 -18 -6 -44l-82 -309q-9 -34 -9 -44q0 -15 14 -15q32 0 93 75l20 -21q-45 -67 -80.5 -94t-74.5 -27q-28 0 -45 18.5t-17 49.5q0 33 14 86l75 278q5 22 5 33q0 21 -18 21q-53 0 -142 -103.5t-122 -233.5
l-35 -139h-91l113 454l-76 31l6 21l151 34h25zM544 741l36 -10q-37 -72 -63 -96t-62 -24q-32 0 -73 36t-60 36q-21 0 -34 -13t-34 -49l-37 10q37 72 63 96t62 24q32 0 73 -36t60 -36q21 0 34 13t35 49z" />
    <glyph glyph-name="ograve" unicode="&#xf2;" horiz-adv-x="522" 
d="M212 30q52 0 94 54.5t63.5 130t21.5 148.5q0 65 -21.5 101t-59.5 36q-52 0 -94 -54.5t-63.5 -130t-21.5 -148.5q0 -65 21.5 -101t59.5 -36zM209 -10q-79 0 -125.5 53t-46.5 148q0 84 34 163.5t99 132.5t143 53q79 0 125.5 -53t46.5 -148q0 -84 -34 -163.5t-99 -132.5
t-143 -53zM183 761h124l63 -169h-41z" />
    <glyph glyph-name="oacute" unicode="&#xf3;" horiz-adv-x="522" 
d="M212 30q52 0 94 54.5t63.5 130t21.5 148.5q0 65 -21.5 101t-59.5 36q-52 0 -94 -54.5t-63.5 -130t-21.5 -148.5q0 -65 21.5 -101t59.5 -36zM209 -10q-79 0 -125.5 53t-46.5 148q0 84 34 163.5t99 132.5t143 53q79 0 125.5 -53t46.5 -148q0 -84 -34 -163.5t-99 -132.5
t-143 -53zM403 761h136l-193 -169h-45z" />
    <glyph glyph-name="ocircumflex" unicode="&#xf4;" horiz-adv-x="522" 
d="M212 30q52 0 94 54.5t63.5 130t21.5 148.5q0 65 -21.5 101t-59.5 36q-52 0 -94 -54.5t-63.5 -130t-21.5 -148.5q0 -65 21.5 -101t59.5 -36zM209 -10q-79 0 -125.5 53t-46.5 148q0 84 34 163.5t99 132.5t143 53q79 0 125.5 -53t46.5 -148q0 -84 -34 -163.5t-99 -132.5
t-143 -53zM396 761l96 -169h-45l-97 100l-159 -100h-47l178 169h74z" />
    <glyph glyph-name="otilde" unicode="&#xf5;" horiz-adv-x="522" 
d="M212 30q52 0 94 54.5t63.5 130t21.5 148.5q0 65 -21.5 101t-59.5 36q-52 0 -94 -54.5t-63.5 -130t-21.5 -148.5q0 -65 21.5 -101t59.5 -36zM209 -10q-79 0 -125.5 53t-46.5 148q0 84 34 163.5t99 132.5t143 53q79 0 125.5 -53t46.5 -148q0 -84 -34 -163.5t-99 -132.5
t-143 -53zM499 741l36 -10q-37 -72 -63 -96t-62 -24q-32 0 -73 36t-60 36q-21 0 -34 -13t-34 -49l-37 10q37 72 63 96t62 24q32 0 73 -36t60 -36q21 0 34 13t35 49z" />
    <glyph glyph-name="odieresis" unicode="&#xf6;" horiz-adv-x="522" 
d="M212 30q52 0 94 54.5t63.5 130t21.5 148.5q0 65 -21.5 101t-59.5 36q-52 0 -94 -54.5t-63.5 -130t-21.5 -148.5q0 -65 21.5 -101t59.5 -36zM209 -10q-79 0 -125.5 53t-46.5 148q0 84 34 163.5t99 132.5t143 53q79 0 125.5 -53t46.5 -148q0 -84 -34 -163.5t-99 -132.5
t-143 -53zM252 615q-25 0 -41.5 16.5t-16.5 41.5q0 26 18.5 45t44.5 19q25 0 41.5 -16.5t16.5 -41.5q0 -26 -18.5 -45t-44.5 -19zM438 615q-25 0 -41.5 16.5t-16.5 41.5q0 26 18.5 45t44.5 19q25 0 41.5 -16.5t16.5 -41.5q0 -26 -18.5 -45t-44.5 -19z" />
    <glyph glyph-name="divide" unicode="&#xf7;" horiz-adv-x="563" 
d="M68 340l15 62h437l-14 -62h-438zM205 202q0 24 16.5 41t39.5 17q24 0 41 -17t17 -41q0 -23 -17 -40t-41 -17q-23 0 -39.5 17t-16.5 40zM271 540q0 23 16.5 39.5t39.5 16.5q24 0 41 -16.5t17 -39.5t-17 -40.5t-41 -17.5q-23 0 -39.5 17.5t-16.5 40.5z" />
    <glyph glyph-name="oslash" unicode="&#xf8;" horiz-adv-x="537" 
d="M467 576l-40 -70q73 -54 73 -167q0 -84 -36 -163.5t-103 -132.5t-145 -53q-41 0 -76 15l-46 -82l-36 20l47 83q-68 53 -68 165q0 84 36 163.5t102.5 132.5t144.5 53q37 0 71 -13l40 69zM219 30q52 0 97 54t69.5 128.5t24.5 143.5q0 58 -16 93l-229 -401q21 -18 54 -18z
M127 173q0 -54 13 -87l227 398q-20 16 -50 16q-52 0 -97 -54t-69 -128.5t-24 -144.5z" />
    <glyph glyph-name="ugrave" unicode="&#xf9;" horiz-adv-x="622" 
d="M408 249h-7q-62 -123 -130 -191t-132 -68q-32 0 -52 23t-20 60q0 31 9 66l79 315l-76 31l6 21l157 34h25l-100 -404q-9 -38 -9 -58q0 -27 22 -27q39 0 91.5 55t98.5 141.5t69 173.5l27 102l93 7l-103 -414q-9 -34 -9 -44q0 -15 14 -15q32 0 93 75l20 -21
q-45 -67 -80.5 -94t-74.5 -27q-28 0 -42.5 18t-14.5 50q0 39 46 191zM224 761h124l63 -169h-41z" />
    <glyph glyph-name="uacute" unicode="&#xfa;" horiz-adv-x="622" 
d="M408 249h-7q-62 -123 -130 -191t-132 -68q-32 0 -52 23t-20 60q0 31 9 66l79 315l-76 31l6 21l157 34h25l-100 -404q-9 -38 -9 -58q0 -27 22 -27q39 0 91.5 55t98.5 141.5t69 173.5l27 102l93 7l-103 -414q-9 -34 -9 -44q0 -15 14 -15q32 0 93 75l20 -21
q-45 -67 -80.5 -94t-74.5 -27q-28 0 -42.5 18t-14.5 50q0 39 46 191zM454 761h136l-193 -169h-45z" />
    <glyph glyph-name="ucircumflex" unicode="&#xfb;" horiz-adv-x="622" 
d="M408 249h-7q-62 -123 -130 -191t-132 -68q-32 0 -52 23t-20 60q0 31 9 66l79 315l-76 31l6 21l157 34h25l-100 -404q-9 -38 -9 -58q0 -27 22 -27q39 0 91.5 55t98.5 141.5t69 173.5l27 102l93 7l-103 -414q-9 -34 -9 -44q0 -15 14 -15q32 0 93 75l20 -21
q-45 -67 -80.5 -94t-74.5 -27q-28 0 -42.5 18t-14.5 50q0 39 46 191zM445 761l96 -169h-45l-97 100l-159 -100h-47l178 169h74z" />
    <glyph glyph-name="udieresis" unicode="&#xfc;" horiz-adv-x="622" 
d="M408 249h-7q-62 -123 -130 -191t-132 -68q-32 0 -52 23t-20 60q0 31 9 66l79 315l-76 31l6 21l157 34h25l-100 -404q-9 -38 -9 -58q0 -27 22 -27q39 0 91.5 55t98.5 141.5t69 173.5l27 102l93 7l-103 -414q-9 -34 -9 -44q0 -15 14 -15q32 0 93 75l20 -21
q-45 -67 -80.5 -94t-74.5 -27q-28 0 -42.5 18t-14.5 50q0 39 46 191zM300 615q-25 0 -41.5 16.5t-16.5 41.5q0 26 18.5 45t44.5 19q25 0 41.5 -16.5t16.5 -41.5q0 -26 -18.5 -45t-44.5 -19zM486 615q-25 0 -41.5 16.5t-16.5 41.5q0 26 18.5 45t44.5 19q25 0 41.5 -16.5
t16.5 -41.5q0 -26 -18.5 -45t-44.5 -19z" />
    <glyph glyph-name="yacute" unicode="&#xfd;" horiz-adv-x="515" 
d="M335 99q-61 -95 -112.5 -158.5t-92 -94t-70.5 -41.5t-62 -11q-37 0 -65.5 19t-28.5 58q0 22 13 39.5t33 23.5h17q0 -82 64 -82q33 0 67.5 21t86.5 85l-86 501l-73 25l6 21l132 35h13l77 -490q25 35 45 67q121 185 121 291q0 72 -90 72v15q36 45 86 45q43 0 63.5 -25.5
t20.5 -62.5q0 -52 -38.5 -133t-126.5 -220zM390 761h136l-193 -169h-45z" />
    <glyph glyph-name="thorn" unicode="&#xfe;" horiz-adv-x="580" 
d="M134 114q0 -35 20.5 -58t53.5 -23q61 0 118 55t91 138t34 164q0 83 -56 83q-24 0 -61 -27.5t-75.5 -73t-73 -115t-51.5 -143.5zM-7 -105l180 773l-74 31l5 20l160 42h23l-78 -335l-52 -149h7q147 263 272 263q53 0 81.5 -39t28.5 -103q0 -104 -52 -200t-129.5 -152
t-154.5 -56q-29 0 -56.5 13t-39.5 32l-27 -128q-5 -20 -5 -29q0 -14 10 -22.5t22 -11.5t36 -6l-9 -35h-251l9 35q30 4 44.5 7.5t29.5 15.5t20 34z" />
    <glyph glyph-name="ydieresis" unicode="&#xff;" horiz-adv-x="515" 
d="M335 99q-61 -95 -112.5 -158.5t-92 -94t-70.5 -41.5t-62 -11q-37 0 -65.5 19t-28.5 58q0 22 13 39.5t33 23.5h17q0 -82 64 -82q33 0 67.5 21t86.5 85l-86 501l-73 25l6 21l132 35h13l77 -490q25 35 45 67q121 185 121 291q0 72 -90 72v15q36 45 86 45q43 0 63.5 -25.5
t20.5 -62.5q0 -52 -38.5 -133t-126.5 -220zM423 615q-25 0 -41.5 16.5t-16.5 41.5q0 26 18.5 45t44.5 19q25 0 41.5 -16.5t16.5 -41.5q0 -26 -18.5 -45t-44.5 -19zM237 615q-25 0 -41.5 16.5t-16.5 41.5q0 26 18.5 45t44.5 19q25 0 41.5 -16.5t16.5 -41.5q0 -26 -18.5 -45
t-44.5 -19z" />
    <glyph glyph-name="Amacron" unicode="&#x100;" horiz-adv-x="717" 
d="M502 122l-22 105h-294l-64 -104q-20 -31 -20 -49q0 -19 20.5 -26t66.5 -9l-7 -39h-225l8 39q26 4 41.5 11t27.5 26l354 569l-17 66h106l136 -635q4 -19 17 -26.5t37 -10.5l-7 -39h-267l7 39q35 1 53.5 4t34.5 15.5t16 36.5q0 7 -2 27zM407 585l-191 -309h254zM306 783
l14 62h282l-14 -62h-282z" />
    <glyph glyph-name="amacron" unicode="&#x101;" horiz-adv-x="597" 
d="M179 57q58 0 129.5 109t116.5 287q-26 46 -79 46q-61 0 -113 -54t-79.5 -134t-28.5 -163q0 -42 14 -66.5t40 -24.5zM451 500l59 48h35l-35 -112l-78 -320q-9 -34 -9 -44q0 -15 14 -15q33 0 92 75l21 -21q-44 -66 -80 -93.5t-75 -27.5q-56 0 -56 68q0 22 12.5 75t26.5 93
h-7q-48 -103 -108 -169.5t-118 -66.5q-52 0 -81.5 39.5t-29.5 110.5q0 158 97 279t212 121q68 0 108 -40zM244 623l13 58h262l-13 -58h-262z" />
    <glyph glyph-name="Abreve" unicode="&#x102;" horiz-adv-x="717" 
d="M502 122l-22 105h-294l-64 -104q-20 -31 -20 -49q0 -19 20.5 -26t66.5 -9l-7 -39h-225l8 39q26 4 41.5 11t27.5 26l354 569l-17 66h106l136 -635q4 -19 17 -26.5t37 -10.5l-7 -39h-267l7 39q35 1 53.5 4t34.5 15.5t16 36.5q0 7 -2 27zM407 585l-191 -309h254zM445 758
q-58 0 -90.5 31.5t-32.5 89.5q0 21 6 47h36q-1 -6 -1 -17q0 -42 27 -63.5t68 -21.5q44 0 80 25.5t52 76.5h39q-16 -79 -65.5 -123.5t-118.5 -44.5z" />
    <glyph glyph-name="abreve" unicode="&#x103;" horiz-adv-x="597" 
d="M179 57q58 0 129.5 109t116.5 287q-26 46 -79 46q-61 0 -113 -54t-79.5 -134t-28.5 -163q0 -42 14 -66.5t40 -24.5zM451 500l59 48h35l-35 -112l-78 -320q-9 -34 -9 -44q0 -15 14 -15q33 0 92 75l21 -21q-44 -66 -80 -93.5t-75 -27.5q-56 0 -56 68q0 22 12.5 75t26.5 93
h-7q-48 -103 -108 -169.5t-118 -66.5q-52 0 -81.5 39.5t-29.5 110.5q0 158 97 279t212 121q68 0 108 -40zM372 593q-113 0 -113 121q0 22 6 47h36q-1 -6 -1 -17q0 -85 85 -85q89 0 122 102h39q-16 -80 -61.5 -124t-112.5 -44z" />
    <glyph glyph-name="Aogonek" unicode="&#x104;" horiz-adv-x="717" 
d="M502 122l-22 105h-294l-64 -104q-20 -31 -20 -49q0 -19 20.5 -26t66.5 -9l-7 -39h-225l8 39q26 4 41.5 11t27.5 26l354 569l-17 66h106l136 -635q4 -19 17 -26.5t37 -10.5l-7 -39h-209q-124 -44 -124 -119q0 -36 44 -36q32 0 98 47l13 -19q-76 -83 -144 -83
q-35 0 -57 19.5t-22 52.5q0 53 34 87t104 65q12 5 33 13t30.5 12.5t21.5 12.5t17 18.5t5 24.5q0 7 -2 27zM407 585l-191 -309h254z" />
    <glyph glyph-name="aogonek" unicode="&#x105;" horiz-adv-x="597" 
d="M451 500l59 48h35l-35 -112l-78 -320q-9 -34 -9 -44q0 -15 14 -15q33 0 92 75l21 -21q-29 -43 -75 -80.5t-82.5 -57.5t-64 -44.5t-27.5 -47.5q0 -36 44 -36q32 0 98 47l13 -19q-76 -83 -144 -83q-35 0 -57 18t-22 50q0 43 37.5 76t104.5 64q-36 11 -36 60q0 22 12.5 75
t26.5 93h-7q-48 -103 -108 -169.5t-118 -66.5q-52 0 -81.5 39.5t-29.5 110.5q0 158 97 279t212 121q68 0 108 -40zM179 57q58 0 129.5 109t116.5 287q-26 46 -79 46q-61 0 -113 -54t-79.5 -134t-28.5 -163q0 -42 14 -66.5t40 -24.5z" />
    <glyph glyph-name="Cacute" unicode="&#x106;" horiz-adv-x="666" 
d="M342 -10q-132 0 -207 73t-75 204q0 181 118.5 313t289.5 132q132 0 211 -61l-30 -149h-34q-13 161 -153 161q-89 0 -159 -58.5t-104.5 -146.5t-34.5 -184q0 -112 48.5 -173t133.5 -61q78 0 128 42t101 143h42l-47 -170q-114 -65 -228 -65zM567 910h132l-182 -149h-41z
" />
    <glyph glyph-name="cacute" unicode="&#x107;" horiz-adv-x="463" 
d="M302 495q-45 0 -85.5 -46.5t-64 -116.5t-23.5 -141q0 -143 94 -143q45 0 79.5 22t76.5 70l23 -19q-36 -57 -88.5 -94t-118.5 -37q-81 0 -119.5 50t-38.5 134q0 88 39 172t109 139t152 55q56 0 85.5 -23.5t29.5 -64.5q0 -47 -56 -70h-16q-3 49 -23 81t-55 32zM410 761h136
l-193 -169h-45z" />
    <glyph glyph-name="Ccircumflex" unicode="&#x108;" horiz-adv-x="666" 
d="M342 -10q-132 0 -207 73t-75 204q0 181 118.5 313t289.5 132q132 0 211 -61l-30 -149h-34q-13 161 -153 161q-89 0 -159 -58.5t-104.5 -146.5t-34.5 -184q0 -112 48.5 -173t133.5 -61q78 0 128 42t101 143h42l-47 -170q-114 -65 -228 -65zM570 920l106 -159h-45l-107 89
l-169 -89h-47l188 159h74z" />
    <glyph glyph-name="ccircumflex" unicode="&#x109;" horiz-adv-x="463" 
d="M302 495q-45 0 -85.5 -46.5t-64 -116.5t-23.5 -141q0 -143 94 -143q45 0 79.5 22t76.5 70l23 -19q-36 -57 -88.5 -94t-118.5 -37q-81 0 -119.5 50t-38.5 134q0 88 39 172t109 139t152 55q56 0 85.5 -23.5t29.5 -64.5q0 -47 -56 -70h-16q-3 49 -23 81t-55 32zM411 761
l96 -169h-45l-97 100l-159 -100h-47l178 169h74z" />
    <glyph glyph-name="Cdotaccent" unicode="&#x10a;" horiz-adv-x="666" 
d="M342 -10q-132 0 -207 73t-75 204q0 181 118.5 313t289.5 132q132 0 211 -61l-30 -149h-34q-13 161 -153 161q-89 0 -159 -58.5t-104.5 -146.5t-34.5 -184q0 -112 48.5 -173t133.5 -61q78 0 128 42t101 143h42l-47 -170q-114 -65 -228 -65zM514 767q-27 0 -45 18.5
t-18 44.5q0 29 20.5 50t49.5 21q27 0 45 -18.5t18 -44.5q0 -29 -20.5 -50t-49.5 -21z" />
    <glyph glyph-name="cdotaccent" unicode="&#x10b;" horiz-adv-x="463" 
d="M302 495q-45 0 -85.5 -46.5t-64 -116.5t-23.5 -141q0 -143 94 -143q45 0 79.5 22t76.5 70l23 -19q-36 -57 -88.5 -94t-118.5 -37q-81 0 -119.5 50t-38.5 134q0 88 39 172t109 139t152 55q56 0 85.5 -23.5t29.5 -64.5q0 -47 -56 -70h-16q-3 49 -23 81t-55 32zM349 611
q-27 0 -45 18.5t-18 44.5q0 29 20.5 50t49.5 21q27 0 45 -18.5t18 -44.5q0 -29 -20.5 -50t-49.5 -21z" />
    <glyph glyph-name="Ccaron" unicode="&#x10c;" horiz-adv-x="666" 
d="M342 -10q-132 0 -207 73t-75 204q0 181 118.5 313t289.5 132q132 0 211 -61l-30 -149h-34q-13 161 -153 161q-89 0 -159 -58.5t-104.5 -146.5t-34.5 -184q0 -112 48.5 -173t133.5 -61q78 0 128 42t101 143h42l-47 -170q-114 -65 -228 -65zM467 761l-106 159h45l107 -89
l169 89h47l-188 -159h-74z" />
    <glyph glyph-name="ccaron" unicode="&#x10d;" horiz-adv-x="463" 
d="M302 495q-45 0 -85.5 -46.5t-64 -116.5t-23.5 -141q0 -143 94 -143q45 0 79.5 22t76.5 70l23 -19q-36 -57 -88.5 -94t-118.5 -37q-81 0 -119.5 50t-38.5 134q0 88 39 172t109 139t152 55q56 0 85.5 -23.5t29.5 -64.5q0 -47 -56 -70h-16q-3 49 -23 81t-55 32zM300 594
l-96 169h45l97 -100l159 100h47l-178 -169h-74z" />
    <glyph glyph-name="Dcaron" unicode="&#x10e;" horiz-adv-x="747" 
d="M395 656h-69l-111 -523q-5 -23 -5 -39q0 -29 17 -38.5t65 -9.5h6q136 0 229.5 99t93.5 269q0 108 -52.5 175t-173.5 67zM-12 0l9 39q55 2 81.5 16t35.5 57l99 463q5 25 5 37q0 29 -19.5 39t-70.5 12l8 39h275q162 0 238.5 -79t76.5 -209q0 -178 -126.5 -296t-312.5 -118
h-299zM410 761l-106 159h45l107 -89l169 89h47l-188 -159h-74z" />
    <glyph glyph-name="dcaron" unicode="&#x10f;" horiz-adv-x="604" 
d="M185 55q60 0 135 116.5t112 284.5q-24 43 -76 43q-64 0 -117.5 -54t-82.5 -134t-30 -163q0 -42 15 -67.5t44 -25.5zM480 668l-74 31l5 20l158 42h23l-150 -645q-8 -38 -8 -44q0 -15 14 -15q33 0 92 75l21 -21q-44 -66 -80 -93.5t-75 -27.5q-27 0 -41.5 17.5t-14.5 45.5
q0 55 36 174h-7q-48 -103 -109.5 -170t-121.5 -67q-54 0 -84 39.5t-30 110.5q0 105 47 198.5t120.5 147.5t150.5 54q56 0 93 -34zM788 761l-127 -205h-35l60 205h102z" />
    <glyph glyph-name="Dcroat" unicode="&#x110;" horiz-adv-x="757" 
d="M72 338l9 43h100l42 194q5 25 5 37q0 29 -19.5 39t-70.5 12l8 39h275q162 0 238.5 -79t76.5 -209q0 -178 -126.5 -296t-312.5 -118h-299l9 39q55 2 81.5 16t35.5 57l48 226h-100zM405 656h-69l-59 -275h176l-9 -43h-176l-43 -205q-5 -23 -5 -39q0 -29 17 -38.5t65 -9.5h6
q136 0 229.5 99t93.5 269q0 108 -52.5 175t-173.5 67z" />
    <glyph glyph-name="dcroat" unicode="&#x111;" horiz-adv-x="612" 
d="M627 584h-76l-109 -468q-8 -38 -8 -44q0 -15 14 -15q33 0 92 75l21 -21q-44 -66 -80 -93.5t-75 -27.5q-27 0 -41.5 17.5t-14.5 45.5q0 55 36 174h-7q-48 -103 -109.5 -170t-121.5 -67q-54 0 -84 39.5t-30 110.5q0 158 97.5 274.5t217.5 116.5q56 0 93 -34l19 87h-154
l10 40h152l15 66h-79l6 29l158 42h23l-32 -137h77zM185 55q60 0 133.5 112.5t110.5 279.5q-24 43 -76 43q-64 0 -117 -52t-81 -129.5t-29 -160.5q0 -42 15 -67.5t44 -25.5z" />
    <glyph glyph-name="Emacron" unicode="&#x112;" horiz-adv-x="669" 
d="M-12 0l9 39q55 2 81.5 16t35.5 57l99 463q5 25 5 37q0 29 -19.5 39t-70.5 12l8 39h557l-36 -167h-27q-16 73 -34.5 97t-75.5 24h-194l-58 -274h160q33 0 54 21.5t39 68.5h34l-48 -226h-34q0 48 -11.5 69t-43.5 21h-160l-43 -205q-5 -22 -5 -39q0 -27 20 -36.5t69 -9.5h76
q66 0 106.5 26.5t107.5 107.5h29l-68 -180h-562zM326 783l14 62h282l-14 -62h-282z" />
    <glyph glyph-name="emacron" unicode="&#x113;" horiz-adv-x="472" 
d="M451 430q0 -29 -13 -54.5t-39.5 -46t-54 -36t-70 -30.5t-72.5 -24t-76 -21v-26q0 -66 29 -104.5t79 -38.5q80 0 158 93l25 -20q-54 -72 -104.5 -102t-111.5 -30q-82 0 -123 58t-41 142q0 85 40 166t109.5 132.5t147.5 51.5q58 0 87.5 -30.5t29.5 -79.5zM307 490
q-60 0 -112 -69.5t-65 -170.5q124 37 180.5 76t56.5 96q0 30 -16 49t-44 19zM203 623l13 58h262l-13 -58h-262z" />
    <glyph glyph-name="Ebreve" unicode="&#x114;" horiz-adv-x="669" 
d="M-12 0l9 39q55 2 81.5 16t35.5 57l99 463q5 25 5 37q0 29 -19.5 39t-70.5 12l8 39h557l-36 -167h-27q-16 73 -34.5 97t-75.5 24h-194l-58 -274h160q33 0 54 21.5t39 68.5h34l-48 -226h-34q0 48 -11.5 69t-43.5 21h-160l-43 -205q-5 -22 -5 -39q0 -27 20 -36.5t69 -9.5h76
q66 0 106.5 26.5t107.5 107.5h29l-68 -180h-562zM465 758q-58 0 -90.5 31.5t-32.5 89.5q0 21 6 47h36q-1 -6 -1 -17q0 -42 27 -63.5t68 -21.5q44 0 80 25.5t52 76.5h39q-16 -79 -65.5 -123.5t-118.5 -44.5z" />
    <glyph glyph-name="ebreve" unicode="&#x115;" horiz-adv-x="472" 
d="M451 430q0 -29 -13 -54.5t-39.5 -46t-54 -36t-70 -30.5t-72.5 -24t-76 -21v-26q0 -66 29 -104.5t79 -38.5q80 0 158 93l25 -20q-54 -72 -104.5 -102t-111.5 -30q-82 0 -123 58t-41 142q0 85 40 166t109.5 132.5t147.5 51.5q58 0 87.5 -30.5t29.5 -79.5zM307 490
q-60 0 -112 -69.5t-65 -170.5q124 37 180.5 76t56.5 96q0 30 -16 49t-44 19zM330 593q-113 0 -113 121q0 22 6 47h36q-1 -6 -1 -17q0 -85 85 -85q89 0 122 102h39q-16 -80 -61.5 -124t-112.5 -44z" />
    <glyph glyph-name="Edotaccent" unicode="&#x116;" horiz-adv-x="669" 
d="M-12 0l9 39q55 2 81.5 16t35.5 57l99 463q5 25 5 37q0 29 -19.5 39t-70.5 12l8 39h557l-36 -167h-27q-16 73 -34.5 97t-75.5 24h-194l-58 -274h160q33 0 54 21.5t39 68.5h34l-48 -226h-34q0 48 -11.5 69t-43.5 21h-160l-43 -205q-5 -22 -5 -39q0 -27 20 -36.5t69 -9.5h76
q66 0 106.5 26.5t107.5 107.5h29l-68 -180h-562zM476 767q-27 0 -45 18.5t-18 44.5q0 29 20.5 50t49.5 21q27 0 45 -18.5t18 -44.5q0 -29 -20.5 -50t-49.5 -21z" />
    <glyph glyph-name="edotaccent" unicode="&#x117;" horiz-adv-x="472" 
d="M451 430q0 -29 -13 -54.5t-39.5 -46t-54 -36t-70 -30.5t-72.5 -24t-76 -21v-26q0 -66 29 -104.5t79 -38.5q80 0 158 93l25 -20q-54 -72 -104.5 -102t-111.5 -30q-82 0 -123 58t-41 142q0 85 40 166t109.5 132.5t147.5 51.5q58 0 87.5 -30.5t29.5 -79.5zM307 490
q-60 0 -112 -69.5t-65 -170.5q124 37 180.5 76t56.5 96q0 30 -16 49t-44 19zM343 611q-27 0 -45 18.5t-18 44.5q0 29 20.5 50t49.5 21q27 0 45 -18.5t18 -44.5q0 -29 -20.5 -50t-49.5 -21z" />
    <glyph glyph-name="Eogonek" unicode="&#x118;" horiz-adv-x="669" 
d="M-12 0l9 39q55 2 81.5 16t35.5 57l99 463q5 25 5 37q0 29 -19.5 39t-70.5 12l8 39h557l-36 -167h-27q-16 73 -34.5 97t-75.5 24h-194l-58 -274h160q33 0 54 21.5t39 68.5h34l-48 -226h-34q0 48 -11.5 69t-43.5 21h-160l-43 -205q-5 -22 -5 -39q0 -27 20 -36.5t69 -9.5h76
q66 0 106.5 26.5t107.5 107.5h29l-68 -180h-87q-57 -30 -90 -58t-33 -61q0 -36 44 -36q32 0 98 47l13 -19q-76 -83 -144 -83q-35 0 -57 18t-22 50q0 44 34 77.5t95 64.5h-413z" />
    <glyph glyph-name="eogonek" unicode="&#x119;" horiz-adv-x="472" 
d="M451 430q0 -29 -13 -54.5t-39.5 -46t-54 -36t-70 -30.5t-72.5 -24t-76 -21v-26q0 -66 29 -104.5t79 -38.5q80 0 158 93l25 -20q-68 -90 -132 -116q-43 -23 -65 -36.5t-45.5 -38.5t-23.5 -50q0 -36 44 -36q32 0 98 47l13 -19q-76 -83 -144 -83q-35 0 -57 18t-22 50
q0 72 110 132q-78 3 -117 60.5t-39 139.5q0 85 40 166t109.5 132.5t147.5 51.5q58 0 87.5 -30.5t29.5 -79.5zM307 490q-60 0 -112 -69.5t-65 -170.5q124 37 180.5 76t56.5 96q0 30 -16 49t-44 19z" />
    <glyph glyph-name="Ecaron" unicode="&#x11a;" horiz-adv-x="669" 
d="M-12 0l9 39q55 2 81.5 16t35.5 57l99 463q5 25 5 37q0 29 -19.5 39t-70.5 12l8 39h557l-36 -167h-27q-16 73 -34.5 97t-75.5 24h-194l-58 -274h160q33 0 54 21.5t39 68.5h34l-48 -226h-34q0 48 -11.5 69t-43.5 21h-160l-43 -205q-5 -22 -5 -39q0 -27 20 -36.5t69 -9.5h76
q66 0 106.5 26.5t107.5 107.5h29l-68 -180h-562zM429 761l-106 159h45l107 -89l169 89h47l-188 -159h-74z" />
    <glyph glyph-name="ecaron" unicode="&#x11b;" horiz-adv-x="472" 
d="M451 430q0 -29 -13 -54.5t-39.5 -46t-54 -36t-70 -30.5t-72.5 -24t-76 -21v-26q0 -66 29 -104.5t79 -38.5q80 0 158 93l25 -20q-54 -72 -104.5 -102t-111.5 -30q-82 0 -123 58t-41 142q0 85 40 166t109.5 132.5t147.5 51.5q58 0 87.5 -30.5t29.5 -79.5zM307 490
q-60 0 -112 -69.5t-65 -170.5q124 37 180.5 76t56.5 96q0 30 -16 49t-44 19zM293 594l-96 169h45l97 -100l159 100h47l-178 -169h-74z" />
    <glyph glyph-name="Gcircumflex" unicode="&#x11c;" horiz-adv-x="730" 
d="M60 269q0 114 55 216t151.5 164.5t209.5 62.5q132 0 211 -61l-30 -149h-34q-13 161 -153 161q-90 0 -161.5 -58.5t-108 -147.5t-36.5 -187q0 -111 53 -170.5t139 -59.5q76 0 140 37l33 133q6 26 6 37q0 29 -20 39t-71 12l8 39h285l-8 -39q-52 -2 -73.5 -15.5t-32.5 -57.5
l-40 -166q-120 -69 -231 -69q-135 0 -213.5 71.5t-78.5 207.5zM565 920l106 -159h-45l-107 89l-169 -89h-47l188 159h74z" />
    <glyph glyph-name="gcircumflex" unicode="&#x11d;" horiz-adv-x="517" 
d="M305 540q44 0 76 -17l176 12l-15 -65h-39l-82 22q34 -40 34 -96q0 -100 -67 -161t-167 -61q-23 0 -46 5q-35 -23 -35 -39q0 -12 9 -18t32 -12l144 -41q119 -34 119 -121q0 -62 -65.5 -109.5t-201.5 -47.5q-101 0 -169 37.5t-68 91.5q0 53 43 80.5t124 48.5q-28 19 -28 51
q0 49 69 89q-37 18 -57 52.5t-20 76.5q0 100 67 161t167 61zM283 -9l-154 45q-53 -19 -77 -42.5t-24 -61.5q0 -47 47.5 -75.5t117.5 -28.5q76 0 123.5 26t47.5 70q0 26 -19.5 40t-61.5 27zM234 209q52 0 92.5 58t40.5 136q0 46 -18.5 74t-56.5 28q-52 0 -92.5 -58
t-40.5 -136q0 -46 18.5 -74t56.5 -28zM406 761l96 -169h-45l-97 100l-159 -100h-47l178 169h74z" />
    <glyph glyph-name="Gbreve" unicode="&#x11e;" horiz-adv-x="730" 
d="M60 269q0 114 55 216t151.5 164.5t209.5 62.5q132 0 211 -61l-30 -149h-34q-13 161 -153 161q-90 0 -161.5 -58.5t-108 -147.5t-36.5 -187q0 -111 53 -170.5t139 -59.5q76 0 140 37l33 133q6 26 6 37q0 29 -20 39t-71 12l8 39h285l-8 -39q-52 -2 -73.5 -15.5t-32.5 -57.5
l-40 -166q-120 -69 -231 -69q-135 0 -213.5 71.5t-78.5 207.5zM498 758q-58 0 -90.5 31.5t-32.5 89.5q0 21 6 47h36q-1 -6 -1 -17q0 -42 27 -63.5t68 -21.5q44 0 80 25.5t52 76.5h39q-16 -79 -65.5 -123.5t-118.5 -44.5z" />
    <glyph glyph-name="gbreve" unicode="&#x11f;" horiz-adv-x="517" 
d="M305 540q44 0 76 -17l176 12l-15 -65h-39l-82 22q34 -40 34 -96q0 -100 -67 -161t-167 -61q-23 0 -46 5q-35 -23 -35 -39q0 -12 9 -18t32 -12l144 -41q119 -34 119 -121q0 -62 -65.5 -109.5t-201.5 -47.5q-101 0 -169 37.5t-68 91.5q0 53 43 80.5t124 48.5q-28 19 -28 51
q0 49 69 89q-37 18 -57 52.5t-20 76.5q0 100 67 161t167 61zM283 -9l-154 45q-53 -19 -77 -42.5t-24 -61.5q0 -47 47.5 -75.5t117.5 -28.5q76 0 123.5 26t47.5 70q0 26 -19.5 40t-61.5 27zM234 209q52 0 92.5 58t40.5 136q0 46 -18.5 74t-56.5 28q-52 0 -92.5 -58
t-40.5 -136q0 -46 18.5 -74t56.5 -28zM342 593q-113 0 -113 121q0 22 6 47h36q-1 -6 -1 -17q0 -85 85 -85q89 0 122 102h39q-16 -80 -61.5 -124t-112.5 -44z" />
    <glyph glyph-name="Gdotaccent" unicode="&#x120;" horiz-adv-x="730" 
d="M60 269q0 114 55 216t151.5 164.5t209.5 62.5q132 0 211 -61l-30 -149h-34q-13 161 -153 161q-90 0 -161.5 -58.5t-108 -147.5t-36.5 -187q0 -111 53 -170.5t139 -59.5q76 0 140 37l33 133q6 26 6 37q0 29 -20 39t-71 12l8 39h285l-8 -39q-52 -2 -73.5 -15.5t-32.5 -57.5
l-40 -166q-120 -69 -231 -69q-135 0 -213.5 71.5t-78.5 207.5zM509 767q-27 0 -45 18.5t-18 44.5q0 29 20.5 50t49.5 21q27 0 45 -18.5t18 -44.5q0 -29 -20.5 -50t-49.5 -21z" />
    <glyph glyph-name="gdotaccent" unicode="&#x121;" horiz-adv-x="517" 
d="M305 540q44 0 76 -17l176 12l-15 -65h-39l-82 22q34 -40 34 -96q0 -100 -67 -161t-167 -61q-23 0 -46 5q-35 -23 -35 -39q0 -12 9 -18t32 -12l144 -41q119 -34 119 -121q0 -62 -65.5 -109.5t-201.5 -47.5q-101 0 -169 37.5t-68 91.5q0 53 43 80.5t124 48.5q-28 19 -28 51
q0 49 69 89q-37 18 -57 52.5t-20 76.5q0 100 67 161t167 61zM283 -9l-154 45q-53 -19 -77 -42.5t-24 -61.5q0 -47 47.5 -75.5t117.5 -28.5q76 0 123.5 26t47.5 70q0 26 -19.5 40t-61.5 27zM234 209q52 0 92.5 58t40.5 136q0 46 -18.5 74t-56.5 28q-52 0 -92.5 -58
t-40.5 -136q0 -46 18.5 -74t56.5 -28zM354 611q-27 0 -45 18.5t-18 44.5q0 29 20.5 50t49.5 21q27 0 45 -18.5t18 -44.5q0 -29 -20.5 -50t-49.5 -21z" />
    <glyph glyph-name="Gcommaaccent" unicode="&#x122;" horiz-adv-x="730" 
d="M60 269q0 114 55 216t151.5 164.5t209.5 62.5q132 0 211 -61l-30 -149h-34q-13 161 -153 161q-90 0 -161.5 -58.5t-108 -147.5t-36.5 -187q0 -111 53 -170.5t139 -59.5q76 0 140 37l33 133q6 26 6 37q0 29 -20 39t-71 12l8 39h285l-8 -39q-52 -2 -73.5 -15.5t-32.5 -57.5
l-40 -166q-120 -69 -231 -69q-135 0 -213.5 71.5t-78.5 207.5zM322 -153h-46q-33 7 -33 39q0 29 20.5 45.5t52.5 16.5q30 0 46.5 -17t16.5 -47q0 -49 -39 -81.5t-109 -32.5l7 33q75 0 84 44z" />
    <glyph glyph-name="gcommaaccent" unicode="&#x123;" horiz-adv-x="517" 
d="M305 540q44 0 76 -17l176 12l-15 -65h-39l-82 22q34 -40 34 -96q0 -100 -67 -161t-167 -61q-23 0 -46 5q-35 -23 -35 -39q0 -12 9 -18t32 -12l144 -41q119 -34 119 -121q0 -62 -65.5 -109.5t-201.5 -47.5q-101 0 -169 37.5t-68 91.5q0 53 43 80.5t124 48.5q-28 19 -28 51
q0 49 69 89q-37 18 -57 52.5t-20 76.5q0 100 67 161t167 61zM283 -9l-154 45q-53 -19 -77 -42.5t-24 -61.5q0 -47 47.5 -75.5t117.5 -28.5q76 0 123.5 26t47.5 70q0 26 -19.5 40t-61.5 27zM234 209q52 0 92.5 58t40.5 136q0 46 -18.5 74t-56.5 28q-52 0 -92.5 -58
t-40.5 -136q0 -46 18.5 -74t56.5 -28zM344 708h46q33 -7 33 -39q0 -29 -20.5 -45.5t-52.5 -16.5q-30 0 -46.5 17t-16.5 47q0 49 39 81.5t109 32.5l-7 -33q-75 0 -84 -44z" />
    <glyph glyph-name="Hcircumflex" unicode="&#x124;" horiz-adv-x="845" 
d="M776 590l-99 -463q-5 -25 -5 -37q0 -29 19.5 -39t70.5 -12l-8 -39h-303l9 39q55 2 81.5 16t35.5 57l48 224h-367l-44 -209q-5 -25 -5 -37q0 -29 19.5 -39t70.5 -12l-8 -39h-303l9 39q55 2 81.5 16t35.5 57l99 463q5 25 5 37q0 29 -19.5 39t-70.5 12l8 39h303l-9 -39
q-55 -2 -81.5 -16t-35.5 -57l-45 -208h367l41 193q5 25 5 37q0 29 -19.5 39t-70.5 12l8 39h303l-9 -39q-55 -2 -81.5 -16t-35.5 -57zM601 920l106 -159h-45l-107 89l-169 -89h-47l188 159h74z" />
    <glyph glyph-name="hcircumflex" unicode="&#x125;" horiz-adv-x="619" 
d="M222 403l-34 -112h7q52 91 131 170t145 79q68 0 68 -71q0 -18 -6 -44l-82 -309q-9 -34 -9 -44q0 -15 14 -15q32 0 93 75l20 -21q-45 -67 -80.5 -94t-74.5 -27q-28 0 -45 18.5t-17 49.5q0 33 14 86l75 278q5 22 5 33q0 21 -18 21q-53 0 -142 -103.5t-122 -233.5l-35 -139
h-91l153 668l-74 31l5 20l160 42h23zM490 950l106 -159h-45l-107 89l-169 -89h-47l188 159h74z" />
    <glyph glyph-name="Hbar" unicode="&#x126;" horiz-adv-x="865" 
d="M101 488l10 43h102l10 44q5 25 5 37q0 29 -19.5 39t-70.5 12l8 39h303l-9 -39q-55 -2 -81.5 -16t-35.5 -57l-13 -59h366l10 44q5 25 5 37q0 29 -19.5 39t-70.5 12l8 39h303l-9 -39q-55 -2 -81.5 -16t-35.5 -57l-13 -59h105l-10 -43h-104l-77 -361q-5 -25 -5 -37
q0 -29 19.5 -39t70.5 -12l-8 -39h-303l9 39q55 2 81.5 16t35.5 57l46 214h-367l-42 -199q-5 -25 -5 -37q0 -29 19.5 -39t70.5 -12l-8 -39h-303l9 39q55 2 81.5 16t35.5 57l80 376h-103zM301 488l-25 -116h367l24 116h-366z" />
    <glyph glyph-name="hbar" unicode="&#x127;" horiz-adv-x="626" 
d="M229 403l-34 -112h7q52 91 131 170t145 79q68 0 68 -71q0 -18 -6 -44l-82 -309q-9 -34 -9 -44q0 -15 14 -15q32 0 93 75l20 -21q-45 -67 -80.5 -94t-74.5 -27q-28 0 -45 18.5t-17 49.5q0 33 14 86l75 278q5 22 5 33q0 21 -18 21q-53 0 -142 -103.5t-122 -233.5l-35 -139
h-91l133 584h-78l10 40h77l15 66h-80l7 29l160 42h23l-32 -137h150l-10 -40h-149z" />
    <glyph glyph-name="Itilde" unicode="&#x128;" horiz-adv-x="382" 
d="M313 590l-99 -463q-5 -25 -5 -37q0 -29 19.5 -39t70.5 -12l-8 -39h-303l9 39q55 2 81.5 16t35.5 57l99 463q5 25 5 37q0 29 -19.5 39t-70.5 12l8 39h303l-9 -39q-55 -2 -81.5 -16t-35.5 -57zM461 890l36 -10q-37 -72 -63 -96t-62 -24q-32 0 -73 36t-60 36q-21 0 -34 -13
t-34 -49l-37 10q37 72 63 96t62 24q32 0 73 -36t60 -36q21 0 34 13t35 49z" />
    <glyph glyph-name="itilde" unicode="&#x129;" horiz-adv-x="334" 
d="M373 741l36 -10q-37 -72 -62 -96t-58 -24q-23 0 -43.5 18t-37 36t-29.5 18q-21 0 -34 -13t-34 -49l-37 10q37 72 62 96t58 24q27 0 60.5 -36t49.5 -36q21 0 34 13t35 49zM266 540l-104 -424q-9 -34 -9 -44q0 -15 14 -15q32 0 93 75l20 -21q-45 -67 -80.5 -94t-74.5 -27
q-28 0 -45 18.5t-17 49.5q0 27 14 86l77 310l-76 31l6 21l157 34h25z" />
    <glyph glyph-name="Imacron" unicode="&#x12a;" horiz-adv-x="382" 
d="M313 590l-99 -463q-5 -25 -5 -37q0 -29 19.5 -39t70.5 -12l-8 -39h-303l9 39q55 2 81.5 16t35.5 57l99 463q5 25 5 37q0 29 -19.5 39t-70.5 12l8 39h303l-9 -39q-55 -2 -81.5 -16t-35.5 -57zM163 783l14 62h282l-14 -62h-282z" />
    <glyph glyph-name="imacron" unicode="&#x12b;" horiz-adv-x="334" 
d="M117 623l13 58h222l-13 -58h-222zM266 540l-104 -424q-9 -34 -9 -44q0 -15 14 -15q32 0 93 75l20 -21q-45 -67 -80.5 -94t-74.5 -27q-28 0 -45 18.5t-17 49.5q0 27 14 86l77 310l-76 31l6 21l157 34h25z" />
    <glyph glyph-name="Ibreve" unicode="&#x12c;" horiz-adv-x="382" 
d="M313 590l-99 -463q-5 -25 -5 -37q0 -29 19.5 -39t70.5 -12l-8 -39h-303l9 39q55 2 81.5 16t35.5 57l99 463q5 25 5 37q0 29 -19.5 39t-70.5 12l8 39h303l-9 -39q-55 -2 -81.5 -16t-35.5 -57zM302 758q-58 0 -90.5 31.5t-32.5 89.5q0 21 6 47h36q-1 -6 -1 -17
q0 -42 27 -63.5t68 -21.5q44 0 80 25.5t52 76.5h39q-16 -79 -65.5 -123.5t-118.5 -44.5z" />
    <glyph glyph-name="ibreve" unicode="&#x12d;" horiz-adv-x="334" 
d="M266 540l-104 -424q-9 -34 -9 -44q0 -15 14 -15q32 0 93 75l20 -21q-45 -67 -80.5 -94t-74.5 -27q-28 0 -45 18.5t-17 49.5q0 27 14 86l77 310l-76 31l6 21l157 34h25zM232 593q-113 0 -113 121q0 22 6 47h36q-1 -6 -1 -17q0 -85 85 -85q89 0 122 102h39
q-16 -80 -61.5 -124t-112.5 -44z" />
    <glyph glyph-name="Iogonek" unicode="&#x12e;" horiz-adv-x="382" 
d="M313 590l-99 -463q-5 -25 -5 -37q0 -29 19.5 -39t70.5 -12l-8 -39h-91q-57 -30 -90 -58t-33 -61q0 -36 44 -36q32 0 98 47l13 -19q-76 -83 -144 -83q-35 0 -57 18t-22 50q0 44 34 77.5t95 64.5h-150l9 39q55 2 81.5 16t35.5 57l99 463q5 25 5 37q0 29 -19.5 39t-70.5 12
l8 39h303l-9 -39q-55 -2 -81.5 -16t-35.5 -57z" />
    <glyph glyph-name="iogonek" unicode="&#x12f;" horiz-adv-x="334" 
d="M238 611q-27 0 -45 18.5t-18 44.5q0 29 20.5 50t49.5 21q27 0 45 -18.5t18 -44.5q0 -29 -20.5 -50t-49.5 -21zM63 58q0 27 14 86l77 310l-76 31l6 21l157 34h25l-104 -424q-9 -34 -9 -44q0 -15 14 -15q33 0 92 75l21 -21q-29 -43 -75 -80.5t-82.5 -57.5t-64 -44.5
t-27.5 -47.5q0 -36 44 -36q32 0 98 47l13 -19q-76 -83 -144 -83q-35 0 -57 18t-22 50q0 43 37.5 76t104.5 64q-18 5 -30 21.5t-12 38.5z" />
    <glyph glyph-name="Idotaccent" unicode="&#x130;" horiz-adv-x="382" 
d="M313 590l-99 -463q-5 -25 -5 -37q0 -29 19.5 -39t70.5 -12l-8 -39h-303l9 39q55 2 81.5 16t35.5 57l99 463q5 25 5 37q0 29 -19.5 39t-70.5 12l8 39h303l-9 -39q-55 -2 -81.5 -16t-35.5 -57zM313 767q-27 0 -45 18.5t-18 44.5q0 29 20.5 50t49.5 21q27 0 45 -18.5
t18 -44.5q0 -29 -20.5 -50t-49.5 -21z" />
    <glyph glyph-name="dotlessi" unicode="&#x131;" horiz-adv-x="334" 
d="M266 540l-104 -424q-9 -34 -9 -44q0 -15 14 -15q32 0 93 75l20 -21q-45 -67 -80.5 -94t-74.5 -27q-28 0 -45 18.5t-17 49.5q0 27 14 86l77 310l-76 31l6 21l157 34h25z" />
    <glyph glyph-name="IJ" unicode="&#x132;" horiz-adv-x="883" 
d="M313 590l-99 -463q-5 -25 -5 -37q0 -29 19.5 -39t70.5 -12l-8 -39h-303l9 39q55 2 81.5 16t35.5 57l99 463q5 25 5 37q0 29 -19.5 39t-70.5 12l8 39h303l-9 -39q-55 -2 -81.5 -16t-35.5 -57zM658 173l84 402q5 25 5 37q0 29 -19.5 39t-70.5 12l8 39h303l-9 -39
q-55 -2 -81.5 -16t-35.5 -57l-85 -401q-42 -199 -237 -199q-83 0 -122 32t-39 83q0 50 40 74h73q-14 -31 -14 -65q0 -81 71 -81q50 0 81.5 30.5t47.5 109.5z" />
    <glyph glyph-name="ij" unicode="&#x133;" horiz-adv-x="633" 
d="M266 540l-104 -424q-9 -34 -9 -44q0 -15 14 -15q32 0 93 75l20 -21q-45 -67 -80.5 -94t-74.5 -27q-28 0 -45 18.5t-17 49.5q0 27 14 86l77 310l-76 31l6 21l157 34h25zM238 611q-27 0 -45 18.5t-18 44.5q0 29 20.5 50t49.5 21q27 0 45 -18.5t18 -44.5q0 -29 -20.5 -50
t-49.5 -21zM574 611q-27 0 -45 18.5t-18 44.5q0 29 20.5 50t49.5 21q27 0 45 -18.5t18 -44.5q0 -29 -20.5 -50t-49.5 -21zM388 -22l101 476l-75 31l6 21l157 34h25l-100 -444q-33 -146 -85.5 -224.5t-135.5 -78.5q-40 0 -65 16.5t-25 44.5q0 47 53 60h14q16 -78 59 -78
q41 0 71 142z" />
    <glyph glyph-name="Jcircumflex" unicode="&#x134;" horiz-adv-x="501" 
d="M276 173l84 402q5 25 5 37q0 29 -19.5 39t-70.5 12l8 39h303l-9 -39q-55 -2 -81.5 -16t-35.5 -57l-85 -401q-42 -199 -237 -199q-83 0 -122 32t-39 83q0 50 40 74h73q-14 -31 -14 -65q0 -81 71 -81q50 0 81.5 30.5t47.5 109.5zM513 920l106 -159h-45l-107 89l-169 -89
h-47l188 159h74z" />
    <glyph glyph-name="jcircumflex" unicode="&#x135;" horiz-adv-x="299" 
d="M54 -22l101 476l-75 31l6 21l157 34h25l-100 -444q-33 -146 -85.5 -224.5t-135.5 -78.5q-40 0 -65 16.5t-25 44.5q0 47 53 60h14q16 -78 59 -78q41 0 71 142zM294 761l96 -169h-45l-97 100l-159 -100h-47l178 169h74z" />
    <glyph glyph-name="Kcommaaccent" unicode="&#x136;" horiz-adv-x="715" 
d="M372 382l173 -264q30 -46 56 -62.5t71 -16.5l-7 -39h-146q-35 32 -92 119l-153 238l292 241q29 25 31 39q0 20 -77 26l9 39h255l-9 -39q-63 -3 -121 -51zM313 590l-99 -463q-5 -25 -5 -37q0 -29 19.5 -39t70.5 -12l-8 -39h-303l9 39q55 2 81.5 16t35.5 57l99 463
q5 25 5 37q0 29 -19.5 39t-70.5 12l8 39h303l-9 -39q-55 -2 -81.5 -16t-35.5 -57zM341 -153h-46q-33 7 -33 39q0 29 20.5 45.5t52.5 16.5q30 0 46.5 -17t16.5 -47q0 -49 -39 -81.5t-109 -32.5l7 33q75 0 84 44z" />
    <glyph glyph-name="kcommaaccent" unicode="&#x137;" horiz-adv-x="574" 
d="M293 315l87 -197q15 -33 27 -49.5t26 -16.5q30 0 91 77l18 -22q-72 -117 -143 -117q-37 0 -60 27t-45 79l-79 191l189 204q44 49 91 49q31 0 47 -17t16 -41q0 -45 -56 -68h-14q0 42 -36 42q-33 0 -73 -45zM305 761l-176 -761h-91l153 668l-74 31l5 20l160 42h23z
M205 -153h-46q-33 7 -33 39q0 29 20.5 45.5t52.5 16.5q30 0 46.5 -17t16.5 -47q0 -49 -39 -81.5t-109 -32.5l7 33q75 0 84 44z" />
    <glyph glyph-name="kgreenlandic" unicode="&#x138;" horiz-adv-x="581" 
d="M300 315l87 -197q15 -33 27 -49.5t26 -16.5q30 0 91 77l18 -22q-72 -117 -143 -117q-37 0 -60 27t-45 79l-79 191l189 204q44 49 91 49q31 0 47 -17t16 -41q0 -45 -56 -68h-14q0 42 -36 42q-33 0 -73 -45zM264 540l-128 -540h-91l113 454l-76 31l6 21l153 34h23z" />
    <glyph glyph-name="Lacute" unicode="&#x139;" horiz-adv-x="617" 
d="M313 590l-99 -463q-5 -25 -5 -34q0 -27 20.5 -37t69.5 -10h49q64 0 105 31.5t106 117.5h33l-73 -195h-531l9 39q55 2 81.5 16t35.5 57l99 463q5 25 5 37q0 29 -19.5 39t-70.5 12l8 39h303l-9 -39q-55 -2 -81.5 -16t-35.5 -57zM379 910h132l-182 -149h-41z" />
    <glyph glyph-name="lacute" unicode="&#x13a;" horiz-adv-x="312" 
d="M186 668l-74 31l5 20l160 42h23l-148 -645q-7 -29 -7 -44t14 -15q32 0 93 75l20 -21q-45 -67 -80.5 -94t-74.5 -27q-28 0 -45 18.5t-17 49.5t13 86zM337 942h132l-182 -149h-41z" />
    <glyph glyph-name="Lcommaaccent" unicode="&#x13b;" horiz-adv-x="617" 
d="M313 590l-99 -463q-5 -25 -5 -34q0 -27 20.5 -37t69.5 -10h49q64 0 105 31.5t106 117.5h33l-73 -195h-531l9 39q55 2 81.5 16t35.5 57l99 463q5 25 5 37q0 29 -19.5 39t-70.5 12l8 39h303l-9 -39q-55 -2 -81.5 -16t-35.5 -57zM266 -153h-46q-33 7 -33 39q0 29 20.5 45.5
t52.5 16.5q30 0 46.5 -17t16.5 -47q0 -49 -39 -81.5t-109 -32.5l7 33q75 0 84 44z" />
    <glyph glyph-name="lcommaaccent" unicode="&#x13c;" horiz-adv-x="312" 
d="M186 668l-74 31l5 20l160 42h23l-148 -645q-7 -29 -7 -44t14 -15q32 0 93 75l20 -21q-45 -67 -80.5 -94t-74.5 -27q-28 0 -45 18.5t-17 49.5t13 86zM92 -153h-46q-33 7 -33 39q0 29 20.5 45.5t52.5 16.5q30 0 46.5 -17t16.5 -47q0 -49 -39 -81.5t-109 -32.5l7 33
q75 0 84 44z" />
    <glyph glyph-name="Lcaron" unicode="&#x13d;" horiz-adv-x="617" 
d="M313 590l-99 -463q-5 -25 -5 -34q0 -27 20.5 -37t69.5 -10h49q64 0 105 31.5t106 117.5h33l-73 -195h-531l9 39q55 2 81.5 16t35.5 57l99 463q5 25 5 37q0 29 -19.5 39t-70.5 12l8 39h303l-9 -39q-55 -2 -81.5 -16t-35.5 -57zM644 702l-127 -205h-35l60 205h102z" />
    <glyph glyph-name="lcaron" unicode="&#x13e;" horiz-adv-x="312" 
d="M186 668l-74 31l5 20l160 42h23l-148 -645q-7 -29 -7 -44t14 -15q32 0 93 75l20 -21q-45 -67 -80.5 -94t-74.5 -27q-28 0 -45 18.5t-17 49.5t13 86zM496 761l-127 -205h-35l60 205h102z" />
    <glyph glyph-name="Ldot" unicode="&#x13f;" horiz-adv-x="617" 
d="M313 590l-99 -463q-5 -25 -5 -34q0 -27 20.5 -37t69.5 -10h49q64 0 105 31.5t106 117.5h33l-73 -195h-531l9 39q55 2 81.5 16t35.5 57l99 463q5 25 5 37q0 29 -19.5 39t-70.5 12l8 39h303l-9 -39q-55 -2 -81.5 -16t-35.5 -57zM537 313q-27 0 -45 18.5t-18 44.5
q0 29 20.5 50t49.5 21q27 0 45 -18.5t18 -44.5q0 -29 -20.5 -50t-49.5 -21z" />
    <glyph glyph-name="ldot" unicode="&#x140;" horiz-adv-x="382" 
d="M186 668l-74 31l5 20l160 42h23l-148 -645q-7 -29 -7 -44t14 -15q32 0 93 75l20 -21q-45 -67 -80.5 -94t-74.5 -27q-28 0 -45 18.5t-17 49.5t13 86zM353 308q-27 0 -45 18.5t-18 44.5q0 29 20.5 50t49.5 21q27 0 45 -18.5t18 -44.5q0 -29 -20.5 -50t-49.5 -21z" />
    <glyph glyph-name="Lslash" unicode="&#x141;" horiz-adv-x="629" 
d="M325 590l-40 -185l150 68l-12 -49l-148 -67l-49 -230q-5 -25 -5 -34q0 -27 20.5 -37t69.5 -10h49q64 0 105 31.5t106 117.5h33l-73 -195h-531l9 39q55 2 81.5 16t35.5 57l43 200l-111 -50l12 49l109 49l46 215q5 25 5 37q0 29 -19.5 39t-70.5 12l8 39h303l-9 -39
q-55 -2 -81.5 -16t-35.5 -57z" />
    <glyph glyph-name="lslash" unicode="&#x142;" horiz-adv-x="338" 
d="M193 668l-74 31l5 20l160 42h23l-64 -279l115 67l-12 -53l-115 -67l-72 -313q-7 -29 -7 -44t14 -15q32 0 93 75l20 -21q-45 -67 -80.5 -94t-74.5 -27q-28 0 -45 18.5t-17 49.5t13 86l53 235l-88 -51l12 53l88 51z" />
    <glyph glyph-name="Nacute" unicode="&#x143;" horiz-adv-x="793" 
d="M589 157l89 418q5 25 5 37q0 29 -19.5 39t-70.5 12l8 39h265l-9 -39q-55 -2 -81.5 -16t-35.5 -57l-124 -590h-42l-307 555l-90 -428q-5 -25 -5 -37q0 -29 19.5 -39t70.5 -12l-8 -39h-266l9 39q55 2 81.5 16t35.5 57l106 494q-24 36 -40 46t-53 11l9 39h159zM578 910h132
l-182 -149h-41z" />
    <glyph glyph-name="nacute" unicode="&#x144;" horiz-adv-x="626" 
d="M264 540l-34 -138l-35 -111h7q52 91 131 170t145 79q68 0 68 -71q0 -18 -6 -44l-82 -309q-9 -34 -9 -44q0 -15 14 -15q32 0 93 75l20 -21q-45 -67 -80.5 -94t-74.5 -27q-28 0 -45 18.5t-17 49.5q0 33 14 86l75 278q5 22 5 33q0 21 -18 21q-53 0 -142 -103.5t-122 -233.5
l-35 -139h-91l113 454l-76 31l6 21l151 34h25zM456 761h136l-193 -169h-45z" />
    <glyph glyph-name="Ncommaaccent" unicode="&#x145;" horiz-adv-x="793" 
d="M589 157l89 418q5 25 5 37q0 29 -19.5 39t-70.5 12l8 39h265l-9 -39q-55 -2 -81.5 -16t-35.5 -57l-124 -590h-42l-307 555l-90 -428q-5 -25 -5 -37q0 -29 19.5 -39t70.5 -12l-8 -39h-266l9 39q55 2 81.5 16t35.5 57l106 494q-24 36 -40 46t-53 11l9 39h159zM357 -153h-46
q-33 7 -33 39q0 29 20.5 45.5t52.5 16.5q30 0 46.5 -17t16.5 -47q0 -49 -39 -81.5t-109 -32.5l7 33q75 0 84 44z" />
    <glyph glyph-name="ncommaaccent" unicode="&#x146;" horiz-adv-x="626" 
d="M264 540l-34 -138l-35 -111h7q52 91 131 170t145 79q68 0 68 -71q0 -18 -6 -44l-82 -309q-9 -34 -9 -44q0 -15 14 -15q32 0 93 75l20 -21q-45 -67 -80.5 -94t-74.5 -27q-28 0 -45 18.5t-17 49.5q0 33 14 86l75 278q5 22 5 33q0 21 -18 21q-53 0 -142 -103.5t-122 -233.5
l-35 -139h-91l113 454l-76 31l6 21l151 34h25zM241 -153h-46q-33 7 -33 39q0 29 20.5 45.5t52.5 16.5q30 0 46.5 -17t16.5 -47q0 -49 -39 -81.5t-109 -32.5l7 33q75 0 84 44z" />
    <glyph glyph-name="Ncaron" unicode="&#x147;" horiz-adv-x="793" 
d="M589 157l89 418q5 25 5 37q0 29 -19.5 39t-70.5 12l8 39h265l-9 -39q-55 -2 -81.5 -16t-35.5 -57l-124 -590h-42l-307 555l-90 -428q-5 -25 -5 -37q0 -29 19.5 -39t70.5 -12l-8 -39h-266l9 39q55 2 81.5 16t35.5 57l106 494q-24 36 -40 46t-53 11l9 39h159zM478 761
l-106 159h45l107 -89l169 89h47l-188 -159h-74z" />
    <glyph glyph-name="ncaron" unicode="&#x148;" horiz-adv-x="626" 
d="M264 540l-34 -138l-35 -111h7q52 91 131 170t145 79q68 0 68 -71q0 -18 -6 -44l-82 -309q-9 -34 -9 -44q0 -15 14 -15q32 0 93 75l20 -21q-45 -67 -80.5 -94t-74.5 -27q-28 0 -45 18.5t-17 49.5q0 33 14 86l75 278q5 22 5 33q0 21 -18 21q-53 0 -142 -103.5t-122 -233.5
l-35 -139h-91l113 454l-76 31l6 21l151 34h25zM345 594l-96 169h45l97 -100l159 100h47l-178 -169h-74z" />
    <glyph glyph-name="Eng" unicode="&#x14a;" horiz-adv-x="793" 
d="M740 590l-104 -494q-64 -303 -221 -303q-40 0 -65 16.5t-25 44.5q0 47 53 60h14q16 -78 59 -78q44 0 75 135l19 82l-278 502l-90 -428q-5 -25 -5 -37q0 -29 19.5 -39t70.5 -12l-8 -39h-266l9 39q55 2 81.5 16t35.5 57l106 494q-24 36 -40 46t-53 11l9 39h159l294 -545
l89 418q5 25 5 37q0 29 -19.5 39t-70.5 12l8 39h265l-9 -39q-55 -2 -81.5 -16t-35.5 -57z" />
    <glyph glyph-name="eng" unicode="&#x14b;" horiz-adv-x="592" 
d="M334 -22l114 444q5 22 5 33q0 21 -18 21q-53 0 -142 -103.5t-122 -233.5l-35 -139h-91l113 454l-76 31l6 21l151 34h25l-34 -138l-35 -111h7q52 91 131 170t145 79q68 0 68 -71q0 -18 -6 -44l-87 -329q-19 -72 -38.5 -123.5t-45.5 -94t-60 -64t-77 -21.5q-41 0 -68 16.5
t-27 44.5q0 47 53 60h14q16 -78 59 -78q23 0 37 33t34 109z" />
    <glyph glyph-name="Omacron" unicode="&#x14c;" horiz-adv-x="720" 
d="M323 42q79 0 142.5 55.5t96.5 142t33 184.5q0 106 -40 171t-119 65q-80 0 -143 -55.5t-96 -141.5t-33 -184q0 -106 40 -171.5t119 -65.5zM322 -10q-125 0 -193.5 79.5t-68.5 205.5q0 180 110 308.5t267 128.5q125 0 193.5 -79t68.5 -205q0 -180 -110 -309t-267 -129z
M329 783l14 62h282l-14 -62h-282z" />
    <glyph glyph-name="omacron" unicode="&#x14d;" horiz-adv-x="522" 
d="M212 30q52 0 94 54.5t63.5 130t21.5 148.5q0 65 -21.5 101t-59.5 36q-52 0 -94 -54.5t-63.5 -130t-21.5 -148.5q0 -65 21.5 -101t59.5 -36zM209 -10q-79 0 -125.5 53t-46.5 148q0 84 34 163.5t99 132.5t143 53q79 0 125.5 -53t46.5 -148q0 -84 -34 -163.5t-99 -132.5
t-143 -53zM207 623l13 58h262l-13 -58h-262z" />
    <glyph glyph-name="Obreve" unicode="&#x14e;" horiz-adv-x="720" 
d="M323 42q79 0 142.5 55.5t96.5 142t33 184.5q0 106 -40 171t-119 65q-80 0 -143 -55.5t-96 -141.5t-33 -184q0 -106 40 -171.5t119 -65.5zM322 -10q-125 0 -193.5 79.5t-68.5 205.5q0 180 110 308.5t267 128.5q125 0 193.5 -79t68.5 -205q0 -180 -110 -309t-267 -129z
M468 758q-58 0 -90.5 31.5t-32.5 89.5q0 21 6 47h36q-1 -6 -1 -17q0 -42 27 -63.5t68 -21.5q44 0 80 25.5t52 76.5h39q-16 -79 -65.5 -123.5t-118.5 -44.5z" />
    <glyph glyph-name="obreve" unicode="&#x14f;" horiz-adv-x="522" 
d="M212 30q52 0 94 54.5t63.5 130t21.5 148.5q0 65 -21.5 101t-59.5 36q-52 0 -94 -54.5t-63.5 -130t-21.5 -148.5q0 -65 21.5 -101t59.5 -36zM209 -10q-79 0 -125.5 53t-46.5 148q0 84 34 163.5t99 132.5t143 53q79 0 125.5 -53t46.5 -148q0 -84 -34 -163.5t-99 -132.5
t-143 -53zM333 593q-113 0 -113 121q0 22 6 47h36q-1 -6 -1 -17q0 -85 85 -85q89 0 122 102h39q-16 -80 -61.5 -124t-112.5 -44z" />
    <glyph glyph-name="Ohungarumlaut" unicode="&#x150;" horiz-adv-x="720" 
d="M323 42q79 0 142.5 55.5t96.5 142t33 184.5q0 106 -40 171t-119 65q-80 0 -143 -55.5t-96 -141.5t-33 -184q0 -106 40 -171.5t119 -65.5zM322 -10q-125 0 -193.5 79.5t-68.5 205.5q0 180 110 308.5t267 128.5q125 0 193.5 -79t68.5 -205q0 -180 -110 -309t-267 -129z
M456 910h105l-159 -149h-53zM610 910h105l-159 -149h-53z" />
    <glyph glyph-name="ohungarumlaut" unicode="&#x151;" horiz-adv-x="522" 
d="M212 30q52 0 94 54.5t63.5 130t21.5 148.5q0 65 -21.5 101t-59.5 36q-52 0 -94 -54.5t-63.5 -130t-21.5 -148.5q0 -65 21.5 -101t59.5 -36zM209 -10q-79 0 -125.5 53t-46.5 148q0 84 34 163.5t99 132.5t143 53q79 0 125.5 -53t46.5 -148q0 -84 -34 -163.5t-99 -132.5
t-143 -53zM331 761h105l-166 -169h-53zM485 761h105l-166 -169h-53z" />
    <glyph glyph-name="OE" unicode="&#x152;" horiz-adv-x="994" 
d="M499 702h519l-36 -167h-27q-16 73 -34.5 97t-75.5 24h-194l-58 -274h160q33 0 54 21.5t39 68.5h34l-48 -226h-34q0 48 -11.5 69t-43.5 21h-160l-43 -205q-5 -23 -5 -39q0 -27 20 -36.5t69 -9.5h76q66 0 106.5 26.5t107.5 107.5h29l-68 -180h-500q-162 0 -238.5 79
t-76.5 209q0 178 126.5 296t312.5 118zM555 656h-67q-136 0 -229.5 -99t-93.5 -269q0 -108 52.5 -175t173.5 -67h34z" />
    <glyph glyph-name="oe" unicode="&#x153;" horiz-adv-x="803" 
d="M313 540q110 0 150 -109q87 109 202 109q58 0 87.5 -30.5t29.5 -79.5q0 -29 -13 -54.5t-39.5 -46t-54 -36t-70 -30.5t-72.5 -24t-76 -21v-26q0 -66 29 -104.5t79 -38.5q80 0 158 93l25 -20q-54 -72 -104.5 -102t-111.5 -30q-101 0 -141 98q-76 -98 -182 -98
q-79 0 -125.5 53t-46.5 148q0 84 34 163.5t99 132.5t143 53zM212 30q52 0 94 54.5t63.5 130t21.5 148.5q0 65 -21.5 101t-59.5 36q-52 0 -94 -54.5t-63.5 -130t-21.5 -148.5q0 -65 21.5 -101t59.5 -36zM638 490q-60 0 -112 -69.5t-65 -170.5q124 37 180.5 76t56.5 96
q0 30 -16 49t-44 19z" />
    <glyph glyph-name="Racute" unicode="&#x154;" horiz-adv-x="682" 
d="M377 656h-51l-63 -299h47q102 0 162.5 42t60.5 130q0 127 -156 127zM253 313l-39 -186q-5 -25 -5 -37q0 -29 19.5 -39t70.5 -12l-8 -39h-303l9 39q55 2 81.5 16t35.5 57l99 463q5 25 5 37q0 29 -19.5 39t-70.5 12l8 39h282q108 0 163 -45t55 -128q0 -89 -66.5 -142.5
t-172.5 -64.5l115 -190q34 -55 56.5 -73.5t70.5 -19.5l-8 -39h-135q-34 31 -84 118l-111 195h-48zM486 910h132l-182 -149h-41z" />
    <glyph glyph-name="racute" unicode="&#x155;" horiz-adv-x="461" 
d="M174 201h7q83 170 142.5 254.5t108.5 84.5q29 0 42.5 -18t13.5 -43q0 -53 -61 -82h-15q0 37 -28 37q-26 0 -71 -55t-94 -159t-78 -220h-91l113 454l-76 31l6 21l151 34h25l-42 -166zM413 761h136l-193 -169h-45z" />
    <glyph glyph-name="Rcommaaccent" unicode="&#x156;" horiz-adv-x="682" 
d="M377 656h-51l-63 -299h47q102 0 162.5 42t60.5 130q0 127 -156 127zM253 313l-39 -186q-5 -25 -5 -37q0 -29 19.5 -39t70.5 -12l-8 -39h-303l9 39q55 2 81.5 16t35.5 57l99 463q5 25 5 37q0 29 -19.5 39t-70.5 12l8 39h282q108 0 163 -45t55 -128q0 -89 -66.5 -142.5
t-172.5 -64.5l115 -190q34 -55 56.5 -73.5t70.5 -19.5l-8 -39h-135q-34 31 -84 118l-111 195h-48zM287 -153h-46q-33 7 -33 39q0 29 20.5 45.5t52.5 16.5q30 0 46.5 -17t16.5 -47q0 -49 -39 -81.5t-109 -32.5l7 33q75 0 84 44z" />
    <glyph glyph-name="rcommaaccent" unicode="&#x157;" horiz-adv-x="461" 
d="M174 201h7q83 170 142.5 254.5t108.5 84.5q29 0 42.5 -18t13.5 -43q0 -53 -61 -82h-15q0 37 -28 37q-26 0 -71 -55t-94 -159t-78 -220h-91l113 454l-76 31l6 21l151 34h25l-42 -166zM89 -153h-46q-33 7 -33 39q0 29 20.5 45.5t52.5 16.5q30 0 46.5 -17t16.5 -47
q0 -49 -39 -81.5t-109 -32.5l7 33q75 0 84 44z" />
    <glyph glyph-name="Rcaron" unicode="&#x158;" horiz-adv-x="682" 
d="M377 656h-51l-63 -299h47q102 0 162.5 42t60.5 130q0 127 -156 127zM253 313l-39 -186q-5 -25 -5 -37q0 -29 19.5 -39t70.5 -12l-8 -39h-303l9 39q55 2 81.5 16t35.5 57l99 463q5 25 5 37q0 29 -19.5 39t-70.5 12l8 39h282q108 0 163 -45t55 -128q0 -89 -66.5 -142.5
t-172.5 -64.5l115 -190q34 -55 56.5 -73.5t70.5 -19.5l-8 -39h-135q-34 31 -84 118l-111 195h-48zM386 761l-106 159h45l107 -89l169 89h47l-188 -159h-74z" />
    <glyph glyph-name="rcaron" unicode="&#x159;" horiz-adv-x="461" 
d="M174 201h7q83 170 142.5 254.5t108.5 84.5q29 0 42.5 -18t13.5 -43q0 -53 -61 -82h-15q0 37 -28 37q-26 0 -71 -55t-94 -159t-78 -220h-91l113 454l-76 31l6 21l151 34h25l-42 -166zM303 594l-96 169h45l97 -100l159 100h47l-178 -169h-74z" />
    <glyph glyph-name="Sacute" unicode="&#x15a;" horiz-adv-x="559" 
d="M255 -10q-77 0 -136.5 26.5t-94.5 60.5l26 166h34q8 -98 52 -151.5t121 -53.5q63 0 104 33t41 97q0 50 -30.5 83.5t-108.5 76.5q-71 39 -104.5 84t-33.5 107q0 88 60 140.5t153 52.5q123 0 209 -72l-28 -146h-33q-19 170 -149 170q-64 0 -96 -32.5t-32 -90.5
q0 -44 25.5 -74.5t86.5 -62.5q86 -45 128.5 -92.5t42.5 -114.5q0 -97 -71.5 -152t-165.5 -55zM442 910h132l-182 -149h-41z" />
    <glyph glyph-name="sacute" unicode="&#x15b;" horiz-adv-x="415" 
d="M194 36q78 0 78 74q0 26 -28.5 61t-62 65t-62 72.5t-28.5 80.5q0 63 49.5 107t122.5 44q57 0 91 -24.5t34 -64.5q0 -31 -43 -52h-10q-45 91 -111 91q-69 0 -69 -65q0 -19 19 -44.5t46.5 -51.5t55 -54.5t46.5 -61t19 -62.5q0 -72 -53 -116.5t-125 -44.5q-68 0 -110 30.5
t-42 75.5t44 65h8q47 -125 131 -125zM367 761h136l-193 -169h-45z" />
    <glyph glyph-name="Scircumflex" unicode="&#x15c;" horiz-adv-x="559" 
d="M255 -10q-77 0 -136.5 26.5t-94.5 60.5l26 166h34q8 -98 52 -151.5t121 -53.5q63 0 104 33t41 97q0 50 -30.5 83.5t-108.5 76.5q-71 39 -104.5 84t-33.5 107q0 88 60 140.5t153 52.5q123 0 209 -72l-28 -146h-33q-19 170 -149 170q-64 0 -96 -32.5t-32 -90.5
q0 -44 25.5 -74.5t86.5 -62.5q86 -45 128.5 -92.5t42.5 -114.5q0 -97 -71.5 -152t-165.5 -55zM445 920l106 -159h-45l-107 89l-169 -89h-47l188 159h74z" />
    <glyph glyph-name="scircumflex" unicode="&#x15d;" horiz-adv-x="415" 
d="M194 36q78 0 78 74q0 26 -28.5 61t-62 65t-62 72.5t-28.5 80.5q0 63 49.5 107t122.5 44q57 0 91 -24.5t34 -64.5q0 -31 -43 -52h-10q-45 91 -111 91q-69 0 -69 -65q0 -19 19 -44.5t46.5 -51.5t55 -54.5t46.5 -61t19 -62.5q0 -72 -53 -116.5t-125 -44.5q-68 0 -110 30.5
t-42 75.5t44 65h8q47 -125 131 -125zM358 761l96 -169h-45l-97 100l-159 -100h-47l178 169h74z" />
    <glyph glyph-name="Scedilla" unicode="&#x15e;" horiz-adv-x="559" 
d="M97 -221l-3 33q124 0 124 49q0 39 -89 42l52 95q-98 20 -157 79l26 166h34q8 -98 52 -151.5t121 -53.5q63 0 104 33t41 97q0 50 -30.5 83.5t-108.5 76.5q-71 39 -104.5 84t-33.5 107q0 88 60 140.5t153 52.5q123 0 209 -72l-28 -146h-33q-19 170 -149 170
q-64 0 -96 -32.5t-32 -90.5q0 -44 25.5 -74.5t86.5 -62.5q86 -45 128.5 -92.5t42.5 -114.5q0 -97 -71.5 -152t-165.5 -55q-24 0 -45 3l-21 -41q101 -2 101 -64q0 -54 -54.5 -81.5t-138.5 -27.5z" />
    <glyph glyph-name="scedilla" unicode="&#x15f;" horiz-adv-x="415" 
d="M27 -221l-3 33q124 0 124 49q0 39 -89 42l51 93q-46 10 -72.5 37t-26.5 63q0 45 44 65h8q47 -125 131 -125q78 0 78 74q0 26 -28.5 61t-62 65t-62 72.5t-28.5 80.5q0 63 49.5 107t122.5 44q57 0 91 -24.5t34 -64.5q0 -31 -43 -52h-10q-45 91 -111 91q-69 0 -69 -65
q0 -19 19 -44.5t46.5 -51.5t55 -54.5t46.5 -61t19 -62.5q0 -72 -53 -116.5t-125 -44.5q-4 0 -12 0.5t-11 0.5l-21 -39q101 -2 101 -64q0 -54 -54.5 -81.5t-138.5 -27.5z" />
    <glyph glyph-name="Scaron" unicode="&#x160;" horiz-adv-x="559" 
d="M255 -10q-77 0 -136.5 26.5t-94.5 60.5l26 166h34q8 -98 52 -151.5t121 -53.5q63 0 104 33t41 97q0 50 -30.5 83.5t-108.5 76.5q-71 39 -104.5 84t-33.5 107q0 88 60 140.5t153 52.5q123 0 209 -72l-28 -146h-33q-19 170 -149 170q-64 0 -96 -32.5t-32 -90.5
q0 -44 25.5 -74.5t86.5 -62.5q86 -45 128.5 -92.5t42.5 -114.5q0 -97 -71.5 -152t-165.5 -55zM342 761l-106 159h45l107 -89l169 89h47l-188 -159h-74z" />
    <glyph glyph-name="scaron" unicode="&#x161;" horiz-adv-x="415" 
d="M194 36q78 0 78 74q0 26 -28.5 61t-62 65t-62 72.5t-28.5 80.5q0 63 49.5 107t122.5 44q57 0 91 -24.5t34 -64.5q0 -31 -43 -52h-10q-45 91 -111 91q-69 0 -69 -65q0 -19 19 -44.5t46.5 -51.5t55 -54.5t46.5 -61t19 -62.5q0 -72 -53 -116.5t-125 -44.5q-68 0 -110 30.5
t-42 75.5t44 65h8q47 -125 131 -125zM256 594l-96 169h45l97 -100l159 100h47l-178 -169h-74z" />
    <glyph glyph-name="Tcedilla" unicode="&#x162;" horiz-adv-x="673" 
d="M135 702h597l-29 -209h-32q-8 34 -11 47t-9.5 36t-10 29.5t-11.5 20t-14.5 16.5t-18 8t-24.5 6t-31 1h-70l-112 -530q-5 -20 -5 -37q0 -29 23.5 -39t76.5 -12l-8 -39h-323l8 39q57 2 88 16.5t40 56.5l116 545h-69q-66 0 -97 -27t-103 -137h-32zM273 -153h-46
q-33 7 -33 39q0 29 20.5 45.5t52.5 16.5q30 0 46.5 -17t16.5 -47q0 -49 -39 -81.5t-109 -32.5l7 33q75 0 84 44z" />
    <glyph glyph-name="tcedilla" unicode="&#x163;" horiz-adv-x="383" 
d="M238 482l-78 -346q-9 -42 -9 -59q0 -23 22 -23q48 0 138 96l23 -24q-50 -64 -105 -100t-98 -36q-70 0 -70 77q0 29 11 76l77 339h-73l8 29q51 17 86.5 47t75.5 86h31l-27 -114h125l-12 -48h-125zM118 -153h-46q-33 7 -33 39q0 29 20.5 45.5t52.5 16.5q30 0 46.5 -17
t16.5 -47q0 -49 -39 -81.5t-109 -32.5l7 33q75 0 84 44z" />
    <glyph glyph-name="Tcaron" unicode="&#x164;" horiz-adv-x="673" 
d="M135 702h597l-29 -209h-32q-8 34 -11 47t-9.5 36t-10 29.5t-11.5 20t-14.5 16.5t-18 8t-24.5 6t-31 1h-70l-112 -530q-5 -20 -5 -37q0 -29 23.5 -39t76.5 -12l-8 -39h-323l8 39q57 2 88 16.5t40 56.5l116 545h-69q-66 0 -97 -27t-103 -137h-32zM413 761l-106 159h45
l107 -89l169 89h47l-188 -159h-74z" />
    <glyph glyph-name="tcaron" unicode="&#x165;" horiz-adv-x="383" 
d="M238 482l-78 -346q-9 -42 -9 -59q0 -23 22 -23q48 0 138 96l23 -24q-50 -64 -105 -100t-98 -36q-70 0 -70 77q0 29 11 76l77 339h-73l8 29q51 17 86.5 47t75.5 86h31l-27 -114h125l-12 -48h-125zM479 803l-127 -205h-35l60 205h102z" />
    <glyph glyph-name="Tbar" unicode="&#x166;" horiz-adv-x="673" 
d="M135 702h597l-29 -209h-32q-8 34 -11 47t-9.5 36t-10 29.5t-11.5 20t-14.5 16.5t-18 8t-24.5 6t-31 1h-70l-57 -266h134l-9 -43h-134l-46 -221q-5 -20 -5 -37q0 -29 23.5 -39t76.5 -12l-8 -39h-323l8 39q57 2 88 16.5t40 56.5l50 236h-129l9 43h129l57 266h-69
q-66 0 -97 -27t-103 -137h-32z" />
    <glyph glyph-name="tbar" unicode="&#x167;" horiz-adv-x="405" 
d="M248 482l-30 -132h130l-11 -45h-129l-38 -169q-9 -42 -9 -59q0 -23 22 -23q48 0 138 96l23 -24q-50 -64 -105 -100t-98 -36q-70 0 -70 77q0 29 11 76l37 162h-69l11 45h68l30 132h-73l8 29q51 17 86.5 47t75.5 86h31l-27 -114h125l-12 -48h-125z" />
    <glyph glyph-name="Utilde" unicode="&#x168;" horiz-adv-x="762" 
d="M587 245l69 330q5 25 5 37q0 29 -19.5 39t-70.5 12l8 39h265l-9 -39q-55 -2 -81.5 -16t-35.5 -57l-77 -364q-25 -119 -101.5 -177.5t-183.5 -58.5q-118 0 -179.5 54.5t-61.5 158.5q0 30 8 72l62 300q5 25 5 37q0 29 -19.5 39t-70.5 12l8 39h303l-9 -39q-55 -2 -81.5 -16
t-35.5 -57l-69 -325q-7 -37 -7 -59q0 -71 40 -113.5t114 -42.5q91 0 146.5 45.5t77.5 149.5zM670 890l36 -10q-37 -72 -63 -96t-62 -24q-32 0 -73 36t-60 36q-21 0 -34 -13t-34 -49l-37 10q37 72 63 96t62 24q32 0 73 -36t60 -36q21 0 34 13t35 49z" />
    <glyph glyph-name="utilde" unicode="&#x169;" horiz-adv-x="622" 
d="M408 249h-7q-62 -123 -130 -191t-132 -68q-32 0 -52 23t-20 60q0 31 9 66l79 315l-76 31l6 21l157 34h25l-100 -404q-9 -38 -9 -58q0 -27 22 -27q39 0 91.5 55t98.5 141.5t69 173.5l27 102l93 7l-103 -414q-9 -34 -9 -44q0 -15 14 -15q32 0 93 75l20 -21
q-45 -67 -80.5 -94t-74.5 -27q-28 0 -42.5 18t-14.5 50q0 39 46 191zM542 741l36 -10q-37 -72 -63 -96t-62 -24q-32 0 -73 36t-60 36q-21 0 -34 -13t-34 -49l-37 10q37 72 63 96t62 24q32 0 73 -36t60 -36q21 0 34 13t35 49z" />
    <glyph glyph-name="Umacron" unicode="&#x16a;" horiz-adv-x="762" 
d="M587 245l69 330q5 25 5 37q0 29 -19.5 39t-70.5 12l8 39h265l-9 -39q-55 -2 -81.5 -16t-35.5 -57l-77 -364q-25 -119 -101.5 -177.5t-183.5 -58.5q-118 0 -179.5 54.5t-61.5 158.5q0 30 8 72l62 300q5 25 5 37q0 29 -19.5 39t-70.5 12l8 39h303l-9 -39q-55 -2 -81.5 -16
t-35.5 -57l-69 -325q-7 -37 -7 -59q0 -71 40 -113.5t114 -42.5q91 0 146.5 45.5t77.5 149.5zM372 783l14 62h282l-14 -62h-282z" />
    <glyph glyph-name="umacron" unicode="&#x16b;" horiz-adv-x="622" 
d="M408 249h-7q-62 -123 -130 -191t-132 -68q-32 0 -52 23t-20 60q0 31 9 66l79 315l-76 31l6 21l157 34h25l-100 -404q-9 -38 -9 -58q0 -27 22 -27q39 0 91.5 55t98.5 141.5t69 173.5l27 102l93 7l-103 -414q-9 -34 -9 -44q0 -15 14 -15q32 0 93 75l20 -21
q-45 -67 -80.5 -94t-74.5 -27q-28 0 -42.5 18t-14.5 50q0 39 46 191zM253 623l13 58h262l-13 -58h-262z" />
    <glyph glyph-name="Ubreve" unicode="&#x16c;" horiz-adv-x="762" 
d="M587 245l69 330q5 25 5 37q0 29 -19.5 39t-70.5 12l8 39h265l-9 -39q-55 -2 -81.5 -16t-35.5 -57l-77 -364q-25 -119 -101.5 -177.5t-183.5 -58.5q-118 0 -179.5 54.5t-61.5 158.5q0 30 8 72l62 300q5 25 5 37q0 29 -19.5 39t-70.5 12l8 39h303l-9 -39q-55 -2 -81.5 -16
t-35.5 -57l-69 -325q-7 -37 -7 -59q0 -71 40 -113.5t114 -42.5q91 0 146.5 45.5t77.5 149.5zM511 758q-58 0 -90.5 31.5t-32.5 89.5q0 21 6 47h36q-1 -6 -1 -17q0 -42 27 -63.5t68 -21.5q44 0 80 25.5t52 76.5h39q-16 -79 -65.5 -123.5t-118.5 -44.5z" />
    <glyph glyph-name="ubreve" unicode="&#x16d;" horiz-adv-x="622" 
d="M408 249h-7q-62 -123 -130 -191t-132 -68q-32 0 -52 23t-20 60q0 31 9 66l79 315l-76 31l6 21l157 34h25l-100 -404q-9 -38 -9 -58q0 -27 22 -27q39 0 91.5 55t98.5 141.5t69 173.5l27 102l93 7l-103 -414q-9 -34 -9 -44q0 -15 14 -15q32 0 93 75l20 -21
q-45 -67 -80.5 -94t-74.5 -27q-28 0 -42.5 18t-14.5 50q0 39 46 191zM380 593q-113 0 -113 121q0 22 6 47h36q-1 -6 -1 -17q0 -85 85 -85q89 0 122 102h39q-16 -80 -61.5 -124t-112.5 -44z" />
    <glyph glyph-name="Uring" unicode="&#x16e;" horiz-adv-x="762" 
d="M587 245l69 330q5 25 5 37q0 29 -19.5 39t-70.5 12l8 39h265l-9 -39q-55 -2 -81.5 -16t-35.5 -57l-77 -364q-25 -119 -101.5 -177.5t-183.5 -58.5q-118 0 -179.5 54.5t-61.5 158.5q0 30 8 72l62 300q5 25 5 37q0 29 -19.5 39t-70.5 12l8 39h303l-9 -39q-55 -2 -81.5 -16
t-35.5 -57l-69 -325q-7 -37 -7 -59q0 -71 40 -113.5t114 -42.5q91 0 146.5 45.5t77.5 149.5zM519 781q26 0 41 18.5t15 45.5q0 20 -11.5 32t-32.5 12q-26 0 -41 -18.5t-15 -45.5q0 -20 11.5 -32t32.5 -12zM514 744q-37 0 -59 22.5t-22 58.5q0 43 29.5 72t73.5 29
q37 0 59 -22.5t22 -58.5q0 -43 -29.5 -72t-73.5 -29z" />
    <glyph glyph-name="uring" unicode="&#x16f;" horiz-adv-x="622" 
d="M408 249h-7q-62 -123 -130 -191t-132 -68q-32 0 -52 23t-20 60q0 31 9 66l79 315l-76 31l6 21l157 34h25l-100 -404q-9 -38 -9 -58q0 -27 22 -27q39 0 91.5 55t98.5 141.5t69 173.5l27 102l93 7l-103 -414q-9 -34 -9 -44q0 -15 14 -15q32 0 93 75l20 -21
q-45 -67 -80.5 -94t-74.5 -27q-28 0 -42.5 18t-14.5 50q0 39 46 191zM389 625q26 0 41 18.5t15 45.5q0 20 -11.5 32t-32.5 12q-26 0 -41 -18.5t-15 -45.5q0 -20 11.5 -32t32.5 -12zM384 588q-37 0 -59 22.5t-22 58.5q0 43 29.5 72t73.5 29q37 0 59 -22.5t22 -58.5
q0 -43 -29.5 -72t-73.5 -29z" />
    <glyph glyph-name="Uhungarumlaut" unicode="&#x170;" horiz-adv-x="762" 
d="M587 245l69 330q5 25 5 37q0 29 -19.5 39t-70.5 12l8 39h265l-9 -39q-55 -2 -81.5 -16t-35.5 -57l-77 -364q-25 -119 -101.5 -177.5t-183.5 -58.5q-118 0 -179.5 54.5t-61.5 158.5q0 30 8 72l62 300q5 25 5 37q0 29 -19.5 39t-70.5 12l8 39h303l-9 -39q-55 -2 -81.5 -16
t-35.5 -57l-69 -325q-7 -37 -7 -59q0 -71 40 -113.5t114 -42.5q91 0 146.5 45.5t77.5 149.5zM499 910h105l-159 -149h-53zM653 910h105l-159 -149h-53z" />
    <glyph glyph-name="uhungarumlaut" unicode="&#x171;" horiz-adv-x="622" 
d="M408 249h-7q-62 -123 -130 -191t-132 -68q-32 0 -52 23t-20 60q0 31 9 66l79 315l-76 31l6 21l157 34h25l-100 -404q-9 -38 -9 -58q0 -27 22 -27q39 0 91.5 55t98.5 141.5t69 173.5l27 102l93 7l-103 -414q-9 -34 -9 -44q0 -15 14 -15q32 0 93 75l20 -21
q-45 -67 -80.5 -94t-74.5 -27q-28 0 -42.5 18t-14.5 50q0 39 46 191zM372 761h105l-166 -169h-53zM526 761h105l-166 -169h-53z" />
    <glyph glyph-name="Uogonek" unicode="&#x172;" horiz-adv-x="762" 
d="M587 245l69 330q5 25 5 37q0 29 -19.5 39t-70.5 12l8 39h265l-9 -39q-55 -2 -81.5 -16t-35.5 -57l-77 -364q-40 -184 -200 -226q-58 -31 -91 -58t-33 -61q0 -36 44 -36q32 0 98 47l13 -19q-76 -83 -144 -83q-35 0 -57 18t-22 50q0 72 110 132h-3q-118 0 -179.5 54.5
t-61.5 158.5q0 30 8 72l62 300q5 25 5 37q0 29 -19.5 39t-70.5 12l8 39h303l-9 -39q-55 -2 -81.5 -16t-35.5 -57l-69 -325q-7 -37 -7 -59q0 -71 40 -113.5t114 -42.5q91 0 146.5 45.5t77.5 149.5z" />
    <glyph glyph-name="uogonek" unicode="&#x173;" horiz-adv-x="622" 
d="M559 530l-103 -414q-9 -34 -9 -44q0 -15 14 -15q33 0 92 75l21 -21q-29 -43 -75 -80.5t-82.5 -57.5t-64 -44.5t-27.5 -47.5q0 -36 44 -36q32 0 98 47l13 -19q-76 -83 -144 -83q-35 0 -57 18t-22 50q0 43 37.5 76t104.5 64q-37 11 -37 60q0 39 46 191h-7
q-62 -123 -130 -191t-132 -68q-32 0 -52 23t-20 60q0 31 9 66l79 315l-76 31l6 21l157 34h25l-100 -404q-9 -38 -9 -58q0 -27 22 -27q39 0 91.5 55t98.5 141.5t69 173.5l27 102z" />
    <glyph glyph-name="Wcircumflex" unicode="&#x174;" horiz-adv-x="977" 
d="M658 141l245 438q18 33 18 50q0 13 -10 20t-27.5 10t-48.5 4l9 39h223l-9 -39q-18 -3 -27.5 -5t-22 -10t-20.5 -22l-363 -635h-30l-60 431l-246 -431h-30l-108 635q-4 30 -54 37l9 39h265l-9 -39q-25 -1 -35 -2t-26.5 -4.5t-23.5 -9t-13 -16.5t-6 -27q0 -17 2 -31
l66 -433l199 351l-20 135q-2 14 -10.5 22t-17 10t-26.5 5l9 39h255l-9 -39q-25 -1 -35 -2t-26.5 -4.5t-23.5 -9.5t-13 -17t-6 -28q0 -6 2 -22zM675 920l106 -159h-45l-107 89l-169 -89h-47l188 159h74z" />
    <glyph glyph-name="wcircumflex" unicode="&#x175;" horiz-adv-x="755" 
d="M369 459l-73 25l6 21l131 35h13l36 -443l123 159q54 71 54 152q0 72 -89 72v15q36 45 86 45q43 0 63.5 -26t20.5 -67q0 -86 -100 -214l-187 -243h-39l-28 285l-200 -285h-39l-45 469l-73 25l6 21l134 35h13l36 -441l163 228zM515 761l96 -169h-45l-97 100l-159 -100h-47
l178 169h74z" />
    <glyph glyph-name="Ycircumflex" unicode="&#x176;" horiz-adv-x="666" 
d="M365 329l211 251q27 33 27 49q0 17 -18 23.5t-67 10.5l9 39h229l-9 -39q-42 -6 -70 -37l-292 -343l-33 -156q-6 -24 -6 -37q0 -29 24 -39t77 -12l-8 -39h-318l8 39q57 2 88 16.5t40 56.5l36 170l-142 344q-8 19 -19.5 26.5t-34.5 10.5l9 39h263l-9 -39q-33 0 -52 -2
t-34.5 -12t-15.5 -29q0 -13 10 -40zM530 920l106 -159h-45l-107 89l-169 -89h-47l188 159h74z" />
    <glyph glyph-name="ycircumflex" unicode="&#x177;" horiz-adv-x="515" 
d="M335 99q-61 -95 -112.5 -158.5t-92 -94t-70.5 -41.5t-62 -11q-37 0 -65.5 19t-28.5 58q0 22 13 39.5t33 23.5h17q0 -82 64 -82q33 0 67.5 21t86.5 85l-86 501l-73 25l6 21l132 35h13l77 -490q25 35 45 67q121 185 121 291q0 72 -90 72v15q36 45 86 45q43 0 63.5 -25.5
t20.5 -62.5q0 -52 -38.5 -133t-126.5 -220zM382 761l96 -169h-45l-97 100l-159 -100h-47l178 169h74z" />
    <glyph glyph-name="Ydieresis" unicode="&#x178;" horiz-adv-x="666" 
d="M365 329l211 251q27 33 27 49q0 17 -18 23.5t-67 10.5l9 39h229l-9 -39q-42 -6 -70 -37l-292 -343l-33 -156q-6 -24 -6 -37q0 -29 24 -39t77 -12l-8 -39h-318l8 39q57 2 88 16.5t40 56.5l36 170l-142 344q-8 19 -19.5 26.5t-34.5 10.5l9 39h263l-9 -39q-33 0 -52 -2
t-34.5 -12t-15.5 -29q0 -13 10 -40zM369 770q-25 0 -41.5 16.5t-16.5 41.5q0 26 18.5 45t44.5 19q25 0 41.5 -16.5t16.5 -41.5q0 -26 -18.5 -45t-44.5 -19zM555 770q-25 0 -41.5 16.5t-16.5 41.5q0 26 18.5 45t44.5 19q25 0 41.5 -16.5t16.5 -41.5q0 -26 -18.5 -45
t-44.5 -19z" />
    <glyph glyph-name="Zacute" unicode="&#x179;" horiz-adv-x="608" 
d="M113 47h223q27 0 49 7t37 15t37.5 32.5t34.5 39.5t43 57h34l-75 -198h-518l5 25l541 629h-200q-58 0 -87.5 -25t-86.5 -112h-30l39 185h502l-6 -26zM472 910h132l-182 -149h-41z" />
    <glyph glyph-name="zacute" unicode="&#x17a;" horiz-adv-x="490" 
d="M389 447h-199q-24 0 -36.5 -7t-23.5 -27l-29 -50l-25 9l70 191h20q4 -39 29 -39h308l-1 -23l-386 -369l124 -40q47 -15 76 -15q37 0 61.5 20.5t47.5 72.5l24 -7q-34 -98 -64.5 -135.5t-89.5 -37.5q-43 0 -109 31l-120 54l-48 -76q-38 1 -38 31q0 23 22 45zM392 761h136
l-193 -169h-45z" />
    <glyph glyph-name="Zdotaccent" unicode="&#x17b;" horiz-adv-x="608" 
d="M113 47h223q27 0 49 7t37 15t37.5 32.5t34.5 39.5t43 57h34l-75 -198h-518l5 25l541 629h-200q-58 0 -87.5 -25t-86.5 -112h-30l39 185h502l-6 -26zM419 767q-27 0 -45 18.5t-18 44.5q0 29 20.5 50t49.5 21q27 0 45 -18.5t18 -44.5q0 -29 -20.5 -50t-49.5 -21z" />
    <glyph glyph-name="zdotaccent" unicode="&#x17c;" horiz-adv-x="490" 
d="M389 447h-199q-24 0 -36.5 -7t-23.5 -27l-29 -50l-25 9l70 191h20q4 -39 29 -39h308l-1 -23l-386 -369l124 -40q47 -15 76 -15q37 0 61.5 20.5t47.5 72.5l24 -7q-34 -98 -64.5 -135.5t-89.5 -37.5q-43 0 -109 31l-120 54l-48 -76q-38 1 -38 31q0 23 22 45zM331 611
q-27 0 -45 18.5t-18 44.5q0 29 20.5 50t49.5 21q27 0 45 -18.5t18 -44.5q0 -29 -20.5 -50t-49.5 -21z" />
    <glyph glyph-name="Zcaron" unicode="&#x17d;" horiz-adv-x="608" 
d="M113 47h223q27 0 49 7t37 15t37.5 32.5t34.5 39.5t43 57h34l-75 -198h-518l5 25l541 629h-200q-58 0 -87.5 -25t-86.5 -112h-30l39 185h502l-6 -26zM372 761l-106 159h45l107 -89l169 89h47l-188 -159h-74z" />
    <glyph glyph-name="zcaron" unicode="&#x17e;" horiz-adv-x="490" 
d="M389 447h-199q-24 0 -36.5 -7t-23.5 -27l-29 -50l-25 9l70 191h20q4 -39 29 -39h308l-1 -23l-386 -369l124 -40q47 -15 76 -15q37 0 61.5 20.5t47.5 72.5l24 -7q-34 -98 -64.5 -135.5t-89.5 -37.5q-43 0 -109 31l-120 54l-48 -76q-38 1 -38 31q0 23 22 45zM282 594
l-96 169h45l97 -100l159 100h47l-178 -169h-74z" />
    <glyph glyph-name="florin" unicode="&#x192;" horiz-adv-x="470" 
d="M92 309l10 43h86l20 87q62 273 220 273q93 0 93 -67q0 -47 -55 -64h-19q-1 25 -2 38t-5.5 27.5t-13 20.5t-22.5 6q-47 0 -68 -93l-52 -228h113l-7 -43h-115l-46 -204q-63 -275 -221 -275q-93 0 -93 67q0 47 55 64h19q1 -25 2 -38t5.5 -27.5t13 -20.5t22.5 -6q47 0 68 93
l78 347h-86z" />
    <glyph glyph-name="Aringacute" unicode="&#x1fa;" horiz-adv-x="717" 
d="M502 122l-22 105h-294l-64 -104q-20 -31 -20 -49q0 -19 20.5 -26t66.5 -9l-7 -39h-225l8 39q26 4 41.5 11t27.5 26l354 569l-17 66h106l136 -635q4 -19 17 -26.5t37 -10.5l-7 -39h-267l7 39q35 1 53.5 4t34.5 15.5t16 36.5q0 7 -2 27zM407 585l-191 -309h254zM446 739
q-37 0 -59.5 21t-22.5 53q0 38 29 62.5t73 24.5q37 0 59.5 -21t22.5 -53q0 -38 -29 -62.5t-73 -24.5zM535 1028h132l-154 -102h-41zM450 772q26 0 41 15t15 39q0 18 -12 29.5t-32 11.5q-26 0 -41 -15t-15 -39q0 -18 12 -29.5t32 -11.5z" />
    <glyph glyph-name="aringacute" unicode="&#x1fb;" horiz-adv-x="597" 
d="M381 602q26 0 41 15t15 39q0 18 -12 29.5t-32 11.5q-26 0 -41 -15t-15 -39q0 -18 12 -29.5t32 -11.5zM377 569q-37 0 -59.5 21t-22.5 53q0 38 29 62.5t73 24.5q37 0 59.5 -21t22.5 -53q0 -38 -29 -62.5t-73 -24.5zM466 860h132l-154 -102h-41zM179 57q58 0 129.5 109
t116.5 287q-26 46 -79 46q-61 0 -113 -54t-79.5 -134t-28.5 -163q0 -42 14 -66.5t40 -24.5zM451 500l59 48h35l-35 -112l-78 -320q-9 -34 -9 -44q0 -15 14 -15q33 0 92 75l21 -21q-44 -66 -80 -93.5t-75 -27.5q-56 0 -56 68q0 22 12.5 75t26.5 93h-7q-48 -103 -108 -169.5
t-118 -66.5q-52 0 -81.5 39.5t-29.5 110.5q0 158 97 279t212 121q68 0 108 -40z" />
    <glyph glyph-name="AEacute" unicode="&#x1fc;" horiz-adv-x="1041" 
d="M34 76l510 559q-13 28 -86 28l8 39h599l-36 -167h-27q-16 73 -34.5 97t-75.5 24h-194l-58 -274h160q33 0 54 21.5t39 68.5h34l-48 -226h-34q0 48 -11.5 69t-43.5 21h-160l-43 -205q-5 -23 -5 -39q0 -27 20 -36.5t69 -9.5h76q66 0 106.5 26.5t107.5 107.5h29l-68 -180
h-562l9 39q55 2 81.5 16t35.5 57l30 140h-255l-117 -129q-21 -22 -21 -49q0 -19 20.5 -26t67.5 -9l-7 -39h-247l8 39q40 5 69 37zM594 619l-293 -323h224zM823 910h132l-182 -149h-41z" />
    <glyph glyph-name="aeacute" unicode="&#x1fd;" horiz-adv-x="771" 
d="M343 540q76 0 126 -65q76 65 164 65q58 0 87.5 -30.5t29.5 -79.5q0 -29 -13 -54.5t-39.5 -46t-54 -36t-70 -30.5t-72.5 -24t-76 -21v-26q0 -66 29 -104.5t79 -38.5q80 0 158 93l25 -20q-54 -72 -104.5 -102t-111.5 -30q-75 0 -115.5 47.5t-47.5 122.5q-44 -77 -94 -123.5
t-98 -46.5q-52 0 -81.5 39.5t-29.5 110.5q0 158 97 279t212 121zM179 57q34 0 76.5 41.5t81.5 115.5q9 130 97 227q-36 58 -88 58q-61 0 -113 -54t-79.5 -134t-28.5 -163q0 -42 14 -66.5t40 -24.5zM606 490q-60 0 -112 -69.5t-65 -170.5q124 37 180.5 76t56.5 96
q0 30 -16 49t-44 19zM538 761h136l-193 -169h-45z" />
    <glyph glyph-name="Oslashacute" unicode="&#x1fe;" horiz-adv-x="720" 
d="M645 737l-46 -75q100 -76 100 -234q0 -180 -110 -309t-267 -129q-67 0 -124 26l-51 -82l-39 23l51 83q-99 76 -99 235q0 180 110 308.5t267 128.5q66 0 123 -26l46 74zM323 42q79 0 142.5 55.5t96.5 142t33 184.5q0 106 -39 169l-323 -520q37 -31 90 -31zM164 279
q0 -108 39 -169l322 519q-37 31 -89 31q-80 0 -143 -55.5t-96 -141.5t-33 -184zM533 910h132l-182 -149h-41z" />
    <glyph glyph-name="oslashacute" unicode="&#x1ff;" horiz-adv-x="537" 
d="M467 576l-40 -70q73 -54 73 -167q0 -84 -36 -163.5t-103 -132.5t-145 -53q-41 0 -76 15l-46 -82l-36 20l47 83q-68 53 -68 165q0 84 36 163.5t102.5 132.5t144.5 53q37 0 71 -13l40 69zM219 30q52 0 97 54t69.5 128.5t24.5 143.5q0 58 -16 93l-229 -401q21 -18 54 -18z
M127 173q0 -54 13 -87l227 398q-20 16 -50 16q-52 0 -97 -54t-69 -128.5t-24 -144.5zM395 761h136l-193 -169h-45z" />
    <glyph glyph-name="Scommaaccent" unicode="&#x218;" horiz-adv-x="559" 
d="M255 -10q-77 0 -136.5 26.5t-94.5 60.5l26 166h34q8 -98 52 -151.5t121 -53.5q63 0 104 33t41 97q0 50 -30.5 83.5t-108.5 76.5q-71 39 -104.5 84t-33.5 107q0 88 60 140.5t153 52.5q123 0 209 -72l-28 -146h-33q-19 170 -149 170q-64 0 -96 -32.5t-32 -90.5
q0 -44 25.5 -74.5t86.5 -62.5q86 -45 128.5 -92.5t42.5 -114.5q0 -97 -71.5 -152t-165.5 -55zM201 -153h-46q-33 7 -33 39q0 29 20.5 45.5t52.5 16.5q30 0 46.5 -17t16.5 -47q0 -49 -39 -81.5t-109 -32.5l7 33q75 0 84 44z" />
    <glyph glyph-name="scommaaccent" unicode="&#x219;" horiz-adv-x="415" 
d="M194 36q78 0 78 74q0 26 -28.5 61t-62 65t-62 72.5t-28.5 80.5q0 63 49.5 107t122.5 44q57 0 91 -24.5t34 -64.5q0 -31 -43 -52h-10q-45 91 -111 91q-69 0 -69 -65q0 -19 19 -44.5t46.5 -51.5t55 -54.5t46.5 -61t19 -62.5q0 -72 -53 -116.5t-125 -44.5q-68 0 -110 30.5
t-42 75.5t44 65h8q47 -125 131 -125zM124 -153h-46q-33 7 -33 39q0 29 20.5 45.5t52.5 16.5q30 0 46.5 -17t16.5 -47q0 -49 -39 -81.5t-109 -32.5l7 33q75 0 84 44z" />
    <glyph glyph-name="uni0237" unicode="&#x237;" horiz-adv-x="299" 
d="M54 -22l101 476l-75 31l6 21l157 34h25l-100 -444q-33 -146 -85.5 -224.5t-135.5 -78.5q-40 0 -65 16.5t-25 44.5q0 47 53 60h14q16 -78 59 -78q41 0 71 142z" />
    <glyph glyph-name="circumflex" unicode="&#x2c6;" horiz-adv-x="500" 
d="M328 761l96 -169h-45l-97 100l-159 -100h-47l178 169h74z" />
    <glyph glyph-name="caron" unicode="&#x2c7;" horiz-adv-x="500" 
d="M172 594l-96 169h45l97 -100l159 100h47l-178 -169h-74z" />
    <glyph glyph-name="breve" unicode="&#x2d8;" horiz-adv-x="500" 
d="M219 593q-113 0 -113 121q0 22 6 47h36q-1 -6 -1 -17q0 -85 85 -85q89 0 122 102h39q-16 -80 -61.5 -124t-112.5 -44z" />
    <glyph glyph-name="dotaccent" unicode="&#x2d9;" horiz-adv-x="500" 
d="M246 611q-27 0 -45 18.5t-18 44.5q0 29 20.5 50t49.5 21q27 0 45 -18.5t18 -44.5q0 -29 -20.5 -50t-49.5 -21z" />
    <glyph glyph-name="ring" unicode="&#x2da;" horiz-adv-x="500" 
d="M244 625q26 0 41 18.5t15 45.5q0 20 -11.5 32t-32.5 12q-26 0 -41 -18.5t-15 -45.5q0 -20 11.5 -32t32.5 -12zM239 588q-37 0 -59 22.5t-22 58.5q0 43 29.5 72t73.5 29q37 0 59 -22.5t22 -58.5q0 -43 -29.5 -72t-73.5 -29z" />
    <glyph glyph-name="ogonek" unicode="&#x2db;" horiz-adv-x="500" 
d="M340 34l10 -23q-36 -19 -52.5 -28.5t-42.5 -28t-37.5 -36t-11.5 -37.5q0 -36 44 -36q32 0 98 47l13 -19q-76 -83 -144 -83q-35 0 -57 18t-22 50q0 25 13 47.5t28.5 38t48 34.5t52 28t60.5 28z" />
    <glyph glyph-name="tilde" unicode="&#x2dc;" horiz-adv-x="500" 
d="M395 741l36 -10q-37 -72 -63 -96t-62 -24q-32 0 -73 36t-60 36q-21 0 -34 -13t-34 -49l-37 10q37 72 63 96t62 24q32 0 73 -36t60 -36q21 0 34 13t35 49z" />
    <glyph glyph-name="hungarumlaut" unicode="&#x2dd;" horiz-adv-x="500" 
d="M177 761h105l-166 -169h-53zM331 761h105l-166 -169h-53z" />
    <glyph glyph-name="pi" unicode="&#x3c0;" horiz-adv-x="630" 
d="M431 456h-169q-59 -278 -136 -456h-101l3 17q45 82 68.5 128t57.5 134.5t53 176.5h-97l16 74h492l-33 -74h-80q-41 -154 -57 -229.5t-16 -125.5q0 -45 47 -45q25 0 49 6v-24q-59 -48 -111 -48q-35 0 -55.5 21.5t-20.5 57.5q0 51 19.5 133.5t70.5 253.5z" />
    <glyph glyph-name="Wgrave" unicode="&#x1e80;" horiz-adv-x="977" 
d="M658 141l245 438q18 33 18 50q0 13 -10 20t-27.5 10t-48.5 4l9 39h223l-9 -39q-18 -3 -27.5 -5t-22 -10t-20.5 -22l-363 -635h-30l-60 431l-246 -431h-30l-108 635q-4 30 -54 37l9 39h265l-9 -39q-25 -1 -35 -2t-26.5 -4.5t-23.5 -9t-13 -16.5t-6 -27q0 -17 2 -31
l66 -433l199 351l-20 135q-2 14 -10.5 22t-17 10t-26.5 5l9 39h255l-9 -39q-25 -1 -35 -2t-26.5 -4.5t-23.5 -9.5t-13 -17t-6 -28q0 -6 2 -22zM458 910h122l56 -149h-40z" />
    <glyph glyph-name="wgrave" unicode="&#x1e81;" horiz-adv-x="755" 
d="M369 459l-73 25l6 21l131 35h13l36 -443l123 159q54 71 54 152q0 72 -89 72v15q36 45 86 45q43 0 63.5 -26t20.5 -67q0 -86 -100 -214l-187 -243h-39l-28 285l-200 -285h-39l-45 469l-73 25l6 21l134 35h13l36 -441l163 228zM294 761h124l63 -169h-41z" />
    <glyph glyph-name="Wacute" unicode="&#x1e82;" horiz-adv-x="977" 
d="M658 141l245 438q18 33 18 50q0 13 -10 20t-27.5 10t-48.5 4l9 39h223l-9 -39q-18 -3 -27.5 -5t-22 -10t-20.5 -22l-363 -635h-30l-60 431l-246 -431h-30l-108 635q-4 30 -54 37l9 39h265l-9 -39q-25 -1 -35 -2t-26.5 -4.5t-23.5 -9t-13 -16.5t-6 -27q0 -17 2 -31
l66 -433l199 351l-20 135q-2 14 -10.5 22t-17 10t-26.5 5l9 39h255l-9 -39q-25 -1 -35 -2t-26.5 -4.5t-23.5 -9.5t-13 -17t-6 -28q0 -6 2 -22zM672 910h132l-182 -149h-41z" />
    <glyph glyph-name="wacute" unicode="&#x1e83;" horiz-adv-x="755" 
d="M369 459l-73 25l6 21l131 35h13l36 -443l123 159q54 71 54 152q0 72 -89 72v15q36 45 86 45q43 0 63.5 -26t20.5 -67q0 -86 -100 -214l-187 -243h-39l-28 285l-200 -285h-39l-45 469l-73 25l6 21l134 35h13l36 -441l163 228zM524 761h136l-193 -169h-45z" />
    <glyph glyph-name="Wdieresis" unicode="&#x1e84;" horiz-adv-x="977" 
d="M658 141l245 438q18 33 18 50q0 13 -10 20t-27.5 10t-48.5 4l9 39h223l-9 -39q-18 -3 -27.5 -5t-22 -10t-20.5 -22l-363 -635h-30l-60 431l-246 -431h-30l-108 635q-4 30 -54 37l9 39h265l-9 -39q-25 -1 -35 -2t-26.5 -4.5t-23.5 -9t-13 -16.5t-6 -27q0 -17 2 -31
l66 -433l199 351l-20 135q-2 14 -10.5 22t-17 10t-26.5 5l9 39h255l-9 -39q-25 -1 -35 -2t-26.5 -4.5t-23.5 -9.5t-13 -17t-6 -28q0 -6 2 -22zM527 770q-25 0 -41.5 16.5t-16.5 41.5q0 26 18.5 45t44.5 19q25 0 41.5 -16.5t16.5 -41.5q0 -26 -18.5 -45t-44.5 -19zM713 770
q-25 0 -41.5 16.5t-16.5 41.5q0 26 18.5 45t44.5 19q25 0 41.5 -16.5t16.5 -41.5q0 -26 -18.5 -45t-44.5 -19z" />
    <glyph glyph-name="wdieresis" unicode="&#x1e85;" horiz-adv-x="755" 
d="M369 459l-73 25l6 21l131 35h13l36 -443l123 159q54 71 54 152q0 72 -89 72v15q36 45 86 45q43 0 63.5 -26t20.5 -67q0 -86 -100 -214l-187 -243h-39l-28 285l-200 -285h-39l-45 469l-73 25l6 21l134 35h13l36 -441l163 228zM556 615q-25 0 -41.5 16.5t-16.5 41.5
q0 26 18.5 45t44.5 19q25 0 41.5 -16.5t16.5 -41.5q0 -26 -18.5 -45t-44.5 -19zM370 615q-25 0 -41.5 16.5t-16.5 41.5q0 26 18.5 45t44.5 19q25 0 41.5 -16.5t16.5 -41.5q0 -26 -18.5 -45t-44.5 -19z" />
    <glyph glyph-name="Ygrave" unicode="&#x1ef2;" horiz-adv-x="666" 
d="M365 329l211 251q27 33 27 49q0 17 -18 23.5t-67 10.5l9 39h229l-9 -39q-42 -6 -70 -37l-292 -343l-33 -156q-6 -24 -6 -37q0 -29 24 -39t77 -12l-8 -39h-318l8 39q57 2 88 16.5t40 56.5l36 170l-142 344q-8 19 -19.5 26.5t-34.5 10.5l9 39h263l-9 -39q-33 0 -52 -2
t-34.5 -12t-15.5 -29q0 -13 10 -40zM313 910h122l56 -149h-40z" />
    <glyph glyph-name="ygrave" unicode="&#x1ef3;" horiz-adv-x="515" 
d="M335 99q-61 -95 -112.5 -158.5t-92 -94t-70.5 -41.5t-62 -11q-37 0 -65.5 19t-28.5 58q0 22 13 39.5t33 23.5h17q0 -82 64 -82q33 0 67.5 21t86.5 85l-86 501l-73 25l6 21l132 35h13l77 -490q25 35 45 67q121 185 121 291q0 72 -90 72v15q36 45 86 45q43 0 63.5 -25.5
t20.5 -62.5q0 -52 -38.5 -133t-126.5 -220zM161 761h124l63 -169h-41z" />
    <glyph glyph-name="endash" unicode="&#x2013;" horiz-adv-x="580" 
d="M508 272h-462l17 66h462z" />
    <glyph glyph-name="emdash" unicode="&#x2014;" horiz-adv-x="1000" 
d="M928 272h-882l17 66h882z" />
    <glyph glyph-name="quoteleft" unicode="&#x2018;" horiz-adv-x="302" 
d="M206 627h34q42 -12 42 -52q0 -26 -18.5 -44.5t-45.5 -18.5q-34 0 -53.5 21.5t-19.5 59.5q0 62 52 111.5t129 56.5v-38q-50 -10 -82 -36t-38 -60z" />
    <glyph glyph-name="quoteright" unicode="&#x2019;" horiz-adv-x="302" 
d="M229 646h-34q-42 12 -42 52q0 26 18.5 44.5t45.5 18.5q34 0 53.5 -21.5t19.5 -59.5q0 -62 -52 -111.5t-129 -56.5v38q50 10 82 36t38 60z" />
    <glyph glyph-name="quotesinglbase" unicode="&#x201a;" horiz-adv-x="302" 
d="M137 22h-34q-42 12 -42 52q0 26 18.5 44.5t45.5 18.5q34 0 53.5 -21.5t19.5 -59.5q0 -62 -52 -111.5t-129 -56.5v38q50 10 82 36t38 60z" />
    <glyph glyph-name="quotedblleft" unicode="&#x201c;" horiz-adv-x="498" 
d="M206 627h34q42 -12 42 -52q0 -26 -18.5 -44.5t-45.5 -18.5q-34 0 -53.5 21.5t-19.5 59.5q0 62 52 111.5t129 56.5v-38q-50 -10 -82 -36t-38 -60zM402 627h34q42 -12 42 -52q0 -26 -18.5 -44.5t-45.5 -18.5q-34 0 -53.5 21.5t-19.5 59.5q0 62 52 111.5t129 56.5v-38
q-50 -10 -82 -36t-38 -60z" />
    <glyph glyph-name="quotedblright" unicode="&#x201d;" horiz-adv-x="498" 
d="M425 646h-34q-42 12 -42 52q0 26 18.5 44.5t45.5 18.5q34 0 53.5 -21.5t19.5 -59.5q0 -62 -52 -111.5t-129 -56.5v38q50 10 82 36t38 60zM229 646h-34q-42 12 -42 52q0 26 18.5 44.5t45.5 18.5q34 0 53.5 -21.5t19.5 -59.5q0 -62 -52 -111.5t-129 -56.5v38q50 10 82 36
t38 60z" />
    <glyph glyph-name="quotedblbase" unicode="&#x201e;" horiz-adv-x="498" 
d="M333 22h-34q-42 12 -42 52q0 26 18.5 44.5t45.5 18.5q34 0 53.5 -21.5t19.5 -59.5q0 -62 -52 -111.5t-129 -56.5v38q50 10 82 36t38 60zM137 22h-34q-42 12 -42 52q0 26 18.5 44.5t45.5 18.5q34 0 53.5 -21.5t19.5 -59.5q0 -62 -52 -111.5t-129 -56.5v38q50 10 82 36
t38 60z" />
    <glyph glyph-name="dagger" unicode="&#x2020;" horiz-adv-x="462" 
d="M109 605l163 -12l23 165h65l-48 -165l169 12l-13 -61l-165 11l-51 -303h-65l77 303l-168 -11z" />
    <glyph glyph-name="daggerdbl" unicode="&#x2021;" horiz-adv-x="462" 
d="M276 565l-170 -11l13 61l163 -12l21 155h65l-46 -155l169 12l-13 -61l-165 11l-26 -121l170 12l-13 -61l-164 11l-20 -154h-65l45 154l-168 -11l13 61l165 -12z" />
    <glyph glyph-name="bullet" unicode="&#x2022;" horiz-adv-x="414" 
d="M87 300q0 50 36 86t86 36t86 -36t36 -86t-36 -86t-86 -36t-86 36t-36 86z" />
    <glyph glyph-name="ellipsis" unicode="&#x2026;" horiz-adv-x="972" 
d="M56 63q0 31 21 52t52 21t52 -21t21 -52t-21 -52t-52 -21t-52 21t-21 52zM380 63q0 31 21 52t52 21t52 -21t21 -52t-21 -52t-52 -21t-52 21t-21 52zM704 63q0 31 21 52t52 21t52 -21t21 -52t-21 -52t-52 -21t-52 21t-21 52z" />
    <glyph glyph-name="perthousand" unicode="&#x2030;" horiz-adv-x="1251" 
d="M261 671q-49 0 -80.5 -56.5t-31.5 -126.5q0 -100 75 -100q49 0 80.5 56.5t31.5 126.5q0 100 -75 100zM106 -19l613 741h60l-613 -741h-60zM223 347q-66 0 -109 44t-43 114q0 92 58.5 149.5t132.5 57.5q66 0 109 -44t43 -114q0 -92 -58.5 -149.5t-132.5 -57.5zM624 32
q49 0 80.5 56.5t31.5 126.5q0 100 -75 100q-49 0 -80.5 -56.5t-31.5 -126.5q0 -100 75 -100zM662 356q66 0 109 -44t43 -114q0 -92 -58.5 -149.5t-132.5 -57.5q-66 0 -109 44t-43 114q0 92 58.5 149.5t132.5 57.5zM1010 32q49 0 80.5 56.5t31.5 126.5q0 100 -75 100
q-49 0 -80.5 -56.5t-31.5 -126.5q0 -100 75 -100zM1048 356q66 0 109 -44t43 -114q0 -92 -58.5 -149.5t-132.5 -57.5q-66 0 -109 44t-43 114q0 92 58.5 149.5t132.5 57.5z" />
    <glyph glyph-name="guilsinglleft" unicode="&#x2039;" horiz-adv-x="309" 
d="M50 269l2 10l206 190h54l-168 -195l83 -195h-43z" />
    <glyph glyph-name="guilsinglright" unicode="&#x203a;" horiz-adv-x="309" 
d="M262 279l-2 -10l-206 -190h-54l168 195l-83 195h43z" />
    <glyph glyph-name="fraction" unicode="&#x2044;" horiz-adv-x="283" 
d="M-210 0l613 741h60l-613 -741h-60z" />
    <glyph glyph-name="Euro" unicode="&#x20ac;" horiz-adv-x="682" 
d="M48 384l9 43h85q40 125 129.5 204.5t202.5 79.5q118 0 189 -61l-24 -149h-35q-7 83 -40.5 122t-94.5 39q-84 0 -141 -65t-84 -170h290l-23 -43h-276q-7 -38 -8 -70h252l-23 -43h-231v-9q0 -114 35.5 -168t109.5 -54q71 0 115 39t87 138h42l-39 -170q-89 -57 -208 -57
t-185 69t-66 202v10h-90l9 43h83q5 37 12 70h-82z" />
    <glyph glyph-name="uni2117" unicode="&#x2117;" horiz-adv-x="796" 
d="M395 30q143 0 240 100.5t97 246.5q0 127 -81.5 211t-210.5 84q-143 0 -240 -100.5t-97 -246.5q0 -127 81.5 -211t210.5 -84zM395 -10q-147 0 -241.5 95.5t-94.5 239.5q0 162 110 274.5t271 112.5q147 0 241.5 -95.5t94.5 -239.5q0 -162 -110 -274.5t-271 -112.5zM431 320
h-50l-21 -90q-4 -16 -4 -23q0 -16 15 -21.5t47 -5.5l-5 -26h-191l5 26q31 1 44 8.5t19 31.5l60 264q2 12 2 16q0 15 -10 19.5t-36 5.5l6 26h171q60 0 92 -28.5t32 -75.5q0 -56 -47 -91.5t-129 -35.5zM425 519l-38 -168h36q112 0 112 94q0 74 -80 74h-30z" />
    <glyph glyph-name="trademark" unicode="&#x2122;" horiz-adv-x="873" 
d="M150 702h296l-13 -98h-24q-6 23 -9 32t-9.5 19t-15.5 12.5t-25 2.5h-26l-50 -233q-3 -13 -3 -18q0 -12 10.5 -16t34.5 -6l-6 -27h-165l6 27q26 2 39.5 7.5t16.5 22.5l52 243h-26q-21 0 -34.5 -7.5t-22 -18t-29.5 -40.5h-25zM630 463l123 211q7 12 13 28h94l-6 -27
q-38 -3 -45 -29l-10 -225q-1 -13 6.5 -17.5t28.5 -6.5l-6 -27h-144l6 27q27 2 37.5 6.5t13.5 18.5q2 10 2 32l6 155l-137 -239h-21l-36 237l-54 -152q-10 -26 -10 -37t8 -15t32 -6l-6 -27h-122l6 27q36 1 44 24l80 225q0 15 -6.5 21.5t-27.5 7.5l6 27h93q0 -21 1 -28z" />
    <glyph glyph-name="Omega" unicode="&#x2126;" horiz-adv-x="766" 
d="M459 667q-78 0 -136.5 -62.5t-84.5 -145t-26 -164.5q0 -145 78 -225l-14 -70h-256l11 174h26q23 -72 43 -88t87 -16h59q-49 29 -90.5 100t-41.5 168q0 93 44 178.5t126 140.5t181 55q102 0 166 -63t64 -174q0 -122 -78.5 -233.5t-198.5 -171.5h59q67 0 94 16t80 88h31
l-61 -174h-261l14 70q96 71 157 192t61 240q0 83 -35 124t-98 41z" />
    <glyph glyph-name="uni2153" unicode="&#x2153;" horiz-adv-x="952" 
d="M190 0l613 741h60l-613 -741h-60zM304 748h30l-78 -368q-4 -16 -4 -28q0 -18 17 -23.5t68 -8.5l-6 -33h-271l7 33q55 3 75.5 11t26.5 36l56 268h-99l7 34l33 4q50 6 79 21.5t59 53.5zM752 185q50 -7 78.5 -35t28.5 -74q0 -74 -54.5 -113.5t-128.5 -39.5q-70 0 -106.5 27
t-36.5 64q0 45 40 62h47q-7 -24 -7 -49q0 -31 17 -51t49 -20q44 0 71 29.5t27 79.5q0 40 -22.5 62t-58.5 22q-16 0 -38 -3l-5 23q64 21 101 47t37 65q0 23 -14.5 36.5t-41.5 13.5q-56 0 -111 -55l-16 19q59 94 162 94q51 0 79 -23t28 -62q0 -47 -37 -76.5t-88 -42.5z" />
    <glyph glyph-name="uni2154" unicode="&#x2154;" horiz-adv-x="982" 
d="M164 362h92q43 0 63 12t53 57h27l-53 -144h-296l6 27q119 98 174.5 153t71.5 86.5t16 70.5q0 30 -18 48.5t-51 18.5q-56 0 -116 -66l-16 22q25 42 70 71.5t98 29.5q54 0 85.5 -30t31.5 -81q0 -31 -9 -56t-35 -53.5t-45.5 -45.5t-70 -56.5t-78.5 -63.5zM217 0l613 741h60
l-613 -741h-60zM782 185q50 -7 78.5 -35t28.5 -74q0 -74 -54.5 -113.5t-128.5 -39.5q-70 0 -106.5 27t-36.5 64q0 45 40 62h47q-7 -24 -7 -49q0 -31 17 -51t49 -20q44 0 71 29.5t27 79.5q0 40 -22.5 62t-58.5 22q-16 0 -38 -3l-5 23q64 21 101 47t37 65q0 23 -14.5 36.5
t-41.5 13.5q-56 0 -111 -55l-16 19q59 94 162 94q51 0 79 -23t28 -62q0 -47 -37 -76.5t-88 -42.5z" />
    <glyph glyph-name="uni215B" unicode="&#x215b;" horiz-adv-x="983" 
d="M304 748h30l-78 -368q-4 -16 -4 -28q0 -18 17 -23.5t68 -8.5l-6 -33h-271l7 33q55 3 75.5 11t26.5 36l56 268h-99l7 34l33 4q50 6 79 21.5t59 53.5zM908 280q-4 -77 -114 -100q86 -51 86 -118q0 -64 -46 -101.5t-122 -37.5q-70 0 -113.5 33.5t-43.5 83.5q0 47 37 77
t91 43q-29 15 -46.5 43t-17.5 61q0 54 42 90t108 36t102.5 -31t36.5 -79zM761 115l-57 33q-76 -34 -76 -105q0 -37 23.5 -60t63.5 -23q39 0 64 21.5t25 58.5q0 49 -43 75zM732 218l44 -26q63 36 63 88q0 31 -19 52t-56 21q-33 0 -53 -19t-20 -51q0 -41 41 -65zM190 0
l613 741h60l-613 -741h-60z" />
    <glyph glyph-name="uni215C" unicode="&#x215c;" horiz-adv-x="985" 
d="M274 540q50 -7 78.5 -35t28.5 -74q0 -74 -54.5 -113.5t-128.5 -39.5q-70 0 -106.5 27t-36.5 64q0 45 40 62h47q-7 -24 -7 -49q0 -31 17 -51t49 -20q44 0 71 29.5t27 79.5q0 40 -22.5 62t-58.5 22q-16 0 -38 -3l-5 23q64 21 101 47t37 65q0 23 -14.5 36.5t-41.5 13.5
q-56 0 -111 -55l-16 19q59 94 162 94q51 0 79 -23t28 -62q0 -47 -37 -76.5t-88 -42.5zM190 0l613 741h60l-613 -741h-60zM910 280q-4 -77 -114 -100q86 -51 86 -118q0 -64 -46 -101.5t-122 -37.5q-70 0 -113.5 33.5t-43.5 83.5q0 47 37 77t91 43q-29 15 -46.5 43t-17.5 61
q0 54 42 90t108 36t102.5 -31t36.5 -79zM763 115l-57 33q-76 -34 -76 -105q0 -37 23.5 -60t63.5 -23q39 0 64 21.5t25 58.5q0 49 -43 75zM734 218l44 -26q63 36 63 88q0 31 -19 52t-56 21q-33 0 -53 -19t-20 -51q0 -41 41 -65z" />
    <glyph glyph-name="uni215D" unicode="&#x215d;" horiz-adv-x="978" 
d="M413 736l-29 -78h-177l-26 -77q85 -1 139.5 -36.5t54.5 -101.5q0 -76 -50.5 -121t-128.5 -45q-66 0 -101 26t-35 65q0 43 41 63h43q-10 -30 -10 -53q0 -30 18.5 -48.5t53.5 -18.5q42 0 66.5 27t24.5 73q0 104 -174 104l75 221h215zM903 280q-4 -77 -114 -100
q86 -51 86 -118q0 -64 -46 -101.5t-122 -37.5q-70 0 -113.5 33.5t-43.5 83.5q0 47 37 77t91 43q-29 15 -46.5 43t-17.5 61q0 54 42 90t108 36t102.5 -31t36.5 -79zM756 115l-57 33q-76 -34 -76 -105q0 -37 23.5 -60t63.5 -23q39 0 64 21.5t25 58.5q0 49 -43 75zM727 218
l44 -26q63 36 63 88q0 31 -19 52t-56 21q-33 0 -53 -19t-20 -51q0 -41 41 -65zM183 0l613 741h60l-613 -741h-60z" />
    <glyph glyph-name="uni215E" unicode="&#x215e;" horiz-adv-x="885" 
d="M364 650h-160q-21 0 -37 -14.5t-36 -49.5h-30l56 150h298l-5 -25l-284 -424h-68zM810 280q-4 -77 -114 -100q86 -51 86 -118q0 -64 -46 -101.5t-122 -37.5q-70 0 -113.5 33.5t-43.5 83.5q0 47 37 77t91 43q-29 15 -46.5 43t-17.5 61q0 54 42 90t108 36t102.5 -31
t36.5 -79zM663 115l-57 33q-76 -34 -76 -105q0 -37 23.5 -60t63.5 -23q39 0 64 21.5t25 58.5q0 49 -43 75zM634 218l44 -26q63 36 63 88q0 31 -19 52t-56 21q-33 0 -53 -19t-20 -51q0 -41 41 -65zM90 0l613 741h60l-613 -741h-60z" />
    <glyph glyph-name="partialdiff" unicode="&#x2202;" horiz-adv-x="522" 
d="M307 540q35 0 62 -15q-45 139 -206 221l22 30q141 -58 220.5 -168t79.5 -255q0 -91 -34.5 -173.5t-99 -136t-142.5 -53.5q-79 0 -125.5 53t-46.5 148q0 84 34 163.5t97.5 132.5t138.5 53zM391 363q0 62 -10 116q-24 21 -67 21q-53 0 -96.5 -54.5t-65 -129.5t-21.5 -149
q0 -65 21.5 -101t59.5 -36q52 0 94 54.5t63.5 130t21.5 148.5z" />
    <glyph glyph-name="Delta" unicode="&#x2206;" horiz-adv-x="702" 
d="M611 0h-622l7 34l427 668h47l148 -668zM406 588l-338 -537h451z" />
    <glyph glyph-name="product" unicode="&#x220f;" horiz-adv-x="758" 
d="M115 702h710l-9 -39q-55 -2 -81.5 -16t-35.5 -57l-144 -675q-3 -14 -3 -23q0 -29 21 -38.5t69 -11.5l-8 -39h-300l8 39q54 2 81 16t36 57l159 748h-314l-159 -748q-3 -13 -3 -23q0 -29 21.5 -38.5t68.5 -11.5l-8 -39h-299l8 39q54 2 80.5 16t35.5 57l144 675q3 14 3 23
q0 29 -21 38.5t-69 11.5z" />
    <glyph glyph-name="summation" unicode="&#x2211;" horiz-adv-x="593" 
d="M27 -114h204q76 0 108.5 17t93.5 93h32l-70 -193h-488l7 36l394 425l-218 396l9 42h490l-36 -167h-27q-13 69 -37 95t-82 26h-213l200 -363l-5 -21z" />
    <glyph glyph-name="minus" unicode="&#x2212;" horiz-adv-x="563" 
d="M68 340l15 62h437l-14 -62h-438z" />
    <glyph glyph-name="radical" unicode="&#x221a;" horiz-adv-x="579" 
d="M255 141l330 571h58l-402 -712h-59l-38 434q-3 31 -11 42.5t-28 11.5h-41l9 42h161z" />
    <glyph glyph-name="infinity" unicode="&#x221e;" horiz-adv-x="793" 
d="M380 349l-32 43q-46 61 -103 61q-48 0 -80.5 -34.5t-32.5 -93.5q0 -37 23 -59.5t55 -22.5q57 0 110 50zM454 347l32 -43q46 -61 103 -61q48 0 80.5 34.5t32.5 93.5q0 37 -23 59.5t-55 22.5q-57 0 -110 -50zM412 305l-51 -50q-72 -70 -154 -70q-62 0 -101 37t-39 103
q0 81 52.5 133.5t131.5 52.5q85 0 135 -70l36 -50l51 50q72 70 154 70q62 0 101 -37t39 -103q0 -81 -52.5 -133.5t-131.5 -52.5q-85 0 -135 70z" />
    <glyph glyph-name="integral" unicode="&#x222b;" horiz-adv-x="416" 
d="M260 467l-90 -423q-51 -241 -211 -241q-39 0 -62.5 19t-23.5 52q0 41 48 55h19q2 -44 12 -65.5t33 -21.5q33 0 49.5 39.5t43.5 166.5l90 423q51 241 211 241q39 0 62.5 -19t23.5 -52q0 -41 -48 -55h-19q-2 44 -12 65.5t-33 21.5q-33 0 -49.5 -39.5t-43.5 -166.5z" />
    <glyph glyph-name="approxequal" unicode="&#x2248;" horiz-adv-x="574" 
d="M85 385l13 66q70 40 127 40q37 0 95.5 -19.5t96.5 -19.5q59 0 129 40l-16 -66q-68 -40 -127 -40q-38 0 -96.5 19.5t-96.5 19.5q-55 0 -125 -40zM58 256l14 65q66 40 126 40q38 0 96 -19t96 -19q61 0 128 39l-14 -66q-69 -39 -128 -39q-38 0 -96 19t-96 19q-59 0 -126 -39
z" />
    <glyph glyph-name="notequal" unicode="&#x2260;" horiz-adv-x="574" 
d="M89 409l13 62h259l98 103h69l-98 -103h109l-12 -62h-155l-73 -77h212l-13 -61h-257l-98 -104h-69l98 104h-111l12 61h157l73 77h-214z" />
    <glyph glyph-name="lessequal" unicode="&#x2264;" horiz-adv-x="433" 
d="M73 399l2 9l347 166l-17 -73l-211 -99l170 -100l-15 -69zM19 144l13 61h311l-14 -61h-310z" />
    <glyph glyph-name="greaterequal" unicode="&#x2265;" horiz-adv-x="433" 
d="M362 205l-14 -61h-310l13 61h311zM404 408l-2 -9l-346 -166l16 74l211 99l-169 99l15 69z" />
    <glyph glyph-name="lozenge" unicode="&#x25ca;" horiz-adv-x="607" 
d="M70 351l276 351h85l126 -351l-275 -351h-85zM481 351l-104 299l-231 -299l104 -299z" />
    <glyph glyph-name="Tcedilla.sc" horiz-adv-x="606" 
d="M418 554l-96 -442q-4 -20 -4 -32q0 -24 19.5 -32.5t64.5 -9.5l-8 -38h-284l7 38q49 1 74.5 13t33.5 48l99 455h-54q-56 0 -83 -24t-89 -116h-32l53 182h523l-26 -182h-32q-21 92 -38 116t-73 24h-55zM241 -153h-46q-33 7 -33 39q0 29 20.5 45.5t52.5 16.5q30 0 46.5 -17
t16.5 -47q0 -49 -39 -81.5t-109 -32.5l7 33q75 0 84 44z" />
    <glyph glyph-name="i.dot" horiz-adv-x="334" 
d="M266 540l-104 -424q-9 -34 -9 -44q0 -15 14 -15q32 0 93 75l20 -21q-45 -67 -80.5 -94t-74.5 -27q-28 0 -45 18.5t-17 49.5q0 27 14 86l77 310l-76 31l6 21l157 34h25zM245 611q-27 0 -45 18.5t-18 44.5q0 29 20.5 50t49.5 21q27 0 45 -18.5t18 -44.5q0 -29 -20.5 -50
t-49.5 -21z" />
    <glyph glyph-name="space_uni0326" horiz-adv-x="500" 
d="M267 -153h-46q-33 7 -33 39q0 29 20.5 45.5t52.5 16.5q30 0 46.5 -17t16.5 -47q0 -49 -39 -81.5t-109 -32.5l7 33q75 0 84 44z" />
    <glyph glyph-name="space_uni0326.alt" horiz-adv-x="500" 
d="M233 708h46q33 -7 33 -39q0 -29 -20.5 -45.5t-52.5 -16.5q-30 0 -46.5 17t-16.5 47q0 49 39 81.5t109 32.5l-7 -33q-75 0 -84 -44z" />
    <glyph glyph-name="space_dotbelowcomb" horiz-adv-x="500" 
d="M183 -123q0 29 20.5 50t49.5 21q27 0 45 -18.5t18 -44.5q0 -29 -20.5 -50t-49.5 -21q-27 0 -45 18.5t-18 44.5z" />
    <glyph glyph-name="A.sc" horiz-adv-x="639" 
d="M429 117l-17 79h-244l-55 -87q-17 -28 -17 -42q0 -16 17.5 -22t55.5 -7l-7 -38h-198l8 38q43 5 59 31l304 476l-14 58h97l117 -534q3 -16 14 -22t32 -9l-6 -38h-236l7 38q28 1 44.5 3.5t29.5 13t13 29.5q0 16 -4 33zM352 486l-159 -250h211z" />
    <glyph glyph-name="B.sc" horiz-adv-x="610" 
d="M307 284h-75l-39 -179q-4 -20 -4 -27q0 -20 18 -28t58 -8h15q77 0 120.5 35t43.5 103q0 104 -137 104zM357 553h-67l-49 -227h55q82 0 130.5 33t48.5 104q0 90 -118 90zM119 596h266q90 0 138.5 -32.5t48.5 -96.5q0 -73 -56 -115t-130 -45q72 -6 113.5 -38.5t41.5 -89.5
q0 -84 -70.5 -131.5t-184.5 -47.5h-296l9 38q46 1 68.5 13t30.5 48l84 387q4 19 4 31q0 24 -16.5 32t-58.5 9z" />
    <glyph glyph-name="C.sc" horiz-adv-x="594" 
d="M297 -10q-116 0 -181.5 64t-65.5 174q0 155 103 266.5t253 111.5q117 0 185 -55l-27 -128h-36q-10 138 -126 138q-112 0 -181.5 -102t-69.5 -231q0 -91 40 -141t110 -50q66 0 108.5 36t85.5 121h43l-41 -148q-98 -56 -200 -56z" />
    <glyph glyph-name="D.sc" horiz-adv-x="665" 
d="M347 553h-57l-95 -437q-4 -20 -4 -33q0 -24 13 -32t44 -8h17q119 0 194.5 87t75.5 225q0 198 -188 198zM119 596h241q140 0 208 -65.5t68 -175.5q0 -156 -105.5 -255.5t-275.5 -99.5h-265l9 38q46 1 68.5 13t30.5 48l84 387q4 19 4 31q0 24 -16.5 32t-58.5 9z" />
    <glyph glyph-name="E.sc" horiz-adv-x="596" 
d="M-10 0l9 38q46 1 68.5 13t30.5 48l84 387q4 19 4 31q0 24 -16.5 32t-58.5 9l8 38h484l-31 -145h-29q-12 61 -28.5 81.5t-66.5 20.5h-158l-49 -226h129q28 0 46 17.5t34 57.5h33l-42 -193h-32q0 41 -10 58t-38 17h-129l-37 -170q-4 -19 -4 -32q0 -23 16.5 -31t58.5 -8h60
q55 0 89.5 22.5t92.5 91.5h31l-59 -157h-490z" />
    <glyph glyph-name="F.sc" horiz-adv-x="548" 
d="M119 596h466l-33 -150h-29q-7 33 -11.5 48.5t-14.5 31.5t-26 21.5t-42 5.5h-138l-52 -237h109q29 0 47 17.5t33 56.5h33l-41 -192h-33q0 40 -10 57.5t-38 17.5h-110l-34 -158q-5 -30 -5 -34q0 -26 23 -34t77 -10l-7 -37h-293l9 38q46 1 68.5 13t30.5 48l84 387q4 19 4 31
q0 24 -16.5 32t-58.5 9z" />
    <glyph glyph-name="G.sc" horiz-adv-x="649" 
d="M50 229q0 153 106.5 265t257.5 112q116 0 184 -55l-27 -128h-36q-10 138 -127 138q-76 0 -136 -50.5t-90.5 -125.5t-30.5 -156q0 -92 43 -142t115 -50q62 0 114 28l29 112q5 23 5 30q0 24 -17 32t-60 10l8 38h252l-9 -38q-45 -2 -62 -13t-27 -48l-34 -137
q-103 -61 -203 -61q-118 0 -186.5 63t-68.5 176z" />
    <glyph glyph-name="H.sc" horiz-adv-x="750" 
d="M498 99l40 185h-306l-38 -174q-4 -19 -4 -31q0 -24 16.5 -32t58.5 -9l-8 -38h-267l9 38q46 1 68.5 13t30.5 48l84 387q4 19 4 31q0 24 -16.5 32t-58.5 9l8 38h267l-9 -38q-46 -1 -68.5 -13t-30.5 -48l-37 -170h306l35 159q4 19 4 31q0 24 -16.5 32t-58.5 9l8 38h267
l-9 -38q-46 -1 -68.5 -13t-30.5 -48l-84 -387q-4 -19 -4 -31q0 -24 16.5 -32t58.5 -9l-8 -38h-267l9 38q46 1 68.5 13t30.5 48z" />
    <glyph glyph-name="I.sc" horiz-adv-x="350" 
d="M98 99l84 387q4 19 4 31q0 24 -16.5 32t-58.5 9l8 38h267l-9 -38q-46 -1 -68.5 -13t-30.5 -48l-84 -387q-4 -19 -4 -31q0 -24 16.5 -32t58.5 -9l-8 -38h-267l9 38q46 1 68.5 13t30.5 48z" />
    <glyph glyph-name="J.sc" horiz-adv-x="462" 
d="M244 150l73 336q4 19 4 31q0 24 -16.5 32t-58.5 9l8 38h267l-9 -38q-46 -1 -68.5 -13t-30.5 -48l-72 -331q-38 -176 -212 -176q-70 0 -107.5 29.5t-37.5 74.5q0 47 37 68h70q-13 -32 -13 -62q0 -33 15.5 -51t43.5 -18q41 0 67 27t40 92z" />
    <glyph glyph-name="K.sc" horiz-adv-x="643" 
d="M341 323l138 -218q25 -40 48.5 -53t63.5 -14l-7 -38h-134q-33 28 -78 101l-126 203l246 197q30 23 30 36q0 12 -12 16t-50 5l8 38h219l-8 -38q-29 -1 -50.5 -11.5t-52.5 -35.5zM98 99l84 387q4 19 4 31q0 24 -16.5 32t-58.5 9l8 38h267l-9 -38q-46 -1 -68.5 -13
t-30.5 -48l-84 -387q-4 -19 -4 -31q0 -24 16.5 -32t58.5 -9l-8 -38h-267l9 38q46 1 68.5 13t30.5 48z" />
    <glyph glyph-name="L.sc" horiz-adv-x="556" 
d="M-10 0l9 38q46 1 68.5 13t30.5 48l84 387q4 19 4 31q0 24 -16.5 32t-58.5 9l8 38h267l-9 -38q-46 -1 -68.5 -13t-30.5 -48l-83 -383q-5 -22 -5 -32q0 -22 17.5 -30.5t57.5 -8.5h40q54 0 88.5 27t92.5 103h35l-65 -173h-466z" />
    <glyph glyph-name="M.sc" horiz-adv-x="843" 
d="M624 113l25 344l-277 -457h-31l-82 460l-131 -345q-7 -21 -7 -37q0 -22 16.5 -30t56.5 -10l-7 -38h-214l8 38q38 1 55.5 11.5t28.5 39.5l160 417q0 30 -12.5 40.5t-52.5 11.5l8 38h165q0 -32 3 -49l69 -406l245 406q20 38 24 49h166l-9 -38q-43 -1 -61 -14.5t-25 -47.5
l-31 -407q-2 -29 11.5 -39.5t51.5 -11.5l-7 -38h-251l7 38q47 2 71 16.5t27 58.5z" />
    <glyph glyph-name="N.sc" horiz-adv-x="702" 
d="M512 149l74 337q4 16 4 31q0 24 -16.5 32t-58.5 9l7 38h229l-9 -38q-46 -1 -68.5 -13t-30.5 -48l-107 -497h-40l-265 463l-76 -353q-4 -16 -4 -31q0 -24 16.5 -32t58.5 -9l-7 -38h-229l9 38q46 1 68.5 13t30.5 48l90 412q-20 30 -33.5 38t-44.5 9l9 38h144z" />
    <glyph glyph-name="O.sc" horiz-adv-x="639" 
d="M151 231q0 -87 33 -139.5t98 -52.5q99 0 163 100t64 226q0 87 -33 139.5t-98 52.5q-99 0 -163 -100t-64 -226zM610 363q0 -151 -96 -262t-234 -111q-109 0 -169.5 67.5t-60.5 175.5q0 151 96 262t234 111q109 0 169.5 -67.5t60.5 -175.5z" />
    <glyph glyph-name="P.sc" horiz-adv-x="562" 
d="M-10 0l9 38q46 1 68.5 13t30.5 48l84 387q4 19 4 31q0 24 -16.5 32t-58.5 9l8 38h257q100 0 149.5 -42.5t49.5 -112.5q0 -95 -77.5 -148t-202.5 -53h-73l-27 -125q-5 -30 -5 -34q0 -26 23 -34t77 -10l-7 -37h-293zM290 553l-59 -271h62q86 0 135 39.5t49 117.5
q0 114 -129 114h-58z" />
    <glyph glyph-name="Q.sc" horiz-adv-x="639" 
d="M610 363q0 -136 -78.5 -241t-197.5 -127l30 -40q28 -38 52.5 -55.5t58.5 -20.5l-3 -19q-32 -15 -71 -15q-45 0 -72.5 19.5t-48.5 61.5l-33 66q-94 10 -145.5 75.5t-51.5 165.5q0 151 96 262t234 111q109 0 169.5 -67.5t60.5 -175.5zM151 231q0 -87 33 -139.5t98 -52.5
q99 0 163 100t64 226q0 87 -33 139.5t-98 52.5q-99 0 -163 -100t-64 -226z" />
    <glyph glyph-name="R.sc" horiz-adv-x="616" 
d="M333 553h-43l-55 -254h39q87 0 138.5 37.5t51.5 111.5q0 105 -131 105zM119 596h252q192 0 192 -148q0 -74 -58 -122t-145 -57l95 -155q27 -44 47.5 -60t60.5 -16l-8 -38h-124q-31 28 -72 99l-89 159h-44l-32 -148q-4 -19 -4 -31q0 -24 16.5 -32t58.5 -9l-8 -38h-267
l9 38q46 1 68.5 13t30.5 48l84 387q4 19 4 31q0 24 -16.5 32t-58.5 9z" />
    <glyph glyph-name="S.sc" horiz-adv-x="504" 
d="M226 -10q-69 0 -122.5 23t-82.5 53l23 139h36q4 -82 42 -126t104 -44q53 0 87 26.5t34 77.5q0 41 -26 69t-92 62q-64 34 -94.5 73.5t-30.5 92.5q0 78 54.5 124t136.5 46q111 0 185 -62l-25 -124h-33q-2 66 -34.5 103.5t-92.5 37.5q-53 0 -80.5 -26t-27.5 -72
q0 -36 22 -61t75 -52q76 -39 114 -79.5t38 -99.5q0 -85 -63.5 -133t-146.5 -48z" />
    <glyph glyph-name="T.sc" horiz-adv-x="606" 
d="M418 554l-96 -442q-4 -20 -4 -32q0 -24 19.5 -32.5t64.5 -9.5l-8 -38h-284l7 38q49 1 74.5 13t33.5 48l99 455h-54q-56 0 -83 -24t-89 -116h-32l53 182h523l-26 -182h-32q-21 92 -38 116t-73 24h-55z" />
    <glyph glyph-name="U.sc" horiz-adv-x="677" 
d="M510 213l59 273q4 16 4 31q0 24 -16.5 32t-58.5 9l7 38h229l-9 -38q-46 -1 -68.5 -13t-30.5 -48l-65 -302q-22 -102 -89.5 -153.5t-160.5 -51.5q-101 0 -156.5 49t-55.5 134q0 25 8 63l53 250q4 19 4 31q0 24 -16.5 32t-58.5 9l8 38h267l-9 -38q-46 -1 -68.5 -13
t-30.5 -48l-58 -267q-6 -27 -6 -52q0 -59 33.5 -94.5t95.5 -35.5q77 0 123.5 38.5t65.5 126.5z" />
    <glyph glyph-name="V.sc" horiz-adv-x="629" 
d="M308 125l234 362q15 24 15 39q0 30 -73 32l8 38h201l-9 -38q-43 -5 -60 -31l-346 -534h-30l-117 534q-3 16 -14 22t-32 9l8 38h237l-8 -38q-28 -1 -44 -4t-30 -14t-14 -31q0 -6 2 -22z" />
    <glyph glyph-name="W.sc" horiz-adv-x="866" 
d="M571 132l209 352q16 28 16 46q0 27 -71 28l8 38h197l-9 -38q-45 -6 -60 -31l-322 -534h-31l-42 360l-220 -360h-30l-85 534q-4 26 -46 31l8 38h231l-8 -38q-30 -1 -45.5 -3.5t-28.5 -14t-13 -32.5q0 -15 2 -27l51 -350l174 287l-16 109q-1 11 -8 18t-15 9t-22 4l8 38h224
l-8 -38q-23 -1 -35.5 -2.5t-26.5 -6.5t-20 -15.5t-6 -27.5q0 -4 2 -22z" />
    <glyph glyph-name="X.sc" horiz-adv-x="628" 
d="M579 518l-205 -202l128 -238q21 -40 67 -40l-7 -38h-244l7 38q25 0 38.5 1t26.5 8t13 21q0 13 -14 39l-83 155l-151 -153q-33 -33 -33 -48q0 -13 15 -18t54 -5l-7 -38h-218l8 38q26 0 44 8.5t42 31.5l225 225l-117 215q-23 40 -68 40l9 38h246l-8 -38q-40 0 -59 -5.5
t-20 -23.5q0 -12 14 -40l71 -133l132 131q31 29 32 48q0 23 -69 23l9 38h216l-8 -38q-26 0 -44 -8.5t-42 -31.5z" />
    <glyph glyph-name="Y.sc" horiz-adv-x="595" 
d="M459 596h200l-8 -38q-37 -4 -60 -31l-250 -290l-28 -128q-5 -20 -5 -29q0 -24 20.5 -32.5t64.5 -9.5l-8 -38h-279l8 38q48 1 73.5 13t33.5 48l30 137l-120 291q-11 27 -46 31l8 38h235l-8 -38q-42 0 -63.5 -7t-22.5 -31q0 -14 9 -35l79 -201l175 201q24 27 24 45
q0 14 -15 20.5t-55 7.5z" />
    <glyph glyph-name="Z.sc" horiz-adv-x="547" 
d="M114 44h179q54 0 84.5 25t90.5 105h34l-66 -174h-454l5 25l459 526h-162q-50 0 -75 -21.5t-74 -94.5h-31l35 161h440l-5 -26z" />
    <glyph glyph-name="Aacute.sc" horiz-adv-x="639" 
d="M429 117l-17 79h-244l-55 -87q-17 -28 -17 -42q0 -16 17.5 -22t55.5 -7l-7 -38h-198l8 38q43 5 59 31l304 476l-14 58h97l117 -534q3 -16 14 -22t32 -9l-6 -38h-236l7 38q28 1 44.5 3.5t29.5 13t13 29.5q0 16 -4 33zM352 486l-159 -250h211zM463 816h136l-193 -169h-45z
" />
    <glyph glyph-name="Abreve.sc" horiz-adv-x="639" 
d="M429 117l-17 79h-244l-55 -87q-17 -28 -17 -42q0 -16 17.5 -22t55.5 -7l-7 -38h-198l8 38q43 5 59 31l304 476l-14 58h97l117 -534q3 -16 14 -22t32 -9l-6 -38h-236l7 38q28 1 44.5 3.5t29.5 13t13 29.5q0 16 -4 33zM352 486l-159 -250h211zM390 648q-113 0 -113 121
q0 21 6 47h36q-1 -6 -1 -17q0 -85 85 -85q89 0 122 102h39q-16 -80 -61.5 -124t-112.5 -44z" />
    <glyph glyph-name="Acircumflex.sc" horiz-adv-x="639" 
d="M429 117l-17 79h-244l-55 -87q-17 -28 -17 -42q0 -16 17.5 -22t55.5 -7l-7 -38h-198l8 38q43 5 59 31l304 476l-14 58h97l117 -534q3 -16 14 -22t32 -9l-6 -38h-236l7 38q28 1 44.5 3.5t29.5 13t13 29.5q0 16 -4 33zM352 486l-159 -250h211zM454 816l96 -169h-45l-97 100
l-159 -100h-47l178 169h74z" />
    <glyph glyph-name="Adieresis.sc" horiz-adv-x="639" 
d="M429 117l-17 79h-244l-55 -87q-17 -28 -17 -42q0 -16 17.5 -22t55.5 -7l-7 -38h-198l8 38q43 5 59 31l304 476l-14 58h97l117 -534q3 -16 14 -22t32 -9l-6 -38h-236l7 38q28 1 44.5 3.5t29.5 13t13 29.5q0 16 -4 33zM352 486l-159 -250h211zM310 670q-25 0 -41.5 16.5
t-16.5 41.5q0 26 18.5 45t44.5 19q25 0 41.5 -16.5t16.5 -41.5q0 -26 -18.5 -45t-44.5 -19zM496 670q-25 0 -41.5 16.5t-16.5 41.5q0 26 18.5 45t44.5 19q25 0 41.5 -16.5t16.5 -41.5q0 -26 -18.5 -45t-44.5 -19z" />
    <glyph glyph-name="Agrave.sc" horiz-adv-x="639" 
d="M429 117l-17 79h-244l-55 -87q-17 -28 -17 -42q0 -16 17.5 -22t55.5 -7l-7 -38h-198l8 38q43 5 59 31l304 476l-14 58h97l117 -534q3 -16 14 -22t32 -9l-6 -38h-236l7 38q28 1 44.5 3.5t29.5 13t13 29.5q0 16 -4 33zM352 486l-159 -250h211zM234 816h124l63 -169h-41z
" />
    <glyph glyph-name="Amacron.sc" horiz-adv-x="639" 
d="M429 117l-17 79h-244l-55 -87q-17 -28 -17 -42q0 -16 17.5 -22t55.5 -7l-7 -38h-198l8 38q43 5 59 31l304 476l-14 58h97l117 -534q3 -16 14 -22t32 -9l-6 -38h-236l7 38q28 1 44.5 3.5t29.5 13t13 29.5q0 16 -4 33zM352 486l-159 -250h211zM263 678l13 58h262l-13 -58
h-262z" />
    <glyph glyph-name="Aogonek.sc" horiz-adv-x="639" 
d="M429 117l-17 79h-244l-55 -87q-17 -28 -17 -42q0 -16 17.5 -22t55.5 -7l-7 -38h-198l8 38q43 5 59 31l304 476l-14 58h97l117 -534q3 -16 14 -22t32 -9l-6 -38h-199q-122 -54 -122 -119q0 -36 44 -36q32 0 98 47l13 -19q-76 -83 -144 -83q-36 0 -57.5 18.5t-21.5 54.5
q0 91 134 147q17 7 41 16t33.5 13t20.5 10.5t14.5 14.5t3.5 20q0 16 -4 33zM352 486l-159 -250h211z" />
    <glyph glyph-name="Aring.sc" horiz-adv-x="639" 
d="M429 117l-17 79h-244l-55 -87q-17 -28 -17 -42q0 -16 17.5 -22t55.5 -7l-7 -38h-198l8 38q43 5 59 31l304 476l-14 58h97l117 -534q3 -16 14 -22t32 -9l-6 -38h-236l7 38q28 1 44.5 3.5t29.5 13t13 29.5q0 16 -4 33zM395 643q-37 0 -59 22.5t-22 58.5q0 43 29.5 72
t73.5 29q37 0 59 -22.5t22 -58.5q0 -43 -29.5 -72t-73.5 -29zM352 486l-159 -250h211zM400 680q26 0 41 18.5t15 45.5q0 20 -11.5 32t-32.5 12q-26 0 -41 -18.5t-15 -45.5q0 -20 11.5 -32t32.5 -12z" />
    <glyph glyph-name="Aringacute.sc" horiz-adv-x="639" 
d="M429 117l-17 79h-244l-55 -87q-17 -28 -17 -42q0 -16 17.5 -22t55.5 -7l-7 -38h-198l8 38q43 5 59 31l304 476l-14 58h97l117 -534q3 -16 14 -22t32 -9l-6 -38h-236l7 38q28 1 44.5 3.5t29.5 13t13 29.5q0 16 -4 33zM352 486l-159 -250h211zM395 633q-37 0 -59.5 21
t-22.5 53q0 38 29 62.5t73 24.5q37 0 59.5 -21t22.5 -53q0 -38 -29 -62.5t-73 -24.5zM484 922h132l-154 -102h-41zM399 666q26 0 41 15t15 39q0 18 -12 29.5t-32 11.5q-26 0 -41 -15t-15 -39q0 -18 12 -29.5t32 -11.5z" />
    <glyph glyph-name="Atilde.sc" horiz-adv-x="639" 
d="M429 117l-17 79h-244l-55 -87q-17 -28 -17 -42q0 -16 17.5 -22t55.5 -7l-7 -38h-198l8 38q43 5 59 31l304 476l-14 58h97l117 -534q3 -16 14 -22t32 -9l-6 -38h-236l7 38q28 1 44.5 3.5t29.5 13t13 29.5q0 16 -4 33zM352 486l-159 -250h211zM552 796l36 -10
q-37 -72 -63 -96t-62 -24q-32 0 -73 36t-60 36q-21 0 -34 -13t-34 -49l-37 10q37 72 63 96t62 24q32 0 73 -36t60 -36q21 0 34 13t35 49z" />
    <glyph glyph-name="AE.sc" horiz-adv-x="918" 
d="M31 69l432 466q-11 24 -72 24l7 38h527l-32 -146h-28q-7 33 -12 48t-15 30t-26 20t-42 5h-158l-49 -227h129q28 0 46 17.5t34 57.5h33l-42 -193h-33q0 41 -10 58t-37 17h-129l-37 -170q-4 -19 -4 -32q0 -23 16.5 -31t58.5 -8h59q55 0 90 22.5t93 91.5h31l-60 -157h-489
l8 38q47 1 69 13t30 48l25 114h-220l-94 -102q-19 -20 -19 -44q0 -16 17.5 -22t55.5 -7l-7 -38h-213l8 38q33 4 59 31zM512 524l-250 -270h191z" />
    <glyph glyph-name="AEacute.sc" horiz-adv-x="918" 
d="M31 69l432 466q-11 24 -72 24l7 38h527l-32 -146h-28q-7 33 -12 48t-15 30t-26 20t-42 5h-158l-49 -227h129q28 0 46 17.5t34 57.5h33l-42 -193h-33q0 41 -10 58t-37 17h-129l-37 -170q-4 -19 -4 -32q0 -23 16.5 -31t58.5 -8h59q55 0 90 22.5t93 91.5h31l-60 -157h-489
l8 38q47 1 69 13t30 48l25 114h-220l-94 -102q-19 -20 -19 -44q0 -16 17.5 -22t55.5 -7l-7 -38h-213l8 38q33 4 59 31zM512 524l-250 -270h191zM698 816h136l-193 -169h-45z" />
    <glyph glyph-name="Cacute.sc" horiz-adv-x="594" 
d="M297 -10q-116 0 -181.5 64t-65.5 174q0 155 103 266.5t253 111.5q117 0 185 -55l-27 -128h-36q-10 138 -126 138q-112 0 -181.5 -102t-69.5 -231q0 -91 40 -141t110 -50q66 0 108.5 36t85.5 121h43l-41 -148q-98 -56 -200 -56zM509 816h136l-193 -169h-45z" />
    <glyph glyph-name="Ccaron.sc" horiz-adv-x="594" 
d="M297 -10q-116 0 -181.5 64t-65.5 174q0 155 103 266.5t253 111.5q117 0 185 -55l-27 -128h-36q-10 138 -126 138q-112 0 -181.5 -102t-69.5 -231q0 -91 40 -141t110 -50q66 0 108.5 36t85.5 121h43l-41 -148q-98 -56 -200 -56zM398 649l-96 169h45l97 -100l159 100h47
l-178 -169h-74z" />
    <glyph glyph-name="Ccedilla.sc" horiz-adv-x="594" 
d="M177 -221l-3 33q124 0 124 49q0 39 -89 42l49 89q-99 10 -153.5 72.5t-54.5 163.5q0 155 103 266.5t253 111.5q117 0 185 -55l-27 -128h-36q-10 138 -126 138q-112 0 -181.5 -102t-69.5 -231q0 -91 40 -141t110 -50q66 0 108.5 36t85.5 121h43l-41 -148q-98 -56 -200 -56
h-8l-20 -38q101 -2 101 -64q0 -54 -54.5 -81.5t-138.5 -27.5z" />
    <glyph glyph-name="Ccircumflex.sc" horiz-adv-x="594" 
d="M297 -10q-116 0 -181.5 64t-65.5 174q0 155 103 266.5t253 111.5q117 0 185 -55l-27 -128h-36q-10 138 -126 138q-112 0 -181.5 -102t-69.5 -231q0 -91 40 -141t110 -50q66 0 108.5 36t85.5 121h43l-41 -148q-98 -56 -200 -56zM500 816l96 -169h-45l-97 100l-159 -100
h-47l178 169h74z" />
    <glyph glyph-name="Cdotaccent.sc" horiz-adv-x="594" 
d="M297 -10q-116 0 -181.5 64t-65.5 174q0 155 103 266.5t253 111.5q117 0 185 -55l-27 -128h-36q-10 138 -126 138q-112 0 -181.5 -102t-69.5 -231q0 -91 40 -141t110 -50q66 0 108.5 36t85.5 121h43l-41 -148q-98 -56 -200 -56zM448 666q-27 0 -45 18.5t-18 44.5
q0 29 20.5 50t49.5 21q27 0 45 -18.5t18 -44.5q0 -29 -20.5 -50t-49.5 -21z" />
    <glyph glyph-name="Dcaron.sc" horiz-adv-x="665" 
d="M347 553h-57l-95 -437q-4 -20 -4 -33q0 -24 13 -32t44 -8h17q119 0 194.5 87t75.5 225q0 198 -188 198zM119 596h241q140 0 208 -65.5t68 -175.5q0 -156 -105.5 -255.5t-275.5 -99.5h-265l9 38q46 1 68.5 13t30.5 48l84 387q4 19 4 31q0 24 -16.5 32t-58.5 9zM353 649
l-96 169h45l97 -100l159 100h47l-178 -169h-74z" />
    <glyph glyph-name="Dcroat.sc" horiz-adv-x="665" 
d="M119 596h241q140 0 208 -65.5t68 -175.5q0 -156 -105.5 -255.5t-275.5 -99.5h-265l9 38q46 1 68.5 13t30.5 48l40 186h-81l9 42h81l35 159q4 19 4 31q0 24 -16.5 32t-58.5 9zM347 553h-57l-50 -226h146l-9 -42h-146l-36 -169q-4 -20 -4 -33q0 -24 13 -32t44 -8h17
q119 0 194.5 87t75.5 225q0 198 -188 198z" />
    <glyph glyph-name="Eacute.sc" horiz-adv-x="596" 
d="M-10 0l9 38q46 1 68.5 13t30.5 48l84 387q4 19 4 31q0 24 -16.5 32t-58.5 9l8 38h484l-31 -145h-29q-12 61 -28.5 81.5t-66.5 20.5h-158l-49 -226h129q28 0 46 17.5t34 57.5h33l-42 -193h-32q0 41 -10 58t-38 17h-129l-37 -170q-4 -19 -4 -32q0 -23 16.5 -31t58.5 -8h60
q55 0 89.5 22.5t92.5 91.5h31l-59 -157h-490zM470 816h136l-193 -169h-45z" />
    <glyph glyph-name="Ebreve.sc" horiz-adv-x="596" 
d="M-10 0l9 38q46 1 68.5 13t30.5 48l84 387q4 19 4 31q0 24 -16.5 32t-58.5 9l8 38h484l-31 -145h-29q-12 61 -28.5 81.5t-66.5 20.5h-158l-49 -226h129q28 0 46 17.5t34 57.5h33l-42 -193h-32q0 41 -10 58t-38 17h-129l-37 -170q-4 -19 -4 -32q0 -23 16.5 -31t58.5 -8h60
q55 0 89.5 22.5t92.5 91.5h31l-59 -157h-490zM397 648q-113 0 -113 121q0 21 6 47h36q-1 -6 -1 -17q0 -85 85 -85q89 0 122 102h39q-16 -80 -61.5 -124t-112.5 -44z" />
    <glyph glyph-name="Ecaron.sc" horiz-adv-x="596" 
d="M-10 0l9 38q46 1 68.5 13t30.5 48l84 387q4 19 4 31q0 24 -16.5 32t-58.5 9l8 38h484l-31 -145h-29q-12 61 -28.5 81.5t-66.5 20.5h-158l-49 -226h129q28 0 46 17.5t34 57.5h33l-42 -193h-32q0 41 -10 58t-38 17h-129l-37 -170q-4 -19 -4 -32q0 -23 16.5 -31t58.5 -8h60
q55 0 89.5 22.5t92.5 91.5h31l-59 -157h-490zM359 649l-96 169h45l97 -100l159 100h47l-178 -169h-74z" />
    <glyph glyph-name="Ecircumflex.sc" horiz-adv-x="596" 
d="M-10 0l9 38q46 1 68.5 13t30.5 48l84 387q4 19 4 31q0 24 -16.5 32t-58.5 9l8 38h484l-31 -145h-29q-12 61 -28.5 81.5t-66.5 20.5h-158l-49 -226h129q28 0 46 17.5t34 57.5h33l-42 -193h-32q0 41 -10 58t-38 17h-129l-37 -170q-4 -19 -4 -32q0 -23 16.5 -31t58.5 -8h60
q55 0 89.5 22.5t92.5 91.5h31l-59 -157h-490zM461 816l96 -169h-45l-97 100l-159 -100h-47l178 169h74z" />
    <glyph glyph-name="Edieresis.sc" horiz-adv-x="596" 
d="M-10 0l9 38q46 1 68.5 13t30.5 48l84 387q4 19 4 31q0 24 -16.5 32t-58.5 9l8 38h484l-31 -145h-29q-12 61 -28.5 81.5t-66.5 20.5h-158l-49 -226h129q28 0 46 17.5t34 57.5h33l-42 -193h-32q0 41 -10 58t-38 17h-129l-37 -170q-4 -19 -4 -32q0 -23 16.5 -31t58.5 -8h60
q55 0 89.5 22.5t92.5 91.5h31l-59 -157h-490zM317 670q-25 0 -41.5 16.5t-16.5 41.5q0 26 18.5 45t44.5 19q25 0 41.5 -16.5t16.5 -41.5q0 -26 -18.5 -45t-44.5 -19zM503 670q-25 0 -41.5 16.5t-16.5 41.5q0 26 18.5 45t44.5 19q25 0 41.5 -16.5t16.5 -41.5q0 -26 -18.5 -45
t-44.5 -19z" />
    <glyph glyph-name="Edotaccent.sc" horiz-adv-x="596" 
d="M-10 0l9 38q46 1 68.5 13t30.5 48l84 387q4 19 4 31q0 24 -16.5 32t-58.5 9l8 38h484l-31 -145h-29q-12 61 -28.5 81.5t-66.5 20.5h-158l-49 -226h129q28 0 46 17.5t34 57.5h33l-42 -193h-32q0 41 -10 58t-38 17h-129l-37 -170q-4 -19 -4 -32q0 -23 16.5 -31t58.5 -8h60
q55 0 89.5 22.5t92.5 91.5h31l-59 -157h-490zM409 666q-27 0 -45 18.5t-18 44.5q0 29 20.5 50t49.5 21q27 0 45 -18.5t18 -44.5q0 -29 -20.5 -50t-49.5 -21z" />
    <glyph glyph-name="Egrave.sc" horiz-adv-x="596" 
d="M-10 0l9 38q46 1 68.5 13t30.5 48l84 387q4 19 4 31q0 24 -16.5 32t-58.5 9l8 38h484l-31 -145h-29q-12 61 -28.5 81.5t-66.5 20.5h-158l-49 -226h129q28 0 46 17.5t34 57.5h33l-42 -193h-32q0 41 -10 58t-38 17h-129l-37 -170q-4 -19 -4 -32q0 -23 16.5 -31t58.5 -8h60
q55 0 89.5 22.5t92.5 91.5h31l-59 -157h-490zM241 816h124l63 -169h-41z" />
    <glyph glyph-name="Emacron.sc" horiz-adv-x="596" 
d="M-10 0l9 38q46 1 68.5 13t30.5 48l84 387q4 19 4 31q0 24 -16.5 32t-58.5 9l8 38h484l-31 -145h-29q-12 61 -28.5 81.5t-66.5 20.5h-158l-49 -226h129q28 0 46 17.5t34 57.5h33l-42 -193h-32q0 41 -10 58t-38 17h-129l-37 -170q-4 -19 -4 -32q0 -23 16.5 -31t58.5 -8h60
q55 0 89.5 22.5t92.5 91.5h31l-59 -157h-490zM270 678l13 58h262l-13 -58h-262z" />
    <glyph glyph-name="Eogonek.sc" horiz-adv-x="596" 
d="M-10 0l9 38q46 1 68.5 13t30.5 48l84 387q4 19 4 31q0 24 -16.5 32t-58.5 9l8 38h484l-31 -145h-29q-12 61 -28.5 81.5t-66.5 20.5h-158l-49 -226h129q28 0 46 17.5t34 57.5h33l-42 -193h-32q0 41 -10 58t-38 17h-129l-37 -170q-4 -19 -4 -32q0 -23 16.5 -31t58.5 -8h60
q55 0 89.5 22.5t92.5 91.5h31l-59 -157h-64q-57 -30 -90 -58t-33 -61q0 -36 44 -36q32 0 98 47l13 -19q-76 -83 -144 -83q-35 0 -57 18t-22 50q0 44 34 77.5t95 64.5h-364z" />
    <glyph glyph-name="Eth.sc" horiz-adv-x="665" 
d="M119 596h241q140 0 208 -65.5t68 -175.5q0 -156 -105.5 -255.5t-275.5 -99.5h-265l9 38q46 1 68.5 13t30.5 48l40 186h-81l9 42h81l35 159q4 19 4 31q0 24 -16.5 32t-58.5 9zM347 553h-57l-50 -226h146l-9 -42h-146l-36 -169q-4 -20 -4 -33q0 -24 13 -32t44 -8h17
q119 0 194.5 87t75.5 225q0 198 -188 198z" />
    <glyph glyph-name="Gbreve.sc" horiz-adv-x="649" 
d="M50 229q0 153 106.5 265t257.5 112q116 0 184 -55l-27 -128h-36q-10 138 -127 138q-76 0 -136 -50.5t-90.5 -125.5t-30.5 -156q0 -92 43 -142t115 -50q62 0 114 28l29 112q5 23 5 30q0 24 -17 32t-60 10l8 38h252l-9 -38q-45 -2 -62 -13t-27 -48l-34 -137
q-103 -61 -203 -61q-118 0 -186.5 63t-68.5 176zM431 648q-113 0 -113 121q0 21 6 47h36q-1 -6 -1 -17q0 -85 85 -85q89 0 122 102h39q-16 -80 -61.5 -124t-112.5 -44z" />
    <glyph glyph-name="Gcircumflex.sc" horiz-adv-x="649" 
d="M50 229q0 153 106.5 265t257.5 112q116 0 184 -55l-27 -128h-36q-10 138 -127 138q-76 0 -136 -50.5t-90.5 -125.5t-30.5 -156q0 -92 43 -142t115 -50q62 0 114 28l29 112q5 23 5 30q0 24 -17 32t-60 10l8 38h252l-9 -38q-45 -2 -62 -13t-27 -48l-34 -137
q-103 -61 -203 -61q-118 0 -186.5 63t-68.5 176zM496 816l96 -169h-45l-97 100l-159 -100h-47l178 169h74z" />
    <glyph glyph-name="Gcommaaccent.sc" horiz-adv-x="649" 
d="M50 229q0 153 106.5 265t257.5 112q116 0 184 -55l-27 -128h-36q-10 138 -127 138q-76 0 -136 -50.5t-90.5 -125.5t-30.5 -156q0 -92 43 -142t115 -50q62 0 114 28l29 112q5 23 5 30q0 24 -17 32t-60 10l8 38h252l-9 -38q-45 -2 -62 -13t-27 -48l-34 -137
q-103 -61 -203 -61q-118 0 -186.5 63t-68.5 176zM278 -153h-46q-33 7 -33 39q0 29 20.5 45.5t52.5 16.5q30 0 46.5 -17t16.5 -47q0 -49 -39 -81.5t-109 -32.5l7 33q75 0 84 44z" />
    <glyph glyph-name="Gdotaccent.sc" horiz-adv-x="649" 
d="M50 229q0 153 106.5 265t257.5 112q116 0 184 -55l-27 -128h-36q-10 138 -127 138q-76 0 -136 -50.5t-90.5 -125.5t-30.5 -156q0 -92 43 -142t115 -50q62 0 114 28l29 112q5 23 5 30q0 24 -17 32t-60 10l8 38h252l-9 -38q-45 -2 -62 -13t-27 -48l-34 -137
q-103 -61 -203 -61q-118 0 -186.5 63t-68.5 176zM444 666q-27 0 -45 18.5t-18 44.5q0 29 20.5 50t49.5 21q27 0 45 -18.5t18 -44.5q0 -29 -20.5 -50t-49.5 -21z" />
    <glyph glyph-name="Hbar.sc" horiz-adv-x="750" 
d="M498 99l36 165h-307l-33 -154q-4 -19 -4 -31q0 -24 16.5 -32t58.5 -9l-8 -38h-267l9 38q46 1 68.5 13t30.5 48l66 304h-85l9 42h85l9 41q4 19 4 31q0 24 -16.5 32t-58.5 9l8 38h267l-9 -38q-46 -1 -68.5 -13t-30.5 -48l-12 -52h307l9 41q4 19 4 31q0 24 -16.5 32t-58.5 9
l8 38h267l-9 -38q-46 -1 -68.5 -13t-30.5 -48l-12 -52h89l-9 -42h-89l-63 -293q-4 -19 -4 -31q0 -24 16.5 -32t58.5 -9l-8 -38h-267l9 38q46 1 68.5 13t30.5 48zM257 403l-20 -96h306l21 96h-307z" />
    <glyph glyph-name="Hcircumflex.sc" horiz-adv-x="750" 
d="M498 99l40 185h-306l-38 -174q-4 -19 -4 -31q0 -24 16.5 -32t58.5 -9l-8 -38h-267l9 38q46 1 68.5 13t30.5 48l84 387q4 19 4 31q0 24 -16.5 32t-58.5 9l8 38h267l-9 -38q-46 -1 -68.5 -13t-30.5 -48l-37 -170h306l35 159q4 19 4 31q0 24 -16.5 32t-58.5 9l8 38h267
l-9 -38q-46 -1 -68.5 -13t-30.5 -48l-84 -387q-4 -19 -4 -31q0 -24 16.5 -32t58.5 -9l-8 -38h-267l9 38q46 1 68.5 13t30.5 48zM529 816l96 -169h-45l-97 100l-159 -100h-47l178 169h74z" />
    <glyph glyph-name="Iacute.sc" horiz-adv-x="350" 
d="M98 99l84 387q4 19 4 31q0 24 -16.5 32t-58.5 9l8 38h267l-9 -38q-46 -1 -68.5 -13t-30.5 -48l-84 -387q-4 -19 -4 -31q0 -24 16.5 -32t58.5 -9l-8 -38h-267l9 38q46 1 68.5 13t30.5 48zM338 816h136l-193 -169h-45z" />
    <glyph glyph-name="Ibreve.sc" horiz-adv-x="350" 
d="M98 99l84 387q4 19 4 31q0 24 -16.5 32t-58.5 9l8 38h267l-9 -38q-46 -1 -68.5 -13t-30.5 -48l-84 -387q-4 -19 -4 -31q0 -24 16.5 -32t58.5 -9l-8 -38h-267l9 38q46 1 68.5 13t30.5 48zM265 648q-113 0 -113 121q0 21 6 47h36q-1 -6 -1 -17q0 -85 85 -85q89 0 122 102
h39q-16 -80 -61.5 -124t-112.5 -44z" />
    <glyph glyph-name="Icircumflex.sc" horiz-adv-x="350" 
d="M98 99l84 387q4 19 4 31q0 24 -16.5 32t-58.5 9l8 38h267l-9 -38q-46 -1 -68.5 -13t-30.5 -48l-84 -387q-4 -19 -4 -31q0 -24 16.5 -32t58.5 -9l-8 -38h-267l9 38q46 1 68.5 13t30.5 48zM329 816l96 -169h-45l-97 100l-159 -100h-47l178 169h74z" />
    <glyph glyph-name="Idieresis.sc" horiz-adv-x="350" 
d="M98 99l84 387q4 19 4 31q0 24 -16.5 32t-58.5 9l8 38h267l-9 -38q-46 -1 -68.5 -13t-30.5 -48l-84 -387q-4 -19 -4 -31q0 -24 16.5 -32t58.5 -9l-8 -38h-267l9 38q46 1 68.5 13t30.5 48zM185 670q-25 0 -41.5 16.5t-16.5 41.5q0 26 18.5 45t44.5 19q25 0 41.5 -16.5
t16.5 -41.5q0 -26 -18.5 -45t-44.5 -19zM371 670q-25 0 -41.5 16.5t-16.5 41.5q0 26 18.5 45t44.5 19q25 0 41.5 -16.5t16.5 -41.5q0 -26 -18.5 -45t-44.5 -19z" />
    <glyph glyph-name="Idotaccent.sc" horiz-adv-x="350" 
d="M98 99l84 387q4 19 4 31q0 24 -16.5 32t-58.5 9l8 38h267l-9 -38q-46 -1 -68.5 -13t-30.5 -48l-84 -387q-4 -19 -4 -31q0 -24 16.5 -32t58.5 -9l-8 -38h-267l9 38q46 1 68.5 13t30.5 48zM277 666q-27 0 -45 18.5t-18 44.5q0 29 20.5 50t49.5 21q27 0 45 -18.5t18 -44.5
q0 -29 -20.5 -50t-49.5 -21z" />
    <glyph glyph-name="Igrave.sc" horiz-adv-x="350" 
d="M98 99l84 387q4 19 4 31q0 24 -16.5 32t-58.5 9l8 38h267l-9 -38q-46 -1 -68.5 -13t-30.5 -48l-84 -387q-4 -19 -4 -31q0 -24 16.5 -32t58.5 -9l-8 -38h-267l9 38q46 1 68.5 13t30.5 48zM109 816h124l63 -169h-41z" />
    <glyph glyph-name="Imacron.sc" horiz-adv-x="350" 
d="M98 99l84 387q4 19 4 31q0 24 -16.5 32t-58.5 9l8 38h267l-9 -38q-46 -1 -68.5 -13t-30.5 -48l-84 -387q-4 -19 -4 -31q0 -24 16.5 -32t58.5 -9l-8 -38h-267l9 38q46 1 68.5 13t30.5 48zM138 678l13 58h262l-13 -58h-262z" />
    <glyph glyph-name="Iogonek.sc" horiz-adv-x="350" 
d="M98 99l84 387q4 19 4 31q0 24 -16.5 32t-58.5 9l8 38h267l-9 -38q-46 -1 -68.5 -13t-30.5 -48l-84 -387q-4 -19 -4 -31q0 -24 16.5 -32t58.5 -9l-8 -38h-71q-57 -30 -90 -58t-33 -61q0 -36 44 -36q32 0 98 47l13 -19q-76 -83 -144 -83q-35 0 -57 18t-22 50q0 44 34 77.5
t95 64.5h-134l9 38q46 1 68.5 13t30.5 48z" />
    <glyph glyph-name="Itilde.sc" horiz-adv-x="350" 
d="M98 99l84 387q4 19 4 31q0 24 -16.5 32t-58.5 9l8 38h267l-9 -38q-46 -1 -68.5 -13t-30.5 -48l-84 -387q-4 -19 -4 -31q0 -24 16.5 -32t58.5 -9l-8 -38h-267l9 38q46 1 68.5 13t30.5 48zM427 796l36 -10q-37 -72 -63 -96t-62 -24q-32 0 -73 36t-60 36q-21 0 -34 -13
t-34 -49l-37 10q37 72 63 96t62 24q32 0 73 -36t60 -36q21 0 34 13t35 49z" />
    <glyph glyph-name="IJ.sc" horiz-adv-x="782" 
d="M98 99l84 387q4 19 4 31q0 24 -16.5 32t-58.5 9l8 38h267l-9 -38q-46 -1 -68.5 -13t-30.5 -48l-84 -387q-4 -19 -4 -31q0 -24 16.5 -32t58.5 -9l-8 -38h-267l9 38q46 1 68.5 13t30.5 48zM564 150l73 336q4 19 4 31q0 24 -16.5 32t-58.5 9l8 38h267l-9 -38
q-46 -1 -68.5 -13t-30.5 -48l-72 -331q-38 -176 -212 -176q-70 0 -107.5 29.5t-37.5 74.5q0 47 37 68h70q-13 -32 -13 -62q0 -33 15.5 -51t43.5 -18q41 0 67 27t40 92z" />
    <glyph glyph-name="Jcircumflex.sc" horiz-adv-x="462" 
d="M244 150l73 336q4 19 4 31q0 24 -16.5 32t-58.5 9l8 38h267l-9 -38q-46 -1 -68.5 -13t-30.5 -48l-72 -331q-38 -176 -212 -176q-70 0 -107.5 29.5t-37.5 74.5q0 47 37 68h70q-13 -32 -13 -62q0 -33 15.5 -51t43.5 -18q41 0 67 27t40 92zM462 816l96 -169h-45l-97 100
l-159 -100h-47l178 169h74z" />
    <glyph glyph-name="Kcommaaccent.sc" horiz-adv-x="643" 
d="M341 323l138 -218q25 -40 48.5 -53t63.5 -14l-7 -38h-134q-33 28 -78 101l-126 203l246 197q30 23 30 36q0 12 -12 16t-50 5l8 38h219l-8 -38q-29 -1 -50.5 -11.5t-52.5 -35.5zM98 99l84 387q4 19 4 31q0 24 -16.5 32t-58.5 9l8 38h267l-9 -38q-46 -1 -68.5 -13
t-30.5 -48l-84 -387q-4 -19 -4 -31q0 -24 16.5 -32t58.5 -9l-8 -38h-267l9 38q46 1 68.5 13t30.5 48zM281 -153h-46q-33 7 -33 39q0 29 20.5 45.5t52.5 16.5q30 0 46.5 -17t16.5 -47q0 -49 -39 -81.5t-109 -32.5l7 33q75 0 84 44z" />
    <glyph glyph-name="Lacute.sc" horiz-adv-x="556" 
d="M-10 0l9 38q46 1 68.5 13t30.5 48l84 387q4 19 4 31q0 24 -16.5 32t-58.5 9l8 38h267l-9 -38q-46 -1 -68.5 -13t-30.5 -48l-83 -383q-5 -22 -5 -32q0 -22 17.5 -30.5t57.5 -8.5h40q54 0 88.5 27t92.5 103h35l-65 -173h-466zM339 816h136l-193 -169h-45z" />
    <glyph glyph-name="Lcaron.sc" horiz-adv-x="556" 
d="M-10 0l9 38q46 1 68.5 13t30.5 48l84 387q4 19 4 31q0 24 -16.5 32t-58.5 9l8 38h267l-9 -38q-46 -1 -68.5 -13t-30.5 -48l-83 -383q-5 -22 -5 -32q0 -22 17.5 -30.5t57.5 -8.5h40q54 0 88.5 27t92.5 103h35l-65 -173h-466zM582 596l-127 -205h-35l60 205h102z" />
    <glyph glyph-name="Lcommaaccent.sc" horiz-adv-x="556" 
d="M-10 0l9 38q46 1 68.5 13t30.5 48l84 387q4 19 4 31q0 24 -16.5 32t-58.5 9l8 38h267l-9 -38q-46 -1 -68.5 -13t-30.5 -48l-83 -383q-5 -22 -5 -32q0 -22 17.5 -30.5t57.5 -8.5h40q54 0 88.5 27t92.5 103h35l-65 -173h-466zM225 -153h-46q-33 7 -33 39q0 29 20.5 45.5
t52.5 16.5q30 0 46.5 -17t16.5 -47q0 -49 -39 -81.5t-109 -32.5l7 33q75 0 84 44z" />
    <glyph glyph-name="Ldot.sc" horiz-adv-x="556" 
d="M-10 0l9 38q46 1 68.5 13t30.5 48l84 387q4 19 4 31q0 24 -16.5 32t-58.5 9l8 38h267l-9 -38q-46 -1 -68.5 -13t-30.5 -48l-83 -383q-5 -22 -5 -32q0 -22 17.5 -30.5t57.5 -8.5h40q54 0 88.5 27t92.5 103h35l-65 -173h-466zM452 261q-27 0 -45 18.5t-18 44.5
q0 29 20.5 50t49.5 21q27 0 45 -18.5t18 -44.5q0 -29 -20.5 -50t-49.5 -21z" />
    <glyph glyph-name="Lslash.sc" horiz-adv-x="556" 
d="M-10 0l9 38q46 1 68.5 13t30.5 48l31 146l-100 -47l12 48l99 46l42 194q4 19 4 31q0 24 -16.5 32t-58.5 9l8 38h267l-9 -38q-46 -1 -68.5 -13t-30.5 -48l-35 -162l148 70l-12 -48l-147 -69l-37 -174q-5 -22 -5 -32q0 -22 17.5 -30.5t57.5 -8.5h40q54 0 88.5 27t92.5 103
h35l-65 -173h-466z" />
    <glyph glyph-name="Nacute.sc" horiz-adv-x="702" 
d="M512 149l74 337q4 16 4 31q0 24 -16.5 32t-58.5 9l7 38h229l-9 -38q-46 -1 -68.5 -13t-30.5 -48l-107 -497h-40l-265 463l-76 -353q-4 -16 -4 -31q0 -24 16.5 -32t58.5 -9l-7 -38h-229l9 38q46 1 68.5 13t30.5 48l90 412q-20 30 -33.5 38t-44.5 9l9 38h144zM520 816h136
l-193 -169h-45z" />
    <glyph glyph-name="Ncaron.sc" horiz-adv-x="702" 
d="M512 149l74 337q4 16 4 31q0 24 -16.5 32t-58.5 9l7 38h229l-9 -38q-46 -1 -68.5 -13t-30.5 -48l-107 -497h-40l-265 463l-76 -353q-4 -16 -4 -31q0 -24 16.5 -32t58.5 -9l-7 -38h-229l9 38q46 1 68.5 13t30.5 48l90 412q-20 30 -33.5 38t-44.5 9l9 38h144zM410 649
l-96 169h45l97 -100l159 100h47l-178 -169h-74z" />
    <glyph glyph-name="Ncommaaccent.sc" horiz-adv-x="702" 
d="M512 149l74 337q4 16 4 31q0 24 -16.5 32t-58.5 9l7 38h229l-9 -38q-46 -1 -68.5 -13t-30.5 -48l-107 -497h-40l-265 463l-76 -353q-4 -16 -4 -31q0 -24 16.5 -32t58.5 -9l-7 -38h-229l9 38q46 1 68.5 13t30.5 48l90 412q-20 30 -33.5 38t-44.5 9l9 38h144zM294 -153h-46
q-33 7 -33 39q0 29 20.5 45.5t52.5 16.5q30 0 46.5 -17t16.5 -47q0 -49 -39 -81.5t-109 -32.5l7 33q75 0 84 44z" />
    <glyph glyph-name="Ntilde.sc" horiz-adv-x="702" 
d="M512 149l74 337q4 16 4 31q0 24 -16.5 32t-58.5 9l7 38h229l-9 -38q-46 -1 -68.5 -13t-30.5 -48l-107 -497h-40l-265 463l-76 -353q-4 -16 -4 -31q0 -24 16.5 -32t58.5 -9l-7 -38h-229l9 38q46 1 68.5 13t30.5 48l90 412q-20 30 -33.5 38t-44.5 9l9 38h144zM609 796
l36 -10q-37 -72 -63 -96t-62 -24q-32 0 -73 36t-60 36q-21 0 -34 -13t-34 -49l-37 10q37 72 63 96t62 24q32 0 73 -36t60 -36q21 0 34 13t35 49z" />
    <glyph glyph-name="Eng.sc" horiz-adv-x="701" 
d="M643 498l-89 -415q-56 -259 -197 -259q-37 0 -60 15t-23 40q0 43 49 54h14q13 -72 49 -72q38 0 66 119l16 69l-237 415l-76 -354q-4 -16 -4 -31q0 -24 16.5 -32t58.5 -9l-7 -38h-229l9 38q46 1 68.5 13t30.5 48l90 413q-20 30 -33.5 38t-44.5 9l9 38h148l246 -442l73 332
q5 20 5 31q0 24 -16.5 32t-59.5 9l8 38h227l-8 -38q-46 -1 -68.5 -13t-30.5 -48z" />
    <glyph glyph-name="Oacute.sc" horiz-adv-x="639" 
d="M151 231q0 -87 33 -139.5t98 -52.5q99 0 163 100t64 226q0 87 -33 139.5t-98 52.5q-99 0 -163 -100t-64 -226zM610 363q0 -151 -96 -262t-234 -111q-109 0 -169.5 67.5t-60.5 175.5q0 151 96 262t234 111q109 0 169.5 -67.5t60.5 -175.5zM480 816h136l-193 -169h-45z" />
    <glyph glyph-name="Obreve.sc" horiz-adv-x="639" 
d="M151 231q0 -87 33 -139.5t98 -52.5q99 0 163 100t64 226q0 87 -33 139.5t-98 52.5q-99 0 -163 -100t-64 -226zM610 363q0 -151 -96 -262t-234 -111q-109 0 -169.5 67.5t-60.5 175.5q0 151 96 262t234 111q109 0 169.5 -67.5t60.5 -175.5zM407 648q-113 0 -113 121
q0 21 6 47h36q-1 -6 -1 -17q0 -85 85 -85q89 0 122 102h39q-16 -80 -61.5 -124t-112.5 -44z" />
    <glyph glyph-name="Ocircumflex.sc" horiz-adv-x="639" 
d="M151 231q0 -87 33 -139.5t98 -52.5q99 0 163 100t64 226q0 87 -33 139.5t-98 52.5q-99 0 -163 -100t-64 -226zM610 363q0 -151 -96 -262t-234 -111q-109 0 -169.5 67.5t-60.5 175.5q0 151 96 262t234 111q109 0 169.5 -67.5t60.5 -175.5zM471 816l96 -169h-45l-97 100
l-159 -100h-47l178 169h74z" />
    <glyph glyph-name="Odieresis.sc" horiz-adv-x="639" 
d="M151 231q0 -87 33 -139.5t98 -52.5q99 0 163 100t64 226q0 87 -33 139.5t-98 52.5q-99 0 -163 -100t-64 -226zM610 363q0 -151 -96 -262t-234 -111q-109 0 -169.5 67.5t-60.5 175.5q0 151 96 262t234 111q109 0 169.5 -67.5t60.5 -175.5zM327 670q-25 0 -41.5 16.5
t-16.5 41.5q0 26 18.5 45t44.5 19q25 0 41.5 -16.5t16.5 -41.5q0 -26 -18.5 -45t-44.5 -19zM513 670q-25 0 -41.5 16.5t-16.5 41.5q0 26 18.5 45t44.5 19q25 0 41.5 -16.5t16.5 -41.5q0 -26 -18.5 -45t-44.5 -19z" />
    <glyph glyph-name="Ograve.sc" horiz-adv-x="639" 
d="M151 231q0 -87 33 -139.5t98 -52.5q99 0 163 100t64 226q0 87 -33 139.5t-98 52.5q-99 0 -163 -100t-64 -226zM610 363q0 -151 -96 -262t-234 -111q-109 0 -169.5 67.5t-60.5 175.5q0 151 96 262t234 111q109 0 169.5 -67.5t60.5 -175.5zM251 816h124l63 -169h-41z" />
    <glyph glyph-name="Ohungarumlaut.sc" horiz-adv-x="639" 
d="M151 231q0 -87 33 -139.5t98 -52.5q99 0 163 100t64 226q0 87 -33 139.5t-98 52.5q-99 0 -163 -100t-64 -226zM610 363q0 -151 -96 -262t-234 -111q-109 0 -169.5 67.5t-60.5 175.5q0 151 96 262t234 111q109 0 169.5 -67.5t60.5 -175.5zM398 816h105l-166 -169h-53z
M552 816h105l-166 -169h-53z" />
    <glyph glyph-name="Omacron.sc" horiz-adv-x="639" 
d="M151 231q0 -87 33 -139.5t98 -52.5q99 0 163 100t64 226q0 87 -33 139.5t-98 52.5q-99 0 -163 -100t-64 -226zM610 363q0 -151 -96 -262t-234 -111q-109 0 -169.5 67.5t-60.5 175.5q0 151 96 262t234 111q109 0 169.5 -67.5t60.5 -175.5zM280 678l13 58h262l-13 -58h-262
z" />
    <glyph glyph-name="Oslash.sc" horiz-adv-x="639" 
d="M380 606q55 0 99 -19l50 83l36 -20l-49 -82q94 -64 94 -205q0 -151 -96 -262t-234 -111q-53 0 -100 18l-51 -85l-36 20l51 85q-94 64 -94 205q0 151 96 262t234 111zM509 365q0 89 -32 138l-265 -442q28 -22 70 -22q99 0 163 100t64 226zM378 557q-99 0 -163 -100
t-64 -226q0 -89 32 -138l265 442q-30 22 -70 22z" />
    <glyph glyph-name="Oslashacute.sc" horiz-adv-x="639" 
d="M380 606q55 0 99 -19l50 83l36 -20l-49 -82q94 -64 94 -205q0 -151 -96 -262t-234 -111q-53 0 -100 18l-51 -85l-36 20l51 85q-94 64 -94 205q0 151 96 262t234 111zM509 365q0 89 -32 138l-265 -442q28 -22 70 -22q99 0 163 100t64 226zM378 557q-99 0 -163 -100
t-64 -226q0 -89 32 -138l265 442q-30 22 -70 22zM481 816h136l-193 -169h-45z" />
    <glyph glyph-name="Otilde.sc" horiz-adv-x="639" 
d="M151 231q0 -87 33 -139.5t98 -52.5q99 0 163 100t64 226q0 87 -33 139.5t-98 52.5q-99 0 -163 -100t-64 -226zM610 363q0 -151 -96 -262t-234 -111q-109 0 -169.5 67.5t-60.5 175.5q0 151 96 262t234 111q109 0 169.5 -67.5t60.5 -175.5zM569 796l36 -10q-37 -72 -63 -96
t-62 -24q-32 0 -73 36t-60 36q-21 0 -34 -13t-34 -49l-37 10q37 72 63 96t62 24q32 0 73 -36t60 -36q21 0 34 13t35 49z" />
    <glyph glyph-name="OE.sc" horiz-adv-x="880" 
d="M432 597h455l-31 -146h-29q-7 33 -12 48t-15 30t-26 20t-42 5h-158l-49 -227h129q28 0 46 17.5t34 57.5h33l-42 -193h-33q0 41 -9.5 58t-37.5 17h-129l-37 -170q-4 -19 -4 -32q0 -23 16.5 -31t58.5 -8h60q55 0 89.5 23t92.5 91h31l-60 -157h-438q-140 0 -207.5 66.5
t-67.5 178.5q0 152 109 252t273 100zM481 554h-58q-116 0 -194 -87.5t-78 -224.5q0 -199 188 -199h30z" />
    <glyph glyph-name="Racute.sc" horiz-adv-x="616" 
d="M333 553h-43l-55 -254h39q87 0 138.5 37.5t51.5 111.5q0 105 -131 105zM119 596h252q192 0 192 -148q0 -74 -58 -122t-145 -57l95 -155q27 -44 47.5 -60t60.5 -16l-8 -38h-124q-31 28 -72 99l-89 159h-44l-32 -148q-4 -19 -4 -31q0 -24 16.5 -32t58.5 -9l-8 -38h-267
l9 38q46 1 68.5 13t30.5 48l84 387q4 19 4 31q0 24 -16.5 32t-58.5 9zM440 816h136l-193 -169h-45z" />
    <glyph glyph-name="Rcaron.sc" horiz-adv-x="616" 
d="M333 553h-43l-55 -254h39q87 0 138.5 37.5t51.5 111.5q0 105 -131 105zM119 596h252q192 0 192 -148q0 -74 -58 -122t-145 -57l95 -155q27 -44 47.5 -60t60.5 -16l-8 -38h-124q-31 28 -72 99l-89 159h-44l-32 -148q-4 -19 -4 -31q0 -24 16.5 -32t58.5 -9l-8 -38h-267
l9 38q46 1 68.5 13t30.5 48l84 387q4 19 4 31q0 24 -16.5 32t-58.5 9zM330 649l-96 169h45l97 -100l159 100h47l-178 -169h-74z" />
    <glyph glyph-name="Rcommaaccent.sc" horiz-adv-x="616" 
d="M333 553h-43l-55 -254h39q87 0 138.5 37.5t51.5 111.5q0 105 -131 105zM119 596h252q192 0 192 -148q0 -74 -58 -122t-145 -57l95 -155q27 -44 47.5 -60t60.5 -16l-8 -38h-124q-31 28 -72 99l-89 159h-44l-32 -148q-4 -19 -4 -31q0 -24 16.5 -32t58.5 -9l-8 -38h-267
l9 38q46 1 68.5 13t30.5 48l84 387q4 19 4 31q0 24 -16.5 32t-58.5 9zM264 -153h-46q-33 7 -33 39q0 29 20.5 45.5t52.5 16.5q30 0 46.5 -17t16.5 -47q0 -49 -39 -81.5t-109 -32.5l7 33q75 0 84 44z" />
    <glyph glyph-name="Sacute.sc" horiz-adv-x="504" 
d="M226 -10q-69 0 -122.5 23t-82.5 53l23 139h36q4 -82 42 -126t104 -44q53 0 87 26.5t34 77.5q0 41 -26 69t-92 62q-64 34 -94.5 73.5t-30.5 92.5q0 78 54.5 124t136.5 46q111 0 185 -62l-25 -124h-33q-2 66 -34.5 103.5t-92.5 37.5q-53 0 -80.5 -26t-27.5 -72
q0 -36 22 -61t75 -52q76 -39 114 -79.5t38 -99.5q0 -85 -63.5 -133t-146.5 -48zM409 816h136l-193 -169h-45z" />
    <glyph glyph-name="Scaron.sc" horiz-adv-x="504" 
d="M226 -10q-69 0 -122.5 23t-82.5 53l23 139h36q4 -82 42 -126t104 -44q53 0 87 26.5t34 77.5q0 41 -26 69t-92 62q-64 34 -94.5 73.5t-30.5 92.5q0 78 54.5 124t136.5 46q111 0 185 -62l-25 -124h-33q-2 66 -34.5 103.5t-92.5 37.5q-53 0 -80.5 -26t-27.5 -72
q0 -36 22 -61t75 -52q76 -39 114 -79.5t38 -99.5q0 -85 -63.5 -133t-146.5 -48zM298 649l-96 169h45l97 -100l159 100h47l-178 -169h-74z" />
    <glyph glyph-name="Scedilla.sc" horiz-adv-x="504" 
d="M78 -221l-3 33q124 0 124 49q0 39 -89 42l51 93q-92 18 -140 70l23 139h36q4 -82 42 -126t104 -44q53 0 87 26.5t34 77.5q0 41 -26 69t-92 62q-64 34 -94.5 73.5t-30.5 92.5q0 78 54.5 124t136.5 46q111 0 185 -62l-25 -124h-33q-2 66 -34.5 103.5t-92.5 37.5
q-53 0 -80.5 -26t-27.5 -72q0 -36 22 -61t75 -52q76 -39 114 -79.5t38 -99.5q0 -85 -63.5 -133t-146.5 -48q-13 0 -35 2l-21 -40q101 -2 101 -64q0 -54 -54.5 -81.5t-138.5 -27.5z" />
    <glyph glyph-name="Scircumflex.sc" horiz-adv-x="504" 
d="M226 -10q-69 0 -122.5 23t-82.5 53l23 139h36q4 -82 42 -126t104 -44q53 0 87 26.5t34 77.5q0 41 -26 69t-92 62q-64 34 -94.5 73.5t-30.5 92.5q0 78 54.5 124t136.5 46q111 0 185 -62l-25 -124h-33q-2 66 -34.5 103.5t-92.5 37.5q-53 0 -80.5 -26t-27.5 -72
q0 -36 22 -61t75 -52q76 -39 114 -79.5t38 -99.5q0 -85 -63.5 -133t-146.5 -48zM400 816l96 -169h-45l-97 100l-159 -100h-47l178 169h74z" />
    <glyph glyph-name="Scommaaccent.sc" horiz-adv-x="504" 
d="M226 -10q-69 0 -122.5 23t-82.5 53l23 139h36q4 -82 42 -126t104 -44q53 0 87 26.5t34 77.5q0 41 -26 69t-92 62q-64 34 -94.5 73.5t-30.5 92.5q0 78 54.5 124t136.5 46q111 0 185 -62l-25 -124h-33q-2 66 -34.5 103.5t-92.5 37.5q-53 0 -80.5 -26t-27.5 -72
q0 -36 22 -61t75 -52q76 -39 114 -79.5t38 -99.5q0 -85 -63.5 -133t-146.5 -48zM182 -153h-46q-33 7 -33 39q0 29 20.5 45.5t52.5 16.5q30 0 46.5 -17t16.5 -47q0 -49 -39 -81.5t-109 -32.5l7 33q75 0 84 44z" />
    <glyph glyph-name="Tbar.sc" horiz-adv-x="606" 
d="M418 554l-50 -227h120l-9 -42h-120l-37 -173q-4 -20 -4 -32q0 -24 19.5 -32.5t64.5 -9.5l-8 -38h-284l7 38q49 1 74.5 13t33.5 48l40 186h-116l9 42h116l50 227h-54q-56 0 -83 -24t-89 -116h-32l53 182h523l-26 -182h-32q-21 92 -38 116t-73 24h-55z" />
    <glyph glyph-name="Tcaron.sc" horiz-adv-x="606" 
d="M418 554l-96 -442q-4 -20 -4 -32q0 -24 19.5 -32.5t64.5 -9.5l-8 -38h-284l7 38q49 1 74.5 13t33.5 48l99 455h-54q-56 0 -83 -24t-89 -116h-32l53 182h523l-26 -182h-32q-21 92 -38 116t-73 24h-55zM356 649l-96 169h45l97 -100l159 100h47l-178 -169h-74z" />
    <glyph glyph-name="Thorn.sc" horiz-adv-x="554" 
d="M264 427l-56 -252h62q184 0 184 143q0 109 -134 109h-56zM279 498l-6 -28h76q101 0 151.5 -41t50.5 -110q0 -93 -75.5 -139.5t-202.5 -46.5h-73l-5 -18q-5 -30 -5 -34q0 -26 23 -34t77 -10l-7 -37h-293l9 38q46 1 68.5 13t30.5 48l84 388q5 20 5 31q0 24 -16.5 32
t-59.5 9l8 38h267l-8 -38q-46 -1 -68 -13t-31 -48z" />
    <glyph glyph-name="Uacute.sc" horiz-adv-x="677" 
d="M510 213l59 273q4 16 4 31q0 24 -16.5 32t-58.5 9l7 38h229l-9 -38q-46 -1 -68.5 -13t-30.5 -48l-65 -302q-22 -102 -89.5 -153.5t-160.5 -51.5q-101 0 -156.5 49t-55.5 134q0 25 8 63l53 250q4 19 4 31q0 24 -16.5 32t-58.5 9l8 38h267l-9 -38q-46 -1 -68.5 -13
t-30.5 -48l-58 -267q-6 -27 -6 -52q0 -59 33.5 -94.5t95.5 -35.5q77 0 123.5 38.5t65.5 126.5zM520 816h136l-193 -169h-45z" />
    <glyph glyph-name="Ubreve.sc" horiz-adv-x="677" 
d="M510 213l59 273q4 16 4 31q0 24 -16.5 32t-58.5 9l7 38h229l-9 -38q-46 -1 -68.5 -13t-30.5 -48l-65 -302q-22 -102 -89.5 -153.5t-160.5 -51.5q-101 0 -156.5 49t-55.5 134q0 25 8 63l53 250q4 19 4 31q0 24 -16.5 32t-58.5 9l8 38h267l-9 -38q-46 -1 -68.5 -13
t-30.5 -48l-58 -267q-6 -27 -6 -52q0 -59 33.5 -94.5t95.5 -35.5q77 0 123.5 38.5t65.5 126.5zM447 648q-113 0 -113 121q0 21 6 47h36q-1 -6 -1 -17q0 -85 85 -85q89 0 122 102h39q-16 -80 -61.5 -124t-112.5 -44z" />
    <glyph glyph-name="Ucircumflex.sc" horiz-adv-x="677" 
d="M510 213l59 273q4 16 4 31q0 24 -16.5 32t-58.5 9l7 38h229l-9 -38q-46 -1 -68.5 -13t-30.5 -48l-65 -302q-22 -102 -89.5 -153.5t-160.5 -51.5q-101 0 -156.5 49t-55.5 134q0 25 8 63l53 250q4 19 4 31q0 24 -16.5 32t-58.5 9l8 38h267l-9 -38q-46 -1 -68.5 -13
t-30.5 -48l-58 -267q-6 -27 -6 -52q0 -59 33.5 -94.5t95.5 -35.5q77 0 123.5 38.5t65.5 126.5zM512 816l96 -169h-45l-97 100l-159 -100h-47l178 169h74z" />
    <glyph glyph-name="Udieresis.sc" horiz-adv-x="677" 
d="M510 213l59 273q4 16 4 31q0 24 -16.5 32t-58.5 9l7 38h229l-9 -38q-46 -1 -68.5 -13t-30.5 -48l-65 -302q-22 -102 -89.5 -153.5t-160.5 -51.5q-101 0 -156.5 49t-55.5 134q0 25 8 63l53 250q4 19 4 31q0 24 -16.5 32t-58.5 9l8 38h267l-9 -38q-46 -1 -68.5 -13
t-30.5 -48l-58 -267q-6 -27 -6 -52q0 -59 33.5 -94.5t95.5 -35.5q77 0 123.5 38.5t65.5 126.5zM367 670q-25 0 -41.5 16.5t-16.5 41.5q0 26 18.5 45t44.5 19q25 0 41.5 -16.5t16.5 -41.5q0 -26 -18.5 -45t-44.5 -19zM553 670q-25 0 -41.5 16.5t-16.5 41.5q0 26 18.5 45
t44.5 19q25 0 41.5 -16.5t16.5 -41.5q0 -26 -18.5 -45t-44.5 -19z" />
    <glyph glyph-name="Ugrave.sc" horiz-adv-x="677" 
d="M510 213l59 273q4 16 4 31q0 24 -16.5 32t-58.5 9l7 38h229l-9 -38q-46 -1 -68.5 -13t-30.5 -48l-65 -302q-22 -102 -89.5 -153.5t-160.5 -51.5q-101 0 -156.5 49t-55.5 134q0 25 8 63l53 250q4 19 4 31q0 24 -16.5 32t-58.5 9l8 38h267l-9 -38q-46 -1 -68.5 -13
t-30.5 -48l-58 -267q-6 -27 -6 -52q0 -59 33.5 -94.5t95.5 -35.5q77 0 123.5 38.5t65.5 126.5zM291 816h124l63 -169h-41z" />
    <glyph glyph-name="Uhungarumlaut.sc" horiz-adv-x="677" 
d="M510 213l59 273q4 16 4 31q0 24 -16.5 32t-58.5 9l7 38h229l-9 -38q-46 -1 -68.5 -13t-30.5 -48l-65 -302q-22 -102 -89.5 -153.5t-160.5 -51.5q-101 0 -156.5 49t-55.5 134q0 25 8 63l53 250q4 19 4 31q0 24 -16.5 32t-58.5 9l8 38h267l-9 -38q-46 -1 -68.5 -13
t-30.5 -48l-58 -267q-6 -27 -6 -52q0 -59 33.5 -94.5t95.5 -35.5q77 0 123.5 38.5t65.5 126.5zM439 816h105l-166 -169h-53zM593 816h105l-166 -169h-53z" />
    <glyph glyph-name="Umacron.sc" horiz-adv-x="677" 
d="M510 213l59 273q4 16 4 31q0 24 -16.5 32t-58.5 9l7 38h229l-9 -38q-46 -1 -68.5 -13t-30.5 -48l-65 -302q-22 -102 -89.5 -153.5t-160.5 -51.5q-101 0 -156.5 49t-55.5 134q0 25 8 63l53 250q4 19 4 31q0 24 -16.5 32t-58.5 9l8 38h267l-9 -38q-46 -1 -68.5 -13
t-30.5 -48l-58 -267q-6 -27 -6 -52q0 -59 33.5 -94.5t95.5 -35.5q77 0 123.5 38.5t65.5 126.5zM320 678l13 58h262l-13 -58h-262z" />
    <glyph glyph-name="Uogonek.sc" horiz-adv-x="677" 
d="M510 213l59 273q4 16 4 31q0 24 -16.5 32t-58.5 9l7 38h229l-9 -38q-46 -1 -68.5 -13t-30.5 -48l-65 -302q-31 -146 -154 -189q-32 -17 -49.5 -27.5t-40.5 -27t-33.5 -34t-10.5 -36.5q0 -36 44 -36q32 0 98 47l13 -19q-76 -83 -144 -83q-35 0 -57 18t-22 50q0 72 110 132
h-4q-101 0 -156.5 49t-55.5 134q0 25 8 63l53 250q4 19 4 31q0 24 -16.5 32t-58.5 9l8 38h267l-9 -38q-46 -1 -68.5 -13t-30.5 -48l-58 -267q-6 -27 -6 -52q0 -59 33.5 -94.5t95.5 -35.5q77 0 123.5 38.5t65.5 126.5z" />
    <glyph glyph-name="Uring.sc" horiz-adv-x="677" 
d="M510 213l59 273q4 16 4 31q0 24 -16.5 32t-58.5 9l7 38h229l-9 -38q-46 -1 -68.5 -13t-30.5 -48l-65 -302q-22 -102 -89.5 -153.5t-160.5 -51.5q-101 0 -156.5 49t-55.5 134q0 25 8 63l53 250q4 19 4 31q0 24 -16.5 32t-58.5 9l8 38h267l-9 -38q-46 -1 -68.5 -13
t-30.5 -48l-58 -267q-6 -27 -6 -52q0 -59 33.5 -94.5t95.5 -35.5q77 0 123.5 38.5t65.5 126.5zM457 680q26 0 41 18.5t15 45.5q0 20 -11.5 32t-32.5 12q-26 0 -41 -18.5t-15 -45.5q0 -20 11.5 -32t32.5 -12zM452 643q-37 0 -59 22.5t-22 58.5q0 43 29.5 72t73.5 29
q37 0 59 -22.5t22 -58.5q0 -43 -29.5 -72t-73.5 -29z" />
    <glyph glyph-name="Utilde.sc" horiz-adv-x="677" 
d="M510 213l59 273q4 16 4 31q0 24 -16.5 32t-58.5 9l7 38h229l-9 -38q-46 -1 -68.5 -13t-30.5 -48l-65 -302q-22 -102 -89.5 -153.5t-160.5 -51.5q-101 0 -156.5 49t-55.5 134q0 25 8 63l53 250q4 19 4 31q0 24 -16.5 32t-58.5 9l8 38h267l-9 -38q-46 -1 -68.5 -13
t-30.5 -48l-58 -267q-6 -27 -6 -52q0 -59 33.5 -94.5t95.5 -35.5q77 0 123.5 38.5t65.5 126.5zM609 796l36 -10q-37 -72 -63 -96t-62 -24q-32 0 -73 36t-60 36q-21 0 -34 -13t-34 -49l-37 10q37 72 63 96t62 24q32 0 73 -36t60 -36q21 0 34 13t35 49z" />
    <glyph glyph-name="Wacute.sc" horiz-adv-x="866" 
d="M571 132l209 352q16 28 16 46q0 27 -71 28l8 38h197l-9 -38q-45 -6 -60 -31l-322 -534h-31l-42 360l-220 -360h-30l-85 534q-4 26 -46 31l8 38h231l-8 -38q-30 -1 -45.5 -3.5t-28.5 -14t-13 -32.5q0 -15 2 -27l51 -350l174 287l-16 109q-1 11 -8 18t-15 9t-22 4l8 38h224
l-8 -38q-23 -1 -35.5 -2.5t-26.5 -6.5t-20 -15.5t-6 -27.5q0 -4 2 -22zM606 816h136l-193 -169h-45z" />
    </font>
</defs>
</svg>
