<?xml version="1.0" standalone="no"?>
<!DOCTYPE svg PUBLIC "-//W3C//DTD SVG 1.1//EN" "http://www.w3.org/Graphics/SVG/1.1/DTD/svg11.dtd" >
<svg xmlns="http://www.w3.org/2000/svg" xmlns:xlink="http://www.w3.org/1999/xlink" version="1.1">
<metadata>
Created by FontForge 20170731 at Fri Oct  4 19:18:48 2013
 By Aleksey,,,
(c) 2010 Klim Type Foundry. All rights reserved.
</metadata>
<defs>
<font id="TiemposText-Semibold" horiz-adv-x="600" >
  <font-face 
    font-family="Tiempos Text Semibold"
    font-weight="600"
    font-stretch="normal"
    units-per-em="1000"
    panose-1="2 2 7 3 6 3 3 6 4 3"
    ascent="761"
    descent="-239"
    x-height="546"
    cap-height="702"
    bbox="-151 -246 1360 1054"
    underline-thickness="30"
    underline-position="-170"
    unicode-range="U+0020-FB04"
  />
<missing-glyph horiz-adv-x="960" 
 />
    <glyph glyph-name="ff" unicode="ff" horiz-adv-x="747" 
d="M333 756q102 0 159 -55q62 68 179 68q149 0 149 -92q0 -39 -34 -62h-82v36q0 63 -41 63q-52 0 -52 -86v-82h119v-71h-118v-358q0 -31 16.5 -40t66.5 -16v-61h-312v61q36 5 48 14.5t12 42.5v357h-172v-357q0 -33 12 -42.5t48 -14.5v-61h-293v61q37 5 50.5 15t13.5 42v357
h-76v57l76 19v7q0 91 69 144.5t162 53.5zM443 560q0 32 6 57q-17 33 -44 55.5t-59 22.5q-77 0 -77 -91v-58h174v14z" />
    <glyph glyph-name="fi" unicode="fi" horiz-adv-x="703" 
d="M331 0h-293v61q37 5 50.5 15t13.5 42v357h-76v57l76 19v8q0 104 76.5 157t184.5 53q84 0 129 -23.5t45 -68.5q0 -40 -34 -63h-102v36q0 64 -53 64q-34 0 -56.5 -31.5t-22.5 -85.5v-51h270l37 13h36v-441q0 -32 13.5 -42t50.5 -15v-61h-293v61q36 5 48 14.5t12 42.5v357
h-172v-357q0 -33 12 -42.5t48 -14.5v-61z" />
    <glyph glyph-name="fl" unicode="fl" horiz-adv-x="702" 
d="M102 118v357h-76v57l76 19v9q0 54 19.5 96t52 65.5t70.5 35.5t79 12q85 0 152 -36l106 28h31v-643q0 -32 13.5 -42t50.5 -15v-61h-293v61q36 5 48 14.5t12 42.5v520q-37 75 -99 75q-75 0 -75 -91v-76h103v-71h-101v-357q0 -33 12 -42.5t48 -14.5v-61h-293v61
q37 5 50.5 15t13.5 42z" />
    <glyph glyph-name="ffi" unicode="ffi" horiz-adv-x="1044" 
d="M333 756q107 0 164 -59q72 72 207 72q84 0 129.5 -23.5t45.5 -68.5q0 -39 -35 -63h-102v36q0 64 -53 64q-33 0 -55.5 -31.5t-22.5 -85.5v-51h270l36 13h37v-441q0 -32 13.5 -42t50.5 -15v-61h-293v61q36 5 48 14.5t12 42.5v357h-173v-357q0 -33 12 -42.5t48 -14.5v-61
h-289v61q36 5 48 14.5t12 42.5v357h-172v-357q0 -33 12 -42.5t48 -14.5v-61h-293v61q37 5 50.5 15t13.5 42v357h-76v57l76 19v7q0 91 69 144.5t162 53.5zM269 604v-58h174v13q0 26 7 56q-16 33 -44 56.5t-60 23.5q-77 0 -77 -91z" />
    <glyph glyph-name="ffl" unicode="ffl" horiz-adv-x="1044" 
d="M102 551v7q0 91 69 144.5t162 53.5q103 0 160 -55q62 68 172 68q86 0 151 -36l106 28h32v-643q0 -32 13.5 -42t50.5 -15v-61h-293v61q36 5 48 14.5t12 42.5v520q-37 75 -99 75q-75 0 -75 -91v-76h103v-71h-102v-357q0 -33 12 -42.5t48 -14.5v-61h-289v61q36 5 48 14.5
t12 42.5v357h-172v-357q0 -33 12 -42.5t48 -14.5v-61h-293v61q37 5 50.5 15t13.5 42v357h-76v57zM443 560q0 32 6 57q-17 33 -44 55.5t-59 22.5q-77 0 -77 -91v-58h174v14z" />
    <glyph glyph-name="f_b" unicode="fb" horiz-adv-x="1019" 
d="M443 58v580q-37 75 -99 75q-75 0 -75 -91v-76h103v-71h-101v-357q0 -33 12 -42.5t48 -14.5v-61h-293v61q37 5 50.5 15t13.5 42v357h-76v57l76 19v9q0 54 19.5 96t52 65.5t70.5 35.5t79 12q85 0 152 -36l106 28h31v-300q54 95 161 95q98 0 155 -68t57 -187
q0 -142 -83.5 -226.5t-209.5 -84.5q-164 0 -249 68zM694 54q55 0 87 54t32 142q0 92 -34.5 146t-94.5 54q-41 0 -72 -20v-269q0 -107 82 -107z" />
    <glyph glyph-name="f_f_b" unicode="ffb" horiz-adv-x="1361" 
d="M785 58v580q-37 75 -99 75q-75 0 -75 -91v-76h103v-71h-102v-357q0 -33 12 -42.5t48 -14.5v-61h-289v61q36 5 48 14.5t12 42.5v357h-172v-357q0 -33 12 -42.5t48 -14.5v-61h-293v61q37 5 50.5 15t13.5 42v357h-76v57l76 19v7q0 91 69 144.5t162 53.5q103 0 160 -55
q62 68 172 68q86 0 151 -36l106 28h32v-300q54 95 161 95q98 0 154.5 -68t56.5 -187q0 -142 -83 -226.5t-210 -84.5q-163 0 -248 68zM1036 54q55 0 86.5 54t31.5 142q0 92 -34.5 146t-94.5 54q-42 0 -71 -20v-269q0 -107 82 -107zM443 560q0 32 6 57q-17 33 -44 55.5
t-59 22.5q-77 0 -77 -91v-58h174v14z" />
    <glyph glyph-name="f_h" unicode="fh" horiz-adv-x="1040" 
d="M443 118v520q-37 75 -99 75q-75 0 -75 -91v-76h103v-71h-101v-357q0 -33 12 -42.5t48 -14.5v-61h-293v61q37 5 50.5 15t13.5 42v357h-76v57l76 19v9q0 54 19.5 96t52 65.5t70.5 35.5t79 12q85 0 152 -36l106 28h31v-309q95 104 193 104q150 0 150 -164v-274
q0 -32 13.5 -42t50.5 -15v-61h-293v61q36 5 48 14.5t12 42.5v258q0 36 -15.5 53t-52.5 17q-51 0 -106 -24v-304q0 -32 12 -42t48 -15v-61h-289v61q37 5 48.5 14.5t11.5 42.5z" />
    <glyph glyph-name="f_f_h" unicode="ffh" horiz-adv-x="1381" 
d="M785 118v520q-37 75 -99 75q-75 0 -75 -91v-76h103v-71h-102v-357q0 -33 12 -42.5t48 -14.5v-61h-289v61q36 5 48 14.5t12 42.5v357h-172v-357q0 -33 12 -42.5t48 -14.5v-61h-293v61q37 5 50.5 15t13.5 42v357h-76v57l76 19v7q0 91 69 144.5t162 53.5q103 0 160 -55
q62 68 172 68q86 0 151 -36l106 28h32v-309q93 104 192 104q151 0 151 -164v-274q0 -32 13 -42t50 -15v-61h-292v61q36 5 48 14.5t12 42.5v258q0 36 -15.5 53t-52.5 17q-52 0 -106 -24v-304q0 -33 12 -42.5t48 -14.5v-61h-289v61q36 5 48 14.5t12 42.5zM443 560q0 32 6 57
q-17 33 -44 55.5t-59 22.5q-77 0 -77 -91v-58h174v14z" />
    <glyph glyph-name="f_idieresis" unicode="f&#xef;" horiz-adv-x="703" 
d="M551 688q0 34 24.5 58.5t58.5 24.5q35 0 60 -24.5t25 -58.5t-25 -58.5t-60 -24.5q-34 0 -58.5 24.5t-24.5 58.5zM102 551v13q0 107 66 158.5t168 51.5q76 0 118 -24t42 -68t-35 -68h-100v38q0 68 -39 68q-53 0 -53 -86v-88h270l37 13h36v-441q0 -32 13.5 -42t50.5 -15
v-61h-293v61q36 5 48 14.5t12 42.5v357h-172v-357q0 -33 12 -42.5t48 -14.5v-61h-293v61q37 5 50.5 15t13.5 42v357h-76v57z" />
    <glyph glyph-name="f_f_idieresis" unicode="ff&#xef;" horiz-adv-x="1044" 
d="M333 756q98 0 157 -52q61 70 187 70q76 0 118.5 -24t42.5 -68q0 -43 -35 -68h-101v38q0 68 -39 68q-52 0 -52 -86v-88h270l36 13h37v-441q0 -32 13.5 -42t50.5 -15v-61h-293v61q36 5 48 14.5t12 42.5v357h-173v-357q0 -33 12 -42.5t48 -14.5v-61h-289v61q36 5 48 14.5
t12 42.5v357h-172v-357q0 -33 12 -42.5t48 -14.5v-61h-293v61q37 5 50.5 15t13.5 42v357h-76v57l76 19v7q0 91 69 144.5t162 53.5zM443 546v18q0 27 5 55q-17 32 -44 54t-58 22q-77 0 -77 -91v-58h174zM893 688q0 34 24.5 58.5t57.5 24.5q36 0 60.5 -24.5t24.5 -58.5
t-24.5 -58.5t-60.5 -24.5q-33 0 -57.5 24.5t-24.5 58.5z" />
    <glyph glyph-name="f_j" unicode="fj" horiz-adv-x="677" 
d="M443 475h-172v-357q0 -33 12 -42.5t48 -14.5v-61h-293v61q37 5 50.5 15t13.5 42v357h-76v57l76 19v8q0 104 76.5 157t184.5 53q84 0 129 -23.5t45 -68.5q0 -40 -34 -63h-102v36q0 64 -53 64q-34 0 -56.5 -31.5t-22.5 -85.5v-51h270l37 13h36v-435q0 -75 -15 -121t-47 -86
q-66 -78 -151 -124l-33 32l39 63q25 39 31.5 82.5t6.5 116.5v388z" />
    <glyph glyph-name="f_f_j" unicode="ffj" horiz-adv-x="1018" 
d="M784 475h-172v-357q0 -33 12 -42.5t48 -14.5v-61h-289v61q36 5 48 14.5t12 42.5v357h-172v-357q0 -33 12 -42.5t48 -14.5v-61h-293v61q37 5 50.5 15t13.5 42v357h-76v57l76 19v7q0 91 69 144.5t162 53.5q107 0 164 -59q72 72 207 72q84 0 129.5 -23.5t45.5 -68.5
q0 -39 -35 -63h-102v36q0 64 -53 64q-33 0 -55.5 -31.5t-22.5 -85.5v-51h270l36 13h37v-435q0 -75 -15.5 -121t-47.5 -86q-64 -78 -150 -124l-34 32l39 63q25 39 31.5 82.5t6.5 116.5v388zM443 559q0 26 7 56q-16 33 -44 56.5t-60 23.5q-77 0 -77 -91v-58h174v13z" />
    <glyph glyph-name="f_k" unicode="fk" horiz-adv-x="999" 
d="M620 290l135 129q24 26 24 36q0 15 -13 20.5t-52 10.5v60h256v-60q-26 -7 -36.5 -10t-26 -11t-27.5 -19l-103 -100l213 -299v-47h-174zM443 118v520q-37 75 -99 75q-75 0 -75 -91v-76h103v-71h-101v-357q0 -33 12 -42.5t48 -14.5v-61h-293v61q37 5 50.5 15t13.5 42v357
h-76v57l76 19v9q0 54 19.5 96t52 65.5t70.5 35.5t79 12q85 0 152 -36l106 28h31v-643q0 -32 13.5 -42t50.5 -15v-61h-293v61q37 5 48.5 14.5t11.5 42.5z" />
    <glyph glyph-name="f_f_k" unicode="ffk" horiz-adv-x="1341" 
d="M785 118v520q-37 75 -99 75q-75 0 -75 -91v-76h103v-71h-102v-357q0 -33 12 -42.5t48 -14.5v-61h-289v61q36 5 48 14.5t12 42.5v357h-172v-357q0 -33 12 -42.5t48 -14.5v-61h-293v61q37 5 50.5 15t13.5 42v357h-76v57l76 19v7q0 91 69 144.5t162 53.5q103 0 160 -55
q62 68 172 68q86 0 151 -36l106 28h32v-643q0 -32 13.5 -42t50.5 -15v-61h-293v61q36 5 48 14.5t12 42.5zM961 290l135 129q25 27 25 36q0 15 -13.5 20.5t-52.5 10.5v60h257v-60q-27 -7 -37 -10t-26 -11t-27 -19l-103 -100l213 -299v-47h-174zM443 560q0 32 6 57
q-17 33 -44 55.5t-59 22.5q-77 0 -77 -91v-58h174v14z" />
    <glyph glyph-name=".notdef" horiz-adv-x="960" 
 />
    <glyph glyph-name=".null" horiz-adv-x="0" 
 />
    <glyph glyph-name="nonmarkingreturn" horiz-adv-x="333" 
 />
    <glyph glyph-name="space" unicode=" " horiz-adv-x="197" 
 />
    <glyph glyph-name="exclam" unicode="!" horiz-adv-x="327" 
d="M67 88q0 41 28.5 70t67.5 29q40 0 68 -29t28 -70q0 -40 -28 -68.5t-68 -28.5q-39 0 -67.5 28.5t-28.5 68.5zM259 702l-56 -469h-79l-56 469h191z" />
    <glyph glyph-name="quotedbl" unicode="&#x22;" horiz-adv-x="452" 
d="M137 452h-33l-40 147q-21 70 -21 92q0 33 20 55t57 22t57 -22t20 -55q0 -17 -20 -92zM348 452h-33l-40 147q-21 79 -21 92q0 33 20.5 55t56.5 22q37 0 57.5 -22t20.5 -55q0 -13 -21 -92z" />
    <glyph glyph-name="numbersign" unicode="#" horiz-adv-x="588" 
d="M507 209h-126l-70 -219l-68 24l62 195h-113l-70 -219l-68 24l62 195h-70v68h92l47 149h-104v67h126l70 219l68 -24l-63 -195h114l70 219l68 -24l-63 -195h71v-67h-92l-48 -149h105v-68zM261 426l-48 -149h114l47 149h-113z" />
    <glyph glyph-name="dollar" unicode="$" horiz-adv-x="589" 
d="M181 -113l19 110q-96 15 -153 59l-10 167h84q18 -116 92 -154l36 203l-20 7q-93 30 -139 79.5t-46 131.5q0 102 69 162t181 60q6 0 17 -0.5t16 -0.5l19 103h53l-20 -109q84 -15 136 -53v-153h-72q-17 99 -77 133l-34 -195l36 -12q91 -30 137.5 -79t46.5 -134
q0 -109 -75.5 -165.5t-195.5 -56.5q-5 0 -14.5 0.5t-14.5 0.5l-18 -104h-53zM310 253l-11 3l-36 -202q11 -2 33 -2q51 0 83 26t32 72q0 37 -23 61t-78 42zM179 560q0 -40 22 -63t70 -38l11 -4l34 193q-15 3 -33 3q-49 0 -76.5 -26t-27.5 -65z" />
    <glyph glyph-name="percent" unicode="%" horiz-adv-x="917" 
d="M155 524q0 -63 17 -101.5t50 -38.5q32 0 49 39t17 101q0 64 -17 102.5t-49 38.5q-33 0 -50 -38.5t-17 -102.5zM197 -19l449 741h74l-450 -741h-73zM36 524q0 89 54 138.5t132 49.5t131.5 -49.5t53.5 -138.5q0 -88 -53.5 -137t-131.5 -49t-132 49.5t-54 136.5zM762 178
q0 63 -17 101.5t-50 38.5q-32 0 -49 -38.5t-17 -101.5t17 -102t49 -39q33 0 50 39t17 102zM881 178q0 -89 -54 -138.5t-132 -49.5t-131.5 49.5t-53.5 138.5q0 88 53.5 137.5t131.5 49.5t132 -49.5t54 -137.5z" />
    <glyph glyph-name="ampersand" unicode="&#x26;" horiz-adv-x="740" 
d="M16 184q0 74 43.5 118.5t124.5 74.5q-62 78 -62 150q0 84 59.5 134.5t158.5 50.5q94 0 149 -40.5t55 -109.5q0 -108 -169 -165l160 -189q18 41 18 81q0 27 -10.5 38t-36.5 11v61h212v-61q-53 0 -72.5 -14t-29.5 -58q-14 -56 -43 -103l42 -48q25 -29 47 -40.5t55 -11.5
v-63h-199q-31 19 -60 46q-90 -56 -193 -56q-109 0 -179 52t-70 142zM333 72q43 0 84 18q-12 12 -24 29l-182 224q-38 -37 -38 -110t44.5 -117t115.5 -44zM269 582q0 -26 12 -54t24.5 -45.5t35.5 -44.5l5 -7q63 40 63 136q0 38 -19 61.5t-51 23.5t-51 -19.5t-19 -50.5z" />
    <glyph glyph-name="quotesingle" unicode="'" horiz-adv-x="240" 
d="M137 452h-33l-40 147q-21 70 -21 92q0 33 20 55t57 22t57 -22t20 -55q0 -17 -20 -92z" />
    <glyph glyph-name="parenleft" unicode="(" horiz-adv-x="378" 
d="M60 314q0 126 56 248.5t153 207.5h87q-161 -172 -161 -456q0 -283 161 -455h-87q-98 85 -153.5 207.5t-55.5 247.5z" />
    <glyph glyph-name="parenright" unicode=")" horiz-adv-x="378" 
d="M318 314q0 -125 -55.5 -247.5t-153.5 -207.5h-87q161 172 161 455q0 284 -161 456h87q97 -85 153 -207.5t56 -248.5z" />
    <glyph glyph-name="asterisk" unicode="*" horiz-adv-x="487" 
d="M395 417l-130 111l31 -168h-104l29 167l-129 -110l-52 91l160 57l-160 57l52 91l130 -111l-30 168h104l-31 -167l130 110l52 -91l-160 -57l160 -57z" />
    <glyph glyph-name="plus" unicode="+" horiz-adv-x="596" 
d="M254 593h87v-184h184v-87h-184v-184h-87v184h-184v87h184v184z" />
    <glyph glyph-name="comma" unicode="," horiz-adv-x="301" 
d="M167 10h-42q-63 13 -63 84q0 37 24.5 61.5t65.5 24.5q48 0 77 -31.5t29 -88.5q0 -87 -52 -139.5t-151 -56.5v58q112 11 112 88z" />
    <glyph glyph-name="hyphen" unicode="-" horiz-adv-x="360" 
d="M310 251h-260v108h260v-108z" />
    <glyph glyph-name="period" unicode="." horiz-adv-x="301" 
d="M50 90q0 44 29 72.5t71 28.5q43 0 72 -28.5t29 -72.5q0 -43 -29.5 -71.5t-71.5 -28.5t-71 28.5t-29 71.5z" />
    <glyph glyph-name="slash" unicode="/" horiz-adv-x="433" 
d="M395 770l-273 -895h-98l273 895h98z" />
    <glyph glyph-name="zero" unicode="0" horiz-adv-x="671" 
d="M336 712q135 0 215.5 -96.5t80.5 -264.5t-80.5 -264.5t-215.5 -96.5q-136 0 -216.5 96.5t-80.5 264.5t80.5 264.5t216.5 96.5zM336 643q-60 0 -86 -74t-26 -218q0 -145 26 -219t86 -74q61 0 86 73.5t25 219.5q0 145 -25 218.5t-86 73.5z" />
    <glyph glyph-name="one" unicode="1" horiz-adv-x="473" 
d="M286 711h50v-576q0 -44 22 -55.5t99 -16.5v-63h-411v63q83 5 102.5 16t19.5 56v388h-122v57l35 6q70 11 115.5 40t89.5 85z" />
    <glyph glyph-name="two" unicode="2" horiz-adv-x="561" 
d="M170 135h169q55 0 81 16t63 80h45l-26 -231h-500v50l194 189q68 66 95 117t27 109t-31 87.5t-87 29.5q-31 0 -59.5 -11.5t-44.5 -24.5t-39 -35l-34 38q92 163 257 163q100 0 158 -51t58 -143q0 -42 -18 -83.5t-43.5 -75t-74 -76t-86.5 -72t-104 -76.5z" />
    <glyph glyph-name="three" unicode="3" horiz-adv-x="571" 
d="M324 395q95 -6 152 -55t57 -133q0 -102 -82 -159.5t-194 -57.5q-111 0 -174 42t-63 104q0 27 14 47.5t33 29.5h99v-36q0 -62 27 -95t79 -33q46 0 71 29t25 82q0 72 -43.5 114.5t-118.5 42.5h-24l-12 42q83 30 120 64.5t37 78.5q0 39 -24 62.5t-69 23.5q-76 0 -143 -73
l-37 32q38 74 101.5 119.5t153.5 45.5q82 0 132 -43t50 -114q0 -63 -48.5 -104.5t-118.5 -55.5z" />
    <glyph glyph-name="four" unicode="4" horiz-adv-x="643" 
d="M104 254h232v300zM336 132v49h-327v59l354 462h132v-448h125v-73h-125v-49q0 -40 16.5 -53.5t67.5 -15.5v-63h-329v63q52 2 69 15.5t17 53.5z" />
    <glyph glyph-name="five" unicode="5" horiz-adv-x="555" 
d="M478 702v-155h-312l-13 -84q170 -3 267.5 -63t97.5 -183q0 -106 -71 -166t-184 -60q-111 0 -174 41t-63 104q0 27 14 48t32 30h101v-29q0 -133 106 -133q49 0 75 28t26 73q0 78 -78 120.5t-231 42.5l64 386h343z" />
    <glyph glyph-name="six" unicode="6" horiz-adv-x="622" 
d="M511 661q-141 -23 -210 -92t-87 -181q74 74 174 74q87 0 144 -57.5t57 -157.5q0 -122 -77 -189.5t-188 -67.5q-128 0 -207.5 82.5t-79.5 219.5q0 179 118.5 296.5t335.5 124.5zM283 370q-34 0 -72 -17q-3 -31 -3 -61q0 -99 31.5 -168t92.5 -69q49 0 77 39.5t28 108.5
q0 74 -40 120.5t-114 46.5z" />
    <glyph glyph-name="seven" unicode="7" horiz-adv-x="531" 
d="M408 545h-242q-35 0 -55 -18.5t-37 -66.5h-56l44 242h474v-42l-290 -660h-132z" />
    <glyph glyph-name="eight" unicode="8" horiz-adv-x="603" 
d="M537 548q0 -57 -38.5 -93.5t-98.5 -49.5l18 -8q75 -34 111.5 -78.5t36.5 -113.5q0 -99 -71 -157t-193 -58q-123 0 -194.5 47t-71.5 130q0 61 39.5 98.5t105.5 52.5l-9 5q-113 52 -113 176q0 99 66 156t177 57q108 0 171.5 -44t63.5 -120zM343 248l-126 51
q-50 -36 -50 -114q0 -58 36.5 -94.5t98.5 -36.5q55 0 89.5 26t34.5 71q0 62 -83 97zM276 461l81 -36q55 38 55 116q0 48 -30 77.5t-80 29.5t-78 -25t-28 -66q0 -34 19.5 -56t60.5 -40z" />
    <glyph glyph-name="nine" unicode="9" horiz-adv-x="622" 
d="M111 41q141 23 210 92t87 181q-74 -74 -174 -74q-87 0 -144 57.5t-57 157.5q0 122 77 189.5t188 67.5q128 0 207.5 -82.5t79.5 -219.5q0 -179 -118.5 -296.5t-335.5 -124.5zM339 332q34 0 72 17q3 32 3 61q0 99 -31.5 168t-92.5 69q-49 0 -77 -39.5t-28 -108.5
q0 -74 40 -120.5t114 -46.5z" />
    <glyph glyph-name="colon" unicode=":" horiz-adv-x="301" 
d="M50 90q0 44 29 72.5t71 28.5q43 0 72 -28.5t29 -72.5q0 -43 -29.5 -71.5t-71.5 -28.5t-71 28.5t-29 71.5zM50 393q0 44 29 72.5t71 28.5q43 0 72 -28.5t29 -72.5q0 -43 -29.5 -71.5t-71.5 -28.5t-71 28.5t-29 71.5z" />
    <glyph glyph-name="semicolon" unicode=";" horiz-adv-x="301" 
d="M50 393q0 44 29 72.5t71 28.5q43 0 72 -28.5t29 -72.5q0 -43 -29.5 -71.5t-71.5 -28.5t-71 28.5t-29 71.5zM167 10h-42q-63 13 -63 84q0 37 24.5 61.5t65.5 24.5q48 0 77 -31.5t29 -88.5q0 -87 -52 -139.5t-151 -56.5v58q112 11 112 88z" />
    <glyph glyph-name="less" unicode="&#x3c;" horiz-adv-x="453" 
d="M51 358v10l332 205v-101l-186 -108l186 -110v-101z" />
    <glyph glyph-name="equal" unicode="=" horiz-adv-x="607" 
d="M76 243v83h456v-83h-456zM76 407v82h456v-82h-456z" />
    <glyph glyph-name="greater" unicode="&#x3e;" horiz-adv-x="453" 
d="M402 368v-10l-332 -205v101l185 110l-185 108v101z" />
    <glyph glyph-name="question" unicode="?" horiz-adv-x="472" 
d="M307 577q0 34 -18.5 52t-50.5 18q-72 0 -72 -85v-50h-104q-36 20 -36 63q0 60 58 98t154 38q103 0 159 -42t56 -125q0 -58 -29 -99t-88 -77q-47 -27 -64 -52t-17 -59v-27h-49q-23 15 -39 41.5t-16 58.5q0 72 65 123q4 3 14 11t13.5 11t12.5 10.5t12.5 11.5t10.5 11t10 12
t7 12.5t6 14t3.5 14.5t1.5 16zM134 88q0 41 27.5 70t67.5 29t68 -29t28 -70q0 -40 -28 -68.5t-68 -28.5t-67.5 28.5t-27.5 68.5z" />
    <glyph glyph-name="at" unicode="@" horiz-adv-x="904" 
d="M606 77q-70 0 -93.5 45t-8.5 114h-5q-74 -159 -171 -159q-45 0 -74 34.5t-29 93.5q0 108 75.5 198.5t178.5 90.5q56 0 88 -38l73 31h52l-33 -93l-51 -185q-9 -29 -2.5 -53.5t30.5 -24.5q57 0 99 63t42 173q0 116 -80 196t-212 80q-159 0 -256.5 -110.5t-97.5 -282.5
q0 -155 97 -240t247 -85q80 0 140.5 17t127.5 53l18 -32q-117 -100 -299 -100q-176 0 -294 104.5t-118 278.5q0 191 123 319t312 128q168 0 268.5 -95t100.5 -231q0 -142 -76 -216t-172 -74zM388 164q36 0 80 73t66 175q-14 35 -40 35q-56 0 -97.5 -75.5t-41.5 -153.5
q0 -54 33 -54z" />
    <glyph glyph-name="A" unicode="A" horiz-adv-x="751" 
d="M477 147l-29 70h-254l-27 -70q-10 -30 -10 -40q0 -24 14.5 -33t60.5 -11v-63h-225v63q24 4 36.5 11.5t20.5 25.5l212 527l-34 78h186l258 -605q8 -18 21 -25.5t37 -11.5v-63h-331v63q45 2 60 11.5t15 32.5q0 16 -11 40zM319 535l-100 -254h203z" />
    <glyph glyph-name="B" unicode="B" horiz-adv-x="708" 
d="M32 0v63q51 2 67 15t16 54v438q0 41 -16 54t-67 15v63h367q116 0 179.5 -44.5t63.5 -131.5q0 -71 -53 -112t-132 -51q100 -6 160 -50.5t60 -122.5q0 -190 -273 -190h-372zM346 327h-53v-197q0 -39 17.5 -53t60.5 -14h8q56 0 87.5 33.5t31.5 95.5q0 135 -152 135zM327 635
h-34v-242h39q135 0 135 127q0 115 -140 115z" />
    <glyph glyph-name="C" unicode="C" horiz-adv-x="699" 
d="M412 63q63 0 99.5 42.5t64.5 136.5h85l-18 -188q-98 -64 -248 -64q-167 0 -263 96t-96 251q0 169 104 272t260 103q152 0 235 -72v-161h-84q-20 82 -56 123t-98 41q-60 0 -99.5 -40.5t-54.5 -100t-15 -136.5q0 -138 47.5 -220.5t136.5 -82.5z" />
    <glyph glyph-name="D" unicode="D" horiz-adv-x="793" 
d="M328 635h-35v-498q0 -42 16.5 -56t58.5 -14h11q188 0 188 284q0 130 -61.5 207t-177.5 77zM32 639v63h321q194 0 299.5 -90t105.5 -248q0 -171 -101 -267.5t-272 -96.5h-353v63q51 2 67 15t16 54v438q0 41 -16 54t-67 15z" />
    <glyph glyph-name="E" unicode="E" horiz-adv-x="678" 
d="M518 247h-60q-8 45 -23.5 62.5t-48.5 17.5h-93v-195q0 -39 19.5 -53t64.5 -14h40q53 0 84 27.5t83 109.5h66l-31 -202h-587v63q51 2 67 15t16 54v438q0 41 -16 54t-67 15v63h582v-187h-68q-26 68 -53.5 95t-83.5 27h-116v-242h93q33 0 48.5 17.5t23.5 62.5h60v-228z" />
    <glyph glyph-name="F" unicode="F" horiz-adv-x="625" 
d="M411 0h-379v63q51 2 67 15t16 54v438q0 41 -16 54t-67 15v63h568v-189h-67q-27 68 -55 96t-84 28h-101v-252h75q33 0 48.5 18t23.5 63h60v-229h-60q-8 46 -23.5 64t-48.5 18h-75v-191q0 -39 26 -52.5t92 -16.5v-59z" />
    <glyph glyph-name="G" unicode="G" horiz-adv-x="760" 
d="M36 337q0 168 107 271.5t261 103.5q151 0 236 -72v-161h-84q-21 81 -57.5 122.5t-97.5 41.5q-60 0 -100.5 -40.5t-57.5 -101t-17 -135.5q0 -140 45.5 -221.5t144.5 -81.5q44 0 77 17v131q0 39 -16 52t-65 15v64h324v-64q-49 -1 -64.5 -14t-15.5 -53v-148
q-99 -72 -264 -72q-170 0 -263 95.5t-93 250.5z" />
    <glyph glyph-name="H" unicode="H" horiz-adv-x="858" 
d="M565 132v195h-272v-195q0 -40 16.5 -53.5t66.5 -15.5v-63h-344v63q51 2 67 15t16 54v438q0 41 -16 54t-67 15v63h344v-63q-50 -2 -66.5 -15.5t-16.5 -53.5v-175h272v175q0 41 -16.5 54t-66.5 15v63h345v-63q-51 -2 -67.5 -15t-16.5 -54v-438q0 -41 16.5 -54t67.5 -15v-63
h-345v63q50 2 66.5 15t16.5 54z" />
    <glyph glyph-name="I" unicode="I" horiz-adv-x="408" 
d="M376 0h-344v63q51 2 67 15t16 54v438q0 41 -16 54t-67 15v63h344v-63q-51 -2 -67 -15t-16 -54v-438q0 -41 16 -54t67 -15v-63z" />
    <glyph glyph-name="J" unicode="J" horiz-adv-x="594" 
d="M492 570v-349q0 -231 -255 -231q-108 0 -168.5 38t-60.5 108q0 55 46 85h122v-49q0 -118 67 -118q40 0 55 33.5t15 103.5v379q0 41 -16 54t-66 15v63h346v-63q-51 -2 -68 -15t-17 -54z" />
    <glyph glyph-name="K" unicode="K" horiz-adv-x="775" 
d="M472 418l192 -282q29 -43 51.5 -58t55.5 -16v-62h-208q-41 26 -90 101l-170 256l217 208q28 26 28 44q0 29 -65 30v63h262v-63q-30 -1 -47 -9.5t-40 -30.5zM115 132v438q0 41 -16 54t-67 15v63h344v-63q-49 -2 -65 -15t-16 -54v-438q0 -41 16 -54t65 -15v-63h-344v63
q51 2 67 15t16 54z" />
    <glyph glyph-name="L" unicode="L" horiz-adv-x="652" 
d="M295 570v-436q0 -39 17.5 -53t62.5 -14h31q48 0 74 28t88 137h72l-37 -232h-571v63q51 2 67 15t16 54v438q0 40 -16 53t-67 15v64h344v-64q-49 -2 -65 -15t-16 -53z" />
    <glyph glyph-name="M" unicode="M" horiz-adv-x="990" 
d="M715 152l-49 346l-179 -498h-70l-191 499l-46 -347q-2 -16 -2 -25q0 -35 20.5 -48t74.5 -16v-63h-264v63q44 2 61.5 14.5t22.5 46.5l63 442q0 40 -17.5 55.5t-67.5 17.5v63h267q2 -27 15 -62l148 -391l139 391q15 43 17 62h261v-63q-49 -2 -66 -17.5t-17 -55.5l62 -442
q5 -35 22.5 -47t61.5 -14v-63h-359v63q55 3 75 16t20 48q0 9 -2 25z" />
    <glyph glyph-name="N" unicode="N" horiz-adv-x="784" 
d="M115 132v455q-23 31 -38.5 40.5t-44.5 11.5v63h251l315 -409v277q0 40 -20 53.5t-71 15.5v63h257v-63q-50 -2 -66.5 -15t-16.5 -54v-570h-73l-409 513v-381q0 -40 19.5 -53.5t71.5 -15.5v-63h-258v63q51 2 67 15t16 54z" />
    <glyph glyph-name="O" unicode="O" horiz-adv-x="762" 
d="M393 60q73 0 108.5 77t35.5 201q0 138 -42 221t-126 83q-73 0 -108.5 -77t-35.5 -201q0 -138 42 -221t126 -83zM389 712q157 0 247.5 -100.5t90.5 -246.5q0 -170 -100 -272.5t-254 -102.5q-157 0 -247 100.5t-90 246.5q0 169 100 272t253 103z" />
    <glyph glyph-name="P" unicode="P" horiz-adv-x="672" 
d="M379 272h-84v-140q0 -39 25 -52.5t91 -16.5v-63h-379v63q51 2 67 15t16 54v438q0 41 -16 54t-67 15v63h344q138 0 207.5 -59.5t69.5 -154.5q0 -103 -68 -159.5t-206 -56.5zM295 635v-301h38q69 0 105.5 39t36.5 114q0 69 -39.5 108.5t-108.5 39.5h-32z" />
    <glyph glyph-name="Q" unicode="Q" horiz-adv-x="762" 
d="M389 712q157 0 247.5 -100.5t90.5 -246.5q0 -140 -70.5 -236t-185.5 -127l57 -46q45 -39 74.5 -56t67.5 -18v-32q-38 -29 -107 -29q-116 0 -195 105l-50 68q-132 17 -207 113.5t-75 229.5q0 169 100 272t253 103zM393 60q73 0 108.5 77t35.5 201q0 138 -42 221t-126 83
q-73 0 -108.5 -77t-35.5 -201q0 -138 42 -221t126 -83z" />
    <glyph glyph-name="R" unicode="R" horiz-adv-x="750" 
d="M323 635h-31v-279h30q81 0 119.5 35t38.5 108q0 66 -40.5 101t-116.5 35zM32 702h354q136 0 204 -53.5t68 -149.5q0 -67 -42.5 -114t-107.5 -63l125 -187q26 -41 49.5 -56t61.5 -16v-63h-212q-44 36 -84 106l-112 186h-44v-160q0 -41 15.5 -54t65.5 -15v-63h-341v63
q51 2 67 15t16 54v438q0 41 -16 53.5t-67 13.5v65z" />
    <glyph glyph-name="S" unicode="S" horiz-adv-x="602" 
d="M289 -10q-72 0 -135 19t-102 48l-10 167h87q22 -86 63 -127.5t110 -41.5q53 0 84 24.5t31 71.5q0 41 -30.5 64.5t-114.5 47.5q-118 33 -170.5 84t-52.5 143q0 102 69 162t182 60q136 0 221 -61v-153h-75q-23 73 -58 111.5t-100 38.5q-49 0 -76 -25t-27 -63
q0 -45 30.5 -68.5t113.5 -46.5q119 -33 175 -85t56 -149q0 -108 -76 -164.5t-195 -56.5z" />
    <glyph glyph-name="T" unicode="T" horiz-adv-x="704" 
d="M30 702h644l15 -231h-70q-19 47 -26.5 64t-22.5 44t-26.5 36t-30 16.5t-42.5 7.5h-31v-507q0 -40 18.5 -53.5t69.5 -15.5v-63h-354v63q52 2 71 15.5t19 53.5v507h-32q-24 0 -42.5 -7.5t-30 -16.5t-26.5 -36t-22.5 -44t-26.5 -64h-69z" />
    <glyph glyph-name="U" unicode="U" horiz-adv-x="773" 
d="M280 570v-306q0 -177 141 -177q80 0 122 41.5t42 143.5v298q0 40 -19 53.5t-71 15.5v63h261v-63q-51 -2 -67.5 -15.5t-16.5 -53.5v-325q0 -125 -77 -190t-197 -65q-143 0 -220.5 64.5t-77.5 191.5v324q0 41 -16 54t-66 15v63h343v-63q-49 -2 -65 -15t-16 -54z" />
    <glyph glyph-name="V" unicode="V" horiz-adv-x="731" 
d="M428 234l128 321q10 25 10 40q0 23 -15 32.5t-59 11.5v63h232v-63q-24 -4 -37 -11t-21 -26l-258 -607h-53l-291 607q-8 19 -20.5 26t-36.5 11v63h339v-63q-45 -2 -60.5 -11.5t-15.5 -32.5q0 -15 10 -40z" />
    <glyph glyph-name="W" unicode="W" horiz-adv-x="1017" 
d="M739 252l104 289q15 43 15 54q0 23 -15 32.5t-59 11.5v63h226v-63q-17 -3 -25.5 -5.5t-18.5 -10.5t-15 -21l-226 -607h-66l-141 394l-146 -394h-64l-244 607q-13 29 -57 37v63h323v-63q-36 -3 -51 -12.5t-15 -31.5q0 -12 13 -48l114 -301l90 246l-37 110q-11 29 -52 37
v63h314v-63q-45 -2 -59.5 -11.5t-14.5 -32.5q0 -20 13 -57z" />
    <glyph glyph-name="X" unicode="X" horiz-adv-x="745" 
d="M631 602l-174 -210l214 -292q23 -33 68 -37v-63h-331v63q32 0 43.5 7.5t11.5 25.5q0 15 -23 44l-106 144l-117 -143q-22 -26 -22 -45q0 -18 13 -25.5t49 -7.5v-63h-250v63q53 0 81 37l198 247l-187 255q-26 35 -63 37v63h337v-63q-34 0 -48 -7.5t-14 -24.5q0 -14 24 -46
l78 -106l85 106q23 26 23 46q0 17 -13.5 24.5t-46.5 7.5v63h248v-63q-48 0 -78 -37z" />
    <glyph glyph-name="Y" unicode="Y" horiz-adv-x="701" 
d="M400 341l115 201q23 41 23 58q0 20 -16.5 28.5t-55.5 10.5v63h229v-63q-42 -7 -59 -37l-195 -341v-129q0 -40 18 -53.5t70 -15.5v-63h-352v63q51 2 69.5 15.5t18.5 53.5v130l-201 340q-11 19 -23 26t-34 11v63h329v-63q-41 -1 -55.5 -9.5t-14.5 -29.5q0 -16 22 -58z" />
    <glyph glyph-name="Z" unicode="Z" horiz-adv-x="643" 
d="M237 67h150q55 0 84.5 28.5t84.5 131.5h67l-34 -227h-566v43l372 591h-141q-15 0 -27.5 -3t-21.5 -5.5t-18.5 -12l-14.5 -14.5t-13.5 -20.5t-12 -22t-13.5 -28.5t-14 -31h-63v205h550v-44z" />
    <glyph glyph-name="bracketleft" unicode="[" horiz-adv-x="348" 
d="M198 662v-695q0 -36 22.5 -46t90.5 -14v-48h-226v911h226v-48q-68 -4 -90.5 -14t-22.5 -46z" />
    <glyph glyph-name="backslash" unicode="\" horiz-adv-x="433" 
d="M311 -125l-273 895h98l273 -895h-98z" />
    <glyph glyph-name="bracketright" unicode="]" horiz-adv-x="348" 
d="M150 -33v695q0 36 -22.5 46t-90.5 14v48h226v-911h-226v48q68 4 90.5 14t22.5 46z" />
    <glyph glyph-name="asciicircum" unicode="^" horiz-adv-x="484" 
d="M187 770h110l147 -290h-107l-95 197l-95 -197h-107z" />
    <glyph glyph-name="underscore" unicode="_" horiz-adv-x="440" 
d="M420 -159h-400v93h400v-93z" />
    <glyph glyph-name="grave" unicode="`" horiz-adv-x="500" 
d="M129 765h170l68 -162h-84z" />
    <glyph glyph-name="a" unicode="a" horiz-adv-x="580" 
d="M267 94q32 0 61 19v168l-76 -30q-51 -20 -51 -76q0 -38 17.5 -59.5t48.5 -21.5zM495 348q0 -5 -0.5 -102t-0.5 -104q0 -55 33 -55q22 0 43 6l8 -45q-60 -58 -137 -58q-81 0 -110 91q-65 -88 -160 -88q-64 0 -102 38t-38 102q0 60 36 92t100 54l161 56v59q0 56 -14.5 80
t-50.5 24q-57 0 -57 -65q0 -34 8 -65l-111 -17q-38 16 -38 67q0 68 58.5 103t156.5 35q109 0 162 -46.5t53 -161.5z" />
    <glyph glyph-name="b" unicode="b" horiz-adv-x="649" 
d="M73 632l-59 54v34l196 41h32v-300q54 95 161 95q98 0 155 -68t57 -187q0 -142 -83.5 -226.5t-209.5 -84.5q-164 0 -249 68v574zM324 54q55 0 87 54t32 142q0 92 -34.5 146t-94.5 54q-41 0 -72 -20v-269q0 -107 82 -107z" />
    <glyph glyph-name="c" unicode="c" horiz-adv-x="535" 
d="M187 323q0 -94 39.5 -149.5t113.5 -55.5q84 0 140 75l31 -21q-49 -182 -231 -182q-108 0 -177 72t-69 191q0 131 77 217t203 86q81 0 135.5 -37.5t54.5 -103.5q0 -57 -42 -75h-88v49q0 100 -73 100q-48 0 -81 -45t-33 -121z" />
    <glyph glyph-name="d" unicode="d" horiz-adv-x="665" 
d="M407 -10v96q-56 -96 -166 -96q-93 0 -150 68.5t-57 186.5q0 142 77.5 223.5t198.5 81.5q67 0 97 -30v112l-59 54v34l197 41h31v-623q0 -27 8.5 -39.5t32.5 -13.5h25v-62l-202 -33h-33zM325 488q-56 0 -87.5 -53t-31.5 -140q0 -91 34.5 -145t95.5 -54q38 0 71 20v265
q0 55 -19.5 81t-62.5 26z" />
    <glyph glyph-name="e" unicode="e" horiz-adv-x="553" 
d="M301 556q103 0 159.5 -64.5t56.5 -163.5v-37h-333q0 -78 44 -124.5t114 -46.5q92 0 147 71l30 -19q-20 -84 -80 -133t-151 -49q-112 0 -183 72.5t-71 192.5q0 134 77 217.5t190 83.5zM284 491q-43 0 -67.5 -40t-30.5 -103h184q-1 66 -22.5 104.5t-63.5 38.5z" />
    <glyph glyph-name="f" unicode="f" horiz-adv-x="406" 
d="M271 475v-358q0 -31 16 -40t66 -16v-61h-315v61q37 5 50.5 15t13.5 42v357h-76v57l76 19v9q0 107 63 158t164 51q150 0 150 -92q0 -38 -35 -62h-82v36q0 63 -40 63q-53 0 -53 -86v-82h119v-71h-117z" />
    <glyph glyph-name="g" unicode="g" horiz-adv-x="586" 
d="M280 195q-60 0 -105 15q-29 -32 -29 -52q0 -23 27 -23h238q83 0 126 -37.5t43 -105.5q0 -93 -83.5 -146t-222.5 -53q-121 0 -187.5 30t-66.5 88q0 35 26.5 56.5t63.5 30.5q-70 26 -70 98q0 37 25.5 67t78.5 60q-95 45 -95 144q0 87 66.5 138t171.5 51q53 0 99 -14l184 8
v-87h-42l-83 18v-6q69 -34 69 -105q0 -81 -65.5 -128t-168.5 -47zM391 -24h-255q-11 -12 -11 -37q0 -44 41 -66t114 -22q169 0 169 83q0 42 -58 42zM287 249q64 0 64 112q0 62 -20 101t-57 39q-64 0 -64 -112q0 -61 20 -100.5t57 -39.5z" />
    <glyph glyph-name="h" unicode="h" horiz-adv-x="685" 
d="M257 761v-309q95 104 193 104q150 0 150 -164v-274q0 -32 13.5 -42t50.5 -15v-61h-293v61q36 5 48 14.5t12 42.5v258q0 36 -15.5 53t-52.5 17q-51 0 -106 -24v-304q0 -32 12 -42t48 -15v-61h-293v61q38 5 51 15t13 42v514l-59 54v34l198 41h30z" />
    <glyph glyph-name="i" unicode="i" horiz-adv-x="357" 
d="M267 557v-439q0 -32 13.5 -42t50.5 -15v-61h-297v61q37 5 50.5 15t13.5 42v304l-59 55v29l196 51h32zM180 597q-43 0 -69.5 26t-26.5 63t26.5 63t69.5 26q42 0 68 -26t26 -63t-26 -63t-68 -26z" />
    <glyph glyph-name="j" unicode="j" horiz-adv-x="312" 
d="M248 557v-434q0 -75 -15.5 -121.5t-47.5 -86.5q-62 -75 -150 -124l-34 32l39 64q25 38 31.5 81.5t6.5 116.5v337l-58 55v29l197 51h31zM161 597q-42 0 -68.5 26t-26.5 63t26.5 63t68.5 26t68.5 -26t26.5 -63t-26.5 -63t-68.5 -26z" />
    <glyph glyph-name="k" unicode="k" horiz-adv-x="644" 
d="M265 290l135 129q24 26 24 36q0 15 -13 20.5t-52 10.5v60h256v-60q-26 -7 -36.5 -10t-26 -11t-27.5 -19l-103 -100l213 -299v-47h-174zM257 761v-643q0 -32 13.5 -42t50.5 -15v-61h-297v61q38 5 51 15t13 42v514l-59 54v34l198 41h30z" />
    <glyph glyph-name="l" unicode="l" horiz-adv-x="347" 
d="M256 761v-643q0 -32 13.5 -42t50.5 -15v-61h-296v61q38 5 51 15t13 42v514l-59 54v34l196 41h31z" />
    <glyph glyph-name="m" unicode="m" horiz-adv-x="1018" 
d="M997 0h-290v61q36 5 46.5 14.5t10.5 42.5v258q0 39 -15 54.5t-54 15.5q-38 0 -95 -24v-304q0 -33 11 -42.5t47 -14.5v-61h-285v61q36 5 47 14.5t11 42.5v258q0 38 -15.5 54t-53.5 16q-40 0 -95 -24v-304q0 -33 10.5 -42.5t46.5 -14.5v-61h-290v61q37 5 50.5 15t13.5 42
v301l-59 54v33l196 54h32v-108q27 30 48 49.5t58.5 37t77.5 17.5q53 0 90.5 -27t51.5 -81q29 31 51.5 50t63.5 38.5t83 19.5q142 0 142 -162v-276q0 -32 13.5 -42t50.5 -15v-61z" />
    <glyph glyph-name="n" unicode="n" horiz-adv-x="694" 
d="M440 118v258q0 36 -15 53t-52 17q-52 0 -106 -24v-304q0 -33 12 -42.5t48 -14.5v-61h-293v61q37 5 50.5 15t13.5 42v301l-59 54v33l196 54h32v-108q91 104 192 104q150 0 150 -164v-274q0 -32 13.5 -42t50.5 -15v-61h-292v61q36 5 47.5 14.5t11.5 42.5z" />
    <glyph glyph-name="o" unicode="o" horiz-adv-x="624" 
d="M321 57q45 0 70 52t25 138q0 106 -30 174.5t-83 68.5q-46 0 -71 -52.5t-25 -138.5q0 -106 30.5 -174t83.5 -68zM305 -10q-121 0 -196 77.5t-75 196.5q0 132 80.5 212t204.5 80q121 0 196 -77.5t75 -195.5q0 -132 -80.5 -212.5t-204.5 -80.5z" />
    <glyph glyph-name="p" unicode="p" horiz-adv-x="666" 
d="M259 19v-98q0 -32 13 -42t50 -15v-61h-296v61q37 5 50.5 15t13.5 42v498l-59 54v33l197 54h31v-99q56 95 162 95q97 0 153.5 -68t56.5 -187q0 -142 -78 -226.5t-199 -84.5q-64 0 -95 29zM341 54q55 0 87 54t32 142q0 92 -34.5 146t-94.5 54q-41 0 -72 -20v-265
q0 -111 82 -111z" />
    <glyph glyph-name="q" unicode="q" horiz-adv-x="645" 
d="M311 556q104 0 163 -62l48 63h60l-6 -121v-515q0 -32 13.5 -42t50.5 -15v-61h-297v61q37 5 50.5 15t13.5 42v165q-56 -96 -166 -96q-93 0 -150 68.5t-57 186.5q0 143 78 227t199 84zM325 494q-56 0 -87.5 -55.5t-31.5 -143.5q0 -91 34.5 -145t95.5 -54q38 0 71 20v271
q0 55 -19.5 81t-62.5 26z" />
    <glyph glyph-name="r" unicode="r" horiz-adv-x="471" 
d="M267 560v-172q33 97 66 132.5t85 35.5q25 0 44 -12v-145h-24q-116 0 -171 -46v-236q0 -31 16 -40t67 -16v-61h-316v61q37 5 50.5 15t13.5 42v301l-59 54v33l195 54h33z" />
    <glyph glyph-name="s" unicode="s" horiz-adv-x="503" 
d="M249 -10q-122 0 -202 56l-6 124h76q27 -118 137 -118q40 0 64 16t24 46q0 32 -24.5 48.5t-93.5 32.5q-93 22 -137.5 64t-44.5 116q0 86 56 133.5t153 47.5q106 0 178 -46v-113h-74q-24 97 -111 97q-35 0 -54.5 -17t-19.5 -44q0 -30 23 -47t88 -30q89 -19 137.5 -60
t48.5 -119q0 -88 -57.5 -137.5t-160.5 -49.5z" />
    <glyph glyph-name="t" unicode="t" horiz-adv-x="412" 
d="M247 670v-124h137v-71h-137v-316q0 -37 15.5 -53.5t50.5 -16.5q40 0 77 20l18 -46q-71 -73 -178 -73q-153 0 -153 151v334h-68v50q98 36 186 145h52z" />
    <glyph glyph-name="u" unicode="u" horiz-adv-x="675" 
d="M415 -10v98q-81 -98 -187 -98q-69 0 -108.5 42t-39.5 127v240q0 25 -8.5 38.5t-33.5 18.5l-15 5v52l196 43h31v-380q0 -82 67 -82q44 0 98 24v281q0 25 -8.5 38.5t-33.5 18.5l-14 5v52l194 43h32v-418q0 -27 8.5 -39.5t32.5 -13.5h24v-62l-201 -33h-34z" />
    <glyph glyph-name="v" unicode="v" horiz-adv-x="607" 
d="M602 546v-60q-29 -10 -39.5 -17t-16.5 -23l-212 -451h-50l-222 451q-8 16 -18.5 23t-38.5 17v60h316v-60q-41 -6 -54.5 -12.5t-13.5 -23.5q0 -11 8 -31l93 -218l96 218q8 21 8 31q0 17 -13.5 23.5t-54.5 12.5v60h212z" />
    <glyph glyph-name="w" unicode="w" horiz-adv-x="879" 
d="M651 221l76 197q7 18 7 32q0 17 -12 24.5t-39 11.5v60h191v-60q-30 -10 -40.5 -17t-16.5 -23l-183 -451h-54l-131 322l-138 -322h-53l-197 451q-7 16 -17.5 23.5t-38.5 16.5v60h291v-60q-45 -7 -45 -33q0 -13 10 -36l77 -200l76 183l-18 46q-7 18 -16.5 26t-30.5 14v60
h273v-60q-29 -4 -40 -11t-11 -23q0 -12 8 -34z" />
    <glyph glyph-name="x" unicode="x" horiz-adv-x="607" 
d="M73 101l140 175l-135 170q-8 11 -12.5 16t-15 11.5t-25.5 12.5v60h301v-60q-28 -3 -39 -8.5t-11 -19.5q0 -10 18 -35l57 -74l59 74q16 19 16 34q0 14 -9.5 19t-36.5 10v60h200v-60q-48 -22 -65 -42l-121 -150l147 -193q26 -36 61 -40v-61h-310v61q31 3 43 9.5t12 21.5
q0 12 -16 32l-77 98l-73 -98q-14 -18 -14 -32t11.5 -20t41.5 -11v-61h-215v61q40 6 68 40z" />
    <glyph glyph-name="y" unicode="y" horiz-adv-x="610" 
d="M272 -2l-210 448q-7 15 -18 22.5t-39 17.5v60h316v-60q-41 -6 -55 -12.5t-14 -23.5q0 -11 10 -36l94 -229l93 229q10 26 10 36q0 17 -13 24t-54 12v60h213v-60q-29 -10 -39.5 -17t-17.5 -23l-229 -525q-29 -67 -64 -98t-85 -31q-59 0 -84 39v85h58q55 0 78.5 11t41.5 52z
" />
    <glyph glyph-name="z" unicode="z" horiz-adv-x="560" 
d="M28 0v42l286 441h-99q-39 0 -58 -26t-50 -109h-64v198h472v-45l-279 -437h93q46 0 72 27.5t62 109.5h64l-22 -201h-477z" />
    <glyph glyph-name="braceleft" unicode="{" horiz-adv-x="383" 
d="M50 299v32q83 17 83 100v211q0 61 53 94.5t160 33.5v-38q-41 -5 -68 -28.5t-27 -69.5v-207q0 -50 -20 -73.5t-71 -38.5q51 -15 71 -38.5t20 -73.5v-207q0 -46 27 -69.5t68 -28.5v-39q-107 0 -160 33.5t-53 94.5v212q0 83 -83 100z" />
    <glyph glyph-name="bar" unicode="|" horiz-adv-x="293" 
d="M193 770v-911h-93v911h93z" />
    <glyph glyph-name="braceright" unicode="}" horiz-adv-x="383" 
d="M333 331v-32q-83 -17 -83 -100v-212q0 -61 -53.5 -94.5t-159.5 -33.5v39q94 12 94 98v207q0 50 20 73.5t71 38.5q-51 15 -71 38.5t-20 73.5v207q0 86 -94 98v38q106 0 159.5 -33.5t53.5 -94.5v-211q0 -83 83 -100z" />
    <glyph glyph-name="asciitilde" unicode="~" horiz-adv-x="568" 
d="M460 438l58 -16q-48 -172 -164 -172q-29 0 -84.5 31t-77.5 31q-48 0 -85 -60l-57 17q26 92 67 131.5t97 39.5q29 0 84 -31t77 -31q49 0 85 60z" />
    <glyph glyph-name="uni00A0" unicode="&#xa0;" horiz-adv-x="197" 
 />
    <glyph glyph-name="exclamdown" unicode="&#xa1;" horiz-adv-x="327" 
d="M67 453q0 40 28.5 68.5t67.5 28.5q40 0 68 -28.5t28 -68.5q0 -42 -28 -71t-68 -29q-39 0 -67.5 29t-28.5 71zM203 307l56 -469h-191l56 469h79z" />
    <glyph glyph-name="cent" unicode="&#xa2;" horiz-adv-x="586" 
d="M206 -115l21 115q-87 21 -138 89t-51 170q0 134 83.5 218.5t211.5 86.5l21 112h56l-22 -116q71 -9 112.5 -42.5t41.5 -90.5q0 -49 -48 -69h-71v42q0 76 -47 95l-71 -373q27 -8 56 -8q90 0 152 81l39 -20q-52 -185 -246 -185q-5 0 -13 0.5t-12 0.5l-20 -106h-55zM189 319
q0 -119 66 -171l67 356h-1q-58 0 -95 -49t-37 -136z" />
    <glyph glyph-name="sterling" unicode="&#xa3;" horiz-adv-x="709" 
d="M105 335v55h105l3 49q7 134 69.5 203.5t175.5 69.5q85 0 137 -30t52 -95q0 -54 -44 -73h-97v57q0 84 -52 84q-51 0 -63 -101l-17 -164h162v-55h-168l-5 -55q-6 -71 -23 -112q119 -42 198 -42q46 0 62.5 19t16.5 71l41 9q19 -36 19 -86q0 -73 -41.5 -111t-119.5 -38
q-116 0 -218 89q-57 -89 -172 -89q-54 0 -85.5 30t-31.5 80q0 53 33 83.5t85 30.5q40 0 71 -12l8 133h-101zM126 45q60 0 66 91q-33 19 -66 19q-27 0 -40.5 -15t-13.5 -40q0 -26 15 -40.5t39 -14.5z" />
    <glyph glyph-name="currency" unicode="&#xa4;" horiz-adv-x="582" 
d="M58 158l72 73q-36 50 -36 117q0 69 37 118l-73 73l43 43l73 -73q50 36 117 36t117 -36l73 72l42 -43l-72 -73q37 -50 37 -117q0 -65 -37 -118l73 -71l-43 -43l-73 72q-49 -37 -117 -37q-67 0 -118 37l-73 -73zM174 348q0 -53 33.5 -88.5t83.5 -35.5t83.5 35.5t33.5 88.5
t-33.5 88.5t-83.5 35.5t-83.5 -35.5t-33.5 -88.5z" />
    <glyph glyph-name="yen" unicode="&#xa5;" horiz-adv-x="701" 
d="M100 329v55h94l-127 218q-17 30 -58 37v63h332v-63q-41 -1 -55.5 -9.5t-14.5 -29.5q0 -19 21 -58l109 -201l110 201q22 39 22 58q0 20 -16 28.5t-55 10.5v63h230v-63q-42 -7 -59 -37l-123 -218h102v-55h-133l-38 -68v-1h171v-54h-171v-74q0 -40 18 -53.5t70 -15.5v-63
h-353v63q52 2 70.5 15.5t18.5 53.5v74h-165v54h165v2l-39 67h-126z" />
    <glyph glyph-name="brokenbar" unicode="&#xa6;" horiz-adv-x="293" 
d="M193 770v-376h-93v376h93zM193 235v-376h-93v376h93z" />
    <glyph glyph-name="section" unicode="&#xa7;" horiz-adv-x="529" 
d="M229 -203q-72 0 -116.5 30.5t-44.5 79.5q0 43 43 59h88v-32q0 -34 15.5 -61.5t52.5 -27.5q31 0 47 19.5t16 47.5q0 24 -16.5 56t-35.5 57.5t-54 70t-53 69.5q-59 83 -90.5 155.5t-31.5 152.5q0 108 71 173.5t180 65.5q71 0 116 -30t45 -79q0 -43 -44 -59h-87v32
q0 33 -16 60.5t-53 27.5q-30 0 -46 -19.5t-16 -46.5q0 -24 16 -56t35.5 -58t54 -70t52.5 -70q60 -84 92 -156t32 -152q0 -107 -72 -173t-180 -66zM391 -93q29 45 29 129q0 116 -124 279q-50 66 -75.5 101.5t-54 92t-28.5 93.5q-29 -45 -29 -129q0 -116 124 -279
q99 -132 128 -189q30 -58 30 -98z" />
    <glyph glyph-name="dieresis" unicode="&#xa8;" horiz-adv-x="500" 
d="M59 688q0 34 24.5 58.5t58.5 24.5t59 -24.5t25 -58.5t-25 -58.5t-59 -24.5t-58.5 24.5t-24.5 58.5zM273 688q0 34 24.5 58.5t57.5 24.5q36 0 60.5 -24.5t24.5 -58.5t-24.5 -58.5t-60.5 -24.5q-33 0 -57.5 24.5t-24.5 58.5z" />
    <glyph glyph-name="copyright" unicode="&#xa9;" horiz-adv-x="796" 
d="M82 351q0 -135 89.5 -228.5t226.5 -93.5t226.5 93.5t89.5 228.5t-89.5 228.5t-226.5 93.5t-226.5 -93.5t-89.5 -228.5zM40 351q0 151 101.5 256t256.5 105t256.5 -105t101.5 -256t-101.5 -256t-256.5 -105t-256.5 105t-101.5 256zM424 190q35 0 51.5 24.5t33.5 76.5h60
l-9 -112q-59 -38 -145 -38q-99 0 -155.5 56.5t-56.5 146.5q0 99 61.5 159.5t152.5 60.5q88 0 138 -42v-96h-59q-22 92 -79 92q-90 0 -90 -163q0 -72 25 -118.5t72 -46.5z" />
    <glyph glyph-name="ordfeminine" unicode="&#xaa;" horiz-adv-x="470" 
d="M205 391q25 0 51 17v115l-50 -20q-47 -21 -47 -60q0 -25 13 -38.5t33 -13.5zM378 574q0 -22 -1 -82t-1 -66q0 -41 26 -41q16 0 29 4l7 -33q-43 -41 -95 -41q-61 0 -85 64q-21 -27 -53.5 -44.5t-67.5 -17.5q-45 0 -72.5 27.5t-27.5 71.5t25.5 67.5t71.5 38.5l122 39v44
q0 73 -45 73q-42 0 -42 -45q0 -23 6 -48l-88 -13q-29 13 -29 50q0 48 44 74t117 26q81 0 120 -34t39 -114z" />
    <glyph glyph-name="guillemotleft" unicode="&#xab;" horiz-adv-x="547" 
d="M37 271v10l177 198h79l-113 -203l113 -203h-79zM253 271v10l177 198h80l-115 -203l115 -203h-80z" />
    <glyph glyph-name="registered" unicode="&#xae;" horiz-adv-x="555" 
d="M264 581h-10v-90h10q47 0 47 46q0 44 -47 44zM166 608h114q49 0 73.5 -20t24.5 -51q0 -25 -16 -42.5t-38 -23.5l44 -56q16 -22 32 -23v-22h-61q-15 8 -32 34l-41 62h-12v-49q0 -15 5 -20t20 -5v-22h-113v22q17 0 22 5t5 20v143q0 15 -4.5 19t-22.5 6v23zM87 484
q0 -79 54.5 -136t135.5 -57q82 0 136.5 57t54.5 136q0 80 -54.5 137t-136.5 57q-81 0 -135.5 -57.5t-54.5 -136.5zM50 484q0 96 64.5 162t162.5 66q99 0 163.5 -66t64.5 -162q0 -95 -65 -161t-163 -66t-162.5 66t-64.5 161z" />
    <glyph glyph-name="macron" unicode="&#xaf;" horiz-adv-x="500" 
d="M101 625v93h298v-93h-298z" />
    <glyph glyph-name="degree" unicode="&#xb0;" horiz-adv-x="374" 
d="M96 553q0 -43 25 -70t66 -27t66 27t25 70t-25 70t-66 27t-66 -27t-25 -70zM26 553q0 68 46.5 113.5t114.5 45.5t114.5 -45.5t46.5 -113.5t-46.5 -113.5t-114.5 -45.5t-114.5 45.5t-46.5 113.5z" />
    <glyph glyph-name="plusminus" unicode="&#xb1;" horiz-adv-x="596" 
d="M254 617h87v-136h180v-86h-180v-137h-87v137h-179v86h179v136zM75 121v86h446v-86h-446z" />
    <glyph glyph-name="twosuperior" unicode="&#xb2;" horiz-adv-x="442" 
d="M163 388h111q31 0 44 8.5t38 45.5h37l-13 -155h-355v42l124 112q50 45 71.5 76.5t21.5 68.5q0 32 -19 50.5t-53 18.5q-53 0 -99 -54l-30 32q25 49 75 82t115 33t104 -34.5t39 -95.5q0 -28 -13 -55.5t-29 -47.5t-49.5 -46t-55 -40t-64.5 -41z" />
    <glyph glyph-name="threesuperior" unicode="&#xb3;" horiz-adv-x="434" 
d="M253 537q61 -2 98 -34t37 -84q0 -68 -54.5 -104.5t-136.5 -36.5q-79 0 -120.5 27t-41.5 68q0 38 31 52h80v-24q0 -80 57 -80q56 0 56 75q0 45 -23 68.5t-65 23.5h-19l-9 29q50 20 71 38.5t21 45.5q0 23 -15.5 37t-43.5 14q-52 0 -87 -49l-34 23q23 52 69 85t111 33
q60 0 95 -28t35 -77q0 -42 -31.5 -68t-80.5 -34z" />
    <glyph glyph-name="acute" unicode="&#xb4;" horiz-adv-x="500" 
d="M201 765h170l-154 -162h-85z" />
    <glyph glyph-name="mu" unicode="&#xb5;" horiz-adv-x="671" 
d="M235 0l13 -161v-26l-168 -10v596q0 25 -8.5 38.5t-33.5 18.5l-15 5v52l196 43h31v-380q0 -82 67 -82q40 0 94 24v281q0 25 -8.5 38.5t-33.5 18.5l-14 5v52l194 43h32v-418q0 -27 8.5 -39.5t32.5 -13.5h24v-62l-201 -33h-34v98q-70 -83 -138 -92q-22 -3 -38 4z" />
    <glyph glyph-name="paragraph" unicode="&#xb6;" horiz-adv-x="659" 
d="M323 -197v397q-128 0 -201.5 72.5t-73.5 179.5t73 178.5t202 71.5h307v-63q-60 0 -81 -14t-21 -59v-763h-69v844h-66v-844h-70zM323 252v398q-56 -5 -84.5 -61.5t-28.5 -136.5q0 -81 28.5 -138t84.5 -62z" />
    <glyph glyph-name="periodcentered" unicode="&#xb7;" horiz-adv-x="303" 
d="M51 304q0 44 29 72.5t71 28.5q43 0 72 -28.5t29 -72.5q0 -43 -29.5 -71.5t-71.5 -28.5t-71 28.5t-29 71.5z" />
    <glyph glyph-name="cedilla" unicode="&#xb8;" horiz-adv-x="500" 
d="M151 -231l-10 46q115 0 115 41q0 33 -86 37l47 115h46l-19 -53q99 -8 99 -77q0 -52 -56 -80.5t-136 -28.5z" />
    <glyph glyph-name="onesuperior" unicode="&#xb9;" horiz-adv-x="388" 
d="M225 748h44v-367q0 -28 14 -35.5t64 -10.5v-48h-292v48q55 3 67 10t12 36v228h-79v44l28 6q54 11 83 30.5t59 58.5z" />
    <glyph glyph-name="ordmasculine" unicode="&#xba;" horiz-adv-x="470" 
d="M242 363q32 0 48.5 37.5t16.5 102.5q0 79 -20.5 124.5t-57.5 45.5q-32 0 -49 -38t-17 -102q0 -77 21.5 -123.5t57.5 -46.5zM230 315q-90 0 -144.5 54t-54.5 142q0 96 58 153t152 57q90 0 144 -54t54 -142q0 -96 -57.5 -153t-151.5 -57z" />
    <glyph glyph-name="guillemotright" unicode="&#xbb;" horiz-adv-x="547" 
d="M293 281v-10l-175 -198h-81l114 203l-114 203h81zM510 281v-10l-177 -198h-79l114 203l-114 203h79z" />
    <glyph glyph-name="onequarter" unicode="&#xbc;" horiz-adv-x="948" 
d="M534 102h144v184zM812 -71h-134v118h-215v45l232 297h117v-287h86v-55h-86v-118zM223 748h44v-367q0 -28 14 -35.5t64 -10.5v-48h-292v48q54 3 66.5 10t12.5 36v228h-79v44l28 6q53 11 82.5 30.5t59.5 58.5zM224 0l449 741h74l-450 -741h-73z" />
    <glyph glyph-name="onehalf" unicode="&#xbd;" horiz-adv-x="942" 
d="M225 748h44v-367q0 -28 14 -35.5t64 -10.5v-48h-292v48q55 3 67 10t12 36v228h-79v44l28 6q54 11 83 30.5t59 58.5zM226 0l449 741h74l-450 -741h-73zM664 30h110q32 0 45 8.5t37 45.5h37l-13 -155h-355v42l125 112q50 45 71.5 76.5t21.5 67.5q0 33 -19 51.5t-54 18.5
q-51 0 -99 -54l-30 31q25 50 75 83t115 33t104 -35t39 -96q0 -28 -13 -55.5t-28.5 -47t-50 -46t-54.5 -39.5t-64 -41z" />
    <glyph glyph-name="threequarters" unicode="&#xbe;" horiz-adv-x="967" 
d="M253 537q61 -2 98 -34t37 -84q0 -68 -54.5 -104.5t-136.5 -36.5q-79 0 -120.5 27t-41.5 68q0 38 31 52h80v-24q0 -80 57 -80q56 0 56 75q0 45 -23 68.5t-65 23.5h-19l-9 29q50 20 71 38.5t21 45.5q0 23 -15.5 37t-43.5 14q-52 0 -87 -49l-34 23q23 52 69 85t111 33
q60 0 95 -28t35 -77q0 -42 -31.5 -68t-80.5 -34zM552 102h144v184zM831 -71h-135v118h-215v45l232 297h118v-287h86v-55h-86v-118zM242 0l449 741h74l-450 -741h-73z" />
    <glyph glyph-name="questiondown" unicode="&#xbf;" horiz-adv-x="472" 
d="M175 -38q0 -34 18.5 -52t50.5 -18q72 0 72 85v50h104q36 -20 36 -63q0 -60 -58 -98t-154 -38q-103 0 -159 42t-56 125q0 58 29 99t88 77q47 27 64 52t17 59v27h49q23 -15 39 -41.5t16 -58.5q0 -72 -65 -123q-4 -3 -14 -11t-13.5 -11t-12.5 -10.5t-12.5 -11.5t-10.5 -11
t-10 -12t-7 -12.5t-6 -14t-3.5 -14.5t-1.5 -16zM348 451q0 -41 -27.5 -70t-67.5 -29t-68 29t-28 70q0 40 28 68.5t68 28.5t67.5 -28.5t27.5 -68.5z" />
    <glyph glyph-name="Agrave" unicode="&#xc0;" horiz-adv-x="751" 
d="M477 147l-29 70h-254l-27 -70q-10 -30 -10 -40q0 -24 14.5 -33t60.5 -11v-63h-225v63q24 4 36.5 11.5t20.5 25.5l212 527l-34 78h186l258 -605q8 -18 21 -25.5t37 -11.5v-63h-331v63q45 2 60 11.5t15 32.5q0 16 -11 40zM319 535l-100 -254h203zM164 909h172l73 -156h-89z
" />
    <glyph glyph-name="Aacute" unicode="&#xc1;" horiz-adv-x="751" 
d="M477 147l-29 70h-254l-27 -70q-10 -30 -10 -40q0 -24 14.5 -33t60.5 -11v-63h-225v63q24 4 36.5 11.5t20.5 25.5l212 527l-34 78h186l258 -605q8 -18 21 -25.5t37 -11.5v-63h-331v63q45 2 60 11.5t15 32.5q0 16 -11 40zM319 535l-100 -254h203zM373 909h172l-156 -156
h-89z" />
    <glyph glyph-name="Acircumflex" unicode="&#xc2;" horiz-adv-x="751" 
d="M477 147l-29 70h-254l-27 -70q-10 -30 -10 -40q0 -24 14.5 -33t60.5 -11v-63h-225v63q24 4 36.5 11.5t20.5 25.5l212 527l-34 78h186l258 -605q8 -18 21 -25.5t37 -11.5v-63h-331v63q45 2 60 11.5t15 32.5q0 16 -11 40zM412 918l141 -167h-86l-116 82l-116 -82h-86
l141 167h122zM319 535l-100 -254h203z" />
    <glyph glyph-name="Atilde" unicode="&#xc3;" horiz-adv-x="751" 
d="M477 147l-29 70h-254l-27 -70q-10 -30 -10 -40q0 -24 14.5 -33t60.5 -11v-63h-225v63q24 4 36.5 11.5t20.5 25.5l212 527l-34 78h186l258 -605q8 -18 21 -25.5t37 -11.5v-63h-331v63q45 2 60 11.5t15 32.5q0 16 -11 40zM501 899l55 -12q-38 -88 -65.5 -115.5t-70.5 -27.5
q-31 0 -76 31t-62 31q-20 0 -34 -13.5t-31 -42.5l-56 12q39 88 66 115.5t71 27.5q35 0 78.5 -31.5t59.5 -31.5q20 0 33.5 13.5t31.5 43.5zM319 535l-100 -254h203z" />
    <glyph glyph-name="Adieresis" unicode="&#xc4;" horiz-adv-x="751" 
d="M477 147l-29 70h-254l-27 -70q-10 -30 -10 -40q0 -24 14.5 -33t60.5 -11v-63h-225v63q24 4 36.5 11.5t20.5 25.5l212 527l-34 78h186l258 -605q8 -18 21 -25.5t37 -11.5v-63h-331v63q45 2 60 11.5t15 32.5q0 16 -11 40zM319 535l-100 -254h203zM160 831q0 34 24.5 58.5
t58.5 24.5t59 -24.5t25 -58.5t-25 -58.5t-59 -24.5t-58.5 24.5t-24.5 58.5zM376 831q0 34 24.5 58.5t57.5 24.5q36 0 60.5 -24.5t24.5 -58.5t-24.5 -58.5t-60.5 -24.5q-33 0 -57.5 24.5t-24.5 58.5z" />
    <glyph glyph-name="Aring" unicode="&#xc5;" horiz-adv-x="751" 
d="M477 147l-29 70h-254l-27 -70q-10 -30 -10 -40q0 -24 14.5 -33t60.5 -11v-63h-225v63q24 4 36.5 11.5t20.5 25.5l212 527l-34 78h186l258 -605q8 -18 21 -25.5t37 -11.5v-63h-331v63q45 2 60 11.5t15 32.5q0 16 -11 40zM242 841q0 42 30.5 70.5t78.5 28.5t78.5 -28.5
t30.5 -70.5t-30.5 -70.5t-78.5 -28.5t-78.5 28.5t-30.5 70.5zM319 535l-100 -254h203zM398 841q0 20 -12.5 33t-34.5 13t-34.5 -13t-12.5 -33t12.5 -33t34.5 -13t34.5 13t12.5 33z" />
    <glyph glyph-name="AE" unicode="&#xc6;" horiz-adv-x="1057" 
d="M65 100l343 500q-8 20 -26.5 28.5t-62.5 10.5v63h674v-187h-68q-26 67 -54 94.5t-84 27.5h-116v-242h94q33 0 48.5 17.5t23.5 62.5h59v-228h-59q-8 45 -23.5 62.5t-48.5 17.5h-94v-195q0 -39 20 -53t65 -14h40q52 0 83 27.5t83 109.5h67l-31 -202h-588v63q51 2 67.5 15
t16.5 54v113h-240l-56 -83q-23 -32 -23 -58q0 -23 15 -31t62 -10v-63h-245v63q37 7 58 37zM494 595l-196 -286h196v286z" />
    <glyph glyph-name="Ccedilla" unicode="&#xc7;" horiz-adv-x="699" 
d="M290 -231l-10 46q115 0 115 41q0 33 -86 37l40 99q-147 13 -230 107.5t-83 237.5q0 169 104 272t260 103q152 0 235 -72v-161h-84q-20 82 -56 123t-98 41q-60 0 -99.5 -40.5t-54.5 -100t-15 -136.5q0 -138 47.5 -220.5t136.5 -82.5q63 0 99.5 42.5t64.5 136.5h85
l-18 -188q-98 -64 -248 -64l-12 -35q99 -8 99 -77q0 -52 -56 -80.5t-136 -28.5z" />
    <glyph glyph-name="Egrave" unicode="&#xc8;" horiz-adv-x="678" 
d="M163 909h172l73 -156h-89zM518 247h-60q-8 45 -23.5 62.5t-48.5 17.5h-93v-195q0 -39 19.5 -53t64.5 -14h40q53 0 84 27.5t83 109.5h66l-31 -202h-587v63q51 2 67 15t16 54v438q0 41 -16 54t-67 15v63h582v-187h-68q-26 68 -53.5 95t-83.5 27h-116v-242h93
q33 0 48.5 17.5t23.5 62.5h60v-228z" />
    <glyph glyph-name="Eacute" unicode="&#xc9;" horiz-adv-x="678" 
d="M371 909h172l-156 -156h-89zM518 247h-60q-8 45 -23.5 62.5t-48.5 17.5h-93v-195q0 -39 19.5 -53t64.5 -14h40q53 0 84 27.5t83 109.5h66l-31 -202h-587v63q51 2 67 15t16 54v438q0 41 -16 54t-67 15v63h582v-187h-68q-26 68 -53.5 95t-83.5 27h-116v-242h93
q33 0 48.5 17.5t23.5 62.5h60v-228z" />
    <glyph glyph-name="Ecircumflex" unicode="&#xca;" horiz-adv-x="678" 
d="M518 247h-60q-8 45 -23.5 62.5t-48.5 17.5h-93v-195q0 -39 19.5 -53t64.5 -14h40q53 0 84 27.5t83 109.5h66l-31 -202h-587v63q51 2 67 15t16 54v438q0 41 -16 54t-67 15v63h582v-187h-68q-26 68 -53.5 95t-83.5 27h-116v-242h93q33 0 48.5 17.5t23.5 62.5h60v-228z
M411 918l141 -167h-86l-116 82l-116 -82h-86l141 167h122z" />
    <glyph glyph-name="Edieresis" unicode="&#xcb;" horiz-adv-x="678" 
d="M159 831q0 34 24.5 58.5t58.5 24.5t59 -24.5t25 -58.5t-25 -58.5t-59 -24.5t-58.5 24.5t-24.5 58.5zM375 831q0 34 24.5 58.5t57.5 24.5q36 0 60.5 -24.5t24.5 -58.5t-24.5 -58.5t-60.5 -24.5q-33 0 -57.5 24.5t-24.5 58.5zM518 247h-60q-8 45 -23.5 62.5t-48.5 17.5h-93
v-195q0 -39 19.5 -53t64.5 -14h40q53 0 84 27.5t83 109.5h66l-31 -202h-587v63q51 2 67 15t16 54v438q0 41 -16 54t-67 15v63h582v-187h-68q-26 68 -53.5 95t-83.5 27h-116v-242h93q33 0 48.5 17.5t23.5 62.5h60v-228z" />
    <glyph glyph-name="Igrave" unicode="&#xcc;" horiz-adv-x="408" 
d="M376 0h-344v63q51 2 67 15t16 54v438q0 41 -16 54t-67 15v63h344v-63q-51 -2 -67 -15t-16 -54v-438q0 -41 16 -54t67 -15v-63zM17 909h172l73 -156h-89z" />
    <glyph glyph-name="Iacute" unicode="&#xcd;" horiz-adv-x="408" 
d="M376 0h-344v63q51 2 67 15t16 54v438q0 41 -16 54t-67 15v63h344v-63q-51 -2 -67 -15t-16 -54v-438q0 -41 16 -54t67 -15v-63zM225 909h172l-156 -156h-89z" />
    <glyph glyph-name="Icircumflex" unicode="&#xce;" horiz-adv-x="408" 
d="M376 0h-344v63q51 2 67 15t16 54v438q0 41 -16 54t-67 15v63h344v-63q-51 -2 -67 -15t-16 -54v-438q0 -41 16 -54t67 -15v-63zM265 918l141 -167h-86l-116 82l-116 -82h-86l141 167h122z" />
    <glyph glyph-name="Idieresis" unicode="&#xcf;" horiz-adv-x="408" 
d="M376 0h-344v63q51 2 67 15t16 54v438q0 41 -16 54t-67 15v63h344v-63q-51 -2 -67 -15t-16 -54v-438q0 -41 16 -54t67 -15v-63zM13 831q0 34 24.5 58.5t58.5 24.5t59 -24.5t25 -58.5t-25 -58.5t-59 -24.5t-58.5 24.5t-24.5 58.5zM229 831q0 34 24.5 58.5t57.5 24.5
q36 0 60.5 -24.5t24.5 -58.5t-24.5 -58.5t-60.5 -24.5q-33 0 -57.5 24.5t-24.5 58.5z" />
    <glyph glyph-name="Eth" unicode="&#xd0;" horiz-adv-x="801" 
d="M39 329v66h84v175q0 41 -16 54t-67 15v63h321q194 0 299.5 -90t105.5 -248q0 -171 -101 -267.5t-272 -96.5h-353v63q51 2 67 15t16 54v197h-84zM336 635h-35v-240h131v-66h-131v-192q0 -42 16.5 -56t58.5 -14h11q188 0 188 284q0 130 -61.5 207t-177.5 77z" />
    <glyph glyph-name="Ntilde" unicode="&#xd1;" horiz-adv-x="784" 
d="M543 899l55 -12q-38 -88 -65.5 -115.5t-70.5 -27.5q-31 0 -76 31t-62 31q-20 0 -34 -13.5t-31 -42.5l-56 12q39 88 66 115.5t71 27.5q35 0 78.5 -31.5t59.5 -31.5q20 0 33.5 13.5t31.5 43.5zM115 132v455q-23 31 -38.5 40.5t-44.5 11.5v63h251l315 -409v277
q0 40 -20 53.5t-71 15.5v63h257v-63q-50 -2 -66.5 -15t-16.5 -54v-570h-73l-409 513v-381q0 -40 19.5 -53.5t71.5 -15.5v-63h-258v63q51 2 67 15t16 54z" />
    <glyph glyph-name="Ograve" unicode="&#xd2;" horiz-adv-x="762" 
d="M201 909h172l73 -156h-89zM393 60q73 0 108.5 77t35.5 201q0 138 -42 221t-126 83q-73 0 -108.5 -77t-35.5 -201q0 -138 42 -221t126 -83zM389 712q157 0 247.5 -100.5t90.5 -246.5q0 -170 -100 -272.5t-254 -102.5q-157 0 -247 100.5t-90 246.5q0 169 100 272t253 103z
" />
    <glyph glyph-name="Oacute" unicode="&#xd3;" horiz-adv-x="762" 
d="M409 909h172l-156 -156h-89zM393 60q73 0 108.5 77t35.5 201q0 138 -42 221t-126 83q-73 0 -108.5 -77t-35.5 -201q0 -138 42 -221t126 -83zM389 712q157 0 247.5 -100.5t90.5 -246.5q0 -170 -100 -272.5t-254 -102.5q-157 0 -247 100.5t-90 246.5q0 169 100 272t253 103
z" />
    <glyph glyph-name="Ocircumflex" unicode="&#xd4;" horiz-adv-x="762" 
d="M393 60q73 0 108.5 77t35.5 201q0 138 -42 221t-126 83q-73 0 -108.5 -77t-35.5 -201q0 -138 42 -221t126 -83zM389 712q157 0 247.5 -100.5t90.5 -246.5q0 -170 -100 -272.5t-254 -102.5q-157 0 -247 100.5t-90 246.5q0 169 100 272t253 103zM449 918l141 -167h-86
l-116 82l-116 -82h-86l141 167h122z" />
    <glyph glyph-name="Otilde" unicode="&#xd5;" horiz-adv-x="762" 
d="M530 899l55 -12q-38 -88 -65.5 -115.5t-70.5 -27.5q-31 0 -76 31t-62 31q-20 0 -34 -13.5t-31 -42.5l-56 12q39 88 66 115.5t71 27.5q35 0 78.5 -31.5t59.5 -31.5q20 0 33.5 13.5t31.5 43.5zM393 60q73 0 108.5 77t35.5 201q0 138 -42 221t-126 83q-73 0 -108.5 -77
t-35.5 -201q0 -138 42 -221t126 -83zM389 712q157 0 247.5 -100.5t90.5 -246.5q0 -170 -100 -272.5t-254 -102.5q-157 0 -247 100.5t-90 246.5q0 169 100 272t253 103z" />
    <glyph glyph-name="Odieresis" unicode="&#xd6;" horiz-adv-x="762" 
d="M196 831q0 34 24.5 58.5t58.5 24.5t59 -24.5t25 -58.5t-25 -58.5t-59 -24.5t-58.5 24.5t-24.5 58.5zM412 831q0 34 24.5 58.5t57.5 24.5q36 0 60.5 -24.5t24.5 -58.5t-24.5 -58.5t-60.5 -24.5q-33 0 -57.5 24.5t-24.5 58.5zM393 60q73 0 108.5 77t35.5 201q0 138 -42 221
t-126 83q-73 0 -108.5 -77t-35.5 -201q0 -138 42 -221t126 -83zM389 712q157 0 247.5 -100.5t90.5 -246.5q0 -170 -100 -272.5t-254 -102.5q-157 0 -247 100.5t-90 246.5q0 169 100 272t253 103z" />
    <glyph glyph-name="multiply" unicode="&#xd7;" horiz-adv-x="518" 
d="M199 362l-134 134l60 61l134 -136l133 136l61 -61l-135 -134l135 -133l-61 -60l-133 134l-134 -134l-60 60z" />
    <glyph glyph-name="Oslash" unicode="&#xd8;" horiz-adv-x="767" 
d="M645 728l-47 -80q63 -47 97 -121.5t34 -161.5q0 -169 -100 -272t-253 -103q-83 0 -147 29l-50 -85l-57 30l51 87q-65 47 -100 122.5t-35 163.5q0 169 100 272t253 103q84 0 152 -31l45 77zM224 364q0 -113 25 -184l237 405q-42 57 -114 57q-73 0 -110.5 -77.5
t-37.5 -200.5zM395 60q73 0 110.5 77.5t37.5 200.5q0 105 -23 177l-236 -402q41 -53 111 -53z" />
    <glyph glyph-name="Ugrave" unicode="&#xd9;" horiz-adv-x="773" 
d="M232 909h172l73 -156h-89zM280 570v-306q0 -177 141 -177q80 0 122 41.5t42 143.5v298q0 40 -19 53.5t-71 15.5v63h261v-63q-51 -2 -67.5 -15.5t-16.5 -53.5v-325q0 -125 -77 -190t-197 -65q-143 0 -220.5 64.5t-77.5 191.5v324q0 41 -16 54t-66 15v63h343v-63
q-49 -2 -65 -15t-16 -54z" />
    <glyph glyph-name="Uacute" unicode="&#xda;" horiz-adv-x="773" 
d="M440 909h172l-156 -156h-89zM280 570v-306q0 -177 141 -177q80 0 122 41.5t42 143.5v298q0 40 -19 53.5t-71 15.5v63h261v-63q-51 -2 -67.5 -15.5t-16.5 -53.5v-325q0 -125 -77 -190t-197 -65q-143 0 -220.5 64.5t-77.5 191.5v324q0 41 -16 54t-66 15v63h343v-63
q-49 -2 -65 -15t-16 -54z" />
    <glyph glyph-name="Ucircumflex" unicode="&#xdb;" horiz-adv-x="773" 
d="M280 570v-306q0 -177 141 -177q80 0 122 41.5t42 143.5v298q0 40 -19 53.5t-71 15.5v63h261v-63q-51 -2 -67.5 -15.5t-16.5 -53.5v-325q0 -125 -77 -190t-197 -65q-143 0 -220.5 64.5t-77.5 191.5v324q0 41 -16 54t-66 15v63h343v-63q-49 -2 -65 -15t-16 -54zM480 918
l141 -167h-86l-116 82l-116 -82h-86l141 167h122z" />
    <glyph glyph-name="Udieresis" unicode="&#xdc;" horiz-adv-x="773" 
d="M228 831q0 34 24.5 58.5t58.5 24.5t59 -24.5t25 -58.5t-25 -58.5t-59 -24.5t-58.5 24.5t-24.5 58.5zM444 831q0 34 24.5 58.5t57.5 24.5q36 0 60.5 -24.5t24.5 -58.5t-24.5 -58.5t-60.5 -24.5q-33 0 -57.5 24.5t-24.5 58.5zM280 570v-306q0 -177 141 -177q80 0 122 41.5
t42 143.5v298q0 40 -19 53.5t-71 15.5v63h261v-63q-51 -2 -67.5 -15.5t-16.5 -53.5v-325q0 -125 -77 -190t-197 -65q-143 0 -220.5 64.5t-77.5 191.5v324q0 41 -16 54t-66 15v63h343v-63q-49 -2 -65 -15t-16 -54z" />
    <glyph glyph-name="Yacute" unicode="&#xdd;" horiz-adv-x="701" 
d="M400 341l115 201q23 41 23 58q0 20 -16.5 28.5t-55.5 10.5v63h229v-63q-42 -7 -59 -37l-195 -341v-129q0 -40 18 -53.5t70 -15.5v-63h-352v63q51 2 69.5 15.5t18.5 53.5v130l-201 340q-11 19 -23 26t-34 11v63h329v-63q-41 -1 -55.5 -9.5t-14.5 -29.5q0 -16 22 -58z
M400 909h172l-156 -156h-89z" />
    <glyph glyph-name="Thorn" unicode="&#xde;" horiz-adv-x="677" 
d="M293 488v-273h31q151 0 151 139q0 66 -42 100t-114 34h-26zM293 554h74q141 0 213.5 -54t72.5 -145q0 -202 -282 -202h-78v-21q0 -39 25.5 -52.5t92.5 -16.5v-63h-379v63q51 2 67 15t16 54v438q0 41 -16 54t-67 15v63h344v-63q-51 -2 -67 -15t-16 -54v-16z" />
    <glyph glyph-name="germandbls" unicode="&#xdf;" horiz-adv-x="752" 
d="M487 443q0 -18 16.5 -32t65.5 -41q38 -21 60.5 -37t45 -39.5t33 -53t10.5 -67.5q0 -84 -59 -133.5t-153 -49.5q-102 0 -166 59l-6 123h76q20 -120 98 -120q32 0 50.5 17t18.5 45q0 32 -19.5 53.5t-77.5 55.5q-66 39 -95.5 73.5t-29.5 84.5q0 33 20.5 63t45 50.5t45 54
t20.5 72.5q0 44 -23.5 69.5t-68.5 25.5q-57 0 -90.5 -42t-33.5 -115v-559h-232v61q37 5 50.5 15t13.5 42v349h-76v57l76 19q16 114 97 170t191 56q97 0 160.5 -38.5t63.5 -109.5q0 -35 -20 -63.5t-43.5 -43t-43.5 -33.5t-20 -38z" />
    <glyph glyph-name="agrave" unicode="&#xe0;" horiz-adv-x="580" 
d="M267 94q32 0 61 19v168l-76 -30q-51 -20 -51 -76q0 -38 17.5 -59.5t48.5 -21.5zM495 348q0 -5 -0.5 -102t-0.5 -104q0 -55 33 -55q22 0 43 6l8 -45q-60 -58 -137 -58q-81 0 -110 91q-65 -88 -160 -88q-64 0 -102 38t-38 102q0 60 36 92t100 54l161 56v59q0 56 -14.5 80
t-50.5 24q-57 0 -57 -65q0 -34 8 -65l-111 -17q-38 16 -38 67q0 68 58.5 103t156.5 35q109 0 162 -46.5t53 -161.5zM106 765h170l68 -162h-84z" />
    <glyph glyph-name="aacute" unicode="&#xe1;" horiz-adv-x="580" 
d="M267 94q32 0 61 19v168l-76 -30q-51 -20 -51 -76q0 -38 17.5 -59.5t48.5 -21.5zM495 348q0 -5 -0.5 -102t-0.5 -104q0 -55 33 -55q22 0 43 6l8 -45q-60 -58 -137 -58q-81 0 -110 91q-65 -88 -160 -88q-64 0 -102 38t-38 102q0 60 36 92t100 54l161 56v59q0 56 -14.5 80
t-50.5 24q-57 0 -57 -65q0 -34 8 -65l-111 -17q-38 16 -38 67q0 68 58.5 103t156.5 35q109 0 162 -46.5t53 -161.5zM298 765h170l-154 -162h-85z" />
    <glyph glyph-name="acircumflex" unicode="&#xe2;" horiz-adv-x="580" 
d="M267 94q32 0 61 19v168l-76 -30q-51 -20 -51 -76q0 -38 17.5 -59.5t48.5 -21.5zM495 348q0 -5 -0.5 -102t-0.5 -104q0 -55 33 -55q22 0 43 6l8 -45q-60 -58 -137 -58q-81 0 -110 91q-65 -88 -160 -88q-64 0 -102 38t-38 102q0 60 36 92t100 54l161 56v59q0 56 -14.5 80
t-50.5 24q-57 0 -57 -65q0 -34 8 -65l-111 -17q-38 16 -38 67q0 68 58.5 103t156.5 35q109 0 162 -46.5t53 -161.5zM348 766l139 -170h-86l-114 85l-114 -85h-86l139 170h122z" />
    <glyph glyph-name="atilde" unicode="&#xe3;" horiz-adv-x="580" 
d="M267 94q32 0 61 19v168l-76 -30q-51 -20 -51 -76q0 -38 17.5 -59.5t48.5 -21.5zM495 348q0 -5 -0.5 -102t-0.5 -104q0 -55 33 -55q22 0 43 6l8 -45q-60 -58 -137 -58q-81 0 -110 91q-65 -88 -160 -88q-64 0 -102 38t-38 102q0 60 36 92t100 54l161 56v59q0 56 -14.5 80
t-50.5 24q-57 0 -57 -65q0 -34 8 -65l-111 -17q-38 16 -38 67q0 68 58.5 103t156.5 35q109 0 162 -46.5t53 -161.5zM438 767l55 -12q-38 -88 -65 -115.5t-71 -27.5q-31 0 -76 31t-62 31q-20 0 -34 -13.5t-31 -42.5l-56 11q39 89 66 116.5t71 27.5q35 0 78.5 -31.5
t59.5 -31.5q20 0 33.5 13.5t31.5 43.5z" />
    <glyph glyph-name="adieresis" unicode="&#xe4;" horiz-adv-x="580" 
d="M267 94q32 0 61 19v168l-76 -30q-51 -20 -51 -76q0 -38 17.5 -59.5t48.5 -21.5zM495 348q0 -5 -0.5 -102t-0.5 -104q0 -55 33 -55q22 0 43 6l8 -45q-60 -58 -137 -58q-81 0 -110 91q-65 -88 -160 -88q-64 0 -102 38t-38 102q0 60 36 92t100 54l161 56v59q0 56 -14.5 80
t-50.5 24q-57 0 -57 -65q0 -34 8 -65l-111 -17q-38 16 -38 67q0 68 58.5 103t156.5 35q109 0 162 -46.5t53 -161.5zM97 688q0 34 24.5 58.5t58.5 24.5t59 -24.5t25 -58.5t-25 -58.5t-59 -24.5t-58.5 24.5t-24.5 58.5zM311 688q0 34 24.5 58.5t57.5 24.5q36 0 60.5 -24.5
t24.5 -58.5t-24.5 -58.5t-60.5 -24.5q-33 0 -57.5 24.5t-24.5 58.5z" />
    <glyph glyph-name="aring" unicode="&#xe5;" horiz-adv-x="580" 
d="M267 94q32 0 61 19v168l-76 -30q-51 -20 -51 -76q0 -38 17.5 -59.5t48.5 -21.5zM495 348q0 -5 -0.5 -102t-0.5 -104q0 -55 33 -55q22 0 43 6l8 -45q-60 -58 -137 -58q-81 0 -110 91q-65 -88 -160 -88q-64 0 -102 38t-38 102q0 60 36 92t100 54l161 56v59q0 56 -14.5 80
t-50.5 24q-57 0 -57 -65q0 -34 8 -65l-111 -17q-38 16 -38 67q0 68 58.5 103t156.5 35q109 0 162 -46.5t53 -161.5zM175 694q0 42 30.5 70.5t78.5 28.5t78.5 -28.5t30.5 -70.5t-30.5 -70.5t-78.5 -28.5t-78.5 28.5t-30.5 70.5zM331 694q0 20 -12.5 33t-34.5 13t-34.5 -13
t-12.5 -33t12.5 -33t34.5 -13t34.5 13t12.5 33z" />
    <glyph glyph-name="ae" unicode="&#xe6;" horiz-adv-x="852" 
d="M600 556q103 0 159.5 -64.5t56.5 -163.5v-37h-333q0 -78 44 -124.5t114 -46.5q92 0 147 71l30 -19q-20 -84 -80 -133t-151 -49q-144 0 -212 111q-73 -108 -194 -108q-68 0 -109 40t-41 100q0 61 38 94.5t104 51.5l169 47l5 21q-2 76 -22 113.5t-62 37.5q-57 0 -57 -65
q0 -34 8 -65l-111 -17q-38 16 -38 67q0 68 57 103t147 35q118 0 162 -64q70 64 169 64zM583 491q-43 0 -67.5 -40t-30.5 -103h184q-1 66 -22.5 104.5t-63.5 38.5zM336 255v15l-82 -23q-53 -16 -53 -80q0 -32 17.5 -52.5t48.5 -20.5q51 0 95 33q-26 57 -26 128z" />
    <glyph glyph-name="ccedilla" unicode="&#xe7;" horiz-adv-x="535" 
d="M184 -231l-10 46q115 0 115 41q0 33 -86 37l40 99q-94 12 -151.5 82.5t-57.5 178.5q0 131 77 217t203 86q81 0 135.5 -37.5t54.5 -103.5q0 -57 -42 -75h-88v49q0 100 -73 100q-48 0 -81 -45t-33 -121q0 -94 39.5 -149.5t113.5 -55.5q84 0 140 75l31 -21
q-48 -177 -222 -182l-12 -35q99 -8 99 -77q0 -52 -56 -80.5t-136 -28.5z" />
    <glyph glyph-name="egrave" unicode="&#xe8;" horiz-adv-x="553" 
d="M301 556q103 0 159.5 -64.5t56.5 -163.5v-37h-333q0 -78 44 -124.5t114 -46.5q92 0 147 71l30 -19q-20 -84 -80 -133t-151 -49q-112 0 -183 72.5t-71 192.5q0 134 77 217.5t190 83.5zM284 491q-43 0 -67.5 -40t-30.5 -103h184q-1 66 -22.5 104.5t-63.5 38.5zM109 765h170
l68 -162h-84z" />
    <glyph glyph-name="eacute" unicode="&#xe9;" horiz-adv-x="553" 
d="M309 765h170l-154 -162h-85zM301 556q103 0 159.5 -64.5t56.5 -163.5v-37h-333q0 -78 44 -124.5t114 -46.5q92 0 147 71l30 -19q-20 -84 -80 -133t-151 -49q-112 0 -183 72.5t-71 192.5q0 134 77 217.5t190 83.5zM284 491q-43 0 -67.5 -40t-30.5 -103h184
q-1 66 -22.5 104.5t-63.5 38.5z" />
    <glyph glyph-name="ecircumflex" unicode="&#xea;" horiz-adv-x="553" 
d="M357 766l139 -170h-86l-114 85l-114 -85h-86l139 170h122zM301 556q103 0 159.5 -64.5t56.5 -163.5v-37h-333q0 -78 44 -124.5t114 -46.5q92 0 147 71l30 -19q-20 -84 -80 -133t-151 -49q-112 0 -183 72.5t-71 192.5q0 134 77 217.5t190 83.5zM284 491q-43 0 -67.5 -40
t-30.5 -103h184q-1 66 -22.5 104.5t-63.5 38.5z" />
    <glyph glyph-name="edieresis" unicode="&#xeb;" horiz-adv-x="553" 
d="M106 688q0 34 24.5 58.5t58.5 24.5t59 -24.5t25 -58.5t-25 -58.5t-59 -24.5t-58.5 24.5t-24.5 58.5zM320 688q0 34 24.5 58.5t57.5 24.5q36 0 60.5 -24.5t24.5 -58.5t-24.5 -58.5t-60.5 -24.5q-33 0 -57.5 24.5t-24.5 58.5zM301 556q103 0 159.5 -64.5t56.5 -163.5v-37
h-333q0 -78 44 -124.5t114 -46.5q92 0 147 71l30 -19q-20 -84 -80 -133t-151 -49q-112 0 -183 72.5t-71 192.5q0 134 77 217.5t190 83.5zM284 491q-43 0 -67.5 -40t-30.5 -103h184q-1 66 -22.5 104.5t-63.5 38.5z" />
    <glyph glyph-name="igrave" unicode="&#xec;" horiz-adv-x="357" 
d="M267 557v-439q0 -32 13.5 -42t50.5 -15v-61h-297v61q37 5 50.5 15t13.5 42v304l-59 55v29l196 51h32zM-9 765h170l68 -162h-84z" />
    <glyph glyph-name="iacute" unicode="&#xed;" horiz-adv-x="357" 
d="M201 765h170l-154 -162h-85zM267 557v-439q0 -32 13.5 -42t50.5 -15v-61h-297v61q37 5 50.5 15t13.5 42v304l-59 55v29l196 51h32z" />
    <glyph glyph-name="icircumflex" unicode="&#xee;" horiz-adv-x="357" 
d="M243 766l139 -170h-86l-114 85l-114 -85h-86l139 170h122zM267 557v-439q0 -32 13.5 -42t50.5 -15v-61h-297v61q37 5 50.5 15t13.5 42v304l-59 55v29l196 51h32z" />
    <glyph glyph-name="idieresis" unicode="&#xef;" horiz-adv-x="357" 
d="M-8 688q0 34 24.5 58.5t58.5 24.5t59 -24.5t25 -58.5t-25 -58.5t-59 -24.5t-58.5 24.5t-24.5 58.5zM206 688q0 34 24.5 58.5t57.5 24.5q36 0 60.5 -24.5t24.5 -58.5t-24.5 -58.5t-60.5 -24.5q-33 0 -57.5 24.5t-24.5 58.5zM267 557v-439q0 -32 13.5 -42t50.5 -15v-61
h-297v61q37 5 50.5 15t13.5 42v304l-59 55v29l196 51h32z" />
    <glyph glyph-name="eth" unicode="&#xf0;" horiz-adv-x="618" 
d="M158 571l-18 43l129 50q-66 49 -150 73l21 39q129 -22 225 -75l117 45l18 -43l-87 -34q87 -64 129 -153.5t42 -189.5q0 -156 -73.5 -246t-205.5 -90q-121 0 -196 77.5t-75 196.5q0 125 74.5 198t178.5 73q72 0 120 -50q-30 80 -97 144zM321 57q45 0 70 52t25 138
q0 105 -30 170t-83 65q-46 0 -71 -49t-25 -134q0 -106 30.5 -174t83.5 -68z" />
    <glyph glyph-name="ntilde" unicode="&#xf1;" horiz-adv-x="694" 
d="M440 118v258q0 36 -15 53t-52 17q-52 0 -106 -24v-304q0 -33 12 -42.5t48 -14.5v-61h-293v61q37 5 50.5 15t13.5 42v301l-59 54v33l196 54h32v-108q91 104 192 104q150 0 150 -164v-274q0 -32 13.5 -42t50.5 -15v-61h-292v61q36 5 47.5 14.5t11.5 42.5zM500 767l55 -12
q-38 -88 -65 -115.5t-71 -27.5q-31 0 -76 31t-62 31q-20 0 -34 -13.5t-31 -42.5l-56 11q39 89 66 116.5t71 27.5q35 0 78.5 -31.5t59.5 -31.5q20 0 33.5 13.5t31.5 43.5z" />
    <glyph glyph-name="ograve" unicode="&#xf2;" horiz-adv-x="624" 
d="M321 57q45 0 70 52t25 138q0 106 -30 174.5t-83 68.5q-46 0 -71 -52.5t-25 -138.5q0 -106 30.5 -174t83.5 -68zM305 -10q-121 0 -196 77.5t-75 196.5q0 132 80.5 212t204.5 80q121 0 196 -77.5t75 -195.5q0 -132 -80.5 -212.5t-204.5 -80.5zM125 765h170l68 -162h-84z
" />
    <glyph glyph-name="oacute" unicode="&#xf3;" horiz-adv-x="624" 
d="M335 765h170l-154 -162h-85zM321 57q45 0 70 52t25 138q0 106 -30 174.5t-83 68.5q-46 0 -71 -52.5t-25 -138.5q0 -106 30.5 -174t83.5 -68zM305 -10q-121 0 -196 77.5t-75 196.5q0 132 80.5 212t204.5 80q121 0 196 -77.5t75 -195.5q0 -132 -80.5 -212.5t-204.5 -80.5z
" />
    <glyph glyph-name="ocircumflex" unicode="&#xf4;" horiz-adv-x="624" 
d="M377 766l139 -170h-86l-114 85l-114 -85h-86l139 170h122zM321 57q45 0 70 52t25 138q0 106 -30 174.5t-83 68.5q-46 0 -71 -52.5t-25 -138.5q0 -106 30.5 -174t83.5 -68zM305 -10q-121 0 -196 77.5t-75 196.5q0 132 80.5 212t204.5 80q121 0 196 -77.5t75 -195.5
q0 -132 -80.5 -212.5t-204.5 -80.5z" />
    <glyph glyph-name="otilde" unicode="&#xf5;" horiz-adv-x="624" 
d="M321 57q45 0 70 52t25 138q0 106 -30 174.5t-83 68.5q-46 0 -71 -52.5t-25 -138.5q0 -106 30.5 -174t83.5 -68zM305 -10q-121 0 -196 77.5t-75 196.5q0 132 80.5 212t204.5 80q121 0 196 -77.5t75 -195.5q0 -132 -80.5 -212.5t-204.5 -80.5zM459 767l55 -12
q-38 -88 -65 -115.5t-71 -27.5q-31 0 -76 31t-62 31q-20 0 -34 -13.5t-31 -42.5l-56 11q39 89 66 116.5t71 27.5q35 0 78.5 -31.5t59.5 -31.5q20 0 33.5 13.5t31.5 43.5z" />
    <glyph glyph-name="odieresis" unicode="&#xf6;" horiz-adv-x="624" 
d="M126 688q0 34 24.5 58.5t58.5 24.5t59 -24.5t25 -58.5t-25 -58.5t-59 -24.5t-58.5 24.5t-24.5 58.5zM340 688q0 34 24.5 58.5t57.5 24.5q36 0 60.5 -24.5t24.5 -58.5t-24.5 -58.5t-60.5 -24.5q-33 0 -57.5 24.5t-24.5 58.5zM321 57q45 0 70 52t25 138q0 106 -30 174.5
t-83 68.5q-46 0 -71 -52.5t-25 -138.5q0 -106 30.5 -174t83.5 -68zM305 -10q-121 0 -196 77.5t-75 196.5q0 132 80.5 212t204.5 80q121 0 196 -77.5t75 -195.5q0 -132 -80.5 -212.5t-204.5 -80.5z" />
    <glyph glyph-name="divide" unicode="&#xf7;" horiz-adv-x="596" 
d="M70 322v87h455v-87h-455zM230 184q0 28 19.5 47.5t46.5 19.5q29 0 49 -19.5t20 -47.5t-20.5 -48.5t-48.5 -20.5q-27 0 -46.5 20.5t-19.5 48.5zM230 548q0 28 19.5 47.5t46.5 19.5q29 0 49 -19.5t20 -47.5t-20.5 -48.5t-48.5 -20.5q-27 0 -46.5 20.5t-19.5 48.5z" />
    <glyph glyph-name="oslash" unicode="&#xf8;" horiz-adv-x="624" 
d="M525 580l-44 -73q52 -37 80.5 -95.5t28.5 -128.5q0 -132 -80.5 -212.5t-204.5 -80.5q-63 0 -117 23l-52 -88l-48 26l53 89q-107 77 -107 224q0 132 80.5 212t204.5 80q63 0 115 -23l44 73zM321 57q46 0 72.5 52.5t26.5 137.5q0 75 -13 134l-166 -280q29 -44 80 -44z
M203 299q0 -79 12 -134l167 280q-29 45 -79 45q-46 0 -73 -53t-27 -138z" />
    <glyph glyph-name="ugrave" unicode="&#xf9;" horiz-adv-x="675" 
d="M415 -10v98q-81 -98 -187 -98q-69 0 -108.5 42t-39.5 127v240q0 25 -8.5 38.5t-33.5 18.5l-15 5v52l196 43h31v-380q0 -82 67 -82q44 0 98 24v281q0 25 -8.5 38.5t-33.5 18.5l-14 5v52l194 43h32v-418q0 -27 8.5 -39.5t32.5 -13.5h24v-62l-201 -33h-34zM153 765h170
l68 -162h-84z" />
    <glyph glyph-name="uacute" unicode="&#xfa;" horiz-adv-x="675" 
d="M363 765h170l-154 -162h-85zM415 -10v98q-81 -98 -187 -98q-69 0 -108.5 42t-39.5 127v240q0 25 -8.5 38.5t-33.5 18.5l-15 5v52l196 43h31v-380q0 -82 67 -82q44 0 98 24v281q0 25 -8.5 38.5t-33.5 18.5l-14 5v52l194 43h32v-418q0 -27 8.5 -39.5t32.5 -13.5h24v-62
l-201 -33h-34z" />
    <glyph glyph-name="ucircumflex" unicode="&#xfb;" horiz-adv-x="675" 
d="M405 766l139 -170h-86l-114 85l-114 -85h-86l139 170h122zM415 -10v98q-81 -98 -187 -98q-69 0 -108.5 42t-39.5 127v240q0 25 -8.5 38.5t-33.5 18.5l-15 5v52l196 43h31v-380q0 -82 67 -82q44 0 98 24v281q0 25 -8.5 38.5t-33.5 18.5l-14 5v52l194 43h32v-418
q0 -27 8.5 -39.5t32.5 -13.5h24v-62l-201 -33h-34z" />
    <glyph glyph-name="udieresis" unicode="&#xfc;" horiz-adv-x="675" 
d="M145 688q0 34 24.5 58.5t58.5 24.5t59 -24.5t25 -58.5t-25 -58.5t-59 -24.5t-58.5 24.5t-24.5 58.5zM359 688q0 34 24.5 58.5t57.5 24.5q36 0 60.5 -24.5t24.5 -58.5t-24.5 -58.5t-60.5 -24.5q-33 0 -57.5 24.5t-24.5 58.5zM415 -10v98q-81 -98 -187 -98q-69 0 -108.5 42
t-39.5 127v240q0 25 -8.5 38.5t-33.5 18.5l-15 5v52l196 43h31v-380q0 -82 67 -82q44 0 98 24v281q0 25 -8.5 38.5t-33.5 18.5l-14 5v52l194 43h32v-418q0 -27 8.5 -39.5t32.5 -13.5h24v-62l-201 -33h-34z" />
    <glyph glyph-name="yacute" unicode="&#xfd;" horiz-adv-x="610" 
d="M272 -2l-210 448q-7 15 -18 22.5t-39 17.5v60h316v-60q-41 -6 -55 -12.5t-14 -23.5q0 -11 10 -36l94 -229l93 229q10 26 10 36q0 17 -13 24t-54 12v60h213v-60q-29 -10 -39.5 -17t-17.5 -23l-229 -525q-29 -67 -64 -98t-85 -31q-59 0 -84 39v85h58q55 0 78.5 11t41.5 52z
M366 765h170l-154 -162h-85z" />
    <glyph glyph-name="thorn" unicode="&#xfe;" horiz-adv-x="649" 
d="M242 430v-265q0 -111 82 -111q55 0 87 54t32 142q0 92 -34.5 146t-94.5 54q-41 0 -72 -20zM73 -79v711l-59 54v34l196 41h32v-300q54 95 161 95q98 0 155 -68t57 -187q0 -142 -79 -226.5t-200 -84.5q-64 0 -95 29v-98q0 -32 13.5 -42t50.5 -15v-61h-297v61q38 5 51.5 15
t13.5 42z" />
    <glyph glyph-name="ydieresis" unicode="&#xff;" horiz-adv-x="610" 
d="M272 -2l-210 448q-7 15 -18 22.5t-39 17.5v60h316v-60q-41 -6 -55 -12.5t-14 -23.5q0 -11 10 -36l94 -229l93 229q10 26 10 36q0 17 -13 24t-54 12v60h213v-60q-29 -10 -39.5 -17t-17.5 -23l-229 -525q-29 -67 -64 -98t-85 -31q-59 0 -84 39v85h58q55 0 78.5 11t41.5 52z
M157 688q0 34 24.5 58.5t58.5 24.5t59 -24.5t25 -58.5t-25 -58.5t-59 -24.5t-58.5 24.5t-24.5 58.5zM371 688q0 34 24.5 58.5t57.5 24.5q36 0 60.5 -24.5t24.5 -58.5t-24.5 -58.5t-60.5 -24.5q-33 0 -57.5 24.5t-24.5 58.5z" />
    <glyph glyph-name="Amacron" unicode="&#x100;" horiz-adv-x="751" 
d="M477 147l-29 70h-254l-27 -70q-10 -30 -10 -40q0 -24 14.5 -33t60.5 -11v-63h-225v63q24 4 36.5 11.5t20.5 25.5l212 527l-34 78h186l258 -605q8 -18 21 -25.5t37 -11.5v-63h-331v63q45 2 60 11.5t15 32.5q0 16 -11 40zM196 763v97h310v-97h-310zM319 535l-100 -254h203z
" />
    <glyph glyph-name="amacron" unicode="&#x101;" horiz-adv-x="580" 
d="M267 94q32 0 61 19v168l-76 -30q-51 -20 -51 -76q0 -38 17.5 -59.5t48.5 -21.5zM495 348q0 -5 -0.5 -102t-0.5 -104q0 -55 33 -55q22 0 43 6l8 -45q-60 -58 -137 -58q-81 0 -110 91q-65 -88 -160 -88q-64 0 -102 38t-38 102q0 60 36 92t100 54l161 56v59q0 56 -14.5 80
t-50.5 24q-57 0 -57 -65q0 -34 8 -65l-111 -17q-38 16 -38 67q0 68 58.5 103t156.5 35q109 0 162 -46.5t53 -161.5zM137 625v93h298v-93h-298z" />
    <glyph glyph-name="Abreve" unicode="&#x102;" horiz-adv-x="751" 
d="M477 147l-29 70h-254l-27 -70q-10 -30 -10 -40q0 -24 14.5 -33t60.5 -11v-63h-225v63q24 4 36.5 11.5t20.5 25.5l212 527l-34 78h186l258 -605q8 -18 21 -25.5t37 -11.5v-63h-331v63q45 2 60 11.5t15 32.5q0 16 -11 40zM351 748q-74 0 -116 44.5t-42 123.5h64
q5 -43 32 -62t62 -19t62 19t32 62h64q0 -79 -42 -123.5t-116 -44.5zM319 535l-100 -254h203z" />
    <glyph glyph-name="abreve" unicode="&#x103;" horiz-adv-x="580" 
d="M267 94q32 0 61 19v168l-76 -30q-51 -20 -51 -76q0 -38 17.5 -59.5t48.5 -21.5zM495 348q0 -5 -0.5 -102t-0.5 -104q0 -55 33 -55q22 0 43 6l8 -45q-60 -58 -137 -58q-81 0 -110 91q-65 -88 -160 -88q-64 0 -102 38t-38 102q0 60 36 92t100 54l161 56v59q0 56 -14.5 80
t-50.5 24q-57 0 -57 -65q0 -34 8 -65l-111 -17q-38 16 -38 67q0 68 58.5 103t156.5 35q109 0 162 -46.5t53 -161.5zM281 601q-73 0 -114 45t-41 125h64q6 -44 31 -63.5t60 -19.5t60.5 19.5t31.5 63.5h64q0 -80 -41 -125t-115 -45z" />
    <glyph glyph-name="Aogonek" unicode="&#x104;" horiz-adv-x="751" 
d="M477 147l-29 70h-254l-27 -70q-10 -30 -10 -40q0 -24 14.5 -33t60.5 -11v-63h-225v63q24 4 36.5 11.5t20.5 25.5l212 527l-34 78h186l258 -605q8 -18 21 -25.5t37 -11.5v-63h-298q-59 -33 -59 -84q0 -53 46 -53q39 0 75 23l17 -26q-64 -73 -137 -73q-41 0 -70 27t-29 73
q0 45 30.5 81t98.5 68q40 19 55 33.5t15 37.5q0 16 -11 40zM319 535l-100 -254h203z" />
    <glyph glyph-name="aogonek" unicode="&#x105;" horiz-adv-x="580" 
d="M495 348q0 -5 -0.5 -102t-0.5 -104q0 -55 33 -55q22 0 43 6l8 -45q-9 -5 -43 -24.5t-45.5 -27.5t-32 -24.5t-28 -32.5t-7.5 -35q0 -41 44 -41q39 0 74 23l18 -26q-67 -75 -142 -75q-40 0 -67.5 22.5t-27.5 61.5q0 72 90 126q-59 15 -80 86q-65 -88 -160 -88
q-64 0 -102 38t-38 102q0 60 36 92t100 54l161 56v59q0 56 -14.5 80t-50.5 24q-57 0 -57 -65q0 -34 8 -65l-111 -17q-38 16 -38 67q0 68 58.5 103t156.5 35q109 0 162 -46.5t53 -161.5zM267 94q32 0 61 19v168l-76 -30q-51 -20 -51 -76q0 -38 17.5 -59.5t48.5 -21.5z" />
    <glyph glyph-name="Cacute" unicode="&#x106;" horiz-adv-x="699" 
d="M412 63q63 0 99.5 42.5t64.5 136.5h85l-18 -188q-98 -64 -248 -64q-167 0 -263 96t-96 251q0 169 104 272t260 103q152 0 235 -72v-161h-84q-20 82 -56 123t-98 41q-60 0 -99.5 -40.5t-54.5 -100t-15 -136.5q0 -138 47.5 -220.5t136.5 -82.5zM411 909h172l-156 -156h-89z
" />
    <glyph glyph-name="cacute" unicode="&#x107;" horiz-adv-x="535" 
d="M319 765h170l-154 -162h-85zM187 323q0 -94 39.5 -149.5t113.5 -55.5q84 0 140 75l31 -21q-49 -182 -231 -182q-108 0 -177 72t-69 191q0 131 77 217t203 86q81 0 135.5 -37.5t54.5 -103.5q0 -57 -42 -75h-88v49q0 100 -73 100q-48 0 -81 -45t-33 -121z" />
    <glyph glyph-name="Ccircumflex" unicode="&#x108;" horiz-adv-x="699" 
d="M412 63q63 0 99.5 42.5t64.5 136.5h85l-18 -188q-98 -64 -248 -64q-167 0 -263 96t-96 251q0 169 104 272t260 103q152 0 235 -72v-161h-84q-20 82 -56 123t-98 41q-60 0 -99.5 -40.5t-54.5 -100t-15 -136.5q0 -138 47.5 -220.5t136.5 -82.5zM455 918l141 -167h-86
l-116 82l-116 -82h-86l141 167h122z" />
    <glyph glyph-name="ccircumflex" unicode="&#x109;" horiz-adv-x="535" 
d="M359 766l139 -170h-86l-114 85l-114 -85h-86l139 170h122zM187 323q0 -94 39.5 -149.5t113.5 -55.5q84 0 140 75l31 -21q-49 -182 -231 -182q-108 0 -177 72t-69 191q0 131 77 217t203 86q81 0 135.5 -37.5t54.5 -103.5q0 -57 -42 -75h-88v49q0 100 -73 100
q-48 0 -81 -45t-33 -121z" />
    <glyph glyph-name="Cdotaccent" unicode="&#x10a;" horiz-adv-x="699" 
d="M395 748q-42 0 -68.5 26t-26.5 63t26.5 63.5t68.5 26.5t68.5 -26.5t26.5 -63.5t-26.5 -63t-68.5 -26zM412 63q63 0 99.5 42.5t64.5 136.5h85l-18 -188q-98 -64 -248 -64q-167 0 -263 96t-96 251q0 169 104 272t260 103q152 0 235 -72v-161h-84q-20 82 -56 123t-98 41
q-60 0 -99.5 -40.5t-54.5 -100t-15 -136.5q0 -138 47.5 -220.5t136.5 -82.5z" />
    <glyph glyph-name="cdotaccent" unicode="&#x10b;" horiz-adv-x="535" 
d="M187 323q0 -94 39.5 -149.5t113.5 -55.5q84 0 140 75l31 -21q-49 -182 -231 -182q-108 0 -177 72t-69 191q0 131 77 217t203 86q81 0 135.5 -37.5t54.5 -103.5q0 -57 -42 -75h-88v49q0 100 -73 100q-48 0 -81 -45t-33 -121zM299 601q-43 0 -69.5 26t-26.5 63t26.5 63
t69.5 26q42 0 68 -26t26 -63t-26 -63t-68 -26z" />
    <glyph glyph-name="Ccaron" unicode="&#x10c;" horiz-adv-x="699" 
d="M412 63q63 0 99.5 42.5t64.5 136.5h85l-18 -188q-98 -64 -248 -64q-167 0 -263 96t-96 251q0 169 104 272t260 103q152 0 235 -72v-161h-84q-20 82 -56 123t-98 41q-60 0 -99.5 -40.5t-54.5 -100t-15 -136.5q0 -138 47.5 -220.5t136.5 -82.5zM596 921l-141 -167h-122
l-141 167h86l116 -82l116 82h86z" />
    <glyph glyph-name="ccaron" unicode="&#x10d;" horiz-adv-x="535" 
d="M498 774l-139 -170h-122l-139 170h86l114 -85l114 85h86zM187 323q0 -94 39.5 -149.5t113.5 -55.5q84 0 140 75l31 -21q-49 -182 -231 -182q-108 0 -177 72t-69 191q0 131 77 217t203 86q81 0 135.5 -37.5t54.5 -103.5q0 -57 -42 -75h-88v49q0 100 -73 100q-48 0 -81 -45
t-33 -121z" />
    <glyph glyph-name="Dcaron" unicode="&#x10e;" horiz-adv-x="793" 
d="M593 921l-141 -167h-122l-141 167h86l116 -82l116 82h86zM328 635h-35v-498q0 -42 16.5 -56t58.5 -14h11q188 0 188 284q0 130 -61.5 207t-177.5 77zM32 639v63h321q194 0 299.5 -90t105.5 -248q0 -171 -101 -267.5t-272 -96.5h-353v63q51 2 67 15t16 54v438q0 41 -16 54
t-67 15z" />
    <glyph glyph-name="dcaron" unicode="&#x10f;" horiz-adv-x="680" 
d="M801 765l-91 -205h-68l15 205h144zM407 -10v96q-56 -96 -166 -96q-93 0 -150 68.5t-57 186.5q0 142 77.5 223.5t198.5 81.5q67 0 97 -30v112l-59 54v34l197 41h31v-623q0 -27 8.5 -39.5t32.5 -13.5h25v-62l-202 -33h-33zM325 488q-56 0 -87.5 -53t-31.5 -140
q0 -91 34.5 -145t95.5 -54q38 0 71 20v265q0 55 -19.5 81t-62.5 26z" />
    <glyph glyph-name="Dcroat" unicode="&#x110;" horiz-adv-x="801" 
d="M39 329v66h84v175q0 41 -16 54t-67 15v63h321q194 0 299.5 -90t105.5 -248q0 -171 -101 -267.5t-272 -96.5h-353v63q51 2 67 15t16 54v197h-84zM336 635h-35v-240h131v-66h-131v-192q0 -42 16.5 -56t58.5 -14h11q188 0 188 284q0 130 -61.5 207t-177.5 77z" />
    <glyph glyph-name="dcroat" unicode="&#x111;" horiz-adv-x="670" 
d="M642 578h-66v-440q0 -27 8.5 -39.5t32.5 -13.5h25v-62l-202 -33h-33v96q-56 -96 -166 -96q-93 0 -150 68.5t-57 186.5q0 138 76.5 212.5t185.5 74.5q80 0 111 -38v84h-123v49h123v56h-59v43l197 35h31v-134h66v-49zM325 470q-57 0 -88 -45t-31 -130q0 -91 34.5 -145
t95.5 -54q38 0 71 20v247q0 55 -19.5 81t-62.5 26z" />
    <glyph glyph-name="Emacron" unicode="&#x112;" horiz-adv-x="678" 
d="M195 763v97h310v-97h-310zM518 247h-60q-8 45 -23.5 62.5t-48.5 17.5h-93v-195q0 -39 19.5 -53t64.5 -14h40q53 0 84 27.5t83 109.5h66l-31 -202h-587v63q51 2 67 15t16 54v438q0 41 -16 54t-67 15v63h582v-187h-68q-26 68 -53.5 95t-83.5 27h-116v-242h93
q33 0 48.5 17.5t23.5 62.5h60v-228z" />
    <glyph glyph-name="emacron" unicode="&#x113;" horiz-adv-x="553" 
d="M301 556q103 0 159.5 -64.5t56.5 -163.5v-37h-333q0 -78 44 -124.5t114 -46.5q92 0 147 71l30 -19q-20 -84 -80 -133t-151 -49q-112 0 -183 72.5t-71 192.5q0 134 77 217.5t190 83.5zM284 491q-43 0 -67.5 -40t-30.5 -103h184q-1 66 -22.5 104.5t-63.5 38.5zM144 625v93
h298v-93h-298z" />
    <glyph glyph-name="Ebreve" unicode="&#x114;" horiz-adv-x="678" 
d="M350 748q-74 0 -116 44.5t-42 123.5h64q5 -43 32 -62t62 -19t62 19t32 62h64q0 -79 -42 -123.5t-116 -44.5zM518 247h-60q-8 45 -23.5 62.5t-48.5 17.5h-93v-195q0 -39 19.5 -53t64.5 -14h40q53 0 84 27.5t83 109.5h66l-31 -202h-587v63q51 2 67 15t16 54v438
q0 41 -16 54t-67 15v63h582v-187h-68q-26 68 -53.5 95t-83.5 27h-116v-242h93q33 0 48.5 17.5t23.5 62.5h60v-228z" />
    <glyph glyph-name="ebreve" unicode="&#x115;" horiz-adv-x="553" 
d="M301 556q103 0 159.5 -64.5t56.5 -163.5v-37h-333q0 -78 44 -124.5t114 -46.5q92 0 147 71l30 -19q-20 -84 -80 -133t-151 -49q-112 0 -183 72.5t-71 192.5q0 134 77 217.5t190 83.5zM284 491q-43 0 -67.5 -40t-30.5 -103h184q-1 66 -22.5 104.5t-63.5 38.5zM293 601
q-73 0 -114 45t-41 125h64q6 -44 31 -63.5t60 -19.5t60.5 19.5t31.5 63.5h64q0 -80 -41 -125t-115 -45z" />
    <glyph glyph-name="Edotaccent" unicode="&#x116;" horiz-adv-x="678" 
d="M351 748q-42 0 -68.5 26t-26.5 63t26.5 63.5t68.5 26.5t68.5 -26.5t26.5 -63.5t-26.5 -63t-68.5 -26zM518 247h-60q-8 45 -23.5 62.5t-48.5 17.5h-93v-195q0 -39 19.5 -53t64.5 -14h40q53 0 84 27.5t83 109.5h66l-31 -202h-587v63q51 2 67 15t16 54v438q0 41 -16 54
t-67 15v63h582v-187h-68q-26 68 -53.5 95t-83.5 27h-116v-242h93q33 0 48.5 17.5t23.5 62.5h60v-228z" />
    <glyph glyph-name="edotaccent" unicode="&#x117;" horiz-adv-x="553" 
d="M301 556q103 0 159.5 -64.5t56.5 -163.5v-37h-333q0 -78 44 -124.5t114 -46.5q92 0 147 71l30 -19q-20 -84 -80 -133t-151 -49q-112 0 -183 72.5t-71 192.5q0 134 77 217.5t190 83.5zM284 491q-43 0 -67.5 -40t-30.5 -103h184q-1 66 -22.5 104.5t-63.5 38.5zM293 601
q-43 0 -69.5 26t-26.5 63t26.5 63t69.5 26q42 0 68 -26t26 -63t-26 -63t-68 -26z" />
    <glyph glyph-name="Eogonek" unicode="&#x118;" horiz-adv-x="678" 
d="M518 247h-60q-8 45 -23.5 62.5t-48.5 17.5h-93v-195q0 -39 19.5 -53t64.5 -14h40q53 0 84 27.5t83 109.5h66l-31 -202h-80q-72 -42 -72 -96q0 -41 45 -41q38 0 74 23l18 -26q-67 -75 -142 -75q-40 0 -67.5 22.5t-27.5 61.5q0 76 99 131h-434v63q51 2 67 15t16 54v438
q0 41 -16 54t-67 15v63h582v-187h-68q-26 68 -53.5 95t-83.5 27h-116v-242h93q33 0 48.5 17.5t23.5 62.5h60v-228z" />
    <glyph glyph-name="eogonek" unicode="&#x119;" horiz-adv-x="553" 
d="M301 556q103 0 159.5 -64.5t56.5 -163.5v-37h-333q0 -78 44 -124.5t114 -46.5q92 0 147 71l30 -19q-29 -121 -131 -163q-83 -46 -83 -105q0 -41 44 -41q39 0 75 23l17 -26q-65 -75 -142 -75q-40 0 -67 23t-27 61q0 69 79 121q-111 2 -180.5 74t-69.5 191q0 134 77 217.5
t190 83.5zM284 491q-43 0 -67.5 -40t-30.5 -103h184q-1 66 -22.5 104.5t-63.5 38.5z" />
    <glyph glyph-name="Ecaron" unicode="&#x11a;" horiz-adv-x="678" 
d="M552 921l-141 -167h-122l-141 167h86l116 -82l116 82h86zM518 247h-60q-8 45 -23.5 62.5t-48.5 17.5h-93v-195q0 -39 19.5 -53t64.5 -14h40q53 0 84 27.5t83 109.5h66l-31 -202h-587v63q51 2 67 15t16 54v438q0 41 -16 54t-67 15v63h582v-187h-68q-26 68 -53.5 95
t-83.5 27h-116v-242h93q33 0 48.5 17.5t23.5 62.5h60v-228z" />
    <glyph glyph-name="ecaron" unicode="&#x11b;" horiz-adv-x="553" 
d="M493 774l-139 -170h-122l-139 170h86l114 -85l114 85h86zM301 556q103 0 159.5 -64.5t56.5 -163.5v-37h-333q0 -78 44 -124.5t114 -46.5q92 0 147 71l30 -19q-20 -84 -80 -133t-151 -49q-112 0 -183 72.5t-71 192.5q0 134 77 217.5t190 83.5zM284 491q-43 0 -67.5 -40
t-30.5 -103h184q-1 66 -22.5 104.5t-63.5 38.5z" />
    <glyph glyph-name="Gcircumflex" unicode="&#x11c;" horiz-adv-x="760" 
d="M36 337q0 168 107 271.5t261 103.5q151 0 236 -72v-161h-84q-21 81 -57.5 122.5t-97.5 41.5q-60 0 -100.5 -40.5t-57.5 -101t-17 -135.5q0 -140 45.5 -221.5t144.5 -81.5q44 0 77 17v131q0 39 -16 52t-65 15v64h324v-64q-49 -1 -64.5 -14t-15.5 -53v-148
q-99 -72 -264 -72q-170 0 -263 95.5t-93 250.5zM461 918l141 -167h-86l-116 82l-116 -82h-86l141 167h122z" />
    <glyph glyph-name="gcircumflex" unicode="&#x11d;" horiz-adv-x="586" 
d="M280 195q-60 0 -105 15q-29 -32 -29 -52q0 -23 27 -23h238q83 0 126 -37.5t43 -105.5q0 -93 -83.5 -146t-222.5 -53q-121 0 -187.5 30t-66.5 88q0 35 26.5 56.5t63.5 30.5q-70 26 -70 98q0 37 25.5 67t78.5 60q-95 45 -95 144q0 87 66.5 138t171.5 51q53 0 99 -14l184 8
v-87h-42l-83 18v-6q69 -34 69 -105q0 -81 -65.5 -128t-168.5 -47zM391 -24h-255q-11 -12 -11 -37q0 -44 41 -66t114 -22q169 0 169 83q0 42 -58 42zM362 766l139 -170h-86l-114 85l-114 -85h-86l139 170h122zM287 249q64 0 64 112q0 62 -20 101t-57 39q-64 0 -64 -112
q0 -61 20 -100.5t57 -39.5z" />
    <glyph glyph-name="Gbreve" unicode="&#x11e;" horiz-adv-x="760" 
d="M398 748q-74 0 -116 44.5t-42 123.5h64q5 -43 32 -62t62 -19t62 19t32 62h64q0 -79 -42 -123.5t-116 -44.5zM36 337q0 168 107 271.5t261 103.5q151 0 236 -72v-161h-84q-21 81 -57.5 122.5t-97.5 41.5q-60 0 -100.5 -40.5t-57.5 -101t-17 -135.5q0 -140 45.5 -221.5
t144.5 -81.5q44 0 77 17v131q0 39 -16 52t-65 15v64h324v-64q-49 -1 -64.5 -14t-15.5 -53v-148q-99 -72 -264 -72q-170 0 -263 95.5t-93 250.5z" />
    <glyph glyph-name="gbreve" unicode="&#x11f;" horiz-adv-x="586" 
d="M280 195q-60 0 -105 15q-29 -32 -29 -52q0 -23 27 -23h238q83 0 126 -37.5t43 -105.5q0 -93 -83.5 -146t-222.5 -53q-121 0 -187.5 30t-66.5 88q0 35 26.5 56.5t63.5 30.5q-70 26 -70 98q0 37 25.5 67t78.5 60q-95 45 -95 144q0 87 66.5 138t171.5 51q53 0 99 -14l184 8
v-87h-42l-83 18v-6q69 -34 69 -105q0 -81 -65.5 -128t-168.5 -47zM391 -24h-255q-11 -12 -11 -37q0 -44 41 -66t114 -22q169 0 169 83q0 42 -58 42zM300 601q-73 0 -114 45t-41 125h64q6 -44 31 -63.5t60 -19.5t60.5 19.5t31.5 63.5h64q0 -80 -41 -125t-115 -45zM287 249
q64 0 64 112q0 62 -20 101t-57 39q-64 0 -64 -112q0 -61 20 -100.5t57 -39.5z" />
    <glyph glyph-name="Gdotaccent" unicode="&#x120;" horiz-adv-x="760" 
d="M401 748q-42 0 -68.5 26t-26.5 63t26.5 63.5t68.5 26.5t68.5 -26.5t26.5 -63.5t-26.5 -63t-68.5 -26zM36 337q0 168 107 271.5t261 103.5q151 0 236 -72v-161h-84q-21 81 -57.5 122.5t-97.5 41.5q-60 0 -100.5 -40.5t-57.5 -101t-17 -135.5q0 -140 45.5 -221.5
t144.5 -81.5q44 0 77 17v131q0 39 -16 52t-65 15v64h324v-64q-49 -1 -64.5 -14t-15.5 -53v-148q-99 -72 -264 -72q-170 0 -263 95.5t-93 250.5z" />
    <glyph glyph-name="gdotaccent" unicode="&#x121;" horiz-adv-x="586" 
d="M280 195q-60 0 -105 15q-29 -32 -29 -52q0 -23 27 -23h238q83 0 126 -37.5t43 -105.5q0 -93 -83.5 -146t-222.5 -53q-121 0 -187.5 30t-66.5 88q0 35 26.5 56.5t63.5 30.5q-70 26 -70 98q0 37 25.5 67t78.5 60q-95 45 -95 144q0 87 66.5 138t171.5 51q53 0 99 -14l184 8
v-87h-42l-83 18v-6q69 -34 69 -105q0 -81 -65.5 -128t-168.5 -47zM391 -24h-255q-11 -12 -11 -37q0 -44 41 -66t114 -22q169 0 169 83q0 42 -58 42zM287 249q64 0 64 112q0 62 -20 101t-57 39q-64 0 -64 -112q0 -61 20 -100.5t57 -39.5zM302 601q-43 0 -69.5 26t-26.5 63
t26.5 63t69.5 26q42 0 68 -26t26 -63t-26 -63t-68 -26z" />
    <glyph glyph-name="Gcommaaccent" unicode="&#x122;" horiz-adv-x="760" 
d="M425 -157h-57q-48 13 -48 59q0 27 21.5 44.5t58.5 17.5q44 0 69 -26t25 -68q0 -53 -40 -84.5t-127 -31.5v43q95 0 98 46zM36 337q0 168 107 271.5t261 103.5q151 0 236 -72v-161h-84q-21 81 -57.5 122.5t-97.5 41.5q-60 0 -100.5 -40.5t-57.5 -101t-17 -135.5
q0 -140 45.5 -221.5t144.5 -81.5q44 0 77 17v131q0 39 -16 52t-65 15v64h324v-64q-49 -1 -64.5 -14t-15.5 -53v-148q-99 -72 -264 -72q-170 0 -263 95.5t-93 250.5z" />
    <glyph glyph-name="gcommaaccent" unicode="&#x123;" horiz-adv-x="586" 
d="M280 195q-60 0 -105 15q-29 -32 -29 -52q0 -23 27 -23h238q83 0 126 -37.5t43 -105.5q0 -93 -83.5 -146t-222.5 -53q-121 0 -187.5 30t-66.5 88q0 35 26.5 56.5t63.5 30.5q-70 26 -70 98q0 37 25.5 67t78.5 60q-95 45 -95 144q0 87 66.5 138t171.5 51q53 0 99 -14l184 8
v-87h-42l-83 18v-6q69 -34 69 -105q0 -81 -65.5 -128t-168.5 -47zM391 -24h-255q-11 -12 -11 -37q0 -44 41 -66t114 -22q169 0 169 83q0 42 -58 42zM287 249q64 0 64 112q0 62 -20 101t-57 39q-64 0 -64 -112q0 -61 20 -100.5t57 -39.5zM283 718h57q49 -11 49 -59
q0 -27 -22 -44.5t-59 -17.5q-43 0 -68 26.5t-25 67.5q0 53 40 84.5t126 31.5v-42q-46 0 -71 -12.5t-27 -34.5z" />
    <glyph glyph-name="Hcircumflex" unicode="&#x124;" horiz-adv-x="858" 
d="M565 132v195h-272v-195q0 -40 16.5 -53.5t66.5 -15.5v-63h-344v63q51 2 67 15t16 54v438q0 41 -16 54t-67 15v63h344v-63q-50 -2 -66.5 -15.5t-16.5 -53.5v-175h272v175q0 41 -16.5 54t-66.5 15v63h345v-63q-51 -2 -67.5 -15t-16.5 -54v-438q0 -41 16.5 -54t67.5 -15v-63
h-345v63q50 2 66.5 15t16.5 54zM490 918l141 -167h-86l-116 82l-116 -82h-86l141 167h122z" />
    <glyph glyph-name="hcircumflex" unicode="&#x125;" horiz-adv-x="685" 
d="M257 761v-309q95 104 193 104q150 0 150 -164v-274q0 -32 13.5 -42t50.5 -15v-61h-293v61q36 5 48 14.5t12 42.5v258q0 36 -15.5 53t-52.5 17q-51 0 -106 -24v-304q0 -32 12 -42t48 -15v-61h-293v61q38 5 51 15t13 42v514l-59 54v34l198 41h30zM394 957l141 -167h-86
l-116 82l-116 -82h-86l141 167h122z" />
    <glyph glyph-name="Hbar" unicode="&#x126;" horiz-adv-x="874" 
d="M39 457v65h84v48q0 41 -16.5 54t-67.5 15v63h345v-63q-50 -2 -66.5 -15t-16.5 -54v-48h272v48q0 40 -16.5 53.5t-66.5 15.5v63h344v-63q-51 -2 -67 -15t-16 -54v-48h83v-65h-83v-325q0 -41 16 -54t67 -15v-63h-344v63q50 2 66.5 15.5t16.5 53.5v161h-272v-161
q0 -41 16.5 -54t66.5 -15v-63h-345v63q51 2 67.5 15t16.5 54v325h-84zM301 361h272v96h-272v-96z" />
    <glyph glyph-name="hbar" unicode="&#x127;" horiz-adv-x="691" 
d="M393 578h-130v-131q95 104 193 104q150 0 150 -164v-269q0 -32 13.5 -42t50.5 -15v-61h-293v61q36 5 48 14.5t12 42.5v253q0 36 -15.5 53t-52.5 17q-51 0 -106 -24v-299q0 -32 12 -42t48 -15v-61h-293v61q38 5 51 15t13 42v460h-59v49h59v56h-59v43l198 35h30v-134h130
v-49z" />
    <glyph glyph-name="Itilde" unicode="&#x128;" horiz-adv-x="408" 
d="M376 0h-344v63q51 2 67 15t16 54v438q0 41 -16 54t-67 15v63h344v-63q-51 -2 -67 -15t-16 -54v-438q0 -41 16 -54t67 -15v-63zM346 899l55 -12q-38 -88 -65.5 -115.5t-70.5 -27.5q-31 0 -76 31t-62 31q-20 0 -34 -13.5t-31 -42.5l-56 12q39 88 66 115.5t71 27.5
q35 0 78.5 -31.5t59.5 -31.5q20 0 33.5 13.5t31.5 43.5z" />
    <glyph glyph-name="itilde" unicode="&#x129;" horiz-adv-x="357" 
d="M313 767l55 -12q-38 -87 -64.5 -115t-65.5 -28q-27 0 -65 31t-52 31q-20 0 -33.5 -13.5t-31.5 -42.5l-55 11q38 88 64.5 116t66.5 28q24 0 46.5 -15.5t40 -31.5t29.5 -16q20 0 33.5 13.5t31.5 43.5zM267 557v-439q0 -32 13.5 -42t50.5 -15v-61h-297v61q37 5 50.5 15
t13.5 42v304l-59 55v29l196 51h32z" />
    <glyph glyph-name="Imacron" unicode="&#x12a;" horiz-adv-x="408" 
d="M376 0h-344v63q51 2 67 15t16 54v438q0 41 -16 54t-67 15v63h344v-63q-51 -2 -67 -15t-16 -54v-438q0 -41 16 -54t67 -15v-63zM49 763v97h310v-97h-310z" />
    <glyph glyph-name="imacron" unicode="&#x12b;" horiz-adv-x="357" 
d="M44 625v93h267v-93h-267zM267 557v-439q0 -32 13.5 -42t50.5 -15v-61h-297v61q37 5 50.5 15t13.5 42v304l-59 55v29l196 51h32z" />
    <glyph glyph-name="Ibreve" unicode="&#x12c;" horiz-adv-x="408" 
d="M376 0h-344v63q51 2 67 15t16 54v438q0 41 -16 54t-67 15v63h344v-63q-51 -2 -67 -15t-16 -54v-438q0 -41 16 -54t67 -15v-63zM204 748q-74 0 -116 44.5t-42 123.5h64q5 -43 32 -62t62 -19t62 19t32 62h64q0 -79 -42 -123.5t-116 -44.5z" />
    <glyph glyph-name="ibreve" unicode="&#x12d;" horiz-adv-x="357" 
d="M267 557v-439q0 -32 13.5 -42t50.5 -15v-61h-297v61q37 5 50.5 15t13.5 42v304l-59 55v29l196 51h32zM181 601q-73 0 -114 45t-41 125h64q6 -44 31 -63.5t60 -19.5t60.5 19.5t31.5 63.5h64q0 -80 -41 -125t-115 -45z" />
    <glyph glyph-name="Iogonek" unicode="&#x12e;" horiz-adv-x="408" 
d="M376 0h-118q-72 -42 -72 -96q0 -41 45 -41q38 0 74 23l18 -26q-67 -75 -142 -75q-40 0 -67.5 22.5t-27.5 61.5q0 76 99 131h-153v63q51 2 67 15t16 54v438q0 41 -16 54t-67 15v63h344v-63q-51 -2 -67 -15t-16 -54v-438q0 -41 16 -54t67 -15v-63z" />
    <glyph glyph-name="iogonek" unicode="&#x12f;" horiz-adv-x="357" 
d="M267 557v-439q0 -32 13.5 -42t50.5 -15v-61h-98q-72 -42 -72 -96q0 -41 45 -41q38 0 74 23l18 -26q-67 -75 -142 -75q-40 0 -67.5 22.5t-27.5 61.5q0 76 99 131h-126v61q37 5 50.5 15t13.5 42v304l-59 55v29l196 51h32zM180 597q-43 0 -69.5 26t-26.5 63t26.5 63t69.5 26
q42 0 68 -26t26 -63t-26 -63t-68 -26z" />
    <glyph glyph-name="Idotaccent" unicode="&#x130;" horiz-adv-x="408" 
d="M376 0h-344v63q51 2 67 15t16 54v438q0 41 -16 54t-67 15v63h344v-63q-51 -2 -67 -15t-16 -54v-438q0 -41 16 -54t67 -15v-63zM205 748q-42 0 -68.5 26t-26.5 63t26.5 63.5t68.5 26.5t68.5 -26.5t26.5 -63.5t-26.5 -63t-68.5 -26z" />
    <glyph glyph-name="dotlessi" unicode="&#x131;" horiz-adv-x="357" 
d="M267 557v-439q0 -32 13.5 -42t50.5 -15v-61h-297v61q37 5 50.5 15t13.5 42v304l-59 55v29l196 51h32z" />
    <glyph glyph-name="IJ" unicode="&#x132;" horiz-adv-x="1002" 
d="M376 0h-344v63q51 2 67 15t16 54v438q0 41 -16 54t-67 15v63h344v-63q-51 -2 -67 -15t-16 -54v-438q0 -41 16 -54t67 -15v-63zM900 570v-349q0 -231 -255 -231q-108 0 -168.5 38t-60.5 108q0 55 46 85h122v-49q0 -118 67 -118q40 0 55 33.5t15 103.5v379q0 41 -16 54
t-66 15v63h346v-63q-51 -2 -68 -15t-17 -54z" />
    <glyph glyph-name="ij" unicode="&#x133;" horiz-adv-x="669" 
d="M267 557v-439q0 -32 13.5 -42t50.5 -15v-61h-297v61q37 5 50.5 15t13.5 42v304l-59 55v29l196 51h32zM180 597q-43 0 -69.5 26t-26.5 63t26.5 63t69.5 26q42 0 68 -26t26 -63t-26 -63t-68 -26zM605 557v-434q0 -75 -15.5 -121.5t-47.5 -86.5q-62 -75 -150 -124l-34 32
l39 64q25 38 31.5 81.5t6.5 116.5v337l-58 55v29l197 51h31zM518 597q-42 0 -68.5 26t-26.5 63t26.5 63t68.5 26t68.5 -26t26.5 -63t-26.5 -63t-68.5 -26z" />
    <glyph glyph-name="Jcircumflex" unicode="&#x134;" horiz-adv-x="594" 
d="M492 570v-349q0 -231 -255 -231q-108 0 -168.5 38t-60.5 108q0 55 46 85h122v-49q0 -118 67 -118q40 0 55 33.5t15 103.5v379q0 41 -16 54t-66 15v63h346v-63q-51 -2 -68 -15t-17 -54zM453 918l141 -167h-86l-116 82l-116 -82h-86l141 167h122z" />
    <glyph glyph-name="jcircumflex" unicode="&#x135;" horiz-adv-x="312" 
d="M248 557v-434q0 -75 -15.5 -121.5t-47.5 -86.5q-62 -75 -150 -124l-34 32l39 64q25 38 31.5 81.5t6.5 116.5v337l-58 55v29l197 51h31zM222 766l139 -170h-86l-114 85l-114 -85h-86l139 170h122z" />
    <glyph glyph-name="Kcommaaccent" unicode="&#x136;" horiz-adv-x="775" 
d="M428 -157h-57q-48 13 -48 59q0 27 21.5 44.5t58.5 17.5q44 0 69 -26t25 -68q0 -53 -40 -84.5t-127 -31.5v43q95 0 98 46zM472 418l192 -282q29 -43 51.5 -58t55.5 -16v-62h-208q-41 26 -90 101l-170 256l217 208q28 26 28 44q0 29 -65 30v63h262v-63q-30 -1 -47 -9.5
t-40 -30.5zM115 132v438q0 41 -16 54t-67 15v63h344v-63q-49 -2 -65 -15t-16 -54v-438q0 -41 16 -54t65 -15v-63h-344v63q51 2 67 15t16 54z" />
    <glyph glyph-name="kcommaaccent" unicode="&#x137;" horiz-adv-x="644" 
d="M348 -157h-57q-48 13 -48 59q0 27 21.5 44.5t58.5 17.5q44 0 69 -26t25 -68q0 -53 -40 -84.5t-127 -31.5v43q95 0 98 46zM265 290l135 129q24 26 24 36q0 15 -13 20.5t-52 10.5v60h256v-60q-26 -7 -36.5 -10t-26 -11t-27.5 -19l-103 -100l213 -299v-47h-174zM257 761
v-643q0 -32 13.5 -42t50.5 -15v-61h-297v61q38 5 51 15t13 42v514l-59 54v34l198 41h30z" />
    <glyph glyph-name="kgreenlandic" unicode="&#x138;" horiz-adv-x="644" 
d="M265 290l135 129q24 26 24 36q0 15 -13 20.5t-52 10.5v60h256v-60q-26 -7 -36.5 -10t-26 -11t-27.5 -19l-103 -100l213 -299v-47h-174zM257 556v-438q0 -32 13.5 -42t50.5 -15v-61h-297v61q38 5 51 15t13 42v309l-59 54v34l198 41h30z" />
    <glyph glyph-name="Lacute" unicode="&#x139;" horiz-adv-x="652" 
d="M245 909h172l-156 -156h-89zM295 570v-436q0 -39 17.5 -53t62.5 -14h31q48 0 74 28t88 137h72l-37 -232h-571v63q51 2 67 15t16 54v438q0 40 -16 53t-67 15v64h344v-64q-49 -2 -65 -15t-16 -53z" />
    <glyph glyph-name="lacute" unicode="&#x13a;" horiz-adv-x="347" 
d="M193 947h172l-156 -156h-89zM256 761v-643q0 -32 13.5 -42t50.5 -15v-61h-296v61q38 5 51 15t13 42v514l-59 54v34l196 41h31z" />
    <glyph glyph-name="Lcommaaccent" unicode="&#x13b;" horiz-adv-x="652" 
d="M358 -157h-57q-48 13 -48 59q0 27 21.5 44.5t58.5 17.5q44 0 69 -26t25 -68q0 -53 -40 -84.5t-127 -31.5v43q95 0 98 46zM295 570v-436q0 -39 17.5 -53t62.5 -14h31q48 0 74 28t88 137h72l-37 -232h-571v63q51 2 67 15t16 54v438q0 40 -16 53t-67 15v64h344v-64
q-49 -2 -65 -15t-16 -53z" />
    <glyph glyph-name="lcommaaccent" unicode="&#x13c;" horiz-adv-x="347" 
d="M191 -157h-57q-48 13 -48 59q0 27 21.5 44.5t58.5 17.5q44 0 69 -26t25 -68q0 -53 -40 -84.5t-127 -31.5v43q95 0 98 46zM256 761v-643q0 -32 13.5 -42t50.5 -15v-61h-296v61q38 5 51 15t13 42v514l-59 54v34l196 41h31z" />
    <glyph glyph-name="Lcaron" unicode="&#x13d;" horiz-adv-x="652" 
d="M604 706l-91 -205h-68l15 205h144zM295 570v-436q0 -39 17.5 -53t62.5 -14h31q48 0 74 28t88 137h72l-37 -232h-571v63q51 2 67 15t16 54v438q0 40 -16 53t-67 15v64h344v-64q-49 -2 -65 -15t-16 -53z" />
    <glyph glyph-name="lcaron" unicode="&#x13e;" horiz-adv-x="360" 
d="M483 765l-91 -205h-68l15 205h144zM256 761v-643q0 -32 13.5 -42t50.5 -15v-61h-296v61q38 5 51 15t13 42v514l-59 54v34l196 41h31z" />
    <glyph glyph-name="Ldot" unicode="&#x13f;" horiz-adv-x="652" 
d="M295 570v-436q0 -39 17.5 -53t62.5 -14h31q48 0 74 28t88 137h72l-37 -232h-571v63q51 2 67 15t16 54v438q0 40 -16 53t-67 15v64h344v-64q-49 -2 -65 -15t-16 -53zM544 316q-43 0 -69.5 26t-26.5 63t26.5 63t69.5 26q42 0 68 -26t26 -63t-26 -63t-68 -26z" />
    <glyph glyph-name="ldot" unicode="&#x140;" horiz-adv-x="491" 
d="M256 761v-643q0 -32 13.5 -42t50.5 -15v-61h-296v61q38 5 51 15t13 42v514l-59 54v34l196 41h31zM415 295q-43 0 -69.5 26t-26.5 63t26.5 63t69.5 26q42 0 68 -26t26 -63t-26 -63t-68 -26z" />
    <glyph glyph-name="Lslash" unicode="&#x141;" horiz-adv-x="660" 
d="M303 570v-154l138 50v-69l-138 -50v-213q0 -39 17.5 -53t62.5 -14h31q48 0 74 28t88 137h72l-37 -232h-571v63q51 2 67 15t16 54v155l-84 -29v69l84 30v213q0 40 -16 53t-67 15v64h344v-64q-49 -2 -65 -15t-16 -53z" />
    <glyph glyph-name="lslash" unicode="&#x142;" horiz-adv-x="380" 
d="M273 761v-262l89 49v-71l-89 -49v-310q0 -32 13 -42t50 -15v-61h-296v61q38 5 51 15t13 42v229l-83 -46v71l83 45v215l-59 54v34l196 41h32z" />
    <glyph glyph-name="Nacute" unicode="&#x143;" horiz-adv-x="784" 
d="M419 909h172l-156 -156h-89zM115 132v455q-23 31 -38.5 40.5t-44.5 11.5v63h251l315 -409v277q0 40 -20 53.5t-71 15.5v63h257v-63q-50 -2 -66.5 -15t-16.5 -54v-570h-73l-409 513v-381q0 -40 19.5 -53.5t71.5 -15.5v-63h-258v63q51 2 67 15t16 54z" />
    <glyph glyph-name="nacute" unicode="&#x144;" horiz-adv-x="694" 
d="M377 765h170l-154 -162h-85zM440 118v258q0 36 -15 53t-52 17q-52 0 -106 -24v-304q0 -33 12 -42.5t48 -14.5v-61h-293v61q37 5 50.5 15t13.5 42v301l-59 54v33l196 54h32v-108q91 104 192 104q150 0 150 -164v-274q0 -32 13.5 -42t50.5 -15v-61h-292v61q36 5 47.5 14.5
t11.5 42.5z" />
    <glyph glyph-name="Ncommaaccent" unicode="&#x145;" horiz-adv-x="784" 
d="M416 -157h-57q-48 13 -48 59q0 27 21.5 44.5t58.5 17.5q44 0 69 -26t25 -68q0 -53 -40 -84.5t-127 -31.5v43q95 0 98 46zM115 132v455q-23 31 -38.5 40.5t-44.5 11.5v63h251l315 -409v277q0 40 -20 53.5t-71 15.5v63h257v-63q-50 -2 -66.5 -15t-16.5 -54v-570h-73
l-409 513v-381q0 -40 19.5 -53.5t71.5 -15.5v-63h-258v63q51 2 67 15t16 54z" />
    <glyph glyph-name="ncommaaccent" unicode="&#x146;" horiz-adv-x="694" 
d="M377 -157h-57q-48 13 -48 59q0 27 21.5 44.5t58.5 17.5q44 0 69 -26t25 -68q0 -53 -40 -84.5t-127 -31.5v43q95 0 98 46zM440 118v258q0 36 -15 53t-52 17q-52 0 -106 -24v-304q0 -33 12 -42.5t48 -14.5v-61h-293v61q37 5 50.5 15t13.5 42v301l-59 54v33l196 54h32v-108
q91 104 192 104q150 0 150 -164v-274q0 -32 13.5 -42t50.5 -15v-61h-292v61q36 5 47.5 14.5t11.5 42.5z" />
    <glyph glyph-name="Ncaron" unicode="&#x147;" horiz-adv-x="784" 
d="M599 921l-141 -167h-122l-141 167h86l116 -82l116 82h86zM115 132v455q-23 31 -38.5 40.5t-44.5 11.5v63h251l315 -409v277q0 40 -20 53.5t-71 15.5v63h257v-63q-50 -2 -66.5 -15t-16.5 -54v-570h-73l-409 513v-381q0 -40 19.5 -53.5t71.5 -15.5v-63h-258v63q51 2 67 15
t16 54z" />
    <glyph glyph-name="ncaron" unicode="&#x148;" horiz-adv-x="694" 
d="M558 774l-139 -170h-122l-139 170h86l114 -85l114 85h86zM440 118v258q0 36 -15 53t-52 17q-52 0 -106 -24v-304q0 -33 12 -42.5t48 -14.5v-61h-293v61q37 5 50.5 15t13.5 42v301l-59 54v33l196 54h32v-108q91 104 192 104q150 0 150 -164v-274q0 -32 13.5 -42t50.5 -15
v-61h-292v61q36 5 47.5 14.5t11.5 42.5z" />
    <glyph glyph-name="Eng" unicode="&#x14a;" horiz-adv-x="784" 
d="M537 84l-338 429v-381q0 -40 19.5 -53.5t71.5 -15.5v-63h-258v63q51 2 67 15t16 54v455q-23 31 -38.5 40.5t-44.5 11.5v63h251l315 -409v277q0 40 -20 53.5t-71 15.5v63h257v-63q-50 -2 -66.5 -15t-16.5 -54v-447q0 -76 -15 -122t-47 -86q-64 -78 -147 -124l-33 32l38 57
q60 85 60 204z" />
    <glyph glyph-name="eng" unicode="&#x14b;" horiz-adv-x="674" 
d="M440 85v291q0 36 -15 53t-52 17q-52 0 -106 -24v-304q0 -33 12 -42.5t48 -14.5v-61h-293v61q37 5 50.5 15t13.5 42v301l-59 54v33l196 54h32v-108q91 104 192 104q150 0 150 -164v-269q0 -75 -15.5 -121.5t-47.5 -86.5q-62 -75 -150 -124l-34 32l40 64q24 38 31 82t7 116
z" />
    <glyph glyph-name="Omacron" unicode="&#x14c;" horiz-adv-x="762" 
d="M233 763v97h310v-97h-310zM393 60q73 0 108.5 77t35.5 201q0 138 -42 221t-126 83q-73 0 -108.5 -77t-35.5 -201q0 -138 42 -221t126 -83zM389 712q157 0 247.5 -100.5t90.5 -246.5q0 -170 -100 -272.5t-254 -102.5q-157 0 -247 100.5t-90 246.5q0 169 100 272t253 103z
" />
    <glyph glyph-name="omacron" unicode="&#x14d;" horiz-adv-x="624" 
d="M167 625v93h298v-93h-298zM321 57q45 0 70 52t25 138q0 106 -30 174.5t-83 68.5q-46 0 -71 -52.5t-25 -138.5q0 -106 30.5 -174t83.5 -68zM305 -10q-121 0 -196 77.5t-75 196.5q0 132 80.5 212t204.5 80q121 0 196 -77.5t75 -195.5q0 -132 -80.5 -212.5t-204.5 -80.5z
" />
    <glyph glyph-name="Obreve" unicode="&#x14e;" horiz-adv-x="762" 
d="M388 748q-74 0 -116 44.5t-42 123.5h64q5 -43 32 -62t62 -19t62 19t32 62h64q0 -79 -42 -123.5t-116 -44.5zM393 60q73 0 108.5 77t35.5 201q0 138 -42 221t-126 83q-73 0 -108.5 -77t-35.5 -201q0 -138 42 -221t126 -83zM389 712q157 0 247.5 -100.5t90.5 -246.5
q0 -170 -100 -272.5t-254 -102.5q-157 0 -247 100.5t-90 246.5q0 169 100 272t253 103z" />
    <glyph glyph-name="obreve" unicode="&#x14f;" horiz-adv-x="624" 
d="M321 57q45 0 70 52t25 138q0 106 -30 174.5t-83 68.5q-46 0 -71 -52.5t-25 -138.5q0 -106 30.5 -174t83.5 -68zM305 -10q-121 0 -196 77.5t-75 196.5q0 132 80.5 212t204.5 80q121 0 196 -77.5t75 -195.5q0 -132 -80.5 -212.5t-204.5 -80.5zM316 601q-73 0 -114 45
t-41 125h64q6 -44 31 -63.5t60 -19.5t60.5 19.5t31.5 63.5h64q0 -80 -41 -125t-115 -45z" />
    <glyph glyph-name="Ohungarumlaut" unicode="&#x150;" horiz-adv-x="762" 
d="M393 60q73 0 108.5 77t35.5 201q0 138 -42 221t-126 83q-73 0 -108.5 -77t-35.5 -201q0 -138 42 -221t126 -83zM389 712q157 0 247.5 -100.5t90.5 -246.5q0 -170 -100 -272.5t-254 -102.5q-157 0 -247 100.5t-90 246.5q0 169 100 272t253 103zM318 909h147l-136 -156h-78
zM504 909h147l-136 -156h-78z" />
    <glyph glyph-name="ohungarumlaut" unicode="&#x151;" horiz-adv-x="624" 
d="M246 765h147l-136 -162h-78zM432 765h147l-136 -162h-78zM321 57q45 0 70 52t25 138q0 106 -30 174.5t-83 68.5q-46 0 -71 -52.5t-25 -138.5q0 -106 30.5 -174t83.5 -68zM305 -10q-121 0 -196 77.5t-75 196.5q0 132 80.5 212t204.5 80q121 0 196 -77.5t75 -195.5
q0 -132 -80.5 -212.5t-204.5 -80.5z" />
    <glyph glyph-name="OE" unicode="&#x152;" horiz-adv-x="1047" 
d="M988 0h-548q-194 0 -299 90.5t-105 250.5q0 167 107 264t280 97h560v-187h-68q-26 68 -53.5 95t-84.5 27h-115v-242h93q33 0 48.5 17.5t23.5 62.5h59v-228h-59q-8 45 -23.5 62.5t-48.5 17.5h-93v-195q0 -39 19.5 -53t64.5 -14h40q52 0 83 27.5t83 109.5h67zM484 65v572
h-55q-93 0 -147.5 -72.5t-54.5 -213.5q0 -130 61 -208t178 -78h18z" />
    <glyph glyph-name="oe" unicode="&#x153;" horiz-adv-x="941" 
d="M319 556q115 0 190 -81q78 81 179 81q103 0 159.5 -64.5t56.5 -163.5v-37h-333q0 -78 44 -124.5t114 -46.5q93 0 147 71l30 -19q-19 -84 -79 -133t-152 -49q-111 0 -181 81q-83 -81 -189 -81q-121 0 -196 77.5t-75 196.5q0 132 80.5 212t204.5 80zM321 57q45 0 70 52
t25 138q0 106 -30 174.5t-83 68.5q-46 0 -71 -52.5t-25 -138.5q0 -106 30.5 -174t83.5 -68zM672 491q-44 0 -68 -40t-30 -103h183q-2 143 -85 143z" />
    <glyph glyph-name="Racute" unicode="&#x154;" horiz-adv-x="750" 
d="M323 635h-31v-279h30q81 0 119.5 35t38.5 108q0 66 -40.5 101t-116.5 35zM32 702h354q136 0 204 -53.5t68 -149.5q0 -67 -42.5 -114t-107.5 -63l125 -187q26 -41 49.5 -56t61.5 -16v-63h-212q-44 36 -84 106l-112 186h-44v-160q0 -41 15.5 -54t65.5 -15v-63h-341v63
q51 2 67 15t16 54v438q0 41 -16 53.5t-67 13.5v65zM386 909h172l-156 -156h-89z" />
    <glyph glyph-name="racute" unicode="&#x155;" horiz-adv-x="471" 
d="M290 765h170l-154 -162h-85zM267 560v-172q33 97 66 132.5t85 35.5q25 0 44 -12v-145h-24q-116 0 -171 -46v-236q0 -31 16 -40t67 -16v-61h-316v61q37 5 50.5 15t13.5 42v301l-59 54v33l195 54h33z" />
    <glyph glyph-name="Rcommaaccent" unicode="&#x156;" horiz-adv-x="750" 
d="M402 -157h-57q-48 13 -48 59q0 27 21.5 44.5t58.5 17.5q44 0 69 -26t25 -68q0 -53 -40 -84.5t-127 -31.5v43q95 0 98 46zM323 635h-31v-279h30q81 0 119.5 35t38.5 108q0 66 -40.5 101t-116.5 35zM32 702h354q136 0 204 -53.5t68 -149.5q0 -67 -42.5 -114t-107.5 -63
l125 -187q26 -41 49.5 -56t61.5 -16v-63h-212q-44 36 -84 106l-112 186h-44v-160q0 -41 15.5 -54t65.5 -15v-63h-341v63q51 2 67 15t16 54v438q0 41 -16 53.5t-67 13.5v65z" />
    <glyph glyph-name="rcommaaccent" unicode="&#x157;" horiz-adv-x="471" 
d="M212 -157h-57q-48 13 -48 59q0 27 21.5 44.5t58.5 17.5q44 0 69 -26t25 -68q0 -53 -40 -84.5t-127 -31.5v43q95 0 98 46zM267 560v-172q33 97 66 132.5t85 35.5q25 0 44 -12v-145h-24q-116 0 -171 -46v-236q0 -31 16 -40t67 -16v-61h-316v61q37 5 50.5 15t13.5 42v301
l-59 54v33l195 54h33z" />
    <glyph glyph-name="Rcaron" unicode="&#x158;" horiz-adv-x="750" 
d="M567 921l-141 -167h-122l-141 167h86l116 -82l116 82h86zM323 635h-31v-279h30q81 0 119.5 35t38.5 108q0 66 -40.5 101t-116.5 35zM32 702h354q136 0 204 -53.5t68 -149.5q0 -67 -42.5 -114t-107.5 -63l125 -187q26 -41 49.5 -56t61.5 -16v-63h-212q-44 36 -84 106
l-112 186h-44v-160q0 -41 15.5 -54t65.5 -15v-63h-341v63q51 2 67 15t16 54v438q0 41 -16 53.5t-67 13.5v65z" />
    <glyph glyph-name="rcaron" unicode="&#x159;" horiz-adv-x="471" 
d="M471 774l-139 -170h-122l-139 170h86l114 -85l114 85h86zM267 560v-172q33 97 66 132.5t85 35.5q25 0 44 -12v-145h-24q-116 0 -171 -46v-236q0 -31 16 -40t67 -16v-61h-316v61q37 5 50.5 15t13.5 42v301l-59 54v33l195 54h33z" />
    <glyph glyph-name="Sacute" unicode="&#x15a;" horiz-adv-x="602" 
d="M289 -10q-72 0 -135 19t-102 48l-10 167h87q22 -86 63 -127.5t110 -41.5q53 0 84 24.5t31 71.5q0 41 -30.5 64.5t-114.5 47.5q-118 33 -170.5 84t-52.5 143q0 102 69 162t182 60q136 0 221 -61v-153h-75q-23 73 -58 111.5t-100 38.5q-49 0 -76 -25t-27 -63
q0 -45 30.5 -68.5t113.5 -46.5q119 -33 175 -85t56 -149q0 -108 -76 -164.5t-195 -56.5zM328 909h172l-156 -156h-89z" />
    <glyph glyph-name="sacute" unicode="&#x15b;" horiz-adv-x="503" 
d="M274 765h170l-154 -162h-85zM249 -10q-122 0 -202 56l-6 124h76q27 -118 137 -118q40 0 64 16t24 46q0 32 -24.5 48.5t-93.5 32.5q-93 22 -137.5 64t-44.5 116q0 86 56 133.5t153 47.5q106 0 178 -46v-113h-74q-24 97 -111 97q-35 0 -54.5 -17t-19.5 -44q0 -30 23 -47
t88 -30q89 -19 137.5 -60t48.5 -119q0 -88 -57.5 -137.5t-160.5 -49.5z" />
    <glyph glyph-name="Scircumflex" unicode="&#x15c;" horiz-adv-x="602" 
d="M289 -10q-72 0 -135 19t-102 48l-10 167h87q22 -86 63 -127.5t110 -41.5q53 0 84 24.5t31 71.5q0 41 -30.5 64.5t-114.5 47.5q-118 33 -170.5 84t-52.5 143q0 102 69 162t182 60q136 0 221 -61v-153h-75q-23 73 -58 111.5t-100 38.5q-49 0 -76 -25t-27 -63
q0 -45 30.5 -68.5t113.5 -46.5q119 -33 175 -85t56 -149q0 -108 -76 -164.5t-195 -56.5zM367 918l141 -167h-86l-116 82l-116 -82h-86l141 167h122z" />
    <glyph glyph-name="scircumflex" unicode="&#x15d;" horiz-adv-x="503" 
d="M314 766l139 -170h-86l-114 85l-114 -85h-86l139 170h122zM249 -10q-122 0 -202 56l-6 124h76q27 -118 137 -118q40 0 64 16t24 46q0 32 -24.5 48.5t-93.5 32.5q-93 22 -137.5 64t-44.5 116q0 86 56 133.5t153 47.5q106 0 178 -46v-113h-74q-24 97 -111 97
q-35 0 -54.5 -17t-19.5 -44q0 -30 23 -47t88 -30q89 -19 137.5 -60t48.5 -119q0 -88 -57.5 -137.5t-160.5 -49.5z" />
    <glyph glyph-name="Scedilla" unicode="&#x15e;" horiz-adv-x="602" 
d="M198 -231l-10 46q115 0 115 41q0 33 -86 37l40 98q-131 9 -205 66l-10 167h87q22 -86 63 -127.5t110 -41.5q53 0 84 24.5t31 71.5q0 41 -30.5 64.5t-114.5 47.5q-118 33 -170.5 84t-52.5 143q0 102 69 162t182 60q136 0 221 -61v-153h-75q-23 73 -58 111.5t-100 38.5
q-49 0 -76 -25t-27 -63q0 -45 30.5 -68.5t113.5 -46.5q119 -33 175 -85t56 -149q0 -105 -71.5 -161t-185.5 -60l-12 -35q99 -8 99 -77q0 -52 -56 -80.5t-136 -28.5z" />
    <glyph glyph-name="scedilla" unicode="&#x15f;" horiz-adv-x="503" 
d="M148 -231l-10 46q115 0 115 41q0 33 -86 37l40 99q-97 9 -160 54l-6 124h76q27 -118 137 -118q40 0 64 16t24 46q0 32 -24.5 48.5t-93.5 32.5q-93 22 -137.5 64t-44.5 116q0 86 56 133.5t153 47.5q106 0 178 -46v-113h-74q-24 97 -111 97q-35 0 -54.5 -17t-19.5 -44
q0 -30 23 -47t88 -30q89 -19 137.5 -60t48.5 -119q0 -87 -56.5 -136t-157.5 -51l-12 -35q99 -8 99 -77q0 -52 -56 -80.5t-136 -28.5z" />
    <glyph glyph-name="Scaron" unicode="&#x160;" horiz-adv-x="602" 
d="M289 -10q-72 0 -135 19t-102 48l-10 167h87q22 -86 63 -127.5t110 -41.5q53 0 84 24.5t31 71.5q0 41 -30.5 64.5t-114.5 47.5q-118 33 -170.5 84t-52.5 143q0 102 69 162t182 60q136 0 221 -61v-153h-75q-23 73 -58 111.5t-100 38.5q-49 0 -76 -25t-27 -63
q0 -45 30.5 -68.5t113.5 -46.5q119 -33 175 -85t56 -149q0 -108 -76 -164.5t-195 -56.5zM503 921l-141 -167h-122l-141 167h86l116 -82l116 82h86z" />
    <glyph glyph-name="scaron" unicode="&#x161;" horiz-adv-x="503" 
d="M449 774l-139 -170h-122l-139 170h86l114 -85l114 85h86zM249 -10q-122 0 -202 56l-6 124h76q27 -118 137 -118q40 0 64 16t24 46q0 32 -24.5 48.5t-93.5 32.5q-93 22 -137.5 64t-44.5 116q0 86 56 133.5t153 47.5q106 0 178 -46v-113h-74q-24 97 -111 97
q-35 0 -54.5 -17t-19.5 -44q0 -30 23 -47t88 -30q89 -19 137.5 -60t48.5 -119q0 -88 -57.5 -137.5t-160.5 -49.5z" />
    <glyph glyph-name="Tcedilla" unicode="&#x162;" horiz-adv-x="704" 
d="M371 -157h-57q-48 13 -48 59q0 27 21.5 44.5t58.5 17.5q44 0 69 -26t25 -68q0 -53 -40 -84.5t-127 -31.5v43q95 0 98 46zM30 702h644l15 -231h-70q-19 47 -26.5 64t-22.5 44t-26.5 36t-30 16.5t-42.5 7.5h-31v-507q0 -40 18.5 -53.5t69.5 -15.5v-63h-354v63q52 2 71 15.5
t19 53.5v507h-32q-24 0 -42.5 -7.5t-30 -16.5t-26.5 -36t-22.5 -44t-26.5 -64h-69z" />
    <glyph glyph-name="tcedilla" unicode="&#x163;" horiz-adv-x="412" 
d="M227 -157h-57q-48 13 -48 59q0 27 21.5 44.5t58.5 17.5q44 0 69 -26t25 -68q0 -53 -40 -84.5t-127 -31.5v43q95 0 98 46zM247 670v-124h137v-71h-137v-316q0 -37 15.5 -53.5t50.5 -16.5q40 0 77 20l18 -46q-71 -73 -178 -73q-153 0 -153 151v334h-68v50q98 36 186 145h52
z" />
    <glyph glyph-name="Tcaron" unicode="&#x164;" horiz-adv-x="704" 
d="M554 921l-141 -167h-122l-141 167h86l116 -82l116 82h86zM30 702h644l15 -231h-70q-19 47 -26.5 64t-22.5 44t-26.5 36t-30 16.5t-42.5 7.5h-31v-507q0 -40 18.5 -53.5t69.5 -15.5v-63h-354v63q52 2 71 15.5t19 53.5v507h-32q-24 0 -42.5 -7.5t-30 -16.5t-26.5 -36
t-22.5 -44t-26.5 -64h-69z" />
    <glyph glyph-name="tcaron" unicode="&#x165;" horiz-adv-x="412" 
d="M458 817l-91 -205h-68l15 205h144zM247 670v-124h137v-71h-137v-316q0 -37 15.5 -53.5t50.5 -16.5q40 0 77 20l18 -46q-71 -73 -178 -73q-153 0 -153 151v334h-68v50q98 36 186 145h52z" />
    <glyph glyph-name="Tbar" unicode="&#x166;" horiz-adv-x="704" 
d="M30 702h644l15 -231h-70q-19 47 -26.5 64t-22.5 44t-26.5 36t-30 16.5t-42.5 7.5h-31v-240h105v-65h-105v-202q0 -40 18.5 -53.5t69.5 -15.5v-63h-354v63q52 2 71 15.5t19 53.5v202h-106v65h106v240h-32q-24 0 -42.5 -7.5t-30 -16.5t-26.5 -36t-22.5 -44t-26.5 -64h-69z
" />
    <glyph glyph-name="tbar" unicode="&#x167;" horiz-adv-x="453" 
d="M268 670v-124h137v-71h-137v-101h137v-67h-137v-148q0 -37 15.5 -53.5t50.5 -16.5q40 0 77 20l18 -46q-71 -73 -178 -73q-153 0 -153 151v166h-68v67h68v101h-68v50q98 36 186 145h52z" />
    <glyph glyph-name="Utilde" unicode="&#x168;" horiz-adv-x="773" 
d="M561 899l55 -12q-38 -88 -65.5 -115.5t-70.5 -27.5q-31 0 -76 31t-62 31q-20 0 -34 -13.5t-31 -42.5l-56 12q39 88 66 115.5t71 27.5q35 0 78.5 -31.5t59.5 -31.5q20 0 33.5 13.5t31.5 43.5zM280 570v-306q0 -177 141 -177q80 0 122 41.5t42 143.5v298q0 40 -19 53.5
t-71 15.5v63h261v-63q-51 -2 -67.5 -15.5t-16.5 -53.5v-325q0 -125 -77 -190t-197 -65q-143 0 -220.5 64.5t-77.5 191.5v324q0 41 -16 54t-66 15v63h343v-63q-49 -2 -65 -15t-16 -54z" />
    <glyph glyph-name="utilde" unicode="&#x169;" horiz-adv-x="675" 
d="M415 -10v98q-81 -98 -187 -98q-69 0 -108.5 42t-39.5 127v240q0 25 -8.5 38.5t-33.5 18.5l-15 5v52l196 43h31v-380q0 -82 67 -82q44 0 98 24v281q0 25 -8.5 38.5t-33.5 18.5l-14 5v52l194 43h32v-418q0 -27 8.5 -39.5t32.5 -13.5h24v-62l-201 -33h-34zM479 767l55 -12
q-38 -88 -65 -115.5t-71 -27.5q-31 0 -76 31t-62 31q-20 0 -34 -13.5t-31 -42.5l-56 11q39 89 66 116.5t71 27.5q35 0 78.5 -31.5t59.5 -31.5q20 0 33.5 13.5t31.5 43.5z" />
    <glyph glyph-name="Umacron" unicode="&#x16a;" horiz-adv-x="773" 
d="M264 763v97h310v-97h-310zM280 570v-306q0 -177 141 -177q80 0 122 41.5t42 143.5v298q0 40 -19 53.5t-71 15.5v63h261v-63q-51 -2 -67.5 -15.5t-16.5 -53.5v-325q0 -125 -77 -190t-197 -65q-143 0 -220.5 64.5t-77.5 191.5v324q0 41 -16 54t-66 15v63h343v-63
q-49 -2 -65 -15t-16 -54z" />
    <glyph glyph-name="umacron" unicode="&#x16b;" horiz-adv-x="675" 
d="M415 -10v98q-81 -98 -187 -98q-69 0 -108.5 42t-39.5 127v240q0 25 -8.5 38.5t-33.5 18.5l-15 5v52l196 43h31v-380q0 -82 67 -82q44 0 98 24v281q0 25 -8.5 38.5t-33.5 18.5l-14 5v52l194 43h32v-418q0 -27 8.5 -39.5t32.5 -13.5h24v-62l-201 -33h-34zM195 625v93h298
v-93h-298z" />
    <glyph glyph-name="Ubreve" unicode="&#x16c;" horiz-adv-x="773" 
d="M419 748q-74 0 -116 44.5t-42 123.5h64q5 -43 32 -62t62 -19t62 19t32 62h64q0 -79 -42 -123.5t-116 -44.5zM280 570v-306q0 -177 141 -177q80 0 122 41.5t42 143.5v298q0 40 -19 53.5t-71 15.5v63h261v-63q-51 -2 -67.5 -15.5t-16.5 -53.5v-325q0 -125 -77 -190
t-197 -65q-143 0 -220.5 64.5t-77.5 191.5v324q0 41 -16 54t-66 15v63h343v-63q-49 -2 -65 -15t-16 -54z" />
    <glyph glyph-name="ubreve" unicode="&#x16d;" horiz-adv-x="675" 
d="M415 -10v98q-81 -98 -187 -98q-69 0 -108.5 42t-39.5 127v240q0 25 -8.5 38.5t-33.5 18.5l-15 5v52l196 43h31v-380q0 -82 67 -82q44 0 98 24v281q0 25 -8.5 38.5t-33.5 18.5l-14 5v52l194 43h32v-418q0 -27 8.5 -39.5t32.5 -13.5h24v-62l-201 -33h-34zM343 601
q-73 0 -114 45t-41 125h64q6 -44 31 -63.5t60 -19.5t60.5 19.5t31.5 63.5h64q0 -80 -41 -125t-115 -45z" />
    <glyph glyph-name="Uring" unicode="&#x16e;" horiz-adv-x="773" 
d="M280 570v-306q0 -177 141 -177q80 0 122 41.5t42 143.5v298q0 40 -19 53.5t-71 15.5v63h261v-63q-51 -2 -67.5 -15.5t-16.5 -53.5v-325q0 -125 -77 -190t-197 -65q-143 0 -220.5 64.5t-77.5 191.5v324q0 41 -16 54t-66 15v63h343v-63q-49 -2 -65 -15t-16 -54zM310 839
q0 42 30.5 70.5t78.5 28.5t78.5 -28.5t30.5 -70.5t-30.5 -70.5t-78.5 -28.5t-78.5 28.5t-30.5 70.5zM466 839q0 20 -12.5 33t-34.5 13t-34.5 -13t-12.5 -33t12.5 -33t34.5 -13t34.5 13t12.5 33z" />
    <glyph glyph-name="uring" unicode="&#x16f;" horiz-adv-x="675" 
d="M235 694q0 42 30.5 70.5t78.5 28.5t78.5 -28.5t30.5 -70.5t-30.5 -70.5t-78.5 -28.5t-78.5 28.5t-30.5 70.5zM391 694q0 20 -12.5 33t-34.5 13t-34.5 -13t-12.5 -33t12.5 -33t34.5 -13t34.5 13t12.5 33zM415 -10v98q-81 -98 -187 -98q-69 0 -108.5 42t-39.5 127v240
q0 25 -8.5 38.5t-33.5 18.5l-15 5v52l196 43h31v-380q0 -82 67 -82q44 0 98 24v281q0 25 -8.5 38.5t-33.5 18.5l-14 5v52l194 43h32v-418q0 -27 8.5 -39.5t32.5 -13.5h24v-62l-201 -33h-34z" />
    <glyph glyph-name="Uhungarumlaut" unicode="&#x170;" horiz-adv-x="773" 
d="M280 570v-306q0 -177 141 -177q80 0 122 41.5t42 143.5v298q0 40 -19 53.5t-71 15.5v63h261v-63q-51 -2 -67.5 -15.5t-16.5 -53.5v-325q0 -125 -77 -190t-197 -65q-143 0 -220.5 64.5t-77.5 191.5v324q0 41 -16 54t-66 15v63h343v-63q-49 -2 -65 -15t-16 -54zM350 909
h147l-136 -156h-78zM536 909h147l-136 -156h-78z" />
    <glyph glyph-name="uhungarumlaut" unicode="&#x171;" horiz-adv-x="675" 
d="M415 -10v98q-81 -98 -187 -98q-69 0 -108.5 42t-39.5 127v240q0 25 -8.5 38.5t-33.5 18.5l-15 5v52l196 43h31v-380q0 -82 67 -82q44 0 98 24v281q0 25 -8.5 38.5t-33.5 18.5l-14 5v52l194 43h32v-418q0 -27 8.5 -39.5t32.5 -13.5h24v-62l-201 -33h-34zM254 765h147
l-136 -162h-78zM440 765h147l-136 -162h-78z" />
    <glyph glyph-name="Uogonek" unicode="&#x172;" horiz-adv-x="773" 
d="M280 570v-306q0 -177 141 -177q80 0 122 41.5t42 143.5v298q0 40 -19 53.5t-71 15.5v63h261v-63q-51 -2 -67.5 -15.5t-16.5 -53.5v-325q0 -90 -41.5 -149.5t-112.5 -85.5q-88 -46 -88 -105q0 -41 45 -41q38 0 74 23l18 -26q-67 -75 -142 -75q-40 0 -67.5 22.5t-27.5 61.5
q0 68 81 120h-13q-143 0 -220.5 64.5t-77.5 191.5v324q0 41 -16 54t-66 15v63h343v-63q-49 -2 -65 -15t-16 -54z" />
    <glyph glyph-name="uogonek" unicode="&#x173;" horiz-adv-x="675" 
d="M650 23q-127 -26 -174 -54.5t-47 -64.5q0 -41 45 -41q38 0 74 23l18 -26q-67 -75 -142 -75q-40 0 -67.5 22.5t-27.5 61.5q0 66 86 120v99q-81 -98 -187 -98q-69 0 -108.5 42t-39.5 127v240q0 25 -8.5 38.5t-33.5 18.5l-15 5v52l196 43h31v-380q0 -82 67 -82q44 0 98 24
v281q0 25 -8.5 38.5t-33.5 18.5l-14 5v52l194 43h32v-418q0 -27 8.5 -39.5t32.5 -13.5h24v-62z" />
    <glyph glyph-name="Wcircumflex" unicode="&#x174;" horiz-adv-x="1017" 
d="M739 252l104 289q15 43 15 54q0 23 -15 32.5t-59 11.5v63h226v-63q-17 -3 -25.5 -5.5t-18.5 -10.5t-15 -21l-226 -607h-66l-141 394l-146 -394h-64l-244 607q-13 29 -57 37v63h323v-63q-36 -3 -51 -12.5t-15 -31.5q0 -12 13 -48l114 -301l90 246l-37 110q-11 29 -52 37
v63h314v-63q-45 -2 -59.5 -11.5t-14.5 -32.5q0 -20 13 -57zM603 918l141 -167h-86l-116 82l-116 -82h-86l141 167h122z" />
    <glyph glyph-name="wcircumflex" unicode="&#x175;" horiz-adv-x="879" 
d="M532 766l139 -170h-86l-114 85l-114 -85h-86l139 170h122zM651 221l76 197q7 18 7 32q0 17 -12 24.5t-39 11.5v60h191v-60q-30 -10 -40.5 -17t-16.5 -23l-183 -451h-54l-131 322l-138 -322h-53l-197 451q-7 16 -17.5 23.5t-38.5 16.5v60h291v-60q-45 -7 -45 -33
q0 -13 10 -36l77 -200l76 183l-18 46q-7 18 -16.5 26t-30.5 14v60h273v-60q-29 -4 -40 -11t-11 -23q0 -12 8 -34z" />
    <glyph glyph-name="Ycircumflex" unicode="&#x176;" horiz-adv-x="701" 
d="M400 341l115 201q23 41 23 58q0 20 -16.5 28.5t-55.5 10.5v63h229v-63q-42 -7 -59 -37l-195 -341v-129q0 -40 18 -53.5t70 -15.5v-63h-352v63q51 2 69.5 15.5t18.5 53.5v130l-201 340q-11 19 -23 26t-34 11v63h329v-63q-41 -1 -55.5 -9.5t-14.5 -29.5q0 -16 22 -58z
M440 918l141 -167h-86l-116 82l-116 -82h-86l141 167h122z" />
    <glyph glyph-name="ycircumflex" unicode="&#x177;" horiz-adv-x="610" 
d="M272 -2l-210 448q-7 15 -18 22.5t-39 17.5v60h316v-60q-41 -6 -55 -12.5t-14 -23.5q0 -11 10 -36l94 -229l93 229q10 26 10 36q0 17 -13 24t-54 12v60h213v-60q-29 -10 -39.5 -17t-17.5 -23l-229 -525q-29 -67 -64 -98t-85 -31q-59 0 -84 39v85h58q55 0 78.5 11t41.5 52z
M408 766l139 -170h-86l-114 85l-114 -85h-86l139 170h122z" />
    <glyph glyph-name="Ydieresis" unicode="&#x178;" horiz-adv-x="701" 
d="M400 341l115 201q23 41 23 58q0 20 -16.5 28.5t-55.5 10.5v63h229v-63q-42 -7 -59 -37l-195 -341v-129q0 -40 18 -53.5t70 -15.5v-63h-352v63q51 2 69.5 15.5t18.5 53.5v130l-201 340q-11 19 -23 26t-34 11v63h329v-63q-41 -1 -55.5 -9.5t-14.5 -29.5q0 -16 22 -58z
M188 831q0 34 24.5 58.5t58.5 24.5t59 -24.5t25 -58.5t-25 -58.5t-59 -24.5t-58.5 24.5t-24.5 58.5zM404 831q0 34 24.5 58.5t57.5 24.5q36 0 60.5 -24.5t24.5 -58.5t-24.5 -58.5t-60.5 -24.5q-33 0 -57.5 24.5t-24.5 58.5z" />
    <glyph glyph-name="Zacute" unicode="&#x179;" horiz-adv-x="643" 
d="M237 67h150q55 0 84.5 28.5t84.5 131.5h67l-34 -227h-566v43l372 591h-141q-15 0 -27.5 -3t-21.5 -5.5t-18.5 -12l-14.5 -14.5t-13.5 -20.5t-12 -22t-13.5 -28.5t-14 -31h-63v205h550v-44zM357 909h172l-156 -156h-89z" />
    <glyph glyph-name="zacute" unicode="&#x17a;" horiz-adv-x="560" 
d="M305 765h170l-154 -162h-85zM28 0v42l286 441h-99q-39 0 -58 -26t-50 -109h-64v198h472v-45l-279 -437h93q46 0 72 27.5t62 109.5h64l-22 -201h-477z" />
    <glyph glyph-name="Zdotaccent" unicode="&#x17b;" horiz-adv-x="643" 
d="M336 748q-42 0 -68.5 26t-26.5 63t26.5 63.5t68.5 26.5t68.5 -26.5t26.5 -63.5t-26.5 -63t-68.5 -26zM237 67h150q55 0 84.5 28.5t84.5 131.5h67l-34 -227h-566v43l372 591h-141q-15 0 -27.5 -3t-21.5 -5.5t-18.5 -12l-14.5 -14.5t-13.5 -20.5t-12 -22t-13.5 -28.5
t-14 -31h-63v205h550v-44z" />
    <glyph glyph-name="zdotaccent" unicode="&#x17c;" horiz-adv-x="560" 
d="M28 0v42l286 441h-99q-39 0 -58 -26t-50 -109h-64v198h472v-45l-279 -437h93q46 0 72 27.5t62 109.5h64l-22 -201h-477zM287 601q-43 0 -69.5 26t-26.5 63t26.5 63t69.5 26q42 0 68 -26t26 -63t-26 -63t-68 -26z" />
    <glyph glyph-name="Zcaron" unicode="&#x17d;" horiz-adv-x="643" 
d="M538 921l-141 -167h-122l-141 167h86l116 -82l116 82h86zM237 67h150q55 0 84.5 28.5t84.5 131.5h67l-34 -227h-566v43l372 591h-141q-15 0 -27.5 -3t-21.5 -5.5t-18.5 -12l-14.5 -14.5t-13.5 -20.5t-12 -22t-13.5 -28.5t-14 -31h-63v205h550v-44z" />
    <glyph glyph-name="zcaron" unicode="&#x17e;" horiz-adv-x="560" 
d="M486 774l-139 -170h-122l-139 170h86l114 -85l114 85h86zM28 0v42l286 441h-99q-39 0 -58 -26t-50 -109h-64v198h472v-45l-279 -437h93q46 0 72 27.5t62 109.5h64l-22 -201h-477z" />
    <glyph glyph-name="florin" unicode="&#x192;" horiz-adv-x="548" 
d="M55 293l7 58h92l6 51q18 156 77 233t170 77q60 0 99.5 -21.5t39.5 -67.5q0 -50 -47 -65h-55q0 51 -8.5 78.5t-33.5 27.5q-38 0 -45 -65l-29 -248h112l-5 -58h-113l-18 -157q-18 -155 -77.5 -232.5t-169.5 -77.5q-59 0 -99 22t-40 67q0 50 47 66h55q1 -52 9 -79.5
t34 -27.5q37 0 44 65l40 354h-92z" />
    <glyph glyph-name="Aringacute" unicode="&#x1fa;" horiz-adv-x="751" 
d="M477 147l-29 70h-254l-27 -70q-10 -30 -10 -40q0 -24 14.5 -33t60.5 -11v-63h-225v63q24 4 36.5 11.5t20.5 25.5l212 527l-34 78h186l258 -605q8 -18 21 -25.5t37 -11.5v-63h-331v63q45 2 60 11.5t15 32.5q0 16 -11 40zM234 823q0 40 31.5 64t82.5 24t82.5 -24t31.5 -64
t-31.5 -64t-82.5 -24t-82.5 24t-31.5 64zM319 535l-100 -254h203zM356 1054h171l-136 -116h-81zM401 823q0 19 -14.5 30t-38.5 11t-38.5 -11t-14.5 -30t14.5 -30t38.5 -11t38.5 11t14.5 30z" />
    <glyph glyph-name="aringacute" unicode="&#x1fb;" horiz-adv-x="580" 
d="M169 667q0 39 32 63.5t83 24.5t82.5 -24t31.5 -64t-31.5 -64t-82.5 -24t-83 24t-32 64zM336 667q0 40 -52 40q-53 0 -53 -40q0 -41 53 -41q52 0 52 41zM292 898h171l-136 -116h-81zM267 94q32 0 61 19v168l-76 -30q-51 -20 -51 -76q0 -38 17.5 -59.5t48.5 -21.5zM495 348
q0 -5 -0.5 -102t-0.5 -104q0 -55 33 -55q22 0 43 6l8 -45q-60 -58 -137 -58q-81 0 -110 91q-65 -88 -160 -88q-64 0 -102 38t-38 102q0 60 36 92t100 54l161 56v59q0 56 -14.5 80t-50.5 24q-57 0 -57 -65q0 -34 8 -65l-111 -17q-38 16 -38 67q0 68 58.5 103t156.5 35
q109 0 162 -46.5t53 -161.5z" />
    <glyph glyph-name="AEacute" unicode="&#x1fc;" horiz-adv-x="1057" 
d="M65 100l343 500q-8 20 -26.5 28.5t-62.5 10.5v63h674v-187h-68q-26 67 -54 94.5t-84 27.5h-116v-242h94q33 0 48.5 17.5t23.5 62.5h59v-228h-59q-8 45 -23.5 62.5t-48.5 17.5h-94v-195q0 -39 20 -53t65 -14h40q52 0 83 27.5t83 109.5h67l-31 -202h-588v63q51 2 67.5 15
t16.5 54v113h-240l-56 -83q-23 -32 -23 -58q0 -23 15 -31t62 -10v-63h-245v63q37 7 58 37zM494 595l-196 -286h196v286zM647 909h172l-156 -156h-89z" />
    <glyph glyph-name="aeacute" unicode="&#x1fd;" horiz-adv-x="852" 
d="M600 556q103 0 159.5 -64.5t56.5 -163.5v-37h-333q0 -78 44 -124.5t114 -46.5q92 0 147 71l30 -19q-20 -84 -80 -133t-151 -49q-144 0 -212 111q-73 -108 -194 -108q-68 0 -109 40t-41 100q0 61 38 94.5t104 51.5l169 47l5 21q-2 76 -22 113.5t-62 37.5q-57 0 -57 -65
q0 -34 8 -65l-111 -17q-38 16 -38 67q0 68 57 103t147 35q118 0 162 -64q70 64 169 64zM583 491q-43 0 -67.5 -40t-30.5 -103h184q-1 66 -22.5 104.5t-63.5 38.5zM461 765h170l-154 -162h-85zM336 255v15l-82 -23q-53 -16 -53 -80q0 -32 17.5 -52.5t48.5 -20.5q51 0 95 33
q-26 57 -26 128z" />
    <glyph glyph-name="Oslashacute" unicode="&#x1fe;" horiz-adv-x="767" 
d="M645 728l-47 -80q63 -47 97 -121.5t34 -161.5q0 -169 -100 -272t-253 -103q-83 0 -147 29l-50 -85l-57 30l51 87q-65 47 -100 122.5t-35 163.5q0 169 100 272t253 103q84 0 152 -31l45 77zM224 364q0 -113 25 -184l237 405q-42 57 -114 57q-73 0 -110.5 -77.5
t-37.5 -200.5zM395 60q73 0 110.5 77.5t37.5 200.5q0 105 -23 177l-236 -402q41 -53 111 -53zM405 909h172l-156 -156h-89z" />
    <glyph glyph-name="oslashacute" unicode="&#x1ff;" horiz-adv-x="624" 
d="M525 580l-44 -73q52 -37 80.5 -95.5t28.5 -128.5q0 -132 -80.5 -212.5t-204.5 -80.5q-63 0 -117 23l-52 -88l-48 26l53 89q-107 77 -107 224q0 132 80.5 212t204.5 80q63 0 115 -23l44 73zM321 57q46 0 72.5 52.5t26.5 137.5q0 75 -13 134l-166 -280q29 -44 80 -44z
M203 299q0 -79 12 -134l167 280q-29 45 -79 45q-46 0 -73 -53t-27 -138zM331 765h170l-154 -162h-85z" />
    <glyph glyph-name="Scommaaccent" unicode="&#x218;" horiz-adv-x="602" 
d="M326 -157h-57q-48 13 -48 59q0 27 21.5 44.5t58.5 17.5q44 0 69 -26t25 -68q0 -53 -40 -84.5t-127 -31.5v43q95 0 98 46zM289 -10q-72 0 -135 19t-102 48l-10 167h87q22 -86 63 -127.5t110 -41.5q53 0 84 24.5t31 71.5q0 41 -30.5 64.5t-114.5 47.5q-118 33 -170.5 84
t-52.5 143q0 102 69 162t182 60q136 0 221 -61v-153h-75q-23 73 -58 111.5t-100 38.5q-49 0 -76 -25t-27 -63q0 -45 30.5 -68.5t113.5 -46.5q119 -33 175 -85t56 -149q0 -108 -76 -164.5t-195 -56.5z" />
    <glyph glyph-name="scommaaccent" unicode="&#x219;" horiz-adv-x="503" 
d="M274 -157h-57q-48 13 -48 59q0 27 21.5 44.5t58.5 17.5q44 0 69 -26t25 -68q0 -53 -40 -84.5t-127 -31.5v43q95 0 98 46zM249 -10q-122 0 -202 56l-6 124h76q27 -118 137 -118q40 0 64 16t24 46q0 32 -24.5 48.5t-93.5 32.5q-93 22 -137.5 64t-44.5 116q0 86 56 133.5
t153 47.5q106 0 178 -46v-113h-74q-24 97 -111 97q-35 0 -54.5 -17t-19.5 -44q0 -30 23 -47t88 -30q89 -19 137.5 -60t48.5 -119q0 -88 -57.5 -137.5t-160.5 -49.5z" />
    <glyph glyph-name="uni0237" unicode="&#x237;" horiz-adv-x="312" 
d="M248 557v-434q0 -75 -15.5 -121.5t-47.5 -86.5q-62 -75 -150 -124l-34 32l39 64q25 38 31.5 81.5t6.5 116.5v337l-58 55v29l197 51h31z" />
    <glyph glyph-name="circumflex" unicode="&#x2c6;" horiz-adv-x="500" 
d="M311 766l139 -170h-86l-114 85l-114 -85h-86l139 170h122z" />
    <glyph glyph-name="caron" unicode="&#x2c7;" horiz-adv-x="500" 
d="M450 774l-139 -170h-122l-139 170h86l114 -85l114 85h86z" />
    <glyph glyph-name="breve" unicode="&#x2d8;" horiz-adv-x="500" 
d="M256 601q-73 0 -114 45t-41 125h64q6 -44 31 -63.5t60 -19.5t60.5 19.5t31.5 63.5h64q0 -80 -41 -125t-115 -45z" />
    <glyph glyph-name="dotaccent" unicode="&#x2d9;" horiz-adv-x="500" 
d="M251 601q-43 0 -69.5 26t-26.5 63t26.5 63t69.5 26q42 0 68 -26t26 -63t-26 -63t-68 -26z" />
    <glyph glyph-name="ring" unicode="&#x2da;" horiz-adv-x="500" 
d="M150 694q0 42 30.5 70.5t78.5 28.5t78.5 -28.5t30.5 -70.5t-30.5 -70.5t-78.5 -28.5t-78.5 28.5t-30.5 70.5zM306 694q0 20 -12.5 33t-34.5 13t-34.5 -13t-12.5 -33t12.5 -33t34.5 -13t34.5 13t12.5 33z" />
    <glyph glyph-name="ogonek" unicode="&#x2db;" horiz-adv-x="500" 
d="M324 39l13 -24q-100 -48 -100 -111q0 -41 45 -41q38 0 74 23l18 -26q-67 -75 -142 -75q-40 0 -67.5 22.5t-27.5 61.5q0 101 187 170z" />
    <glyph glyph-name="tilde" unicode="&#x2dc;" horiz-adv-x="500" 
d="M392 767l55 -12q-38 -88 -65 -115.5t-71 -27.5q-31 0 -76 31t-62 31q-20 0 -34 -13.5t-31 -42.5l-56 11q39 89 66 116.5t71 27.5q35 0 78.5 -31.5t59.5 -31.5q20 0 33.5 13.5t31.5 43.5z" />
    <glyph glyph-name="hungarumlaut" unicode="&#x2dd;" horiz-adv-x="500" 
d="M121 765h147l-136 -162h-78zM307 765h147l-136 -162h-78z" />
    <glyph glyph-name="pi" unicode="&#x3c0;" horiz-adv-x="678" 
d="M370 148v281h-101q0 -150 -8.5 -239.5t-31.5 -189.5h-173v41q34 66 51 105t34.5 117t17.5 166h-106v117h570l-17 -117h-80v-286q0 -26 12.5 -41t33.5 -15q20 0 43 6l8 -45q-60 -58 -137 -58q-60 0 -88 38.5t-28 119.5z" />
    <glyph glyph-name="Wgrave" unicode="&#x1e80;" horiz-adv-x="1017" 
d="M355 909h172l73 -156h-89zM739 252l104 289q15 43 15 54q0 23 -15 32.5t-59 11.5v63h226v-63q-17 -3 -25.5 -5.5t-18.5 -10.5t-15 -21l-226 -607h-66l-141 394l-146 -394h-64l-244 607q-13 29 -57 37v63h323v-63q-36 -3 -51 -12.5t-15 -31.5q0 -12 13 -48l114 -301
l90 246l-37 110q-11 29 -52 37v63h314v-63q-45 -2 -59.5 -11.5t-14.5 -32.5q0 -20 13 -57z" />
    <glyph glyph-name="wgrave" unicode="&#x1e81;" horiz-adv-x="879" 
d="M651 221l76 197q7 18 7 32q0 17 -12 24.5t-39 11.5v60h191v-60q-30 -10 -40.5 -17t-16.5 -23l-183 -451h-54l-131 322l-138 -322h-53l-197 451q-7 16 -17.5 23.5t-38.5 16.5v60h291v-60q-45 -7 -45 -33q0 -13 10 -36l77 -200l76 183l-18 46q-7 18 -16.5 26t-30.5 14v60
h273v-60q-29 -4 -40 -11t-11 -23q0 -12 8 -34zM280 765h170l68 -162h-84z" />
    <glyph glyph-name="Wacute" unicode="&#x1e82;" horiz-adv-x="1017" 
d="M563 909h172l-156 -156h-89zM739 252l104 289q15 43 15 54q0 23 -15 32.5t-59 11.5v63h226v-63q-17 -3 -25.5 -5.5t-18.5 -10.5t-15 -21l-226 -607h-66l-141 394l-146 -394h-64l-244 607q-13 29 -57 37v63h323v-63q-36 -3 -51 -12.5t-15 -31.5q0 -12 13 -48l114 -301
l90 246l-37 110q-11 29 -52 37v63h314v-63q-45 -2 -59.5 -11.5t-14.5 -32.5q0 -20 13 -57z" />
    <glyph glyph-name="wacute" unicode="&#x1e83;" horiz-adv-x="879" 
d="M490 765h170l-154 -162h-85zM651 221l76 197q7 18 7 32q0 17 -12 24.5t-39 11.5v60h191v-60q-30 -10 -40.5 -17t-16.5 -23l-183 -451h-54l-131 322l-138 -322h-53l-197 451q-7 16 -17.5 23.5t-38.5 16.5v60h291v-60q-45 -7 -45 -33q0 -13 10 -36l77 -200l76 183l-18 46
q-7 18 -16.5 26t-30.5 14v60h273v-60q-29 -4 -40 -11t-11 -23q0 -12 8 -34z" />
    <glyph glyph-name="Wdieresis" unicode="&#x1e84;" horiz-adv-x="1017" 
d="M350 831q0 34 24.5 58.5t58.5 24.5t59 -24.5t25 -58.5t-25 -58.5t-59 -24.5t-58.5 24.5t-24.5 58.5zM566 831q0 34 24.5 58.5t57.5 24.5q36 0 60.5 -24.5t24.5 -58.5t-24.5 -58.5t-60.5 -24.5q-33 0 -57.5 24.5t-24.5 58.5zM739 252l104 289q15 43 15 54q0 23 -15 32.5
t-59 11.5v63h226v-63q-17 -3 -25.5 -5.5t-18.5 -10.5t-15 -21l-226 -607h-66l-141 394l-146 -394h-64l-244 607q-13 29 -57 37v63h323v-63q-36 -3 -51 -12.5t-15 -31.5q0 -12 13 -48l114 -301l90 246l-37 110q-11 29 -52 37v63h314v-63q-45 -2 -59.5 -11.5t-14.5 -32.5
q0 -20 13 -57z" />
    <glyph glyph-name="wdieresis" unicode="&#x1e85;" horiz-adv-x="879" 
d="M281 688q0 34 24.5 58.5t58.5 24.5t59 -24.5t25 -58.5t-25 -58.5t-59 -24.5t-58.5 24.5t-24.5 58.5zM495 688q0 34 24.5 58.5t57.5 24.5q36 0 60.5 -24.5t24.5 -58.5t-24.5 -58.5t-60.5 -24.5q-33 0 -57.5 24.5t-24.5 58.5zM651 221l76 197q7 18 7 32q0 17 -12 24.5
t-39 11.5v60h191v-60q-30 -10 -40.5 -17t-16.5 -23l-183 -451h-54l-131 322l-138 -322h-53l-197 451q-7 16 -17.5 23.5t-38.5 16.5v60h291v-60q-45 -7 -45 -33q0 -13 10 -36l77 -200l76 183l-18 46q-7 18 -16.5 26t-30.5 14v60h273v-60q-29 -4 -40 -11t-11 -23q0 -12 8 -34z
" />
    <glyph glyph-name="Ygrave" unicode="&#x1ef2;" horiz-adv-x="701" 
d="M400 341l115 201q23 41 23 58q0 20 -16.5 28.5t-55.5 10.5v63h229v-63q-42 -7 -59 -37l-195 -341v-129q0 -40 18 -53.5t70 -15.5v-63h-352v63q51 2 69.5 15.5t18.5 53.5v130l-201 340q-11 19 -23 26t-34 11v63h329v-63q-41 -1 -55.5 -9.5t-14.5 -29.5q0 -16 22 -58z
M192 909h172l73 -156h-89z" />
    <glyph glyph-name="ygrave" unicode="&#x1ef3;" horiz-adv-x="610" 
d="M272 -2l-210 448q-7 15 -18 22.5t-39 17.5v60h316v-60q-41 -6 -55 -12.5t-14 -23.5q0 -11 10 -36l94 -229l93 229q10 26 10 36q0 17 -13 24t-54 12v60h213v-60q-29 -10 -39.5 -17t-17.5 -23l-229 -525q-29 -67 -64 -98t-85 -31q-59 0 -84 39v85h58q55 0 78.5 11t41.5 52z
M156 765h170l68 -162h-84z" />
    <glyph glyph-name="endash" unicode="&#x2013;" horiz-adv-x="580" 
d="M530 264h-480v82h480v-82z" />
    <glyph glyph-name="emdash" unicode="&#x2014;" horiz-adv-x="1000" 
d="M950 346v-82h-900v82h900z" />
    <glyph glyph-name="quoteleft" unicode="&#x2018;" horiz-adv-x="310" 
d="M151 638h42q63 -13 63 -84q0 -36 -24 -60.5t-66 -24.5q-48 0 -75 31t-27 89q0 82 49.5 128.5t149.5 50.5v-55q-53 -5 -79.5 -22t-32.5 -53z" />
    <glyph glyph-name="quoteright" unicode="&#x2019;" horiz-adv-x="310" 
d="M167 598h-42q-63 14 -63 85q0 37 24 61t66 24q48 0 75 -31t27 -89q0 -82 -49.5 -129t-149.5 -50v55q54 5 80 22t32 52z" />
    <glyph glyph-name="quotesinglbase" unicode="&#x201a;" horiz-adv-x="310" 
d="M167 10h-42q-63 14 -63 85q0 37 24 61t66 24q48 0 75 -31t27 -89q0 -82 -49.5 -129t-149.5 -50v55q54 5 80 22t32 52z" />
    <glyph glyph-name="quotedblleft" unicode="&#x201c;" horiz-adv-x="555" 
d="M151 638h42q63 -13 63 -84q0 -36 -24 -60.5t-66 -24.5q-48 0 -75 31t-27 89q0 82 49.5 128.5t149.5 50.5v-55q-53 -5 -79.5 -22t-32.5 -53zM396 638h42q63 -13 63 -84q0 -36 -24.5 -60.5t-65.5 -24.5q-48 0 -75 31t-27 89q0 82 49.5 128.5t149.5 50.5v-55
q-53 -5 -79.5 -22t-32.5 -53z" />
    <glyph glyph-name="quotedblright" unicode="&#x201d;" horiz-adv-x="555" 
d="M412 598h-42q-63 14 -63 85q0 37 24.5 61t65.5 24q48 0 75 -31t27 -89q0 -82 -49.5 -129t-149.5 -50v55q54 5 80 22t32 52zM167 598h-42q-63 14 -63 85q0 37 24 61t66 24q48 0 75 -31t27 -89q0 -82 -49.5 -129t-149.5 -50v55q54 5 80 22t32 52z" />
    <glyph glyph-name="quotedblbase" unicode="&#x201e;" horiz-adv-x="555" 
d="M412 10h-42q-63 14 -63 85q0 37 24.5 61t65.5 24q48 0 75 -31t27 -89q0 -82 -49.5 -129t-149.5 -50v55q54 5 80 22t32 52zM167 10h-42q-63 14 -63 85q0 37 24 61t66 24q48 0 75 -31t27 -89q0 -82 -49.5 -129t-149.5 -50v55q54 5 80 22t32 52z" />
    <glyph glyph-name="dagger" unicode="&#x2020;" horiz-adv-x="494" 
d="M45 605l173 -20l-20 173h97l-21 -173l175 20v-93l-175 19l21 -303h-97l21 303l-174 -19v93z" />
    <glyph glyph-name="daggerdbl" unicode="&#x2021;" horiz-adv-x="498" 
d="M221 555l-174 -19v93l173 -20l-20 149h97l-21 -149l175 20v-93l-175 19v-124l175 19v-93l-175 20l21 -149h-97l20 149l-173 -20v93l174 -19v124z" />
    <glyph glyph-name="bullet" unicode="&#x2022;" horiz-adv-x="408" 
d="M51 307q0 65 45 111t108 46q64 0 108.5 -46t44.5 -111q0 -63 -45 -109t-108 -46t-108 46t-45 109z" />
    <glyph glyph-name="ellipsis" unicode="&#x2026;" horiz-adv-x="902" 
d="M50 90q0 44 29 72.5t71 28.5q43 0 72 -28.5t29 -72.5q0 -43 -29.5 -71.5t-71.5 -28.5t-71 28.5t-29 71.5zM351 90q0 44 29 72.5t71 28.5q43 0 72 -28.5t29 -72.5q0 -43 -29.5 -71.5t-71.5 -28.5t-71 28.5t-29 71.5zM651 90q0 44 29 72.5t72 28.5t72 -28.5t29 -72.5
q0 -43 -29.5 -71.5t-71.5 -28.5t-71.5 28.5t-29.5 71.5z" />
    <glyph glyph-name="perthousand" unicode="&#x2030;" horiz-adv-x="1323" 
d="M155 524q0 -63 17 -101.5t50 -38.5q32 0 49 39t17 101q0 64 -17 102.5t-49 38.5q-33 0 -50 -38.5t-17 -102.5zM197 -19l449 741h74l-450 -741h-73zM36 524q0 89 54 138.5t132 49.5t131.5 -49.5t53.5 -138.5q0 -88 -53.5 -137t-131.5 -49t-132 49.5t-54 136.5zM762 178
q0 63 -17 101.5t-50 38.5q-32 0 -49 -38.5t-17 -101.5t17 -102t49 -39q33 0 50 39t17 102zM881 178q0 -89 -54 -138.5t-132 -49.5t-131.5 49.5t-53.5 138.5q0 88 53.5 137.5t131.5 49.5t132 -49.5t54 -137.5zM1167 178q0 63 -17 101.5t-49 38.5t-49 -38.5t-17 -101.5
t17 -102t49 -39q33 0 49.5 38.5t16.5 102.5zM1287 178q0 -89 -54 -138.5t-132 -49.5t-132 49.5t-54 138.5q0 88 54 137.5t132 49.5t132 -49.5t54 -137.5z" />
    <glyph glyph-name="guilsinglleft" unicode="&#x2039;" horiz-adv-x="330" 
d="M37 271v10l177 198h79l-113 -203l113 -203h-79z" />
    <glyph glyph-name="guilsinglright" unicode="&#x203a;" horiz-adv-x="330" 
d="M293 281v-10l-175 -198h-81l114 203l-114 203h81z" />
    <glyph glyph-name="fraction" unicode="&#x2044;" horiz-adv-x="283" 
d="M-151 0l504 772h81l-504 -772h-81z" />
    <glyph glyph-name="Euro" unicode="&#x20ac;" horiz-adv-x="706" 
d="M27 383v55h94q27 126 114 200t207 74q133 0 205 -66v-160h-80q-17 80 -47.5 118t-86.5 38q-62 0 -96.5 -56t-44.5 -148h216l-9 -55h-211v-18q0 -32 1 -47h200l-9 -56h-186q26 -198 148 -198q59 0 95.5 39.5t59.5 129.5h77l-14 -188q-84 -55 -224 -55q-132 0 -215.5 72.5
t-104.5 199.5h-89v56h84v20q0 30 2 45h-86z" />
    <glyph glyph-name="uni2117" unicode="&#x2117;" horiz-adv-x="796" 
d="M440 307h-52v-73q0 -23 12 -30.5t48 -8.5v-41h-211v41q28 1 35.5 8t7.5 31v239q0 23 -7.5 29.5t-35.5 7.5v41h201q78 0 118 -35t40 -85q0 -57 -39.5 -90.5t-116.5 -33.5zM388 506v-158h20q81 0 81 82q0 76 -83 76h-18zM82 351q0 -135 89.5 -228.5t226.5 -93.5t226.5 93.5
t89.5 228.5t-89.5 228.5t-226.5 93.5t-226.5 -93.5t-89.5 -228.5zM40 351q0 151 101.5 256t256.5 105t256.5 -105t101.5 -256t-101.5 -256t-256.5 -105t-256.5 105t-101.5 256z" />
    <glyph glyph-name="trademark" unicode="&#x2122;" horiz-adv-x="940" 
d="M50 702h321l7 -116h-34q-21 46 -34.5 62.5t-41.5 16.5h-12v-237q0 -19 9.5 -25.5t35.5 -8.5v-33h-180v33q25 2 34.5 8.5t9.5 25.5v237h-11q-15 0 -25.5 -4t-20 -16t-15 -23t-16.5 -36h-34zM627 493l56 172q8 19 8 37h142v-36q-24 0 -32.5 -7.5t-8.5 -26.5l30 -208
q3 -17 11.5 -22.5t30.5 -7.5v-33h-179v33q27 2 37 8t10 23q0 13 -4 36l-22 143l-83 -243h-41l-86 243l-20 -143q-4 -23 -4 -36q0 -17 10 -23t37 -8v-33h-136v33q22 2 31 7.5t11 22.5l31 208q0 19 -8.5 26.5t-31.5 7.5v36h142q2 -20 8 -37z" />
    <glyph glyph-name="Omega" unicode="&#x2126;" horiz-adv-x="762" 
d="M381 645q-68 0 -102.5 -70.5t-34.5 -174.5q0 -177 103 -314v-86h-269l-25 193h39q34 -63 56 -77t88 -14h54q-84 28 -150 112t-66 186q0 134 84 223t223 89t223 -89t84 -223q0 -102 -66 -186t-150 -112h54q66 0 88 14t56 77h39l-25 -193h-269v86q103 137 103 314
q0 104 -34.5 174.5t-102.5 70.5z" />
    <glyph glyph-name="uni2153" unicode="&#x2153;" horiz-adv-x="938" 
d="M225 748h44v-367q0 -28 14 -35.5t64 -10.5v-48h-292v48q55 3 67 10t12 36v228h-79v44l28 6q54 11 83 30.5t59 58.5zM226 0l449 741h74l-450 -741h-73zM749 182q61 -2 98 -34t37 -84q0 -67 -55 -104t-137 -37q-78 0 -119.5 27t-41.5 68q0 38 31 52h79v-24q0 -80 57 -80
q56 0 56 75q0 92 -87 92h-20l-8 29q50 20 71 38.5t21 45.5q0 23 -16 37t-44 14q-50 0 -87 -49l-34 23q23 52 69.5 85t111.5 33q59 0 94.5 -28.5t35.5 -76.5q0 -42 -31.5 -68t-80.5 -34z" />
    <glyph glyph-name="uni2154" unicode="&#x2154;" horiz-adv-x="975" 
d="M162 388h111q31 0 44 9t37 45h38l-14 -155h-354v42l124 112q50 45 71.5 76.5t21.5 68.5q0 32 -19 50.5t-54 18.5q-52 0 -98 -54l-31 32q26 49 75.5 82t114.5 33t104 -34.5t39 -95.5q0 -28 -13 -55.5t-29 -47.5t-49.5 -46t-54.5 -40t-64 -41zM264 0l449 741h74l-450 -741
h-73zM786 182q61 -2 98 -34t37 -84q0 -68 -54.5 -104.5t-136.5 -36.5q-79 0 -120.5 27t-41.5 68q0 38 31 52h80v-24q0 -80 57 -80q56 0 56 75q0 92 -88 92h-19l-9 29q51 20 71.5 38.5t20.5 45.5q0 23 -15.5 37t-43.5 14q-52 0 -87 -49l-34 23q23 52 69 85t111 33
q60 0 95.5 -28.5t35.5 -76.5q0 -42 -32 -68t-81 -34z" />
    <glyph glyph-name="uni215B" unicode="&#x215b;" horiz-adv-x="973" 
d="M901 286q0 -37 -28.5 -62.5t-70.5 -32.5q117 -46 117 -125q0 -71 -52.5 -107t-129.5 -36q-79 0 -133 29t-54 81q0 38 28.5 64.5t72.5 35.5q-87 43 -87 117q0 64 47.5 102t124.5 38q76 0 120.5 -28.5t44.5 -75.5zM758 86l-84 34q-26 -25 -26 -72q0 -36 25 -56t65 -20
q34 0 54 15t20 39q0 38 -54 60zM720 223l56 -21q28 24 28 69q0 34 -18 52t-50 18q-30 0 -48 -16.5t-18 -39.5q0 -41 50 -62zM225 748h44v-367q0 -28 14 -35.5t64 -10.5v-48h-292v48q55 3 67 10t12 36v228h-79v44l28 6q54 11 83 30.5t59 58.5zM226 0l449 741h74l-450 -741
h-73z" />
    <glyph glyph-name="uni215C" unicode="&#x215c;" horiz-adv-x="989" 
d="M253 537q61 -2 98 -34t37 -84q0 -68 -54.5 -104.5t-136.5 -36.5q-79 0 -120.5 27t-41.5 68q0 38 31 52h80v-24q0 -80 57 -80q56 0 56 75q0 45 -23 68.5t-65 23.5h-19l-9 29q50 20 71 38.5t21 45.5q0 23 -15.5 37t-43.5 14q-52 0 -87 -49l-34 23q23 52 69 85t111 33
q60 0 95 -28t35 -77q0 -42 -31.5 -68t-80.5 -34zM917 286q0 -37 -28.5 -62.5t-70.5 -32.5q117 -46 117 -125q0 -71 -52.5 -107t-129.5 -36q-79 0 -133 29t-54 81q0 38 28.5 64.5t72.5 35.5q-87 43 -87 117q0 64 47.5 102t124.5 38q76 0 120.5 -28.5t44.5 -75.5zM774 86
l-84 34q-26 -25 -26 -72q0 -36 25 -56t65 -20q34 0 54 15t20 39q0 38 -54 60zM736 223l56 -21q28 24 28 69q0 34 -18 52t-50 18q-30 0 -48 -16.5t-18 -39.5q0 -41 50 -62zM242 0l449 741h74l-450 -741h-73z" />
    <glyph glyph-name="uni215D" unicode="&#x215d;" horiz-adv-x="973" 
d="M342 736v-113h-216l-7 -47q120 -1 187 -35.5t67 -116.5q0 -68 -48.5 -107.5t-127.5 -39.5q-78 0 -121.5 26.5t-43.5 68.5q0 40 32 53h82v-25q0 -78 64 -78q26 0 41.5 15.5t15.5 41.5q0 102 -203 103l43 254h235zM901 286q0 -37 -29 -62.5t-71 -32.5q118 -45 118 -125
q0 -71 -52.5 -107t-130.5 -36q-79 0 -133 29t-54 81q0 38 28.5 64.5t72.5 35.5q-87 43 -87 117q0 64 48 102t125 38q75 0 120 -28.5t45 -75.5zM757 86l-84 34q-26 -26 -26 -72q0 -36 25 -56t65 -20q34 0 54 15t20 39q0 22 -13 35.5t-41 24.5zM719 223l57 -21q27 24 27 69
q0 34 -18 52t-50 18q-30 0 -48 -16.5t-18 -39.5q0 -41 50 -62zM226 0l449 741h73l-450 -741h-72z" />
    <glyph glyph-name="uni215E" unicode="&#x215e;" horiz-adv-x="921" 
d="M305 613h-146q-41 0 -62 -61h-45l31 184h329v-32l-198 -417h-94zM849 286q0 -37 -28.5 -62.5t-71.5 -32.5q118 -45 118 -125q0 -71 -52.5 -107t-130.5 -36q-79 0 -133 29t-54 81q0 38 28.5 64.5t72.5 35.5q-86 43 -86 117q0 64 47.5 102t124.5 38q75 0 120 -28.5
t45 -75.5zM705 86l-84 34q-25 -25 -25 -72q0 -36 24.5 -56t64.5 -20q34 0 54 15t20 39q0 22 -13 35.5t-41 24.5zM667 223l57 -21q27 24 27 69q0 70 -68 70q-30 0 -47.5 -16.5t-17.5 -39.5q0 -41 49 -62zM174 0l449 741h73l-450 -741h-72z" />
    <glyph glyph-name="partialdiff" unicode="&#x2202;" horiz-adv-x="624" 
d="M287 535q72 0 120 -50q-31 85 -107.5 154t-180.5 98l21 39q117 -19 205.5 -64.5t139 -108t75 -132t24.5 -145.5q0 -156 -73.5 -246t-205.5 -90q-121 0 -196 77.5t-75 196.5q0 125 74.5 198t178.5 73zM321 57q45 0 70 52t25 138q0 105 -30 170t-83 65q-46 0 -71 -49
t-25 -134q0 -106 30.5 -174t83.5 -68z" />
    <glyph glyph-name="Delta" unicode="&#x2206;" horiz-adv-x="686" 
d="M662 0h-638v48l293 654h47l298 -654v-48zM287 479l-183 -414h367z" />
    <glyph glyph-name="product" unicode="&#x220f;" horiz-adv-x="821" 
d="M25 702h771v-63q-51 -2 -67.5 -15t-16.5 -54v-635q0 -41 16.5 -54t67.5 -15v-63h-337v63q51 2 67.5 15.5t16.5 53.5v709h-265v-709q0 -40 16.5 -53.5t67.5 -15.5v-63h-337v63q51 2 67.5 15t16.5 54v635q0 41 -16.5 54t-67.5 15v63z" />
    <glyph glyph-name="summation" unicode="&#x2211;" horiz-adv-x="635" 
d="M165 -57h191q71 0 105 15.5t74 81.5h66l-44 -237h-536v59l263 379l-252 393v68h542v-187h-75q-30 72 -60 99.5t-93 27.5h-120l193 -301v-37z" />
    <glyph glyph-name="minus" unicode="&#x2212;" horiz-adv-x="596" 
d="M70 322v87h455v-87h-455z" />
    <glyph glyph-name="radical" unicode="&#x221a;" horiz-adv-x="615" 
d="M354 232l184 480h73l-274 -712h-89l-142 433q-10 30 -22 42t-36 15l-28 2v54h242z" />
    <glyph glyph-name="infinity" unicode="&#x221e;" horiz-adv-x="767" 
d="M331 348l-40 47q-35 42 -82 42q-35 0 -59 -24.5t-24 -64.5t24 -64.5t59 -24.5q47 0 82 42zM475 395l-39 -47l39 -47q35 -42 83 -42q34 0 58 24t24 65t-24 65t-58 24q-48 0 -83 -42zM383 289l-32 -38q-65 -73 -147 -73q-69 0 -115.5 46.5t-46.5 123.5t46.5 123.5
t115.5 46.5q82 0 147 -73l32 -38l33 38q63 73 146 73q69 0 115.5 -46.5t46.5 -123.5t-46.5 -123.5t-115.5 -46.5q-83 0 -146 73z" />
    <glyph glyph-name="integral" unicode="&#x222b;" horiz-adv-x="449" 
d="M271 575v-530q0 -125 -57.5 -183t-157.5 -58q-64 0 -99.5 24t-35.5 68q0 39 34 62h74v-36q0 -63 38 -63q21 0 29 20t8 62v530q0 125 57.5 183t157.5 58q64 0 99.5 -24t35.5 -68q0 -40 -35 -62h-74v36q0 63 -37 63q-21 0 -29 -20t-8 -62z" />
    <glyph glyph-name="approxequal" unicode="&#x2248;" horiz-adv-x="607" 
d="M76 379v86q64 41 122 41q40 0 105 -20t104 -20q62 0 125 41v-85q-63 -41 -125 -41q-39 0 -104 20t-105 20q-59 0 -122 -42zM76 230v84q62 41 122 41q40 0 105 -19.5t104 -19.5q64 0 125 40v-84q-61 -41 -125 -41q-39 0 -104 19t-105 19q-59 0 -122 -39z" />
    <glyph glyph-name="notequal" unicode="&#x2260;" horiz-adv-x="607" 
d="M76 407v81h269l72 104h83l-72 -104h104v-81h-159l-56 -82h215v-81h-271l-70 -103h-84l71 103h-102v81h157l57 82h-214z" />
    <glyph glyph-name="lessequal" unicode="&#x2264;" horiz-adv-x="473" 
d="M61 404v10l332 181v-99l-171 -88l171 -87v-98zM61 102v87h332v-87h-332z" />
    <glyph glyph-name="greaterequal" unicode="&#x2265;" horiz-adv-x="473" 
d="M412 414v-10l-332 -181v98l172 87l-172 88v99zM412 189v-87h-332v87h332z" />
    <glyph glyph-name="lozenge" unicode="&#x25ca;" horiz-adv-x="578" 
d="M36 351l205 351h95l206 -351l-206 -351h-95zM432 351l-143 257l-144 -257l144 -256z" />
    <glyph glyph-name="Tcedilla.sc" horiz-adv-x="647" 
d="M35 606h577l14 -207h-69q-16 40 -22 53.5t-19 38t-23.5 32.5t-26.5 15.5t-37 7.5h-20v-426q0 -33 17 -45t62 -14v-61h-329v61q46 2 63 14t17 45v426h-21q-25 0 -42.5 -8t-33.5 -32t-24.5 -42.5t-27.5 -64.5h-69zM342 -157h-57q-48 13 -48 59q0 27 21.5 44.5t58.5 17.5
q44 0 69 -26t25 -68q0 -53 -40 -84.5t-127 -31.5v43q95 0 98 46z" />
    <glyph glyph-name="i.dot" horiz-adv-x="357" 
d="M267 557v-439q0 -32 13.5 -42t50.5 -15v-61h-297v61q37 5 50.5 15t13.5 42v304l-59 55v29l196 51h32zM183 601q-43 0 -69.5 26t-26.5 63t26.5 63t69.5 26q42 0 68 -26t26 -63t-26 -63t-68 -26z" />
    <glyph glyph-name="space_uni0326" horiz-adv-x="500" 
d="M264 -157h-57q-48 13 -48 59q0 27 21.5 44.5t58.5 17.5q44 0 69 -26t25 -68q0 -53 -40 -84.5t-127 -31.5v43q95 0 98 46z" />
    <glyph glyph-name="space_uni0326.alt" horiz-adv-x="500" 
d="M227 718h57q49 -11 49 -59q0 -27 -22 -44.5t-59 -17.5q-43 0 -68 26.5t-25 67.5q0 53 40 84.5t126 31.5v-42q-46 0 -71 -12.5t-27 -34.5z" />
    <glyph glyph-name="space_dotbelowcomb" horiz-adv-x="500" 
d="M251 -207q-43 0 -69.5 26t-26.5 64q0 37 26.5 63t69.5 26q42 0 68 -26t26 -63q0 -38 -26 -64t-68 -26z" />
    <glyph glyph-name="A.sc" horiz-adv-x="678" 
d="M415 134l-21 49h-217l-20 -49q-7 -18 -7 -35q0 -20 11.5 -28t49.5 -10v-61h-198v61q14 3 21.5 5.5t15.5 9t12 17.5l182 443l-35 77h177l228 -520q10 -24 52 -32v-61h-303v61q38 2 50 10t12 29q0 11 -10 34zM284 446l-82 -202h167z" />
    <glyph glyph-name="B.sc" horiz-adv-x="652" 
d="M316 280h-41v-162q0 -34 14.5 -46t50.5 -12h8q43 0 69 28.5t26 78.5q0 113 -127 113zM298 542h-23v-199h29q112 0 112 103q0 96 -118 96zM372 0h-338v62q44 2 57 13t13 46v364q0 34 -13 45.5t-57 13.5v62h338q102 0 158 -39t56 -114q0 -61 -47.5 -97t-117.5 -43
q88 -5 142 -42.5t54 -105.5q0 -165 -245 -165z" />
    <glyph glyph-name="C.sc" horiz-adv-x="636" 
d="M374 60q53 0 83.5 36.5t54.5 119.5h85l-14 -168q-87 -58 -223 -58q-152 0 -237.5 83.5t-85.5 217.5q0 146 93.5 235.5t231.5 89.5q137 0 212 -65v-141h-85q-17 69 -46.5 105.5t-82.5 36.5q-71 0 -103 -68t-32 -168q0 -117 38.5 -186.5t110.5 -69.5z" />
    <glyph glyph-name="D.sc" horiz-adv-x="721" 
d="M297 542h-19v-418q0 -37 13 -48.5t47 -11.5h8q152 0 152 239q0 109 -51 174t-150 65zM352 0h-318v62q44 2 57 13t13 46v364q0 34 -13 45.5t-57 13.5v62h286q175 0 270 -76t95 -218q0 -146 -89 -229t-244 -83z" />
    <glyph glyph-name="E.sc" horiz-adv-x="613" 
d="M557 0h-523v62q44 2 57 13t13 46v364q0 34 -13 45.5t-57 13.5v62h518v-168h-68q-23 58 -46.5 81.5t-73.5 23.5h-89v-198h69q29 0 42.5 14t20.5 52h58v-198h-58q-7 39 -20.5 53t-42.5 14h-69v-161q0 -33 16.5 -45t53.5 -12h26q44 0 72.5 25t73.5 94h67z" />
    <glyph glyph-name="F.sc" horiz-adv-x="573" 
d="M377 0h-343v62q44 2 57 13t13 46v364q0 34 -13 45.5t-57 13.5v62h507v-168h-68q-23 58 -47.5 81.5t-73.5 23.5h-77v-205h53q29 0 42.5 14t20.5 52h59v-197h-59q-7 39 -20.5 53t-42.5 14h-53v-159q0 -32 22.5 -44t79.5 -14v-57z" />
    <glyph glyph-name="G.sc" horiz-adv-x="682" 
d="M37 291q0 145 96 235t233 90q136 0 212 -65v-141h-85q-20 70 -49 106t-80 36q-71 0 -106.5 -69t-35.5 -167q0 -257 156 -257q29 0 56 9v115q0 33 -13.5 44t-55.5 12v64h296v-64q-43 -1 -55.5 -11.5t-12.5 -44.5v-130q-88 -63 -239 -63q-152 0 -234.5 83.5t-82.5 217.5z
" />
    <glyph glyph-name="H.sc" horiz-adv-x="776" 
d="M742 62v-62h-314v62q44 2 57 13.5t13 45.5v158h-220v-158q0 -35 13 -46t57 -13v-62h-314v62q44 2 57 13t13 46v364q0 34 -13 45.5t-57 13.5v62h314v-62q-44 -2 -57 -13.5t-13 -45.5v-140h220v140q0 34 -13.5 45.5t-56.5 13.5v62h314v-62q-44 -2 -57 -13.5t-13 -45.5v-364
q0 -35 13 -46t57 -13z" />
    <glyph glyph-name="I.sc" horiz-adv-x="382" 
d="M348 62v-62h-314v62q44 2 57 13t13 46v364q0 34 -13 45.5t-57 13.5v62h314v-62q-44 -2 -57 -13.5t-13 -45.5v-364q0 -35 13 -46t57 -13z" />
    <glyph glyph-name="J.sc" horiz-adv-x="560" 
d="M467 486v-291q0 -205 -236 -205q-101 0 -159 36t-58 100q0 50 43 79h119v-47q0 -107 58 -107q34 0 46 29t12 86v320q0 34 -12.5 45t-55.5 13v62h314v-62q-44 -2 -57.5 -13t-13.5 -45z" />
    <glyph glyph-name="K.sc" horiz-adv-x="709" 
d="M449 366l160 -244q24 -36 42.5 -48.5t46.5 -13.5v-60h-197q-36 24 -78 91l-137 217l185 170q26 23 26 39q0 26 -52 27v62h232v-62q-27 -1 -41 -7t-32 -24zM348 62v-62h-314v62q44 2 57 13t13 46v364q0 34 -13 45.5t-57 13.5v62h314v-62q-44 -2 -57 -13.5t-13 -45.5v-364
q0 -35 13 -46t57 -13z" />
    <glyph glyph-name="L.sc" horiz-adv-x="597" 
d="M278 485v-363q0 -34 15 -46t52 -12h22q40 0 62 24t79 123h72l-33 -211h-513v62q44 2 57 13t13 46v364q0 34 -13 45.5t-57 13.5v62h314v-62q-44 -2 -57 -13.5t-13 -45.5z" />
    <glyph glyph-name="M.sc" horiz-adv-x="891" 
d="M630 139l-41 289l-155 -428h-61l-161 428l-38 -289q-2 -16 -2 -22q0 -31 18 -42t65 -14v-61h-238v61q38 2 53.5 13t19.5 40l55 367q0 35 -15 48t-58 15v62h244q3 -29 14 -57l118 -311l114 311q12 32 15 57h242v-62q-44 -2 -59 -15t-15 -48l55 -367q4 -31 19 -41t55 -12
v-61h-326v61q49 3 66.5 14t17.5 42q0 6 -2 22z" />
    <glyph glyph-name="N.sc" horiz-adv-x="698" 
d="M104 120v382q-18 24 -31.5 31.5t-38.5 10.5v62h230l263 -330v210q0 33 -16.5 44.5t-61.5 13.5v62h226v-62q-43 -2 -56 -13t-13 -45v-486h-71l-352 430v-310q0 -33 16.5 -45t61.5 -14v-61h-227v61q44 2 57 13.5t13 45.5z" />
    <glyph glyph-name="O.sc" horiz-adv-x="691" 
d="M357 55q57 0 84.5 64.5t27.5 167.5q0 124 -34 193.5t-101 69.5q-57 0 -84.5 -64t-27.5 -168q0 -125 33.5 -194t101.5 -69zM337 -10q-140 0 -220 87t-80 214q0 147 89 236t228 89t219.5 -87.5t80.5 -213.5q0 -147 -89 -236t-228 -89z" />
    <glyph glyph-name="P.sc" horiz-adv-x="614" 
d="M278 542v-254h25q57 0 88 34t31 97q0 57 -34 90t-91 33h-19zM378 0h-344v62q44 2 57 13t13 46v364q0 34 -13 45.5t-57 13.5v62h312q123 0 185.5 -52t62.5 -136q0 -188 -248 -188h-68v-110q0 -33 21 -44.5t79 -14.5v-61z" />
    <glyph glyph-name="Q.sc" horiz-adv-x="689" 
d="M352 614q140 0 220 -86.5t80 -212.5q0 -118 -59.5 -200.5t-158.5 -110.5l59 -47q33 -27 54.5 -37t55.5 -11v-32q-38 -31 -104 -31q-97 0 -178 99l-41 50q-115 17 -179 100t-64 196q0 146 88.5 234.5t226.5 88.5zM355 56q58 0 85.5 64t27.5 168q0 124 -33.5 192.5
t-101.5 68.5q-57 0 -84.5 -64t-27.5 -168q0 -123 33.5 -192t100.5 -69z" />
    <glyph glyph-name="R.sc" horiz-adv-x="686" 
d="M304 542h-29v-233h28q70 0 102.5 29t32.5 91q0 113 -134 113zM343 0h-309v62q44 2 57 13t13 46v364q0 34 -13 45.5t-57 13.5v62h334q121 0 182 -46t61 -129q0 -61 -36.5 -100t-93.5 -55l101 -152q24 -37 43 -49.5t52 -13.5v-61h-195q-40 34 -74 96l-86 159h-47v-135
q0 -34 12.5 -45.5t55.5 -13.5v-61z" />
    <glyph glyph-name="S.sc" horiz-adv-x="554" 
d="M267 -10q-132 0 -214 58l-9 144h88q18 -74 53 -107.5t96 -33.5q43 0 68.5 18.5t25.5 55.5q0 31 -26 49t-98 37q-104 26 -152.5 73t-48.5 129q0 94 62.5 148.5t162.5 54.5q124 0 201 -54v-130h-75q-21 61 -49.5 92.5t-84.5 31.5q-42 0 -64.5 -20t-22.5 -53q0 -35 27 -53
t98 -35q105 -25 155.5 -71.5t50.5 -135.5q0 -98 -68 -148t-176 -50z" />
    <glyph glyph-name="T.sc" horiz-adv-x="647" 
d="M35 606h577l14 -207h-69q-16 40 -22 53.5t-19 38t-23.5 32.5t-26.5 15.5t-37 7.5h-20v-426q0 -33 17 -45t62 -14v-61h-329v61q46 2 63 14t17 45v426h-21q-25 0 -42.5 -8t-33.5 -32t-24.5 -42.5t-27.5 -64.5h-69z" />
    <glyph glyph-name="U.sc" horiz-adv-x="697" 
d="M269 486v-254q0 -72 26 -110t89 -38q66 0 101 34t35 122v246q0 33 -16 44.5t-61 13.5v62h230v-62q-43 -2 -56.5 -13t-13.5 -45v-273q0 -109 -68.5 -166t-175.5 -57q-129 0 -197.5 56.5t-68.5 166.5v273q0 34 -13 45t-56 13v62h312v-62q-42 -2 -54.5 -13t-12.5 -45z" />
    <glyph glyph-name="V.sc" horiz-adv-x="655" 
d="M384 229l105 243q9 23 9 34q0 20 -12 28t-50 10v62h206v-62q-21 -3 -32 -9t-19 -23l-226 -515h-45l-258 515q-8 17 -18.5 23t-30.5 9v62h307v-62q-38 -2 -50.5 -10t-12.5 -28q0 -13 9 -35z" />
    <glyph glyph-name="W.sc" horiz-adv-x="908" 
d="M658 231l84 223q13 39 13 52q0 20 -12 28t-49 10v62h202v-62q-43 -7 -52 -32l-199 -515h-57l-122 329l-128 -329h-59l-217 515q-11 25 -49 32v62h292v-62q-28 -3 -40.5 -12t-12.5 -26q0 -14 12 -44l92 -237l75 199l-31 88q-11 26 -45 32v62h281v-62q-38 -2 -50 -10
t-12 -28q0 -13 13 -55z" />
    <glyph glyph-name="X.sc" horiz-adv-x="677" 
d="M386 126l-90 116l-93 -115q-17 -18 -17 -37q0 -16 10.5 -22.5t37.5 -6.5v-61h-221v61q42 0 69 29l170 208l-170 218q-20 26 -50 28v62h306v-62q-49 0 -49 -28q0 -8 22 -37l63 -84l64 83q18 22 18 38q0 28 -46 28v62h218v-62q-40 0 -66 -28l-145 -176l192 -250
q18 -23 55 -29v-61h-299v61q23 0 32 6.5t9 22.5q0 10 -20 36z" />
    <glyph glyph-name="Y.sc" horiz-adv-x="635" 
d="M366 295l91 161q21 39 21 54q0 31 -59 34v62h203v-62q-37 -6 -51 -32l-167 -293v-99q0 -33 15 -45t59 -14v-61h-316v61q44 2 59.5 14t15.5 45v100l-175 292q-9 16 -19.5 22.5t-29.5 9.5v62h300v-62q-34 -1 -46 -8.5t-12 -25.5q0 -16 20 -54z" />
    <glyph glyph-name="Z.sc" horiz-adv-x="586" 
d="M232 64h114q48 0 74.5 24t75.5 116h66l-31 -204h-505v43l319 498h-109q-21 0 -35.5 -4t-27.5 -19t-17.5 -21.5t-19 -36t-18.5 -37.5h-62v183h491v-45z" />
    <glyph glyph-name="Aacute.sc" horiz-adv-x="678" 
d="M415 134l-21 49h-217l-20 -49q-7 -18 -7 -35q0 -20 11.5 -28t49.5 -10v-61h-198v61q14 3 21.5 5.5t15.5 9t12 17.5l182 443l-35 77h177l228 -520q10 -24 52 -32v-61h-303v61q38 2 50 10t12 29q0 11 -10 34zM332 816h170l-154 -162h-85zM284 446l-82 -202h167z" />
    <glyph glyph-name="Abreve.sc" horiz-adv-x="678" 
d="M415 134l-21 49h-217l-20 -49q-7 -18 -7 -35q0 -20 11.5 -28t49.5 -10v-61h-198v61q14 3 21.5 5.5t15.5 9t12 17.5l182 443l-35 77h177l228 -520q10 -24 52 -32v-61h-303v61q38 2 50 10t12 29q0 11 -10 34zM313 652q-73 0 -114 45t-41 125h64q6 -44 31 -63.5t60 -19.5
t60.5 19.5t31.5 63.5h64q0 -80 -41 -125t-115 -45zM284 446l-82 -202h167z" />
    <glyph glyph-name="Acircumflex.sc" horiz-adv-x="678" 
d="M415 134l-21 49h-217l-20 -49q-7 -18 -7 -35q0 -20 11.5 -28t49.5 -10v-61h-198v61q14 3 21.5 5.5t15.5 9t12 17.5l182 443l-35 77h177l228 -520q10 -24 52 -32v-61h-303v61q38 2 50 10t12 29q0 11 -10 34zM374 817l139 -170h-86l-114 85l-114 -85h-86l139 170h122z
M284 446l-82 -202h167z" />
    <glyph glyph-name="Adieresis.sc" horiz-adv-x="678" 
d="M415 134l-21 49h-217l-20 -49q-7 -18 -7 -35q0 -20 11.5 -28t49.5 -10v-61h-198v61q14 3 21.5 5.5t15.5 9t12 17.5l182 443l-35 77h177l228 -520q10 -24 52 -32v-61h-303v61q38 2 50 10t12 29q0 11 -10 34zM123 739q0 34 24.5 58.5t58.5 24.5t59 -24.5t25 -58.5
t-25 -58.5t-59 -24.5t-58.5 24.5t-24.5 58.5zM337 739q0 34 24.5 58.5t57.5 24.5q36 0 60.5 -24.5t24.5 -58.5t-24.5 -58.5t-60.5 -24.5q-33 0 -57.5 24.5t-24.5 58.5zM284 446l-82 -202h167z" />
    <glyph glyph-name="Agrave.sc" horiz-adv-x="678" 
d="M415 134l-21 49h-217l-20 -49q-7 -18 -7 -35q0 -20 11.5 -28t49.5 -10v-61h-198v61q14 3 21.5 5.5t15.5 9t12 17.5l182 443l-35 77h177l228 -520q10 -24 52 -32v-61h-303v61q38 2 50 10t12 29q0 11 -10 34zM122 816h170l68 -162h-84zM284 446l-82 -202h167z" />
    <glyph glyph-name="Amacron.sc" horiz-adv-x="678" 
d="M415 134l-21 49h-217l-20 -49q-7 -18 -7 -35q0 -20 11.5 -28t49.5 -10v-61h-198v61q14 3 21.5 5.5t15.5 9t12 17.5l182 443l-35 77h177l228 -520q10 -24 52 -32v-61h-303v61q38 2 50 10t12 29q0 11 -10 34zM164 676v93h298v-93h-298zM284 446l-82 -202h167z" />
    <glyph glyph-name="Aogonek.sc" horiz-adv-x="678" 
d="M209 613h177l228 -520q10 -24 52 -32v-61h-287q-58 -31 -58 -84t46 -53q39 0 75 23l17 -26q-64 -73 -137 -73q-41 0 -70 27t-29 73q0 86 129 148q40 19 55 33.5t15 36.5q0 12 -12 39l-16 39h-217l-20 -49q-7 -18 -7 -35q0 -20 11.5 -28t49.5 -10v-61h-198v61
q14 3 21.5 5.5t15.5 9t12 17.5l182 443zM284 446l-82 -202h167z" />
    <glyph glyph-name="Aring.sc" horiz-adv-x="678" 
d="M415 134l-21 49h-217l-20 -49q-7 -18 -7 -35q0 -20 11.5 -28t49.5 -10v-61h-198v61q14 3 21.5 5.5t15.5 9t12 17.5l182 443l-35 77h177l228 -520q10 -24 52 -32v-61h-303v61q38 2 50 10t12 29q0 11 -10 34zM204 745q0 42 30.5 70.5t78.5 28.5t78.5 -28.5t30.5 -70.5
t-30.5 -70.5t-78.5 -28.5t-78.5 28.5t-30.5 70.5zM284 446l-82 -202h167zM360 745q0 20 -12.5 33t-34.5 13t-34.5 -13t-12.5 -33t12.5 -33t34.5 -13t34.5 13t12.5 33z" />
    <glyph glyph-name="Aringacute.sc" horiz-adv-x="678" 
d="M415 134l-21 49h-217l-20 -49q-7 -18 -7 -35q0 -20 11.5 -28t49.5 -10v-61h-198v61q14 3 21.5 5.5t15.5 9t12 17.5l182 443l-35 77h177l228 -520q10 -24 52 -32v-61h-303v61q38 2 50 10t12 29q0 11 -10 34zM198 725q0 40 31.5 64t82.5 24t82.5 -24t31.5 -64t-31.5 -64
t-82.5 -24t-82.5 24t-31.5 64zM284 446l-82 -202h167zM320 956h171l-136 -117h-81zM365 725q0 19 -14.5 30t-38.5 11t-38.5 -11t-14.5 -30t14.5 -30t38.5 -11t38.5 11t14.5 30z" />
    <glyph glyph-name="Atilde.sc" horiz-adv-x="678" 
d="M415 134l-21 49h-217l-20 -49q-7 -18 -7 -35q0 -20 11.5 -28t49.5 -10v-61h-198v61q14 3 21.5 5.5t15.5 9t12 17.5l182 443l-35 77h177l228 -520q10 -24 52 -32v-61h-303v61q38 2 50 10t12 29q0 11 -10 34zM460 818l55 -12q-38 -88 -65 -115.5t-71 -27.5q-31 0 -76 31
t-62 31q-20 0 -34 -13.5t-31 -42.5l-56 11q39 89 66 116.5t71 27.5q35 0 78.5 -31.5t59.5 -31.5q20 0 33.5 13.5t31.5 43.5zM284 446l-82 -202h167z" />
    <glyph glyph-name="AE.sc" horiz-adv-x="946" 
d="M63 93l289 416q-8 18 -24 25.5t-53 9.5v62h610v-168h-68q-23 58 -47 81.5t-73 23.5h-90v-198h69q30 0 43.5 14t20.5 52h58v-198h-58q-7 39 -20.5 53t-43.5 14h-69v-161q0 -33 17 -45t54 -12h26q44 0 72.5 25t73.5 94h67l-27 -181h-524v62q44 2 57 13t13 45v89h-207
l-41 -58q-22 -30 -22 -52q0 -20 12.5 -28t51.5 -10v-61h-217v61q32 7 50 32zM436 502l-164 -232h164v232z" />
    <glyph glyph-name="AEacute.sc" horiz-adv-x="946" 
d="M63 93l289 416q-8 18 -24 25.5t-53 9.5v62h610v-168h-68q-23 58 -47 81.5t-73 23.5h-90v-198h69q30 0 43.5 14t20.5 52h58v-198h-58q-7 39 -20.5 53t-43.5 14h-69v-161q0 -33 17 -45t54 -12h26q44 0 72.5 25t73.5 94h67l-27 -181h-524v62q44 2 57 13t13 45v89h-207
l-41 -58q-22 -30 -22 -52q0 -20 12.5 -28t51.5 -10v-61h-217v61q32 7 50 32zM594 816h170l-154 -162h-85zM436 502l-164 -232h164v232z" />
    <glyph glyph-name="Cacute.sc" horiz-adv-x="636" 
d="M380 816h170l-154 -162h-85zM374 60q53 0 83.5 36.5t54.5 119.5h85l-14 -168q-87 -58 -223 -58q-152 0 -237.5 83.5t-85.5 217.5q0 146 93.5 235.5t231.5 89.5q137 0 212 -65v-141h-85q-17 69 -46.5 105.5t-82.5 36.5q-71 0 -103 -68t-32 -168q0 -117 38.5 -186.5
t110.5 -69.5z" />
    <glyph glyph-name="Ccaron.sc" horiz-adv-x="636" 
d="M562 825l-139 -170h-122l-139 170h86l114 -85l114 85h86zM374 60q53 0 83.5 36.5t54.5 119.5h85l-14 -168q-87 -58 -223 -58q-152 0 -237.5 83.5t-85.5 217.5q0 146 93.5 235.5t231.5 89.5q137 0 212 -65v-141h-85q-17 69 -46.5 105.5t-82.5 36.5q-71 0 -103 -68
t-32 -168q0 -117 38.5 -186.5t110.5 -69.5z" />
    <glyph glyph-name="Ccedilla.sc" horiz-adv-x="636" 
d="M250 -231l-10 46q115 0 115 41q0 33 -86 37l40 100q-129 13 -200.5 94t-71.5 204q0 146 93.5 235.5t231.5 89.5q137 0 212 -65v-141h-85q-17 69 -46.5 105.5t-82.5 36.5q-71 0 -103 -68t-32 -168q0 -117 38.5 -186.5t110.5 -69.5q53 0 83.5 36.5t54.5 119.5h85l-14 -168
q-87 -58 -223 -58h-5l-12 -35q99 -8 99 -77q0 -52 -56 -80.5t-136 -28.5z" />
    <glyph glyph-name="Ccircumflex.sc" horiz-adv-x="636" 
d="M418 817l139 -170h-86l-114 85l-114 -85h-86l139 170h122zM374 60q53 0 83.5 36.5t54.5 119.5h85l-14 -168q-87 -58 -223 -58q-152 0 -237.5 83.5t-85.5 217.5q0 146 93.5 235.5t231.5 89.5q137 0 212 -65v-141h-85q-17 69 -46.5 105.5t-82.5 36.5q-71 0 -103 -68
t-32 -168q0 -117 38.5 -186.5t110.5 -69.5z" />
    <glyph glyph-name="Cdotaccent.sc" horiz-adv-x="636" 
d="M374 60q53 0 83.5 36.5t54.5 119.5h85l-14 -168q-87 -58 -223 -58q-152 0 -237.5 83.5t-85.5 217.5q0 146 93.5 235.5t231.5 89.5q137 0 212 -65v-141h-85q-17 69 -46.5 105.5t-82.5 36.5q-71 0 -103 -68t-32 -168q0 -117 38.5 -186.5t110.5 -69.5zM357 652
q-43 0 -69.5 26t-26.5 63t26.5 63t69.5 26q42 0 68 -26t26 -63t-26 -63t-68 -26z" />
    <glyph glyph-name="Dcaron.sc" horiz-adv-x="721" 
d="M297 542h-19v-418q0 -37 13 -48.5t47 -11.5h8q152 0 152 239q0 109 -51 174t-150 65zM352 0h-318v62q44 2 57 13t13 46v364q0 34 -13 45.5t-57 13.5v62h286q175 0 270 -76t95 -218q0 -146 -89 -229t-244 -83zM549 825l-139 -170h-122l-139 170h86l114 -85l114 85h86z" />
    <glyph glyph-name="Dcroat.sc" horiz-adv-x="730" 
d="M360 0h-318v62q44 2 57 13t13 46v158h-70v66h70v140q0 34 -13 45.5t-57 13.5v62h286q175 0 270 -76t95 -218q0 -146 -89 -229t-244 -83zM305 542h-19v-197h114v-66h-114v-155q0 -37 13 -48.5t47 -11.5h8q152 0 152 239q0 109 -51 174t-150 65z" />
    <glyph glyph-name="Eacute.sc" horiz-adv-x="613" 
d="M333 816h170l-154 -162h-85zM557 0h-523v62q44 2 57 13t13 46v364q0 34 -13 45.5t-57 13.5v62h518v-168h-68q-23 58 -46.5 81.5t-73.5 23.5h-89v-198h69q29 0 42.5 14t20.5 52h58v-198h-58q-7 39 -20.5 53t-42.5 14h-69v-161q0 -33 16.5 -45t53.5 -12h26q44 0 72.5 25
t73.5 94h67z" />
    <glyph glyph-name="Ebreve.sc" horiz-adv-x="613" 
d="M557 0h-523v62q44 2 57 13t13 46v364q0 34 -13 45.5t-57 13.5v62h518v-168h-68q-23 58 -46.5 81.5t-73.5 23.5h-89v-198h69q29 0 42.5 14t20.5 52h58v-198h-58q-7 39 -20.5 53t-42.5 14h-69v-161q0 -33 16.5 -45t53.5 -12h26q44 0 72.5 25t73.5 94h67zM314 652
q-73 0 -114 45t-41 125h64q6 -44 31 -63.5t60 -19.5t60.5 19.5t31.5 63.5h64q0 -80 -41 -125t-115 -45z" />
    <glyph glyph-name="Ecaron.sc" horiz-adv-x="613" 
d="M514 825l-139 -170h-122l-139 170h86l114 -85l114 85h86zM557 0h-523v62q44 2 57 13t13 46v364q0 34 -13 45.5t-57 13.5v62h518v-168h-68q-23 58 -46.5 81.5t-73.5 23.5h-89v-198h69q29 0 42.5 14t20.5 52h58v-198h-58q-7 39 -20.5 53t-42.5 14h-69v-161q0 -33 16.5 -45
t53.5 -12h26q44 0 72.5 25t73.5 94h67z" />
    <glyph glyph-name="Ecircumflex.sc" horiz-adv-x="613" 
d="M375 817l139 -170h-86l-114 85l-114 -85h-86l139 170h122zM557 0h-523v62q44 2 57 13t13 46v364q0 34 -13 45.5t-57 13.5v62h518v-168h-68q-23 58 -46.5 81.5t-73.5 23.5h-89v-198h69q29 0 42.5 14t20.5 52h58v-198h-58q-7 39 -20.5 53t-42.5 14h-69v-161q0 -33 16.5 -45
t53.5 -12h26q44 0 72.5 25t73.5 94h67z" />
    <glyph glyph-name="Edieresis.sc" horiz-adv-x="613" 
d="M124 739q0 34 24.5 58.5t58.5 24.5t59 -24.5t25 -58.5t-25 -58.5t-59 -24.5t-58.5 24.5t-24.5 58.5zM338 739q0 34 24.5 58.5t57.5 24.5q36 0 60.5 -24.5t24.5 -58.5t-24.5 -58.5t-60.5 -24.5q-33 0 -57.5 24.5t-24.5 58.5zM557 0h-523v62q44 2 57 13t13 46v364
q0 34 -13 45.5t-57 13.5v62h518v-168h-68q-23 58 -46.5 81.5t-73.5 23.5h-89v-198h69q29 0 42.5 14t20.5 52h58v-198h-58q-7 39 -20.5 53t-42.5 14h-69v-161q0 -33 16.5 -45t53.5 -12h26q44 0 72.5 25t73.5 94h67z" />
    <glyph glyph-name="Edotaccent.sc" horiz-adv-x="613" 
d="M315 652q-43 0 -69.5 26t-26.5 63t26.5 63t69.5 26q42 0 68 -26t26 -63t-26 -63t-68 -26zM557 0h-523v62q44 2 57 13t13 46v364q0 34 -13 45.5t-57 13.5v62h518v-168h-68q-23 58 -46.5 81.5t-73.5 23.5h-89v-198h69q29 0 42.5 14t20.5 52h58v-198h-58q-7 39 -20.5 53
t-42.5 14h-69v-161q0 -33 16.5 -45t53.5 -12h26q44 0 72.5 25t73.5 94h67z" />
    <glyph glyph-name="Egrave.sc" horiz-adv-x="613" 
d="M123 816h170l68 -162h-84zM557 0h-523v62q44 2 57 13t13 46v364q0 34 -13 45.5t-57 13.5v62h518v-168h-68q-23 58 -46.5 81.5t-73.5 23.5h-89v-198h69q29 0 42.5 14t20.5 52h58v-198h-58q-7 39 -20.5 53t-42.5 14h-69v-161q0 -33 16.5 -45t53.5 -12h26q44 0 72.5 25
t73.5 94h67z" />
    <glyph glyph-name="Emacron.sc" horiz-adv-x="613" 
d="M165 676v93h298v-93h-298zM557 0h-523v62q44 2 57 13t13 46v364q0 34 -13 45.5t-57 13.5v62h518v-168h-68q-23 58 -46.5 81.5t-73.5 23.5h-89v-198h69q29 0 42.5 14t20.5 52h58v-198h-58q-7 39 -20.5 53t-42.5 14h-69v-161q0 -33 16.5 -45t53.5 -12h26q44 0 72.5 25
t73.5 94h67z" />
    <glyph glyph-name="Eogonek.sc" horiz-adv-x="613" 
d="M557 0h-74q-72 -42 -72 -96q0 -41 45 -41q38 0 74 23l18 -26q-67 -75 -142 -75q-40 0 -67.5 22.5t-27.5 61.5q0 76 99 131h-376v62q44 2 57 13t13 46v364q0 34 -13 45.5t-57 13.5v62h518v-168h-68q-23 58 -46.5 81.5t-73.5 23.5h-89v-198h69q29 0 42.5 14t20.5 52h58
v-198h-58q-7 39 -20.5 53t-42.5 14h-69v-161q0 -33 16.5 -45t53.5 -12h26q44 0 72.5 25t73.5 94h67z" />
    <glyph glyph-name="Eth.sc" horiz-adv-x="730" 
d="M360 0h-318v62q44 2 57 13t13 46v158h-70v66h70v140q0 34 -13 45.5t-57 13.5v62h286q175 0 270 -76t95 -218q0 -146 -89 -229t-244 -83zM305 542h-19v-197h114v-66h-114v-155q0 -37 13 -48.5t47 -11.5h8q152 0 152 239q0 109 -51 174t-150 65z" />
    <glyph glyph-name="Gbreve.sc" horiz-adv-x="682" 
d="M37 291q0 145 96 235t233 90q136 0 212 -65v-141h-85q-20 70 -49 106t-80 36q-71 0 -106.5 -69t-35.5 -167q0 -257 156 -257q29 0 56 9v115q0 33 -13.5 44t-55.5 12v64h296v-64q-43 -1 -55.5 -11.5t-12.5 -44.5v-130q-88 -63 -239 -63q-152 0 -234.5 83.5t-82.5 217.5z
M362 652q-73 0 -114 45t-41 125h64q6 -44 31 -63.5t60 -19.5t60.5 19.5t31.5 63.5h64q0 -80 -41 -125t-115 -45z" />
    <glyph glyph-name="Gcircumflex.sc" horiz-adv-x="682" 
d="M424 817l139 -170h-86l-114 85l-114 -85h-86l139 170h122zM37 291q0 145 96 235t233 90q136 0 212 -65v-141h-85q-20 70 -49 106t-80 36q-71 0 -106.5 -69t-35.5 -167q0 -257 156 -257q29 0 56 9v115q0 33 -13.5 44t-55.5 12v64h296v-64q-43 -1 -55.5 -11.5t-12.5 -44.5
v-130q-88 -63 -239 -63q-152 0 -234.5 83.5t-82.5 217.5z" />
    <glyph glyph-name="Gcommaaccent.sc" horiz-adv-x="682" 
d="M390 -157h-57q-48 13 -48 59q0 27 21.5 44.5t58.5 17.5q44 0 69 -26t25 -68q0 -53 -40 -84.5t-127 -31.5v43q95 0 98 46zM37 291q0 145 96 235t233 90q136 0 212 -65v-141h-85q-20 70 -49 106t-80 36q-71 0 -106.5 -69t-35.5 -167q0 -257 156 -257q29 0 56 9v115
q0 33 -13.5 44t-55.5 12v64h296v-64q-43 -1 -55.5 -11.5t-12.5 -44.5v-130q-88 -63 -239 -63q-152 0 -234.5 83.5t-82.5 217.5z" />
    <glyph glyph-name="Gdotaccent.sc" horiz-adv-x="682" 
d="M37 291q0 145 96 235t233 90q136 0 212 -65v-141h-85q-20 70 -49 106t-80 36q-71 0 -106.5 -69t-35.5 -167q0 -257 156 -257q29 0 56 9v115q0 33 -13.5 44t-55.5 12v64h296v-64q-43 -1 -55.5 -11.5t-12.5 -44.5v-130q-88 -63 -239 -63q-152 0 -234.5 83.5t-82.5 217.5z
M365 652q-43 0 -69.5 26t-26.5 63t26.5 63t69.5 26q42 0 68 -26t26 -63t-26 -63t-68 -26z" />
    <glyph glyph-name="Hbar.sc" horiz-adv-x="792" 
d="M112 385h-70v65h70v35q0 34 -13 45.5t-57 13.5v62h314v-62q-43 -2 -56.5 -13.5t-13.5 -45.5v-35h220v35q0 34 -13 45.5t-57 13.5v62h314v-62q-44 -2 -57 -13.5t-13 -45.5v-35h70v-65h-70v-264q0 -35 13 -46t57 -13v-62h-314v62q44 2 57 13t13 46v122h-220v-122
q0 -34 13 -45.5t57 -13.5v-62h-314v62q44 2 57 13t13 46v264zM286 309h220v76h-220v-76z" />
    <glyph glyph-name="Hcircumflex.sc" horiz-adv-x="776" 
d="M449 817l139 -170h-86l-114 85l-114 -85h-86l139 170h122zM742 62v-62h-314v62q44 2 57 13.5t13 45.5v158h-220v-158q0 -35 13 -46t57 -13v-62h-314v62q44 2 57 13t13 46v364q0 34 -13 45.5t-57 13.5v62h314v-62q-44 -2 -57 -13.5t-13 -45.5v-140h220v140
q0 34 -13.5 45.5t-56.5 13.5v62h314v-62q-44 -2 -57 -13.5t-13 -45.5v-364q0 -35 13 -46t57 -13z" />
    <glyph glyph-name="Iacute.sc" horiz-adv-x="382" 
d="M210 816h170l-154 -162h-85zM348 62v-62h-314v62q44 2 57 13t13 46v364q0 34 -13 45.5t-57 13.5v62h314v-62q-44 -2 -57 -13.5t-13 -45.5v-364q0 -35 13 -46t57 -13z" />
    <glyph glyph-name="Ibreve.sc" horiz-adv-x="382" 
d="M348 62v-62h-314v62q44 2 57 13t13 46v364q0 34 -13 45.5t-57 13.5v62h314v-62q-44 -2 -57 -13.5t-13 -45.5v-364q0 -35 13 -46t57 -13zM190 652q-73 0 -114 45t-41 125h64q6 -44 31 -63.5t60 -19.5t60.5 19.5t31.5 63.5h64q0 -80 -41 -125t-115 -45z" />
    <glyph glyph-name="Icircumflex.sc" horiz-adv-x="382" 
d="M252 817l139 -170h-86l-114 85l-114 -85h-86l139 170h122zM348 62v-62h-314v62q44 2 57 13t13 46v364q0 34 -13 45.5t-57 13.5v62h314v-62q-44 -2 -57 -13.5t-13 -45.5v-364q0 -35 13 -46t57 -13z" />
    <glyph glyph-name="Idieresis.sc" horiz-adv-x="382" 
d="M1 739q0 34 24.5 58.5t58.5 24.5t59 -24.5t25 -58.5t-25 -58.5t-59 -24.5t-58.5 24.5t-24.5 58.5zM215 739q0 34 24.5 58.5t57.5 24.5q36 0 60.5 -24.5t24.5 -58.5t-24.5 -58.5t-60.5 -24.5q-33 0 -57.5 24.5t-24.5 58.5zM348 62v-62h-314v62q44 2 57 13t13 46v364
q0 34 -13 45.5t-57 13.5v62h314v-62q-44 -2 -57 -13.5t-13 -45.5v-364q0 -35 13 -46t57 -13z" />
    <glyph glyph-name="Idotaccent.sc" horiz-adv-x="382" 
d="M348 62v-62h-314v62q44 2 57 13t13 46v364q0 34 -13 45.5t-57 13.5v62h314v-62q-44 -2 -57 -13.5t-13 -45.5v-364q0 -35 13 -46t57 -13zM192 652q-43 0 -69.5 26t-26.5 63t26.5 63t69.5 26q42 0 68 -26t26 -63t-26 -63t-68 -26z" />
    <glyph glyph-name="Igrave.sc" horiz-adv-x="382" 
d="M348 62v-62h-314v62q44 2 57 13t13 46v364q0 34 -13 45.5t-57 13.5v62h314v-62q-44 -2 -57 -13.5t-13 -45.5v-364q0 -35 13 -46t57 -13zM0 816h170l68 -162h-84z" />
    <glyph glyph-name="Imacron.sc" horiz-adv-x="382" 
d="M348 62v-62h-314v62q44 2 57 13t13 46v364q0 34 -13 45.5t-57 13.5v62h314v-62q-44 -2 -57 -13.5t-13 -45.5v-364q0 -35 13 -46t57 -13zM42 676v93h298v-93h-298z" />
    <glyph glyph-name="Iogonek.sc" horiz-adv-x="382" 
d="M348 62v-62h-102q-72 -42 -72 -96q0 -41 45 -41q38 0 74 23l18 -26q-67 -75 -142 -75q-40 0 -67.5 22.5t-27.5 61.5q0 76 99 131h-139v62q44 2 57 13t13 46v364q0 34 -13 45.5t-57 13.5v62h314v-62q-44 -2 -57 -13.5t-13 -45.5v-364q0 -35 13 -46t57 -13z" />
    <glyph glyph-name="Itilde.sc" horiz-adv-x="382" 
d="M335 817l55 -11q-38 -88 -65 -115.5t-71 -27.5q-30 0 -73.5 31t-59.5 31q-20 0 -33.5 -13.5t-31.5 -42.5l-55 11q38 88 65 115.5t71 27.5q35 0 76.5 -31t56.5 -31q20 0 33.5 13.5t31.5 42.5zM348 62v-62h-314v62q44 2 57 13t13 46v364q0 34 -13 45.5t-57 13.5v62h314v-62
q-44 -2 -57 -13.5t-13 -45.5v-364q0 -35 13 -46t57 -13z" />
    <glyph glyph-name="IJ.sc" horiz-adv-x="928" 
d="M348 62v-62h-314v62q44 2 57 13t13 46v364q0 34 -13 45.5t-57 13.5v62h314v-62q-44 -2 -57 -13.5t-13 -45.5v-364q0 -35 13 -46t57 -13zM835 486v-291q0 -205 -236 -205q-101 0 -159 36t-58 100q0 50 43 79h119v-47q0 -107 58 -107q34 0 46 29t12 86v320q0 34 -12.5 45
t-55.5 13v62h314v-62q-44 -2 -57.5 -13t-13.5 -45z" />
    <glyph glyph-name="Jcircumflex.sc" horiz-adv-x="560" 
d="M437 817l139 -170h-86l-114 85l-114 -85h-86l139 170h122zM467 486v-291q0 -205 -236 -205q-101 0 -159 36t-58 100q0 50 43 79h119v-47q0 -107 58 -107q34 0 46 29t12 86v320q0 34 -12.5 45t-55.5 13v62h314v-62q-44 -2 -57.5 -13t-13.5 -45z" />
    <glyph glyph-name="Kcommaaccent.sc" horiz-adv-x="709" 
d="M385 -157h-57q-48 13 -48 59q0 27 21.5 44.5t58.5 17.5q44 0 69 -26t25 -68q0 -53 -40 -84.5t-127 -31.5v43q95 0 98 46zM449 366l160 -244q24 -36 42.5 -48.5t46.5 -13.5v-60h-197q-36 24 -78 91l-137 217l185 170q26 23 26 39q0 26 -52 27v62h232v-62q-27 -1 -41 -7
t-32 -24zM348 62v-62h-314v62q44 2 57 13t13 46v364q0 34 -13 45.5t-57 13.5v62h314v-62q-44 -2 -57 -13.5t-13 -45.5v-364q0 -35 13 -46t57 -13z" />
    <glyph glyph-name="Lacute.sc" horiz-adv-x="597" 
d="M278 485v-363q0 -34 15 -46t52 -12h22q40 0 62 24t79 123h72l-33 -211h-513v62q44 2 57 13t13 46v364q0 34 -13 45.5t-57 13.5v62h314v-62q-44 -2 -57 -13.5t-13 -45.5zM225 816h170l-154 -162h-85z" />
    <glyph glyph-name="Lcaron.sc" horiz-adv-x="597" 
d="M278 485v-363q0 -34 15 -46t52 -12h22q40 0 62 24t79 123h72l-33 -211h-513v62q44 2 57 13t13 46v364q0 34 -13 45.5t-57 13.5v62h314v-62q-44 -2 -57 -13.5t-13 -45.5zM560 606l-91 -205h-68l15 205h144z" />
    <glyph glyph-name="Lcommaaccent.sc" horiz-adv-x="597" 
d="M278 485v-363q0 -34 15 -46t52 -12h22q40 0 62 24t79 123h72l-33 -211h-513v62q44 2 57 13t13 46v364q0 34 -13 45.5t-57 13.5v62h314v-62q-44 -2 -57 -13.5t-13 -45.5zM326 -157h-57q-48 13 -48 59q0 27 21.5 44.5t58.5 17.5q44 0 69 -26t25 -68q0 -53 -40 -84.5
t-127 -31.5v43q95 0 98 46z" />
    <glyph glyph-name="Ldot.sc" horiz-adv-x="597" 
d="M278 485v-363q0 -34 15 -46t52 -12h22q40 0 62 24t79 123h72l-33 -211h-513v62q44 2 57 13t13 46v364q0 34 -13 45.5t-57 13.5v62h314v-62q-44 -2 -57 -13.5t-13 -45.5zM490 284q-43 0 -69.5 26t-26.5 63t26.5 63t69.5 26q42 0 68 -26t26 -63t-26 -63t-68 -26z" />
    <glyph glyph-name="Lslash.sc" horiz-adv-x="605" 
d="M286 308v-186q0 -34 15 -46t52 -12h22q40 0 62 24t79 123h72l-33 -211h-513v62q44 2 57 13t13 46v131l-70 -25v67l70 24v167q0 34 -13 45.5t-57 13.5v62h314v-62q-44 -2 -57 -13.5t-13 -45.5v-110l128 47v-67z" />
    <glyph glyph-name="Nacute.sc" horiz-adv-x="698" 
d="M380 816h170l-154 -162h-85zM104 120v382q-18 24 -31.5 31.5t-38.5 10.5v62h230l263 -330v210q0 33 -16.5 44.5t-61.5 13.5v62h226v-62q-43 -2 -56 -13t-13 -45v-486h-71l-352 430v-310q0 -33 16.5 -45t61.5 -14v-61h-227v61q44 2 57 13.5t13 45.5z" />
    <glyph glyph-name="Ncaron.sc" horiz-adv-x="698" 
d="M561 825l-139 -170h-122l-139 170h86l114 -85l114 85h86zM104 120v382q-18 24 -31.5 31.5t-38.5 10.5v62h230l263 -330v210q0 33 -16.5 44.5t-61.5 13.5v62h226v-62q-43 -2 -56 -13t-13 -45v-486h-71l-352 430v-310q0 -33 16.5 -45t61.5 -14v-61h-227v61q44 2 57 13.5
t13 45.5z" />
    <glyph glyph-name="Ncommaaccent.sc" horiz-adv-x="698" 
d="M380 -157h-57q-48 13 -48 59q0 27 21.5 44.5t58.5 17.5q44 0 69 -26t25 -68q0 -53 -40 -84.5t-127 -31.5v43q95 0 98 46zM104 120v382q-18 24 -31.5 31.5t-38.5 10.5v62h230l263 -330v210q0 33 -16.5 44.5t-61.5 13.5v62h226v-62q-43 -2 -56 -13t-13 -45v-486h-71
l-352 430v-310q0 -33 16.5 -45t61.5 -14v-61h-227v61q44 2 57 13.5t13 45.5z" />
    <glyph glyph-name="Ntilde.sc" horiz-adv-x="698" 
d="M104 120v382q-18 24 -31.5 31.5t-38.5 10.5v62h230l263 -330v210q0 33 -16.5 44.5t-61.5 13.5v62h226v-62q-43 -2 -56 -13t-13 -45v-486h-71l-352 430v-310q0 -33 16.5 -45t61.5 -14v-61h-227v61q44 2 57 13.5t13 45.5zM504 818l55 -12q-38 -88 -65 -115.5t-71 -27.5
q-31 0 -76 31t-62 31q-20 0 -34 -13.5t-31 -42.5l-56 11q39 89 66 116.5t71 27.5q35 0 78.5 -31.5t59.5 -31.5q20 0 33.5 13.5t31.5 43.5z" />
    <glyph glyph-name="Eng.sc" horiz-adv-x="698" 
d="M474 74l-291 356v-310q0 -33 16.5 -45t61.5 -14v-61h-227v61q44 2 57 13.5t13 45.5v382q-18 24 -31.5 31.5t-38.5 10.5v62h230l263 -329v209q0 33 -16.5 44.5t-61.5 13.5v62h226v-62q-43 -2 -56 -13t-13 -45v-369q0 -74 -13.5 -118t-43.5 -79q-21 -24 -46.5 -43.5
t-44 -29t-50.5 -25.5l-29 28l27 35q68 88 68 189z" />
    <glyph glyph-name="Oacute.sc" horiz-adv-x="691" 
d="M357 55q57 0 84.5 64.5t27.5 167.5q0 124 -34 193.5t-101 69.5q-57 0 -84.5 -64t-27.5 -168q0 -125 33.5 -194t101.5 -69zM337 -10q-140 0 -220 87t-80 214q0 147 89 236t228 89t219.5 -87.5t80.5 -213.5q0 -147 -89 -236t-228 -89zM368 816h170l-154 -162h-85z" />
    <glyph glyph-name="Obreve.sc" horiz-adv-x="691" 
d="M357 55q57 0 84.5 64.5t27.5 167.5q0 124 -34 193.5t-101 69.5q-57 0 -84.5 -64t-27.5 -168q0 -125 33.5 -194t101.5 -69zM337 -10q-140 0 -220 87t-80 214q0 147 89 236t228 89t219.5 -87.5t80.5 -213.5q0 -147 -89 -236t-228 -89zM348 652q-73 0 -114 45t-41 125h64
q6 -44 31 -63.5t60 -19.5t60.5 19.5t31.5 63.5h64q0 -80 -41 -125t-115 -45z" />
    <glyph glyph-name="Ocircumflex.sc" horiz-adv-x="691" 
d="M410 817l139 -170h-86l-114 85l-114 -85h-86l139 170h122zM357 55q57 0 84.5 64.5t27.5 167.5q0 124 -34 193.5t-101 69.5q-57 0 -84.5 -64t-27.5 -168q0 -125 33.5 -194t101.5 -69zM337 -10q-140 0 -220 87t-80 214q0 147 89 236t228 89t219.5 -87.5t80.5 -213.5
q0 -147 -89 -236t-228 -89z" />
    <glyph glyph-name="Odieresis.sc" horiz-adv-x="691" 
d="M158 739q0 34 24.5 58.5t58.5 24.5t59 -24.5t25 -58.5t-25 -58.5t-59 -24.5t-58.5 24.5t-24.5 58.5zM372 739q0 34 24.5 58.5t57.5 24.5q36 0 60.5 -24.5t24.5 -58.5t-24.5 -58.5t-60.5 -24.5q-33 0 -57.5 24.5t-24.5 58.5zM357 55q57 0 84.5 64.5t27.5 167.5
q0 124 -34 193.5t-101 69.5q-57 0 -84.5 -64t-27.5 -168q0 -125 33.5 -194t101.5 -69zM337 -10q-140 0 -220 87t-80 214q0 147 89 236t228 89t219.5 -87.5t80.5 -213.5q0 -147 -89 -236t-228 -89z" />
    <glyph glyph-name="Ograve.sc" horiz-adv-x="691" 
d="M357 55q57 0 84.5 64.5t27.5 167.5q0 124 -34 193.5t-101 69.5q-57 0 -84.5 -64t-27.5 -168q0 -125 33.5 -194t101.5 -69zM337 -10q-140 0 -220 87t-80 214q0 147 89 236t228 89t219.5 -87.5t80.5 -213.5q0 -147 -89 -236t-228 -89zM158 816h170l68 -162h-84z" />
    <glyph glyph-name="Ohungarumlaut.sc" horiz-adv-x="691" 
d="M357 55q57 0 84.5 64.5t27.5 167.5q0 124 -34 193.5t-101 69.5q-57 0 -84.5 -64t-27.5 -168q0 -125 33.5 -194t101.5 -69zM337 -10q-140 0 -220 87t-80 214q0 147 89 236t228 89t219.5 -87.5t80.5 -213.5q0 -147 -89 -236t-228 -89zM279 816h147l-136 -162h-78zM465 816
h147l-136 -162h-78z" />
    <glyph glyph-name="Omacron.sc" horiz-adv-x="691" 
d="M357 55q57 0 84.5 64.5t27.5 167.5q0 124 -34 193.5t-101 69.5q-57 0 -84.5 -64t-27.5 -168q0 -125 33.5 -194t101.5 -69zM337 -10q-140 0 -220 87t-80 214q0 147 89 236t228 89t219.5 -87.5t80.5 -213.5q0 -147 -89 -236t-228 -89zM200 676v93h298v-93h-298z" />
    <glyph glyph-name="Oslash.sc" horiz-adv-x="691" 
d="M337 -10q-84 0 -148 33l-66 -94l-48 32l66 93q-104 84 -104 237q0 147 89 236t228 89q86 0 154 -38l58 82l47 -32l-58 -82q99 -87 99 -231q0 -147 -89 -236t-228 -89zM220 318q0 -78 12 -133l207 294q-34 71 -105 71q-58 0 -86 -64.5t-28 -167.5zM357 55q58 0 86 64.5
t28 167.5q0 68 -11 123l-205 -292q34 -63 102 -63z" />
    <glyph glyph-name="Oslashacute.sc" horiz-adv-x="691" 
d="M337 -10q-84 0 -148 33l-66 -94l-48 32l66 93q-104 84 -104 237q0 147 89 236t228 89q86 0 154 -38l58 82l47 -32l-58 -82q99 -87 99 -231q0 -147 -89 -236t-228 -89zM220 318q0 -78 12 -133l207 294q-34 71 -105 71q-58 0 -86 -64.5t-28 -167.5zM357 55q58 0 86 64.5
t28 167.5q0 68 -11 123l-205 -292q34 -63 102 -63zM365 816h170l-154 -162h-85z" />
    <glyph glyph-name="Otilde.sc" horiz-adv-x="691" 
d="M357 55q57 0 84.5 64.5t27.5 167.5q0 124 -34 193.5t-101 69.5q-57 0 -84.5 -64t-27.5 -168q0 -125 33.5 -194t101.5 -69zM337 -10q-140 0 -220 87t-80 214q0 147 89 236t228 89t219.5 -87.5t80.5 -213.5q0 -147 -89 -236t-228 -89zM499 818l55 -12q-38 -88 -65 -115.5
t-71 -27.5q-31 0 -76 31t-62 31q-20 0 -34 -13.5t-31 -42.5l-56 11q39 89 66 116.5t71 27.5q35 0 78.5 -31.5t59.5 -31.5q20 0 33.5 13.5t31.5 43.5z" />
    <glyph glyph-name="OE.sc" horiz-adv-x="945" 
d="M889 0h-489q-174 0 -268.5 76.5t-94.5 220.5q0 142 96 225.5t252 83.5h499v-168h-68q-23 58 -47 81.5t-73 23.5h-90v-198h69q30 0 43.5 14t20.5 52h58v-198h-58q-7 39 -20.5 53t-43.5 14h-69v-161q0 -33 17 -45t54 -12h26q44 0 72.5 25t73.5 94h67zM435 62v481h-44
q-77 0 -122.5 -60.5t-45.5 -180.5q0 -113 52.5 -176.5t149.5 -63.5h10z" />
    <glyph glyph-name="Racute.sc" horiz-adv-x="686" 
d="M357 816h170l-154 -162h-85zM304 542h-29v-233h28q70 0 102.5 29t32.5 91q0 113 -134 113zM343 0h-309v62q44 2 57 13t13 46v364q0 34 -13 45.5t-57 13.5v62h334q121 0 182 -46t61 -129q0 -61 -36.5 -100t-93.5 -55l101 -152q24 -37 43 -49.5t52 -13.5v-61h-195
q-40 34 -74 96l-86 159h-47v-135q0 -34 12.5 -45.5t55.5 -13.5v-61z" />
    <glyph glyph-name="Rcaron.sc" horiz-adv-x="686" 
d="M538 825l-139 -170h-122l-139 170h86l114 -85l114 85h86zM304 542h-29v-233h28q70 0 102.5 29t32.5 91q0 113 -134 113zM343 0h-309v62q44 2 57 13t13 46v364q0 34 -13 45.5t-57 13.5v62h334q121 0 182 -46t61 -129q0 -61 -36.5 -100t-93.5 -55l101 -152q24 -37 43 -49.5
t52 -13.5v-61h-195q-40 34 -74 96l-86 159h-47v-135q0 -34 12.5 -45.5t55.5 -13.5v-61z" />
    <glyph glyph-name="Rcommaaccent.sc" horiz-adv-x="686" 
d="M378 -157h-57q-48 13 -48 59q0 27 21.5 44.5t58.5 17.5q44 0 69 -26t25 -68q0 -53 -40 -84.5t-127 -31.5v43q95 0 98 46zM304 542h-29v-233h28q70 0 102.5 29t32.5 91q0 113 -134 113zM343 0h-309v62q44 2 57 13t13 46v364q0 34 -13 45.5t-57 13.5v62h334q121 0 182 -46
t61 -129q0 -61 -36.5 -100t-93.5 -55l101 -152q24 -37 43 -49.5t52 -13.5v-61h-195q-40 34 -74 96l-86 159h-47v-135q0 -34 12.5 -45.5t55.5 -13.5v-61z" />
    <glyph glyph-name="Sacute.sc" horiz-adv-x="554" 
d="M307 816h170l-154 -162h-85zM267 -10q-132 0 -214 58l-9 144h88q18 -74 53 -107.5t96 -33.5q43 0 68.5 18.5t25.5 55.5q0 31 -26 49t-98 37q-104 26 -152.5 73t-48.5 129q0 94 62.5 148.5t162.5 54.5q124 0 201 -54v-130h-75q-21 61 -49.5 92.5t-84.5 31.5
q-42 0 -64.5 -20t-22.5 -53q0 -35 27 -53t98 -35q105 -25 155.5 -71.5t50.5 -135.5q0 -98 -68 -148t-176 -50z" />
    <glyph glyph-name="Scaron.sc" horiz-adv-x="554" 
d="M487 825l-139 -170h-122l-139 170h86l114 -85l114 85h86zM267 -10q-132 0 -214 58l-9 144h88q18 -74 53 -107.5t96 -33.5q43 0 68.5 18.5t25.5 55.5q0 31 -26 49t-98 37q-104 26 -152.5 73t-48.5 129q0 94 62.5 148.5t162.5 54.5q124 0 201 -54v-130h-75
q-21 61 -49.5 92.5t-84.5 31.5q-42 0 -64.5 -20t-22.5 -53q0 -35 27 -53t98 -35q105 -25 155.5 -71.5t50.5 -135.5q0 -98 -68 -148t-176 -50z" />
    <glyph glyph-name="Scedilla.sc" horiz-adv-x="554" 
d="M170 -231l-10 46q115 0 115 41q0 33 -86 37l40 99q-112 9 -176 56l-9 144h88q18 -74 53 -107.5t96 -33.5q43 0 68.5 18.5t25.5 55.5q0 31 -26 49t-98 37q-104 26 -152.5 73t-48.5 129q0 94 62.5 148.5t162.5 54.5q124 0 201 -54v-130h-75q-21 61 -49.5 92.5t-84.5 31.5
q-42 0 -64.5 -20t-22.5 -53q0 -35 27 -53t98 -35q105 -25 155.5 -71.5t50.5 -135.5q0 -96 -65.5 -146t-170.5 -52l-12 -35q99 -8 99 -77q0 -52 -56 -80.5t-136 -28.5z" />
    <glyph glyph-name="Scircumflex.sc" horiz-adv-x="554" 
d="M344 817l139 -170h-86l-114 85l-114 -85h-86l139 170h122zM267 -10q-132 0 -214 58l-9 144h88q18 -74 53 -107.5t96 -33.5q43 0 68.5 18.5t25.5 55.5q0 31 -26 49t-98 37q-104 26 -152.5 73t-48.5 129q0 94 62.5 148.5t162.5 54.5q124 0 201 -54v-130h-75
q-21 61 -49.5 92.5t-84.5 31.5q-42 0 -64.5 -20t-22.5 -53q0 -35 27 -53t98 -35q105 -25 155.5 -71.5t50.5 -135.5q0 -98 -68 -148t-176 -50z" />
    <glyph glyph-name="Scommaaccent.sc" horiz-adv-x="554" 
d="M310 -157h-57q-48 13 -48 59q0 27 21.5 44.5t58.5 17.5q44 0 69 -26t25 -68q0 -53 -40 -84.5t-127 -31.5v43q95 0 98 46zM267 -10q-132 0 -214 58l-9 144h88q18 -74 53 -107.5t96 -33.5q43 0 68.5 18.5t25.5 55.5q0 31 -26 49t-98 37q-104 26 -152.5 73t-48.5 129
q0 94 62.5 148.5t162.5 54.5q124 0 201 -54v-130h-75q-21 61 -49.5 92.5t-84.5 31.5q-42 0 -64.5 -20t-22.5 -53q0 -35 27 -53t98 -35q105 -25 155.5 -71.5t50.5 -135.5q0 -98 -68 -148t-176 -50z" />
    <glyph glyph-name="Tbar.sc" horiz-adv-x="647" 
d="M35 606h577l14 -207h-69q-16 40 -22 53.5t-19 38t-23.5 32.5t-26.5 15.5t-37 7.5h-20v-209h93v-66h-93v-151q0 -33 17 -45t62 -14v-61h-329v61q46 2 63 14t17 45v151h-94v66h94v209h-21q-25 0 -42.5 -8t-33.5 -32t-24.5 -42.5t-27.5 -64.5h-69z" />
    <glyph glyph-name="Tcaron.sc" horiz-adv-x="647" 
d="M35 606h577l14 -207h-69q-16 40 -22 53.5t-19 38t-23.5 32.5t-26.5 15.5t-37 7.5h-20v-426q0 -33 17 -45t62 -14v-61h-329v61q46 2 63 14t17 45v426h-21q-25 0 -42.5 -8t-33.5 -32t-24.5 -42.5t-27.5 -64.5h-69zM523 825l-139 -170h-122l-139 170h86l114 -85l114 85h86z
" />
    <glyph glyph-name="Thorn.sc" horiz-adv-x="618" 
d="M278 415v-226h19q126 0 126 117q0 54 -36 81.5t-94 27.5h-15zM278 479h62q126 0 191 -46.5t65 -127.5q0 -174 -256 -174h-62v-11q0 -33 22 -44.5t80 -14.5v-61h-346v62q44 2 57 13t13 45v366q0 34 -13 45t-57 13v62h314v-62q-44 -2 -57 -13t-13 -44v-8z" />
    <glyph glyph-name="Uacute.sc" horiz-adv-x="697" 
d="M400 816h170l-154 -162h-85zM269 486v-254q0 -72 26 -110t89 -38q66 0 101 34t35 122v246q0 33 -16 44.5t-61 13.5v62h230v-62q-43 -2 -56.5 -13t-13.5 -45v-273q0 -109 -68.5 -166t-175.5 -57q-129 0 -197.5 56.5t-68.5 166.5v273q0 34 -13 45t-56 13v62h312v-62
q-42 -2 -54.5 -13t-12.5 -45z" />
    <glyph glyph-name="Ubreve.sc" horiz-adv-x="697" 
d="M269 486v-254q0 -72 26 -110t89 -38q66 0 101 34t35 122v246q0 33 -16 44.5t-61 13.5v62h230v-62q-43 -2 -56.5 -13t-13.5 -45v-273q0 -109 -68.5 -166t-175.5 -57q-129 0 -197.5 56.5t-68.5 166.5v273q0 34 -13 45t-56 13v62h312v-62q-42 -2 -54.5 -13t-12.5 -45z
M373 652q-73 0 -114 45t-41 125h64q6 -44 31 -63.5t60 -19.5t60.5 19.5t31.5 63.5h64q0 -80 -41 -125t-115 -45z" />
    <glyph glyph-name="Ucircumflex.sc" horiz-adv-x="697" 
d="M434 817l139 -170h-86l-114 85l-114 -85h-86l139 170h122zM269 486v-254q0 -72 26 -110t89 -38q66 0 101 34t35 122v246q0 33 -16 44.5t-61 13.5v62h230v-62q-43 -2 -56.5 -13t-13.5 -45v-273q0 -109 -68.5 -166t-175.5 -57q-129 0 -197.5 56.5t-68.5 166.5v273
q0 34 -13 45t-56 13v62h312v-62q-42 -2 -54.5 -13t-12.5 -45z" />
    <glyph glyph-name="Udieresis.sc" horiz-adv-x="697" 
d="M182 739q0 34 24.5 58.5t58.5 24.5t59 -24.5t25 -58.5t-25 -58.5t-59 -24.5t-58.5 24.5t-24.5 58.5zM396 739q0 34 24.5 58.5t57.5 24.5q36 0 60.5 -24.5t24.5 -58.5t-24.5 -58.5t-60.5 -24.5q-33 0 -57.5 24.5t-24.5 58.5zM269 486v-254q0 -72 26 -110t89 -38
q66 0 101 34t35 122v246q0 33 -16 44.5t-61 13.5v62h230v-62q-43 -2 -56.5 -13t-13.5 -45v-273q0 -109 -68.5 -166t-175.5 -57q-129 0 -197.5 56.5t-68.5 166.5v273q0 34 -13 45t-56 13v62h312v-62q-42 -2 -54.5 -13t-12.5 -45z" />
    <glyph glyph-name="Ugrave.sc" horiz-adv-x="697" 
d="M190 816h170l68 -162h-84zM269 486v-254q0 -72 26 -110t89 -38q66 0 101 34t35 122v246q0 33 -16 44.5t-61 13.5v62h230v-62q-43 -2 -56.5 -13t-13.5 -45v-273q0 -109 -68.5 -166t-175.5 -57q-129 0 -197.5 56.5t-68.5 166.5v273q0 34 -13 45t-56 13v62h312v-62
q-42 -2 -54.5 -13t-12.5 -45z" />
    <glyph glyph-name="Uhungarumlaut.sc" horiz-adv-x="697" 
d="M311 816h147l-136 -162h-78zM497 816h147l-136 -162h-78zM269 486v-254q0 -72 26 -110t89 -38q66 0 101 34t35 122v246q0 33 -16 44.5t-61 13.5v62h230v-62q-43 -2 -56.5 -13t-13.5 -45v-273q0 -109 -68.5 -166t-175.5 -57q-129 0 -197.5 56.5t-68.5 166.5v273
q0 34 -13 45t-56 13v62h312v-62q-42 -2 -54.5 -13t-12.5 -45z" />
    <glyph glyph-name="Umacron.sc" horiz-adv-x="697" 
d="M224 676v93h298v-93h-298zM269 486v-254q0 -72 26 -110t89 -38q66 0 101 34t35 122v246q0 33 -16 44.5t-61 13.5v62h230v-62q-43 -2 -56.5 -13t-13.5 -45v-273q0 -109 -68.5 -166t-175.5 -57q-129 0 -197.5 56.5t-68.5 166.5v273q0 34 -13 45t-56 13v62h312v-62
q-42 -2 -54.5 -13t-12.5 -45z" />
    <glyph glyph-name="Uogonek.sc" horiz-adv-x="697" 
d="M269 486v-254q0 -72 26 -110t89 -38q66 0 101 34t35 122v246q0 33 -16 44.5t-61 13.5v62h230v-62q-43 -2 -56.5 -13t-13.5 -45v-273q0 -152 -132 -204q-89 -45 -89 -104q0 -41 45 -41q38 0 74 23l18 -26q-68 -74 -142 -74q-40 0 -67.5 22.5t-27.5 60.5q0 68 82 120h-5
q-129 0 -197.5 56.5t-68.5 166.5v273q0 34 -13 45t-56 13v62h312v-62q-42 -2 -54.5 -13t-12.5 -45z" />
    <glyph glyph-name="Uring.sc" horiz-adv-x="697" 
d="M273 745q0 42 30.5 70.5t78.5 28.5t78.5 -28.5t30.5 -70.5t-30.5 -70.5t-78.5 -28.5t-78.5 28.5t-30.5 70.5zM429 745q0 20 -12.5 33t-34.5 13t-34.5 -13t-12.5 -33t12.5 -33t34.5 -13t34.5 13t12.5 33zM269 486v-254q0 -72 26 -110t89 -38q66 0 101 34t35 122v246
q0 33 -16 44.5t-61 13.5v62h230v-62q-43 -2 -56.5 -13t-13.5 -45v-273q0 -109 -68.5 -166t-175.5 -57q-129 0 -197.5 56.5t-68.5 166.5v273q0 34 -13 45t-56 13v62h312v-62q-42 -2 -54.5 -13t-12.5 -45z" />
    <glyph glyph-name="Utilde.sc" horiz-adv-x="697" 
d="M269 486v-254q0 -72 26 -110t89 -38q66 0 101 34t35 122v246q0 33 -16 44.5t-61 13.5v62h230v-62q-43 -2 -56.5 -13t-13.5 -45v-273q0 -109 -68.5 -166t-175.5 -57q-129 0 -197.5 56.5t-68.5 166.5v273q0 34 -13 45t-56 13v62h312v-62q-42 -2 -54.5 -13t-12.5 -45z
M516 818l55 -12q-38 -88 -65 -115.5t-71 -27.5q-31 0 -76 31t-62 31q-20 0 -34 -13.5t-31 -42.5l-56 11q39 89 66 116.5t71 27.5q35 0 78.5 -31.5t59.5 -31.5q20 0 33.5 13.5t31.5 43.5z" />
    <glyph glyph-name="Wacute.sc" horiz-adv-x="908" 
d="M658 231l84 223q13 39 13 52q0 20 -12 28t-49 10v62h202v-62q-43 -7 -52 -32l-199 -515h-57l-122 329l-128 -329h-59l-217 515q-11 25 -49 32v62h292v-62q-28 -3 -40.5 -12t-12.5 -26q0 -14 12 -44l92 -237l75 199l-31 88q-11 26 -45 32v62h281v-62q-38 -2 -50 -10
t-12 -28q0 -13 13 -55zM499 816h170l-154 -162h-85z" />
    <glyph glyph-name="Wcircumflex.sc" horiz-adv-x="908" 
d="M548 817l139 -170h-86l-114 85l-114 -85h-86l139 170h122zM658 231l84 223q13 39 13 52q0 20 -12 28t-49 10v62h202v-62q-43 -7 -52 -32l-199 -515h-57l-122 329l-128 -329h-59l-217 515q-11 25 -49 32v62h292v-62q-28 -3 -40.5 -12t-12.5 -26q0 -14 12 -44l92 -237
l75 199l-31 88q-11 26 -45 32v62h281v-62q-38 -2 -50 -10t-12 -28q0 -13 13 -55z" />
    <glyph glyph-name="Wgrave.sc" horiz-adv-x="908" 
d="M658 231l84 223q13 39 13 52q0 20 -12 28t-49 10v62h202v-62q-43 -7 -52 -32l-199 -515h-57l-122 329l-128 -329h-59l-217 515q-11 25 -49 32v62h292v-62q-28 -3 -40.5 -12t-12.5 -26q0 -14 12 -44l92 -237l75 199l-31 88q-11 26 -45 32v62h281v-62q-38 -2 -50 -10
t-12 -28q0 -13 13 -55zM289 816h170l68 -162h-84z" />
    <glyph glyph-name="Wdieresis.sc" horiz-adv-x="908" 
d="M290 739q0 34 24.5 58.5t58.5 24.5t59 -24.5t25 -58.5t-25 -58.5t-59 -24.5t-58.5 24.5t-24.5 58.5zM504 739q0 34 24.5 58.5t57.5 24.5q36 0 60.5 -24.5t24.5 -58.5t-24.5 -58.5t-60.5 -24.5q-33 0 -57.5 24.5t-24.5 58.5zM658 231l84 223q13 39 13 52q0 20 -12 28
t-49 10v62h202v-62q-43 -7 -52 -32l-199 -515h-57l-122 329l-128 -329h-59l-217 515q-11 25 -49 32v62h292v-62q-28 -3 -40.5 -12t-12.5 -26q0 -14 12 -44l92 -237l75 199l-31 88q-11 26 -45 32v62h281v-62q-38 -2 -50 -10t-12 -28q0 -13 13 -55z" />
    <glyph glyph-name="Yacute.sc" horiz-adv-x="635" 
d="M370 816h170l-154 -162h-85zM366 295l91 161q21 39 21 54q0 31 -59 34v62h203v-62q-37 -6 -51 -32l-167 -293v-99q0 -33 15 -45t59 -14v-61h-316v61q44 2 59.5 14t15.5 45v100l-175 292q-9 16 -19.5 22.5t-29.5 9.5v62h300v-62q-34 -1 -46 -8.5t-12 -25.5q0 -16 20 -54z
" />
    <glyph glyph-name="Ycircumflex.sc" horiz-adv-x="635" 
d="M403 817l139 -170h-86l-114 85l-114 -85h-86l139 170h122zM366 295l91 161q21 39 21 54q0 31 -59 34v62h203v-62q-37 -6 -51 -32l-167 -293v-99q0 -33 15 -45t59 -14v-61h-316v61q44 2 59.5 14t15.5 45v100l-175 292q-9 16 -19.5 22.5t-29.5 9.5v62h300v-62
q-34 -1 -46 -8.5t-12 -25.5q0 -16 20 -54z" />
    <glyph glyph-name="Ydieresis.sc" horiz-adv-x="635" 
d="M151 739q0 34 24.5 58.5t58.5 24.5t59 -24.5t25 -58.5t-25 -58.5t-59 -24.5t-58.5 24.5t-24.5 58.5zM365 739q0 34 24.5 58.5t57.5 24.5q36 0 60.5 -24.5t24.5 -58.5t-24.5 -58.5t-60.5 -24.5q-33 0 -57.5 24.5t-24.5 58.5zM366 295l91 161q21 39 21 54q0 31 -59 34v62
h203v-62q-37 -6 -51 -32l-167 -293v-99q0 -33 15 -45t59 -14v-61h-316v61q44 2 59.5 14t15.5 45v100l-175 292q-9 16 -19.5 22.5t-29.5 9.5v62h300v-62q-34 -1 -46 -8.5t-12 -25.5q0 -16 20 -54z" />
    <glyph glyph-name="Ygrave.sc" horiz-adv-x="635" 
d="M366 295l91 161q21 39 21 54q0 31 -59 34v62h203v-62q-37 -6 -51 -32l-167 -293v-99q0 -33 15 -45t59 -14v-61h-316v61q44 2 59.5 14t15.5 45v100l-175 292q-9 16 -19.5 22.5t-29.5 9.5v62h300v-62q-34 -1 -46 -8.5t-12 -25.5q0 -16 20 -54zM158 816h170l68 -162h-84z
" />
    <glyph glyph-name="Zacute.sc" horiz-adv-x="586" 
d="M335 816h170l-154 -162h-85zM232 64h114q48 0 74.5 24t75.5 116h66l-31 -204h-505v43l319 498h-109q-21 0 -35.5 -4t-27.5 -19t-17.5 -21.5t-19 -36t-18.5 -37.5h-62v183h491v-45z" />
    <glyph glyph-name="Zcaron.sc" horiz-adv-x="586" 
d="M516 825l-139 -170h-122l-139 170h86l114 -85l114 85h86zM232 64h114q48 0 74.5 24t75.5 116h66l-31 -204h-505v43l319 498h-109q-21 0 -35.5 -4t-27.5 -19t-17.5 -21.5t-19 -36t-18.5 -37.5h-62v183h491v-45z" />
    <glyph glyph-name="Zdotaccent.sc" horiz-adv-x="586" 
d="M232 64h114q48 0 74.5 24t75.5 116h66l-31 -204h-505v43l319 498h-109q-21 0 -35.5 -4t-27.5 -19t-17.5 -21.5t-19 -36t-18.5 -37.5h-62v183h491v-45zM317 652q-43 0 -69.5 26t-26.5 63t26.5 63t69.5 26q42 0 68 -26t26 -63t-26 -63t-68 -26z" />
    <glyph glyph-name="ampersand.sc" horiz-adv-x="667" 
d="M14 158q0 65 38.5 103t111.5 63q-52 63 -52 128q0 75 54 119.5t146 44.5q85 0 136 -35t51 -96q0 -94 -146 -140l136 -158q14 31 14 62q0 20 -9 28.5t-32 8.5v59h187v-59q-46 0 -63.5 -12.5t-26.5 -49.5q-10 -41 -35 -78l35 -40q22 -25 41 -34.5t48 -9.5v-62h-186
q-30 19 -50 39q-82 -49 -174 -49q-98 0 -161 45.5t-63 122.5zM309 71q30 0 61 11q-10 10 -24 28l-153 180q-33 -33 -33 -85q0 -58 41 -96t108 -38zM256 500q0 -45 64 -117l6 -7q48 38 48 115q0 30 -16.5 49t-43.5 19q-28 0 -43 -16t-15 -43z" />
    <glyph glyph-name="caron.Slovak" horiz-adv-x="500" 
d="M350 765l-91 -205h-68l15 205h144z" />
    <glyph glyph-name="cedilla.alt" horiz-adv-x="500" 
d="M195 -45h37q111 0 111 -77q0 -52 -56 -80.5t-136 -28.5l-10 46q115 0 115 41q0 33 -86 37z" />
    <glyph glyph-name="grave.cap" horiz-adv-x="500" 
d="M127 909h172l73 -156h-89z" />
    <glyph glyph-name="acute.cap" horiz-adv-x="500" 
d="M200 909h172l-156 -156h-89z" />
    <glyph glyph-name="circumflex.cap" horiz-adv-x="500" 
d="M311 918l141 -167h-86l-116 82l-116 -82h-86l141 167h122z" />
    <glyph glyph-name="tilde.cap" horiz-adv-x="500" 
d="M392 899l55 -12q-38 -88 -65.5 -115.5t-70.5 -27.5q-31 0 -76 31t-62 31q-20 0 -34 -13.5t-31 -42.5l-56 12q39 88 66 115.5t71 27.5q35 0 78.5 -31.5t59.5 -31.5q20 0 33.5 13.5t31.5 43.5z" />
    <glyph glyph-name="macron.cap" horiz-adv-x="500" 
d="M95 763v97h310v-97h-310z" />
    <glyph glyph-name="breve.cap" horiz-adv-x="500" 
d="M250 748q-74 0 -116 44.5t-42 123.5h64q5 -43 32 -62t62 -19t62 19t32 62h64q0 -79 -42 -123.5t-116 -44.5z" />
    <glyph glyph-name="dotaccent.cap" horiz-adv-x="500" 
d="M250 748q-42 0 -68.5 26t-26.5 63t26.5 63.5t68.5 26.5t68.5 -26.5t26.5 -63.5t-26.5 -63t-68.5 -26z" />
    <glyph glyph-name="dieresis.cap" horiz-adv-x="500" 
d="M58 831q0 34 24.5 58.5t58.5 24.5t59 -24.5t25 -58.5t-25 -58.5t-59 -24.5t-58.5 24.5t-24.5 58.5zM274 831q0 34 24.5 58.5t57.5 24.5q36 0 60.5 -24.5t24.5 -58.5t-24.5 -58.5t-60.5 -24.5q-33 0 -57.5 24.5t-24.5 58.5z" />
    <glyph glyph-name="ring.cap" horiz-adv-x="500" 
d="M141 839q0 42 30.5 70.5t78.5 28.5t78.5 -28.5t30.5 -70.5t-30.5 -70.5t-78.5 -28.5t-78.5 28.5t-30.5 70.5zM297 839q0 20 -12.5 33t-34.5 13t-34.5 -13t-12.5 -33t12.5 -33t34.5 -13t34.5 13t12.5 33z" />
    <glyph glyph-name="hungarumlaut.cap" horiz-adv-x="500" 
d="M121 909h147l-136 -156h-78zM307 909h147l-136 -156h-78z" />
    <glyph glyph-name="caron.cap" horiz-adv-x="500" 
d="M452 921l-141 -167h-122l-141 167h86l116 -82l116 82h86z" />
    <glyph glyph-name="exclamdown.cap" horiz-adv-x="327" 
d="M67 614q0 40 28.5 68.5t67.5 28.5q40 0 68 -28.5t28 -68.5q0 -41 -28 -70t-68 -29q-39 0 -67.5 29t-28.5 70zM203 469l56 -469h-191l56 469h79z" />
    <glyph glyph-name="questiondown.cap" horiz-adv-x="472" 
d="M173 124q0 -34 18.5 -52t50.5 -18q72 0 72 85v50h104q36 -20 36 -63q0 -60 -58 -98t-154 -38q-103 0 -159 42t-56 125q0 58 29 99t88 77q47 27 64 52t17 59v27h49q23 -15 39 -41.5t16 -58.5q0 -72 -65 -123q-4 -3 -14 -11t-13.5 -11t-12.5 -10.5t-12.5 -11.5t-10.5 -11
t-10 -12t-7 -12.5t-6 -14t-3.5 -14.5t-1.5 -16zM346 613q0 -41 -27.5 -70t-67.5 -29t-68 29t-28 70q0 40 28 68.5t68 28.5t67.5 -28.5t27.5 -68.5z" />
    <glyph glyph-name="exclam.sc" horiz-adv-x="295" 
d="M241 606l-55 -390h-77l-56 390h188zM55 80q0 38 27 64.5t65 26.5t65 -26.5t27 -64.5q0 -37 -27 -63.5t-65 -26.5t-65 26.5t-27 63.5z" />
    <glyph glyph-name="exclamdown.sc" horiz-adv-x="295" 
d="M186 390l55 -390h-188l56 390h77zM55 526q0 37 27 63.5t65 26.5t65 -26.5t27 -63.5q0 -38 -27 -64.5t-65 -26.5t-65 26.5t-27 64.5z" />
    <glyph glyph-name="question.sc" horiz-adv-x="422" 
d="M265 503q0 52 -53 52q-61 0 -61 -70v-47h-97q-34 18 -34 59q0 53 51.5 86t140.5 33q194 0 194 -144q0 -51 -25.5 -86.5t-77.5 -64.5q-43 -22 -57.5 -42.5t-14.5 -46.5v-22h-47q-55 34 -55 89q0 61 54 99q43 30 62.5 52.5t19.5 52.5zM108 80q0 38 26.5 64.5t64.5 26.5
q39 0 66 -26.5t27 -64.5t-27 -64t-66 -26q-38 0 -64.5 26.5t-26.5 63.5z" />
    <glyph glyph-name="questiondown.sc" horiz-adv-x="422" 
d="M157 105q0 -52 53 -52q61 0 61 70v47h97q34 -18 34 -59q0 -53 -51.5 -86t-140.5 -33q-194 0 -194 144q0 51 25.5 86.5t77.5 64.5q43 22 57.5 42.5t14.5 46.5v22h47q55 -34 55 -89q0 -61 -54 -99q-43 -30 -62.5 -52.5t-19.5 -52.5zM314 528q0 -38 -26.5 -64.5t-64.5 -26.5
q-39 0 -66 26.5t-27 64.5t27 64t66 26q38 0 64.5 -26.5t26.5 -63.5z" />
    <glyph glyph-name="guilsinglleft.cap" horiz-adv-x="330" 
d="M38 343v10l177 198h79l-113 -203l113 -203h-79z" />
    <glyph glyph-name="guilsinglright.cap" horiz-adv-x="330" 
d="M292 353v-10l-175 -198h-81l114 203l-114 203h81z" />
    <glyph glyph-name="guillemotleft.cap" horiz-adv-x="547" 
d="M38 343v10l177 198h79l-113 -203l113 -203h-79zM254 343v10l177 198h80l-115 -203l115 -203h-80z" />
    <glyph glyph-name="guillemotright.cap" horiz-adv-x="547" 
d="M292 353v-10l-175 -198h-81l114 203l-114 203h81zM509 353v-10l-177 -198h-79l114 203l-114 203h79z" />
    <glyph glyph-name="slash.cap" horiz-adv-x="433" 
d="M401 770l-271 -871h-98l271 871h98z" />
    <glyph glyph-name="backslash.cap" horiz-adv-x="433" 
d="M302 -101l-269 871h98l269 -871h-98z" />
    <glyph glyph-name="bar.cap" horiz-adv-x="293" 
d="M193 770v-871h-93v871h93z" />
    <glyph glyph-name="brokenbar.cap" horiz-adv-x="293" 
d="M193 770v-371h-93v371h93zM193 270v-371h-93v371h93z" />
    <glyph glyph-name="slash.sc" horiz-adv-x="419" 
d="M395 691l-273 -803h-98l273 803h98z" />
    <glyph glyph-name="backslash.sc" horiz-adv-x="419" 
d="M297 -112l-273 803h98l273 -803h-98z" />
    <glyph glyph-name="bar.sc" horiz-adv-x="293" 
d="M193 691v-803h-93v803h93z" />
    <glyph glyph-name="brokenbar.sc" horiz-adv-x="293" 
d="M193 225v-337h-93v337h93zM193 691v-337h-93v337h93z" />
    <glyph glyph-name="periodcentered.cap" horiz-adv-x="303" 
d="M51 355q0 44 29 72.5t71 28.5q43 0 72 -28.5t29 -72.5q0 -43 -29.5 -71.5t-71.5 -28.5t-71 28.5t-29 71.5z" />
    <glyph glyph-name="bullet.cap" horiz-adv-x="408" 
d="M51 358q0 65 45 111t108 46q64 0 108.5 -46t44.5 -111q0 -63 -45 -109t-108 -46t-108 46t-45 109z" />
    <glyph glyph-name="hyphen.cap" horiz-adv-x="360" 
d="M310 302h-260v108h260v-108z" />
    <glyph glyph-name="endash.cap" horiz-adv-x="580" 
d="M530 315h-480v82h480v-82z" />
    <glyph glyph-name="emdash.cap" horiz-adv-x="1000" 
d="M950 397v-82h-900v82h900z" />
    <glyph glyph-name="parenleft.cap" horiz-adv-x="378" 
d="M60 334q0 123 55 237t154 199h87q-90 -95 -125.5 -202t-35.5 -234t35.5 -234t125.5 -202h-87q-99 85 -154 199t-55 237z" />
    <glyph glyph-name="parenright.cap" horiz-adv-x="378" 
d="M318 334q0 -123 -55 -237t-154 -199h-87q90 95 125.5 202t35.5 234t-35.5 234t-125.5 202h87q99 -85 154 -199t55 -237z" />
    <glyph glyph-name="bracketleft.cap" horiz-adv-x="348" 
d="M198 662v-655q0 -36 22.5 -46t90.5 -14v-48h-226v871h226v-48q-68 -4 -90.5 -14t-22.5 -46z" />
    <glyph glyph-name="bracketright.cap" horiz-adv-x="348" 
d="M150 7v655q0 36 -22.5 46t-90.5 14v48h226v-871h-226v48q68 4 90.5 14t22.5 46z" />
    <glyph glyph-name="braceleft.cap" horiz-adv-x="383" 
d="M50 319v32q83 17 83 100v191q0 61 53 94.5t160 33.5v-38q-41 -5 -68 -28.5t-27 -69.5v-187q0 -50 -20 -73.5t-71 -38.5q51 -15 71 -38.5t20 -73.5v-186q0 -46 27 -69.5t68 -28.5v-39q-107 0 -160 33.5t-53 94.5v191q0 83 -83 100z" />
    <glyph glyph-name="braceright.cap" horiz-adv-x="383" 
d="M333 351v-32q-83 -17 -83 -100v-191q0 -61 -53.5 -94.5t-159.5 -33.5v39q94 12 94 98v186q0 50 20 73.5t71 38.5q-51 15 -71 38.5t-20 73.5v187q0 86 -94 98v38q106 0 159.5 -33.5t53.5 -94.5v-191q0 -83 83 -100z" />
    <glyph glyph-name="parenleft.sc" horiz-adv-x="378" 
d="M60 290q0 114 54 218.5t154 182.5h90q-91 -88 -127 -186.5t-36 -214.5q0 -117 36 -215.5t127 -186.5h-90q-100 78 -154 183t-54 219z" />
    <glyph glyph-name="parenright.sc" horiz-adv-x="378" 
d="M318 290q0 -114 -54.5 -219t-153.5 -183h-90q90 88 126 187t36 215q0 243 -162 401h90q99 -78 153.5 -183t54.5 -218z" />
    <glyph glyph-name="bracketleft.sc" horiz-adv-x="348" 
d="M198 583v-586q0 -36 22.5 -46t90.5 -14v-48h-226v802h226v-48q-68 -4 -90.5 -14t-22.5 -46z" />
    <glyph glyph-name="bracketright.sc" horiz-adv-x="348" 
d="M150 -3v586q0 36 -22.5 46t-90.5 14v48h226v-802h-226v48q68 4 90.5 14t22.5 46z" />
    <glyph glyph-name="braceleft.sc" horiz-adv-x="373" 
d="M150 290q51 -15 71 -38.5t20 -73.5v-153q0 -46 27 -69.5t68 -28.5v-39q-107 0 -160 33.5t-53 94.5v158q0 83 -83 100v32q83 17 83 100v157q0 61 53 94.5t160 33.5v-39q-41 -5 -68 -28.5t-27 -69.5v-152q0 -50 -20 -73.5t-71 -38.5z" />
    <glyph glyph-name="braceright.sc" horiz-adv-x="373" 
d="M222 290q-51 15 -71 38.5t-20 73.5v152q0 86 -94 98v39q106 0 159.5 -33.5t53.5 -94.5v-157q0 -83 83 -100v-32q-83 -17 -83 -100v-158q0 -61 -53.5 -94.5t-159.5 -33.5v39q94 12 94 98v153q0 50 20 73.5t71 38.5z" />
    <glyph glyph-name="at.cap" horiz-adv-x="904" 
d="M606 145q-70 0 -93.5 45t-8.5 114h-5q-74 -159 -171 -159q-45 0 -74 34.5t-29 93.5q0 108 75.5 198.5t178.5 90.5q56 0 88 -38l73 31h52l-33 -93l-51 -185q-9 -29 -2.5 -53.5t30.5 -24.5q57 0 99 63t42 173q0 116 -80 196t-212 80q-159 0 -256.5 -110.5t-97.5 -282.5
q0 -155 97 -240t247 -85q80 0 140.5 17t127.5 53l18 -32q-117 -100 -299 -100q-176 0 -294 104.5t-118 278.5q0 191 123 319t312 128q168 0 268.5 -95t100.5 -231q0 -142 -76 -216t-172 -74zM388 232q36 0 80 73t66 175q-14 35 -40 35q-56 0 -97.5 -75.5t-41.5 -153.5
q0 -54 33 -54z" />
    <glyph glyph-name="florin.op" horiz-adv-x="543" 
d="M54 264l7 58h90l4 33q18 156 77 233t170 77q60 0 99.5 -21.5t39.5 -67.5q0 -50 -48 -65h-55q0 51 -8.5 78.5t-33.5 27.5q-38 0 -45 -65l-26 -230h114l-5 -58h-116l-14 -128q-18 -155 -77.5 -232.5t-169.5 -77.5q-59 0 -99 22t-40 67q0 50 47 66h55q1 -52 9 -79.5
t34 -27.5q37 0 44 65l37 325h-90z" />
    <glyph glyph-name="Euro.op" horiz-adv-x="673" 
d="M27 358v52h86q26 117 110 186t198 69q126 0 194 -62v-150h-75q-18 75 -46 111t-81 36q-56 0 -88 -52t-41 -138h199l-8 -52h-194v-17q0 -31 1 -45h184l-9 -52h-171q24 -185 140 -185q52 0 86 37.5t57 121.5h72l-13 -176q-80 -52 -212 -52q-125 0 -206.5 68.5t-101.5 185.5
h-81v52h76v19q0 29 2 43h-78z" />
    <glyph glyph-name="dollar.op" horiz-adv-x="562" 
d="M176 -113l19 109q-96 14 -148 56l-10 156h80q16 -110 90 -144l33 188l-21 7q-88 28 -131.5 75t-43.5 123q0 96 65.5 152t171.5 56q5 0 16 -0.5t16 -0.5l17 97h53l-19 -104q75 -13 126 -49v-141h-68q-15 88 -70 121l-32 -180l31 -10q174 -56 174 -200q0 -102 -71.5 -155
t-184.5 -53q-15 0 -22 1l-18 -104h-53zM295 235l-5 1l-33 -186q8 -1 25 -1q49 0 79 24t30 67q0 35 -22 57.5t-74 37.5zM172 523q0 -37 21 -58.5t66 -36.5l11 -4l32 181q-20 2 -32 2q-47 0 -72.5 -24t-25.5 -60z" />
    <glyph glyph-name="sterling.op" horiz-adv-x="660" 
d="M98 313v52h95l3 45q7 125 66 190t164 65q80 0 127.5 -28t47.5 -89q0 -51 -40 -68h-90v53q0 78 -48 78q-46 0 -58 -94l-16 -152h148v-52h-153l-5 -51q-6 -66 -21 -105q94 -34 172 -34q45 0 63.5 18.5t18.5 65.5l39 8q17 -34 17 -80q0 -69 -38.5 -107t-110.5 -38
q-106 0 -202 83q-24 -39 -65.5 -61t-89.5 -22q-53 0 -83 28t-30 75q0 50 30.5 78.5t79.5 28.5q34 0 63 -11l8 124h-92zM117 42q53 0 59 85q-31 18 -58 18q-25 0 -38 -14.5t-13 -37.5q0 -24 14 -37.5t36 -13.5z" />
    <glyph glyph-name="yen.op" horiz-adv-x="674" 
d="M99 311v52h84l-116 197q-16 29 -55 36v59h314v-59q-39 -1 -53 -9.5t-14 -27.5q0 -17 20 -55l104 -190l106 190q21 39 21 55q0 19 -15.5 27t-52.5 10v59h221v-59q-22 -4 -34 -11t-22 -25l-113 -197h92v-52h-122l-38 -65h160v-51h-164v-70q0 -37 17.5 -50.5t66.5 -15.5v-59
h-335v59q50 2 68 15.5t18 50.5v70h-158v51h154l-39 65h-115z" />
    <glyph glyph-name="florin.lt" 
d="M114 293l8 58h92l6 51q18 156 77 233t170 77q60 0 99.5 -21.5t39.5 -67.5q0 -50 -48 -65h-55q0 51 -8.5 78.5t-33.5 27.5q-38 0 -45 -65l-29 -248h112l-5 -58h-113l-18 -157q-18 -155 -77.5 -232.5t-169.5 -77.5q-59 0 -99 22t-40 67q0 50 48 66h55q0 -51 8.5 -79
t33.5 -28q38 0 45 65l40 354h-93z" />
    <glyph glyph-name="Euro.lt" 
d="M13 383v55h64q25 125 105.5 199.5t189.5 74.5q121 0 187 -66v-160h-82q-18 84 -40.5 120t-72.5 36q-105 0 -119 -204h184l-9 -55h-177v-18v-47h168l-9 -56h-155q17 -198 123 -198q53 0 81.5 38t50.5 131h80l-13 -188q-78 -55 -204 -55q-120 0 -197 72.5t-95 199.5h-60v56
h55v20q0 30 1 45h-56z" />
    <glyph glyph-name="dollar.lt" 
d="M189 -113l19 110q-96 15 -153 59l-10 167h84q18 -116 92 -154l36 203l-19 7q-94 30 -140 79.5t-46 131.5q0 102 69.5 162t181.5 60q6 0 16.5 -0.5t15.5 -0.5l19 103h53l-20 -109q84 -15 136 -53v-153h-72q-17 99 -77 133l-34 -195l36 -12q91 -30 137.5 -79t46.5 -134
q0 -109 -75.5 -165.5t-195.5 -56.5q-5 0 -14.5 0.5t-14.5 0.5l-18 -104h-53zM318 253l-11 3l-36 -202q11 -2 33 -2q51 0 83 26t32 72q0 37 -23 61t-78 42zM188 560q0 -40 22 -63t69 -38l11 -4l34 193q-15 3 -33 3q-49 0 -76 -26t-27 -65z" />
    <glyph glyph-name="cent.lt" 
d="M217 -115l21 114q-86 21 -136 89.5t-50 170.5q0 134 83 219t210 86l21 112h55l-22 -116q68 -9 108.5 -43t40.5 -90q0 -51 -47 -69h-70v42q0 75 -44 95l-70 -374q22 -7 53 -7q88 0 150 81l39 -20q-51 -185 -244 -185q-15 0 -22 1l-20 -106h-56zM200 319q0 -119 66 -172
l67 357h-2q-58 0 -94.5 -49t-36.5 -136z" />
    <glyph glyph-name="sterling.lt" 
d="M87 335v55h89l2 48q4 134 61 204t160 70q74 0 120 -30t46 -92q0 -56 -41 -76h-91v57q0 45 -6.5 64.5t-27.5 19.5q-25 0 -35 -24t-16 -77l-14 -164h133v-55h-138l-5 -55q-5 -70 -20 -112q84 -38 152 -38q40 0 57 20t17 66l40 9q16 -38 16 -86q0 -73 -36.5 -111t-105.5 -38
q-86 0 -177 89q-49 -89 -145 -89q-58 0 -88.5 29.5t-30.5 80.5q0 50 30.5 81t76.5 31q33 0 59 -10l5 133h-87zM108 48q51 0 57 88q-26 17 -53 17q-24 0 -37 -14.5t-13 -38.5q0 -52 46 -52z" />
    <glyph glyph-name="yen.lt" 
d="M73 336v56h79l-100 210q-8 18 -19 25.5t-31 11.5v63h302v-63q-36 -1 -49 -9.5t-13 -29.5q0 -12 18 -60l86 -209l93 211q18 47 18 58q0 20 -14 28.5t-48 10.5v63h203v-63q-39 -8 -51 -37l-96 -210h86v-56h-112l-31 -69h143v-54h-146v-81q0 -40 18 -53.5t70 -15.5v-63h-353
v63q52 2 70.5 15.5t18.5 53.5v81h-142v54h139l-33 69h-106z" />
    <glyph glyph-name="florin.ot" 
d="M119 264l8 58h89l4 33q18 156 77 233t170 77q60 0 99.5 -21.5t39.5 -67.5q0 -50 -47 -65h-55q0 51 -8.5 78.5t-33.5 27.5q-38 0 -45 -65l-26 -230h113l-4 -58h-116l-14 -128q-18 -155 -77.5 -232.5t-169.5 -77.5q-59 0 -99 22t-40 67q0 50 47 66h55q0 -51 8.5 -79
t33.5 -28q38 0 45 65l36 325h-90z" />
    <glyph glyph-name="Euro.ot" 
d="M18 358v52h70q23 117 100 186t184 69q118 0 183 -62v-150h-78q-15 76 -38 111.5t-67 35.5q-97 0 -113 -190h170l-8 -52h-164v-17v-45h155l-9 -52h-142q17 -185 119 -185q46 0 74.5 36.5t50.5 122.5h74l-12 -176q-76 -52 -200 -52q-116 0 -191 68t-92 186h-66v52h61v19
q0 15 2 43h-63z" />
    <glyph glyph-name="dollar.ot" 
d="M195 -113l19 109q-95 14 -149 56l-10 156h80q18 -112 91 -145l33 189l-21 7q-88 28 -132 75t-44 123q0 96 65.5 152t171.5 56q5 0 16 -0.5t16 -0.5l17 97h53l-18 -103q76 -15 126 -50v-141h-69q-15 89 -70 121l-31 -180l31 -10q174 -56 174 -200q0 -102 -72 -155
t-185 -53q-14 0 -21 1l-18 -104h-53zM313 235l-4 1l-33 -186q8 -1 25 -1q49 0 79 24t30 67q0 34 -22.5 57t-74.5 38zM190 523q0 -37 21 -58.5t66 -36.5l12 -4l31 181q-18 2 -31 2q-47 0 -73 -24t-26 -60z" />
    <glyph glyph-name="sterling.ot" 
d="M88 313v52h85l2 37q4 129 62.5 196t159.5 67q75 0 120 -28t45 -89q0 -50 -38 -68h-84v53q0 78 -43 78q-26 0 -37 -23t-16 -71l-15 -152h135v-52h-140l-5 -51q-7 -74 -20 -105q90 -34 148 -34q42 0 59.5 18.5t17.5 65.5l39 8q17 -34 17 -80q0 -69 -36.5 -107t-104.5 -38
q-86 0 -178 83q-22 -39 -63.5 -61t-86.5 -22q-50 0 -79 28t-29 75q0 50 29 78.5t75 28.5q32 0 60 -11l4 124h-83zM107 44q49 0 54 83q-27 18 -53 18q-22 0 -34 -14.5t-12 -37.5q0 -49 45 -49z" />
    <glyph glyph-name="yen.ot" 
d="M81 313v52h73l-100 195q-14 29 -51 36v59h297v-59q-37 -1 -49.5 -9.5t-12.5 -27.5q0 -20 17 -56l91 -192l94 192q19 41 19 56q0 19 -15 27t-49 10v59h202v-59q-21 -4 -32.5 -11t-19.5 -25l-96 -195h79v-52h-104l-33 -66h137v-51h-143v-71q0 -37 17.5 -50.5t66.5 -15.5
v-59h-335v59q50 2 68 15.5t18 50.5v71h-139v51h133l-34 66h-99z" />
    <glyph glyph-name="zero.op" horiz-adv-x="657" 
d="M223 303q0 -250 105 -250q106 0 106 250t-106 250q-105 0 -105 -250zM40 303q0 140 79.5 226.5t208.5 86.5q130 0 209 -86.5t79 -226.5t-79 -226.5t-209 -86.5q-129 0 -208.5 86.5t-79.5 226.5z" />
    <glyph glyph-name="one.op" horiz-adv-x="441" 
d="M264 614h50v-484q0 -45 16 -56t90 -15v-59h-381v59q77 4 93 15t16 56v295h-111v58l35 6q72 13 111.5 39t80.5 86z" />
    <glyph glyph-name="two.op" horiz-adv-x="539" 
d="M179 131h175q47 0 69.5 14.5t47.5 59.5h44l-23 -205h-471v52l110 106q13 13 44.5 42t44.5 41t34.5 36t30.5 39.5t16.5 37.5t7.5 43q0 44 -26 70t-75 26q-80 0 -151 -84l-34 34q38 75 105 124t152 49q92 0 143 -47t51 -126q0 -28 -7 -53t-25.5 -49.5t-34 -42t-49 -43
t-52.5 -39t-63.5 -43t-63.5 -42.5z" />
    <glyph glyph-name="three.op" horiz-adv-x="519" 
d="M290 297q92 -5 147.5 -55t55.5 -134q0 -100 -79.5 -157.5t-187.5 -57.5q-98 0 -152 33t-54 88q0 46 39 66h85q3 -130 101 -130q43 0 67 31t24 82q0 157 -178 157l-11 42q154 60 154 147q0 39 -23.5 62.5t-66.5 23.5q-71 0 -137 -74l-35 30q35 73 96.5 119t144.5 46
q81 0 130 -42t49 -109t-50 -110.5t-119 -57.5z" />
    <glyph glyph-name="four.op" horiz-adv-x="628" 
d="M109 152h221v308zM488 -96h-158v183h-316v50l343 471h131v-456h126v-65h-126v-183z" />
    <glyph glyph-name="five.op" horiz-adv-x="513" 
d="M249 -50q47 0 73 28.5t26 75.5q0 76 -77 118t-208 52l61 382h325v-155h-296l-12 -83q152 -11 245 -72.5t93 -180.5q0 -102 -73 -162t-182 -60q-97 0 -150.5 33t-53.5 88q0 46 39 66h85q3 -130 105 -130z" />
    </font>
</defs>
</svg>
