<?xml version="1.0" standalone="no"?>
<!DOCTYPE svg PUBLIC "-//W3C//DTD SVG 1.1//EN" "http://www.w3.org/Graphics/SVG/1.1/DTD/svg11.dtd" >
<svg xmlns="http://www.w3.org/2000/svg" xmlns:xlink="http://www.w3.org/1999/xlink" version="1.1">
<metadata>
Created by FontForge 20170731 at Fri Oct  4 19:18:48 2013
 By Aleksey,,,
(c) 2010 Klim Type Foundry. All rights reserved.
</metadata>
<defs>
<font id="TiemposHeadline-SemiboldItalic" horiz-adv-x="500" >
  <font-face 
    font-family="Tiempos Headline Semibold"
    font-weight="600"
    font-style="italic"
    font-stretch="normal"
    units-per-em="1000"
    panose-1="2 2 7 3 6 3 3 13 4 3"
    ascent="783"
    descent="-217"
    x-height="544"
    cap-height="702"
    bbox="-209 -241 1228 1043"
    underline-thickness="30"
    underline-position="-160"
    slope="-12"
    unicode-range="U+0020-FB04"
  />
<missing-glyph horiz-adv-x="960" 
d="M90 0v780h780v-780h-780zM480 345l-279 -279h558zM201 714l279 -279l279 279h-558zM435 390l-275 275v-550zM525 390l275 -275v550z" />
    <glyph glyph-name="ff" unicode="ff" horiz-adv-x="653" 
d="M341 49l83 423h-143l-54 -237q-57 -244 -130 -348t-169 -104q-53 0 -87 21t-34 56q0 32 21 51t52 23h27q-2 -113 40 -113q25 0 40 42t40 173l86 436h-73l7 35l76 18q30 110 100.5 176t171.5 66q95 0 140 -53q67 69 159 69q56 0 91 -22t35 -65q0 -51 -56 -69h-61
q15 117 -31 117q-31 0 -50 -64.5t-23 -158.5h110l-12 -49h-105l-56 -250q-94 -427 -294 -427q-44 0 -73 18.5t-29 53.5q0 29 19.5 46.5t48.5 21.5h18q-3 -101 33 -101q25 0 41 44t41 171zM398 728q-45 0 -74 -58.5t-35 -148.5h145q13 56 40 108q-3 41 -23 70t-53 29z" />
    <glyph glyph-name="fi" unicode="fi" horiz-adv-x="634" 
d="M461 521l119 23h25l-102 -407q-9 -34 -9 -42q0 -15 14 -15q25 0 84 72l21 -18q-54 -77 -95 -110.5t-92 -33.5q-43 0 -66 24t-23 62q0 36 12 83l78 313h-145l-62 -275q-49 -220 -119.5 -317t-172.5 -97q-53 0 -87 21t-34 56q0 32 21 51t52 23h27q-2 -113 40 -113
q25 0 40 42t40 173l85 436h-72l7 35l76 18q30 119 108 188.5t193 69.5q63 0 107 -24t44 -67q0 -55 -58 -69h-74q14 42 4 81t-44 39q-46 0 -76.5 -62.5t-37.5 -159.5h172z" />
    <glyph glyph-name="fl" unicode="fl" horiz-adv-x="633" 
d="M372 472h-90l-62 -275q-49 -220 -119 -317t-172 -97q-53 0 -87 21t-34 56q0 32 21 51t52 23h26q-2 -113 41 -113q25 0 40 42.5t40 172.5l84 436h-72l8 35l76 18q30 114 99.5 186t170.5 72q70 0 111 -33l131 33h25l-157 -646q-8 -38 -8 -42q0 -15 14 -15q26 0 83 72
l22 -18q-55 -77 -96.5 -110.5t-91.5 -33.5q-42 0 -65 24t-23 62q0 35 11 83l121 487q-9 48 -30.5 72.5t-49.5 24.5q-34 0 -57.5 -32t-33.5 -79.5t-12 -110.5h96z" />
    <glyph glyph-name="ffi" unicode="ffi" horiz-adv-x="945" 
d="M739 472h-147l-56 -250q-51 -225 -124 -326t-170 -101q-44 0 -73 18.5t-29 53.5q0 29 19.5 46.5t48.5 21.5h18q-3 -101 33 -101q25 0 41 44t41 171l83 423h-143l-54 -237q-57 -244 -130 -348t-169 -104q-53 0 -87 21t-34 56q0 32 21 51t52 23h27q-2 -113 40 -113
q25 0 40 42t40 173l86 436h-73l7 35l76 18q30 110 100.5 176t171.5 66q98 0 144 -57q79 73 196 73q63 0 107 -24t44 -67q0 -55 -58 -69h-73q13 42 3 81t-44 39q-47 0 -77 -62.5t-36 -159.5h171l119 23h26l-103 -407q-8 -30 -8 -42q0 -15 14 -15q24 0 83 72l22 -18
q-55 -77 -96.5 -110.5t-91.5 -33.5q-43 0 -66 24t-23 62q0 36 12 83zM398 728q-45 0 -74 -58.5t-35 -148.5h145v1q13 56 40 105q-3 42 -23 71.5t-53 29.5z" />
    <glyph glyph-name="ffl" unicode="ffl" horiz-adv-x="944" 
d="M681 472h-88l-57 -250q-51 -225 -124 -326t-170 -101q-44 0 -73 18.5t-29 53.5q0 29 19.5 46.5t48.5 21.5h18q-3 -101 33 -101q25 0 41 44t41 171l83 423h-143l-54 -237q-57 -244 -130 -348t-169 -104q-53 0 -87 21t-34 56q0 32 21 51t52 23h27q-2 -113 40 -113
q25 0 40 42t40 173l86 436h-73l7 35l76 18q30 110 100.5 176t171.5 66q97 0 142 -55q71 71 168 71q70 0 111 -33l130 33h26l-157 -646q-8 -38 -8 -42q0 -15 14 -15q24 0 83 72l22 -18q-55 -77 -96.5 -110.5t-91.5 -33.5q-43 0 -66 24t-23 62q0 36 12 83l121 487
q-21 97 -81 97q-50 0 -75.5 -64t-24.5 -158h92zM434 522q13 52 40 105q-3 42 -23 71.5t-53 29.5q-45 0 -74 -58.5t-35 -148.5h145v1z" />
    <glyph glyph-name="f_b" unicode="fb" horiz-adv-x="927" 
d="M339 110l132 536q-9 48 -30.5 72.5t-49.5 24.5q-34 0 -57.5 -32t-33.5 -79.5t-12 -110.5h96l-12 -49h-90l-62 -275q-49 -220 -119 -317t-172 -97q-53 0 -87 21t-34 56q0 32 21 51t52 23h26q-2 -113 41 -113q25 0 40 42.5t40 172.5l84 436h-72l8 35l76 18q30 114 99.5 186
t170.5 72q70 0 111 -33l131 33h25l-120 -490q50 105 119 178t138 73q55 0 83.5 -39.5t28.5 -113.5q0 -160 -105 -280.5t-243 -120.5q-73 0 -136 33t-87 87zM710 437q-51 0 -123.5 -116t-98.5 -247q4 -21 22 -33t40 -12q49 0 96 57t73.5 136t27.5 147q0 68 -37 68z" />
    <glyph glyph-name="f_f_b" unicode="ffb" horiz-adv-x="1237" 
d="M681 472h-88l-57 -250q-51 -225 -124 -326t-170 -101q-44 0 -73 18.5t-29 53.5q0 29 19.5 46.5t48.5 21.5h18q-3 -101 33 -101q25 0 41 44t41 171l83 423h-143l-54 -237q-57 -244 -130 -348t-169 -104q-53 0 -87 21t-34 56q0 32 21 51t52 23h27q-2 -113 40 -113
q25 0 40 42t40 173l86 436h-73l7 35l76 18q30 110 100.5 176t171.5 66q97 0 142 -55q71 71 168 71q70 0 111 -33l130 33h26l-120 -490q50 105 119 178t137 73q55 0 84 -39.5t29 -113.5q0 -104 -48.5 -197t-129 -148.5t-171.5 -55.5q-72 0 -136 33t-87 87l133 536
q-21 97 -81 97q-50 0 -75.5 -64t-24.5 -158h92zM1021 437q-51 0 -124 -116t-99 -247q5 -22 22.5 -33.5t40.5 -11.5q49 0 96 57t73.5 136t26.5 147t-36 68zM434 522q13 52 40 105q-3 42 -23 71.5t-53 29.5q-45 0 -74 -58.5t-35 -148.5h145v1z" />
    <glyph glyph-name="f_h" unicode="fh" horiz-adv-x="931" 
d="M311 0l160 646q-9 48 -30.5 72.5t-49.5 24.5q-34 0 -57.5 -32t-33.5 -79.5t-12 -110.5h96l-12 -49h-90l-62 -275q-49 -220 -119 -317t-172 -97q-53 0 -87 21t-34 56q0 32 21 51t52 23h26q-2 -113 41 -113q25 0 40 42.5t40 172.5l84 436h-72l8 35l76 18q30 114 99.5 186
t170.5 72q70 0 111 -33l131 33h25l-119 -484q55 110 127.5 177.5t142.5 67.5q77 0 77 -81q0 -24 -8 -52l-74 -274q-9 -34 -9 -42q0 -15 14 -15q25 0 84 72l21 -18q-54 -77 -95 -110.5t-92 -33.5q-43 0 -67.5 24t-24.5 62q0 35 14 83l65 226q7 28 7 33q0 19 -18 19
q-39 0 -105.5 -92t-95.5 -207l-35 -138h-159z" />
    <glyph glyph-name="f_f_h" unicode="ffh" horiz-adv-x="1241" 
d="M622 0l160 646q-21 97 -81 97q-50 0 -75.5 -64t-24.5 -158h92l-12 -49h-89l-56 -250q-51 -225 -124 -326t-170 -101q-44 0 -73 18.5t-29 53.5q0 29 19.5 46.5t48.5 21.5h18q-3 -101 33 -101q25 0 41 44t41 171l83 423h-143l-54 -237q-57 -244 -130 -348t-169 -104
q-53 0 -87 21t-34 56q0 32 21 51t52 23h27q-2 -113 40 -113q25 0 40 42t40 173l86 436h-73l7 35l76 18q30 110 100.5 176t171.5 66q97 0 142 -55q71 71 168 71q70 0 111 -33l130 33h26l-120 -484q55 110 128 177.5t143 67.5q77 0 77 -81q0 -18 -8 -52l-75 -274
q-8 -30 -8 -42q0 -15 14 -15q26 0 83 72l22 -18q-55 -77 -96.5 -110.5t-91.5 -33.5q-42 0 -66.5 24t-24.5 62q0 35 14 83l65 226q6 24 6 33q0 19 -17 19q-39 0 -105.5 -92t-95.5 -207l-36 -138h-158zM398 728q-45 0 -74 -58.5t-35 -148.5h145v1q13 52 40 105q-3 42 -23 71.5
t-53 29.5z" />
    <glyph glyph-name="f_idieresis" unicode="f&#xef;" horiz-adv-x="634" 
d="M461 521l119 23h25l-102 -407q-9 -34 -9 -42q0 -15 14 -15q25 0 84 72l21 -18q-54 -77 -95 -110.5t-92 -33.5q-43 0 -66 24t-23 62q0 36 12 83l78 313h-145l-62 -275q-49 -220 -119.5 -317t-172.5 -97q-53 0 -87 21t-34 56q0 32 21 51t52 23h27q-2 -113 40 -113
q25 0 40 42t40 173l85 436h-72l7 35l76 18q28 114 93.5 186t170.5 72q64 0 104 -27t40 -76q0 -67 -67 -82h-69q14 49 7.5 97t-38.5 48q-38 0 -56 -63t-20 -159h173zM644 603q-34 0 -54.5 21t-20.5 52q0 33 22.5 57t57.5 24q34 0 54.5 -20.5t20.5 -51.5q0 -34 -22.5 -58
t-57.5 -24z" />
    <glyph glyph-name="f_f_idieresis" unicode="ff&#xef;" horiz-adv-x="945" 
d="M739 472h-147l-56 -250q-51 -225 -124 -326t-170 -101q-44 0 -73 18.5t-29 53.5q0 29 19.5 46.5t48.5 21.5h18q-3 -101 33 -101q25 0 41 44t41 171l83 423h-143l-54 -237q-57 -244 -130 -348t-169 -104q-53 0 -87 21t-34 56q0 32 21 51t52 23h27q-2 -113 40 -113
q25 0 40 42t40 173l86 436h-73l7 35l76 18q30 110 100.5 176t171.5 66q93 0 138 -51q69 67 166 67q64 0 104 -27t40 -76q0 -31 -17.5 -53t-49.5 -29h-69q14 49 7.5 97t-38.5 48q-38 0 -56.5 -63.5t-19.5 -158.5h172l119 23h26l-103 -407q-8 -30 -8 -42q0 -15 14 -15
q24 0 83 72l22 -18q-55 -77 -96.5 -110.5t-91.5 -33.5q-43 0 -66 24t-23 62q0 36 12 83zM398 728q-45 0 -74 -58.5t-35 -148.5h145v1q14 63 40 111q-5 41 -24.5 68t-51.5 27zM956 603q-34 0 -55 21t-21 52q0 33 22.5 57t58.5 24q34 0 54.5 -20.5t20.5 -51.5q0 -34 -22.5 -58
t-57.5 -24z" />
    <glyph glyph-name="f_j" unicode="fj" horiz-adv-x="604" 
d="M428 472h-146l-55 -237q-57 -244 -130 -348t-169 -104q-53 0 -87 21t-34 56q0 32 21 51t52 23h27q-2 -113 40 -113q25 0 40 42t40 173l85 436h-72l7 35l76 18q30 119 108 188.5t193 69.5q63 0 107 -24t44 -67q0 -55 -58 -69h-74q14 42 4 81t-44 39q-46 0 -76.5 -62.5
t-37.5 -159.5h172l119 23h25l-72 -328q-92 -421 -295 -421q-44 0 -73 19t-29 53q0 57 67 67h18q-3 -101 34 -101q22 0 34.5 35.5t37.5 147.5z" />
    <glyph glyph-name="f_f_j" unicode="ffj" horiz-adv-x="914" 
d="M739 472h-147l-56 -250q-51 -225 -124 -326t-170 -101q-44 0 -73 18.5t-29 53.5q0 29 19.5 46.5t48.5 21.5h18q-3 -101 33 -101q25 0 41 44t41 171l83 423h-143l-54 -237q-57 -244 -130 -348t-169 -104q-53 0 -87 21t-34 56q0 32 21 51t52 23h27q-2 -113 40 -113
q25 0 40 42t40 173l86 436h-73l7 35l76 18q30 110 100.5 176t171.5 66q98 0 144 -57q79 73 196 73q63 0 107 -24t44 -67q0 -55 -58 -69h-73q13 42 3 81t-44 39q-47 0 -77 -62.5t-36 -159.5h171l119 23h25l-72 -328q-92 -421 -295 -421q-44 0 -73 19t-29 53q0 57 67 67h18
q-3 -101 34 -101q22 0 34.5 35.5t37.5 147.5zM398 728q-45 0 -74 -58.5t-35 -148.5h145v1q13 56 40 105q-3 42 -23 71.5t-53 29.5z" />
    <glyph glyph-name="f_k" unicode="fk" horiz-adv-x="902" 
d="M372 472h-90l-62 -275q-49 -220 -119 -317t-172 -97q-53 0 -87 21t-34 56q0 32 21 51t52 23h26q-2 -113 41 -113q25 0 40 42.5t40 172.5l84 436h-72l8 35l76 18q30 114 99.5 186t170.5 72q70 0 111 -33l131 33h25l-191 -783h-159l160 646q-9 48 -30.5 72.5t-49.5 24.5
q-34 0 -57.5 -32t-33.5 -79.5t-12 -110.5h96zM666 360l88 -212q13 -32 21.5 -44.5t22.5 -12.5t28 12.5t40 43.5l21 -18q-50 -74 -88.5 -106.5t-83.5 -32.5q-38 0 -60.5 23.5t-40.5 73.5l-65 189l176 203q56 65 110 65q36 0 56.5 -22t20.5 -54q0 -63 -73 -90h-10
q2 31 -11 50.5t-39 19.5q-23 0 -39 -11.5t-40 -38.5z" />
    <glyph glyph-name="f_f_k" unicode="ffk" horiz-adv-x="1213" 
d="M681 472h-88l-57 -250q-51 -225 -124 -326t-170 -101q-44 0 -73 18.5t-29 53.5q0 29 19.5 46.5t48.5 21.5h18q-3 -101 33 -101q25 0 41 44t41 171l83 423h-143l-54 -237q-57 -244 -130 -348t-169 -104q-53 0 -87 21t-34 56q0 32 21 51t52 23h27q-2 -113 40 -113
q25 0 40 42t40 173l86 436h-73l7 35l76 18q30 110 100.5 176t171.5 66q97 0 142 -55q71 71 168 71q70 0 111 -33l130 33h26l-192 -783h-158l160 646q-21 97 -81 97q-50 0 -75.5 -64t-24.5 -158h92zM977 360l88 -212q13 -32 21.5 -44.5t22.5 -12.5q13 0 27 12.5t41 43.5
l21 -18q-50 -74 -88.5 -106.5t-83.5 -32.5q-39 0 -61 23.5t-40 73.5l-66 189l176 203q57 65 110 65q37 0 57.5 -22t20.5 -54q0 -62 -73 -90h-10q2 31 -11 50.5t-40 19.5q-22 0 -38 -11.5t-40 -38.5zM434 522q13 52 40 105q-3 42 -23 71.5t-53 29.5q-45 0 -74 -58.5
t-35 -148.5h145v1z" />
    <glyph glyph-name=".notdef" horiz-adv-x="960" 
d="M90 0v780h780v-780h-780zM480 345l-279 -279h558zM201 714l279 -279l279 279h-558zM435 390l-275 275v-550zM525 390l275 -275v550z" />
    <glyph glyph-name=".null" horiz-adv-x="0" 
 />
    <glyph glyph-name="nonmarkingreturn" horiz-adv-x="333" 
 />
    <glyph glyph-name="space" unicode=" " horiz-adv-x="179" 
 />
    <glyph glyph-name="exclam" unicode="!" horiz-adv-x="279" 
d="M346 702l-199 -476h-47l36 476h210zM8 80q0 38 26 64.5t62 26.5q37 0 63 -26.5t26 -64.5q0 -37 -26 -63.5t-63 -26.5q-36 0 -62 26.5t-26 63.5z" />
    <glyph glyph-name="quotedbl" unicode="&#x22;" horiz-adv-x="334" 
d="M122 465h-13l3 142v20.5t0.5 20.5t1 18t1 18t2 16t4 16t5.5 12.5t7 11.5q22 27 57 27q29 0 44 -16t15 -40q0 -11 -2.5 -22t-8 -23.5t-9.5 -20t-13 -22.5l-12 -20zM283 465h-14l3 142v20.5t0.5 20.5t1 18t1 18t2 16t4 16t5.5 12.5t7 11.5q22 27 58 27q29 0 44 -16t15 -40
q0 -14 -5 -30t-9.5 -24t-17 -29t-14.5 -25z" />
    <glyph glyph-name="numbersign" unicode="#" horiz-adv-x="532" 
d="M483 231h-118l-76 -241l-46 15l71 226h-136l-76 -241l-47 15l71 226h-85v42h99l52 165h-107v43h120l74 232l46 -15l-69 -217h137l74 232l46 -15l-69 -217h83v-43h-96l-53 -165h105v-42zM243 438l-52 -165h137l52 165h-137z" />
    <glyph glyph-name="dollar" unicode="$" horiz-adv-x="569" 
d="M526 226q0 -109 -80 -171t-201 -65l-22 -103h-38l22 104q-68 4 -123 27.5t-85 52.5l30 170h42q2 -88 39.5 -141.5t106.5 -62.5l52 239l-27 14q-76 37 -114.5 81.5t-38.5 112.5q0 104 74.5 166t197.5 62h1l22 99h37l-22 -101q108 -12 173 -68l-31 -150h-39
q-2 150 -113 172l-50 -233l6 -2q85 -41 133 -87t48 -116zM379 154q0 33 -18.5 56.5t-58.5 47.5l-47 -222q55 3 89.5 34t34.5 84zM230 554q0 -35 18.5 -59t57.5 -46l47 219h-1q-53 0 -87.5 -32t-34.5 -82z" />
    <glyph glyph-name="percent" unicode="%" horiz-adv-x="768" 
d="M263 712q62 0 103.5 -38.5t41.5 -105.5q0 -91 -59.5 -145.5t-134.5 -54.5q-62 0 -103.5 38.5t-41.5 105.5q0 91 59 145.5t135 54.5zM262 680q-40 0 -66.5 -60.5t-26.5 -138.5q0 -80 47 -80q40 0 66.5 60.5t26.5 138.5q0 80 -47 80zM527 -10q-62 0 -103.5 38.5
t-41.5 105.5q0 91 59.5 145.5t134.5 54.5q62 0 103.5 -38.5t41.5 -105.5q0 -91 -59 -145.5t-135 -54.5zM722 712l-602 -722h-53l604 722h51zM529 22q40 0 66.5 60.5t26.5 138.5q0 80 -48 80q-40 0 -66.5 -60.5t-26.5 -138.5q0 -80 48 -80z" />
    <glyph glyph-name="ampersand" unicode="&#x26;" horiz-adv-x="710" 
d="M10 175q0 82 54 133.5t148 75.5q-36 66 -36 134q0 84 64 139t165 55q83 0 131.5 -38t48.5 -99q0 -123 -197 -176l126 -200q38 61 38 116q0 32 -45 32l8 38h207l-8 -38q-54 0 -75.5 -14t-39.5 -58q-24 -61 -62 -112l34 -53q23 -35 46.5 -53.5t58.5 -18.5l-8 -38h-190
q-29 19 -56 51q-92 -61 -203 -61q-89 0 -149 50t-60 135zM304 63q44 0 91 25q-8 11 -16 25l-151 245q-72 -46 -72 -148q0 -68 40.5 -107.5t107.5 -39.5zM316 570q0 -61 51 -137l6 -10q94 42 94 153q0 45 -19 71t-56 26q-36 0 -56 -28t-20 -75z" />
    <glyph glyph-name="quotesingle" unicode="'" horiz-adv-x="174" 
d="M122 465h-13l3 142v20.5t0.5 20.5t1 18t1 18t2 16t4 16t5.5 12.5t7 11.5q22 27 57 27q29 0 44 -16t15 -40q0 -11 -2.5 -22t-8 -23.5t-9.5 -20t-13 -22.5l-12 -20z" />
    <glyph glyph-name="parenleft" unicode="(" horiz-adv-x="362" 
d="M71 204q0 162 93.5 310t242.5 256h51q-135 -125 -203 -294.5t-68 -321.5q0 -176 77 -296h-51q-142 144 -142 346z" />
    <glyph glyph-name="parenright" unicode=")" horiz-adv-x="362" 
d="M322 424q0 -162 -93.5 -310t-243.5 -256h-51q135 125 203.5 294.5t68.5 321.5q0 175 -78 296h51q143 -143 143 -346z" />
    <glyph glyph-name="asterisk" unicode="*" horiz-adv-x="433" 
d="M430 558l-132 6l107 -77q25 -15 28 -36.5t-14 -36.5q-15 -15 -36 -8.5t-34 32.5l-61 117l-12 -131q-1 -29 -17.5 -42t-37.5 -6q-22 7 -27 27t11 45l71 111l-119 -54q-27 -13 -46.5 -5.5t-23.5 29.5q-5 22 10.5 36t44.5 13l132 -6l-107 77q-25 15 -28 36t14 36
q15 16 36 9.5t34 -32.5l61 -118l12 131q1 29 17.5 42.5t38.5 6.5t27 -27t-12 -45l-72 -112l121 55q26 13 45.5 5.5t23.5 -29.5q5 -23 -10 -37t-45 -12z" />
    <glyph glyph-name="plus" unicode="+" horiz-adv-x="571" 
d="M316 591h66l-41 -189h190l-14 -64h-189l-40 -189h-65l40 189h-188l14 64h187z" />
    <glyph glyph-name="comma" unicode="," horiz-adv-x="250" 
d="M97 3h-36q-67 14 -67 79q0 37 25 60t63 23q44 0 68.5 -28.5t24.5 -76.5q0 -78 -60.5 -128.5t-155.5 -52.5v37q130 12 138 87z" />
    <glyph glyph-name="hyphen" unicode="-" horiz-adv-x="320" 
d="M283 271h-260l16 70h260z" />
    <glyph glyph-name="period" unicode="." horiz-adv-x="250" 
d="M-7 85q0 41 27.5 68t67.5 27q39 0 66.5 -27t27.5 -68t-27.5 -68t-66.5 -27q-40 0 -67.5 27t-27.5 68z" />
    <glyph glyph-name="slash" unicode="/" horiz-adv-x="366" 
d="M460 770l-475 -911h-70l475 911h70z" />
    <glyph glyph-name="zero" unicode="0" horiz-adv-x="645" 
d="M273 -10q-106 0 -171.5 76.5t-65.5 193.5q0 113 45 216t132 169.5t196 66.5q106 0 171 -76.5t65 -193.5q0 -114 -45 -216.5t-131.5 -169t-195.5 -66.5zM273 29q55 0 104 92.5t74.5 208t25.5 203.5q0 140 -69 140q-55 0 -104 -92.5t-74.5 -208t-25.5 -203.5
q0 -140 69 -140z" />
    <glyph glyph-name="one" unicode="1" horiz-adv-x="430" 
d="M372 711h36l-126 -591q-10 -52 7 -66t85 -16l-9 -38h-381l8 38q70 2 88.5 13.5t29.5 57.5l93 439h-117l8 35l41 7q139 22 237 121z" />
    <glyph glyph-name="two" unicode="2" horiz-adv-x="546" 
d="M144 137h156q70 0 101 17t77 85h32l-79 -239h-472l7 28q249 208 329 300.5t80 174.5q0 46 -29 72.5t-78 26.5q-90 0 -160 -75l-17 22q98 163 259 163q90 0 141 -47t51 -126q0 -38 -16.5 -75t-38.5 -64.5t-66.5 -64.5t-78 -60.5t-97.5 -67.5t-101 -70z" />
    <glyph glyph-name="three" unicode="3" horiz-adv-x="540" 
d="M174 367q204 52 204 165q0 36 -23.5 59t-65.5 23q-79 0 -148 -74l-18 23q96 149 250 149q77 0 122.5 -37.5t45.5 -97.5q0 -132 -203 -180q73 -6 122.5 -53.5t49.5 -113.5q0 -76 -46 -132.5t-112.5 -82t-140.5 -25.5q-104 0 -160 42t-56 104t63 87h86q-17 -32 -17 -75
q0 -51 22 -86t65 -35q60 0 97 58.5t37 125.5q0 63 -30 96.5t-84 33.5q-21 0 -55 -8z" />
    <glyph glyph-name="four" unicode="4" horiz-adv-x="636" 
d="M85 234h237l69 324zM295 106l17 80h-312l7 31l457 485h124l-100 -468h116l-11 -48h-115l-17 -80q-8 -41 3.5 -52.5t63.5 -15.5l-8 -38h-328l8 38q53 4 70 16t25 52z" />
    <glyph glyph-name="five" unicode="5" horiz-adv-x="535" 
d="M205 557l-29 -98q141 2 232.5 -53.5t91.5 -173.5q0 -110 -78.5 -176t-198.5 -66q-103 0 -163.5 39t-60.5 103q0 31 17.5 55t44.5 33h80q-13 -33 -13 -68q0 -54 30.5 -89t80.5 -35q53 0 87 36t34 95q0 168 -276 166l124 375h264q27 0 38.5 7t31.5 36h35l-67 -186h-305z
" />
    <glyph glyph-name="six" unicode="6" horiz-adv-x="594" 
d="M584 683q-127 -23 -218 -98.5t-134 -189.5q72 60 154 60q87 0 138 -52t51 -133q0 -120 -86.5 -200t-208.5 -80q-111 0 -177.5 69t-66.5 181q0 184 153.5 320.5t381.5 151.5zM309 397q-47 0 -85 -27q-27 -82 -27 -181q0 -70 20.5 -114.5t66.5 -44.5q58 0 95.5 67t37.5 156
q0 65 -26.5 104.5t-81.5 39.5z" />
    <glyph glyph-name="seven" unicode="7" horiz-adv-x="523" 
d="M469 544h-251q-40 0 -65 -18t-53 -64h-38l94 240h453l-6 -33l-418 -669h-115z" />
    <glyph glyph-name="eight" unicode="8" horiz-adv-x="580" 
d="M579 555q0 -67 -51 -106.5t-120 -45.5l19 -12q110 -67 110 -174q0 -104 -76 -165.5t-195 -61.5q-110 0 -181 50t-71 129q0 68 52.5 110.5t133.5 51.5l-10 7q-82 60 -82 160q0 91 71.5 152.5t183.5 61.5q96 0 156 -43t60 -114zM324 252l-105 66q-85 -41 -85 -149
q0 -62 37 -101t99 -39q56 0 93.5 31.5t37.5 84.5q0 33 -18 57t-59 50zM309 466l79 -52q39 20 60 61t21 86q0 50 -29.5 81t-80.5 31q-50 0 -81.5 -29t-31.5 -79q0 -60 63 -99z" />
    <glyph glyph-name="nine" unicode="9" horiz-adv-x="594" 
d="M47 19q127 22 217.5 97.5t133.5 190.5q-70 -60 -153 -60q-87 0 -138 52t-51 133q0 120 86.5 200t208.5 80q111 0 177.5 -69t66.5 -181q0 -184 -153.5 -320.5t-381.5 -151.5zM322 305q47 0 85 26q27 84 27 182q0 70 -20.5 114.5t-66.5 44.5q-58 0 -95.5 -67t-37.5 -156
q0 -65 26.5 -104.5t81.5 -39.5z" />
    <glyph glyph-name="colon" unicode=":" horiz-adv-x="250" 
d="M-7 85q0 41 27.5 68t67.5 27q39 0 66.5 -27t27.5 -68t-27.5 -68t-66.5 -27q-40 0 -67.5 27t-27.5 68zM59 402q0 41 27.5 68t66.5 27q40 0 67.5 -27t27.5 -68t-27.5 -68t-67.5 -27q-39 0 -66.5 27t-27.5 68z" />
    <glyph glyph-name="semicolon" unicode=";" horiz-adv-x="250" 
d="M97 3h-37q-66 14 -66 79q0 37 25 60t63 23q44 0 68.5 -28.5t24.5 -76.5q0 -78 -60.5 -128.5t-155.5 -52.5v37q128 12 138 87zM59 402q0 41 27.5 68t66.5 27q40 0 67.5 -27t27.5 -68t-27.5 -68t-67.5 -27q-39 0 -66.5 27t-27.5 68z" />
    <glyph glyph-name="less" unicode="&#x3c;" horiz-adv-x="422" 
d="M62 364l2 9l356 192l-17 -79l-230 -120l178 -122l-15 -73z" />
    <glyph glyph-name="equal" unicode="=" horiz-adv-x="581" 
d="M65 267l13 62h443l-14 -62h-442zM95 410l14 63h442l-14 -63h-442z" />
    <glyph glyph-name="greater" unicode="&#x3e;" horiz-adv-x="422" 
d="M398 373l-3 -9l-356 -193l18 79l230 121l-179 122l15 72z" />
    <glyph glyph-name="question" unicode="?" horiz-adv-x="463" 
d="M272 466q55 31 82.5 60.5t27.5 75.5q0 35 -18.5 55t-52.5 20q-39 0 -60.5 -29.5t-21.5 -76.5q0 -24 5 -47h-109q-26 23 -26 58q0 60 58 95t146 35q98 0 152 -44.5t54 -119.5q0 -66 -38 -108.5t-111 -78.5q-62 -31 -91.5 -56t-29.5 -61q0 -9 4 -25h-25q-61 32 -61 100
q0 45 27 78.5t88 68.5zM100 80q0 38 26 64.5t62 26.5q37 0 63 -26.5t26 -64.5q0 -37 -26 -63.5t-63 -26.5q-36 0 -62 26.5t-26 63.5z" />
    <glyph glyph-name="at" unicode="@" horiz-adv-x="876" 
d="M601 76q-74 0 -98 46t-8 121q-38 -80 -79.5 -123t-92.5 -43q-45 0 -72.5 33.5t-27.5 92.5q0 108 78 200.5t182 92.5q58 0 91 -39l74 34h33l-33 -91l-61 -196q-25 -93 30 -93q64 0 107.5 76t43.5 186q0 120 -75 200.5t-205 80.5q-163 0 -263.5 -120.5t-100.5 -290.5
q0 -153 91.5 -238.5t235.5 -85.5q81 0 142.5 17.5t128.5 57.5l12 -18q-116 -103 -299 -103q-171 0 -282 98t-111 270q0 121 56.5 223.5t159.5 164.5t230 62q165 0 261.5 -90.5t96.5 -227.5q0 -132 -74.5 -214.5t-170.5 -82.5zM376 155q43 0 91 81.5t74 193.5q-13 33 -51 33
q-59 0 -103.5 -83.5t-44.5 -166.5q0 -58 34 -58z" />
    <glyph glyph-name="A" unicode="A" horiz-adv-x="732" 
d="M452 122l-19 103h-262l-61 -103q-18 -32 -18 -48q0 -32 77 -36l-9 -38h-212l8 38q47 5 66 37l332 552l-15 79h175l119 -631q3 -18 15.5 -26t35.5 -11l-8 -38h-322l8 38q46 2 69.5 12.5t23.5 41.5q0 17 -3 30zM371 561l-172 -288h225z" />
    <glyph glyph-name="B" unicode="B" horiz-adv-x="680" 
d="M350 337h-57l-48 -226q-9 -39 5.5 -53.5t57.5 -14.5h9q70 0 116 47.5t46 134.5q0 51 -32.5 81.5t-96.5 30.5zM399 659h-37l-58 -273h37q77 0 124 43t47 128q0 102 -113 102zM-25 0l9 38q52 6 67 17t23 52l105 488q9 41 -2 52.5t-60 16.5l8 38h340q104 0 155.5 -39
t51.5 -105q0 -90 -67.5 -139.5t-155.5 -52.5q86 -4 141 -46.5t55 -107.5q0 -102 -85.5 -157t-217.5 -55h-367z" />
    <glyph glyph-name="C" unicode="C" horiz-adv-x="674" 
d="M478 712q138 0 216 -61l-32 -165h-41q-5 183 -137 183q-64 0 -117 -42t-85 -107t-49.5 -136.5t-17.5 -137.5q0 -210 134 -210q139 0 238 210h49l-58 -196q-106 -60 -237 -60q-141 0 -221 78.5t-80 208.5q0 117 56 216.5t157 159t225 59.5z" />
    <glyph glyph-name="D" unicode="D" horiz-adv-x="757" 
d="M300 43h9q74 0 137 57.5t99 149t36 192.5q0 108 -44.5 162.5t-142.5 54.5h-32l-116 -545q-9 -43 3 -57t51 -14zM298 0h-323l9 38q52 6 67 17t23 52l105 488q9 41 -2 52.5t-60 16.5l8 38h295q151 0 243 -74.5t92 -208.5q0 -187 -131 -303t-326 -116z" />
    <glyph glyph-name="E" unicode="E" horiz-adv-x="651" 
d="M544 0h-569l9 38q52 6 67 17t23 52l105 488q9 41 -2 52.5t-60 16.5l8 38h561l-36 -187h-31q-19 87 -42.5 115.5t-84.5 28.5h-130l-58 -272h113q33 0 51 20.5t36 71.5h39l-49 -233h-40q4 52 -5.5 71.5t-42.5 19.5h-113l-48 -226q-9 -39 8 -53.5t63 -14.5h50
q60 0 97.5 31.5t116.5 134.5h40z" />
    <glyph glyph-name="F" unicode="F" horiz-adv-x="603" 
d="M341 0h-366l9 38q52 6 67 17t23 52l105 488q9 41 -2 52.5t-60 16.5l8 38h549l-36 -193h-32q-14 86 -39.5 118t-87.5 32h-117l-60 -280h100q33 0 51 20.5t36 72.5h39l-50 -236h-39q4 52 -5 72.5t-42 20.5h-100l-47 -217q-9 -40 13 -54.5t91 -18.5z" />
    <glyph glyph-name="G" unicode="G" horiz-adv-x="731" 
d="M361 36q49 0 84 20l37 168q9 41 -2 52.5t-60 16.5l8 38h307l-8 -38q-48 -4 -62.5 -16t-22.5 -53l-35 -166q-120 -68 -257 -68q-142 0 -226 77.5t-84 206.5q0 179 128.5 308.5t316.5 129.5q64 0 123.5 -17t94.5 -44l-33 -165h-41q-3 183 -138 183q-64 0 -118 -42.5
t-87.5 -108t-52 -138t-18.5 -137.5q0 -99 39 -153t107 -54z" />
    <glyph glyph-name="H" unicode="H" horiz-adv-x="827" 
d="M74 107l105 488q9 41 -2 52.5t-60 16.5l8 38h323l-8 -38q-53 -6 -68 -17.5t-23 -51.5l-45 -210h278l45 210q9 41 -2 52.5t-60 16.5l8 38h323l-8 -38q-53 -6 -68 -17.5t-23 -51.5l-104 -488q-9 -41 2 -52.5t60 -16.5l-9 -38h-323l9 38q52 6 67 17t24 52l48 223h-278
l-48 -223q-9 -41 2 -52.5t60 -16.5l-9 -38h-323l9 38q52 6 67 17t23 52z" />
    <glyph glyph-name="I" unicode="I" horiz-adv-x="379" 
d="M74 107l105 488q9 41 -2 52.5t-60 16.5l8 38h323l-8 -38q-53 -6 -68 -17.5t-23 -51.5l-104 -488q-9 -41 2 -52.5t60 -16.5l-9 -38h-323l9 38q52 6 67 17t23 52z" />
    <glyph glyph-name="J" unicode="J" horiz-adv-x="562" 
d="M281 168l91 427q9 41 -2 52.5t-60 16.5l9 38h323l-9 -38q-52 -6 -67 -17t-24 -52l-84 -392q-24 -114 -94 -163.5t-193 -49.5q-89 0 -143 34t-54 89q0 68 67 104h109q-28 -65 -28 -114q0 -32 14.5 -53t44.5 -21q40 0 62.5 33.5t37.5 105.5z" />
    <glyph glyph-name="K" unicode="K" horiz-adv-x="732" 
d="M460 408l142 -304q18 -34 36 -48.5t51 -17.5l-8 -38h-201q-31 31 -66 108l-109 235l289 249q36 32 36 48q0 12 -13 17.5t-52 6.5l9 38h233l-8 -38q-32 -2 -52 -10.5t-45 -30.5zM349 595l-104 -488q-9 -41 2 -52.5t60 -16.5l-9 -38h-323l9 38q52 6 67 17t23 52l105 488
q9 41 -2 52.5t-60 16.5l8 38h323l-8 -38q-53 -6 -68 -17.5t-23 -51.5z" />
    <glyph glyph-name="L" unicode="L" horiz-adv-x="632" 
d="M348 595l-103 -484q-8 -39 7.5 -53.5t61.5 -14.5h36q52 0 98.5 39t126.5 145h39l-84 -227h-555l9 38q52 6 67 17t23 52l105 488q9 41 -2 52.5t-60 16.5l8 38h323l-9 -38q-52 -6 -67 -17t-24 -52z" />
    <glyph glyph-name="M" unicode="M" horiz-adv-x="952" 
d="M663 120l36 405l-297 -525h-58l-82 525l-138 -408q-13 -45 2 -60t76 -19l-8 -38h-239l8 38q44 2 64 14.5t32 46.5l167 492q9 40 -5.5 55.5t-63.5 17.5l8 38h243q-3 -24 2 -62l65 -412l229 412q23 43 29 62h244l-8 -38q-49 -2 -70.5 -17.5t-29.5 -55.5l-43 -492
q-1 -35 14 -47t58 -14l-9 -38h-338l8 38q59 4 78.5 18.5t25.5 63.5z" />
    <glyph glyph-name="N" unicode="N" horiz-adv-x="748" 
d="M594 247l74 348q8 39 -11 52t-80 17l9 38h240l-8 -38q-53 -6 -68 -17t-23 -52l-126 -597h-57l-317 544l-92 -435q-8 -39 10.5 -52t79.5 -17l-9 -38h-240l8 38q53 6 68 17t23 52l106 497q-18 34 -30 45.5t-39 14.5l9 38h217z" />
    <glyph glyph-name="O" unicode="O" horiz-adv-x="741" 
d="M455 712q133 0 209 -79t76 -199q0 -111 -50 -211.5t-147 -166.5t-219 -66q-132 0 -208 79t-76 199q0 82 29.5 161.5t82 142.5t132 101.5t171.5 38.5zM452 667q-54 0 -100 -47t-74.5 -117t-44.5 -145.5t-16 -138.5q0 -184 111 -184q54 0 100 47t74.5 117t44.5 145.5
t16 138.5q0 184 -111 184z" />
    <glyph glyph-name="P" unicode="P" horiz-adv-x="655" 
d="M125 702h321q114 0 177.5 -50t63.5 -129q0 -121 -94 -184.5t-245 -63.5h-68l-35 -163q-9 -40 12.5 -54.5t91.5 -18.5l-8 -39h-366l9 38q52 6 67 17t23 52l105 488q9 41 -2 52.5t-60 16.5zM362 659l-72 -337h34q84 0 140 52t56 149q0 63 -32.5 99.5t-95.5 36.5h-30z" />
    <glyph glyph-name="Q" unicode="Q" horiz-adv-x="741" 
d="M455 712q133 0 209 -79t76 -199q0 -154 -95.5 -282.5t-249.5 -155.5l60 -60q30 -31 56 -45.5t67 -15.5l-3 -15q-49 -44 -124 -44q-99 0 -144 92l-44 87q-105 18 -164 93t-59 180q0 82 29.5 161.5t82 142.5t132 101.5t171.5 38.5zM452 667q-54 0 -100 -47t-74.5 -117
t-44.5 -145.5t-16 -138.5q0 -191 110 -191q54 0 100.5 48t75 119.5t44.5 148t16 139.5q0 184 -111 184z" />
    <glyph glyph-name="R" unicode="R" horiz-adv-x="728" 
d="M397 657h-36l-66 -315h35q85 0 138.5 49.5t53.5 144.5q0 55 -30.5 88t-94.5 33zM285 296l-41 -189q-9 -41 2 -52.5t60 -16.5l-8 -38h-323l9 38q52 6 67 17t23 52l105 488q9 41 -2 52.5t-60 16.5l8 38h343q113 0 168.5 -47t55.5 -121q0 -46 -21 -85t-54 -64t-65.5 -40.5
t-64.5 -22.5l103 -202q24 -47 43 -64t54 -18l-7 -38h-199q-31 27 -62 102l-85 194h-49z" />
    <glyph glyph-name="S" unicode="S" horiz-adv-x="572" 
d="M531 228q0 -112 -84 -175t-209 -63q-76 0 -138.5 24.5t-95.5 56.5l30 170h41q2 -96 47.5 -150.5t125.5 -54.5q58 0 94 31t36 87q0 44 -28.5 71.5t-102.5 63.5q-75 36 -114 80.5t-39 112.5q0 104 74 167t198 63q64 0 120 -19.5t91 -50.5l-31 -150h-39q-1 83 -38 129.5
t-112 46.5q-53 0 -84.5 -32t-31.5 -82q0 -42 24 -67.5t85 -55.5q85 -41 133 -87t48 -116z" />
    <glyph glyph-name="T" unicode="T" horiz-adv-x="700" 
d="M522 664l-119 -560q-9 -39 5 -49.5t68 -16.5l-8 -38h-343l8 38q57 6 74 16.5t26 49.5l119 560h-43q-51 0 -87.5 -38t-120.5 -165h-38l66 241h632l-37 -241h-36q-28 131 -42 159q-27 42 -71 44h-53z" />
    <glyph glyph-name="U" unicode="U" horiz-adv-x="741" 
d="M597 263l70 332q9 40 -4.5 52t-71.5 17l9 38h226l-8 -38q-53 -6 -68 -17.5t-23 -51.5l-75 -351q-27 -127 -105.5 -190.5t-199.5 -63.5q-140 0 -210 79t-41 212l67 314q9 41 -2 52.5t-60 16.5l8 38h323l-8 -38q-53 -6 -68 -17.5t-23 -51.5l-69 -322q-20 -91 14.5 -149
t118.5 -58q81 0 129 46t71 151z" />
    <glyph glyph-name="V" unicode="V" horiz-adv-x="704" 
d="M404 201l229 379q21 34 21 52q0 16 -15.5 23t-55.5 9l8 38h208l-9 -38q-48 -6 -67 -37l-390 -632h-47l-144 632q-4 19 -15 26t-35 11l8 38h315l-8 -38q-49 -2 -69.5 -12.5t-20.5 -38.5q0 -8 4 -34z" />
    <glyph glyph-name="W" unicode="W" horiz-adv-x="966" 
d="M666 573l40 -349l189 343q23 44 23 63q0 16 -13 24.5t-52 9.5l8 38h200l-9 -38q-26 -3 -41 -10.5t-25 -26.5l-356 -632h-49l-52 406l-234 -406h-50l-103 632q-4 28 -50 37l8 38h299l-8 -38q-41 -3 -57 -14.5t-16 -37.5q0 -18 3 -39l53 -352l146 254l-19 152q-2 17 -13 25
t-32 12l8 38h281l-8 -38q-42 -4 -57.5 -15.5t-15.5 -38.5q0 -13 2 -37z" />
    <glyph glyph-name="X" unicode="X" horiz-adv-x="713" 
d="M408 115l-81 178l-180 -184q-22 -25 -22 -41q0 -27 72 -30l-8 -38h-237l7 38q52 5 85 39l262 263l-129 285q-17 34 -61 39l8 38h319l-8 -38q-71 0 -71 -33q0 -13 13 -45l60 -136l140 143q23 26 23 42t-14.5 22t-49.5 7l7 38h229l-7 -38q-55 -5 -87 -39l-220 -222
l144 -320q17 -41 63 -45l-7 -38h-328l8 38q29 1 44 3t27 10t12 22q0 11 -13 42z" />
    <glyph glyph-name="Y" unicode="Y" horiz-adv-x="675" 
d="M431 268l-35 -164q-9 -39 5 -49.5t68 -16.5l-8 -38h-338l8 38q57 6 74 16.5t26 49.5l34 160l-123 363q-6 19 -16.5 26t-33.5 11l8 38h312l-8 -38q-47 -2 -65.5 -12t-18.5 -33q0 -15 12 -51l83 -241l179 244q32 45 32 62q0 30 -68 31l8 38h204l-9 -38q-44 -8 -66 -37z" />
    <glyph glyph-name="Z" unicode="Z" horiz-adv-x="635" 
d="M180 43h149q61 0 104.5 34.5t129.5 145.5h39l-82 -223h-549l6 30l505 629h-142q-23 0 -39.5 -2.5t-34 -14t-27.5 -18.5t-29.5 -33.5t-29.5 -40.5t-38 -57h-37l53 209h534l-7 -30z" />
    <glyph glyph-name="bracketleft" unicode="[" horiz-adv-x="330" 
d="M285 674l-152 -719q-8 -37 10.5 -46.5t82.5 -13.5l-6 -36h-210l193 911h210l-8 -36q-67 -4 -89.5 -13.5t-30.5 -46.5z" />
    <glyph glyph-name="backslash" unicode="\" horiz-adv-x="366" 
d="M220 -141l-90 911h63l90 -911h-63z" />
    <glyph glyph-name="bracketright" unicode="]" horiz-adv-x="330" 
d="M76 -45l153 719q8 37 -10.5 46.5t-83.5 13.5l8 36h209l-193 -911h-209l6 36q67 4 89.5 13.5t30.5 46.5z" />
    <glyph glyph-name="asciicircum" unicode="^" horiz-adv-x="467" 
d="M375 770l104 -290h-62l-83 241l-186 -241h-68l226 290h69z" />
    <glyph glyph-name="underscore" unicode="_" horiz-adv-x="408" 
d="M317 -132h-367l12 66h368z" />
    <glyph glyph-name="grave" unicode="`" horiz-adv-x="443" 
d="M157 764h149l37 -165h-42l-144 157v8z" />
    <glyph glyph-name="a" unicode="a" horiz-adv-x="626" 
d="M216 99q45 0 107 102t104 259q-14 44 -57 44q-49 0 -95 -53.5t-72.5 -131.5t-26.5 -151q0 -69 40 -69zM331 78q0 45 31 138q-112 -226 -228 -226q-55 0 -86 41.5t-31 114.5q0 97 44.5 188.5t123 150.5t167.5 59q72 0 118 -48l103 51h33l-38 -128l-69 -282q-8 -38 -8 -42
q0 -15 14 -15q24 0 83 72l22 -18q-55 -77 -96.5 -110.5t-91.5 -33.5q-43 0 -67 23.5t-24 64.5z" />
    <glyph glyph-name="b" unicode="b" horiz-adv-x="608" 
d="M342 783l-119 -490q50 105 118.5 178t137.5 73q55 0 84 -39.5t29 -113.5q0 -159 -105.5 -280t-243.5 -121q-72 0 -136 33t-87 87l142 576l-55 29l5 25l205 43h25zM392 437q-51 0 -124 -116t-99 -247q11 -45 63 -45q49 0 96 57t73.5 136t26.5 147t-36 68z" />
    <glyph glyph-name="c" unicode="c" horiz-adv-x="461" 
d="M325 507q-37 0 -71.5 -48t-55 -118t-20.5 -135q0 -130 86 -130q34 0 64.5 19.5t68.5 64.5l21 -20q-91 -150 -224 -150q-80 0 -127 52t-47 138q0 89 42.5 173t118.5 137.5t164 53.5q60 0 95.5 -24t35.5 -70q0 -62 -67 -79h-40q13 136 -44 136z" />
    <glyph glyph-name="d" unicode="d" horiz-adv-x="637" 
d="M216 99q47 0 110.5 102.5t103.5 258.5q-5 19 -20.5 31.5t-36.5 12.5q-74 0 -135 -111t-62 -222q0 -72 40 -72zM445 518l40 168l-56 29l6 25l205 43h25l-157 -646q-9 -34 -9 -42q0 -15 14 -15q25 0 84 72l21 -18q-54 -77 -95 -110.5t-92 -33.5q-43 0 -67 23.5t-24 64.5
q0 47 32 143q-52 -105 -113 -168t-124 -63q-55 0 -86.5 41.5t-31.5 114.5q0 96 45 188t123.5 151t167.5 59q53 0 92 -26z" />
    <glyph glyph-name="e" unicode="e" horiz-adv-x="483" 
d="M489 434q0 -43 -23.5 -75.5t-68.5 -54.5t-96.5 -36.5t-122.5 -26.5q-1 -8 -1 -25q0 -66 27.5 -101.5t77.5 -35.5q72 0 146 86l21 -19q-103 -156 -247 -156q-82 0 -132 53.5t-50 142.5t42.5 171.5t119 134.5t165.5 52q69 0 105.5 -31t36.5 -79zM330 506q-49 0 -91.5 -72.5
t-56.5 -161.5q188 45 188 183q0 51 -40 51z" />
    <glyph glyph-name="f" unicode="f" horiz-adv-x="344" 
d="M40 472l8 35l77 19q29 114 95.5 185.5t163.5 71.5q56 0 91 -22t35 -65q0 -51 -56 -69h-61q13 117 -32 117q-32 0 -51.5 -63t-21.5 -160h111l-12 -49h-105l-62 -275q-49 -220 -119 -317t-172 -97q-53 0 -87 21t-34 56q0 32 21 51t52 23h26q-2 -113 41 -113q25 0 40 42.5
t40 172.5l85 436h-73z" />
    <glyph glyph-name="g" unicode="g" horiz-adv-x="518" 
d="M491 389q0 -93 -75 -150t-184 -57q-41 0 -77 11q-27 -16 -27 -35q0 -17 31 -26l175 -43q68 -16 104.5 -45.5t36.5 -81.5q0 -86 -85.5 -135.5t-215.5 -49.5q-105 0 -181 37t-76 100q0 46 43 70.5t105 31.5q-36 27 -36 72q0 73 100 116q-80 42 -80 136q0 91 74.5 147.5
t182.5 56.5q44 0 84 -16l186 6l-19 -64h-46l-54 9q34 -40 34 -90zM278 -58l-194 55q-62 -27 -62 -79q0 -44 44 -71.5t116 -27.5t114 19.5t42 52.5q0 21 -14 31.5t-46 19.5zM345 427q0 80 -45 80q-41 0 -73.5 -63.5t-32.5 -145.5q0 -81 45 -81q41 0 73.5 64t32.5 146z" />
    <glyph glyph-name="h" unicode="h" horiz-adv-x="620" 
d="M351 783l-120 -484q55 110 128 177.5t143 67.5q77 0 77 -81q0 -18 -8 -52l-75 -274q-8 -30 -8 -42q0 -15 14 -15q26 0 83 72l22 -18q-55 -77 -96.5 -110.5t-91.5 -33.5q-43 0 -67.5 24t-24.5 62q0 32 15 83l65 226q6 24 6 33q0 19 -17 19q-39 0 -105.5 -92t-95.5 -207
l-36 -138h-158l169 686l-55 29l5 25l205 43h26z" />
    <glyph glyph-name="i" unicode="i" horiz-adv-x="326" 
d="M244 597q-38 0 -61.5 23.5t-23.5 56.5q0 37 25.5 63.5t66.5 26.5q38 0 62 -23t24 -57q0 -37 -26 -63.5t-67 -26.5zM40 159l71 282l-54 37l5 23l209 43h26l-103 -407q-8 -30 -8 -42q0 -15 14 -15q26 0 83 72l22 -18q-55 -77 -96 -110.5t-91 -33.5q-43 0 -66 24t-23 62
q0 35 11 83z" />
    <glyph glyph-name="j" unicode="j" horiz-adv-x="294" 
d="M298 544l-105 -433q-42 -172 -110 -250t-172 -78q-53 0 -86.5 20.5t-33.5 57.5q0 32 20.5 50.5t51.5 22.5h27q0 -113 40 -113q24 0 38.5 36t40.5 146l104 438l-55 37l6 23l208 43h26zM242 597q-38 0 -62 23.5t-24 56.5q0 37 26 63.5t66 26.5q38 0 62 -23t24 -57
q0 -37 -25.5 -63.5t-66.5 -26.5z" />
    <glyph glyph-name="k" unicode="k" horiz-adv-x="592" 
d="M356 360l88 -212q13 -32 21.5 -44.5t22.5 -12.5t28 12.5t40 43.5l21 -18q-50 -74 -88.5 -106.5t-83.5 -32.5q-38 0 -60.5 23.5t-40.5 73.5l-65 189l176 203q56 65 110 65q36 0 56.5 -22t20.5 -54q0 -62 -73 -90h-10q2 31 -11 50.5t-39 19.5q-23 0 -39 -11.5t-40 -38.5z
M160 0h-159l170 686l-56 29l5 25l206 43h25z" />
    <glyph glyph-name="l" unicode="l" horiz-adv-x="316" 
d="M344 783l-157 -646q-8 -38 -8 -42q0 -15 14 -15q26 0 83 72l22 -18q-55 -77 -96.5 -110.5t-91.5 -33.5q-42 0 -65 24t-23 62q0 40 11 83l131 527l-56 29l5 25l206 43h25z" />
    <glyph glyph-name="m" unicode="m" horiz-adv-x="924" 
d="M502 544q75 0 75 -79q0 -43 -37 -165q57 111 127 177.5t139 66.5q76 0 76 -81q0 -24 -8 -52l-74 -274q-9 -34 -9 -42q0 -15 14 -15q25 0 84 72l21 -18q-54 -77 -95 -110.5t-92 -33.5q-43 0 -67.5 24t-24.5 62q0 32 15 83l64 226q7 28 7 33q0 19 -18 19q-37 0 -101 -92.5
t-93 -206.5l-35 -138h-159l96 385q6 24 6 33q0 19 -17 19q-37 0 -101 -92.5t-93 -206.5l-35 -138h-159l111 441l-55 37l5 23l210 43h25l-67 -244q56 111 126 177.5t139 66.5z" />
    <glyph glyph-name="n" unicode="n" horiz-adv-x="628" 
d="M304 544l-67 -246q55 110 128.5 178t143.5 68q77 0 77 -81q0 -24 -8 -52l-75 -274q-8 -30 -8 -42q0 -15 14 -15q26 0 83 72l22 -18q-55 -77 -96 -110.5t-91 -33.5q-43 0 -67.5 24t-24.5 62q0 35 14 83l65 226q6 24 6 33q0 19 -17 19q-39 0 -105.5 -92t-95.5 -207
l-35 -138h-159l111 441l-55 37l5 23l210 43h25z" />
    <glyph glyph-name="o" unicode="o" horiz-adv-x="553" 
d="M173 127q0 -99 50 -99q38 0 75.5 65.5t59.5 153.5t22 160q0 99 -50 99q-38 0 -75.5 -65.5t-59.5 -153.5t-22 -160zM533 342q0 -88 -40.5 -168.5t-114 -132t-160.5 -51.5q-91 0 -144.5 53.5t-53.5 148.5q0 136 92 244t223 108q90 0 144 -53.5t54 -148.5z" />
    <glyph glyph-name="p" unicode="p" horiz-adv-x="619" 
d="M304 544l-69 -251q50 105 118.5 178t136.5 73q55 0 83.5 -39.5t28.5 -113.5q0 -158 -102 -279.5t-228 -121.5q-69 0 -97 42l-41 -158q-3 -14 -3 -21q0 -16 17.5 -21.5t62.5 -7.5l-8 -36h-304l8 36q34 2 48 9.5t20 31.5l144 576l-55 37l6 23l209 43h25zM402 437
q-49 0 -119.5 -112.5t-97.5 -242.5q16 -45 62 -45q48 0 93.5 55t71.5 132t27 145q0 68 -37 68z" />
    <glyph glyph-name="q" unicode="q" horiz-adv-x="603" 
d="M575 419l-140 -548q-4 -14 -4 -20q0 -15 12.5 -20t41.5 -7l-7 -36h-298l7 36q50 3 66.5 10.5t23.5 33.5l93 351q-114 -229 -235 -229q-55 0 -86.5 41.5t-31.5 114.5q0 96 45 188t123.5 151t167.5 59q80 0 125 -48l102 51h33zM216 99q47 0 110.5 102.5t103.5 258.5
q-5 19 -20.5 31.5t-36.5 12.5q-74 0 -135 -111t-62 -222q0 -72 40 -72z" />
    <glyph glyph-name="r" unicode="r" horiz-adv-x="467" 
d="M304 544l-44 -158l-45 -141q82 169 128.5 234t97.5 65q31 0 48.5 -19.5t17.5 -52.5q0 -40 -24.5 -71.5t-61.5 -47.5h-8q0 46 -36 46q-55 0 -114 -112t-96 -287h-159l111 441l-55 37l5 23l210 43h25z" />
    <glyph glyph-name="s" unicode="s" horiz-adv-x="433" 
d="M201 29q28 0 44 14.5t16 40.5q0 20 -20 45t-48.5 50.5t-57.5 53.5t-49 62.5t-20 69.5q0 74 61 126.5t149 52.5q63 0 103.5 -24.5t40.5 -70.5q0 -26 -19.5 -44t-44.5 -25h-8q-14 53 -44 88.5t-70 35.5q-26 0 -40.5 -14.5t-14.5 -38.5q0 -18 21 -42.5t50.5 -50.5t59.5 -55
t51 -64t21 -68q0 -78 -62.5 -129.5t-149.5 -51.5q-78 0 -127.5 32t-49.5 83q0 58 65 81h7q15 -72 50 -114.5t86 -42.5z" />
    <glyph glyph-name="t" unicode="t" horiz-adv-x="377" 
d="M278 472l-80 -318q-8 -31 -8 -50q0 -28 25 -28q45 0 121 88l23 -17q-113 -157 -221 -157q-48 0 -76 28t-28 72q0 34 9 71l77 311h-62l8 31q129 41 221 160h37l-34 -142h110l-12 -49h-110z" />
    <glyph glyph-name="u" unicode="u" horiz-adv-x="629" 
d="M403 399l31 127l164 9l-99 -398q-9 -36 -9 -42q0 -15 14 -15q26 0 83 72l22 -18q-55 -77 -96 -110.5t-91 -33.5q-43 0 -67 23.5t-24 64.5q0 38 31 146q-53 -109 -116 -171.5t-125 -62.5q-43 0 -67.5 26.5t-24.5 67.5q0 23 8 57l76 300l-55 37l5 23l210 43h25l-98 -385
q-8 -30 -8 -43q0 -23 20 -23q39 0 100.5 93.5t90.5 212.5z" />
    <glyph glyph-name="v" unicode="v" horiz-adv-x="505" 
d="M78 448l-57 34l7 20l186 42h14l29 -409l79 94q71 82 71 156q0 41 -25 62.5t-69 19.5l2 12q41 65 110 65q46 0 67.5 -27.5t21.5 -68.5q0 -51 -33 -103t-100 -125l-214 -226h-46z" />
    <glyph glyph-name="w" unicode="w" horiz-adv-x="761" 
d="M350 448l-52 32l6 20l182 44h14l27 -398l68 83q68 82 68 156q0 41 -25 62.5t-68 19.5l1 12q43 65 110 65q46 0 67.5 -27t21.5 -69q0 -50 -31.5 -100t-99.5 -128l-202 -226h-43l-25 249l-204 -249h-44l-43 454l-57 34l7 20l186 42h14l27 -389l110 136z" />
    <glyph glyph-name="x" unicode="x" horiz-adv-x="562" 
d="M157 154l48 87l-53 204l-76 38l6 22l189 40h15l47 -188l49 81q32 55 60 81t66 26q33 0 51.5 -20t18.5 -50q0 -59 -80 -89h-10q5 62 -34 62q-17 0 -31 -15t-36 -53l-43 -68l42 -166q6 -22 9 -31t9 -16.5t16 -7.5q30 0 86 59l19 -19q-56 -75 -100.5 -108t-88.5 -33
q-38 0 -58 24t-32 73l-28 105l-55 -97q-30 -54 -61 -79.5t-70 -25.5q-32 0 -52 20.5t-20 51.5q0 66 77 92h10q-3 -30 7 -48t30 -18t35 14t38 52z" />
    <glyph glyph-name="y" unicode="y" horiz-adv-x="522" 
d="M73 448l-58 34l7 20l182 42h14l83 -461l15 21q64 91 86.5 149.5t22.5 116.5q0 51 -28 75t-73 22l1 12q41 65 107 65q48 0 72 -29t24 -74q0 -62 -46.5 -146t-144.5 -222q-116 -163 -193 -226.5t-152 -63.5q-44 0 -73.5 22.5t-29.5 63.5q0 30 19.5 52.5t50.5 31.5h14
q0 -99 75 -99q61 0 130 73z" />
    <glyph glyph-name="z" unicode="z" horiz-adv-x="498" 
d="M355 399h-184q-22 0 -32.5 -6.5t-26.5 -27.5l-25 -34l-19 7l78 231h21q5 -39 25 -39h345v-19l-377 -337l89 -32q56 -18 91 -18q31 0 58 17t57 66l18 -9q-38 -120 -81.5 -166.5t-111.5 -46.5q-58 0 -141 44l-96 51l-32 -83q-44 -1 -44 31q0 24 24 47z" />
    <glyph glyph-name="braceleft" unicode="{" horiz-adv-x="361" 
d="M69 306l4 16q86 17 104 100l47 220q28 128 221 128l-5 -27q-90 -10 -108 -98l-46 -213q-11 -52 -44.5 -78t-93.5 -40q54 -13 76.5 -39.5t11.5 -78.5l-45 -212q-18 -88 67 -98l-6 -27q-97 0 -138.5 33.5t-28.5 94.5l46 219q18 83 -62 100z" />
    <glyph glyph-name="bar" unicode="|" horiz-adv-x="208" 
d="M250 770l-193 -911h-64l193 911h64z" />
    <glyph glyph-name="braceright" unicode="}" horiz-adv-x="367" 
d="M329 322l-4 -16q-87 -17 -104 -100l-46 -219q-28 -128 -222 -128l5 27q90 10 108 98l45 212q11 52 45 78.5t93 39.5q-53 14 -76 40t-12 78l46 213q18 88 -66 98l5 27q98 0 139.5 -33.5t28.5 -94.5l-47 -220q-18 -83 62 -100z" />
    <glyph glyph-name="asciitilde" unicode="~" horiz-adv-x="482" 
d="M423 388l30 -13q-23 -77 -55.5 -114t-81.5 -37q-31 0 -86.5 36.5t-82.5 36.5t-47 -17t-39 -50l-30 13q23 77 55.5 114t81.5 37q31 0 86.5 -36.5t82.5 -36.5t47 17t39 50z" />
    <glyph glyph-name="uni00A0" unicode="&#xa0;" horiz-adv-x="179" 
 />
    <glyph glyph-name="exclamdown" unicode="&#xa1;" horiz-adv-x="279" 
d="M-46 -106l199 476h47l-36 -476h-210zM292 516q0 -38 -26 -64.5t-62 -26.5q-37 0 -63 26.5t-26 64.5q0 37 26 63.5t63 26.5q36 0 62 -26.5t26 -63.5z" />
    <glyph glyph-name="cent" unicode="&#xa2;" horiz-adv-x="498" 
d="M186 -116l22 106q-85 2 -136 57t-51 141q0 136 88 245.5t221 123.5l22 104h36l-22 -102q63 -1 101.5 -26t38.5 -70q0 -59 -65 -75h-40q9 54 -2 89t-42 41l-97 -449q5 -1 14 -1q42 0 77.5 22.5t76.5 70.5l21 -16q-82 -139 -205 -153l-23 -108h-35zM170 198q0 -91 57 -120
l94 437q-64 -17 -107.5 -113t-43.5 -204z" />
    <glyph glyph-name="sterling" unicode="&#xa3;" horiz-adv-x="665" 
d="M91 349l9 40h106l22 84q56 239 281 239q74 0 121.5 -29.5t47.5 -78.5q0 -31 -17.5 -53.5t-46.5 -31.5h-84q24 50 24 95q0 65 -43 65q-29 0 -47.5 -29.5t-37.5 -91.5l-50 -169h146l-10 -40h-148l-18 -62q-11 -37 -24.5 -71t-21.5 -50l-8 -15q94 -41 173 -41q90 0 90 69
q0 33 -32 55l12 12q38 -12 64.5 -42.5t26.5 -73.5q0 -67 -44 -103.5t-115 -36.5q-43 0 -89 17.5t-67.5 31t-60.5 41.5q-26 -41 -69.5 -65.5t-90.5 -24.5q-54 0 -85 29t-31 73q0 47 32 76t78 29q36 0 71 -13l41 165h-105zM66 42q29 0 46 22.5t30 73.5q-29 21 -58 21
q-67 0 -67 -67q0 -22 13.5 -36t35.5 -14z" />
    <glyph glyph-name="currency" unicode="&#xa4;" horiz-adv-x="577" 
d="M101 544l32 28l62 -73q57 43 130 43q71 0 118 -45l82 75l26 -31l-83 -74q26 -41 26 -97q0 -85 -58 -151l64 -73l-32 -28l-63 73q-56 -43 -129 -43q-71 0 -118 45l-82 -75l-26 31l83 74q-26 41 -26 97q0 87 57 150zM281 195q69 0 115.5 50.5t46.5 123.5q0 56 -34.5 91.5
t-89.5 35.5q-69 0 -115.5 -51t-46.5 -124q0 -56 34.5 -91t89.5 -35z" />
    <glyph glyph-name="yen" unicode="&#xa5;" horiz-adv-x="658" 
d="M401 268l-3 -15h167l-9 -41h-167l-23 -108q-8 -39 6 -49.5t68 -16.5l-9 -38h-332l9 38q57 6 74 16.5t25 49.5l23 108h-161l9 41h160l3 11l-22 69h-125l9 42h103l-80 252q-6 19 -17 26t-34 11l9 38h305l-8 -38q-47 -2 -65 -12t-18 -33q0 -13 11 -51l75 -240l173 243
q32 45 32 62q0 30 -68 31l9 38h203l-8 -38q-46 -8 -67 -37l-181 -252h113l-9 -42h-134z" />
    <glyph glyph-name="brokenbar" unicode="&#xa6;" horiz-adv-x="208" 
d="M250 770l-80 -376h-64l80 376h64zM136 235l-79 -376h-64l79 376h64z" />
    <glyph glyph-name="section" unicode="&#xa7;" horiz-adv-x="518" 
d="M424 142q0 -85 -35 -162t-108.5 -129.5t-169.5 -52.5q-64 0 -99.5 27t-35.5 71q0 54 63 76h74q-12 -21 -12 -52q0 -37 15 -63t47 -26q31 0 48.5 28.5t17.5 79.5q0 41 -22 92.5t-48 95.5t-48 109.5t-22 131.5q0 85 35 162t108.5 129.5t169.5 52.5q63 0 99 -27t36 -71
q0 -54 -64 -76h-73q11 22 11 52q0 37 -15 63t-46 26q-32 0 -49 -28.5t-17 -79.5q0 -41 22 -92.5t48 -95.5t48 -109.5t22 -131.5zM131 368q0 -57 22 -119.5t48 -107.5t48 -100.5t22 -101.5q0 -41 -17 -67q55 39 91 112t36 158q0 57 -22 119.5t-48 107.5t-48 100.5t-22 101.5
q0 39 17 67q-55 -39 -91 -112t-36 -158z" />
    <glyph glyph-name="dieresis" unicode="&#xa8;" 
d="M147 603q-34 0 -54.5 21t-20.5 52q0 33 22.5 57t58.5 24q34 0 54.5 -20.5t20.5 -51.5q0 -34 -23 -58t-58 -24zM340 603q-34 0 -55 21t-21 52q0 33 22.5 57t58.5 24q34 0 54.5 -20.5t20.5 -51.5q0 -34 -22.5 -58t-57.5 -24z" />
    <glyph glyph-name="copyright" unicode="&#xa9;" horiz-adv-x="796" 
d="M396 -10q-147 0 -241.5 95.5t-94.5 239.5q0 162 110 274.5t271 112.5q147 0 241.5 -95.5t94.5 -239.5q0 -162 -110 -274.5t-271 -112.5zM397 141q-81 0 -130 47t-49 122q0 107 73.5 180.5t179.5 73.5q83 0 129 -43l-21 -98h-29q-3 107 -73 107q-62 0 -104.5 -73
t-42.5 -158q0 -55 19.5 -89t58.5 -34t67 27t57 86h33l-26 -109q-66 -39 -142 -39zM396 22q147 0 247.5 103t100.5 252q0 130 -85 216.5t-218 86.5q-147 0 -247 -103t-100 -252q0 -130 85 -216.5t217 -86.5z" />
    <glyph glyph-name="ordfeminine" unicode="&#xaa;" horiz-adv-x="450" 
d="M209 422q31 0 69.5 67.5t59.5 162.5q-11 29 -39 29q-42 0 -79 -71.5t-37 -141.5q0 -46 26 -46zM362 677l80 37h28l-25 -83l-49 -180q-5 -18 -5 -27t8 -9q24 0 56 43l16 -13q-64 -94 -132 -94q-25 0 -41 17t-16 43q0 31 16 77h-2q-62 -137 -146 -137q-37 0 -59 29t-22 78
q0 97 64.5 175.5t148.5 78.5q53 0 80 -35z" />
    <glyph glyph-name="guillemotleft" unicode="&#xab;" horiz-adv-x="459" 
d="M31 272l1 6l231 198h41l-142 -201l56 -201h-41zM209 272l1 6l231 198h41l-142 -201l56 -201h-41z" />
    <glyph glyph-name="registered" unicode="&#xae;" horiz-adv-x="555" 
d="M334 586h-10l-21 -99h12q25 0 43 15.5t18 42.5q0 18 -11 29.5t-31 11.5zM243 608h112q41 0 61 -18t20 -44q0 -31 -20.5 -48.5t-47.5 -24.5l29 -58q13 -26 35 -26l-4 -18h-60q-14 11 -26 36l-28 60h-16l-12 -55q-3 -13 1 -18t20 -5l-4 -18h-111l4 18q17 0 23.5 5t9.5 19
l32 148q3 15 -0.5 20t-21.5 6zM310 257q-94 0 -154 60.5t-60 151.5q0 102 70 172.5t172 70.5q94 0 154 -60.5t60 -151.5q0 -102 -70 -172.5t-172 -70.5zM310 286q91 0 151.5 61.5t60.5 152.5q0 80 -51 131.5t-133 51.5q-91 0 -151.5 -61.5t-60.5 -152.5q0 -80 51 -131.5
t133 -51.5z" />
    <glyph glyph-name="macron" unicode="&#xaf;" 
d="M103 624l16 77h277l-16 -77h-277z" />
    <glyph glyph-name="degree" unicode="&#xb0;" horiz-adv-x="278" 
d="M185 513q35 0 56.5 27t21.5 68q0 27 -15 44.5t-41 17.5q-35 0 -57 -27t-22 -67q0 -28 15.5 -45.5t41.5 -17.5zM182 472q-46 0 -75 29t-29 75q0 56 38 96t94 40q46 0 75 -29t29 -75q0 -56 -38 -96t-94 -40z" />
    <glyph glyph-name="plusminus" unicode="&#xb1;" horiz-adv-x="571" 
d="M321 606h62l-31 -144h191l-14 -62h-190l-30 -143h-62l30 143h-188l14 62h187zM34 139l13 63h440l-13 -63h-440z" />
    <glyph glyph-name="twosuperior" unicode="&#xb2;" horiz-adv-x="401" 
d="M167 391h109q30 0 46 8.5t41 38.5h22l-43 -134h-299l4 22q141 110 185.5 163t44.5 97q0 25 -14.5 39.5t-41.5 14.5q-54 0 -96 -51l-18 18q25 44 68.5 73t99.5 29q50 0 81.5 -25.5t31.5 -72.5q0 -17 -5.5 -33t-12 -29t-22 -28.5t-26 -25t-34 -26t-36 -24.5t-42.5 -27
t-43 -27z" />
    <glyph glyph-name="threesuperior" unicode="&#xb3;" horiz-adv-x="381" 
d="M261 532q46 -5 74.5 -30.5t28.5 -66.5q0 -63 -53 -98.5t-122 -35.5q-63 0 -99.5 23.5t-36.5 58.5q0 38 38 52h62q-9 -21 -9 -46q0 -26 12 -43.5t35 -17.5q30 0 49 26t19 66q0 35 -15.5 54.5t-44.5 19.5q-6 0 -26 -2l-4 20q54 20 80.5 40.5t26.5 50.5q0 19 -12 31t-33 12
q-49 0 -91 -46l-20 15q25 44 67 70.5t93 26.5q46 0 73.5 -20.5t27.5 -57.5q0 -41 -35 -67t-85 -35z" />
    <glyph glyph-name="acute" unicode="&#xb4;" 
d="M213 764h160v-7l-203 -158h-44z" />
    <glyph glyph-name="mu" unicode="&#xb5;" horiz-adv-x="636" 
d="M173 -5l-46 -182l-159 -10l159 638l-54 37l5 23l209 43h26l-98 -389q-7 -28 -7 -39q0 -23 20 -23q39 0 100.5 93.5t90.5 212.5l31 127l164 9l-99 -398q-9 -36 -9 -42q0 -15 14 -15q26 0 83 72l22 -18q-55 -77 -96 -110.5t-91 -33.5q-43 0 -67 23.5t-24 64.5q0 38 31 146
q-99 -204 -205 -229z" />
    <glyph glyph-name="paragraph" unicode="&#xb6;" horiz-adv-x="616" 
d="M219 -197l86 403q-101 0 -163 57.5t-62 147.5q0 123 92 207t238 84h281l-8 -38q-59 0 -84 -15.5t-35 -64.5l-166 -781h-47l182 860h-84l-182 -860h-48zM312 243l90 423q-77 -6 -126 -85t-49 -175q0 -67 20.5 -113.5t64.5 -49.5z" />
    <glyph glyph-name="periodcentered" unicode="&#xb7;" horiz-adv-x="248" 
d="M30 304q0 40 27.5 67t66.5 27t66.5 -27t27.5 -67q0 -41 -27 -67.5t-67 -26.5t-67 26.5t-27 67.5z" />
    <glyph glyph-name="cedilla" unicode="&#xb8;" 
d="M157 -228l-8 32q55 0 87 15t32 37q0 18 -19 25.5t-60 9.5l59 117h34l-26 -50q94 -7 94 -76q0 -53 -54 -81.5t-139 -28.5z" />
    <glyph glyph-name="onesuperior" unicode="&#xb9;" horiz-adv-x="329" 
d="M290 712h29l-68 -323q-7 -31 4 -40t56 -11l-7 -31h-254l7 31q45 3 59 10.5t20 35.5l47 220h-73l6 27l26 6q56 11 85.5 25.5t62.5 49.5z" />
    <glyph glyph-name="ordmasculine" unicode="&#xba;" horiz-adv-x="386" 
d="M182 443q0 -64 31 -64q36 0 67.5 83.5t31.5 156.5q0 64 -31 64q-36 0 -67.5 -83.5t-31.5 -156.5zM420 579q0 -88 -62.5 -158.5t-148.5 -70.5q-60 0 -97.5 35.5t-37.5 97.5q0 88 62.5 158.5t148.5 70.5q60 0 97.5 -35.5t37.5 -97.5z" />
    <glyph glyph-name="guillemotright" unicode="&#xbb;" horiz-adv-x="459" 
d="M437 278l-1 -6l-232 -198h-41l142 201l-56 201h42zM259 278l-1 -6l-232 -198h-41l142 201l-56 201h42z" />
    <glyph glyph-name="onequarter" unicode="&#xbc;" horiz-adv-x="791" 
d="M419 141h136l37 170zM691 0h-221l6 31q36 2 47.5 9t17.5 32l7 33h-189l6 28l267 266h87l-55 -258h78l-7 -36h-79l-7 -33q-5 -25 4 -32t44 -9zM96 -10l603 722h52l-603 -722h-52zM290 712h29l-68 -323q-7 -31 4 -40t56 -11l-7 -31h-254l7 31q45 3 59 10.5t20 35.5l47 220
h-73l6 27l26 6q56 11 85.5 25.5t62.5 49.5z" />
    <glyph glyph-name="onehalf" unicode="&#xbd;" horiz-adv-x="803" 
d="M96 -10l603 722h52l-603 -722h-52zM290 712h29l-68 -323q-7 -31 4 -40t56 -11l-7 -31h-254l7 31q45 3 59 10.5t20 35.5l47 220h-73l6 27l26 6q56 11 85.5 25.5t62.5 49.5zM539 87h109q30 0 46 8.5t41 38.5h22l-43 -134h-299l4 22q141 110 185.5 163t44.5 97
q0 25 -14.5 39.5t-41.5 14.5q-53 0 -97 -51l-17 18q25 44 68 73t100 29q50 0 81.5 -25.5t31.5 -72.5q0 -17 -5.5 -33t-12 -29t-22 -28.5t-26 -25t-34 -26t-36 -24.5t-42.5 -27t-43 -27z" />
    <glyph glyph-name="threequarters" unicode="&#xbe;" horiz-adv-x="795" 
d="M424 141h136l36 170zM695 0h-221l6 31q37 2 48.5 9t16.5 32l7 33h-189l6 28l267 266h87l-55 -258h78l-7 -36h-78l-8 -33q-5 -25 4 -32t44 -9zM101 -10l602 722h52l-603 -722h-51zM261 532q46 -5 74.5 -30.5t28.5 -66.5q0 -63 -53 -98.5t-122 -35.5q-63 0 -99.5 23.5
t-36.5 58.5q0 38 38 52h62q-9 -21 -9 -46q0 -26 12 -43.5t35 -17.5q30 0 49 26t19 66q0 35 -15.5 54.5t-44.5 19.5q-6 0 -26 -2l-4 20q54 20 80.5 40.5t26.5 50.5q0 19 -12 31t-33 12q-49 0 -91 -46l-20 15q25 44 67 70.5t93 26.5q46 0 73.5 -20.5t27.5 -57.5q0 -41 -35 -67
t-85 -35z" />
    <glyph glyph-name="questiondown" unicode="&#xbf;" horiz-adv-x="455" 
d="M213 130q-55 -31 -82.5 -60.5t-27.5 -75.5q0 -35 18.5 -55t52.5 -20q39 0 60.5 29.5t21.5 76.5q0 24 -5 47h109q26 -23 26 -58q0 -60 -58 -95t-146 -35q-98 0 -152 44.5t-54 119.5q0 66 38 108.5t111 78.5q62 31 91.5 56t29.5 61q0 9 -4 25h25q61 -32 61 -100
q0 -45 -27 -78.5t-88 -68.5zM385 516q0 -38 -26 -64.5t-62 -26.5q-37 0 -63 26.5t-26 64.5q0 37 26 63.5t63 26.5q36 0 62 -26.5t26 -63.5z" />
    <glyph glyph-name="Agrave" unicode="&#xc0;" horiz-adv-x="732" 
d="M452 122l-19 103h-262l-61 -103q-18 -32 -18 -48q0 -32 77 -36l-9 -38h-212l8 38q47 5 66 37l332 552l-15 79h175l119 -631q3 -18 15.5 -26t35.5 -11l-8 -38h-322l8 38q46 2 69.5 12.5t23.5 41.5q0 17 -3 30zM371 561l-172 -288h225zM279 894h151l31 -149h-42l-140 141v8
z" />
    <glyph glyph-name="Aacute" unicode="&#xc1;" horiz-adv-x="732" 
d="M452 122l-19 103h-262l-61 -103q-18 -32 -18 -48q0 -32 77 -36l-9 -38h-212l8 38q47 5 66 37l332 552l-15 79h175l119 -631q3 -18 15.5 -26t35.5 -11l-8 -38h-322l8 38q46 2 69.5 12.5t23.5 41.5q0 17 -3 30zM371 561l-172 -288h225zM490 894h162v-8l-196 -141h-44z" />
    <glyph glyph-name="Acircumflex" unicode="&#xc2;" horiz-adv-x="732" 
d="M452 122l-19 103h-262l-61 -103q-18 -32 -18 -48q0 -32 77 -36l-9 -38h-212l8 38q47 5 66 37l332 552l-15 79h175l119 -631q3 -18 15.5 -26t35.5 -11l-8 -38h-322l8 38q46 2 69.5 12.5t23.5 41.5q0 17 -3 30zM371 561l-172 -288h225zM524 900l79 -155h-48l-100 76
l-139 -76h-53l152 155h109z" />
    <glyph glyph-name="Atilde" unicode="&#xc3;" horiz-adv-x="732" 
d="M452 122l-19 103h-262l-61 -103q-18 -32 -18 -48q0 -32 77 -36l-9 -38h-212l8 38q47 5 66 37l332 552l-15 79h175l119 -631q3 -18 15.5 -26t35.5 -11l-8 -38h-322l8 38q46 2 69.5 12.5t23.5 41.5q0 17 -3 30zM371 561l-172 -288h225zM508 746q-32 0 -70.5 29.5
t-58.5 29.5q-34 0 -72 -56l-30 17q36 70 63 99.5t64 29.5q32 0 70.5 -29.5t58.5 -29.5q34 0 71 56l31 -17q-36 -70 -63 -99.5t-64 -29.5z" />
    <glyph glyph-name="Adieresis" unicode="&#xc4;" horiz-adv-x="732" 
d="M452 122l-19 103h-262l-61 -103q-18 -32 -18 -48q0 -32 77 -36l-9 -38h-212l8 38q47 5 66 37l332 552l-15 79h175l119 -631q3 -18 15.5 -26t35.5 -11l-8 -38h-322l8 38q46 2 69.5 12.5t23.5 41.5q0 17 -3 30zM371 561l-172 -288h225zM552 745q-34 0 -54.5 21t-20.5 52
q0 34 22.5 58t58.5 24q34 0 54.5 -21t20.5 -52q0 -34 -22.5 -58t-58.5 -24zM352 745q-34 0 -54.5 21t-20.5 52q0 34 22.5 58t58.5 24q34 0 54.5 -21t20.5 -52q0 -34 -23 -58t-58 -24z" />
    <glyph glyph-name="Aring" unicode="&#xc5;" horiz-adv-x="732" 
d="M452 122l-19 103h-262l-61 -103q-18 -32 -18 -48q0 -32 77 -36l-9 -38h-212l8 38q47 5 66 37l332 552l-15 79h175l119 -631q3 -18 15.5 -26t35.5 -11l-8 -38h-322l8 38q46 2 69.5 12.5t23.5 41.5q0 17 -3 30zM371 561l-172 -288h225zM357 818q0 45 29.5 75t74.5 30
q42 0 68 -25.5t26 -64.5q0 -44 -29.5 -74t-74.5 -30q-42 0 -68 25t-26 64zM507 832q0 21 -12.5 34t-34.5 13q-26 0 -40.5 -17t-14.5 -42q0 -22 12.5 -34.5t34.5 -12.5q26 0 40.5 17t14.5 42z" />
    <glyph glyph-name="AE" unicode="&#xc6;" horiz-adv-x="1022" 
d="M916 0h-565l8 38q53 6 68 17t23 52l30 141h-246l-105 -126q-23 -27 -23 -48q0 -18 18.5 -26t60.5 -10l-8 -38h-229l8 38q39 4 72 42l461 555q-20 18 -95 29l9 38h654l-35 -187h-32q-18 87 -41 115.5t-85 28.5h-127l-57 -272h108q33 0 51.5 20t36.5 72h39l-50 -233h-39
q4 51 -5.5 71t-42.5 20h-109l-48 -226q-9 -39 8 -53.5t63 -14.5h45q60 0 98 31.5t117 134.5h40zM566 647l-292 -351h217z" />
    <glyph glyph-name="Ccedilla" unicode="&#xc7;" horiz-adv-x="674" 
d="M212 -228l-8 32q55 0 87 15t32 37q0 18 -19 25.5t-60 9.5l51 102q-121 13 -188 89t-67 195q0 117 56 216.5t157 159t225 59.5q138 0 216 -61l-32 -165h-41q-5 183 -137 183q-64 0 -117 -42t-85 -107t-49.5 -136.5t-17.5 -137.5q0 -210 134 -210q139 0 238 210h49
l-58 -196q-106 -60 -237 -60h-14l-16 -32q94 -7 94 -76q0 -53 -54 -81.5t-139 -28.5z" />
    <glyph glyph-name="Egrave" unicode="&#xc8;" horiz-adv-x="651" 
d="M281 894h151l31 -149h-42l-140 141v8zM544 0h-569l9 38q52 6 67 17t23 52l105 488q9 41 -2 52.5t-60 16.5l8 38h561l-36 -187h-31q-19 87 -42.5 115.5t-84.5 28.5h-130l-58 -272h113q33 0 51 20.5t36 71.5h39l-49 -233h-40q4 52 -5.5 71.5t-42.5 19.5h-113l-48 -226
q-9 -39 8 -53.5t63 -14.5h50q60 0 97.5 31.5t116.5 134.5h40z" />
    <glyph glyph-name="Eacute" unicode="&#xc9;" horiz-adv-x="651" 
d="M493 894h162v-8l-196 -141h-44zM544 0h-569l9 38q52 6 67 17t23 52l105 488q9 41 -2 52.5t-60 16.5l8 38h561l-36 -187h-31q-19 87 -42.5 115.5t-84.5 28.5h-130l-58 -272h113q33 0 51 20.5t36 71.5h39l-49 -233h-40q4 52 -5.5 71.5t-42.5 19.5h-113l-48 -226
q-9 -39 8 -53.5t63 -14.5h50q60 0 97.5 31.5t116.5 134.5h40z" />
    <glyph glyph-name="Ecircumflex" unicode="&#xca;" horiz-adv-x="651" 
d="M544 0h-569l9 38q52 6 67 17t23 52l105 488q9 41 -2 52.5t-60 16.5l8 38h561l-36 -187h-31q-19 87 -42.5 115.5t-84.5 28.5h-130l-58 -272h113q33 0 51 20.5t36 71.5h39l-49 -233h-40q4 52 -5.5 71.5t-42.5 19.5h-113l-48 -226q-9 -39 8 -53.5t63 -14.5h50
q60 0 97.5 31.5t116.5 134.5h40zM527 900l79 -155h-48l-100 76l-139 -76h-53l152 155h109z" />
    <glyph glyph-name="Edieresis" unicode="&#xcb;" horiz-adv-x="651" 
d="M355 745q-34 0 -54.5 21t-20.5 52q0 34 22.5 58t58.5 24q34 0 54.5 -21t20.5 -52q0 -34 -23 -58t-58 -24zM555 745q-34 0 -54.5 21t-20.5 52q0 34 22.5 58t58.5 24q34 0 54.5 -21t20.5 -52q0 -34 -22.5 -58t-58.5 -24zM544 0h-569l9 38q52 6 67 17t23 52l105 488
q9 41 -2 52.5t-60 16.5l8 38h561l-36 -187h-31q-19 87 -42.5 115.5t-84.5 28.5h-130l-58 -272h113q33 0 51 20.5t36 71.5h39l-49 -233h-40q4 52 -5.5 71.5t-42.5 19.5h-113l-48 -226q-9 -39 8 -53.5t63 -14.5h50q60 0 97.5 31.5t116.5 134.5h40z" />
    <glyph glyph-name="Igrave" unicode="&#xcc;" horiz-adv-x="379" 
d="M74 107l105 488q9 41 -2 52.5t-60 16.5l8 38h323l-8 -38q-53 -6 -68 -17.5t-23 -51.5l-104 -488q-9 -41 2 -52.5t60 -16.5l-9 -38h-323l9 38q52 6 67 17t23 52zM134 894h151l31 -149h-42l-140 141v8z" />
    <glyph glyph-name="Iacute" unicode="&#xcd;" horiz-adv-x="379" 
d="M74 107l105 488q9 41 -2 52.5t-60 16.5l8 38h323l-8 -38q-53 -6 -68 -17.5t-23 -51.5l-104 -488q-9 -41 2 -52.5t60 -16.5l-9 -38h-323l9 38q52 6 67 17t23 52zM351 894h162v-8l-196 -141h-44z" />
    <glyph glyph-name="Icircumflex" unicode="&#xce;" horiz-adv-x="379" 
d="M74 107l105 488q9 41 -2 52.5t-60 16.5l8 38h323l-8 -38q-53 -6 -68 -17.5t-23 -51.5l-104 -488q-9 -41 2 -52.5t60 -16.5l-9 -38h-323l9 38q52 6 67 17t23 52zM380 900l79 -155h-48l-100 76l-139 -76h-53l152 155h109z" />
    <glyph glyph-name="Idieresis" unicode="&#xcf;" horiz-adv-x="379" 
d="M74 107l105 488q9 41 -2 52.5t-60 16.5l8 38h323l-8 -38q-53 -6 -68 -17.5t-23 -51.5l-104 -488q-9 -41 2 -52.5t60 -16.5l-9 -38h-323l9 38q52 6 67 17t23 52zM212 745q-34 0 -54.5 21t-20.5 52q0 34 22.5 58t58.5 24q34 0 54.5 -21t20.5 -52q0 -34 -23 -58t-58 -24z
M412 745q-34 0 -54.5 21t-20.5 52q0 34 22.5 58t58.5 24q34 0 54.5 -21t20.5 -52q0 -34 -22.5 -58t-58.5 -24z" />
    <glyph glyph-name="Eth" unicode="&#xd0;" horiz-adv-x="757" 
d="M50 330l12 55h72l45 210q9 41 -2 52.5t-60 16.5l8 38h295q151 0 243 -74.5t92 -208.5q0 -187 -131 -303t-326 -116h-323l9 38q52 6 67 17t23 52l48 223h-72zM300 43h9q74 0 137 57.5t99 149t36 192.5q0 108 -44.5 162.5t-142.5 54.5h-32l-59 -274h126l-12 -55h-125
l-46 -216q-9 -43 3 -57t51 -14z" />
    <glyph glyph-name="Ntilde" unicode="&#xd1;" horiz-adv-x="748" 
d="M553 746q-32 0 -70.5 29.5t-58.5 29.5q-34 0 -72 -56l-30 17q36 70 63 99.5t64 29.5q32 0 70.5 -29.5t58.5 -29.5q34 0 71 56l31 -17q-36 -70 -63 -99.5t-64 -29.5zM594 247l74 348q8 39 -11 52t-80 17l9 38h240l-8 -38q-53 -6 -68 -17t-23 -52l-126 -597h-57l-317 544
l-92 -435q-8 -39 10.5 -52t79.5 -17l-9 -38h-240l8 38q53 6 68 17t23 52l106 497q-18 34 -30 45.5t-39 14.5l9 38h217z" />
    <glyph glyph-name="Ograve" unicode="&#xd2;" horiz-adv-x="741" 
d="M319 894h151l31 -149h-42l-140 141v8zM455 712q133 0 209 -79t76 -199q0 -111 -50 -211.5t-147 -166.5t-219 -66q-132 0 -208 79t-76 199q0 82 29.5 161.5t82 142.5t132 101.5t171.5 38.5zM452 667q-54 0 -100 -47t-74.5 -117t-44.5 -145.5t-16 -138.5q0 -184 111 -184
q54 0 100 47t74.5 117t44.5 145.5t16 138.5q0 184 -111 184z" />
    <glyph glyph-name="Oacute" unicode="&#xd3;" horiz-adv-x="741" 
d="M536 894h162v-8l-196 -141h-44zM455 712q133 0 209 -79t76 -199q0 -111 -50 -211.5t-147 -166.5t-219 -66q-132 0 -208 79t-76 199q0 82 29.5 161.5t82 142.5t132 101.5t171.5 38.5zM452 667q-54 0 -100 -47t-74.5 -117t-44.5 -145.5t-16 -138.5q0 -184 111 -184
q54 0 100 47t74.5 117t44.5 145.5t16 138.5q0 184 -111 184z" />
    <glyph glyph-name="Ocircumflex" unicode="&#xd4;" horiz-adv-x="741" 
d="M455 712q133 0 209 -79t76 -199q0 -111 -50 -211.5t-147 -166.5t-219 -66q-132 0 -208 79t-76 199q0 82 29.5 161.5t82 142.5t132 101.5t171.5 38.5zM452 667q-54 0 -100 -47t-74.5 -117t-44.5 -145.5t-16 -138.5q0 -184 111 -184q54 0 100 47t74.5 117t44.5 145.5
t16 138.5q0 184 -111 184zM565 900l79 -155h-48l-100 76l-139 -76h-53l152 155h109z" />
    <glyph glyph-name="Otilde" unicode="&#xd5;" horiz-adv-x="741" 
d="M549 746q-32 0 -70.5 29.5t-58.5 29.5q-34 0 -72 -56l-30 17q36 70 63 99.5t64 29.5q32 0 70.5 -29.5t58.5 -29.5q34 0 71 56l31 -17q-36 -70 -63 -99.5t-64 -29.5zM455 712q133 0 209 -79t76 -199q0 -111 -50 -211.5t-147 -166.5t-219 -66q-132 0 -208 79t-76 199
q0 82 29.5 161.5t82 142.5t132 101.5t171.5 38.5zM452 667q-54 0 -100 -47t-74.5 -117t-44.5 -145.5t-16 -138.5q0 -184 111 -184q54 0 100 47t74.5 117t44.5 145.5t16 138.5q0 184 -111 184z" />
    <glyph glyph-name="Odieresis" unicode="&#xd6;" horiz-adv-x="741" 
d="M393 745q-34 0 -54.5 21t-20.5 52q0 34 22.5 58t58.5 24q34 0 54.5 -21t20.5 -52q0 -34 -23 -58t-58 -24zM593 745q-34 0 -54.5 21t-20.5 52q0 34 22.5 58t58.5 24q34 0 54.5 -21t20.5 -52q0 -34 -22.5 -58t-58.5 -24zM455 712q133 0 209 -79t76 -199q0 -111 -50 -211.5
t-147 -166.5t-219 -66q-132 0 -208 79t-76 199q0 82 29.5 161.5t82 142.5t132 101.5t171.5 38.5zM452 667q-54 0 -100 -47t-74.5 -117t-44.5 -145.5t-16 -138.5q0 -184 111 -184q54 0 100 47t74.5 117t44.5 145.5t16 138.5q0 184 -111 184z" />
    <glyph glyph-name="multiply" unicode="&#xd7;" horiz-adv-x="495" 
d="M219 366l-108 138l53 44l107 -139l169 139l36 -45l-169 -138l110 -138l-54 -43l-109 138l-167 -139l-36 44z" />
    <glyph glyph-name="Oslash" unicode="&#xd8;" horiz-adv-x="741" 
d="M709 699l-51 -61q82 -77 82 -204q0 -111 -50 -211.5t-147 -166.5t-219 -66q-99 0 -171 48l-59 -71l-33 26l60 71q-81 76 -81 204q0 82 29.5 161.5t82 142.5t132 101.5t171.5 38.5q98 0 170 -48l51 61zM565 483q0 16 -2 42l-338 -402q24 -88 100 -88q54 0 101 47t76 117
t46 145.5t17 138.5zM454 667q-54 0 -101 -47t-76 -117t-46 -145.5t-17 -138.5q0 -29 1 -42l339 403q-25 87 -100 87z" />
    <glyph glyph-name="Ugrave" unicode="&#xd9;" horiz-adv-x="741" 
d="M361 894h151l31 -149h-42l-140 141v8zM597 263l70 332q9 40 -4.5 52t-71.5 17l9 38h226l-8 -38q-53 -6 -68 -17.5t-23 -51.5l-75 -351q-27 -127 -105.5 -190.5t-199.5 -63.5q-140 0 -210 79t-41 212l67 314q9 41 -2 52.5t-60 16.5l8 38h323l-8 -38q-53 -6 -68 -17.5
t-23 -51.5l-69 -322q-20 -91 14.5 -149t118.5 -58q81 0 129 46t71 151z" />
    <glyph glyph-name="Uacute" unicode="&#xda;" horiz-adv-x="741" 
d="M570 894h162v-8l-196 -141h-44zM597 263l70 332q9 40 -4.5 52t-71.5 17l9 38h226l-8 -38q-53 -6 -68 -17.5t-23 -51.5l-75 -351q-27 -127 -105.5 -190.5t-199.5 -63.5q-140 0 -210 79t-41 212l67 314q9 41 -2 52.5t-60 16.5l8 38h323l-8 -38q-53 -6 -68 -17.5t-23 -51.5
l-69 -322q-20 -91 14.5 -149t118.5 -58q81 0 129 46t71 151z" />
    <glyph glyph-name="Ucircumflex" unicode="&#xdb;" horiz-adv-x="741" 
d="M597 263l70 332q9 40 -4.5 52t-71.5 17l9 38h226l-8 -38q-53 -6 -68 -17.5t-23 -51.5l-75 -351q-27 -127 -105.5 -190.5t-199.5 -63.5q-140 0 -210 79t-41 212l67 314q9 41 -2 52.5t-60 16.5l8 38h323l-8 -38q-53 -6 -68 -17.5t-23 -51.5l-69 -322q-20 -91 14.5 -149
t118.5 -58q81 0 129 46t71 151zM606 900l79 -155h-48l-100 76l-139 -76h-53l152 155h109z" />
    <glyph glyph-name="Udieresis" unicode="&#xdc;" horiz-adv-x="741" 
d="M434 745q-34 0 -54.5 21t-20.5 52q0 34 22.5 58t58.5 24q34 0 54.5 -21t20.5 -52q0 -34 -23 -58t-58 -24zM634 745q-34 0 -54.5 21t-20.5 52q0 34 22.5 58t58.5 24q34 0 54.5 -21t20.5 -52q0 -34 -22.5 -58t-58.5 -24zM597 263l70 332q9 40 -4.5 52t-71.5 17l9 38h226
l-8 -38q-53 -6 -68 -17.5t-23 -51.5l-75 -351q-27 -127 -105.5 -190.5t-199.5 -63.5q-140 0 -210 79t-41 212l67 314q9 41 -2 52.5t-60 16.5l8 38h323l-8 -38q-53 -6 -68 -17.5t-23 -51.5l-69 -322q-20 -91 14.5 -149t118.5 -58q81 0 129 46t71 151z" />
    <glyph glyph-name="Yacute" unicode="&#xdd;" horiz-adv-x="675" 
d="M431 268l-35 -164q-9 -39 5 -49.5t68 -16.5l-8 -38h-338l8 38q57 6 74 16.5t26 49.5l34 160l-123 363q-6 19 -16.5 26t-33.5 11l8 38h312l-8 -38q-47 -2 -65.5 -12t-18.5 -33q0 -15 12 -51l83 -241l179 244q32 45 32 62q0 30 -68 31l8 38h204l-9 -38q-44 -8 -66 -37z
M547 894h162v-8l-196 -141h-44z" />
    <glyph glyph-name="Thorn" unicode="&#xde;" horiz-adv-x="665" 
d="M334 528l-72 -336h34q84 0 140.5 52t56.5 149q0 63 -33 99t-95 36h-31zM349 595l-5 -24l74 1q113 0 177.5 -48.5t64.5 -130.5q0 -121 -94 -184.5t-246 -63.5h-68l-7 -33q-9 -40 12.5 -54.5t91.5 -18.5l-8 -39h-366l9 38q52 6 67 17t23 52l105 488q9 41 -2 52.5t-60 16.5
l8 38h323l-8 -38q-52 -6 -67 -17t-24 -52z" />
    <glyph glyph-name="germandbls" unicode="&#xdf;" horiz-adv-x="669" 
d="M454 29q60 0 60 57q0 27 -28 62.5t-61 65t-61 71.5t-28 80q0 19 6.5 37t12 28.5t25 30t25 24t32.5 27.5q63 50 63 141q0 39 -21 65.5t-61 26.5q-80 0 -109 -138l-89 -410q-47 -220 -118 -317t-173 -97q-53 0 -87 21t-34 56q0 32 21 51t52 23h26q-2 -115 40 -115
q25 0 40 42t40 173l86 438h-73l8 35l77 19q29 112 105 184.5t190 72.5q84 0 138.5 -37.5t54.5 -95.5q0 -48 -28 -81t-84 -63q-25 -13 -37 -25t-12 -31q0 -16 19 -40t46 -50t53.5 -54.5t45.5 -64t19 -68.5q0 -82 -62 -132.5t-151 -50.5q-78 0 -127.5 32t-49.5 83q0 58 65 81
h7q15 -72 50.5 -114.5t86.5 -42.5z" />
    <glyph glyph-name="agrave" unicode="&#xe0;" horiz-adv-x="626" 
d="M216 99q45 0 107 102t104 259q-14 44 -57 44q-49 0 -95 -53.5t-72.5 -131.5t-26.5 -151q0 -69 40 -69zM331 78q0 45 31 138q-112 -226 -228 -226q-55 0 -86 41.5t-31 114.5q0 97 44.5 188.5t123 150.5t167.5 59q72 0 118 -48l103 51h33l-38 -128l-69 -282q-8 -38 -8 -42
q0 -15 14 -15q24 0 83 72l22 -18q-55 -77 -96.5 -110.5t-91.5 -33.5q-43 0 -67 23.5t-24 64.5zM265 764h149l37 -165h-42l-144 157v8z" />
    <glyph glyph-name="aacute" unicode="&#xe1;" horiz-adv-x="626" 
d="M216 99q45 0 107 102t104 259q-14 44 -57 44q-49 0 -95 -53.5t-72.5 -131.5t-26.5 -151q0 -69 40 -69zM331 78q0 45 31 138q-112 -226 -228 -226q-55 0 -86 41.5t-31 114.5q0 97 44.5 188.5t123 150.5t167.5 59q72 0 118 -48l103 51h33l-38 -128l-69 -282q-8 -38 -8 -42
q0 -15 14 -15q24 0 83 72l22 -18q-55 -77 -96.5 -110.5t-91.5 -33.5q-43 0 -67 23.5t-24 64.5zM467 764h160v-7l-203 -158h-44z" />
    <glyph glyph-name="acircumflex" unicode="&#xe2;" horiz-adv-x="626" 
d="M216 99q45 0 107 102t104 259q-14 44 -57 44q-49 0 -95 -53.5t-72.5 -131.5t-26.5 -151q0 -69 40 -69zM331 78q0 45 31 138q-112 -226 -228 -226q-55 0 -86 41.5t-31 114.5q0 97 44.5 188.5t123 150.5t167.5 59q72 0 118 -48l103 51h33l-38 -128l-69 -282q-8 -38 -8 -42
q0 -15 14 -15q24 0 83 72l22 -18q-55 -77 -96.5 -110.5t-91.5 -33.5q-43 0 -67 23.5t-24 64.5zM497 766l79 -171h-48l-100 91l-139 -91h-53l152 171h109z" />
    <glyph glyph-name="atilde" unicode="&#xe3;" horiz-adv-x="626" 
d="M216 99q45 0 107 102t104 259q-14 44 -57 44q-49 0 -95 -53.5t-72.5 -131.5t-26.5 -151q0 -69 40 -69zM331 78q0 45 31 138q-112 -226 -228 -226q-55 0 -86 41.5t-31 114.5q0 97 44.5 188.5t123 150.5t167.5 59q72 0 118 -48l103 51h33l-38 -128l-69 -282q-8 -38 -8 -42
q0 -15 14 -15q24 0 83 72l22 -18q-55 -77 -96.5 -110.5t-91.5 -33.5q-43 0 -67 23.5t-24 64.5zM479 603q-32 0 -70.5 29t-58.5 29q-34 0 -72 -56l-30 18q36 70 63 99.5t64 29.5q32 0 70.5 -29.5t58.5 -29.5q34 0 71 56l31 -17q-35 -70 -62.5 -99.5t-64.5 -29.5z" />
    <glyph glyph-name="adieresis" unicode="&#xe4;" horiz-adv-x="626" 
d="M216 99q45 0 107 102t104 259q-14 44 -57 44q-49 0 -95 -53.5t-72.5 -131.5t-26.5 -151q0 -69 40 -69zM331 78q0 45 31 138q-112 -226 -228 -226q-55 0 -86 41.5t-31 114.5q0 97 44.5 188.5t123 150.5t167.5 59q72 0 118 -48l103 51h33l-38 -128l-69 -282q-8 -38 -8 -42
q0 -15 14 -15q24 0 83 72l22 -18q-55 -77 -96.5 -110.5t-91.5 -33.5q-43 0 -67 23.5t-24 64.5zM322 603q-34 0 -54.5 21t-20.5 52q0 33 22.5 57t58.5 24q34 0 54.5 -20.5t20.5 -51.5q0 -34 -23 -58t-58 -24zM515 603q-34 0 -55 21t-21 52q0 33 22.5 57t58.5 24
q34 0 54.5 -20.5t20.5 -51.5q0 -34 -22.5 -58t-57.5 -24z" />
    <glyph glyph-name="aring" unicode="&#xe5;" horiz-adv-x="626" 
d="M216 99q45 0 107 102t104 259q-14 44 -57 44q-49 0 -95 -53.5t-72.5 -131.5t-26.5 -151q0 -69 40 -69zM331 78q0 45 31 138q-112 -226 -228 -226q-55 0 -86 41.5t-31 114.5q0 97 44.5 188.5t123 150.5t167.5 59q72 0 118 -48l103 51h33l-38 -128l-69 -282q-8 -38 -8 -42
q0 -15 14 -15q24 0 83 72l22 -18q-55 -77 -96.5 -110.5t-91.5 -33.5q-43 0 -67 23.5t-24 64.5zM471 678q0 21 -12.5 34t-34.5 13q-26 0 -40.5 -17t-14.5 -42q0 -22 12.5 -34.5t34.5 -12.5q26 0 40.5 17t14.5 42zM321 664q0 45 29.5 75t74.5 30q42 0 68 -25.5t26 -64.5
q0 -44 -29.5 -74t-74.5 -30q-42 0 -68 25t-26 64z" />
    <glyph glyph-name="ae" unicode="&#xe6;" horiz-adv-x="798" 
d="M362 544q83 0 131 -55q79 55 170 55q69 0 105.5 -31t36.5 -79q0 -43 -23.5 -75.5t-68.5 -54.5t-96.5 -36.5t-122.5 -26.5q-1 -8 -1 -25q0 -66 27.5 -101.5t77.5 -35.5q72 0 146 86l21 -19q-103 -156 -247 -156q-77 0 -127 48t-55 129q-99 -177 -202 -177q-55 0 -86 41.5
t-31 114.5q0 97 45 188.5t125.5 150.5t174.5 59zM216 99q26 0 58 34t65 96q16 129 109 221q-26 56 -78 56q-49 0 -95 -54t-72.5 -132.5t-26.5 -151.5q0 -69 40 -69zM646 506q-49 0 -91.5 -72.5t-56.5 -161.5q188 45 188 183q0 51 -40 51z" />
    <glyph glyph-name="ccedilla" unicode="&#xe7;" horiz-adv-x="461" 
d="M64 -228l-8 32q55 0 87 15t32 37q0 18 -19 25.5t-60 9.5l52 104q-60 13 -94 62.5t-34 122.5q0 89 42.5 173t118.5 137.5t164 53.5q60 0 95.5 -24t35.5 -70q0 -62 -67 -79h-40q13 136 -44 136q-37 0 -71.5 -48t-55 -118t-20.5 -135q0 -130 86 -130q34 0 64.5 19.5
t68.5 64.5l21 -20q-91 -150 -224 -150q-10 0 -14 1l-17 -33q94 -7 94 -76q0 -53 -54 -81.5t-139 -28.5z" />
    <glyph glyph-name="egrave" unicode="&#xe8;" horiz-adv-x="483" 
d="M489 434q0 -43 -23.5 -75.5t-68.5 -54.5t-96.5 -36.5t-122.5 -26.5q-1 -8 -1 -25q0 -66 27.5 -101.5t77.5 -35.5q72 0 146 86l21 -19q-103 -156 -247 -156q-82 0 -132 53.5t-50 142.5t42.5 171.5t119 134.5t165.5 52q69 0 105.5 -31t36.5 -79zM330 506q-49 0 -91.5 -72.5
t-56.5 -161.5q188 45 188 183q0 51 -40 51zM212 764h149l37 -165h-42l-144 157v8z" />
    <glyph glyph-name="eacute" unicode="&#xe9;" horiz-adv-x="483" 
d="M489 434q0 -43 -23.5 -75.5t-68.5 -54.5t-96.5 -36.5t-122.5 -26.5q-1 -8 -1 -25q0 -66 27.5 -101.5t77.5 -35.5q72 0 146 86l21 -19q-103 -156 -247 -156q-82 0 -132 53.5t-50 142.5t42.5 171.5t119 134.5t165.5 52q69 0 105.5 -31t36.5 -79zM330 506q-49 0 -91.5 -72.5
t-56.5 -161.5q188 45 188 183q0 51 -40 51zM398 764h160v-7l-203 -158h-44z" />
    <glyph glyph-name="ecircumflex" unicode="&#xea;" horiz-adv-x="483" 
d="M489 434q0 -43 -23.5 -75.5t-68.5 -54.5t-96.5 -36.5t-122.5 -26.5q-1 -8 -1 -25q0 -66 27.5 -101.5t77.5 -35.5q72 0 146 86l21 -19q-103 -156 -247 -156q-82 0 -132 53.5t-50 142.5t42.5 171.5t119 134.5t165.5 52q69 0 105.5 -31t36.5 -79zM440 766l79 -171h-48
l-100 91l-139 -91h-53l152 171h109zM330 506q-49 0 -91.5 -72.5t-56.5 -161.5q188 45 188 183q0 51 -40 51z" />
    <glyph glyph-name="edieresis" unicode="&#xeb;" horiz-adv-x="483" 
d="M489 434q0 -43 -23.5 -75.5t-68.5 -54.5t-96.5 -36.5t-122.5 -26.5q-1 -8 -1 -25q0 -66 27.5 -101.5t77.5 -35.5q72 0 146 86l21 -19q-103 -156 -247 -156q-82 0 -132 53.5t-50 142.5t42.5 171.5t119 134.5t165.5 52q69 0 105.5 -31t36.5 -79zM330 506q-49 0 -91.5 -72.5
t-56.5 -161.5q188 45 188 183q0 51 -40 51zM462 603q-34 0 -55 21t-21 52q0 33 22.5 57t58.5 24q34 0 54.5 -20.5t20.5 -51.5q0 -34 -22.5 -58t-57.5 -24zM269 603q-34 0 -54.5 21t-20.5 52q0 33 22.5 57t58.5 24q34 0 54.5 -20.5t20.5 -51.5q0 -34 -23 -58t-58 -24z" />
    <glyph glyph-name="igrave" unicode="&#xec;" horiz-adv-x="326" 
d="M40 159l71 282l-54 37l5 23l209 43h26l-103 -407q-8 -30 -8 -42q0 -15 14 -15q26 0 83 72l22 -18q-55 -77 -96 -110.5t-91 -33.5q-43 0 -66 24t-23 62q0 35 11 83zM74 764h149l37 -165h-42l-144 157v8z" />
    <glyph glyph-name="iacute" unicode="&#xed;" horiz-adv-x="326" 
d="M284 764h160v-7l-203 -158h-44zM40 159l71 282l-54 37l5 23l209 43h26l-103 -407q-8 -30 -8 -42q0 -15 14 -15q26 0 83 72l22 -18q-55 -77 -96 -110.5t-91 -33.5q-43 0 -66 24t-23 62q0 35 11 83z" />
    <glyph glyph-name="icircumflex" unicode="&#xee;" horiz-adv-x="326" 
d="M319 766l79 -171h-48l-100 91l-139 -91h-53l152 171h109zM40 159l71 282l-54 37l5 23l209 43h26l-103 -407q-8 -30 -8 -42q0 -15 14 -15q26 0 83 72l22 -18q-55 -77 -96 -110.5t-91 -33.5q-43 0 -66 24t-23 62q0 35 11 83z" />
    <glyph glyph-name="idieresis" unicode="&#xef;" horiz-adv-x="326" 
d="M143 603q-34 0 -54.5 21t-20.5 52q0 33 22.5 57t58.5 24q34 0 54.5 -20.5t20.5 -51.5q0 -34 -23 -58t-58 -24zM336 603q-34 0 -55 21t-21 52q0 33 22.5 57t58.5 24q34 0 54.5 -20.5t20.5 -51.5q0 -34 -22.5 -58t-57.5 -24zM40 159l71 282l-54 37l5 23l209 43h26
l-103 -407q-8 -30 -8 -42q0 -15 14 -15q26 0 83 72l22 -18q-55 -77 -96 -110.5t-91 -33.5q-43 0 -66 24t-23 62q0 35 11 83z" />
    <glyph glyph-name="eth" unicode="&#xf0;" horiz-adv-x="553" 
d="M145 586l-12 39l160 53q-44 45 -121 83l20 25q98 -25 175 -84l127 42l12 -39l-103 -34q65 -63 97.5 -145t32.5 -166q0 -157 -93 -263.5t-226 -106.5q-84 0 -139 52t-55 148q0 89 39.5 169.5t113.5 132.5t164 52q15 0 30 -3q-14 58 -46 103zM380 414q0 47 -6 89
q-14 6 -29 6q-47 0 -88.5 -68.5t-62.5 -154.5t-21 -154q0 -104 49 -104q40 0 77.5 66t59 155.5t21.5 164.5z" />
    <glyph glyph-name="ntilde" unicode="&#xf1;" horiz-adv-x="628" 
d="M304 544l-67 -246q55 110 128.5 178t143.5 68q77 0 77 -81q0 -24 -8 -52l-75 -274q-8 -30 -8 -42q0 -15 14 -15q26 0 83 72l22 -18q-55 -77 -96 -110.5t-91 -33.5q-43 0 -67.5 24t-24.5 62q0 35 14 83l65 226q6 24 6 33q0 19 -17 19q-39 0 -105.5 -92t-95.5 -207
l-35 -138h-159l111 441l-55 37l5 23l210 43h25zM465 603q-32 0 -70.5 29t-58.5 29q-34 0 -72 -56l-30 18q36 70 63 99.5t64 29.5q32 0 70.5 -29.5t58.5 -29.5q34 0 71 56l31 -17q-35 -70 -62.5 -99.5t-64.5 -29.5z" />
    <glyph glyph-name="ograve" unicode="&#xf2;" horiz-adv-x="553" 
d="M173 127q0 -99 50 -99q38 0 75.5 65.5t59.5 153.5t22 160q0 99 -50 99q-38 0 -75.5 -65.5t-59.5 -153.5t-22 -160zM533 342q0 -88 -40.5 -168.5t-114 -132t-160.5 -51.5q-91 0 -144.5 53.5t-53.5 148.5q0 136 92 244t223 108q90 0 144 -53.5t54 -148.5zM197 764h149
l37 -165h-42l-144 157v8z" />
    <glyph glyph-name="oacute" unicode="&#xf3;" horiz-adv-x="553" 
d="M406 764h160v-7l-203 -158h-44zM173 127q0 -99 50 -99q38 0 75.5 65.5t59.5 153.5t22 160q0 99 -50 99q-38 0 -75.5 -65.5t-59.5 -153.5t-22 -160zM533 342q0 -88 -40.5 -168.5t-114 -132t-160.5 -51.5q-91 0 -144.5 53.5t-53.5 148.5q0 136 92 244t223 108
q90 0 144 -53.5t54 -148.5z" />
    <glyph glyph-name="ocircumflex" unicode="&#xf4;" horiz-adv-x="553" 
d="M439 766l79 -171h-48l-100 91l-139 -91h-53l152 171h109zM173 127q0 -99 50 -99q38 0 75.5 65.5t59.5 153.5t22 160q0 99 -50 99q-38 0 -75.5 -65.5t-59.5 -153.5t-22 -160zM533 342q0 -88 -40.5 -168.5t-114 -132t-160.5 -51.5q-91 0 -144.5 53.5t-53.5 148.5
q0 136 92 244t223 108q90 0 144 -53.5t54 -148.5z" />
    <glyph glyph-name="otilde" unicode="&#xf5;" horiz-adv-x="553" 
d="M173 127q0 -99 50 -99q38 0 75.5 65.5t59.5 153.5t22 160q0 99 -50 99q-38 0 -75.5 -65.5t-59.5 -153.5t-22 -160zM533 342q0 -88 -40.5 -168.5t-114 -132t-160.5 -51.5q-91 0 -144.5 53.5t-53.5 148.5q0 136 92 244t223 108q90 0 144 -53.5t54 -148.5zM421 603
q-32 0 -70.5 29t-58.5 29q-34 0 -72 -56l-30 18q36 70 63 99.5t64 29.5q32 0 70.5 -29.5t58.5 -29.5q34 0 71 56l31 -17q-35 -70 -62.5 -99.5t-64.5 -29.5z" />
    <glyph glyph-name="odieresis" unicode="&#xf6;" horiz-adv-x="553" 
d="M269 603q-34 0 -54.5 21t-20.5 52q0 33 22.5 57t58.5 24q34 0 54.5 -20.5t20.5 -51.5q0 -34 -23 -58t-58 -24zM462 603q-34 0 -55 21t-21 52q0 33 22.5 57t58.5 24q34 0 54.5 -20.5t20.5 -51.5q0 -34 -22.5 -58t-57.5 -24zM173 127q0 -99 50 -99q38 0 75.5 65.5
t59.5 153.5t22 160q0 99 -50 99q-38 0 -75.5 -65.5t-59.5 -153.5t-22 -160zM533 342q0 -88 -40.5 -168.5t-114 -132t-160.5 -51.5q-91 0 -144.5 53.5t-53.5 148.5q0 136 92 244t223 108q90 0 144 -53.5t54 -148.5z" />
    <glyph glyph-name="divide" unicode="&#xf7;" horiz-adv-x="571" 
d="M75 338l14 64h442l-14 -64h-442zM208 200q0 25 16.5 41.5t40.5 16.5t41 -17t17 -41q0 -23 -17.5 -40t-40.5 -17q-24 0 -40.5 17t-16.5 40zM281 539q0 24 17 40.5t40 16.5q24 0 41 -16.5t17 -40.5q0 -23 -17 -40.5t-41 -17.5q-23 0 -40 17.5t-17 40.5z" />
    <glyph glyph-name="oslash" unicode="&#xf8;" horiz-adv-x="553" 
d="M218 -10q-69 0 -118 32l-47 -57l-31 23l48 59q-50 53 -50 145q0 136 92 244t223 108q69 0 119 -33l42 51l31 -22l-44 -54q50 -53 50 -144q0 -88 -40.5 -168.5t-114 -132t-160.5 -51.5zM330 506q-52 0 -100 -111t-59 -226l211 256q-5 81 -52 81zM223 28q35 0 70 54.5
t57.5 131t29.5 148.5l-211 -256q5 -78 54 -78z" />
    <glyph glyph-name="ugrave" unicode="&#xf9;" horiz-adv-x="629" 
d="M403 399l31 127l164 9l-99 -398q-9 -36 -9 -42q0 -15 14 -15q26 0 83 72l22 -18q-55 -77 -96 -110.5t-91 -33.5q-43 0 -67 23.5t-24 64.5q0 38 31 146q-53 -109 -116 -171.5t-125 -62.5q-43 0 -67.5 26.5t-24.5 67.5q0 23 8 57l76 300l-55 37l5 23l210 43h25l-98 -385
q-8 -30 -8 -43q0 -23 20 -23q39 0 100.5 93.5t90.5 212.5zM225 764h149l37 -165h-42l-144 157v8z" />
    <glyph glyph-name="uacute" unicode="&#xfa;" horiz-adv-x="629" 
d="M434 764h160v-7l-203 -158h-44zM403 399l31 127l164 9l-99 -398q-9 -36 -9 -42q0 -15 14 -15q26 0 83 72l22 -18q-55 -77 -96 -110.5t-91 -33.5q-43 0 -67 23.5t-24 64.5q0 38 31 146q-53 -109 -116 -171.5t-125 -62.5q-43 0 -67.5 26.5t-24.5 67.5q0 23 8 57l76 300
l-55 37l5 23l210 43h25l-98 -385q-8 -30 -8 -43q0 -23 20 -23q39 0 100.5 93.5t90.5 212.5z" />
    <glyph glyph-name="ucircumflex" unicode="&#xfb;" horiz-adv-x="629" 
d="M470 766l79 -171h-48l-100 91l-139 -91h-53l152 171h109zM403 399l31 127l164 9l-99 -398q-9 -36 -9 -42q0 -15 14 -15q26 0 83 72l22 -18q-55 -77 -96 -110.5t-91 -33.5q-43 0 -67 23.5t-24 64.5q0 38 31 146q-53 -109 -116 -171.5t-125 -62.5q-43 0 -67.5 26.5
t-24.5 67.5q0 23 8 57l76 300l-55 37l5 23l210 43h25l-98 -385q-8 -30 -8 -43q0 -23 20 -23q39 0 100.5 93.5t90.5 212.5z" />
    <glyph glyph-name="udieresis" unicode="&#xfc;" horiz-adv-x="629" 
d="M294 603q-34 0 -54.5 21t-20.5 52q0 33 22.5 57t58.5 24q34 0 54.5 -20.5t20.5 -51.5q0 -34 -23 -58t-58 -24zM487 603q-34 0 -55 21t-21 52q0 33 22.5 57t58.5 24q34 0 54.5 -20.5t20.5 -51.5q0 -34 -22.5 -58t-57.5 -24zM403 399l31 127l164 9l-99 -398q-9 -36 -9 -42
q0 -15 14 -15q26 0 83 72l22 -18q-55 -77 -96 -110.5t-91 -33.5q-43 0 -67 23.5t-24 64.5q0 38 31 146q-53 -109 -116 -171.5t-125 -62.5q-43 0 -67.5 26.5t-24.5 67.5q0 23 8 57l76 300l-55 37l5 23l210 43h25l-98 -385q-8 -30 -8 -43q0 -23 20 -23q39 0 100.5 93.5
t90.5 212.5z" />
    <glyph glyph-name="yacute" unicode="&#xfd;" horiz-adv-x="522" 
d="M73 448l-58 34l7 20l182 42h14l83 -461l15 21q64 91 86.5 149.5t22.5 116.5q0 51 -28 75t-73 22l1 12q41 65 107 65q48 0 72 -29t24 -74q0 -62 -46.5 -146t-144.5 -222q-116 -163 -193 -226.5t-152 -63.5q-44 0 -73.5 22.5t-29.5 63.5q0 30 19.5 52.5t50.5 31.5h14
q0 -99 75 -99q61 0 130 73zM398 764h160v-7l-203 -158h-44z" />
    <glyph glyph-name="thorn" unicode="&#xfe;" horiz-adv-x="606" 
d="M387 437q-50 0 -120 -112.5t-97 -242.5q7 -21 23.5 -33t37.5 -12q48 0 94 55t72 132t26 145t-36 68zM345 783l-125 -490q50 106 118 178.5t136 72.5q55 0 84 -39.5t29 -113.5q0 -104 -48 -197.5t-124.5 -148.5t-157.5 -55q-69 0 -97 42l-41 -158q-4 -18 -4 -21
q0 -16 17.5 -21.5t62.5 -7.5l-7 -36h-304l7 36q35 2 48.5 9.5t19.5 31.5l206 821l-56 29l6 25l205 43h25z" />
    <glyph glyph-name="ydieresis" unicode="&#xff;" horiz-adv-x="522" 
d="M73 448l-58 34l7 20l182 42h14l83 -461l15 21q64 91 86.5 149.5t22.5 116.5q0 51 -28 75t-73 22l1 12q41 65 107 65q48 0 72 -29t24 -74q0 -62 -46.5 -146t-144.5 -222q-116 -163 -193 -226.5t-152 -63.5q-44 0 -73.5 22.5t-29.5 63.5q0 30 19.5 52.5t50.5 31.5h14
q0 -99 75 -99q61 0 130 73zM443 603q-34 0 -55 21t-21 52q0 33 22.5 57t58.5 24q34 0 54.5 -20.5t20.5 -51.5q0 -34 -22.5 -58t-57.5 -24zM250 603q-34 0 -54.5 21t-20.5 52q0 33 22.5 57t58.5 24q34 0 54.5 -20.5t20.5 -51.5q0 -34 -23 -58t-58 -24z" />
    <glyph glyph-name="Amacron" unicode="&#x100;" horiz-adv-x="732" 
d="M452 122l-19 103h-262l-61 -103q-18 -32 -18 -48q0 -32 77 -36l-9 -38h-212l8 38q47 5 66 37l332 552l-15 79h175l119 -631q3 -18 15.5 -26t35.5 -11l-8 -38h-322l8 38q46 2 69.5 12.5t23.5 41.5q0 17 -3 30zM371 561l-172 -288h225zM300 757l16 77h285l-16 -77h-285z
" />
    <glyph glyph-name="amacron" unicode="&#x101;" horiz-adv-x="626" 
d="M216 99q45 0 107 102t104 259q-14 44 -57 44q-49 0 -95 -53.5t-72.5 -131.5t-26.5 -151q0 -69 40 -69zM331 78q0 45 31 138q-112 -226 -228 -226q-55 0 -86 41.5t-31 114.5q0 97 44.5 188.5t123 150.5t167.5 59q72 0 118 -48l103 51h33l-38 -128l-69 -282q-8 -38 -8 -42
q0 -15 14 -15q24 0 83 72l22 -18q-55 -77 -96.5 -110.5t-91.5 -33.5q-43 0 -67 23.5t-24 64.5zM284 624l16 77h277l-16 -77h-277z" />
    <glyph glyph-name="Abreve" unicode="&#x102;" horiz-adv-x="732" 
d="M452 122l-19 103h-262l-61 -103q-18 -32 -18 -48q0 -32 77 -36l-9 -38h-212l8 38q47 5 66 37l332 552l-15 79h175l119 -631q3 -18 15.5 -26t35.5 -11l-8 -38h-322l8 38q46 2 69.5 12.5t23.5 41.5q0 17 -3 30zM371 561l-172 -288h225zM439 742q-65 0 -95 39.5t-13 116.5
h41q-8 -74 83 -74q90 0 117 74h43q-18 -78 -63.5 -117t-112.5 -39z" />
    <glyph glyph-name="abreve" unicode="&#x103;" horiz-adv-x="626" 
d="M216 99q45 0 107 102t104 259q-14 44 -57 44q-49 0 -95 -53.5t-72.5 -131.5t-26.5 -151q0 -69 40 -69zM331 78q0 45 31 138q-112 -226 -228 -226q-55 0 -86 41.5t-31 114.5q0 97 44.5 188.5t123 150.5t167.5 59q72 0 118 -48l103 51h33l-38 -128l-69 -282q-8 -38 -8 -42
q0 -15 14 -15q24 0 83 72l22 -18q-55 -77 -96.5 -110.5t-91.5 -33.5q-43 0 -67 23.5t-24 64.5zM418 597q-67 0 -95 43.5t-9 122.5h41q-9 -80 80 -80t117 80h42q-19 -80 -63.5 -123t-112.5 -43z" />
    <glyph glyph-name="Aogonek" unicode="&#x104;" horiz-adv-x="732" 
d="M452 122l-19 103h-262l-61 -103q-18 -32 -18 -48q0 -32 77 -36l-9 -38h-212l8 38q47 5 66 37l332 552l-15 79h175l119 -631q3 -18 15.5 -26t35.5 -11l-8 -38h-288q-91 -43 -91 -107q0 -18 11.5 -30t31.5 -12q36 0 80 34l11 -17q-73 -82 -149 -82q-37 0 -60 19.5t-23 55.5
q0 97 159 162q8 3 23.5 9t21.5 8.5t17 7.5t15.5 8.5t10 9.5t7.5 12t2 14q0 17 -3 30zM371 561l-172 -288h225z" />
    <glyph glyph-name="aogonek" unicode="&#x105;" horiz-adv-x="626" 
d="M610 134q-38 -51 -92 -101.5t-83 -81t-29 -59.5q0 -19 11.5 -30t31.5 -11q35 0 80 34l11 -17q-75 -82 -149 -82q-36 0 -59.5 19t-23.5 53q0 71 111 133q-41 2 -64.5 24.5t-23.5 62.5q0 45 31 138q-112 -226 -228 -226q-55 0 -86 41.5t-31 114.5q0 97 44.5 188.5
t123 150.5t167.5 59q72 0 118 -48l103 51h33l-38 -128l-69 -282q-8 -38 -8 -42q0 -15 14 -15q24 0 83 72zM216 99q45 0 107 102t104 259q-14 44 -57 44q-49 0 -95 -53.5t-72.5 -131.5t-26.5 -151q0 -69 40 -69z" />
    <glyph glyph-name="Cacute" unicode="&#x106;" horiz-adv-x="674" 
d="M478 712q138 0 216 -61l-32 -165h-41q-5 183 -137 183q-64 0 -117 -42t-85 -107t-49.5 -136.5t-17.5 -137.5q0 -210 134 -210q139 0 238 210h49l-58 -196q-106 -60 -237 -60q-141 0 -221 78.5t-80 208.5q0 117 56 216.5t157 159t225 59.5zM551 894h162v-8l-196 -141h-44z
" />
    <glyph glyph-name="cacute" unicode="&#x107;" horiz-adv-x="461" 
d="M420 764h160v-7l-203 -158h-44zM325 507q-37 0 -71.5 -48t-55 -118t-20.5 -135q0 -130 86 -130q34 0 64.5 19.5t68.5 64.5l21 -20q-91 -150 -224 -150q-80 0 -127 52t-47 138q0 89 42.5 173t118.5 137.5t164 53.5q60 0 95.5 -24t35.5 -70q0 -62 -67 -79h-40
q13 136 -44 136z" />
    <glyph glyph-name="Ccircumflex" unicode="&#x108;" horiz-adv-x="674" 
d="M478 712q138 0 216 -61l-32 -165h-41q-5 183 -137 183q-64 0 -117 -42t-85 -107t-49.5 -136.5t-17.5 -137.5q0 -210 134 -210q139 0 238 210h49l-58 -196q-106 -60 -237 -60q-141 0 -221 78.5t-80 208.5q0 117 56 216.5t157 159t225 59.5zM584 900l79 -155h-48l-100 76
l-139 -76h-53l152 155h109z" />
    <glyph glyph-name="ccircumflex" unicode="&#x109;" horiz-adv-x="461" 
d="M447 766l79 -171h-48l-100 91l-139 -91h-53l152 171h109zM325 507q-37 0 -71.5 -48t-55 -118t-20.5 -135q0 -130 86 -130q34 0 64.5 19.5t68.5 64.5l21 -20q-91 -150 -224 -150q-80 0 -127 52t-47 138q0 89 42.5 173t118.5 137.5t164 53.5q60 0 95.5 -24t35.5 -70
q0 -62 -67 -79h-40q13 136 -44 136z" />
    <glyph glyph-name="Cdotaccent" unicode="&#x10a;" horiz-adv-x="674" 
d="M513 746q-36 0 -58.5 22t-22.5 54q0 36 24.5 61t63.5 25q36 0 58.5 -22t22.5 -54q0 -36 -24.5 -61t-63.5 -25zM478 712q138 0 216 -61l-32 -165h-41q-5 183 -137 183q-64 0 -117 -42t-85 -107t-49.5 -136.5t-17.5 -137.5q0 -210 134 -210q139 0 238 210h49l-58 -196
q-106 -60 -237 -60q-141 0 -221 78.5t-80 208.5q0 117 56 216.5t157 159t225 59.5z" />
    <glyph glyph-name="cdotaccent" unicode="&#x10b;" horiz-adv-x="461" 
d="M325 507q-37 0 -71.5 -48t-55 -118t-20.5 -135q0 -130 86 -130q34 0 64.5 19.5t68.5 64.5l21 -20q-91 -150 -224 -150q-80 0 -127 52t-47 138q0 89 42.5 173t118.5 137.5t164 53.5q60 0 95.5 -24t35.5 -70q0 -62 -67 -79h-40q13 136 -44 136zM376 601q-36 0 -58.5 22
t-22.5 54q0 35 24.5 60t63.5 25q36 0 58.5 -21.5t22.5 -53.5q0 -36 -24.5 -61t-63.5 -25z" />
    <glyph glyph-name="Ccaron" unicode="&#x10c;" horiz-adv-x="674" 
d="M478 712q138 0 216 -61l-32 -165h-41q-5 183 -137 183q-64 0 -117 -42t-85 -107t-49.5 -136.5t-17.5 -137.5q0 -210 134 -210q139 0 238 210h49l-58 -196q-106 -60 -237 -60q-141 0 -221 78.5t-80 208.5q0 117 56 216.5t157 159t225 59.5zM447 746l-79 154h48l100 -76
l139 76h53l-152 -154h-109z" />
    <glyph glyph-name="ccaron" unicode="&#x10d;" horiz-adv-x="461" 
d="M306 598l-79 171h48l100 -91l139 91h53l-152 -171h-109zM325 507q-37 0 -71.5 -48t-55 -118t-20.5 -135q0 -130 86 -130q34 0 64.5 19.5t68.5 64.5l21 -20q-91 -150 -224 -150q-80 0 -127 52t-47 138q0 89 42.5 173t118.5 137.5t164 53.5q60 0 95.5 -24t35.5 -70
q0 -62 -67 -79h-40q13 136 -44 136z" />
    <glyph glyph-name="Dcaron" unicode="&#x10e;" horiz-adv-x="757" 
d="M396 746l-79 154h48l100 -76l139 76h53l-152 -154h-109zM300 43h9q74 0 137 57.5t99 149t36 192.5q0 108 -44.5 162.5t-142.5 54.5h-32l-116 -545q-9 -43 3 -57t51 -14zM298 0h-323l9 38q52 6 67 17t23 52l105 488q9 41 -2 52.5t-60 16.5l8 38h295q151 0 243 -74.5
t92 -208.5q0 -187 -131 -303t-326 -116z" />
    <glyph glyph-name="dcaron" unicode="&#x10f;" horiz-adv-x="637" 
d="M853 774l-155 -196h-33l58 205h132zM216 99q47 0 110.5 102.5t103.5 258.5q-5 19 -20.5 31.5t-36.5 12.5q-74 0 -135 -111t-62 -222q0 -72 40 -72zM445 518l40 168l-56 29l6 25l205 43h25l-157 -646q-9 -34 -9 -42q0 -15 14 -15q25 0 84 72l21 -18q-54 -77 -95 -110.5
t-92 -33.5q-43 0 -67 23.5t-24 64.5q0 47 32 143q-52 -105 -113 -168t-124 -63q-55 0 -86.5 41.5t-31.5 114.5q0 96 45 188t123.5 151t167.5 59q53 0 92 -26z" />
    <glyph glyph-name="Dcroat" unicode="&#x110;" horiz-adv-x="757" 
d="M50 330l12 55h72l45 210q9 41 -2 52.5t-60 16.5l8 38h295q151 0 243 -74.5t92 -208.5q0 -187 -131 -303t-326 -116h-323l9 38q52 6 67 17t23 52l48 223h-72zM300 43h9q74 0 137 57.5t99 149t36 192.5q0 108 -44.5 162.5t-142.5 54.5h-32l-59 -274h126l-12 -55h-125
l-46 -216q-9 -43 3 -57t51 -14z" />
    <glyph glyph-name="dcroat" unicode="&#x111;" horiz-adv-x="642" 
d="M445 518l17 73h-122l10 46h123l12 49l-56 29l6 25l205 43h25l-36 -146h64l-10 -46h-65l-110 -454q-9 -34 -9 -42q0 -15 14 -15q25 0 84 72l21 -18q-54 -77 -95 -110.5t-92 -33.5q-43 0 -67 23.5t-24 64.5q0 47 32 143q-52 -105 -113 -168t-124 -63q-55 0 -86.5 41.5
t-31.5 114.5q0 96 45 188t123.5 151t167.5 59q53 0 92 -26zM216 99q47 0 110.5 102.5t103.5 258.5q-5 19 -20.5 31.5t-36.5 12.5q-74 0 -135 -111t-62 -222q0 -72 40 -72z" />
    <glyph glyph-name="Emacron" unicode="&#x112;" horiz-adv-x="651" 
d="M302 757l16 77h285l-16 -77h-285zM544 0h-569l9 38q52 6 67 17t23 52l105 488q9 41 -2 52.5t-60 16.5l8 38h561l-36 -187h-31q-19 87 -42.5 115.5t-84.5 28.5h-130l-58 -272h113q33 0 51 20.5t36 71.5h39l-49 -233h-40q4 52 -5.5 71.5t-42.5 19.5h-113l-48 -226
q-9 -39 8 -53.5t63 -14.5h50q60 0 97.5 31.5t116.5 134.5h40z" />
    <glyph glyph-name="emacron" unicode="&#x113;" horiz-adv-x="483" 
d="M489 434q0 -43 -23.5 -75.5t-68.5 -54.5t-96.5 -36.5t-122.5 -26.5q-1 -8 -1 -25q0 -66 27.5 -101.5t77.5 -35.5q72 0 146 86l21 -19q-103 -156 -247 -156q-82 0 -132 53.5t-50 142.5t42.5 171.5t119 134.5t165.5 52q69 0 105.5 -31t36.5 -79zM330 506q-49 0 -91.5 -72.5
t-56.5 -161.5q188 45 188 183q0 51 -40 51zM226 624l16 77h277l-16 -77h-277z" />
    <glyph glyph-name="Ebreve" unicode="&#x114;" horiz-adv-x="651" 
d="M446 742q-65 0 -95 39.5t-13 116.5h41q-8 -74 83 -74q90 0 117 74h43q-18 -78 -63.5 -117t-112.5 -39zM544 0h-569l9 38q52 6 67 17t23 52l105 488q9 41 -2 52.5t-60 16.5l8 38h561l-36 -187h-31q-19 87 -42.5 115.5t-84.5 28.5h-130l-58 -272h113q33 0 51 20.5t36 71.5
h39l-49 -233h-40q4 52 -5.5 71.5t-42.5 19.5h-113l-48 -226q-9 -39 8 -53.5t63 -14.5h50q60 0 97.5 31.5t116.5 134.5h40z" />
    <glyph glyph-name="ebreve" unicode="&#x115;" horiz-adv-x="483" 
d="M489 434q0 -43 -23.5 -75.5t-68.5 -54.5t-96.5 -36.5t-122.5 -26.5q-1 -8 -1 -25q0 -66 27.5 -101.5t77.5 -35.5q72 0 146 86l21 -19q-103 -156 -247 -156q-82 0 -132 53.5t-50 142.5t42.5 171.5t119 134.5t165.5 52q69 0 105.5 -31t36.5 -79zM358 597q-67 0 -95 43.5
t-9 122.5h41q-9 -80 80 -80t117 80h42q-19 -80 -63.5 -123t-112.5 -43zM330 506q-49 0 -91.5 -72.5t-56.5 -161.5q188 45 188 183q0 51 -40 51z" />
    <glyph glyph-name="Edotaccent" unicode="&#x116;" horiz-adv-x="651" 
d="M456 746q-36 0 -58.5 22t-22.5 54q0 36 24.5 61t63.5 25q36 0 58.5 -22t22.5 -54q0 -36 -24.5 -61t-63.5 -25zM544 0h-569l9 38q52 6 67 17t23 52l105 488q9 41 -2 52.5t-60 16.5l8 38h561l-36 -187h-31q-19 87 -42.5 115.5t-84.5 28.5h-130l-58 -272h113q33 0 51 20.5
t36 71.5h39l-49 -233h-40q4 52 -5.5 71.5t-42.5 19.5h-113l-48 -226q-9 -39 8 -53.5t63 -14.5h50q60 0 97.5 31.5t116.5 134.5h40z" />
    <glyph glyph-name="edotaccent" unicode="&#x117;" horiz-adv-x="483" 
d="M489 434q0 -43 -23.5 -75.5t-68.5 -54.5t-96.5 -36.5t-122.5 -26.5q-1 -8 -1 -25q0 -66 27.5 -101.5t77.5 -35.5q72 0 146 86l21 -19q-103 -156 -247 -156q-82 0 -132 53.5t-50 142.5t42.5 171.5t119 134.5t165.5 52q69 0 105.5 -31t36.5 -79zM330 506q-49 0 -91.5 -72.5
t-56.5 -161.5q188 45 188 183q0 51 -40 51zM376 601q-36 0 -58.5 22t-22.5 54q0 35 24.5 60t63.5 25q36 0 58.5 -21.5t22.5 -53.5q0 -36 -24.5 -61t-63.5 -25z" />
    <glyph glyph-name="Eogonek" unicode="&#x118;" horiz-adv-x="651" 
d="M544 0h-97q-84 -52 -84 -107q0 -18 11.5 -30t31.5 -12q35 0 80 34l11 -17q-75 -82 -149 -82q-36 0 -59.5 19t-23.5 53q0 82 130 142h-420l9 38q52 6 67 17t23 52l105 488q9 41 -2 52.5t-60 16.5l8 38h561l-36 -187h-31q-19 87 -42.5 115.5t-84.5 28.5h-130l-58 -272h113
q33 0 51 20.5t36 71.5h39l-49 -233h-40q4 52 -5.5 71.5t-42.5 19.5h-113l-48 -226q-9 -39 8 -53.5t63 -14.5h50q60 0 97.5 31.5t116.5 134.5h40z" />
    <glyph glyph-name="eogonek" unicode="&#x119;" horiz-adv-x="483" 
d="M215 -9q-83 0 -139 54t-56 141q0 89 42.5 171.5t119 134.5t165.5 52q69 0 105.5 -31t36.5 -79q0 -43 -23.5 -75.5t-68.5 -54.5t-96.5 -36.5t-122.5 -26.5q-1 -8 -1 -25q0 -66 28 -102t79 -36q72 0 146 86l20 -18q-60 -89 -155 -138q-87 -45 -87 -115q0 -18 11.5 -30
t31.5 -12q36 0 80 34l11 -17q-73 -82 -148 -82q-37 0 -60.5 19t-23.5 53q0 71 105 133zM330 506q-49 0 -91.5 -72.5t-56.5 -161.5q188 45 188 183q0 51 -40 51z" />
    <glyph glyph-name="Ecaron" unicode="&#x11a;" horiz-adv-x="651" 
d="M389 746l-79 154h48l100 -76l139 76h53l-152 -154h-109zM544 0h-569l9 38q52 6 67 17t23 52l105 488q9 41 -2 52.5t-60 16.5l8 38h561l-36 -187h-31q-19 87 -42.5 115.5t-84.5 28.5h-130l-58 -272h113q33 0 51 20.5t36 71.5h39l-49 -233h-40q4 52 -5.5 71.5t-42.5 19.5
h-113l-48 -226q-9 -39 8 -53.5t63 -14.5h50q60 0 97.5 31.5t116.5 134.5h40z" />
    <glyph glyph-name="ecaron" unicode="&#x11b;" horiz-adv-x="483" 
d="M489 434q0 -43 -23.5 -75.5t-68.5 -54.5t-96.5 -36.5t-122.5 -26.5q-1 -8 -1 -25q0 -66 27.5 -101.5t77.5 -35.5q72 0 146 86l21 -19q-103 -156 -247 -156q-82 0 -132 53.5t-50 142.5t42.5 171.5t119 134.5t165.5 52q69 0 105.5 -31t36.5 -79zM296 598l-79 171h48
l100 -91l139 91h53l-152 -171h-109zM330 506q-49 0 -91.5 -72.5t-56.5 -161.5q188 45 188 183q0 51 -40 51z" />
    <glyph glyph-name="Gcircumflex" unicode="&#x11c;" horiz-adv-x="731" 
d="M361 36q49 0 84 20l37 168q9 41 -2 52.5t-60 16.5l8 38h307l-8 -38q-48 -4 -62.5 -16t-22.5 -53l-35 -166q-120 -68 -257 -68q-142 0 -226 77.5t-84 206.5q0 179 128.5 308.5t316.5 129.5q64 0 123.5 -17t94.5 -44l-33 -165h-41q-3 183 -138 183q-64 0 -118 -42.5
t-87.5 -108t-52 -138t-18.5 -137.5q0 -99 39 -153t107 -54zM596 900l79 -155h-48l-100 76l-139 -76h-53l152 155h109z" />
    <glyph glyph-name="gcircumflex" unicode="&#x11d;" horiz-adv-x="518" 
d="M491 389q0 -93 -75 -150t-184 -57q-41 0 -77 11q-27 -16 -27 -35q0 -17 31 -26l175 -43q68 -16 104.5 -45.5t36.5 -81.5q0 -86 -85.5 -135.5t-215.5 -49.5q-105 0 -181 37t-76 100q0 46 43 70.5t105 31.5q-36 27 -36 72q0 73 100 116q-80 42 -80 136q0 91 74.5 147.5
t182.5 56.5q44 0 84 -16l186 6l-19 -64h-46l-54 9q34 -40 34 -90zM278 -58l-194 55q-62 -27 -62 -79q0 -44 44 -71.5t116 -27.5t114 19.5t42 52.5q0 21 -14 31.5t-46 19.5zM345 427q0 80 -45 80q-41 0 -73.5 -63.5t-32.5 -145.5q0 -81 45 -81q41 0 73.5 64t32.5 146z
M433 766l79 -171h-48l-100 91l-139 -91h-53l152 171h109z" />
    <glyph glyph-name="Gbreve" unicode="&#x11e;" horiz-adv-x="731" 
d="M515 742q-65 0 -95 39.5t-13 116.5h41q-8 -74 83 -74q90 0 117 74h43q-18 -78 -63.5 -117t-112.5 -39zM361 36q49 0 84 20l37 168q9 41 -2 52.5t-60 16.5l8 38h307l-8 -38q-48 -4 -62.5 -16t-22.5 -53l-35 -166q-120 -68 -257 -68q-142 0 -226 77.5t-84 206.5
q0 179 128.5 308.5t316.5 129.5q64 0 123.5 -17t94.5 -44l-33 -165h-41q-3 183 -138 183q-64 0 -118 -42.5t-87.5 -108t-52 -138t-18.5 -137.5q0 -99 39 -153t107 -54z" />
    <glyph glyph-name="gbreve" unicode="&#x11f;" horiz-adv-x="518" 
d="M491 389q0 -93 -75 -150t-184 -57q-41 0 -77 11q-27 -16 -27 -35q0 -17 31 -26l175 -43q68 -16 104.5 -45.5t36.5 -81.5q0 -86 -85.5 -135.5t-215.5 -49.5q-105 0 -181 37t-76 100q0 46 43 70.5t105 31.5q-36 27 -36 72q0 73 100 116q-80 42 -80 136q0 91 74.5 147.5
t182.5 56.5q44 0 84 -16l186 6l-19 -64h-46l-54 9q34 -40 34 -90zM278 -58l-194 55q-62 -27 -62 -79q0 -44 44 -71.5t116 -27.5t114 19.5t42 52.5q0 21 -14 31.5t-46 19.5zM345 427q0 80 -45 80q-41 0 -73.5 -63.5t-32.5 -145.5q0 -81 45 -81q41 0 73.5 64t32.5 146z
M342 597q-67 0 -95 43.5t-9 122.5h41q-9 -80 80 -80t117 80h42q-19 -80 -63.5 -123t-112.5 -43z" />
    <glyph glyph-name="Gdotaccent" unicode="&#x120;" horiz-adv-x="731" 
d="M525 746q-36 0 -58.5 22t-22.5 54q0 36 24.5 61t63.5 25q36 0 58.5 -22t22.5 -54q0 -36 -24.5 -61t-63.5 -25zM361 36q49 0 84 20l37 168q9 41 -2 52.5t-60 16.5l8 38h307l-8 -38q-48 -4 -62.5 -16t-22.5 -53l-35 -166q-120 -68 -257 -68q-142 0 -226 77.5t-84 206.5
q0 179 128.5 308.5t316.5 129.5q64 0 123.5 -17t94.5 -44l-33 -165h-41q-3 183 -138 183q-64 0 -118 -42.5t-87.5 -108t-52 -138t-18.5 -137.5q0 -99 39 -153t107 -54z" />
    <glyph glyph-name="gdotaccent" unicode="&#x121;" horiz-adv-x="518" 
d="M491 389q0 -93 -75 -150t-184 -57q-41 0 -77 11q-27 -16 -27 -35q0 -17 31 -26l175 -43q68 -16 104.5 -45.5t36.5 -81.5q0 -86 -85.5 -135.5t-215.5 -49.5q-105 0 -181 37t-76 100q0 46 43 70.5t105 31.5q-36 27 -36 72q0 73 100 116q-80 42 -80 136q0 91 74.5 147.5
t182.5 56.5q44 0 84 -16l186 6l-19 -64h-46l-54 9q34 -40 34 -90zM278 -58l-194 55q-62 -27 -62 -79q0 -44 44 -71.5t116 -27.5t114 19.5t42 52.5q0 21 -14 31.5t-46 19.5zM345 427q0 80 -45 80q-41 0 -73.5 -63.5t-32.5 -145.5q0 -81 45 -81q41 0 73.5 64t32.5 146z
M357 601q-36 0 -58.5 22t-22.5 54q0 35 24.5 60t63.5 25q36 0 58.5 -21.5t22.5 -53.5q0 -36 -24.5 -61t-63.5 -25z" />
    <glyph glyph-name="Gcommaaccent" unicode="&#x122;" horiz-adv-x="731" 
d="M342 -154h-56q-38 9 -38 45q0 31 22.5 51t60.5 20q37 0 57.5 -21t20.5 -55q0 -56 -42.5 -91.5t-129.5 -35.5l2 33q43 0 70.5 16t32.5 38zM361 36q49 0 84 20l37 168q9 41 -2 52.5t-60 16.5l8 38h307l-8 -38q-48 -4 -62.5 -16t-22.5 -53l-35 -166q-120 -68 -257 -68
q-142 0 -226 77.5t-84 206.5q0 179 128.5 308.5t316.5 129.5q64 0 123.5 -17t94.5 -44l-33 -165h-41q-3 183 -138 183q-64 0 -118 -42.5t-87.5 -108t-52 -138t-18.5 -137.5q0 -99 39 -153t107 -54z" />
    <glyph glyph-name="gcommaaccent" unicode="&#x123;" horiz-adv-x="518" 
d="M491 389q0 -93 -75 -150t-184 -57q-41 0 -77 11q-27 -16 -27 -35q0 -17 31 -26l175 -43q68 -16 104.5 -45.5t36.5 -81.5q0 -86 -85.5 -135.5t-215.5 -49.5q-105 0 -181 37t-76 100q0 46 43 70.5t105 31.5q-36 27 -36 72q0 73 100 116q-80 42 -80 136q0 91 74.5 147.5
t182.5 56.5q44 0 84 -16l186 6l-19 -64h-46l-54 9q34 -40 34 -90zM278 -58l-194 55q-62 -27 -62 -79q0 -44 44 -71.5t116 -27.5t114 19.5t42 52.5q0 21 -14 31.5t-46 19.5zM345 427q0 80 -45 80q-41 0 -73.5 -63.5t-32.5 -145.5q0 -81 45 -81q41 0 73.5 64t32.5 146z
M346 712h56q38 -9 38 -45q0 -31 -22.5 -51t-60.5 -20q-37 0 -57.5 21t-20.5 55q0 56 42.5 91t129.5 35l-2 -33q-43 0 -70.5 -15.5t-32.5 -37.5z" />
    <glyph glyph-name="Hcircumflex" unicode="&#x124;" horiz-adv-x="827" 
d="M74 107l105 488q9 41 -2 52.5t-60 16.5l8 38h323l-8 -38q-53 -6 -68 -17.5t-23 -51.5l-45 -210h278l45 210q9 41 -2 52.5t-60 16.5l8 38h323l-8 -38q-53 -6 -68 -17.5t-23 -51.5l-104 -488q-9 -41 2 -52.5t60 -16.5l-9 -38h-323l9 38q52 6 67 17t24 52l48 223h-278
l-48 -223q-9 -41 2 -52.5t60 -16.5l-9 -38h-323l9 38q52 6 67 17t23 52zM604 900l79 -155h-48l-100 76l-139 -76h-53l152 155h109z" />
    <glyph glyph-name="hcircumflex" unicode="&#x125;" horiz-adv-x="620" 
d="M351 783l-120 -484q55 110 128 177.5t143 67.5q77 0 77 -81q0 -18 -8 -52l-75 -274q-8 -30 -8 -42q0 -15 14 -15q26 0 83 72l22 -18q-55 -77 -96.5 -110.5t-91.5 -33.5q-43 0 -67.5 24t-24.5 62q0 32 15 83l65 226q6 24 6 33q0 19 -17 19q-39 0 -105.5 -92t-95.5 -207
l-36 -138h-158l169 686l-55 29l5 25l205 43h26zM524 952l79 -155h-48l-100 76l-139 -76h-53l152 155h109z" />
    <glyph glyph-name="Hbar" unicode="&#x126;" horiz-adv-x="831" 
d="M86 492l11 55h73l11 48q9 41 -2 52.5t-60 16.5l8 38h323l-8 -38q-53 -6 -68 -17.5t-23 -51.5l-11 -48h278l11 48q9 41 -2 52.5t-60 16.5l8 38h323l-8 -38q-53 -6 -68 -17.5t-23 -51.5l-11 -48h79l-11 -55h-79l-82 -385q-9 -41 2 -52.5t60 -16.5l-9 -38h-323l9 38
q52 6 67 17t23 52l49 223h-278l-48 -223q-9 -41 2 -52.5t60 -16.5l-9 -38h-323l9 38q52 6 67 17t23 52l83 385h-73zM306 385h278l23 107h-278z" />
    <glyph glyph-name="hbar" unicode="&#x127;" horiz-adv-x="623" 
d="M432 591h-126l-72 -292q55 110 128 177.5t143 67.5q77 0 77 -81q0 -18 -8 -52l-75 -274q-8 -30 -8 -42q0 -15 14 -15q26 0 83 72l22 -18q-55 -77 -96.5 -110.5t-91.5 -33.5q-43 0 -67.5 24t-24.5 62q0 32 15 83l65 226q6 24 6 33q0 19 -17 19q-39 0 -105.5 -92
t-95.5 -207l-36 -138h-158l145 591h-60l10 46h62l12 49l-55 29l5 25l205 43h26l-36 -146h124z" />
    <glyph glyph-name="Itilde" unicode="&#x128;" horiz-adv-x="379" 
d="M74 107l105 488q9 41 -2 52.5t-60 16.5l8 38h323l-8 -38q-53 -6 -68 -17.5t-23 -51.5l-104 -488q-9 -41 2 -52.5t60 -16.5l-9 -38h-323l9 38q52 6 67 17t23 52zM368 746q-32 0 -70.5 29.5t-58.5 29.5q-34 0 -72 -56l-30 17q36 70 63 99.5t64 29.5q32 0 70.5 -29.5
t58.5 -29.5q34 0 71 56l31 -17q-36 -70 -63 -99.5t-64 -29.5z" />
    <glyph glyph-name="itilde" unicode="&#x129;" horiz-adv-x="326" 
d="M291 603q-28 0 -60.5 29t-49.5 29q-34 0 -69 -56l-29 18q34 69 60.5 99t62.5 30q28 0 60 -29.5t50 -29.5q33 0 68 56l29 -17q-33 -69 -59.5 -99t-62.5 -30zM40 159l71 282l-54 37l5 23l209 43h26l-103 -407q-8 -30 -8 -42q0 -15 14 -15q26 0 83 72l22 -18
q-55 -77 -96 -110.5t-91 -33.5q-43 0 -66 24t-23 62q0 35 11 83z" />
    <glyph glyph-name="Imacron" unicode="&#x12a;" horiz-adv-x="379" 
d="M74 107l105 488q9 41 -2 52.5t-60 16.5l8 38h323l-8 -38q-53 -6 -68 -17.5t-23 -51.5l-104 -488q-9 -41 2 -52.5t60 -16.5l-9 -38h-323l9 38q52 6 67 17t23 52zM156 757l16 77h285l-16 -77h-285z" />
    <glyph glyph-name="imacron" unicode="&#x12b;" horiz-adv-x="326" 
d="M110 624l17 77h249l-16 -77h-250zM40 159l71 282l-54 37l5 23l209 43h26l-103 -407q-8 -30 -8 -42q0 -15 14 -15q26 0 83 72l22 -18q-55 -77 -96 -110.5t-91 -33.5q-43 0 -66 24t-23 62q0 35 11 83z" />
    <glyph glyph-name="Ibreve" unicode="&#x12c;" horiz-adv-x="379" 
d="M74 107l105 488q9 41 -2 52.5t-60 16.5l8 38h323l-8 -38q-53 -6 -68 -17.5t-23 -51.5l-104 -488q-9 -41 2 -52.5t60 -16.5l-9 -38h-323l9 38q52 6 67 17t23 52zM299 742q-65 0 -95 39.5t-13 116.5h41q-8 -74 83 -74q90 0 117 74h43q-18 -78 -63.5 -117t-112.5 -39z" />
    <glyph glyph-name="ibreve" unicode="&#x12d;" horiz-adv-x="326" 
d="M40 159l71 282l-54 37l5 23l209 43h26l-103 -407q-8 -30 -8 -42q0 -15 14 -15q26 0 83 72l22 -18q-55 -77 -96 -110.5t-91 -33.5q-43 0 -66 24t-23 62q0 35 11 83zM228 597q-67 0 -95 43.5t-9 122.5h41q-9 -80 80 -80t117 80h42q-19 -80 -63.5 -123t-112.5 -43z" />
    <glyph glyph-name="Iogonek" unicode="&#x12e;" horiz-adv-x="379" 
d="M74 107l105 488q9 41 -2 52.5t-60 16.5l8 38h323l-8 -38q-53 -6 -68 -17.5t-23 -51.5l-104 -488q-9 -41 2 -52.5t60 -16.5l-9 -38h-114q-84 -52 -84 -107q0 -18 11.5 -30t31.5 -12q35 0 80 34l11 -17q-75 -82 -149 -82q-36 0 -59.5 19t-23.5 53q0 82 130 142h-157l9 38
q52 6 67 17t23 52z" />
    <glyph glyph-name="iogonek" unicode="&#x12f;" horiz-adv-x="326" 
d="M244 597q-38 0 -61.5 23.5t-23.5 56.5q0 37 25.5 63.5t66.5 26.5q38 0 62 -23t24 -57q0 -37 -26 -63.5t-67 -26.5zM29 76q0 35 11 83l71 282l-54 37l5 23l209 43h26l-103 -407q-8 -30 -8 -42q0 -15 14 -15q26 0 83 72l22 -18q-38 -51 -92 -101.5t-83 -81t-29 -59.5
q0 -19 11.5 -30t31.5 -11q36 0 80 34l11 -17q-75 -82 -149 -82q-36 0 -59.5 19t-23.5 53q0 71 111 133q-85 3 -85 85z" />
    <glyph glyph-name="Idotaccent" unicode="&#x130;" horiz-adv-x="379" 
d="M74 107l105 488q9 41 -2 52.5t-60 16.5l8 38h323l-8 -38q-53 -6 -68 -17.5t-23 -51.5l-104 -488q-9 -41 2 -52.5t60 -16.5l-9 -38h-323l9 38q52 6 67 17t23 52zM309 746q-36 0 -58.5 22t-22.5 54q0 36 24.5 61t63.5 25q36 0 58.5 -22t22.5 -54q0 -36 -24.5 -61t-63.5 -25
z" />
    <glyph glyph-name="dotlessi" unicode="&#x131;" horiz-adv-x="326" 
d="M40 159l71 282l-54 37l5 23l209 43h26l-103 -407q-8 -30 -8 -42q0 -15 14 -15q26 0 83 72l22 -18q-55 -77 -96 -110.5t-91 -33.5q-43 0 -66 24t-23 62q0 35 11 83z" />
    <glyph glyph-name="IJ" unicode="&#x132;" horiz-adv-x="906" 
d="M74 107l105 488q9 41 -2 52.5t-60 16.5l8 38h323l-8 -38q-53 -6 -68 -17.5t-23 -51.5l-104 -488q-9 -41 2 -52.5t60 -16.5l-9 -38h-323l9 38q52 6 67 17t23 52zM625 168l91 427q9 41 -2 52.5t-60 16.5l9 38h323l-9 -38q-52 -6 -67 -17t-24 -52l-84 -392
q-24 -114 -94 -163.5t-193 -49.5q-89 0 -143 34t-54 89q0 68 67 104h109q-28 -65 -28 -114q0 -32 14.5 -53t44.5 -21q40 0 62.5 33.5t37.5 105.5z" />
    <glyph glyph-name="ij" unicode="&#x133;" horiz-adv-x="590" 
d="M244 597q-38 0 -61.5 23.5t-23.5 56.5q0 37 25.5 63.5t66.5 26.5q38 0 62 -23t24 -57q0 -37 -26 -63.5t-67 -26.5zM40 159l71 282l-54 37l5 23l209 43h26l-103 -407q-8 -30 -8 -42q0 -15 14 -15q26 0 83 72l22 -18q-55 -77 -96 -110.5t-91 -33.5q-43 0 -66 24t-23 62
q0 35 11 83zM595 544l-105 -433q-42 -172 -110 -250t-172 -78q-53 0 -86.5 20.5t-33.5 57.5q0 32 20.5 50.5t51.5 22.5h27q0 -113 40 -113q24 0 38.5 36t40.5 146l104 438l-55 37l6 23l208 43h26zM539 597q-38 0 -62 23.5t-24 56.5q0 37 26 63.5t66 26.5q38 0 62 -23t24 -57
q0 -37 -25.5 -63.5t-66.5 -26.5z" />
    <glyph glyph-name="Jcircumflex" unicode="&#x134;" horiz-adv-x="562" 
d="M281 168l91 427q9 41 -2 52.5t-60 16.5l9 38h323l-9 -38q-52 -6 -67 -17t-24 -52l-84 -392q-24 -114 -94 -163.5t-193 -49.5q-89 0 -143 34t-54 89q0 68 67 104h109q-28 -65 -28 -114q0 -32 14.5 -53t44.5 -21q40 0 62.5 33.5t37.5 105.5zM574 900l79 -155h-48l-100 76
l-139 -76h-53l152 155h109z" />
    <glyph glyph-name="jcircumflex" unicode="&#x135;" horiz-adv-x="294" 
d="M298 544l-105 -433q-42 -172 -110 -250t-172 -78q-53 0 -86.5 20.5t-33.5 57.5q0 32 20.5 50.5t51.5 22.5h27q0 -113 40 -113q24 0 38.5 36t40.5 146l104 438l-55 37l6 23l208 43h26zM311 766l79 -171h-48l-100 91l-139 -91h-53l152 171h109z" />
    <glyph glyph-name="Kcommaaccent" unicode="&#x136;" horiz-adv-x="732" 
d="M326 -154h-56q-38 9 -38 45q0 31 22.5 51t60.5 20q37 0 57.5 -21t20.5 -55q0 -56 -42.5 -91.5t-129.5 -35.5l2 33q43 0 70.5 16t32.5 38zM460 408l142 -304q18 -34 36 -48.5t51 -17.5l-8 -38h-201q-31 31 -66 108l-109 235l289 249q36 32 36 48q0 12 -13 17.5t-52 6.5
l9 38h233l-8 -38q-32 -2 -52 -10.5t-45 -30.5zM349 595l-104 -488q-9 -41 2 -52.5t60 -16.5l-9 -38h-323l9 38q52 6 67 17t23 52l105 488q9 41 -2 52.5t-60 16.5l8 38h323l-8 -38q-53 -6 -68 -17.5t-23 -51.5z" />
    <glyph glyph-name="kcommaaccent" unicode="&#x137;" horiz-adv-x="592" 
d="M228 -154h-56q-38 9 -38 45q0 31 22.5 51t60.5 20q37 0 57.5 -21t20.5 -55q0 -56 -42.5 -91.5t-129.5 -35.5l2 33q43 0 70.5 16t32.5 38zM356 360l88 -212q13 -32 21.5 -44.5t22.5 -12.5t28 12.5t40 43.5l21 -18q-50 -74 -88.5 -106.5t-83.5 -32.5q-38 0 -60.5 23.5
t-40.5 73.5l-65 189l176 203q56 65 110 65q36 0 56.5 -22t20.5 -54q0 -62 -73 -90h-10q2 31 -11 50.5t-39 19.5q-23 0 -39 -11.5t-40 -38.5zM160 0h-159l170 686l-56 29l5 25l206 43h25z" />
    <glyph glyph-name="kgreenlandic" unicode="&#x138;" horiz-adv-x="599" 
d="M363 360l89 -212q12 -32 21 -44.5t23 -12.5q13 0 27.5 12.5t39.5 43.5l21 -18q-50 -74 -88.5 -106.5t-83.5 -32.5q-38 0 -60.5 23.5t-40.5 73.5l-65 189l176 203q57 65 110 65q36 0 56.5 -22t20.5 -54q0 -63 -73 -90h-10q2 31 -10.5 50.5t-39.5 19.5q-22 0 -38 -11.5
t-40 -38.5zM167 0h-159l111 441l-55 37l5 23l205 43h26z" />
    <glyph glyph-name="Lacute" unicode="&#x139;" horiz-adv-x="632" 
d="M356 894h162v-8l-196 -141h-44zM348 595l-103 -484q-8 -39 7.5 -53.5t61.5 -14.5h36q52 0 98.5 39t126.5 145h39l-84 -227h-555l9 38q52 6 67 17t23 52l105 488q9 41 -2 52.5t-60 16.5l8 38h323l-9 -38q-52 -6 -67 -17t-24 -52z" />
    <glyph glyph-name="lacute" unicode="&#x13a;" horiz-adv-x="316" 
d="M320 947h162v-8l-196 -141h-44zM344 783l-157 -646q-8 -38 -8 -42q0 -15 14 -15q26 0 83 72l22 -18q-55 -77 -96.5 -110.5t-91.5 -33.5q-42 0 -65 24t-23 62q0 40 11 83l131 527l-56 29l5 25l206 43h25z" />
    <glyph glyph-name="Lcommaaccent" unicode="&#x13b;" horiz-adv-x="632" 
d="M262 -154h-56q-38 9 -38 45q0 31 22.5 51t60.5 20q37 0 57.5 -21t20.5 -55q0 -56 -42.5 -91.5t-129.5 -35.5l2 33q43 0 70.5 16t32.5 38zM348 595l-103 -484q-8 -39 7.5 -53.5t61.5 -14.5h36q52 0 98.5 39t126.5 145h39l-84 -227h-555l9 38q52 6 67 17t23 52l105 488
q9 41 -2 52.5t-60 16.5l8 38h323l-9 -38q-52 -6 -67 -17t-24 -52z" />
    <glyph glyph-name="lcommaaccent" unicode="&#x13c;" horiz-adv-x="316" 
d="M90 -154h-56q-38 9 -38 45q0 31 22.5 51t60.5 20q37 0 57.5 -21t20.5 -55q0 -56 -42.5 -91.5t-129.5 -35.5l2 33q43 0 70.5 16t32.5 38zM344 783l-157 -646q-8 -38 -8 -42q0 -15 14 -15q26 0 83 72l22 -18q-55 -77 -96.5 -110.5t-91.5 -33.5q-42 0 -65 24t-23 62
q0 40 11 83l131 527l-56 29l5 25l206 43h25z" />
    <glyph glyph-name="Lcaron" unicode="&#x13d;" horiz-adv-x="632" 
d="M650 693l-155 -196h-33l58 205h132zM348 595l-103 -484q-8 -39 7.5 -53.5t61.5 -14.5h36q52 0 98.5 39t126.5 145h39l-84 -227h-555l9 38q52 6 67 17t23 52l105 488q9 41 -2 52.5t-60 16.5l8 38h323l-9 -38q-52 -6 -67 -17t-24 -52z" />
    <glyph glyph-name="lcaron" unicode="&#x13e;" horiz-adv-x="316" 
d="M531 774l-155 -196h-33l58 205h132zM344 783l-157 -646q-8 -38 -8 -42q0 -15 14 -15q26 0 83 72l22 -18q-55 -77 -96.5 -110.5t-91.5 -33.5q-42 0 -65 24t-23 62q0 40 11 83l131 527l-56 29l5 25l206 43h25z" />
    <glyph glyph-name="Ldot" unicode="&#x13f;" horiz-adv-x="632" 
d="M348 595l-103 -484q-8 -39 7.5 -53.5t61.5 -14.5h36q52 0 98.5 39t126.5 145h39l-84 -227h-555l9 38q52 6 67 17t23 52l105 488q9 41 -2 52.5t-60 16.5l8 38h323l-9 -38q-52 -6 -67 -17t-24 -52zM521 309q-36 0 -58.5 22t-22.5 54q0 35 24.5 60t63.5 25q36 0 58.5 -21.5
t22.5 -53.5q0 -36 -24.5 -61t-63.5 -25z" />
    <glyph glyph-name="ldot" unicode="&#x140;" horiz-adv-x="403" 
d="M344 783l-157 -646q-8 -38 -8 -42q0 -15 14 -15q26 0 83 72l22 -18q-55 -77 -96.5 -110.5t-91.5 -33.5q-42 0 -65 24t-23 62q0 40 11 83l131 527l-56 29l5 25l206 43h25zM365 306q-36 0 -58.5 22t-22.5 54q0 35 24.5 60t63.5 25q36 0 58.5 -21.5t22.5 -53.5
q0 -36 -24.5 -61t-63.5 -25z" />
    <glyph glyph-name="Lslash" unicode="&#x141;" horiz-adv-x="632" 
d="M429 393l-136 -54l-48 -228q-8 -39 7.5 -53.5t61.5 -14.5h36q52 0 98.5 39t126.5 145h39l-84 -227h-555l9 38q52 6 67 17t23 52l37 174l-82 -32l13 58l82 32l55 256q9 41 -2 52.5t-60 16.5l8 38h323l-9 -38q-52 -6 -67 -17t-24 -52l-42 -198l136 54z" />
    <glyph glyph-name="lslash" unicode="&#x142;" horiz-adv-x="328" 
d="M351 465l-89 -42l-69 -286q-8 -38 -8 -42q0 -15 14 -15q26 0 83 72l22 -18q-55 -77 -96 -110.5t-91 -33.5q-43 0 -66 24t-23 62q0 40 11 83l51 206l-74 -33l14 57l75 34l65 263l-56 29l6 25l205 43h25l-74 -303l89 42z" />
    <glyph glyph-name="Nacute" unicode="&#x143;" horiz-adv-x="748" 
d="M529 894h162v-8l-196 -141h-44zM594 247l74 348q8 39 -11 52t-80 17l9 38h240l-8 -38q-53 -6 -68 -17t-23 -52l-126 -597h-57l-317 544l-92 -435q-8 -39 10.5 -52t79.5 -17l-9 -38h-240l8 38q53 6 68 17t23 52l106 497q-18 34 -30 45.5t-39 14.5l9 38h217z" />
    <glyph glyph-name="nacute" unicode="&#x144;" horiz-adv-x="628" 
d="M458 764h160v-7l-203 -158h-44zM304 544l-67 -246q55 110 128.5 178t143.5 68q77 0 77 -81q0 -24 -8 -52l-75 -274q-8 -30 -8 -42q0 -15 14 -15q26 0 83 72l22 -18q-55 -77 -96 -110.5t-91 -33.5q-43 0 -67.5 24t-24.5 62q0 35 14 83l65 226q6 24 6 33q0 19 -17 19
q-39 0 -105.5 -92t-95.5 -207l-35 -138h-159l111 441l-55 37l5 23l210 43h25z" />
    <glyph glyph-name="Ncommaaccent" unicode="&#x145;" horiz-adv-x="748" 
d="M331 -154h-56q-38 9 -38 45q0 31 22.5 51t60.5 20q37 0 57.5 -21t20.5 -55q0 -56 -42.5 -91.5t-129.5 -35.5l2 33q43 0 70.5 16t32.5 38zM594 247l74 348q8 39 -11 52t-80 17l9 38h240l-8 -38q-53 -6 -68 -17t-23 -52l-126 -597h-57l-317 544l-92 -435q-8 -39 10.5 -52
t79.5 -17l-9 -38h-240l8 38q53 6 68 17t23 52l106 497q-18 34 -30 45.5t-39 14.5l9 38h217z" />
    <glyph glyph-name="ncommaaccent" unicode="&#x146;" horiz-adv-x="628" 
d="M258 -154h-56q-38 9 -38 45q0 31 22.5 51t60.5 20q37 0 57.5 -21t20.5 -55q0 -56 -42.5 -91.5t-129.5 -35.5l2 33q43 0 70.5 16t32.5 38zM304 544l-67 -246q55 110 128.5 178t143.5 68q77 0 77 -81q0 -24 -8 -52l-75 -274q-8 -30 -8 -42q0 -15 14 -15q26 0 83 72l22 -18
q-55 -77 -96 -110.5t-91 -33.5q-43 0 -67.5 24t-24.5 62q0 35 14 83l65 226q6 24 6 33q0 19 -17 19q-39 0 -105.5 -92t-95.5 -207l-35 -138h-159l111 441l-55 37l5 23l210 43h25z" />
    <glyph glyph-name="Ncaron" unicode="&#x147;" horiz-adv-x="748" 
d="M428 746l-79 154h48l100 -76l139 76h53l-152 -154h-109zM594 247l74 348q8 39 -11 52t-80 17l9 38h240l-8 -38q-53 -6 -68 -17t-23 -52l-126 -597h-57l-317 544l-92 -435q-8 -39 10.5 -52t79.5 -17l-9 -38h-240l8 38q53 6 68 17t23 52l106 497q-18 34 -30 45.5t-39 14.5
l9 38h217z" />
    <glyph glyph-name="ncaron" unicode="&#x148;" horiz-adv-x="628" 
d="M344 598l-79 171h48l100 -91l139 91h53l-152 -171h-109zM304 544l-67 -246q55 110 128.5 178t143.5 68q77 0 77 -81q0 -24 -8 -52l-75 -274q-8 -30 -8 -42q0 -15 14 -15q26 0 83 72l22 -18q-55 -77 -96 -110.5t-91 -33.5q-43 0 -67.5 24t-24.5 62q0 35 14 83l65 226
q6 24 6 33q0 19 -17 19q-39 0 -105.5 -92t-95.5 -207l-35 -138h-159l111 441l-55 37l5 23l210 43h25z" />
    <glyph glyph-name="Eng" unicode="&#x14a;" horiz-adv-x="748" 
d="M496 78l-269 464l-92 -435q-8 -39 10.5 -52t79.5 -17l-9 -38h-240l8 38q53 6 68 17t23 52l106 497q-18 34 -30 45.5t-39 14.5l9 38h217l256 -455l74 348q8 39 -11 52t-80 17l9 38h240l-8 -38q-53 -6 -68 -17t-23 -52l-104 -495q-26 -121 -81 -182t-186 -125l-13 18l49 51
q74 79 104 216z" />
    <glyph glyph-name="eng" unicode="&#x14b;" horiz-adv-x="601" 
d="M578 411l-82 -300q-47 -172 -116 -250t-172 -78q-54 0 -87.5 20.5t-33.5 57.5q0 32 21 50.5t52 22.5h27q-2 -113 40 -113q24 0 40.5 38t44.5 144l102 382q6 24 6 33q0 19 -17 19q-39 0 -105.5 -92t-95.5 -207l-35 -138h-159l111 441l-55 37l5 23l210 43h25l-67 -246
q55 110 128.5 178t143.5 68q77 0 77 -81q0 -24 -8 -52z" />
    <glyph glyph-name="Omacron" unicode="&#x14c;" horiz-adv-x="741" 
d="M341 757l16 77h285l-16 -77h-285zM455 712q133 0 209 -79t76 -199q0 -111 -50 -211.5t-147 -166.5t-219 -66q-132 0 -208 79t-76 199q0 82 29.5 161.5t82 142.5t132 101.5t171.5 38.5zM452 667q-54 0 -100 -47t-74.5 -117t-44.5 -145.5t-16 -138.5q0 -184 111 -184
q54 0 100 47t74.5 117t44.5 145.5t16 138.5q0 184 -111 184z" />
    <glyph glyph-name="omacron" unicode="&#x14d;" horiz-adv-x="553" 
d="M218 624l16 77h277l-16 -77h-277zM173 127q0 -99 50 -99q38 0 75.5 65.5t59.5 153.5t22 160q0 99 -50 99q-38 0 -75.5 -65.5t-59.5 -153.5t-22 -160zM533 342q0 -88 -40.5 -168.5t-114 -132t-160.5 -51.5q-91 0 -144.5 53.5t-53.5 148.5q0 136 92 244t223 108
q90 0 144 -53.5t54 -148.5z" />
    <glyph glyph-name="Obreve" unicode="&#x14e;" horiz-adv-x="741" 
d="M485 742q-65 0 -95 39.5t-13 116.5h41q-8 -74 83 -74q90 0 117 74h43q-18 -78 -63.5 -117t-112.5 -39zM455 712q133 0 209 -79t76 -199q0 -111 -50 -211.5t-147 -166.5t-219 -66q-132 0 -208 79t-76 199q0 82 29.5 161.5t82 142.5t132 101.5t171.5 38.5zM452 667
q-54 0 -100 -47t-74.5 -117t-44.5 -145.5t-16 -138.5q0 -184 111 -184q54 0 100 47t74.5 117t44.5 145.5t16 138.5q0 184 -111 184z" />
    <glyph glyph-name="obreve" unicode="&#x14f;" horiz-adv-x="553" 
d="M173 127q0 -99 50 -99q38 0 75.5 65.5t59.5 153.5t22 160q0 99 -50 99q-38 0 -75.5 -65.5t-59.5 -153.5t-22 -160zM533 342q0 -88 -40.5 -168.5t-114 -132t-160.5 -51.5q-91 0 -144.5 53.5t-53.5 148.5q0 136 92 244t223 108q90 0 144 -53.5t54 -148.5zM350 597
q-67 0 -95 43.5t-9 122.5h41q-9 -80 80 -80t117 80h42q-19 -80 -63.5 -123t-112.5 -43z" />
    <glyph glyph-name="Ohungarumlaut" unicode="&#x150;" horiz-adv-x="741" 
d="M455 712q133 0 209 -79t76 -199q0 -111 -50 -211.5t-147 -166.5t-219 -66q-132 0 -208 79t-76 199q0 82 29.5 161.5t82 142.5t132 101.5t171.5 38.5zM452 667q-54 0 -100 -47t-74.5 -117t-44.5 -145.5t-16 -138.5q0 -184 111 -184q54 0 100 47t74.5 117t44.5 145.5
t16 138.5q0 184 -111 184zM440 894h139l-1 -8l-170 -141h-44zM610 894h140l-2 -8l-169 -141h-45z" />
    <glyph glyph-name="ohungarumlaut" unicode="&#x151;" horiz-adv-x="553" 
d="M311 764h137l-2 -8l-184 -157h-45zM482 764h136l-1 -8l-185 -157h-44zM173 127q0 -99 50 -99q38 0 75.5 65.5t59.5 153.5t22 160q0 99 -50 99q-38 0 -75.5 -65.5t-59.5 -153.5t-22 -160zM533 342q0 -88 -40.5 -168.5t-114 -132t-160.5 -51.5q-91 0 -144.5 53.5
t-53.5 148.5q0 136 92 244t223 108q90 0 144 -53.5t54 -148.5z" />
    <glyph glyph-name="OE" unicode="&#x152;" horiz-adv-x="1024" 
d="M401 43h37l132 616h-71q-120 0 -202.5 -121t-82.5 -278q0 -108 44.5 -162.5t142.5 -54.5zM918 0h-543q-151 0 -243 74.5t-92 208.5q0 187 131 303t325 116h563l-35 -187h-32q-19 87 -42 115.5t-85 28.5h-126l-58 -272h109q33 0 51 20t37 72h39l-50 -233h-39q4 51 -6 71
t-43 20h-108l-49 -226q-9 -39 8.5 -53.5t63.5 -14.5h45q60 0 97.5 31.5t117.5 134.5h40z" />
    <glyph glyph-name="oe" unicode="&#x153;" horiz-adv-x="819" 
d="M335 544q101 0 156 -85q92 85 192 85q69 0 105.5 -31t36.5 -79q0 -43 -23.5 -75.5t-68.5 -54.5t-96.5 -36.5t-122.5 -26.5q-1 -9 -1 -25q0 -66 28 -101.5t77 -35.5q74 0 146 86l22 -19q-103 -156 -248 -156q-90 0 -138 78q-87 -78 -182 -78q-90 0 -144 53.5t-54 148.5
q0 88 40.5 168.5t114 132t160.5 51.5zM173 127q0 -99 51 -99q38 0 75 65.5t59 154t22 159.5q0 99 -50 99q-38 0 -75.5 -65.5t-59.5 -154t-22 -159.5zM666 506q-49 0 -91.5 -73t-56.5 -162q188 45 188 184q0 51 -40 51z" />
    <glyph glyph-name="Racute" unicode="&#x154;" horiz-adv-x="728" 
d="M397 657h-36l-66 -315h35q85 0 138.5 49.5t53.5 144.5q0 55 -30.5 88t-94.5 33zM285 296l-41 -189q-9 -41 2 -52.5t60 -16.5l-8 -38h-323l9 38q52 6 67 17t23 52l105 488q9 41 -2 52.5t-60 16.5l8 38h343q113 0 168.5 -47t55.5 -121q0 -46 -21 -85t-54 -64t-65.5 -40.5
t-64.5 -22.5l103 -202q24 -47 43 -64t54 -18l-7 -38h-199q-31 27 -62 102l-85 194h-49zM476 894h162v-8l-196 -141h-44z" />
    <glyph glyph-name="racute" unicode="&#x155;" horiz-adv-x="467" 
d="M395 764h160v-7l-203 -158h-44zM304 544l-44 -158l-45 -141q82 169 128.5 234t97.5 65q31 0 48.5 -19.5t17.5 -52.5q0 -40 -24.5 -71.5t-61.5 -47.5h-8q0 46 -36 46q-55 0 -114 -112t-96 -287h-159l111 441l-55 37l5 23l210 43h25z" />
    <glyph glyph-name="Rcommaaccent" unicode="&#x156;" horiz-adv-x="728" 
d="M314 -154h-56q-38 9 -38 45q0 31 22.5 51t60.5 20q37 0 57.5 -21t20.5 -55q0 -56 -42.5 -91.5t-129.5 -35.5l2 33q43 0 70.5 16t32.5 38zM397 657h-36l-66 -315h35q85 0 138.5 49.5t53.5 144.5q0 55 -30.5 88t-94.5 33zM285 296l-41 -189q-9 -41 2 -52.5t60 -16.5l-8 -38
h-323l9 38q52 6 67 17t23 52l105 488q9 41 -2 52.5t-60 16.5l8 38h343q113 0 168.5 -47t55.5 -121q0 -46 -21 -85t-54 -64t-65.5 -40.5t-64.5 -22.5l103 -202q24 -47 43 -64t54 -18l-7 -38h-199q-31 27 -62 102l-85 194h-49z" />
    <glyph glyph-name="rcommaaccent" unicode="&#x157;" horiz-adv-x="467" 
d="M77 -154h-56q-38 9 -38 45q0 31 22.5 51t60.5 20q37 0 57.5 -21t20.5 -55q0 -56 -42.5 -91.5t-129.5 -35.5l2 33q43 0 70.5 16t32.5 38zM304 544l-44 -158l-45 -141q82 169 128.5 234t97.5 65q31 0 48.5 -19.5t17.5 -52.5q0 -40 -24.5 -71.5t-61.5 -47.5h-8q0 46 -36 46
q-55 0 -114 -112t-96 -287h-159l111 441l-55 37l5 23l210 43h25z" />
    <glyph glyph-name="Rcaron" unicode="&#x158;" horiz-adv-x="728" 
d="M368 746l-79 154h48l100 -76l139 76h53l-152 -154h-109zM397 657h-36l-66 -315h35q85 0 138.5 49.5t53.5 144.5q0 55 -30.5 88t-94.5 33zM285 296l-41 -189q-9 -41 2 -52.5t60 -16.5l-8 -38h-323l9 38q52 6 67 17t23 52l105 488q9 41 -2 52.5t-60 16.5l8 38h343
q113 0 168.5 -47t55.5 -121q0 -46 -21 -85t-54 -64t-65.5 -40.5t-64.5 -22.5l103 -202q24 -47 43 -64t54 -18l-7 -38h-199q-31 27 -62 102l-85 194h-49z" />
    <glyph glyph-name="rcaron" unicode="&#x159;" horiz-adv-x="467" 
d="M281 598l-79 171h48l100 -91l139 91h53l-152 -171h-109zM304 544l-44 -158l-45 -141q82 169 128.5 234t97.5 65q31 0 48.5 -19.5t17.5 -52.5q0 -40 -24.5 -71.5t-61.5 -47.5h-8q0 46 -36 46q-55 0 -114 -112t-96 -287h-159l111 441l-55 37l5 23l210 43h25z" />
    <glyph glyph-name="Sacute" unicode="&#x15a;" horiz-adv-x="572" 
d="M531 228q0 -112 -84 -175t-209 -63q-76 0 -138.5 24.5t-95.5 56.5l30 170h41q2 -96 47.5 -150.5t125.5 -54.5q58 0 94 31t36 87q0 44 -28.5 71.5t-102.5 63.5q-75 36 -114 80.5t-39 112.5q0 104 74 167t198 63q64 0 120 -19.5t91 -50.5l-31 -150h-39q-1 83 -38 129.5
t-112 46.5q-53 0 -84.5 -32t-31.5 -82q0 -42 24 -67.5t85 -55.5q85 -41 133 -87t48 -116zM444 894h162v-8l-196 -141h-44z" />
    <glyph glyph-name="sacute" unicode="&#x15b;" horiz-adv-x="433" 
d="M352 764h160v-7l-203 -158h-44zM201 29q28 0 44 14.5t16 40.5q0 20 -20 45t-48.5 50.5t-57.5 53.5t-49 62.5t-20 69.5q0 74 61 126.5t149 52.5q63 0 103.5 -24.5t40.5 -70.5q0 -26 -19.5 -44t-44.5 -25h-8q-14 53 -44 88.5t-70 35.5q-26 0 -40.5 -14.5t-14.5 -38.5
q0 -18 21 -42.5t50.5 -50.5t59.5 -55t51 -64t21 -68q0 -78 -62.5 -129.5t-149.5 -51.5q-78 0 -127.5 32t-49.5 83q0 58 65 81h7q15 -72 50 -114.5t86 -42.5z" />
    <glyph glyph-name="Scircumflex" unicode="&#x15c;" horiz-adv-x="572" 
d="M531 228q0 -112 -84 -175t-209 -63q-76 0 -138.5 24.5t-95.5 56.5l30 170h41q2 -96 47.5 -150.5t125.5 -54.5q58 0 94 31t36 87q0 44 -28.5 71.5t-102.5 63.5q-75 36 -114 80.5t-39 112.5q0 104 74 167t198 63q64 0 120 -19.5t91 -50.5l-31 -150h-39q-1 83 -38 129.5
t-112 46.5q-53 0 -84.5 -32t-31.5 -82q0 -42 24 -67.5t85 -55.5q85 -41 133 -87t48 -116zM474 900l79 -155h-48l-100 76l-139 -76h-53l152 155h109z" />
    <glyph glyph-name="scircumflex" unicode="&#x15d;" horiz-adv-x="433" 
d="M390 766l79 -171h-48l-100 91l-139 -91h-53l152 171h109zM201 29q28 0 44 14.5t16 40.5q0 20 -20 45t-48.5 50.5t-57.5 53.5t-49 62.5t-20 69.5q0 74 61 126.5t149 52.5q63 0 103.5 -24.5t40.5 -70.5q0 -26 -19.5 -44t-44.5 -25h-8q-14 53 -44 88.5t-70 35.5
q-26 0 -40.5 -14.5t-14.5 -38.5q0 -18 21 -42.5t50.5 -50.5t59.5 -55t51 -64t21 -68q0 -78 -62.5 -129.5t-149.5 -51.5q-78 0 -127.5 32t-49.5 83q0 58 65 81h7q15 -72 50 -114.5t86 -42.5z" />
    <glyph glyph-name="Scedilla" unicode="&#x15e;" horiz-adv-x="572" 
d="M104 -228l-8 32q55 0 87 15t32 37q0 18 -19 25.5t-60 9.5l51 103q-59 7 -107.5 29t-75.5 48l30 170h41q2 -96 47.5 -150.5t125.5 -54.5q58 0 94 31t36 87q0 44 -28.5 71.5t-102.5 63.5q-75 36 -114 80.5t-39 112.5q0 104 74 167t198 63q64 0 120 -19.5t91 -50.5l-31 -150
h-39q-1 83 -38 129.5t-112 46.5q-53 0 -84.5 -32t-31.5 -82q0 -42 24 -67.5t85 -55.5q85 -41 133 -87t48 -116q0 -112 -84 -175t-209 -63q-12 0 -18 1l-17 -33q94 -7 94 -76q0 -53 -54 -81.5t-139 -28.5z" />
    <glyph glyph-name="scedilla" unicode="&#x15f;" horiz-adv-x="433" 
d="M37 -228l-8 32q55 0 87 15t32 37q0 18 -19 25.5t-60 9.5l52 103q-58 8 -93 38t-35 73q0 58 65 81h7q15 -72 50 -114.5t86 -42.5q28 0 44 14.5t16 40.5q0 20 -20 45t-48.5 50.5t-57.5 53.5t-49 62.5t-20 69.5q0 74 61 126.5t149 52.5q63 0 103.5 -24.5t40.5 -70.5
q0 -26 -19.5 -44t-44.5 -25h-8q-14 53 -44 88.5t-70 35.5q-26 0 -40.5 -14.5t-14.5 -38.5q0 -18 21 -42.5t50.5 -50.5t59.5 -55t51 -64t21 -68q0 -78 -62.5 -129.5t-149.5 -51.5q-12 0 -17 1l-17 -33q94 -7 94 -76q0 -53 -54 -81.5t-139 -28.5z" />
    <glyph glyph-name="Scaron" unicode="&#x160;" horiz-adv-x="572" 
d="M531 228q0 -112 -84 -175t-209 -63q-76 0 -138.5 24.5t-95.5 56.5l30 170h41q2 -96 47.5 -150.5t125.5 -54.5q58 0 94 31t36 87q0 44 -28.5 71.5t-102.5 63.5q-75 36 -114 80.5t-39 112.5q0 104 74 167t198 63q64 0 120 -19.5t91 -50.5l-31 -150h-39q-1 83 -38 129.5
t-112 46.5q-53 0 -84.5 -32t-31.5 -82q0 -42 24 -67.5t85 -55.5q85 -41 133 -87t48 -116zM336 746l-79 154h48l100 -76l139 76h53l-152 -154h-109z" />
    <glyph glyph-name="scaron" unicode="&#x161;" horiz-adv-x="433" 
d="M246 598l-79 171h48l100 -91l139 91h53l-152 -171h-109zM201 29q28 0 44 14.5t16 40.5q0 20 -20 45t-48.5 50.5t-57.5 53.5t-49 62.5t-20 69.5q0 74 61 126.5t149 52.5q63 0 103.5 -24.5t40.5 -70.5q0 -26 -19.5 -44t-44.5 -25h-8q-14 53 -44 88.5t-70 35.5
q-26 0 -40.5 -14.5t-14.5 -38.5q0 -18 21 -42.5t50.5 -50.5t59.5 -55t51 -64t21 -68q0 -78 -62.5 -129.5t-149.5 -51.5q-78 0 -127.5 32t-49.5 83q0 58 65 81h7q15 -72 50 -114.5t86 -42.5z" />
    <glyph glyph-name="Tcedilla" unicode="&#x162;" horiz-adv-x="700" 
d="M284 -154h-56q-38 9 -38 45q0 31 22.5 51t60.5 20q37 0 57.5 -21t20.5 -55q0 -56 -42.5 -91.5t-129.5 -35.5l2 33q43 0 70.5 16t32.5 38zM522 664l-119 -560q-9 -39 5 -49.5t68 -16.5l-8 -38h-343l8 38q57 6 74 16.5t26 49.5l119 560h-43q-51 0 -87.5 -38t-120.5 -165
h-38l66 241h632l-37 -241h-36q-28 131 -42 159q-27 42 -71 44h-53z" />
    <glyph glyph-name="tcedilla" unicode="&#x163;" horiz-adv-x="377" 
d="M110 -154h-56q-38 9 -38 45q0 31 22.5 51t60.5 20q37 0 57.5 -21t20.5 -55q0 -56 -42.5 -91.5t-129.5 -35.5l2 33q43 0 70.5 16t32.5 38zM278 472l-80 -318q-8 -31 -8 -50q0 -28 25 -28q45 0 121 88l23 -17q-113 -157 -221 -157q-48 0 -76 28t-28 72q0 34 9 71l77 311
h-62l8 31q129 41 221 160h37l-34 -142h110l-12 -49h-110z" />
    <glyph glyph-name="Tcaron" unicode="&#x164;" horiz-adv-x="700" 
d="M400 746l-79 154h48l100 -76l139 76h53l-152 -154h-109zM522 664l-119 -560q-9 -39 5 -49.5t68 -16.5l-8 -38h-343l8 38q57 6 74 16.5t26 49.5l119 560h-43q-51 0 -87.5 -38t-120.5 -165h-38l66 241h632l-37 -241h-36q-28 131 -42 159q-27 42 -71 44h-53z" />
    <glyph glyph-name="tcaron" unicode="&#x165;" horiz-adv-x="377" 
d="M519 752l-155 -196h-33l58 205h132zM278 472l-80 -318q-8 -31 -8 -50q0 -28 25 -28q45 0 121 88l23 -17q-113 -157 -221 -157q-48 0 -76 28t-28 72q0 34 9 71l77 311h-62l8 31q129 41 221 160h37l-34 -142h110l-12 -49h-110z" />
    <glyph glyph-name="Tbar" unicode="&#x166;" horiz-adv-x="700" 
d="M179 330l11 55h102l60 279h-43q-51 0 -87.5 -38t-120.5 -165h-38l66 241h632l-37 -241h-36q-28 131 -42 159q-27 42 -71 44h-53l-60 -279h113l-11 -55h-113l-48 -226q-9 -39 5 -49.5t68 -16.5l-8 -38h-343l8 38q57 6 74 16.5t26 49.5l48 226h-102z" />
    <glyph glyph-name="tbar" unicode="&#x167;" horiz-adv-x="394" 
d="M286 472l-24 -94h117l-11 -49h-118l-44 -175q-8 -31 -8 -50q0 -28 25 -28q45 0 122 88l23 -17q-114 -157 -222 -157q-48 0 -76 28t-28 72q0 34 9 71l42 168h-58l11 49h59l24 94h-63l8 31q63 20 122 63.5t100 96.5h36l-34 -142h110l-12 -49h-110z" />
    <glyph glyph-name="Utilde" unicode="&#x168;" horiz-adv-x="741" 
d="M591 746q-32 0 -70.5 29.5t-58.5 29.5q-34 0 -72 -56l-30 17q36 70 63 99.5t64 29.5q32 0 70.5 -29.5t58.5 -29.5q34 0 71 56l31 -17q-36 -70 -63 -99.5t-64 -29.5zM597 263l70 332q9 40 -4.5 52t-71.5 17l9 38h226l-8 -38q-53 -6 -68 -17.5t-23 -51.5l-75 -351
q-27 -127 -105.5 -190.5t-199.5 -63.5q-140 0 -210 79t-41 212l67 314q9 41 -2 52.5t-60 16.5l8 38h323l-8 -38q-53 -6 -68 -17.5t-23 -51.5l-69 -322q-20 -91 14.5 -149t118.5 -58q81 0 129 46t71 151z" />
    <glyph glyph-name="utilde" unicode="&#x169;" horiz-adv-x="629" 
d="M403 399l31 127l164 9l-99 -398q-9 -36 -9 -42q0 -15 14 -15q26 0 83 72l22 -18q-55 -77 -96 -110.5t-91 -33.5q-43 0 -67 23.5t-24 64.5q0 38 31 146q-53 -109 -116 -171.5t-125 -62.5q-43 0 -67.5 26.5t-24.5 67.5q0 23 8 57l76 300l-55 37l5 23l210 43h25l-98 -385
q-8 -30 -8 -43q0 -23 20 -23q39 0 100.5 93.5t90.5 212.5zM449 603q-32 0 -70.5 29t-58.5 29q-34 0 -72 -56l-30 18q36 70 63 99.5t64 29.5q32 0 70.5 -29.5t58.5 -29.5q34 0 71 56l31 -17q-35 -70 -62.5 -99.5t-64.5 -29.5z" />
    <glyph glyph-name="Umacron" unicode="&#x16a;" horiz-adv-x="741" 
d="M382 757l16 77h285l-16 -77h-285zM597 263l70 332q9 40 -4.5 52t-71.5 17l9 38h226l-8 -38q-53 -6 -68 -17.5t-23 -51.5l-75 -351q-27 -127 -105.5 -190.5t-199.5 -63.5q-140 0 -210 79t-41 212l67 314q9 41 -2 52.5t-60 16.5l8 38h323l-8 -38q-53 -6 -68 -17.5
t-23 -51.5l-69 -322q-20 -91 14.5 -149t118.5 -58q81 0 129 46t71 151z" />
    <glyph glyph-name="umacron" unicode="&#x16b;" horiz-adv-x="629" 
d="M403 399l31 127l164 9l-99 -398q-9 -36 -9 -42q0 -15 14 -15q26 0 83 72l22 -18q-55 -77 -96 -110.5t-91 -33.5q-43 0 -67 23.5t-24 64.5q0 38 31 146q-53 -109 -116 -171.5t-125 -62.5q-43 0 -67.5 26.5t-24.5 67.5q0 23 8 57l76 300l-55 37l5 23l210 43h25l-98 -385
q-8 -30 -8 -43q0 -23 20 -23q39 0 100.5 93.5t90.5 212.5zM247 624l16 77h277l-16 -77h-277z" />
    <glyph glyph-name="Ubreve" unicode="&#x16c;" horiz-adv-x="741" 
d="M526 742q-65 0 -95 39.5t-13 116.5h41q-8 -74 83 -74q90 0 117 74h43q-18 -78 -63.5 -117t-112.5 -39zM597 263l70 332q9 40 -4.5 52t-71.5 17l9 38h226l-8 -38q-53 -6 -68 -17.5t-23 -51.5l-75 -351q-27 -127 -105.5 -190.5t-199.5 -63.5q-140 0 -210 79t-41 212l67 314
q9 41 -2 52.5t-60 16.5l8 38h323l-8 -38q-53 -6 -68 -17.5t-23 -51.5l-69 -322q-20 -91 14.5 -149t118.5 -58q81 0 129 46t71 151z" />
    <glyph glyph-name="ubreve" unicode="&#x16d;" horiz-adv-x="629" 
d="M403 399l31 127l164 9l-99 -398q-9 -36 -9 -42q0 -15 14 -15q26 0 83 72l22 -18q-55 -77 -96 -110.5t-91 -33.5q-43 0 -67 23.5t-24 64.5q0 38 31 146q-53 -109 -116 -171.5t-125 -62.5q-43 0 -67.5 26.5t-24.5 67.5q0 23 8 57l76 300l-55 37l5 23l210 43h25l-98 -385
q-8 -30 -8 -43q0 -23 20 -23q39 0 100.5 93.5t90.5 212.5zM378 597q-67 0 -95 43.5t-9 122.5h41q-9 -80 80 -80t117 80h42q-19 -80 -63.5 -123t-112.5 -43z" />
    <glyph glyph-name="Uring" unicode="&#x16e;" horiz-adv-x="741" 
d="M597 263l70 332q9 40 -4.5 52t-71.5 17l9 38h226l-8 -38q-53 -6 -68 -17.5t-23 -51.5l-75 -351q-27 -127 -105.5 -190.5t-199.5 -63.5q-140 0 -210 79t-41 212l67 314q9 41 -2 52.5t-60 16.5l8 38h323l-8 -38q-53 -6 -68 -17.5t-23 -51.5l-69 -322q-20 -91 14.5 -149
t118.5 -58q81 0 129 46t71 151zM590 832q0 21 -12.5 34t-34.5 13q-26 0 -40.5 -17t-14.5 -42q0 -22 12.5 -34.5t34.5 -12.5q26 0 40.5 17t14.5 42zM440 818q0 45 29.5 75t74.5 30q42 0 68 -25.5t26 -64.5q0 -44 -29.5 -74t-74.5 -30q-42 0 -68 25t-26 64z" />
    <glyph glyph-name="uring" unicode="&#x16f;" horiz-adv-x="629" 
d="M446 678q0 21 -12.5 34t-34.5 13q-26 0 -40.5 -17t-14.5 -42q0 -22 12.5 -34.5t34.5 -12.5q26 0 40.5 17t14.5 42zM296 664q0 45 29.5 75t74.5 30q42 0 68 -25.5t26 -64.5q0 -44 -29.5 -74t-74.5 -30q-42 0 -68 25t-26 64zM403 399l31 127l164 9l-99 -398q-9 -36 -9 -42
q0 -15 14 -15q26 0 83 72l22 -18q-55 -77 -96 -110.5t-91 -33.5q-43 0 -67 23.5t-24 64.5q0 38 31 146q-53 -109 -116 -171.5t-125 -62.5q-43 0 -67.5 26.5t-24.5 67.5q0 23 8 57l76 300l-55 37l5 23l210 43h25l-98 -385q-8 -30 -8 -43q0 -23 20 -23q39 0 100.5 93.5
t90.5 212.5z" />
    <glyph glyph-name="Uhungarumlaut" unicode="&#x170;" horiz-adv-x="741" 
d="M597 263l70 332q9 40 -4.5 52t-71.5 17l9 38h226l-8 -38q-53 -6 -68 -17.5t-23 -51.5l-75 -351q-27 -127 -105.5 -190.5t-199.5 -63.5q-140 0 -210 79t-41 212l67 314q9 41 -2 52.5t-60 16.5l8 38h323l-8 -38q-53 -6 -68 -17.5t-23 -51.5l-69 -322q-20 -91 14.5 -149
t118.5 -58q81 0 129 46t71 151zM482 894h139l-1 -8l-170 -141h-44zM652 894h140l-2 -8l-169 -141h-45z" />
    <glyph glyph-name="uhungarumlaut" unicode="&#x171;" horiz-adv-x="629" 
d="M403 399l31 127l164 9l-99 -398q-9 -36 -9 -42q0 -15 14 -15q26 0 83 72l22 -18q-55 -77 -96 -110.5t-91 -33.5q-43 0 -67 23.5t-24 64.5q0 38 31 146q-53 -109 -116 -171.5t-125 -62.5q-43 0 -67.5 26.5t-24.5 67.5q0 23 8 57l76 300l-55 37l5 23l210 43h25l-98 -385
q-8 -30 -8 -43q0 -23 20 -23q39 0 100.5 93.5t90.5 212.5zM339 764h137l-2 -8l-184 -157h-45zM510 764h136l-1 -8l-185 -157h-44z" />
    <glyph glyph-name="Uogonek" unicode="&#x172;" horiz-adv-x="741" 
d="M597 263l70 332q9 40 -4.5 52t-71.5 17l9 38h226l-8 -38q-53 -6 -68 -17.5t-23 -51.5l-75 -351q-37 -175 -172 -230q-108 -58 -108 -121q0 -18 11.5 -30t31.5 -12q36 0 80 34l11 -17q-75 -82 -149 -82q-36 0 -59.5 19t-23.5 53q0 75 116 135q-21 -3 -43 -3
q-140 0 -210 79t-41 212l67 314q9 41 -2 52.5t-60 16.5l8 38h323l-8 -38q-53 -6 -68 -17.5t-23 -51.5l-69 -322q-20 -91 14.5 -149t118.5 -58q81 0 129 46t71 151z" />
    <glyph glyph-name="uogonek" unicode="&#x173;" horiz-adv-x="629" 
d="M331 78q0 38 31 146q-53 -109 -116 -171.5t-125 -62.5q-43 0 -67.5 26.5t-24.5 67.5q0 25 8 57l74 300l-54 37l5 23l209 43h26l-98 -389q-7 -28 -7 -39q0 -23 20 -23q39 0 100.5 93.5t90.5 212.5l31 127l164 9l-99 -398q-9 -34 -9 -42q0 -15 14 -15q26 0 83 72l22 -18
q-38 -51 -92 -101.5t-83 -81t-29 -59.5q0 -19 11.5 -30t31.5 -11q36 0 80 34l11 -17q-73 -82 -149 -82q-36 0 -59 19t-23 53q0 71 111 133q-42 1 -65 24t-23 63z" />
    <glyph glyph-name="Wcircumflex" unicode="&#x174;" horiz-adv-x="966" 
d="M666 573l40 -349l189 343q23 44 23 63q0 16 -13 24.5t-52 9.5l8 38h200l-9 -38q-26 -3 -41 -10.5t-25 -26.5l-356 -632h-49l-52 406l-234 -406h-50l-103 632q-4 28 -50 37l8 38h299l-8 -38q-41 -3 -57 -14.5t-16 -37.5q0 -18 3 -39l53 -352l146 254l-19 152q-2 17 -13 25
t-32 12l8 38h281l-8 -38q-42 -4 -57.5 -15.5t-15.5 -38.5q0 -13 2 -37zM683 900l79 -155h-48l-100 76l-139 -76h-53l152 155h109z" />
    <glyph glyph-name="wcircumflex" unicode="&#x175;" horiz-adv-x="761" 
d="M350 448l-52 32l6 20l182 44h14l27 -398l68 83q68 82 68 156q0 41 -25 62.5t-68 19.5l1 12q43 65 110 65q46 0 67.5 -27t21.5 -69q0 -50 -31.5 -100t-99.5 -128l-202 -226h-43l-25 249l-204 -249h-44l-43 454l-57 34l7 20l186 42h14l27 -389l110 136zM550 766l79 -171
h-48l-100 91l-139 -91h-53l152 171h109z" />
    <glyph glyph-name="Ycircumflex" unicode="&#x176;" horiz-adv-x="675" 
d="M431 268l-35 -164q-9 -39 5 -49.5t68 -16.5l-8 -38h-338l8 38q57 6 74 16.5t26 49.5l34 160l-123 363q-6 19 -16.5 26t-33.5 11l8 38h312l-8 -38q-47 -2 -65.5 -12t-18.5 -33q0 -15 12 -51l83 -241l179 244q32 45 32 62q0 30 -68 31l8 38h204l-9 -38q-44 -8 -66 -37z
M576 900l79 -155h-48l-100 76l-139 -76h-53l152 155h109z" />
    <glyph glyph-name="ycircumflex" unicode="&#x177;" horiz-adv-x="522" 
d="M73 448l-58 34l7 20l182 42h14l83 -461l15 21q64 91 86.5 149.5t22.5 116.5q0 51 -28 75t-73 22l1 12q41 65 107 65q48 0 72 -29t24 -74q0 -62 -46.5 -146t-144.5 -222q-116 -163 -193 -226.5t-152 -63.5q-44 0 -73.5 22.5t-29.5 63.5q0 30 19.5 52.5t50.5 31.5h14
q0 -99 75 -99q61 0 130 73zM425 766l79 -171h-48l-100 91l-139 -91h-53l152 171h109z" />
    <glyph glyph-name="Ydieresis" unicode="&#x178;" horiz-adv-x="675" 
d="M431 268l-35 -164q-9 -39 5 -49.5t68 -16.5l-8 -38h-338l8 38q57 6 74 16.5t26 49.5l34 160l-123 363q-6 19 -16.5 26t-33.5 11l8 38h312l-8 -38q-47 -2 -65.5 -12t-18.5 -33q0 -15 12 -51l83 -241l179 244q32 45 32 62q0 30 -68 31l8 38h204l-9 -38q-44 -8 -66 -37z
M405 745q-34 0 -54.5 21t-20.5 52q0 34 22.5 58t58.5 24q34 0 54.5 -21t20.5 -52q0 -34 -23 -58t-58 -24zM605 745q-34 0 -54.5 21t-20.5 52q0 34 22.5 58t58.5 24q34 0 54.5 -21t20.5 -52q0 -34 -22.5 -58t-58.5 -24z" />
    <glyph glyph-name="Zacute" unicode="&#x179;" horiz-adv-x="630" 
d="M180 43h149q61 0 104.5 34.5t129.5 145.5h39l-82 -223h-549l6 30l505 629h-142q-23 0 -39.5 -2.5t-34 -14t-27.5 -18.5t-29.5 -33.5t-29.5 -40.5t-38 -57h-37l53 209h534l-7 -30zM494 894h162v-8l-196 -141h-44z" />
    <glyph glyph-name="zacute" unicode="&#x17a;" horiz-adv-x="498" 
d="M405 764h160v-7l-203 -158h-44zM355 399h-184q-22 0 -32.5 -6.5t-26.5 -27.5l-25 -34l-19 7l78 231h21q5 -39 25 -39h345v-19l-377 -337l89 -32q56 -18 91 -18q31 0 58 17t57 66l18 -9q-38 -120 -81.5 -166.5t-111.5 -46.5q-58 0 -141 44l-96 51l-32 -83q-44 -1 -44 31
q0 24 24 47z" />
    <glyph glyph-name="Zdotaccent" unicode="&#x17b;" horiz-adv-x="630" 
d="M453 746q-36 0 -58.5 22t-22.5 54q0 36 24.5 61t63.5 25q36 0 58.5 -22t22.5 -54q0 -36 -24.5 -61t-63.5 -25zM180 43h149q61 0 104.5 34.5t129.5 145.5h39l-82 -223h-549l6 30l505 629h-142q-23 0 -39.5 -2.5t-34 -14t-27.5 -18.5t-29.5 -33.5t-29.5 -40.5t-38 -57h-37
l53 209h534l-7 -30z" />
    <glyph glyph-name="zdotaccent" unicode="&#x17c;" horiz-adv-x="498" 
d="M355 399h-184q-22 0 -32.5 -6.5t-26.5 -27.5l-25 -34l-19 7l78 231h21q5 -39 25 -39h345v-19l-377 -337l89 -32q56 -18 91 -18q31 0 58 17t57 66l18 -9q-38 -120 -81.5 -166.5t-111.5 -46.5q-58 0 -141 44l-96 51l-32 -83q-44 -1 -44 31q0 24 24 47zM357 601
q-36 0 -58.5 22t-22.5 54q0 35 24.5 60t63.5 25q36 0 58.5 -21.5t22.5 -53.5q0 -36 -24.5 -61t-63.5 -25z" />
    <glyph glyph-name="Zcaron" unicode="&#x17d;" horiz-adv-x="630" 
d="M386 746l-79 154h48l100 -76l139 76h53l-152 -154h-109zM180 43h149q61 0 104.5 34.5t129.5 145.5h39l-82 -223h-549l6 30l505 629h-142q-23 0 -39.5 -2.5t-34 -14t-27.5 -18.5t-29.5 -33.5t-29.5 -40.5t-38 -57h-37l53 209h534l-7 -30z" />
    <glyph glyph-name="zcaron" unicode="&#x17e;" horiz-adv-x="498" 
d="M291 598l-79 171h48l100 -91l139 91h53l-152 -171h-109zM355 399h-184q-22 0 -32.5 -6.5t-26.5 -27.5l-25 -34l-19 7l78 231h21q5 -39 25 -39h345v-19l-377 -337l89 -32q56 -18 91 -18q31 0 58 17t57 66l18 -9q-38 -120 -81.5 -166.5t-111.5 -46.5q-58 0 -141 44l-96 51
l-32 -83q-44 -1 -44 31q0 24 24 47z" />
    <glyph glyph-name="florin" unicode="&#x192;" horiz-adv-x="502" 
d="M65 338l10 38h95l9 37q66 299 278 299q59 0 93 -20t34 -60q0 -52 -55 -67h-45q10 116 -36 116q-38 0 -57 -78l-50 -227h108l-9 -38h-108l-42 -192q-71 -315 -281 -315q-58 0 -93 20t-35 59q0 52 54 68h46q-14 -116 36 -116q39 0 55 73l90 403h-97z" />
    <glyph glyph-name="Aringacute" unicode="&#x1fa;" horiz-adv-x="732" 
d="M452 122l-19 103h-262l-61 -103q-18 -32 -18 -48q0 -32 77 -36l-9 -38h-212l8 38q47 5 66 37l332 552l-15 79h175l119 -631q3 -18 15.5 -26t35.5 -11l-8 -38h-322l8 38q46 2 69.5 12.5t23.5 41.5q0 17 -3 30zM371 561l-172 -288h225zM550 822q0 -40 -29 -67.5t-73 -27.5
q-42 0 -68 23t-26 59q0 40 29.5 67t72.5 27t68.5 -22.5t25.5 -58.5zM513 1043h160v-7l-176 -113h-44zM502 821q0 19 -12.5 30t-34.5 11q-25 0 -39 -14.5t-14 -37.5q0 -19 12.5 -30.5t34.5 -11.5q25 0 39 15t14 38z" />
    <glyph glyph-name="aringacute" unicode="&#x1fb;" horiz-adv-x="626" 
d="M468 654q0 42 -47 42q-25 0 -39 -15t-14 -37q0 -19 12.5 -30.5t34.5 -11.5q25 0 39 15t14 37zM482 877h161l-1 -7l-176 -113h-43zM516 656q0 -40 -29 -67.5t-73 -27.5q-42 0 -68 22.5t-26 58.5q0 40 29 67.5t73 27.5q43 0 68.5 -22.5t25.5 -58.5zM216 99q45 0 107 102
t104 259q-14 44 -57 44q-49 0 -95 -53.5t-72.5 -131.5t-26.5 -151q0 -69 40 -69zM331 78q0 45 31 138q-112 -226 -228 -226q-55 0 -86 41.5t-31 114.5q0 97 44.5 188.5t123 150.5t167.5 59q72 0 118 -48l103 51h33l-38 -128l-69 -282q-8 -38 -8 -42q0 -15 14 -15q24 0 83 72
l22 -18q-55 -77 -96.5 -110.5t-91.5 -33.5q-43 0 -67 23.5t-24 64.5z" />
    <glyph glyph-name="AEacute" unicode="&#x1fc;" horiz-adv-x="1022" 
d="M916 0h-565l8 38q53 6 68 17t23 52l30 141h-246l-105 -126q-23 -27 -23 -48q0 -18 18.5 -26t60.5 -10l-8 -38h-229l8 38q39 4 72 42l461 555q-20 18 -95 29l9 38h654l-35 -187h-32q-18 87 -41 115.5t-85 28.5h-127l-57 -272h108q33 0 51.5 20t36.5 72h39l-50 -233h-39
q4 51 -5.5 71t-42.5 20h-109l-48 -226q-9 -39 8 -53.5t63 -14.5h45q60 0 98 31.5t117 134.5h40zM566 647l-292 -351h217zM779 894h162v-8l-196 -141h-44z" />
    <glyph glyph-name="aeacute" unicode="&#x1fd;" horiz-adv-x="798" 
d="M362 544q83 0 131 -55q79 55 170 55q69 0 105.5 -31t36.5 -79q0 -43 -23.5 -75.5t-68.5 -54.5t-96.5 -36.5t-122.5 -26.5q-1 -8 -1 -25q0 -66 27.5 -101.5t77.5 -35.5q72 0 146 86l21 -19q-103 -156 -247 -156q-77 0 -127 48t-55 129q-99 -177 -202 -177q-55 0 -86 41.5
t-31 114.5q0 97 45 188.5t125.5 150.5t174.5 59zM216 99q26 0 58 34t65 96q16 129 109 221q-26 56 -78 56q-49 0 -95 -54t-72.5 -132.5t-26.5 -151.5q0 -69 40 -69zM646 506q-49 0 -91.5 -72.5t-56.5 -161.5q188 45 188 183q0 51 -40 51zM572 764h160v-7l-203 -158h-44z" />
    <glyph glyph-name="Oslashacute" unicode="&#x1fe;" horiz-adv-x="741" 
d="M709 699l-51 -61q82 -77 82 -204q0 -111 -50 -211.5t-147 -166.5t-219 -66q-99 0 -171 48l-59 -71l-33 26l60 71q-81 76 -81 204q0 82 29.5 161.5t82 142.5t132 101.5t171.5 38.5q98 0 170 -48l51 61zM565 483q0 16 -2 42l-338 -402q24 -88 100 -88q54 0 101 47t76 117
t46 145.5t17 138.5zM454 667q-54 0 -101 -47t-76 -117t-46 -145.5t-17 -138.5q0 -29 1 -42l339 403q-25 87 -100 87zM537 894h162v-8l-196 -141h-44z" />
    <glyph glyph-name="oslashacute" unicode="&#x1ff;" horiz-adv-x="553" 
d="M218 -10q-69 0 -118 32l-47 -57l-31 23l48 59q-50 53 -50 145q0 136 92 244t223 108q69 0 119 -33l42 51l31 -22l-44 -54q50 -53 50 -144q0 -88 -40.5 -168.5t-114 -132t-160.5 -51.5zM330 506q-52 0 -100 -111t-59 -226l211 256q-5 81 -52 81zM223 28q35 0 70 54.5
t57.5 131t29.5 148.5l-211 -256q5 -78 54 -78zM410 764h160v-7l-203 -158h-44z" />
    <glyph glyph-name="Scommaaccent" unicode="&#x218;" horiz-adv-x="572" 
d="M220 -154h-56q-38 9 -38 45q0 31 22.5 51t60.5 20q37 0 57.5 -21t20.5 -55q0 -56 -42.5 -91.5t-129.5 -35.5l2 33q43 0 70.5 16t32.5 38zM531 228q0 -112 -84 -175t-209 -63q-76 0 -138.5 24.5t-95.5 56.5l30 170h41q2 -96 47.5 -150.5t125.5 -54.5q58 0 94 31t36 87
q0 44 -28.5 71.5t-102.5 63.5q-75 36 -114 80.5t-39 112.5q0 104 74 167t198 63q64 0 120 -19.5t91 -50.5l-31 -150h-39q-1 83 -38 129.5t-112 46.5q-53 0 -84.5 -32t-31.5 -82q0 -42 24 -67.5t85 -55.5q85 -41 133 -87t48 -116z" />
    <glyph glyph-name="scommaaccent" unicode="&#x219;" horiz-adv-x="433" 
d="M140 -154h-56q-38 9 -38 45q0 31 22.5 51t60.5 20q37 0 57.5 -21t20.5 -55q0 -56 -42.5 -91.5t-129.5 -35.5l2 33q43 0 70.5 16t32.5 38zM201 29q28 0 44 14.5t16 40.5q0 20 -20 45t-48.5 50.5t-57.5 53.5t-49 62.5t-20 69.5q0 74 61 126.5t149 52.5q63 0 103.5 -24.5
t40.5 -70.5q0 -26 -19.5 -44t-44.5 -25h-8q-14 53 -44 88.5t-70 35.5q-26 0 -40.5 -14.5t-14.5 -38.5q0 -18 21 -42.5t50.5 -50.5t59.5 -55t51 -64t21 -68q0 -78 -62.5 -129.5t-149.5 -51.5q-78 0 -127.5 32t-49.5 83q0 58 65 81h7q15 -72 50 -114.5t86 -42.5z" />
    <glyph glyph-name="uni0237" unicode="&#x237;" horiz-adv-x="294" 
d="M298 544l-105 -433q-42 -172 -110 -250t-172 -78q-53 0 -86.5 20.5t-33.5 57.5q0 32 20.5 50.5t51.5 22.5h27q0 -113 40 -113q24 0 38.5 36t40.5 146l104 438l-55 37l6 23l208 43h26z" />
    <glyph glyph-name="circumflex" unicode="&#x2c6;" 
d="M341 766l79 -171h-48l-100 91l-139 -91h-53l152 171h109z" />
    <glyph glyph-name="caron" unicode="&#x2c7;" 
d="M159 598l-79 171h48l100 -91l139 91h53l-152 -171h-109z" />
    <glyph glyph-name="breve" unicode="&#x2d8;" 
d="M218 597q-67 0 -95 43.5t-9 122.5h41q-9 -80 80 -80t117 80h42q-19 -80 -63.5 -123t-112.5 -43z" />
    <glyph glyph-name="dotaccent" unicode="&#x2d9;" 
d="M246 601q-36 0 -58.5 22t-22.5 54q0 35 24.5 60t63.5 25q36 0 58.5 -21.5t22.5 -53.5q0 -36 -24.5 -61t-63.5 -25z" />
    <glyph glyph-name="ring" unicode="&#x2da;" 
d="M301 678q0 21 -12.5 34t-34.5 13q-26 0 -40.5 -17t-14.5 -42q0 -22 12.5 -34.5t34.5 -12.5q26 0 40.5 17t14.5 42zM151 664q0 45 29.5 75t74.5 30q42 0 68 -25.5t26 -64.5q0 -44 -29.5 -74t-74.5 -30q-42 0 -68 25t-26 64z" />
    <glyph glyph-name="ogonek" unicode="&#x2db;" 
d="M345 34l6 -14q-119 -62 -119 -127q0 -18 11.5 -30t31.5 -12q35 0 80 34l11 -17q-75 -82 -149 -82q-36 0 -59.5 19t-23.5 53q0 32 17.5 59t53 49t64 35.5t76.5 32.5z" />
    <glyph glyph-name="tilde" unicode="&#x2dc;" 
d="M302 603q-32 0 -70.5 29t-58.5 29q-34 0 -72 -56l-30 18q36 70 63 99.5t64 29.5q32 0 70.5 -29.5t58.5 -29.5q34 0 71 56l31 -17q-35 -70 -62.5 -99.5t-64.5 -29.5z" />
    <glyph glyph-name="hungarumlaut" unicode="&#x2dd;" 
d="M143 764h137l-2 -8l-184 -157h-45zM314 764h136l-1 -8l-185 -157h-44z" />
    <glyph glyph-name="pi" unicode="&#x3c0;" horiz-adv-x="667" 
d="M454 435h-157q-32 -149 -60 -241.5t-72 -193.5h-156l6 33q6 8 42.5 59.5t51 74.5t41.5 71t44 95.5t28 101.5h-126l23 107h551l-39 -107h-80q-66 -249 -66 -332q0 -40 38 -40q22 0 46 9l-1 -27q-69 -55 -136 -55q-42 0 -66.5 23t-24.5 65q0 50 27.5 132.5t85.5 224.5z" />
    <glyph glyph-name="Wgrave" unicode="&#x1e80;" horiz-adv-x="966" 
d="M666 573l40 -349l189 343q23 44 23 63q0 16 -13 24.5t-52 9.5l8 38h200l-9 -38q-26 -3 -41 -10.5t-25 -26.5l-356 -632h-49l-52 406l-234 -406h-50l-103 632q-4 28 -50 37l8 38h299l-8 -38q-41 -3 -57 -14.5t-16 -37.5q0 -18 3 -39l53 -352l146 254l-19 152q-2 17 -13 25
t-32 12l8 38h281l-8 -38q-42 -4 -57.5 -15.5t-15.5 -38.5q0 -13 2 -37zM437 894h151l31 -149h-42l-140 141v8z" />
    <glyph glyph-name="wgrave" unicode="&#x1e81;" horiz-adv-x="761" 
d="M350 448l-52 32l6 20l182 44h14l27 -398l68 83q68 82 68 156q0 41 -25 62.5t-68 19.5l1 12q43 65 110 65q46 0 67.5 -27t21.5 -69q0 -50 -31.5 -100t-99.5 -128l-202 -226h-43l-25 249l-204 -249h-44l-43 454l-57 34l7 20l186 42h14l27 -389l110 136zM305 764h149
l37 -165h-42l-144 157v8z" />
    <glyph glyph-name="Wacute" unicode="&#x1e82;" horiz-adv-x="966" 
d="M666 573l40 -349l189 343q23 44 23 63q0 16 -13 24.5t-52 9.5l8 38h200l-9 -38q-26 -3 -41 -10.5t-25 -26.5l-356 -632h-49l-52 406l-234 -406h-50l-103 632q-4 28 -50 37l8 38h299l-8 -38q-41 -3 -57 -14.5t-16 -37.5q0 -18 3 -39l53 -352l146 254l-19 152q-2 17 -13 25
t-32 12l8 38h281l-8 -38q-42 -4 -57.5 -15.5t-15.5 -38.5q0 -13 2 -37zM653 894h162v-8l-196 -141h-44z" />
    <glyph glyph-name="wacute" unicode="&#x1e83;" horiz-adv-x="761" 
d="M350 448l-52 32l6 20l182 44h14l27 -398l68 83q68 82 68 156q0 41 -25 62.5t-68 19.5l1 12q43 65 110 65q46 0 67.5 -27t21.5 -69q0 -50 -31.5 -100t-99.5 -128l-202 -226h-43l-25 249l-204 -249h-44l-43 454l-57 34l7 20l186 42h14l27 -389l110 136zM515 764h160v-7
l-203 -158h-44z" />
    <glyph glyph-name="Wdieresis" unicode="&#x1e84;" horiz-adv-x="966" 
d="M666 573l40 -349l189 343q23 44 23 63q0 16 -13 24.5t-52 9.5l8 38h200l-9 -38q-26 -3 -41 -10.5t-25 -26.5l-356 -632h-49l-52 406l-234 -406h-50l-103 632q-4 28 -50 37l8 38h299l-8 -38q-41 -3 -57 -14.5t-16 -37.5q0 -18 3 -39l53 -352l146 254l-19 152q-2 17 -13 25
t-32 12l8 38h281l-8 -38q-42 -4 -57.5 -15.5t-15.5 -38.5q0 -13 2 -37zM711 745q-34 0 -54.5 21t-20.5 52q0 34 22.5 58t58.5 24q34 0 54.5 -21t20.5 -52q0 -34 -22.5 -58t-58.5 -24zM511 745q-34 0 -54.5 21t-20.5 52q0 34 22.5 58t58.5 24q34 0 54.5 -21t20.5 -52
q0 -34 -23 -58t-58 -24z" />
    <glyph glyph-name="wdieresis" unicode="&#x1e85;" horiz-adv-x="761" 
d="M350 448l-52 32l6 20l182 44h14l27 -398l68 83q68 82 68 156q0 41 -25 62.5t-68 19.5l1 12q43 65 110 65q46 0 67.5 -27t21.5 -69q0 -50 -31.5 -100t-99.5 -128l-202 -226h-43l-25 249l-204 -249h-44l-43 454l-57 34l7 20l186 42h14l27 -389l110 136zM567 603
q-34 0 -55 21t-21 52q0 33 22.5 57t58.5 24q34 0 54.5 -20.5t20.5 -51.5q0 -34 -22.5 -58t-57.5 -24zM374 603q-34 0 -54.5 21t-20.5 52q0 33 22.5 57t58.5 24q34 0 54.5 -20.5t20.5 -51.5q0 -34 -23 -58t-58 -24z" />
    <glyph glyph-name="Ygrave" unicode="&#x1ef2;" horiz-adv-x="675" 
d="M431 268l-35 -164q-9 -39 5 -49.5t68 -16.5l-8 -38h-338l8 38q57 6 74 16.5t26 49.5l34 160l-123 363q-6 19 -16.5 26t-33.5 11l8 38h312l-8 -38q-47 -2 -65.5 -12t-18.5 -33q0 -15 12 -51l83 -241l179 244q32 45 32 62q0 30 -68 31l8 38h204l-9 -38q-44 -8 -66 -37z
M331 894h151l31 -149h-42l-140 141v8z" />
    <glyph glyph-name="ygrave" unicode="&#x1ef3;" horiz-adv-x="522" 
d="M73 448l-58 34l7 20l182 42h14l83 -461l15 21q64 91 86.5 149.5t22.5 116.5q0 51 -28 75t-73 22l1 12q41 65 107 65q48 0 72 -29t24 -74q0 -62 -46.5 -146t-144.5 -222q-116 -163 -193 -226.5t-152 -63.5q-44 0 -73.5 22.5t-29.5 63.5q0 30 19.5 52.5t50.5 31.5h14
q0 -99 75 -99q61 0 130 73zM181 764h149l37 -165h-42l-144 157v8z" />
    <glyph glyph-name="endash" unicode="&#x2013;" horiz-adv-x="540" 
d="M504 276h-480l13 54h480z" />
    <glyph glyph-name="emdash" unicode="&#x2014;" horiz-adv-x="960" 
d="M937 330l-13 -54h-900l13 54h900z" />
    <glyph glyph-name="quoteleft" unicode="&#x2018;" horiz-adv-x="260" 
d="M185 638h36q66 -16 66 -79q0 -37 -25 -60t-63 -23q-43 0 -67.5 28.5t-24.5 75.5q0 75 60.5 125t153.5 51v-36q-55 -6 -93.5 -26.5t-42.5 -55.5z" />
    <glyph glyph-name="quoteright" unicode="&#x2019;" horiz-adv-x="260" 
d="M230 591h-36q-66 16 -66 80q0 37 25 59.5t63 22.5q42 0 67 -29t25 -75q0 -75 -60.5 -125t-153.5 -51v37q55 5 93.5 25.5t42.5 55.5z" />
    <glyph glyph-name="quotesinglbase" unicode="&#x201a;" horiz-adv-x="260" 
d="M102 -1h-36q-66 16 -66 79q0 37 25 60t63 23q43 0 67.5 -29t24.5 -75q0 -75 -60.5 -125t-153.5 -51v36q54 5 93 26t43 56z" />
    <glyph glyph-name="quotedblleft" unicode="&#x201c;" horiz-adv-x="468" 
d="M185 638h36q66 -16 66 -79q0 -37 -25 -60t-63 -23q-43 0 -67.5 28.5t-24.5 75.5q0 75 60.5 125t153.5 51v-36q-55 -6 -93.5 -26.5t-42.5 -55.5zM394 638h36q66 -16 66 -79q0 -37 -25 -60t-63 -23q-43 0 -68 29t-25 75q0 75 60.5 125t153.5 51v-36q-55 -6 -93 -26.5
t-42 -55.5z" />
    <glyph glyph-name="quotedblright" unicode="&#x201d;" horiz-adv-x="468" 
d="M438 591h-36q-66 14 -66 79q0 37 25 60t63 23q43 0 68 -29t25 -75q0 -75 -60.5 -125t-153.5 -51v36q54 5 92.5 26t42.5 56zM230 591h-36q-66 14 -66 79q0 37 25 60t63 23q42 0 67 -29t25 -75q0 -75 -60.5 -125t-153.5 -51v36q54 5 93 26t43 56z" />
    <glyph glyph-name="quotedblbase" unicode="&#x201e;" horiz-adv-x="468" 
d="M311 -1h-37q-66 16 -66 79q0 37 25 60t63 23q43 0 68 -29t25 -75q0 -75 -60.5 -125t-153.5 -51v36q54 5 93 26t43 56zM102 -1h-36q-66 16 -66 79q0 37 25 60t63 23q43 0 67.5 -29t24.5 -75q0 -75 -60.5 -125t-153.5 -51v36q54 5 93 26t43 56z" />
    <glyph glyph-name="dagger" unicode="&#x2020;" horiz-adv-x="372" 
d="M264 583q-7 -31 3 -56.5t29 -37.5l-2 -8q-26 -29 -62 -121t-62 -199h-13q20 106 23 200t-11 120l2 8q24 12 45 37.5t28 56.5q-25 0 -60.5 -19t-54.5 -19q-17 0 -29 12t-12 31q0 23 15.5 37t36.5 14q19 0 51 -18.5t56 -18.5q5 26 -4 59t-9 44q0 25 14.5 39t36.5 14
q21 0 32 -12t11 -29q0 -20 -28 -56t-33 -59q25 0 60.5 18.5t54.5 18.5q17 0 29 -11.5t12 -31.5q0 -23 -15.5 -37t-36.5 -14q-19 0 -51 19t-56 19z" />
    <glyph glyph-name="daggerdbl" unicode="&#x2021;" horiz-adv-x="372" 
d="M208 318q25 0 60.5 19t53.5 19t29.5 -11.5t11.5 -31.5q0 -23 -15.5 -37t-36.5 -14q-18 0 -50 19t-57 19q-2 -20 7 -45t9 -40q0 -24 -14.5 -38t-36.5 -14q-20 0 -31 12.5t-11 28.5q0 20 26.5 49.5t30.5 46.5q-24 0 -59.5 -19t-54.5 -19q-18 0 -29.5 11.5t-11.5 31.5
q0 23 15.5 37t36.5 14q18 0 50 -19t57 -19q9 51 -36 81l2 9q25 3 42.5 18t22.5 35q4 20 -7 34.5t-36 18.5l2 8q58 29 70 81q-24 0 -60 -19t-54 -19t-29.5 12t-11.5 31q0 23 15.5 37t36.5 14q18 0 50 -18.5t57 -18.5q2 19 -7 44t-9 40q0 24 14.5 38t36.5 14q19 0 30.5 -12
t11.5 -29q0 -20 -26.5 -49t-30.5 -46q24 0 59.5 18.5t54.5 18.5q18 0 29.5 -11.5t11.5 -31.5q0 -23 -15.5 -37t-36.5 -14q-19 0 -50.5 19t-56.5 19q-10 -50 35 -81l-2 -8q-25 -4 -42.5 -19t-21.5 -34q-5 -20 6.5 -35t35.5 -18l-2 -9q-60 -31 -69 -81z" />
    <glyph glyph-name="bullet" unicode="&#x2022;" horiz-adv-x="352" 
d="M30 306q0 61 43 104.5t103 43.5t103 -43.5t43 -104.5t-43 -104.5t-103 -43.5t-103 43.5t-43 104.5z" />
    <glyph glyph-name="ellipsis" unicode="&#x2026;" horiz-adv-x="718" 
d="M-7 85q0 41 27.5 68t67.5 27q39 0 66.5 -27t27.5 -68t-27.5 -68t-66.5 -27q-40 0 -67.5 27t-27.5 68zM227 85q0 41 27.5 68t66.5 27q40 0 67.5 -27t27.5 -68t-27.5 -68t-67.5 -27q-39 0 -66.5 27t-27.5 68zM461 85q0 41 27.5 68t66.5 27q40 0 67.5 -27t27.5 -68
t-27.5 -68t-67.5 -27q-39 0 -66.5 27t-27.5 68z" />
    <glyph glyph-name="perthousand" unicode="&#x2030;" horiz-adv-x="1129" 
d="M263 712q62 0 103.5 -38.5t41.5 -105.5q0 -91 -59.5 -145.5t-134.5 -54.5q-62 0 -103.5 38.5t-41.5 105.5q0 91 59 145.5t135 54.5zM262 680q-40 0 -66.5 -60.5t-26.5 -138.5q0 -80 47 -80q40 0 66.5 60.5t26.5 138.5q0 80 -47 80zM527 -10q-62 0 -103.5 38.5
t-41.5 105.5q0 91 59.5 145.5t134.5 54.5q62 0 103.5 -38.5t41.5 -105.5q0 -91 -59 -145.5t-135 -54.5zM722 712l-602 -722h-53l604 722h51zM529 22q40 0 66.5 60.5t26.5 138.5q0 80 -48 80q-40 0 -66.5 -60.5t-26.5 -138.5q0 -80 48 -80zM893 -10q-62 0 -103 38.5
t-41 105.5q0 91 59.5 145.5t134.5 54.5q62 0 103 -38.5t41 -105.5q0 -91 -59 -145.5t-135 -54.5zM895 22q40 0 66.5 60.5t26.5 138.5q0 80 -47 80q-40 0 -66.5 -60.5t-26.5 -138.5q0 -80 47 -80z" />
    <glyph glyph-name="guilsinglleft" unicode="&#x2039;" horiz-adv-x="281" 
d="M31 272l1 6l231 198h41l-142 -201l56 -201h-41z" />
    <glyph glyph-name="guilsinglright" unicode="&#x203a;" horiz-adv-x="281" 
d="M259 278l-1 -6l-232 -198h-41l142 201l-56 201h42z" />
    <glyph glyph-name="fraction" unicode="&#x2044;" horiz-adv-x="283" 
d="M-163 -10l602 722h52l-603 -722h-51z" />
    <glyph glyph-name="Euro" unicode="&#x20ac;" horiz-adv-x="662" 
d="M502 712q117 0 186 -61l-29 -159h-42q-2 89 -28 133t-83 44q-68 0 -121.5 -66t-84.5 -167h212l-19 -42h-205q-10 -43 -14 -77h181l-18 -42h-167v-29q0 -210 112 -210q61 0 106 48t92 147h48l-54 -185q-87 -56 -202 -56q-129 0 -199.5 72.5t-70.5 199.5v13h-80l12 42h71
q5 40 15 77h-72l11 42h75q47 121 147 198.5t221 77.5z" />
    <glyph glyph-name="uni2117" unicode="&#x2117;" horiz-adv-x="796" 
d="M437 310h-49l-20 -92q-5 -21 7 -28t46 -8l-6 -28h-206l6 28q29 1 39.5 8.5t15.5 30.5l60 267q4 21 -4 27t-34 8l7 28h187q68 0 102.5 -29t34.5 -78q0 -57 -51.5 -95.5t-134.5 -38.5zM435 518l-40 -178h23q46 0 76.5 26.5t30.5 76.5q0 75 -69 75h-21zM396 -10
q-147 0 -241.5 95.5t-94.5 239.5q0 162 110 274.5t271 112.5q147 0 241.5 -95.5t94.5 -239.5q0 -162 -110 -274.5t-271 -112.5zM396 22q147 0 247.5 103t100.5 252q0 130 -85 216.5t-218 86.5q-147 0 -247 -103t-100 -252q0 -130 85 -216.5t217 -86.5z" />
    <glyph glyph-name="trademark" unicode="&#x2122;" horiz-adv-x="906" 
d="M153 702h312l-17 -110h-29q-8 46 -18 64.5t-38 18.5h-15l-53 -246q-4 -20 3.5 -26t34.5 -8l-6 -25h-178l5 25q25 2 36 8.5t15 24.5l54 247h-14q-28 0 -47.5 -19t-45.5 -64h-29zM668 489l95 178q8 18 13 35h142l-12 -27q-23 -1 -33 -8t-14 -24l-13 -220q-1 -15 6 -20.5
t28 -7.5l-5 -25h-173l5 25q36 1 45 13t11 51l9 157l-131 -246h-38l-33 246l-57 -160q-14 -28 -10 -44t40 -17l-5 -25h-128l5 25q38 3 47 28l79 220q0 17 -6 24t-27 8l5 27h130q0 -28 1 -34z" />
    <glyph glyph-name="Omega" unicode="&#x2126;" horiz-adv-x="752" 
d="M463 675q-64 0 -114.5 -63t-74.5 -148.5t-24 -170.5q0 -128 51 -211l-17 -82h-263l15 189h27q21 -65 40 -80t86 -15h71q-62 25 -113 96t-51 164q0 144 109.5 251t258.5 107q115 0 182.5 -67.5t67.5 -176.5q0 -122 -86 -223t-213 -151h71q47 0 70.5 7t42 24t53.5 64h30
l-65 -189h-265l17 82q84 83 135.5 200t51.5 238q0 68 -22 111.5t-71 43.5z" />
    <glyph glyph-name="uni2153" unicode="&#x2153;" horiz-adv-x="801" 
d="M96 -10l603 722h52l-603 -722h-52zM290 712h29l-68 -323q-7 -31 4 -40t56 -11l-7 -31h-254l7 31q45 3 59 10.5t20 35.5l47 220h-73l6 27l26 6q56 11 85.5 25.5t62.5 49.5zM633 223q46 -6 74.5 -31t28.5 -66q0 -63 -53 -99t-122 -36q-62 0 -99 24t-37 59q0 37 39 51h61
q-9 -19 -9 -45t12.5 -43.5t35.5 -17.5q30 0 49 26t19 66q0 34 -16 54t-44 20q-12 0 -27 -3l-3 21q53 19 79.5 40t26.5 51q0 19 -12 30.5t-33 11.5q-48 0 -90 -46l-21 15q57 98 161 98q46 0 73 -20.5t27 -58.5q0 -41 -35 -67t-85 -34z" />
    <glyph glyph-name="uni2154" unicode="&#x2154;" horiz-adv-x="841" 
d="M136 -10l603 722h52l-603 -722h-52zM673 223q46 -6 74.5 -31t28.5 -66q0 -63 -53 -99t-122 -36q-62 0 -99 24t-37 59q0 37 39 51h61q-9 -19 -9 -45t12.5 -43.5t35.5 -17.5q30 0 49 26t19 66q0 34 -16 54t-44 20q-12 0 -27 -3l-3 21q53 18 79.5 39.5t26.5 51.5
q0 19 -12 30.5t-33 11.5q-48 0 -90 -46l-20 15q25 45 66.5 71.5t93.5 26.5q46 0 73 -20.5t27 -58.5q0 -41 -35 -67t-85 -34zM167 391h109q30 0 46 8.5t41 38.5h22l-43 -134h-299l4 22q141 110 185.5 163t44.5 97q0 25 -14.5 39.5t-41.5 14.5q-54 0 -96 -51l-18 18
q25 44 68.5 73t99.5 29q50 0 81.5 -25.5t31.5 -72.5q0 -17 -5.5 -33t-12 -29t-22 -28.5t-26 -25t-34 -26t-36 -24.5t-42.5 -27t-43 -27z" />
    <glyph glyph-name="uni215B" unicode="&#x215b;" horiz-adv-x="846" 
d="M799 312q0 -38 -30.5 -59t-79.5 -23q86 -39 86 -111q0 -62 -46.5 -95.5t-115.5 -33.5q-67 0 -112.5 28.5t-45.5 73.5q0 40 32 61.5t82 27.5q-62 34 -62 100q0 57 43 91t108 34q64 0 102.5 -26t38.5 -68zM649 136l-69 37q-45 -24 -45 -75q0 -35 21.5 -56.5t56.5 -21.5
q32 0 53 17t21 45q0 33 -38 54zM631 262l43 -24q48 31 48 78q0 26 -17 42.5t-47 16.5q-29 0 -47 -16.5t-18 -42.5q0 -33 38 -54zM96 -10l603 722h52l-603 -722h-52zM290 712h29l-68 -323q-7 -31 4 -40t56 -11l-7 -31h-254l7 31q45 3 59 10.5t20 35.5l47 220h-73l6 27l26 6
q56 11 85.5 25.5t62.5 49.5z" />
    <glyph glyph-name="uni215C" unicode="&#x215c;" horiz-adv-x="845" 
d="M261 532q46 -5 74.5 -30.5t28.5 -66.5q0 -63 -53 -98.5t-122 -35.5q-63 0 -99.5 23.5t-36.5 58.5q0 38 38 52h62q-9 -21 -9 -46q0 -26 12 -43.5t35 -17.5q30 0 49 26t19 66q0 35 -15.5 54.5t-44.5 19.5q-6 0 -26 -2l-4 20q54 20 80.5 40.5t26.5 50.5q0 19 -12 31t-33 12
q-49 0 -91 -46l-20 15q25 44 67 70.5t93 26.5q46 0 73.5 -20.5t27.5 -57.5q0 -41 -35 -67t-85 -35zM797 312q0 -38 -30.5 -59t-78.5 -23q85 -39 85 -111q0 -62 -46.5 -95.5t-115.5 -33.5q-66 0 -112 28.5t-46 73.5q0 40 32 61.5t82 27.5q-62 34 -62 100q0 57 43 91t108 34
q64 0 102.5 -26t38.5 -68zM647 136l-69 37q-45 -24 -45 -75q0 -35 21.5 -56.5t56.5 -21.5q32 0 53 17t21 45q0 34 -38 54zM630 262l43 -24q47 32 47 78q0 26 -17 42.5t-47 16.5q-29 0 -46.5 -16.5t-17.5 -42.5q0 -34 38 -54zM101 -10l602 722h52l-603 -722h-51z" />
    <glyph glyph-name="uni215D" unicode="&#x215d;" horiz-adv-x="838" 
d="M189 702h138q19 0 27 4t18 20h26l-39 -116h-170l-17 -49q87 2 135.5 -29t48.5 -94q0 -61 -45.5 -99.5t-114.5 -38.5q-65 0 -99 20.5t-34 53.5q0 40 38 55h55q-9 -19 -9 -43q0 -27 14 -42.5t40 -15.5q30 0 48.5 20t18.5 52q0 86 -159 86zM790 312q0 -38 -30 -59t-79 -23
q86 -39 86 -111q0 -62 -46.5 -95.5t-115.5 -33.5q-67 0 -113 28.5t-46 73.5q0 75 114 89q-61 34 -61 100q0 57 43 91t108 34q64 0 102 -26t38 -68zM641 136l-69 37q-45 -24 -45 -75q0 -35 21.5 -56.5t56.5 -21.5q32 0 53 17t21 45q0 33 -38 54zM623 262l43 -24q47 31 47 78
q0 26 -16.5 42.5t-46.5 16.5q-29 0 -47 -16.5t-18 -42.5q0 -33 38 -54zM94 -10l603 722h52l-603 -722h-52z" />
    <glyph glyph-name="uni215E" unicode="&#x215e;" horiz-adv-x="778" 
d="M350 602h-146q-40 0 -74 -62h-34l66 162h294l-6 -25l-277 -375h-74zM730 312q0 -38 -30.5 -59t-78.5 -23q85 -39 85 -111q0 -62 -46 -95.5t-115 -33.5q-67 0 -113 28.5t-46 73.5q0 75 114 89q-62 35 -62 100q0 57 43 91t109 34q64 0 102 -26t38 -68zM581 136l-69 37
q-45 -24 -45 -75q0 -35 21.5 -56.5t56.5 -21.5q32 0 53 17t21 45q0 33 -38 54zM563 262l43 -24q47 31 47 78q0 26 -16.5 42.5t-46.5 16.5t-47.5 -16.5t-17.5 -42.5q0 -33 38 -54zM34 -10l603 722h52l-603 -722h-52z" />
    <glyph glyph-name="partialdiff" unicode="&#x2202;" horiz-adv-x="579" 
d="M343 544q22 0 38 -4q-33 141 -190 215l19 26q170 -44 256.5 -162t86.5 -264q0 -157 -86.5 -261t-222.5 -104q-91 0 -150 60t-59 159q0 136 89 235.5t219 99.5zM394 408q0 48 -6 92q-16 6 -32 6q-45 0 -84.5 -65.5t-59.5 -150.5t-20 -158q0 -103 50 -103q40 0 76 62
t56 149t20 168z" />
    <glyph glyph-name="Delta" unicode="&#x2206;" horiz-adv-x="661" 
d="M600 0h-627l8 37l428 665h46l152 -665zM335 504l-291 -455h389z" />
    <glyph glyph-name="product" unicode="&#x220f;" horiz-adv-x="791" 
d="M603 658h-249l-160 -748q-8 -41 2.5 -52t59.5 -17l-7 -38h-322l7 38q52 6 67 17t23 52l147 685q8 41 -2 52t-61 17l9 38h742l-8 -38q-53 -6 -68 -17.5t-23 -51.5l-146 -685q-8 -41 2 -52t60 -17l-8 -38h-323l8 38q53 6 68 17.5t23 51.5z" />
    <glyph glyph-name="summation" unicode="&#x2211;" horiz-adv-x="605" 
d="M55 -65h225q73 0 109 16.5t91 84.5h36l-89 -233h-524l9 42l363 383l-181 426l11 48h526l-39 -182h-33q-11 42 -18 62t-21 41t-34.5 28.5t-53.5 7.5h-164l146 -342l-2 -11z" />
    <glyph glyph-name="minus" unicode="&#x2212;" horiz-adv-x="571" 
d="M75 338l14 64h442l-14 -64h-442z" />
    <glyph glyph-name="radical" unicode="&#x221a;" horiz-adv-x="587" 
d="M321 212l296 500h53l-424 -712h-66l-46 444q-3 31 -13 43t-36 13l-25 2l8 40h230z" />
    <glyph glyph-name="infinity" unicode="&#x221e;" horiz-adv-x="734" 
d="M353 349l-31 44q-43 62 -97 62q-48 0 -80 -35t-32 -93q0 -38 23 -61t56 -23q52 0 108 56zM412 348l31 -43q42 -61 97 -61q48 0 80.5 35t32.5 93q0 38 -23 61t-57 23q-30 0 -54 -13.5t-54 -43.5zM377 303l-38 -38q-73 -75 -146 -75q-60 0 -98 37t-38 101q0 79 51 129.5
t125 50.5t128 -77l27 -37l39 39q73 76 145 76q60 0 98 -37t38 -101q0 -79 -51.5 -130t-124.5 -51q-42 0 -70.5 19t-58.5 58z" />
    <glyph glyph-name="integral" unicode="&#x222b;" horiz-adv-x="441" 
d="M310 491l-88 -421q-28 -131 -89 -198.5t-171 -67.5q-51 0 -81.5 20.5t-30.5 61.5q0 49 51 64h46q-6 -42 -1 -77t28 -35q29 0 43.5 37.5t37.5 149.5l88 420q28 131 89 199t170 68q51 0 82 -20.5t31 -61.5q0 -48 -52 -64h-45q6 42 1 77t-28 35q-29 0 -43.5 -37.5
t-37.5 -149.5z" />
    <glyph glyph-name="approxequal" unicode="&#x2248;" horiz-adv-x="581" 
d="M91 389l13 65q72 41 129 41q38 0 97 -20t96 -20q60 0 130 41l-14 -65q-70 -41 -130 -41q-37 0 -95.5 20t-97.5 20q-59 0 -128 -41zM61 250l14 64q69 40 128 40q38 0 97 -19t97 -19q60 0 129 39l-14 -64q-68 -40 -129 -40q-38 0 -97 19t-97 19q-58 0 -128 -39z" />
    <glyph glyph-name="notequal" unicode="&#x2260;" horiz-adv-x="581" 
d="M95 411l14 62h259l98 105h74l-98 -105h109l-13 -62h-154l-78 -84h214l-13 -60h-257l-99 -106h-74l99 106h-111l13 60h154l78 84h-215z" />
    <glyph glyph-name="lessequal" unicode="&#x2264;" horiz-adv-x="442" 
d="M81 401l2 8l350 170l-15 -75l-217 -102l174 -102l-16 -69zM24 134l14 63h314l-13 -63h-315z" />
    <glyph glyph-name="greaterequal" unicode="&#x2265;" horiz-adv-x="442" 
d="M415 409l-1 -8l-351 -170l15 75l216 102l-173 102l16 69zM370 197l-13 -63h-315l13 63h315z" />
    <glyph glyph-name="lozenge" unicode="&#x25ca;" horiz-adv-x="561" 
d="M231 43l247 313l-113 303l-247 -313zM265 0h-78l-134 351l279 351h77l134 -351z" />
    <glyph glyph-name="i.dot" horiz-adv-x="326" 
d="M40 159l71 282l-54 37l5 23l209 43h26l-103 -407q-8 -30 -8 -42q0 -15 14 -15q26 0 83 72l22 -18q-55 -77 -96 -110.5t-91 -33.5q-43 0 -66 24t-23 62q0 35 11 83zM243 601q-36 0 -58.5 22t-22.5 54q0 35 24.5 60t63.5 25q36 0 58.5 -21.5t22.5 -53.5q0 -36 -24.5 -61
t-63.5 -25z" />
    <glyph glyph-name="space_uni0326" 
d="M269 -154h-56q-38 9 -38 45q0 31 22.5 51t60.5 20q37 0 57.5 -21t20.5 -55q0 -56 -42.5 -91.5t-129.5 -35.5l2 33q43 0 70.5 16t32.5 38z" />
    <glyph glyph-name="space_uni0326.alt" 
d="M231 712h56q38 -9 38 -45q0 -31 -22.5 -51t-60.5 -20q-37 0 -57.5 21t-20.5 55q0 56 42.5 91t129.5 35l-2 -33q-43 0 -70.5 -15.5t-32.5 -37.5z" />
    <glyph glyph-name="space_dotbelowcomb" 
d="M246 -193q-36 0 -58.5 22.5t-22.5 54.5q0 35 24.5 60t63.5 25q36 0 58.5 -22t22.5 -54q0 -36 -24.5 -61t-63.5 -25z" />
    <glyph glyph-name="caron.Slovak" 
d="M343 774l-155 -196h-33l58 205h132z" />
    <glyph glyph-name="cedilla.alt" 
d="M222 -42h31q97 -7 97 -76q0 -53 -54 -81.5t-139 -28.5l-8 32q55 0 87 15t32 37q0 18 -19 25.5t-60 9.5z" />
    <glyph glyph-name="grave.cap" 
d="M157 894h151l31 -149h-42l-140 141v8z" />
    <glyph glyph-name="acute.cap" 
d="M211 894h162v-8l-196 -141h-44z" />
    <glyph glyph-name="circumflex.cap" 
d="M341 900l79 -155h-48l-100 76l-139 -76h-53l152 155h109z" />
    <glyph glyph-name="tilde.cap" 
d="M302 746q-32 0 -70.5 29.5t-58.5 29.5q-34 0 -72 -56l-30 17q36 70 63 99.5t64 29.5q32 0 70.5 -29.5t58.5 -29.5q34 0 71 56l31 -17q-36 -70 -63 -99.5t-64 -29.5z" />
    <glyph glyph-name="macron.cap" 
d="M99 757l16 77h285l-16 -77h-285z" />
    <glyph glyph-name="breve.cap" 
d="M219 742q-65 0 -95 39.5t-13 116.5h41q-8 -74 83 -74q90 0 117 74h43q-18 -78 -63.5 -117t-112.5 -39z" />
    <glyph glyph-name="dotaccent.cap" 
d="M246 746q-36 0 -58.5 22t-22.5 54q0 36 24.5 61t63.5 25q36 0 58.5 -22t22.5 -54q0 -36 -24.5 -61t-63.5 -25z" />
    <glyph glyph-name="dieresis.cap" 
d="M147 745q-34 0 -54.5 21t-20.5 52q0 34 22.5 58t58.5 24q34 0 54.5 -21t20.5 -52q0 -34 -23 -58t-58 -24zM347 745q-34 0 -54.5 21t-20.5 52q0 34 22.5 58t58.5 24q34 0 54.5 -21t20.5 -52q0 -34 -22.5 -58t-58.5 -24z" />
    <glyph glyph-name="ring.cap" 
d="M301 832q0 21 -12.5 34t-34.5 13q-26 0 -40.5 -17t-14.5 -42q0 -22 12.5 -34.5t34.5 -12.5q26 0 40.5 17t14.5 42zM151 818q0 45 29.5 75t74.5 30q42 0 68 -25.5t26 -64.5q0 -44 -29.5 -74t-74.5 -30q-42 0 -68 25t-26 64z" />
    <glyph glyph-name="hungarumlaut.cap" 
d="M137 894h139l-1 -8l-170 -141h-44zM307 894h140l-2 -8l-169 -141h-45z" />
    <glyph glyph-name="caron.cap" 
d="M159 746l-79 154h48l100 -76l139 76h53l-152 -154h-109z" />
    <glyph glyph-name="exclamdown.cap" horiz-adv-x="279" 
d="M-19 0l199 476h47l-36 -476h-210zM319 622q0 -38 -26 -64.5t-62 -26.5q-37 0 -63 26.5t-26 64.5q0 37 26 63.5t63 26.5q36 0 62 -26.5t26 -63.5z" />
    <glyph glyph-name="questiondown.cap" horiz-adv-x="463" 
d="M231 236q-55 -31 -82.5 -60.5t-27.5 -75.5q0 -35 18.5 -55t52.5 -20q39 0 60.5 29.5t21.5 76.5q0 24 -5 47h109q26 -23 26 -58q0 -60 -58 -95t-146 -35q-98 0 -152 44.5t-54 119.5q0 66 38 108.5t111 78.5q62 31 91.5 56t29.5 61q0 9 -4 25h25q61 -32 61 -100
q0 -45 -27 -78.5t-88 -68.5zM403 622q0 -38 -26 -64.5t-62 -26.5q-37 0 -63 26.5t-26 64.5q0 37 26 63.5t63 26.5q36 0 62 -26.5t26 -63.5z" />
    <glyph glyph-name="guilsinglleft.cap" horiz-adv-x="281" 
d="M48 351l1 6l231 198h42l-143 -201l56 -201h-41z" />
    <glyph glyph-name="guilsinglright.cap" horiz-adv-x="281" 
d="M276 357l-1 -6l-231 -198h-41l142 201l-56 201h41z" />
    <glyph glyph-name="guillemotleft.cap" horiz-adv-x="459" 
d="M48 351l1 6l231 198h42l-143 -201l56 -201h-41zM226 351l1 6l231 198h42l-143 -201l56 -201h-41z" />
    <glyph glyph-name="guillemotright.cap" horiz-adv-x="459" 
d="M454 357l-1 -6l-231 -198h-41l142 201l-56 201h41zM276 357l-1 -6l-231 -198h-41l142 201l-56 201h41z" />
    <glyph glyph-name="slash.cap" horiz-adv-x="364" 
d="M461 770l-456 -871h-69l455 871h70z" />
    <glyph glyph-name="backslash.cap" horiz-adv-x="364" 
d="M217 -101l-85 871h64l86 -871h-65z" />
    <glyph glyph-name="bar.cap" horiz-adv-x="208" 
d="M251 770l-185 -871h-65l185 871h65z" />
    <glyph glyph-name="brokenbar.cap" horiz-adv-x="208" 
d="M250 770l-79 -371h-64l79 371h64zM144 270l-79 -371h-64l79 371h64z" />
    <glyph glyph-name="periodcentered.cap" horiz-adv-x="248" 
d="M48 352q0 40 27 67t66 27q40 0 67.5 -27t27.5 -67q0 -41 -27.5 -67.5t-67.5 -26.5q-39 0 -66 26.5t-27 67.5z" />
    <glyph glyph-name="bullet.cap" horiz-adv-x="352" 
d="M48 354q0 61 43 104.5t102 43.5q61 0 103.5 -43.5t42.5 -104.5t-42.5 -104.5t-103.5 -43.5q-59 0 -102 43.5t-43 104.5z" />
    <glyph glyph-name="hyphen.cap" horiz-adv-x="320" 
d="M299 319h-260l16 70h260z" />
    <glyph glyph-name="endash.cap" horiz-adv-x="540" 
d="M520 324h-480l13 54h480z" />
    <glyph glyph-name="emdash.cap" horiz-adv-x="960" 
d="M953 378l-13 -54h-900l13 54h900z" />
    <glyph glyph-name="parenleft.cap" horiz-adv-x="362" 
d="M68 228q0 155 93.5 297t243.5 245h51q-135 -120 -203.5 -282t-68.5 -308q0 -169 78 -283h-52q-142 139 -142 331z" />
    <glyph glyph-name="parenright.cap" horiz-adv-x="362" 
d="M319 439q0 -154 -93.5 -296t-243.5 -246h-51q135 120 203.5 282.5t68.5 307.5q0 167 -78 283h52q142 -137 142 -331z" />
    <glyph glyph-name="bracketleft.cap" horiz-adv-x="330" 
d="M287 674l-144 -679q-8 -37 10.5 -46.5t83.5 -13.5l-7 -36h-210l185 871h209l-7 -36q-67 -4 -89.5 -13.5t-30.5 -46.5z" />
    <glyph glyph-name="bracketright.cap" horiz-adv-x="330" 
d="M84 -5l144 679q8 37 -10.5 46.5t-83.5 13.5l8 36h209l-185 -871h-209l7 36q67 4 89.5 13.5t30.5 46.5z" />
    <glyph glyph-name="braceleft.cap" horiz-adv-x="361" 
d="M75 326l3 16q87 17 105 100l42 200q28 128 222 128l-5 -27q-91 -10 -109 -98l-41 -193q-11 -52 -44.5 -78t-93.5 -40q54 -13 76.5 -39.5t11.5 -78.5l-41 -191q-18 -88 66 -98l-5 -27q-98 0 -139.5 33.5t-28.5 94.5l43 198q17 83 -62 100z" />
    <glyph glyph-name="braceright.cap" horiz-adv-x="367" 
d="M332 344l-4 -16q-86 -17 -104 -100l-43 -200q-28 -128 -221 -128l5 27q90 10 108 98l42 193q11 52 44.5 78t93.5 40q-54 13 -76.5 39.5t-11.5 78.5l41 191q18 88 -66 98l5 27q97 0 138.5 -33.5t28.5 -94.5l-42 -198q-17 -83 62 -100z" />
    <glyph glyph-name="at.cap" horiz-adv-x="876" 
d="M615 136q-74 0 -98 46t-8 121q-38 -80 -79.5 -123t-92.5 -43q-45 0 -72.5 33.5t-27.5 92.5q0 108 78 200.5t182 92.5q58 0 91 -39l74 34h33l-33 -91l-61 -196q-25 -93 30 -93q64 0 107.5 76t43.5 186q0 120 -75 200.5t-205 80.5q-163 0 -263.5 -120.5t-100.5 -290.5
q0 -153 91.5 -238.5t235.5 -85.5q81 0 142.5 17.5t128.5 57.5l12 -18q-116 -103 -299 -103q-171 0 -282 98t-111 270q0 121 56.5 223.5t159.5 164.5t230 62q165 0 261.5 -90.5t96.5 -227.5q0 -132 -74.5 -214.5t-170.5 -82.5zM390 215q43 0 91 81.5t74 193.5q-13 33 -51 33
q-59 0 -103.5 -83.5t-44.5 -166.5q0 -58 34 -58z" />
    </font>
</defs>
</svg>
