<?xml version="1.0" standalone="no"?>
<!DOCTYPE svg PUBLIC "-//W3C//DTD SVG 1.1//EN" "http://www.w3.org/Graphics/SVG/1.1/DTD/svg11.dtd" >
<svg xmlns="http://www.w3.org/2000/svg" xmlns:xlink="http://www.w3.org/1999/xlink" version="1.1">
<metadata>
Created by FontForge 20170731 at Fri Oct  4 19:18:48 2013
 By Aleksey,,,
(c) 2010 Klim Type Foundry. All rights reserved.
</metadata>
<defs>
<font id="TiemposHeadline-Medium" horiz-adv-x="500" >
  <font-face 
    font-family="Tiempos Headline Medium"
    font-weight="600"
    font-stretch="normal"
    units-per-em="1000"
    panose-1="2 2 6 3 6 3 3 6 4 3"
    ascent="783"
    descent="-217"
    x-height="530"
    cap-height="702"
    bbox="-101 -236 1253 1040"
    underline-thickness="30"
    underline-position="-160"
    unicode-range="U+0020-FB04"
  />
<missing-glyph horiz-adv-x="960" 
d="M90 0v780h780v-780h-780zM480 345l-279 -279h558zM201 714l279 -279l279 279h-558zM435 390l-275 275v-550zM525 390l275 -275v550z" />
    <glyph glyph-name="ff" unicode="ff" horiz-adv-x="667" 
d="M84 535v17q0 103 63 159t161 56q88 0 146 -44q56 60 157 60q131 0 131 -85q0 -40 -34 -56h-73q4 22 4 40q0 66 -42 66q-54 0 -54 -88v-130h123v-46h-123v-399q0 -29 17 -38.5t67 -13.5v-33h-284v33q36 2 48.5 10.5t12.5 33.5v407h-181v-407q0 -25 12.5 -33.5t48.5 -10.5
v-33h-262v33q36 2 49 10.5t13 33.5v407h-73v27zM404 577q0 47 14 86q-36 70 -103 70q-92 0 -92 -130v-73h181v47z" />
    <glyph glyph-name="fi" unicode="fi" horiz-adv-x="621" 
d="M543 540v-463q0 -25 13 -33.5t49 -10.5v-33h-262v33q36 2 48.5 10.5t12.5 33.5v407h-181v-407q0 -25 12.5 -33.5t48.5 -10.5v-33h-262v33q36 2 49 10.5t13 33.5v407h-73v27l73 24v24q0 109 66 166.5t170 57.5q75 0 116.5 -23t41.5 -66q0 -37 -35 -56h-83q4 16 4 39
q0 71 -60 71q-81 0 -81 -134v-84h253l38 10h29z" />
    <glyph glyph-name="fl" unicode="fl" horiz-adv-x="621" 
d="M543 783v-706q0 -25 13 -33.5t49 -10.5v-33h-262v33q36 2 48.5 10.5t12.5 33.5v593q-32 79 -100 79q-81 0 -81 -121v-98h110v-46h-110v-407q0 -25 12.5 -33.5t48.5 -10.5v-33h-262v33q36 2 49 10.5t13 33.5v407h-73v27l73 24v42q0 100 58 153t154 53q71 0 124 -30l101 30
h22z" />
    <glyph glyph-name="ffi" unicode="ffi" horiz-adv-x="941" 
d="M84 535v17q0 103 63 159t161 56q93 0 153 -49q64 65 179 65q75 0 116.5 -23t41.5 -66q0 -37 -35 -56h-83q4 16 4 39q0 71 -60 71q-81 0 -81 -134v-84h253l38 10h29v-463q0 -25 13 -33.5t49 -10.5v-33h-262v33q36 2 48.5 10.5t12.5 33.5v407h-181v-407q0 -25 13 -33.5
t49 -10.5v-33h-262v33q36 2 48.5 10.5t12.5 33.5v407h-181v-407q0 -25 12.5 -33.5t48.5 -10.5v-33h-262v33q36 2 49 10.5t13 33.5v407h-73v27zM404 559q0 54 17 96q-35 78 -106 78q-92 0 -92 -130v-73h181v29z" />
    <glyph glyph-name="ffl" unicode="ffl" horiz-adv-x="941" 
d="M308 767q87 0 147 -44q57 60 161 60q71 0 124 -30l101 30h22v-706q0 -25 13 -33.5t49 -10.5v-33h-262v33q36 2 48.5 10.5t12.5 33.5v593q-32 79 -100 79q-81 0 -81 -121v-98h110v-46h-110v-407q0 -25 12.5 -33.5t48.5 -10.5v-33h-261v33q36 2 48.5 10.5t12.5 33.5v407
h-181v-407q0 -25 12.5 -33.5t48.5 -10.5v-33h-262v33q36 2 49 10.5t13 33.5v407h-73v27l73 24v17q0 103 63 159t161 56zM404 530v47q0 48 14 85q-36 71 -103 71q-92 0 -92 -130v-73h181z" />
    <glyph glyph-name="f_b" unicode="fb" horiz-adv-x="933" 
d="M404 60v610q-32 79 -100 79q-81 0 -81 -121v-98h110v-46h-110v-407q0 -25 12.5 -33.5t48.5 -10.5v-33h-262v33q36 2 49 10.5t13 33.5v407h-73v27l73 24v42q0 100 58 153t154 53q71 0 124 -30l101 30h22v-337q62 94 168 94q92 0 145.5 -64t53.5 -179q0 -143 -78 -225
t-197 -82q-146 0 -231 70zM635 27q62 0 98.5 63t36.5 158q0 96 -35.5 152t-103.5 56q-50 0 -88 -35v-279q0 -115 92 -115z" />
    <glyph glyph-name="f_f_b" unicode="ffb" horiz-adv-x="1253" 
d="M724 60v610q-32 79 -100 79q-81 0 -81 -121v-98h110v-46h-110v-407q0 -25 12.5 -33.5t48.5 -10.5v-33h-261v33q36 2 48.5 10.5t12.5 33.5v407h-181v-407q0 -25 12.5 -33.5t48.5 -10.5v-33h-262v33q36 2 49 10.5t13 33.5v407h-73v27l73 24v17q0 103 63 159t161 56
q87 0 147 -44q57 60 161 60q71 0 124 -30l101 30h22v-337q62 94 168 94q92 0 145.5 -64t53.5 -179q0 -143 -78 -225t-197 -82q-146 0 -231 70zM955 27q62 0 98.5 63t36.5 158q0 96 -35.5 152t-103.5 56q-50 0 -88 -35v-279q0 -115 92 -115zM404 577q0 48 14 85
q-36 71 -103 71q-92 0 -92 -130v-73h181v47z" />
    <glyph glyph-name="f_h" unicode="fh" horiz-adv-x="943" 
d="M404 77v593q-32 79 -100 79q-81 0 -81 -121v-98h106v-46h-106v-407q0 -25 12.5 -33.5t48.5 -10.5v-33h-262v33q36 2 49 10.5t13 33.5v407h-73v27l73 24v42q0 100 58 153t154 53q71 0 124 -30l101 30h22v-341q82 98 184 98q143 0 143 -164v-299q0 -25 13 -33.5t50 -10.5
v-33h-262v33q36 2 48.5 10.5t12.5 33.5v292q0 87 -78 87q-51 0 -111 -41v-338q0 -25 12.5 -33.5t48.5 -10.5v-33h-262v33q36 2 49 10.5t13 33.5z" />
    <glyph glyph-name="f_f_h" unicode="ffh" horiz-adv-x="1263" 
d="M724 77v593q-32 79 -100 79q-81 0 -81 -121v-98h110v-46h-110v-407q0 -25 12.5 -33.5t48.5 -10.5v-33h-261v33q36 2 48.5 10.5t12.5 33.5v407h-181v-407q0 -25 12.5 -33.5t48.5 -10.5v-33h-262v33q36 2 49 10.5t13 33.5v407h-73v27l73 24v17q0 103 63 159t161 56
q87 0 147 -44q57 60 161 60q71 0 124 -30l101 30h22v-341q82 98 184 98q143 0 143 -164v-299q0 -25 13 -33.5t50 -10.5v-33h-262v33q36 2 48.5 10.5t12.5 33.5v292q0 87 -78 87q-51 0 -111 -41v-338q0 -25 12.5 -33.5t48.5 -10.5v-33h-262v33q36 2 49 10.5t13 33.5zM404 577
q0 48 14 85q-36 71 -103 71q-92 0 -92 -130v-73h181v47z" />
    <glyph glyph-name="f_idieresis" unicode="f&#xef;" horiz-adv-x="621" 
d="M543 540v-463q0 -25 13 -33.5t49 -10.5v-33h-262v33q36 2 48.5 10.5t12.5 33.5v407h-181v-407q0 -25 12.5 -33.5t48.5 -10.5v-33h-262v33q36 2 49 10.5t13 33.5v407h-73v27l73 24v24q0 108 63 166t164 58q71 0 109.5 -27.5t38.5 -74.5q0 -20 -10.5 -37.5t-25.5 -25.5h-81
q7 28 7 47q0 83 -54 83q-72 0 -72 -134v-84h253l38 10h29zM494 679q0 30 21.5 51.5t51.5 21.5q31 0 52.5 -21.5t21.5 -51.5t-21.5 -51.5t-52.5 -21.5q-30 0 -51.5 21.5t-21.5 51.5z" />
    <glyph glyph-name="f_f_idieresis" unicode="ff&#xef;" horiz-adv-x="941" 
d="M308 767q91 0 153 -49q62 65 170 65q71 0 109.5 -27.5t38.5 -74.5q0 -20 -10.5 -37.5t-25.5 -25.5h-81q7 28 7 47q0 83 -54 83q-72 0 -72 -134v-84h253l38 10h29v-463q0 -25 13 -33.5t49 -10.5v-33h-262v33q36 2 48.5 10.5t12.5 33.5v407h-181v-407q0 -25 13 -33.5
t49 -10.5v-33h-262v33q36 2 48.5 10.5t12.5 33.5v407h-181v-407q0 -25 12.5 -33.5t48.5 -10.5v-33h-262v33q36 2 49 10.5t13 33.5v407h-73v27l73 24v17q0 103 63 159t161 56zM404 530v29q0 54 17 97q-36 77 -106 77q-92 0 -92 -130v-73h181zM814 679q0 30 21.5 51.5
t51.5 21.5q31 0 52.5 -21.5t21.5 -51.5t-21.5 -51.5t-52.5 -21.5q-30 0 -51.5 21.5t-21.5 51.5z" />
    <glyph glyph-name="f_j" unicode="fj" horiz-adv-x="607" 
d="M404 484h-181v-407q0 -25 12.5 -33.5t48.5 -10.5v-33h-262v33q36 2 49 10.5t13 33.5v407h-73v27l73 24v24q0 109 66 166.5t170 57.5q75 0 116.5 -23t41.5 -66q0 -37 -35 -56h-83q4 16 4 39q0 71 -60 71q-81 0 -81 -134v-84h253l38 10h29v-445q0 -72 -11 -110.5t-38 -74.5
q-48 -62 -148 -128l-16 16l41 68q22 36 27.5 78t5.5 114v426z" />
    <glyph glyph-name="f_f_j" unicode="ffj" horiz-adv-x="927" 
d="M724 484h-181v-407q0 -25 13 -33.5t49 -10.5v-33h-262v33q36 2 48.5 10.5t12.5 33.5v407h-181v-407q0 -25 12.5 -33.5t48.5 -10.5v-33h-262v33q36 2 49 10.5t13 33.5v407h-73v27l73 24v17q0 103 63 159t161 56q93 0 153 -49q64 65 179 65q75 0 116.5 -23t41.5 -66
q0 -37 -35 -56h-83q4 16 4 39q0 71 -60 71q-81 0 -81 -134v-84h253l38 10h29v-445q0 -72 -11 -110.5t-38 -74.5q-48 -62 -148 -128l-16 16l41 68q22 36 27.5 78t5.5 114v426zM404 559q0 54 17 96q-35 78 -106 78q-92 0 -92 -130v-73h181v29z" />
    <glyph glyph-name="f_k" unicode="fk" horiz-adv-x="909" 
d="M552 284l158 143q28 25 28 42q0 13 -12.5 18t-50.5 10v33h212v-33q-53 -10 -81 -37l-132 -123l235 -314v-23h-147zM404 77v593q-32 79 -100 79q-81 0 -81 -121v-98h110v-46h-110v-407q0 -25 12.5 -33.5t48.5 -10.5v-33h-262v33q36 2 49 10.5t13 33.5v407h-73v27l73 24v42
q0 100 58 153t154 53q71 0 124 -30l101 30h22v-706q0 -25 13 -33.5t49 -10.5v-33h-263v33q36 2 49 10.5t13 33.5z" />
    <glyph glyph-name="f_f_k" unicode="ffk" horiz-adv-x="1229" 
d="M724 77v593q-32 79 -100 79q-81 0 -81 -121v-98h110v-46h-110v-407q0 -25 12.5 -33.5t48.5 -10.5v-33h-261v33q36 2 48.5 10.5t12.5 33.5v407h-181v-407q0 -25 12.5 -33.5t48.5 -10.5v-33h-262v33q36 2 49 10.5t13 33.5v407h-73v27l73 24v17q0 103 63 159t161 56
q87 0 147 -44q57 60 161 60q71 0 124 -30l101 30h22v-706q0 -25 13 -33.5t49 -10.5v-33h-263v33q36 2 49 10.5t13 33.5zM872 284l158 143q28 25 28 42q0 13 -12.5 18t-50.5 10v33h212v-33q-53 -10 -81 -37l-132 -123l235 -314v-23h-147zM404 577q0 48 14 85q-36 71 -103 71
q-92 0 -92 -130v-73h181v47z" />
    <glyph glyph-name=".notdef" horiz-adv-x="960" 
d="M90 0v780h780v-780h-780zM480 345l-279 -279h558zM201 714l279 -279l279 279h-558zM435 390l-275 275v-550zM525 390l275 -275v550z" />
    <glyph glyph-name=".null" horiz-adv-x="0" 
 />
    <glyph glyph-name="nonmarkingreturn" horiz-adv-x="333" 
 />
    <glyph glyph-name="space" unicode=" " horiz-adv-x="191" 
 />
    <glyph glyph-name="exclam" unicode="!" horiz-adv-x="266" 
d="M50 73q0 35 24.5 60t58.5 25t58.5 -25t24.5 -60q0 -34 -24.5 -58.5t-58.5 -24.5t-58.5 24.5t-24.5 58.5zM152 219h-38l-67 483h172z" />
    <glyph glyph-name="quotedbl" unicode="&#x22;" horiz-adv-x="313" 
d="M87 473h-12l-35 134q-18 65 -18 94q0 28 15 46t44 18t44 -18t15 -46q0 -29 -18 -94zM237 473h-11l-36 134q-18 75 -18 94q0 28 15.5 46t44.5 18t44 -18t15 -46q0 -29 -18 -94z" />
    <glyph glyph-name="numbersign" unicode="#" horiz-adv-x="536" 
d="M462 232h-116l-76 -241l-42 13l72 228h-140l-76 -241l-43 13l72 228h-91v38h103l56 176h-107v39h120l72 228l42 -13l-68 -215h140l72 228l42 -13l-68 -215h88v-39h-101l-55 -176h104v-38zM227 446l-55 -176h140l55 176h-140z" />
    <glyph glyph-name="dollar" unicode="$" horiz-adv-x="545" 
d="M258 -10q-13 0 -37 2l-18 -105h-35l19 109q-96 14 -151 60l-9 171h42q29 -147 126 -186l43 249q-6 2 -11 4q-98 34 -146 81t-48 130q0 92 64 149.5t169 57.5q16 0 44 -2l18 99h36l-18 -104q76 -15 128 -52v-149h-37q-22 118 -100 153l-40 -231q112 -41 163.5 -88.5
t51.5 -135.5q0 -101 -72 -156.5t-182 -55.5zM391 143q0 49 -26.5 77.5t-93.5 56.5l-43 -245q20 -2 30 -2q61 0 97 30.5t36 82.5zM150 565q0 -48 25 -74.5t88 -52.5l40 230q-16 4 -37 4q-53 0 -84.5 -29.5t-31.5 -77.5z" />
    <glyph glyph-name="percent" unicode="%" horiz-adv-x="767" 
d="M32 542q0 79 49 124.5t119 45.5t119 -45.5t49 -124.5t-49 -124.5t-119 -45.5t-119 45.5t-49 124.5zM125 542q0 -62 18 -101t57 -39t57 39t18 101q0 139 -75 139t-75 -139zM141 -10l439 722h46l-439 -722h-46zM735 160q0 -79 -49 -124.5t-119 -45.5t-118.5 46t-48.5 124
t48.5 124t118.5 46t119 -45.5t49 -124.5zM643 160q0 62 -18.5 101t-57.5 39t-57 -39t-18 -101q0 -139 75 -139q39 0 57.5 38.5t18.5 100.5z" />
    <glyph glyph-name="ampersand" unicode="&#x26;" horiz-adv-x="701" 
d="M10 181q0 137 160 189v1q-68 77 -68 160q0 84 56 132.5t149 48.5q87 0 140 -42.5t53 -109.5q0 -120 -171 -168l183 -207q27 52 27 110q0 33 -19 45t-61 13v35h229v-35q-52 -1 -73.5 -15.5t-29.5 -56.5q-14 -68 -47 -126l48 -54q29 -34 52.5 -49.5t54.5 -16.5v-35h-175
q-35 23 -68 56q-89 -66 -203 -66q-99 0 -168 50t-69 141zM306 53q61 0 116 33l-15 17l-216 243q-55 -39 -55 -126q0 -76 46.5 -121.5t123.5 -45.5zM218 579q0 -15 2.5 -28.5t8.5 -27t10 -22t14.5 -22t14.5 -18.5t17 -19t15 -16l9 -11q84 44 84 153q0 46 -22.5 77t-66.5 31
q-40 0 -63 -26.5t-23 -70.5z" />
    <glyph glyph-name="quotesingle" unicode="'" horiz-adv-x="162" 
d="M87 473h-12l-35 134q-18 65 -18 94q0 28 15 46t44 18t44 -18t15 -46q0 -29 -18 -94z" />
    <glyph glyph-name="parenleft" unicode="(" horiz-adv-x="355" 
d="M60 314q0 127 57.5 245t164.5 211h47q-159 -182 -159 -456t159 -456h-47q-107 93 -164.5 211t-57.5 245z" />
    <glyph glyph-name="parenright" unicode=")" horiz-adv-x="355" 
d="M295 314q0 -127 -57.5 -245t-164.5 -211h-47q158 180 158 456t-158 456h47q107 -93 164.5 -211t57.5 -245z" />
    <glyph glyph-name="asterisk" unicode="*" horiz-adv-x="423" 
d="M350 615l-127 -41l127 -41q25 -7 33.5 -24t-1.5 -33q-10 -17 -28 -18t-38 17l-99 89l29 -130q6 -25 -4 -40.5t-30 -15.5t-30.5 15.5t-3.5 40.5l28 130l-99 -89q-19 -18 -37.5 -17t-28.5 18q-10 16 -1.5 33t33.5 24l126 41l-126 41q-25 7 -33.5 24t1.5 34q10 16 28.5 17
t37.5 -16l99 -90l-28 131q-7 25 3.5 40t30.5 15q19 0 29.5 -15t4.5 -40l-29 -131l99 90q20 17 38 16t28 -17q10 -17 1.5 -34t-33.5 -24z" />
    <glyph glyph-name="plus" unicode="+" horiz-adv-x="569" 
d="M254 590h60v-190h191v-60h-191v-190h-60v190h-190v60h190v190z" />
    <glyph glyph-name="comma" unicode="," horiz-adv-x="233" 
d="M135 3h-38q-60 12 -60 72q0 35 22.5 55.5t57.5 20.5q40 0 63.5 -29t23.5 -75q0 -72 -45 -116.5t-129 -48.5v32q97 16 105 89z" />
    <glyph glyph-name="hyphen" unicode="-" horiz-adv-x="320" 
d="M290 273h-260v63h260v-63z" />
    <glyph glyph-name="period" unicode="." horiz-adv-x="233" 
d="M30 77q0 37 25.5 62t61.5 25t61 -25t25 -62t-25 -62t-61 -25t-61.5 25t-25.5 62z" />
    <glyph glyph-name="slash" unicode="/" horiz-adv-x="369" 
d="M351 770l-288 -911h-59l288 911h59z" />
    <glyph glyph-name="zero" unicode="0" horiz-adv-x="636" 
d="M318 26q131 0 131 325t-131 325t-131 -325t131 -325zM318 -10q-130 0 -209 99.5t-79 261.5t79 261.5t209 99.5t209.5 -99.5t79.5 -261.5t-79.5 -261.5t-209.5 -99.5z" />
    <glyph glyph-name="one" unicode="1" horiz-adv-x="396" 
d="M382 0h-357v35q74 4 90.5 16t16.5 58v450h-108v32l43 8q68 12 108 36.5t74 75.5h31v-602q0 -46 16.5 -57.5t85.5 -16.5v-35z" />
    <glyph glyph-name="two" unicode="2" horiz-adv-x="533" 
d="M144 122h181q60 0 88 16.5t64 84.5h28l-32 -223h-469v27l184 186q80 81 112.5 139.5t32.5 125.5q0 60 -33 95.5t-94 35.5q-89 0 -152 -79l-25 16q89 166 246 166q93 0 146.5 -49t53.5 -134q0 -37 -16.5 -76.5t-36.5 -69.5t-61.5 -71.5t-66.5 -63t-78.5 -66t-71.5 -60.5z
" />
    <glyph glyph-name="three" unicode="3" horiz-adv-x="520" 
d="M286 402q94 -6 152.5 -60t58.5 -134q0 -101 -74.5 -159.5t-181.5 -58.5q-111 0 -173.5 41t-62.5 101q0 27 13 47.5t32 29.5h88q-9 -24 -9 -58q0 -56 30.5 -91t83.5 -35q55 0 85.5 40t30.5 106q0 77 -48.5 121t-130.5 44h-27l-8 26q88 30 129 64.5t41 90.5q0 46 -27 73
t-77 27q-83 0 -141 -74l-21 17q71 152 228 152q79 0 127 -40t48 -108q0 -67 -50 -107t-116 -55z" />
    <glyph glyph-name="four" unicode="4" horiz-adv-x="605" 
d="M73 234h249v335zM322 101v89h-314v27l357 485h100v-468h118v-44h-118v-89q0 -41 14.5 -53t68.5 -17v-31h-310v31q55 5 69.5 17t14.5 53z" />
    <glyph glyph-name="five" unicode="5" horiz-adv-x="512" 
d="M444 575h-300l-19 -116q173 0 267.5 -59.5t94.5 -183.5q0 -103 -69 -164.5t-177 -61.5q-109 0 -170 40t-61 100q0 26 13.5 47.5t33.5 31.5h85q-8 -32 -8 -58q0 -59 28 -92.5t84 -33.5q57 0 91.5 36t34.5 97q0 177 -308 179l60 365h252q27 0 38.5 7t26.5 36h30z" />
    <glyph glyph-name="six" unicode="6" horiz-adv-x="582" 
d="M465 687q-245 -57 -281 -301q69 63 170 63q88 0 144.5 -56t56.5 -152q0 -114 -71 -182.5t-180 -68.5q-128 0 -200.5 84.5t-72.5 219.5q0 167 111.5 283t304.5 134zM273 385q-50 0 -92 -24q-3 -30 -3 -62q0 -124 34.5 -198t97.5 -74q54 0 83 45.5t29 121.5q0 86 -38 138.5
t-111 52.5z" />
    <glyph glyph-name="seven" unicode="7" horiz-adv-x="498" 
d="M409 564h-268q-35 0 -54.5 -19.5t-39.5 -69.5h-35l44 227h439v-34l-284 -668h-106z" />
    <glyph glyph-name="eight" unicode="8" horiz-adv-x="561" 
d="M501 548q0 -56 -43.5 -93.5t-104.5 -48.5l35 -16q145 -65 145 -193q0 -93 -67.5 -150t-186.5 -57q-114 0 -183.5 48t-69.5 129q0 61 44.5 102t114.5 57l-20 10q-116 55 -116 179q0 87 63.5 142t166.5 55t162.5 -44t59.5 -120zM323 262l-115 54q-71 -50 -71 -139
q0 -68 39 -110t104 -42q63 0 99.5 32t36.5 90q0 42 -23.5 68.5t-69.5 46.5zM252 457l78 -39q69 49 69 131q0 57 -32 92.5t-89 35.5q-52 0 -83 -29.5t-31 -77.5q0 -43 21 -66.5t67 -46.5z" />
    <glyph glyph-name="nine" unicode="9" horiz-adv-x="582" 
d="M117 15q245 56 281 300q-73 -62 -170 -62q-88 0 -144.5 56t-56.5 152q0 114 71 182.5t180 68.5q128 0 200.5 -84.5t72.5 -219.5q0 -167 -111.5 -283t-304.5 -134zM309 317q50 0 92 23q3 30 3 63q0 124 -34.5 198t-97.5 74q-54 0 -83 -45.5t-29 -121.5q0 -86 38 -138.5
t111 -52.5z" />
    <glyph glyph-name="colon" unicode=":" horiz-adv-x="233" 
d="M30 77q0 37 25.5 62t61.5 25t61 -25t25 -62t-25 -62t-61 -25t-61.5 25t-25.5 62zM30 402q0 37 25.5 62t61.5 25t61 -25t25 -62t-25 -62t-61 -25t-61.5 25t-25.5 62z" />
    <glyph glyph-name="semicolon" unicode=";" horiz-adv-x="233" 
d="M135 3h-38q-60 12 -60 72q0 35 22.5 55.5t57.5 20.5q40 0 63.5 -29t23.5 -75q0 -72 -45 -116.5t-129 -48.5v32q97 16 105 89zM30 402q0 37 25.5 62t61.5 25t61 -25t25 -62t-25 -62t-61 -25t-61.5 25t-25.5 62z" />
    <glyph glyph-name="less" unicode="&#x3c;" horiz-adv-x="419" 
d="M42 364v9l313 192v-72l-210 -124l210 -125v-71z" />
    <glyph glyph-name="equal" unicode="=" horiz-adv-x="579" 
d="M69 270v58h441v-58h-441zM69 411v60h441v-60h-441z" />
    <glyph glyph-name="greater" unicode="&#x3e;" horiz-adv-x="419" 
d="M378 373v-9l-314 -191v71l210 125l-210 124v72z" />
    <glyph glyph-name="question" unicode="?" horiz-adv-x="446" 
d="M312 586q0 44 -23 69.5t-64 25.5q-44 0 -65.5 -30t-21.5 -74q0 -27 3 -51h-92q-31 20 -31 57q0 57 57.5 93t147.5 36q97 0 152 -43.5t55 -125.5q0 -58 -35 -101.5t-104 -88.5q-43 -29 -60.5 -54t-17.5 -64v-23h-17q-23 15 -39.5 43t-16.5 61q0 72 80 134q32 25 48 39.5
t30 40t14 56.5zM125 73q0 35 24.5 60t58.5 25t58.5 -25t24.5 -60q0 -34 -24.5 -58.5t-58.5 -24.5t-58.5 24.5t-24.5 58.5z" />
    <glyph glyph-name="at" unicode="@" horiz-adv-x="867" 
d="M597 76q-73 0 -97 49t-7 126q-42 -84 -84.5 -129.5t-93.5 -45.5q-44 0 -71 34t-27 94q0 109 76.5 201.5t175.5 92.5q60 0 94 -38l70 35h27l-30 -89l-53 -202q-25 -96 32 -96q68 0 109 78t41 189q0 123 -73 202t-204 79q-110 0 -195.5 -59.5t-130 -154.5t-44.5 -207
q0 -148 89 -232.5t231 -84.5q82 0 143 17t129 57l11 -17q-120 -101 -297 -101q-171 0 -277.5 95.5t-106.5 264.5q0 120 56.5 224t160 168t231.5 64q162 0 256.5 -88.5t94.5 -226.5q0 -127 -69.5 -213t-166.5 -86zM363 146q43 0 92.5 84t78.5 203q-16 34 -55 34
q-63 0 -109 -84.5t-46 -172.5q0 -64 39 -64z" />
    <glyph glyph-name="A" unicode="A" horiz-adv-x="728" 
d="M492 118l-46 113h-269l-43 -112q-9 -23 -9 -39q0 -24 19.5 -33.5t66.5 -11.5v-35h-206v35q24 3 37.5 10.5t21.5 26.5l218 560l-31 75h156l257 -635q12 -30 59 -37v-35h-306v35q46 2 65 11.5t19 32.5q0 17 -9 39zM309 575l-116 -301h236z" />
    <glyph glyph-name="B" unicode="B" horiz-adv-x="662" 
d="M323 340h-69v-232q0 -40 18.5 -54t64.5 -14h10q68 0 103 38.5t35 112.5q0 69 -40.5 109t-121.5 40zM302 662h-48v-278h49q145 0 145 142q0 66 -38 101t-108 35zM366 0h-339v35q53 6 66.5 17t13.5 52v494q0 41 -13.5 52t-66.5 17v35h323q116 0 178.5 -44t62.5 -130
q0 -71 -54.5 -113t-133.5 -51q102 -3 165 -49.5t63 -125.5q0 -91 -68 -140t-197 -49z" />
    <glyph glyph-name="C" unicode="C" horiz-adv-x="656" 
d="M383 712q130 0 221 -59l1 -161h-38q-37 178 -180 178q-99 0 -150.5 -86.5t-51.5 -221.5q0 -145 55.5 -237t155.5 -92q72 0 119.5 49t73.5 156h40l-15 -188q-93 -60 -231 -60q-163 0 -258 94t-95 250q0 171 100.5 274.5t252.5 103.5z" />
    <glyph glyph-name="D" unicode="D" horiz-adv-x="749" 
d="M308 662h-54v-551q0 -42 18 -56.5t60 -14.5h18q96 0 155 81t59 223t-64.5 230t-191.5 88zM353 0h-326v35q53 6 66.5 17t13.5 52v494q0 41 -13.5 52t-66.5 17v35h307q97 0 171.5 -26.5t120.5 -73t69.5 -106.5t23.5 -131q0 -170 -101.5 -267.5t-264.5 -97.5z" />
    <glyph glyph-name="E" unicode="E" horiz-adv-x="635" 
d="M27 0v35q53 6 66.5 17t13.5 52v494q0 41 -13.5 52t-66.5 17v35h549l5 -180h-29q-38 84 -68.5 112t-89.5 28h-140v-278h127q32 0 46.5 21t22.5 71h35v-227h-35q-8 50 -22.5 70.5t-46.5 20.5h-127v-232q0 -39 20.5 -53.5t68.5 -14.5h62q57 0 89.5 31.5t86.5 128.5h35
l-31 -200h-558z" />
    <glyph glyph-name="F" unicode="F" horiz-adv-x="589" 
d="M254 331v-220q0 -41 24.5 -55.5t95.5 -19.5v-36h-347v35q53 6 66.5 17t13.5 52v494q0 41 -13.5 52t-66.5 17v35h535l5 -186h-28q-35 85 -68 115.5t-91 30.5h-126v-286h112q32 0 46 21t21 72h35v-231h-35q-7 51 -21 72t-46 21h-112z" />
    <glyph glyph-name="G" unicode="G" horiz-adv-x="720" 
d="M493 59v166q0 41 -13 52.5t-67 17.5v34h298v-34q-53 -6 -66.5 -17.5t-13.5 -52.5v-166q-107 -69 -255 -69q-162 0 -254 97t-92 247q0 171 102 274.5t257 103.5q134 0 223 -58l1 -162h-38q-37 179 -182 179q-70 0 -118 -42.5t-69 -110.5t-21 -157q0 -90 21.5 -162.5
t70 -119.5t117.5 -47q64 0 99 27z" />
    <glyph glyph-name="H" unicode="H" horiz-adv-x="808" 
d="M254 598v-215h301v215q0 41 -13.5 52t-66.5 17v35h306v-35q-53 -6 -66.5 -17t-13.5 -52v-494q0 -41 13.5 -52t66.5 -17v-35h-306v35q53 6 66.5 17t13.5 52v231h-301v-231q0 -41 13.5 -52t66.5 -17v-35h-307v35q53 6 66.5 17t13.5 52v494q0 41 -13.5 52t-66.5 17v35h307
v-35q-53 -6 -66.5 -17t-13.5 -52z" />
    <glyph glyph-name="I" unicode="I" horiz-adv-x="361" 
d="M254 598v-494q0 -41 13.5 -52t66.5 -17v-35h-307v35q53 6 66.5 17t13.5 52v494q0 41 -13.5 52t-66.5 17v35h307v-35q-53 -6 -66.5 -17t-13.5 -52z" />
    <glyph glyph-name="J" unicode="J" horiz-adv-x="532" 
d="M289 167v431q0 41 -13.5 52t-66.5 17v35h306v-35q-53 -6 -66.5 -17t-13.5 -52v-385q0 -112 -60.5 -167.5t-173.5 -55.5q-98 0 -152.5 36t-54.5 102q0 52 40 77h97q-6 -40 -6 -63q0 -55 20.5 -85.5t60.5 -30.5q43 0 63 34.5t20 106.5z" />
    <glyph glyph-name="K" unicode="K" horiz-adv-x="716" 
d="M391 409l216 -302q31 -42 51.5 -56t57.5 -16v-35h-191q-40 33 -87 101l-173 244l244 254q25 25 25 42q0 13 -15 18.5t-59 7.5v35h224v-35q-31 -1 -48.5 -10.5t-41.5 -33.5zM254 598v-494q0 -41 13.5 -52t66.5 -17v-35h-307v35q53 6 66.5 17t13.5 52v494q0 41 -13.5 52
t-66.5 17v35h307v-35q-53 -6 -66.5 -17t-13.5 -52z" />
    <glyph glyph-name="L" unicode="L" horiz-adv-x="614" 
d="M254 598v-490q0 -39 19.5 -53.5t67.5 -14.5h43q54 0 89 36.5t93 140.5h35l-35 -217h-539v35q53 6 66.5 17t13.5 52v494q0 41 -13.5 52t-66.5 17v35h307v-35q-53 -6 -66.5 -17t-13.5 -52z" />
    <glyph glyph-name="M" unicode="M" horiz-adv-x="937" 
d="M693 123l-50 414l-192 -537h-50l-202 537l-51 -414q-2 -14 -2 -24q0 -36 19.5 -48t75.5 -16v-35h-231v35q44 2 61.5 14t21.5 46l62 499q0 40 -18 55.5t-67 17.5v35h226q2 -22 16 -61l163 -436l152 437q14 39 16 60h223v-35q-48 -2 -66 -17.5t-18 -55.5l62 -499
q4 -35 21.5 -46.5t60.5 -13.5v-35h-325v35q55 4 74.5 16.5t19.5 47.5q0 10 -2 24z" />
    <glyph glyph-name="N" unicode="N" horiz-adv-x="747" 
d="M596 239v358q0 40 -18.5 52.5t-81.5 17.5v35h233v-35q-53 -6 -66.5 -18t-13.5 -52v-599h-49l-438 553v-446q0 -40 18 -52.5t81 -17.5v-35h-233v35q53 6 66.5 17.5t13.5 52.5v500q-25 35 -40 48t-41 14v35h205z" />
    <glyph glyph-name="O" unicode="O" horiz-adv-x="722" 
d="M365 31q83 0 126.5 91t43.5 223q0 65 -10.5 122t-31.5 103.5t-56 73.5t-81 27q-56 0 -95.5 -45.5t-57 -115t-17.5 -153.5q0 -88 18 -159.5t59.5 -119t101.5 -47.5zM355 -10q-152 0 -238.5 100.5t-86.5 246.5q0 169 95.5 272t241.5 103q102 0 177 -49t111.5 -126.5
t36.5 -171.5q0 -169 -95.5 -272t-241.5 -103z" />
    <glyph glyph-name="P" unicode="P" horiz-adv-x="626" 
d="M254 279v-168q0 -41 24.5 -55.5t95.5 -19.5v-36h-347v35q53 6 66.5 17t13.5 52v494q0 41 -13.5 52t-66.5 17v35h306q135 0 205.5 -58.5t70.5 -149.5q0 -101 -70.5 -158t-207.5 -57h-77zM254 662v-340h43q162 0 162 169q0 78 -41.5 124.5t-120.5 46.5h-43z" />
    <glyph glyph-name="Q" unicode="Q" horiz-adv-x="722" 
d="M372 -85l-54 77q-91 8 -157.5 58.5t-98.5 124.5t-32 162q0 169 95.5 272t241.5 103q102 0 177 -49t111.5 -126.5t36.5 -171.5q0 -144 -70.5 -241.5t-186.5 -124.5l71 -61q26 -23 41.5 -34.5t41.5 -23t54 -12.5v-14q-51 -36 -109 -36q-93 0 -162 97zM365 31q83 0 126.5 91
t43.5 223q0 65 -10.5 122t-31.5 103.5t-56 73.5t-81 27q-56 0 -95.5 -45.5t-57 -115t-17.5 -153.5q0 -88 18 -159.5t59.5 -119t101.5 -47.5z" />
    <glyph glyph-name="R" unicode="R" horiz-adv-x="718" 
d="M300 661h-46v-319h48q78 0 117.5 42.5t39.5 121.5q0 70 -41 112.5t-118 42.5zM254 300v-196q0 -41 13.5 -52t66.5 -17v-35h-307v35q53 6 66.5 17t13.5 52v494q0 41 -13.5 52t-66.5 17v35h319q123 0 192.5 -53t69.5 -142q0 -75 -48.5 -121.5t-114.5 -63.5l151 -205
q35 -47 59.5 -64t62.5 -18v-35h-190q-36 26 -84 98l-138 202h-52z" />
    <glyph glyph-name="S" unicode="S" horiz-adv-x="550" 
d="M261 -10q-69 0 -128 18.5t-94 47.5l-9 171h42q19 -92 67 -144.5t122 -52.5q61 0 96.5 30.5t35.5 82.5q0 54 -35 84.5t-128 64.5q-97 34 -145.5 82t-48.5 131q0 92 64 149.5t169 57.5q128 0 208 -59v-149h-37q-14 81 -57.5 124.5t-113.5 43.5q-52 0 -83 -29t-31 -77
q0 -51 31 -79.5t114 -58.5q111 -40 163 -89t52 -137q0 -101 -72 -156.5t-182 -55.5z" />
    <glyph glyph-name="T" unicode="T" horiz-adv-x="675" 
d="M29 702h617l15 -231h-32q-52 120 -81 157.5t-84 37.5h-53v-565q0 -39 17 -49t73 -17v-35h-326v35q31 4 43.5 6t26 9t17 18.5t3.5 32.5v565h-53q-29 0 -48.5 -8t-39.5 -35t-35 -57.5t-43 -94.5h-32z" />
    <glyph glyph-name="U" unicode="U" horiz-adv-x="733" 
d="M238 598v-344q0 -93 41 -144.5t122 -51.5q87 0 136.5 49t49.5 153v337q0 40 -16.5 52.5t-78.5 17.5v35h229v-35q-53 -6 -66.5 -18t-13.5 -52v-355q0 -123 -74.5 -187.5t-191.5 -64.5q-136 0 -209.5 63.5t-73.5 190.5v354q0 41 -13.5 52t-66.5 17v35h306v-35
q-53 -6 -66.5 -17t-13.5 -52z" />
    <glyph glyph-name="V" unicode="V" horiz-adv-x="710" 
d="M420 188l153 395q10 25 10 40q0 23 -17 33t-64 11v35h203v-35q-47 -6 -59 -37l-257 -636h-38l-287 636q-9 19 -22 26.5t-37 10.5v35h308v-35q-47 -1 -64.5 -10.5t-17.5 -32.5q0 -16 11 -41z" />
    <glyph glyph-name="W" unicode="W" horiz-adv-x="964" 
d="M631 -6l-137 406l-148 -406h-48l-234 636q-11 30 -59 37v35h293v-35q-39 -1 -55.5 -10.5t-16.5 -29.5q0 -12 12 -48l137 -383l97 269l-55 165q-11 31 -55 37v35h288v-35q-45 -1 -62.5 -10.5t-17.5 -32.5q0 -11 11 -51l122 -372l126 374q12 36 12 47q0 22 -18 33t-62 12
v35h198v-35q-48 -7 -58 -37l-222 -636h-48z" />
    <glyph glyph-name="X" unicode="X" horiz-adv-x="713" 
d="M442 112l-127 190l-144 -192q-18 -25 -18 -41q0 -32 82 -34v-35h-230v35q29 1 46 10t34 32l204 264l-189 284q-25 39 -76 42v35h316v-35q-39 0 -55 -5.5t-16 -21.5q0 -18 24 -52l100 -151l116 155q19 26 19 44q0 31 -73 31v35h219v-35q-53 -3 -81 -42l-174 -229l210 -315
q28 -43 79 -46v-35h-323v35q41 0 59.5 6.5t18.5 24.5q0 14 -21 46z" />
    <glyph glyph-name="Y" unicode="Y" horiz-adv-x="666" 
d="M407 272v-171q0 -39 16.5 -49t72.5 -17v-35h-321v35q56 7 73 17t17 49v169l-201 360q-11 19 -23.5 26.5t-35.5 10.5v35h301v-35q-46 -1 -62 -8.5t-16 -27.5q0 -17 21 -55l139 -243l130 241q21 42 21 57q0 19 -17.5 26.5t-61.5 9.5v35h201v-35q-43 -6 -59 -37z" />
    <glyph glyph-name="Z" unicode="Z" horiz-adv-x="607" 
d="M194 40h171q60 0 94.5 33.5t95.5 141.5h34l-35 -215h-536v26l378 636h-166q-60 0 -86 -30t-70 -131h-33l8 201h521v-26z" />
    <glyph glyph-name="bracketleft" unicode="[" horiz-adv-x="325" 
d="M177 677v-725q0 -36 21.5 -46t87.5 -14v-33h-201v911h201v-33q-66 -4 -87.5 -14t-21.5 -46z" />
    <glyph glyph-name="backslash" unicode="\" horiz-adv-x="369" 
d="M307 -141l-289 911h60l288 -911h-59z" />
    <glyph glyph-name="bracketright" unicode="]" horiz-adv-x="325" 
d="M147 -48v725q0 37 -21 46.5t-87 13.5v33h201v-911h-201v33q66 4 87 13.5t21 46.5z" />
    <glyph glyph-name="asciicircum" unicode="^" horiz-adv-x="465" 
d="M265 770l165 -290h-60l-137 245l-138 -245h-59l165 290h64z" />
    <glyph glyph-name="underscore" unicode="_" horiz-adv-x="403" 
d="M383 -124h-363v58h363v-58z" />
    <glyph glyph-name="grave" unicode="`" 
d="M146 763h141l55 -166h-35l-161 159v7z" />
    <glyph glyph-name="a" unicode="a" horiz-adv-x="524" 
d="M234 70q34 0 77 32v187l-86 -35q-34 -13 -51 -34t-17 -61q0 -41 19.5 -65t57.5 -24zM449 376v-265q0 -56 33 -56q18 0 40 10l6 -22q-45 -53 -114 -53q-40 0 -66 23t-34 65q-66 -86 -156 -86q-61 0 -98 34.5t-37 94.5q0 59 35.5 91.5t101.5 57.5l151 55v85q0 98 -71 98
q-67 0 -67 -84q0 -27 8 -62l-83 -11q-44 15 -44 63q0 60 55 93t142 33q99 0 148.5 -39t49.5 -125z" />
    <glyph glyph-name="b" unicode="b" horiz-adv-x="589" 
d="M60 683l-60 31v21l177 48h22v-337q62 94 168 94q92 0 145.5 -64t53.5 -179q0 -143 -78 -225t-197 -82q-146 0 -231 70v623zM290 27q62 0 99 63t37 158q0 96 -35.5 152t-103.5 56q-50 0 -88 -35v-279q0 -115 91 -115z" />
    <glyph glyph-name="c" unicode="c" horiz-adv-x="472" 
d="M144 305q0 -99 43 -157.5t118 -58.5q90 0 140 74l17 -10q-23 -81 -76 -122t-131 -41q-102 0 -167.5 70.5t-65.5 186.5q0 127 71 210t188 83q76 0 121 -30.5t45 -86.5q0 -49 -38 -67h-76q4 32 4 49q0 97 -73 97q-56 0 -88 -55.5t-32 -141.5z" />
    <glyph glyph-name="d" unicode="d" horiz-adv-x="601" 
d="M292 495q-62 0 -97.5 -56t-35.5 -151q0 -94 37.5 -153.5t103.5 -59.5q50 0 85 32v264q0 59 -24 91.5t-69 32.5zM385 683l-60 31v21l177 48h22v-677q0 -28 6.5 -37t33.5 -11l25 -2v-30l-182 -36h-26l4 93q-65 -93 -161 -93q-91 0 -146.5 68t-55.5 182q0 138 72 218t183 80
q70 0 108 -35v180z" />
    <glyph glyph-name="e" unicode="e" horiz-adv-x="495" 
d="M270 540q98 0 151 -58t53 -151v-23h-326q-3 -103 44 -163t122 -60q93 0 149 81l16 -9q-20 -77 -75 -122t-139 -45q-108 0 -175 72.5t-67 188.5q0 126 71.5 207.5t175.5 81.5zM260 503q-48 0 -76 -43t-34 -115h200q0 158 -90 158z" />
    <glyph glyph-name="f" unicode="f" horiz-adv-x="347" 
d="M223 484v-399q0 -29 17 -38.5t67 -13.5v-33h-285v33q36 2 49 10.5t13 33.5v407h-73v27l73 24v42q0 101 57 153.5t150 52.5q131 0 131 -85q0 -40 -34 -56h-73q4 22 4 40q0 66 -42 66q-54 0 -54 -88v-130h123v-46h-123z" />
    <glyph glyph-name="g" unicode="g" horiz-adv-x="526" 
d="M246 189q-56 0 -101 16q-34 -32 -34 -60q0 -34 35 -34h206q86 0 131 -35.5t45 -101.5q0 -92 -82 -144t-210 -52q-111 0 -174 32.5t-63 92.5q0 65 94 94q-29 11 -45.5 35.5t-16.5 55.5q0 67 93 126q-92 45 -92 143q0 84 61 133.5t157 49.5q39 0 89 -14l169 4v-58h-41
l-70 3q28 -18 45.5 -48.5t17.5 -66.5q0 -78 -59.5 -124.5t-154.5 -46.5zM350 -16h-241q-19 -22 -19 -59q0 -50 41 -79.5t112 -29.5q79 0 132.5 27.5t53.5 80.5q0 60 -79 60zM252 222q77 0 77 135q0 64 -22 106.5t-63 42.5q-79 0 -79 -133q0 -65 22.5 -108t64.5 -43z" />
    <glyph glyph-name="h" unicode="h" horiz-adv-x="619" 
d="M80 77v606l-60 31v21l177 48h22v-341q82 98 184 98q144 0 144 -164v-299q0 -25 13 -33.5t49 -10.5v-33h-262v33q36 2 48.5 10.5t12.5 33.5v292q0 87 -78 87q-51 0 -111 -41v-338q0 -25 12.5 -33.5t48.5 -10.5v-33h-262v33q36 2 49 10.5t13 33.5z" />
    <glyph glyph-name="i" unicode="i" horiz-adv-x="300" 
d="M222 540v-463q0 -25 13 -33.5t50 -10.5v-33h-264v33q37 2 50 10.5t13 33.5v354l-60 35v19l176 55h22zM151 600q-35 0 -58 23.5t-23 55.5q0 33 23 56t58 23q36 0 59 -23t23 -56q0 -32 -23 -55.5t-59 -23.5z" />
    <glyph glyph-name="j" unicode="j" horiz-adv-x="273" 
d="M71 431l-60 35v19l176 55h22v-445q0 -72 -11 -110.5t-37 -74.5q-51 -65 -149 -128l-15 16l41 68q22 36 27.5 78t5.5 114v373zM137 600q-35 0 -58 23.5t-23 55.5q0 33 23 56t58 23q36 0 59 -23t23 -56q0 -32 -23 -55.5t-59 -23.5z" />
    <glyph glyph-name="k" unicode="k" horiz-adv-x="586" 
d="M229 284l157 143q29 25 29 42q0 13 -12.5 18t-51.5 10v33h213v-33q-53 -10 -81 -37l-133 -123l236 -314v-23h-148zM81 77v606l-60 31v21l177 48h22v-706q0 -25 13 -33.5t49 -10.5v-33h-263v33q36 2 49 10.5t13 33.5z" />
    <glyph glyph-name="l" unicode="l" horiz-adv-x="297" 
d="M220 783v-706q0 -25 13 -33.5t49 -10.5v-33h-263v33q36 2 49 10.5t13 33.5v606l-60 31v21l177 48h22z" />
    <glyph glyph-name="m" unicode="m" horiz-adv-x="923" 
d="M712 77v293q0 44 -17 65t-55 21q-46 0 -103 -42v-337q0 -25 11.5 -33.5t47.5 -10.5v-33h-258v33q36 2 48 10t12 34v293q0 44 -17 65t-55 21q-44 0 -104 -41v-338q0 -25 12 -33.5t48 -10.5v-33h-261v33q37 2 50 10.5t13 33.5v354l-60 35v19l179 55h23l-4 -99q77 99 179 99
q111 0 130 -101q80 101 183 101q137 0 137 -161v-302q0 -25 13 -33.5t49 -10.5v-33h-260v33q36 2 47.5 10.5t11.5 33.5z" />
    <glyph glyph-name="n" unicode="n" horiz-adv-x="623" 
d="M411 77v292q0 44 -18 65.5t-59 21.5q-52 0 -112 -41v-338q0 -25 12.5 -33.5t48.5 -10.5v-33h-262v33q37 2 50 10.5t13 33.5v354l-60 35v19l179 55h23l-4 -98q84 98 185 98q143 0 143 -163v-300q0 -25 13 -33.5t49 -10.5v-33h-262v33q36 2 48.5 10.5t12.5 33.5z" />
    <glyph glyph-name="o" unicode="o" horiz-adv-x="561" 
d="M284 26q54 0 80.5 57t26.5 159q0 118 -28.5 189.5t-85.5 71.5q-54 0 -81 -57t-27 -158q0 -118 29 -190t86 -72zM279 -10q-115 0 -186 72t-71 191q0 127 73.5 207t186.5 80q115 0 186 -73t71 -191q0 -126 -73.5 -206t-186.5 -80z" />
    <glyph glyph-name="p" unicode="p" horiz-adv-x="604" 
d="M305 28q62 0 99 62.5t37 157.5q0 96 -35.5 152t-103.5 56q-50 0 -88 -35v-278q0 -115 91 -115zM75 -135v566l-60 35v19l179 55h24l-4 -94q62 94 168 94q92 0 145.5 -64t53.5 -179q0 -143 -75.5 -225t-191.5 -82q-68 0 -100 28v-150q0 -27 15.5 -35t66.5 -12v-33h-283v33
q36 2 49 10.5t13 33.5z" />
    <glyph glyph-name="q" unicode="q" horiz-adv-x="586" 
d="M292 502q-62 0 -97.5 -57.5t-35.5 -151.5q0 -96 37.5 -157t103.5 -61q50 0 85 32v270q0 59 -25 92t-68 33zM385 -132v215q-66 -93 -161 -93q-91 0 -146.5 68t-55.5 182q0 138 73 219t186 81q100 0 159 -62l62 60h27l-5 -112v-561q0 -25 13 -33.5t49 -10.5v-33h-284v33
q51 4 67 12t16 35z" />
    <glyph glyph-name="r" unicode="r" horiz-adv-x="411" 
d="M222 361v-276q0 -29 17.5 -38.5t67.5 -13.5v-33h-286v33q37 2 50 10.5t13 33.5v354l-60 35v19l179 55h23l-4 -148q37 84 65.5 116t71.5 32q30 0 44 -17v-108h-19q-56 0 -91.5 -9.5t-70.5 -44.5z" />
    <glyph glyph-name="s" unicode="s" horiz-adv-x="455" 
d="M220 -10q-112 0 -180 50l-6 137h37q17 -69 56 -110.5t94 -41.5q42 0 68.5 20.5t26.5 60.5q0 38 -26 59t-90 44q-85 29 -123.5 67t-38.5 105q0 74 51 116.5t135 42.5q95 0 163 -44v-121h-34q-13 58 -45.5 94t-83.5 36q-38 0 -59.5 -20t-21.5 -53t24 -53.5t84 -42.5
q89 -31 130.5 -69.5t41.5 -107.5q0 -79 -55 -124t-148 -45z" />
    <glyph glyph-name="t" unicode="t" horiz-adv-x="360" 
d="M203 660v-130h130v-46h-130v-331q0 -87 70 -87q38 0 75 28l12 -18q-55 -86 -154 -86q-66 0 -104 37.5t-38 117.5v339h-62v23q101 45 171 153h30z" />
    <glyph glyph-name="u" unicode="u" horiz-adv-x="601" 
d="M524 422v-316q0 -28 6.5 -37t33.5 -11l25 -2v-30l-182 -36h-25l3 96q-39 -44 -80 -70t-94 -26q-68 0 -106.5 40t-38.5 122v260q0 26 -9 38.5t-37 17.5l-16 3v30l184 38h22l-5 -119v-250q0 -97 78 -97q44 0 102 38v301q0 26 -9 38.5t-37 17.5l-15 3v30l182 38h22z" />
    <glyph glyph-name="v" unicode="v" horiz-adv-x="565" 
d="M560 530v-33q-26 -7 -35 -14t-16 -24l-198 -466h-37l-218 466q-8 17 -16.5 24t-34.5 14v33h272v-33q-40 -5 -53.5 -11t-13.5 -23q0 -9 6 -28l120 -277l112 278q7 18 7 27q0 16 -13 22t-55 12v33h173z" />
    <glyph glyph-name="w" unicode="w" horiz-adv-x="837" 
d="M617 168l105 268q5 17 5 27q0 17 -14 23.5t-48 10.5v33h167v-33q-25 -7 -34.5 -14.5t-16.5 -23.5l-189 -466h-43l-120 323l-133 -323h-42l-198 466q-7 17 -16 24t-35 14v33h261v-33q-31 -4 -44 -10.5t-13 -22.5q0 -15 6 -28l106 -275l86 214l-31 84q-6 16 -15.5 23.5
t-33.5 14.5v33h254v-33q-37 -5 -50.5 -11t-13.5 -24q0 -11 4 -26z" />
    <glyph glyph-name="x" unicode="x" horiz-adv-x="573" 
d="M343 93l-97 135l-101 -134q-13 -17 -13 -31q0 -27 61 -30v-33h-188v33q48 12 68 39l147 193l-138 194q-19 28 -57 38v33h260v-33q-52 -4 -52 -26q0 -11 15 -34l76 -107l80 105q16 24 16 35q0 22 -52 27v33h175v-33q-48 -12 -68 -40l-125 -163l159 -223q18 -28 59 -38v-33
h-266v33q58 3 58 24q0 11 -17 36z" />
    <glyph glyph-name="y" unicode="y" horiz-adv-x="563" 
d="M335 139l112 296q7 17 7 28q0 17 -13.5 23t-54.5 11v33h172v-33q-25 -7 -34.5 -14.5t-16.5 -23.5l-220 -554q-26 -65 -56 -95t-76 -30q-26 0 -48 12.5t-29 33.5v51q38 -9 68 -9q43 0 68 15t40 55l17 43l-215 478q-7 17 -16 24t-35 14v33h272v-33q-40 -5 -54 -11t-14 -23
q0 -10 6 -28z" />
    <glyph glyph-name="z" unicode="z" horiz-adv-x="508" 
d="M25 0v23l293 466h-119q-41 0 -68 -32.5t-57 -112.5h-32l16 217h29l15 -33h375v-25l-286 -464h128q44 0 73.5 33.5t61.5 118.5h31l-19 -191h-441z" />
    <glyph glyph-name="braceleft" unicode="{" horiz-adv-x="354" 
d="M50 307v15q83 17 83 100v220q0 60 47.5 94t137.5 34v-25q-89 -10 -89 -98v-216q0 -51 -26.5 -76.5t-82.5 -39.5q56 -15 82.5 -40t26.5 -77v-215q0 -88 89 -98v-25q-90 0 -137.5 34t-47.5 94v219q0 83 -83 100z" />
    <glyph glyph-name="bar" unicode="|" horiz-adv-x="211" 
d="M133 770v-911h-56v911h56z" />
    <glyph glyph-name="braceright" unicode="}" horiz-adv-x="359" 
d="M309 322v-15q-83 -17 -83 -100v-219q0 -60 -47.5 -94t-137.5 -34v25q88 10 88 98v215q0 52 27 77t83 40q-56 14 -83 39.5t-27 76.5v216q0 88 -88 98v25q90 0 137.5 -34t47.5 -94v-220q0 -83 83 -100z" />
    <glyph glyph-name="asciitilde" unicode="~" horiz-adv-x="472" 
d="M414 381l28 -11q-23 -73 -53 -107.5t-78 -34.5q-32 0 -87.5 35.5t-82.5 35.5t-45.5 -16t-37.5 -49l-28 10q23 73 53.5 108t78.5 35q32 0 87.5 -36t82.5 -36q26 0 44.5 16.5t37.5 49.5z" />
    <glyph glyph-name="uni00A0" unicode="&#xa0;" horiz-adv-x="191" 
 />
    <glyph glyph-name="exclamdown" unicode="&#xa1;" horiz-adv-x="266" 
d="M50 520q0 34 24.5 58.5t58.5 24.5t58.5 -24.5t24.5 -58.5q0 -35 -24.5 -60t-58.5 -25t-58.5 25t-24.5 60zM114 374h38l67 -483h-172z" />
    <glyph glyph-name="cent" unicode="&#xa2;" horiz-adv-x="525" 
d="M185 -112l21 111q-80 21 -127 89t-47 166q0 130 75.5 214.5t198.5 84.5h8l20 104h35l-21 -107q63 -8 101 -37.5t38 -78.5q0 -48 -41 -68h-69q4 23 4 52q0 68 -42 88l-79 -408q29 -13 68 -13q95 0 152 82l17 -10q-24 -83 -81 -125t-139 -42q-20 0 -38 3l-20 -105h-34z
M153 310q0 -138 76 -194l77 399q-4 1 -14 1q-63 0 -101 -58.5t-38 -147.5z" />
    <glyph glyph-name="sterling" unicode="&#xa3;" horiz-adv-x="658" 
d="M101 350v37h100l7 64q23 261 247 261q73 0 119.5 -28.5t46.5 -81.5q0 -25 -13.5 -44.5t-32.5 -27.5h-79q9 32 9 68q0 84 -52 84q-69 0 -91 -156l-20 -139h162v-37h-167l-9 -69q-10 -87 -33 -137q92 -45 198 -45q100 0 100 79q0 14 -5 32l19 5q31 -39 31 -89
q0 -65 -40 -100.5t-110 -35.5q-121 0 -226 90q-48 -90 -148 -90q-48 0 -76 27t-28 70q0 46 30.5 72.5t75.5 26.5q35 0 64 -10l17 174h-96zM103 34q28 0 47.5 23.5t24.5 71.5q-36 19 -65 19q-27 0 -43 -16t-16 -45q0 -25 14.5 -39t37.5 -14z" />
    <glyph glyph-name="currency" unicode="&#xa4;" horiz-adv-x="582" 
d="M67 544l28 28l72 -75q53 45 124 45q70 0 123 -45l73 75l28 -28l-74 -74q42 -55 42 -125q0 -72 -42 -125l74 -74l-28 -28l-73 74q-52 -44 -123 -44q-72 0 -124 44l-72 -74l-28 28l74 74q-42 51 -42 125q0 72 42 125zM145 345q0 -67 41.5 -111t104.5 -44q62 0 103.5 44
t41.5 111q0 68 -41 111.5t-104 43.5t-104.5 -43.5t-41.5 -111.5z" />
    <glyph glyph-name="yen" unicode="&#xa5;" horiz-adv-x="658" 
d="M403 278v-34h165v-38h-165v-105q0 -39 16.5 -49t72.5 -17v-35h-321v35q31 4 43.5 6t26 9t17 18.5t3.5 32.5v105h-168v38h168v33l-27 48h-141v38h120l-149 267q-11 19 -23.5 26.5t-35.5 10.5v35h302v-35q-46 -2 -62 -9.5t-16 -27.5q0 -17 20 -54l132 -240l128 238
q17 36 17 57q0 19 -17 26.5t-61 9.5v35h205v-35q-43 -6 -59 -37l-145 -267h119v-38h-140z" />
    <glyph glyph-name="brokenbar" unicode="&#xa6;" horiz-adv-x="211" 
d="M133 770v-376h-56v376h56zM133 235v-376h-56v376h56z" />
    <glyph glyph-name="section" unicode="&#xa7;" horiz-adv-x="524" 
d="M153 630q-62 -60 -62 -157q0 -74 30 -141t86 -144q7 -10 48.5 -65t59.5 -82.5t37.5 -75t18.5 -85.5q62 60 62 157q0 73 -30 140t-86 145q-5 7 -48 64t-60 83t-37 74t-19 87zM233 -202q-73 0 -114 28.5t-41 74.5q0 39 41 55h74v-31q0 -98 73 -98q34 0 51 20.5t17 50.5
q0 27 -17 63t-34.5 61.5t-54.5 73.5t-52 69q-60 83 -92 155.5t-32 152.5q0 106 69.5 172.5t169.5 66.5q73 0 114 -28.5t41 -74.5q0 -39 -40 -55h-75v30q0 98 -73 98q-34 0 -50.5 -20t-16.5 -51q0 -27 16.5 -63t34 -61t54.5 -73t52 -69q60 -83 92 -155.5t32 -152.5
q0 -106 -69.5 -172.5t-169.5 -66.5z" />
    <glyph glyph-name="dieresis" unicode="&#xa8;" 
d="M82 679q0 30 21.5 51.5t51.5 21.5q31 0 52.5 -21.5t21.5 -51.5t-21.5 -51.5t-52.5 -21.5q-30 0 -51.5 21.5t-21.5 51.5zM276 679q0 30 21.5 51.5t50.5 21.5q31 0 52.5 -21.5t21.5 -51.5t-21.5 -51.5t-52.5 -21.5q-29 0 -50.5 21.5t-21.5 51.5z" />
    <glyph glyph-name="copyright" unicode="&#xa9;" horiz-adv-x="788" 
d="M66 351q0 -140 92.5 -236.5t235.5 -96.5q142 0 235 97t93 236t-93 236t-235 97q-143 0 -235.5 -96.5t-92.5 -236.5zM36 351q0 151 101.5 256t256.5 105t256.5 -105t101.5 -256t-101.5 -256t-256.5 -105t-256.5 105t-101.5 256zM415 174q43 0 68 28.5t44 86.5h29l-9 -111
q-63 -36 -138 -36q-95 0 -151.5 56.5t-56.5 145.5q0 100 60.5 160t149.5 60q81 0 133 -41v-100h-28q-22 109 -100 109q-55 0 -84.5 -50.5t-29.5 -123.5q0 -83 30 -133.5t83 -50.5z" />
    <glyph glyph-name="ordfeminine" unicode="&#xaa;" horiz-adv-x="383" 
d="M165 410q25 0 54 22v113l-52 -22q-45 -18 -45 -62q0 -51 43 -51zM310 596v-157q0 -40 24 -40q14 0 30 7l4 -15q-31 -37 -77 -37q-28 0 -46.5 16.5t-23.5 44.5q-42 -59 -105 -59q-38 0 -62 23t-24 60q0 39 23.5 60.5t66.5 36.5l99 34v42q0 76 -47 76q-41 0 -41 -51
q0 -19 6 -42l-61 -8q-28 10 -28 42q0 39 36.5 61t95.5 22q67 0 98.5 -27t31.5 -89z" />
    <glyph glyph-name="guillemotleft" unicode="&#xab;" horiz-adv-x="458" 
d="M29 272v6l188 196h38l-107 -199l107 -199h-38zM204 272v6l188 196h38l-107 -199l107 -199h-38z" />
    <glyph glyph-name="registered" unicode="&#xae;" horiz-adv-x="515" 
d="M249 586h-18v-100h18q50 0 50 52q0 48 -50 48zM150 607h111q47 0 71 -19.5t24 -49.5q0 -25 -17 -42t-40 -23l43 -58q19 -27 42 -28v-16h-64q-16 9 -35 38l-39 58h-15v-55q0 -15 5.5 -20t21.5 -5v-16h-108v16q17 0 22.5 5t5.5 20v153q0 15 -5.5 19t-22.5 6v17zM58 484
q0 -83 56.5 -142t142.5 -59t143 59t57 142q0 84 -57 143t-143 59t-142.5 -59t-56.5 -143zM30 484q0 96 64.5 162t162.5 66q99 0 163.5 -66t64.5 -162q0 -95 -65 -161t-163 -66t-162.5 66t-64.5 161z" />
    <glyph glyph-name="macron" unicode="&#xaf;" 
d="M115 624v68h269v-68h-269z" />
    <glyph glyph-name="degree" unicode="&#xb0;" horiz-adv-x="280" 
d="M65 593q0 -36 20 -58t55 -22t55 22t20 58t-20 58t-55 22t-55 -22t-20 -58zM20 593q0 50 35 84.5t85 34.5t85 -34.5t35 -84.5t-35 -84t-85 -34t-85 34t-35 84z" />
    <glyph glyph-name="plusminus" unicode="&#xb1;" horiz-adv-x="569" 
d="M255 605h58v-146h191v-58h-191v-145h-58v145h-190v58h190v146zM65 141v59h439v-59h-439z" />
    <glyph glyph-name="twosuperior" unicode="&#xb2;" horiz-adv-x="381" 
d="M135 386h106q29 0 42.5 8.5t32.5 41.5h18l-12 -131h-292v20l109 103q45 44 63 75.5t18 67.5q0 34 -18 52.5t-52 18.5q-53 0 -94 -47l-17 14q23 44 62 72.5t93 28.5q56 0 87.5 -30.5t31.5 -83.5q0 -12 -3 -24.5t-6 -22.5t-11.5 -22t-13.5 -20t-19 -20.5t-20 -19t-24 -20.5
t-24.5 -19t-28 -21t-28.5 -21z" />
    <glyph glyph-name="threesuperior" unicode="&#xb3;" horiz-adv-x="373" 
d="M207 528q57 -3 91.5 -32.5t34.5 -77.5q0 -55 -45.5 -86.5t-112.5 -31.5q-66 0 -102 24t-36 60q0 32 26 44h57q-4 -13 -4 -27q0 -76 64 -76q30 0 47.5 21t17.5 60q0 86 -98 86h-15l-5 19q48 17 69.5 36t21.5 46q0 24 -15.5 39.5t-44.5 15.5q-52 0 -82 -49l-22 14
q46 99 149 99q51 0 78.5 -24t27.5 -64q0 -38 -30 -62.5t-72 -33.5z" />
    <glyph glyph-name="acute" unicode="&#xb4;" 
d="M201 763h141v-7l-161 -159h-35z" />
    <glyph glyph-name="mu" unicode="&#xb5;" horiz-adv-x="601" 
d="M194 7l13 -180v-14l-141 -10v609q0 26 -9 38.5t-37 17.5l-16 3v30l184 38h22l-5 -119v-250q0 -97 78 -97q44 0 102 38v301q0 26 -9 38.5t-37 17.5l-15 3v30l182 38h22l-4 -117v-316q0 -28 6.5 -37t33.5 -11l25 -2v-30l-182 -36h-25l3 96q-63 -96 -150 -96q-27 0 -41 17z
" />
    <glyph glyph-name="paragraph" unicode="&#xb6;" horiz-adv-x="613" 
d="M319 -197v408q-128 0 -199 71t-71 178q0 106 70.5 174t199.5 68h269v-35q-57 -1 -79.5 -15t-22.5 -58v-791h-43v862h-82v-862h-42zM319 247v419q-68 -3 -101.5 -63.5t-33.5 -142.5q0 -83 34 -146.5t101 -66.5z" />
    <glyph glyph-name="periodcentered" unicode="&#xb7;" horiz-adv-x="235" 
d="M30 303q0 38 25.5 63t61.5 25q37 0 62.5 -25t25.5 -63q0 -37 -25.5 -62t-62.5 -25q-36 0 -61.5 25t-25.5 62z" />
    <glyph glyph-name="cedilla" unicode="&#xb8;" 
d="M157 -226l-7 31q52 0 81.5 14t29.5 36q0 37 -83 40l46 113h32l-21 -52q47 0 75 -20t28 -58q0 -51 -50.5 -77.5t-130.5 -26.5z" />
    <glyph glyph-name="onesuperior" unicode="&#xb9;" horiz-adv-x="333" 
d="M188 712h26v-335q0 -25 14 -31.5t62 -9.5v-29h-250v29q50 3 63.5 9.5t13.5 31.5v232h-77v24l25 5q44 7 70.5 24t52.5 50z" />
    <glyph glyph-name="ordmasculine" unicode="&#xba;" horiz-adv-x="396" 
d="M201 383q69 0 69 139q0 71 -19 116t-56 45q-69 0 -69 -139q0 -71 19 -116t56 -45zM195 354q-75 0 -121 47.5t-46 124.5q0 84 48.5 135t124.5 51q75 0 121 -47.5t46 -123.5q0 -84 -48.5 -135.5t-124.5 -51.5z" />
    <glyph glyph-name="guillemotright" unicode="&#xbb;" horiz-adv-x="458" 
d="M430 278v-6l-189 -196h-37l107 199l-107 199h37zM255 278v-6l-189 -196h-37l107 199l-107 199h37z" />
    <glyph glyph-name="onequarter" unicode="&#xbc;" horiz-adv-x="777" 
d="M420 139h141v174zM188 712h26v-335q0 -25 14 -31.5t62 -9.5v-29h-250v29q50 3 63.5 9.5t13.5 31.5v232h-77v24l25 5q44 9 71 25.5t52 48.5zM149 -10l438 722h46l-438 -722h-46zM716 0h-214v28q38 3 48.5 9.5t10.5 31.5v37h-191v24l216 270h71v-261h79v-33h-79v-37
q0 -25 10.5 -31.5t48.5 -9.5v-28z" />
    <glyph glyph-name="onehalf" unicode="&#xbd;" horiz-adv-x="794" 
d="M188 712h26v-335q0 -25 14 -31.5t62 -9.5v-29h-250v29q50 3 63.5 9.5t13.5 31.5v232h-77v24l25 5q44 7 70.5 24t52.5 50zM149 -10l438 722h46l-438 -722h-46zM548 80h106q29 0 42 9t33 41h18l-12 -130h-292v19l109 104q45 44 63 75.5t18 66.5q0 34 -18 52.5t-52 18.5
q-54 0 -94 -46l-16 14q22 43 61.5 71.5t92.5 28.5q56 0 87.5 -30t31.5 -83q0 -37 -25.5 -74t-50 -58t-85.5 -66q-5 -4 -9 -7z" />
    <glyph glyph-name="threequarters" unicode="&#xbe;" horiz-adv-x="792" 
d="M207 530q58 -2 92 -32t34 -78q0 -56 -45.5 -88t-112.5 -32q-66 0 -102 24t-36 60q0 32 26 44h57q-4 -13 -4 -27q0 -76 64 -76q30 0 47.5 21t17.5 60q0 86 -98 86h-15l-5 19q48 17 69.5 36t21.5 46q0 24 -15.5 39.5t-44.5 15.5q-52 0 -82 -49l-22 14q46 99 149 99
q51 0 78.5 -24t27.5 -64q0 -69 -102 -94zM435 139h141v174zM164 -10l438 722h46l-438 -722h-46zM731 0h-214v28q38 3 48.5 9.5t10.5 31.5v37h-191v24l216 270h71v-261h79v-33h-79v-37q0 -25 10.5 -31.5t48.5 -9.5v-28z" />
    <glyph glyph-name="questiondown" unicode="&#xbf;" horiz-adv-x="446" 
d="M141 7q0 -44 23 -69.5t64 -25.5q44 0 65.5 30t21.5 74q0 27 -3 51h92q31 -20 31 -57q0 -57 -57.5 -93t-147.5 -36q-97 0 -152 43.5t-55 125.5q0 58 35 101.5t104 88.5q43 29 60.5 54t17.5 64v23h17q23 -15 39.5 -43t16.5 -61q0 -72 -80 -134q-32 -25 -48 -39.5t-30 -40
t-14 -56.5zM328 520q0 -35 -24.5 -60t-58.5 -25t-58.5 25t-24.5 60q0 34 24.5 58.5t58.5 24.5t58.5 -24.5t24.5 -58.5z" />
    <glyph glyph-name="Agrave" unicode="&#xc0;" horiz-adv-x="728" 
d="M492 118l-46 113h-269l-43 -112q-9 -23 -9 -39q0 -24 19.5 -33.5t66.5 -11.5v-35h-206v35q24 3 37.5 10.5t21.5 26.5l218 560l-31 75h156l257 -635q12 -30 59 -37v-35h-306v35q46 2 65 11.5t19 32.5q0 17 -9 39zM309 575l-116 -301h236zM183 896h144l52 -149h-37
l-159 142v7z" />
    <glyph glyph-name="Aacute" unicode="&#xc1;" horiz-adv-x="728" 
d="M492 118l-46 113h-269l-43 -112q-9 -23 -9 -39q0 -24 19.5 -33.5t66.5 -11.5v-35h-206v35q24 3 37.5 10.5t21.5 26.5l218 560l-31 75h156l257 -635q12 -30 59 -37v-35h-306v35q46 2 65 11.5t19 32.5q0 17 -9 39zM309 575l-116 -301h236zM353 896h144v-7l-159 -142h-37z
" />
    <glyph glyph-name="Acircumflex" unicode="&#xc2;" horiz-adv-x="728" 
d="M492 118l-46 113h-269l-43 -112q-9 -23 -9 -39q0 -24 19.5 -33.5t66.5 -11.5v-35h-206v35q24 3 37.5 10.5t21.5 26.5l218 560l-31 75h156l257 -635q12 -30 59 -37v-35h-306v35q46 2 65 11.5t19 32.5q0 17 -9 39zM309 575l-116 -301h236zM392 903l125 -156h-40l-133 82
l-133 -82h-40l125 156h96z" />
    <glyph glyph-name="Atilde" unicode="&#xc3;" horiz-adv-x="728" 
d="M492 118l-46 113h-269l-43 -112q-9 -23 -9 -39q0 -24 19.5 -33.5t66.5 -11.5v-35h-206v35q24 3 37.5 10.5t21.5 26.5l218 560l-31 75h156l257 -635q12 -30 59 -37v-35h-306v35q46 2 65 11.5t19 32.5q0 17 -9 39zM309 575l-116 -301h236zM410 747q-31 0 -75.5 29.5
t-64.5 29.5q-38 0 -70 -56l-27 15q27 68 52 97t61 29q31 0 75.5 -30t64.5 -30q38 0 70 57l27 -16q-28 -68 -52 -96.5t-61 -28.5z" />
    <glyph glyph-name="Adieresis" unicode="&#xc4;" horiz-adv-x="728" 
d="M492 118l-46 113h-269l-43 -112q-9 -23 -9 -39q0 -24 19.5 -33.5t66.5 -11.5v-35h-206v35q24 3 37.5 10.5t21.5 26.5l218 560l-31 75h156l257 -635q12 -30 59 -37v-35h-306v35q46 2 65 11.5t19 32.5q0 17 -9 39zM309 575l-116 -301h236zM371 822q0 30 21 51.5t51 21.5
q31 0 52.5 -21.5t21.5 -51.5t-21.5 -51.5t-52.5 -21.5q-30 0 -51 21.5t-21 51.5zM172 822q0 30 21 51.5t51 21.5q31 0 52.5 -21.5t21.5 -51.5t-22 -51.5t-52 -21.5t-51 21.5t-21 51.5z" />
    <glyph glyph-name="Aring" unicode="&#xc5;" horiz-adv-x="728" 
d="M492 118l-46 113h-269l-43 -112q-9 -23 -9 -39q0 -24 19.5 -33.5t66.5 -11.5v-35h-206v35q24 3 37.5 10.5t21.5 26.5l218 560l-31 75h156l257 -635q12 -30 59 -37v-35h-306v35q46 2 65 11.5t19 32.5q0 17 -9 39zM309 575l-116 -301h236zM242 824q0 40 27.5 67t68.5 27
t67.5 -27t26.5 -67t-26.5 -67t-67.5 -27t-68.5 27t-27.5 67zM286 824q0 -24 13.5 -39t38.5 -15q24 0 38 15t14 39t-14 39t-38 15q-25 0 -38.5 -15t-13.5 -39z" />
    <glyph glyph-name="AE" unicode="&#xc6;" horiz-adv-x="1021" 
d="M64 72l359 558q-17 32 -100 37v35h639l5 -180h-30q-37 84 -67.5 112t-90.5 28h-140v-278h127q33 0 47.5 21t21.5 71h36v-227h-36q-7 50 -21.5 70.5t-47.5 20.5h-127v-232q0 -39 20.5 -53.5t68.5 -14.5h63q57 0 89.5 31.5t86.5 128.5h35l-31 -200h-558v35q53 6 66.5 17
t13.5 52v143h-260l-82 -128q-16 -26 -16 -41q0 -42 93 -43v-35h-223v35q36 5 59 37zM493 651l-232 -361h232v361z" />
    <glyph glyph-name="Ccedilla" unicode="&#xc7;" horiz-adv-x="656" 
d="M281 -226l-7 31q52 0 81.5 14t29.5 36q0 37 -83 40l39 97q-144 12 -227.5 104t-83.5 238q0 171 100.5 274.5t252.5 103.5q130 0 221 -59l1 -161h-38q-37 178 -180 178q-99 0 -150.5 -86.5t-51.5 -221.5q0 -145 55.5 -237t155.5 -92q72 0 119.5 49t73.5 156h40l-15 -188
q-93 -60 -231 -60q-2 0 -5.5 0.5t-4.5 0.5l-14 -35q47 0 75 -20t28 -58q0 -51 -50.5 -77.5t-130.5 -26.5z" />
    <glyph glyph-name="Egrave" unicode="&#xc8;" horiz-adv-x="635" 
d="M187 896h144l52 -149h-37l-159 142v7zM27 0v35q53 6 66.5 17t13.5 52v494q0 41 -13.5 52t-66.5 17v35h549l5 -180h-29q-38 84 -68.5 112t-89.5 28h-140v-278h127q32 0 46.5 21t22.5 71h35v-227h-35q-8 50 -22.5 70.5t-46.5 20.5h-127v-232q0 -39 20.5 -53.5t68.5 -14.5
h62q57 0 89.5 31.5t86.5 128.5h35l-31 -200h-558z" />
    <glyph glyph-name="Eacute" unicode="&#xc9;" horiz-adv-x="635" 
d="M345 896h144v-7l-159 -142h-37zM27 0v35q53 6 66.5 17t13.5 52v494q0 41 -13.5 52t-66.5 17v35h549l5 -180h-29q-38 84 -68.5 112t-89.5 28h-140v-278h127q32 0 46.5 21t22.5 71h35v-227h-35q-8 50 -22.5 70.5t-46.5 20.5h-127v-232q0 -39 20.5 -53.5t68.5 -14.5h62
q57 0 89.5 31.5t86.5 128.5h35l-31 -200h-558z" />
    <glyph glyph-name="Ecircumflex" unicode="&#xca;" horiz-adv-x="635" 
d="M27 0v35q53 6 66.5 17t13.5 52v494q0 41 -13.5 52t-66.5 17v35h549l5 -180h-29q-38 84 -68.5 112t-89.5 28h-140v-278h127q32 0 46.5 21t22.5 71h35v-227h-35q-8 50 -22.5 70.5t-46.5 20.5h-127v-232q0 -39 20.5 -53.5t68.5 -14.5h62q57 0 89.5 31.5t86.5 128.5h35
l-31 -200h-558zM384 903l125 -156h-40l-133 82l-133 -82h-40l125 156h96z" />
    <glyph glyph-name="Edieresis" unicode="&#xcb;" horiz-adv-x="635" 
d="M164 822q0 30 21 51.5t51 21.5q31 0 52.5 -21.5t21.5 -51.5t-22 -51.5t-52 -21.5t-51 21.5t-21 51.5zM363 822q0 30 21 51.5t51 21.5q31 0 52.5 -21.5t21.5 -51.5t-21.5 -51.5t-52.5 -21.5q-30 0 -51 21.5t-21 51.5zM27 0v35q53 6 66.5 17t13.5 52v494q0 41 -13.5 52
t-66.5 17v35h549l5 -180h-29q-38 84 -68.5 112t-89.5 28h-140v-278h127q32 0 46.5 21t22.5 71h35v-227h-35q-8 50 -22.5 70.5t-46.5 20.5h-127v-232q0 -39 20.5 -53.5t68.5 -14.5h62q57 0 89.5 31.5t86.5 128.5h35l-31 -200h-558z" />
    <glyph glyph-name="Igrave" unicode="&#xcc;" horiz-adv-x="361" 
d="M254 598v-494q0 -41 13.5 -52t66.5 -17v-35h-307v35q53 6 66.5 17t13.5 52v494q0 41 -13.5 52t-66.5 17v35h307v-35q-53 -6 -66.5 -17t-13.5 -52zM30 896h144l52 -149h-37l-159 142v7z" />
    <glyph glyph-name="Iacute" unicode="&#xcd;" horiz-adv-x="361" 
d="M254 598v-494q0 -41 13.5 -52t66.5 -17v-35h-307v35q53 6 66.5 17t13.5 52v494q0 41 -13.5 52t-66.5 17v35h307v-35q-53 -6 -66.5 -17t-13.5 -52zM189 896h144v-7l-159 -142h-37z" />
    <glyph glyph-name="Icircumflex" unicode="&#xce;" horiz-adv-x="361" 
d="M254 598v-494q0 -41 13.5 -52t66.5 -17v-35h-307v35q53 6 66.5 17t13.5 52v494q0 41 -13.5 52t-66.5 17v35h307v-35q-53 -6 -66.5 -17t-13.5 -52zM226 903l119 -156h-38l-126 82l-126 -82h-38l118 156h91z" />
    <glyph glyph-name="Idieresis" unicode="&#xcf;" horiz-adv-x="361" 
d="M254 598v-494q0 -41 13.5 -52t66.5 -17v-35h-307v35q53 6 66.5 17t13.5 52v494q0 41 -13.5 52t-66.5 17v35h307v-35q-53 -6 -66.5 -17t-13.5 -52zM8 822q0 30 21 51.5t51 21.5q31 0 52.5 -21.5t21.5 -51.5t-22 -51.5t-52 -21.5t-51 21.5t-21 51.5zM207 822q0 30 21 51.5
t51 21.5q31 0 52.5 -21.5t21.5 -51.5t-21.5 -51.5t-52.5 -21.5q-30 0 -51 21.5t-21 51.5z" />
    <glyph glyph-name="Eth" unicode="&#xd0;" horiz-adv-x="759" 
d="M37 335v48h80v215q0 41 -13.5 52t-66.5 17v35h307q97 0 171.5 -26.5t120.5 -73t69.5 -106.5t23.5 -131q0 -170 -101.5 -267.5t-264.5 -97.5h-326v35q53 6 66.5 17t13.5 52v231h-80zM318 662h-54v-279h136v-48h-136v-224q0 -42 18 -56.5t60 -14.5h18q96 0 155 81t59 223
t-64.5 230t-191.5 88z" />
    <glyph glyph-name="Ntilde" unicode="&#xd1;" horiz-adv-x="747" 
d="M455 747q-31 0 -75.5 29.5t-64.5 29.5q-38 0 -70 -56l-27 15q27 68 52 97t61 29q31 0 75.5 -30t64.5 -30q38 0 70 57l27 -16q-28 -68 -52 -96.5t-61 -28.5zM596 239v358q0 40 -18.5 52.5t-81.5 17.5v35h233v-35q-53 -6 -66.5 -18t-13.5 -52v-599h-49l-438 553v-446
q0 -40 18 -52.5t81 -17.5v-35h-233v35q53 6 66.5 17.5t13.5 52.5v500q-25 35 -40 48t-41 14v35h205z" />
    <glyph glyph-name="Ograve" unicode="&#xd2;" horiz-adv-x="722" 
d="M213 896h144l52 -149h-37l-159 142v7zM365 31q83 0 126.5 91t43.5 223q0 65 -10.5 122t-31.5 103.5t-56 73.5t-81 27q-56 0 -95.5 -45.5t-57 -115t-17.5 -153.5q0 -88 18 -159.5t59.5 -119t101.5 -47.5zM355 -10q-152 0 -238.5 100.5t-86.5 246.5q0 169 95.5 272
t241.5 103q102 0 177 -49t111.5 -126.5t36.5 -171.5q0 -169 -95.5 -272t-241.5 -103z" />
    <glyph glyph-name="Oacute" unicode="&#xd3;" horiz-adv-x="722" 
d="M372 896h144v-7l-159 -142h-37zM365 31q83 0 126.5 91t43.5 223q0 65 -10.5 122t-31.5 103.5t-56 73.5t-81 27q-56 0 -95.5 -45.5t-57 -115t-17.5 -153.5q0 -88 18 -159.5t59.5 -119t101.5 -47.5zM355 -10q-152 0 -238.5 100.5t-86.5 246.5q0 169 95.5 272t241.5 103
q102 0 177 -49t111.5 -126.5t36.5 -171.5q0 -169 -95.5 -272t-241.5 -103z" />
    <glyph glyph-name="Ocircumflex" unicode="&#xd4;" horiz-adv-x="722" 
d="M365 31q83 0 126.5 91t43.5 223q0 65 -10.5 122t-31.5 103.5t-56 73.5t-81 27q-56 0 -95.5 -45.5t-57 -115t-17.5 -153.5q0 -88 18 -159.5t59.5 -119t101.5 -47.5zM355 -10q-152 0 -238.5 100.5t-86.5 246.5q0 169 95.5 272t241.5 103q102 0 177 -49t111.5 -126.5
t36.5 -171.5q0 -169 -95.5 -272t-241.5 -103zM411 903l125 -156h-40l-133 82l-133 -82h-40l125 156h96z" />
    <glyph glyph-name="Otilde" unicode="&#xd5;" horiz-adv-x="722" 
d="M436 747q-31 0 -75.5 29.5t-64.5 29.5q-38 0 -70 -56l-27 15q27 68 52 97t61 29q31 0 75.5 -30t64.5 -30q38 0 70 57l27 -16q-28 -68 -52 -96.5t-61 -28.5zM365 31q83 0 126.5 91t43.5 223q0 65 -10.5 122t-31.5 103.5t-56 73.5t-81 27q-56 0 -95.5 -45.5t-57 -115
t-17.5 -153.5q0 -88 18 -159.5t59.5 -119t101.5 -47.5zM355 -10q-152 0 -238.5 100.5t-86.5 246.5q0 169 95.5 272t241.5 103q102 0 177 -49t111.5 -126.5t36.5 -171.5q0 -169 -95.5 -272t-241.5 -103z" />
    <glyph glyph-name="Odieresis" unicode="&#xd6;" horiz-adv-x="722" 
d="M191 822q0 30 21 51.5t51 21.5q31 0 52.5 -21.5t21.5 -51.5t-21.5 -51.5t-52.5 -21.5q-30 0 -51 21.5t-21 51.5zM390 822q0 30 21 51.5t51 21.5q31 0 52.5 -21.5t21.5 -51.5t-21.5 -51.5t-52.5 -21.5q-30 0 -51 21.5t-21 51.5zM365 31q83 0 126.5 91t43.5 223
q0 65 -10.5 122t-31.5 103.5t-56 73.5t-81 27q-56 0 -95.5 -45.5t-57 -115t-17.5 -153.5q0 -88 18 -159.5t59.5 -119t101.5 -47.5zM355 -10q-152 0 -238.5 100.5t-86.5 246.5q0 169 95.5 272t241.5 103q102 0 177 -49t111.5 -126.5t36.5 -171.5q0 -169 -95.5 -272
t-241.5 -103z" />
    <glyph glyph-name="multiply" unicode="&#xd7;" horiz-adv-x="493" 
d="M206 366l-140 140l40 40l140 -141l140 141l41 -40l-140 -140l140 -140l-41 -41l-140 141l-140 -141l-40 41z" />
    <glyph glyph-name="Oslash" unicode="&#xd8;" horiz-adv-x="722" 
d="M355 -10q-103 0 -179 49l-67 -95l-33 23l67 97q-55 48 -84 119.5t-29 153.5q0 169 95.5 272t241.5 103q108 0 189 -58l63 90l33 -24l-64 -91q104 -99 104 -264q0 -169 -95.5 -272t-241.5 -103zM186 357q0 -109 28 -192l281 401q-48 105 -139 105q-56 0 -95.5 -45.5
t-57 -115t-17.5 -153.5zM365 31q83 0 126.5 91t43.5 223q0 95 -23 175l-279 -399q47 -90 132 -90z" />
    <glyph glyph-name="Ugrave" unicode="&#xd9;" horiz-adv-x="733" 
d="M247 896h144l52 -149h-37l-159 142v7zM238 598v-344q0 -93 41 -144.5t122 -51.5q87 0 136.5 49t49.5 153v337q0 40 -16.5 52.5t-78.5 17.5v35h229v-35q-53 -6 -66.5 -18t-13.5 -52v-355q0 -123 -74.5 -187.5t-191.5 -64.5q-136 0 -209.5 63.5t-73.5 190.5v354
q0 41 -13.5 52t-66.5 17v35h306v-35q-53 -6 -66.5 -17t-13.5 -52z" />
    <glyph glyph-name="Uacute" unicode="&#xda;" horiz-adv-x="733" 
d="M406 896h144v-7l-159 -142h-37zM238 598v-344q0 -93 41 -144.5t122 -51.5q87 0 136.5 49t49.5 153v337q0 40 -16.5 52.5t-78.5 17.5v35h229v-35q-53 -6 -66.5 -18t-13.5 -52v-355q0 -123 -74.5 -187.5t-191.5 -64.5q-136 0 -209.5 63.5t-73.5 190.5v354q0 41 -13.5 52
t-66.5 17v35h306v-35q-53 -6 -66.5 -17t-13.5 -52z" />
    <glyph glyph-name="Ucircumflex" unicode="&#xdb;" horiz-adv-x="733" 
d="M238 598v-344q0 -93 41 -144.5t122 -51.5q87 0 136.5 49t49.5 153v337q0 40 -16.5 52.5t-78.5 17.5v35h229v-35q-53 -6 -66.5 -18t-13.5 -52v-355q0 -123 -74.5 -187.5t-191.5 -64.5q-136 0 -209.5 63.5t-73.5 190.5v354q0 41 -13.5 52t-66.5 17v35h306v-35
q-53 -6 -66.5 -17t-13.5 -52zM445 903l125 -156h-40l-133 82l-133 -82h-40l125 156h96z" />
    <glyph glyph-name="Udieresis" unicode="&#xdc;" horiz-adv-x="733" 
d="M225 822q0 30 21 51.5t51 21.5q31 0 52.5 -21.5t21.5 -51.5t-21.5 -51.5t-52.5 -21.5q-30 0 -51 21.5t-21 51.5zM424 822q0 30 21 51.5t51 21.5q31 0 52.5 -21.5t21.5 -51.5t-21.5 -51.5t-52.5 -21.5q-30 0 -51 21.5t-21 51.5zM238 598v-344q0 -93 41 -144.5t122 -51.5
q87 0 136.5 49t49.5 153v337q0 40 -16.5 52.5t-78.5 17.5v35h229v-35q-53 -6 -66.5 -18t-13.5 -52v-355q0 -123 -74.5 -187.5t-191.5 -64.5q-136 0 -209.5 63.5t-73.5 190.5v354q0 41 -13.5 52t-66.5 17v35h306v-35q-53 -6 -66.5 -17t-13.5 -52z" />
    <glyph glyph-name="Yacute" unicode="&#xdd;" horiz-adv-x="666" 
d="M407 272v-171q0 -39 16.5 -49t72.5 -17v-35h-321v35q56 7 73 17t17 49v169l-201 360q-11 19 -23.5 26.5t-35.5 10.5v35h301v-35q-46 -1 -62 -8.5t-16 -27.5q0 -17 21 -55l139 -243l130 241q21 42 21 57q0 19 -17.5 26.5t-61.5 9.5v35h201v-35q-43 -6 -59 -37zM371 896
h144v-7l-159 -142h-37z" />
    <glyph glyph-name="Thorn" unicode="&#xde;" horiz-adv-x="626" 
d="M254 598v-29h79q135 0 205.5 -58.5t70.5 -149.5q0 -101 -70.5 -158t-207.5 -57h-77v-35q0 -41 24.5 -55.5t95.5 -19.5v-36h-347v35q53 6 66.5 17t13.5 52v494q0 41 -13.5 52t-66.5 17v35h307v-35q-53 -6 -66.5 -17t-13.5 -52zM254 529v-340h43q162 0 162 169
q0 78 -41.5 124.5t-120.5 46.5h-43z" />
    <glyph glyph-name="germandbls" unicode="&#xdf;" horiz-adv-x="668" 
d="M334 783q93 0 148.5 -41t55.5 -106q0 -32 -14.5 -58.5t-35 -44t-41.5 -32t-35.5 -30.5t-14.5 -33q0 -7 2.5 -13t8.5 -12.5t12.5 -11.5t18 -12t20.5 -12.5t25 -14.5t27 -16q68 -40 100.5 -79.5t32.5 -104.5q0 -77 -55.5 -124.5t-137.5 -47.5q-99 0 -160 53l-6 131h38
q15 -66 48.5 -107t82.5 -41q40 0 63 22t23 60q0 41 -25.5 66.5t-88.5 62.5q-59 34 -84.5 64.5t-25.5 73.5q0 32 19.5 63.5t43 54.5t43 61.5t19.5 82.5q0 52 -26 83t-78 31q-114 0 -114 -168v-583h-201v33q36 2 49 10.5t13 33.5v407h-73v27l74 24v22q6 110 74.5 168t174.5 58
z" />
    <glyph glyph-name="agrave" unicode="&#xe0;" horiz-adv-x="524" 
d="M234 70q34 0 77 32v187l-86 -35q-34 -13 -51 -34t-17 -61q0 -41 19.5 -65t57.5 -24zM449 376v-265q0 -56 33 -56q18 0 40 10l6 -22q-45 -53 -114 -53q-40 0 -66 23t-34 65q-66 -86 -156 -86q-61 0 -98 34.5t-37 94.5q0 59 35.5 91.5t101.5 57.5l151 55v85q0 98 -71 98
q-67 0 -67 -84q0 -27 8 -62l-83 -11q-44 15 -44 63q0 60 55 93t142 33q99 0 148.5 -39t49.5 -125zM108 763h141l55 -166h-35l-161 159v7z" />
    <glyph glyph-name="aacute" unicode="&#xe1;" horiz-adv-x="524" 
d="M234 70q34 0 77 32v187l-86 -35q-34 -13 -51 -34t-17 -61q0 -41 19.5 -65t57.5 -24zM449 376v-265q0 -56 33 -56q18 0 40 10l6 -22q-45 -53 -114 -53q-40 0 -66 23t-34 65q-66 -86 -156 -86q-61 0 -98 34.5t-37 94.5q0 59 35.5 91.5t101.5 57.5l151 55v85q0 98 -71 98
q-67 0 -67 -84q0 -27 8 -62l-83 -11q-44 15 -44 63q0 60 55 93t142 33q99 0 148.5 -39t49.5 -125zM268 763h141v-7l-161 -159h-35z" />
    <glyph glyph-name="acircumflex" unicode="&#xe2;" horiz-adv-x="524" 
d="M234 70q34 0 77 32v187l-86 -35q-34 -13 -51 -34t-17 -61q0 -41 19.5 -65t57.5 -24zM449 376v-265q0 -56 33 -56q18 0 40 10l6 -22q-45 -53 -114 -53q-40 0 -66 23t-34 65q-66 -86 -156 -86q-61 0 -98 34.5t-37 94.5q0 59 35.5 91.5t101.5 57.5l151 55v85q0 98 -71 98
q-67 0 -67 -84q0 -27 8 -62l-83 -11q-44 15 -44 63q0 60 55 93t142 33q99 0 148.5 -39t49.5 -125zM305 765l114 -171h-43l-119 96l-119 -96h-43l114 171h96z" />
    <glyph glyph-name="atilde" unicode="&#xe3;" horiz-adv-x="524" 
d="M234 70q34 0 77 32v187l-86 -35q-34 -13 -51 -34t-17 -61q0 -41 19.5 -65t57.5 -24zM449 376v-265q0 -56 33 -56q18 0 40 10l6 -22q-45 -53 -114 -53q-40 0 -66 23t-34 65q-66 -86 -156 -86q-61 0 -98 34.5t-37 94.5q0 59 35.5 91.5t101.5 57.5l151 55v85q0 98 -71 98
q-67 0 -67 -84q0 -27 8 -62l-83 -11q-44 15 -44 63q0 60 55 93t142 33q99 0 148.5 -39t49.5 -125zM318 601q-31 0 -72.5 30t-62.5 30q-35 0 -66 -56l-28 15q29 69 51.5 97t58.5 28q31 0 73 -29.5t62 -29.5q21 0 35.5 13t31.5 43l27 -15q-28 -70 -51 -98t-59 -28z" />
    <glyph glyph-name="adieresis" unicode="&#xe4;" horiz-adv-x="524" 
d="M234 70q34 0 77 32v187l-86 -35q-34 -13 -51 -34t-17 -61q0 -41 19.5 -65t57.5 -24zM449 376v-265q0 -56 33 -56q18 0 40 10l6 -22q-45 -53 -114 -53q-40 0 -66 23t-34 65q-66 -86 -156 -86q-61 0 -98 34.5t-37 94.5q0 59 35.5 91.5t101.5 57.5l151 55v85q0 98 -71 98
q-67 0 -67 -84q0 -27 8 -62l-83 -11q-44 15 -44 63q0 60 55 93t142 33q99 0 148.5 -39t49.5 -125zM87 679q0 30 21.5 51.5t51.5 21.5q31 0 52.5 -21.5t21.5 -51.5t-21.5 -51.5t-52.5 -21.5q-30 0 -51.5 21.5t-21.5 51.5zM281 679q0 30 21.5 51.5t50.5 21.5q31 0 52.5 -21.5
t21.5 -51.5t-21.5 -51.5t-52.5 -21.5q-29 0 -50.5 21.5t-21.5 51.5z" />
    <glyph glyph-name="aring" unicode="&#xe5;" horiz-adv-x="524" 
d="M234 70q34 0 77 32v187l-86 -35q-34 -13 -51 -34t-17 -61q0 -41 19.5 -65t57.5 -24zM449 376v-265q0 -56 33 -56q18 0 40 10l6 -22q-45 -53 -114 -53q-40 0 -66 23t-34 65q-66 -86 -156 -86q-61 0 -98 34.5t-37 94.5q0 59 35.5 91.5t101.5 57.5l151 55v85q0 98 -71 98
q-67 0 -67 -84q0 -27 8 -62l-83 -11q-44 15 -44 63q0 60 55 93t142 33q99 0 148.5 -39t49.5 -125zM205 665q0 -23 13.5 -38.5t38.5 -15.5q24 0 38 15.5t14 38.5q0 25 -14 40t-38 15q-25 0 -38.5 -15t-13.5 -40zM161 665q0 40 27.5 67t68.5 27t67.5 -26.5t26.5 -67.5
q0 -39 -26.5 -66t-67.5 -27t-68.5 27t-27.5 66z" />
    <glyph glyph-name="ae" unicode="&#xe6;" horiz-adv-x="763" 
d="M540 540q96 0 149 -59.5t53 -152.5v-22h-320q-3 -102 42 -161.5t121 -59.5q90 0 146 81l16 -9q-19 -77 -74.5 -122t-139.5 -45q-123 0 -189 93q-76 -91 -183 -91q-63 0 -100.5 34.5t-37.5 94.5q0 59 35.5 91.5t101.5 57.5l143 50q5 25 12 47q0 64 -20 102.5t-60 38.5
q-31 0 -46.5 -23t-15.5 -61q0 -27 8 -62l-83 -11q-44 15 -44 63q0 60 54 93t136 33q102 0 143 -59q64 59 153 59zM240 70q44 0 91 34q-34 62 -34 147q0 21 1 31l-68 -26q-38 -14 -55.5 -35.5t-17.5 -61.5q0 -89 83 -89zM528 503q-90 0 -104 -160h194q0 160 -90 160z" />
    <glyph glyph-name="ccedilla" unicode="&#xe7;" horiz-adv-x="472" 
d="M149 -226l-7 31q52 0 81.5 14t29.5 36q0 37 -83 40l40 99q-85 15 -136.5 82.5t-51.5 170.5q0 127 71 210t188 83q76 0 121 -30.5t45 -86.5q0 -49 -38 -67h-76q4 32 4 49q0 97 -73 97q-56 0 -88 -55.5t-32 -141.5q0 -99 43 -157.5t118 -58.5q90 0 140 74l17 -10
q-23 -81 -76 -122t-131 -41h-14l-14 -34q47 0 75 -20t28 -58q0 -51 -50.5 -77.5t-130.5 -26.5z" />
    <glyph glyph-name="egrave" unicode="&#xe8;" horiz-adv-x="495" 
d="M270 540q98 0 151 -58t53 -151v-23h-326q-3 -103 44 -163t122 -60q93 0 149 81l16 -9q-20 -77 -75 -122t-139 -45q-108 0 -175 72.5t-67 188.5q0 126 71.5 207.5t175.5 81.5zM260 503q-48 0 -76 -43t-34 -115h200q0 158 -90 158zM128 763h141l55 -166h-35l-161 159v7z
" />
    <glyph glyph-name="eacute" unicode="&#xe9;" horiz-adv-x="495" 
d="M287 763h141v-7l-161 -159h-35zM270 540q98 0 151 -58t53 -151v-23h-326q-3 -103 44 -163t122 -60q93 0 149 81l16 -9q-20 -77 -75 -122t-139 -45q-108 0 -175 72.5t-67 188.5q0 126 71.5 207.5t175.5 81.5zM260 503q-48 0 -76 -43t-34 -115h200q0 158 -90 158z" />
    <glyph glyph-name="ecircumflex" unicode="&#xea;" horiz-adv-x="495" 
d="M321 765l114 -171h-43l-119 96l-119 -96h-43l114 171h96zM270 540q98 0 151 -58t53 -151v-23h-326q-3 -103 44 -163t122 -60q93 0 149 81l16 -9q-20 -77 -75 -122t-139 -45q-108 0 -175 72.5t-67 188.5q0 126 71.5 207.5t175.5 81.5zM260 503q-48 0 -76 -43t-34 -115h200
q0 158 -90 158z" />
    <glyph glyph-name="edieresis" unicode="&#xeb;" horiz-adv-x="495" 
d="M103 679q0 30 21.5 51.5t51.5 21.5q31 0 52.5 -21.5t21.5 -51.5t-21.5 -51.5t-52.5 -21.5q-30 0 -51.5 21.5t-21.5 51.5zM297 679q0 30 21.5 51.5t50.5 21.5q31 0 52.5 -21.5t21.5 -51.5t-21.5 -51.5t-52.5 -21.5q-29 0 -50.5 21.5t-21.5 51.5zM270 540q98 0 151 -58
t53 -151v-23h-326q-3 -103 44 -163t122 -60q93 0 149 81l16 -9q-20 -77 -75 -122t-139 -45q-108 0 -175 72.5t-67 188.5q0 126 71.5 207.5t175.5 81.5zM260 503q-48 0 -76 -43t-34 -115h200q0 158 -90 158z" />
    <glyph glyph-name="igrave" unicode="&#xec;" horiz-adv-x="300" 
d="M222 540v-463q0 -25 13 -33.5t50 -10.5v-33h-264v33q37 2 50 10.5t13 33.5v354l-60 35v19l176 55h22zM7 763h141l55 -166h-35l-161 159v7z" />
    <glyph glyph-name="iacute" unicode="&#xed;" horiz-adv-x="300" 
d="M166 763h141v-7l-161 -159h-35zM222 540v-463q0 -25 13 -33.5t50 -10.5v-33h-264v33q37 2 50 10.5t13 33.5v354l-60 35v19l176 55h22z" />
    <glyph glyph-name="icircumflex" unicode="&#xee;" horiz-adv-x="300" 
d="M194 765l103 -171h-39l-107 96l-108 -96h-39l103 171h87zM222 540v-463q0 -25 13 -33.5t50 -10.5v-33h-264v33q37 2 50 10.5t13 33.5v354l-60 35v19l176 55h22z" />
    <glyph glyph-name="idieresis" unicode="&#xef;" horiz-adv-x="300" 
d="M-16 679q0 30 21 51.5t52 21.5t52 -21.5t21 -51.5t-21 -51.5t-52 -21.5t-52 21.5t-21 51.5zM171 679q0 30 21.5 51.5t51.5 21.5q31 0 52.5 -21.5t21.5 -51.5t-21.5 -51.5t-52.5 -21.5q-30 0 -51.5 21.5t-21.5 51.5zM222 540v-463q0 -25 13 -33.5t50 -10.5v-33h-264v33
q37 2 50 10.5t13 33.5v354l-60 35v19l176 55h22z" />
    <glyph glyph-name="eth" unicode="&#xf0;" horiz-adv-x="560" 
d="M118 587l-12 35l151 52q-62 57 -146 83l16 28q116 -25 205 -85l115 40l12 -36l-90 -31q83 -68 126 -162t43 -197q0 -147 -69.5 -235.5t-188.5 -88.5q-116 0 -187 75t-71 193q0 125 73 203t174 78q70 0 107 -51q-29 89 -90 157zM284 26q54 0 81 57.5t27 158.5
q0 118 -28.5 189.5t-85.5 71.5q-54 0 -81 -57t-27 -158q0 -118 28.5 -190t85.5 -72z" />
    <glyph glyph-name="ntilde" unicode="&#xf1;" horiz-adv-x="623" 
d="M411 77v292q0 44 -18 65.5t-59 21.5q-52 0 -112 -41v-338q0 -25 12.5 -33.5t48.5 -10.5v-33h-262v33q37 2 50 10.5t13 33.5v354l-60 35v19l179 55h23l-4 -98q84 98 185 98q143 0 143 -163v-300q0 -25 13 -33.5t49 -10.5v-33h-262v33q36 2 48.5 10.5t12.5 33.5zM387 601
q-31 0 -72.5 30t-62.5 30q-35 0 -66 -56l-28 15q29 69 51.5 97t58.5 28q31 0 73 -29.5t62 -29.5q21 0 35.5 13t31.5 43l27 -15q-28 -70 -51 -98t-59 -28z" />
    <glyph glyph-name="ograve" unicode="&#xf2;" horiz-adv-x="561" 
d="M284 26q54 0 80.5 57t26.5 159q0 118 -28.5 189.5t-85.5 71.5q-54 0 -81 -57t-27 -158q0 -118 29 -190t86 -72zM279 -10q-115 0 -186 72t-71 191q0 127 73.5 207t186.5 80q115 0 186 -73t71 -191q0 -126 -73.5 -206t-186.5 -80zM134 763h141l55 -166h-35l-161 159v7z" />
    <glyph glyph-name="oacute" unicode="&#xf3;" horiz-adv-x="561" 
d="M293 763h141v-7l-161 -159h-35zM284 26q54 0 80.5 57t26.5 159q0 118 -28.5 189.5t-85.5 71.5q-54 0 -81 -57t-27 -158q0 -118 29 -190t86 -72zM279 -10q-115 0 -186 72t-71 191q0 127 73.5 207t186.5 80q115 0 186 -73t71 -191q0 -126 -73.5 -206t-186.5 -80z" />
    <glyph glyph-name="ocircumflex" unicode="&#xf4;" horiz-adv-x="561" 
d="M330 765l114 -171h-43l-119 96l-119 -96h-43l114 171h96zM284 26q54 0 80.5 57t26.5 159q0 118 -28.5 189.5t-85.5 71.5q-54 0 -81 -57t-27 -158q0 -118 29 -190t86 -72zM279 -10q-115 0 -186 72t-71 191q0 127 73.5 207t186.5 80q115 0 186 -73t71 -191
q0 -126 -73.5 -206t-186.5 -80z" />
    <glyph glyph-name="otilde" unicode="&#xf5;" horiz-adv-x="561" 
d="M284 26q54 0 80.5 57t26.5 159q0 118 -28.5 189.5t-85.5 71.5q-54 0 -81 -57t-27 -158q0 -118 29 -190t86 -72zM279 -10q-115 0 -186 72t-71 191q0 127 73.5 207t186.5 80q115 0 186 -73t71 -191q0 -126 -73.5 -206t-186.5 -80zM347 601q-31 0 -72.5 30t-62.5 30
q-35 0 -66 -56l-28 15q29 69 51.5 97t58.5 28q31 0 73 -29.5t62 -29.5q21 0 35.5 13t31.5 43l27 -15q-28 -70 -51 -98t-59 -28z" />
    <glyph glyph-name="odieresis" unicode="&#xf6;" horiz-adv-x="561" 
d="M112 679q0 30 21.5 51.5t51.5 21.5q31 0 52.5 -21.5t21.5 -51.5t-21.5 -51.5t-52.5 -21.5q-30 0 -51.5 21.5t-21.5 51.5zM306 679q0 30 21.5 51.5t50.5 21.5q31 0 52.5 -21.5t21.5 -51.5t-21.5 -51.5t-52.5 -21.5q-29 0 -50.5 21.5t-21.5 51.5zM284 26q54 0 80.5 57
t26.5 159q0 118 -28.5 189.5t-85.5 71.5q-54 0 -81 -57t-27 -158q0 -118 29 -190t86 -72zM279 -10q-115 0 -186 72t-71 191q0 127 73.5 207t186.5 80q115 0 186 -73t71 -191q0 -126 -73.5 -206t-186.5 -80z" />
    <glyph glyph-name="divide" unicode="&#xf7;" horiz-adv-x="569" 
d="M64 340v60h441v-60h-441zM228 203q0 23 16.5 39.5t39.5 16.5t39.5 -16.5t16.5 -39.5t-16.5 -39.5t-39.5 -16.5t-39.5 16.5t-16.5 39.5zM228 538q0 23 16.5 39t39.5 16t39.5 -16.5t16.5 -38.5q0 -23 -16.5 -39.5t-39.5 -16.5t-39.5 16.5t-16.5 39.5z" />
    <glyph glyph-name="oslash" unicode="&#xf8;" horiz-adv-x="561" 
d="M279 -10q-81 0 -140 35l-52 -77l-30 20l53 78q-88 72 -88 207q0 127 73.5 207t186.5 80q78 0 139 -36l53 77l30 -20l-53 -78q88 -75 88 -207q0 -126 -73.5 -206t-186.5 -80zM169 288q0 -79 13 -137l184 271q-31 81 -89 81q-54 0 -81 -57t-27 -158zM284 26q54 0 80.5 57
t26.5 159q0 76 -12 135l-185 -271q30 -80 90 -80z" />
    <glyph glyph-name="ugrave" unicode="&#xf9;" horiz-adv-x="601" 
d="M524 422v-316q0 -28 6.5 -37t33.5 -11l25 -2v-30l-182 -36h-25l3 96q-39 -44 -80 -70t-94 -26q-68 0 -106.5 40t-38.5 122v260q0 26 -9 38.5t-37 17.5l-16 3v30l184 38h22l-5 -119v-250q0 -97 78 -97q44 0 102 38v301q0 26 -9 38.5t-37 17.5l-15 3v30l182 38h22zM151 763
h141l55 -166h-35l-161 159v7z" />
    <glyph glyph-name="uacute" unicode="&#xfa;" horiz-adv-x="601" 
d="M310 763h141v-7l-161 -159h-35zM524 422v-316q0 -28 6.5 -37t33.5 -11l25 -2v-30l-182 -36h-25l3 96q-39 -44 -80 -70t-94 -26q-68 0 -106.5 40t-38.5 122v260q0 26 -9 38.5t-37 17.5l-16 3v30l184 38h22l-5 -119v-250q0 -97 78 -97q44 0 102 38v301q0 26 -9 38.5
t-37 17.5l-15 3v30l182 38h22z" />
    <glyph glyph-name="ucircumflex" unicode="&#xfb;" horiz-adv-x="601" 
d="M347 765l114 -171h-43l-119 96l-119 -96h-43l114 171h96zM524 422v-316q0 -28 6.5 -37t33.5 -11l25 -2v-30l-182 -36h-25l3 96q-39 -44 -80 -70t-94 -26q-68 0 -106.5 40t-38.5 122v260q0 26 -9 38.5t-37 17.5l-16 3v30l184 38h22l-5 -119v-250q0 -97 78 -97q44 0 102 38
v301q0 26 -9 38.5t-37 17.5l-15 3v30l182 38h22z" />
    <glyph glyph-name="udieresis" unicode="&#xfc;" horiz-adv-x="601" 
d="M129 679q0 30 21.5 51.5t51.5 21.5q31 0 52.5 -21.5t21.5 -51.5t-21.5 -51.5t-52.5 -21.5q-30 0 -51.5 21.5t-21.5 51.5zM323 679q0 30 21.5 51.5t50.5 21.5q31 0 52.5 -21.5t21.5 -51.5t-21.5 -51.5t-52.5 -21.5q-29 0 -50.5 21.5t-21.5 51.5zM524 422v-316
q0 -28 6.5 -37t33.5 -11l25 -2v-30l-182 -36h-25l3 96q-39 -44 -80 -70t-94 -26q-68 0 -106.5 40t-38.5 122v260q0 26 -9 38.5t-37 17.5l-16 3v30l184 38h22l-5 -119v-250q0 -97 78 -97q44 0 102 38v301q0 26 -9 38.5t-37 17.5l-15 3v30l182 38h22z" />
    <glyph glyph-name="yacute" unicode="&#xfd;" horiz-adv-x="563" 
d="M335 139l112 296q7 17 7 28q0 17 -13.5 23t-54.5 11v33h172v-33q-25 -7 -34.5 -14.5t-16.5 -23.5l-220 -554q-26 -65 -56 -95t-76 -30q-26 0 -48 12.5t-29 33.5v51q38 -9 68 -9q43 0 68 15t40 55l17 43l-215 478q-7 17 -16 24t-35 14v33h272v-33q-40 -5 -54 -11t-14 -23
q0 -10 6 -28zM325 763h141v-7l-161 -159h-35z" />
    <glyph glyph-name="thorn" unicode="&#xfe;" horiz-adv-x="597" 
d="M434 248q0 96 -35 152t-103 56q-51 0 -89 -35v-278q0 -115 92 -115q62 0 98.5 62.5t36.5 157.5zM68 -135v818l-60 31v21l178 48h21v-337q64 94 168 94q92 0 146 -64.5t54 -178.5q0 -143 -76 -225t-192 -82q-66 0 -100 28v-150q0 -27 16 -35t67 -12v-33h-284v33
q36 2 49 10.5t13 33.5z" />
    <glyph glyph-name="ydieresis" unicode="&#xff;" horiz-adv-x="563" 
d="M335 139l112 296q7 17 7 28q0 17 -13.5 23t-54.5 11v33h172v-33q-25 -7 -34.5 -14.5t-16.5 -23.5l-220 -554q-26 -65 -56 -95t-76 -30q-26 0 -48 12.5t-29 33.5v51q38 -9 68 -9q43 0 68 15t40 55l17 43l-215 478q-7 17 -16 24t-35 14v33h272v-33q-40 -5 -54 -11t-14 -23
q0 -10 6 -28zM143 679q0 30 21.5 51.5t51.5 21.5q31 0 52.5 -21.5t21.5 -51.5t-21.5 -51.5t-52.5 -21.5q-30 0 -51.5 21.5t-21.5 51.5zM337 679q0 30 21.5 51.5t50.5 21.5q31 0 52.5 -21.5t21.5 -51.5t-21.5 -51.5t-52.5 -21.5q-29 0 -50.5 21.5t-21.5 51.5z" />
    <glyph glyph-name="Amacron" unicode="&#x100;" horiz-adv-x="728" 
d="M492 118l-46 113h-269l-43 -112q-9 -23 -9 -39q0 -24 19.5 -33.5t66.5 -11.5v-35h-206v35q24 3 37.5 10.5t21.5 26.5l218 560l-31 75h156l257 -635q12 -30 59 -37v-35h-306v35q46 2 65 11.5t19 32.5q0 17 -9 39zM309 575l-116 -301h236zM200 762v68h287v-68h-287z" />
    <glyph glyph-name="amacron" unicode="&#x101;" horiz-adv-x="524" 
d="M234 70q34 0 77 32v187l-86 -35q-34 -13 -51 -34t-17 -61q0 -41 19.5 -65t57.5 -24zM449 376v-265q0 -56 33 -56q18 0 40 10l6 -22q-45 -53 -114 -53q-40 0 -66 23t-34 65q-66 -86 -156 -86q-61 0 -98 34.5t-37 94.5q0 59 35.5 91.5t101.5 57.5l151 55v85q0 98 -71 98
q-67 0 -67 -84q0 -27 8 -62l-83 -11q-44 15 -44 63q0 60 55 93t142 33q99 0 148.5 -39t49.5 -125zM122 624v68h269v-68h-269z" />
    <glyph glyph-name="Abreve" unicode="&#x102;" horiz-adv-x="728" 
d="M492 118l-46 113h-269l-43 -112q-9 -23 -9 -39q0 -24 19.5 -33.5t66.5 -11.5v-35h-206v35q24 3 37.5 10.5t21.5 26.5l218 560l-31 75h156l257 -635q12 -30 59 -37v-35h-306v35q46 2 65 11.5t19 32.5q0 17 -9 39zM309 575l-116 -301h236zM344 744q-68 0 -106.5 40
t-38.5 116h37q12 -79 108 -79q95 0 108 79h37q0 -75 -38.5 -115.5t-106.5 -40.5z" />
    <glyph glyph-name="abreve" unicode="&#x103;" horiz-adv-x="524" 
d="M234 70q34 0 77 32v187l-86 -35q-34 -13 -51 -34t-17 -61q0 -41 19.5 -65t57.5 -24zM449 376v-265q0 -56 33 -56q18 0 40 10l6 -22q-45 -53 -114 -53q-40 0 -66 23t-34 65q-66 -86 -156 -86q-61 0 -98 34.5t-37 94.5q0 59 35.5 91.5t101.5 57.5l151 55v85q0 98 -71 98
q-67 0 -67 -84q0 -27 8 -62l-83 -11q-44 15 -44 63q0 60 55 93t142 33q99 0 148.5 -39t49.5 -125zM256 597q-66 0 -100.5 41.5t-34.5 121.5h38q8 -85 97 -85q90 0 98 85h38q0 -79 -35 -121t-101 -42z" />
    <glyph glyph-name="Aogonek" unicode="&#x104;" horiz-adv-x="728" 
d="M309 575l-116 -301h236zM428 20q42 13 58 24t16 33q0 17 -9 39l-47 115h-269l-43 -112q-9 -23 -9 -39q0 -24 19.5 -33.5t66.5 -11.5v-35h-206v35q24 3 37.5 10.5t21.5 26.5l218 560l-31 75h156l257 -635q12 -30 59 -37v-35h-268q-44 -9 -69.5 -36t-25.5 -65
q0 -24 12.5 -38.5t36.5 -14.5q37 0 73 29l13 -15q-59 -73 -128 -73q-40 0 -65.5 24t-25.5 65q0 99 152 144z" />
    <glyph glyph-name="aogonek" unicode="&#x105;" horiz-adv-x="524" 
d="M449 376v-265q0 -56 33 -56q18 0 40 10l6 -22q-17 -14 -61 -37t-69.5 -47.5t-25.5 -61.5q0 -51 48 -51q38 0 74 29l13 -15q-59 -73 -130 -73q-39 0 -64.5 23t-25.5 59q0 71 105 123q-30 7 -51 30t-27 56q-66 -86 -156 -86q-61 0 -98 34.5t-37 94.5q0 59 35.5 91.5
t101.5 57.5l151 55v85q0 98 -71 98q-67 0 -67 -84q0 -27 8 -62l-83 -11q-44 15 -44 63q0 60 55 93t142 33q99 0 148.5 -39t49.5 -125zM234 70q34 0 77 32v187l-86 -35q-34 -13 -51 -34t-17 -61q0 -41 19.5 -65t57.5 -24z" />
    <glyph glyph-name="Cacute" unicode="&#x106;" horiz-adv-x="656" 
d="M383 712q130 0 221 -59l1 -161h-38q-37 178 -180 178q-99 0 -150.5 -86.5t-51.5 -221.5q0 -145 55.5 -237t155.5 -92q72 0 119.5 49t73.5 156h40l-15 -188q-93 -60 -231 -60q-163 0 -258 94t-95 250q0 171 100.5 274.5t252.5 103.5zM400 896h144v-7l-159 -142h-37z" />
    <glyph glyph-name="cacute" unicode="&#x107;" horiz-adv-x="472" 
d="M288 763h141v-7l-161 -159h-35zM144 305q0 -99 43 -157.5t118 -58.5q90 0 140 74l17 -10q-23 -81 -76 -122t-131 -41q-102 0 -167.5 70.5t-65.5 186.5q0 127 71 210t188 83q76 0 121 -30.5t45 -86.5q0 -49 -38 -67h-76q4 32 4 49q0 97 -73 97q-56 0 -88 -55.5t-32 -141.5
z" />
    <glyph glyph-name="Ccircumflex" unicode="&#x108;" horiz-adv-x="656" 
d="M383 712q130 0 221 -59l1 -161h-38q-37 178 -180 178q-99 0 -150.5 -86.5t-51.5 -221.5q0 -145 55.5 -237t155.5 -92q72 0 119.5 49t73.5 156h40l-15 -188q-93 -60 -231 -60q-163 0 -258 94t-95 250q0 171 100.5 274.5t252.5 103.5zM439 903l125 -156h-40l-133 82
l-133 -82h-40l125 156h96z" />
    <glyph glyph-name="ccircumflex" unicode="&#x109;" horiz-adv-x="472" 
d="M321 765l114 -171h-43l-119 96l-119 -96h-43l114 171h96zM144 305q0 -99 43 -157.5t118 -58.5q90 0 140 74l17 -10q-23 -81 -76 -122t-131 -41q-102 0 -167.5 70.5t-65.5 186.5q0 127 71 210t188 83q76 0 121 -30.5t45 -86.5q0 -49 -38 -67h-76q4 32 4 49q0 97 -73 97
q-56 0 -88 -55.5t-32 -141.5z" />
    <glyph glyph-name="Cdotaccent" unicode="&#x10a;" horiz-adv-x="656" 
d="M391 749q-36 0 -58.5 23t-22.5 55q0 33 22.5 56t58.5 23q35 0 58.5 -23t23.5 -56q0 -32 -23.5 -55t-58.5 -23zM383 712q130 0 221 -59l1 -161h-38q-37 178 -180 178q-99 0 -150.5 -86.5t-51.5 -221.5q0 -145 55.5 -237t155.5 -92q72 0 119.5 49t73.5 156h40l-15 -188
q-93 -60 -231 -60q-163 0 -258 94t-95 250q0 171 100.5 274.5t252.5 103.5z" />
    <glyph glyph-name="cdotaccent" unicode="&#x10b;" horiz-adv-x="472" 
d="M144 305q0 -99 43 -157.5t118 -58.5q90 0 140 74l17 -10q-23 -81 -76 -122t-131 -41q-102 0 -167.5 70.5t-65.5 186.5q0 127 71 210t188 83q76 0 121 -30.5t45 -86.5q0 -49 -38 -67h-76q4 32 4 49q0 97 -73 97q-56 0 -88 -55.5t-32 -141.5zM275 602q-36 0 -58.5 23
t-22.5 56t22.5 56t58.5 23q35 0 58.5 -23.5t23.5 -55.5q0 -33 -23.5 -56t-58.5 -23z" />
    <glyph glyph-name="Ccaron" unicode="&#x10c;" horiz-adv-x="656" 
d="M383 712q130 0 221 -59l1 -161h-38q-37 178 -180 178q-99 0 -150.5 -86.5t-51.5 -221.5q0 -145 55.5 -237t155.5 -92q72 0 119.5 49t73.5 156h40l-15 -188q-93 -60 -231 -60q-163 0 -258 94t-95 250q0 171 100.5 274.5t252.5 103.5zM564 903l-125 -156h-96l-125 156h40
l133 -82l133 82h40z" />
    <glyph glyph-name="ccaron" unicode="&#x10d;" horiz-adv-x="472" 
d="M438 768l-114 -171h-96l-114 171h43l119 -96l119 96h43zM144 305q0 -99 43 -157.5t118 -58.5q90 0 140 74l17 -10q-23 -81 -76 -122t-131 -41q-102 0 -167.5 70.5t-65.5 186.5q0 127 71 210t188 83q76 0 121 -30.5t45 -86.5q0 -49 -38 -67h-76q4 32 4 49q0 97 -73 97
q-56 0 -88 -55.5t-32 -141.5z" />
    <glyph glyph-name="Dcaron" unicode="&#x10e;" horiz-adv-x="749" 
d="M519 903l-125 -156h-96l-125 156h40l133 -82l133 82h40zM308 662h-54v-551q0 -42 18 -56.5t60 -14.5h18q96 0 155 81t59 223t-64.5 230t-191.5 88zM353 0h-326v35q53 6 66.5 17t13.5 52v494q0 41 -13.5 52t-66.5 17v35h307q97 0 171.5 -26.5t120.5 -73t69.5 -106.5
t23.5 -131q0 -170 -101.5 -267.5t-264.5 -97.5z" />
    <glyph glyph-name="dcaron" unicode="&#x10f;" horiz-adv-x="601" 
d="M701 775l-111 -197h-26l16 205h121v-8zM292 495q-62 0 -97.5 -56t-35.5 -151q0 -94 37.5 -153.5t103.5 -59.5q50 0 85 32v264q0 59 -24 91.5t-69 32.5zM385 683l-60 31v21l177 48h22v-677q0 -28 6.5 -37t33.5 -11l25 -2v-30l-182 -36h-26l4 93q-65 -93 -161 -93
q-91 0 -146.5 68t-55.5 182q0 138 72 218t183 80q70 0 108 -35v180z" />
    <glyph glyph-name="Dcroat" unicode="&#x110;" horiz-adv-x="759" 
d="M37 335v48h80v215q0 41 -13.5 52t-66.5 17v35h307q97 0 171.5 -26.5t120.5 -73t69.5 -106.5t23.5 -131q0 -170 -101.5 -267.5t-264.5 -97.5h-326v35q53 6 66.5 17t13.5 52v231h-80zM318 662h-54v-279h136v-48h-136v-224q0 -42 18 -56.5t60 -14.5h18q96 0 155 81t59 223
t-64.5 230t-191.5 88z" />
    <glyph glyph-name="dcroat" unicode="&#x111;" horiz-adv-x="601" 
d="M385 683l-60 31v21l177 48h22v-149h65v-42h-65v-486q0 -28 6.5 -37t33.5 -11l25 -2v-30l-182 -36h-26l4 93q-65 -93 -161 -93q-91 0 -146.5 68t-55.5 182q0 138 72 218t183 80q70 0 108 -35v89h-123v42h123v49zM292 495q-62 0 -97.5 -56t-35.5 -151q0 -94 37.5 -153.5
t103.5 -59.5q50 0 85 32v264q0 59 -24 91.5t-69 32.5z" />
    <glyph glyph-name="Emacron" unicode="&#x112;" horiz-adv-x="635" 
d="M192 762v68h287v-68h-287zM27 0v35q53 6 66.5 17t13.5 52v494q0 41 -13.5 52t-66.5 17v35h549l5 -180h-29q-38 84 -68.5 112t-89.5 28h-140v-278h127q32 0 46.5 21t22.5 71h35v-227h-35q-8 50 -22.5 70.5t-46.5 20.5h-127v-232q0 -39 20.5 -53.5t68.5 -14.5h62
q57 0 89.5 31.5t86.5 128.5h35l-31 -200h-558z" />
    <glyph glyph-name="emacron" unicode="&#x113;" horiz-adv-x="495" 
d="M270 540q98 0 151 -58t53 -151v-23h-326q-3 -103 44 -163t122 -60q93 0 149 81l16 -9q-20 -77 -75 -122t-139 -45q-108 0 -175 72.5t-67 188.5q0 126 71.5 207.5t175.5 81.5zM260 503q-48 0 -76 -43t-34 -115h200q0 158 -90 158zM136 624v68h269v-68h-269z" />
    <glyph glyph-name="Ebreve" unicode="&#x114;" horiz-adv-x="635" 
d="M337 744q-68 0 -106.5 40t-38.5 116h37q12 -79 108 -79q95 0 108 79h37q0 -75 -38.5 -115.5t-106.5 -40.5zM27 0v35q53 6 66.5 17t13.5 52v494q0 41 -13.5 52t-66.5 17v35h549l5 -180h-29q-38 84 -68.5 112t-89.5 28h-140v-278h127q32 0 46.5 21t22.5 71h35v-227h-35
q-8 50 -22.5 70.5t-46.5 20.5h-127v-232q0 -39 20.5 -53.5t68.5 -14.5h62q57 0 89.5 31.5t86.5 128.5h35l-31 -200h-558z" />
    <glyph glyph-name="ebreve" unicode="&#x115;" horiz-adv-x="495" 
d="M270 540q98 0 151 -58t53 -151v-23h-326q-3 -103 44 -163t122 -60q93 0 149 81l16 -9q-20 -77 -75 -122t-139 -45q-108 0 -175 72.5t-67 188.5q0 126 71.5 207.5t175.5 81.5zM260 503q-48 0 -76 -43t-34 -115h200q0 158 -90 158zM276 597q-66 0 -100.5 41.5t-34.5 121.5
h38q8 -85 97 -85q90 0 98 85h38q0 -79 -35 -121t-101 -42z" />
    <glyph glyph-name="Edotaccent" unicode="&#x116;" horiz-adv-x="635" 
d="M337 749q-36 0 -58.5 23t-22.5 55q0 33 22.5 56t58.5 23q35 0 58.5 -23t23.5 -56q0 -32 -23.5 -55t-58.5 -23zM27 0v35q53 6 66.5 17t13.5 52v494q0 41 -13.5 52t-66.5 17v35h549l5 -180h-29q-38 84 -68.5 112t-89.5 28h-140v-278h127q32 0 46.5 21t22.5 71h35v-227h-35
q-8 50 -22.5 70.5t-46.5 20.5h-127v-232q0 -39 20.5 -53.5t68.5 -14.5h62q57 0 89.5 31.5t86.5 128.5h35l-31 -200h-558z" />
    <glyph glyph-name="edotaccent" unicode="&#x117;" horiz-adv-x="495" 
d="M270 540q98 0 151 -58t53 -151v-23h-326q-3 -103 44 -163t122 -60q93 0 149 81l16 -9q-20 -77 -75 -122t-139 -45q-108 0 -175 72.5t-67 188.5q0 126 71.5 207.5t175.5 81.5zM260 503q-48 0 -76 -43t-34 -115h200q0 158 -90 158zM272 602q-36 0 -58.5 23t-22.5 56
t22.5 56t58.5 23q35 0 58.5 -23.5t23.5 -55.5q0 -33 -23.5 -56t-58.5 -23z" />
    <glyph glyph-name="Eogonek" unicode="&#x118;" horiz-adv-x="635" 
d="M27 0v35q53 6 66.5 17t13.5 52v494q0 41 -13.5 52t-66.5 17v35h549l5 -180h-29q-38 84 -68.5 112t-89.5 28h-140v-278h127q32 0 46.5 21t22.5 71h35v-227h-35q-8 50 -22.5 70.5t-46.5 20.5h-127v-232q0 -39 20.5 -53.5t68.5 -14.5h62q57 0 89.5 31.5t86.5 128.5h35
l-31 -200h-100q-80 -42 -80 -103q0 -51 48 -51q38 0 74 29l13 -15q-59 -73 -130 -73q-39 0 -64.5 23t-25.5 59q0 77 116 131h-409z" />
    <glyph glyph-name="eogonek" unicode="&#x119;" horiz-adv-x="495" 
d="M271 540q97 0 150 -58t53 -151v-23h-326q-3 -103 44 -163t122 -60q93 0 149 81l16 -9q-29 -108 -127 -152q-90 -38 -90 -104q0 -55 48 -55q38 0 74 29l13 -15q-59 -73 -130 -73q-39 0 -64.5 23t-25.5 59q0 72 100 121h-12q-108 0 -175 72.5t-67 188.5q0 126 71.5 207.5
t176.5 81.5zM260 503q-48 0 -76 -43t-34 -115h200q0 158 -90 158z" />
    <glyph glyph-name="Ecaron" unicode="&#x11a;" horiz-adv-x="635" 
d="M509 903l-125 -156h-96l-125 156h40l133 -82l133 82h40zM27 0v35q53 6 66.5 17t13.5 52v494q0 41 -13.5 52t-66.5 17v35h549l5 -180h-29q-38 84 -68.5 112t-89.5 28h-140v-278h127q32 0 46.5 21t22.5 71h35v-227h-35q-8 50 -22.5 70.5t-46.5 20.5h-127v-232
q0 -39 20.5 -53.5t68.5 -14.5h62q57 0 89.5 31.5t86.5 128.5h35l-31 -200h-558z" />
    <glyph glyph-name="ecaron" unicode="&#x11b;" horiz-adv-x="495" 
d="M432 768l-114 -171h-96l-114 171h43l119 -96l119 96h43zM270 540q98 0 151 -58t53 -151v-23h-326q-3 -103 44 -163t122 -60q93 0 149 81l16 -9q-20 -77 -75 -122t-139 -45q-108 0 -175 72.5t-67 188.5q0 126 71.5 207.5t175.5 81.5zM260 503q-48 0 -76 -43t-34 -115h200
q0 158 -90 158z" />
    <glyph glyph-name="Gcircumflex" unicode="&#x11c;" horiz-adv-x="720" 
d="M493 59v166q0 41 -13 52.5t-67 17.5v34h298v-34q-53 -6 -66.5 -17.5t-13.5 -52.5v-166q-107 -69 -255 -69q-162 0 -254 97t-92 247q0 171 102 274.5t257 103.5q134 0 223 -58l1 -162h-38q-37 179 -182 179q-70 0 -118 -42.5t-69 -110.5t-21 -157q0 -90 21.5 -162.5
t70 -119.5t117.5 -47q64 0 99 27zM443 903l125 -156h-40l-133 82l-133 -82h-40l125 156h96z" />
    <glyph glyph-name="gcircumflex" unicode="&#x11d;" horiz-adv-x="526" 
d="M246 189q-56 0 -101 16q-34 -32 -34 -60q0 -34 35 -34h206q86 0 131 -35.5t45 -101.5q0 -92 -82 -144t-210 -52q-111 0 -174 32.5t-63 92.5q0 65 94 94q-29 11 -45.5 35.5t-16.5 55.5q0 67 93 126q-92 45 -92 143q0 84 61 133.5t157 49.5q39 0 89 -14l169 4v-58h-41
l-70 3q28 -18 45.5 -48.5t17.5 -66.5q0 -78 -59.5 -124.5t-154.5 -46.5zM350 -16h-241q-19 -22 -19 -59q0 -50 41 -79.5t112 -29.5q79 0 132.5 27.5t53.5 80.5q0 60 -79 60zM252 222q77 0 77 135q0 64 -22 106.5t-63 42.5q-79 0 -79 -133q0 -65 22.5 -108t64.5 -43zM311 765
l114 -171h-43l-119 96l-119 -96h-43l114 171h96z" />
    <glyph glyph-name="Gbreve" unicode="&#x11e;" horiz-adv-x="720" 
d="M395 744q-68 0 -106.5 40t-38.5 116h37q12 -79 108 -79q95 0 108 79h37q0 -75 -38.5 -115.5t-106.5 -40.5zM493 59v166q0 41 -13 52.5t-67 17.5v34h298v-34q-53 -6 -66.5 -17.5t-13.5 -52.5v-166q-107 -69 -255 -69q-162 0 -254 97t-92 247q0 171 102 274.5t257 103.5
q134 0 223 -58l1 -162h-38q-37 179 -182 179q-70 0 -118 -42.5t-69 -110.5t-21 -157q0 -90 21.5 -162.5t70 -119.5t117.5 -47q64 0 99 27z" />
    <glyph glyph-name="gbreve" unicode="&#x11f;" horiz-adv-x="526" 
d="M246 189q-56 0 -101 16q-34 -32 -34 -60q0 -34 35 -34h206q86 0 131 -35.5t45 -101.5q0 -92 -82 -144t-210 -52q-111 0 -174 32.5t-63 92.5q0 65 94 94q-29 11 -45.5 35.5t-16.5 55.5q0 67 93 126q-92 45 -92 143q0 84 61 133.5t157 49.5q39 0 89 -14l169 4v-58h-41
l-70 3q28 -18 45.5 -48.5t17.5 -66.5q0 -78 -59.5 -124.5t-154.5 -46.5zM350 -16h-241q-19 -22 -19 -59q0 -50 41 -79.5t112 -29.5q79 0 132.5 27.5t53.5 80.5q0 60 -79 60zM252 222q77 0 77 135q0 64 -22 106.5t-63 42.5q-79 0 -79 -133q0 -65 22.5 -108t64.5 -43zM263 597
q-66 0 -100.5 41.5t-34.5 121.5h38q8 -85 97 -85q90 0 98 85h38q0 -79 -35 -121t-101 -42z" />
    <glyph glyph-name="Gdotaccent" unicode="&#x120;" horiz-adv-x="720" 
d="M395 749q-36 0 -58.5 23t-22.5 55q0 33 22.5 56t58.5 23q35 0 58.5 -23t23.5 -56q0 -32 -23.5 -55t-58.5 -23zM493 59v166q0 41 -13 52.5t-67 17.5v34h298v-34q-53 -6 -66.5 -17.5t-13.5 -52.5v-166q-107 -69 -255 -69q-162 0 -254 97t-92 247q0 171 102 274.5t257 103.5
q134 0 223 -58l1 -162h-38q-37 179 -182 179q-70 0 -118 -42.5t-69 -110.5t-21 -157q0 -90 21.5 -162.5t70 -119.5t117.5 -47q64 0 99 27z" />
    <glyph glyph-name="gdotaccent" unicode="&#x121;" horiz-adv-x="526" 
d="M246 189q-56 0 -101 16q-34 -32 -34 -60q0 -34 35 -34h206q86 0 131 -35.5t45 -101.5q0 -92 -82 -144t-210 -52q-111 0 -174 32.5t-63 92.5q0 65 94 94q-29 11 -45.5 35.5t-16.5 55.5q0 67 93 126q-92 45 -92 143q0 84 61 133.5t157 49.5q39 0 89 -14l169 4v-58h-41
l-70 3q28 -18 45.5 -48.5t17.5 -66.5q0 -78 -59.5 -124.5t-154.5 -46.5zM350 -16h-241q-19 -22 -19 -59q0 -50 41 -79.5t112 -29.5q79 0 132.5 27.5t53.5 80.5q0 60 -79 60zM252 222q77 0 77 135q0 64 -22 106.5t-63 42.5q-79 0 -79 -133q0 -65 22.5 -108t64.5 -43zM263 602
q-36 0 -58.5 23t-22.5 56t22.5 56t58.5 23q35 0 58.5 -23.5t23.5 -55.5q0 -33 -23.5 -56t-58.5 -23z" />
    <glyph glyph-name="Gcommaaccent" unicode="&#x122;" horiz-adv-x="720" 
d="M413 -152h-51q-44 11 -44 54q0 25 19.5 41t51.5 16q38 0 60.5 -23.5t22.5 -60.5q0 -50 -36.5 -80.5t-108.5 -30.5v30q40 0 62.5 15.5t23.5 38.5zM493 59v166q0 41 -13 52.5t-67 17.5v34h298v-34q-53 -6 -66.5 -17.5t-13.5 -52.5v-166q-107 -69 -255 -69q-162 0 -254 97
t-92 247q0 171 102 274.5t257 103.5q134 0 223 -58l1 -162h-38q-37 179 -182 179q-70 0 -118 -42.5t-69 -110.5t-21 -157q0 -90 21.5 -162.5t70 -119.5t117.5 -47q64 0 99 27z" />
    <glyph glyph-name="gcommaaccent" unicode="&#x123;" horiz-adv-x="526" 
d="M246 189q-56 0 -101 16q-34 -32 -34 -60q0 -34 35 -34h206q86 0 131 -35.5t45 -101.5q0 -92 -82 -144t-210 -52q-111 0 -174 32.5t-63 92.5q0 65 94 94q-29 11 -45.5 35.5t-16.5 55.5q0 67 93 126q-92 45 -92 143q0 84 61 133.5t157 49.5q39 0 89 -14l169 4v-58h-41
l-70 3q28 -18 45.5 -48.5t17.5 -66.5q0 -78 -59.5 -124.5t-154.5 -46.5zM350 -16h-241q-19 -22 -19 -59q0 -50 41 -79.5t112 -29.5q79 0 132.5 27.5t53.5 80.5q0 60 -79 60zM252 222q77 0 77 135q0 64 -22 106.5t-63 42.5q-79 0 -79 -133q0 -65 22.5 -108t64.5 -43zM245 711
h50q45 -11 45 -54q0 -26 -19.5 -42t-51.5 -16q-38 0 -60.5 24t-22.5 61q0 50 36 80t109 30v-29q-40 0 -62.5 -15.5t-23.5 -38.5z" />
    <glyph glyph-name="Hcircumflex" unicode="&#x124;" horiz-adv-x="808" 
d="M254 598v-215h301v215q0 41 -13.5 52t-66.5 17v35h306v-35q-53 -6 -66.5 -17t-13.5 -52v-494q0 -41 13.5 -52t66.5 -17v-35h-306v35q53 6 66.5 17t13.5 52v231h-301v-231q0 -41 13.5 -52t66.5 -17v-35h-307v35q53 6 66.5 17t13.5 52v494q0 41 -13.5 52t-66.5 17v35h307
v-35q-53 -6 -66.5 -17t-13.5 -52zM452 903l125 -156h-40l-133 82l-133 -82h-40l125 156h96z" />
    <glyph glyph-name="hcircumflex" unicode="&#x125;" horiz-adv-x="619" 
d="M80 77v606l-60 31v21l177 48h22v-341q82 98 184 98q144 0 144 -164v-299q0 -25 13 -33.5t49 -10.5v-33h-262v33q36 2 48.5 10.5t12.5 33.5v292q0 87 -78 87q-51 0 -111 -41v-338q0 -25 12.5 -33.5t48.5 -10.5v-33h-262v33q36 2 49 10.5t13 33.5zM355 959l125 -156h-40
l-133 82l-133 -82h-40l125 156h96z" />
    <glyph glyph-name="Hbar" unicode="&#x126;" horiz-adv-x="828" 
d="M264 598v-55h301v55q0 41 -13.5 52t-66.5 17v35h306v-35q-53 -6 -66.5 -17t-13.5 -52v-55h80v-48h-80v-391q0 -41 13.5 -52t66.5 -17v-35h-306v35q53 6 66.5 17t13.5 52v231h-301v-231q0 -41 13.5 -52t66.5 -17v-35h-307v35q53 6 66.5 17t13.5 52v391h-79v48h79v55
q0 41 -13.5 52t-66.5 17v35h307v-35q-53 -6 -66.5 -17t-13.5 -52zM264 383h301v112h-301v-112z" />
    <glyph glyph-name="hbar" unicode="&#x127;" horiz-adv-x="619" 
d="M80 77v515h-60v42h60v49l-60 31v21l177 48h22v-149h128v-42h-128v-150q82 98 184 98q144 0 144 -164v-299q0 -25 13 -33.5t49 -10.5v-33h-262v33q36 2 48.5 10.5t12.5 33.5v292q0 87 -78 87q-51 0 -111 -41v-338q0 -25 12.5 -33.5t48.5 -10.5v-33h-262v33q36 2 49 10.5
t13 33.5z" />
    <glyph glyph-name="Itilde" unicode="&#x128;" horiz-adv-x="361" 
d="M254 598v-494q0 -41 13.5 -52t66.5 -17v-35h-307v35q53 6 66.5 17t13.5 52v494q0 41 -13.5 52t-66.5 17v35h307v-35q-53 -6 -66.5 -17t-13.5 -52zM247 746q-29 0 -71.5 29.5t-61.5 29.5q-36 0 -66 -56l-26 15q26 69 49.5 98t57.5 29q29 0 71.5 -30t61.5 -30q35 0 66 57
l26 -16q-26 -68 -49 -97t-58 -29z" />
    <glyph glyph-name="itilde" unicode="&#x129;" horiz-adv-x="300" 
d="M205 602q-25 0 -63.5 29t-56.5 29q-20 0 -33 -12.5t-30 -42.5l-28 15q26 70 47 97.5t56 27.5q27 0 65 -28.5t55 -28.5q20 0 33 12t30 42l28 -14q-26 -70 -47 -98t-56 -28zM222 540v-463q0 -25 13 -33.5t50 -10.5v-33h-264v33q37 2 50 10.5t13 33.5v354l-60 35v19l176 55
h22z" />
    <glyph glyph-name="Imacron" unicode="&#x12a;" horiz-adv-x="361" 
d="M254 598v-494q0 -41 13.5 -52t66.5 -17v-35h-307v35q53 6 66.5 17t13.5 52v494q0 41 -13.5 52t-66.5 17v35h307v-35q-53 -6 -66.5 -17t-13.5 -52zM36 762v68h287v-68h-287z" />
    <glyph glyph-name="imacron" unicode="&#x12b;" horiz-adv-x="300" 
d="M222 540v-463q0 -25 13 -33.5t50 -10.5v-33h-264v33q37 2 50 10.5t13 33.5v354l-60 35v19l176 55h22zM30 625v67h242v-67h-242z" />
    <glyph glyph-name="Ibreve" unicode="&#x12c;" horiz-adv-x="361" 
d="M254 598v-494q0 -41 13.5 -52t66.5 -17v-35h-307v35q53 6 66.5 17t13.5 52v494q0 41 -13.5 52t-66.5 17v35h307v-35q-53 -6 -66.5 -17t-13.5 -52zM181 744q-65 0 -101.5 40.5t-36.5 115.5h36q10 -79 102 -79q90 0 102 79h36q0 -75 -37 -115.5t-101 -40.5z" />
    <glyph glyph-name="ibreve" unicode="&#x12d;" horiz-adv-x="300" 
d="M222 540v-463q0 -25 13 -33.5t50 -10.5v-33h-264v33q37 2 50 10.5t13 33.5v354l-60 35v19l176 55h22zM154 597q-62 0 -95 42t-33 121h36q8 -85 92 -85q86 0 93 85h36q0 -80 -33 -121.5t-96 -41.5z" />
    <glyph glyph-name="Iogonek" unicode="&#x12e;" horiz-adv-x="361" 
d="M254 598v-494q0 -41 13.5 -52t66.5 -17v-35h-98q-80 -42 -80 -103q0 -51 48 -51q38 0 74 29l13 -15q-59 -73 -130 -73q-39 0 -64.5 23t-25.5 59q0 77 116 131h-160v35q53 6 66.5 17t13.5 52v494q0 41 -13.5 52t-66.5 17v35h307v-35q-53 -6 -66.5 -17t-13.5 -52z" />
    <glyph glyph-name="iogonek" unicode="&#x12f;" horiz-adv-x="300" 
d="M222 540v-463q0 -25 13 -33.5t50 -10.5v-33h-81q-80 -42 -80 -103q0 -51 48 -51q38 0 74 29l13 -15q-59 -73 -130 -73q-39 0 -64.5 23t-25.5 59q0 77 116 131h-134v33q37 2 50 10.5t13 33.5v354l-60 35v19l176 55h22zM151 600q-35 0 -58 23.5t-23 55.5q0 33 23 56t58 23
q36 0 59 -23t23 -56q0 -32 -23 -55.5t-59 -23.5z" />
    <glyph glyph-name="Idotaccent" unicode="&#x130;" horiz-adv-x="361" 
d="M254 598v-494q0 -41 13.5 -52t66.5 -17v-35h-307v35q53 6 66.5 17t13.5 52v494q0 41 -13.5 52t-66.5 17v35h307v-35q-53 -6 -66.5 -17t-13.5 -52zM180 749q-36 0 -58.5 23t-22.5 55q0 33 22.5 56t58.5 23q35 0 58.5 -23t23.5 -56q0 -32 -23.5 -55t-58.5 -23z" />
    <glyph glyph-name="dotlessi" unicode="&#x131;" horiz-adv-x="300" 
d="M222 540v-463q0 -25 13 -33.5t50 -10.5v-33h-264v33q37 2 50 10.5t13 33.5v354l-60 35v19l176 55h22z" />
    <glyph glyph-name="IJ" unicode="&#x132;" horiz-adv-x="885" 
d="M254 598v-494q0 -41 13.5 -52t66.5 -17v-35h-307v35q53 6 66.5 17t13.5 52v494q0 41 -13.5 52t-66.5 17v35h307v-35q-53 -6 -66.5 -17t-13.5 -52zM642 167v431q0 41 -13.5 52t-66.5 17v35h306v-35q-53 -6 -66.5 -17t-13.5 -52v-385q0 -112 -60.5 -167.5t-173.5 -55.5
q-98 0 -152.5 36t-54.5 102q0 52 40 77h97q-6 -40 -6 -63q0 -55 20.5 -85.5t60.5 -30.5q43 0 63 34.5t20 106.5z" />
    <glyph glyph-name="ij" unicode="&#x133;" horiz-adv-x="573" 
d="M222 540v-463q0 -25 13 -33.5t50 -10.5v-33h-264v33q37 2 50 10.5t13 33.5v354l-60 35v19l176 55h22zM151 600q-35 0 -58 23.5t-23 55.5q0 33 23 56t58 23q36 0 59 -23t23 -56q0 -32 -23 -55.5t-59 -23.5zM371 431l-60 35v19l176 55h22v-445q0 -72 -11 -110.5t-37 -74.5
q-51 -65 -149 -128l-15 16l41 68q22 36 27.5 78t5.5 114v373zM437 600q-35 0 -58 23.5t-23 55.5q0 33 23 56t58 23q36 0 59 -23t23 -56q0 -32 -23 -55.5t-59 -23.5z" />
    <glyph glyph-name="Jcircumflex" unicode="&#x134;" horiz-adv-x="532" 
d="M289 167v431q0 41 -13.5 52t-66.5 17v35h306v-35q-53 -6 -66.5 -17t-13.5 -52v-385q0 -112 -60.5 -167.5t-173.5 -55.5q-98 0 -152.5 36t-54.5 102q0 52 40 77h97q-6 -40 -6 -63q0 -55 20.5 -85.5t60.5 -30.5q43 0 63 34.5t20 106.5zM410 903l125 -156h-40l-133 82
l-133 -82h-40l125 156h96z" />
    <glyph glyph-name="jcircumflex" unicode="&#x135;" horiz-adv-x="273" 
d="M71 431l-60 35v19l176 55h22v-445q0 -72 -11 -110.5t-37 -74.5q-51 -65 -149 -128l-15 16l41 68q22 36 27.5 78t5.5 114v373zM178 765l103 -171h-39l-107 96l-108 -96h-39l103 171h87z" />
    <glyph glyph-name="Kcommaaccent" unicode="&#x136;" horiz-adv-x="716" 
d="M390 -152h-51q-44 11 -44 54q0 25 19.5 41t51.5 16q38 0 60.5 -23.5t22.5 -60.5q0 -50 -36.5 -80.5t-108.5 -30.5v30q40 0 62.5 15.5t23.5 38.5zM391 409l216 -302q31 -42 51.5 -56t57.5 -16v-35h-191q-40 33 -87 101l-173 244l244 254q25 25 25 42q0 13 -15 18.5
t-59 7.5v35h224v-35q-31 -1 -48.5 -10.5t-41.5 -33.5zM254 598v-494q0 -41 13.5 -52t66.5 -17v-35h-307v35q53 6 66.5 17t13.5 52v494q0 41 -13.5 52t-66.5 17v35h307v-35q-53 -6 -66.5 -17t-13.5 -52z" />
    <glyph glyph-name="kcommaaccent" unicode="&#x137;" horiz-adv-x="586" 
d="M329 -152h-51q-44 11 -44 54q0 25 19.5 41t51.5 16q38 0 60.5 -23.5t22.5 -60.5q0 -50 -36.5 -80.5t-108.5 -30.5v30q40 0 62.5 15.5t23.5 38.5zM229 284l157 143q29 25 29 42q0 13 -12.5 18t-51.5 10v33h213v-33q-53 -10 -81 -37l-133 -123l236 -314v-23h-148zM81 77
v606l-60 31v21l177 48h22v-706q0 -25 13 -33.5t49 -10.5v-33h-263v33q36 2 49 10.5t13 33.5z" />
    <glyph glyph-name="kgreenlandic" unicode="&#x138;" horiz-adv-x="589" 
d="M232 284l157 143q29 26 29 42q0 13 -12.5 18t-51.5 10v33h213v-33q-53 -10 -81 -37l-133 -123l236 -314v-23h-148zM84 77v354l-60 35v19l177 55h21v-463q0 -25 13 -33.5t50 -10.5v-33h-264v33q37 2 50 10.5t13 33.5z" />
    <glyph glyph-name="Lacute" unicode="&#x139;" horiz-adv-x="614" 
d="M221 896h144v-7l-159 -142h-37zM254 598v-490q0 -39 19.5 -53.5t67.5 -14.5h43q54 0 89 36.5t93 140.5h35l-35 -217h-539v35q53 6 66.5 17t13.5 52v494q0 41 -13.5 52t-66.5 17v35h307v-35q-53 -6 -66.5 -17t-13.5 -52z" />
    <glyph glyph-name="lacute" unicode="&#x13a;" horiz-adv-x="297" 
d="M159 947h144v-7l-159 -142h-37zM220 783v-706q0 -25 13 -33.5t49 -10.5v-33h-263v33q36 2 49 10.5t13 33.5v606l-60 31v21l177 48h22z" />
    <glyph glyph-name="Lcommaaccent" unicode="&#x13b;" horiz-adv-x="614" 
d="M332 -152h-51q-44 11 -44 54q0 25 19.5 41t51.5 16q38 0 60.5 -23.5t22.5 -60.5q0 -50 -36.5 -80.5t-108.5 -30.5v30q40 0 62.5 15.5t23.5 38.5zM254 598v-490q0 -39 19.5 -53.5t67.5 -14.5h43q54 0 89 36.5t93 140.5h35l-35 -217h-539v35q53 6 66.5 17t13.5 52v494
q0 41 -13.5 52t-66.5 17v35h307v-35q-53 -6 -66.5 -17t-13.5 -52z" />
    <glyph glyph-name="lcommaaccent" unicode="&#x13c;" horiz-adv-x="297" 
d="M169 -152h-51q-44 11 -44 54q0 25 19.5 41t51.5 16q38 0 60.5 -23.5t22.5 -60.5q0 -50 -36.5 -80.5t-108.5 -30.5v30q40 0 62.5 15.5t23.5 38.5zM220 783v-706q0 -25 13 -33.5t49 -10.5v-33h-263v33q36 2 49 10.5t13 33.5v606l-60 31v21l177 48h22z" />
    <glyph glyph-name="Lcaron" unicode="&#x13d;" horiz-adv-x="614" 
d="M539 694l-111 -197h-26l16 205h121v-8zM254 598v-490q0 -39 19.5 -53.5t67.5 -14.5h43q54 0 89 36.5t93 140.5h35l-35 -217h-539v35q53 6 66.5 17t13.5 52v494q0 41 -13.5 52t-66.5 17v35h307v-35q-53 -6 -66.5 -17t-13.5 -52z" />
    <glyph glyph-name="lcaron" unicode="&#x13e;" horiz-adv-x="297" 
d="M396 774l-111 -197h-26l16 205h121v-8zM220 783v-706q0 -25 13 -33.5t49 -10.5v-33h-263v33q36 2 49 10.5t13 33.5v606l-60 31v21l177 48h22z" />
    <glyph glyph-name="Ldot" unicode="&#x13f;" horiz-adv-x="614" 
d="M254 598v-490q0 -39 19.5 -53.5t67.5 -14.5h43q54 0 89 36.5t93 140.5h35l-35 -217h-539v35q53 6 66.5 17t13.5 52v494q0 41 -13.5 52t-66.5 17v35h307v-35q-53 -6 -66.5 -17t-13.5 -52zM421 397q0 36 25 60.5t60 24.5t59.5 -24.5t24.5 -60.5q0 -37 -24 -61t-60 -24
t-60.5 24.5t-24.5 60.5z" />
    <glyph glyph-name="ldot" unicode="&#x140;" horiz-adv-x="384" 
d="M220 783v-706q0 -25 13 -33.5t49 -10.5v-33h-263v33q36 2 49 10.5t13 33.5v606l-60 31v21l177 48h22zM259 379q0 34 24 58t58 24t57.5 -24t23.5 -58q0 -35 -23.5 -58t-57.5 -23t-58 23t-24 58z" />
    <glyph glyph-name="Lslash" unicode="&#x141;" horiz-adv-x="614" 
d="M254 598v-216l147 59v-49l-147 -59v-225q0 -39 19.5 -53.5t67.5 -14.5h43q54 0 89 36.5t93 140.5h35l-35 -217h-539v35q53 6 66.5 17t13.5 52v180l-73 -30v49l73 29v266q0 41 -13.5 52t-66.5 17v35h307v-35q-53 -6 -66.5 -17t-13.5 -52z" />
    <glyph glyph-name="lslash" unicode="&#x142;" horiz-adv-x="315" 
d="M226 783v-301l82 46v-49l-82 -47v-355q0 -25 13 -33.5t49 -10.5v-33h-263v33q36 2 49 10.5t13 33.5v295l-77 -41v48l77 43v261l-60 31v21l177 48h22z" />
    <glyph glyph-name="Nacute" unicode="&#x143;" horiz-adv-x="747" 
d="M392 896h144v-7l-159 -142h-37zM596 239v358q0 40 -18.5 52.5t-81.5 17.5v35h233v-35q-53 -6 -66.5 -18t-13.5 -52v-599h-49l-438 553v-446q0 -40 18 -52.5t81 -17.5v-35h-233v35q53 6 66.5 17.5t13.5 52.5v500q-25 35 -40 48t-41 14v35h205z" />
    <glyph glyph-name="nacute" unicode="&#x144;" horiz-adv-x="623" 
d="M335 763h141v-7l-161 -159h-35zM411 77v292q0 44 -18 65.5t-59 21.5q-52 0 -112 -41v-338q0 -25 12.5 -33.5t48.5 -10.5v-33h-262v33q37 2 50 10.5t13 33.5v354l-60 35v19l179 55h23l-4 -98q84 98 185 98q143 0 143 -163v-300q0 -25 13 -33.5t49 -10.5v-33h-262v33
q36 2 48.5 10.5t12.5 33.5z" />
    <glyph glyph-name="Ncommaaccent" unicode="&#x145;" horiz-adv-x="747" 
d="M408 -152h-51q-44 11 -44 54q0 25 19.5 41t51.5 16q38 0 60.5 -23.5t22.5 -60.5q0 -50 -36.5 -80.5t-108.5 -30.5v30q40 0 62.5 15.5t23.5 38.5zM596 239v358q0 40 -18.5 52.5t-81.5 17.5v35h233v-35q-53 -6 -66.5 -18t-13.5 -52v-599h-49l-438 553v-446q0 -40 18 -52.5
t81 -17.5v-35h-233v35q53 6 66.5 17.5t13.5 52.5v500q-25 35 -40 48t-41 14v35h205z" />
    <glyph glyph-name="ncommaaccent" unicode="&#x146;" horiz-adv-x="623" 
d="M342 -152h-51q-44 11 -44 54q0 25 19.5 41t51.5 16q38 0 60.5 -23.5t22.5 -60.5q0 -50 -36.5 -80.5t-108.5 -30.5v30q40 0 62.5 15.5t23.5 38.5zM411 77v292q0 44 -18 65.5t-59 21.5q-52 0 -112 -41v-338q0 -25 12.5 -33.5t48.5 -10.5v-33h-262v33q37 2 50 10.5t13 33.5
v354l-60 35v19l179 55h23l-4 -98q84 98 185 98q143 0 143 -163v-300q0 -25 13 -33.5t49 -10.5v-33h-262v33q36 2 48.5 10.5t12.5 33.5z" />
    <glyph glyph-name="Ncaron" unicode="&#x147;" horiz-adv-x="747" 
d="M562 903l-125 -156h-96l-125 156h40l133 -82l133 82h40zM596 239v358q0 40 -18.5 52.5t-81.5 17.5v35h233v-35q-53 -6 -66.5 -18t-13.5 -52v-599h-49l-438 553v-446q0 -40 18 -52.5t81 -17.5v-35h-233v35q53 6 66.5 17.5t13.5 52.5v500q-25 35 -40 48t-41 14v35h205z" />
    <glyph glyph-name="ncaron" unicode="&#x148;" horiz-adv-x="623" 
d="M486 768l-114 -171h-96l-114 171h43l119 -96l119 96h43zM411 77v292q0 44 -18 65.5t-59 21.5q-52 0 -112 -41v-338q0 -25 12.5 -33.5t48.5 -10.5v-33h-262v33q37 2 50 10.5t13 33.5v354l-60 35v19l179 55h23l-4 -98q84 98 185 98q143 0 143 -163v-300q0 -25 13 -33.5
t49 -10.5v-33h-262v33q36 2 48.5 10.5t12.5 33.5z" />
    <glyph glyph-name="Eng" unicode="&#x14a;" horiz-adv-x="747" 
d="M541 72l-379 479v-446q0 -40 18 -52.5t81 -17.5v-35h-233v35q53 6 66.5 17.5t13.5 52.5v500q-25 35 -40 48t-41 14v35h206l363 -462v357q0 40 -18.5 52.5t-81.5 17.5v35h233v-35q-53 -6 -66.5 -18t-13.5 -52v-502q0 -72 -9.5 -110t-35.5 -73q-28 -38 -57.5 -62.5
t-78.5 -54.5l-16 16l32 45q57 83 57 216z" />
    <glyph glyph-name="eng" unicode="&#x14b;" horiz-adv-x="614" 
d="M411 58v311q0 44 -18 65.5t-59 21.5q-52 0 -112 -41v-338q0 -25 12.5 -33.5t48.5 -10.5v-33h-262v33q37 2 50 10.5t13 33.5v354l-60 35v19l179 55h23l-4 -98q84 98 185 98q143 0 143 -163v-282q0 -72 -11 -110.5t-38 -74.5q-48 -62 -148 -128l-16 16l41 68q22 36 27.5 78
t5.5 114z" />
    <glyph glyph-name="Omacron" unicode="&#x14c;" horiz-adv-x="722" 
d="M219 762v68h287v-68h-287zM365 31q83 0 126.5 91t43.5 223q0 65 -10.5 122t-31.5 103.5t-56 73.5t-81 27q-56 0 -95.5 -45.5t-57 -115t-17.5 -153.5q0 -88 18 -159.5t59.5 -119t101.5 -47.5zM355 -10q-152 0 -238.5 100.5t-86.5 246.5q0 169 95.5 272t241.5 103
q102 0 177 -49t111.5 -126.5t36.5 -171.5q0 -169 -95.5 -272t-241.5 -103z" />
    <glyph glyph-name="omacron" unicode="&#x14d;" horiz-adv-x="561" 
d="M148 624v68h269v-68h-269zM284 26q54 0 80.5 57t26.5 159q0 118 -28.5 189.5t-85.5 71.5q-54 0 -81 -57t-27 -158q0 -118 29 -190t86 -72zM279 -10q-115 0 -186 72t-71 191q0 127 73.5 207t186.5 80q115 0 186 -73t71 -191q0 -126 -73.5 -206t-186.5 -80z" />
    <glyph glyph-name="Obreve" unicode="&#x14e;" horiz-adv-x="722" 
d="M363 744q-68 0 -106.5 40t-38.5 116h37q12 -79 108 -79q95 0 108 79h37q0 -75 -38.5 -115.5t-106.5 -40.5zM365 31q83 0 126.5 91t43.5 223q0 65 -10.5 122t-31.5 103.5t-56 73.5t-81 27q-56 0 -95.5 -45.5t-57 -115t-17.5 -153.5q0 -88 18 -159.5t59.5 -119t101.5 -47.5
zM355 -10q-152 0 -238.5 100.5t-86.5 246.5q0 169 95.5 272t241.5 103q102 0 177 -49t111.5 -126.5t36.5 -171.5q0 -169 -95.5 -272t-241.5 -103z" />
    <glyph glyph-name="obreve" unicode="&#x14f;" horiz-adv-x="561" 
d="M284 26q54 0 80.5 57t26.5 159q0 118 -28.5 189.5t-85.5 71.5q-54 0 -81 -57t-27 -158q0 -118 29 -190t86 -72zM279 -10q-115 0 -186 72t-71 191q0 127 73.5 207t186.5 80q115 0 186 -73t71 -191q0 -126 -73.5 -206t-186.5 -80zM282 597q-66 0 -100.5 41.5t-34.5 121.5
h38q8 -85 97 -85q90 0 98 85h38q0 -79 -35 -121t-101 -42z" />
    <glyph glyph-name="Ohungarumlaut" unicode="&#x150;" horiz-adv-x="722" 
d="M365 31q83 0 126.5 91t43.5 223q0 65 -10.5 122t-31.5 103.5t-56 73.5t-81 27q-56 0 -95.5 -45.5t-57 -115t-17.5 -153.5q0 -88 18 -159.5t59.5 -119t101.5 -47.5zM355 -10q-152 0 -238.5 100.5t-86.5 246.5q0 169 95.5 272t241.5 103q102 0 177 -49t111.5 -126.5
t36.5 -171.5q0 -169 -95.5 -272t-241.5 -103zM314 896h124v-7l-142 -142h-37zM476 896h124v-7l-143 -142h-36z" />
    <glyph glyph-name="ohungarumlaut" unicode="&#x151;" horiz-adv-x="561" 
d="M225 763h124v-7l-144 -159h-35zM387 763h124v-7l-144 -159h-35zM284 26q54 0 80.5 57t26.5 159q0 118 -28.5 189.5t-85.5 71.5q-54 0 -81 -57t-27 -158q0 -118 29 -190t86 -72zM279 -10q-115 0 -186 72t-71 191q0 127 73.5 207t186.5 80q115 0 186 -73t71 -191
q0 -126 -73.5 -206t-186.5 -80z" />
    <glyph glyph-name="OE" unicode="&#x152;" horiz-adv-x="1020" 
d="M492 662h-56q-114 0 -182.5 -80.5t-68.5 -223.5q0 -141 69.5 -229.5t202.5 -88.5h35v622zM970 0h-538q-196 0 -299 95t-103 242q0 170 110 267.5t286 97.5h540v-180h-29q-38 84 -68.5 112t-89.5 28h-140v-278h127q32 0 46.5 20.5t22.5 71.5h35v-227h-35q-8 50 -22 70.5
t-47 20.5h-127v-232q0 -39 20.5 -53.5t68.5 -14.5h63q57 0 89.5 32t86.5 128h34z" />
    <glyph glyph-name="oe" unicode="&#x153;" horiz-adv-x="863" 
d="M283 540q114 0 185 -88q71 88 172 88q96 0 149 -58t53 -151v-23h-326q-3 -102 44 -162.5t122 -60.5q93 0 149 81l16 -9q-19 -77 -74.5 -122t-139.5 -45q-107 0 -176 84q-72 -84 -178 -84q-115 0 -185.5 72t-70.5 191q0 127 73.5 207t186.5 80zM284 26q54 0 81 57.5
t27 158.5q0 118 -28.5 189.5t-85.5 71.5q-54 0 -81 -57t-27 -158q0 -118 28.5 -190t85.5 -72zM628 503q-48 0 -76 -43t-34 -115h200q0 158 -90 158z" />
    <glyph glyph-name="Racute" unicode="&#x154;" horiz-adv-x="718" 
d="M300 661h-46v-319h48q78 0 117.5 42.5t39.5 121.5q0 70 -41 112.5t-118 42.5zM254 300v-196q0 -41 13.5 -52t66.5 -17v-35h-307v35q53 6 66.5 17t13.5 52v494q0 41 -13.5 52t-66.5 17v35h319q123 0 192.5 -53t69.5 -142q0 -75 -48.5 -121.5t-114.5 -63.5l151 -205
q35 -47 59.5 -64t62.5 -18v-35h-190q-36 26 -84 98l-138 202h-52zM345 896h144v-7l-159 -142h-37z" />
    <glyph glyph-name="racute" unicode="&#x155;" horiz-adv-x="411" 
d="M256 763h141v-7l-161 -159h-35zM222 361v-276q0 -29 17.5 -38.5t67.5 -13.5v-33h-286v33q37 2 50 10.5t13 33.5v354l-60 35v19l179 55h23l-4 -148q37 84 65.5 116t71.5 32q30 0 44 -17v-108h-19q-56 0 -91.5 -9.5t-70.5 -44.5z" />
    <glyph glyph-name="Rcommaaccent" unicode="&#x156;" horiz-adv-x="718" 
d="M391 -152h-51q-44 11 -44 54q0 25 19.5 41t51.5 16q38 0 60.5 -23.5t22.5 -60.5q0 -50 -36.5 -80.5t-108.5 -30.5v30q40 0 62.5 15.5t23.5 38.5zM300 661h-46v-319h48q78 0 117.5 42.5t39.5 121.5q0 70 -41 112.5t-118 42.5zM254 300v-196q0 -41 13.5 -52t66.5 -17v-35
h-307v35q53 6 66.5 17t13.5 52v494q0 41 -13.5 52t-66.5 17v35h319q123 0 192.5 -53t69.5 -142q0 -75 -48.5 -121.5t-114.5 -63.5l151 -205q35 -47 59.5 -64t62.5 -18v-35h-190q-36 26 -84 98l-138 202h-52z" />
    <glyph glyph-name="rcommaaccent" unicode="&#x157;" horiz-adv-x="411" 
d="M180 -152h-51q-44 11 -44 54q0 25 19.5 41t51.5 16q38 0 60.5 -23.5t22.5 -60.5q0 -50 -36.5 -80.5t-108.5 -30.5v30q40 0 62.5 15.5t23.5 38.5zM222 361v-276q0 -29 17.5 -38.5t67.5 -13.5v-33h-286v33q37 2 50 10.5t13 33.5v354l-60 35v19l179 55h23l-4 -148
q37 84 65.5 116t71.5 32q30 0 44 -17v-108h-19q-56 0 -91.5 -9.5t-70.5 -44.5z" />
    <glyph glyph-name="Rcaron" unicode="&#x158;" horiz-adv-x="718" 
d="M509 903l-125 -156h-96l-125 156h40l133 -82l133 82h40zM300 661h-46v-319h48q78 0 117.5 42.5t39.5 121.5q0 70 -41 112.5t-118 42.5zM254 300v-196q0 -41 13.5 -52t66.5 -17v-35h-307v35q53 6 66.5 17t13.5 52v494q0 41 -13.5 52t-66.5 17v35h319q123 0 192.5 -53
t69.5 -142q0 -75 -48.5 -121.5t-114.5 -63.5l151 -205q35 -47 59.5 -64t62.5 -18v-35h-190q-36 26 -84 98l-138 202h-52z" />
    <glyph glyph-name="rcaron" unicode="&#x159;" horiz-adv-x="411" 
d="M407 768l-114 -171h-96l-114 171h43l119 -96l119 96h43zM222 361v-276q0 -29 17.5 -38.5t67.5 -13.5v-33h-286v33q37 2 50 10.5t13 33.5v354l-60 35v19l179 55h23l-4 -148q37 84 65.5 116t71.5 32q30 0 44 -17v-108h-19q-56 0 -91.5 -9.5t-70.5 -44.5z" />
    <glyph glyph-name="Sacute" unicode="&#x15a;" horiz-adv-x="550" 
d="M261 -10q-69 0 -128 18.5t-94 47.5l-9 171h42q19 -92 67 -144.5t122 -52.5q61 0 96.5 30.5t35.5 82.5q0 54 -35 84.5t-128 64.5q-97 34 -145.5 82t-48.5 131q0 92 64 149.5t169 57.5q128 0 208 -59v-149h-37q-14 81 -57.5 124.5t-113.5 43.5q-52 0 -83 -29t-31 -77
q0 -51 31 -79.5t114 -58.5q111 -40 163 -89t52 -137q0 -101 -72 -156.5t-182 -55.5zM296 896h144v-7l-159 -142h-37z" />
    <glyph glyph-name="sacute" unicode="&#x15b;" horiz-adv-x="455" 
d="M246 763h141v-7l-161 -159h-35zM220 -10q-112 0 -180 50l-6 137h37q17 -69 56 -110.5t94 -41.5q42 0 68.5 20.5t26.5 60.5q0 38 -26 59t-90 44q-85 29 -123.5 67t-38.5 105q0 74 51 116.5t135 42.5q95 0 163 -44v-121h-34q-13 58 -45.5 94t-83.5 36q-38 0 -59.5 -20
t-21.5 -53t24 -53.5t84 -42.5q89 -31 130.5 -69.5t41.5 -107.5q0 -79 -55 -124t-148 -45z" />
    <glyph glyph-name="Scircumflex" unicode="&#x15c;" horiz-adv-x="550" 
d="M261 -10q-69 0 -128 18.5t-94 47.5l-9 171h42q19 -92 67 -144.5t122 -52.5q61 0 96.5 30.5t35.5 82.5q0 54 -35 84.5t-128 64.5q-97 34 -145.5 82t-48.5 131q0 92 64 149.5t169 57.5q128 0 208 -59v-149h-37q-14 81 -57.5 124.5t-113.5 43.5q-52 0 -83 -29t-31 -77
q0 -51 31 -79.5t114 -58.5q111 -40 163 -89t52 -137q0 -101 -72 -156.5t-182 -55.5zM331 903l125 -156h-40l-133 82l-133 -82h-40l125 156h96z" />
    <glyph glyph-name="scircumflex" unicode="&#x15d;" horiz-adv-x="455" 
d="M283 765l114 -171h-43l-119 96l-119 -96h-43l114 171h96zM220 -10q-112 0 -180 50l-6 137h37q17 -69 56 -110.5t94 -41.5q42 0 68.5 20.5t26.5 60.5q0 38 -26 59t-90 44q-85 29 -123.5 67t-38.5 105q0 74 51 116.5t135 42.5q95 0 163 -44v-121h-34q-13 58 -45.5 94
t-83.5 36q-38 0 -59.5 -20t-21.5 -53t24 -53.5t84 -42.5q89 -31 130.5 -69.5t41.5 -107.5q0 -79 -55 -124t-148 -45z" />
    <glyph glyph-name="Scedilla" unicode="&#x15e;" horiz-adv-x="550" 
d="M170 -226l-7 31q52 0 81.5 14t29.5 36q0 37 -83 40l39 96q-123 9 -191 65l-9 171h42q19 -92 67 -144.5t122 -52.5q61 0 96.5 30.5t35.5 82.5q0 54 -35 84.5t-128 64.5q-97 34 -145.5 82t-48.5 131q0 92 64 149.5t169 57.5q128 0 208 -59v-149h-37q-14 81 -57.5 124.5
t-113.5 43.5q-52 0 -83 -29t-31 -77q0 -51 31 -79.5t114 -58.5q111 -40 163 -89t52 -137q0 -101 -72 -156.5t-182 -55.5l-13 -34q47 0 75 -20t28 -58q0 -51 -50.5 -77.5t-130.5 -26.5z" />
    <glyph glyph-name="scedilla" unicode="&#x15f;" horiz-adv-x="455" 
d="M123 -226l-7 31q52 0 81.5 14t29.5 36q0 37 -83 40l39 97q-90 9 -143 48l-6 137h37q17 -69 56 -110.5t94 -41.5q42 0 68.5 20.5t26.5 60.5q0 38 -26 59t-90 44q-85 29 -123.5 67t-38.5 105q0 74 51 116.5t135 42.5q95 0 163 -44v-121h-34q-13 58 -45.5 94t-83.5 36
q-38 0 -59.5 -20t-21.5 -53t24 -53.5t84 -42.5q89 -31 130.5 -69.5t41.5 -107.5q0 -79 -55 -124t-148 -45h-6l-13 -34q47 0 75 -20t28 -58q0 -51 -50.5 -77.5t-130.5 -26.5z" />
    <glyph glyph-name="Scaron" unicode="&#x160;" horiz-adv-x="550" 
d="M261 -10q-69 0 -128 18.5t-94 47.5l-9 171h42q19 -92 67 -144.5t122 -52.5q61 0 96.5 30.5t35.5 82.5q0 54 -35 84.5t-128 64.5q-97 34 -145.5 82t-48.5 131q0 92 64 149.5t169 57.5q128 0 208 -59v-149h-37q-14 81 -57.5 124.5t-113.5 43.5q-52 0 -83 -29t-31 -77
q0 -51 31 -79.5t114 -58.5q111 -40 163 -89t52 -137q0 -101 -72 -156.5t-182 -55.5zM456 903l-125 -156h-96l-125 156h40l133 -82l133 82h40z" />
    <glyph glyph-name="scaron" unicode="&#x161;" horiz-adv-x="455" 
d="M397 768l-114 -171h-96l-114 171h43l119 -96l119 96h43zM220 -10q-112 0 -180 50l-6 137h37q17 -69 56 -110.5t94 -41.5q42 0 68.5 20.5t26.5 60.5q0 38 -26 59t-90 44q-85 29 -123.5 67t-38.5 105q0 74 51 116.5t135 42.5q95 0 163 -44v-121h-34q-13 58 -45.5 94
t-83.5 36q-38 0 -59.5 -20t-21.5 -53t24 -53.5t84 -42.5q89 -31 130.5 -69.5t41.5 -107.5q0 -79 -55 -124t-148 -45z" />
    <glyph glyph-name="Tcedilla" unicode="&#x162;" horiz-adv-x="675" 
d="M356 -152h-51q-44 11 -44 54q0 25 19.5 41t51.5 16q38 0 60.5 -23.5t22.5 -60.5q0 -50 -36.5 -80.5t-108.5 -30.5v30q40 0 62.5 15.5t23.5 38.5zM29 702h617l15 -231h-32q-52 120 -81 157.5t-84 37.5h-53v-565q0 -39 17 -49t73 -17v-35h-326v35q31 4 43.5 6t26 9t17 18.5
t3.5 32.5v565h-53q-29 0 -48.5 -8t-39.5 -35t-35 -57.5t-43 -94.5h-32z" />
    <glyph glyph-name="tcedilla" unicode="&#x163;" horiz-adv-x="360" 
d="M201 -152h-51q-44 11 -44 54q0 25 19.5 41t51.5 16q38 0 60.5 -23.5t22.5 -60.5q0 -50 -36.5 -80.5t-108.5 -30.5v30q40 0 62.5 15.5t23.5 38.5zM203 660v-130h130v-46h-130v-331q0 -87 70 -87q38 0 75 28l12 -18q-55 -86 -154 -86q-66 0 -104 37.5t-38 117.5v339h-62v23
q101 45 171 153h30z" />
    <glyph glyph-name="Tcaron" unicode="&#x164;" horiz-adv-x="675" 
d="M510 903l-125 -156h-96l-125 156h40l133 -82l133 82h40zM29 702h617l15 -231h-32q-52 120 -81 157.5t-84 37.5h-53v-565q0 -39 17 -49t73 -17v-35h-326v35q31 4 43.5 6t26 9t17 18.5t3.5 32.5v565h-53q-29 0 -48.5 -8t-39.5 -35t-35 -57.5t-43 -94.5h-32z" />
    <glyph glyph-name="tcaron" unicode="&#x165;" horiz-adv-x="360" 
d="M383 775l-111 -197h-26l16 205h121v-8zM203 660v-130h130v-46h-130v-331q0 -87 70 -87q38 0 75 28l12 -18q-55 -86 -154 -86q-66 0 -104 37.5t-38 117.5v339h-62v23q101 45 171 153h30z" />
    <glyph glyph-name="Tbar" unicode="&#x166;" horiz-adv-x="675" 
d="M29 702h617l15 -231h-32q-52 120 -81 157.5t-84 37.5h-53v-283h113v-48h-113v-234q0 -39 17 -49t73 -17v-35h-326v35q31 4 43.5 6t26 9t17 18.5t3.5 32.5v234h-113v48h113v283h-53q-29 0 -48.5 -8t-39.5 -35t-35 -57.5t-43 -94.5h-32z" />
    <glyph glyph-name="tbar" unicode="&#x167;" horiz-adv-x="374" 
d="M209 660v-130h130v-46h-130v-109h130v-44h-130v-178q0 -87 70 -87q38 0 75 28l12 -18q-55 -86 -154 -86q-66 0 -104 37.5t-38 117.5v186h-62v44h62v109h-62v23q101 45 171 153h30z" />
    <glyph glyph-name="Utilde" unicode="&#x168;" horiz-adv-x="733" 
d="M463 747q-31 0 -75.5 29.5t-64.5 29.5q-38 0 -70 -56l-27 15q27 68 52 97t61 29q31 0 75.5 -30t64.5 -30q38 0 70 57l27 -16q-28 -68 -52 -96.5t-61 -28.5zM238 598v-344q0 -93 41 -144.5t122 -51.5q87 0 136.5 49t49.5 153v337q0 40 -16.5 52.5t-78.5 17.5v35h229v-35
q-53 -6 -66.5 -18t-13.5 -52v-355q0 -123 -74.5 -187.5t-191.5 -64.5q-136 0 -209.5 63.5t-73.5 190.5v354q0 41 -13.5 52t-66.5 17v35h306v-35q-53 -6 -66.5 -17t-13.5 -52z" />
    <glyph glyph-name="utilde" unicode="&#x169;" horiz-adv-x="601" 
d="M524 422v-316q0 -28 6.5 -37t33.5 -11l25 -2v-30l-182 -36h-25l3 96q-39 -44 -80 -70t-94 -26q-68 0 -106.5 40t-38.5 122v260q0 26 -9 38.5t-37 17.5l-16 3v30l184 38h22l-5 -119v-250q0 -97 78 -97q44 0 102 38v301q0 26 -9 38.5t-37 17.5l-15 3v30l182 38h22zM361 601
q-31 0 -72.5 30t-62.5 30q-35 0 -66 -56l-28 15q29 69 51.5 97t58.5 28q31 0 73 -29.5t62 -29.5q21 0 35.5 13t31.5 43l27 -15q-28 -70 -51 -98t-59 -28z" />
    <glyph glyph-name="Umacron" unicode="&#x16a;" horiz-adv-x="733" 
d="M253 762v68h287v-68h-287zM238 598v-344q0 -93 41 -144.5t122 -51.5q87 0 136.5 49t49.5 153v337q0 40 -16.5 52.5t-78.5 17.5v35h229v-35q-53 -6 -66.5 -18t-13.5 -52v-355q0 -123 -74.5 -187.5t-191.5 -64.5q-136 0 -209.5 63.5t-73.5 190.5v354q0 41 -13.5 52
t-66.5 17v35h306v-35q-53 -6 -66.5 -17t-13.5 -52z" />
    <glyph glyph-name="umacron" unicode="&#x16b;" horiz-adv-x="601" 
d="M524 422v-316q0 -28 6.5 -37t33.5 -11l25 -2v-30l-182 -36h-25l3 96q-39 -44 -80 -70t-94 -26q-68 0 -106.5 40t-38.5 122v260q0 26 -9 38.5t-37 17.5l-16 3v30l184 38h22l-5 -119v-250q0 -97 78 -97q44 0 102 38v301q0 26 -9 38.5t-37 17.5l-15 3v30l182 38h22zM165 624
v68h269v-68h-269z" />
    <glyph glyph-name="Ubreve" unicode="&#x16c;" horiz-adv-x="733" 
d="M397 744q-68 0 -106.5 40t-38.5 116h37q12 -79 108 -79q95 0 108 79h37q0 -75 -38.5 -115.5t-106.5 -40.5zM238 598v-344q0 -93 41 -144.5t122 -51.5q87 0 136.5 49t49.5 153v337q0 40 -16.5 52.5t-78.5 17.5v35h229v-35q-53 -6 -66.5 -18t-13.5 -52v-355
q0 -123 -74.5 -187.5t-191.5 -64.5q-136 0 -209.5 63.5t-73.5 190.5v354q0 41 -13.5 52t-66.5 17v35h306v-35q-53 -6 -66.5 -17t-13.5 -52z" />
    <glyph glyph-name="ubreve" unicode="&#x16d;" horiz-adv-x="601" 
d="M524 422v-316q0 -28 6.5 -37t33.5 -11l25 -2v-30l-182 -36h-25l3 96q-39 -44 -80 -70t-94 -26q-68 0 -106.5 40t-38.5 122v260q0 26 -9 38.5t-37 17.5l-16 3v30l184 38h22l-5 -119v-250q0 -97 78 -97q44 0 102 38v301q0 26 -9 38.5t-37 17.5l-15 3v30l182 38h22zM299 597
q-66 0 -100.5 41.5t-34.5 121.5h38q8 -85 97 -85q90 0 98 85h38q0 -79 -35 -121t-101 -42z" />
    <glyph glyph-name="Uring" unicode="&#x16e;" horiz-adv-x="733" 
d="M238 598v-344q0 -93 41 -144.5t122 -51.5q87 0 136.5 49t49.5 153v337q0 40 -16.5 52.5t-78.5 17.5v35h229v-35q-53 -6 -66.5 -18t-13.5 -52v-355q0 -123 -74.5 -187.5t-191.5 -64.5q-136 0 -209.5 63.5t-73.5 190.5v354q0 41 -13.5 52t-66.5 17v35h306v-35
q-53 -6 -66.5 -17t-13.5 -52zM346 824q0 -24 13.5 -39t38.5 -15q24 0 38 15t14 39t-14 39t-38 15q-25 0 -38.5 -15t-13.5 -39zM302 824q0 40 27.5 67t68.5 27t67.5 -27t26.5 -67t-26.5 -67t-67.5 -27t-68.5 27t-27.5 67z" />
    <glyph glyph-name="uring" unicode="&#x16f;" horiz-adv-x="601" 
d="M248 665q0 -23 13.5 -38.5t38.5 -15.5q24 0 38 15.5t14 38.5q0 25 -14 40t-38 15q-25 0 -38.5 -15t-13.5 -40zM204 665q0 40 27.5 67t68.5 27t67.5 -26.5t26.5 -67.5q0 -39 -26.5 -66t-67.5 -27t-68.5 27t-27.5 66zM524 422v-316q0 -28 6.5 -37t33.5 -11l25 -2v-30
l-182 -36h-25l3 96q-39 -44 -80 -70t-94 -26q-68 0 -106.5 40t-38.5 122v260q0 26 -9 38.5t-37 17.5l-16 3v30l184 38h22l-5 -119v-250q0 -97 78 -97q44 0 102 38v301q0 26 -9 38.5t-37 17.5l-15 3v30l182 38h22z" />
    <glyph glyph-name="Uhungarumlaut" unicode="&#x170;" horiz-adv-x="733" 
d="M238 598v-344q0 -93 41 -144.5t122 -51.5q87 0 136.5 49t49.5 153v337q0 40 -16.5 52.5t-78.5 17.5v35h229v-35q-53 -6 -66.5 -18t-13.5 -52v-355q0 -123 -74.5 -187.5t-191.5 -64.5q-136 0 -209.5 63.5t-73.5 190.5v354q0 41 -13.5 52t-66.5 17v35h306v-35
q-53 -6 -66.5 -17t-13.5 -52zM349 896h124v-7l-142 -142h-37zM511 896h124v-7l-143 -142h-36z" />
    <glyph glyph-name="uhungarumlaut" unicode="&#x171;" horiz-adv-x="601" 
d="M524 422v-316q0 -28 6.5 -37t33.5 -11l25 -2v-30l-182 -36h-25l3 96q-39 -44 -80 -70t-94 -26q-68 0 -106.5 40t-38.5 122v260q0 26 -9 38.5t-37 17.5l-16 3v30l184 38h22l-5 -119v-250q0 -97 78 -97q44 0 102 38v301q0 26 -9 38.5t-37 17.5l-15 3v30l182 38h22zM242 763
h124v-7l-144 -159h-35zM404 763h124v-7l-144 -159h-35z" />
    <glyph glyph-name="Uogonek" unicode="&#x172;" horiz-adv-x="733" 
d="M238 598v-344q0 -93 41 -144.5t122 -51.5q87 0 136.5 49t49.5 153v337q0 40 -16.5 52.5t-78.5 17.5v35h229v-35q-53 -6 -66.5 -18t-13.5 -52v-355q0 -95 -44.5 -154.5t-121.5 -83.5q-87 -44 -87 -107q0 -51 48 -51q38 0 74 29l13 -15q-59 -73 -130 -73q-39 0 -64.5 23
t-25.5 59q0 71 97 122q-4 0 -12.5 -0.5t-12.5 -0.5q-136 0 -209.5 63.5t-73.5 190.5v354q0 41 -13.5 52t-66.5 17v35h306v-35q-53 -6 -66.5 -17t-13.5 -52z" />
    <glyph glyph-name="uogonek" unicode="&#x173;" horiz-adv-x="601" 
d="M524 422v-316q0 -28 6.5 -37t33.5 -11l25 -2v-30q-128 -24 -175 -52.5t-47 -77.5q0 -50 48 -50q38 0 74 29l13 -15q-59 -73 -129 -73q-40 0 -65.5 23t-25.5 61q0 39 25 66.5t75 51.5l3 97q-39 -44 -80 -70t-94 -26q-68 0 -106.5 40t-38.5 122v260q0 26 -9 38.5t-37 17.5
l-16 3v30l184 38h22l-5 -119v-250q0 -97 78 -97q44 0 102 38v301q0 26 -9 38.5t-37 17.5l-15 3v30l182 38h22z" />
    <glyph glyph-name="Wcircumflex" unicode="&#x174;" horiz-adv-x="964" 
d="M631 -6l-137 406l-148 -406h-48l-234 636q-11 30 -59 37v35h293v-35q-39 -1 -55.5 -10.5t-16.5 -29.5q0 -12 12 -48l137 -383l97 269l-55 165q-11 31 -55 37v35h288v-35q-45 -1 -62.5 -10.5t-17.5 -32.5q0 -11 11 -51l122 -372l126 374q12 36 12 47q0 22 -18 33t-62 12
v35h198v-35q-48 -7 -58 -37l-222 -636h-48zM554 903l125 -156h-40l-133 82l-133 -82h-40l125 156h96z" />
    <glyph glyph-name="wcircumflex" unicode="&#x175;" horiz-adv-x="837" 
d="M483 765l114 -171h-43l-119 96l-119 -96h-43l114 171h96zM617 168l105 268q5 17 5 27q0 17 -14 23.5t-48 10.5v33h167v-33q-25 -7 -34.5 -14.5t-16.5 -23.5l-189 -466h-43l-120 323l-133 -323h-42l-198 466q-7 17 -16 24t-35 14v33h261v-33q-31 -4 -44 -10.5t-13 -22.5
q0 -15 6 -28l106 -275l86 214l-31 84q-6 16 -15.5 23.5t-33.5 14.5v33h254v-33q-37 -5 -50.5 -11t-13.5 -24q0 -11 4 -26z" />
    <glyph glyph-name="Ycircumflex" unicode="&#x176;" horiz-adv-x="666" 
d="M407 272v-171q0 -39 16.5 -49t72.5 -17v-35h-321v35q56 7 73 17t17 49v169l-201 360q-11 19 -23.5 26.5t-35.5 10.5v35h301v-35q-46 -1 -62 -8.5t-16 -27.5q0 -17 21 -55l139 -243l130 241q21 42 21 57q0 19 -17.5 26.5t-61.5 9.5v35h201v-35q-43 -6 -59 -37zM410 903
l125 -156h-40l-133 82l-133 -82h-40l125 156h96z" />
    <glyph glyph-name="ycircumflex" unicode="&#x177;" horiz-adv-x="563" 
d="M335 139l112 296q7 17 7 28q0 17 -13.5 23t-54.5 11v33h172v-33q-25 -7 -34.5 -14.5t-16.5 -23.5l-220 -554q-26 -65 -56 -95t-76 -30q-26 0 -48 12.5t-29 33.5v51q38 -9 68 -9q43 0 68 15t40 55l17 43l-215 478q-7 17 -16 24t-35 14v33h272v-33q-40 -5 -54 -11t-14 -23
q0 -10 6 -28zM361 765l114 -171h-43l-119 96l-119 -96h-43l114 171h96z" />
    <glyph glyph-name="Ydieresis" unicode="&#x178;" horiz-adv-x="666" 
d="M407 272v-171q0 -39 16.5 -49t72.5 -17v-35h-321v35q56 7 73 17t17 49v169l-201 360q-11 19 -23.5 26.5t-35.5 10.5v35h301v-35q-46 -1 -62 -8.5t-16 -27.5q0 -17 21 -55l139 -243l130 241q21 42 21 57q0 19 -17.5 26.5t-61.5 9.5v35h201v-35q-43 -6 -59 -37zM190 822
q0 30 21 51.5t51 21.5q31 0 52.5 -21.5t21.5 -51.5t-22 -51.5t-52 -21.5t-51 21.5t-21 51.5zM389 822q0 30 21 51.5t51 21.5q31 0 52.5 -21.5t21.5 -51.5t-21.5 -51.5t-52.5 -21.5q-30 0 -51 21.5t-21 51.5z" />
    <glyph glyph-name="Zacute" unicode="&#x179;" horiz-adv-x="607" 
d="M194 40h171q60 0 94.5 33.5t95.5 141.5h34l-35 -215h-536v26l378 636h-166q-60 0 -86 -30t-70 -131h-33l8 201h521v-26zM317 896h144v-7l-159 -142h-37z" />
    <glyph glyph-name="zacute" unicode="&#x17a;" horiz-adv-x="508" 
d="M283 763h141v-7l-161 -159h-35zM25 0v23l293 466h-119q-41 0 -68 -32.5t-57 -112.5h-32l16 217h29l15 -33h375v-25l-286 -464h128q44 0 73.5 33.5t61.5 118.5h31l-19 -191h-441z" />
    <glyph glyph-name="Zdotaccent" unicode="&#x17b;" horiz-adv-x="607" 
d="M308 749q-36 0 -58.5 23t-22.5 55q0 33 22.5 56t58.5 23q35 0 58.5 -23t23.5 -56q0 -32 -23.5 -55t-58.5 -23zM194 40h171q60 0 94.5 33.5t95.5 141.5h34l-35 -215h-536v26l378 636h-166q-60 0 -86 -30t-70 -131h-33l8 201h521v-26z" />
    <glyph glyph-name="zdotaccent" unicode="&#x17c;" horiz-adv-x="508" 
d="M25 0v23l293 466h-119q-41 0 -68 -32.5t-57 -112.5h-32l16 217h29l15 -33h375v-25l-286 -464h128q44 0 73.5 33.5t61.5 118.5h31l-19 -191h-441zM272 602q-36 0 -58.5 23t-22.5 56t22.5 56t58.5 23q35 0 58.5 -23.5t23.5 -55.5q0 -33 -23.5 -56t-58.5 -23z" />
    <glyph glyph-name="Zcaron" unicode="&#x17d;" horiz-adv-x="607" 
d="M481 903l-125 -156h-96l-125 156h40l133 -82l133 82h40zM194 40h171q60 0 94.5 33.5t95.5 141.5h34l-35 -215h-536v26l378 636h-166q-60 0 -86 -30t-70 -131h-33l8 201h521v-26z" />
    <glyph glyph-name="zcaron" unicode="&#x17e;" horiz-adv-x="508" 
d="M434 768l-114 -171h-96l-114 171h43l119 -96l119 96h43zM25 0v23l293 466h-119q-41 0 -68 -32.5t-57 -112.5h-32l16 217h29l15 -33h375v-25l-286 -464h128q44 0 73.5 33.5t61.5 118.5h31l-19 -191h-441z" />
    <glyph glyph-name="florin" unicode="&#x192;" horiz-adv-x="523" 
d="M76 334l4 35h91l7 51q18 145 71.5 218.5t150.5 73.5q55 0 86 -21t31 -60q0 -47 -50 -62h-36q0 24 -1.5 41t-5.5 35.5t-14 28t-25 9.5q-43 0 -52 -75l-30 -239h111l-4 -35h-112l-25 -206q-18 -145 -71.5 -218.5t-150.5 -73.5q-55 0 -86 21t-31 60q0 47 50 62h36
q0 -24 1.5 -41t5.5 -35.5t14 -28t25 -9.5q43 0 52 75l49 394h-91z" />
    <glyph glyph-name="Aringacute" unicode="&#x1fa;" horiz-adv-x="728" 
d="M492 118l-46 113h-269l-43 -112q-9 -23 -9 -39q0 -24 19.5 -33.5t66.5 -11.5v-35h-206v35q24 3 37.5 10.5t21.5 26.5l218 560l-31 75h156l257 -635q12 -30 59 -37v-35h-306v35q46 2 65 11.5t19 32.5q0 17 -9 39zM309 575l-116 -301h236zM240 815q0 37 27.5 61.5
t69.5 24.5t69.5 -24.5t27.5 -61.5t-27.5 -61.5t-69.5 -24.5t-69.5 24.5t-27.5 61.5zM348 1040h143v-7l-149 -113h-37zM282 815q0 -22 15 -36t40 -14t40 14t15 36t-15 36t-40 14t-40 -14t-15 -36z" />
    <glyph glyph-name="aringacute" unicode="&#x1fb;" horiz-adv-x="524" 
d="M160 645q0 37 27.5 61.5t70.5 24.5q42 0 69.5 -24.5t27.5 -61.5t-27.5 -61.5t-69.5 -24.5q-43 0 -70.5 24.5t-27.5 61.5zM267 872h144v-7l-150 -113h-37zM203 645q0 -22 15 -36t40 -14t39.5 14t14.5 36t-14.5 36t-39.5 14t-40 -14t-15 -36zM234 70q34 0 77 32v187
l-86 -35q-34 -13 -51 -34t-17 -61q0 -41 19.5 -65t57.5 -24zM449 376v-265q0 -56 33 -56q18 0 40 10l6 -22q-45 -53 -114 -53q-40 0 -66 23t-34 65q-66 -86 -156 -86q-61 0 -98 34.5t-37 94.5q0 59 35.5 91.5t101.5 57.5l151 55v85q0 98 -71 98q-67 0 -67 -84q0 -27 8 -62
l-83 -11q-44 15 -44 63q0 60 55 93t142 33q99 0 148.5 -39t49.5 -125z" />
    <glyph glyph-name="AEacute" unicode="&#x1fc;" horiz-adv-x="1021" 
d="M64 72l359 558q-17 32 -100 37v35h639l5 -180h-30q-37 84 -67.5 112t-90.5 28h-140v-278h127q33 0 47.5 21t21.5 71h36v-227h-36q-7 50 -21.5 70.5t-47.5 20.5h-127v-232q0 -39 20.5 -53.5t68.5 -14.5h63q57 0 89.5 31.5t86.5 128.5h35l-31 -200h-558v35q53 6 66.5 17
t13.5 52v143h-260l-82 -128q-16 -26 -16 -41q0 -42 93 -43v-35h-223v35q36 5 59 37zM493 651l-232 -361h232v361zM650 896h144v-7l-159 -142h-37z" />
    <glyph glyph-name="aeacute" unicode="&#x1fd;" horiz-adv-x="763" 
d="M540 540q96 0 149 -59.5t53 -152.5v-22h-320q-3 -102 42 -161.5t121 -59.5q90 0 146 81l16 -9q-19 -77 -74.5 -122t-139.5 -45q-123 0 -189 93q-76 -91 -183 -91q-63 0 -100.5 34.5t-37.5 94.5q0 59 35.5 91.5t101.5 57.5l143 50q5 25 12 47q0 64 -20 102.5t-60 38.5
q-31 0 -46.5 -23t-15.5 -61q0 -27 8 -62l-83 -11q-44 15 -44 63q0 60 54 93t136 33q102 0 143 -59q64 59 153 59zM240 70q44 0 91 34q-34 62 -34 147q0 21 1 31l-68 -26q-38 -14 -55.5 -35.5t-17.5 -61.5q0 -89 83 -89zM528 503q-90 0 -104 -160h194q0 160 -90 160zM416 763
h141v-7l-161 -159h-35z" />
    <glyph glyph-name="Oslashacute" unicode="&#x1fe;" horiz-adv-x="722" 
d="M355 -10q-103 0 -179 49l-67 -95l-33 23l67 97q-55 48 -84 119.5t-29 153.5q0 169 95.5 272t241.5 103q108 0 189 -58l63 90l33 -24l-64 -91q104 -99 104 -264q0 -169 -95.5 -272t-241.5 -103zM186 357q0 -109 28 -192l281 401q-48 105 -139 105q-56 0 -95.5 -45.5
t-57 -115t-17.5 -153.5zM365 31q83 0 126.5 91t43.5 223q0 95 -23 175l-279 -399q47 -90 132 -90zM374 896h144v-7l-159 -142h-37z" />
    <glyph glyph-name="oslashacute" unicode="&#x1ff;" horiz-adv-x="561" 
d="M279 -10q-81 0 -140 35l-52 -77l-30 20l53 78q-88 72 -88 207q0 127 73.5 207t186.5 80q78 0 139 -36l53 77l30 -20l-53 -78q88 -75 88 -207q0 -126 -73.5 -206t-186.5 -80zM169 288q0 -79 13 -137l184 271q-31 81 -89 81q-54 0 -81 -57t-27 -158zM284 26q54 0 80.5 57
t26.5 159q0 76 -12 135l-185 -271q30 -80 90 -80zM292 763h141v-7l-161 -159h-35z" />
    <glyph glyph-name="Scommaaccent" unicode="&#x218;" horiz-adv-x="550" 
d="M289 -152h-51q-44 11 -44 54q0 25 19.5 41t51.5 16q38 0 60.5 -23.5t22.5 -60.5q0 -50 -36.5 -80.5t-108.5 -30.5v30q40 0 62.5 15.5t23.5 38.5zM261 -10q-69 0 -128 18.5t-94 47.5l-9 171h42q19 -92 67 -144.5t122 -52.5q61 0 96.5 30.5t35.5 82.5q0 54 -35 84.5
t-128 64.5q-97 34 -145.5 82t-48.5 131q0 92 64 149.5t169 57.5q128 0 208 -59v-149h-37q-14 81 -57.5 124.5t-113.5 43.5q-52 0 -83 -29t-31 -77q0 -51 31 -79.5t114 -58.5q111 -40 163 -89t52 -137q0 -101 -72 -156.5t-182 -55.5z" />
    <glyph glyph-name="scommaaccent" unicode="&#x219;" horiz-adv-x="455" 
d="M248 -152h-51q-44 11 -44 54q0 25 19.5 41t51.5 16q38 0 60.5 -23.5t22.5 -60.5q0 -50 -36.5 -80.5t-108.5 -30.5v30q40 0 62.5 15.5t23.5 38.5zM220 -10q-112 0 -180 50l-6 137h37q17 -69 56 -110.5t94 -41.5q42 0 68.5 20.5t26.5 60.5q0 38 -26 59t-90 44
q-85 29 -123.5 67t-38.5 105q0 74 51 116.5t135 42.5q95 0 163 -44v-121h-34q-13 58 -45.5 94t-83.5 36q-38 0 -59.5 -20t-21.5 -53t24 -53.5t84 -42.5q89 -31 130.5 -69.5t41.5 -107.5q0 -79 -55 -124t-148 -45z" />
    <glyph glyph-name="uni0237" unicode="&#x237;" horiz-adv-x="273" 
d="M71 431l-60 35v19l176 55h22v-445q0 -72 -11 -110.5t-37 -74.5q-51 -65 -149 -128l-15 16l41 68q22 36 27.5 78t5.5 114v373z" />
    <glyph glyph-name="circumflex" unicode="&#x2c6;" 
d="M298 765l114 -171h-43l-119 96l-119 -96h-43l114 171h96z" />
    <glyph glyph-name="caron" unicode="&#x2c7;" 
d="M412 768l-114 -171h-96l-114 171h43l119 -96l119 96h43z" />
    <glyph glyph-name="breve" unicode="&#x2d8;" 
d="M253 597q-66 0 -100.5 41.5t-34.5 121.5h38q8 -85 97 -85q90 0 98 85h38q0 -79 -35 -121t-101 -42z" />
    <glyph glyph-name="dotaccent" unicode="&#x2d9;" 
d="M250 602q-36 0 -58.5 23t-22.5 56t22.5 56t58.5 23q35 0 58.5 -23.5t23.5 -55.5q0 -33 -23.5 -56t-58.5 -23z" />
    <glyph glyph-name="ring" unicode="&#x2da;" 
d="M203 665q0 -23 13.5 -38.5t38.5 -15.5q24 0 38 15.5t14 38.5q0 25 -14 40t-38 15q-25 0 -38.5 -15t-13.5 -40zM159 665q0 40 27.5 67t68.5 27t67.5 -26.5t26.5 -67.5q0 -39 -26.5 -66t-67.5 -27t-68.5 27t-27.5 66z" />
    <glyph glyph-name="ogonek" unicode="&#x2db;" 
d="M326 28l7 -15q-107 -47 -107 -116q0 -51 48 -51q38 0 74 29l13 -15q-59 -73 -130 -73q-39 0 -64.5 23t-25.5 59q0 30 15 54.5t44 44t57 32.5t69 28z" />
    <glyph glyph-name="tilde" unicode="&#x2dc;" 
d="M312 601q-31 0 -72.5 30t-62.5 30q-35 0 -66 -56l-28 15q29 69 51.5 97t58.5 28q31 0 73 -29.5t62 -29.5q21 0 35.5 13t31.5 43l27 -15q-28 -70 -51 -98t-59 -28z" />
    <glyph glyph-name="hungarumlaut" unicode="&#x2dd;" 
d="M140 763h124v-7l-144 -159h-35zM302 763h124v-7l-144 -159h-35z" />
    <glyph glyph-name="pi" unicode="&#x3c0;" horiz-adv-x="590" 
d="M341 165l31 277h-162q0 -152 -8.5 -247.5t-31.5 -194.5h-139v26q110 196 110 416h-117v96h533l-17 -96h-80v-323q0 -63 52 -63q25 0 46 6l5 -19q-55 -53 -118 -53q-108 0 -108 114q0 24 4 61z" />
    <glyph glyph-name="Wgrave" unicode="&#x1e80;" horiz-adv-x="964" 
d="M631 -6l-137 406l-148 -406h-48l-234 636q-11 30 -59 37v35h293v-35q-39 -1 -55.5 -10.5t-16.5 -29.5q0 -12 12 -48l137 -383l97 269l-55 165q-11 31 -55 37v35h288v-35q-45 -1 -62.5 -10.5t-17.5 -32.5q0 -11 11 -51l122 -372l126 374q12 36 12 47q0 22 -18 33t-62 12
v35h198v-35q-48 -7 -58 -37l-222 -636h-48zM356 896h144l52 -149h-37l-159 142v7z" />
    <glyph glyph-name="wgrave" unicode="&#x1e81;" horiz-adv-x="837" 
d="M617 168l105 268q5 17 5 27q0 17 -14 23.5t-48 10.5v33h167v-33q-25 -7 -34.5 -14.5t-16.5 -23.5l-189 -466h-43l-120 323l-133 -323h-42l-198 466q-7 17 -16 24t-35 14v33h261v-33q-31 -4 -44 -10.5t-13 -22.5q0 -15 6 -28l106 -275l86 214l-31 84q-6 16 -15.5 23.5
t-33.5 14.5v33h254v-33q-37 -5 -50.5 -11t-13.5 -24q0 -11 4 -26zM287 763h141l55 -166h-35l-161 159v7z" />
    <glyph glyph-name="Wacute" unicode="&#x1e82;" horiz-adv-x="964" 
d="M631 -6l-137 406l-148 -406h-48l-234 636q-11 30 -59 37v35h293v-35q-39 -1 -55.5 -10.5t-16.5 -29.5q0 -12 12 -48l137 -383l97 269l-55 165q-11 31 -55 37v35h288v-35q-45 -1 -62.5 -10.5t-17.5 -32.5q0 -11 11 -51l122 -372l126 374q12 36 12 47q0 22 -18 33t-62 12
v35h198v-35q-48 -7 -58 -37l-222 -636h-48zM515 896h144v-7l-159 -142h-37z" />
    <glyph glyph-name="wacute" unicode="&#x1e83;" horiz-adv-x="837" 
d="M446 763h141v-7l-161 -159h-35zM617 168l105 268q5 17 5 27q0 17 -14 23.5t-48 10.5v33h167v-33q-25 -7 -34.5 -14.5t-16.5 -23.5l-189 -466h-43l-120 323l-133 -323h-42l-198 466q-7 17 -16 24t-35 14v33h261v-33q-31 -4 -44 -10.5t-13 -22.5q0 -15 6 -28l106 -275
l86 214l-31 84q-6 16 -15.5 23.5t-33.5 14.5v33h254v-33q-37 -5 -50.5 -11t-13.5 -24q0 -11 4 -26z" />
    <glyph glyph-name="Wdieresis" unicode="&#x1e84;" horiz-adv-x="964" 
d="M631 -6l-137 406l-148 -406h-48l-234 636q-11 30 -59 37v35h293v-35q-39 -1 -55.5 -10.5t-16.5 -29.5q0 -12 12 -48l137 -383l97 269l-55 165q-11 31 -55 37v35h288v-35q-45 -1 -62.5 -10.5t-17.5 -32.5q0 -11 11 -51l122 -372l126 374q12 36 12 47q0 22 -18 33t-62 12
v35h198v-35q-48 -7 -58 -37l-222 -636h-48zM533 822q0 30 21 51.5t51 21.5q31 0 52.5 -21.5t21.5 -51.5t-21.5 -51.5t-52.5 -21.5q-30 0 -51 21.5t-21 51.5zM334 822q0 30 21 51.5t51 21.5q31 0 52.5 -21.5t21.5 -51.5t-22 -51.5t-52 -21.5t-51 21.5t-21 51.5z" />
    <glyph glyph-name="wdieresis" unicode="&#x1e85;" horiz-adv-x="837" 
d="M265 679q0 30 21.5 51.5t51.5 21.5q31 0 52.5 -21.5t21.5 -51.5t-21.5 -51.5t-52.5 -21.5q-30 0 -51.5 21.5t-21.5 51.5zM459 679q0 30 21.5 51.5t50.5 21.5q31 0 52.5 -21.5t21.5 -51.5t-21.5 -51.5t-52.5 -21.5q-29 0 -50.5 21.5t-21.5 51.5zM617 168l105 268
q5 17 5 27q0 17 -14 23.5t-48 10.5v33h167v-33q-25 -7 -34.5 -14.5t-16.5 -23.5l-189 -466h-43l-120 323l-133 -323h-42l-198 466q-7 17 -16 24t-35 14v33h261v-33q-31 -4 -44 -10.5t-13 -22.5q0 -15 6 -28l106 -275l86 214l-31 84q-6 16 -15.5 23.5t-33.5 14.5v33h254v-33
q-37 -5 -50.5 -11t-13.5 -24q0 -11 4 -26z" />
    <glyph glyph-name="Ygrave" unicode="&#x1ef2;" horiz-adv-x="666" 
d="M407 272v-171q0 -39 16.5 -49t72.5 -17v-35h-321v35q56 7 73 17t17 49v169l-201 360q-11 19 -23.5 26.5t-35.5 10.5v35h301v-35q-46 -1 -62 -8.5t-16 -27.5q0 -17 21 -55l139 -243l130 241q21 42 21 57q0 19 -17.5 26.5t-61.5 9.5v35h201v-35q-43 -6 -59 -37zM212 896
h144l52 -149h-37l-159 142v7z" />
    <glyph glyph-name="ygrave" unicode="&#x1ef3;" horiz-adv-x="563" 
d="M335 139l112 296q7 17 7 28q0 17 -13.5 23t-54.5 11v33h172v-33q-25 -7 -34.5 -14.5t-16.5 -23.5l-220 -554q-26 -65 -56 -95t-76 -30q-26 0 -48 12.5t-29 33.5v51q38 -9 68 -9q43 0 68 15t40 55l17 43l-215 478q-7 17 -16 24t-35 14v33h272v-33q-40 -5 -54 -11t-14 -23
q0 -10 6 -28zM165 763h141l55 -166h-35l-161 159v7z" />
    <glyph glyph-name="endash" unicode="&#x2013;" horiz-adv-x="540" 
d="M510 278h-480v48h480v-48z" />
    <glyph glyph-name="emdash" unicode="&#x2014;" horiz-adv-x="960" 
d="M930 326v-48h-900v48h900z" />
    <glyph glyph-name="quoteleft" unicode="&#x2018;" horiz-adv-x="240" 
d="M109 641h39q59 -13 59 -72q0 -34 -23 -55t-57 -21q-40 0 -63.5 29t-23.5 75q0 69 44 111t126 47v-33q-94 -13 -101 -81z" />
    <glyph glyph-name="quoteright" unicode="&#x2019;" horiz-adv-x="240" 
d="M135 602h-39q-59 13 -59 72q0 34 23 55t57 21q40 0 63.5 -29t23.5 -75q0 -69 -44.5 -111.5t-125.5 -46.5v32q94 14 101 82z" />
    <glyph glyph-name="quotesinglbase" unicode="&#x201a;" horiz-adv-x="240" 
d="M135 0h-39q-59 14 -59 72q0 35 22.5 55.5t57.5 20.5q40 0 63.5 -29t23.5 -75q0 -69 -44 -111t-126 -47v33q94 14 101 81z" />
    <glyph glyph-name="quotedblleft" unicode="&#x201c;" horiz-adv-x="434" 
d="M303 641h38q60 -12 60 -72q0 -34 -23 -55t-57 -21q-40 0 -63.5 29t-23.5 75q0 69 44 111t125 47v-33q-93 -12 -100 -81zM109 641h39q59 -13 59 -72q0 -34 -23 -55t-57 -21q-40 0 -63.5 29t-23.5 75q0 69 44 111t126 47v-33q-94 -13 -101 -81z" />
    <glyph glyph-name="quotedblright" unicode="&#x201d;" horiz-adv-x="434" 
d="M135 602h-39q-59 13 -59 72q0 34 23 55t57 21q40 0 63.5 -29t23.5 -75q0 -69 -44.5 -111.5t-125.5 -46.5v32q94 14 101 82zM329 602h-39q-60 12 -60 72q0 34 23 55t57 21q41 0 64.5 -29t23.5 -75q0 -69 -44.5 -111.5t-125.5 -46.5v32q92 14 101 82z" />
    <glyph glyph-name="quotedblbase" unicode="&#x201e;" horiz-adv-x="434" 
d="M135 0h-39q-59 14 -59 72q0 35 22.5 55.5t57.5 20.5q40 0 63.5 -29t23.5 -75q0 -69 -44 -111t-126 -47v33q94 14 101 81zM329 0h-39q-60 14 -60 72q0 34 23 55t57 21q41 0 64.5 -29t23.5 -75q0 -69 -44 -111t-126 -47v33q92 14 101 81z" />
    <glyph glyph-name="dagger" unicode="&#x2020;" horiz-adv-x="365" 
d="M192 587q0 -31 14 -56.5t34 -36.5v-8q-19 -29 -33.5 -118.5t-17.5 -195.5h-13q-3 106 -17.5 195.5t-33.5 118.5v8q20 11 34.5 36.5t14.5 56.5q-25 0 -59.5 -17t-52.5 -17t-30 11.5t-12 30.5q0 20 12 31.5t30 11.5t52.5 -17t59.5 -17q0 25 -17 59.5t-17 52.5t11.5 30
t31.5 12q19 0 30.5 -12t11.5 -30t-16.5 -52.5t-16.5 -59.5q24 0 59 17t53 17t29.5 -11.5t11.5 -31.5q0 -19 -11.5 -30.5t-29.5 -11.5t-53 17t-59 17z" />
    <glyph glyph-name="daggerdbl" unicode="&#x2021;" horiz-adv-x="374" 
d="M179 466q0 18 -14 33.5t-36 19.5v8q49 26 49 78q-25 0 -59.5 -17t-52.5 -17t-30 11.5t-12 31.5q0 19 12 30.5t30 11.5t52.5 -17t59.5 -17q0 25 -17 50.5t-17 43.5t11.5 30t31.5 12t31.5 -12t11.5 -30t-17 -43.5t-17 -50.5q25 0 59.5 17t52.5 17t30 -11.5t12 -30.5
q0 -20 -12 -31.5t-30 -11.5t-52.5 17t-59.5 17q0 -51 48 -78v-8q-22 -4 -35.5 -19.5t-13.5 -33.5q0 -19 13.5 -34.5t35.5 -18.5v-9q-48 -27 -48 -78q25 0 59.5 17t52.5 17t30 -11.5t12 -30.5q0 -20 -12 -31.5t-30 -11.5t-52.5 17t-59.5 17q0 -25 17 -50.5t17 -43.5
t-11.5 -30t-31.5 -12t-31.5 12t-11.5 30t17 43.5t17 50.5q-25 0 -59.5 -17t-52.5 -17t-30 11.5t-12 31.5q0 19 12 30.5t30 11.5t52.5 -17t59.5 -17q0 52 -49 78v9q22 3 36 18.5t14 34.5z" />
    <glyph glyph-name="bullet" unicode="&#x2022;" horiz-adv-x="337" 
d="M30 304q0 58 41 99t97 41q58 0 98.5 -41t40.5 -99q0 -57 -40.5 -98t-98.5 -41q-56 0 -97 41t-41 98z" />
    <glyph glyph-name="ellipsis" unicode="&#x2026;" horiz-adv-x="700" 
d="M30 77q0 37 25.5 62t61.5 25t61 -25t25 -62t-25 -62t-61 -25t-61.5 25t-25.5 62zM263 77q0 37 25.5 62t61.5 25t61.5 -25t25.5 -62t-25.5 -62t-61.5 -25t-61.5 25t-25.5 62zM497 77q0 37 25 62t61 25t61.5 -25t25.5 -62t-25.5 -62t-61.5 -25t-61 25t-25 62z" />
    <glyph glyph-name="perthousand" unicode="&#x2030;" horiz-adv-x="1136" 
d="M735 160q0 -79 -49 -124.5t-119 -45.5t-118.5 46t-48.5 124t48.5 124t118.5 46t119 -45.5t49 -124.5zM141 -10l439 722h46l-439 -722h-46zM32 542q0 79 49 124.5t119 45.5t119 -45.5t49 -124.5t-49 -124.5t-119 -45.5t-119 45.5t-49 124.5zM643 160q0 62 -18.5 101
t-57.5 39t-57 -39t-18 -101q0 -139 75 -139q39 0 57.5 38.5t18.5 100.5zM125 542q0 -62 18 -101t57 -39t57 39t18 101q0 139 -75 139t-75 -139zM1011 160q0 62 -18.5 101t-57.5 39q-38 0 -56 -39t-18 -101q0 -139 74 -139q39 0 57.5 38.5t18.5 100.5zM1104 160
q0 -78 -49.5 -124t-119.5 -46t-118.5 46t-48.5 124t48.5 124t118.5 46t119.5 -46t49.5 -124z" />
    <glyph glyph-name="guilsinglleft" unicode="&#x2039;" horiz-adv-x="283" 
d="M29 272v6l188 196h38l-107 -199l107 -199h-38z" />
    <glyph glyph-name="guilsinglright" unicode="&#x203a;" horiz-adv-x="283" 
d="M255 278v-6l-189 -196h-37l107 199l-107 199h37z" />
    <glyph glyph-name="fraction" unicode="&#x2044;" horiz-adv-x="283" 
d="M-101 -10l438 722h47l-439 -722h-46z" />
    <glyph glyph-name="Euro" unicode="&#x20ac;" horiz-adv-x="658" 
d="M16 395v38h89q22 129 103.5 204t197.5 75q121 0 198 -61v-159h-38q-36 182 -154 182q-70 0 -111 -68.5t-52 -172.5h229l-12 -38h-219q-1 -11 -1 -31q0 -33 1 -48h196l-12 -38h-182q23 -248 170 -248q68 0 106.5 47t69.5 147h37l-16 -180q-91 -54 -204 -54
q-136 0 -216.5 77t-95.5 211h-84v38h81v23q0 29 3 56h-84z" />
    <glyph glyph-name="uni2117" unicode="&#x2117;" horiz-adv-x="788" 
d="M424 313h-50v-95q0 -23 13.5 -30t50.5 -9v-25h-201v25q29 1 38.5 8t9.5 31v269q0 24 -9.5 31t-38.5 8v25h187q76 0 115 -33.5t39 -83.5q0 -56 -38.5 -88.5t-115.5 -32.5zM374 521v-180h31q42 0 64 24.5t22 67.5q0 38 -23 63t-66 25h-28zM66 351q0 -140 92.5 -236.5
t235.5 -96.5q142 0 235 97t93 236t-93 236t-235 97q-143 0 -235.5 -96.5t-92.5 -236.5zM36 351q0 151 101.5 256t256.5 105t256.5 -105t101.5 -256t-101.5 -256t-256.5 -105t-256.5 105t-101.5 256z" />
    <glyph glyph-name="trademark" unicode="&#x2122;" horiz-adv-x="857" 
d="M348 702l7 -106h-21q-19 44 -35 63t-45 19h-18v-253q0 -18 11 -24t36 -8v-23h-174v23q25 2 35.5 8t10.5 24v253h-18q-29 0 -45 -19t-34 -63h-22l7 106h305zM587 481l71 190q6 23 7 31h113v-24q-40 -2 -40 -39l29 -219q2 -15 11 -20t30 -7v-23h-164v23q26 2 36 7.5
t10 20.5q0 6 -4 36l-21 154l-88 -243h-27l-95 243l-20 -154q-3 -22 -3 -36q0 -15 9.5 -20.5t35.5 -7.5v-23h-118v23q36 3 39 27l30 219q-2 36 -40 39v24h117q3 -17 8 -30z" />
    <glyph glyph-name="Omega" unicode="&#x2126;" horiz-adv-x="713" 
d="M356 678q-42 0 -72 -23.5t-46 -64.5t-23.5 -87.5t-7.5 -101.5q0 -206 112 -323v-78h-254l-25 184h26q36 -67 58.5 -82t89.5 -15h65q-85 34 -150.5 121.5t-65.5 192.5q0 136 79.5 223.5t213.5 87.5q135 0 214.5 -87.5t79.5 -223.5q0 -105 -65.5 -192.5t-150.5 -121.5h65
q67 0 89 15t58 82h27l-25 -184h-254v78q112 119 112 323q0 55 -7.5 101.5t-23.5 87.5t-46.5 64.5t-72.5 23.5z" />
    <glyph glyph-name="uni2153" unicode="&#x2153;" horiz-adv-x="780" 
d="M188 712h26v-335q0 -25 14 -31.5t62 -9.5v-29h-250v29q50 3 63.5 9.5t13.5 31.5v232h-77v24l25 5q44 9 71 25.5t52 48.5zM149 -10l438 722h46l-438 -722h-46zM614 222q59 -3 92.5 -32.5t33.5 -78.5q0 -56 -45.5 -88t-112.5 -32q-66 0 -102 24.5t-36 60.5q0 29 27 44h56
q-4 -15 -4 -27q0 -76 64 -76q30 0 46.5 21t16.5 59q0 87 -97 87h-14l-5 19q47 16 67.5 35t20.5 48q0 23 -14.5 38t-42.5 15q-52 0 -82 -49l-22 15q20 43 58 70.5t91 27.5q51 0 78.5 -23.5t27.5 -63.5q0 -71 -102 -94z" />
    <glyph glyph-name="uni2154" unicode="&#x2154;" horiz-adv-x="822" 
d="M190 -10l438 722h47l-439 -722h-46zM656 222q59 -3 92.5 -32.5t33.5 -78.5q0 -56 -46 -88t-113 -32q-66 0 -101.5 24.5t-35.5 60.5q0 30 26 44h57q-5 -14 -5 -27q0 -76 65 -76q30 0 46.5 21t16.5 59q0 87 -97 87h-14l-5 19q47 16 67.5 35t20.5 48q0 23 -14.5 38t-42.5 15
q-51 0 -83 -49l-22 15q20 43 58.5 70.5t91.5 27.5q51 0 78.5 -23.5t27.5 -63.5q0 -71 -102 -94zM135 386h106q29 0 42.5 8.5t32.5 41.5h18l-12 -131h-292v20l109 103q45 44 63 75.5t18 67.5q0 34 -18 52.5t-52 18.5q-53 0 -94 -47l-17 14q23 44 62 72.5t93 28.5
q56 0 87.5 -30.5t31.5 -83.5q0 -12 -3 -24.5t-6 -22.5t-11.5 -22t-13.5 -20t-19 -20.5t-20 -19t-24 -20.5t-24.5 -19t-28 -21t-28.5 -21z" />
    <glyph glyph-name="uni215B" unicode="&#x215b;" horiz-adv-x="810" 
d="M188 712h28v-335q0 -25 14.5 -31.5t62.5 -9.5v-29h-253v29q50 3 63.5 9.5t13.5 31.5v232h-77v24l25 5q44 9 71 25.5t52 48.5zM149 -10l438 722h46l-438 -722h-46zM752 312q0 -33 -26 -55.5t-61 -28.5q102 -41 102 -118q0 -58 -44 -89t-109 -31q-68 0 -112 27t-44 74
q0 34 26 57.5t67 32.5q-79 37 -79 105q0 53 39.5 86t101.5 33q63 0 101 -25t38 -68zM636 142l-68 32q-37 -27 -37 -75q0 -36 24 -58t61 -22q33 0 53.5 16t20.5 42q0 24 -13.5 38t-40.5 27zM596 258l51 -22q34 24 34 71q0 32 -18.5 51t-50.5 19q-29 0 -46 -16t-17 -40
q0 -40 47 -63z" />
    <glyph glyph-name="uni215C" unicode="&#x215c;" horiz-adv-x="825" 
d="M767 312q0 -33 -26 -55.5t-61 -28.5q102 -41 102 -118q0 -58 -44 -89t-109 -31q-68 0 -112 27t-44 74q0 34 26 57.5t67 32.5q-79 37 -79 105q0 53 39.5 86t101.5 33q63 0 101 -25t38 -68zM651 142l-68 32q-37 -27 -37 -75q0 -36 24 -58t61 -22q33 0 53.5 16t20.5 42
q0 24 -13.5 38t-40.5 27zM611 258l51 -22q34 24 34 71q0 32 -18.5 51t-50.5 19q-29 0 -46 -16t-17 -40q0 -40 47 -63zM164 -10l438 722h46l-438 -722h-46zM207 530q58 -2 92 -32t34 -78q0 -56 -45.5 -88t-112.5 -32q-66 0 -102 24t-36 60q0 32 26 44h57q-4 -13 -4 -27
q0 -76 64 -76q30 0 47.5 21t17.5 60q0 86 -98 86h-15l-5 19q48 17 69.5 36t21.5 46q0 24 -15.5 39.5t-44.5 15.5q-52 0 -82 -49l-22 14q46 99 149 99q51 0 78.5 -24t27.5 -64q0 -69 -102 -94z" />
    <glyph glyph-name="uni215D" unicode="&#x215d;" horiz-adv-x="819" 
d="M158 -10l438 722h47l-439 -722h-46zM318 725l-21 -109h-172l-9 -50q207 -5 207 -139q0 -59 -39.5 -93.5t-103.5 -34.5q-65 0 -103 24t-38 60q0 15 8.5 27.5t20.5 17.5h54q-5 -12 -5 -27q0 -76 68 -76q32 0 49.5 19.5t17.5 51.5q0 97 -178 98l36 208h140q20 0 28.5 4
t15.5 19h24zM761 312q0 -33 -26 -55.5t-61 -28.5q102 -41 102 -118q0 -58 -43.5 -89t-108.5 -31q-68 0 -112 27t-44 74q0 34 25.5 57.5t66.5 32.5q-78 37 -78 105q0 53 39 86t102 33t100.5 -25t37.5 -68zM646 142l-69 32q-36 -27 -36 -75q0 -36 24 -58t60 -22q33 0 53.5 16
t20.5 42q0 24 -13 38t-40 27zM606 258l50 -22q34 24 34 71q0 32 -18.5 51t-50.5 19q-29 0 -45.5 -16t-16.5 -40q0 -40 47 -63z" />
    <glyph glyph-name="uni215E" unicode="&#x215e;" horiz-adv-x="756" 
d="M281 610h-154q-21 0 -34.5 -14.5t-25.5 -47.5h-31l30 154h290v-21l-196 -380h-68zM95 -10l438 722h47l-439 -722h-46zM698 312q0 -33 -26 -55.5t-61 -28.5q102 -41 102 -118q0 -58 -43.5 -89t-108.5 -31q-68 0 -112 27t-44 74q0 34 25.5 57.5t66.5 32.5q-78 37 -78 105
q0 53 39 86t102 33t100.5 -25t37.5 -68zM583 142l-69 32q-36 -27 -36 -75q0 -36 24 -58t60 -22q33 0 53.5 16t20.5 42q0 24 -13 38t-40 27zM543 258l51 -22q33 25 33 71q0 32 -18.5 51t-50.5 19q-28 0 -45 -16.5t-17 -39.5q0 -40 47 -63z" />
    <glyph glyph-name="partialdiff" unicode="&#x2202;" horiz-adv-x="560" 
d="M268 539q70 0 107 -51q-28 89 -94.5 163.5t-170.5 105.5l16 28q138 -28 233 -101.5t137 -167t42 -202.5q0 -147 -69.5 -235.5t-188.5 -88.5q-116 0 -187 74.5t-71 193.5q0 125 73 203t173 78zM284 26q54 0 80.5 57t26.5 159q0 118 -28.5 189.5t-85.5 71.5q-54 0 -81 -57
t-27 -158q0 -118 29 -190t86 -72z" />
    <glyph glyph-name="Delta" unicode="&#x2206;" horiz-adv-x="647" 
d="M633 0h-619v35l284 667h46l289 -667v-35zM275 534l-206 -490h410z" />
    <glyph glyph-name="product" unicode="&#x220f;" horiz-adv-x="771" 
d="M522 662h-273v-755q0 -41 13.5 -52t66.5 -17v-35h-306v35q53 6 66.5 17t13.5 52v691q0 41 -13.5 52t-66.5 17v35h726v-35q-54 -6 -67 -17t-13 -52v-691q0 -41 13 -52t67 -17v-35h-307v35q53 6 66.5 17t13.5 52v755z" />
    <glyph glyph-name="summation" unicode="&#x2211;" horiz-adv-x="569" 
d="M115 -80h231q73 0 104.5 16.5t73.5 86.5h31l-37 -220h-514v37l289 384l-277 435v43h512v-178h-28q-35 79 -64 109t-89 30h-174l229 -358v-9z" />
    <glyph glyph-name="minus" unicode="&#x2212;" horiz-adv-x="569" 
d="M64 340v60h441v-60h-441z" />
    <glyph glyph-name="radical" unicode="&#x221a;" horiz-adv-x="584" 
d="M329 185l197 527h49l-269 -712h-61l-137 445q-9 31 -21.5 42.5t-40.5 12.5l-26 1v37h211z" />
    <glyph glyph-name="infinity" unicode="&#x221e;" horiz-adv-x="745" 
d="M345 350l-43 51q-49 56 -105 56q-43 0 -71.5 -29t-28.5 -78t28.5 -78t71.5 -29q57 0 105 56zM372 309l-35 -42q-63 -71 -143 -71q-64 0 -107.5 41.5t-43.5 112.5t44 113t107 42q81 0 143 -72l35 -42l36 42q62 72 143 72q63 0 107 -42t44 -113t-43.5 -112.5t-107.5 -41.5
q-80 0 -143 71zM446 401l-44 -51l44 -51q48 -56 105 -56q43 0 71.5 29t28.5 78t-28.5 78t-71.5 29q-56 0 -105 -56z" />
    <glyph glyph-name="integral" unicode="&#x222b;" horiz-adv-x="419" 
d="M242 590v-568q0 -110 -50 -164t-137 -54q-59 0 -94 22.5t-35 63.5q0 35 33 57h68v-50q0 -62 37 -62q45 0 45 91v568q0 110 50 164t137 54q59 0 94 -22.5t35 -63.5q0 -35 -33 -57h-68v50q0 62 -37 62q-45 0 -45 -91z" />
    <glyph glyph-name="approxequal" unicode="&#x2248;" horiz-adv-x="579" 
d="M69 392v61q62 41 119 41q39 0 101.5 -20t99.5 -20q61 0 121 41v-61q-60 -41 -121 -41q-37 0 -99.5 20t-101.5 20q-57 0 -119 -41zM69 252v60q61 40 119 40q39 0 101.5 -19t99.5 -19q62 0 121 39v-61q-59 -39 -121 -39q-37 0 -99.5 19t-101.5 19q-58 0 -119 -39z" />
    <glyph glyph-name="notequal" unicode="&#x2260;" horiz-adv-x="579" 
d="M69 413v58h264l79 106h65l-79 -106h112v-58h-155l-64 -86h219v-57h-262l-79 -107h-65l79 107h-114v57h157l64 86h-221z" />
    <glyph glyph-name="lessequal" unicode="&#x2264;" horiz-adv-x="439" 
d="M52 400v9l313 168v-67l-201 -105l201 -106v-67zM52 137v60h313v-60h-313z" />
    <glyph glyph-name="greaterequal" unicode="&#x2265;" horiz-adv-x="439" 
d="M388 409v-9l-314 -168v67l202 106l-202 105v67zM388 197v-60h-314v60h314z" />
    <glyph glyph-name="lozenge" unicode="&#x25ca;" horiz-adv-x="547" 
d="M33 351l202 351h76l203 -351l-203 -351h-76zM452 351l-179 311l-179 -311l179 -311z" />
    <glyph glyph-name="i.dot" horiz-adv-x="300" 
d="M222 540v-463q0 -25 13 -33.5t50 -10.5v-33h-264v33q37 2 50 10.5t13 33.5v354l-60 35v19l176 55h22zM155 602q-36 0 -58.5 23t-22.5 56t22.5 56t58.5 23q35 0 58.5 -23.5t23.5 -55.5q0 -33 -23.5 -56t-58.5 -23z" />
    <glyph glyph-name="space_uni0326" 
d="M264 -152h-51q-44 11 -44 54q0 25 19.5 41t51.5 16q38 0 60.5 -23.5t22.5 -60.5q0 -50 -36.5 -80.5t-108.5 -30.5v30q40 0 62.5 15.5t23.5 38.5z" />
    <glyph glyph-name="space_uni0326.alt" 
d="M228 711h50q45 -11 45 -54q0 -26 -19.5 -42t-51.5 -16q-38 0 -60.5 24t-22.5 61q0 50 36 80t109 30v-29q-40 0 -62.5 -15.5t-23.5 -38.5z" />
    <glyph glyph-name="space_dotbelowcomb" 
d="M250 -191q-34 0 -57 22.5t-23 54.5t22.5 55t57.5 23t57.5 -23t22.5 -55t-22.5 -54.5t-57.5 -22.5z" />
    <glyph glyph-name="caron.Slovak" 
d="M329 775l-111 -197h-26l16 205h121v-8z" />
    <glyph glyph-name="cedilla.alt" 
d="M157 -226l-7 31q52 0 81.5 14t29.5 36q0 37 -83 40l25 61h26q52 0 80.5 -20t28.5 -58q0 -51 -50.5 -77.5t-130.5 -26.5z" />
    <glyph glyph-name="grave.cap" 
d="M146 896h144l52 -149h-37l-159 142v7z" />
    <glyph glyph-name="acute.cap" 
d="M198 896h144v-7l-159 -142h-37z" />
    <glyph glyph-name="circumflex.cap" 
d="M298 903l125 -156h-40l-133 82l-133 -82h-40l125 156h96z" />
    <glyph glyph-name="tilde.cap" 
d="M309 747q-31 0 -75.5 29.5t-64.5 29.5q-38 0 -70 -56l-27 15q27 68 52 97t61 29q31 0 75.5 -30t64.5 -30q38 0 70 57l27 -16q-28 -68 -52 -96.5t-61 -28.5z" />
    <glyph glyph-name="macron.cap" 
d="M109 762v68h287v-68h-287z" />
    <glyph glyph-name="breve.cap" 
d="M254 744q-68 0 -106.5 40t-38.5 116h37q12 -79 108 -79q95 0 108 79h37q0 -75 -38.5 -115.5t-106.5 -40.5z" />
    <glyph glyph-name="dotaccent.cap" 
d="M250 749q-36 0 -58.5 23t-22.5 55q0 33 22.5 56t58.5 23q35 0 58.5 -23t23.5 -56q0 -32 -23.5 -55t-58.5 -23z" />
    <glyph glyph-name="dieresis.cap" 
d="M80 822q0 30 21 51.5t51 21.5q31 0 52.5 -21.5t21.5 -51.5t-22 -51.5t-52 -21.5t-51 21.5t-21 51.5zM279 822q0 30 21 51.5t51 21.5q31 0 52.5 -21.5t21.5 -51.5t-21.5 -51.5t-52.5 -21.5q-30 0 -51 21.5t-21 51.5z" />
    <glyph glyph-name="ring.cap" 
d="M203 824q0 -24 13.5 -39t38.5 -15q24 0 38 15t14 39t-14 39t-38 15q-25 0 -38.5 -15t-13.5 -39zM159 824q0 40 27.5 67t68.5 27t67.5 -27t26.5 -67t-26.5 -67t-67.5 -27t-68.5 27t-27.5 67z" />
    <glyph glyph-name="hungarumlaut.cap" 
d="M140 896h124v-7l-142 -142h-37zM302 896h124v-7l-143 -142h-36z" />
    <glyph glyph-name="caron.cap" 
d="M423 903l-125 -156h-96l-125 156h40l133 -82l133 82h40z" />
    <glyph glyph-name="exclamdown.cap" horiz-adv-x="266" 
d="M50 629q0 34 24.5 58.5t58.5 24.5t58.5 -24.5t24.5 -58.5q0 -35 -24.5 -60t-58.5 -25t-58.5 25t-24.5 60zM114 483h38l67 -483h-172z" />
    <glyph glyph-name="questiondown.cap" horiz-adv-x="446" 
d="M134 116q0 -44 23 -69.5t64 -25.5q44 0 65.5 30t21.5 74q0 27 -3 51h92q31 -20 31 -57q0 -57 -57.5 -93t-147.5 -36q-97 0 -152 43.5t-55 125.5q0 58 35 101.5t104 88.5q43 29 60.5 54t17.5 64v23h17q23 -15 39.5 -43t16.5 -61q0 -72 -80 -134q-32 -25 -48 -39.5t-30 -40
t-14 -56.5zM321 629q0 -35 -24.5 -60t-58.5 -25t-58.5 25t-24.5 60q0 34 24.5 58.5t58.5 24.5t58.5 -24.5t24.5 -58.5z" />
    <glyph glyph-name="guilsinglleft.cap" horiz-adv-x="283" 
d="M29 353v6l188 196h38l-107 -199l107 -200h-38z" />
    <glyph glyph-name="guilsinglright.cap" horiz-adv-x="283" 
d="M255 359v-6l-189 -197h-37l107 200l-107 199h37z" />
    <glyph glyph-name="guillemotleft.cap" horiz-adv-x="458" 
d="M29 353v6l188 196h38l-107 -199l107 -200h-38zM204 353v6l188 196h38l-107 -199l107 -200h-38z" />
    <glyph glyph-name="guillemotright.cap" horiz-adv-x="458" 
d="M430 359v-6l-189 -197h-37l107 200l-107 199h37zM255 359v-6l-189 -197h-37l107 200l-107 199h37z" />
    <glyph glyph-name="slash.cap" horiz-adv-x="368" 
d="M351 770l-275 -871h-59l275 871h59z" />
    <glyph glyph-name="backslash.cap" horiz-adv-x="368" 
d="M292 -101l-275 871h59l275 -871h-59z" />
    <glyph glyph-name="bar.cap" horiz-adv-x="211" 
d="M133 770v-871h-56v871h56z" />
    <glyph glyph-name="brokenbar.cap" horiz-adv-x="211" 
d="M133 770v-371h-56v371h56zM133 270v-371h-56v371h56z" />
    <glyph glyph-name="periodcentered.cap" horiz-adv-x="235" 
d="M30 354q0 38 25.5 63t61.5 25q37 0 62.5 -25t25.5 -63q0 -37 -25.5 -62t-62.5 -25q-36 0 -61.5 25t-25.5 62z" />
    <glyph glyph-name="bullet.cap" horiz-adv-x="337" 
d="M30 355q0 58 41 99t97 41q58 0 98.5 -41t40.5 -99q0 -57 -40.5 -98t-98.5 -41q-56 0 -97 41t-41 98z" />
    <glyph glyph-name="hyphen.cap" horiz-adv-x="320" 
d="M290 325h-260v62h260v-62z" />
    <glyph glyph-name="endash.cap" horiz-adv-x="540" 
d="M510 329h-480v49h480v-49z" />
    <glyph glyph-name="emdash.cap" horiz-adv-x="960" 
d="M930 378v-49h-900v49h900z" />
    <glyph glyph-name="parenleft.cap" horiz-adv-x="355" 
d="M170 334q0 -260 159 -436h-47q-101 82 -161 198.5t-60 237.5t60 237.5t161 198.5h47q-159 -176 -159 -436z" />
    <glyph glyph-name="parenright.cap" horiz-adv-x="355" 
d="M184 334q0 261 -158 436h47q101 -82 161 -198.5t60 -237.5t-60 -237.5t-161 -198.5h-47q158 175 158 436z" />
    <glyph glyph-name="bracketleft.cap" horiz-adv-x="325" 
d="M177 677v-685q0 -36 21.5 -46t87.5 -14v-33h-201v871h201v-33q-66 -4 -87.5 -14t-21.5 -46z" />
    <glyph glyph-name="bracketright.cap" horiz-adv-x="325" 
d="M147 -8v685q0 37 -21 46.5t-87 13.5v33h201v-871h-201v33q66 4 87 13.5t21 46.5z" />
    <glyph glyph-name="braceleft.cap" horiz-adv-x="354" 
d="M50 327v15q83 17 83 100v200q0 60 47.5 94t137.5 34v-25q-89 -10 -89 -98v-196q0 -51 -26.5 -76.5t-82.5 -39.5q56 -15 82.5 -40t26.5 -77v-195q0 -88 89 -98v-25q-90 0 -137.5 34t-47.5 94v199q0 83 -83 100z" />
    <glyph glyph-name="braceright.cap" horiz-adv-x="359" 
d="M309 342v-15q-83 -17 -83 -100v-199q0 -60 -47.5 -94t-137.5 -34v25q88 10 88 98v195q0 52 27 77t83 40q-56 14 -83 39.5t-27 76.5v196q0 88 -88 98v25q90 0 137.5 -34t47.5 -94v-200q0 -83 83 -100z" />
    <glyph glyph-name="at.cap" horiz-adv-x="867" 
d="M597 135q-73 0 -97 49t-7 126q-42 -84 -84.5 -129.5t-93.5 -45.5q-44 0 -71 34t-27 94q0 109 76.5 201.5t175.5 92.5q60 0 94 -38l70 35h27l-30 -89l-53 -202q-25 -96 32 -96q68 0 109 78t41 189q0 123 -73 202t-204 79q-110 0 -195.5 -59.5t-130 -154.5t-44.5 -207
q0 -148 89 -232.5t231 -84.5q82 0 143 17t129 57l11 -17q-120 -101 -297 -101q-171 0 -277.5 95.5t-106.5 264.5q0 120 56.5 224t160 168t231.5 64q162 0 256.5 -88.5t94.5 -226.5q0 -127 -69.5 -213t-166.5 -86zM363 205q43 0 92.5 84t78.5 203q-16 34 -55 34
q-63 0 -109 -84.5t-46 -172.5q0 -64 39 -64z" />
    </font>
</defs>
</svg>
