<?xml version="1.0" standalone="no"?>
<!DOCTYPE svg PUBLIC "-//W3C//DTD SVG 1.1//EN" "http://www.w3.org/Graphics/SVG/1.1/DTD/svg11.dtd" >
<svg xmlns="http://www.w3.org/2000/svg" xmlns:xlink="http://www.w3.org/1999/xlink" version="1.1">
<metadata>
Created by FontForge 20170731 at Mon May 10 19:04:31 2010
 By Aleksey,,,
Copyright (c) 2010 by Kris Sowersby/KLIM Type Foundry. All rights reserved. PDF-RiP (c) 2010 by AcnApyX.
</metadata>
<defs>
<font id="TiemposText-Medium" horiz-adv-x="600" >
  <font-face 
    font-family="Tiempos Text"
    font-weight="500"
    font-stretch="normal"
    units-per-em="1000"
    panose-1="2 0 6 3 7 0 0 2 0 4"
    ascent="800"
    descent="-200"
    x-height="536"
    cap-height="702"
    bbox="-64 -236 1306 1037"
    underline-thickness="50"
    underline-position="-200"
    unicode-range="U+0020-FB04"
  />
<missing-glyph horiz-adv-x="960" 
 />
    <glyph glyph-name=".notdef" horiz-adv-x="960" 
 />
    <glyph glyph-name=".null" horiz-adv-x="0" 
 />
    <glyph glyph-name="nonmarkingreturn" horiz-adv-x="333" 
 />
    <glyph glyph-name="space" unicode=" " horiz-adv-x="215" 
 />
    <glyph glyph-name="exclam" unicode="!" horiz-adv-x="305" 
d="M71 72q0 35 23.5 59t57.5 24q35 0 58.5 -24t23.5 -59q0 -34 -24 -58t-58 -24t-57.5 24t-23.5 58zM229 702l-48 -488h-58l-47 488h153z" />
    <glyph glyph-name="quotedbl" unicode="&#x22;" horiz-adv-x="413" 
d="M126 465h-26l-32 145q-17 68 -17 87q0 31 16.5 49t45.5 18q30 0 46.5 -18t16.5 -49q0 -8 -17 -87zM313 465h-26l-33 145q-17 79 -17 87q0 30 16.5 48.5t46.5 18.5t46.5 -18.5t16.5 -48.5q0 -8 -17 -87z" />
    <glyph glyph-name="numbersign" unicode="#" horiz-adv-x="586" 
d="M492 210h-120l-70 -220l-57 20l63 200h-122l-70 -220l-57 20l63 200h-86v58h105l53 167h-100v58h119l70 220l58 -21l-64 -199h122l70 220l58 -21l-64 -199h87v-58h-106l-53 -167h101v-58zM258 435l-53 -167h122l53 167h-122z" />
    <glyph glyph-name="dollar" unicode="$" horiz-adv-x="557" 
d="M172 -113l18 109q-92 14 -143 57l-8 168h52q28 -123 110 -161l42 241l-33 13q-81 30 -122.5 74t-41.5 123q0 89 63 145t166 56q14 0 38 -2l18 104h48l-19 -110q80 -16 126 -51v-153h-47q-23 105 -90 138l-38 -223l35 -14q86 -32 129 -76t43 -126q0 -100 -72 -154.5
t-184 -54.5q-16 0 -24 1l-18 -104h-48zM299 280l-11 4l-40 -237q8 -1 25 -1q63 0 100 30t37 82q0 46 -26.5 73t-84.5 49zM150 555q0 -43 23.5 -69.5t73.5 -45.5l18 -8l38 221q-16 3 -35 3q-56 0 -87 -28t-31 -73z" />
    <glyph glyph-name="percent" unicode="%" horiz-adv-x="885" 
d="M134 528q0 -62 20.5 -101.5t62.5 -39.5t63 39.5t21 101.5t-20.5 101.5t-63.5 39.5q-42 0 -62.5 -39.5t-20.5 -101.5zM185 -19l450 741h64l-450 -741h-64zM39 528q0 84 52 134t126 50t126.5 -50t52.5 -134t-52.5 -134t-126.5 -50t-126 50t-52 134zM751 175
q0 62 -20.5 101.5t-62.5 39.5t-63 -39.5t-21 -101.5t20.5 -101.5t63.5 -39.5q42 0 62.5 39.5t20.5 101.5zM846 175q0 -84 -52.5 -134t-125.5 -50q-75 0 -127 50t-52 134t52 134t127 50q73 0 125.5 -50t52.5 -134z" />
    <glyph glyph-name="ampersand" unicode="&#x26;" horiz-adv-x="709" 
d="M24 184q0 133 163 197q-65 81 -65 156q0 77 53.5 126t139.5 49q87 0 136 -40.5t49 -106.5q0 -110 -172 -174l178 -206q23 49 23 105q0 33 -11 47t-38 14v47h204v-47q-56 0 -74 -13.5t-26 -58.5q-14 -72 -47 -130l42 -48q48 -54 105 -54v-47h-150q-32 18 -72 58
q-84 -68 -198 -68q-100 0 -170 50.5t-70 143.5zM302 52q71 0 128 41l-8 10l-210 249q-68 -39 -68 -141q0 -71 45 -115t113 -44zM225 575q0 -40 19 -74t53 -74l5 -7q97 44 97 147q0 43 -23 69.5t-64 26.5q-40 0 -63.5 -23.5t-23.5 -64.5z" />
    <glyph glyph-name="quotesingle" unicode="'" horiz-adv-x="226" 
d="M126 465h-26l-32 145q-17 68 -17 87q0 31 16.5 49t45.5 18q30 0 46.5 -18t16.5 -49q0 -8 -17 -87z" />
    <glyph glyph-name="parenleft" unicode="(" horiz-adv-x="353" 
d="M60 314q0 127 53 249.5t149 206.5h64q-163 -174 -163 -456q0 -281 163 -455h-64q-96 84 -149 206t-53 249z" />
    <glyph glyph-name="parenright" unicode=")" horiz-adv-x="353" 
d="M293 314q0 -127 -53 -249t-149 -206h-64q163 174 163 455q0 282 -163 456h64q96 -84 149 -206.5t53 -249.5z" />
    <glyph glyph-name="asterisk" unicode="*" horiz-adv-x="455" 
d="M378 445l-133 99l20 -164h-74l19 165l-133 -100l-37 65l152 65l-152 65l37 65l133 -100l-19 165h74l-20 -164l133 99l37 -65l-152 -65l152 -65z" />
    <glyph glyph-name="plus" unicode="+" horiz-adv-x="576" 
d="M252 591h71v-186h187v-72h-187v-186h-71v186h-186v72h186v186z" />
    <glyph glyph-name="comma" unicode="," horiz-adv-x="290" 
d="M159 8h-40q-51 10 -51 67q0 32 20.5 52t54.5 20q41 0 63.5 -28t22.5 -75q0 -73 -44 -120t-133 -52v47q107 13 107 89z" />
    <glyph glyph-name="hyphen" unicode="-" horiz-adv-x="360" 
d="M310 261h-260v88h260v-88z" />
    <glyph glyph-name="period" unicode="." horiz-adv-x="290" 
d="M62 73q0 36 24 60t59 24t59.5 -24t24.5 -60q0 -35 -24.5 -59t-59.5 -24t-59 24t-24 59z" />
    <glyph glyph-name="slash" unicode="/" horiz-adv-x="411" 
d="M373 770l-276 -905h-75l275 905h76z" />
    <glyph glyph-name="zero" unicode="0" horiz-adv-x="649" 
d="M325 712q131 0 206 -100t75 -261t-75 -261t-206 -100q-132 0 -207 100t-75 261t75 261t207 100zM325 655q-143 0 -143 -304q0 -305 143 -305q141 0 141 305q0 304 -141 304z" />
    <glyph glyph-name="one" unicode="1" horiz-adv-x="439" 
d="M264 711h32v-590q0 -44 22.5 -55.5t103.5 -16.5v-49h-382v49q86 6 109 17t23 55v435h-132v41l32 5q72 10 112.5 33.5t79.5 75.5z" />
    <glyph glyph-name="two" unicode="2" horiz-adv-x="533" 
d="M148 104h165q62 0 91.5 17t64.5 83h35l-35 -204h-461v33l182 185q86 89 117.5 146t31.5 119q0 63 -33.5 96t-94.5 33q-48 0 -84.5 -22.5t-74.5 -62.5l-27 28q84 157 238 157q97 0 152 -53.5t55 -144.5q0 -30 -7.5 -59t-27 -59.5t-37 -53.5t-52.5 -57.5t-57.5 -55
t-69.5 -62t-71 -63.5z" />
    <glyph glyph-name="three" unicode="3" horiz-adv-x="544" 
d="M300 396q94 -8 150.5 -58.5t56.5 -129.5q0 -101 -75 -159.5t-182 -58.5t-168 41.5t-61 100.5q0 50 45 74h71v-35q0 -62 32 -96.5t91 -34.5q58 0 89.5 35t31.5 96q0 75 -51 116t-136 41h-31l-9 37q94 28 141 64t47 94q0 44 -28 69t-76 25q-91 0 -148 -86l-30 25
q32 69 89.5 112.5t139.5 43.5q81 0 128.5 -43t47.5 -111q0 -64 -49 -105.5t-116 -56.5z" />
    <glyph glyph-name="four" unicode="4" horiz-adv-x="619" 
d="M96 240h256v320zM352 120v60h-337v46l377 476h79v-462h123v-60h-123v-60q0 -42 21.5 -56t75.5 -16v-48h-313v48q54 2 75.5 16t21.5 56z" />
    <glyph glyph-name="five" unicode="5" horiz-adv-x="530" 
d="M455 702v-117h-291l-20 -128q160 -6 253.5 -64.5t93.5 -178.5q0 -101 -66.5 -162.5t-172.5 -61.5q-105 0 -165 41t-60 101q0 51 43 74h74v-32q0 -133 117 -133q59 0 91 34.5t32 92.5q0 89 -82 135t-228 46l57 353h324z" />
    <glyph glyph-name="six" unicode="6" horiz-adv-x="593" 
d="M487 672q-141 -34 -218.5 -113t-93.5 -187q73 78 177 78q90 0 146.5 -56t56.5 -154q0 -115 -70.5 -182.5t-177.5 -67.5q-121 0 -193 81.5t-72 211.5q0 174 112.5 290.5t312.5 138.5zM280 374q-57 0 -107 -32q-3 -28 -3 -59q0 -105 38.5 -172t104.5 -67q59 0 91 42.5
t32 117.5q0 79 -40.5 124.5t-115.5 45.5z" />
    <glyph glyph-name="seven" unicode="7" horiz-adv-x="509" 
d="M409 584h-254q-37 0 -56 -15t-39 -58h-43l43 191h443v-33l-287 -669h-118z" />
    <glyph glyph-name="eight" unicode="8" horiz-adv-x="571" 
d="M505 546q0 -57 -40 -98t-98 -57l29 -13q66 -32 101 -76t35 -109q0 -90 -64 -146.5t-182 -56.5q-112 0 -179.5 50t-67.5 134q0 62 41 104t109 63l-11 5q-114 55 -114 171q0 87 59 141t163 54q100 0 159.5 -45.5t59.5 -120.5zM332 275l-114 50q-74 -47 -74 -144
q0 -62 39 -100t103 -38q62 0 100.5 31.5t38.5 85.5q0 73 -93 115zM257 445l78 -37q71 45 71 135q0 53 -33 84.5t-87 31.5q-55 0 -86 -28.5t-31 -75.5q0 -39 21 -63.5t67 -46.5z" />
    <glyph glyph-name="nine" unicode="9" horiz-adv-x="593" 
d="M106 30q141 34 218.5 113t93.5 187q-73 -78 -177 -78q-90 0 -146.5 56t-56.5 154q0 115 70.5 182.5t177.5 67.5q121 0 193 -81.5t72 -211.5q0 -174 -112.5 -290.5t-312.5 -138.5zM313 328q57 0 107 32q3 28 3 59q0 105 -38.5 172t-104.5 67q-59 0 -91 -42.5t-32 -117.5
q0 -79 40.5 -124.5t115.5 -45.5z" />
    <glyph glyph-name="colon" unicode=":" horiz-adv-x="290" 
d="M62 73q0 36 24 60t59 24t59.5 -24t24.5 -60q0 -35 -24.5 -59t-59.5 -24t-59 24t-24 59zM62 387q0 36 24 59.5t59 23.5q36 0 60 -23.5t24 -59.5t-24 -59.5t-60 -23.5q-35 0 -59 23.5t-24 59.5z" />
    <glyph glyph-name="semicolon" unicode=";" horiz-adv-x="290" 
d="M62 387q0 36 24 59.5t59 23.5q36 0 60 -23.5t24 -59.5t-24 -59.5t-60 -23.5q-35 0 -59 23.5t-24 59.5zM159 8h-40q-51 10 -51 67q0 32 20.5 52t54.5 20q41 0 63.5 -28t22.5 -75q0 -73 -44 -120t-133 -52v47q107 13 107 89z" />
    <glyph glyph-name="less" unicode="&#x3c;" horiz-adv-x="428" 
d="M44 362v10l318 195v-86l-194 -113l194 -116v-85z" />
    <glyph glyph-name="equal" unicode="=" horiz-adv-x="586" 
d="M71 261v69h445v-69h-445zM71 408v70h445v-70h-445z" />
    <glyph glyph-name="greater" unicode="&#x3e;" horiz-adv-x="428" 
d="M384 372v-10l-318 -195v85l194 116l-194 113v86z" />
    <glyph glyph-name="question" unicode="?" horiz-adv-x="451" 
d="M314 572q0 41 -24 63.5t-66 22.5q-82 0 -82 -90v-42h-89q-26 20 -26 53q0 57 56 95t140 38q95 0 149.5 -42.5t54.5 -124.5q0 -59 -30 -101t-90 -84q-44 -29 -61 -56t-17 -67v-30h-37q-38 40 -38 94q0 78 73 137q22 18 28 23.5t22 21t21 26t10.5 27.5t5.5 36zM128 72
q0 35 23.5 59t58.5 24q34 0 57.5 -24t23.5 -59q0 -34 -23.5 -58t-57.5 -24t-58 24t-24 58z" />
    <glyph glyph-name="at" unicode="@" horiz-adv-x="897" 
d="M606 76q-47 0 -73 26.5t-26.5 66t10.5 84.5h-6q-33 -78 -80 -127.5t-97 -49.5q-43 0 -69.5 33.5t-26.5 92.5q0 112 75.5 204.5t171.5 92.5q55 0 89 -34l57 35h42l-29 -90l-50 -200q-10 -28 -4 -58.5t35 -30.5q60 0 106.5 66.5t46.5 173.5q0 127 -78.5 207.5t-218.5 80.5
q-155 0 -256.5 -115.5t-101.5 -285.5q0 -151 97.5 -241.5t249.5 -90.5q141 0 264 71l16 -30q-109 -94 -291 -94q-179 0 -294 105t-115 279q0 187 123.5 316t307.5 129q167 0 266.5 -93.5t99.5 -237.5q0 -131 -73 -208t-168 -77zM377 145q41 0 91 79t80 198q-17 36 -53 36
q-64 0 -110 -83t-46 -167q0 -63 38 -63z" />
    <glyph glyph-name="A" unicode="A" horiz-adv-x="734" 
d="M511 131l-40 95h-280l-37 -94q-11 -27 -11 -40q0 -23 19 -33t68 -11v-48h-224v48q47 7 59 37l228 553l-32 71h139l269 -624q13 -31 59 -37v-48h-292v48q49 2 67.5 11t18.5 32q0 16 -11 40zM329 569l-117 -291h238z" />
    <glyph glyph-name="B" unicode="B" horiz-adv-x="679" 
d="M33 0v48q53 2 74 16t21 56v463q0 42 -21 55.5t-74 15.5v48h329q117 0 180 -44.5t63 -131.5q0 -70 -50.5 -110t-128.5 -53q101 -8 157.5 -53t56.5 -121q0 -89 -69 -139t-194 -50h-344zM337 333h-82v-214q0 -39 20.5 -53t71.5 -14h11q149 0 149 138q0 65 -40.5 104
t-129.5 39zM316 648h-61v-262h63q79 0 117 33.5t38 104.5q0 56 -40 90t-117 34z" />
    <glyph glyph-name="C" unicode="C" horiz-adv-x="683" 
d="M401 49q69 0 112 43t72 133h55l-21 -177q-104 -58 -238 -58q-155 0 -248 96.5t-93 249.5q0 171 100.5 273.5t252.5 102.5q142 0 223 -66v-156h-54q-40 164 -174 164q-105 0 -157 -81.5t-52 -207.5q0 -141 57.5 -228.5t164.5 -87.5z" />
    <glyph glyph-name="D" unicode="D" horiz-adv-x="769" 
d="M324 648h-69v-523q0 -42 20.5 -56.5t71.5 -14.5h18q107 0 166.5 75.5t59.5 220.5q0 130 -66.5 214t-200.5 84zM33 654v48h313q187 0 285 -93t98 -241q0 -173 -101 -270.5t-261 -97.5h-334v48q53 2 74 16t21 56v463q0 42 -21 55.5t-74 15.5z" />
    <glyph glyph-name="E" unicode="E" horiz-adv-x="673" 
d="M512 246h-44q-8 46 -24 66.5t-48 20.5h-141v-212q0 -39 22 -53.5t73 -14.5h77q31 0 51.5 5.5t40.5 25t33.5 39t42.5 65.5h43l-31 -188h-574v48q53 2 74 16t21 56v463q0 42 -21 55.5t-74 15.5v48h569v-174h-42q-28 68 -56.5 94.5t-85.5 26.5h-163v-262h141q32 0 48 20
t24 66h44v-227z" />
    <glyph glyph-name="F" unicode="F" horiz-adv-x="614" 
d="M380 0h-347v48q53 2 74 16t21 56v463q0 42 -21 55.5t-74 15.5v48h553v-179h-42q-29 70 -57 98t-85 28h-147v-275h123q32 0 48.5 20t24.5 66h43v-227h-43q-8 47 -24.5 67t-48.5 20h-123v-202q0 -41 28.5 -54.5t96.5 -16.5v-47z" />
    <glyph glyph-name="G" unicode="G" horiz-adv-x="744" 
d="M40 336q0 170 103 273t254 103q146 0 227 -66v-156h-54q-40 164 -178 164q-105 0 -159 -82t-54 -207q0 -142 56.5 -229t166.5 -87q73 0 115 34v137q0 41 -20 55t-71 16v47h297v-47q-50 -2 -68 -16t-18 -55v-158q-102 -72 -249 -72q-161 0 -254.5 96t-93.5 250z" />
    <glyph glyph-name="H" unicode="H" horiz-adv-x="844" 
d="M589 120v213h-334v-213q0 -42 21.5 -56t73.5 -16v-48h-317v48q53 2 74 16t21 56v463q0 42 -21 55.5t-74 15.5v48h317v-48q-52 -2 -73.5 -16t-21.5 -55v-196h334v196q0 41 -21.5 55t-73.5 16v48h317v-48q-53 -2 -74 -15.5t-21 -55.5v-463q0 -42 21 -56t74 -16v-48h-317v48
q52 2 73.5 16t21.5 56z" />
    <glyph glyph-name="I" unicode="I" horiz-adv-x="383" 
d="M350 0h-317v48q53 2 74 16t21 56v463q0 42 -21 55.5t-74 15.5v48h317v-48q-53 -2 -74 -15.5t-21 -55.5v-463q0 -42 21 -56t74 -16v-48z" />
    <glyph glyph-name="J" unicode="J" horiz-adv-x="548" 
d="M438 583v-375q0 -109 -58 -163t-166 -54q-95 0 -150 35.5t-55 96.5q0 45 34 72h91v-47q0 -51 22.5 -78.5t63.5 -27.5q90 0 90 145v396q0 42 -20.5 55.5t-73.5 15.5v48h317v-48q-53 -2 -74 -15.5t-21 -55.5z" />
    <glyph glyph-name="K" unicode="K" horiz-adv-x="737" 
d="M391 397l221 -272q37 -45 61.5 -60t59.5 -17v-48h-162q-41 24 -96 92l-209 265l238 229q24 22 24 39q0 14 -14.5 20.5t-59.5 8.5v48h257v-48q-55 -2 -101 -47zM128 120v463q0 42 -21 55.5t-74 15.5v48h317v-48q-52 -2 -73 -16t-21 -55v-463q0 -42 21 -56t73 -16v-48h-317
v48q53 2 74 16t21 56z" />
    <glyph glyph-name="L" unicode="L" horiz-adv-x="628" 
d="M256 583v-461q0 -39 21 -53.5t72 -14.5h48q56 0 83.5 28.5t81.5 126.5h47l-34 -209h-542v48q53 2 74 16t21 56v463q0 41 -20.5 55t-74.5 16v48h317v-48q-52 -2 -73 -16t-21 -55z" />
    <glyph glyph-name="M" unicode="M" horiz-adv-x="953" 
d="M727 136l-52 396l-199 -532h-48l-211 535l-51 -399q-2 -14 -2 -24q0 -36 20.5 -49t74.5 -15v-48h-246v48q43 2 61 14t23 46l63 473q0 40 -17.5 56t-67.5 17v48h214q2 -27 15 -58l180 -461l169 461q15 37 17 58h208v-48q-49 -1 -66.5 -17t-17.5 -56l63 -473q4 -34 22 -46
t61 -14v-48h-306v48q54 2 74.5 15t20.5 49q0 10 -2 24z" />
    <glyph glyph-name="N" unicode="N" horiz-adv-x="798" 
d="M128 120v475q-28 35 -45 46.5t-50 12.5v48h201l378 -483v364q0 41 -22 55t-75 16v48h260v-48q-53 -2 -74 -15.5t-21 -55.5v-583h-53l-431 539v-419q0 -42 22 -56t76 -16v-48h-261v48q53 2 74 16t21 56z" />
    <glyph glyph-name="O" unicode="O" horiz-adv-x="753" 
d="M388 51q91 0 139 81.5t48 211.5q0 85 -21 152t-69.5 111t-119.5 44q-91 0 -139 -81.5t-48 -211.5q0 -132 53 -219.5t157 -87.5zM382 712q152 0 241.5 -100.5t89.5 -246.5q0 -168 -98 -271.5t-243 -103.5q-153 0 -242.5 100.5t-89.5 246.5q0 168 98.5 271.5t243.5 103.5z
" />
    <glyph glyph-name="P" unicode="P" horiz-adv-x="635" 
d="M360 281h-104v-161q0 -41 28 -55t96 -17v-48h-347v48q53 2 74 16t21 56v463q0 42 -21 55.5t-74 15.5v48h316q135 0 201 -59t66 -149q0 -97 -64 -155t-192 -58zM256 648v-315h64q83 0 123 39t40 119q0 72 -42 114.5t-123 42.5h-62z" />
    <glyph glyph-name="Q" unicode="Q" horiz-adv-x="753" 
d="M382 712q152 0 241.5 -100.5t89.5 -246.5q0 -140 -70.5 -237.5t-183.5 -126.5l38 -35q54 -54 87.5 -78.5t71.5 -27.5v-24q-36 -18 -82 -18q-108 0 -175 90l-60 83q-138 11 -218.5 109.5t-80.5 236.5q0 168 98.5 271.5t243.5 103.5zM388 51q91 0 139 81.5t48 211.5
q0 85 -21 152t-69.5 111t-119.5 44q-91 0 -139 -81.5t-48 -211.5q0 -132 53 -219.5t157 -87.5z" />
    <glyph glyph-name="R" unicode="R" horiz-adv-x="721" 
d="M307 648h-52v-296h55q169 0 169 151q0 67 -43 106t-129 39zM33 702h317q131 0 196.5 -53t65.5 -146q0 -75 -52 -123.5t-125 -59.5l152 -201q50 -68 122 -71v-48h-169q-46 32 -88 95l-148 206h-49v-181q0 -42 20.5 -56t72.5 -16v-48h-315v48q53 2 74 16t21 56v463
q0 42 -21 55.5t-74 14.5v49z" />
    <glyph glyph-name="S" unicode="S" horiz-adv-x="573" 
d="M274 -10q-69 0 -128.5 19t-96.5 49l-8 165h54q50 -177 186 -177q64 0 100.5 30t36.5 86q0 47 -34 74.5t-124 58.5q-112 38 -162 85t-50 131q0 90 62.5 145.5t168.5 55.5q123 0 213 -62v-153h-48q-43 160 -172 160q-56 0 -87 -29t-31 -74q0 -49 31.5 -76.5t121.5 -57.5
q117 -39 169.5 -88t52.5 -135q0 -99 -72.5 -153t-182.5 -54z" />
    <glyph glyph-name="T" unicode="T" horiz-adv-x="678" 
d="M30 702h618l15 -217h-46q-45 107 -70 136t-86 29h-59v-530q0 -42 22.5 -56t76.5 -16v-48h-325v48q54 2 76.5 16t22.5 56v530h-58q-61 0 -86 -29t-71 -136h-45z" />
    <glyph glyph-name="U" unicode="U" horiz-adv-x="769" 
d="M234 583v-330q0 -90 43 -138.5t125 -48.5q95 0 143.5 45.5t48.5 149.5v322q0 41 -22.5 55t-75.5 16v48h261v-48q-53 -2 -73.5 -15.5t-20.5 -55.5v-344q0 -121 -77 -184.5t-194 -63.5q-136 0 -211 62.5t-75 186.5v343q0 42 -20.5 55.5t-73.5 15.5v48h316v-48
q-53 -2 -73.5 -15.5t-20.5 -55.5z" />
    <glyph glyph-name="V" unicode="V" horiz-adv-x="720" 
d="M403 171l159 399q10 25 10 40q0 23 -18.5 33t-67.5 11v48h229v-48q-24 -3 -38 -10.5t-22 -26.5l-263 -625h-38l-289 625q-14 31 -59 37v48h294v-48q-49 -1 -68 -10.5t-19 -32.5q0 -16 11 -40z" />
    <glyph glyph-name="W" unicode="W" horiz-adv-x="982" 
d="M695 187l134 378q13 35 13 45q0 23 -19 33t-68 11v48h221v-48q-17 -3 -26 -5t-18.5 -10t-14.5 -22l-229 -625h-43l-148 418l-150 -418h-42l-240 625q-13 30 -59 37v48h287v-48q-46 -2 -64.5 -11.5t-18.5 -31.5q0 -12 11 -43l139 -383l107 308l-42 124q-7 19 -20 26
t-37 11v48h277v-48q-50 -1 -68 -10.5t-18 -32.5q0 -14 11 -47z" />
    <glyph glyph-name="X" unicode="X" horiz-adv-x="724" 
d="M611 609l-185 -231l209 -285q32 -44 83 -45v-48h-306v48q47 0 61 7t14 25q0 15 -25 49l-125 171l-136 -169q-25 -31 -25 -51q0 -18 15 -25t65 -7v-48h-250v48q30 0 49 10t39 35l205 258l-189 258q-32 44 -81 45v48h310v-48q-47 0 -63 -6.5t-16 -24.5q0 -17 26 -52
l103 -142l113 142q25 32 25 52q0 18 -15.5 24.5t-62.5 6.5v48h249v-48q-52 0 -87 -45z" />
    <glyph glyph-name="Y" unicode="Y" horiz-adv-x="677" 
d="M369 337l141 229q19 32 19 50q0 20 -18.5 28t-65.5 10v48h227v-48q-23 -3 -36 -10.5t-24 -26.5l-212 -342v-155q0 -42 22 -56t75 -16v-48h-319v48q54 2 75.5 16t21.5 56v155l-210 342q-18 31 -59 37v48h289v-48q-48 -1 -65.5 -9.5t-17.5 -28.5q0 -18 19 -50z" />
    <glyph glyph-name="Z" unicode="Z" horiz-adv-x="629" 
d="M186 55h207q59 0 88 29.5t79 124.5h46l-33 -209h-549v32l407 615h-193q-20 0 -34.5 -2t-27.5 -12t-20 -15.5t-19 -28.5t-17 -33t-21 -46h-42v192h532v-33z" />
    <glyph glyph-name="bracketleft" unicode="[" horiz-adv-x="326" 
d="M171 672v-715q0 -36 22.5 -46t90.5 -14v-38h-199v911h199v-38q-68 -4 -90.5 -14t-22.5 -46z" />
    <glyph glyph-name="backslash" unicode="\" horiz-adv-x="411" 
d="M314 -135l-276 905h76l276 -905h-76z" />
    <glyph glyph-name="bracketright" unicode="]" horiz-adv-x="326" 
d="M155 -43v715q0 36 -22.5 46t-90.5 14v38h199v-911h-199v38q68 4 90.5 14t22.5 46z" />
    <glyph glyph-name="asciicircum" unicode="^" horiz-adv-x="470" 
d="M192 770h86l152 -290h-82l-113 221l-113 -221h-82z" />
    <glyph glyph-name="underscore" unicode="_" horiz-adv-x="440" 
d="M420 -135h-400v69h400v-69z" />
    <glyph glyph-name="a" unicode="a" horiz-adv-x="552" 
d="M237 73q50 0 100 35v175l-117 -45q-58 -22 -58 -79q0 -41 19.5 -63.5t55.5 -22.5zM458 363q0 -11 -1.5 -113.5t-1.5 -118.5q0 -63 41 -63q24 0 46 6l6 -32q-52 -52 -114 -52q-74 0 -94 91q-75 -90 -165 -90q-64 0 -99.5 38.5t-35.5 98.5q0 62 37 93.5t101 53.5l159 57v53
q0 109 -86 109q-73 0 -73 -70q0 -28 7 -57l-88 -13q-28 19 -28 59q0 63 55.5 98t144.5 35q189 0 189 -183z" />
    <glyph glyph-name="b" unicode="b" horiz-adv-x="614" 
d="M79 646l-67 43v25l161 47h27v-305q63 90 167 90q98 0 153.5 -70t55.5 -182q0 -138 -77 -221t-193 -83q-145 0 -227 67v589zM312 43q64 0 103 56.5t39 149.5t-37.5 154t-108.5 61q-68 0 -108 -38v-256q0 -127 112 -127z" />
    <glyph glyph-name="c" unicode="c" horiz-adv-x="517" 
d="M148 300q0 -98 44 -156t124 -58q89 0 147 81l23 -14q-46 -163 -213 -163q-105 0 -170 72t-65 188q0 125 73.5 210.5t191.5 85.5q80 0 128.5 -34.5t48.5 -95.5q0 -47 -41 -65h-65v39q0 46 -20.5 73t-63.5 27q-62 0 -102 -53t-40 -137z" />
    <glyph glyph-name="d" unicode="d" horiz-adv-x="636" 
d="M414 -10v92q-64 -92 -165 -92q-97 0 -154 70t-57 182q0 138 74 220t187 82q80 0 115 -46v148l-68 43v25l162 47h27v-642q0 -26 10 -35.5t41 -12.5l25 -2v-45l-175 -34h-22zM303 492q-65 0 -104 -57.5t-39 -150.5q0 -92 38 -151.5t108 -59.5q66 0 108 39v253
q0 127 -111 127z" />
    <glyph glyph-name="e" unicode="e" horiz-adv-x="534" 
d="M288 546q99 0 153 -62.5t54 -162.5v-33h-349q0 -91 47.5 -146.5t126.5 -55.5q93 0 154 81l22 -13q-19 -75 -76 -119.5t-142 -44.5q-109 0 -174.5 73.5t-65.5 187.5q0 131 71 213t179 82zM272 491q-52 0 -84.5 -43.5t-38.5 -108.5h233q0 71 -28 111.5t-82 40.5z" />
    <glyph glyph-name="f" unicode="f" horiz-adv-x="378" 
d="M232 476v-372q0 -18 4 -28.5t18 -16.5t26.5 -8t43.5 -6v-45h-285v45q40 5 56 15t16 42v374h-74v42l74 24v14q0 99 55.5 155t148.5 56q60 0 94 -21.5t34 -61.5q0 -36 -33 -56h-62v30q0 64 -50 64q-66 0 -66 -124v-62h127v-60h-127z" />
    <glyph glyph-name="g" unicode="g" horiz-adv-x="560" 
d="M264 191q-51 0 -96 15q-37 -38 -37 -65q0 -29 33 -29h231q153 0 153 -127q0 -87 -82.5 -139.5t-214.5 -52.5q-112 0 -173 30.5t-61 91.5q0 62 92 97q-62 23 -62 83q0 63 96 123q-90 46 -90 144q0 84 60 134t155 50q49 0 93 -16l182 11v-75h-39l-95 21v-6q69 -40 69 -115
q0 -80 -59 -127.5t-155 -47.5zM376 -2h-248q-20 -20 -20 -53q0 -100 157 -100q84 0 134.5 25.5t50.5 75.5q0 30 -18.5 41t-55.5 11zM273 236q44 0 66 32.5t22 89.5q0 61 -27.5 101t-75.5 40q-44 0 -65.5 -32.5t-21.5 -89.5q0 -61 27 -101t75 -40z" />
    <glyph glyph-name="h" unicode="h" horiz-adv-x="654" 
d="M223 761v-315q45 46 89.5 73t101.5 27q144 0 144 -164v-280q0 -31 16.5 -41.5t56.5 -15.5v-45h-264v45q39 5 54.5 15t15.5 42v270q0 46 -19.5 66.5t-63.5 20.5q-68 0 -131 -43v-314q0 -32 15.5 -42t54.5 -15v-45h-264v45q27 4 40 7.5t23 15.5t10 34v544l-68 43v25l162 47
h27z" />
    <glyph glyph-name="i" unicode="i" horiz-adv-x="335" 
d="M231 546v-444q0 -32 16 -42t56 -15v-45h-265v45q27 4 39.5 7.5t22.5 15.5t10 34v328l-67 42v24l160 50h28zM167 606q-33 0 -55 22t-22 53t22 53t55 22t54.5 -22t21.5 -53t-21.5 -53t-54.5 -22z" />
    <glyph glyph-name="j" unicode="j" horiz-adv-x="286" 
d="M212 546v-446q0 -64 -8.5 -103.5t-30.5 -75.5q-40 -64 -139 -129l-27 27l34 50q32 42 41 85.5t9 121.5v354l-67 42v24l162 50h26zM149 606q-33 0 -55 22t-22 53t22 53t55 22t54.5 -22t21.5 -53t-21.5 -53t-54.5 -22z" />
    <glyph glyph-name="k" unicode="k" horiz-adv-x="597" 
d="M232 286l154 147q19 19 19 30q0 13 -13.5 18t-58.5 11v44h238v-44q-58 -15 -83 -39l-138 -129l241 -289v-35h-129zM223 761v-659q0 -31 16.5 -41.5t55.5 -15.5v-45h-266v45q27 4 40 7.5t23 15.5t10 34v544l-68 43v25l162 47h27z" />
    <glyph glyph-name="l" unicode="l" horiz-adv-x="326" 
d="M222 761v-659q0 -31 16.5 -41.5t55.5 -15.5v-45h-265v45q27 4 40 7.5t23 15.5t10 34v544l-68 43v25l161 47h27z" />
    <glyph glyph-name="m" unicode="m" horiz-adv-x="974" 
d="M951 0h-263v45q39 5 54.5 15t15.5 42v270q0 48 -18 67.5t-62 19.5q-60 0 -123 -43v-314q0 -32 15.5 -42t54.5 -15v-45h-261v45q39 5 54.5 15t15.5 42v270q0 48 -18 67.5t-61 19.5q-61 0 -124 -43v-314q0 -32 15 -42t54 -15v-45h-262v45q27 4 39.5 7.5t22.5 15.5t10 34
v326l-67 43v25l160 52h28v-102q29 30 51 48.5t58.5 35t75.5 16.5q108 0 133 -104q46 47 91.5 75.5t101.5 28.5q137 0 137 -163v-281q0 -32 16 -42t56 -15v-45z" />
    <glyph glyph-name="n" unicode="n" horiz-adv-x="663" 
d="M446 102v270q0 46 -20 66.5t-64 20.5q-70 0 -131 -43v-314q0 -32 15.5 -42t54.5 -15v-45h-263v45q27 4 39.5 7.5t22.5 15.5t10 34v326l-67 43v25l160 52h28v-102q96 100 192 100q144 0 144 -164v-280q0 -32 16 -42t56 -15v-45h-264v45q39 5 55 15t16 42z" />
    <glyph glyph-name="o" unicode="o" horiz-adv-x="592" 
d="M305 48q60 0 92 55.5t32 149.5q0 101 -38.5 168.5t-103.5 67.5q-61 0 -92.5 -56t-31.5 -150q0 -101 38 -168t104 -67zM291 -10q-114 0 -183.5 75.5t-69.5 192.5q0 129 75 208.5t187 79.5q114 0 184 -75.5t70 -192.5q0 -129 -75.5 -208.5t-187.5 -79.5z" />
    <glyph glyph-name="p" unicode="p" horiz-adv-x="632" 
d="M218 35v-130q0 -31 16.5 -41.5t56.5 -15.5v-45h-266v45q27 4 40 7.5t23 15.5t10 34v523l-68 43v25l162 52h26v-92q65 90 168 90q98 0 153 -70t55 -182q0 -137 -74.5 -220.5t-183.5 -83.5q-82 0 -118 45zM330 43q65 0 104 56.5t39 149.5t-37.5 154t-108.5 61
q-68 0 -109 -38v-255q0 -62 29 -95t83 -33z" />
    <glyph glyph-name="q" unicode="q" horiz-adv-x="611" 
d="M302 546q99 0 151 -58l51 63h38l-7 -115v-531q0 -31 16.5 -41.5t56.5 -15.5v-45h-266v45q27 4 39.5 7.5t22.5 15.5t10 34v177q-64 -92 -165 -92q-97 0 -154 70t-57 182q0 138 74.5 221t189.5 83zM303 494q-65 0 -104 -58.5t-39 -151.5q0 -92 38 -151.5t108 -59.5
q66 0 108 39v255q0 127 -111 127z" />
    <glyph glyph-name="r" unicode="r" horiz-adv-x="434" 
d="M231 548v-164q44 95 74 128.5t77 33.5q24 0 39 -13v-110h-22q-53 0 -90 -14t-78 -58v-247q0 -34 17.5 -43t74.5 -16v-45h-285v45q27 4 39.5 7.5t22.5 15.5t10 34v326l-67 43v25l159 52h29z" />
    <glyph glyph-name="s" unicode="s" horiz-adv-x="471" 
d="M235 -10q-118 0 -189 52l-6 129h52q30 -130 146 -130q45 0 71 19.5t26 55.5q0 41 -29 61.5t-101 40.5q-81 23 -120.5 60.5t-39.5 105.5q0 74 50 118t135 44q97 0 170 -43v-120h-51q-23 111 -123 111q-38 0 -60 -20t-22 -52q0 -36 26.5 -58t88.5 -39q88 -24 131 -59.5
t43 -108.5q0 -75 -53 -121t-145 -46z" />
    <glyph glyph-name="t" unicode="t" horiz-adv-x="386" 
d="M205 654v-118h147v-60h-147v-337q0 -39 17.5 -55.5t56.5 -16.5q46 0 86 21l13 -31q-62 -67 -162 -67q-131 0 -131 130v356h-72v38q88 46 156 140h36z" />
    <glyph glyph-name="u" unicode="u" horiz-adv-x="646" 
d="M421 -10v98q-43 -45 -86.5 -71.5t-99.5 -26.5q-144 0 -144 166v262q0 26 -10.5 37.5t-42.5 16.5l-16 3v41l170 30h21v-375q0 -49 20 -72.5t63 -23.5q61 0 125 42v301q0 26 -10.5 37.5t-42.5 16.5l-15 3v41l168 30h22v-427q0 -26 10 -35.5t40 -12.5l25 -2v-45l-175 -34
h-22z" />
    <glyph glyph-name="v" unicode="v" horiz-adv-x="573" 
d="M568 536v-44q-33 -13 -42 -18.5t-16 -21.5l-203 -460h-32l-212 460q-7 15 -16.5 21.5t-41.5 18.5v44h265v-44q-42 -6 -56.5 -12.5t-14.5 -23.5q0 -12 8 -29l111 -272l114 272q7 20 7 29q0 17 -14.5 23.5t-55.5 12.5v44h199z" />
    <glyph glyph-name="w" unicode="w" horiz-adv-x="825" 
d="M593 169l95 258q6 18 6 29q0 17 -13 23.5t-50 12.5v44h189v-44q-33 -12 -42 -18t-15 -22l-178 -460h-36l-131 341l-136 -341h-35l-185 460q-7 16 -16.5 22.5t-40.5 17.5v44h250v-44q-34 -6 -47 -12.5t-13 -22.5q0 -13 8 -32l95 -257l90 236l-17 48q-6 16 -15.5 23
t-38.5 17v44h241v-44q-37 -6 -50 -12.5t-13 -23.5q0 -12 7 -31z" />
    <glyph glyph-name="x" unicode="x" horiz-adv-x="566" 
d="M74 85l146 185l-137 182q-23 31 -62 40v44h258v-44q-35 -5 -46 -10t-11 -18q0 -9 18 -33l75 -101l74 101q15 18 15 31t-9.5 17.5t-43.5 12.5v44h192v-44q-47 -15 -69 -41l-127 -164l150 -202q26 -36 64 -40v-45h-260v45q36 4 47.5 9.5t11.5 18.5q0 9 -17 32l-91 123
l-89 -123q-13 -19 -13 -30q0 -14 10 -19t45 -11v-45h-200v45q44 10 69 40z" />
    <glyph glyph-name="y" unicode="y" horiz-adv-x="579" 
d="M266 -3l-203 455q-7 15 -16.5 21.5t-41.5 18.5v44h265v-44q-42 -6 -56.5 -12.5t-14.5 -23.5q0 -13 8 -31l118 -289l112 289q8 21 8 31q0 17 -14.5 23.5t-55.5 12.5v44h199v-44q-33 -12 -42 -18t-16 -22l-224 -545q-24 -58 -53.5 -86t-75.5 -28q-54 0 -79 37v60h54
q50 0 73 13t39 54z" />
    <glyph glyph-name="z" unicode="z" horiz-adv-x="523" 
d="M34 0v30l301 454h-139q-37 0 -55 -24.5t-43 -99.5h-49v176h430v-33l-295 -451h132q44 0 72.5 29t52.5 103h50l-20 -184h-437z" />
    <glyph glyph-name="braceleft" unicode="{" horiz-adv-x="357" 
d="M50 304v22q83 17 83 100v216q0 59 48.5 93.5t133.5 34.5v-31q-93 -12 -93 -98v-214q0 -50 -20 -73.5t-71 -38.5q51 -15 71 -38.5t20 -73.5v-214q0 -86 93 -98v-31q-85 0 -133.5 34.5t-48.5 93.5v216q0 83 -83 100z" />
    <glyph glyph-name="bar" unicode="|" horiz-adv-x="271" 
d="M171 770v-911h-71v911h71z" />
    <glyph glyph-name="braceright" unicode="}" horiz-adv-x="357" 
d="M307 326v-22q-83 -17 -83 -100v-216q0 -59 -48.5 -93.5t-133.5 -34.5v31q92 12 92 98v214q0 50 20 73.5t71 38.5q-51 15 -71 38.5t-20 73.5v214q0 86 -92 98v31q85 0 133.5 -34.5t48.5 -93.5v-216q0 -83 83 -100z" />
    <glyph glyph-name="asciitilde" unicode="~" horiz-adv-x="532" 
d="M436 417l46 -10q-44 -141 -142 -141q-32 0 -88 30t-81 30t-41 -12t-34 -44l-46 10q23 74 58 107.5t85 33.5q31 0 87.5 -30t80.5 -30q25 0 41.5 12.5t33.5 43.5z" />
    <glyph glyph-name="exclamdown" unicode="&#xa1;" horiz-adv-x="305" 
d="M71 462q0 34 23.5 58t57.5 24t58 -24t24 -58q0 -35 -23.5 -59t-58.5 -24q-34 0 -57.5 24t-23.5 59zM181 320l48 -488h-153l47 488h58z" />
    <glyph glyph-name="cent" unicode="&#xa2;" horiz-adv-x="543" 
d="M181 -111l23 113q-78 24 -123 90.5t-45 160.5q0 128 76.5 211.5t201.5 84.5l26 125h49l-26 -128q65 -9 103 -41.5t38 -83.5q0 -48 -45 -66h-57v37q0 76 -51 95l-81 -395q29 -8 60 -8q94 0 157 84l26 -14q-48 -164 -226 -164q-19 0 -37 3l-21 -104h-48zM147 298
q0 -131 79 -185l77 382h-6q-66 0 -108 -53.5t-42 -143.5z" />
    <glyph glyph-name="sterling" unicode="&#xa3;" horiz-adv-x="676" 
d="M104 339v47h111l9 70q15 129 76.5 192.5t161.5 63.5q73 0 116.5 -27.5t43.5 -81.5q0 -24 -11 -42t-27 -25h-74v44q0 40 -13.5 60.5t-46.5 20.5q-40 0 -61 -39t-34 -120l-16 -116h165v-47h-172l-13 -98q-7 -52 -19 -86q112 -55 196 -55q51 0 75 22t24 79l30 3
q20 -31 20 -77q0 -137 -148 -137q-63 0 -123 29t-105 69q-54 -98 -149 -98q-52 0 -79.5 28t-27.5 73q0 48 31.5 78t81.5 30q35 0 65 -10l18 150h-105zM115 41q55 0 68 91q-34 16 -59 16q-28 0 -42 -16t-14 -41q0 -23 13 -36.5t34 -13.5z" />
    <glyph glyph-name="currency" unicode="&#xa4;" horiz-adv-x="582" 
d="M59 154l72 73q-37 51 -37 119t38 120l-73 72l41 40l72 -72q51 37 119 37t119 -37l72 71l40 -40l-72 -72q38 -53 38 -119q0 -65 -38 -120l73 -71l-41 -40l-72 72q-52 -38 -119 -38q-66 0 -120 38l-72 -73zM158 346q0 -61 38 -101t95 -40t95 40t38 101t-38 101t-95 40
t-95 -40t-38 -101z" />
    <glyph glyph-name="yen" unicode="&#xa5;" horiz-adv-x="677" 
d="M94 322v47h127l-146 248q-17 31 -60 37v48h295v-48q-49 -1 -66 -9.5t-17 -29.5q0 -18 18 -49l125 -226l127 226q17 31 17 49q0 21 -17.5 29.5t-65.5 9.5v48h232v-48q-43 -6 -61 -37l-147 -248h131v-47h-158l-28 -47v-24h186v-47h-186v-84q0 -42 22 -56t76 -16v-48h-321
v48q55 2 77 16t22 56v84h-182v47h182v24l-28 47h-154z" />
    <glyph glyph-name="brokenbar" unicode="&#xa6;" horiz-adv-x="271" 
d="M171 770v-376h-71v376h71zM171 235v-376h-71v376h71z" />
    <glyph glyph-name="section" unicode="&#xa7;" horiz-adv-x="523" 
d="M225 -202q-69 0 -111 27t-42 71q0 38 40 54h71v-22q0 -35 20 -60t58 -25q35 0 54.5 19t19.5 49q0 32 -21 68.5t-72 100t-67 85.5q-59 82 -90.5 155t-31.5 153q0 108 69 173.5t176 65.5q68 0 110 -27.5t42 -70.5q0 -38 -40 -54h-70v22q0 34 -20 59.5t-58 25.5
q-35 0 -54.5 -19t-19.5 -49q0 -25 16.5 -57.5t36 -58t54.5 -69.5t53 -69q59 -82 90.5 -155t31.5 -153q0 -108 -69 -173.5t-176 -65.5zM387 -95q30 47 30 132q0 122 -121 283q-5 7 -23.5 30.5t-25 33t-23 32t-24 34t-20 31.5t-18.5 34t-13 30.5t-10 31t-3 28.5
q-30 -47 -30 -132q0 -124 121 -283q6 -8 34.5 -45.5t38.5 -52t31.5 -47t30.5 -51.5t17 -44t8 -45z" />
    <glyph glyph-name="copyright" unicode="&#xa9;" horiz-adv-x="796" 
d="M82 351q0 -135 89.5 -228.5t226.5 -93.5t226.5 93.5t89.5 228.5t-89.5 228.5t-226.5 93.5t-226.5 -93.5t-89.5 -228.5zM40 351q0 151 101.5 256t256.5 105t256.5 -105t101.5 -256t-101.5 -256t-256.5 -105t-256.5 105t-101.5 256zM419 184q39 0 59 25t37 78h42l-9 -109
q-63 -36 -139 -36q-92 0 -147.5 56.5t-55.5 145.5q0 100 60 160t149 60q81 0 131 -41v-95h-41q-21 95 -89 95q-57 0 -85 -45.5t-28 -118.5q0 -77 30.5 -126t85.5 -49z" />
    <glyph glyph-name="ordfeminine" unicode="&#xaa;" horiz-adv-x="449" 
d="M191 377q35 0 71 27v125l-73 -30q-49 -20 -49 -64q0 -27 14 -42.5t37 -15.5zM358 589q0 -19 -1.5 -88t-1.5 -81q0 -46 31 -46q19 0 34 4l4 -26q-39 -37 -88 -37q-54 0 -72 65q-56 -64 -123 -64q-47 0 -73 28t-26 71q0 45 27 68.5t74 39.5l119 41v40q0 79 -57 79
q-52 0 -52 -51q0 -18 6 -41l-76 -10q-21 16 -21 44q0 45 41.5 71t107.5 26q147 0 147 -133z" />
    <glyph glyph-name="guillemotleft" unicode="&#xab;" horiz-adv-x="503" 
d="M42 270v10l167 193h59l-114 -198l114 -198h-59zM235 270v10l167 193h59l-115 -198l115 -198h-59z" />
    <glyph glyph-name="registered" unicode="&#xae;" horiz-adv-x="555" 
d="M270 583h-20v-93h20q25 0 38.5 12.5t13.5 35.5q0 45 -52 45zM171 607h110q46 0 70.5 -19.5t24.5 -49.5q0 -25 -17.5 -42.5t-40.5 -22.5l41 -55q20 -27 39 -27v-20h-55q-17 9 -36 39l-38 58h-19v-53q0 -14 6 -19t22 -5v-20h-107v20q17 0 23 5t6 19v146q0 15 -5.5 19
t-23.5 6v21zM87 484q0 -79 54.5 -136t135.5 -57q82 0 136.5 57t54.5 136q0 80 -54.5 137t-136.5 57q-81 0 -135.5 -57.5t-54.5 -136.5zM50 484q0 96 64.5 162t162.5 66q99 0 163.5 -66t64.5 -162q0 -95 -65 -161t-163 -66t-162.5 66t-64.5 161z" />
    <glyph glyph-name="degree" unicode="&#xb0;" horiz-adv-x="370" 
d="M89 558q0 -44 26 -72.5t70 -28.5t70 28.5t26 72.5q0 45 -26 73t-70 28t-70 -28t-26 -73zM29 558q0 66 45 110t111 44t111 -44t45 -110q0 -65 -45 -109t-111 -44t-111 44t-45 109z" />
    <glyph glyph-name="plusminus" unicode="&#xb1;" horiz-adv-x="576" 
d="M252 608h71v-141h186v-70h-186v-140h-71v140h-184v70h184v141zM68 135v71h441v-71h-441z" />
    <glyph glyph-name="twosuperior" unicode="&#xb2;" horiz-adv-x="420" 
d="M139 372h113q37 0 53 10.5t40 51.5h29l-15 -147h-334v31l120 115q57 54 80 89.5t23 72.5q0 36 -21.5 56.5t-59.5 20.5q-51 0 -106 -55l-21 22q25 47 68.5 78t101.5 31q66 0 103.5 -34.5t37.5 -94.5q0 -20 -5 -38t-18.5 -37.5t-23.5 -33t-35 -35t-37.5 -31.5t-46 -36
t-46.5 -36z" />
    <glyph glyph-name="threesuperior" unicode="&#xb3;" horiz-adv-x="417" 
d="M233 537q61 -5 98 -38.5t37 -85.5q0 -64 -51 -99.5t-126 -35.5q-74 0 -115 28t-41 68q0 35 29 49h61v-23q0 -85 72 -85q34 0 52.5 22t18.5 63q0 46 -27.5 69.5t-76.5 23.5h-23l-5 26q58 22 85 43t27 52q0 26 -18 42.5t-52 16.5q-58 0 -95 -61l-29 20q22 49 64.5 80.5
t102.5 31.5q57 0 91 -28t34 -73q0 -41 -33 -67.5t-80 -38.5z" />
    <glyph glyph-name="mu" unicode="&#xb5;" horiz-adv-x="645" 
d="M199 16l13 -177v-26l-121 -10v615q0 26 -10.5 37.5t-42.5 16.5l-16 3v41l170 30h21v-375q0 -49 20 -72.5t63 -23.5q60 0 124 42v301q0 26 -10.5 37.5t-42.5 16.5l-16 3v41l168 30h22v-427q0 -26 10 -35.5t40 -12.5l26 -2v-45l-176 -34h-21v98q-28 -29 -47 -45.5t-51 -33
t-64 -17.5q-41 -2 -59 24z" />
    <glyph glyph-name="paragraph" unicode="&#xb6;" horiz-adv-x="635" 
d="M323 -197v412q-128 0 -197.5 70t-69.5 177t69 173.5t198 66.5h286v-48q-56 -1 -79 -15.5t-23 -57.5v-778h-59v855h-66v-855h-59zM323 258v401q-71 -2 -105 -58.5t-34 -138.5q0 -83 34 -142.5t105 -61.5z" />
    <glyph glyph-name="periodcentered" unicode="&#xb7;" horiz-adv-x="274" 
d="M54 302q0 36 24 60t59 24t59 -24t24 -60q0 -35 -24 -59t-59 -24t-59 24t-24 59z" />
    <glyph glyph-name="onesuperior" unicode="&#xb9;" horiz-adv-x="381" 
d="M218 748h29v-376q0 -28 17.5 -35.5t72.5 -10.5v-39h-282v39q57 3 73.5 10.5t16.5 35.5v253h-90v34l29 6q48 9 76 27t58 56z" />
    <glyph glyph-name="ordmasculine" unicode="&#xba;" horiz-adv-x="454" 
d="M236 358q39 0 59.5 41t20.5 110q0 74 -25.5 122t-70.5 48q-40 0 -61 -41.5t-21 -110.5q0 -73 26 -121t72 -48zM224 315q-87 0 -138.5 54.5t-51.5 142.5q0 95 54.5 152.5t141.5 57.5t138.5 -54.5t51.5 -142.5q0 -95 -54 -152.5t-142 -57.5z" />
    <glyph glyph-name="guillemotright" unicode="&#xbb;" horiz-adv-x="503" 
d="M268 280v-10l-166 -193h-60l115 198l-115 198h60zM461 280v-10l-167 -193h-59l115 198l-115 198h59z" />
    <glyph glyph-name="onequarter" unicode="&#xbc;" horiz-adv-x="912" 
d="M521 96h156v193zM780 -71h-103v119h-221v38l246 302h78v-292h82v-48h-82v-119zM217 748h29v-376q0 -28 17.5 -35.5t72.5 -10.5v-39h-282v39q58 3 74.5 10.5t16.5 35.5v253h-91v34l29 6q48 9 76 27t58 56zM217 0l449 741h65l-450 -741h-64z" />
    <glyph glyph-name="onehalf" unicode="&#xbd;" horiz-adv-x="911" 
d="M218 748h29v-376q0 -28 17.5 -35.5t72.5 -10.5v-39h-282v39q57 3 73.5 10.5t16.5 35.5v253h-90v34l29 6q48 9 76 27t58 56zM217 0l449 741h66l-450 -741h-65zM631 13h111q37 0 53 10.5t40 51.5h29l-15 -147h-333v30l120 116q58 56 81 91t23 71q0 37 -22 57t-60 20
q-51 0 -106 -55l-22 22q25 47 69.5 78t101.5 31q66 0 103.5 -34t37.5 -95q0 -20 -5 -38.5t-18 -37.5t-24 -32.5t-35 -34.5t-37.5 -32t-45.5 -36t-46 -36z" />
    <glyph glyph-name="threequarters" unicode="&#xbe;" horiz-adv-x="926" 
d="M233 537q61 -5 98 -38.5t37 -85.5q0 -64 -51 -99.5t-126 -35.5q-74 0 -115 28t-41 68q0 35 29 49h61v-23q0 -85 72 -85q34 0 52.5 22t18.5 63q0 46 -27.5 69.5t-76.5 23.5h-23l-5 26q58 22 85 43t27 52q0 26 -18 42.5t-52 16.5q-58 0 -95 -61l-29 20q22 49 64.5 80.5
t102.5 31.5q57 0 91 -28t34 -73q0 -41 -33 -67.5t-80 -38.5zM535 96h157v193zM795 -71h-103v119h-222v38l246 302h79v-292h81v-48h-81v-119zM231 0l449 741h65l-450 -741h-64z" />
    <glyph glyph-name="questiondown" unicode="&#xbf;" horiz-adv-x="451" 
d="M149 -39q0 -41 24 -63.5t66 -22.5q82 0 82 90v42h89q26 -20 26 -53q0 -57 -56 -95t-140 -38q-95 0 -149.5 42.5t-54.5 124.5q0 59 30 101t90 84q44 29 61 56t17 67v30h37q38 -40 38 -94q0 -78 -73 -137q-22 -18 -28 -23.5t-22 -21t-21 -26t-10.5 -27.5t-5.5 -36zM335 461
q0 -35 -23.5 -59t-58.5 -24q-34 0 -57.5 24t-23.5 59q0 34 23.5 58t57.5 24t58 -24t24 -58z" />
    <glyph glyph-name="Agrave" unicode="&#xc0;" horiz-adv-x="734" 
d="M511 131l-40 95h-280l-37 -94q-11 -27 -11 -40q0 -23 19 -33t68 -11v-48h-224v48q47 7 59 37l228 553l-32 71h139l269 -624q13 -31 59 -37v-48h-292v48q49 2 67.5 11t18.5 32q0 16 -11 40zM329 569l-117 -291h238zM174 910h140l73 -152h-57z" />
    <glyph glyph-name="Aacute" unicode="&#xc1;" horiz-adv-x="734" 
d="M511 131l-40 95h-280l-37 -94q-11 -27 -11 -40q0 -23 19 -33t68 -11v-48h-224v48q47 7 59 37l228 553l-32 71h139l269 -624q13 -31 59 -37v-48h-292v48q49 2 67.5 11t18.5 32q0 16 -11 40zM329 569l-117 -291h238zM381 910h139l-155 -152h-58z" />
    <glyph glyph-name="Acircumflex" unicode="&#xc2;" horiz-adv-x="734" 
d="M511 131l-40 95h-280l-37 -94q-11 -27 -11 -40q0 -23 19 -33t68 -11v-48h-224v48q47 7 59 37l228 553l-32 71h139l269 -624q13 -31 59 -37v-48h-292v48q49 2 67.5 11t18.5 32q0 16 -11 40zM329 569l-117 -291h238zM391 919l147 -162h-61l-130 87l-130 -87h-61l147 162h88
z" />
    <glyph glyph-name="Atilde" unicode="&#xc3;" horiz-adv-x="734" 
d="M511 131l-40 95h-280l-37 -94q-11 -27 -11 -40q0 -23 19 -33t68 -11v-48h-224v48q47 7 59 37l228 553l-32 71h139l269 -624q13 -31 59 -37v-48h-292v48q49 2 67.5 11t18.5 32q0 16 -11 40zM329 569l-117 -291h238zM499 893l43 -10q-34 -78 -59.5 -103.5t-64.5 -25.5
q-32 0 -79 34t-65 34q-15 0 -26.5 -8t-18.5 -18t-20 -33l-44 10q35 78 60.5 103.5t64.5 25.5q33 0 79.5 -34.5t64.5 -34.5q21 0 33 13t32 47z" />
    <glyph glyph-name="Adieresis" unicode="&#xc4;" horiz-adv-x="734" 
d="M511 131l-40 95h-280l-37 -94q-11 -27 -11 -40q0 -23 19 -33t68 -11v-48h-224v48q47 7 59 37l228 553l-32 71h139l269 -624q13 -31 59 -37v-48h-292v48q49 2 67.5 11t18.5 32q0 16 -11 40zM329 569l-117 -291h238zM381 832q0 28 20.5 48t48.5 20q30 0 50 -20t20 -48
q0 -29 -20 -49.5t-50 -20.5q-28 0 -48.5 20.5t-20.5 49.5zM175 832q0 28 20.5 48t49.5 20q28 0 48.5 -20t20.5 -48q0 -29 -20 -49.5t-49 -20.5t-49.5 20.5t-20.5 49.5z" />
    <glyph glyph-name="Aring" unicode="&#xc5;" horiz-adv-x="734" 
d="M511 131l-40 95h-280l-37 -94q-11 -27 -11 -40q0 -23 19 -33t68 -11v-48h-224v48q47 7 59 37l228 553l-32 71h139l269 -624q13 -31 59 -37v-48h-292v48q49 2 67.5 11t18.5 32q0 16 -11 40zM329 569l-117 -291h238zM248 844q0 40 28 67t71 27t71 -27t28 -67
q0 -41 -28 -67.5t-71 -26.5t-71 26.5t-28 67.5zM397 844q0 23 -13 37t-37 14t-36.5 -14t-12.5 -37q0 -51 49 -51q24 0 37 14t13 37z" />
    <glyph glyph-name="AE" unicode="&#xc6;" horiz-adv-x="1056" 
d="M68 85l373 532q-7 20 -27.5 27.5t-67.5 9.5v48h639v-174h-42q-28 68 -56.5 94.5t-86.5 26.5h-163v-262h142q32 0 48 20t24 66h43v-227h-43q-8 46 -24 66.5t-48 20.5h-142v-212q0 -39 22 -53.5t73 -14.5h78q58 0 87 25.5t81 109.5h42l-30 -188h-574v48q53 2 74 16t21 56
v129h-256l-77 -112q-19 -27 -19 -52q0 -22 17.5 -28.5t71.5 -8.5v-48h-242v48q39 6 62 37zM511 617l-220 -316h220v316z" />
    <glyph glyph-name="Ccedilla" unicode="&#xc7;" horiz-adv-x="683" 
d="M292 -225l-8 38q116 0 116 44q0 39 -90 42l37 93q-140 10 -223.5 105t-83.5 239q0 171 100.5 273.5t252.5 102.5q142 0 223 -66v-156h-54q-40 164 -174 164q-105 0 -157 -81.5t-52 -207.5q0 -141 57.5 -228.5t164.5 -87.5q69 0 112 43t72 133h55l-21 -177
q-100 -57 -234 -58l-14 -37q105 -3 105 -75q0 -50 -52 -76.5t-132 -26.5z" />
    <glyph glyph-name="Egrave" unicode="&#xc8;" horiz-adv-x="673" 
d="M174 910h140l73 -152h-57zM512 246h-44q-8 46 -24 66.5t-48 20.5h-141v-212q0 -39 22 -53.5t73 -14.5h77q31 0 51.5 5.5t40.5 25t33.5 39t42.5 65.5h43l-31 -188h-574v48q53 2 74 16t21 56v463q0 42 -21 55.5t-74 15.5v48h569v-174h-42q-28 68 -56.5 94.5t-85.5 26.5
h-163v-262h141q32 0 48 20t24 66h44v-227z" />
    <glyph glyph-name="Eacute" unicode="&#xc9;" horiz-adv-x="673" 
d="M381 910h139l-155 -152h-58zM512 246h-44q-8 46 -24 66.5t-48 20.5h-141v-212q0 -39 22 -53.5t73 -14.5h77q31 0 51.5 5.5t40.5 25t33.5 39t42.5 65.5h43l-31 -188h-574v48q53 2 74 16t21 56v463q0 42 -21 55.5t-74 15.5v48h569v-174h-42q-28 68 -56.5 94.5t-85.5 26.5
h-163v-262h141q32 0 48 20t24 66h44v-227z" />
    <glyph glyph-name="Ecircumflex" unicode="&#xca;" horiz-adv-x="673" 
d="M512 246h-44q-8 46 -24 66.5t-48 20.5h-141v-212q0 -39 22 -53.5t73 -14.5h77q31 0 51.5 5.5t40.5 25t33.5 39t42.5 65.5h43l-31 -188h-574v48q53 2 74 16t21 56v463q0 42 -21 55.5t-74 15.5v48h569v-174h-42q-28 68 -56.5 94.5t-85.5 26.5h-163v-262h141q32 0 48 20
t24 66h44v-227zM392 919l147 -162h-61l-130 87l-130 -87h-61l147 162h88z" />
    <glyph glyph-name="Edieresis" unicode="&#xcb;" horiz-adv-x="673" 
d="M175 832q0 28 20.5 48t49.5 20q28 0 48.5 -20t20.5 -48q0 -29 -20 -49.5t-49 -20.5t-49.5 20.5t-20.5 49.5zM381 832q0 28 20.5 48t48.5 20q30 0 50 -20t20 -48q0 -29 -20 -49.5t-50 -20.5q-28 0 -48.5 20.5t-20.5 49.5zM512 246h-44q-8 46 -24 66.5t-48 20.5h-141v-212
q0 -39 22 -53.5t73 -14.5h77q31 0 51.5 5.5t40.5 25t33.5 39t42.5 65.5h43l-31 -188h-574v48q53 2 74 16t21 56v463q0 42 -21 55.5t-74 15.5v48h569v-174h-42q-28 68 -56.5 94.5t-85.5 26.5h-163v-262h141q32 0 48 20t24 66h44v-227z" />
    <glyph glyph-name="Igrave" unicode="&#xcc;" horiz-adv-x="383" 
d="M350 0h-317v48q53 2 74 16t21 56v463q0 42 -21 55.5t-74 15.5v48h317v-48q-53 -2 -74 -15.5t-21 -55.5v-463q0 -42 21 -56t74 -16v-48zM18 910h140l73 -152h-57z" />
    <glyph glyph-name="Iacute" unicode="&#xcd;" horiz-adv-x="383" 
d="M350 0h-317v48q53 2 74 16t21 56v463q0 42 -21 55.5t-74 15.5v48h317v-48q-53 -2 -74 -15.5t-21 -55.5v-463q0 -42 21 -56t74 -16v-48zM225 910h139l-155 -152h-58z" />
    <glyph glyph-name="Icircumflex" unicode="&#xce;" horiz-adv-x="383" 
d="M350 0h-317v48q53 2 74 16t21 56v463q0 42 -21 55.5t-74 15.5v48h317v-48q-53 -2 -74 -15.5t-21 -55.5v-463q0 -42 21 -56t74 -16v-48zM235 919l147 -162h-61l-130 87l-130 -87h-61l147 162h88z" />
    <glyph glyph-name="Idieresis" unicode="&#xcf;" horiz-adv-x="383" 
d="M350 0h-317v48q53 2 74 16t21 56v463q0 42 -21 55.5t-74 15.5v48h317v-48q-53 -2 -74 -15.5t-21 -55.5v-463q0 -42 21 -56t74 -16v-48zM19 832q0 28 20.5 48t49.5 20q28 0 48.5 -20t20.5 -48q0 -29 -20 -49.5t-49 -20.5t-49.5 20.5t-20.5 49.5zM225 832q0 28 20.5 48
t48.5 20q30 0 50 -20t20 -48q0 -29 -20 -49.5t-50 -20.5q-28 0 -48.5 20.5t-20.5 49.5z" />
    <glyph glyph-name="Eth" unicode="&#xd0;" horiz-adv-x="779" 
d="M43 335v51h95v197q0 42 -21 55.5t-74 15.5v48h313q187 0 285 -93t98 -241q0 -173 -101 -270.5t-261 -97.5h-334v48q53 2 74 16t21 56v215h-95zM334 648h-69v-262h158v-51h-158v-210q0 -42 20.5 -56.5t71.5 -14.5h18q107 0 166.5 75.5t59.5 220.5q0 130 -66.5 214
t-200.5 84z" />
    <glyph glyph-name="Ntilde" unicode="&#xd1;" horiz-adv-x="798" 
d="M547 893l43 -10q-34 -78 -59.5 -103.5t-64.5 -25.5q-32 0 -79 34t-65 34q-15 0 -26.5 -8t-18.5 -18t-20 -33l-44 10q35 78 60.5 103.5t64.5 25.5q33 0 79.5 -34.5t64.5 -34.5q21 0 33 13t32 47zM128 120v475q-28 35 -45 46.5t-50 12.5v48h201l378 -483v364q0 41 -22 55
t-75 16v48h260v-48q-53 -2 -74 -15.5t-21 -55.5v-583h-53l-431 539v-419q0 -42 22 -56t76 -16v-48h-261v48q53 2 74 16t21 56z" />
    <glyph glyph-name="Ograve" unicode="&#xd2;" horiz-adv-x="753" 
d="M206 910h140l73 -152h-57zM388 51q91 0 139 81.5t48 211.5q0 85 -21 152t-69.5 111t-119.5 44q-91 0 -139 -81.5t-48 -211.5q0 -132 53 -219.5t157 -87.5zM382 712q152 0 241.5 -100.5t89.5 -246.5q0 -168 -98 -271.5t-243 -103.5q-153 0 -242.5 100.5t-89.5 246.5
q0 168 98.5 271.5t243.5 103.5z" />
    <glyph glyph-name="Oacute" unicode="&#xd3;" horiz-adv-x="753" 
d="M413 910h139l-155 -152h-58zM388 51q91 0 139 81.5t48 211.5q0 85 -21 152t-69.5 111t-119.5 44q-91 0 -139 -81.5t-48 -211.5q0 -132 53 -219.5t157 -87.5zM382 712q152 0 241.5 -100.5t89.5 -246.5q0 -168 -98 -271.5t-243 -103.5q-153 0 -242.5 100.5t-89.5 246.5
q0 168 98.5 271.5t243.5 103.5z" />
    <glyph glyph-name="Ocircumflex" unicode="&#xd4;" horiz-adv-x="753" 
d="M388 51q91 0 139 81.5t48 211.5q0 85 -21 152t-69.5 111t-119.5 44q-91 0 -139 -81.5t-48 -211.5q0 -132 53 -219.5t157 -87.5zM382 712q152 0 241.5 -100.5t89.5 -246.5q0 -168 -98 -271.5t-243 -103.5q-153 0 -242.5 100.5t-89.5 246.5q0 168 98.5 271.5t243.5 103.5z
M423 919l147 -162h-61l-130 87l-130 -87h-61l147 162h88z" />
    <glyph glyph-name="Otilde" unicode="&#xd5;" horiz-adv-x="753" 
d="M525 893l43 -10q-34 -78 -59.5 -103.5t-64.5 -25.5q-32 0 -79 34t-65 34q-15 0 -26.5 -8t-18.5 -18t-20 -33l-44 10q35 78 60.5 103.5t64.5 25.5q33 0 79.5 -34.5t64.5 -34.5q21 0 33 13t32 47zM388 51q91 0 139 81.5t48 211.5q0 85 -21 152t-69.5 111t-119.5 44
q-91 0 -139 -81.5t-48 -211.5q0 -132 53 -219.5t157 -87.5zM382 712q152 0 241.5 -100.5t89.5 -246.5q0 -168 -98 -271.5t-243 -103.5q-153 0 -242.5 100.5t-89.5 246.5q0 168 98.5 271.5t243.5 103.5z" />
    <glyph glyph-name="Odieresis" unicode="&#xd6;" horiz-adv-x="753" 
d="M206 832q0 28 20.5 48t49.5 20q28 0 48.5 -20t20.5 -48q0 -29 -20 -49.5t-49 -20.5t-49.5 20.5t-20.5 49.5zM412 832q0 28 20.5 48t48.5 20q30 0 50 -20t20 -48q0 -29 -20 -49.5t-50 -20.5q-28 0 -48.5 20.5t-20.5 49.5zM388 51q91 0 139 81.5t48 211.5q0 85 -21 152
t-69.5 111t-119.5 44q-91 0 -139 -81.5t-48 -211.5q0 -132 53 -219.5t157 -87.5zM382 712q152 0 241.5 -100.5t89.5 -246.5q0 -168 -98 -271.5t-243 -103.5q-153 0 -242.5 100.5t-89.5 246.5q0 168 98.5 271.5t243.5 103.5z" />
    <glyph glyph-name="multiply" unicode="&#xd7;" horiz-adv-x="499" 
d="M200 365l-136 136l50 50l135 -137l136 137l51 -50l-137 -136l137 -136l-51 -49l-136 136l-135 -136l-50 49z" />
    <glyph glyph-name="Oslash" unicode="&#xd8;" horiz-adv-x="759" 
d="M651 727l-55 -87q58 -48 89 -120t31 -155q0 -168 -98 -271.5t-243 -103.5q-93 0 -165 39l-56 -89l-46 26l58 93q-59 48 -91 120.5t-32 157.5q0 168 98 271.5t243 103.5q94 0 169 -43l53 84zM180 358q0 -127 45 -207l279 442q-53 58 -136 58q-92 0 -140 -81.5t-48 -211.5z
M391 51q92 0 140 81.5t48 211.5q0 121 -42 202l-279 -441q52 -54 133 -54z" />
    <glyph glyph-name="Ugrave" unicode="&#xd9;" horiz-adv-x="769" 
d="M236 910h140l73 -152h-57zM234 583v-330q0 -90 43 -138.5t125 -48.5q95 0 143.5 45.5t48.5 149.5v322q0 41 -22.5 55t-75.5 16v48h261v-48q-53 -2 -73.5 -15.5t-20.5 -55.5v-344q0 -121 -77 -184.5t-194 -63.5q-136 0 -211 62.5t-75 186.5v343q0 42 -20.5 55.5
t-73.5 15.5v48h316v-48q-53 -2 -73.5 -15.5t-20.5 -55.5z" />
    <glyph glyph-name="Uacute" unicode="&#xda;" horiz-adv-x="769" 
d="M443 910h139l-155 -152h-58zM234 583v-330q0 -90 43 -138.5t125 -48.5q95 0 143.5 45.5t48.5 149.5v322q0 41 -22.5 55t-75.5 16v48h261v-48q-53 -2 -73.5 -15.5t-20.5 -55.5v-344q0 -121 -77 -184.5t-194 -63.5q-136 0 -211 62.5t-75 186.5v343q0 42 -20.5 55.5
t-73.5 15.5v48h316v-48q-53 -2 -73.5 -15.5t-20.5 -55.5z" />
    <glyph glyph-name="Ucircumflex" unicode="&#xdb;" horiz-adv-x="769" 
d="M234 583v-330q0 -90 43 -138.5t125 -48.5q95 0 143.5 45.5t48.5 149.5v322q0 41 -22.5 55t-75.5 16v48h261v-48q-53 -2 -73.5 -15.5t-20.5 -55.5v-344q0 -121 -77 -184.5t-194 -63.5q-136 0 -211 62.5t-75 186.5v343q0 42 -20.5 55.5t-73.5 15.5v48h316v-48
q-53 -2 -73.5 -15.5t-20.5 -55.5zM453 919l147 -162h-61l-130 87l-130 -87h-61l147 162h88z" />
    <glyph glyph-name="Udieresis" unicode="&#xdc;" horiz-adv-x="769" 
d="M236 832q0 28 20.5 48t49.5 20q28 0 48.5 -20t20.5 -48q0 -29 -20 -49.5t-49 -20.5t-49.5 20.5t-20.5 49.5zM442 832q0 28 20.5 48t48.5 20q30 0 50 -20t20 -48q0 -29 -20 -49.5t-50 -20.5q-28 0 -48.5 20.5t-20.5 49.5zM234 583v-330q0 -90 43 -138.5t125 -48.5
q95 0 143.5 45.5t48.5 149.5v322q0 41 -22.5 55t-75.5 16v48h261v-48q-53 -2 -73.5 -15.5t-20.5 -55.5v-344q0 -121 -77 -184.5t-194 -63.5q-136 0 -211 62.5t-75 186.5v343q0 42 -20.5 55.5t-73.5 15.5v48h316v-48q-53 -2 -73.5 -15.5t-20.5 -55.5z" />
    <glyph glyph-name="Yacute" unicode="&#xdd;" horiz-adv-x="677" 
d="M369 337l141 229q19 32 19 50q0 20 -18.5 28t-65.5 10v48h227v-48q-23 -3 -36 -10.5t-24 -26.5l-212 -342v-155q0 -42 22 -56t75 -16v-48h-319v48q54 2 75.5 16t21.5 56v155l-210 342q-18 31 -59 37v48h289v-48q-48 -1 -65.5 -9.5t-17.5 -28.5q0 -18 19 -50zM393 910h139
l-155 -152h-58z" />
    <glyph glyph-name="Thorn" unicode="&#xde;" horiz-adv-x="641" 
d="M255 499v-291h57q87 0 129 34t42 111q0 71 -44.5 108.5t-128.5 37.5h-55zM255 553h86q138 0 206.5 -55t68.5 -142q0 -94 -66.5 -147t-196.5 -53h-98v-36q0 -41 28.5 -55t96.5 -17v-48h-347v48q53 2 74 16t21 56v463q0 42 -21 55.5t-74 15.5v48h317v-48q-53 -2 -74 -15.5
t-21 -55.5v-30z" />
    <glyph glyph-name="germandbls" unicode="&#xdf;" horiz-adv-x="694" 
d="M428 422q0 -5 1 -10t4 -9.5t6 -8t9 -8.5t10.5 -8t14.5 -9t16 -9.5t19.5 -10.5t21.5 -12q67 -39 98.5 -75.5t31.5 -100.5q0 -76 -54 -123t-132 -47q-99 0 -159 55l-6 129h52q28 -133 112 -133q38 0 60.5 20.5t22.5 57.5q0 38 -23 61.5t-85 60.5q-60 34 -86 64.5t-26 76.5
q0 29 19 57.5t42.5 50t42.5 56.5t19 75q0 100 -97 100q-60 0 -94.5 -45t-34.5 -126v-551h-194v45q40 5 56 15t16 42v371h-74v42l74 24q7 109 76 168.5t178 59.5q90 0 142.5 -37.5t52.5 -107.5q0 -30 -13.5 -55t-33 -42.5t-39 -33t-33 -33t-13.5 -36.5z" />
    <glyph glyph-name="agrave" unicode="&#xe0;" horiz-adv-x="552" 
d="M237 73q50 0 100 35v175l-117 -45q-58 -22 -58 -79q0 -41 19.5 -63.5t55.5 -22.5zM458 363q0 -11 -1.5 -113.5t-1.5 -118.5q0 -63 41 -63q24 0 46 6l6 -32q-52 -52 -114 -52q-74 0 -94 91q-75 -90 -165 -90q-64 0 -99.5 38.5t-35.5 98.5q0 62 37 93.5t101 53.5l159 57v53
q0 109 -86 109q-73 0 -73 -70q0 -28 7 -57l-88 -13q-28 19 -28 59q0 63 55.5 98t144.5 35q189 0 189 -183zM106 763h137l71 -167h-56z" />
    <glyph glyph-name="aacute" unicode="&#xe1;" horiz-adv-x="552" 
d="M237 73q50 0 100 35v175l-117 -45q-58 -22 -58 -79q0 -41 19.5 -63.5t55.5 -22.5zM458 363q0 -11 -1.5 -113.5t-1.5 -118.5q0 -63 41 -63q24 0 46 6l6 -32q-52 -52 -114 -52q-74 0 -94 91q-75 -90 -165 -90q-64 0 -99.5 38.5t-35.5 98.5q0 62 37 93.5t101 53.5l159 57v53
q0 109 -86 109q-73 0 -73 -70q0 -28 7 -57l-88 -13q-28 19 -28 59q0 63 55.5 98t144.5 35q189 0 189 -183zM302 763h136l-152 -167h-57z" />
    <glyph glyph-name="acircumflex" unicode="&#xe2;" horiz-adv-x="552" 
d="M237 73q50 0 100 35v175l-117 -45q-58 -22 -58 -79q0 -41 19.5 -63.5t55.5 -22.5zM458 363q0 -11 -1.5 -113.5t-1.5 -118.5q0 -63 41 -63q24 0 46 6l6 -32q-52 -52 -114 -52q-74 0 -94 91q-75 -90 -165 -90q-64 0 -99.5 38.5t-35.5 98.5q0 62 37 93.5t101 53.5l159 57v53
q0 109 -86 109q-73 0 -73 -70q0 -28 7 -57l-88 -13q-28 19 -28 59q0 63 55.5 98t144.5 35q189 0 189 -183zM315 765l140 -171h-61l-123 96l-123 -96h-61l140 171h88z" />
    <glyph glyph-name="atilde" unicode="&#xe3;" horiz-adv-x="552" 
d="M237 73q50 0 100 35v175l-117 -45q-58 -22 -58 -79q0 -41 19.5 -63.5t55.5 -22.5zM458 363q0 -11 -1.5 -113.5t-1.5 -118.5q0 -63 41 -63q24 0 46 6l6 -32q-52 -52 -114 -52q-74 0 -94 91q-75 -90 -165 -90q-64 0 -99.5 38.5t-35.5 98.5q0 62 37 93.5t101 53.5l159 57v53
q0 109 -86 109q-73 0 -73 -70q0 -28 7 -57l-88 -13q-28 19 -28 59q0 63 55.5 98t144.5 35q189 0 189 -183zM422 751l43 -11q-34 -78 -59.5 -103.5t-64.5 -25.5q-32 0 -79 34.5t-65 34.5q-21 0 -34 -13.5t-31 -46.5l-44 10q35 79 60.5 104t64.5 25q33 0 79.5 -34t64.5 -34
q21 0 33 13t32 47z" />
    <glyph glyph-name="adieresis" unicode="&#xe4;" horiz-adv-x="552" 
d="M237 73q50 0 100 35v175l-117 -45q-58 -22 -58 -79q0 -41 19.5 -63.5t55.5 -22.5zM458 363q0 -11 -1.5 -113.5t-1.5 -118.5q0 -63 41 -63q24 0 46 6l6 -32q-52 -52 -114 -52q-74 0 -94 91q-75 -90 -165 -90q-64 0 -99.5 38.5t-35.5 98.5q0 62 37 93.5t101 53.5l159 57v53
q0 109 -86 109q-73 0 -73 -70q0 -28 7 -57l-88 -13q-28 19 -28 59q0 63 55.5 98t144.5 35q189 0 189 -183zM104 681q0 29 20 49t49 20t49.5 -20t20.5 -49t-20.5 -49.5t-49.5 -20.5t-49 20.5t-20 49.5zM303 681q0 29 20.5 49t48.5 20q29 0 49.5 -20t20.5 -49t-20.5 -49.5
t-49.5 -20.5t-49 20.5t-20 49.5z" />
    <glyph glyph-name="aring" unicode="&#xe5;" horiz-adv-x="552" 
d="M237 73q50 0 100 35v175l-117 -45q-58 -22 -58 -79q0 -41 19.5 -63.5t55.5 -22.5zM458 363q0 -11 -1.5 -113.5t-1.5 -118.5q0 -63 41 -63q24 0 46 6l6 -32q-52 -52 -114 -52q-74 0 -94 91q-75 -90 -165 -90q-64 0 -99.5 38.5t-35.5 98.5q0 62 37 93.5t101 53.5l159 57v53
q0 109 -86 109q-73 0 -73 -70q0 -28 7 -57l-88 -13q-28 19 -28 59q0 63 55.5 98t144.5 35q189 0 189 -183zM170 685q0 40 28 67t71 27q44 0 71.5 -27t27.5 -67q0 -41 -27.5 -67.5t-71.5 -26.5q-43 0 -71 26.5t-28 67.5zM319 685q0 23 -13 37t-37 14q-23 0 -36 -14t-13 -37
t13 -37t36 -14q24 0 37 14t13 37z" />
    <glyph glyph-name="ae" unicode="&#xe6;" horiz-adv-x="837" 
d="M591 546q99 0 153 -62.5t54 -162.5v-33h-349q0 -91 47.5 -146.5t126.5 -55.5q93 0 154 81l22 -13q-19 -75 -75.5 -119.5t-142.5 -44.5q-136 0 -201 109q-81 -108 -195 -108q-66 0 -105.5 39.5t-39.5 97.5q0 62 38.5 93.5t103.5 50.5l166 48q2 16 8 38q-6 136 -105 136
q-73 0 -73 -70q0 -28 7 -57l-88 -13q-28 19 -28 59q0 63 54 98t138 35q117 0 160 -73q70 73 170 73zM342 251v18l-120 -36q-60 -17 -60 -80q0 -37 20 -58.5t55 -21.5q67 0 132 49q-27 57 -27 129zM576 491q-52 0 -84.5 -44t-38.5 -109h232q0 71 -28 112t-81 41z" />
    <glyph glyph-name="ccedilla" unicode="&#xe7;" horiz-adv-x="517" 
d="M178 -225l-8 38q116 0 116 44q0 39 -90 42l38 94q-89 14 -142.5 83.5t-53.5 173.5q0 125 73.5 210.5t191.5 85.5q80 0 128.5 -34.5t48.5 -95.5q0 -47 -41 -65h-65v39q0 46 -20.5 73t-63.5 27q-62 0 -102 -53t-40 -137q0 -98 44 -156t124 -58q89 0 147 81l23 -14
q-46 -163 -213 -163h-2l-14 -37q105 -3 105 -75q0 -50 -52 -76.5t-132 -26.5z" />
    <glyph glyph-name="egrave" unicode="&#xe8;" horiz-adv-x="534" 
d="M288 546q99 0 153 -62.5t54 -162.5v-33h-349q0 -91 47.5 -146.5t126.5 -55.5q93 0 154 81l22 -13q-19 -75 -76 -119.5t-142 -44.5q-109 0 -174.5 73.5t-65.5 187.5q0 131 71 213t179 82zM272 491q-52 0 -84.5 -43.5t-38.5 -108.5h233q0 71 -28 111.5t-82 40.5zM116 763
h137l71 -167h-56z" />
    <glyph glyph-name="eacute" unicode="&#xe9;" horiz-adv-x="534" 
d="M315 763h136l-152 -167h-57zM288 546q99 0 153 -62.5t54 -162.5v-33h-349q0 -91 47.5 -146.5t126.5 -55.5q93 0 154 81l22 -13q-19 -75 -76 -119.5t-142 -44.5q-109 0 -174.5 73.5t-65.5 187.5q0 131 71 213t179 82zM272 491q-52 0 -84.5 -43.5t-38.5 -108.5h233
q0 71 -28 111.5t-82 40.5z" />
    <glyph glyph-name="ecircumflex" unicode="&#xea;" horiz-adv-x="534" 
d="M329 765l140 -171h-61l-123 96l-123 -96h-61l140 171h88zM288 546q99 0 153 -62.5t54 -162.5v-33h-349q0 -91 47.5 -146.5t126.5 -55.5q93 0 154 81l22 -13q-19 -75 -76 -119.5t-142 -44.5q-109 0 -174.5 73.5t-65.5 187.5q0 131 71 213t179 82zM272 491
q-52 0 -84.5 -43.5t-38.5 -108.5h233q0 71 -28 111.5t-82 40.5z" />
    <glyph glyph-name="edieresis" unicode="&#xeb;" horiz-adv-x="534" 
d="M115 681q0 29 20.5 49t48.5 20q29 0 49.5 -20t20.5 -49t-20.5 -49.5t-49.5 -20.5t-49 20.5t-20 49.5zM314 681q0 29 20 49t49 20t49.5 -20t20.5 -49t-20.5 -49.5t-49.5 -20.5t-49 20.5t-20 49.5zM288 546q99 0 153 -62.5t54 -162.5v-33h-349q0 -91 47.5 -146.5
t126.5 -55.5q93 0 154 81l22 -13q-19 -75 -76 -119.5t-142 -44.5q-109 0 -174.5 73.5t-65.5 187.5q0 131 71 213t179 82zM272 491q-52 0 -84.5 -43.5t-38.5 -108.5h233q0 71 -28 111.5t-82 40.5z" />
    <glyph glyph-name="igrave" unicode="&#xec;" horiz-adv-x="335" 
d="M231 546v-444q0 -32 16 -42t56 -15v-45h-265v45q27 4 39.5 7.5t22.5 15.5t10 34v328l-67 42v24l160 50h28zM-6 763h137l71 -167h-56z" />
    <glyph glyph-name="iacute" unicode="&#xed;" horiz-adv-x="335" 
d="M203 763h136l-152 -167h-57zM231 546v-444q0 -32 16 -42t56 -15v-45h-265v45q27 4 39.5 7.5t22.5 15.5t10 34v328l-67 42v24l160 50h28z" />
    <glyph glyph-name="icircumflex" unicode="&#xee;" horiz-adv-x="335" 
d="M213 765l140 -171h-61l-123 96l-123 -96h-61l140 171h88zM231 546v-444q0 -32 16 -42t56 -15v-45h-265v45q27 4 39.5 7.5t22.5 15.5t10 34v328l-67 42v24l160 50h28z" />
    <glyph glyph-name="idieresis" unicode="&#xef;" horiz-adv-x="335" 
d="M0 681q0 29 20 49t49 20t49.5 -20t20.5 -49t-20.5 -49.5t-49.5 -20.5t-49 20.5t-20 49.5zM199 681q0 29 20.5 49t48.5 20q29 0 49.5 -20t20.5 -49t-20.5 -49.5t-49.5 -20.5t-49 20.5t-20 49.5zM231 546v-444q0 -32 16 -42t56 -15v-45h-265v45q27 4 39.5 7.5t22.5 15.5
t10 34v328l-67 42v24l160 50h28z" />
    <glyph glyph-name="eth" unicode="&#xf0;" horiz-adv-x="589" 
d="M156 574l-16 40l124 47q-64 52 -144 80l20 35q115 -29 202 -85l113 44l16 -41l-87 -33q168 -136 168 -351q0 -154 -71.5 -237t-189.5 -83q-114 0 -183.5 75.5t-69.5 192.5q0 125 71 198t171 73q78 0 134 -65q-36 90 -113 165zM305 48q60 0 92 55.5t32 149.5
q0 100 -38 165t-104 65q-61 0 -92.5 -53t-31.5 -147q0 -101 38 -168t104 -67z" />
    <glyph glyph-name="ntilde" unicode="&#xf1;" horiz-adv-x="663" 
d="M446 102v270q0 46 -20 66.5t-64 20.5q-70 0 -131 -43v-314q0 -32 15.5 -42t54.5 -15v-45h-263v45q27 4 39.5 7.5t22.5 15.5t10 34v326l-67 43v25l160 52h28v-102q96 100 192 100q144 0 144 -164v-280q0 -32 16 -42t56 -15v-45h-264v45q39 5 55 15t16 42zM486 751l43 -11
q-34 -78 -59.5 -103.5t-64.5 -25.5q-32 0 -79 34.5t-65 34.5q-21 0 -34 -13.5t-31 -46.5l-44 10q35 79 60.5 104t64.5 25q33 0 79.5 -34t64.5 -34q21 0 33 13t32 47z" />
    <glyph glyph-name="ograve" unicode="&#xf2;" horiz-adv-x="592" 
d="M305 48q60 0 92 55.5t32 149.5q0 101 -38.5 168.5t-103.5 67.5q-61 0 -92.5 -56t-31.5 -150q0 -101 38 -168t104 -67zM291 -10q-114 0 -183.5 75.5t-69.5 192.5q0 129 75 208.5t187 79.5q114 0 184 -75.5t70 -192.5q0 -129 -75.5 -208.5t-187.5 -79.5zM122 763h137
l71 -167h-56z" />
    <glyph glyph-name="oacute" unicode="&#xf3;" horiz-adv-x="592" 
d="M332 763h136l-152 -167h-57zM305 48q60 0 92 55.5t32 149.5q0 101 -38.5 168.5t-103.5 67.5q-61 0 -92.5 -56t-31.5 -150q0 -101 38 -168t104 -67zM291 -10q-114 0 -183.5 75.5t-69.5 192.5q0 129 75 208.5t187 79.5q114 0 184 -75.5t70 -192.5q0 -129 -75.5 -208.5
t-187.5 -79.5z" />
    <glyph glyph-name="ocircumflex" unicode="&#xf4;" horiz-adv-x="592" 
d="M341 765l140 -171h-61l-123 96l-123 -96h-61l140 171h88zM305 48q60 0 92 55.5t32 149.5q0 101 -38.5 168.5t-103.5 67.5q-61 0 -92.5 -56t-31.5 -150q0 -101 38 -168t104 -67zM291 -10q-114 0 -183.5 75.5t-69.5 192.5q0 129 75 208.5t187 79.5q114 0 184 -75.5
t70 -192.5q0 -129 -75.5 -208.5t-187.5 -79.5z" />
    <glyph glyph-name="otilde" unicode="&#xf5;" horiz-adv-x="592" 
d="M305 48q60 0 92 55.5t32 149.5q0 101 -38.5 168.5t-103.5 67.5q-61 0 -92.5 -56t-31.5 -150q0 -101 38 -168t104 -67zM291 -10q-114 0 -183.5 75.5t-69.5 192.5q0 129 75 208.5t187 79.5q114 0 184 -75.5t70 -192.5q0 -129 -75.5 -208.5t-187.5 -79.5zM443 751l43 -11
q-34 -78 -59.5 -103.5t-64.5 -25.5q-32 0 -79 34.5t-65 34.5q-21 0 -34 -13.5t-31 -46.5l-44 10q35 79 60.5 104t64.5 25q33 0 79.5 -34t64.5 -34q21 0 33 13t32 47z" />
    <glyph glyph-name="odieresis" unicode="&#xf6;" horiz-adv-x="592" 
d="M129 681q0 29 20.5 49t48.5 20q29 0 49.5 -20t20.5 -49t-20.5 -49.5t-49.5 -20.5t-49 20.5t-20 49.5zM328 681q0 29 20 49t49 20t49.5 -20t20.5 -49t-20.5 -49.5t-49.5 -20.5t-49 20.5t-20 49.5zM305 48q60 0 92 55.5t32 149.5q0 101 -38.5 168.5t-103.5 67.5
q-61 0 -92.5 -56t-31.5 -150q0 -101 38 -168t104 -67zM291 -10q-114 0 -183.5 75.5t-69.5 192.5q0 129 75 208.5t187 79.5q114 0 184 -75.5t70 -192.5q0 -129 -75.5 -208.5t-187.5 -79.5z" />
    <glyph glyph-name="divide" unicode="&#xf7;" horiz-adv-x="576" 
d="M66 333v72h444v-72h-444zM227 195q0 26 17.5 44t42.5 18t43.5 -18t18.5 -44q0 -25 -18.5 -43t-43.5 -18t-42.5 18t-17.5 43zM227 543q0 25 17.5 42.5t42.5 17.5t43.5 -17.5t18.5 -42.5t-18.5 -43.5t-43.5 -18.5t-42.5 18.5t-17.5 43.5z" />
    <glyph glyph-name="oslash" unicode="&#xf8;" horiz-adv-x="592" 
d="M503 568l-44 -75q95 -76 95 -215q0 -129 -75.5 -208.5t-187.5 -79.5q-63 0 -115 25l-48 -81l-44 25l49 83q-95 76 -95 216q0 129 75 208.5t187 79.5q64 0 116 -26l44 74zM161 283q0 -93 25 -152l189 320q-35 38 -88 38q-61 0 -93.5 -56t-32.5 -150zM305 48
q60 0 92.5 55.5t32.5 149.5q0 91 -25 150l-189 -319q34 -36 89 -36z" />
    <glyph glyph-name="ugrave" unicode="&#xf9;" horiz-adv-x="646" 
d="M421 -10v98q-43 -45 -86.5 -71.5t-99.5 -26.5q-144 0 -144 166v262q0 26 -10.5 37.5t-42.5 16.5l-16 3v41l170 30h21v-375q0 -49 20 -72.5t63 -23.5q61 0 125 42v301q0 26 -10.5 37.5t-42.5 16.5l-15 3v41l168 30h22v-427q0 -26 10 -35.5t40 -12.5l25 -2v-45l-175 -34
h-22zM148 763h137l71 -167h-56z" />
    <glyph glyph-name="uacute" unicode="&#xfa;" horiz-adv-x="646" 
d="M357 763h136l-152 -167h-57zM421 -10v98q-43 -45 -86.5 -71.5t-99.5 -26.5q-144 0 -144 166v262q0 26 -10.5 37.5t-42.5 16.5l-16 3v41l170 30h21v-375q0 -49 20 -72.5t63 -23.5q61 0 125 42v301q0 26 -10.5 37.5t-42.5 16.5l-15 3v41l168 30h22v-427q0 -26 10 -35.5
t40 -12.5l25 -2v-45l-175 -34h-22z" />
    <glyph glyph-name="ucircumflex" unicode="&#xfb;" horiz-adv-x="646" 
d="M367 765l140 -171h-61l-123 96l-123 -96h-61l140 171h88zM421 -10v98q-43 -45 -86.5 -71.5t-99.5 -26.5q-144 0 -144 166v262q0 26 -10.5 37.5t-42.5 16.5l-16 3v41l170 30h21v-375q0 -49 20 -72.5t63 -23.5q61 0 125 42v301q0 26 -10.5 37.5t-42.5 16.5l-15 3v41l168 30
h22v-427q0 -26 10 -35.5t40 -12.5l25 -2v-45l-175 -34h-22z" />
    <glyph glyph-name="udieresis" unicode="&#xfc;" horiz-adv-x="646" 
d="M151 681q0 29 20.5 49t48.5 20q29 0 49.5 -20t20.5 -49t-20.5 -49.5t-49.5 -20.5t-49 20.5t-20 49.5zM350 681q0 29 20 49t49 20t49.5 -20t20.5 -49t-20.5 -49.5t-49.5 -20.5t-49 20.5t-20 49.5zM421 -10v98q-43 -45 -86.5 -71.5t-99.5 -26.5q-144 0 -144 166v262
q0 26 -10.5 37.5t-42.5 16.5l-16 3v41l170 30h21v-375q0 -49 20 -72.5t63 -23.5q61 0 125 42v301q0 26 -10.5 37.5t-42.5 16.5l-15 3v41l168 30h22v-427q0 -26 10 -35.5t40 -12.5l25 -2v-45l-175 -34h-22z" />
    <glyph glyph-name="yacute" unicode="&#xfd;" horiz-adv-x="579" 
d="M266 -3l-203 455q-7 15 -16.5 21.5t-41.5 18.5v44h265v-44q-42 -6 -56.5 -12.5t-14.5 -23.5q0 -13 8 -31l118 -289l112 289q8 21 8 31q0 17 -14.5 23.5t-55.5 12.5v44h199v-44q-33 -12 -42 -18t-16 -22l-224 -545q-24 -58 -53.5 -86t-75.5 -28q-54 0 -79 37v60h54
q50 0 73 13t39 54zM356 763h136l-152 -167h-57z" />
    <glyph glyph-name="thorn" unicode="&#xfe;" horiz-adv-x="614" 
d="M200 426v-255q0 -62 29 -95t83 -33q64 0 103 56.5t39 149.5t-37.5 154t-108.5 61q-68 0 -108 -38zM79 -95v741l-67 43v25l161 47h27v-305q63 90 167 90q98 0 153.5 -70t55.5 -182q0 -138 -73.5 -221t-185.5 -83q-82 0 -117 45v-130q0 -31 16.5 -41.5t56.5 -15.5v-45h-267
v45q27 4 40 7.5t23 15.5t10 34z" />
    <glyph glyph-name="ydieresis" unicode="&#xff;" horiz-adv-x="579" 
d="M266 -3l-203 455q-7 15 -16.5 21.5t-41.5 18.5v44h265v-44q-42 -6 -56.5 -12.5t-14.5 -23.5q0 -13 8 -31l118 -289l112 289q8 21 8 31q0 17 -14.5 23.5t-55.5 12.5v44h199v-44q-33 -12 -42 -18t-16 -22l-224 -545q-24 -58 -53.5 -86t-75.5 -28q-54 0 -79 37v60h54
q50 0 73 13t39 54zM153 681q0 29 20.5 49t48.5 20q29 0 49.5 -20t20.5 -49t-20.5 -49.5t-49.5 -20.5t-49 20.5t-20 49.5zM352 681q0 29 20 49t49 20t49.5 -20t20.5 -49t-20.5 -49.5t-49.5 -20.5t-49 20.5t-20 49.5z" />
    <glyph glyph-name="Amacron" unicode="&#x100;" horiz-adv-x="734" 
d="M511 131l-40 95h-280l-37 -94q-11 -27 -11 -40q0 -23 19 -33t68 -11v-48h-224v48q47 7 59 37l228 553l-32 71h139l269 -624q13 -31 59 -37v-48h-292v48q49 2 67.5 11t18.5 32q0 16 -11 40zM329 569l-117 -291h238zM201 776v75h292v-75h-292z" />
    <glyph glyph-name="amacron" unicode="&#x101;" horiz-adv-x="552" 
d="M237 73q50 0 100 35v175l-117 -45q-58 -22 -58 -79q0 -41 19.5 -63.5t55.5 -22.5zM458 363q0 -11 -1.5 -113.5t-1.5 -118.5q0 -63 41 -63q24 0 46 6l6 -32q-52 -52 -114 -52q-74 0 -94 91q-75 -90 -165 -90q-64 0 -99.5 38.5t-35.5 98.5q0 62 37 93.5t101 53.5l159 57v53
q0 109 -86 109q-73 0 -73 -70q0 -28 7 -57l-88 -13q-28 19 -28 59q0 63 55.5 98t144.5 35q189 0 189 -183zM134 624v71h276v-71h-276z" />
    <glyph glyph-name="Abreve" unicode="&#x102;" horiz-adv-x="734" 
d="M511 131l-40 95h-280l-37 -94q-11 -27 -11 -40q0 -23 19 -33t68 -11v-48h-224v48q47 7 59 37l228 553l-32 71h139l269 -624q13 -31 59 -37v-48h-292v48q49 2 67.5 11t18.5 32q0 16 -11 40zM329 569l-117 -291h238zM347 754q-71 0 -112.5 43t-41.5 118h47
q4 -45 34.5 -66.5t72.5 -21.5t72.5 21.5t34.5 66.5h47q0 -75 -41.5 -118t-112.5 -43z" />
    <glyph glyph-name="abreve" unicode="&#x103;" horiz-adv-x="552" 
d="M237 73q50 0 100 35v175l-117 -45q-58 -22 -58 -79q0 -41 19.5 -63.5t55.5 -22.5zM458 363q0 -11 -1.5 -113.5t-1.5 -118.5q0 -63 41 -63q24 0 46 6l6 -32q-52 -52 -114 -52q-74 0 -94 91q-75 -90 -165 -90q-64 0 -99.5 38.5t-35.5 98.5q0 62 37 93.5t101 53.5l159 57v53
q0 109 -86 109q-73 0 -73 -70q0 -28 7 -57l-88 -13q-28 19 -28 59q0 63 55.5 98t144.5 35q189 0 189 -183zM268 596q-70 0 -108 44.5t-38 124.5h48q5 -49 32 -72t66 -23q40 0 67 23t32 72h48q0 -80 -38.5 -124.5t-108.5 -44.5z" />
    <glyph glyph-name="Aogonek" unicode="&#x104;" horiz-adv-x="734" 
d="M511 131l-40 95h-279l-38 -94q-11 -27 -11 -40q0 -23 19 -33t68 -11v-48h-224v48q47 7 59 37l228 553l-32 71h139l269 -624q13 -31 59 -37v-48h-263q-77 -40 -77 -102q0 -21 12.5 -33.5t35.5 -12.5q42 0 86 31l14 -20q-63 -74 -133 -74q-40 0 -66.5 24t-26.5 65
q0 48 33 83.5t105 67.5q56 25 65 36q9 10 9 26t-11 40zM329 569l-117 -291h238z" />
    <glyph glyph-name="aogonek" unicode="&#x105;" horiz-adv-x="552" 
d="M458 363q0 -11 -1.5 -113.5t-1.5 -118.5q0 -63 41 -63q24 0 46 6l6 -32q-14 -8 -47.5 -26t-49 -28.5t-36.5 -26.5t-30 -32t-9 -35t12 -30.5t35 -11.5q41 0 85 31l14 -20q-63 -75 -134 -75q-40 0 -66 22t-26 61q0 74 106 127q-49 16 -62 83q-75 -90 -165 -90
q-64 0 -99.5 38.5t-35.5 98.5q0 62 37 93.5t101 53.5l159 57v53q0 109 -86 109q-73 0 -73 -70q0 -28 7 -57l-88 -13q-28 19 -28 59q0 63 55.5 98t144.5 35q189 0 189 -183zM237 73q50 0 100 35v175l-117 -45q-58 -22 -58 -79q0 -41 19.5 -63.5t55.5 -22.5z" />
    <glyph glyph-name="Cacute" unicode="&#x106;" horiz-adv-x="683" 
d="M401 49q69 0 112 43t72 133h55l-21 -177q-104 -58 -238 -58q-155 0 -248 96.5t-93 249.5q0 171 100.5 273.5t252.5 102.5q142 0 223 -66v-156h-54q-40 164 -174 164q-105 0 -157 -81.5t-52 -207.5q0 -141 57.5 -228.5t164.5 -87.5zM417 910h139l-155 -152h-58z" />
    <glyph glyph-name="cacute" unicode="&#x107;" horiz-adv-x="517" 
d="M324 763h136l-152 -167h-57zM148 300q0 -98 44 -156t124 -58q89 0 147 81l23 -14q-46 -163 -213 -163q-105 0 -170 72t-65 188q0 125 73.5 210.5t191.5 85.5q80 0 128.5 -34.5t48.5 -95.5q0 -47 -41 -65h-65v39q0 46 -20.5 73t-63.5 27q-62 0 -102 -53t-40 -137z" />
    <glyph glyph-name="Ccircumflex" unicode="&#x108;" horiz-adv-x="683" 
d="M401 49q69 0 112 43t72 133h55l-21 -177q-104 -58 -238 -58q-155 0 -248 96.5t-93 249.5q0 171 100.5 273.5t252.5 102.5q142 0 223 -66v-156h-54q-40 164 -174 164q-105 0 -157 -81.5t-52 -207.5q0 -141 57.5 -228.5t164.5 -87.5zM429 919l147 -162h-61l-130 87
l-130 -87h-61l147 162h88z" />
    <glyph glyph-name="ccircumflex" unicode="&#x109;" horiz-adv-x="517" 
d="M333 765l140 -171h-61l-123 96l-123 -96h-61l140 171h88zM148 300q0 -98 44 -156t124 -58q89 0 147 81l23 -14q-46 -163 -213 -163q-105 0 -170 72t-65 188q0 125 73.5 210.5t191.5 85.5q80 0 128.5 -34.5t48.5 -95.5q0 -47 -41 -65h-65v39q0 46 -20.5 73t-63.5 27
q-62 0 -102 -53t-40 -137z" />
    <glyph glyph-name="Cdotaccent" unicode="&#x10a;" horiz-adv-x="683" 
d="M385 760q-33 0 -54.5 22t-21.5 53t22 53.5t54 22.5t54 -22.5t22 -53.5t-21.5 -53t-54.5 -22zM401 49q69 0 112 43t72 133h55l-21 -177q-104 -58 -238 -58q-155 0 -248 96.5t-93 249.5q0 171 100.5 273.5t252.5 102.5q142 0 223 -66v-156h-54q-40 164 -174 164
q-105 0 -157 -81.5t-52 -207.5q0 -141 57.5 -228.5t164.5 -87.5z" />
    <glyph glyph-name="cdotaccent" unicode="&#x10b;" horiz-adv-x="517" 
d="M148 300q0 -98 44 -156t124 -58q89 0 147 81l23 -14q-46 -163 -213 -163q-105 0 -170 72t-65 188q0 125 73.5 210.5t191.5 85.5q80 0 128.5 -34.5t48.5 -95.5q0 -47 -41 -65h-65v39q0 46 -20.5 73t-63.5 27q-62 0 -102 -53t-40 -137zM289 607q-33 0 -54.5 22t-21.5 54
q0 31 21.5 53t54.5 22t54.5 -22t21.5 -53q0 -32 -21.5 -54t-54.5 -22z" />
    <glyph glyph-name="Ccaron" unicode="&#x10c;" horiz-adv-x="683" 
d="M401 49q69 0 112 43t72 133h55l-21 -177q-104 -58 -238 -58q-155 0 -248 96.5t-93 249.5q0 171 100.5 273.5t252.5 102.5q142 0 223 -66v-156h-54q-40 164 -174 164q-105 0 -157 -81.5t-52 -207.5q0 -141 57.5 -228.5t164.5 -87.5zM576 920l-147 -162h-88l-147 162h61
l130 -87l130 87h61z" />
    <glyph glyph-name="ccaron" unicode="&#x10d;" horiz-adv-x="517" 
d="M473 771l-140 -172h-88l-140 172h61l123 -96l123 96h61zM148 300q0 -98 44 -156t124 -58q89 0 147 81l23 -14q-46 -163 -213 -163q-105 0 -170 72t-65 188q0 125 73.5 210.5t191.5 85.5q80 0 128.5 -34.5t48.5 -95.5q0 -47 -41 -65h-65v39q0 46 -20.5 73t-63.5 27
q-62 0 -102 -53t-40 -137z" />
    <glyph glyph-name="Dcaron" unicode="&#x10e;" horiz-adv-x="769" 
d="M561 920l-147 -162h-88l-147 162h61l130 -87l130 87h61zM324 648h-69v-523q0 -42 20.5 -56.5t71.5 -14.5h18q107 0 166.5 75.5t59.5 220.5q0 130 -66.5 214t-200.5 84zM33 654v48h313q187 0 285 -93t98 -241q0 -173 -101 -270.5t-261 -97.5h-334v48q53 2 74 16t21 56v463
q0 42 -21 55.5t-74 15.5z" />
    <glyph glyph-name="dcaron" unicode="&#x10f;" horiz-adv-x="647" 
d="M749 763l-86 -205h-47l18 205h115zM414 -10v92q-64 -92 -165 -92q-97 0 -154 70t-57 182q0 138 74 220t187 82q80 0 115 -46v148l-68 43v25l162 47h27v-642q0 -26 10 -35.5t41 -12.5l25 -2v-45l-175 -34h-22zM303 492q-65 0 -104 -57.5t-39 -150.5q0 -92 38 -151.5
t108 -59.5q66 0 108 39v253q0 127 -111 127z" />
    <glyph glyph-name="Dcroat" unicode="&#x110;" horiz-adv-x="779" 
d="M43 335v51h95v197q0 42 -21 55.5t-74 15.5v48h313q187 0 285 -93t98 -241q0 -173 -101 -270.5t-261 -97.5h-334v48q53 2 74 16t21 56v215h-95zM334 648h-69v-262h158v-51h-158v-210q0 -42 20.5 -56.5t71.5 -14.5h18q107 0 166.5 75.5t59.5 220.5q0 130 -66.5 214
t-200.5 84z" />
    <glyph glyph-name="dcroat" unicode="&#x111;" horiz-adv-x="641" 
d="M611 582h-76v-463q0 -26 10 -35.5t41 -12.5l25 -2v-45l-175 -34h-22v92q-64 -92 -165 -92q-97 0 -154 70t-57 182q0 136 73.5 212.5t182.5 76.5q39 0 71.5 -13t48.5 -35v99h-137v43h137v62h-68v33l162 41h27v-136h76v-43zM303 479q-66 0 -104.5 -51.5t-38.5 -143.5
t38 -151.5t108 -59.5q66 0 108 39v240q0 127 -111 127z" />
    <glyph glyph-name="Emacron" unicode="&#x112;" horiz-adv-x="673" 
d="M202 776v75h292v-75h-292zM512 246h-44q-8 46 -24 66.5t-48 20.5h-141v-212q0 -39 22 -53.5t73 -14.5h77q31 0 51.5 5.5t40.5 25t33.5 39t42.5 65.5h43l-31 -188h-574v48q53 2 74 16t21 56v463q0 42 -21 55.5t-74 15.5v48h569v-174h-42q-28 68 -56.5 94.5t-85.5 26.5
h-163v-262h141q32 0 48 20t24 66h44v-227z" />
    <glyph glyph-name="emacron" unicode="&#x113;" horiz-adv-x="534" 
d="M288 546q99 0 153 -62.5t54 -162.5v-33h-349q0 -91 47.5 -146.5t126.5 -55.5q93 0 154 81l22 -13q-19 -75 -76 -119.5t-142 -44.5q-109 0 -174.5 73.5t-65.5 187.5q0 131 71 213t179 82zM272 491q-52 0 -84.5 -43.5t-38.5 -108.5h233q0 71 -28 111.5t-82 40.5zM144 624
v71h276v-71h-276z" />
    <glyph glyph-name="Ebreve" unicode="&#x114;" horiz-adv-x="673" 
d="M348 754q-71 0 -112.5 43t-41.5 118h47q4 -45 34.5 -66.5t72.5 -21.5t72.5 21.5t34.5 66.5h47q0 -75 -41.5 -118t-112.5 -43zM512 246h-44q-8 46 -24 66.5t-48 20.5h-141v-212q0 -39 22 -53.5t73 -14.5h77q31 0 51.5 5.5t40.5 25t33.5 39t42.5 65.5h43l-31 -188h-574v48
q53 2 74 16t21 56v463q0 42 -21 55.5t-74 15.5v48h569v-174h-42q-28 68 -56.5 94.5t-85.5 26.5h-163v-262h141q32 0 48 20t24 66h44v-227z" />
    <glyph glyph-name="Edotaccent" unicode="&#x116;" horiz-adv-x="673" 
d="M348 760q-33 0 -54.5 22t-21.5 53t22 53.5t54 22.5t54 -22.5t22 -53.5t-21.5 -53t-54.5 -22zM512 246h-44q-8 46 -24 66.5t-48 20.5h-141v-212q0 -39 22 -53.5t73 -14.5h77q31 0 51.5 5.5t40.5 25t33.5 39t42.5 65.5h43l-31 -188h-574v48q53 2 74 16t21 56v463
q0 42 -21 55.5t-74 15.5v48h569v-174h-42q-28 68 -56.5 94.5t-85.5 26.5h-163v-262h141q32 0 48 20t24 66h44v-227z" />
    <glyph glyph-name="edotaccent" unicode="&#x117;" horiz-adv-x="534" 
d="M288 546q99 0 153 -62.5t54 -162.5v-33h-349q0 -91 47.5 -146.5t126.5 -55.5q93 0 154 81l22 -13q-19 -75 -76 -119.5t-142 -44.5q-109 0 -174.5 73.5t-65.5 187.5q0 131 71 213t179 82zM272 491q-52 0 -84.5 -43.5t-38.5 -108.5h233q0 71 -28 111.5t-82 40.5zM281 607
q-33 0 -54.5 22t-21.5 54q0 31 21.5 53t54.5 22t54.5 -22t21.5 -53q0 -32 -21.5 -54t-54.5 -22z" />
    <glyph glyph-name="Eogonek" unicode="&#x118;" horiz-adv-x="673" 
d="M512 246h-44q-8 46 -24 66.5t-48 20.5h-141v-212q0 -39 22 -53.5t73 -14.5h77q31 0 51.5 5.5t40.5 25t33.5 39t42.5 65.5h43l-31 -188h-52q-104 -49 -104 -106q0 -19 12.5 -30.5t35.5 -11.5q41 0 85 31l14 -20q-63 -75 -134 -75q-40 0 -66 22t-26 61q0 75 112 129h-451
v48q53 2 74 16t21 56v463q0 42 -21 55.5t-74 15.5v48h569v-174h-42q-28 68 -56.5 94.5t-85.5 26.5h-163v-262h141q32 0 48 20t24 66h44v-227z" />
    <glyph glyph-name="eogonek" unicode="&#x119;" horiz-adv-x="534" 
d="M288 546q99 0 153 -62.5t54 -162.5v-33h-349q0 -91 47.5 -146.5t126.5 -55.5q93 0 154 81l22 -13q-29 -112 -129 -149q-99 -49 -99 -111q0 -19 12 -30.5t35 -11.5q42 0 86 31l14 -20q-63 -75 -135 -75q-40 0 -65.5 22t-25.5 61q0 67 83 119q-106 2 -170 75t-64 186
q0 131 71 213t179 82zM272 491q-52 0 -84.5 -43.5t-38.5 -108.5h233q0 71 -28 111.5t-82 40.5z" />
    <glyph glyph-name="Ecaron" unicode="&#x11a;" horiz-adv-x="673" 
d="M539 920l-147 -162h-88l-147 162h61l130 -87l130 87h61zM512 246h-44q-8 46 -24 66.5t-48 20.5h-141v-212q0 -39 22 -53.5t73 -14.5h77q31 0 51.5 5.5t40.5 25t33.5 39t42.5 65.5h43l-31 -188h-574v48q53 2 74 16t21 56v463q0 42 -21 55.5t-74 15.5v48h569v-174h-42
q-28 68 -56.5 94.5t-85.5 26.5h-163v-262h141q32 0 48 20t24 66h44v-227z" />
    <glyph glyph-name="ecaron" unicode="&#x11b;" horiz-adv-x="534" 
d="M467 771l-140 -172h-88l-140 172h61l123 -96l123 96h61zM288 546q99 0 153 -62.5t54 -162.5v-33h-349q0 -91 47.5 -146.5t126.5 -55.5q93 0 154 81l22 -13q-19 -75 -76 -119.5t-142 -44.5q-109 0 -174.5 73.5t-65.5 187.5q0 131 71 213t179 82zM272 491
q-52 0 -84.5 -43.5t-38.5 -108.5h233q0 71 -28 111.5t-82 40.5z" />
    <glyph glyph-name="Gcircumflex" unicode="&#x11c;" horiz-adv-x="744" 
d="M40 336q0 170 103 273t254 103q146 0 227 -66v-156h-54q-40 164 -178 164q-105 0 -159 -82t-54 -207q0 -142 56.5 -229t166.5 -87q73 0 115 34v137q0 41 -20 55t-71 16v47h297v-47q-50 -2 -68 -16t-18 -55v-158q-102 -72 -249 -72q-161 0 -254.5 96t-93.5 250zM437 919
l147 -162h-61l-130 87l-130 -87h-61l147 162h88z" />
    <glyph glyph-name="gcircumflex" unicode="&#x11d;" horiz-adv-x="560" 
d="M264 191q-51 0 -96 15q-37 -38 -37 -65q0 -29 33 -29h231q153 0 153 -127q0 -87 -82.5 -139.5t-214.5 -52.5q-112 0 -173 30.5t-61 91.5q0 62 92 97q-62 23 -62 83q0 63 96 123q-90 46 -90 144q0 84 60 134t155 50q49 0 93 -16l182 11v-75h-39l-95 21v-6q69 -40 69 -115
q0 -80 -59 -127.5t-155 -47.5zM376 -2h-248q-20 -20 -20 -53q0 -100 157 -100q84 0 134.5 25.5t50.5 75.5q0 30 -18.5 41t-55.5 11zM273 236q44 0 66 32.5t22 89.5q0 61 -27.5 101t-75.5 40q-44 0 -65.5 -32.5t-21.5 -89.5q0 -61 27 -101t75 -40zM329 765l140 -171h-61
l-123 96l-123 -96h-61l140 171h88z" />
    <glyph glyph-name="Gbreve" unicode="&#x11e;" horiz-adv-x="744" 
d="M392 754q-71 0 -112.5 43t-41.5 118h47q4 -45 34.5 -66.5t72.5 -21.5t72.5 21.5t34.5 66.5h47q0 -75 -41.5 -118t-112.5 -43zM40 336q0 170 103 273t254 103q146 0 227 -66v-156h-54q-40 164 -178 164q-105 0 -159 -82t-54 -207q0 -142 56.5 -229t166.5 -87q73 0 115 34
v137q0 41 -20 55t-71 16v47h297v-47q-50 -2 -68 -16t-18 -55v-158q-102 -72 -249 -72q-161 0 -254.5 96t-93.5 250z" />
    <glyph glyph-name="gbreve" unicode="&#x11f;" horiz-adv-x="560" 
d="M264 191q-51 0 -96 15q-37 -38 -37 -65q0 -29 33 -29h231q153 0 153 -127q0 -87 -82.5 -139.5t-214.5 -52.5q-112 0 -173 30.5t-61 91.5q0 62 92 97q-62 23 -62 83q0 63 96 123q-90 46 -90 144q0 84 60 134t155 50q49 0 93 -16l182 11v-75h-39l-95 21v-6q69 -40 69 -115
q0 -80 -59 -127.5t-155 -47.5zM376 -2h-248q-20 -20 -20 -53q0 -100 157 -100q84 0 134.5 25.5t50.5 75.5q0 30 -18.5 41t-55.5 11zM273 236q44 0 66 32.5t22 89.5q0 61 -27.5 101t-75.5 40q-44 0 -65.5 -32.5t-21.5 -89.5q0 -61 27 -101t75 -40zM285 596q-70 0 -108 44.5
t-38 124.5h48q5 -49 32 -72t66 -23q40 0 67 23t32 72h48q0 -80 -38.5 -124.5t-108.5 -44.5z" />
    <glyph glyph-name="Gdotaccent" unicode="&#x120;" horiz-adv-x="744" 
d="M394 760q-33 0 -54.5 22t-21.5 53t22 53.5t54 22.5t54 -22.5t22 -53.5t-21.5 -53t-54.5 -22zM40 336q0 170 103 273t254 103q146 0 227 -66v-156h-54q-40 164 -178 164q-105 0 -159 -82t-54 -207q0 -142 56.5 -229t166.5 -87q73 0 115 34v137q0 41 -20 55t-71 16v47h297
v-47q-50 -2 -68 -16t-18 -55v-158q-102 -72 -249 -72q-161 0 -254.5 96t-93.5 250z" />
    <glyph glyph-name="gdotaccent" unicode="&#x121;" horiz-adv-x="560" 
d="M264 191q-51 0 -96 15q-37 -38 -37 -65q0 -29 33 -29h231q153 0 153 -127q0 -87 -82.5 -139.5t-214.5 -52.5q-112 0 -173 30.5t-61 91.5q0 62 92 97q-62 23 -62 83q0 63 96 123q-90 46 -90 144q0 84 60 134t155 50q49 0 93 -16l182 11v-75h-39l-95 21v-6q69 -40 69 -115
q0 -80 -59 -127.5t-155 -47.5zM376 -2h-248q-20 -20 -20 -53q0 -100 157 -100q84 0 134.5 25.5t50.5 75.5q0 30 -18.5 41t-55.5 11zM273 236q44 0 66 32.5t22 89.5q0 61 -27.5 101t-75.5 40q-44 0 -65.5 -32.5t-21.5 -89.5q0 -61 27 -101t75 -40zM285 607q-33 0 -54.5 22
t-21.5 54q0 31 21.5 53t54.5 22t54.5 -22t21.5 -53q0 -32 -21.5 -54t-54.5 -22z" />
    <glyph glyph-name="Gcommaaccent" unicode="&#x122;" horiz-adv-x="744" 
d="M415 -155h-51q-44 10 -44 53q0 25 19 40.5t50 15.5q38 0 60 -23t22 -60q0 -107 -141 -107v37q85 0 85 44zM40 336q0 170 103 273t254 103q146 0 227 -66v-156h-54q-40 164 -178 164q-105 0 -159 -82t-54 -207q0 -142 56.5 -229t166.5 -87q73 0 115 34v137q0 41 -20 55
t-71 16v47h297v-47q-50 -2 -68 -16t-18 -55v-158q-102 -72 -249 -72q-161 0 -254.5 96t-93.5 250z" />
    <glyph glyph-name="gcommaaccent" unicode="&#x123;" horiz-adv-x="560" 
d="M264 191q-51 0 -96 15q-37 -38 -37 -65q0 -29 33 -29h231q153 0 153 -127q0 -87 -82.5 -139.5t-214.5 -52.5q-112 0 -173 30.5t-61 91.5q0 62 92 97q-62 23 -62 83q0 63 96 123q-90 46 -90 144q0 84 60 134t155 50q49 0 93 -16l182 11v-75h-39l-95 21v-6q69 -40 69 -115
q0 -80 -59 -127.5t-155 -47.5zM376 -2h-248q-20 -20 -20 -53q0 -100 157 -100q84 0 134.5 25.5t50.5 75.5q0 30 -18.5 41t-55.5 11zM273 236q44 0 66 32.5t22 89.5q0 61 -27.5 101t-75.5 40q-44 0 -65.5 -32.5t-21.5 -89.5q0 -61 27 -101t75 -40zM265 712h52q44 -10 44 -52
q0 -25 -19 -41t-50 -16q-38 0 -60 23.5t-22 59.5q0 107 141 107v-36q-84 0 -86 -45z" />
    <glyph glyph-name="Hcircumflex" unicode="&#x124;" horiz-adv-x="844" 
d="M589 120v213h-334v-213q0 -42 21.5 -56t73.5 -16v-48h-317v48q53 2 74 16t21 56v463q0 42 -21 55.5t-74 15.5v48h317v-48q-52 -2 -73.5 -16t-21.5 -55v-196h334v196q0 41 -21.5 55t-73.5 16v48h317v-48q-53 -2 -74 -15.5t-21 -55.5v-463q0 -42 21 -56t74 -16v-48h-317v48
q52 2 73.5 16t21.5 56zM466 919l147 -162h-61l-130 87l-130 -87h-61l147 162h88z" />
    <glyph glyph-name="hcircumflex" unicode="&#x125;" horiz-adv-x="654" 
d="M223 761v-315q45 46 89.5 73t101.5 27q144 0 144 -164v-280q0 -31 16.5 -41.5t56.5 -15.5v-45h-264v45q39 5 54.5 15t15.5 42v270q0 46 -19.5 66.5t-63.5 20.5q-68 0 -131 -43v-314q0 -32 15.5 -42t54.5 -15v-45h-264v45q27 4 40 7.5t23 15.5t10 34v544l-68 43v25l162 47
h27zM361 955l147 -162h-61l-130 87l-130 -87h-61l147 162h88z" />
    <glyph glyph-name="Hbar" unicode="&#x126;" horiz-adv-x="863" 
d="M43 476v52h95v55q0 42 -21 55.5t-74 15.5v48h317v-48q-53 -2 -74 -16t-21 -55v-55h334v55q0 41 -21.5 55t-73.5 16v48h316v-48q-53 -2 -74 -15.5t-21 -55.5v-55h95v-52h-95v-356q0 -42 21 -56t74 -16v-48h-316v48q52 2 73.5 16t21.5 56v194h-334v-194q0 -42 21 -56
t74 -16v-48h-317v48q53 2 74 16t21 56v356h-95zM265 368h334v108h-334v-108z" />
    <glyph glyph-name="hbar" unicode="&#x127;" horiz-adv-x="660" 
d="M374 582h-145v-144q45 46 90 73.5t101 27.5q144 0 144 -164v-273q0 -31 16.5 -41.5t56.5 -15.5v-45h-264v45q39 5 54.5 15t15.5 42v262q0 47 -19.5 67t-63.5 20q-70 0 -131 -42v-307q0 -32 15.5 -42t54.5 -15v-45h-264v45q27 4 40 7.5t23 15.5t10 34v480h-68v43h68v62
h-68v33l162 41h27v-136h145v-43z" />
    <glyph glyph-name="Itilde" unicode="&#x128;" horiz-adv-x="383" 
d="M350 0h-317v48q53 2 74 16t21 56v463q0 42 -21 55.5t-74 15.5v48h317v-48q-53 -2 -74 -15.5t-21 -55.5v-463q0 -42 21 -56t74 -16v-48zM337 893l43 -10q-34 -78 -59.5 -103.5t-64.5 -25.5q-32 0 -79 34t-65 34q-15 0 -26.5 -8t-18.5 -18t-20 -33l-44 10q35 78 60.5 103.5
t64.5 25.5q33 0 79.5 -34.5t64.5 -34.5q21 0 33 13t32 47z" />
    <glyph glyph-name="itilde" unicode="&#x129;" horiz-adv-x="335" 
d="M301 751l43 -11q-34 -78 -59.5 -103.5t-62.5 -25.5q-29 0 -66.5 34.5t-51.5 34.5q-21 0 -34 -13.5t-31 -46.5l-44 10q34 78 59.5 103.5t63.5 25.5q24 0 46.5 -17t40.5 -34t31 -17q21 0 33 13t32 47zM231 546v-444q0 -32 16 -42t56 -15v-45h-265v45q27 4 39.5 7.5
t22.5 15.5t10 34v328l-67 42v24l160 50h28z" />
    <glyph glyph-name="imacron" unicode="&#x12b;" horiz-adv-x="335" 
d="M39 624v71h245v-71h-245zM231 546v-444q0 -32 16 -42t56 -15v-45h-265v45q27 4 39.5 7.5t22.5 15.5t10 34v328l-67 42v24l160 50h28z" />
    <glyph glyph-name="Ibreve" unicode="&#x12c;" horiz-adv-x="383" 
d="M350 0h-317v48q53 2 74 16t21 56v463q0 42 -21 55.5t-74 15.5v48h317v-48q-53 -2 -74 -15.5t-21 -55.5v-463q0 -42 21 -56t74 -16v-48zM191 754q-71 0 -112.5 43t-41.5 118h47q4 -45 34.5 -66.5t72.5 -21.5t72.5 21.5t34.5 66.5h47q0 -75 -41.5 -118t-112.5 -43z" />
    <glyph glyph-name="Iogonek" unicode="&#x12e;" horiz-adv-x="383" 
d="M350 0h-88q-104 -49 -104 -106q0 -19 12.5 -30.5t35.5 -11.5q41 0 85 31l14 -20q-63 -75 -134 -75q-40 0 -66 22t-26 61q0 75 112 129h-158v48q53 2 74 16t21 56v463q0 42 -21 55.5t-74 15.5v48h317v-48q-53 -2 -74 -15.5t-21 -55.5v-463q0 -42 21 -56t74 -16v-48z" />
    <glyph glyph-name="iogonek" unicode="&#x12f;" horiz-adv-x="335" 
d="M231 546v-444q0 -32 16 -42t56 -15v-45h-74q-104 -49 -104 -106q0 -19 12.5 -30.5t35.5 -11.5q41 0 85 31l14 -20q-63 -75 -134 -75q-40 0 -66 22t-26 61q0 75 112 129h-120v45q27 4 39.5 7.5t22.5 15.5t10 34v328l-67 42v24l160 50h28zM167 606q-33 0 -55 22t-22 53
t22 53t55 22t54.5 -22t21.5 -53t-21.5 -53t-54.5 -22z" />
    <glyph glyph-name="Idotaccent" unicode="&#x130;" horiz-adv-x="383" 
d="M350 0h-317v48q53 2 74 16t21 56v463q0 42 -21 55.5t-74 15.5v48h317v-48q-53 -2 -74 -15.5t-21 -55.5v-463q0 -42 21 -56t74 -16v-48zM192 760q-33 0 -54.5 22t-21.5 53t22 53.5t54 22.5t54 -22.5t22 -53.5t-21.5 -53t-54.5 -22z" />
    <glyph glyph-name="dotlessi" unicode="&#x131;" horiz-adv-x="335" 
d="M231 546v-444q0 -32 16 -42t56 -15v-45h-265v45q27 4 39.5 7.5t22.5 15.5t10 34v328l-67 42v24l160 50h28z" />
    <glyph glyph-name="IJ" unicode="&#x132;" horiz-adv-x="931" 
d="M350 0h-317v48q53 2 74 16t21 56v463q0 42 -21 55.5t-74 15.5v48h317v-48q-53 -2 -74 -15.5t-21 -55.5v-463q0 -42 21 -56t74 -16v-48zM821 583v-375q0 -109 -58 -163t-166 -54q-95 0 -150 35.5t-55 96.5q0 45 34 72h91v-47q0 -51 22.5 -78.5t63.5 -27.5q90 0 90 145v396
q0 42 -20.5 55.5t-73.5 15.5v48h317v-48q-53 -2 -74 -15.5t-21 -55.5z" />
    <glyph glyph-name="ij" unicode="&#x133;" horiz-adv-x="620" 
d="M231 546v-444q0 -32 16 -42t56 -15v-45h-265v45q27 4 39.5 7.5t22.5 15.5t10 34v328l-67 42v24l160 50h28zM167 606q-33 0 -55 22t-22 53t22 53t55 22t54.5 -22t21.5 -53t-21.5 -53t-54.5 -22zM547 546v-446q0 -64 -8.5 -103.5t-30.5 -75.5q-40 -64 -139 -129l-27 27
l34 50q32 42 41 85.5t9 121.5v354l-67 42v24l162 50h26zM484 606q-33 0 -55 22t-22 53t22 53t55 22t54.5 -22t21.5 -53t-21.5 -53t-54.5 -22z" />
    <glyph glyph-name="Jcircumflex" unicode="&#x134;" horiz-adv-x="548" 
d="M438 583v-375q0 -109 -58 -163t-166 -54q-95 0 -150 35.5t-55 96.5q0 45 34 72h91v-47q0 -51 22.5 -78.5t63.5 -27.5q90 0 90 145v396q0 42 -20.5 55.5t-73.5 15.5v48h317v-48q-53 -2 -74 -15.5t-21 -55.5zM409 919l147 -162h-61l-130 87l-130 -87h-61l147 162h88z" />
    <glyph glyph-name="jcircumflex" unicode="&#x135;" horiz-adv-x="286" 
d="M212 546v-446q0 -64 -8.5 -103.5t-30.5 -75.5q-40 -64 -139 -129l-27 27l34 50q32 42 41 85.5t9 121.5v354l-67 42v24l162 50h26zM193 765l140 -171h-61l-123 96l-123 -96h-61l140 171h88z" />
    <glyph glyph-name="Kcommaaccent" unicode="&#x136;" horiz-adv-x="737" 
d="M406 -155h-51q-44 10 -44 53q0 25 19 40.5t50 15.5q38 0 60 -23t22 -60q0 -107 -141 -107v37q85 0 85 44zM391 397l221 -272q37 -45 61.5 -60t59.5 -17v-48h-162q-41 24 -96 92l-209 265l238 229q24 22 24 39q0 14 -14.5 20.5t-59.5 8.5v48h257v-48q-55 -2 -101 -47z
M128 120v463q0 42 -21 55.5t-74 15.5v48h317v-48q-52 -2 -73 -16t-21 -55v-463q0 -42 21 -56t73 -16v-48h-317v48q53 2 74 16t21 56z" />
    <glyph glyph-name="kcommaaccent" unicode="&#x137;" horiz-adv-x="597" 
d="M330 -155h-51q-44 10 -44 53q0 25 19 40.5t50 15.5q38 0 60 -23t22 -60q0 -107 -141 -107v37q85 0 85 44zM232 286l154 147q19 19 19 30q0 13 -13.5 18t-58.5 11v44h238v-44q-58 -15 -83 -39l-138 -129l241 -289v-35h-129zM223 761v-659q0 -31 16.5 -41.5t55.5 -15.5v-45
h-266v45q27 4 40 7.5t23 15.5t10 34v544l-68 43v25l162 47h27z" />
    <glyph glyph-name="Lacute" unicode="&#x139;" horiz-adv-x="628" 
d="M244 910h139l-155 -152h-58zM256 583v-461q0 -39 21 -53.5t72 -14.5h48q56 0 83.5 28.5t81.5 126.5h47l-34 -209h-542v48q53 2 74 16t21 56v463q0 41 -20.5 55t-74.5 16v48h317v-48q-52 -2 -73 -16t-21 -55z" />
    <glyph glyph-name="lacute" unicode="&#x13a;" horiz-adv-x="326" 
d="M195 943h139l-155 -152h-58zM222 761v-659q0 -31 16.5 -41.5t55.5 -15.5v-45h-265v45q27 4 40 7.5t23 15.5t10 34v544l-68 43v25l161 47h27z" />
    <glyph glyph-name="Lcommaaccent" unicode="&#x13b;" horiz-adv-x="628" 
d="M355 -155h-51q-44 10 -44 53q0 25 19 40.5t50 15.5q38 0 60 -23t22 -60q0 -107 -141 -107v37q85 0 85 44zM256 583v-461q0 -39 21 -53.5t72 -14.5h48q56 0 83.5 28.5t81.5 126.5h47l-34 -209h-542v48q53 2 74 16t21 56v463q0 41 -20.5 55t-74.5 16v48h317v-48
q-52 -2 -73 -16t-21 -55z" />
    <glyph glyph-name="lcommaaccent" unicode="&#x13c;" horiz-adv-x="326" 
d="M181 -155h-51q-44 10 -44 53q0 25 19 40.5t50 15.5q38 0 60 -23t22 -60q0 -107 -141 -107v37q85 0 85 44zM222 761v-659q0 -31 16.5 -41.5t55.5 -15.5v-45h-265v45q27 4 40 7.5t23 15.5t10 34v544l-68 43v25l161 47h27z" />
    <glyph glyph-name="Lcaron" unicode="&#x13d;" horiz-adv-x="628" 
d="M560 705l-86 -205h-47l18 205h115zM256 583v-461q0 -39 21 -53.5t72 -14.5h48q56 0 83.5 28.5t81.5 126.5h47l-34 -209h-542v48q53 2 74 16t21 56v463q0 41 -20.5 55t-74.5 16v48h317v-48q-52 -2 -73 -16t-21 -55z" />
    <glyph glyph-name="lcaron" unicode="&#x13e;" horiz-adv-x="334" 
d="M436 763l-86 -205h-47l18 205h115zM222 761v-659q0 -31 16.5 -41.5t55.5 -15.5v-45h-265v45q27 4 40 7.5t23 15.5t10 34v544l-68 43v25l161 47h27z" />
    <glyph glyph-name="Ldot" unicode="&#x13f;" horiz-adv-x="628" 
d="M256 583v-461q0 -39 21 -53.5t72 -14.5h48q56 0 83.5 28.5t81.5 126.5h47l-34 -209h-542v48q53 2 74 16t21 56v463q0 41 -20.5 55t-74.5 16v48h317v-48q-52 -2 -73 -16t-21 -55zM524 318q-33 0 -54.5 22t-21.5 54q0 31 21.5 53t54.5 22t54.5 -22t21.5 -53
q0 -32 -21.5 -54t-54.5 -22z" />
    <glyph glyph-name="ldot" unicode="&#x140;" horiz-adv-x="427" 
d="M222 761v-659q0 -31 16.5 -41.5t55.5 -15.5v-45h-265v45q27 4 40 7.5t23 15.5t10 34v544l-68 43v25l161 47h27zM370 306q-33 0 -54.5 22t-21.5 54q0 31 21.5 53t54.5 22t54.5 -22t21.5 -53q0 -32 -21.5 -54t-54.5 -22z" />
    <glyph glyph-name="Lslash" unicode="&#x141;" horiz-adv-x="638" 
d="M266 583v-184l154 55v-54l-154 -55v-223q0 -39 21 -53.5t72 -14.5h48q56 0 83.5 28.5t81.5 126.5h47l-34 -209h-542v48q53 2 74 16t21 56v184l-95 -33v54l95 33v225q0 41 -20.5 55t-74.5 16v48h317v-48q-52 -2 -73 -16t-21 -55z" />
    <glyph glyph-name="lslash" unicode="&#x142;" horiz-adv-x="359" 
d="M239 761v-275l99 58v-58l-99 -58v-326q0 -31 16.5 -41.5t55.5 -15.5v-45h-265v45q40 5 56 15t16 42v263l-92 -53v58l92 53v223l-67 43v25l161 47h27z" />
    <glyph glyph-name="Nacute" unicode="&#x143;" horiz-adv-x="798" 
d="M437 910h139l-155 -152h-58zM128 120v475q-28 35 -45 46.5t-50 12.5v48h201l378 -483v364q0 41 -22 55t-75 16v48h260v-48q-53 -2 -74 -15.5t-21 -55.5v-583h-53l-431 539v-419q0 -42 22 -56t76 -16v-48h-261v48q53 2 74 16t21 56z" />
    <glyph glyph-name="nacute" unicode="&#x144;" horiz-adv-x="663" 
d="M374 763h136l-152 -167h-57zM446 102v270q0 46 -20 66.5t-64 20.5q-70 0 -131 -43v-314q0 -32 15.5 -42t54.5 -15v-45h-263v45q27 4 39.5 7.5t22.5 15.5t10 34v326l-67 43v25l160 52h28v-102q96 100 192 100q144 0 144 -164v-280q0 -32 16 -42t56 -15v-45h-264v45
q39 5 55 15t16 42z" />
    <glyph glyph-name="Ncommaaccent" unicode="&#x145;" horiz-adv-x="798" 
d="M423 -155h-51q-44 10 -44 53q0 25 19 40.5t50 15.5q38 0 60 -23t22 -60q0 -107 -141 -107v37q85 0 85 44zM128 120v475q-28 35 -45 46.5t-50 12.5v48h201l378 -483v364q0 41 -22 55t-75 16v48h260v-48q-53 -2 -74 -15.5t-21 -55.5v-583h-53l-431 539v-419q0 -42 22 -56
t76 -16v-48h-261v48q53 2 74 16t21 56z" />
    <glyph glyph-name="ncommaaccent" unicode="&#x146;" horiz-adv-x="663" 
d="M360 -155h-51q-44 10 -44 53q0 25 19 40.5t50 15.5q38 0 60 -23t22 -60q0 -107 -141 -107v37q85 0 85 44zM446 102v270q0 46 -20 66.5t-64 20.5q-70 0 -131 -43v-314q0 -32 15.5 -42t54.5 -15v-45h-263v45q27 4 39.5 7.5t22.5 15.5t10 34v326l-67 43v25l160 52h28v-102
q96 100 192 100q144 0 144 -164v-280q0 -32 16 -42t56 -15v-45h-264v45q39 5 55 15t16 42z" />
    <glyph glyph-name="Ncaron" unicode="&#x147;" horiz-adv-x="798" 
d="M594 920l-147 -162h-88l-147 162h61l130 -87l130 87h61zM128 120v475q-28 35 -45 46.5t-50 12.5v48h201l378 -483v364q0 41 -22 55t-75 16v48h260v-48q-53 -2 -74 -15.5t-21 -55.5v-583h-53l-431 539v-419q0 -42 22 -56t76 -16v-48h-261v48q53 2 74 16t21 56z" />
    <glyph glyph-name="ncaron" unicode="&#x148;" horiz-adv-x="663" 
d="M524 771l-140 -172h-88l-140 172h61l123 -96l123 96h61zM446 102v270q0 46 -20 66.5t-64 20.5q-70 0 -131 -43v-314q0 -32 15.5 -42t54.5 -15v-45h-263v45q27 4 39.5 7.5t22.5 15.5t10 34v326l-67 43v25l160 52h28v-102q96 100 192 100q144 0 144 -164v-280q0 -32 16 -42
t56 -15v-45h-264v45q39 5 55 15t16 42z" />
    <glyph glyph-name="Eng" unicode="&#x14a;" horiz-adv-x="798" 
d="M570 72l-374 467v-419q0 -42 22 -56t76 -16v-48h-261v48q53 2 74 16t21 56v475q-28 35 -45 46.5t-50 12.5v48h201l378 -483v364q0 41 -22 55t-75 16v48h260v-48q-53 -2 -74 -15.5t-21 -55.5v-483q0 -64 -8.5 -103.5t-30.5 -75.5q-41 -65 -138 -129l-27 27l34 47
q34 46 47 90t13 116z" />
    <glyph glyph-name="eng" unicode="&#x14b;" horiz-adv-x="640" 
d="M446 76v296q0 46 -20 66.5t-64 20.5q-70 0 -131 -43v-314q0 -32 15.5 -42t54.5 -15v-45h-263v45q27 4 39.5 7.5t22.5 15.5t10 34v326l-67 43v25l160 52h28v-102q96 100 192 100q144 0 144 -164v-282q0 -113 -40 -179q-41 -66 -139 -129l-27 27l35 50q32 43 41 86.5
t9 120.5z" />
    <glyph glyph-name="Omacron" unicode="&#x14c;" horiz-adv-x="753" 
d="M233 776v75h292v-75h-292zM388 51q91 0 139 81.5t48 211.5q0 85 -21 152t-69.5 111t-119.5 44q-91 0 -139 -81.5t-48 -211.5q0 -132 53 -219.5t157 -87.5zM382 712q152 0 241.5 -100.5t89.5 -246.5q0 -168 -98 -271.5t-243 -103.5q-153 0 -242.5 100.5t-89.5 246.5
q0 168 98.5 271.5t243.5 103.5z" />
    <glyph glyph-name="omacron" unicode="&#x14d;" horiz-adv-x="592" 
d="M159 624v71h276v-71h-276zM305 48q60 0 92 55.5t32 149.5q0 101 -38.5 168.5t-103.5 67.5q-61 0 -92.5 -56t-31.5 -150q0 -101 38 -168t104 -67zM291 -10q-114 0 -183.5 75.5t-69.5 192.5q0 129 75 208.5t187 79.5q114 0 184 -75.5t70 -192.5q0 -129 -75.5 -208.5
t-187.5 -79.5z" />
    <glyph glyph-name="Obreve" unicode="&#x14e;" horiz-adv-x="753" 
d="M379 754q-71 0 -112.5 43t-41.5 118h47q4 -45 34.5 -66.5t72.5 -21.5t72.5 21.5t34.5 66.5h47q0 -75 -41.5 -118t-112.5 -43zM388 51q91 0 139 81.5t48 211.5q0 85 -21 152t-69.5 111t-119.5 44q-91 0 -139 -81.5t-48 -211.5q0 -132 53 -219.5t157 -87.5zM382 712
q152 0 241.5 -100.5t89.5 -246.5q0 -168 -98 -271.5t-243 -103.5q-153 0 -242.5 100.5t-89.5 246.5q0 168 98.5 271.5t243.5 103.5z" />
    <glyph glyph-name="obreve" unicode="&#x14f;" horiz-adv-x="592" 
d="M305 48q60 0 92 55.5t32 149.5q0 101 -38.5 168.5t-103.5 67.5q-61 0 -92.5 -56t-31.5 -150q0 -101 38 -168t104 -67zM291 -10q-114 0 -183.5 75.5t-69.5 192.5q0 129 75 208.5t187 79.5q114 0 184 -75.5t70 -192.5q0 -129 -75.5 -208.5t-187.5 -79.5zM297 596
q-70 0 -108 44.5t-38 124.5h48q5 -49 32 -72t66 -23q40 0 67 23t32 72h48q0 -80 -38.5 -124.5t-108.5 -44.5z" />
    <glyph glyph-name="Ohungarumlaut" unicode="&#x150;" horiz-adv-x="753" 
d="M388 51q91 0 139 81.5t48 211.5q0 85 -21 152t-69.5 111t-119.5 44q-91 0 -139 -81.5t-48 -211.5q0 -132 53 -219.5t157 -87.5zM382 712q152 0 241.5 -100.5t89.5 -246.5q0 -168 -98 -271.5t-243 -103.5q-153 0 -242.5 100.5t-89.5 246.5q0 168 98.5 271.5t243.5 103.5z
M333 910h122l-134 -152h-55zM497 910h121l-134 -152h-54z" />
    <glyph glyph-name="ohungarumlaut" unicode="&#x151;" horiz-adv-x="592" 
d="M250 763h118l-131 -167h-54zM413 763h119l-132 -167h-54zM305 48q60 0 92 55.5t32 149.5q0 101 -38.5 168.5t-103.5 67.5q-61 0 -92.5 -56t-31.5 -150q0 -101 38 -168t104 -67zM291 -10q-114 0 -183.5 75.5t-69.5 192.5q0 129 75 208.5t187 79.5q114 0 184 -75.5
t70 -192.5q0 -129 -75.5 -208.5t-187.5 -79.5z" />
    <glyph glyph-name="OE" unicode="&#x152;" horiz-adv-x="1024" 
d="M958 0h-534q-188 0 -286 93t-98 242q0 172 103.5 269.5t264.5 97.5h545v-174h-42q-28 68 -56.5 94.5t-86.5 26.5h-162v-262h141q32 0 48 20t24 66h43v-227h-43q-8 46 -24 66.5t-48 20.5h-141v-212q0 -39 21.5 -53.5t72.5 -14.5h78q58 0 87 25.5t81 109.5h42zM479 53v596
h-69q-108 0 -169.5 -76.5t-61.5 -220.5q0 -130 66.5 -214.5t199.5 -84.5h34z" />
    <glyph glyph-name="oe" unicode="&#x153;" horiz-adv-x="927" 
d="M300 546q122 0 195 -99q73 99 186 99q99 0 153 -62.5t54 -162.5v-33h-349q0 -91 47.5 -146.5t126.5 -55.5q93 0 154 81l22 -13q-19 -75 -75.5 -119.5t-142.5 -44.5q-122 0 -187 98q-80 -98 -193 -98q-114 0 -183.5 75.5t-69.5 192.5q0 129 75 208.5t187 79.5zM305 48
q60 0 92 55.5t32 149.5q0 101 -38.5 168.5t-103.5 67.5q-61 0 -92.5 -56t-31.5 -150q0 -101 38 -168t104 -67zM666 491q-52 0 -84.5 -44t-38.5 -108h232q0 71 -28 111.5t-81 40.5z" />
    <glyph glyph-name="Racute" unicode="&#x154;" horiz-adv-x="721" 
d="M307 648h-52v-296h55q169 0 169 151q0 67 -43 106t-129 39zM33 702h317q131 0 196.5 -53t65.5 -146q0 -75 -52 -123.5t-125 -59.5l152 -201q50 -68 122 -71v-48h-169q-46 32 -88 95l-148 206h-49v-181q0 -42 20.5 -56t72.5 -16v-48h-315v48q53 2 74 16t21 56v463
q0 42 -21 55.5t-74 14.5v49zM371 910h139l-155 -152h-58z" />
    <glyph glyph-name="racute" unicode="&#x155;" horiz-adv-x="434" 
d="M290 763h136l-152 -167h-57zM231 548v-164q44 95 74 128.5t77 33.5q24 0 39 -13v-110h-22q-53 0 -90 -14t-78 -58v-247q0 -34 17.5 -43t74.5 -16v-45h-285v45q27 4 39.5 7.5t22.5 15.5t10 34v326l-67 43v25l159 52h29z" />
    <glyph glyph-name="Rcommaaccent" unicode="&#x156;" horiz-adv-x="721" 
d="M395 -155h-51q-44 10 -44 53q0 25 19 40.5t50 15.5q38 0 60 -23t22 -60q0 -107 -141 -107v37q85 0 85 44zM307 648h-52v-296h55q169 0 169 151q0 67 -43 106t-129 39zM33 702h317q131 0 196.5 -53t65.5 -146q0 -75 -52 -123.5t-125 -59.5l152 -201q50 -68 122 -71v-48
h-169q-46 32 -88 95l-148 206h-49v-181q0 -42 20.5 -56t72.5 -16v-48h-315v48q53 2 74 16t21 56v463q0 42 -21 55.5t-74 14.5v49z" />
    <glyph glyph-name="rcommaaccent" unicode="&#x157;" horiz-adv-x="434" 
d="M200 -155h-51q-44 10 -44 53q0 25 19 40.5t50 15.5q38 0 60 -23t22 -60q0 -107 -141 -107v37q85 0 85 44zM231 548v-164q44 95 74 128.5t77 33.5q24 0 39 -13v-110h-22q-53 0 -90 -14t-78 -58v-247q0 -34 17.5 -43t74.5 -16v-45h-285v45q27 4 39.5 7.5t22.5 15.5t10 34
v326l-67 43v25l159 52h29z" />
    <glyph glyph-name="Rcaron" unicode="&#x158;" horiz-adv-x="721" 
d="M529 920l-147 -162h-88l-147 162h61l130 -87l130 87h61zM307 648h-52v-296h55q169 0 169 151q0 67 -43 106t-129 39zM33 702h317q131 0 196.5 -53t65.5 -146q0 -75 -52 -123.5t-125 -59.5l152 -201q50 -68 122 -71v-48h-169q-46 32 -88 95l-148 206h-49v-181
q0 -42 20.5 -56t72.5 -16v-48h-315v48q53 2 74 16t21 56v463q0 42 -21 55.5t-74 14.5v49z" />
    <glyph glyph-name="rcaron" unicode="&#x159;" horiz-adv-x="434" 
d="M439 771l-140 -172h-88l-140 172h61l123 -96l123 96h61zM231 548v-164q44 95 74 128.5t77 33.5q24 0 39 -13v-110h-22q-53 0 -90 -14t-78 -58v-247q0 -34 17.5 -43t74.5 -16v-45h-285v45q27 4 39.5 7.5t22.5 15.5t10 34v326l-67 43v25l159 52h29z" />
    <glyph glyph-name="Sacute" unicode="&#x15a;" horiz-adv-x="573" 
d="M274 -10q-69 0 -128.5 19t-96.5 49l-8 165h54q50 -177 186 -177q64 0 100.5 30t36.5 86q0 47 -34 74.5t-124 58.5q-112 38 -162 85t-50 131q0 90 62.5 145.5t168.5 55.5q123 0 213 -62v-153h-48q-43 160 -172 160q-56 0 -87 -29t-31 -74q0 -49 31.5 -76.5t121.5 -57.5
q117 -39 169.5 -88t52.5 -135q0 -99 -72.5 -153t-182.5 -54zM319 910h139l-155 -152h-58z" />
    <glyph glyph-name="sacute" unicode="&#x15b;" horiz-adv-x="471" 
d="M275 763h136l-152 -167h-57zM235 -10q-118 0 -189 52l-6 129h52q30 -130 146 -130q45 0 71 19.5t26 55.5q0 41 -29 61.5t-101 40.5q-81 23 -120.5 60.5t-39.5 105.5q0 74 50 118t135 44q97 0 170 -43v-120h-51q-23 111 -123 111q-38 0 -60 -20t-22 -52q0 -36 26.5 -58
t88.5 -39q88 -24 131 -59.5t43 -108.5q0 -75 -53 -121t-145 -46z" />
    <glyph glyph-name="Scircumflex" unicode="&#x15c;" horiz-adv-x="573" 
d="M274 -10q-69 0 -128.5 19t-96.5 49l-8 165h54q50 -177 186 -177q64 0 100.5 30t36.5 86q0 47 -34 74.5t-124 58.5q-112 38 -162 85t-50 131q0 90 62.5 145.5t168.5 55.5q123 0 213 -62v-153h-48q-43 160 -172 160q-56 0 -87 -29t-31 -74q0 -49 31.5 -76.5t121.5 -57.5
q117 -39 169.5 -88t52.5 -135q0 -99 -72.5 -153t-182.5 -54zM329 919l147 -162h-61l-130 87l-130 -87h-61l147 162h88z" />
    <glyph glyph-name="scircumflex" unicode="&#x15d;" horiz-adv-x="471" 
d="M284 765l140 -171h-61l-123 96l-123 -96h-61l140 171h88zM235 -10q-118 0 -189 52l-6 129h52q30 -130 146 -130q45 0 71 19.5t26 55.5q0 41 -29 61.5t-101 40.5q-81 23 -120.5 60.5t-39.5 105.5q0 74 50 118t135 44q97 0 170 -43v-120h-51q-23 111 -123 111
q-38 0 -60 -20t-22 -52q0 -36 26.5 -58t88.5 -39q88 -24 131 -59.5t43 -108.5q0 -75 -53 -121t-145 -46z" />
    <glyph glyph-name="Scedilla" unicode="&#x15e;" horiz-adv-x="573" 
d="M197 -225l-8 38q116 0 116 44q0 39 -90 42l37 92q-127 6 -203 67l-8 165h54q50 -177 186 -177q64 0 100.5 30t36.5 86q0 47 -34 74.5t-124 58.5q-112 38 -162 85t-50 131q0 90 62.5 145.5t168.5 55.5q123 0 213 -62v-153h-48q-43 160 -172 160q-56 0 -87 -29t-31 -74
q0 -49 31.5 -76.5t121.5 -57.5q117 -39 169.5 -88t52.5 -135q0 -95 -67.5 -148.5t-171.5 -57.5l-14 -38q105 -3 105 -75q0 -50 -52 -76.5t-132 -26.5z" />
    <glyph glyph-name="scedilla" unicode="&#x15f;" horiz-adv-x="471" 
d="M132 -225l-8 38q116 0 116 44q0 39 -90 42l37 94q-85 8 -141 49l-6 129h52q30 -130 146 -130q45 0 71 19.5t26 55.5q0 41 -29 61.5t-101 40.5q-81 23 -120.5 60.5t-39.5 105.5q0 74 50 118t135 44q97 0 170 -43v-120h-51q-23 111 -123 111q-38 0 -60 -20t-22 -52
q0 -36 26.5 -58t88.5 -39q88 -24 131 -59.5t43 -108.5q0 -75 -53 -121t-145 -46h-10l-14 -37q105 -3 105 -75q0 -50 -52 -76.5t-132 -26.5z" />
    <glyph glyph-name="Scaron" unicode="&#x160;" horiz-adv-x="573" 
d="M274 -10q-69 0 -128.5 19t-96.5 49l-8 165h54q50 -177 186 -177q64 0 100.5 30t36.5 86q0 47 -34 74.5t-124 58.5q-112 38 -162 85t-50 131q0 90 62.5 145.5t168.5 55.5q123 0 213 -62v-153h-48q-43 160 -172 160q-56 0 -87 -29t-31 -74q0 -49 31.5 -76.5t121.5 -57.5
q117 -39 169.5 -88t52.5 -135q0 -99 -72.5 -153t-182.5 -54zM475 920l-147 -162h-88l-147 162h61l130 -87l130 87h61z" />
    <glyph glyph-name="scaron" unicode="&#x161;" horiz-adv-x="471" 
d="M422 771l-140 -172h-88l-140 172h61l123 -96l123 96h61zM235 -10q-118 0 -189 52l-6 129h52q30 -130 146 -130q45 0 71 19.5t26 55.5q0 41 -29 61.5t-101 40.5q-81 23 -120.5 60.5t-39.5 105.5q0 74 50 118t135 44q97 0 170 -43v-120h-51q-23 111 -123 111q-38 0 -60 -20
t-22 -52q0 -36 26.5 -58t88.5 -39q88 -24 131 -59.5t43 -108.5q0 -75 -53 -121t-145 -46z" />
    <glyph glyph-name="Tcedilla" unicode="&#x162;" horiz-adv-x="678" 
d="M359 -155h-51q-44 10 -44 53q0 25 19 40.5t50 15.5q38 0 60 -23t22 -60q0 -107 -141 -107v37q85 0 85 44zM30 702h618l15 -217h-46q-45 107 -70 136t-86 29h-59v-530q0 -42 22.5 -56t76.5 -16v-48h-325v48q54 2 76.5 16t22.5 56v530h-58q-61 0 -86 -29t-71 -136h-45z" />
    <glyph glyph-name="tcedilla" unicode="&#x163;" horiz-adv-x="386" 
d="M215 -155h-51q-44 10 -44 53q0 25 19 40.5t50 15.5q38 0 60 -23t22 -60q0 -107 -141 -107v37q85 0 85 44zM205 654v-118h147v-60h-147v-337q0 -39 17.5 -55.5t56.5 -16.5q46 0 86 21l13 -31q-62 -67 -162 -67q-131 0 -131 130v356h-72v38q88 46 156 140h36z" />
    <glyph glyph-name="Tcaron" unicode="&#x164;" horiz-adv-x="678" 
d="M530 920l-147 -162h-88l-147 162h61l130 -87l130 87h61zM30 702h618l15 -217h-46q-45 107 -70 136t-86 29h-59v-530q0 -42 22.5 -56t76.5 -16v-48h-325v48q54 2 76.5 16t22.5 56v530h-58q-61 0 -86 -29t-71 -136h-45z" />
    <glyph glyph-name="tcaron" unicode="&#x165;" horiz-adv-x="386" 
d="M393 806l-86 -205h-47l18 205h115zM205 654v-118h147v-60h-147v-337q0 -39 17.5 -55.5t56.5 -16.5q46 0 86 21l13 -31q-62 -67 -162 -67q-131 0 -131 130v356h-72v38q88 46 156 140h36z" />
    <glyph glyph-name="Tbar" unicode="&#x166;" horiz-adv-x="678" 
d="M30 702h618l15 -217h-46q-45 107 -70 136t-86 29h-59v-256h121v-51h-121v-223q0 -42 22.5 -56t76.5 -16v-48h-325v48q54 2 76.5 16t22.5 56v223h-121v51h121v256h-58q-61 0 -86 -29t-71 -136h-45z" />
    <glyph glyph-name="tbar" unicode="&#x167;" horiz-adv-x="429" 
d="M229 654v-118h147v-60h-147v-117h147v-56h-147v-164q0 -39 17.5 -55.5t56.5 -16.5q46 0 86 21l13 -31q-62 -67 -162 -67q-131 0 -131 130v183h-73v56h73v117h-72v38q88 46 156 140h36z" />
    <glyph glyph-name="Utilde" unicode="&#x168;" horiz-adv-x="769" 
d="M555 893l43 -10q-34 -78 -59.5 -103.5t-64.5 -25.5q-32 0 -79 34t-65 34q-15 0 -26.5 -8t-18.5 -18t-20 -33l-44 10q35 78 60.5 103.5t64.5 25.5q33 0 79.5 -34.5t64.5 -34.5q21 0 33 13t32 47zM234 583v-330q0 -90 43 -138.5t125 -48.5q95 0 143.5 45.5t48.5 149.5v322
q0 41 -22.5 55t-75.5 16v48h261v-48q-53 -2 -73.5 -15.5t-20.5 -55.5v-344q0 -121 -77 -184.5t-194 -63.5q-136 0 -211 62.5t-75 186.5v343q0 42 -20.5 55.5t-73.5 15.5v48h316v-48q-53 -2 -73.5 -15.5t-20.5 -55.5z" />
    <glyph glyph-name="utilde" unicode="&#x169;" horiz-adv-x="646" 
d="M421 -10v98q-43 -45 -86.5 -71.5t-99.5 -26.5q-144 0 -144 166v262q0 26 -10.5 37.5t-42.5 16.5l-16 3v41l170 30h21v-375q0 -49 20 -72.5t63 -23.5q61 0 125 42v301q0 26 -10.5 37.5t-42.5 16.5l-15 3v41l168 30h22v-427q0 -26 10 -35.5t40 -12.5l25 -2v-45l-175 -34
h-22zM466 751l43 -11q-34 -78 -59.5 -103.5t-64.5 -25.5q-32 0 -79 34.5t-65 34.5q-21 0 -34 -13.5t-31 -46.5l-44 10q35 79 60.5 104t64.5 25q33 0 79.5 -34t64.5 -34q21 0 33 13t32 47z" />
    <glyph glyph-name="Umacron" unicode="&#x16a;" horiz-adv-x="769" 
d="M263 776v75h292v-75h-292zM234 583v-330q0 -90 43 -138.5t125 -48.5q95 0 143.5 45.5t48.5 149.5v322q0 41 -22.5 55t-75.5 16v48h261v-48q-53 -2 -73.5 -15.5t-20.5 -55.5v-344q0 -121 -77 -184.5t-194 -63.5q-136 0 -211 62.5t-75 186.5v343q0 42 -20.5 55.5
t-73.5 15.5v48h316v-48q-53 -2 -73.5 -15.5t-20.5 -55.5z" />
    <glyph glyph-name="umacron" unicode="&#x16b;" horiz-adv-x="646" 
d="M421 -10v98q-43 -45 -86.5 -71.5t-99.5 -26.5q-144 0 -144 166v262q0 26 -10.5 37.5t-42.5 16.5l-16 3v41l170 30h21v-375q0 -49 20 -72.5t63 -23.5q61 0 125 42v301q0 26 -10.5 37.5t-42.5 16.5l-15 3v41l168 30h22v-427q0 -26 10 -35.5t40 -12.5l25 -2v-45l-175 -34
h-22zM185 624v71h276v-71h-276z" />
    <glyph glyph-name="Ubreve" unicode="&#x16c;" horiz-adv-x="769" 
d="M409 754q-71 0 -112.5 43t-41.5 118h47q4 -45 34.5 -66.5t72.5 -21.5t72.5 21.5t34.5 66.5h47q0 -75 -41.5 -118t-112.5 -43zM234 583v-330q0 -90 43 -138.5t125 -48.5q95 0 143.5 45.5t48.5 149.5v322q0 41 -22.5 55t-75.5 16v48h261v-48q-53 -2 -73.5 -15.5
t-20.5 -55.5v-344q0 -121 -77 -184.5t-194 -63.5q-136 0 -211 62.5t-75 186.5v343q0 42 -20.5 55.5t-73.5 15.5v48h316v-48q-53 -2 -73.5 -15.5t-20.5 -55.5z" />
    <glyph glyph-name="ubreve" unicode="&#x16d;" horiz-adv-x="646" 
d="M421 -10v98q-43 -45 -86.5 -71.5t-99.5 -26.5q-144 0 -144 166v262q0 26 -10.5 37.5t-42.5 16.5l-16 3v41l170 30h21v-375q0 -49 20 -72.5t63 -23.5q61 0 125 42v301q0 26 -10.5 37.5t-42.5 16.5l-15 3v41l168 30h22v-427q0 -26 10 -35.5t40 -12.5l25 -2v-45l-175 -34
h-22zM322 596q-70 0 -108 44.5t-38 124.5h48q5 -49 32 -72t66 -23q40 0 67 23t32 72h48q0 -80 -38.5 -124.5t-108.5 -44.5z" />
    <glyph glyph-name="Uring" unicode="&#x16e;" horiz-adv-x="769" 
d="M234 583v-330q0 -90 43 -138.5t125 -48.5q95 0 143.5 45.5t48.5 149.5v322q0 41 -22.5 55t-75.5 16v48h261v-48q-53 -2 -73.5 -15.5t-20.5 -55.5v-344q0 -121 -77 -184.5t-194 -63.5q-136 0 -211 62.5t-75 186.5v343q0 42 -20.5 55.5t-73.5 15.5v48h316v-48
q-53 -2 -73.5 -15.5t-20.5 -55.5zM310 837q0 40 28 67t71 27t71 -27t28 -67q0 -41 -28 -67.5t-71 -26.5t-71 26.5t-28 67.5zM459 837q0 23 -13 37t-37 14t-36.5 -14t-12.5 -37q0 -51 49 -51q24 0 37 14t13 37z" />
    <glyph glyph-name="uring" unicode="&#x16f;" horiz-adv-x="646" 
d="M223 685q0 40 28 67t71 27q44 0 71.5 -27t27.5 -67q0 -41 -27.5 -67.5t-71.5 -26.5q-43 0 -71 26.5t-28 67.5zM372 685q0 23 -13 37t-37 14q-23 0 -36 -14t-13 -37t13 -37t36 -14q24 0 37 14t13 37zM421 -10v98q-43 -45 -86.5 -71.5t-99.5 -26.5q-144 0 -144 166v262
q0 26 -10.5 37.5t-42.5 16.5l-16 3v41l170 30h21v-375q0 -49 20 -72.5t63 -23.5q61 0 125 42v301q0 26 -10.5 37.5t-42.5 16.5l-15 3v41l168 30h22v-427q0 -26 10 -35.5t40 -12.5l25 -2v-45l-175 -34h-22z" />
    <glyph glyph-name="Uhungarumlaut" unicode="&#x170;" horiz-adv-x="769" 
d="M234 583v-330q0 -90 43 -138.5t125 -48.5q95 0 143.5 45.5t48.5 149.5v322q0 41 -22.5 55t-75.5 16v48h261v-48q-53 -2 -73.5 -15.5t-20.5 -55.5v-344q0 -121 -77 -184.5t-194 -63.5q-136 0 -211 62.5t-75 186.5v343q0 42 -20.5 55.5t-73.5 15.5v48h316v-48
q-53 -2 -73.5 -15.5t-20.5 -55.5zM363 910h122l-134 -152h-55zM527 910h121l-134 -152h-54z" />
    <glyph glyph-name="uhungarumlaut" unicode="&#x171;" horiz-adv-x="646" 
d="M421 -10v98q-43 -45 -86.5 -71.5t-99.5 -26.5q-144 0 -144 166v262q0 26 -10.5 37.5t-42.5 16.5l-16 3v41l170 30h21v-375q0 -49 20 -72.5t63 -23.5q61 0 125 42v301q0 26 -10.5 37.5t-42.5 16.5l-15 3v41l168 30h22v-427q0 -26 10 -35.5t40 -12.5l25 -2v-45l-175 -34
h-22zM268 763h118l-131 -167h-54zM431 763h119l-132 -167h-54z" />
    <glyph glyph-name="Uogonek" unicode="&#x172;" horiz-adv-x="769" 
d="M234 583v-330q0 -90 43 -138.5t125 -48.5q95 0 143.5 45.5t48.5 149.5v322q0 41 -22.5 55t-75.5 16v48h261v-48q-53 -2 -73.5 -15.5t-20.5 -55.5v-344q0 -93 -47 -152.5t-125 -82.5q-105 -48 -105 -106q0 -19 12.5 -30.5t35.5 -11.5q41 0 85 31l14 -20q-63 -75 -134 -75
q-40 0 -66 22t-26 61q0 67 87 116h-2q-136 0 -211 62.5t-75 186.5v343q0 42 -20.5 55.5t-73.5 15.5v48h316v-48q-53 -2 -73.5 -15.5t-20.5 -55.5z" />
    <glyph glyph-name="uogonek" unicode="&#x173;" horiz-adv-x="646" 
d="M618 24q-122 -28 -170 -59.5t-48 -70.5q0 -19 12.5 -30.5t35.5 -11.5q41 0 85 31l14 -20q-63 -75 -134 -75q-40 0 -66 22t-26 61q0 40 26.5 68.5t73.5 53.5v95q-43 -45 -86.5 -71.5t-99.5 -26.5q-144 0 -144 166v262q0 26 -10.5 37.5t-42.5 16.5l-16 3v41l170 30h21v-375
q0 -49 20 -72.5t63 -23.5q61 0 125 42v301q0 26 -10.5 37.5t-42.5 16.5l-15 3v41l168 30h22v-427q0 -26 10 -35.5t40 -12.5l25 -2v-45z" />
    <glyph glyph-name="Wcircumflex" unicode="&#x174;" horiz-adv-x="982" 
d="M695 187l134 378q13 35 13 45q0 23 -19 33t-68 11v48h221v-48q-17 -3 -26 -5t-18.5 -10t-14.5 -22l-229 -625h-43l-148 418l-150 -418h-42l-240 625q-13 30 -59 37v48h287v-48q-46 -2 -64.5 -11.5t-18.5 -31.5q0 -12 11 -43l139 -383l107 308l-42 124q-7 19 -20 26
t-37 11v48h277v-48q-50 -1 -68 -10.5t-18 -32.5q0 -14 11 -47zM547 919l147 -162h-61l-130 87l-130 -87h-61l147 162h88z" />
    <glyph glyph-name="wcircumflex" unicode="&#x175;" horiz-adv-x="825" 
d="M468 765l140 -171h-61l-123 96l-123 -96h-61l140 171h88zM593 169l95 258q6 18 6 29q0 17 -13 23.5t-50 12.5v44h189v-44q-33 -12 -42 -18t-15 -22l-178 -460h-36l-131 341l-136 -341h-35l-185 460q-7 16 -16.5 22.5t-40.5 17.5v44h250v-44q-34 -6 -47 -12.5t-13 -22.5
q0 -13 8 -32l95 -257l90 236l-17 48q-6 16 -15.5 23t-38.5 17v44h241v-44q-37 -6 -50 -12.5t-13 -23.5q0 -12 7 -31z" />
    <glyph glyph-name="Ycircumflex" unicode="&#x176;" horiz-adv-x="677" 
d="M369 337l141 229q19 32 19 50q0 20 -18.5 28t-65.5 10v48h227v-48q-23 -3 -36 -10.5t-24 -26.5l-212 -342v-155q0 -42 22 -56t75 -16v-48h-319v48q54 2 75.5 16t21.5 56v155l-210 342q-18 31 -59 37v48h289v-48q-48 -1 -65.5 -9.5t-17.5 -28.5q0 -18 19 -50zM403 919
l147 -162h-61l-130 87l-130 -87h-61l147 162h88z" />
    <glyph glyph-name="ycircumflex" unicode="&#x177;" horiz-adv-x="579" 
d="M266 -3l-203 455q-7 15 -16.5 21.5t-41.5 18.5v44h265v-44q-42 -6 -56.5 -12.5t-14.5 -23.5q0 -13 8 -31l118 -289l112 289q8 21 8 31q0 17 -14.5 23.5t-55.5 12.5v44h199v-44q-33 -12 -42 -18t-16 -22l-224 -545q-24 -58 -53.5 -86t-75.5 -28q-54 0 -79 37v60h54
q50 0 73 13t39 54zM365 765l140 -171h-61l-123 96l-123 -96h-61l140 171h88z" />
    <glyph glyph-name="Ydieresis" unicode="&#x178;" horiz-adv-x="677" 
d="M369 337l141 229q19 32 19 50q0 20 -18.5 28t-65.5 10v48h227v-48q-23 -3 -36 -10.5t-24 -26.5l-212 -342v-155q0 -42 22 -56t75 -16v-48h-319v48q54 2 75.5 16t21.5 56v155l-210 342q-18 31 -59 37v48h289v-48q-48 -1 -65.5 -9.5t-17.5 -28.5q0 -18 19 -50zM186 832
q0 28 20.5 48t49.5 20q28 0 48.5 -20t20.5 -48q0 -29 -20 -49.5t-49 -20.5t-49.5 20.5t-20.5 49.5zM392 832q0 28 20.5 48t48.5 20q30 0 50 -20t20 -48q0 -29 -20 -49.5t-50 -20.5q-28 0 -48.5 20.5t-20.5 49.5z" />
    <glyph glyph-name="Zacute" unicode="&#x179;" horiz-adv-x="629" 
d="M186 55h207q59 0 88 29.5t79 124.5h46l-33 -209h-549v32l407 615h-193q-20 0 -34.5 -2t-27.5 -12t-20 -15.5t-19 -28.5t-17 -33t-21 -46h-42v192h532v-33zM353 910h139l-155 -152h-58z" />
    <glyph glyph-name="zacute" unicode="&#x17a;" horiz-adv-x="523" 
d="M300 763h136l-152 -167h-57zM34 0v30l301 454h-139q-37 0 -55 -24.5t-43 -99.5h-49v176h430v-33l-295 -451h132q44 0 72.5 29t52.5 103h50l-20 -184h-437z" />
    <glyph glyph-name="Zdotaccent" unicode="&#x17b;" horiz-adv-x="629" 
d="M320 760q-33 0 -54.5 22t-21.5 53t22 53.5t54 22.5t54 -22.5t22 -53.5t-21.5 -53t-54.5 -22zM186 55h207q59 0 88 29.5t79 124.5h46l-33 -209h-549v32l407 615h-193q-20 0 -34.5 -2t-27.5 -12t-20 -15.5t-19 -28.5t-17 -33t-21 -46h-42v192h532v-33z" />
    <glyph glyph-name="zdotaccent" unicode="&#x17c;" horiz-adv-x="523" 
d="M34 0v30l301 454h-139q-37 0 -55 -24.5t-43 -99.5h-49v176h430v-33l-295 -451h132q44 0 72.5 29t52.5 103h50l-20 -184h-437zM265 607q-33 0 -54.5 22t-21.5 54q0 31 21.5 53t54.5 22t54.5 -22t21.5 -53q0 -32 -21.5 -54t-54.5 -22z" />
    <glyph glyph-name="Zcaron" unicode="&#x17d;" horiz-adv-x="629" 
d="M511 920l-147 -162h-88l-147 162h61l130 -87l130 87h61zM186 55h207q59 0 88 29.5t79 124.5h46l-33 -209h-549v32l407 615h-193q-20 0 -34.5 -2t-27.5 -12t-20 -15.5t-19 -28.5t-17 -33t-21 -46h-42v192h532v-33z" />
    <glyph glyph-name="zcaron" unicode="&#x17e;" horiz-adv-x="523" 
d="M449 771l-140 -172h-88l-140 172h61l123 -96l123 96h61zM34 0v30l301 454h-139q-37 0 -55 -24.5t-43 -99.5h-49v176h430v-33l-295 -451h132q44 0 72.5 29t52.5 103h50l-20 -184h-437z" />
    <glyph glyph-name="florin" unicode="&#x192;" horiz-adv-x="519" 
d="M79 304l6 48h88l10 73q18 143 69.5 215t145.5 72q54 0 84 -21t30 -58q0 -46 -49 -61h-32q-1 47 -11 72.5t-37 25.5q-44 0 -54 -83l-30 -235h112l-4 -48h-114l-24 -187q-18 -143 -69.5 -215t-144.5 -72q-54 0 -84.5 21t-30.5 58q0 46 49 61h32q2 -98 48 -98q44 0 54 83
l44 349h-88z" />
    <glyph glyph-name="Aringacute" unicode="&#x1fa;" horiz-adv-x="734" 
d="M511 131l-40 95h-280l-37 -94q-11 -27 -11 -40q0 -23 19 -33t68 -11v-48h-224v48q47 7 59 37l228 553l-32 71h139l269 -624q13 -31 59 -37v-48h-292v48q49 2 67.5 11t18.5 32q0 16 -11 40zM329 569l-117 -291h238zM240 821q0 37 29.5 60t75.5 23q47 0 76 -23t29 -60
q0 -38 -29 -60.5t-76 -22.5q-46 0 -75.5 22.5t-29.5 60.5zM369 1037h137l-131 -108h-54zM400 821q0 21 -14.5 33t-40.5 12t-40 -12t-14 -33t14 -33t40 -12t40.5 12t14.5 33z" />
    <glyph glyph-name="aringacute" unicode="&#x1fb;" horiz-adv-x="552" 
d="M168 656q0 37 29 60t76 23t76 -23t29 -60t-29 -60t-76 -23t-76 23t-29 60zM327 656q0 21 -14 33t-40 12t-40 -12t-14 -33t14 -33t40 -12t40 12t14 33zM296 874h138l-131 -107h-54zM237 73q50 0 100 35v175l-117 -45q-58 -22 -58 -79q0 -41 19.5 -63.5t55.5 -22.5z
M458 363q0 -11 -1.5 -113.5t-1.5 -118.5q0 -63 41 -63q24 0 46 6l6 -32q-52 -52 -114 -52q-74 0 -94 91q-75 -90 -165 -90q-64 0 -99.5 38.5t-35.5 98.5q0 62 37 93.5t101 53.5l159 57v53q0 109 -86 109q-73 0 -73 -70q0 -28 7 -57l-88 -13q-28 19 -28 59q0 63 55.5 98
t144.5 35q189 0 189 -183z" />
    <glyph glyph-name="AEacute" unicode="&#x1fc;" horiz-adv-x="1056" 
d="M68 85l373 532q-7 20 -27.5 27.5t-67.5 9.5v48h639v-174h-42q-28 68 -56.5 94.5t-86.5 26.5h-163v-262h142q32 0 48 20t24 66h43v-227h-43q-8 46 -24 66.5t-48 20.5h-142v-212q0 -39 22 -53.5t73 -14.5h78q58 0 87 25.5t81 109.5h42l-30 -188h-574v48q53 2 74 16t21 56
v129h-256l-77 -112q-19 -27 -19 -52q0 -22 17.5 -28.5t71.5 -8.5v-48h-242v48q39 6 62 37zM511 617l-220 -316h220v316zM681 910h139l-155 -152h-58z" />
    <glyph glyph-name="aeacute" unicode="&#x1fd;" horiz-adv-x="837" 
d="M591 546q99 0 153 -62.5t54 -162.5v-33h-349q0 -91 47.5 -146.5t126.5 -55.5q93 0 154 81l22 -13q-19 -75 -75.5 -119.5t-142.5 -44.5q-136 0 -201 109q-81 -108 -195 -108q-66 0 -105.5 39.5t-39.5 97.5q0 62 38.5 93.5t103.5 50.5l166 48q2 16 8 38q-6 136 -105 136
q-73 0 -73 -70q0 -28 7 -57l-88 -13q-28 19 -28 59q0 63 54 98t138 35q117 0 160 -73q70 73 170 73zM342 251v18l-120 -36q-60 -17 -60 -80q0 -37 20 -58.5t55 -21.5q67 0 132 49q-27 57 -27 129zM576 491q-52 0 -84.5 -44t-38.5 -109h232q0 71 -28 112t-81 41zM460 763h136
l-152 -167h-57z" />
    <glyph glyph-name="Oslashacute" unicode="&#x1fe;" horiz-adv-x="759" 
d="M651 727l-55 -87q58 -48 89 -120t31 -155q0 -168 -98 -271.5t-243 -103.5q-93 0 -165 39l-56 -89l-46 26l58 93q-59 48 -91 120.5t-32 157.5q0 168 98 271.5t243 103.5q94 0 169 -43l53 84zM180 358q0 -127 45 -207l279 442q-53 58 -136 58q-92 0 -140 -81.5t-48 -211.5z
M391 51q92 0 140 81.5t48 211.5q0 121 -42 202l-279 -441q52 -54 133 -54zM413 910h139l-155 -152h-58z" />
    <glyph glyph-name="oslashacute" unicode="&#x1ff;" horiz-adv-x="592" 
d="M503 568l-44 -75q95 -76 95 -215q0 -129 -75.5 -208.5t-187.5 -79.5q-63 0 -115 25l-48 -81l-44 25l49 83q-95 76 -95 216q0 129 75 208.5t187 79.5q64 0 116 -26l44 74zM161 283q0 -93 25 -152l189 320q-35 38 -88 38q-61 0 -93.5 -56t-32.5 -150zM305 48
q60 0 92.5 55.5t32.5 149.5q0 91 -25 150l-189 -319q34 -36 89 -36zM330 763h136l-152 -167h-57z" />
    <glyph glyph-name="Scommaaccent" unicode="&#x218;" horiz-adv-x="573" 
d="M312 -155h-51q-44 10 -44 53q0 25 19 40.5t50 15.5q38 0 60 -23t22 -60q0 -107 -141 -107v37q85 0 85 44zM274 -10q-69 0 -128.5 19t-96.5 49l-8 165h54q50 -177 186 -177q64 0 100.5 30t36.5 86q0 47 -34 74.5t-124 58.5q-112 38 -162 85t-50 131q0 90 62.5 145.5
t168.5 55.5q123 0 213 -62v-153h-48q-43 160 -172 160q-56 0 -87 -29t-31 -74q0 -49 31.5 -76.5t121.5 -57.5q117 -39 169.5 -88t52.5 -135q0 -99 -72.5 -153t-182.5 -54z" />
    <glyph glyph-name="scommaaccent" unicode="&#x219;" horiz-adv-x="471" 
d="M260 -155h-51q-44 10 -44 53q0 25 19 40.5t50 15.5q38 0 60 -23t22 -60q0 -107 -141 -107v37q85 0 85 44zM235 -10q-118 0 -189 52l-6 129h52q30 -130 146 -130q45 0 71 19.5t26 55.5q0 41 -29 61.5t-101 40.5q-81 23 -120.5 60.5t-39.5 105.5q0 74 50 118t135 44
q97 0 170 -43v-120h-51q-23 111 -123 111q-38 0 -60 -20t-22 -52q0 -36 26.5 -58t88.5 -39q88 -24 131 -59.5t43 -108.5q0 -75 -53 -121t-145 -46z" />
    <glyph glyph-name="uni0237" unicode="&#x237;" horiz-adv-x="286" 
d="M212 546v-446q0 -64 -8.5 -103.5t-30.5 -75.5q-40 -64 -139 -129l-27 27l34 50q32 42 41 85.5t9 121.5v354l-67 42v24l162 50h26z" />
    <glyph glyph-name="pi" unicode="&#x3c0;" horiz-adv-x="648" 
d="M372 126v320h-136q0 -153 -8.5 -250.5t-31.5 -195.5h-128v26q30 76 45 119.5t31 128t16 172.5h-100v90h521l-17 -90h-80v-314q0 -64 54 -64q24 0 46 6l6 -32q-52 -52 -114 -52q-104 0 -104 136z" />
    <glyph glyph-name="Wgrave" unicode="&#x1e80;" horiz-adv-x="982" 
d="M330 910h140l73 -152h-57zM695 187l134 378q13 35 13 45q0 23 -19 33t-68 11v48h221v-48q-17 -3 -26 -5t-18.5 -10t-14.5 -22l-229 -625h-43l-148 418l-150 -418h-42l-240 625q-13 30 -59 37v48h287v-48q-46 -2 -64.5 -11.5t-18.5 -31.5q0 -12 11 -43l139 -383l107 308
l-42 124q-7 19 -20 26t-37 11v48h277v-48q-50 -1 -68 -10.5t-18 -32.5q0 -14 11 -47z" />
    <glyph glyph-name="wgrave" unicode="&#x1e81;" horiz-adv-x="825" 
d="M593 169l95 258q6 18 6 29q0 17 -13 23.5t-50 12.5v44h189v-44q-33 -12 -42 -18t-15 -22l-178 -460h-36l-131 341l-136 -341h-35l-185 460q-7 16 -16.5 22.5t-40.5 17.5v44h250v-44q-34 -6 -47 -12.5t-13 -22.5q0 -13 8 -32l95 -257l90 236l-17 48q-6 16 -15.5 23
t-38.5 17v44h241v-44q-37 -6 -50 -12.5t-13 -23.5q0 -12 7 -31zM249 763h137l71 -167h-56z" />
    <glyph glyph-name="Wacute" unicode="&#x1e82;" horiz-adv-x="982" 
d="M537 910h139l-155 -152h-58zM695 187l134 378q13 35 13 45q0 23 -19 33t-68 11v48h221v-48q-17 -3 -26 -5t-18.5 -10t-14.5 -22l-229 -625h-43l-148 418l-150 -418h-42l-240 625q-13 30 -59 37v48h287v-48q-46 -2 -64.5 -11.5t-18.5 -31.5q0 -12 11 -43l139 -383l107 308
l-42 124q-7 19 -20 26t-37 11v48h277v-48q-50 -1 -68 -10.5t-18 -32.5q0 -14 11 -47z" />
    <glyph glyph-name="wacute" unicode="&#x1e83;" horiz-adv-x="825" 
d="M459 763h136l-152 -167h-57zM593 169l95 258q6 18 6 29q0 17 -13 23.5t-50 12.5v44h189v-44q-33 -12 -42 -18t-15 -22l-178 -460h-36l-131 341l-136 -341h-35l-185 460q-7 16 -16.5 22.5t-40.5 17.5v44h250v-44q-34 -6 -47 -12.5t-13 -22.5q0 -13 8 -32l95 -257l90 236
l-17 48q-6 16 -15.5 23t-38.5 17v44h241v-44q-37 -6 -50 -12.5t-13 -23.5q0 -12 7 -31z" />
    <glyph glyph-name="Wdieresis" unicode="&#x1e84;" horiz-adv-x="982" 
d="M330 832q0 28 20.5 48t49.5 20q28 0 48.5 -20t20.5 -48q0 -29 -20 -49.5t-49 -20.5t-49.5 20.5t-20.5 49.5zM536 832q0 28 20.5 48t48.5 20q30 0 50 -20t20 -48q0 -29 -20 -49.5t-50 -20.5q-28 0 -48.5 20.5t-20.5 49.5zM695 187l134 378q13 35 13 45q0 23 -19 33t-68 11
v48h221v-48q-17 -3 -26 -5t-18.5 -10t-14.5 -22l-229 -625h-43l-148 418l-150 -418h-42l-240 625q-13 30 -59 37v48h287v-48q-46 -2 -64.5 -11.5t-18.5 -31.5q0 -12 11 -43l139 -383l107 308l-42 124q-7 19 -20 26t-37 11v48h277v-48q-50 -1 -68 -10.5t-18 -32.5
q0 -14 11 -47z" />
    <glyph glyph-name="wdieresis" unicode="&#x1e85;" horiz-adv-x="825" 
d="M256 681q0 29 20 49t49 20t49.5 -20t20.5 -49t-20.5 -49.5t-49.5 -20.5t-49 20.5t-20 49.5zM455 681q0 29 20.5 49t48.5 20q29 0 49.5 -20t20.5 -49t-20.5 -49.5t-49.5 -20.5t-49 20.5t-20 49.5zM593 169l95 258q6 18 6 29q0 17 -13 23.5t-50 12.5v44h189v-44
q-33 -12 -42 -18t-15 -22l-178 -460h-36l-131 341l-136 -341h-35l-185 460q-7 16 -16.5 22.5t-40.5 17.5v44h250v-44q-34 -6 -47 -12.5t-13 -22.5q0 -13 8 -32l95 -257l90 236l-17 48q-6 16 -15.5 23t-38.5 17v44h241v-44q-37 -6 -50 -12.5t-13 -23.5q0 -12 7 -31z" />
    <glyph glyph-name="Ygrave" unicode="&#x1ef2;" horiz-adv-x="677" 
d="M369 337l141 229q19 32 19 50q0 20 -18.5 28t-65.5 10v48h227v-48q-23 -3 -36 -10.5t-24 -26.5l-212 -342v-155q0 -42 22 -56t75 -16v-48h-319v48q54 2 75.5 16t21.5 56v155l-210 342q-18 31 -59 37v48h289v-48q-48 -1 -65.5 -9.5t-17.5 -28.5q0 -18 19 -50zM186 910h140
l73 -152h-57z" />
    <glyph glyph-name="ygrave" unicode="&#x1ef3;" horiz-adv-x="579" 
d="M266 -3l-203 455q-7 15 -16.5 21.5t-41.5 18.5v44h265v-44q-42 -6 -56.5 -12.5t-14.5 -23.5q0 -13 8 -31l118 -289l112 289q8 21 8 31q0 17 -14.5 23.5t-55.5 12.5v44h199v-44q-33 -12 -42 -18t-16 -22l-224 -545q-24 -58 -53.5 -86t-75.5 -28q-54 0 -79 37v60h54
q50 0 73 13t39 54zM146 763h137l71 -167h-56z" />
    <glyph glyph-name="endash" unicode="&#x2013;" horiz-adv-x="580" 
d="M530 269h-480v72h480v-72z" />
    <glyph glyph-name="emdash" unicode="&#x2014;" horiz-adv-x="1000" 
d="M950 341v-72h-900v72h900z" />
    <glyph glyph-name="quoteleft" unicode="&#x2018;" horiz-adv-x="284" 
d="M130 634h39q52 -9 52 -67q0 -32 -20.5 -52t-54.5 -20q-41 0 -63 28t-22 75q0 72 43.5 116.5t132.5 49.5v-46q-54 -7 -79.5 -27t-27.5 -57z" />
    <glyph glyph-name="quoteright" unicode="&#x2019;" horiz-adv-x="284" 
d="M159 624h-40q-51 11 -51 68q0 32 20.5 52t54.5 20q41 0 63 -28t22 -75q0 -72 -43.5 -116.5t-132.5 -49.5v46q103 13 107 83z" />
    <glyph glyph-name="quotesinglbase" unicode="&#x201a;" horiz-adv-x="284" 
d="M159 14h-40q-51 11 -51 68q0 31 21 51t54 20q41 0 63 -27.5t22 -74.5q0 -72 -43.5 -117t-132.5 -49v45q103 14 107 84z" />
    <glyph glyph-name="quotedblleft" unicode="&#x201c;" horiz-adv-x="499" 
d="M130 634h39q52 -9 52 -67q0 -32 -20.5 -52t-54.5 -20q-41 0 -63 28t-22 75q0 72 43.5 116.5t132.5 49.5v-46q-54 -7 -79.5 -27t-27.5 -57zM345 634h39q52 -9 52 -67q0 -32 -20.5 -52t-54.5 -20q-41 0 -63 28t-22 75q0 72 43.5 116.5t132.5 49.5v-46q-54 -7 -79.5 -27
t-27.5 -57z" />
    <glyph glyph-name="quotedblright" unicode="&#x201d;" horiz-adv-x="499" 
d="M374 624h-40q-51 11 -51 68q0 32 20.5 52t54.5 20q41 0 63 -28t22 -75q0 -72 -43.5 -116.5t-132.5 -49.5v46q103 13 107 83zM159 624h-40q-51 11 -51 68q0 32 20.5 52t54.5 20q41 0 63 -28t22 -75q0 -72 -43.5 -116.5t-132.5 -49.5v46q103 13 107 83z" />
    <glyph glyph-name="quotedblbase" unicode="&#x201e;" horiz-adv-x="499" 
d="M374 14h-40q-51 11 -51 68q0 31 21 51t54 20q41 0 63 -27.5t22 -74.5q0 -72 -43.5 -117t-132.5 -49v45q103 14 107 84zM159 14h-40q-51 11 -51 68q0 31 21 51t54 20q41 0 63 -27.5t22 -74.5q0 -72 -43.5 -117t-132.5 -49v45q103 14 107 84z" />
    <glyph glyph-name="dagger" unicode="&#x2020;" horiz-adv-x="474" 
d="M45 605l168 -15l-15 168h77l-16 -168l170 15v-73l-170 14l16 -303h-77l16 303l-169 -14v73z" />
    <glyph glyph-name="daggerdbl" unicode="&#x2021;" horiz-adv-x="488" 
d="M222 561l-170 -14v73l168 -15l-15 153h77l-16 -153l170 15v-73l-171 14v-122l171 15v-73l-170 14l16 -152h-77l15 152l-168 -14v73l170 -15v122z" />
    <glyph glyph-name="bullet" unicode="&#x2022;" horiz-adv-x="374" 
d="M54 303q0 56 39 95.5t94 39.5t94.5 -39.5t39.5 -95.5t-39.5 -95.5t-94.5 -39.5t-94 39.5t-39 95.5z" />
    <glyph glyph-name="ellipsis" unicode="&#x2026;" horiz-adv-x="871" 
d="M62 73q0 36 24 60t59 24t59.5 -24t24.5 -60q0 -35 -24.5 -59t-59.5 -24t-59 24t-24 59zM352 73q0 36 24 60t59 24t59.5 -24t24.5 -60q0 -35 -24.5 -59t-59.5 -24t-59 24t-24 59zM642 73q0 36 24.5 60t59.5 24t59 -24t24 -60q0 -35 -24 -59t-59 -24t-59.5 24t-24.5 59z
" />
    <glyph glyph-name="perthousand" unicode="&#x2030;" horiz-adv-x="1280" 
d="M134 528q0 -62 20.5 -101.5t62.5 -39.5t63 39.5t21 101.5t-20.5 101.5t-63.5 39.5q-42 0 -62.5 -39.5t-20.5 -101.5zM185 -19l450 741h64l-450 -741h-64zM39 528q0 84 52 134t126 50t126.5 -50t52.5 -134t-52.5 -134t-126.5 -50t-126 50t-52 134zM751 175
q0 62 -20.5 101.5t-62.5 39.5t-63 -39.5t-21 -101.5t20.5 -101.5t63.5 -39.5q42 0 62.5 39.5t20.5 101.5zM846 175q0 -84 -52.5 -134t-125.5 -50q-75 0 -127 50t-52 134t52 134t127 50q73 0 125.5 -50t52.5 -134zM1146 175q0 62 -20.5 101.5t-62.5 39.5t-63 -39.5
t-21 -101.5t20.5 -101.5t63.5 -39.5q42 0 62.5 39.5t20.5 101.5zM1241 175q0 -84 -52 -134t-126 -50t-126.5 50t-52.5 134t52.5 134t126.5 50t126 -50t52 -134z" />
    <glyph glyph-name="guilsinglleft" unicode="&#x2039;" horiz-adv-x="310" 
d="M42 270v10l167 193h59l-114 -198l114 -198h-59z" />
    <glyph glyph-name="guilsinglright" unicode="&#x203a;" horiz-adv-x="310" 
d="M268 280v-10l-166 -193h-60l115 198l-115 198h60z" />
    <glyph glyph-name="Euro" unicode="&#x20ac;" horiz-adv-x="689" 
d="M25 384v47h92q22 130 103.5 205.5t196.5 75.5q128 0 204 -62v-156h-53q-18 80 -56.5 119t-100.5 39q-71 0 -113 -61t-53 -160h250l-12 -47h-241v-20q0 -33 1 -48h225l-12 -48h-208q13 -100 55.5 -158.5t119.5 -58.5q69 0 108 40.5t65 130.5h53l-16 -178q-97 -54 -214 -54
q-129 0 -207.5 75t-96.5 203h-90v48h85v24q0 29 1 44h-86z" />
    <glyph glyph-name="uni2117" unicode="&#x2117;" horiz-adv-x="796" 
d="M425 315h-51v-90q0 -24 15 -31.5t52 -7.5v-32h-199v32q30 1 39.5 8t9.5 31v255q0 24 -9.5 31t-39.5 8v32h182q76 0 115 -33t39 -83q0 -56 -38.5 -88t-114.5 -32zM374 514v-164h30q88 0 88 84q0 37 -23.5 58.5t-68.5 21.5h-26zM82 351q0 -135 89.5 -228.5t226.5 -93.5
t226.5 93.5t89.5 228.5t-89.5 228.5t-226.5 93.5t-226.5 -93.5t-89.5 -228.5zM40 351q0 151 101.5 256t256.5 105t256.5 -105t101.5 -256t-101.5 -256t-256.5 -105t-256.5 105t-101.5 256z" />
    <glyph glyph-name="trademark" unicode="&#x2122;" horiz-adv-x="898" 
d="M51 702h306l7 -105h-27q-20 44 -33 57.5t-42 13.5h-20v-241q0 -18 11 -23.5t37 -7.5v-29h-171v29q26 2 37 7.5t11 23.5v241h-20q-29 0 -42 -14t-32 -57h-29zM601 473l73 198q5 12 7 31h113v-30q-22 -1 -30.5 -8.5t-9.5 -22.5l29 -219q2 -14 11 -19t30 -7v-29h-159v29
q27 2 36.5 7t9.5 20q0 6 -4 34l-21 149l-87 -239h-33l-89 239l-20 -149q-3 -21 -3 -34q0 -15 9.5 -20t36.5 -7v-29h-126v29q36 1 40 26l30 219q-1 15 -9.5 22.5t-30.5 8.5v30h116q3 -20 7 -31z" />
    <glyph glyph-name="Omega" unicode="&#x2126;" horiz-adv-x="777" 
d="M389 659q-44 0 -77 -22.5t-51 -61t-26 -82t-8 -92.5q0 -205 123 -325v-76h-264l-25 181h34q36 -68 59 -83.5t90 -15.5h57q-80 35 -142 124.5t-62 194.5q0 136 79.5 223.5t212.5 87.5t212.5 -87.5t79.5 -223.5q0 -105 -62.5 -194.5t-142.5 -124.5h58q67 0 89.5 15.5
t59.5 83.5h34l-25 -181h-264v76q123 120 123 325q0 67 -14 122t-52 95.5t-96 40.5z" />
    <glyph glyph-name="uni2153" unicode="&#x2153;" horiz-adv-x="914" 
d="M218 748h29v-376q0 -28 17.5 -35.5t72.5 -10.5v-39h-282v39q57 3 73.5 10.5t16.5 35.5v253h-90v34l29 6q48 9 76 27t58 56zM217 0l449 741h66l-450 -741h-65zM728 182q61 -5 98 -38.5t37 -85.5q0 -64 -51.5 -99.5t-126.5 -35.5q-73 0 -114 28t-41 68q0 35 29 49h61v-23
q0 -85 72 -85q33 0 52 22t19 63q0 93 -105 93h-22l-5 26q58 22 84.5 43t26.5 52q0 27 -18 43t-52 16q-57 0 -94 -61l-29 20q22 49 64.5 80.5t101.5 31.5q58 0 92 -28t34 -73q0 -41 -33 -67.5t-80 -38.5z" />
    <glyph glyph-name="uni2154" unicode="&#x2154;" horiz-adv-x="948" 
d="M135 372h112q37 0 53 10.5t40 51.5h29l-15 -147h-334v31l121 115q57 55 80 90t23 72t-22 57t-60 20q-51 0 -106 -55l-21 22q25 47 68.5 78t101.5 31q66 0 103.5 -34t37.5 -95q0 -20 -5 -38.5t-18 -37.5t-24 -32.5t-35 -34.5t-37.5 -32t-45.5 -36t-46 -36zM252 0l449 741
h65l-450 -741h-64zM762 182q61 -5 98 -38.5t37 -85.5q0 -64 -51.5 -99.5t-126.5 -35.5q-73 0 -114 28t-41 68q0 35 29 49h61v-23q0 -85 72 -85q33 0 52 22t19 63q0 93 -105 93h-22l-5 26q58 22 84.5 43t26.5 52q0 27 -18 43t-51 16q-58 0 -95 -61l-29 20q22 49 64.5 80.5
t101.5 31.5q58 0 92 -28t34 -73q0 -41 -33 -67.5t-80 -38.5z" />
    <glyph glyph-name="uni215B" unicode="&#x215b;" horiz-adv-x="932" 
d="M862 284q0 -38 -27 -66t-65 -36q110 -47 110 -122q0 -66 -48.5 -101.5t-120.5 -35.5q-75 0 -123 31t-48 83q0 40 28 68.5t71 38.5q-84 43 -84 114q0 58 42.5 94.5t112.5 36.5q69 0 110.5 -28.5t41.5 -76.5zM736 98l-74 35q-43 -27 -43 -87q0 -38 25.5 -59t67.5 -21
q38 0 60.5 17t22.5 46q0 24 -15 39.5t-44 29.5zM693 217l54 -25q39 27 39 82q0 35 -20.5 54t-55.5 19q-33 0 -52.5 -17t-19.5 -42q0 -46 55 -71zM218 748h29v-376q0 -28 17.5 -35.5t72.5 -10.5v-39h-282v39q57 3 73.5 10.5t16.5 35.5v253h-90v34l29 6q48 9 76 27t58 56z
M217 0l449 741h66l-450 -741h-65z" />
    <glyph glyph-name="uni215C" unicode="&#x215c;" horiz-adv-x="945" 
d="M233 537q61 -5 98 -38.5t37 -85.5q0 -64 -51 -99.5t-126 -35.5q-74 0 -115 28t-41 68q0 35 29 49h61v-23q0 -85 72 -85q34 0 52.5 22t18.5 63q0 46 -27.5 69.5t-76.5 23.5h-23l-5 26q58 22 85 43t27 52q0 26 -18 42.5t-52 16.5q-58 0 -95 -61l-29 20q22 49 64.5 80.5
t102.5 31.5q57 0 91 -28t34 -73q0 -41 -33 -67.5t-80 -38.5zM876 284q0 -38 -27.5 -66t-65.5 -36q111 -47 111 -122q0 -66 -48.5 -101.5t-120.5 -35.5q-75 0 -123 31t-48 83q0 40 27.5 68.5t70.5 38.5q-84 43 -84 114q0 58 42.5 94.5t112.5 36.5t111.5 -28.5t41.5 -76.5z
M749 98l-74 35q-43 -27 -43 -87q0 -38 26 -59t68 -21q38 0 60 17t22 46q0 24 -15 39.5t-44 29.5zM706 217l55 -25q38 27 38 82q0 35 -20 54t-56 19q-33 0 -52 -17t-19 -42q0 -46 54 -71zM231 0l449 741h65l-450 -741h-64z" />
    <glyph glyph-name="uni215D" unicode="&#x215d;" horiz-adv-x="929" 
d="M336 736v-91h-201l-10 -65q107 -2 169.5 -40.5t62.5 -115.5q0 -68 -46.5 -107.5t-120.5 -39.5q-72 0 -112.5 28t-40.5 69q0 38 30 50h60v-23q0 -85 75 -85q34 0 53.5 19.5t19.5 53.5q0 114 -202 117l40 230h223zM860 284q0 -37 -27.5 -65.5t-65.5 -36.5q111 -47 111 -122
q0 -66 -48.5 -101.5t-120.5 -35.5q-76 0 -124 31t-48 83q0 40 28 68.5t71 38.5q-84 43 -84 114q0 58 42.5 94.5t112.5 36.5t111.5 -28.5t41.5 -76.5zM733 98l-74 35q-43 -27 -43 -87q0 -38 25.5 -59t68.5 -21q37 0 59.5 17t22.5 46q0 24 -15 39.5t-44 29.5zM690 217l55 -25
q38 28 38 82q0 35 -20.5 54t-55.5 19q-33 0 -52.5 -17t-19.5 -42q0 -45 55 -71zM215 0l449 741h65l-450 -741h-64z" />
    <glyph glyph-name="uni215E" unicode="&#x215e;" horiz-adv-x="873" 
d="M308 636h-155q-22 0 -35 -14.5t-25 -48.5h-36l27 163h309v-28l-195 -421h-78zM803 284q0 -38 -27.5 -66t-65.5 -36q111 -46 111 -122q0 -66 -48.5 -101.5t-120.5 -35.5q-75 0 -123 31t-48 83q0 40 27.5 68.5t70.5 38.5q-83 42 -83 114q0 58 42.5 94.5t112.5 36.5
q69 0 110.5 -28.5t41.5 -76.5zM676 98l-74 35q-42 -28 -42 -87q0 -38 25.5 -59t67.5 -21q38 0 60 17t22 46q0 24 -14.5 39.5t-44.5 29.5zM633 217l55 -25q39 27 39 82q0 35 -20.5 54t-55.5 19q-33 0 -52.5 -17t-19.5 -42q0 -46 54 -71zM158 0l449 741h65l-450 -741h-64z" />
    <glyph glyph-name="partialdiff" unicode="&#x2202;" horiz-adv-x="592" 
d="M280 529q78 0 134 -65q-35 89 -112.5 165t-181.5 112l20 35q203 -50 307.5 -176.5t104.5 -289.5q0 -154 -71.5 -237t-189.5 -83q-114 0 -183.5 75.5t-69.5 192.5q0 125 71 198t171 73zM305 48q60 0 92 55.5t32 149.5q0 100 -38 165t-104 65q-61 0 -92.5 -53t-31.5 -147
q0 -101 38 -168t104 -67z" />
    <glyph glyph-name="Delta" unicode="&#x2206;" horiz-adv-x="696" 
d="M662 0h-628v39l288 663h47l293 -663v-39zM312 547l-209 -491h420z" />
    <glyph glyph-name="product" unicode="&#x220f;" horiz-adv-x="794" 
d="M25 702h744v-48q-53 -2 -74.5 -16t-21.5 -55v-661q0 -41 21.5 -55t74.5 -16v-48h-314v48q52 2 73.5 16t21.5 55v734h-306v-734q0 -41 21.5 -55t73.5 -16v-48h-314v48q53 2 74 15.5t21 55.5v661q0 42 -21 55.5t-74 15.5v48z" />
    <glyph glyph-name="summation" unicode="&#x2211;" horiz-adv-x="609" 
d="M140 -93h202q74 0 104.5 17t73.5 89h45l-35 -210h-506v45l286 398l-281 404v52h509v-174h-45q-29 70 -58.5 96.5t-89.5 26.5h-168l236 -340v-27z" />
    <glyph glyph-name="minus" unicode="&#x2212;" horiz-adv-x="576" 
d="M66 333v72h444v-72h-444z" />
    <glyph glyph-name="radical" unicode="&#x221a;" horiz-adv-x="593" 
d="M316 175l199 537h64l-260 -712h-75l-135 434q-9 30 -20 42t-33 13l-36 1v46h196z" />
    <glyph glyph-name="infinity" unicode="&#x221e;" horiz-adv-x="783" 
d="M348 348l-46 52q-40 46 -91 46q-39 0 -65.5 -26.5t-26.5 -71.5t26.5 -71.5t65.5 -26.5q51 0 91 46zM481 400l-46 -52l46 -52q40 -46 91 -46q38 0 65 26.5t27 71.5t-27 71.5t-65 26.5q-51 0 -91 -46zM391 298l-38 -44q-64 -72 -146 -72q-67 0 -113.5 45.5t-46.5 120.5
q0 76 46 121t114 45q82 0 146 -72l38 -44l39 44q64 72 145 72q68 0 114 -45t46 -121q0 -75 -46.5 -120.5t-113.5 -45.5q-83 0 -145 72z" />
    <glyph glyph-name="integral" unicode="&#x222b;" horiz-adv-x="428" 
d="M239 557v-543q0 -103 -49 -156.5t-132 -53.5q-57 0 -89.5 22t-32.5 61q0 36 33 56h59v-30q0 -63 44 -63q27 0 36.5 27t9.5 82v543q0 103 49 156.5t132 53.5q56 0 89 -22t33 -61q0 -36 -33 -56h-59v30q0 63 -44 63q-27 0 -36.5 -27t-9.5 -82z" />
    <glyph glyph-name="approxequal" unicode="&#x2248;" horiz-adv-x="586" 
d="M71 383v73q62 41 120 41q39 0 102 -20t101 -20q60 0 122 41v-73q-62 -41 -122 -41q-38 0 -101 20t-102 20q-58 0 -120 -41zM71 246v72q60 41 120 41q39 0 102 -19.5t101 -19.5q62 0 122 40v-73q-60 -40 -122 -40q-38 0 -101 19t-102 19q-59 0 -120 -39z" />
    <glyph glyph-name="notequal" unicode="&#x2260;" horiz-adv-x="586" 
d="M71 408v69h263l74 104h75l-74 -104h107v-69h-157l-56 -79h213v-68h-262l-74 -104h-75l74 104h-108v68h157l56 79h-213z" />
    <glyph glyph-name="lessequal" unicode="&#x2264;" horiz-adv-x="448" 
d="M54 401v9l318 172v-82l-182 -94l182 -95v-82zM54 128v71h318v-71h-318z" />
    <glyph glyph-name="greaterequal" unicode="&#x2265;" horiz-adv-x="448" 
d="M394 410v-9l-318 -172v82l183 95l-183 94v82zM394 199v-71h-318v71h318z" />
    <glyph glyph-name="lozenge" unicode="&#x25ca;" horiz-adv-x="596" 
d="M51 351l203 351h88l203 -351l-203 -351h-88zM456 351l-158 283l-159 -283l159 -283z" />
    <glyph glyph-name="ff" unicode="&#xfb00;" horiz-adv-x="711" 
d="M331 755q103 0 158 -57q56 69 160 69q60 0 93.5 -21.5t33.5 -61.5q0 -36 -33 -56h-62v30q0 64 -50 64q-66 0 -66 -124v-63h126v-59h-126v-372q0 -18 4 -28.5t18 -16.5t26.5 -8t43.5 -6v-45h-283v45q39 5 54.5 15t15.5 42v374h-212v-374q0 -32 16 -42t55 -15v-45h-264v45
q27 4 39.5 7.5t22.5 15.5t10 34v374h-74v42l74 24v10q0 90 64.5 146.5t155.5 56.5zM444 556q0 37 7 65q-18 36 -49 60.5t-68 24.5q-48 0 -75 -31t-27 -90v-50h212v21z" />
    <glyph glyph-name="fi" unicode="&#xfb01;" horiz-adv-x="669" 
d="M303 0h-264v45q27 4 39.5 7.5t22.5 15.5t10 34v374h-74v42l74 24v11q0 99 66 156.5t167 57.5q72 0 113 -21t41 -62q0 -38 -34 -59h-74v29q0 35 -15 51.5t-48 16.5q-41 0 -68 -36t-27 -103v-48h275l31 12h27v-445q0 -32 16 -42t56 -15v-45h-263v45q39 5 54.5 15t15.5 42
v374h-212v-374q0 -32 16 -42t55 -15v-45z" />
    <glyph glyph-name="fl" unicode="&#xfb02;" horiz-adv-x="668" 
d="M111 102v374h-74v42l74 24v14q0 97 61 154t149 57q76 0 133 -36l84 30h27v-659q0 -31 16.5 -41.5t55.5 -15.5v-45h-264v45q39 5 55 15t16 42v537q-41 83 -117 83q-47 0 -71 -33t-24 -93v-60h121v-60h-121v-374q0 -32 16 -42t55 -15v-45h-264v45q27 4 39.5 7.5t22.5 15.5
t10 34z" />
    <glyph glyph-name="ffi" unicode="&#xfb03;" horiz-adv-x="1002" 
d="M331 755q106 0 163 -62q65 74 183 74q72 0 113.5 -21t41.5 -62q0 -37 -35 -59h-74v29q0 35 -15 51.5t-48 16.5q-41 0 -68 -36t-27 -103v-48h275l31 12h27v-445q0 -31 16.5 -41.5t56.5 -15.5v-45h-264v45q27 4 39.5 7.5t22 15.5t9.5 34v374h-213v-374q0 -32 16 -42t55 -15
v-45h-262v45q39 5 54.5 15t15.5 42v374h-212v-374q0 -32 16 -42t55 -15v-45h-264v45q27 4 39.5 7.5t22.5 15.5t10 34v374h-74v42l74 24v10q0 90 64.5 146.5t155.5 56.5zM232 585v-50h212v18q0 35 9 65q-18 37 -49.5 62.5t-69.5 25.5q-48 0 -75 -31t-27 -90z" />
    <glyph glyph-name="ffl" unicode="&#xfb04;" horiz-adv-x="1002" 
d="M111 542v10q0 90 64.5 146.5t155.5 56.5q105 0 160 -59q60 71 163 71q76 0 133 -36l84 30h27v-659q0 -31 16.5 -41.5t56.5 -15.5v-45h-265v45q40 5 56 15t16 42v537q-42 83 -118 83q-47 0 -71 -33t-24 -93v-60h121v-60h-121v-374q0 -32 16 -42t55 -15v-45h-262v45
q39 5 54.5 15t15.5 42v374h-212v-374q0 -32 16 -42t55 -15v-45h-264v45q27 4 39.5 7.5t22.5 15.5t10 34v374h-74v42zM444 556q0 32 8 64q-18 36 -49.5 61t-68.5 25q-48 0 -75 -31t-27 -90v-50h212v21z" />
    <glyph glyph-name="Aring.sc" horiz-adv-x="659" 
d="M445 118l-31 72h-239l-29 -72q-8 -19 -8 -34q0 -20 15 -28t57 -9v-47h-196v47q42 7 51 31l195 464l-31 65h131l233 -529q10 -25 52 -31v-47h-262v47q42 2 57 9.5t15 27.5q0 12 -10 34zM212 739q0 40 28 67t71 27q44 0 71.5 -27t27.5 -67q0 -41 -27.5 -67.5t-71.5 -26.5
q-43 0 -71 26.5t-28 67.5zM293 474l-97 -235h197zM361 739q0 23 -13 37t-37 14q-23 0 -36 -14t-13 -37t13 -37t36 -14q24 0 37 14t13 37z" />
    <glyph glyph-name="zero.op" horiz-adv-x="639" 
d="M176 300q0 -113 36.5 -183t106.5 -70q71 0 107.5 70t36.5 183q0 112 -36.5 182.5t-107.5 70.5q-70 0 -106.5 -70.5t-36.5 -182.5zM44 300q0 136 77 223t198 87q122 0 199 -87t77 -223t-77 -223t-199 -87q-121 0 -198 87t-77 223z" />
    <glyph glyph-name="six.op" horiz-adv-x="589" 
d="M481 673q-141 -34 -216 -112.5t-91 -188.5q69 77 174 77q88 0 144 -56.5t56 -152.5q0 -115 -70 -182.5t-175 -67.5q-116 0 -187.5 82t-71.5 211q0 173 111.5 289.5t305.5 139.5zM279 376q-60 0 -107 -32q-3 -28 -3 -60q0 -106 38 -173t104 -67q59 0 90.5 43t31.5 118
q0 79 -40 125t-114 46z" />
    <glyph glyph-name="sterling.op" horiz-adv-x="629" 
d="M97 314v45h102l8 64q14 120 71 179t151 59q68 0 108 -26t40 -76q0 -45 -35 -62h-68v39q0 37 -12.5 56.5t-43.5 19.5q-37 0 -55 -35.5t-30 -110.5l-16 -107h150v-45h-156l-13 -91q-4 -40 -17 -80q100 -49 176 -49q46 0 69.5 22t23.5 72l30 3q18 -29 18 -72q0 -65 -36 -97
t-101 -32q-107 0 -209 91q-48 -91 -139 -91q-49 0 -74.5 26t-25.5 68q0 45 29 72.5t76 27.5q31 0 58 -9l17 139h-96zM108 38q49 0 61 85q-30 14 -53 14q-26 0 -39.5 -15t-13.5 -38q0 -21 12.5 -33.5t32.5 -12.5z" />
    <glyph glyph-name="Imacron" horiz-adv-x="383" 
d="M350 0h-317v48q53 2 74 16t21 56v463q0 42 -21 55.5t-74 15.5v48h317v-48q-53 -2 -74 -15.5t-21 -55.5v-463q0 -42 21 -56t74 -16v-48zM45 776v75h292v-75h-292z" />
    <glyph glyph-name="Aacute.sc" horiz-adv-x="659" 
d="M445 118l-31 72h-239l-29 -72q-8 -19 -8 -34q0 -20 15 -28t57 -9v-47h-196v47q42 7 51 31l195 464l-31 65h131l233 -529q10 -25 52 -31v-47h-262v47q42 2 57 9.5t15 27.5q0 12 -10 34zM293 474l-97 -235h197zM346 817h136l-152 -167h-57z" />
    <glyph glyph-name="Agrave.sc" horiz-adv-x="659" 
d="M445 118l-31 72h-239l-29 -72q-8 -19 -8 -34q0 -20 15 -28t57 -9v-47h-196v47q42 7 51 31l195 464l-31 65h131l233 -529q10 -25 52 -31v-47h-262v47q42 2 57 9.5t15 27.5q0 12 -10 34zM293 474l-97 -235h197zM136 817h137l71 -167h-56z" />
    <glyph glyph-name="Acircumflex.sc" horiz-adv-x="659" 
d="M445 118l-31 72h-239l-29 -72q-8 -19 -8 -34q0 -20 15 -28t57 -9v-47h-196v47q42 7 51 31l195 464l-31 65h131l233 -529q10 -25 52 -31v-47h-262v47q42 2 57 9.5t15 27.5q0 12 -10 34zM355 819l140 -171h-61l-123 96l-123 -96h-61l140 171h88zM293 474l-97 -235h197z" />
    <glyph glyph-name="Adieresis.sc" horiz-adv-x="659" 
d="M445 118l-31 72h-239l-29 -72q-8 -19 -8 -34q0 -20 15 -28t57 -9v-47h-196v47q42 7 51 31l195 464l-31 65h131l233 -529q10 -25 52 -31v-47h-262v47q42 2 57 9.5t15 27.5q0 12 -10 34zM293 474l-97 -235h197zM342 735q0 29 20 49t49 20t49.5 -20t20.5 -49t-20.5 -49.5
t-49.5 -20.5t-49 20.5t-20 49.5zM143 735q0 29 20.5 49t48.5 20q29 0 49.5 -20t20.5 -49t-20.5 -49.5t-49.5 -20.5t-49 20.5t-20 49.5z" />
    <glyph glyph-name="Atilde.sc" horiz-adv-x="659" 
d="M445 118l-31 72h-239l-29 -72q-8 -19 -8 -34q0 -20 15 -28t57 -9v-47h-196v47q42 7 51 31l195 464l-31 65h131l233 -529q10 -25 52 -31v-47h-262v47q42 2 57 9.5t15 27.5q0 12 -10 34zM464 805l43 -11q-34 -78 -59.5 -103.5t-64.5 -25.5q-32 0 -79 34.5t-65 34.5
q-21 0 -34 -13.5t-31 -46.5l-44 10q35 79 60.5 104t64.5 25q33 0 79.5 -34t64.5 -34q21 0 33 13t32 47zM293 474l-97 -235h197z" />
    <glyph glyph-name="E.sc" horiz-adv-x="608" 
d="M543 0h-505v47q46 2 63 13.5t17 46.5v386q0 35 -17 46.5t-63 13.5v47h500v-154h-43q-24 58 -48.5 80.5t-74.5 22.5h-131v-215h112q28 0 42 16t20 55h43v-194h-43q-6 39 -20 55.5t-42 16.5h-112v-175q0 -33 18.5 -45.5t61.5 -12.5h59q49 0 74.5 22.5t71.5 94.5h43z" />
    <glyph glyph-name="A.sc" horiz-adv-x="659" 
d="M445 118l-31 72h-239l-29 -72q-8 -19 -8 -34q0 -20 15 -28t57 -9v-47h-196v47q42 7 51 31l195 464l-31 65h131l233 -529q10 -25 52 -31v-47h-262v47q42 2 57 9.5t15 27.5q0 12 -10 34zM293 474l-97 -235h197z" />
    <glyph glyph-name="S.sc" horiz-adv-x="528" 
d="M253 -10q-124 0 -200 59l-7 141h57q38 -148 158 -148q53 0 83.5 23.5t30.5 68.5q0 37 -29 59.5t-106 46.5q-98 30 -142.5 72t-44.5 117q0 81 56 131t149 50q111 0 189 -54v-130h-50q-37 133 -145 133q-48 0 -73.5 -23.5t-25.5 -60.5q0 -39 27.5 -61.5t103.5 -45.5
q102 -30 149 -73.5t47 -121.5q0 -88 -64.5 -135.5t-162.5 -47.5z" />
    <glyph glyph-name="U.sc" horiz-adv-x="691" 
d="M227 493v-274q0 -156 138 -156q79 0 120 37.5t41 125.5v267q0 34 -18.5 46t-65.5 14v47h228v-47q-45 -2 -62 -14t-17 -46v-288q0 -104 -67.5 -159.5t-170.5 -55.5q-120 0 -186 54.5t-66 161.5v287q0 34 -17 46t-62 14v47h283v-47q-45 -2 -61.5 -13.5t-16.5 -46.5z" />
    <glyph glyph-name="R.sc" horiz-adv-x="657" 
d="M285 549h-44v-246h45q74 0 109.5 30.5t35.5 94.5q0 57 -37 89t-109 32zM320 0h-282v47q46 2 63 13.5t17 46.5v386q0 35 -17 46.5t-63 13.5v47h290q116 0 173.5 -45.5t57.5 -125.5q0 -63 -43.5 -103.5t-105.5 -51.5l125 -166q42 -60 104 -61v-47h-156q-39 28 -76 85
l-119 172h-47v-150q0 -35 17 -46.5t62 -13.5v-47z" />
    <glyph glyph-name="C.sc" horiz-adv-x="620" 
d="M363 46q59 0 94.5 36.5t61.5 115.5h56l-18 -156q-91 -52 -211 -52q-138 0 -220 83.5t-82 214.5q0 145 89 233.5t222 88.5q126 0 198 -60v-134h-55q-35 140 -147 140q-87 0 -129 -69t-42 -175q0 -119 47.5 -192.5t135.5 -73.5z" />
    <glyph glyph-name="one.op" horiz-adv-x="432" 
d="M260 603h33v-489q0 -42 17.5 -52t96.5 -15v-47h-355v47q82 5 101.5 15t19.5 52v331h-128v44l33 5q71 10 107 32.5t75 76.5z" />
    <glyph glyph-name="nine.op" horiz-adv-x="589" 
d="M106 -73q141 34 216 112.5t91 188.5q-69 -77 -174 -77q-88 0 -144 56.5t-56 152.5q0 115 70 182.5t175 67.5q116 0 187.5 -82t71.5 -211q0 -173 -111.5 -289.5t-305.5 -139.5zM308 224q60 0 107 32q3 28 3 60q0 106 -38 173t-104 67q-59 0 -90.5 -43t-31.5 -118
q0 -79 40 -125t114 -46z" />
    <glyph glyph-name="two.op" horiz-adv-x="518" 
d="M155 99h181q47 0 71 14t53 63h33l-30 -176h-441v33l142 135q85 81 110 114q49 64 49 128q0 49 -28.5 78t-81.5 29q-89 0 -158 -100l-28 26q33 74 94 120.5t138 46.5q88 0 137 -47t49 -124q0 -29 -6.5 -54.5t-24 -51.5t-32.5 -45t-47 -46.5t-52 -43.5t-63 -49t-65 -50z
" />
    <glyph glyph-name="percent.op" horiz-adv-x="829" 
d="M124 492q0 -58 18.5 -94.5t58.5 -36.5q76 0 76 131q0 132 -76 132q-40 0 -58.5 -36.5t-18.5 -95.5zM30 492q0 78 50.5 124.5t120.5 46.5t120 -46.5t50 -124.5t-50 -124t-120 -46t-120.5 46t-50.5 124zM704 162q0 131 -76 131t-76 -131t76 -131t76 131zM655 673l-417 -692
h-64l416 692h65zM799 162q0 -78 -50.5 -124.5t-120.5 -46.5t-120.5 46.5t-50.5 124.5t50.5 124.5t120.5 46.5t120.5 -46.5t50.5 -124.5z" />
    <glyph glyph-name="seven.op" horiz-adv-x="494" 
d="M392 488h-238q-37 0 -56 -15t-39 -57h-43l42 184h427v-34l-296 -668h-100z" />
    <glyph glyph-name="O.sc" horiz-adv-x="680" 
d="M351 46q74 0 112.5 68.5t38.5 176.5q0 118 -43 190.5t-129 72.5q-75 0 -113.5 -68.5t-38.5 -176.5q0 -118 43 -190.5t130 -72.5zM335 -10q-134 0 -212.5 86.5t-78.5 212.5q0 144 86 232.5t215 88.5q134 0 213 -86.5t79 -212.5q0 -144 -86.5 -232.5t-215.5 -88.5z" />
    <glyph glyph-name="five.op" horiz-adv-x="485" 
d="M228 -63q58 0 90.5 35.5t32.5 97.5q0 84 -78 130.5t-207 56.5l55 343h304v-114h-274l-19 -124q90 -7 159 -33.5t114.5 -83t45.5 -136.5q0 -101 -68.5 -161t-172.5 -60q-84 0 -137.5 31t-53.5 83q0 38 30 57h61q6 -56 35 -89t83 -33z" />
    <glyph glyph-name="three.op" horiz-adv-x="492" 
d="M263 290q91 -8 144.5 -59.5t53.5 -132.5q0 -94 -72 -152t-173 -58q-88 0 -142.5 31t-54.5 83q0 38 30 57h61q6 -56 35 -89t84 -33q52 0 83.5 36t31.5 96q0 76 -54.5 116.5t-152.5 40.5l-9 37q91 28 137.5 64.5t46.5 94.5q0 43 -27 68.5t-73 25.5q-86 0 -143 -86l-27 24
q30 68 85.5 112t132.5 44q78 0 124 -42.5t46 -109.5q0 -65 -51 -109t-116 -59z" />
    <glyph glyph-name="M.sc" horiz-adv-x="859" 
d="M639 123l-44 324l-169 -447h-45l-178 449l-43 -326q-2 -14 -2 -22q0 -30 18 -41t65 -13v-47h-220v47q38 2 53.5 12t19.5 39l55 392q0 35 -15 48t-58 15v47h198q3 -26 13 -52l147 -369l141 369q12 35 14 52h194v-47q-44 -2 -59 -15t-15 -48l55 -392q4 -30 19.5 -39.5
t53.5 -11.5v-47h-279v47q48 2 65.5 13t17.5 41q0 8 -2 22z" />
    <glyph glyph-name="N.sc" horiz-adv-x="705" 
d="M118 107v398q-24 29 -38.5 38t-41.5 10v47h183l312 -398v291q0 34 -18.5 46t-64.5 14v47h226v-47q-46 -2 -63 -13.5t-17 -46.5v-493h-52l-362 451v-344q0 -34 18.5 -46t64.5 -14v-47h-227v47q46 2 63 13.5t17 46.5z" />
    <glyph glyph-name="f_k" horiz-adv-x="939" 
d="M574 286l155 147q19 19 19 30q0 13 -13.5 18t-58.5 11v44h238v-44q-57 -14 -84 -39l-137 -129l240 -289v-35h-128zM444 102v537q-41 83 -117 83q-47 0 -71 -33t-24 -93v-60h121v-60h-121v-374q0 -32 16 -42t55 -15v-45h-264v45q27 4 39.5 7.5t22.5 15.5t10 34v374h-74v42
l74 24v14q0 97 61 154t149 57q76 0 133 -36l84 30h27v-659q0 -31 16.5 -41.5t55.5 -15.5v-45h-264v45q39 5 55 15t16 42z" />
    <glyph glyph-name="dollar.op" horiz-adv-x="530" 
d="M170 -113l17 108q-92 12 -140 54l-8 155h49q28 -117 109 -150l36 223l-33 13q-76 29 -115 69.5t-39 113.5q0 83 59 135t158 52q21 0 32 -1l16 98h48l-17 -105q76 -14 119 -48v-141h-45q-19 97 -84 129l-34 -208l32 -12q80 -30 120.5 -71t40.5 -117q0 -92 -68 -143
t-173 -51h-16l-16 -103h-48zM284 258l-6 2l-35 -217h17q60 0 95 27.5t35 75.5q0 43 -25.5 67.5t-80.5 44.5zM145 514q0 -39 22 -63.5t69 -42.5l17 -7l33 205q-18 2 -30 2q-53 0 -82 -26t-29 -68z" />
    <glyph glyph-name="Euro.op" horiz-adv-x="648" 
d="M23 356v46h86q22 119 99.5 188.5t184.5 69.5q119 0 190 -58v-146h-49q-18 75 -53 111.5t-93 36.5q-65 0 -104 -56t-49 -146h229l-11 -46h-221v-19q0 -31 1 -45h206l-11 -45h-191q12 -92 52 -146t112 -54q62 0 98.5 38.5t60.5 121.5h50l-16 -166q-86 -51 -199 -51
q-121 0 -196 69.5t-92 187.5h-84v45h79v23q0 27 1 41h-80z" />
    <glyph glyph-name="dollar.lt" 
d="M193 -113l18 109q-92 14 -143 57l-8 168h52q28 -123 110 -161l42 241l-32 13q-81 30 -123 74t-42 123q0 89 63 145t167 56q13 0 37 -2l18 104h48l-19 -110q80 -16 126 -51v-153h-47q-23 105 -90 139l-38 -224l35 -14q86 -32 129 -76t43 -126q0 -100 -72 -154.5
t-184 -54.5q-16 0 -24 1l-18 -104h-48zM320 280l-11 4l-40 -237q8 -1 25 -1q63 0 100.5 30.5t37.5 81.5q0 46 -27 72.5t-85 49.5zM172 555q0 -43 23 -69.5t73 -45.5l18 -8l38 221q-17 3 -35 3q-55 0 -86 -28t-31 -73z" />
    <glyph glyph-name="nine.lt" 
d="M109 29q143 34 221.5 112.5t95.5 187.5q-73 -78 -179 -78q-91 0 -148.5 56t-57.5 154q0 115 71 182.5t179 67.5q123 0 195 -81.5t72 -211.5q0 -174 -113 -290.5t-315 -138.5zM320 325q55 0 108 34q3 28 3 59q0 105 -40 172t-107 67q-60 0 -93 -42t-33 -118
q0 -79 42.5 -125.5t119.5 -46.5z" />
    <glyph glyph-name="period.tab" horiz-adv-x="300" 
d="M67 73q0 36 24 60t59 24t59 -24t24 -60q0 -35 -24 -59t-59 -24t-59 24t-24 59z" />
    <glyph glyph-name="five.lt" 
d="M497 702v-117h-297l-22 -128q164 -6 259.5 -64.5t95.5 -178.5q0 -101 -67.5 -162.5t-176.5 -61.5q-108 0 -169 41t-61 101q0 52 45 74h74v-32q0 -133 120 -133q61 0 94 34.5t33 92.5q0 89 -84 135t-233 46l57 353h332z" />
    <glyph glyph-name="zero.lt" 
d="M172 351q0 -68 5.5 -119t19 -95t39.5 -67t64 -23t64.5 23t39.5 67t18.5 95t5.5 119t-5.5 119t-18.5 95t-39.5 67t-64.5 23t-64 -23t-39.5 -67t-19 -95t-5.5 -119zM567 351q0 -160 -69 -260.5t-198 -100.5t-198 100.5t-69 260.5t69 260.5t198 100.5t198 -100.5t69 -260.5z
" />
    <glyph glyph-name="sterling.lt" 
d="M88 339v47h101l8 70q13 129 70 192.5t151 63.5q68 0 108.5 -27.5t40.5 -80.5q0 -51 -36 -68h-71v44q0 41 -11 61t-41 20q-36 0 -53.5 -38t-30.5 -121l-15 -116h147v-47h-153l-13 -98q-5 -53 -17 -86q98 -54 171 -54q47 0 70 22.5t23 77.5l29 3q19 -33 19 -77
q0 -70 -36 -103.5t-101 -33.5q-104 0 -202 98q-51 -98 -137 -98q-52 0 -78.5 27.5t-26.5 73.5q0 48 30 77.5t76 29.5q31 0 58 -9l16 150h-96zM99 42q49 0 62 90q-28 15 -52 15q-26 0 -39.5 -15.5t-13.5 -40.5q0 -23 12 -36t31 -13z" />
    <glyph glyph-name="six.lt" 
d="M491 672q-143 -34 -221.5 -112.5t-95.5 -187.5q73 78 179 78q91 0 148.5 -56t57.5 -154q0 -115 -71 -182.5t-179 -67.5q-123 0 -195 81.5t-72 211.5q0 174 113 290.5t315 138.5zM280 376q-55 0 -108 -34q-3 -28 -3 -59q0 -105 40 -172t107 -67q60 0 93 42t33 118
q0 79 -42.5 125.5t-119.5 46.5z" />
    <glyph glyph-name="three.lt" 
d="M330 396q97 -8 155 -58.5t58 -129.5q0 -101 -77 -159.5t-186 -58.5q-110 0 -172.5 41.5t-62.5 100.5q0 51 46 74h73v-35q0 -63 32.5 -97t93.5 -34q60 0 93.5 35t33.5 96q0 75 -52.5 116t-140.5 41h-34l-9 37q96 28 145 64.5t49 95.5q0 44 -29 69t-78 25q-91 0 -153 -88
l-29 25q32 69 91 112.5t143 43.5q83 0 131.5 -42.5t48.5 -111.5q0 -64 -50.5 -105.5t-119.5 -56.5z" />
    <glyph glyph-name="two.lt" 
d="M169 104h170q64 0 95 17t67 83h34l-36 -204h-473v33l186 185q91 90 123.5 146.5t32.5 118.5q0 63 -34.5 96.5t-99.5 33.5q-35 0 -67.5 -14.5t-50.5 -29.5t-45 -42l-28 28q88 157 245 157q99 0 155.5 -53.5t56.5 -144.5q0 -30 -8 -59t-28 -59.5t-37.5 -53.5t-54 -57.5
t-59.5 -55t-71 -62t-73 -63.5z" />
    <glyph glyph-name="Euro.lt" 
d="M14 384v47h67q21 130 97 205.5t184 75.5q120 0 190 -62v-156h-54q-18 81 -51 119.5t-90 38.5q-67 0 -103 -60.5t-44 -160.5h227l-13 -47h-217v-20q0 -33 1 -48h202l-11 -48h-188q23 -217 157 -217q63 0 97 40t58 131h55l-15 -178q-90 -54 -199 -54q-121 0 -195 75
t-91 203h-64v48h60v24q0 29 1 44h-61z" />
    <glyph glyph-name="dollar.ot" 
d="M204 -113l17 108q-90 12 -140 54l-8 155h50q26 -118 108 -150l37 223l-33 13q-76 29 -115.5 69.5t-39.5 113.5q0 83 59.5 135t157.5 52q11 0 33 -2l16 99h48l-17 -105q74 -14 119 -48v-141h-45q-21 98 -84 129l-34 -208l31 -12q81 -30 121.5 -71t40.5 -117
q0 -92 -68.5 -143t-172.5 -51h-16l-17 -103h-48zM318 258l-5 2l-35 -217h17q59 0 94 27.5t35 75.5q0 43 -25.5 67.5t-80.5 44.5zM179 514q0 -39 22 -63.5t69 -42.5l18 -7l33 205q-20 2 -31 2q-53 0 -82 -26t-29 -68z" />
    <glyph glyph-name="nine.ot" 
d="M113 -73q143 34 221 113t93 188q-69 -77 -177 -77q-90 0 -148.5 57t-58.5 152q0 114 71.5 182t178.5 68q118 0 191 -82t73 -211q0 -173 -113.5 -289.5t-311.5 -139.5zM320 221q59 0 110 35q3 28 3 60q0 105 -40 172.5t-108 67.5q-60 0 -93.5 -43t-33.5 -118
q0 -80 42.5 -127t119.5 -47z" />
    <glyph glyph-name="five.ot" 
d="M285 -62q60 0 94 35.5t34 97.5q0 84 -81 130t-215 56l57 343h318v-114h-286l-20 -124q146 -12 238 -73.5t92 -178.5q0 -101 -71 -161t-179 -60q-87 0 -142.5 31t-55.5 83q0 38 31 57h61q5 -56 37 -89t88 -33z" />
    <glyph glyph-name="zero.ot" 
d="M300 47q67 0 101 69.5t34 183.5q0 113 -34 183t-101 70t-101 -70t-34 -183q0 -114 34 -183.5t101 -69.5zM300 -10q-120 0 -193.5 86.5t-73.5 223.5t73.5 223.5t193.5 86.5t193.5 -86.5t73.5 -223.5t-73.5 -223.5t-193.5 -86.5z" />
    <glyph glyph-name="sterling.ot" 
d="M95 314v45h99l7 61q12 121 68.5 181t147.5 60q66 0 105.5 -26t39.5 -76q0 -45 -35 -62h-66v39q0 76 -53 76q-37 0 -53.5 -34.5t-28.5 -111.5l-15 -107h145v-45h-152l-12 -91q-5 -47 -17 -80q98 -49 165 -49q90 0 90 94l31 3q18 -33 18 -72q0 -65 -35.5 -97t-98.5 -32
q-98 0 -198 91q-21 -41 -57 -66t-80 -25q-47 0 -72.5 26t-25.5 68q0 45 28.5 72.5t74.5 27.5q30 0 57 -9l16 139h-93zM105 38q48 0 60 85q-28 14 -51 14q-25 0 -38 -15t-13 -38q0 -21 11.5 -33.5t30.5 -12.5z" />
    <glyph glyph-name="six.ot" 
d="M487 673q-143 -34 -221 -113t-93 -188q69 77 177 77q90 0 148.5 -57t58.5 -152q0 -114 -71.5 -182t-178.5 -68q-118 0 -191 82t-73 211q0 173 113.5 289.5t311.5 139.5zM280 379q-59 0 -110 -35q-3 -28 -3 -60q0 -105 40 -172.5t108 -67.5q60 0 93.5 43t33.5 118
q0 80 -42.5 127t-119.5 47z" />
    <glyph glyph-name="three.ot" 
d="M308 287q96 -8 153 -58.5t57 -130.5q0 -94 -75.5 -152t-182.5 -58q-92 0 -149 31t-57 83q0 38 31 57h64q12 -121 128 -121q56 0 90 36t34 95q0 76 -58.5 116.5t-165.5 40.5l-9 37q98 29 148 64t50 94q0 45 -29.5 71t-79.5 26q-89 0 -151 -88l-28 24q31 69 89 112.5
t140 43.5t130.5 -42.5t48.5 -109.5q0 -65 -55 -110.5t-123 -60.5z" />
    <glyph glyph-name="two.ot" 
d="M182 99h194q49 0 74.5 14t54.5 63h32l-31 -176h-462v33l147 135q6 5 28 25.5t29 27t26 24.5t25.5 27t20.5 25.5t19.5 27.5t13 26.5t10 30.5t2.5 30q0 48 -29.5 77t-83.5 29q-102 0 -172 -101l-30 26q35 74 98 120.5t144 46.5q91 0 142.5 -47t51.5 -124q0 -29 -7 -55
t-25 -51.5t-34.5 -44.5t-49.5 -46.5t-54 -43.5t-65.5 -48.5t-68.5 -50.5z" />
    <glyph glyph-name="Euro.ot" 
d="M22 356v46h78q20 119 93 188.5t175 69.5q114 0 181 -58v-146h-51q-16 75 -47.5 111.5t-84.5 36.5q-62 0 -96.5 -55.5t-43.5 -146.5h209l-12 -46h-200v-19q0 -31 1 -45h186l-11 -45h-172q23 -200 149 -200q58 0 91 38t57 122h50l-14 -166q-83 -51 -190 -51
q-115 0 -186 69.5t-87 187.5h-75v45h71v23q0 27 1 41h-72z" />
    <glyph glyph-name="parenleft.cap" horiz-adv-x="353" 
d="M61 334q0 125 52 239t149 197h64q-90 -96 -126.5 -202t-36.5 -234t36.5 -234t126.5 -202h-64q-97 83 -149 197t-52 239z" />
    <glyph glyph-name="endash.cap" horiz-adv-x="580" 
d="M530 323h-480v72h480v-72z" />
    <glyph glyph-name="parenright.cap" horiz-adv-x="353" 
d="M292 334q0 -124 -52 -238.5t-148 -197.5h-65q90 96 126.5 202t36.5 234t-36.5 234t-126.5 202h65q96 -83 148 -197.5t52 -238.5z" />
    <glyph glyph-name="parenleft.sc" horiz-adv-x="349" 
d="M60 289q0 113 52 219t150 181h67q-166 -157 -166 -400t166 -400h-67q-98 74 -150 180t-52 220z" />
    <glyph glyph-name="Q.sc" horiz-adv-x="680" 
d="M345 609q134 0 212.5 -86t78.5 -212q0 -119 -60 -202t-158 -109l38 -33q44 -42 70.5 -59t59.5 -19v-24q-33 -20 -78 -20q-94 0 -158 84l-48 63q-120 10 -189 94.5t-69 202.5q0 144 86 232t215 88zM350 46q75 0 113.5 68t38.5 177q0 118 -43 190t-130 72
q-74 0 -112.5 -68.5t-38.5 -176.5q0 -117 43 -189.5t129 -72.5z" />
    <glyph glyph-name="parenright.sc" horiz-adv-x="349" 
d="M289 289q0 -114 -52 -220t-149 -180h-68q166 157 166 400t-166 400h68q97 -75 149 -181t52 -219z" />
    <glyph glyph-name="B.sc" horiz-adv-x="622" 
d="M307 283h-66v-177q0 -33 17.5 -45t60.5 -12h9q121 0 121 114q0 55 -34 87.5t-108 32.5zM289 549h-48v-217h51q129 0 129 113q0 50 -33.5 77t-98.5 27zM346 0h-308v47q46 2 63 13.5t17 46.5v386q0 35 -17 46.5t-63 13.5v47h298q102 0 156.5 -38.5t54.5 -112.5
q0 -61 -44.5 -95t-112.5 -43q88 -6 138.5 -44.5t50.5 -104.5q0 -78 -60.5 -120t-172.5 -42z" />
    <glyph glyph-name="ampersand.sc" horiz-adv-x="628" 
d="M20 157q0 63 37 102.5t106 65.5q-55 64 -55 131q0 68 48 111t127 43q78 0 122.5 -34.5t44.5 -92.5q0 -95 -148 -146l150 -171q19 40 19 81q0 27 -9.5 37.5t-33.5 10.5v46h180v-46q-48 0 -64 -12t-24 -50q-12 -56 -39 -100l37 -41q42 -46 89 -46v-46h-142q-34 21 -59 47
q-76 -57 -174 -57q-89 0 -150.5 44.5t-61.5 122.5zM273 52q54 0 102 29l-11 13l-178 204q-52 -35 -52 -112q0 -59 39.5 -96.5t99.5 -37.5zM209 492q0 -50 65 -123l6 -7q75 38 75 123q0 35 -20 56.5t-53 21.5q-34 0 -53.5 -19t-19.5 -52z" />
    <glyph glyph-name="D.sc" horiz-adv-x="697" 
d="M294 549h-52v-438q0 -36 17.5 -48t58.5 -12h14q89 0 138 62.5t49 185.5q0 110 -56 180t-169 70zM335 0h-297v47q46 2 63 13.5t17 46.5v386q0 35 -17 46.5t-63 13.5v47h275q166 0 253.5 -78.5t87.5 -208.5q0 -147 -88 -230t-231 -83z" />
    <glyph glyph-name="F.sc" horiz-adv-x="562" 
d="M349 0h-311v47q46 2 63 13.5t17 46.5v386q0 35 -17 46.5t-63 13.5v47h487v-157h-43q-25 59 -50 82.5t-74 23.5h-117v-225h96q29 0 42.5 16t20.5 55h43v-194h-43q-7 40 -20.5 56t-42.5 16h-96v-169q0 -33 24.5 -45t83.5 -14v-45z" />
    <glyph glyph-name="G.sc" horiz-adv-x="671" 
d="M44 288q0 145 91.5 233.5t223.5 88.5q128 0 200 -60v-134h-55q-37 140 -149 140q-87 0 -131.5 -70t-44.5 -174q0 -120 46.5 -193.5t139.5 -73.5q55 0 90 24v117q0 34 -16.5 45t-60.5 13v48h267v-48q-44 -2 -58.5 -13t-14.5 -45v-134q-87 -62 -222 -62q-142 0 -224 83
t-82 215z" />
    <glyph glyph-name="H.sc" horiz-adv-x="760" 
d="M721 47v-47h-284v47q45 2 62.5 13.5t17.5 46.5v175h-275v-175q0 -35 17.5 -46.5t62.5 -13.5v-47h-284v47q46 2 63 13.5t17 46.5v386q0 35 -17 46.5t-63 13.5v47h284v-47q-45 -2 -62.5 -14t-17.5 -46v-159h275v159q0 35 -17 46.5t-63 13.5v47h284v-47q-46 -2 -62.5 -13.5
t-16.5 -46.5v-386q0 -35 17 -46.5t62 -13.5z" />
    <glyph glyph-name="I.sc" horiz-adv-x="361" 
d="M322 47v-47h-284v47q46 2 63 13.5t17 46.5v386q0 35 -17 46.5t-63 13.5v47h284v-47q-46 -2 -63 -13.5t-17 -46.5v-386q0 -35 17.5 -46.5t62.5 -13.5z" />
    <glyph glyph-name="J.sc" horiz-adv-x="513" 
d="M410 493v-312q0 -191 -205 -191q-86 0 -136.5 32.5t-50.5 87.5q0 43 32 66h88v-42q0 -44 18.5 -69.5t53.5 -25.5q74 0 74 121v333q0 35 -16.5 46.5t-61.5 13.5v47h284v-47q-46 -2 -63 -13.5t-17 -46.5z" />
    <glyph glyph-name="K.sc" horiz-adv-x="673" 
d="M373 345l185 -234q30 -37 50.5 -50t50.5 -15v-46h-154q-38 24 -81 82l-172 224l202 186q22 20 22 36q0 12 -12.5 18t-49.5 7v47h226v-47q-46 -1 -85 -37zM322 47v-47h-284v47q46 2 63 13.5t17 46.5v386q0 35 -17 46.5t-63 13.5v47h284v-47q-45 -2 -62 -14t-17 -46v-386
q0 -35 17 -46.5t62 -13.5z" />
    <glyph glyph-name="L.sc" horiz-adv-x="575" 
d="M243 493v-384q0 -34 17.5 -46t60.5 -12h38q46 0 69 24t73 112h48l-30 -187h-481v47q46 2 63 13.5t17 46.5v386q0 35 -17 46.5t-63 13.5v47h284v-47q-45 -2 -62 -14t-17 -46z" />
    <glyph glyph-name="P.sc" horiz-adv-x="582" 
d="M243 549v-265h49q136 0 136 134q0 61 -35.5 96t-103.5 35h-46zM349 0h-311v47q46 2 63 13.5t17 46.5v386q0 35 -17 46.5t-63 13.5v47h283q119 0 177.5 -51t58.5 -130q0 -85 -57 -134t-171 -49h-86v-129q0 -34 24 -46t82 -14v-47z" />
    <glyph glyph-name="T.sc" horiz-adv-x="638" 
d="M43 600h552l14 -192h-46q-14 32 -18.5 42t-15 32t-15.5 27.5t-15.5 17.5t-19.5 15t-22 6t-29 3h-47v-444q0 -34 19.5 -46t65.5 -14v-47h-294v47q47 2 66.5 14t19.5 46v444h-47q-16 0 -29 -3t-22 -6t-19.5 -15t-15.5 -17.5t-15.5 -27.5t-15 -32t-18.5 -42h-46z" />
    <glyph glyph-name="V.sc" horiz-adv-x="644" 
d="M360 165l133 316q9 23 9 34q0 20 -15 28t-57 10v47h200v-47q-22 -3 -33 -9t-18 -23l-228 -527h-33l-253 527q-5 11 -13 18t-16 9.5t-22 4.5v47h264v-47q-42 -2 -57 -10t-15 -28q0 -15 9 -34z" />
    <glyph glyph-name="W.sc" horiz-adv-x="876" 
d="M619 174l109 299q11 30 11 42q0 20 -14.5 28t-56.5 10v47h194v-47q-43 -7 -52 -32l-199 -527h-39l-127 348l-130 -348h-40l-210 527q-10 25 -51 32v47h257v-47q-38 -2 -53 -10.5t-15 -27.5q0 -11 10 -38l114 -306l90 250l-35 100q-6 16 -17 22.5t-32 9.5v47h247v-47
q-42 -2 -57 -10t-15 -28q0 -12 10 -43z" />
    <glyph glyph-name="X.sc" horiz-adv-x="651" 
d="M405 114l-105 139l-111 -137q-21 -22 -21 -42q0 -15 12.5 -21t51.5 -6v-47h-218v47q45 0 75 36l175 216l-167 218q-26 35 -66 36v47h276v-47q-38 0 -51.5 -6t-13.5 -21q0 -10 23 -42l85 -113l89 113q21 24 21 42q0 15 -13 21t-50 6v47h217v-47q-44 0 -74 -36l-154 -192
l182 -242q26 -33 69 -36v-47h-270v47q37 0 48.5 6t11.5 21q0 9 -22 40z" />
    <glyph glyph-name="Y.sc" horiz-adv-x="612" 
d="M337 289l114 185q18 28 18 46q0 17 -15 24t-54 9v47h198v-47q-37 -6 -52 -32l-180 -291v-123q0 -35 18 -46.5t63 -13.5v-47h-282v47q46 2 64 13.5t18 46.5v123l-182 291q-15 26 -51 32v47h263v-47q-40 -1 -54.5 -8.5t-14.5 -24.5q0 -18 17 -46z" />
    <glyph glyph-name="Z.sc" horiz-adv-x="572" 
d="M185 52h167q50 0 76 25t70 108h45l-29 -185h-484v32l348 515h-156q-45 0 -65 -20.5t-48 -80.5q-4 -10 -7 -15h-42v169h468v-33z" />
    <glyph glyph-name="seven.ot" 
d="M469 488h-285q-36 0 -55.5 -15t-38.5 -57h-44l43 184h473v-34l-304 -668h-100z" />
    <glyph glyph-name="Ibreve.sc" horiz-adv-x="361" 
d="M322 47v-47h-284v47q46 2 63 13.5t17 46.5v386q0 35 -17 46.5t-63 13.5v47h284v-47q-46 -2 -63 -13.5t-17 -46.5v-386q0 -35 17.5 -46.5t62.5 -13.5zM180 650q-70 0 -108 44.5t-38 124.5h48q5 -49 32 -72t66 -23q40 0 67 23t32 72h48q0 -80 -38.5 -124.5t-108.5 -44.5z
" />
    <glyph glyph-name="Iacute.sc" horiz-adv-x="361" 
d="M215 817h136l-152 -167h-57zM322 47v-47h-284v47q46 2 63 13.5t17 46.5v386q0 35 -17 46.5t-63 13.5v47h284v-47q-46 -2 -63 -13.5t-17 -46.5v-386q0 -35 17.5 -46.5t62.5 -13.5z" />
    <glyph glyph-name="Hbar.sc" horiz-adv-x="777" 
d="M127 396h-80v51h80v46q0 35 -17 46.5t-63 13.5v47h284v-47q-45 -2 -62.5 -14t-17.5 -46v-46h275v46q0 35 -17 46.5t-63 13.5v47h284v-47q-46 -2 -62.5 -13.5t-16.5 -46.5v-46h79v-51h-79v-289q0 -35 17 -46.5t62 -13.5v-47h-284v47q45 2 62.5 13.5t17.5 46.5v149h-275
v-149q0 -35 17.5 -46.5t62.5 -13.5v-47h-284v47q45 2 62.5 13.5t17.5 46.5v289zM251 308h275v88h-275v-88z" />
    <glyph glyph-name="Hcircumflex.sc" horiz-adv-x="760" 
d="M424 819l140 -171h-61l-123 96l-123 -96h-61l140 171h88zM721 47v-47h-284v47q45 2 62.5 13.5t17.5 46.5v175h-275v-175q0 -35 17.5 -46.5t62.5 -13.5v-47h-284v47q46 2 63 13.5t17 46.5v386q0 35 -17 46.5t-63 13.5v47h284v-47q-45 -2 -62.5 -14t-17.5 -46v-159h275v159
q0 35 -17 46.5t-63 13.5v47h284v-47q-46 -2 -62.5 -13.5t-16.5 -46.5v-386q0 -35 17 -46.5t62 -13.5z" />
    <glyph glyph-name="Gcommaaccent.sc" horiz-adv-x="671" 
d="M383 -155h-51q-44 10 -44 53q0 25 19 40.5t50 15.5q38 0 60 -23t22 -60q0 -107 -141 -107v37q85 0 85 44zM44 288q0 145 91.5 233.5t223.5 88.5q128 0 200 -60v-134h-55q-37 140 -149 140q-87 0 -131.5 -70t-44.5 -174q0 -120 46.5 -193.5t139.5 -73.5q55 0 90 24v117
q0 34 -16.5 45t-60.5 13v48h267v-48q-44 -2 -58.5 -13t-14.5 -45v-134q-87 -62 -222 -62q-142 0 -224 83t-82 215z" />
    <glyph glyph-name="Gdotaccent.sc" horiz-adv-x="671" 
d="M44 288q0 145 91.5 233.5t223.5 88.5q128 0 200 -60v-134h-55q-37 140 -149 140q-87 0 -131.5 -70t-44.5 -174q0 -120 46.5 -193.5t139.5 -73.5q55 0 90 24v117q0 34 -16.5 45t-60.5 13v48h267v-48q-44 -2 -58.5 -13t-14.5 -45v-134q-87 -62 -222 -62q-142 0 -224 83
t-82 215zM358 661q-33 0 -54.5 22t-21.5 54q0 31 21.5 53t54.5 22t54.5 -22t21.5 -53q0 -32 -21.5 -54t-54.5 -22z" />
    <glyph glyph-name="Gbreve.sc" horiz-adv-x="671" 
d="M44 288q0 145 91.5 233.5t223.5 88.5q128 0 200 -60v-134h-55q-37 140 -149 140q-87 0 -131.5 -70t-44.5 -174q0 -120 46.5 -193.5t139.5 -73.5q55 0 90 24v117q0 34 -16.5 45t-60.5 13v48h267v-48q-44 -2 -58.5 -13t-14.5 -45v-134q-87 -62 -222 -62q-142 0 -224 83
t-82 215zM357 650q-70 0 -108 44.5t-38 124.5h48q5 -49 32 -72t66 -23q40 0 67 23t32 72h48q0 -80 -38.5 -124.5t-108.5 -44.5z" />
    <glyph glyph-name="Gcircumflex.sc" horiz-adv-x="671" 
d="M401 819l140 -171h-61l-123 96l-123 -96h-61l140 171h88zM44 288q0 145 91.5 233.5t223.5 88.5q128 0 200 -60v-134h-55q-37 140 -149 140q-87 0 -131.5 -70t-44.5 -174q0 -120 46.5 -193.5t139.5 -73.5q55 0 90 24v117q0 34 -16.5 45t-60.5 13v48h267v-48
q-44 -2 -58.5 -13t-14.5 -45v-134q-87 -62 -222 -62q-142 0 -224 83t-82 215z" />
    <glyph glyph-name="Eth.sc" horiz-adv-x="706" 
d="M344 0h-297v47q46 2 63 13.5t17 46.5v176h-80v51h80v159q0 35 -17 46.5t-63 13.5v47h275q166 0 253.5 -78.5t87.5 -208.5q0 -147 -88 -230t-231 -83zM303 549h-52v-215h130v-51h-130v-172q0 -36 17.5 -48t58.5 -12h14q89 0 138 62.5t49 185.5q0 110 -56 180t-169 70z" />
    <glyph glyph-name="Eogonek.sc" horiz-adv-x="608" 
d="M543 0h-51q-104 -49 -104 -106q0 -19 12.5 -30.5t35.5 -11.5q41 0 85 31l14 -20q-63 -75 -134 -75q-40 0 -66 22t-26 61q0 75 112 129h-383v47q46 2 63 13.5t17 46.5v386q0 35 -17 46.5t-63 13.5v47h500v-154h-43q-24 58 -48.5 80.5t-74.5 22.5h-131v-215h112q28 0 42 16
t20 55h43v-194h-43q-6 39 -20 55.5t-42 16.5h-112v-175q0 -33 18.5 -45.5t61.5 -12.5h59q49 0 74.5 22.5t71.5 94.5h43z" />
    <glyph glyph-name="Edotaccent.sc" horiz-adv-x="608" 
d="M317 661q-33 0 -54.5 22t-21.5 54q0 31 21.5 53t54.5 22t54.5 -22t21.5 -53q0 -32 -21.5 -54t-54.5 -22zM543 0h-505v47q46 2 63 13.5t17 46.5v386q0 35 -17 46.5t-63 13.5v47h500v-154h-43q-24 58 -48.5 80.5t-74.5 22.5h-131v-215h112q28 0 42 16t20 55h43v-194h-43
q-6 39 -20 55.5t-42 16.5h-112v-175q0 -33 18.5 -45.5t61.5 -12.5h59q49 0 74.5 22.5t71.5 94.5h43z" />
    <glyph glyph-name="Emacron.sc" horiz-adv-x="608" 
d="M179 678v71h276v-71h-276zM543 0h-505v47q46 2 63 13.5t17 46.5v386q0 35 -17 46.5t-63 13.5v47h500v-154h-43q-24 58 -48.5 80.5t-74.5 22.5h-131v-215h112q28 0 42 16t20 55h43v-194h-43q-6 39 -20 55.5t-42 16.5h-112v-175q0 -33 18.5 -45.5t61.5 -12.5h59
q49 0 74.5 22.5t71.5 94.5h43z" />
    <glyph glyph-name="Ecaron.sc" horiz-adv-x="608" 
d="M501 825l-140 -172h-88l-140 172h61l123 -96l123 96h61zM543 0h-505v47q46 2 63 13.5t17 46.5v386q0 35 -17 46.5t-63 13.5v47h500v-154h-43q-24 58 -48.5 80.5t-74.5 22.5h-131v-215h112q28 0 42 16t20 55h43v-194h-43q-6 39 -20 55.5t-42 16.5h-112v-175
q0 -33 18.5 -45.5t61.5 -12.5h59q49 0 74.5 22.5t71.5 94.5h43z" />
    <glyph glyph-name="Edieresis.sc" horiz-adv-x="608" 
d="M148 735q0 29 20 49t49 20t49.5 -20t20.5 -49t-20.5 -49.5t-49.5 -20.5t-49 20.5t-20 49.5zM347 735q0 29 20.5 49t48.5 20q29 0 49.5 -20t20.5 -49t-20.5 -49.5t-49.5 -20.5t-49 20.5t-20 49.5zM543 0h-505v47q46 2 63 13.5t17 46.5v386q0 35 -17 46.5t-63 13.5v47h500
v-154h-43q-24 58 -48.5 80.5t-74.5 22.5h-131v-215h112q28 0 42 16t20 55h43v-194h-43q-6 39 -20 55.5t-42 16.5h-112v-175q0 -33 18.5 -45.5t61.5 -12.5h59q49 0 74.5 22.5t71.5 94.5h43z" />
    <glyph glyph-name="Ecircumflex.sc" horiz-adv-x="608" 
d="M361 819l140 -171h-61l-123 96l-123 -96h-61l140 171h88zM543 0h-505v47q46 2 63 13.5t17 46.5v386q0 35 -17 46.5t-63 13.5v47h500v-154h-43q-24 58 -48.5 80.5t-74.5 22.5h-131v-215h112q28 0 42 16t20 55h43v-194h-43q-6 39 -20 55.5t-42 16.5h-112v-175
q0 -33 18.5 -45.5t61.5 -12.5h59q49 0 74.5 22.5t71.5 94.5h43z" />
    <glyph glyph-name="Egrave.sc" horiz-adv-x="608" 
d="M141 817h137l71 -167h-56zM543 0h-505v47q46 2 63 13.5t17 46.5v386q0 35 -17 46.5t-63 13.5v47h500v-154h-43q-24 58 -48.5 80.5t-74.5 22.5h-131v-215h112q28 0 42 16t20 55h43v-194h-43q-6 39 -20 55.5t-42 16.5h-112v-175q0 -33 18.5 -45.5t61.5 -12.5h59
q49 0 74.5 22.5t71.5 94.5h43z" />
    <glyph glyph-name="Ebreve.sc" horiz-adv-x="608" 
d="M543 0h-505v47q46 2 63 13.5t17 46.5v386q0 35 -17 46.5t-63 13.5v47h500v-154h-43q-24 58 -48.5 80.5t-74.5 22.5h-131v-215h112q28 0 42 16t20 55h43v-194h-43q-6 39 -20 55.5t-42 16.5h-112v-175q0 -33 18.5 -45.5t61.5 -12.5h59q49 0 74.5 22.5t71.5 94.5h43z
M316 650q-70 0 -108 44.5t-38 124.5h48q5 -49 32 -72t66 -23q40 0 67 23t32 72h48q0 -80 -38.5 -124.5t-108.5 -44.5z" />
    <glyph glyph-name="Eacute.sc" horiz-adv-x="608" 
d="M351 817h136l-152 -167h-57zM543 0h-505v47q46 2 63 13.5t17 46.5v386q0 35 -17 46.5t-63 13.5v47h500v-154h-43q-24 58 -48.5 80.5t-74.5 22.5h-131v-215h112q28 0 42 16t20 55h43v-194h-43q-6 39 -20 55.5t-42 16.5h-112v-175q0 -33 18.5 -45.5t61.5 -12.5h59
q49 0 74.5 22.5t71.5 94.5h43z" />
    <glyph glyph-name="Dcroat.sc" horiz-adv-x="706" 
d="M344 0h-297v47q46 2 63 13.5t17 46.5v176h-80v51h80v159q0 35 -17 46.5t-63 13.5v47h275q166 0 253.5 -78.5t87.5 -208.5q0 -147 -88 -230t-231 -83zM303 549h-52v-215h130v-51h-130v-172q0 -36 17.5 -48t58.5 -12h14q89 0 138 62.5t49 185.5q0 110 -56 180t-169 70z" />
    <glyph glyph-name="Dcaron.sc" horiz-adv-x="697" 
d="M294 549h-52v-438q0 -36 17.5 -48t58.5 -12h14q89 0 138 62.5t49 185.5q0 110 -56 180t-169 70zM335 0h-297v47q46 2 63 13.5t17 46.5v386q0 35 -17 46.5t-63 13.5v47h275q166 0 253.5 -78.5t87.5 -208.5q0 -147 -88 -230t-231 -83zM526 825l-140 -172h-88l-140 172h61
l123 -96l123 96h61z" />
    <glyph glyph-name="Ccedilla.sc" horiz-adv-x="620" 
d="M248 -225l-8 38q116 0 116 44q0 39 -90 42l37 93q-120 13 -189.5 94t-69.5 202q0 145 89 233.5t222 88.5q126 0 198 -60v-134h-55q-35 140 -147 140q-87 0 -129 -69t-42 -175q0 -119 47.5 -192.5t135.5 -73.5q59 0 94.5 36.5t61.5 115.5h56l-18 -156q-91 -52 -211 -52h-5
l-14 -37q105 -3 105 -75q0 -50 -52 -76.5t-132 -26.5z" />
    <glyph glyph-name="Cdotaccent.sc" horiz-adv-x="620" 
d="M363 46q59 0 94.5 36.5t61.5 115.5h56l-18 -156q-91 -52 -211 -52q-138 0 -220 83.5t-82 214.5q0 145 89 233.5t222 88.5q126 0 198 -60v-134h-55q-35 140 -147 140q-87 0 -129 -69t-42 -175q0 -119 47.5 -192.5t135.5 -73.5zM347 661q-33 0 -54.5 22t-21.5 54
q0 31 21.5 53t54.5 22t54.5 -22t21.5 -53q0 -32 -21.5 -54t-54.5 -22z" />
    <glyph glyph-name="Ccaron.sc" horiz-adv-x="620" 
d="M534 825l-140 -172h-88l-140 172h61l123 -96l123 96h61zM363 46q59 0 94.5 36.5t61.5 115.5h56l-18 -156q-91 -52 -211 -52q-138 0 -220 83.5t-82 214.5q0 145 89 233.5t222 88.5q126 0 198 -60v-134h-55q-35 140 -147 140q-87 0 -129 -69t-42 -175q0 -119 47.5 -192.5
t135.5 -73.5z" />
    <glyph glyph-name="Ccircumflex.sc" horiz-adv-x="620" 
d="M392 819l140 -171h-61l-123 96l-123 -96h-61l140 171h88zM363 46q59 0 94.5 36.5t61.5 115.5h56l-18 -156q-91 -52 -211 -52q-138 0 -220 83.5t-82 214.5q0 145 89 233.5t222 88.5q126 0 198 -60v-134h-55q-35 140 -147 140q-87 0 -129 -69t-42 -175q0 -119 47.5 -192.5
t135.5 -73.5z" />
    <glyph glyph-name="Cacute.sc" horiz-adv-x="620" 
d="M381 817h136l-152 -167h-57zM363 46q59 0 94.5 36.5t61.5 115.5h56l-18 -156q-91 -52 -211 -52q-138 0 -220 83.5t-82 214.5q0 145 89 233.5t222 88.5q126 0 198 -60v-134h-55q-35 140 -147 140q-87 0 -129 -69t-42 -175q0 -119 47.5 -192.5t135.5 -73.5z" />
    <glyph glyph-name="AEacute.sc" horiz-adv-x="940" 
d="M67 78l314 442q-6 17 -23 24t-58 9v47h570v-154h-44q-23 57 -48 80t-75 23h-130v-215h111q29 0 42.5 16t20.5 55h42v-194h-42q-7 39 -20.5 55.5t-42.5 16.5h-111v-175q0 -33 18.5 -45.5t60.5 -12.5h59q49 0 75 22.5t71 94.5h44l-27 -167h-504v47q45 2 62.5 13.5
t17.5 46.5v105h-220l-61 -85q-17 -25 -17 -47q0 -19 14.5 -25t59.5 -8v-47h-212v47q36 6 53 31zM450 518l-186 -258h186v258zM616 817h136l-152 -167h-57z" />
    <glyph glyph-name="AE.sc" horiz-adv-x="940" 
d="M67 78l314 442q-6 17 -23 24t-58 9v47h570v-154h-44q-23 57 -48 80t-75 23h-130v-215h111q29 0 42.5 16t20.5 55h42v-194h-42q-7 39 -20.5 55.5t-42.5 16.5h-111v-175q0 -33 18.5 -45.5t60.5 -12.5h59q49 0 75 22.5t71 94.5h44l-27 -167h-504v47q45 2 62.5 13.5
t17.5 46.5v105h-220l-61 -85q-17 -25 -17 -47q0 -19 14.5 -25t59.5 -8v-47h-212v47q36 6 53 31zM450 518l-186 -258h186v258z" />
    <glyph glyph-name="Aogonek.sc" horiz-adv-x="659" 
d="M229 607h131l233 -529q10 -25 52 -31v-47h-239q-86 -39 -86 -102q0 -46 48 -46q41 0 85 31l14 -20q-63 -74 -132 -74q-41 0 -67.5 24t-26.5 65q0 48 35.5 82.5t102.5 63.5q45 20 60 32t15 30q0 12 -11 36l-29 68h-239l-29 -72q-8 -19 -8 -34q0 -20 15 -28t57 -9v-47h-196
v47q42 7 51 31l195 464zM293 474l-97 -235h197z" />
    <glyph glyph-name="Abreve.sc" horiz-adv-x="659" 
d="M445 118l-31 72h-239l-29 -72q-8 -19 -8 -34q0 -20 15 -28t57 -9v-47h-196v47q42 7 51 31l195 464l-31 65h131l233 -529q10 -25 52 -31v-47h-262v47q42 2 57 9.5t15 27.5q0 12 -10 34zM311 650q-70 0 -108 44.5t-38 124.5h48q5 -49 32 -72t66 -23q40 0 67 23t32 72h48
q0 -80 -38.5 -124.5t-108.5 -44.5zM293 474l-97 -235h197z" />
    <glyph glyph-name="Amacron.sc" horiz-adv-x="659" 
d="M445 118l-31 72h-239l-29 -72q-8 -19 -8 -34q0 -20 15 -28t57 -9v-47h-196v47q42 7 51 31l195 464l-31 65h131l233 -529q10 -25 52 -31v-47h-262v47q42 2 57 9.5t15 27.5q0 12 -10 34zM293 474l-97 -235h197zM173 678v71h276v-71h-276z" />
    <glyph glyph-name="Aringacute.sc" horiz-adv-x="659" 
d="M445 118l-31 72h-239l-29 -72q-8 -19 -8 -34q0 -20 15 -28t57 -9v-47h-196v47q42 7 51 31l195 464l-31 65h131l233 -529q10 -25 52 -31v-47h-262v47q42 2 57 9.5t15 27.5q0 12 -10 34zM204 714q0 38 29.5 61t75.5 23q47 0 76 -23t29 -61q0 -37 -29 -60t-76 -23
q-46 0 -75.5 23t-29.5 60zM293 474l-97 -235h197zM333 930h137l-131 -107h-54zM364 714q0 21 -14.5 33.5t-40.5 12.5t-40 -12.5t-14 -33.5q0 -20 14 -32t40 -12t40.5 12t14.5 32z" />
    <glyph glyph-name="four.op" horiz-adv-x="594" 
d="M95 147h244v318zM457 -102h-118v194h-325v41l365 474h78v-460h123v-55h-123v-194z" />
    <glyph glyph-name="eight.op" horiz-adv-x="563" 
d="M493 546q0 -57 -39 -99t-95 -58l29 -14q132 -64 132 -182q0 -90 -62 -146.5t-178 -56.5q-108 0 -174 50.5t-66 133.5q0 62 40.5 105.5t106.5 63.5l-11 6q-55 29 -83 68.5t-28 101.5q0 85 57.5 139t157.5 54q97 0 155 -45.5t58 -120.5zM325 277l-110 51q-72 -47 -72 -147
q0 -62 37.5 -100t99.5 -38t99.5 31.5t37.5 85.5q0 75 -92 117zM253 443l75 -38q69 44 69 138q0 53 -32 84.5t-85 31.5q-52 0 -82.5 -28.5t-30.5 -75.5q0 -39 21 -64.5t65 -47.5z" />
    <glyph glyph-name="yen.op" horiz-adv-x="655" 
d="M93 302v45h115l-134 224q-18 30 -58 34v46h283v-46q-46 -1 -63 -9t-17 -27q0 -15 17 -46l120 -213l123 213q17 29 17 46q0 19 -17 27t-63 9v46h223v-46q-41 -4 -58 -34l-136 -224h120v-45h-147l-32 -53v-12h179v-46h-179v-78q0 -39 21 -52.5t73 -15.5v-45h-308v45
q53 2 74.5 15.5t21.5 52.5v78h-175v46h175v11l-33 54h-142z" />
    <glyph glyph-name="florin.op" horiz-adv-x="512" 
d="M76 275l6 48h87l7 50q18 143 69.5 215t145.5 72q54 0 84 -21t30 -58q0 -46 -49 -61h-32q-2 98 -48 98q-44 0 -54 -83l-27 -212h113l-4 -48h-115l-20 -158q-18 -143 -69.5 -215t-144.5 -72q-54 0 -84.5 21t-30.5 58q0 46 49 61h32q2 -98 48 -98q44 0 54 83l40 320h-87z
" />
    <glyph glyph-name="perthousand.op" horiz-adv-x="1213" 
d="M124 492q0 -58 18.5 -94.5t58.5 -36.5q76 0 76 131q0 132 -76 132q-40 0 -58.5 -36.5t-18.5 -95.5zM30 492q0 78 50.5 124.5t120.5 46.5t120 -46.5t50 -124.5t-50 -124t-120 -46t-120.5 46t-50.5 124zM704 162q0 131 -76 131t-76 -131t76 -131t76 131zM655 673l-417 -692
h-64l416 692h65zM799 162q0 -78 -50.5 -124.5t-120.5 -46.5t-120.5 46.5t-50.5 124.5t50.5 124.5t120.5 46.5t120.5 -46.5t50.5 -124.5zM1088 162q0 131 -76 131t-76 -131t76 -131t76 131zM1183 162q0 -78 -50.5 -124.5t-120.5 -46.5t-120.5 46.5t-50.5 124.5t50.5 124.5
t120.5 46.5t120.5 -46.5t50.5 -124.5z" />
    <glyph glyph-name="plus.op" horiz-adv-x="576" 
d="M252 534h71v-186h187v-72h-187v-186h-71v186h-186v72h186v186z" />
    <glyph glyph-name="minus.op" horiz-adv-x="576" 
d="M66 276v72h444v-72h-444z" />
    <glyph glyph-name="equal.op" horiz-adv-x="586" 
d="M71 204v69h445v-69h-445zM71 351v70h445v-70h-445z" />
    <glyph glyph-name="divide.op" horiz-adv-x="576" 
d="M66 276v72h444v-72h-444zM227 138q0 26 17.5 44t42.5 18t43.5 -18t18.5 -44q0 -25 -18.5 -43t-43.5 -18t-42.5 18t-17.5 43zM227 486q0 25 17.5 42.5t42.5 17.5t43.5 -17.5t18.5 -42.5t-18.5 -43.5t-43.5 -18.5t-42.5 18.5t-17.5 43.5z" />
    <glyph glyph-name="multiply.op" horiz-adv-x="499" 
d="M200 308l-136 136l50 50l135 -137l136 137l51 -50l-137 -136l137 -136l-51 -49l-136 136l-135 -136l-50 49z" />
    <glyph glyph-name="less.op" horiz-adv-x="428" 
d="M44 305v10l318 195v-86l-194 -113l194 -116v-85z" />
    <glyph glyph-name="greater.op" horiz-adv-x="428" 
d="M384 315v-10l-318 -195v85l194 116l-194 113v86z" />
    <glyph glyph-name="plusminus.op" horiz-adv-x="576" 
d="M252 551h71v-141h186v-70h-186v-140h-71v140h-184v70h184v141zM68 78v71h441v-71h-441z" />
    <glyph glyph-name="lessequal.op" horiz-adv-x="448" 
d="M54 344v9l318 172v-82l-182 -94l182 -95v-82zM54 71v71h318v-71h-318z" />
    <glyph glyph-name="greaterequal.op" horiz-adv-x="448" 
d="M394 353v-9l-318 -172v82l183 95l-183 94v82zM394 142v-71h-318v71h318z" />
    <glyph glyph-name="approxequal.op" horiz-adv-x="586" 
d="M71 326v73q62 41 120 41q39 0 102 -20t101 -20q60 0 122 41v-73q-62 -41 -122 -41q-38 0 -101 20t-102 20q-58 0 -120 -41zM71 189v72q60 41 120 41q39 0 102 -19.5t101 -19.5q62 0 122 40v-73q-60 -40 -122 -40q-38 0 -101 19t-102 19q-59 0 -120 -39z" />
    <glyph glyph-name="notequal.op" horiz-adv-x="586" 
d="M71 351v69h263l74 104h75l-74 -104h107v-69h-157l-56 -79h213v-68h-262l-74 -104h-75l74 104h-108v68h157l56 79h-213z" />
    <glyph glyph-name="one.lt" 
d="M342 712h33v-595q0 -42 32 -54.5t128 -12.5v-50h-453v50q101 0 135 12.5t34 54.5v436h-162v45l55 5q77 7 119 30.5t79 78.5z" />
    <glyph glyph-name="four.lt" 
d="M97 240h240v320zM337 120v60h-319v46l359 476h79v-462h114v-60h-114v-60q0 -42 21.5 -56t75.5 -16v-48h-313v48q54 2 75.5 16t21.5 56z" />
    <glyph glyph-name="seven.lt" 
d="M460 584h-285q-37 0 -56 -15t-39 -58h-43l43 191h473v-33l-290 -669h-117z" />
    <glyph glyph-name="eight.lt" 
d="M525 546q0 -57 -40.5 -98t-98.5 -57l28 -13q139 -65 139 -185q0 -90 -65 -146.5t-185 -56.5q-113 0 -181.5 50t-68.5 134q0 62 41.5 104t110.5 63l-11 5q-115 55 -115 171q0 87 60 141t164 54q102 0 162 -45.5t60 -120.5zM350 275l-115 50q-76 -47 -76 -144
q0 -62 39.5 -100t104.5 -38q64 0 103 31.5t39 85.5q0 73 -95 115zM274 445l79 -37q73 45 73 135q0 53 -33.5 84.5t-89.5 31.5q-55 0 -86.5 -28.5t-31.5 -75.5q0 -39 21.5 -63.5t67.5 -46.5z" />
    <glyph glyph-name="yen.lt" 
d="M75 324v48h112l-126 245q-16 31 -54 37v48h273v-48q-43 -1 -58.5 -9.5t-15.5 -29.5q0 -18 15 -50l109 -231l115 232q16 36 16 49q0 20 -16 29t-59 10v48h207v-48q-38 -6 -54 -37l-127 -245h116v-48h-140l-26 -50v-21h166v-47h-166v-86q0 -42 22 -56t76 -16v-48h-321v48
q54 2 76 16t22 56v86h-162v47h162v21l-26 50h-136z" />
    <glyph glyph-name="florin.lt" 
d="M162 304l6 48h88l10 73q18 143 69.5 215t145.5 72q54 0 84 -21t30 -58q0 -46 -49 -61h-32q-2 98 -48 98q-44 0 -54 -83l-30 -235h112l-4 -48h-114l-24 -187q-18 -143 -69.5 -215t-145.5 -72q-54 0 -84 21t-30 58q0 46 49 61h32q2 -98 48 -98q44 0 54 83l44 349h-88z" />
    <glyph glyph-name="cent.lt" 
d="M208 -111l23 113q-77 25 -121.5 91t-44.5 160q0 129 76.5 212.5t200.5 83.5l26 125h48l-26 -128q64 -9 101.5 -41.5t37.5 -83.5q0 -48 -44 -66h-56v37q0 74 -51 94l-80 -394q23 -8 58 -8q94 0 157 84l26 -14q-48 -164 -225 -164q-20 0 -36 3l-21 -104h-49zM174 298
q0 -131 79 -185l78 382h-7q-66 0 -108 -53.5t-42 -143.5z" />
    <glyph glyph-name="percent.lt" horiz-adv-x="900" 
d="M141 528q0 -62 20.5 -101.5t62.5 -39.5t63 39.5t21 101.5t-20.5 101.5t-63.5 39.5q-42 0 -62.5 -39.5t-20.5 -101.5zM193 -19l449 741h65l-450 -741h-64zM46 528q0 84 52.5 134t125.5 50q75 0 127 -50t52 -134t-52 -134t-127 -50q-73 0 -125.5 50t-52.5 134zM758 175
q0 62 -20.5 101.5t-62.5 39.5t-63 -39.5t-21 -101.5t20.5 -101.5t63.5 -39.5q42 0 62.5 39.5t20.5 101.5zM853 175q0 -84 -52 -134t-126 -50t-126.5 50t-52.5 134t52.5 134t126.5 50t126 -50t52 -134z" />
    <glyph glyph-name="perthousand.lt" horiz-adv-x="1300" 
d="M144 528q0 -62 20.5 -101.5t62.5 -39.5t63 39.5t21 101.5t-20.5 101.5t-63.5 39.5q-42 0 -62.5 -39.5t-20.5 -101.5zM195 -19l450 741h64l-450 -741h-64zM49 528q0 84 52 134t126 50t126.5 -50t52.5 -134t-52.5 -134t-126.5 -50t-126 50t-52 134zM761 175
q0 62 -20.5 101.5t-62.5 39.5t-63 -39.5t-21 -101.5t20.5 -101.5t63.5 -39.5q42 0 62.5 39.5t20.5 101.5zM856 175q0 -84 -52.5 -134t-125.5 -50q-74 0 -126.5 50t-52.5 134t52.5 134t126.5 50q73 0 125.5 -50t52.5 -134zM1156 175q0 62 -20.5 101.5t-62.5 39.5t-63 -39.5
t-21 -101.5t20.5 -101.5t63.5 -39.5q42 0 62.5 39.5t20.5 101.5zM1251 175q0 -84 -52 -134t-126 -50t-126.5 50t-52.5 134t52.5 134t126.5 50t126 -50t52 -134z" />
    <glyph glyph-name="plus.lt" 
d="M264 591h71v-186h187v-72h-187v-186h-71v186h-186v72h186v186z" />
    <glyph glyph-name="minus.lt" 
d="M78 333v72h444v-72h-444z" />
    <glyph glyph-name="equal.lt" 
d="M78 261v69h444v-69h-444zM78 408v70h444v-70h-444z" />
    <glyph glyph-name="divide.lt" 
d="M78 333v72h444v-72h-444zM239 195q0 26 17.5 44t42.5 18t43.5 -18t18.5 -44q0 -25 -18.5 -43t-43.5 -18t-42.5 18t-17.5 43zM239 543q0 25 17.5 42.5t42.5 17.5t43.5 -17.5t18.5 -42.5t-18.5 -43.5t-43.5 -18.5t-42.5 18.5t-17.5 43.5z" />
    <glyph glyph-name="multiply.lt" 
d="M250 365l-136 136l50 50l135 -137l137 137l50 -50l-137 -136l137 -136l-50 -49l-137 136l-135 -136l-50 49z" />
    <glyph glyph-name="less.lt" 
d="M141 362v10l318 195v-86l-194 -113l194 -116v-85z" />
    <glyph glyph-name="greater.lt" 
d="M459 372v-10l-318 -195v85l194 116l-194 113v86z" />
    <glyph glyph-name="plusminus.lt" 
d="M264 608h71v-141h186v-70h-186v-140h-71v140h-184v70h184v141zM80 135v71h441v-71h-441z" />
    <glyph glyph-name="lessequal.lt" 
d="M141 401v9l318 172v-82l-183 -94l183 -95v-82zM141 128v71h318v-71h-318z" />
    <glyph glyph-name="greaterequal.lt" 
d="M459 410v-9l-318 -172v82l183 95l-183 94v82zM459 199v-71h-318v71h318z" />
    <glyph glyph-name="approxequal.lt" 
d="M78 383v73q61 41 119 41q39 0 102 -20t102 -20q61 0 121 41v-73q-60 -41 -121 -41q-39 0 -102 20t-102 20q-58 0 -119 -41zM78 246v72q59 41 119 41q39 0 102 -19.5t102 -19.5q62 0 121 40v-73q-59 -40 -121 -40q-39 0 -102 19t-102 19q-59 0 -119 -39z" />
    <glyph glyph-name="notequal.lt" 
d="M78 408v69h263l74 104h74l-74 -104h107v-69h-157l-56 -79h213v-68h-262l-74 -104h-74l74 104h-108v68h157l56 79h-213z" />
    <glyph glyph-name="one.ot" 
d="M347 603h32v-486q0 -42 32.5 -54.5t127.5 -12.5v-50h-449v50q101 0 135 12.5t34 54.5v328h-162v44l55 6q77 7 116.5 30t78.5 78z" />
    <glyph glyph-name="four.ot" 
d="M99 147h243v318zM460 -102h-118v194h-319v41l359 474h78v-460h117v-55h-117v-194z" />
    <glyph glyph-name="Icircumflex.sc" horiz-adv-x="361" 
d="M224 819l140 -171h-61l-123 96l-123 -96h-61l140 171h88zM322 47v-47h-284v47q46 2 63 13.5t17 46.5v386q0 35 -17 46.5t-63 13.5v47h284v-47q-46 -2 -63 -13.5t-17 -46.5v-386q0 -35 17.5 -46.5t62.5 -13.5z" />
    <glyph glyph-name="Jcircumflex.sc" horiz-adv-x="513" 
d="M388 819l140 -171h-61l-123 96l-123 -96h-61l140 171h88zM410 493v-312q0 -191 -205 -191q-86 0 -136.5 32.5t-50.5 87.5q0 43 32 66h88v-42q0 -44 18.5 -69.5t53.5 -25.5q74 0 74 121v333q0 35 -16.5 46.5t-61.5 13.5v47h284v-47q-46 -2 -63 -13.5t-17 -46.5z" />
    <glyph glyph-name="Idieresis.sc" horiz-adv-x="361" 
d="M12 735q0 29 20 49t49 20t49.5 -20t20.5 -49t-20.5 -49.5t-49.5 -20.5t-49 20.5t-20 49.5zM211 735q0 29 20.5 49t48.5 20q29 0 49.5 -20t20.5 -49t-20.5 -49.5t-49.5 -20.5t-49 20.5t-20 49.5zM322 47v-47h-284v47q46 2 63 13.5t17 46.5v386q0 35 -17 46.5t-63 13.5v47
h284v-47q-46 -2 -63 -13.5t-17 -46.5v-386q0 -35 17.5 -46.5t62.5 -13.5z" />
    <glyph glyph-name="Kcommaaccent.sc" horiz-adv-x="673" 
d="M368 -155h-51q-44 10 -44 53q0 25 19 40.5t50 15.5q38 0 60 -23t22 -60q0 -107 -141 -107v37q85 0 85 44zM373 345l185 -234q30 -37 50.5 -50t50.5 -15v-46h-154q-38 24 -81 82l-172 224l202 186q22 20 22 36q0 12 -12.5 18t-49.5 7v47h226v-47q-46 -1 -85 -37zM322 47
v-47h-284v47q46 2 63 13.5t17 46.5v386q0 35 -17 46.5t-63 13.5v47h284v-47q-45 -2 -62 -14t-17 -46v-386q0 -35 17 -46.5t62 -13.5z" />
    <glyph glyph-name="Lacute.sc" horiz-adv-x="575" 
d="M243 493v-384q0 -34 17.5 -46t60.5 -12h38q46 0 69 24t73 112h48l-30 -187h-481v47q46 2 63 13.5t17 46.5v386q0 35 -17 46.5t-63 13.5v47h284v-47q-45 -2 -62 -14t-17 -46zM231 817h136l-152 -167h-57z" />
    <glyph glyph-name="Lcaron.sc" horiz-adv-x="575" 
d="M243 493v-384q0 -34 17.5 -46t60.5 -12h38q46 0 69 24t73 112h48l-30 -187h-481v47q46 2 63 13.5t17 46.5v386q0 35 -17 46.5t-63 13.5v47h284v-47q-45 -2 -62 -14t-17 -46zM522 600l-86 -205h-47l18 205h115z" />
    <glyph glyph-name="Lcommaaccent.sc" horiz-adv-x="575" 
d="M243 493v-384q0 -34 17.5 -46t60.5 -12h38q46 0 69 24t73 112h48l-30 -187h-481v47q46 2 63 13.5t17 46.5v386q0 35 -17 46.5t-63 13.5v47h284v-47q-45 -2 -62 -14t-17 -46zM316 -155h-51q-44 10 -44 53q0 25 19 40.5t50 15.5q38 0 60 -23t22 -60q0 -107 -141 -107v37
q85 0 85 44z" />
    <glyph glyph-name="Ldot.sc" horiz-adv-x="575" 
d="M243 493v-384q0 -34 17.5 -46t60.5 -12h38q46 0 69 24t73 112h48l-30 -187h-481v47q46 2 63 13.5t17 46.5v386q0 35 -17 46.5t-63 13.5v47h284v-47q-45 -2 -62 -14t-17 -46zM472 276q-33 0 -54.5 22t-21.5 54q0 31 21.5 53t54.5 22t54.5 -22t21.5 -53q0 -32 -21.5 -54
t-54.5 -22z" />
    <glyph glyph-name="Lslash.sc" horiz-adv-x="583" 
d="M252 299v-190q0 -34 17.5 -46t60.5 -12h38q46 0 69 24t73 112h48l-30 -187h-481v47q46 2 63 13.5t17 46.5v152l-80 -28v52l80 28v182q0 35 -17 46.5t-63 13.5v47h284v-47q-45 -2 -62 -14t-17 -46v-142l136 48v-52z" />
    <glyph glyph-name="Nacute.sc" horiz-adv-x="705" 
d="M397 817h136l-152 -167h-57zM118 107v398q-24 29 -38.5 38t-41.5 10v47h183l312 -398v291q0 34 -18.5 46t-64.5 14v47h226v-47q-46 -2 -63 -13.5t-17 -46.5v-493h-52l-362 451v-344q0 -34 18.5 -46t64.5 -14v-47h-227v47q46 2 63 13.5t17 46.5z" />
    <glyph glyph-name="Ncaron.sc" horiz-adv-x="705" 
d="M546 825l-140 -172h-88l-140 172h61l123 -96l123 96h61zM118 107v398q-24 29 -38.5 38t-41.5 10v47h183l312 -398v291q0 34 -18.5 46t-64.5 14v47h226v-47q-46 -2 -63 -13.5t-17 -46.5v-493h-52l-362 451v-344q0 -34 18.5 -46t64.5 -14v-47h-227v47q46 2 63 13.5t17 46.5
z" />
    <glyph glyph-name="Ntilde.sc" horiz-adv-x="705" 
d="M118 107v398q-24 29 -38.5 38t-41.5 10v47h183l312 -398v291q0 34 -18.5 46t-64.5 14v47h226v-47q-46 -2 -63 -13.5t-17 -46.5v-493h-52l-362 451v-344q0 -34 18.5 -46t64.5 -14v-47h-227v47q46 2 63 13.5t17 46.5zM508 805l43 -11q-34 -78 -59.5 -103.5t-64.5 -25.5
q-32 0 -79 34.5t-65 34.5q-21 0 -34 -13.5t-31 -46.5l-44 10q35 79 60.5 104t64.5 25q33 0 79.5 -34t64.5 -34q21 0 33 13t32 47z" />
    <glyph glyph-name="Ncommaaccent.sc" horiz-adv-x="705" 
d="M382 -155h-51q-44 10 -44 53q0 25 19 40.5t50 15.5q38 0 60 -23t22 -60q0 -107 -141 -107v37q85 0 85 44zM118 107v398q-24 29 -38.5 38t-41.5 10v47h183l312 -398v291q0 34 -18.5 46t-64.5 14v47h226v-47q-46 -2 -63 -13.5t-17 -46.5v-493h-52l-362 451v-344
q0 -34 18.5 -46t64.5 -14v-47h-227v47q46 2 63 13.5t17 46.5z" />
    <glyph glyph-name="Eng.sc" horiz-adv-x="705" 
d="M495 60l-313 391v-344q0 -34 18.5 -46t64.5 -14v-47h-227v47q46 2 63 13.5t17 46.5v398q-24 29 -38.5 38t-41.5 10v47h183l312 -397v290q0 34 -18.5 46t-64.5 14v47h226v-47q-46 -2 -63 -13.5t-17 -46.5v-399q0 -62 -8.5 -98.5t-29.5 -66.5q-36 -54 -126 -106l-24 24
l29 36q32 38 45 78t13 99z" />
    <glyph glyph-name="Idotaccent.sc" horiz-adv-x="361" 
d="M322 47v-47h-284v47q46 2 63 13.5t17 46.5v386q0 35 -17 46.5t-63 13.5v47h284v-47q-46 -2 -63 -13.5t-17 -46.5v-386q0 -35 17.5 -46.5t62.5 -13.5zM180 661q-33 0 -54.5 22t-21.5 54q0 31 21.5 53t54.5 22t54.5 -22t21.5 -53q0 -32 -21.5 -54t-54.5 -22z" />
    <glyph glyph-name="Oacute.sc" horiz-adv-x="680" 
d="M351 46q74 0 112.5 68.5t38.5 176.5q0 118 -43 190.5t-129 72.5q-75 0 -113.5 -68.5t-38.5 -176.5q0 -118 43 -190.5t130 -72.5zM335 -10q-134 0 -212.5 86.5t-78.5 212.5q0 144 86 232.5t215 88.5q134 0 213 -86.5t79 -212.5q0 -144 -86.5 -232.5t-215.5 -88.5zM377 817
h136l-152 -167h-57z" />
    <glyph glyph-name="Igrave.sc" horiz-adv-x="361" 
d="M322 47v-47h-284v47q46 2 63 13.5t17 46.5v386q0 35 -17 46.5t-63 13.5v47h284v-47q-46 -2 -63 -13.5t-17 -46.5v-386q0 -35 17.5 -46.5t62.5 -13.5zM5 817h137l71 -167h-56z" />
    <glyph glyph-name="Imacron.sc" horiz-adv-x="361" 
d="M322 47v-47h-284v47q46 2 63 13.5t17 46.5v386q0 35 -17 46.5t-63 13.5v47h284v-47q-46 -2 -63 -13.5t-17 -46.5v-386q0 -35 17.5 -46.5t62.5 -13.5zM42 678v71h276v-71h-276z" />
    <glyph glyph-name="Obreve.sc" horiz-adv-x="680" 
d="M351 46q74 0 112.5 68.5t38.5 176.5q0 118 -43 190.5t-129 72.5q-75 0 -113.5 -68.5t-38.5 -176.5q0 -118 43 -190.5t130 -72.5zM335 -10q-134 0 -212.5 86.5t-78.5 212.5q0 144 86 232.5t215 88.5q134 0 213 -86.5t79 -212.5q0 -144 -86.5 -232.5t-215.5 -88.5zM342 650
q-70 0 -108 44.5t-38 124.5h48q5 -49 32 -72t66 -23q40 0 67 23t32 72h48q0 -80 -38.5 -124.5t-108.5 -44.5z" />
    <glyph glyph-name="Ocircumflex.sc" horiz-adv-x="680" 
d="M387 819l140 -171h-61l-123 96l-123 -96h-61l140 171h88zM351 46q74 0 112.5 68.5t38.5 176.5q0 118 -43 190.5t-129 72.5q-75 0 -113.5 -68.5t-38.5 -176.5q0 -118 43 -190.5t130 -72.5zM335 -10q-134 0 -212.5 86.5t-78.5 212.5q0 144 86 232.5t215 88.5
q134 0 213 -86.5t79 -212.5q0 -144 -86.5 -232.5t-215.5 -88.5z" />
    <glyph glyph-name="Odieresis.sc" horiz-adv-x="680" 
d="M174 735q0 29 20 49t49 20t49.5 -20t20.5 -49t-20.5 -49.5t-49.5 -20.5t-49 20.5t-20 49.5zM373 735q0 29 20.5 49t48.5 20q29 0 49.5 -20t20.5 -49t-20.5 -49.5t-49.5 -20.5t-49 20.5t-20 49.5zM351 46q74 0 112.5 68.5t38.5 176.5q0 118 -43 190.5t-129 72.5
q-75 0 -113.5 -68.5t-38.5 -176.5q0 -118 43 -190.5t130 -72.5zM335 -10q-134 0 -212.5 86.5t-78.5 212.5q0 144 86 232.5t215 88.5q134 0 213 -86.5t79 -212.5q0 -144 -86.5 -232.5t-215.5 -88.5z" />
    <glyph glyph-name="Ograve.sc" horiz-adv-x="680" 
d="M351 46q74 0 112.5 68.5t38.5 176.5q0 118 -43 190.5t-129 72.5q-75 0 -113.5 -68.5t-38.5 -176.5q0 -118 43 -190.5t130 -72.5zM335 -10q-134 0 -212.5 86.5t-78.5 212.5q0 144 86 232.5t215 88.5q134 0 213 -86.5t79 -212.5q0 -144 -86.5 -232.5t-215.5 -88.5zM168 817
h137l71 -167h-56z" />
    <glyph glyph-name="Ohungarumlaut.sc" horiz-adv-x="680" 
d="M351 46q74 0 112.5 68.5t38.5 176.5q0 118 -43 190.5t-129 72.5q-75 0 -113.5 -68.5t-38.5 -176.5q0 -118 43 -190.5t130 -72.5zM335 -10q-134 0 -212.5 86.5t-78.5 212.5q0 144 86 232.5t215 88.5q134 0 213 -86.5t79 -212.5q0 -144 -86.5 -232.5t-215.5 -88.5zM296 817
h118l-131 -167h-54zM459 817h119l-132 -167h-54z" />
    <glyph glyph-name="Omacron.sc" horiz-adv-x="680" 
d="M351 46q74 0 112.5 68.5t38.5 176.5q0 118 -43 190.5t-129 72.5q-75 0 -113.5 -68.5t-38.5 -176.5q0 -118 43 -190.5t130 -72.5zM335 -10q-134 0 -212.5 86.5t-78.5 212.5q0 144 86 232.5t215 88.5q134 0 213 -86.5t79 -212.5q0 -144 -86.5 -232.5t-215.5 -88.5zM205 678
v71h276v-71h-276z" />
    <glyph glyph-name="Oslash.sc" horiz-adv-x="680" 
d="M335 -10q-86 0 -152 38l-64 -92l-41 28l65 92q-99 85 -99 233q0 144 86 232.5t215 88.5q89 0 158 -42l57 81l41 -28l-58 -83q94 -85 94 -227q0 -144 -86.5 -232.5t-215.5 -88.5zM178 309q0 -98 28 -163l245 348q-44 60 -121 60q-75 0 -113.5 -68.5t-38.5 -176.5zM351 46
q74 0 113 68.5t39 176.5q0 92 -25 155l-244 -347q43 -53 117 -53z" />
    <glyph glyph-name="Oslashacute.sc" horiz-adv-x="680" 
d="M335 -10q-86 0 -152 38l-64 -92l-41 28l65 92q-99 85 -99 233q0 144 86 232.5t215 88.5q89 0 158 -42l57 81l41 -28l-58 -83q94 -85 94 -227q0 -144 -86.5 -232.5t-215.5 -88.5zM178 309q0 -98 28 -163l245 348q-44 60 -121 60q-75 0 -113.5 -68.5t-38.5 -176.5zM351 46
q74 0 113 68.5t39 176.5q0 92 -25 155l-244 -347q43 -53 117 -53zM377 817h136l-152 -167h-57z" />
    <glyph glyph-name="Otilde.sc" horiz-adv-x="680" 
d="M351 46q74 0 112.5 68.5t38.5 176.5q0 118 -43 190.5t-129 72.5q-75 0 -113.5 -68.5t-38.5 -176.5q0 -118 43 -190.5t130 -72.5zM335 -10q-134 0 -212.5 86.5t-78.5 212.5q0 144 86 232.5t215 88.5q134 0 213 -86.5t79 -212.5q0 -144 -86.5 -232.5t-215.5 -88.5zM491 805
l43 -11q-34 -78 -59.5 -103.5t-64.5 -25.5q-32 0 -79 34.5t-65 34.5q-21 0 -34 -13.5t-31 -46.5l-44 10q35 79 60.5 104t64.5 25q33 0 79.5 -34t64.5 -34q21 0 33 13t32 47z" />
    <glyph glyph-name="OE.sc" horiz-adv-x="919" 
d="M853 0h-469q-165 0 -252.5 78.5t-87.5 209.5q0 146 91 229t235 83h479v-154h-44q-23 57 -48 80t-75 23h-130v-215h111q29 0 42.5 16t20.5 55h42v-194h-42q-7 39 -20.5 55.5t-42.5 16.5h-111v-175q0 -33 18.5 -45.5t60.5 -12.5h59q49 0 75 22.5t71 94.5h44zM429 50v499
h-56q-90 0 -142 -63t-52 -185q0 -112 56.5 -181.5t168.5 -69.5h25z" />
    <glyph glyph-name="Racute.sc" horiz-adv-x="657" 
d="M346 817h136l-152 -167h-57zM285 549h-44v-246h45q74 0 109.5 30.5t35.5 94.5q0 57 -37 89t-109 32zM320 0h-282v47q46 2 63 13.5t17 46.5v386q0 35 -17 46.5t-63 13.5v47h290q116 0 173.5 -45.5t57.5 -125.5q0 -63 -43.5 -103.5t-105.5 -51.5l125 -166q42 -60 104 -61
v-47h-156q-39 28 -76 85l-119 172h-47v-150q0 -35 17 -46.5t62 -13.5v-47z" />
    <glyph glyph-name="Rcaron.sc" horiz-adv-x="657" 
d="M496 825l-140 -172h-88l-140 172h61l123 -96l123 96h61zM285 549h-44v-246h45q74 0 109.5 30.5t35.5 94.5q0 57 -37 89t-109 32zM320 0h-282v47q46 2 63 13.5t17 46.5v386q0 35 -17 46.5t-63 13.5v47h290q116 0 173.5 -45.5t57.5 -125.5q0 -63 -43.5 -103.5t-105.5 -51.5
l125 -166q42 -60 104 -61v-47h-156q-39 28 -76 85l-119 172h-47v-150q0 -35 17 -46.5t62 -13.5v-47z" />
    <glyph glyph-name="Iogonek.sc" horiz-adv-x="361" 
d="M322 47v-47h-69q-104 -49 -104 -106q0 -19 12.5 -30.5t35.5 -11.5q41 0 85 31l14 -20q-63 -75 -134 -75q-40 0 -66 22t-26 61q0 75 112 129h-144v47q46 2 63 13.5t17 46.5v386q0 35 -17 46.5t-63 13.5v47h284v-47q-46 -2 -63 -13.5t-17 -46.5v-386q0 -35 17.5 -46.5
t62.5 -13.5z" />
    <glyph glyph-name="Rcommaaccent.sc" horiz-adv-x="657" 
d="M357 -155h-51q-44 10 -44 53q0 25 19 40.5t50 15.5q38 0 60 -23t22 -60q0 -107 -141 -107v37q85 0 85 44zM285 549h-44v-246h45q74 0 109.5 30.5t35.5 94.5q0 57 -37 89t-109 32zM320 0h-282v47q46 2 63 13.5t17 46.5v386q0 35 -17 46.5t-63 13.5v47h290
q116 0 173.5 -45.5t57.5 -125.5q0 -63 -43.5 -103.5t-105.5 -51.5l125 -166q42 -60 104 -61v-47h-156q-39 28 -76 85l-119 172h-47v-150q0 -35 17 -46.5t62 -13.5v-47z" />
    <glyph glyph-name="Sacute.sc" horiz-adv-x="528" 
d="M303 817h136l-152 -167h-57zM253 -10q-124 0 -200 59l-7 141h57q38 -148 158 -148q53 0 83.5 23.5t30.5 68.5q0 37 -29 59.5t-106 46.5q-98 30 -142.5 72t-44.5 117q0 81 56 131t149 50q111 0 189 -54v-130h-50q-37 133 -145 133q-48 0 -73.5 -23.5t-25.5 -60.5
q0 -39 27.5 -61.5t103.5 -45.5q102 -30 149 -73.5t47 -121.5q0 -88 -64.5 -135.5t-162.5 -47.5z" />
    <glyph glyph-name="Itilde.sc" horiz-adv-x="361" 
d="M320 803l44 -10q-35 -78 -60.5 -103.5t-64.5 -25.5q-30 0 -69.5 34.5t-54.5 34.5q-21 0 -33.5 -13.5t-31.5 -46.5l-44 10q35 78 60.5 103.5t64.5 25.5q25 0 49 -17t43 -34t32 -17q21 0 34 13.5t31 45.5zM322 47v-47h-284v47q46 2 63 13.5t17 46.5v386q0 35 -17 46.5
t-63 13.5v47h284v-47q-46 -2 -63 -13.5t-17 -46.5v-386q0 -35 17.5 -46.5t62.5 -13.5z" />
    <glyph glyph-name="Scaron.sc" horiz-adv-x="528" 
d="M449 825l-140 -172h-88l-140 172h61l123 -96l123 96h61zM253 -10q-124 0 -200 59l-7 141h57q38 -148 158 -148q53 0 83.5 23.5t30.5 68.5q0 37 -29 59.5t-106 46.5q-98 30 -142.5 72t-44.5 117q0 81 56 131t149 50q111 0 189 -54v-130h-50q-37 133 -145 133
q-48 0 -73.5 -23.5t-25.5 -60.5q0 -39 27.5 -61.5t103.5 -45.5q102 -30 149 -73.5t47 -121.5q0 -88 -64.5 -135.5t-162.5 -47.5z" />
    <glyph glyph-name="Scedilla.sc" horiz-adv-x="528" 
d="M159 -225l-8 38q116 0 116 44q0 39 -90 42l37 93q-100 9 -161 57l-7 141h57q38 -148 158 -148q53 0 83.5 23.5t30.5 68.5q0 37 -29 59.5t-106 46.5q-98 30 -142.5 72t-44.5 117q0 81 56 131t149 50q111 0 189 -54v-130h-50q-37 133 -145 133q-48 0 -73.5 -23.5
t-25.5 -60.5q0 -39 27.5 -61.5t103.5 -45.5q102 -30 149 -73.5t47 -121.5q0 -88 -64.5 -135.5t-162.5 -47.5h-1l-14 -37q105 -3 105 -75q0 -50 -52 -76.5t-132 -26.5z" />
    <glyph glyph-name="Scircumflex.sc" horiz-adv-x="528" 
d="M308 819l140 -171h-61l-123 96l-123 -96h-61l140 171h88zM253 -10q-124 0 -200 59l-7 141h57q38 -148 158 -148q53 0 83.5 23.5t30.5 68.5q0 37 -29 59.5t-106 46.5q-98 30 -142.5 72t-44.5 117q0 81 56 131t149 50q111 0 189 -54v-130h-50q-37 133 -145 133
q-48 0 -73.5 -23.5t-25.5 -60.5q0 -39 27.5 -61.5t103.5 -45.5q102 -30 149 -73.5t47 -121.5q0 -88 -64.5 -135.5t-162.5 -47.5z" />
    <glyph glyph-name="Scommaaccent.sc" horiz-adv-x="528" 
d="M287 -155h-51q-44 10 -44 53q0 25 19 40.5t50 15.5q38 0 60 -23t22 -60q0 -107 -141 -107v37q85 0 85 44zM253 -10q-124 0 -200 59l-7 141h57q38 -148 158 -148q53 0 83.5 23.5t30.5 68.5q0 37 -29 59.5t-106 46.5q-98 30 -142.5 72t-44.5 117q0 81 56 131t149 50
q111 0 189 -54v-130h-50q-37 133 -145 133q-48 0 -73.5 -23.5t-25.5 -60.5q0 -39 27.5 -61.5t103.5 -45.5q102 -30 149 -73.5t47 -121.5q0 -88 -64.5 -135.5t-162.5 -47.5z" />
    <glyph glyph-name="Tbar.sc" horiz-adv-x="638" 
d="M43 600h552l14 -192h-46q-14 32 -18.5 42t-15 32t-15.5 27.5t-15.5 17.5t-19.5 15t-22 6t-29 3h-47v-220h105v-51h-105v-173q0 -34 19.5 -46t65.5 -14v-47h-294v47q47 2 66.5 14t19.5 46v173h-105v51h105v220h-47q-16 0 -29 -3t-22 -6t-19.5 -15t-15.5 -17.5t-15.5 -27.5
t-15 -32t-18.5 -42h-46z" />
    <glyph glyph-name="Tcaron.sc" horiz-adv-x="638" 
d="M43 600h552l14 -192h-46q-14 32 -18.5 42t-15 32t-15.5 27.5t-15.5 17.5t-19.5 15t-22 6t-29 3h-47v-444q0 -34 19.5 -46t65.5 -14v-47h-294v47q47 2 66.5 14t19.5 46v444h-47q-16 0 -29 -3t-22 -6t-19.5 -15t-15.5 -17.5t-15.5 -27.5t-15 -32t-18.5 -42h-46zM503 825
l-140 -172h-88l-140 172h61l123 -96l123 96h61z" />
    <glyph glyph-name="Tcedilla.sc" horiz-adv-x="638" 
d="M43 600h552l14 -192h-46q-14 32 -18.5 42t-15 32t-15.5 27.5t-15.5 17.5t-19.5 15t-22 6t-29 3h-47v-444q0 -34 19.5 -46t65.5 -14v-47h-294v47q47 2 66.5 14t19.5 46v444h-47q-16 0 -29 -3t-22 -6t-19.5 -15t-15.5 -17.5t-15.5 -27.5t-15 -32t-18.5 -42h-46zM339 -155
h-51q-44 10 -44 53q0 25 19 40.5t50 15.5q38 0 60 -23t22 -60q0 -107 -141 -107v37q85 0 85 44z" />
    <glyph glyph-name="Uacute.sc" horiz-adv-x="691" 
d="M404 817h136l-152 -167h-57zM227 493v-274q0 -156 138 -156q79 0 120 37.5t41 125.5v267q0 34 -18.5 46t-65.5 14v47h228v-47q-45 -2 -62 -14t-17 -46v-288q0 -104 -67.5 -159.5t-170.5 -55.5q-120 0 -186 54.5t-66 161.5v287q0 34 -17 46t-62 14v47h283v-47
q-45 -2 -61.5 -13.5t-16.5 -46.5z" />
    <glyph glyph-name="Ubreve.sc" horiz-adv-x="691" 
d="M227 493v-274q0 -156 138 -156q79 0 120 37.5t41 125.5v267q0 34 -18.5 46t-65.5 14v47h228v-47q-45 -2 -62 -14t-17 -46v-288q0 -104 -67.5 -159.5t-170.5 -55.5q-120 0 -186 54.5t-66 161.5v287q0 34 -17 46t-62 14v47h283v-47q-45 -2 -61.5 -13.5t-16.5 -46.5z
M367 650q-70 0 -108 44.5t-38 124.5h48q5 -49 32 -72t66 -23q40 0 67 23t32 72h48q0 -80 -38.5 -124.5t-108.5 -44.5z" />
    <glyph glyph-name="Ucircumflex.sc" horiz-adv-x="691" 
d="M411 819l140 -171h-61l-123 96l-123 -96h-61l140 171h88zM227 493v-274q0 -156 138 -156q79 0 120 37.5t41 125.5v267q0 34 -18.5 46t-65.5 14v47h228v-47q-45 -2 -62 -14t-17 -46v-288q0 -104 -67.5 -159.5t-170.5 -55.5q-120 0 -186 54.5t-66 161.5v287q0 34 -17 46
t-62 14v47h283v-47q-45 -2 -61.5 -13.5t-16.5 -46.5z" />
    <glyph glyph-name="Udieresis.sc" horiz-adv-x="691" 
d="M198 735q0 29 20 49t49 20t49.5 -20t20.5 -49t-20.5 -49.5t-49.5 -20.5t-49 20.5t-20 49.5zM397 735q0 29 20.5 49t48.5 20q29 0 49.5 -20t20.5 -49t-20.5 -49.5t-49.5 -20.5t-49 20.5t-20 49.5zM227 493v-274q0 -156 138 -156q79 0 120 37.5t41 125.5v267q0 34 -18.5 46
t-65.5 14v47h228v-47q-45 -2 -62 -14t-17 -46v-288q0 -104 -67.5 -159.5t-170.5 -55.5q-120 0 -186 54.5t-66 161.5v287q0 34 -17 46t-62 14v47h283v-47q-45 -2 -61.5 -13.5t-16.5 -46.5z" />
    <glyph glyph-name="Ugrave.sc" horiz-adv-x="691" 
d="M195 817h137l71 -167h-56zM227 493v-274q0 -156 138 -156q79 0 120 37.5t41 125.5v267q0 34 -18.5 46t-65.5 14v47h228v-47q-45 -2 -62 -14t-17 -46v-288q0 -104 -67.5 -159.5t-170.5 -55.5q-120 0 -186 54.5t-66 161.5v287q0 34 -17 46t-62 14v47h283v-47
q-45 -2 -61.5 -13.5t-16.5 -46.5z" />
    <glyph glyph-name="IJ.sc" horiz-adv-x="851" 
d="M322 47v-47h-284v47q46 2 63 13.5t17 46.5v386q0 35 -17 46.5t-63 13.5v47h284v-47q-46 -2 -63 -13.5t-17 -46.5v-386q0 -35 17.5 -46.5t62.5 -13.5zM748 493v-312q0 -191 -205 -191q-86 0 -136.5 32.5t-50.5 87.5q0 43 32 66h88v-42q0 -44 18.5 -69.5t53.5 -25.5
q74 0 74 121v333q0 35 -16.5 46.5t-61.5 13.5v47h284v-47q-46 -2 -63 -13.5t-17 -46.5z" />
    <glyph glyph-name="Uhungarumlaut.sc" horiz-adv-x="691" 
d="M323 817h118l-131 -167h-54zM486 817h119l-132 -167h-54zM227 493v-274q0 -156 138 -156q79 0 120 37.5t41 125.5v267q0 34 -18.5 46t-65.5 14v47h228v-47q-45 -2 -62 -14t-17 -46v-288q0 -104 -67.5 -159.5t-170.5 -55.5q-120 0 -186 54.5t-66 161.5v287q0 34 -17 46
t-62 14v47h283v-47q-45 -2 -61.5 -13.5t-16.5 -46.5z" />
    <glyph glyph-name="Umacron.sc" horiz-adv-x="691" 
d="M229 678v71h276v-71h-276zM227 493v-274q0 -156 138 -156q79 0 120 37.5t41 125.5v267q0 34 -18.5 46t-65.5 14v47h228v-47q-45 -2 -62 -14t-17 -46v-288q0 -104 -67.5 -159.5t-170.5 -55.5q-120 0 -186 54.5t-66 161.5v287q0 34 -17 46t-62 14v47h283v-47
q-45 -2 -61.5 -13.5t-16.5 -46.5z" />
    <glyph glyph-name="Uogonek.sc" horiz-adv-x="691" 
d="M227 493v-274q0 -156 138 -156q79 0 120 37.5t41 125.5v267q0 34 -18.5 46t-65.5 14v47h228v-47q-45 -2 -62 -14t-17 -46v-288q0 -78 -38.5 -128.5t-103.5 -71.5q-103 -50 -103 -106q0 -41 48 -41q43 0 85 30l14 -20q-64 -74 -134 -74q-40 0 -66 22t-26 60q0 66 84 114
q-119 1 -184.5 55t-65.5 161v287q0 34 -17 46t-62 14v47h283v-47q-45 -2 -61.5 -13.5t-16.5 -46.5z" />
    <glyph glyph-name="Uring.sc" horiz-adv-x="691" 
d="M271 739q0 40 28 67t71 27q44 0 71.5 -27t27.5 -67q0 -41 -27.5 -67.5t-71.5 -26.5q-43 0 -71 26.5t-28 67.5zM420 739q0 23 -13 37t-37 14q-23 0 -36 -14t-13 -37t13 -37t36 -14q24 0 37 14t13 37zM227 493v-274q0 -156 138 -156q79 0 120 37.5t41 125.5v267
q0 34 -18.5 46t-65.5 14v47h228v-47q-45 -2 -62 -14t-17 -46v-288q0 -104 -67.5 -159.5t-170.5 -55.5q-120 0 -186 54.5t-66 161.5v287q0 34 -17 46t-62 14v47h283v-47q-45 -2 -61.5 -13.5t-16.5 -46.5z" />
    <glyph glyph-name="Utilde.sc" horiz-adv-x="691" 
d="M227 493v-274q0 -156 138 -156q79 0 120 37.5t41 125.5v267q0 34 -18.5 46t-65.5 14v47h228v-47q-45 -2 -62 -14t-17 -46v-288q0 -104 -67.5 -159.5t-170.5 -55.5q-120 0 -186 54.5t-66 161.5v287q0 34 -17 46t-62 14v47h283v-47q-45 -2 -61.5 -13.5t-16.5 -46.5z
M513 805l43 -11q-34 -78 -59.5 -103.5t-64.5 -25.5q-32 0 -79 34.5t-65 34.5q-21 0 -34 -13.5t-31 -46.5l-44 10q35 79 60.5 104t64.5 25q33 0 79.5 -34t64.5 -34q21 0 33 13t32 47z" />
    <glyph glyph-name="Wcircumflex.sc" horiz-adv-x="876" 
d="M498 819l140 -171h-61l-123 96l-123 -96h-61l140 171h88zM619 174l109 299q11 30 11 42q0 20 -14.5 28t-56.5 10v47h194v-47q-43 -7 -52 -32l-199 -527h-39l-127 348l-130 -348h-40l-210 527q-10 25 -51 32v47h257v-47q-38 -2 -53 -10.5t-15 -27.5q0 -11 10 -38l114 -306
l90 250l-35 100q-6 16 -17 22.5t-32 9.5v47h247v-47q-42 -2 -57 -10t-15 -28q0 -12 10 -43z" />
    <glyph glyph-name="Wacute.sc" horiz-adv-x="876" 
d="M619 174l109 299q11 30 11 42q0 20 -14.5 28t-56.5 10v47h194v-47q-43 -7 -52 -32l-199 -527h-39l-127 348l-130 -348h-40l-210 527q-10 25 -51 32v47h257v-47q-38 -2 -53 -10.5t-15 -27.5q0 -11 10 -38l114 -306l90 250l-35 100q-6 16 -17 22.5t-32 9.5v47h247v-47
q-42 -2 -57 -10t-15 -28q0 -12 10 -43zM486 817h136l-152 -167h-57z" />
    <glyph glyph-name="Wgrave.sc" horiz-adv-x="876" 
d="M619 174l109 299q11 30 11 42q0 20 -14.5 28t-56.5 10v47h194v-47q-43 -7 -52 -32l-199 -527h-39l-127 348l-130 -348h-40l-210 527q-10 25 -51 32v47h257v-47q-38 -2 -53 -10.5t-15 -27.5q0 -11 10 -38l114 -306l90 250l-35 100q-6 16 -17 22.5t-32 9.5v47h247v-47
q-42 -2 -57 -10t-15 -28q0 -12 10 -43zM276 817h137l71 -167h-56z" />
    <glyph glyph-name="Wdieresis.sc" horiz-adv-x="876" 
d="M283 735q0 29 20.5 49t48.5 20q29 0 49.5 -20t20.5 -49t-20.5 -49.5t-49.5 -20.5t-49 20.5t-20 49.5zM482 735q0 29 20 49t49 20t49.5 -20t20.5 -49t-20.5 -49.5t-49.5 -20.5t-49 20.5t-20 49.5zM619 174l109 299q11 30 11 42q0 20 -14.5 28t-56.5 10v47h194v-47
q-43 -7 -52 -32l-199 -527h-39l-127 348l-130 -348h-40l-210 527q-10 25 -51 32v47h257v-47q-38 -2 -53 -10.5t-15 -27.5q0 -11 10 -38l114 -306l90 250l-35 100q-6 16 -17 22.5t-32 9.5v47h247v-47q-42 -2 -57 -10t-15 -28q0 -12 10 -43z" />
    <glyph glyph-name="Ygrave.sc" horiz-adv-x="612" 
d="M337 289l114 185q18 28 18 46q0 17 -15 24t-54 9v47h198v-47q-37 -6 -52 -32l-180 -291v-123q0 -35 18 -46.5t63 -13.5v-47h-282v47q46 2 64 13.5t18 46.5v123l-182 291q-15 26 -51 32v47h263v-47q-40 -1 -54.5 -8.5t-14.5 -24.5q0 -18 17 -46zM150 817h137l71 -167h-56z
" />
    <glyph glyph-name="Yacute.sc" horiz-adv-x="612" 
d="M366 817h136l-152 -167h-57zM337 289l114 185q18 28 18 46q0 17 -15 24t-54 9v47h198v-47q-37 -6 -52 -32l-180 -291v-123q0 -35 18 -46.5t63 -13.5v-47h-282v47q46 2 64 13.5t18 46.5v123l-182 291q-15 26 -51 32v47h263v-47q-40 -1 -54.5 -8.5t-14.5 -24.5
q0 -18 17 -46z" />
    <glyph glyph-name="Ycircumflex.sc" horiz-adv-x="612" 
d="M369 819l140 -171h-61l-123 96l-123 -96h-61l140 171h88zM337 289l114 185q18 28 18 46q0 17 -15 24t-54 9v47h198v-47q-37 -6 -52 -32l-180 -291v-123q0 -35 18 -46.5t63 -13.5v-47h-282v47q46 2 64 13.5t18 46.5v123l-182 291q-15 26 -51 32v47h263v-47
q-40 -1 -54.5 -8.5t-14.5 -24.5q0 -18 17 -46z" />
    <glyph glyph-name="Ydieresis.sc" horiz-adv-x="612" 
d="M154 735q0 29 20 49t49 20t49.5 -20t20.5 -49t-20.5 -49.5t-49.5 -20.5t-49 20.5t-20 49.5zM353 735q0 29 20.5 49t48.5 20q29 0 49.5 -20t20.5 -49t-20.5 -49.5t-49.5 -20.5t-49 20.5t-20 49.5zM337 289l114 185q18 28 18 46q0 17 -15 24t-54 9v47h198v-47
q-37 -6 -52 -32l-180 -291v-123q0 -35 18 -46.5t63 -13.5v-47h-282v47q46 2 64 13.5t18 46.5v123l-182 291q-15 26 -51 32v47h263v-47q-40 -1 -54.5 -8.5t-14.5 -24.5q0 -18 17 -46z" />
    <glyph glyph-name="Zacute.sc" horiz-adv-x="572" 
d="M339 817h136l-152 -167h-57zM185 52h167q50 0 76 25t70 108h45l-29 -185h-484v32l348 515h-156q-45 0 -65 -20.5t-48 -80.5q-4 -10 -7 -15h-42v169h468v-33z" />
    <glyph glyph-name="Zcaron.sc" horiz-adv-x="572" 
d="M489 825l-140 -172h-88l-140 172h61l123 -96l123 96h61zM185 52h167q50 0 76 25t70 108h45l-29 -185h-484v32l348 515h-156q-45 0 -65 -20.5t-48 -80.5q-4 -10 -7 -15h-42v169h468v-33z" />
    <glyph glyph-name="Zdotaccent.sc" horiz-adv-x="572" 
d="M185 52h167q50 0 76 25t70 108h45l-29 -185h-484v32l348 515h-156q-45 0 -65 -20.5t-48 -80.5q-4 -10 -7 -15h-42v169h468v-33zM305 661q-33 0 -54.5 22t-21.5 54q0 31 21.5 53t54.5 22t54.5 -22t21.5 -53q0 -32 -21.5 -54t-54.5 -22z" />
    <glyph glyph-name="Thorn.sc" horiz-adv-x="585" 
d="M242 423v-243h44q71 0 107 29t36 93q0 59 -38 90t-107 31h-42zM242 473h72q121 0 182.5 -46.5t61.5 -122.5q0 -83 -59.5 -127.5t-175.5 -44.5h-81v-25q0 -34 25 -46t83 -14v-47h-312v47q46 2 63 13.5t17 46.5v386q0 35 -17 46.5t-63 13.5v47h284v-47q-46 -2 -63 -13.5
t-17 -46.5v-20z" />
    <glyph glyph-name="ibreve" horiz-adv-x="335" 
d="M231 546v-444q0 -32 16 -42t56 -15v-45h-265v45q27 4 39.5 7.5t22.5 15.5t10 34v328l-67 42v24l160 50h28zM168 596q-70 0 -108 44.5t-38 124.5h48q5 -49 32 -72t66 -23q40 0 67 23t32 72h48q0 -80 -38.5 -124.5t-108.5 -44.5z" />
    <glyph glyph-name="f_f_k" horiz-adv-x="1272" 
d="M778 102v537q-42 83 -118 83q-47 0 -71 -33t-24 -93v-60h121v-60h-121v-374q0 -32 16 -42t55 -15v-45h-262v45q39 5 54.5 15t15.5 42v374h-212v-374q0 -32 16 -42t55 -15v-45h-264v45q27 4 39.5 7.5t22.5 15.5t10 34v374h-74v42l74 24v10q0 90 64.5 146.5t155.5 56.5
q105 0 160 -59q60 71 163 71q76 0 133 -36l84 30h27v-659q0 -31 16.5 -41.5t56.5 -15.5v-45h-265v45q40 5 56 15t16 42zM907 286l155 147q19 19 19 30q0 13 -13.5 18t-58.5 11v44h238v-44q-57 -14 -84 -39l-137 -129l240 -289v-35h-128zM444 556q0 32 8 64q-18 36 -49.5 61
t-68.5 25q-48 0 -75 -31t-27 -90v-50h212v21z" />
    <glyph glyph-name="f_f_j" horiz-adv-x="972" 
d="M777 476h-212v-374q0 -32 16 -42t55 -15v-45h-262v45q39 5 54.5 15t15.5 42v374h-212v-374q0 -32 16 -42t55 -15v-45h-264v45q27 4 39.5 7.5t22.5 15.5t10 34v374h-74v42l74 24v10q0 90 64.5 146.5t155.5 56.5q106 0 163 -62q65 74 183 74q72 0 113.5 -21t41.5 -62
q0 -37 -35 -59h-74v29q0 35 -15 51.5t-48 16.5q-41 0 -68 -36t-27 -103v-48h275l31 12h27v-447q0 -64 -8.5 -103t-30.5 -75q-41 -65 -139 -130l-27 28l34 49q32 43 41 86.5t9 120.5v400zM444 553q0 35 9 65q-18 37 -49.5 62.5t-69.5 25.5q-48 0 -75 -31t-27 -90v-50h212v18z
" />
    <glyph glyph-name="f_j" horiz-adv-x="639" 
d="M444 476h-212v-374q0 -32 16 -42t55 -15v-45h-264v45q27 4 39.5 7.5t22.5 15.5t10 34v374h-74v42l74 24v11q0 99 66 156.5t167 57.5q72 0 113 -21t41 -62q0 -38 -34 -59h-74v29q0 35 -15 51.5t-48 16.5q-41 0 -68 -36t-27 -103v-48h275l31 12h27v-447q0 -64 -8.5 -103
t-30.5 -75q-41 -65 -139 -130l-27 28l34 49q32 43 41 86.5t9 120.5v400z" />
    <glyph glyph-name="f_f_idieresis" horiz-adv-x="1002" 
d="M331 755q105 0 159 -58q61 72 168 72q65 0 101 -21.5t36 -61.5q0 -41 -33 -61h-79v31q0 68 -44 68q-35 0 -54.5 -32.5t-19.5 -91.5v-65h275l31 12h27v-445q0 -31 16.5 -41.5t56.5 -15.5v-45h-264v45q27 4 39.5 7.5t22 15.5t9.5 34v374h-213v-374q0 -32 16 -42t55 -15v-45
h-262v45q39 5 54.5 15t15.5 42v374h-212v-374q0 -32 16 -42t55 -15v-45h-264v45q27 4 39.5 7.5t22.5 15.5t10 34v374h-74v42l74 24v10q0 90 64.5 146.5t155.5 56.5zM444 535v23q0 35 7 63q-18 36 -49 60.5t-68 24.5q-48 0 -75 -31t-27 -90v-50h212zM867 681q0 29 20.5 49
t48.5 20q29 0 49.5 -20t20.5 -49t-20.5 -49.5t-49.5 -20.5t-49 20.5t-20 49.5z" />
    <glyph glyph-name="f_idieresis" horiz-adv-x="669" 
d="M534 681q0 29 20 49t49 20t49.5 -20t20.5 -49t-20.5 -49.5t-49.5 -20.5t-49 20.5t-20 49.5zM111 542v16q0 98 60 154.5t154 56.5q65 0 101 -21.5t36 -61.5q0 -41 -33 -61h-79v31q0 68 -44 68q-35 0 -54.5 -32.5t-19.5 -91.5v-65h275l31 12h27v-445q0 -32 16 -42t56 -15
v-45h-263v45q39 5 54.5 15t15.5 42v374h-212v-374q0 -32 16 -42t55 -15v-45h-264v45q27 4 39.5 7.5t22.5 15.5t10 34v374h-74v42z" />
    <glyph glyph-name="f_f_h" horiz-adv-x="1330" 
d="M778 102v537q-42 83 -118 83q-47 0 -71 -33t-24 -93v-60h121v-60h-121v-374q0 -32 16 -42t55 -15v-45h-262v45q39 5 54.5 15t15.5 42v374h-212v-374q0 -32 16 -42t55 -15v-45h-264v45q27 4 39.5 7.5t22.5 15.5t10 34v374h-74v42l74 24v10q0 90 64.5 146.5t155.5 56.5
q105 0 160 -59q60 71 163 71q76 0 133 -36l84 30h27v-315q98 100 192 100q144 0 144 -164v-280q0 -32 16 -42t56 -15v-45h-264v45q39 5 55 15t16 42v270q0 46 -20 66.5t-64 20.5q-67 0 -131 -43v-314q0 -31 16 -41.5t55 -15.5v-45h-263v45q40 5 56 15t16 42zM444 556
q0 32 8 64q-18 36 -49.5 61t-68.5 25q-48 0 -75 -31t-27 -90v-50h212v21z" />
    <glyph glyph-name="f_h" horiz-adv-x="997" 
d="M444 102v537q-41 83 -117 83q-47 0 -71 -33t-24 -93v-60h121v-60h-121v-374q0 -32 16 -42t55 -15v-45h-264v45q27 4 39.5 7.5t22.5 15.5t10 34v374h-74v42l74 24v14q0 97 61 154t149 57q76 0 133 -36l84 30h27v-315q98 100 192 100q144 0 144 -164v-280q0 -32 16 -42
t56 -15v-45h-264v45q39 5 55 15t16 42v270q0 46 -20 66.5t-64 20.5q-66 0 -131 -43v-314q0 -31 16 -41.5t55 -15.5v-45h-263v45q39 5 55 15t16 42z" />
    <glyph glyph-name="f_f_b" horiz-adv-x="1312" 
d="M778 57v582q-42 83 -118 83q-47 0 -71 -33t-24 -93v-60h121v-60h-121v-374q0 -32 16 -42t55 -15v-45h-262v45q39 5 54.5 15t15.5 42v374h-212v-374q0 -32 16 -42t55 -15v-45h-264v45q27 4 39.5 7.5t22.5 15.5t10 34v374h-74v42l74 24v10q0 90 64.5 146.5t155.5 56.5
q105 0 160 -59q60 71 163 71q76 0 133 -36l84 30h27v-305q63 90 167 90q98 0 153.5 -70t55.5 -182q0 -138 -77 -221t-193 -83q-145 0 -226 67zM1010 43q64 0 103 56.5t39 149.5t-37.5 154t-108.5 61q-68 0 -108 -38v-256q0 -127 112 -127zM444 556q0 32 8 64
q-18 36 -49.5 61t-68.5 25q-48 0 -75 -31t-27 -90v-50h212v21z" />
    </font>
</defs>
</svg>
