<svg xmlns="http://www.w3.org/2000/svg" width="35" height="35" viewBox="0 0 35 35">
    <g fill="none" fill-rule="evenodd">
        <circle cx="17.5" cy="17.5" r="17.5" fill="#ECEEF0"/>
        <g fill="#FFF">
            <path d="M17.767 8.444c-2.376 0-2.673.01-3.607.054-.93.042-1.567.192-2.123.41a4.284 4.284 0 0 0-1.55 1.019 4.334 4.334 0 0 0-1.009 1.564c-.216.562-.364 1.204-.406 2.144-.043.942-.053 1.243-.053 3.642 0 2.398.01 2.699.053 3.64.042.94.19 1.583.406 2.145a4.334 4.334 0 0 0 1.01 1.564c.485.491.974.793 1.549 1.019.556.218 1.192.367 2.123.41.934.043 1.231.053 3.607.053 2.377 0 2.674-.01 3.608-.053.93-.043 1.567-.192 2.123-.41a4.284 4.284 0 0 0 1.55-1.019 4.334 4.334 0 0 0 1.009-1.564c.216-.562.364-1.204.406-2.144.043-.942.053-1.243.053-3.641 0-2.4-.01-2.7-.053-3.642-.042-.94-.19-1.582-.406-2.144a4.334 4.334 0 0 0-1.01-1.564 4.284 4.284 0 0 0-1.549-1.019c-.556-.218-1.192-.368-2.123-.41-.934-.043-1.231-.054-3.607-.054m0 1.592c2.335 0 2.612.009 3.535.051.853.04 1.316.183 1.624.304.409.16.7.352 1.006.661.306.309.496.603.654 1.015.12.312.263.78.302 1.64.042.932.05 1.211.05 3.57 0 2.358-.008 2.637-.05 3.568-.039.861-.181 1.329-.301 1.64a2.741 2.741 0 0 1-.655 1.016c-.306.309-.597.5-1.006.66-.308.121-.771.265-1.624.305-.923.042-1.2.051-3.535.051-2.337 0-2.613-.01-3.536-.051-.853-.04-1.316-.184-1.624-.304-.409-.16-.7-.352-1.006-.661a2.741 2.741 0 0 1-.654-1.016c-.12-.311-.263-.779-.302-1.64-.042-.93-.05-1.21-.05-3.568 0-2.359.008-2.638.05-3.57.039-.86.181-1.328.302-1.64.158-.412.348-.706.654-1.015.306-.31.597-.5 1.006-.66.308-.122.771-.265 1.624-.305.923-.042 1.2-.051 3.536-.051"/>
            <path d="M17.767 20.22c-1.61 0-2.916-1.318-2.916-2.943 0-1.627 1.306-2.945 2.916-2.945 1.611 0 2.917 1.318 2.917 2.945 0 1.625-1.306 2.943-2.917 2.943m0-7.479c-2.48 0-4.492 2.03-4.492 4.536 0 2.504 2.011 4.535 4.492 4.535 2.482 0 4.493-2.03 4.493-4.535 0-2.505-2.011-4.536-4.493-4.536M23.487 12.562c0 .585-.47 1.06-1.05 1.06-.58 0-1.05-.475-1.05-1.06 0-.585.47-1.06 1.05-1.06.58 0 1.05.475 1.05 1.06"/>
        </g>
    </g>
</svg>
