<svg xmlns="http://www.w3.org/2000/svg" width="35" height="35" viewBox="0 0 35 35">
    <g fill="none" fill-rule="evenodd">
        <circle cx="17.5" cy="17.5" r="17.5" fill="#ECEEF0"/>
        <path fill="#FFF" d="M10.95 25.261h2.985v-9.59H10.95zM12.443 14.362a1.728 1.728 0 1 1-.003-3.456 1.728 1.728 0 0 1 .003 3.456M25.097 25.261h-2.98v-4.664c0-1.111-.02-2.542-1.549-2.542-1.55 0-1.787 1.212-1.787 2.463v4.743h-2.977v-9.59h2.857v1.312h.04c.398-.755 1.371-1.55 2.82-1.55 3.018 0 3.576 1.986 3.576 4.569v5.26z"/>
    </g>
</svg>
