<svg xmlns="http://www.w3.org/2000/svg" width="141" height="36" viewBox="0 0 141 36">
    <g fill="none" fill-rule="evenodd">
        <g fill="#D9514B">
            <path d="M12.726 23.67a1.17 1.17 0 0 1-1.13-.862 6.837 6.837 0 0 1-.243-1.813v-5.63c0-2.213 1.8-4.01 4.01-4.01 1.549 0 2.975.905 3.633 2.307a1.173 1.173 0 0 1-2.122.996 1.668 1.668 0 0 0-3.177.706v5.631c0 .405.053.807.159 1.192a1.17 1.17 0 0 1-1.13 1.482"/>
            <path d="M18.202 27.843a6.882 6.882 0 0 1-3.124-.752 1.173 1.173 0 0 1-.507-1.578 1.17 1.17 0 0 1 1.577-.507 4.51 4.51 0 0 0 6.559-4.011v-5.631c0-4.049-3.294-7.344-7.344-7.344a1.172 1.172 0 0 1 0-2.344c5.34 0 9.687 4.346 9.687 9.688v5.631a6.856 6.856 0 0 1-6.848 6.848"/>
            <path d="M18.202 33.52c-6.906 0-12.525-5.62-12.525-12.525v-5.63a9.731 9.731 0 0 1 4.799-8.367 1.17 1.17 0 1 1 1.184 2.023 7.378 7.378 0 0 0-3.64 6.343v5.631c0 5.614 4.568 10.181 10.182 10.181 1.654 0 3.23-.384 4.686-1.139a1.17 1.17 0 1 1 1.08 2.08 12.557 12.557 0 0 1-5.766 1.402"/>
            <path d="M26.965 29.384a1.17 1.17 0 0 1-.903-1.917 10.194 10.194 0 0 0 2.321-6.472v-5.631c0-5.4-3.395-10.301-8.449-12.196-.002 0-1.304-.433-2.309-.614-1.054-.191-2.267-.211-2.279-.211-7.162 0-13.003 5.841-13.003 13.021v5.631a1.17 1.17 0 1 1-2.343 0v-5.631C0 6.892 6.892 0 15.363 0c.075.001 1.436.023 2.679.247 1.185.214 2.615.692 2.675.713 6.002 2.249 10.01 8.033 10.01 14.404v5.631c0 2.901-1.015 5.728-2.857 7.963-.233.28-.568.426-.905.426M8.266 36c-.237 0-.477-.071-.684-.221a18.308 18.308 0 0 1-6.837-9.613 1.171 1.171 0 1 1 2.247-.665 15.946 15.946 0 0 0 5.959 8.376A1.173 1.173 0 0 1 8.266 36"/>
        </g>
        <g fill="#2F363B">
            <path d="M45.467 11.924c-1.432 0-2.62.669-3.534 1.989l-.122-1.53a.173.173 0 0 0-.173-.158H39.9a.173.173 0 0 0-.173.174v12.039c0 .095.077.173.173.173h1.925a.173.173 0 0 0 .173-.173v-8.051c.896-1.591 1.918-2.332 3.214-2.332.28 0 .543.026.797.079.124.026.405.12.584.183a.151.151 0 0 0 .197-.113l.381-1.855a.15.15 0 0 0-.104-.175 8.242 8.242 0 0 0-.606-.162 5.388 5.388 0 0 0-.993-.088M56.663 17.027H50.2c.405-2.025 1.768-3.273 3.597-3.273.848 0 1.523.246 2.003.731.55.558.847 1.434.863 2.542m-2.913-5.104c-3.488 0-5.925 2.62-5.925 6.367 0 4.466 2.59 6.994 6.864 6.577 1.333-.13 2.599-.644 3.686-1.426a.174.174 0 0 0 .043-.236l-.863-1.306a.165.165 0 0 0-.227-.049c-.137.088-.34.218-.431.27-.962.548-2.014.846-3.007.846-2.991 0-3.722-2.294-3.791-4.294h8.41c.135 0 .25-.099.27-.232.018-.113.037-.238.045-.31.023-.22.04-.46.04-.652 0-3.478-1.912-5.555-5.114-5.555M69.678 15.526v5.807c-1.006 1.13-2.036 1.656-3.237 1.656-2.043 0-3.215-1.729-3.215-4.745 0-2.795 1.172-4.398 3.215-4.398 1.168 0 2.198.534 3.237 1.68zm0-1.99c-1.117-1.055-2.345-1.59-3.655-1.59-3.125 0-5.067 2.404-5.067 6.274 0 4.176 1.886 6.67 5.044 6.67 1.421 0 2.665-.548 3.791-1.669l.144 1.236c.01.088.084.153.172.153h1.67a.173.173 0 0 0 .172-.173V6.923a.173.173 0 0 0-.173-.173h-1.925a.173.173 0 0 0-.173.173v6.613zM79.892 17.43c-1.5-.377-2.794-.704-2.794-1.9 0-1.038.866-1.683 2.263-1.683.85 0 1.892.234 2.782.612a10 10 0 0 1 .391.186.275.275 0 0 0 .365-.119l.67-1.278a.275.275 0 0 0-.132-.378 13.657 13.657 0 0 0-.395-.172c-1.206-.487-2.494-.752-3.68-.752-2.699 0-4.512 1.469-4.512 3.652 0 2.656 2.225 3.236 4.188 3.748 1.524.397 2.841.741 2.841 1.96 0 1.464-1.549 1.683-2.47 1.683-1.107 0-2.292-.31-3.31-.858a9.09 9.09 0 0 1-.273-.158.275.275 0 0 0-.376.094l-.749 1.214a.276.276 0 0 0 .095.383c.14.082.305.177.39.222 1.262.658 2.71 1.003 4.222 1.003 2.94 0 4.695-1.374 4.695-3.675 0-2.723-2.236-3.287-4.21-3.784M92.617 22.657c-.41.206-.84.31-1.287.31-.972 0-1.405-.541-1.405-1.753v-7.16h3.283a.173.173 0 0 0 .174-.171v-1.484a.174.174 0 0 0-.174-.174h-3.283V8.87a.174.174 0 0 0-.174-.173h-1.925a.173.173 0 0 0-.172.173v3.353h-1.938a.174.174 0 0 0-.174.174v1.484c0 .095.078.172.174.172h1.938v7.182c0 2.459 1.134 3.652 3.466 3.652.76 0 1.589-.223 2.313-.612.1-.053.288-.174.437-.271a.273.273 0 0 0 .085-.368l-.64-1.08a.272.272 0 0 0-.382-.091c-.118.075-.25.157-.316.19M102.823 18.96v2.68c-.717.89-1.879 1.42-3.122 1.42-1.135 0-1.869-.607-1.869-1.545 0-1.532 1.633-2.369 4.991-2.556m2.27 2.857v-6.008c0-2.49-1.56-3.862-4.395-3.862-1.186 0-2.605.322-3.983.894-.133.055-.392.173-.587.264a.275.275 0 0 0-.132.37l.652 1.343a.274.274 0 0 0 .37.127c.163-.082.366-.18.465-.227 1.196-.548 2.26-.825 3.17-.825 1.42 0 2.17.654 2.17 1.892v1.6c-4.803.24-7.238 1.675-7.238 4.27 0 1.934 1.487 3.235 3.698 3.235 1.848 0 3.115-.847 3.892-1.63.42.84 1.131 1.254 2.342 1.351.103.01.322.015.502.018a.275.275 0 0 0 .281-.275V23.14a.276.276 0 0 0-.263-.275 2.591 2.591 0 0 1-.183-.013c-.505-.087-.76-.435-.76-1.036M122.434 11.924c-1.488 0-2.905.63-4.213 1.873-.61-1.243-1.742-1.873-3.373-1.873-1.331 0-2.676.582-3.823 1.646l-.088-1.185a.173.173 0 0 0-.172-.16h-1.786a.173.173 0 0 0-.173.174v12.039c0 .095.077.173.173.173h1.925a.174.174 0 0 0 .173-.173v-8.87c.918-1.125 2.107-1.745 3.354-1.745 1.37 0 2.007.756 2.007 2.38v8.235c0 .095.078.173.173.173h1.948a.173.173 0 0 0 .173-.173V16.34c0-.292-.021-.598-.041-.846.943-1.08 2.122-1.672 3.326-1.672 1.35 0 2.007.778 2.007 2.38v8.235c0 .095.078.173.174.173h1.924a.174.174 0 0 0 .173-.173v-8.19c0-2.788-1.372-4.324-3.861-4.324M137.95 18.244c0 3.016-1.164 4.746-3.19 4.746-1.209 0-2.269-.542-3.239-1.655v-5.81c1.04-1.145 2.061-1.68 3.214-1.68 2.043 0 3.214 1.605 3.214 4.399m-2.773-6.297c-1.352 0-2.638.573-3.74 1.663l-.125-1.23a.174.174 0 0 0-.173-.155h-1.69a.174.174 0 0 0-.175.173v16.679c0 .096.078.173.174.173h1.9a.173.173 0 0 0 .174-.173v-5.772c1.097 1.05 2.333 1.584 3.678 1.584 3.144 0 5.021-2.493 5.021-6.668 0-3.871-1.933-6.274-5.044-6.274"/>
        </g>
    </g>
</svg>
