<svg xmlns="http://www.w3.org/2000/svg" width="35" height="35" viewBox="0 0 35 35">
    <g fill="none" fill-rule="evenodd">
        <circle cx="17.5" cy="17.5" r="17.5" fill="#ECEEF0"/>
        <path fill="#FFF" d="M26.258 12.65a7.116 7.116 0 0 1-2.033.554 3.54 3.54 0 0 0 1.556-1.946 7.083 7.083 0 0 1-2.248.853A3.546 3.546 0 0 0 20.95 11c-1.957 0-3.54 1.575-3.54 3.518 0 .276.03.545.09.802a10.067 10.067 0 0 1-7.297-3.676 3.483 3.483 0 0 0-.48 1.77c0 1.22.661 2.297 1.612 2.929-.58-.02-1.569-.177-1.569-.44v.043a3.494 3.494 0 0 0 2.805 3.45 3.7 3.7 0 0 1-1.627.06 3.535 3.535 0 0 0 3.303 2.444A7.137 7.137 0 0 1 9 23.357c1.567 1 3.428 1.582 5.427 1.582 6.513 0 10.074-5.363 10.074-10.012 0-.153-.003-.305-.01-.455a7.195 7.195 0 0 0 1.767-1.822"/>
    </g>
</svg>
